<svg xmlns="http://www.w3.org/2000/svg" viewBox="779.206 281.912 273.844 338.292"><path fill="none" d="M993.412 612.747a18.382 18.382 0 001.626-.808V560.31c-1.438-11.141-2.104-17.948-2.104-17.948a241.37 241.37 0 01-.185-2.146v72.903c.453-.232.663-.372.663-.372z"/><path fill="none" d="M1052.508 422.167s-1.436-19.096-2.453-35.293c0 0 1.726-29.647-15.627-56.117 0 0-5.347-6.467-16.166-16.211.065 1.362.648 14.484-.326 27.795v-28.09a14.875 14.875 0 00-.135-.122v.007c-10.504-6.073-25.037-10.142-25.037-10.142-14.746-2.992-32.315-13.173-32.315-13.173-1.451-1.157-7.42-2.221-7.42-2.221H927.5v-6.189h-20.34v6.189h-26.537c-3.471.2-7.035 1.064-7.035 1.064-16.781 10.613-44.547 17.94-44.547 17.94-6.371 2.128-13.498 5.599-13.498 5.599v-.031s-4.535 4.921-9.055 8.376c0 0-21.688 16.197-23.91 59.002l-.293 7.805-.586 6.371s-.184 7.914-.863 14.947c0 0-.293 14.068-.973 15.041 0 0 11.184 10.504 38.379 11.568 0 0 6.756.201 9.934-2.406 0 0-.215-1.928.078-7.035 0 0 .4-4.828.787-8.775 0 0-.865-13.684.678-23.91 0 0-.293-1.449 1.25-1.203 2.9 7.805 3.471 27.334 3.471 27.334 2.313 27.766 5.645 66.529 5.645 66.529 3.471 52.061-7.527 108.178-7.527 108.178a114.528 114.528 0 01-1.588 8.098c1.357 13.111 27.766 14.563 27.766 14.563 16.946 1.42 34.042 1.955 49.291 2.038V288.859h2.29V619.7l2.29.003V288.859h2.29v330.84c.769-.002 1.533-.006 2.29-.01v-330.83h2.29v330.813l2.29-.023v-330.79h2.29V619.62l2.29-.035V288.859h2.29v330.684l2.29-.047V288.859h2.29v330.583c.775-.019 1.539-.039 2.29-.06V288.859h2.29v330.457l2.29-.072V288.859h2.29v330.307c.784-.028 1.546-.056 2.29-.085V288.859h2.29v330.13l2.29-.098V288.859h2.29v329.927c.81-.039 1.572-.076 2.29-.113V288.934c.473.091 1.322.261 2.29.488v329.13c.865-.047 1.631-.091 2.29-.13V290.03c.95.29 1.792.614 2.29.948v327.303l.621-.042c.568-.011 1.118-.027 1.668-.043v-325.93c.641.347 1.408.756 2.29 1.215v324.635c.782-.033 1.547-.069 2.29-.111V294.65c.72.361 1.485.737 2.29 1.124V617.86c.789-.057 1.547-.12 2.29-.186V296.855c.741.343 1.505.689 2.29 1.037v319.557c.789-.085 1.559-.173 2.29-.267V298.883c.751.317 1.515.632 2.29.942v317.032a83.674 83.674 0 002.29-.379V300.712c.758.285 1.521.564 2.29.833v314.487a62.77 62.77 0 002.29-.53V302.315c.763.245 1.527.478 2.29.699v311.859a37.325 37.325 0 002.29-.766V303.64c.769.195 1.532.37 2.29.53v179.753c.818-6.734 1.613-15.26 2.29-23.333V304.815c.63.193 1.405.437 2.29.725v125.735c1.246-12.687 1.977-26.308 1.977-26.308a54.05 54.05 0 01.313-2.361v-96.302c.724.248 1.489.516 2.29.804v86.727c.237-.572.389-.869.389-.869.203-.311.406-.641.609-.986-.174.49-.342.988-.5 1.51 0 0 .262.803.631 3.596 0 0 .371 7.666.51 21.256 0 0 .586 7.234.803 15.117 0 0 .939 2.822 7.018 2.744 0 0 16.846 1.65 38.533-8.9-.008.001 3.03-2.019 2.599-5.136zm-46.021-36.274c-.758 1.776-1.526 3.424-2.29 4.872v-82.808c.747.283 1.512.58 2.29.891v77.045zm4.58-12.294a211.261 211.261 0 01-2.29 6.516v-70.329c.76.321 1.525.654 2.29.998v62.815zm4.579-15.019a317.7 317.7 0 01-2.29 7.843v-54.574c.772.371 1.536.754 2.29 1.146v45.585z"/><path fill="none" d="M999.618 608.143v-16.53a943.467 943.467 0 01-2.29-14.742v33.546c.946-.754 1.7-1.531 2.29-2.274z"/><path d="M1018.262 314.546c-.11-.1-.214-.195-.326-.295v28.09c.973-13.311.391-26.433.326-27.795zM1013.357 366.424a317.7 317.7 0 002.29-7.843v-45.585a81.458 81.458 0 00-2.29-1.146v54.574zM1008.777 380.115c.802-2.16 1.572-4.368 2.29-6.516v-62.815c-.765-.344-1.53-.677-2.29-.998v70.329zM1004.198 390.764c.764-1.448 1.531-3.096 2.29-4.872v-77.046c-.778-.311-1.543-.607-2.29-.891v82.809zM1001.711 604.171c.586-1.543-.863-5.213-.863-5.213-.43-2.5-.838-4.946-1.23-7.345v16.53c1.699-2.14 2.093-3.972 2.093-3.972zM999.618 306.305v96.302c.687-4.47 1.729-7.416 2.29-8.77V307.11a160.87 160.87 0 00-2.29-.805zM995.038 304.815V460.59a1598.712 1598.712 0 001.952-26.021c.117-1.084.229-2.186.338-3.294V305.54c-.885-.288-1.66-.531-2.29-.725zM997.328 610.417v-33.546a939.323 939.323 0 01-2.29-16.561v51.629c.869-.48 1.628-.993 2.29-1.522zM990.459 303.64v310.468c1.071-.4 1.815-.744 2.29-.988v-72.903c-2.116-25.68-.291-53.971-.291-53.971.097-.743.194-1.524.291-2.321V304.17a57.838 57.838 0 01-2.29-.53zM985.879 302.315v313.188a50.585 50.585 0 002.29-.63V303.014a79.922 79.922 0 01-2.29-.699zM981.299 300.712v315.766a76.488 76.488 0 002.29-.447V301.545a102.06 102.06 0 01-2.29-.833zM976.72 298.883v318.299c.8-.103 1.557-.212 2.29-.324V299.825a130.98 130.98 0 01-2.29-.942zM972.14 296.855v320.819c.79-.07 1.552-.146 2.29-.225V297.892c-.785-.348-1.549-.694-2.29-1.037zM967.561 294.65v323.356c.783-.044 1.549-.092 2.29-.145V295.774c-.805-.387-1.57-.764-2.29-1.124zM962.981 292.267v325.93c.781-.022 1.545-.049 2.29-.08V293.482c-.882-.459-1.649-.868-2.29-1.215zM958.402 290.03v328.393a369.47 369.47 0 002.29-.142V290.978c-.499-.334-1.34-.658-2.29-.948zM953.822 288.934v329.739c.824-.042 1.592-.083 2.29-.121v-329.13a59.586 59.586 0 00-2.29-.488zM949.242 288.859v330.032c.798-.035 1.562-.071 2.29-.105V288.859h-2.29zM944.663 288.859V619.08c.787-.03 1.55-.061 2.29-.092v-330.13h-2.29zM940.083 288.859v330.385l2.29-.078V288.859h-2.29zM935.504 288.859v330.523c.777-.021 1.541-.043 2.29-.066V288.859h-2.29zM930.924 288.859v330.637c.776-.017 1.537-.035 2.29-.054V288.859h-2.29zM926.344 288.859v330.726l2.29-.041V288.859h-2.29zM921.765 288.859v330.79l2.29-.029V288.859h-2.29zM917.185 288.859v330.83l2.29-.016V288.859h-2.29zM912.606 288.859v330.843c.769 0 1.532-.001 2.29-.004v-330.84h-2.29zM908.026 288.859v330.832l2.29.009V288.859h-2.29z"/></svg>