<svg xmlns="http://www.w3.org/2000/svg" viewBox="280.996 153.383 80 80"><path stroke="#FFF" stroke-width=".093" stroke-miterlimit="10" d="M281.384 153.383h79.613v80h-79.613z"/><path fill="none" stroke="#231F20" stroke-width=".052" stroke-miterlimit="22.926" d="M281.384 153.383h79.613v80h-79.613z"/><path fill="none" stroke="#231F20" stroke-width=".052" stroke-miterlimit="22.926" d="M321.19 153.383h39.806v80H321.19z"/><path fill="#FFF" d="M319.628 153.383h.777v80h-.777zM318.074 153.383h.777v80h-.777zM316.52 153.383h.777v80h-.777zM314.966 153.383h.777v80h-.777zM313.412 153.383h.777v80h-.777zM311.859 153.383h.777v80h-.777zM310.305 153.383h.777v80h-.777zM308.751 153.383h.777v80h-.777zM307.197 153.383h.777v80h-.777zM305.643 153.383h.777v80h-.777zM304.09 153.383h.777v80h-.777zM302.536 153.383h.777v80h-.777zM300.982 153.383h.777v80h-.777zM299.428 153.383h.777v80h-.777zM297.875 153.383h.777v80h-.777zM296.321 153.383h.777v80h-.777zM294.767 153.383h.777v80h-.777zM293.213 153.383h.777v80h-.777zM291.659 153.383h.777v80h-.777zM290.106 153.383h.777v80h-.777zM288.552 153.383h.777v80h-.777zM286.998 153.383h.777v80h-.777zM285.444 153.383h.777v80h-.777zM283.89 153.383h.777v80h-.777zM282.337 153.383h.777v80h-.777z"/></svg>