<svg xmlns="http://www.w3.org/2000/svg" width="80" height="80" viewBox="614.14 100.848 80 80"><path fill="none" d="M659.269 140.579v-39.731h-10.27v80h10.27v-9.753zM694.128 100.848v80h.012v-80zM682.509 140.579v-39.731h-11.62v80h11.62v-9.753zM662.537 180.848l2.542-2.969zM617.407 180.848h.001l2.541-2.969zM637.38 140.579v-39.731h-11.622v80h11.622v-9.753z"/><path opacity=".8" fill="#231F20" d="M625.758 106.546l-4.879-5.698h-1.86l-4.879 5.698 5.809 6.785z"/><path opacity=".7" fill="#231F20" d="M625.758 100.848h-4.879l4.879 5.698zM614.14 100.848v5.698l4.879-5.698z"/><path opacity=".8" fill="#231F20" d="M625.758 171.095l-5.809-6.785-5.809 6.785 5.809 6.784z"/><path opacity=".6" fill="#231F20" d="M617.408 180.848h5.083l-2.542-2.969z"/><path opacity=".7" fill="#231F20" d="M619.949 177.879l2.542 2.969h3.267v-9.753z"/><path opacity=".7" fill="#231F20" d="M614.14 171.095v9.753h3.267l2.542-2.969z"/><path opacity=".8" fill="#231F20" d="M643.189 113.331l5.81-6.785-4.879-5.698h-1.861l-4.879 5.698z"/><path opacity=".7" fill="#231F20" d="M648.999 100.848h-4.879l4.879 5.698zM642.259 100.848h-4.879v5.698z"/><path opacity=".8" fill="#231F20" d="M637.38 171.095l5.809 6.784 5.81-6.784-5.81-6.785z"/><path opacity=".6" fill="#231F20" d="M640.647 180.848h5.084l-2.542-2.969z"/><path opacity=".7" fill="#231F20" d="M643.189 177.879l2.542 2.969h3.268v-9.753z"/><path opacity=".7" fill="#231F20" d="M637.38 171.095v9.753h3.267l2.542-2.969z"/><path fill="#231F20" d="M625.758 171.095V106.546l-5.809 6.785-5.809-6.785v64.549l5.809-6.785zM637.38 106.546v64.549l5.809-6.785 5.81 6.785V106.546l-5.81 6.785z"/><path opacity=".8" fill="#231F20" d="M665.079 113.331l5.81-6.785-4.88-5.698h-1.861l-4.879 5.698z"/><path opacity=".7" fill="#231F20" d="M670.889 100.848h-4.88l4.88 5.698zM664.148 100.848h-4.879v5.698z"/><path opacity=".8" fill="#231F20" d="M659.269 171.095l5.81 6.784 5.81-6.784-5.81-6.785z"/><path opacity=".6" fill="#231F20" d="M662.537 180.848h5.084l-2.542-2.969z"/><path opacity=".7" fill="#231F20" d="M665.079 177.879l2.542 2.969h3.268v-9.753z"/><path opacity=".7" fill="#231F20" d="M659.269 171.095v9.753h3.268l2.542-2.969z"/><path opacity=".8" fill="#231F20" d="M688.319 113.331l5.809-6.785-4.878-5.698h-1.862l-4.879 5.698z"/><path opacity=".7" fill="#231F20" d="M694.128 100.848h-4.878l4.878 5.698zM687.388 100.848h-4.879v5.698z"/><path opacity=".8" fill="#231F20" d="M682.509 171.095l5.81 6.784 5.809-6.784-5.809-6.785z"/><path opacity=".6" fill="#231F20" d="M685.777 180.848h5.084l-2.542-2.969z"/><path opacity=".7" fill="#231F20" d="M688.319 177.879l2.542 2.969h3.267v-9.753z"/><path opacity=".7" fill="#231F20" d="M682.509 171.095v9.753h3.268l2.542-2.969z"/><path fill="#231F20" d="M659.269 106.546v64.549l5.81-6.785 5.81 6.785V106.546l-5.81 6.785zM682.509 106.546v64.549l5.81-6.785 5.809 6.785V106.546l-5.809 6.785z"/></svg>