<svg xmlns="http://www.w3.org/2000/svg" width="272.688" height="337.292" viewBox="305 252 272.688 337.292"><path fill="none" d="M516.697 273.322l-6.199 7.831-10.871-13.731 10.871 13.733zM522.092 580.299c4.001-2.993 4.755-6.54 4.755-6.54.586-1.543-.863-5.213-.863-5.213a942.495 942.495 0 01-3.892-24.636V580.299zM518.836 518.978v-.002l-8.338-10.535zM406.126 266.504h.002l6.582-8.316h-.002l-6.582 8.315zM417.724 281.155l-11.598 14.649h.002zM475.706 523.092v-.002l-11.596-14.649zM452.515 523.09v.002l11.595-14.651z"/><path fill="none" d="M429.298 266.531l-11.574 14.622-11.574-14.622 11.574 14.624zM406.128 552.39h-.002l11.598 14.652zM475.684 266.531l-11.574 14.622-11.573-14.622 11.573 14.624z"/><path fill="none" d="M452.515 581.691V257.937h.121V252h-20.34v6.188h-2.979v8.313l.002.002v58.6l-11.596-14.65 11.594 14.65-11.594 14.649-11.596-14.649 11.596-14.65-11.598 14.65.002.001 11.596 14.649 11.596-14.649V523.089l-11.596-14.649 11.594 14.651-11.594 14.649 11.596-14.649v58.599l-.002.002v7.553c-1.945-.021-3.915-.05-5.908-.087a688.65 688.65 0 01-11.618-.312l-5.663-7.156h-.002v.002l5.664 7.154a662.896 662.896 0 01-5.664-.224V258.188h-.367c-3.471.2-7.035 1.064-7.035 1.064-4.688 2.964-10.232 5.672-15.789 8.036v57.816l-11.594 14.649-11.599-14.649v.001l11.599 14.649 11.594-14.649V523.09l-11.594-14.649 11.594 14.651v58.599L379 586.665c-5.181-.781-13.092-2.563-18.075-6.463-.416-.325-.81-.665-1.182-1.021V554.15l.231-1.468.112-.726a545.92 545.92 0 004.203-34.608l7.052-8.908-7.052 8.906c.464-5.204.871-10.672 1.188-16.313.278-4.965.485-10.063.594-15.236.204-9.706.064-19.672-.59-29.493 0 0-1.434-16.682-3.074-36.003a21911.15 21911.15 0 01-2.577-30.579s-.024-.823-.087-2.185V275.592c-3.433 1.037-5.565 1.601-5.565 1.601-6.371 2.128-13.498 5.599-13.498 5.599v-.031s-4.535 4.921-9.055 8.376c0 0-21.688 16.197-23.91 59.001l-.293 7.805-.586 6.371s-.184 7.914-.863 14.947c0 0-.293 14.068-.973 15.041 0 0 11.184 10.504 38.379 11.568 0 0 6.756.201 9.934-2.406 0 0-.215-1.928.078-7.035 0 0 .4-4.828.787-8.775 0 0-.865-13.684.678-23.91 0 0-.293-1.449 1.25-1.203 2.9 7.805 3.471 27.334 3.471 27.334 2.313 27.766 5.645 66.529 5.645 66.529 3.471 52.061-7.527 108.178-7.527 108.178a114.528 114.528 0 01-1.588 8.098c1.357 13.111 27.766 14.563 27.766 14.563 24.604 2.063 49.525 2.258 68.645 1.914v-7.466zm-63.748-315.188l.022.027-.022-.027zm0 58.601v.001-.001zm0 197.986v.002-.002zm0 58.601l.022-.025-.022.025v.002-.002zM379 586.665l3.935-4.972v5.451a68.63 68.63 0 01-3.935-.479zm56.176-4.999l-.021.025v.002-.002l.021-.025zm-.021-58.574v-.002.002zm0-197.986v-.001.001zm0-58.602l.021.026-.021-.026zM577.644 391.755s-1.436-19.096-2.453-35.293c0 0 1.727-29.647-15.627-56.117 0 0-5.49-6.648-16.627-16.628v.007c-6.988-4.041-15.756-7.192-20.845-8.85V325.104l-11.595 14.649-11.597-14.649V267.1c-7.621-3.393-13.314-6.69-13.314-6.69-1.451-1.157-7.42-2.221-7.42-2.221h-2.462v8.313l.002.002v-.001.001l.022.026-.022-.026v315.187l.022-.025-.022.025v.002-.002l-.002.002v6.727c6.786-.313 10.745-.592 10.745-.592 4.775-.093 8.897-.356 12.451-.719v-5.416l3.915 4.946h.002l-3.917-4.948v-58.599l11.598-14.651L498.9 523.09V325.105l11.598 14.649 11.595-14.649v79.569l.034-.517c1.451-13.496 2.314-29.602 2.314-29.602.863-7.912 2.992-12 2.992-12 .203-.311.406-.641.609-.986-.174.49-.342.988-.5 1.51 0 0 .262.803.631 3.596 0 0 .371 7.666.51 21.256 0 0 .586 7.234.803 15.117 0 0 .939 2.822 7.018 2.744 0 0 16.846 1.65 38.533-8.9 0 0 3.039-2.019 2.607-5.137z"/><path fill="none" d="M452.515 325.104v.002l11.595 14.649 11.596-14.649v-.002l-11.596 14.649zM382.007 267.677l-10.666 13.476-5.839-7.376-.001.001 5.84 7.377zM406.126 523.092l11.598 14.65-11.596-14.65 11.596-14.651-11.596 14.649z"/><path opacity=".8" fill="#231F20" d="M371.341 369.057l11.594-14.651-11.594-14.651-11.598 14.651z"/><path opacity=".6" fill="#231F20" d="M359.743 325.104l11.598 14.649 11.594-14.649-11.594-14.649z"/><path opacity=".4" fill="#231F20" d="M359.743 295.804l3.881 4.903 7.717 9.748 7.715-9.748 3.879-4.903-11.594-14.649z"/><path opacity=".2" fill="#231F20" d="M382.007 267.677c-5.874 2.458-11.706 4.527-16.505 6.1l5.839 7.375 10.666-13.475z"/><path opacity=".7" fill="#231F20" d="M382.935 325.106l-11.594 14.649 11.594 14.651z"/><path opacity=".5" fill="#231F20" d="M371.341 310.455l11.594 14.649v-29.3l-3.879 4.903z"/><path opacity=".3" fill="#231F20" d="M382.935 295.804v-28.516l-.928.389-10.666 13.478 11.594 14.649z"/><path opacity=".7" fill="#231F20" d="M371.341 339.755l-11.598-14.649v29.3z"/><path opacity=".5" fill="#231F20" d="M363.624 300.707l-3.881-4.903v29.3l11.598-14.649z"/><path fill="none" d="M359.743 325.104v.002"/><path opacity=".3" fill="#231F20" d="M371.341 281.155l-5.84-7.377a258.585 258.585 0 01-5.759 1.814v20.212l11.599-14.649z"/><path fill="#231F20" d="M371.341 369.057l-11.599-14.651v33.132c.063 1.362.087 2.185.087 2.185.798 9.566 1.716 20.436 2.577 30.579 1.641 19.321 3.074 36.003 3.074 36.003.654 9.821.794 19.787.59 29.493l5.271-6.657 11.594 14.651V354.406l-11.594 14.651z"/><path opacity=".8" fill="#231F20" d="M366.071 485.797a432.9 432.9 0 01-.594 15.236l5.864 7.407 11.594-14.649-11.594-14.651-5.27 6.657z"/><path opacity=".6" fill="#231F20" d="M363.281 527.561l8.061 10.181 11.594-14.649-11.594-14.651-7.052 8.908a553.59 553.59 0 01-1.009 10.211z"/><path opacity=".4" fill="#231F20" d="M371.341 537.742l-7.718 9.748-3.537 4.467-.112.726 11.367 14.36 11.594-14.652-3.879-4.9-7.715-9.749z"/><path opacity=".2" fill="#231F20" d="M371.341 567.042l-10.417 13.159c4.983 3.899 12.895 5.682 18.075 6.463l3.936-4.974-.021-.025-11.573-14.623z"/><path opacity=".7" fill="#231F20" d="M382.935 523.09v-29.298l-11.594 14.649z"/><path opacity=".5" fill="#231F20" d="M379.056 547.49l3.879 4.9v-29.298l-11.594 14.65z"/><path opacity=".3" fill="#231F20" d="M382.915 581.666l.02.025V552.39l-11.594 14.652z"/><path opacity=".7" fill="#231F20" d="M364.29 517.347l7.052-8.906-5.864-7.407a502.648 502.648 0 01-1.188 16.313z"/><path opacity=".5" fill="#231F20" d="M371.341 537.742l-8.061-10.181a549.293 549.293 0 01-3.194 24.396l3.537-4.467 7.718-9.748z"/><path opacity=".3" fill="#231F20" d="M359.974 552.682l-.231 1.468v25.031c.372.355.766.695 1.182 1.021l10.417-13.159-11.368-14.361z"/><path opacity=".1" fill="#231F20" d="M379 586.665c1.654.249 3.024.396 3.935.479v-5.451L379 586.665z"/><path fill="none" d="M388.767 266.504l.023.027M388.767 266.504v-.001M388.767 325.106v-.002M388.79 581.666l-.023.025M388.767 581.693v-.002M388.767 523.092v-.002"/><path opacity=".8" fill="#231F20" d="M417.724 369.057l11.596-14.651-11.596-14.651-11.598 14.651z"/><path opacity=".6" fill="#231F20" d="M417.724 339.753l11.594-14.649-11.594-14.649-11.596 14.649z"/><path opacity=".4" fill="#231F20" d="M406.128 295.804l3.879 4.903 7.717 9.748 7.716-9.748 3.88-4.903-11.596-14.649z"/><path fill="none" d="M406.126 266.503v.001"/><path opacity=".2" fill="#231F20" d="M406.15 266.531l11.574 14.622 11.574-14.622.022-.027-.002-.002v.001l-6.58-8.315H412.71l-6.582 8.316z"/><path opacity=".7" fill="#231F20" d="M429.32 325.106l-11.596 14.649 11.596 14.651z"/><path opacity=".5" fill="#231F20" d="M417.724 310.455l11.596 14.649v-29.3l-3.88 4.903z"/><path opacity=".3" fill="#231F20" d="M417.724 281.155l11.596 14.649v-29.3l-.022.027z"/><path opacity=".7" fill="#231F20" d="M406.126 354.406l11.598-14.651-11.596-14.649h-.002z"/><path opacity=".5" fill="#231F20" d="M406.128 295.804h-.002v29.3l11.598-14.649-7.717-9.748z"/><path fill="#FFF" d="M406.128 325.106l-.002-.002v.002z"/><path opacity=".3" fill="#231F20" d="M406.15 266.531l-.022-.027h-.002v29.3l11.598-14.649z"/><path fill="none" d="M406.128 295.804h-.002"/><path opacity=".1" fill="#231F20" d="M412.708 258.188h-6.582v8.315zM429.318 258.188h-6.58l6.58 8.314z"/><path fill="none" d="M406.126 266.504h.002"/><path fill="#231F20" d="M417.724 369.057l-11.598-14.651v139.386l11.598-14.652 11.596 14.652V354.406z"/><path opacity=".8" fill="#231F20" d="M406.126 493.792l11.598 14.649 11.596-14.649-11.596-14.652z"/><path opacity=".6" fill="#231F20" d="M417.724 537.742l11.594-14.65-11.594-14.651-11.596 14.651z"/><path opacity=".4" fill="#231F20" d="M406.128 552.39l11.596 14.652 11.596-14.652-3.88-4.9-7.716-9.748-7.717 9.748z"/><path fill="none" d="M406.126 581.691v.002"/><path opacity=".2" fill="#231F20" d="M417.724 567.042l-11.574 14.623-.021.025 5.663 7.156c3.936.139 7.817.241 11.618.312l5.908-7.466.002-.002-.021-.025-11.575-14.623z"/><path opacity=".7" fill="#231F20" d="M429.32 523.09v-29.298l-11.596 14.649z"/><path opacity=".5" fill="#231F20" d="M429.32 552.39v-29.298l-11.596 14.65 7.716 9.748z"/><path opacity=".3" fill="#231F20" d="M429.298 581.666l.022.025V552.39l-11.596 14.652z"/><path opacity=".7" fill="#231F20" d="M406.126 523.09h.002l11.596-14.649-11.598-14.649z"/><path opacity=".5" fill="#231F20" d="M406.126 552.39h.002l3.879-4.9 7.717-9.748-11.598-14.65z"/><path fill="#FFF" d="M406.126 523.09v.002l.002-.002z"/><path opacity=".3" fill="#231F20" d="M417.724 567.042l-11.598-14.652v29.301h.002l.022-.025z"/><path fill="none" d="M406.126 552.39h.002"/><path opacity=".1" fill="#231F20" d="M411.791 588.847l-5.664-7.154v6.931c1.898.083 3.787.157 5.664.223zM429.318 589.246v-7.553l-5.908 7.466c1.993.037 3.963.065 5.908.087z"/><path fill="none" d="M406.126 581.691h.002M435.155 266.504l.021.027M435.155 266.504v-.001M435.155 325.106v-.002M435.176 581.666l-.021.025M435.155 581.693v-.002M435.155 523.092v-.002"/><path opacity=".8" fill="#231F20" d="M452.515 354.406l11.595 14.651 11.596-14.651-11.596-14.651z"/><path opacity=".6" fill="#231F20" d="M452.515 325.104l11.595 14.649 11.596-14.649-11.596-14.649z"/><path opacity=".4" fill="#231F20" d="M452.515 295.804l3.88 4.903 7.715 9.748 7.716-9.748 3.88-4.903-11.596-14.649z"/><path fill="none" d="M452.515 266.503v.001"/><path opacity=".2" fill="#231F20" d="M452.537 266.531l11.573 14.622 11.574-14.622.022-.027-.002-.002v.001l-6.58-8.315h-10.028l-6.581 8.316z"/><path opacity=".7" fill="#231F20" d="M475.706 354.406v-29.3l-11.596 14.649z"/><path opacity=".5" fill="#231F20" d="M464.11 310.455l11.596 14.649v-29.3l-3.88 4.903z"/><path opacity=".3" fill="#231F20" d="M464.11 281.155l11.596 14.649v-29.3l-.022.027z"/><path opacity=".7" fill="#231F20" d="M452.515 325.106v29.3l11.595-14.651z"/><path opacity=".5" fill="#231F20" d="M456.395 300.707l-3.88-4.903v29.3l11.595-14.649z"/><path fill="none" d="M452.515 325.104v.002"/><path opacity=".3" fill="#231F20" d="M452.537 266.531l-.022-.027v29.3l11.595-14.649z"/><path opacity=".1" fill="#231F20" d="M452.515 266.503l6.581-8.315h-6.46v-.251h-.121zM475.704 258.188h-6.579l6.579 8.314z"/><path opacity=".2" fill="#231F20" d="M469.13 258.219l6.58 8.314h-.001l-6.58-8.314z"/><path opacity=".1" fill="#231F20" d="M469.13 258.219l6.58 8.314h-.001l-6.58-8.314z"/><path fill="#231F20" d="M464.11 369.057l-11.595-14.651v139.386l11.595-14.652 11.596 14.652V354.406z"/><path opacity=".8" fill="#231F20" d="M452.515 493.792l11.595 14.649 11.596-14.649-11.596-14.652z"/><path opacity=".6" fill="#231F20" d="M452.515 523.092l11.595 14.65 11.596-14.65-11.596-14.651z"/><path opacity=".4" fill="#231F20" d="M464.11 537.742l-7.715 9.748-3.88 4.9 11.595 14.652 11.596-14.652-3.88-4.9z"/><path fill="none" d="M452.515 581.693v-.002"/><path opacity=".2" fill="#231F20" d="M475.704 581.693l.002-.002-.021-.025-11.574-14.623-11.573 14.623-.021.025 5.809 7.341c4.373-.108 8.363-.24 11.871-.377l5.507-6.962z"/><path opacity=".7" fill="#231F20" d="M475.706 523.09v-29.298l-11.596 14.649z"/><path opacity=".5" fill="#231F20" d="M471.826 547.49l3.88 4.9v-29.298l-11.596 14.65z"/><path opacity=".3" fill="#231F20" d="M475.684 581.666l.022.025V552.39l-11.596 14.652z"/><path opacity=".7" fill="#231F20" d="M452.515 493.792v29.298l11.595-14.649z"/><path opacity=".5" fill="#231F20" d="M464.11 537.742l-11.595-14.65v29.298l3.88-4.9z"/><path fill="none" d="M452.515 523.09v.002"/><path opacity=".3" fill="#231F20" d="M452.515 581.691l.022-.025 11.573-14.624-11.595-14.652z"/><path opacity=".1" fill="#231F20" d="M452.515 589.156c2.003-.036 3.939-.078 5.809-.124l-5.809-7.339v7.463zM470.195 588.654c1.999-.077 3.837-.157 5.509-.234v-6.727l-5.509 6.961z"/><path opacity=".2" fill="#231F20" d="M470.19 588.644l5.51-6.962-5.509 6.962z"/><path opacity=".1" fill="#231F20" d="M470.19 588.644l5.51-6.962-5.509 6.962z"/><path fill="none" d="M475.728 266.531l-.022-.027M475.706 266.503v.001M475.706 325.104v.002M475.728 581.666l-.022.025M475.706 581.693v-.002M475.706 523.092v-.002"/><path opacity=".8" fill="#231F20" d="M522.092 354.406l-11.594-14.651-11.598 14.651 11.598 14.651z"/><path opacity=".6" fill="#231F20" d="M498.9 325.104l11.598 14.649 11.594-14.649-11.594-14.649z"/><path opacity=".4" fill="#231F20" d="M498.9 295.804l3.881 4.903 7.717 9.748 7.714-9.748 3.88-4.903-11.594-14.649z"/><path opacity=".2" fill="#231F20" d="M516.697 273.322c-5.744-1.3-11.821-3.598-17.069-5.9l10.87 13.731 6.199-7.831z"/><path opacity=".7" fill="#231F20" d="M522.092 325.106l-11.594 14.649 11.594 14.651z"/><path opacity=".5" fill="#231F20" d="M510.498 310.455l11.594 14.649v-29.3l-3.88 4.903z"/><path opacity=".3" fill="#231F20" d="M522.092 295.804v-20.93c-2.56-.834-4.192-1.292-4.192-1.292a51.013 51.013 0 01-1.203-.261l-6.199 7.833 11.594 14.65z"/><path opacity=".7" fill="#231F20" d="M498.9 325.106v29.3l11.598-14.651z"/><path opacity=".5" fill="#231F20" d="M502.781 300.707l-3.881-4.903v29.3l11.598-14.649z"/><path opacity=".3" fill="#231F20" d="M510.498 281.155l-10.87-13.733a99.256 99.256 0 01-.728-.322v28.704l11.598-14.649z"/><path fill="#231F20" d="M510.498 369.057L498.9 354.406v139.386l11.598-14.651 6.395 8.08c-.207-17.309.701-31.387.701-31.387 1.27-9.689 2.511-24.31 3.373-35.532.596-7.762 1.01-13.885 1.126-15.627v-50.269l-11.595 14.651z"/><path opacity=".8" fill="#231F20" d="M498.9 493.792l11.598 14.649 6.757-8.537a370.83 370.83 0 01-.362-12.684l-6.395-8.08-11.598 14.652z"/><path opacity=".6" fill="#231F20" d="M498.9 523.092l11.598 14.649 9.197-11.62a764.282 764.282 0 01-.858-7.144l-8.339-10.537-11.598 14.652z"/><path opacity=".4" fill="#231F20" d="M522.092 552.39l-3.88-4.9-7.714-9.748-7.717 9.748-3.881 4.9 11.598 14.652z"/><path opacity=".2" fill="#231F20" d="M498.922 581.666l-.022.025 3.917 4.948c11.761-1.629 15.731-4.304 15.731-4.304a17.675 17.675 0 002.833-1.542l-10.884-13.751-11.575 14.624z"/><path opacity=".7" fill="#231F20" d="M518.836 518.976c-.519-4.49-.767-7.025-.767-7.025a269.863 269.863 0 01-.815-12.047l-6.757 8.537 8.339 10.535z"/><path opacity=".5" fill="#231F20" d="M518.212 547.49l3.88 4.9v-8.479a920.983 920.983 0 01-2.397-17.789l-9.197 11.62 7.714 9.748z"/><path opacity=".3" fill="#231F20" d="M510.498 567.042l10.884 13.751c.245-.163.487-.326.711-.494V552.39l-11.595 14.652z"/><path opacity=".7" fill="#231F20" d="M498.9 523.09l11.598-14.649-11.598-14.649z"/><path opacity=".5" fill="#231F20" d="M510.498 537.742l-11.598-14.65v29.298l3.881-4.9z"/><path opacity=".3" fill="#231F20" d="M510.498 567.042L498.9 552.39v29.301l.022-.025z"/><path opacity=".1" fill="#231F20" d="M498.9 587.109c1.393-.143 2.694-.301 3.915-.47l-3.915-4.946v5.416z"/></svg>