<svg xmlns="http://www.w3.org/2000/svg" width="265.948" height="336.412" viewBox="18.814 252.423 265.948 336.412"><path fill="none" d="M67.559 362.978c.05.725.067 1.834.064 3.238.003-1.406-.015-2.515-.064-3.238zM72.583 336.112v.001l11.581 13.525-11.581 13.526 11.582-13.526zM72.583 545.95l11.581 13.526-11.56 13.499 11.561-13.499 11.582-13.526-11.582 13.523zM91.872 313.587l-7.707 8.999-7.707-9 7.706 9.001-11.581 13.525 11.582-13.525zM130.493 532.424l11.582-13.526h-.001zM118.912 336.112l11.581-13.525-11.582 13.525v.001l11.582 13.525zM130.493 322.586l-7.707-9 7.707 9.001 7.707-9zM118.911 309.061v.001l11.582-13.526zM72.604 282.035l11.56 13.501-11.581 13.525v.001l11.582-13.526zM76.458 541.423l7.707-8.999-10.21-11.924v.001l10.209 11.923zM223.153 322.586l-7.707-9 7.707 9.001 7.707-9zM118.912 518.898l11.581-13.525-11.582 13.525 11.582 13.526zM75.598 495.369l8.566 10.004-9.813 11.46 9.814-11.46z"/><path fill="none" d="M269.137 303.098c-9.039-14.16-19.961-21.41-19.961-21.41-11.137-6.51-17.061-7.08-28.352-9.98-8.791-2.258-20.019-8.272-24.562-10.827-.454-1.063-2.373-1.865-3.297-2.735-1.557-1.467-1.426-2.082-3.867-2.718-4.528-1.18-12.605-2.255-17.936-2.22-2.642.017-3.538-.417-6.185-.405-2.203.009-4.411.025-6.611.023-2.364-.002-3.588-.359-6.063-.401H151.144c-4.062.042-7.631.409-12.149.385-6.569-.035-18.069 1.026-24.201 2.544-2.664.66-2.349.991-3.987 2.603-1.003.986-3.233 1.959-3.553 3.109-12.867 7.9-39.001 15.271-39.001 15.271-11.568 3.332-13.883 5.646-13.883 5.646l.006.022c-6.675 4.612-12.716 11.563-12.716 11.563-19.235 18.217-20.531 60.591-20.531 60.591-.293 16.783-2.313 36.002-2.313 36.002C37.324 400.138 65.09 400 65.09 400c1.296-.432 1.157-3.039 1.157-3.039 0-7.234 1.157-12.586 1.157-12.586.03-9.873.447-18.666.154-21.396.05.723.067 1.832.064 3.238.003-1.404-.015-2.514-.064-3.238-.063-.785-.154-1.141-.293-.879l1.444-4.75.422 1.264c2.606 9.549 2.175 27.041 2.175 27.041.379 21.234.932 34.17 1.276 40.665V275.581a310.788 310.788 0 007.607-2.452l-7.607 8.884 7.607-8.884a270.065 270.065 0 006.116-2.14h.001a212.723 212.723 0 006.552-2.501h2.887v13.525l.001.001v.001l.021.023-.021-.023v27.048l-11.582-13.525 11.582 13.526v27.051l-11.582 13.526 11.582-13.525V573.002l.021-.023-.021.023V573v11.833c18.308 2.29 37.602 3.293 37.602 3.293 25.561 2.14 57.489-.997 78.223-3.717v-11.408l8.734 10.199h.001l-8.734-10.2h-.001v-27.05l11.582 13.526 10.315-12.047c.396 2.785.819 5.639 1.267 8.546V573h-.001l-4.82 5.629 4.819-5.627v7.546c3.048-1.38 3.907-3.218 3.907-3.218-15.811-86.768-9.456-128.23-9.456-128.23 1.743-10.799 3.085-50.133 3.085-50.133.386-4.828.201-10.227.201-10.227-1.126-19.146 2.321-30.613 2.505-31.209 2.06 4.027 1.629 25.824 1.629 25.824-.139 1.883.293 4.629.293 4.629.864 6.369.586 10.998.586 10.998 10.258 4.904 47.279-8.547 47.279-8.547-.864-13.883-2.9-44.824-2.9-44.824-.617-17.57-6.015-31.993-12.725-42.513zm-80.731 5.963zm0 27.051zm0 209.836v.002-.002zm-46.333 27.053v13.523H118.91V279.289c.475.329.973.655 1.493.979l-1.493 1.743 1.493-1.743c2.186 1.361 4.766 2.672 7.837 3.882 0 0 3.459 1.425 9.945 2.402a76.61 76.61 0 003.89.482v22.026l-11.583-13.525 11.582 13.526h.001l.001-.001v.001h-.001v27.051l-11.583-13.525 11.582 13.525-11.582 13.526 11.582-13.525h.001v209.835l-.001.002-11.582 13.523-11.582-13.523 11.582 13.526 11.583-13.526h.001v-.002.002h-.001V573h-.001l-4.82 5.629 4.819-5.628zm.003-236.889zm0 236.888v.002h-.001l.001-.002.021-.024-.021.024zm46.329-263.939l-11.583-13.525 11.583 13.525v27.052l-11.583 13.526 11.583-13.525V573l-11.583 13.525 11.582-13.523v13.523H165.24V286.417a53.122 53.122 0 003.232-.633c4.212-.948 11.409-3.028 17.157-7.013a26.71 26.71 0 002.773-2.201v5.44l.001.001v27.05zM188.406 573v.002V573l.021-.024-.021.024zm0-290.989l.021.024-.021-.024zm45.379 80.043a75.085 75.085 0 00-.506 2.811c-.864 5.342-1.674 13.662-1.042 24.408 0 0 .185 5.397-.201 10.222 0 0-.408 11.965-1.067 24.507-.535 10.192-1.236 20.765-2.017 25.604 0 0-1.716 11.208-1.144 34.151.116 4.652.325 9.782.663 15.405.255 4.249.584 8.78 1 13.588.305 3.533.658 7.218 1.063 11.054l-7.381 8.62 7.381-8.619a659.735 659.735 0 002.934 23.623l-10.315 12.045-11.581-13.523-.001-.002V336.113h.001l11.581 13.525-11.581-13.526 11.581-13.525-11.582 13.525v-27.051h.001l11.581-13.526-11.582 13.525v-39.911c2.855 1.195 5.756 2.256 8.454 2.989l-8.454 9.873h.001l8.453-9.873c.19.052.383.106.571.155 2.716.697 5.117 1.259 7.359 1.802h.001c2.383.577 4.586 1.134 6.777 1.805v6.109l.001.001h.001v27.049l-11.583-13.525 11.582 13.526h.001v27.051l-11.583-13.525 11.582 13.525-11.582 13.526 11.582-13.525h.001v21.982c-.077.255-.478 1.608-.95 3.96zM80.727 582.523l-8.176-9.545.001-.001 8.176 9.545z"/><path fill="none" d="M72.583 573v-41.152c-3.27 25.129-7.187 43.572-7.493 44.417l-.386 1.064c1.485 1.237 4.265 2.355 7.878 3.36V573zM184.53 313.587l-7.708 8.999-7.706-9 7.706 9.001zM165.241 309.062l11.581-13.526-11.581 13.525zM211.571 518.898l11.582 13.526-11.581-13.526zM165.241 573.001l11.581 13.524L165.241 573zM124.7 570.86h.002v17.805h-.002zM95.746 573.001V573l-4.819 5.628zM165.241 545.95l11.581 13.526 11.583-13.526-11.583 13.523zM165.241 336.113l11.581 13.525-11.581-13.526z"/><path opacity=".8" fill="#231F20" d="M95.747 363.164l-11.582-13.526-11.582 13.526 11.582 13.526z"/><path opacity=".6" fill="#231F20" d="M95.747 336.112l-11.582-13.525-11.583 13.525 11.583 13.526 11.582-13.526zm-.001 0z"/><path fill="none" d="M72.583 309.061v.001"/><path opacity=".4" fill="#231F20" d="M84.165 322.586l7.707-8.999 3.875-4.526-11.582-13.526-11.583 13.526 3.875 4.525 7.708 9zm11.581-13.525z"/><path opacity=".2" fill="#231F20" d="M84.165 295.536l11.56-13.5.021-.024-9.439-11.024a273.55 273.55 0 01-6.116 2.14l-7.607 8.884.021.024 11.56 13.5zM95.746 282.01h.001v.001h-.001z"/><path opacity=".7" fill="#231F20" d="M95.747 336.113l-11.582 13.525 11.582 13.526z"/><path opacity=".5" fill="#231F20" d="M84.165 322.587l11.582 13.525v-27.05l-3.875 4.525z"/><path opacity=".3" fill="#231F20" d="M95.725 282.036l-11.56 13.5 11.582 13.525v-27.049h-.001zM95.747 282.012v-.001l-.001.001z"/><path opacity=".7" fill="#231F20" d="M72.583 336.113v27.051l11.581-13.526z"/><path opacity=".5" fill="#231F20" d="M76.458 313.586l-3.875-4.524v27.05l11.581-13.525z"/><path fill="none" d="M72.583 336.113v-.001"/><path opacity=".3" fill="#231F20" d="M72.604 282.035l-.021-.024v27.05l11.581-13.525z"/><path opacity=".1" fill="#231F20" d="M72.583 275.58v6.432l7.607-8.884a312.192 312.192 0 01-7.607 2.452zM95.746 268.485h-2.887c-2.19.88-4.399 1.718-6.552 2.501l9.438 11.023v-13.524z"/><path opacity=".2" fill="#231F20" d="M86.31 270.99l9.438 11.023-.001.001-9.439-11.023z"/><path opacity=".1" fill="#231F20" d="M86.31 270.99l9.438 11.023-.001.001-9.439-11.023z"/><path opacity=".8" fill="#231F20" d="M95.747 491.847l-11.582-13.526-8.444 9.86a501.642 501.642 0 01-.123 7.188l8.567 10.004 11.582-13.526z"/><path opacity=".6" fill="#231F20" d="M95.747 518.898l-11.582-13.525-9.814 11.46a566.785 566.785 0 01-.396 3.668l10.21 11.924 11.582-13.527z"/><path opacity=".4" fill="#231F20" d="M95.746 545.95v-.001l-3.874-4.526-7.707-8.999-7.707 8.999-3.875 4.527 11.582 13.523 11.582-13.523-.001-.001z"/><path fill="none" d="M72.583 573v.001"/><path opacity=".2" fill="#231F20" d="M95.746 573v-.002l-.021-.023-11.56-13.499-11.561 13.499-.021.025 8.176 9.548c1.896.359 3.886.699 5.937 1.021l4.231-4.94L95.746 573zM95.746 572.999h.001V573h-.001z"/><path opacity=".7" fill="#231F20" d="M95.747 518.898v-27.051l-11.582 13.526z"/><path opacity=".5" fill="#231F20" d="M91.872 541.423l3.874 4.526v-.001.001l.001.001v-27.052l-11.582 13.526z"/><path opacity=".3" fill="#231F20" d="M95.747 573v-.001h-.001zM95.725 572.975l.021.024h.001V545.95l-11.582 13.526z"/><path opacity=".7" fill="#231F20" d="M75.598 495.369c-.236 9.743-.667 15.678-.667 15.678-.185 1.95-.379 3.877-.581 5.786l9.813-11.46-8.565-10.004z"/><path opacity=".5" fill="#231F20" d="M72.583 545.95l3.875-4.526 7.706-8.999-10.209-11.923a616.54 616.54 0 01-1.373 11.347V545.95z"/><path opacity=".3" fill="#231F20" d="M72.583 545.95V573l.021-.025 11.56-13.499z"/><path fill="none" d="M72.583 545.948v.002"/><path opacity=".1" fill="#231F20" d="M72.583 580.69c2.4.668 5.167 1.287 8.175 1.857l-8.175-9.546v7.689zM90.927 578.628l-4.23 4.94c2.925.459 5.972.88 9.049 1.265v-11.832l-4.819 5.627z"/><path opacity=".2" fill="#231F20" d="M86.696 583.569h.001l4.23-4.941z"/><path opacity=".1" fill="#231F20" d="M86.696 583.569h.001l4.23-4.941z"/><path fill="none" d="M95.767 282.035l-.02-.023M95.746 282.011v.001M95.746 282.012h.001M95.746 309.061v.001M95.746 336.113v-.001M95.747 572.999h-.001M95.767 572.975l-.02.024M95.746 573v-.001M95.746 573v.001M95.746 545.95v-.001M95.746 545.948v.001"/><path opacity=".8" fill="#231F20" d="M142.075 363.164l-11.582-13.526-11.582 13.526 11.582 13.526z"/><path opacity=".6" fill="#231F20" d="M130.493 349.638l11.581-13.526-11.581-13.525-11.581 13.525z"/><path fill="none" d="M118.911 309.062v-.001"/><path opacity=".4" fill="#231F20" d="M130.493 322.586l7.707-8.999 3.874-4.525-11.581-13.526-11.582 13.526 3.875 4.524z"/><path opacity=".2" fill="#231F20" d="M130.493 295.536l7.693-8.983c-6.486-.978-9.945-2.402-9.945-2.402-3.071-1.21-5.651-2.521-7.837-3.882l-1.493 1.743.021.024 11.561 13.5z"/><path opacity=".7" fill="#231F20" d="M142.075 336.113h-.001l-11.581 13.525 11.582 13.526z"/><path opacity=".5" fill="#231F20" d="M130.493 322.587l11.582 13.525v-27.05h-.001l-3.874 4.525z"/><path opacity=".3" fill="#231F20" d="M142.075 309.061v-22.026a76.753 76.753 0 01-3.89-.482l-7.693 8.983 11.583 13.525z"/><path opacity=".7" fill="#231F20" d="M118.911 336.113v27.051l11.582-13.526z"/><path opacity=".5" fill="#231F20" d="M122.786 313.586l-3.875-4.524v27.05l11.582-13.525z"/><path fill="none" d="M118.911 336.112v.001"/><path opacity=".3" fill="#231F20" d="M118.932 282.035l-.021-.024v27.05l11.582-13.525z"/><path opacity=".1" fill="#231F20" d="M118.911 279.289v2.722l1.493-1.743a36.13 36.13 0 01-1.493-.979z"/><path opacity=".8" fill="#231F20" d="M142.075 491.847l-11.582-13.526-11.582 13.526 11.582 13.526z"/><path opacity=".6" fill="#231F20" d="M130.493 505.373l-11.581 13.525 11.581 13.526 11.581-13.526z"/><path opacity=".4" fill="#231F20" d="M142.074 545.95l-3.874-4.527-7.707-8.999-7.707 8.999-3.875 4.527 11.582 13.523z"/><path fill="none" d="M118.911 573.001V573"/><path opacity=".2" fill="#231F20" d="M142.053 572.975l-11.56-13.499-11.561 13.499-.021.025 11.581 13.524 6.762-7.896 4.82-5.628z"/><path opacity=".7" fill="#231F20" d="M142.074 518.898h.001v-27.051l-11.582 13.526z"/><path opacity=".5" fill="#231F20" d="M138.2 541.423l3.874 4.527.001-.002v-27.05l-11.582 13.526z"/><path opacity=".3" fill="#231F20" d="M142.074 573h.001v-27.05l-11.582 13.526 11.56 13.499z"/><path opacity=".7" fill="#231F20" d="M118.911 491.847v27.051l11.582-13.525z"/><path opacity=".5" fill="#231F20" d="M130.493 532.424l-11.582-13.526v27.052l3.875-4.527z"/><path opacity=".3" fill="#231F20" d="M130.493 559.476l-11.582-13.526V573l.021-.025z"/><path fill="none" d="M118.911 545.948v.002"/><path opacity=".1" fill="#231F20" d="M118.911 586.525h11.581l-11.581-13.524zM142.073 586.525v-13.524l-4.819 5.627-6.761 7.897zM130.492 586.525h.001l-.001-.001z"/><path opacity=".2" fill="#231F20" d="M130.493 586.525l6.761-7.897-6.762 7.896z"/><path opacity=".1" fill="#231F20" d="M130.493 586.525l6.761-7.897-6.762 7.896z"/><path fill="#FFF" d="M142.076 309.061l-.001.001h.001z"/><path fill="none" d="M142.076 336.112v.001M142.098 572.975l-.022.025M142.076 545.95h-.001"/><path fill="#FFF" d="M142.076 573.001V573l-.001.001z"/><path fill="none" d="M142.076 545.95v-.002"/><path opacity=".8" fill="#231F20" d="M176.822 376.69l11.583-13.526-11.583-13.526-11.581 13.526z"/><path opacity=".6" fill="#231F20" d="M165.241 336.112l11.581 13.526 11.583-13.526-11.583-13.525z"/><path fill="none" d="M165.241 309.062v-.001"/><path opacity=".4" fill="#231F20" d="M169.116 313.586l7.706 9 7.708-8.999 3.875-4.525-11.583-13.526-11.581 13.526z"/><path opacity=".2" fill="#231F20" d="M188.404 282.011l-2.774-3.24c-5.748 3.985-12.945 6.065-17.157 7.013l8.349 9.751 11.561-13.5.021-.024z"/><path opacity=".7" fill="#231F20" d="M188.405 336.113l-11.583 13.525 11.583 13.526z"/><path opacity=".5" fill="#231F20" d="M176.822 322.587l11.583 13.525v-27.05l-3.875 4.525z"/><path opacity=".3" fill="#231F20" d="M176.822 295.536l11.583 13.525v-27.05l-.022.025z"/><path opacity=".7" fill="#231F20" d="M165.241 363.164l11.581-13.526-11.581-13.525z"/><path opacity=".5" fill="#231F20" d="M169.116 313.586l-3.875-4.524v27.05l11.581-13.525z"/><path fill="none" d="M165.241 336.112v.001"/><path opacity=".3" fill="#231F20" d="M165.241 286.417v22.643l11.582-13.525-8.349-9.751a52.445 52.445 0 01-3.233.633z"/><path opacity=".1" fill="#231F20" d="M188.404 276.57a26.95 26.95 0 01-2.773 2.201l2.773 3.239v-5.44z"/><path opacity=".2" fill="#231F20" d="M185.638 278.776l2.773 3.239-2.774-3.238z"/><path opacity=".1" fill="#231F20" d="M185.638 278.776l2.773 3.239-2.774-3.238z"/><path opacity=".8" fill="#231F20" d="M165.241 491.847l11.581 13.526 11.583-13.526-11.583-13.526z"/><path opacity=".6" fill="#231F20" d="M165.241 518.898l11.581 13.526 11.583-13.526-11.583-13.525z"/><path opacity=".4" fill="#231F20" d="M176.822 532.424l-7.706 8.999-3.875 4.527 11.581 13.523 11.583-13.523-3.875-4.527z"/><path fill="none" d="M165.241 573.001V573"/><path opacity=".2" fill="#231F20" d="M176.822 559.476l-11.559 13.499-.022.025 11.581 13.525L188.405 573l-.022-.025z"/><path opacity=".7" fill="#231F20" d="M188.405 518.898v-27.051l-11.583 13.526z"/><path opacity=".5" fill="#231F20" d="M184.53 541.423l3.875 4.527v-27.052l-11.583 13.526z"/><path opacity=".3" fill="#231F20" d="M188.383 572.975l.022.025v-27.05l-11.583 13.526z"/><path opacity=".7" fill="#231F20" d="M165.241 491.847v27.051l11.581-13.525z"/><path opacity=".5" fill="#231F20" d="M176.822 532.424l-11.581-13.526v27.052l3.875-4.527z"/><path opacity=".3" fill="#231F20" d="M176.822 559.476l-11.581-13.526V573l.022-.025z"/><path fill="none" d="M165.241 545.948v.002"/><path opacity=".1" fill="#231F20" d="M165.241 586.525h11.581l-11.581-13.524zM188.404 573.001l-11.582 13.524h11.582z"/><path fill="none" d="M188.406 282.011l.021.024M188.406 309.062v-.001M188.406 336.113v-.001M188.427 572.975l-.021.025M188.406 573v.001M188.406 545.95v-.002"/><path opacity=".8" fill="#231F20" d="M211.571 363.164l11.582 13.526 10.126-11.825c.17-1.052.342-1.994.506-2.811l-10.632-12.416-11.582 13.526z"/><path opacity=".6" fill="#231F20" d="M223.153 322.587l-11.581 13.525 11.581 13.526 11.581-13.526z"/><path opacity=".4" fill="#231F20" d="M223.153 322.586l7.707-8.999 3.874-4.525-11.581-13.526-11.581 13.526 3.874 4.524z"/><path opacity=".2" fill="#231F20" d="M234.734 282.011l-6.779-7.916c-2.242-.543-4.643-1.105-7.359-1.802-.188-.048-.381-.103-.571-.155l-8.453 9.873.021.024 11.561 13.5 11.561-13.5.019-.024z"/><path opacity=".7" fill="#231F20" d="M234.734 336.113l-11.582 13.525 10.632 12.416c.473-2.353.873-3.705.951-3.958l-.001-21.983z"/><path opacity=".5" fill="#231F20" d="M234.735 309.062h-.001l-3.874 4.525-7.707 9 11.582 13.525z"/><path opacity=".3" fill="#231F20" d="M234.735 282.011h-.001l-.02.025-11.561 13.5 11.582 13.525z"/><path opacity=".7" fill="#231F20" d="M211.572 336.113h-.001v27.051l11.582-13.526z"/><path opacity=".5" fill="#231F20" d="M211.572 309.062h-.001v27.05l11.582-13.525-7.707-9.001z"/><path opacity=".3" fill="#231F20" d="M211.572 282.011h-.001v27.05l11.582-13.525-11.561-13.501z"/><path opacity=".1" fill="#231F20" d="M211.571 269.149v12.862l8.454-9.873c-2.698-.733-5.599-1.794-8.454-2.989zM234.733 275.901c-2.191-.671-4.394-1.228-6.777-1.805l6.777 7.915v-6.11z"/><path opacity=".2" fill="#231F20" d="M227.954 274.097l6.776 7.914-6.777-7.913z"/><path opacity=".1" fill="#231F20" d="M227.954 274.097l6.776 7.914-6.777-7.913z"/><path d="M72.583 363.164v63.154c.188 3.546.313 5.179.313 5.179.139 9.842 1.743 17.646 1.743 17.646 1.002 14.79 1.19 28.379 1.083 39.037l8.444-9.86 11.582 13.526V363.164L84.165 376.69l-11.582-13.526zM118.911 363.164v128.683l11.582-13.526 11.582 13.526V363.164l-11.582 13.526zM165.241 363.164v128.683l11.581-13.526 11.583 13.526V363.164l-11.583 13.526zM233.279 364.865l-10.126 11.825-11.582-13.526v128.683l11.582-13.526 4.655 5.437c-.572-22.943 1.144-34.151 1.144-34.151.781-4.84 1.481-15.412 2.017-25.604a1515.589 1515.589 0 001.067-24.507c.386-4.825.201-10.222.201-10.222-.632-10.747.178-19.067 1.042-24.409z"/><path opacity=".8" fill="#231F20" d="M211.571 491.847l11.582 13.525 5.318-6.21a439.213 439.213 0 01-.663-15.405l-4.655-5.437-11.582 13.527z"/><path opacity=".6" fill="#231F20" d="M211.572 518.898l11.581 13.526 7.381-8.62a582.529 582.529 0 01-1.063-11.054l-6.318-7.378-11.581 13.526z"/><path opacity=".4" fill="#231F20" d="M211.572 545.95l11.581 13.523 10.315-12.045a705.89 705.89 0 01-.493-3.534l-2.115-2.471-7.708-8.999-7.707 8.999-3.873 4.527z"/><path opacity=".2" fill="#231F20" d="M234.734 573l-.021-.024-11.561-13.499-11.561 13.499-.019.024 8.734 10.201c2.508-.365 4.707-.702 6.542-.991l3.067-3.581 4.819-5.629z"/><path opacity=".7" fill="#231F20" d="M229.471 512.75a517.159 517.159 0 01-1-13.588l-5.318 6.21 6.318 7.378z"/><path opacity=".5" fill="#231F20" d="M232.975 543.894a656.203 656.203 0 01-2.441-20.089l-7.381 8.619 7.708 8.999 2.114 2.471z"/><path opacity=".3" fill="#231F20" d="M234.734 573l.001-17.024a720.335 720.335 0 01-1.267-8.546l-10.315 12.047 11.561 13.499.02.024z"/><path opacity=".7" fill="#231F20" d="M223.153 505.373l-11.582-13.526v27.051h.001z"/><path opacity=".5" fill="#231F20" d="M211.571 545.948l.001.002 3.874-4.527 7.707-8.999-11.582-13.526z"/><path opacity=".3" fill="#231F20" d="M223.153 559.476l-11.582-13.526V573h.001l.02-.025z"/><path opacity=".1" fill="#231F20" d="M211.571 584.41c3.2-.42 6.132-.83 8.734-1.209l-8.734-10.199v11.408zM229.915 578.628l-3.066 3.581a349.34 349.34 0 006.193-1.024c.63-.192 1.188-.41 1.692-.638v-7.546l-4.819 5.627z"/><path opacity=".2" fill="#231F20" d="M226.848 582.209l3.067-3.581z"/><path opacity=".1" fill="#231F20" d="M226.848 582.209l3.067-3.581z"/></svg>