<svg xmlns="http://www.w3.org/2000/svg" xmlns:xlink="http://www.w3.org/1999/xlink" width="80" height="80" viewBox="280.996 153.383 80 80"><defs><path id="prefix__a" d="M280.996 153.383h80v80h-80z"/></defs><clipPath id="prefix__b"><use xlink:href="#prefix__a" overflow="visible"/></clipPath><g clip-path="url(#prefix__b)"><path fill-rule="evenodd" clip-rule="evenodd" fill="#575756" d="M362.544 187.455l-1.85-2.58.013 8.043-3.982-5.553c.004 2.679.007 5.358.013 8.036l-3.98-5.548c.005 2.681.008 5.361.014 8.042l-3.983-5.552c.004 2.678.007 5.357.013 8.036l-3.979-5.549c.004 2.68.007 5.362.013 8.042-1.327-1.851-2.654-3.702-3.983-5.553.005 2.679.008 5.358.014 8.036-1.327-1.848-2.653-3.698-3.98-5.548.004 2.681.007 5.361.013 8.042l-3.982-5.552c.004 2.677.007 5.356.013 8.036l-3.98-5.549.014 8.043c-1.327-1.851-2.654-3.702-3.983-5.553.004 2.679.007 5.358.013 8.035l-3.973-5.539-3.944 5.501-.017-.01.013-8.002-3.973 5.539-.011-.007.014-8.022-3.98 5.549.013-8.036-3.983 5.552c.006-2.68.009-5.361.013-8.041l-3.98 5.549.013-8.035a9576.814 9576.814 0 00-3.983 5.552l.013-8.043-3.98 5.549c.006-2.679.009-5.357.013-8.036a9576.814 9576.814 0 00-3.983 5.552c.006-2.68.008-5.361.013-8.041l-3.98 5.549c.006-2.679.009-5.358.013-8.036l-3.983 5.552.013-8.043-1.9 2.648v-8l1.76-2.423.081 5.526.031 2.072.003.195c.372-.514.745-1.026 1.119-1.54.91-1.258 1.824-2.514 2.737-3.771l.081 5.55.03 2.056.003.194 1.109-1.527 2.744-3.779.081 5.563.03 2.035.003.194 1.099-1.514 2.757-3.796.083 5.591.029 2.013.003.196 1.089-1.5 2.763-3.806.083 5.604.029 1.993.003.195 1.08-1.486 2.776-3.824.083 5.632.029 1.974.003.194 1.069-1.474 2.783-3.832.083 5.645.029 1.954.003.194 1.059-1.458 2.797-3.852.082 5.671.029 1.935.003.194 1.049-1.446 2.804-3.86.084 5.684.027 1.915.003.194 1.039-1.431 2.816-3.879.084 5.711.027 1.895.003.195 1.025-1.422 2.943-4.084 3.14 4.385.802 1.122.003-.195.021-1.458.091-6.148 3.014 4.151.841 1.159.003-.194.023-1.524.09-6.075 2.977 4.102.874 1.204.003-.194.023-1.591.09-6.015 2.948 4.061.906 1.249.003-.194.024-1.656.088-5.942 2.912 4.012.939 1.294.003-.194.026-1.722.087-5.884 2.883 3.972.971 1.339.003-.195.026-1.788.087-5.81 2.847 3.922 1.005 1.384.003-.196.027-1.854.085-5.75 2.818 3.883 1.036 1.427.003-.194.029-1.921.084-5.678 2.781 3.833 1.069 1.474.003-.194.029-1.987.084-5.619 2.754 3.793 1.101 1.517.003-.195.03-2.052.082-5.546 1.759 2.423v7.944z"/><path d="M279.448 142.571v28.563l1.96-2.731-.013 8.034 3.98-5.548-.013 8.043c1.327-1.853 2.656-3.702 3.983-5.554-.004 2.679-.007 5.358-.013 8.036l3.98-5.547c-.004 2.68-.007 5.361-.013 8.041 1.327-1.851 2.654-3.702 3.983-5.552l-.013 8.034c1.327-1.848 2.653-3.698 3.98-5.548l-.013 8.043c1.327-1.851 2.654-3.702 3.983-5.553l-.013 8.036c1.327-1.85 2.653-3.7 3.98-5.548l-.013 8.042 3.981-5.552-.012 8.036 3.979-5.549c-.003 2.68-.007 5.362-.012 8.042 1.327-1.851 2.575-3.702 3.902-5.553 1.327 1.851 2.542 3.702 3.87 5.553-.006-2.68-.009-5.362-.013-8.042l3.979 5.549c-.006-2.679-.009-5.358-.013-8.036l3.983 5.552c-.006-2.681-.009-5.361-.014-8.042l3.98 5.548c-.006-2.678-.009-5.357-.013-8.036l3.982 5.553c-.006-2.681-.009-5.362-.013-8.043 1.326 1.85 2.653 3.7 3.98 5.548-.006-2.678-.009-5.356-.014-8.034l3.982 5.552c-.005-2.68-.008-5.361-.012-8.041a14904.1 14904.1 0 003.979 5.547c-.005-2.677-.008-5.356-.012-8.036 1.327 1.852 2.656 3.701 3.983 5.554l-.014-8.043 3.979 5.548-.012-8.034 1.958 2.731v-28.563h-83.088z"/><path fill="#FFF" d="M360.598 176.438l-3.979-5.548.014 8.043c-1.327-1.853-2.656-3.702-3.983-5.554.004 2.679.007 5.358.012 8.036l-3.979-5.547c.004 2.68.007 5.361.012 8.041l-3.982-5.552c.005 2.678.008 5.356.014 8.034a7855.177 7855.177 0 01-3.98-5.548c.004 2.681.007 5.362.013 8.043l-3.982-5.553c.004 2.679.007 5.358.013 8.036l-3.98-5.548c.005 2.681.008 5.361.014 8.042l-3.983-5.552c.004 2.678.007 5.357.013 8.036l-3.979-5.549c.004 2.68.007 5.362.013 8.042-1.328-1.851-2.543-3.702-3.87-5.553-1.327 1.851-2.575 3.702-3.902 5.553.005-2.68.009-5.362.012-8.042-1.325 1.85-2.652 3.699-3.979 5.549l.012-8.036-3.981 5.552.013-8.042c-1.327 1.848-2.653 3.698-3.98 5.548l.013-8.036a9578.506 9578.506 0 00-3.983 5.553l.013-8.043c-1.327 1.85-2.653 3.7-3.98 5.548l.013-8.034c-1.329 1.85-2.656 3.701-3.983 5.552.006-2.68.009-5.361.013-8.041l-3.98 5.547c.006-2.677.009-5.356.013-8.036-1.327 1.852-2.656 3.701-3.983 5.554l.013-8.043-3.98 5.548.013-8.034-1.96 2.731v8.373l1.76-2.423.081 5.526.031 2.072.003.195c.372-.514.745-1.026 1.119-1.54.91-1.258 1.824-2.514 2.737-3.771l.081 5.55.03 2.056.003.194 1.109-1.527 2.744-3.779.081 5.563.03 2.035.003.194 1.099-1.514 2.757-3.796.083 5.591.029 2.013.003.196 1.089-1.5 2.763-3.806.083 5.604.029 1.993.003.195 1.08-1.486 2.776-3.824.083 5.632.029 1.974.003.194 1.069-1.474 2.783-3.832.083 5.645.029 1.954.003.194 1.059-1.458 2.797-3.852.082 5.671.029 1.935.003.194 1.049-1.446 2.804-3.86.084 5.684.027 1.915.003.194 1.039-1.431 2.816-3.879.084 5.711.027 1.895.003.195 1.025-1.422 2.943-4.084 3.14 4.385.802 1.122.003-.195.021-1.458.091-6.148 3.014 4.151.841 1.159.003-.194.023-1.524.09-6.075 2.977 4.102.874 1.204.003-.194.023-1.591.09-6.015 2.948 4.061.906 1.249.003-.194.024-1.656.088-5.942 2.912 4.012.939 1.294.003-.194.026-1.722.087-5.884 2.883 3.972.971 1.339.003-.195.026-1.788.087-5.81 2.847 3.922 1.005 1.384.003-.196.027-1.854.085-5.75 2.818 3.883 1.036 1.427.003-.194.029-1.921.084-5.678 2.781 3.833 1.069 1.474.003-.194.029-1.987.084-5.619 2.754 3.793 1.101 1.517.003-.195.03-2.052.082-5.546 1.759 2.423v-8.373l-1.958-2.731.005 8.033z"/><path fill="#878482" d="M317.072 229.743l-.017-.011v.034zM313.095 227.269l-.011-.007v.02z"/><path fill="#878482" d="M360.78 201.159l-.003.194-3.853-5.306-.111 7.598-.003.194-3.855-5.311-.111 7.604-.003.195-3.854-5.306-.111 7.597-.003.195-3.855-5.31-.111 7.605-.003.194-3.853-5.306-.111 7.599-.003.194-3.856-5.31-.111 7.605-.003.194-3.853-5.306-.111 7.598-.003.194-3.855-5.311-.111 7.606-.003.195-3.853-5.307-.113 7.598-.002.195-4.039-6.034-4.04 6.018-.003-.196-.111-7.597-3.853 5.306-.003-.195-.111-7.604-3.855 5.311-.003-.195-.111-7.599-3.853 5.308-.003-.196-.111-7.604-3.856 5.31-.003-.195-.111-7.599-3.853 5.308-.003-.195-.112-7.606-3.855 5.311-.003-.194-.111-7.598-3.853 5.306-.003-.194-.111-7.604-3.855 5.311-.003-.195-.111-7.599-3.853 5.308-.003-.196-.111-7.605-1.704 2.345v57.483h83.096V195.83c-.55-.76-1.102-1.518-1.653-2.277l-.116 7.606z"/><path d="M360.695 184.875l.013 8.043-3.982-5.553c.004 2.679.007 5.358.013 8.036l-3.98-5.548c.005 2.681.008 5.361.014 8.042l-3.983-5.552c.004 2.678.007 5.357.013 8.036l-3.979-5.549c.004 2.68.007 5.362.013 8.042-1.327-1.851-2.654-3.702-3.983-5.553.005 2.679.008 5.358.014 8.036-1.327-1.848-2.653-3.698-3.98-5.548.004 2.681.007 5.361.013 8.042l-3.982-5.552c.004 2.677.007 5.356.013 8.036l-3.98-5.549.014 8.043c-1.327-1.851-2.654-3.702-3.983-5.553.004 2.679.007 5.358.013 8.035l-3.973-5.539-3.944 5.501-.017.023v-.034l.013-8.002-3.973 5.539c-.005.004-.008.009-.011.013v-.02l.014-8.022-3.98 5.549.013-8.036-3.983 5.552c.006-2.68.009-5.361.013-8.041l-3.98 5.549.013-8.035a9576.814 9576.814 0 00-3.983 5.552l.013-8.043-3.98 5.549c.006-2.679.009-5.357.013-8.036a9576.814 9576.814 0 00-3.983 5.552c.006-2.68.008-5.361.013-8.041l-3.98 5.549c.006-2.679.009-5.358.013-8.036l-3.983 5.552.013-8.043-1.9 2.648v8.375c.567-.782 1.135-1.563 1.704-2.345l.111 7.605.003.196 3.853-5.308.111 7.599.003.195 3.855-5.311.111 7.604.003.194 3.853-5.306.111 7.598.003.194 3.855-5.311.112 7.606.003.195 3.853-5.308.111 7.599.003.195 3.856-5.31.111 7.604.003.196 3.853-5.308.111 7.599.003.195 3.855-5.311.111 7.604.003.195 3.853-5.306.111 7.597.003.196 4.04-6.018 4.039 6.034.002-.195.113-7.598 3.853 5.307.003-.195.111-7.606 3.855 5.311.003-.194.111-7.598 3.853 5.306.003-.194.111-7.605 3.856 5.31.003-.194.111-7.599 3.853 5.306.003-.194.111-7.605 3.855 5.31.003-.195.111-7.597 3.854 5.306.003-.195.111-7.604 3.855 5.311.003-.194.111-7.598 3.853 5.306.003-.194.111-7.606c.552.759 1.104 1.517 1.653 2.277v-8.375c-.62-.862-1.237-1.722-1.853-2.582z"/></g></svg>