<svg xmlns="http://www.w3.org/2000/svg" width="272.686" height="337.292" viewBox="310.569 312.454 272.686 337.292"><path fill="none" d="M583.213 452.209s-1.436-19.096-2.453-35.293c0 0 1.727-29.647-15.627-56.117 0 0-5.49-6.648-16.627-16.628v.007c-10.504-6.073-25.037-10.142-25.037-10.142-14.746-2.992-32.314-13.173-32.314-13.173-1.451-1.157-7.42-2.221-7.42-2.221h-25.529v-6.188h-20.34v6.188h-26.537c-3.471.2-7.035 1.064-7.035 1.064-16.781 10.613-44.547 17.94-44.547 17.94-6.371 2.128-13.498 5.599-13.498 5.599v-.031s-4.535 4.921-9.055 8.376c0 0-21.688 16.197-23.91 59.001l-.293 7.805-.586 6.371s-.184 7.914-.863 14.947c0 0-.293 14.068-.973 15.041 0 0 11.184 10.504 38.379 11.568 0 0 6.756.201 9.934-2.406 0 0-.215-1.928.078-7.035 0 0 .4-4.828.787-8.775 0 0-.865-13.684.678-23.91 0 0-.293-1.449 1.25-1.203 2.9 7.805 3.471 27.334 3.471 27.334 2.313 27.766 5.645 66.529 5.645 66.529 3.471 52.061-7.527 108.178-7.527 108.178a114.528 114.528 0 01-1.588 8.098c1.357 13.111 27.766 14.563 27.766 14.563 50.609 4.242 102.578.586 102.578.586 24.68-.479 32.1-5.492 32.1-5.492 7.143-3.084 8.299-8.576 8.299-8.576.586-1.543-.863-5.213-.863-5.213-5.521-32.131-7.914-56.596-7.914-56.596-2.406-26.223-.477-56.117-.477-56.117 2.313-17.646 4.533-51.676 4.533-51.676 1.451-13.496 2.314-29.602 2.314-29.602.863-7.912 2.992-12 2.992-12 .203-.311.406-.641.609-.986-.174.49-.342.988-.5 1.51 0 0 .262.803.631 3.596 0 0 .371 7.666.51 21.256 0 0 .586 7.234.803 15.117 0 0 .939 2.822 7.018 2.744 0 0 16.846 1.65 38.533-8.9-.002-.001 3.037-2.021 2.605-5.138zM359.34 418.452a144.527 144.527 0 01-3.54-7.254c1.187-1.654 2.373-3.309 3.561-4.963l-.021 12.217zm163.618 97.771s-1.925 29.885.477 56.099c0 0 2.388 24.457 7.9 56.577 0 0 1.447 3.67.862 5.212 0 0-1.155 5.49-8.285 8.574 0 0-7.406 5.012-32.045 5.489 0 0-51.879 3.655-102.403-.586 0 0-26.363-1.449-27.718-14.557 0 0 .893-3.701 1.586-8.096 0 0 10.979-56.099 7.515-108.143 0 0-.819-9.539-1.926-22.54l9.511-13.098.276 18.866.008.482 9.573-13.186.276 18.885.008.484 9.566-13.178.276 18.867.007.485 9.574-13.186.276 18.881.008.485 9.565-13.178.277 18.866.007.485 9.574-13.185.276 18.881.007.485 9.566-13.175.277 18.863.007.485 10.03-14.942 10.029 14.981.004-.484.28-18.867 9.566 13.178.007-.485.277-18.885 9.573 13.186.007-.481.277-18.867 9.566 13.175.007-.481.276-18.885 9.574 13.185.007-.481.276-18.866 9.566 13.174.008-.481.276-18.885 9.573 13.186.008-.485.276-18.863 8.082 11.131c-.718 8.504-1.563 17.334-2.423 23.899zm5.369-60.308l-1.66-2.313c.011 6.655.019 13.311.032 19.966-3.295-4.596-6.594-9.192-9.89-13.785.011 6.648.019 13.3.032 19.952-3.295-4.593-6.587-9.186-9.883-13.778.011 6.655.019 13.314.033 19.97-3.296-4.596-6.591-9.192-9.891-13.788.012 6.651.019 13.304.033 19.952-3.296-4.59-6.588-9.183-9.883-13.775.011 6.656.018 13.312.032 19.967-3.296-4.597-6.591-9.189-9.89-13.785.011 6.648.018 13.3.032 19.952-3.296-4.593-6.587-9.186-9.883-13.778l.032 19.97c-3.295-4.596-6.591-9.192-9.89-13.789.011 6.652.019 13.304.032 19.952l-9.864-13.753-9.793 13.66-.043-.025.032-19.869c-3.292 4.585-6.58 9.171-9.864 13.753l-.025-.019.032-19.919c-3.296 4.592-6.591 9.185-9.883 13.777l.032-19.952-9.89 13.786c.015-6.656.021-13.312.032-19.967-3.295 4.593-6.587 9.186-9.882 13.778.014-6.652.021-13.304.032-19.952-3.3 4.596-6.595 9.188-9.891 13.785l.033-19.97c-3.296 4.593-6.588 9.186-9.883 13.777.015-6.651.021-13.3.032-19.951a25031.56 25031.56 0 00-9.89 13.785c.014-6.655.021-13.312.032-19.967l-3.223 4.493c-.219-2.605-.432-5.16-.638-7.627 0 0-.139-4.737-.625-10.476l4.137-5.695.201 13.813.075 5.053.008.481 2.728-3.759 6.846-9.426.205 13.882.071 4.999.008.485 2.706-3.724 6.86-9.451.204 13.915.072 4.948.007.485 2.682-3.69 6.893-9.495.204 13.983.072 4.901.007.481 2.656-3.658 6.91-9.516.205 14.015.072 4.852.007.481 2.631-3.622 6.942-9.563.205 14.08.072 4.805.007.481 2.605-3.59 6.961-9.585.208 14.112.068 4.755.008.481 2.58-3.555 6.993-9.631.208 14.181.068 4.704.008.485 2.544-3.532 7.31-10.142 7.795 10.889 1.99 2.785.008-.485.054-3.618.227-15.267 7.482 10.307 2.087 2.879.008-.481.058-3.784.223-15.083 7.392 10.185 2.171 2.99.008-.481.057-3.949.224-14.936 7.32 10.084 2.249 3.101.008-.481.061-4.111.22-14.755 7.23 9.961 2.332 3.213.007-.481.065-4.276.215-14.608 7.159 9.861 2.411 3.324.007-.485.064-4.438.216-14.425 7.069 9.739 2.494 3.436.007-.485.068-4.604.212-14.277 6.997 9.642 2.573 3.543.007-.481.072-4.769.208-14.098 2.733 3.765a689.51 689.51 0 01-1.293 17.893zm4.455-33.078s-2.125 4.087-2.987 11.997c0 0-.059 1.081-.168 2.906l-2.733-3.765-.208 14.098-.072 4.769-.007.481-2.573-3.543-6.997-9.642-.212 14.277-.068 4.604-.007.485-2.494-3.436-7.069-9.739-.216 14.425-.064 4.438-.007.485-2.411-3.324-7.159-9.861-.215 14.608-.065 4.276-.007.481-2.332-3.213-7.23-9.961-.22 14.755-.061 4.111-.008.481-2.249-3.101-7.32-10.084-.224 14.936-.057 3.949-.008.481-2.171-2.99-7.392-10.185-.223 15.083-.058 3.784-.008.481-2.087-2.879-7.482-10.307-.227 15.267-.054 3.618-.008.485-1.99-2.785-7.795-10.889-7.31 10.142-2.544 3.532-.008-.485-.068-4.704-.208-14.181-6.993 9.631-2.58 3.555-.008-.481-.068-4.755-.208-14.112-6.961 9.585-2.605 3.59-.007-.481-.072-4.805-.205-14.08-6.942 9.563-2.631 3.622-.007-.481-.072-4.852-.205-14.015-6.91 9.516-2.656 3.658-.007-.481-.072-4.901-.204-13.983-6.893 9.495-2.682 3.69-.007-.485-.072-4.948-.204-13.915-6.86 9.451-2.706 3.724-.008-.485-.071-4.999-.205-13.882-6.846 9.426-2.728 3.759-.008-.481-.075-5.053-.201-13.813-4.137 5.695c-.5-5.909-1.369-12.879-2.836-16.841 2.489-3.472 4.979-6.942 7.469-10.413-.011 6.651-.019 13.304-.032 19.952 3.295-4.593 6.587-9.186 9.882-13.775-.011 6.656-.018 13.312-.032 19.967 3.296-4.597 6.591-9.192 9.891-13.785-.012 6.648-.022 13.3-.033 19.948 3.296-4.589 6.588-9.182 9.883-13.774l-.032 19.97c3.295-4.596 6.591-9.192 9.89-13.789l-.032 19.952c3.296-4.593 6.587-9.185 9.883-13.774l-.032 19.967c3.295-4.597 6.591-9.192 9.886-13.785-.007 6.648-.018 13.3-.028 19.952 3.291-4.593 6.587-9.186 9.879-13.778-.008 6.655-.019 13.314-.029 19.97 3.296-4.596 6.394-9.192 9.688-13.789 3.296 4.597 6.311 9.193 9.61 13.789-.015-6.655-.022-13.314-.033-19.97 3.296 4.593 6.588 9.186 9.883 13.778-.014-6.652-.021-13.304-.032-19.952l9.89 13.785c-.014-6.655-.021-13.311-.032-19.967 3.292 4.59 6.587 9.182 9.883 13.774-.015-6.647-.021-13.3-.032-19.952 3.295 4.597 6.591 9.193 9.89 13.789-.015-6.655-.021-13.314-.032-19.97 3.292 4.593 6.587 9.186 9.883 13.774-.015-6.648-.021-13.3-.032-19.948l9.886 13.785c-.011-6.655-.018-13.311-.029-19.967 3.292 4.59 6.588 9.183 9.88 13.775-.011-6.648-.019-13.301-.029-19.952l6.891 9.606c-.176.284-.345.558-.513.815zm3.49-6.786l-.017-9.815 2.527 3.523a126.492 126.492 0 01-2.51 6.292z"/><path opacity=".5" fill="#FCFCFC" d="M517.03 500.058l-.008.485-9.573-13.186-.276 18.885-.008.481-9.566-13.174-.276 18.866-.007.481-9.574-13.185-.276 18.885-.007.481-9.566-13.175-.277 18.867-.007.481-9.573-13.186-.277 18.885-.007.485-9.566-13.178-.28 18.867-.004.484-10.029-14.981-10.03 14.942-.007-.485-.277-18.863-9.566 13.175-.007-.485-.276-18.881-9.574 13.185-.007-.485-.277-18.866-9.565 13.178-.008-.485-.276-18.881-9.574 13.186-.007-.485-.276-18.867-9.566 13.178-.008-.484-.276-18.885-9.573 13.186-.008-.482-.276-18.866-9.511 13.098a28340.58 28340.58 0 001.926 22.54c3.465 52.044-7.515 108.143-7.515 108.143-.693 4.395-1.586 8.096-1.586 8.096 1.354 13.107 27.718 14.557 27.718 14.557 50.524 4.241 102.403.586 102.403.586 24.639-.478 32.045-5.489 32.045-5.489 7.13-3.084 8.285-8.574 8.285-8.574.585-1.542-.862-5.212-.862-5.212-5.513-32.12-7.9-56.577-7.9-56.577-2.401-26.214-.477-56.099-.477-56.099.859-6.564 1.705-15.395 2.43-23.897l-8.082-11.131-.283 18.861z"/><path fill="#FFF" d="M526.686 448.354l-.072 4.769-.007.481-2.573-3.543-6.997-9.642-.212 14.277-.068 4.604-.007.485-2.494-3.436-7.069-9.739-.216 14.425-.064 4.438-.007.485-2.411-3.324-7.159-9.861-.215 14.608-.065 4.276-.007.481-2.332-3.213-7.23-9.961-.22 14.755-.061 4.111-.008.481-2.249-3.101-7.32-10.084-.224 14.936-.057 3.949-.008.481-2.171-2.99-7.392-10.185-.223 15.083-.058 3.784-.008.481-2.087-2.879-7.482-10.307-.227 15.267-.054 3.618-.008.485-1.99-2.785-7.795-10.889-7.31 10.142-2.544 3.532-.008-.485-.068-4.704-.208-14.181-6.993 9.631-2.58 3.555-.008-.481-.068-4.755-.208-14.112-6.961 9.585-2.605 3.59-.007-.481-.072-4.805-.205-14.08-6.942 9.563-2.631 3.622-.007-.481-.072-4.852-.205-14.015-6.91 9.516-2.656 3.658-.007-.481-.072-4.901-.204-13.983-6.893 9.495-2.682 3.69-.007-.485-.072-4.948-.204-13.915-6.86 9.451-2.706 3.724-.008-.485-.071-4.999-.205-13.882-6.846 9.426-2.728 3.759-.008-.481-.075-5.053-.201-13.813-4.137 5.695c.486 5.738.625 10.476.625 10.476.206 2.467.419 5.021.638 7.627 1.074-1.497 2.147-2.995 3.223-4.493-.011 6.655-.019 13.312-.032 19.967 3.295-4.597 6.591-9.189 9.89-13.785-.011 6.651-.018 13.3-.032 19.951 3.295-4.592 6.587-9.185 9.883-13.777l-.033 19.97c3.296-4.597 6.591-9.189 9.891-13.785-.012 6.648-.019 13.3-.032 19.952 3.295-4.593 6.587-9.186 9.882-13.778-.011 6.655-.018 13.311-.032 19.967l9.89-13.786-.032 19.952c3.292-4.593 6.587-9.186 9.883-13.777l-.032 19.919.025.019c3.284-4.582 6.572-9.168 9.864-13.753l-.032 19.869.043.025 9.793-13.66 9.864 13.753c-.014-6.648-.021-13.3-.032-19.952 3.299 4.597 6.595 9.193 9.89 13.789l-.032-19.97c3.296 4.593 6.587 9.186 9.883 13.778-.015-6.652-.021-13.304-.032-19.952 3.299 4.596 6.594 9.188 9.89 13.785-.015-6.655-.021-13.311-.032-19.967 3.295 4.593 6.587 9.186 9.883 13.775-.015-6.648-.021-13.301-.033-19.952 3.3 4.596 6.595 9.192 9.891 13.788-.015-6.655-.022-13.314-.033-19.97 3.296 4.593 6.588 9.186 9.883 13.778-.014-6.652-.021-13.304-.032-19.952 3.296 4.593 6.595 9.189 9.89 13.785-.014-6.655-.021-13.311-.032-19.966l1.66 2.313a734.41 734.41 0 001.3-17.894l-2.733-3.765-.215 14.099z"/><path d="M359.34 418.452l.021-12.217c-1.188 1.654-2.374 3.309-3.561 4.963a144.527 144.527 0 003.54 7.254zM526.427 432.369c-3.292-4.593-6.588-9.186-9.88-13.775.012 6.656.019 13.312.029 19.967l-9.886-13.785c.011 6.648.018 13.3.032 19.948-3.296-4.589-6.591-9.182-9.883-13.774.011 6.655.018 13.314.032 19.97-3.299-4.596-6.595-9.192-9.89-13.789.011 6.652.018 13.305.032 19.952l-9.883-13.774c.011 6.656.019 13.312.032 19.967l-9.89-13.785c.011 6.648.019 13.3.032 19.952-3.295-4.593-6.587-9.186-9.883-13.778.011 6.655.019 13.314.033 19.97-3.3-4.596-6.314-9.192-9.61-13.789-3.295 4.597-6.393 9.193-9.688 13.789.011-6.655.021-13.314.029-19.97-3.292 4.593-6.588 9.186-9.879 13.778.011-6.652.021-13.304.028-19.952-3.295 4.593-6.591 9.188-9.886 13.785l.032-19.967c-3.296 4.59-6.587 9.182-9.883 13.774l.032-19.952c-3.299 4.597-6.595 9.193-9.89 13.789l.032-19.97c-3.295 4.593-6.587 9.186-9.883 13.774.011-6.648.021-13.3.033-19.948-3.3 4.593-6.595 9.188-9.891 13.785.015-6.655.021-13.311.032-19.967-3.295 4.59-6.587 9.183-9.882 13.775.014-6.648.021-13.301.032-19.952l-7.469 10.413c1.467 3.962 2.336 10.932 2.836 16.841l4.137-5.695.201 13.813.075 5.053.008.481 2.728-3.759 6.846-9.426.205 13.882.071 4.999.008.485 2.706-3.724 6.86-9.451.204 13.915.072 4.948.007.485 2.682-3.69 6.893-9.495.204 13.983.072 4.901.007.481 2.656-3.658 6.91-9.516.205 14.015.072 4.852.007.481 2.631-3.622 6.942-9.563.205 14.08.072 4.805.007.481 2.605-3.59 6.961-9.585.208 14.112.068 4.755.008.481 2.58-3.555 6.993-9.631.208 14.181.068 4.704.008.485 2.544-3.532 7.31-10.142 7.795 10.889 1.99 2.785.008-.485.054-3.618.227-15.267 7.482 10.307 2.087 2.879.008-.481.058-3.784.223-15.083 7.392 10.185 2.171 2.99.008-.481.057-3.949.224-14.936 7.32 10.084 2.249 3.101.008-.481.061-4.111.22-14.755 7.23 9.961 2.332 3.213.007-.481.065-4.276.215-14.608 7.159 9.861 2.411 3.324.007-.485.064-4.438.216-14.425 7.069 9.739 2.494 3.436.007-.485.068-4.604.212-14.277 6.997 9.642 2.573 3.543.007-.481.072-4.769.208-14.098 2.733 3.765c.109-1.825.168-2.906.168-2.906.862-7.91 2.987-11.997 2.987-11.997.168-.257.337-.531.506-.813l-6.891-9.606c.017 6.649.025 13.302.036 19.95zM536.272 416.051a127.457 127.457 0 002.511-6.292l-2.527-3.523.016 9.815z"/></svg>