<svg xmlns="http://www.w3.org/2000/svg" viewBox="1141.951 427.955 267.003 337.412"><path fill="none" d="M1191.227 539.01c.05.725.067 1.834.064 3.238.003-1.406-.014-2.515-.064-3.238zM1192.138 735.005a567.897 567.897 0 01-.965 5.401l39.843-2.706-38.878-2.695zM1194.838 718.106c-.313 2.143-.627 4.21-.938 6.202l45.666-3.102-44.728-3.1zM1196.02 709.644a646.35 646.35 0 01-.916 6.625l48.738-3.311-47.822-3.314zM1193.545 726.56a658.35 658.35 0 01-.951 5.794l42.697-2.9-41.746-2.894zM1197.087 701.175a651.703 651.703 0 01-.882 7.063l51.912-3.526-51.03-3.537zM1198.037 692.697a601.443 601.443 0 01-.835 7.516l55.191-3.749-54.356-3.767zM1190.604 743.443a366.211 366.211 0 01-.992 5.026l37.128-2.522-36.136-2.504zM1188.873 751.866a5.942 5.942 0 01-.115.431l-.386 1.064c1.192.993 3.219 1.909 5.839 2.752l28.252-1.919-33.59-2.328z"/><path fill="none" d="M1408.431 566.467c-.864-13.883-2.9-44.824-2.9-44.824-.617-17.57-6.016-31.993-12.726-42.513-9.039-14.16-19.961-21.41-19.961-21.41a86.073 86.073 0 00-3.068-1.707c.509.274 1.015.543 1.546.844l-52.924-3.578 37.039-2.836c-3.268-.863-6.732-1.621-10.945-2.703a55.816 55.816 0 01-5.083-1.598l-16.736-1.11 12.008-.771c-6.068-2.596-11.81-5.695-14.751-7.348-.454-1.063-2.373-1.865-3.297-2.735-1.557-1.467-1.426-2.082-3.867-2.718-4.528-1.18-12.605-2.255-17.936-2.22-2.642.017-3.538-.417-6.185-.405-2.203.009-4.411.025-6.611.023-2.364-.002-3.588-.359-6.063-.401H1274.812c-4.062.042-7.631.409-12.149.385-6.569-.035-18.069 1.026-24.201 2.544-2.664.66-2.349.991-3.987 2.602-1.003.986-3.233 1.96-3.553 3.109-12.867 7.9-39.001 15.271-39.001 15.271-11.568 3.331-13.883 5.646-13.883 5.646l.006.022c-6.675 4.612-12.716 11.563-12.716 11.563-19.235 18.217-20.531 60.591-20.531 60.591-.293 16.783-2.313 36.002-2.313 36.002 18.51 9.981 46.275 9.842 46.275 9.842 1.296-.432 1.157-3.039 1.157-3.039 0-7.234 1.157-12.586 1.157-12.586.03-9.873.447-18.666.154-21.396.05.723.067 1.832.064 3.238.003-1.404-.015-2.514-.064-3.238-.063-.785-.154-1.141-.293-.879l1.444-4.75.422 1.264c2.606 9.549 2.175 27.041 2.175 27.041.586 32.826 1.589 45.844 1.589 45.844.139 9.842 1.743 17.646 1.743 17.646 1.872 27.628.906 51.077.47 59.016l62.167-4.223-57.979-4.018 62.255-4.229-57.98-4.018 62.255-4.229-57.98-4.018 62.255-4.229-57.979-4.018 62.255-4.229-57.98-4.018 62.255-4.229-57.98-4.018 62.255-4.229-57.98-4.018 62.255-4.229-57.979-4.018 62.255-4.229-57.98-4.018 62.255-4.229-57.98-4.018 62.255-4.229-57.98-4.018 62.255-4.229-57.98-4.018 62.255-4.229-57.979-4.018 62.255-4.229-57.98-4.018 62.255-4.229-57.98-4.018 62.255-4.229-57.979-4.018 62.255-4.229-57.98-4.018 62.255-4.229-57.98-4.018 62.254-4.229-57.979-4.018 62.255-4.229-57.98-4.018 62.255-4.229-57.98-4.018 62.255-4.229-57.98-4.018 62.255-4.229-57.98-4.018 62.255-4.229-57.979-4.018 62.255-4.229-57.98-4.018 60.006-4.076-55.73-4.171 60.566-4.085c-3.103 13.113-5.75 28.693-5.738 28.68a734.132 734.132 0 00-1.212 6.33l-.047.095a666.215 666.215 0 00-1.942 10.911l-125.57 250.826c-1.121-.1-2.269-.206-3.432-.317l-.04.079c13.408 1.286 24.582 1.867 24.582 1.867 41.463 3.471 99.693-6.941 99.693-6.941 4.442-1.357 5.6-3.856 5.6-3.856-15.811-86.768-9.456-128.23-9.456-128.23 1.743-10.799 3.085-50.133 3.085-50.133.386-4.828.201-10.227.201-10.227-1.126-19.146 2.321-30.613 2.505-31.209 2.06 4.027 1.629 25.824 1.629 25.824-.139 1.883.293 4.629.293 4.629.864 6.369.586 10.998.586 10.998 10.261 4.898 47.282-8.553 47.282-8.553zm-94.308-104.941l58.353-3.841a181.829 181.829 0 00-1.993 7.714l-56.36-3.873z"/><path fill="none" d="M1198.776 684.205a190.74 190.74 0 01-.176 2.874 550.605 550.605 0 01-.511 5.118l58.578-3.979-57.891-4.013z"/><path fill="#FFF" d="M1235.905 762.529l125.57-250.826a666.215 666.215 0 011.942-10.911l-130.943 261.42c1.162.111 2.31.217 3.431.317z"/><path d="M1372.476 457.685l-58.353 3.841 56.36 3.874a181.5 181.5 0 011.993-7.715zM1363.556 500.207c.353-1.879.724-3.822 1.12-5.84-.013.013 2.635-15.567 5.738-28.68l-60.566 4.085 55.73 4.171-60.006 4.076 57.98 4.018-62.255 4.229 57.979 4.018-62.255 4.229 57.98 4.018-62.255 4.229 57.98 4.018-62.255 4.229 57.98 4.018-62.255 4.229 57.98 4.018-62.255 4.229 57.979 4.018-62.254 4.229 57.98 4.018-62.255 4.229 57.98 4.018-62.255 4.229 57.979 4.018-62.255 4.229 57.98 4.018-62.255 4.229 57.98 4.018-62.255 4.229 57.979 4.018-62.255 4.229 57.98 4.018-62.255 4.229 57.98 4.018-62.255 4.229 57.98 4.018-62.255 4.229 57.98 4.018-62.255 4.229 57.979 4.018-62.255 4.229 57.98 4.018-62.255 4.229 57.98 4.018-62.255 4.229 57.98 4.018-62.255 4.229 57.979 4.018-62.255 4.229 57.98 4.018-62.255 4.229 57.98 4.018-62.255 4.229 57.979 4.018-62.167 4.223-.001.012 57.891 4.012-58.578 3.979-.052.501 54.355 3.767-55.191 3.749-.115.961 51.03 3.537-51.912 3.526-.185 1.407 47.822 3.314-48.738 3.311c-.089.617-.177 1.231-.266 1.837l44.728 3.1-45.666 3.102c-.119.763-.238 1.513-.356 2.252l41.745 2.893-42.697 2.9a598.1 598.1 0 01-.455 2.652l38.878 2.694-39.843 2.706a479.64 479.64 0 01-.569 3.036l36.135 2.504-37.128 2.522c-.341 1.655-.595 2.81-.738 3.397l33.591 2.328-28.252 1.919c8.885 2.858 24.632 4.872 38.138 6.17l131.206-262.069zM1371.322 456.856c-.531-.3-1.037-.57-1.546-.844-5.43-2.889-9.691-4.343-14.339-5.571l-37.039 2.836 52.924 3.579z"/><path fill="#939597" d="M1363.417 500.792l.047-.095.092-.49-131.206 262.077.084.008.04-.079 130.943-261.421z"/><path d="M1339.41 446.141a91.601 91.601 0 01-4.728-1.88l-12.008.771 16.736 1.109z"/></svg>