<svg xmlns="http://www.w3.org/2000/svg" viewBox="280.996 153.383 80 80"><path fill="none" stroke="#231F20" stroke-width=".052" stroke-miterlimit="22.926" d="M280.996 153.383h80v80h-80z"/><g fill-rule="evenodd" clip-rule="evenodd"><path d="M360.996 159.835l-.102.005v-.009l.102.004v-2.014l-23.064 1.07 22.961.94-.007.009-24.606.981 22.578.94-24.229.99 21.53.976-23.182.954 22.399.941-24.051.989 22.4.941-24.051.99 22.399.94-24.051.99 22.399.94-24.051.99 22.4.94-24.051.99 22.399.94-24.051.99 22.399.941-24.051.989 22.399.941-24.05.989 22.399.941-24.051.99 22.399.94-24.051.99 22.399.94-24.051.99 22.4.94-24.051.99 22.399.941-24.051.989 22.399.941-24.051.989 22.4.941-24.051.99 22.399.94-24.051.99 22.399.94-24.051.99 22.399.94-24.05.99 22.399.94-24.051.99 22.399.941-24.051.989 22.399.941-24.05.989 22.399.941-24.051.99 22.399.94-24.051.99 22.399.94-24.051.99 22.4.94-24.051.99 22.399.94-24.051.99 22.399.941-24.051.989 22.4.941-24.051.989 22.399.941-24.051.99 22.399.94-24.051.99 22.399.94-24.05.99 22.399.94-23.178.954v.073l21.526.904-21.526.885v.21l19.874.835-19.874.818v.332l18.249.779-18.249.751v.484l17.406.731-.145.171h4.669l58.07-70.232v-1.477z"/><path d="M339.584 156.961l21.412.86v-1.693zM360.996 154.28l-20.339.751 20.339.775z"/></g><path fill="#FFF" d="M360.996 164.831l-56.651 68.552h-1.452l57.794-69.932.308-.353z"/></svg>