<svg xmlns="http://www.w3.org/2000/svg" xmlns:xlink="http://www.w3.org/1999/xlink" width="81" height="81"><style>.prefix__st328{fill:none;stroke:#000;stroke-width:.5669;stroke-miterlimit:22.9256}.prefix__st499{fill-rule:evenodd;clip-rule:evenodd}</style><g id="prefix__Capa_3_1_"><defs><path id="prefix__SVGID_1719_" d="M.5.5h80v80H.5z"/></defs><clipPath id="prefix__SVGID_2_"><use xlink:href="#prefix__SVGID_1719_" overflow="visible"/></clipPath><g id="prefix__ejemplo" clip-path="url(#prefix__SVGID_2_)"><path class="prefix__st328" d="M-10.8-26.8H91.9v134.6H-10.8z"/><path class="prefix__st499" d="M4.6 107.8H3l-2.4-.4-1.5.4h-1l2.5-.7 4 .7zm4.3 0H7.2l-6.8-1.2-4.2 1.2h-1l5.2-1.5 8.5 1.5zm4.2 0h-1.6l-11.2-2-6.9 2h-1l8-2.3 12.7 2.3zm4.5 0H16L0 105l-9.8 2.8h-1L0 104.7l17.6 3.1zm74.3-24.9v.3l-6.3 1.7-5.7-3-8.7-3-9.6 2-3.6 10-1.5 10.8c-2.3.5-4.7 1.1-7 1.6-3 0-6 0-9 .1l-14.3-4.7-6.9 9.3h-.4l7.1-9.6 14.5 4.8 8.9-.1 6.8-1.5L57.7 91c1.2-3.4 2.4-6.7 3.6-10.1 3.3-.7 6.6-1.3 9.9-2 2.9 1 5.9 2 8.8 3l5.6 2.9 6.3-1.9zm0-.9v.3l-6.5 1.8-5.7-3-8.7-3-9.6 2-3.6 9.9-1.5 10.8c-2.3.5-4.7 1.1-7 1.6-3 0-6 0-9 .1L26 97.8l-7.5 10.1h-.4l7.8-10.4 14.5 4.8 8.9-.1 6.8-1.5L57.5 90c1.2-3.4 2.4-6.7 3.6-10.1 3.3-.7 6.6-1.3 9.9-2 2.9 1 5.9 2 8.8 3l5.6 2.9 6.5-1.8zm0-.7v.3l-6.7 1.8-5.7-3-8.7-3-9.6 2-3.6 9.9-1.5 10.8c-2.3.5-4.7 1.1-7 1.6-3 0-6 0-9 .1L25.7 97l-7.8 10.5-18.1-3.2-10.6 3v-.3l10.6-3 18 3.2 7.8-10.5 14.5 4.8 8.9-.1 6.8-1.5 1.5-10.6c1.2-3.4 2.4-6.7 3.6-10.1 3.3-.7 6.6-1.3 9.9-2 2.9 1 5.9 2 8.8 3l5.6 2.9 6.7-1.8zm0-.7v.3l-7 1.9-5.7-3-8.7-3-9.6 2-3.6 9.9-1.5 10.8c-2.3.5-4.7 1.1-7 1.6-3 0-6 0-9 .1l-14.3-4.7-7.8 10.5-18.1-3.2-10.4 3v-.3l10.3-2.9 18 3.2 7.8-10.5 14.5 4.8 8.9-.1 6.8-1.5L57 88.7c1.2-3.4 2.4-6.7 3.6-10.1 3.3-.7 6.6-1.3 9.9-2 2.9 1 5.9 2 8.8 3l5.6 2.9 7-1.9zm0-.9v.3l-7.3 2-5.7-3-8.8-3-9.6 2-3.6 9.9-1.5 10.7c-2.3.5-4.6 1.1-7 1.6-3 0-6 0-9 .1l-14.3-4.7-7.8 10.4-18.1-3.2-10 2.8v-.2l10-2.8 18 3.2L25 95.3l14.5 4.8 8.9-.1 6.8-1.5 1.5-10.6c1.2-3.4 2.4-6.7 3.6-10.1 3.3-.7 6.6-1.3 9.8-2 2.9 1 5.9 2 8.8 3l5.6 2.9 7.4-2zm0-.9v.2l-7.8 2.1-5.7-3-8.5-3.6-9.6 2-3.6 9.9-1.6 11.4c-2.3.5-4.6 1.1-7 1.6-3 0-6 0-9 .1l-14.3-5.1-7.7 10.7L-.8 102l-10 2.8v-.2l10-2.8 17.9 3.1 7.8-10.7 14.5 5.2 8.9-.1 6.8-1.5 1.5-11.3c1.2-3.3 2.4-6.7 3.6-10.1 3.3-.7 6.6-1.3 9.8-2 5.3 2.3 9.1 4 14.1 6.6l7.8-2.2zm0-1.3v.2l-8.2 2.2-5.6-3-8.5-3.6-9.7 2-3.6 9.9-1.6 11.4c-2.3.5-4.6 1.1-7 1.6-3 0-6 0-9 .1l-14.4-5.1-7.3 11.2-18.3-3.6-9.6 2.7v-.2l9.6-2.7 18.2 3.6 7.4-11.3 14.4 5.2 8.9-.1 6.8-1.5 1.5-11.3c1.2-3.3 2.4-6.7 3.6-10 3.3-.7 6.5-1.3 9.8-2 5.3 2.3 9.1 4 14.1 6.6l8.5-2.3zm0-1.4v.2L83 78.7l-5.1-2.8-8.8-4.1-9.7 2-3.6 9.9-1.2 12c-2.3.5-4.6 1.1-7 1.6-3 0-6 0-9 .1l-14.8-5.5-7.1 11.3-18.3-3.6-9.3 2.6v-.2l9.3-2.6 18.2 3.6 7.2-11.3 14.9 5.5 8.9-.1 6.8-1.5 1.2-11.9c1.2-3.3 2.4-6.7 3.6-10 3.3-.7 6.5-1.3 9.8-2 5 2.4 9.1 4.3 13.9 7l9-2.6zm-63.7 26.4l-.5.2-.7-.2-1.4 1.9-1.3 1.3 2.7-3.6 1.2.4zm1.1-.3l-.5.2-2-.7-4.1 5.5-.7.7h-.2l4.9-6.5 2.6.8zm1.1-.4l-.4.2-3.3-1.1-5.2 7h-.4l5.4-7.3 3.9 1.2zm6.7 1.5l-6.1-1.7-4.6-1.5-5.7 7.7h-.4l6-8.1 10.8 3.6zm3.4.4l-1.4-.2-12.8-4.2-6.3 8.5h-.4l6.6-8.8 14.3 4.7zm2.7.3l-2.3-.3 8.7-.1 6.8-1.5 1.5-10.6c1.2-3.4 2.4-6.7 3.6-10.1 3.3-.7 6.6-1.3 9.9-2 2.9 1 5.9 2 8.8 3l5.6 2.9 6.1-1.7v.4l-6.2 1.7-5.7-3-8.7-3-9.6 2-3.6 9.9-1.5 10.8c-2.3.5-4.7 1.1-7 1.6h-6.4zM67 91.7l-1 .5-1.8.4-.3.9-.6.7c.2-.6.5-1.3.7-1.9l3-.6zm2.9-1.4l-1 .5-5 1-1 2.8-.6.7c.5-1.3.9-2.5 1.4-3.8 2.1-.4 4.2-.8 6.2-1.2zm3.5-1.5l-1.2.5-8.4 1.7-1.7 4.7-.6.7c.7-1.9 1.4-3.8 2-5.6 3.3-.7 6.6-1.3 9.9-2zm1.3-.3l-.5.1-.9-.3-9.6 2-2.4 6.6-.6.7 2.7-7.5c3.3-.7 6.6-1.3 9.9-2 .4.1.9.2 1.4.4zm1.3-.3l-.5.1-2.5-.8-9.6 2-3 8.4-.6.7c1.1-3.1 2.3-6.3 3.4-9.4 3.3-.7 6.6-1.3 9.9-2 .9.4 1.9.7 2.9 1zm9.9-2l-.4.1-5.3-2.7-8.7-3-9.6 2-3.6 9.9-1.4 10.1.3-.4 1.1-8.1c1.2-3.4 2.4-6.7 3.6-10.1 3.3-.7 6.6-1.3 9.9-2 2.9 1 5.9 2 8.8 3l3.4 1.8-.4.1-3-1.6-8.7-3-9.6 2-3.7 9.7-1.1 7.6.3-.4.8-5.7c1.2-3.4 2.4-6.7 3.6-10.1 3.3-.7 6.6-1.3 9.9-2 2.9 1 5.9 2 8.8 3l1.1.6-.7.1-.5-.3-8.7-3-9.6 1.8-3.5 10-.7 5.2.3-.4.5-3.3c1.2-3.4 2.4-6.7 3.6-10.1 3.3-.7 6.6-1.3 9.9-2 2.4.8 4.9 1.7 7.3 2.5l-.5.1-6.8-2.3-9.6 2-3.6 9.9-.4 2.6.3-.4.1-.8c1.2-3.4 2.4-6.7 3.6-10.1 3.3-.7 6.6-1.3 9.9-2 1.5.5 2.9 1 4.4 1.5l-.5.1-3.9-1.3-9.6 2-3.6 9.9v.3l-.3.4.2-1.5 3.6-9.9 9.6-2 5.4 1.8.5-.1c-1.9-.7-3.9-1.3-5.9-2-3.3.7-6.6 1.3-9.9 2-1.2 3.4-2.4 6.7-3.6 10.1l-.3 2-.3.4.5-4 3.6-9.9 9.6-2 8.3 2.8.5-.1c-3-1-5.9-2-8.8-3-3.3.7-6.6 1.3-9.9 2-1.2 3.4-2.4 6.7-3.6 10.1l-.6 4.5-.3.4.9-6.4 3.6-9.9 9.6-2 8.7 3 1.9 1 .4-.1-2.2-1.2c-3-1-5.9-2-8.8-3-3.3.7-6.6 1.3-9.9 2-1.2 3.4-2.4 6.7-3.6 10.1l-1 6.9-.3.4 1.2-8.9 3.6-9.9 9.6-2 8.7 3 4.1 2.2.4-.1-4.4-2.1c-3-1-5.9-2-8.8-3-3.3.7-6.6 1.3-9.9 2-1.2 3.4-2.4 6.7-3.6 10.1l-1.3 9.4-.3.5L58 92.3c1.2-3.4 2.4-6.7 3.6-10.1 3.3-.7 6.6-1.3 9.9-2 2.9 1 5.9 2 8.8 3l5.6 3zm.3.2l-.2-.2 5.9-1.6v.3l-5.7 1.5zm.6.6l-.2-.2 5.3-1.4v.3L86.8 87zm.7.7l-.2-.2 4.6-1.2v.3l-4.4 1.1zm.7.6l-.2-.2 3.9-1.1v.3l-3.7 1zm3.7-.5l-.9.6-2.1.6-.2-.2 3.2-1zm0-13.2v.1l-9.3 2.5-4.7-2.6-9.2-4.6-9.7 2-3.6 10-.9 12.4c-2.3.5-4.6 1.1-6.9 1.6-3 0-6 0-9 .1l-15.1-5.9-7.2 11.6L-2 98l-8.8 2.5v-.1l8.8-2.5 18.2 3.6 7.2-11.6 15.2 5.9 8.9-.1 6.9-1.5.9-12.3c1.2-3.3 2.4-6.7 3.6-10 3.3-.7 6.5-1.3 9.8-2 4.8 2.4 9.2 4.7 13.9 7.3l9.3-2.6z"/><path class="prefix__st328" d="M-10.8 98.7l8.5-2.5 18.1 4 7.1-11.9 15.7 6.3 8.2-.2 7.1-1.4.8-12.6c1.2-3.3 2.4-7 3.6-10.3l9.9-2.1c4.8 2.4 8.7 5.1 13.3 7.7L91.8 73"/><path class="prefix__st328" d="M-10.8 97.5l8.5-2.2 17.8 3.8 7.1-11.9 15.7 6.3 8.2-.2 7.1-1.4.8-12.6c1.2-3.3 2.4-7 3.6-10.3l9.9-2.1c4.8 2.4 8.7 5.1 13.3 7.7l10.7-2.7"/><path class="prefix__st328" d="M-10.8 96.5l8.2-2.2L15.1 98l7-11.4 15.8 5.7 8.2-.2 7.1-1.4.8-12.6c1.2-3.3 2.4-7 3.6-10.3l9.9-2.1c4.8 2.4 8.7 5.1 13.3 7.7l11.1-2.9"/><path class="prefix__st328" d="M-10.8 95.4l8.2-2.1 17.4 3.5 7-11 15.8 5.4 8.2-.2 7.1-1.4.7-12.6c1.2-3.3 2.4-7 3.6-10.3l9.9-2.1c4.8 2.4 8.7 5.1 13.3 7.7l11.5-3"/><path class="prefix__st328" d="M-10.8 94.4l8.2-1.9 17.1 3.4L21.4 85 38 90l8.7-.4 5.8-1.1.8-12.6c1.2-3.3 2.4-7 3.6-10.3l9.9-2.1c4.8 2.4 8.7 5.1 13.3 7.7L92 68.1"/><path class="prefix__st328" d="M71.6 65.3c2.5 1.5 5.2 3.2 8 4.7l12.2-3.2M-10.8 93.7l8.1-2L14 94.6l7-10.2 16.9 4.1h8.2l6-1.1.8-12.6c1.2-3.3 2.4-7 3.6-10.3 3.1-.6 6.4-1.3 9.5-2"/><path class="prefix__st328" d="M70.8 63.9c2.7 1.6 5.5 3.3 8.4 4.9l12.6-3.3M-10.8 92.7l8.1-1.9 16.5 2.9 6.6-10.2L37.5 87l9-.1 5.2-.7.8-12.6c1.2-3.3 2.4-7 3.6-10.3 3-.6 6.2-1.3 9.2-1.9"/><path class="prefix__st328" d="M70.1 62.6c2.8 1.6 5.8 3.5 8.8 5.2l13-3.4M-10.8 91.9l8.2-1.9 16.1 3 6.6-10.5 17.4 3.1 9.2.1 4.7-.6.8-12.6c1.2-3.3 2.4-7 3.6-10.3 2.9-.6 6-1.3 8.9-1.8"/><path class="prefix__st328" d="M69.8 61.5c2.8 1.6 5.7 3.4 8.7 5.1l13.4-3.5m-37.1-1c.1-.4.3-.8.4-1.1 2.8-.6 5.9-1.2 8.6-1.8m-74.6 32l8.2-1.9 15.7 3.1 6.3-10.7 18.4 2.8 8.7.3 4.4-.8.8-12.6"/><path class="prefix__st328" d="M71.7 61.7c2.1 1.3 4.1 2.5 6.4 3.8l13.8-3.6m-37.5-.7c.1-.3.4-1 .5-1.4 2.7-.5 5.6-1.3 8.3-1.8m-74 32.4l8.2-1.8 15.5 2.9 6-10.7L38 83.1l8.5.4 4.5-.8"/><path class="prefix__st328" d="M72.9 61.9l4.8 2.5 14.2-3.7m-102.7 29l8.3-1.8 15.3 2.9 5.8-10.7 19.1 2 8.8.7 3.8-1.2.1-1.1"/><path class="prefix__st328" d="M74.4 62.1c1.1.6 1.8 1.1 2.9 1.7L91.8 60M-10.8 89l8.2-1.7 15.1 3.2 5.7-10.6 19.6 1.4 8.5.5 3.6-.7.1-1.4"/><path class="prefix__st328" d="M75.4 62.2l1.6.9 14.9-3.9M-10.8 88.4l8.2-1.8 14.8 3.3 5.5-10.6 20.9 1 7.6.8 3.2-.6.1-2"/><path class="prefix__st328" d="M76.4 62.3l15.4-3.8M-10.8 87.7l8.2-1.8L12 89.2l5.4-10.7 20.6.8 8.2 1 2.9-.5.1-2.2"/><path class="prefix__st328" d="M12.7 86.3l4.4-8.3 21.1.3 8.2.9 2.7-.7"/><path class="prefix__st328" d="M17 77.7l21.2-.2 8.2 1 2.7-.7"/><path class="prefix__st328" d="M17 77.4l21.2-.6 8.2.9 2.7-.7"/><path class="prefix__st328" d="M17.2 77l21-1 8.2.9 2.7-.7"/><path class="prefix__st328" d="M12.7 83.2l3.4-6.5 22.1-1.5 8.2 1 2.7-.7"/><path class="prefix__st328" d="M17.5 76.3l20.7-1.9 8.2 1 2-.5"/><path class="prefix__st328" d="M17.2 76l21-2.4 8.2 1 1.8-.5"/><path class="prefix__st328" d="M18.5 75.5l19.7-2.6 8.2.9 1.4-.3"/><path class="prefix__st328" d="M20.4 74.9l17.8-2.8 8.2 1 1.3-.4"/><path class="prefix__st328" d="M21.5 74.3l16.7-3 8.2 1 1-.3"/><path class="prefix__st328" d="M23.5 73.5l14.7-2.9 8.2.9.7-.2"/><path class="prefix__st328" d="M14.8 74.8l23.4-5 5.4.6M15 74.8l23.2-5.6M-10.8 82.9l7.9-1.7 16 5.8"/><defs><path id="prefix__SVGID_1725_" d="M-10.9 71.1H27v19.1h-37.9z"/></defs><clipPath id="prefix__SVGID_4_"><use xlink:href="#prefix__SVGID_1725_" overflow="visible"/></clipPath><path clip-path="url(#prefix__SVGID_4_)" fill-rule="evenodd" clip-rule="evenodd" fill="none" d="M-10.9 75.6v7l8.2-1.7 8.2 4.5 6.5 3.2.4 1.5L16.9 78l-.6-1.2 10.4-4.6-12.8.8-1.3-1.8-1.8 5.6.3 8.3-5-2.5-8.9-7.5z"/><defs><path id="prefix__SVGID_1727_" d="M-10.9 71.1H27v19.1h-37.9z"/></defs><clipPath id="prefix__SVGID_6_"><use xlink:href="#prefix__SVGID_1727_" overflow="visible"/></clipPath><path clip-path="url(#prefix__SVGID_6_)" fill="none" d="M-10.9 75.6v7l8.2-1.7 8.2 4.5 6.5 3.2.4 1.5L16.9 78l-.6-1.2 10.4-4.6-12.8.8-1.3-1.8-1.8 5.6.3 8.3-5-2.5-8.9-7.5z"/><defs><path id="prefix__SVGID_1729_" d="M13.2 52.5h78.7v33.2H13.2z"/></defs><clipPath id="prefix__SVGID_8_"><use xlink:href="#prefix__SVGID_1729_" overflow="visible"/></clipPath><path clip-path="url(#prefix__SVGID_8_)" fill-rule="evenodd" clip-rule="evenodd" fill="none" d="M17.5 76.3l-.7 2-3.6-6.2 14-.6 10-3.4-.5-2.1 9.6 2.2-.6-2.3 5.4-12.4.9 1.8 9.5-2.8 5.8 3.8 1.6-.7 8.5 1 .6-1.8h4.5l4.8-1.2.5 1.7 4-1.4v2.3l-15.6 4 .2 2.1-7-.8 2.4 4-5.6-2.5-3.6-5.8-8.6 3.1 1.5 3.4-4.1 8.8 2.6 6.7-2.4 6.3-4.5-14.3-9.5-2-10.9 3z"/><defs><path id="prefix__SVGID_1731_" d="M13.2 52.5h78.7v33.2H13.2z"/></defs><clipPath id="prefix__SVGID_10_"><use xlink:href="#prefix__SVGID_1731_" overflow="visible"/></clipPath><path clip-path="url(#prefix__SVGID_10_)" fill="none" d="M17.5 76.3l-.7 2-3.6-6.2 14-.6 10-3.4-.5-2.1 9.6 2.2-.6-2.3 5.4-12.4.9 1.8 9.5-2.8 5.8 3.8 1.6-.7 8.5 1 .6-1.8h4.5l4.8-1.2.5 1.7 4-1.4v2.3l-15.6 4 .2 2.1-7-.8 2.4 4-5.6-2.5-3.6-5.8-8.6 3.1 1.5 3.4-4.1 8.8 2.6 6.7-2.4 6.3-4.5-14.3-9.5-2-10.9 3z"/><path class="prefix__st328" d="M91.9 57.8l-15.5 4M91.9 57.2l-15.6 4.1M91.9 56.7l-15.6 4"/><path class="prefix__st499" d="M76.4-26.8H78l2.4.4 1.5-.4h1l-2.5.7-4-.7zm-4.3 0h1.6l6.8 1.2 4.2-1.2h1l-5.2 1.5-8.4-1.5zm-4.2 0h1.6l11.2 2 6.9-2h1l-8 2.3-12.7-2.3zm-4.5 0H65L81-24l9.8-2.8h1L81-23.7l-17.6-3.1zM-10.9-1.9v-.3l6.3-1.7 5.7 3 8.7 3 9.6-2 3.6-10 1.5-10.8c2.3-.5 4.7-1.1 7-1.6 3 0 6 0 9-.1l14.3 4.7 6.9-9.3h.4L55-17.2 40.5-22l-8.9.1-6.8 1.5-1.5 10.6C22.1-6.4 20.9-3.1 19.7.3c-3.3.7-6.6 1.3-9.9 2-2.9-1-5.9-2-8.8-3l-5.6-2.9-6.3 1.7zm0 .9v-.3l6.5-1.8 5.7 3 8.7 3 9.6-2L23.3-9l1.5-10.8c2.3-.5 4.7-1.1 7-1.6 3 0 6 0 9-.1l14.3 4.7 7.5-10.1h.4l-7.8 10.4-14.5-4.8-8.9.1-6.8 1.6L23.5-9c-1.2 3.4-2.4 6.7-3.6 10.1-3.3.7-6.6 1.3-9.9 2-2.9-1-5.9-2-8.8-3l-5.6-2.9-6.5 1.8zm0 .7v-.3l6.7-1.8 5.7 3 8.7 3 9.6-2 3.6-9.9 1.5-10.8c2.3-.5 4.7-1.1 7-1.6 3 0 6 0 9-.1L55.3-16l7.8-10.5 18.1 3.2 10.6-3v.3l-10.6 3-18-3.2-7.8 10.5-14.5-4.8-8.9.1-6.8 1.5-1.5 10.7c-1.2 3.4-2.4 6.7-3.6 10.1-3.3.7-6.6 1.3-9.9 2-2.9-1-5.9-2-8.8-3L-4.2-2l-6.7 1.7zm0 .7V.1l7-1.9 5.7 3 8.7 3 9.6-2 3.6-9.9 1.5-10.8c2.3-.5 4.7-1.1 7-1.6 3 0 6 0 9-.1l14.3 4.7L63.3-26l18.1 3.2 10.4-3v.3l-10.3 2.9-18-3.2-7.8 10.5-14.5-4.8-8.9.1-6.8 1.5L24-7.7C22.8-4.3 21.6-1 20.4 2.4c-3.3.7-6.6 1.3-9.9 2-2.9-1-5.9-2-8.8-3l-5.6-2.9-7 1.9zm0 .9V1l7.3-2 5.7 3 8.8 3 9.6-2 3.6-9.9 1.5-10.7c2.3-.5 4.6-1.1 7-1.6 3 0 6 0 9-.1l14.3 4.7L63.7-25l18.1 3.2 10-2.8v.2l-10 2.8-18-3.2L56-14.3 41.5-19h-8.9l-6.8 1.5-1.5 10.7c-1.2 3.4-2.4 6.7-3.6 10.1-3.3.7-6.6 1.3-9.8 2-2.9-1-5.9-2-8.8-3L-3.5-.6l-7.4 1.9zm0 .9v-.3l7.8-2.1 5.7 3 8.5 3.6 9.6-2 3.6-9.9 1.6-11.4c2.3-.5 4.6-1.1 7-1.6 3 0 6 0 9-.1l14.3 5.1 7.7-10.7L81.8-21l10-2.8v.2l-10 2.8L64-23.9l-7.8 10.7-14.5-5.2-8.9.1-6.8 1.5-1.5 11.4c-1.2 3.3-2.4 6.7-3.6 10.1-3.3.7-6.6 1.3-9.8 2C5.8 4.4 2 2.7-3.1 0l-7.8 2.2zm0 1.3v-.1l8.2-2.2 5.6 3 8.5 3.6 9.7-2 3.6-9.9 1.6-11.4c2.3-.5 4.6-1.1 7-1.6 3 0 6 0 9-.1l14.4 5.1L64-23.4l18.3 3.6 9.6-2.7v.2l-9.6 2.7L64-23.2l-7.4 11.3-14.4-5.2-9 .1-6.8 1.5-1.5 11.3c-1.2 3.3-2.4 6.7-3.6 10-3.3.7-6.5 1.3-9.8 2-5.3-2.3-9.1-4-14.1-6.6l-8.3 2.3zm0 1.4v-.1L-2 2.4l5.1 2.8 8.8 4.1 9.7-2 3.6-9.9 1.2-12c2.3-.5 4.6-1.1 7-1.6 3 0 6 0 9-.1l14.8 5.5 7.1-11.3 18.3 3.6 9.3-2.6v.2l-9.3 2.6-18.2-3.6-7.2 11.3-14.9-5.5-9 .1-6.8 1.5-1.2 11.9c-1.2 3.3-2.4 6.7-3.6 10-3.3.7-6.5 1.3-9.8 2C6.9 7 2.8 5.1-2 2.4l-8.9 2.5zm63.7-26.4l.5-.2.7.2 1.4-1.9 1.3-1.3-2.7 3.6-1.2-.4zm-1.1.3l.5-.2 2 .7 4.1-5.5.7-.7h.2l-4.9 6.5-2.6-.8zm-1.1.4l.4-.2 3.3 1.1 5.2-7h.4l-5.4 7.3-3.9-1.2zm-6.7-1.5l6.1 1.7 4.6 1.5 5.7-7.7h.4l-6 8.1-10.8-3.6zm-3.4-.4l1.4.2 12.8 4.2 6.3-8.5h.4L54.8-18l-14.3-4.7zm-2.7-.3l2.3.3-8.7.1-6.8 1.5-1.5 10.6c-1.2 3.4-2.4 6.7-3.6 10.1-3.3.7-6.6 1.3-9.9 2-2.9-1-5.9-2-8.8-3l-5.6-2.9-6.1 1.7V-3l6.2-1.7 5.7 3 8.7 3 9.6-2 3.6-9.9 1.5-10.8c2.3-.5 4.7-1.1 7-1.6h6.4zM14-10.7l1-.5 1.8-.4.3-.9.6-.7c-.2.6-.5 1.3-.7 1.9l-3 .6zm-3 1.4l1-.5 5-1 1-2.8.6-.7c-.5 1.3-.9 2.5-1.4 3.8-2 .4-4.1.8-6.2 1.2zM7.6-7.8l1.2-.5 8.4-1.7 1.7-4.7.6-.7c-.7 1.9-1.4 3.8-2 5.6-3.4.7-6.6 1.3-9.9 2zm-1.3.3l.5-.1.9.3 9.6-2 2.4-6.6.6-.7-2.7 7.5c-3.3.7-6.6 1.3-9.9 2-.4-.1-.9-.2-1.4-.4zM5-7.2l.5-.1 2.5.8 9.6-2 3-8.4.6-.7c-1.1 3.1-2.3 6.3-3.4 9.4-3.3.7-6.6 1.3-9.9 2C7-6.6 6-6.9 5-7.2zm-9.9 2l.4-.1L.8-2.6l8.7 3 9.6-2 3.6-9.9 1.4-10.1-.3.4-1.1 8.1C21.4-9.6 20.2-6.2 19-2.9c-3.3.7-6.6 1.3-9.9 2-2.9-1-5.9-2-8.8-3L-3-5.6l.4-.1 3 1.6 8.7 3 9.6-2 3.6-9.9 1.1-7.6-.3.4-.8 5.7c-1.2 3.4-2.4 6.7-3.6 10.1-3.3.7-6.6 1.3-9.9 2-2.9-1-5.9-2-8.8-3L-1.2-6l.7-.1.5.3 8.7 3 9.6-1.8 3.6-9.9.7-5.2-.3.4-.5 3.3c-1.2 3.4-2.4 6.7-3.6 10.1-3.2.6-6.5 1.2-9.8 1.9C6-4.8 3.5-5.7 1.1-6.5l.5-.1 6.8 2.3 9.6-2 3.6-9.9.4-2.7-.3.4-.1.8C20.4-14.3 19.2-11 18-7.6c-3.3.7-6.6 1.3-9.9 2-1.5-.5-2.9-1-4.4-1.5l.5-.1 3.9 1.3 9.6-2 3.6-9.9v-.3l.3-.5-.2 1.6-3.6 9.9-9.6 2-5.3-1.8-.6.1c2 .7 3.9 1.3 5.9 2 3.3-.7 6.6-1.3 9.9-2 1.2-3.4 2.4-6.7 3.6-10.1l.3-2 .3-.4-.5 4-3.6 9.9-9.6 2-8.3-3-.5.1c3 1 5.9 2 8.8 3 3.3-.7 6.6-1.3 9.9-2 1.2-3.4 2.4-6.7 3.6-10.1l.6-4.5.3-.4-.9 6.4L18.6-4 8.9-2 .2-5l-1.9-1-.4.1L.1-4.7c3 1 5.9 2 8.8 3 3.3-.7 6.6-1.3 9.9-2 1.2-3.4 2.4-6.7 3.6-10.1l1-6.9.3-.4-1.2 8.9-3.6 9.9-9.6 2-8.7-3-4.1-2.2H-4L.5-3.2c3 1 5.9 2 8.8 3 3.3-.7 6.6-1.3 9.9-2 1.2-3.4 2.4-6.7 3.6-10.1l1.3-9.4.3-.4-1.5 10.6c-1.2 3.4-2.4 6.7-3.6 10.1L9.4.7c-2.9-1-5.9-2-8.8-3l-5.5-2.9zm-.3-.2l.2.2-5.9 1.6v-.3l5.7-1.5zm-.6-.6l.2.2-5.3 1.4v-.3L-5.8-6zm-.7-.7l.2.2-4.6 1.2v-.3l4.4-1.1zm-.7-.6l.2.2-3.9 1.1v-.3l3.7-1zm-3.7.5l.9-.5 2.1-.6.2.2-3.2.9zm0 13.2v-.2l9.3-2.5 4.7 2.6 9.2 4.7L22 9l3.6-10 .9-12.4c2.3-.5 4.6-1.1 6.9-1.6 3 0 6 0 9-.1l15.1 5.9 7.2-11.6L83-17l8.8-2.5v.1L83-16.9l-18.2-3.6-7.2 11.6-15.2-5.9-8.9.1-6.9 1.5-.9 12.3c-1.2 3.3-2.4 6.7-3.6 10-3.3.7-6.5 1.3-9.8 2C7.6 8.7 3.1 6.4-1.6 3.8l-9.3 2.6z"/><path class="prefix__st328" d="M91.8-17.7l-8.5 2.5-18.1-4L58-7.3l-15.7-6.3-8.2.2L27-12 26.3.7c-1.2 3.3-2.4 7-3.6 10.3l-9.9 2.1C8 10.6 4.1 7.9-.5 5.3L-10.9 8"/><path class="prefix__st328" d="M91.8-16.5l-8.5 2.2-17.8-3.8-7.1 11.9-15.7-6.3-8.2.2-7.1 1.4-.8 12.7c-1.2 3.3-2.4 7-3.6 10.3l-9.9 2.1C8.4 11.7 4.5 9-.1 6.5l-10.7 2.7"/><path class="prefix__st328" d="M91.8-15.5l-8.2 2.2L65.9-17l-7 11.4-15.8-5.7-8.2.2-7.1 1.4L27 2.9c-1.2 3.3-2.4 7-3.6 10.3l-9.9 2.1C8.7 12.9 4.8 10.2.2 7.6l-11.1 2.9"/><path class="prefix__st328" d="M91.8-14.4l-8.2 2.1-17.4-3.5-7 11-15.8-5.4-8.1.2-7.1 1.4L27.4 4c-1.2 3.3-2.4 7-3.6 10.3l-9.9 2.1C9.1 14 5.2 11.3.6 8.7l-11.5 3"/><path class="prefix__st328" d="M91.8-13.4l-8.2 1.9-17.1-3.4-6.8 10.8L43-9l-8.7.4-5.8 1.1-.7 12.6c-1.2 3.3-2.4 7-3.6 10.3l-9.9 2.1C9.5 15.1 5.6 12.4 1 9.8l-11.9 3.1"/><path class="prefix__st328" d="M9.3 15.7c-2.5-1.5-5.2-3.2-8-4.7l-12.2 3.2M91.8-12.7l-8.1 2L67-13.6 60-3.4 43.1-7.5h-8.2l-6 1.1-.7 12.7c-1.2 3.3-2.4 7-3.6 10.3-3.1.6-6.4 1.3-9.5 2"/><path class="prefix__st328" d="M10.1 17.1c-2.7-1.6-5.5-3.3-8.4-4.9l-12.6 3.3M91.8-11.7l-8.1 1.9-16.5-2.9-6.5 10.1L43.5-6l-9 .1-5.2.7-.8 12.6c-1.2 3.3-2.4 7-3.6 10.3-3 .6-6.2 1.3-9.2 1.9"/><path class="prefix__st328" d="M10.9 18.4c-2.8-1.6-5.8-3.5-8.8-5.2l-13 3.4M91.8-10.9L83.7-9l-16.1-3L61-1.5 43.6-4.6l-9.2-.1-4.7.6-.8 12.6c-1.2 3.3-2.4 7-3.6 10.3-2.9.6-6 1.3-8.9 1.8"/><path class="prefix__st328" d="M11.2 19.5c-2.8-1.6-5.7-3.4-8.7-5.1l-13.4 3.5m37.1 1c-.1.4-.3.8-.4 1.1-2.8.6-5.9 1.2-8.6 1.8m74.6-32l-8.2 1.9-15.7-3.1L61.5-.6 43.1-3.5l-8.7-.3-4.3.8-.8 12.7"/><path class="prefix__st328" d="M9.3 19.3c-2.1-1.3-4.1-2.5-6.4-3.8l-13.8 3.6m37.5.6c-.1.3-.4 1-.5 1.4-2.7.5-5.6 1.3-8.3 1.8m74-32.3l-8.2 1.8-15.5-2.9-6 10.7-19-2.4-8.5-.4-4.5.8"/><path class="prefix__st328" d="M8.1 19.1l-4.8-2.5-14.2 3.7m102.7-29L83.6-7 68.3-9.9 62.5.8l-19.1-2-8.8-.7-3.8 1.2-.1 1.1"/><path class="prefix__st328" d="M6.6 18.9c-1.1-.6-1.8-1.1-2.9-1.7L-10.8 21M91.8-8l-8.2 1.7-15-3.1-5.7 10.5L43.3-.3l-8.5-.5-3.6.7-.1 1.4"/><path class="prefix__st328" d="M5.6 18.8L4 17.9l-14.9 3.9M91.8-7.4l-8.2 1.8-14.8-3.2-5.5 10.6-20.9-1-7.6-.8-3.2.6-.1 2"/><path class="prefix__st328" d="M4.6 18.7l-15.4 3.8M91.8-6.7l-8.2 1.8L69-8.2 63.6 2.5 43 1.7l-8.2-1-2.8.5-.1 2.2"/><path class="prefix__st328" d="M68.3-5.3L63.9 3l-21.1-.3-8.2-.9-2.7.7"/><path class="prefix__st328" d="M64 3.3l-21.2.2-8.2-1-2.7.7"/><path class="prefix__st328" d="M64 3.6l-21.2.6-8.2-.9-2.7.7"/><path class="prefix__st328" d="M63.8 4l-21 1-8.2-.9-2.7.7"/><path class="prefix__st328" d="M68.3-2.2l-3.4 6.5-22.1 1.5-8.2-1-2.7.8"/><path class="prefix__st328" d="M63.5 4.7L42.8 6.6l-8.2-1-2 .5"/><path class="prefix__st328" d="M63.8 5l-21 2.4-8.2-1-1.8.5"/><path class="prefix__st328" d="M62.5 5.5L42.8 8.1l-8.2-.9-1.4.3"/><path class="prefix__st328" d="M60.6 6.1L42.8 8.9l-8.2-1-1.3.4"/><path class="prefix__st328" d="M59.5 6.7l-16.7 3-8.2-1-1 .3"/><path class="prefix__st328" d="M57.5 7.5l-14.7 2.9-8.2-.9-.7.2"/><path class="prefix__st328" d="M66.2 6.2l-23.4 5-5.4-.6M66 6.2l-23.2 5.6M91.8-1.9L83.9-.2 67.9-6"/><defs><path id="prefix__SVGID_1737_" d="M54-9.3h37.9V9.8H54z"/></defs><clipPath id="prefix__SVGID_12_"><use xlink:href="#prefix__SVGID_1737_" overflow="visible"/></clipPath><path clip-path="url(#prefix__SVGID_12_)" fill-rule="evenodd" clip-rule="evenodd" fill="none" d="M91.9 5.4v-7L83.7.1l-8.2-4.5L69-7.6l-.4-1.5L64.1 3l.6 1.2-10.5 4.6 12.9-.7 1.3 1.7 1.8-5.6-.3-8.3 5 2.5 8.9 7.5z"/><defs><path id="prefix__SVGID_1739_" d="M54-9.3h37.9V9.8H54z"/></defs><clipPath id="prefix__SVGID_14_"><use xlink:href="#prefix__SVGID_1739_" overflow="visible"/></clipPath><path clip-path="url(#prefix__SVGID_14_)" fill="none" d="M91.9 5.4v-7L83.7.1l-8.2-4.5L69-7.6l-.4-1.5L64.1 3l.6 1.2-10.5 4.6 12.9-.7 1.3 1.7 1.8-5.6-.3-8.3 5 2.5 8.9 7.5z"/><defs><path id="prefix__SVGID_1741_" d="M-10.9-4.6h78.7v33.2h-78.7z"/></defs><clipPath id="prefix__SVGID_16_"><use xlink:href="#prefix__SVGID_1741_" overflow="visible"/></clipPath><path clip-path="url(#prefix__SVGID_16_)" fill-rule="evenodd" clip-rule="evenodd" fill="none" d="M63.5 4.7l.7-2 3.6 6.2-14 .6-10 3.4.5 2.1-9.6-2.2.6 2.3-5.4 12.4-.9-1.8-9.5 2.8-5.8-3.8-1.6.7-8.6-1-.5 1.8h-4.5l-4.8 1.2-.5-1.7-4 1.4v-2.3l15.6-4-.2-2.1 7 .8-2.4-4 5.6 2.5 3.6 5.8 8.6-3.1-1.5-3.4 4.1-8.8L27 1.8l2.4-6.3 4.5 14.4 9.4 1.9 10.9-3z"/><defs><path id="prefix__SVGID_1743_" d="M-10.9-4.6h78.7v33.2h-78.7z"/></defs><clipPath id="prefix__SVGID_18_"><use xlink:href="#prefix__SVGID_1743_" overflow="visible"/></clipPath><path clip-path="url(#prefix__SVGID_18_)" fill="none" d="M63.5 4.7l.7-2 3.6 6.2-14 .6-10 3.4.5 2.1-9.6-2.2.6 2.3-5.4 12.4-.9-1.8-9.5 2.8-5.8-3.8-1.6.7-8.6-1-.5 1.8h-4.5l-4.8 1.2-.5-1.7-4 1.4v-2.3l15.6-4-.2-2.1 7 .8-2.4-4 5.6 2.5 3.6 5.8 8.6-3.1-1.5-3.4 4.1-8.8L27 1.8l2.4-6.3 4.5 14.4 9.4 1.9 10.9-3z"/><path class="prefix__st328" d="M-10.9 23.2l15.5-4M-10.9 23.8l15.6-4.1M-10.9 24.3l15.7-4"/><path class="prefix__st499" d="M70-2.4V-3l21.9 6.5V4L70-2.4zM70-1v-.6L91.8 5v.5L70-1zm.1 1.3v-.6l21.8 6.7v.5L70.1.3zm0 1.9v-.6l21.7 6.2v.5L70.1 2.2zM27.6 26.1l-1.2 10-4.6 18.2-11.6 3.8-10.4-5.7-6.6-5.4-4.1 1.8v-.5l4.1-1.8 6.6 5.6L10 57.7 21.3 54 26 36l1.2-9.8.4-.1zm19-14.2L63 20.6l8.3-18.1.4.1-8.5 18.6-17.2-9 .6-.3zM28 26l-1.4 11.7L21.9 56l-11.6 3.8L0 54.1l-6.6-5.5-4.3 1.9v-.6l4.3-1.9L0 53.6l10.2 5.6 11.3-3.7L26 37.6l1.4-11.5.6-.1zm16-12.2l-.1-.5 2.5-.1 16.8 9 8.9-19.4.4.1-9.1 19.9-17-9.1-2.4.1zm-9 .1l.9-.5h1.2l1.7.4-2.8.1-.8.5-.2-.5zm-6.6 12L26.8 39l-4.6 18.2L10.6 61 .3 55.4l-6.6-5.5-4.5 2v-.6l4.6-2L.4 55l10.2 5.6 11.3-3.7L26.4 39 28 26l.4-.1zm6.9-10.8l.8-.4 10.5-.1 16.8 9 9.1-19.9 19.2 5.5v.5l-19-5.5-9.2 19.9-17-9-10.4.1-1.1.7.3-.6v-.2zm-6.4 10.6l-1.8 14.4-4.6 18.2-11.6 3.8L.6 56.6-6 51l-4.9 2.1v-.6l4.9-2.2 6.6 5.6 10.2 5.6 11.3-3.7L26.8 40l1.7-14.2.4-.1zm5.3-8.1l.3-.7 1.9-1.1 10.5-.1 16.8 9 9.1-19.9 18.9 5.4v.5L73 5.3l-9.2 19.9-17-9-10.4.1-2.2 1.3zm-.8 1.8l3.3-1.9 10.5-.1 16.8 9 9.1-19.9 18.6 5.3v.4L73.4 6.9l-9.2 19.9-17-9-10.4.1-3.5 2.1.1-.6zm-4.2 6.8l-1.6 17.2-4.5 19.3-11.5 3.8L.9 59-5 54l-5.8 2.5v-.4l5.8-2.5 5.8 5.1 10.8 7.4 11.3-3.7 4.5-19 2.1-16.6-.1-.4L27.3 42l-4.4 18-11.5 3.8L1 58.1l-6.6-5.6-5.2 2.3v-.4l5.3-2.3 6.6 5.6 10.3 5.6 11.3-3.7L27 41.9l2-16 .2.3zm3-3.9l.4-.9 4.5-2.6 10.5-.1 16.8 9.7 9.1-20.3 18.3 5.1v.4l-18.2-5-9.1 20.3-17-9.8-10.4.1-4.9 3.1zm-2.6 4.5l.2.4-2 18.8-4.2 19L12 68.9l-9.9-6.8-6.6-5.7-6.3 2.7v-.3l6.3-2.7 6.6 5.6 10 6.9 11.3-3.8L27.6 46l2-19.2zm1.7-2.5l6.3-3 10.5-.1 16.8 9.7 8.7-21.4 18.2 5.9v.3L73.7 9.9 65 31.3l-17-9.8-10.5.1-6.5 3.2.3-.5zm-42.1 37.5v-.3l7.1-3.1 6 5.4 10.3 7.9 11.3-3.8 4.2-18.8 1.8-22 7.8-3.8 10.5-.3 17.4 10.4L74 11.9l17.8 5.8v.3l-17.7-5.7-8.4 21.5-17.5-10.4-10.5.1-7.6 3.8L28.3 49l-4.2 19-11.5 3.8-10.3-7.6-6-5.5-7.1 3.1zM54.3 9.5h.9l6.7 3.9 1.9-4.2h.4L62 14.1l-7.7-4.6zm-1.8.4l.5-.2 9.1 5.1L64.8 9h.4l-2.9 6.4-9.8-5.5zm-1.8.6l.6-.2 11 5.9L65.7 9h.4l-3.6 7.9-11.8-6.4zm-1.6.6l.7-.2 7.4 4 5.4 2.9 4-8.8h.4l-4.3 9.4-13.6-7.3zm-1.5.5l.6-.2 14.6 7.8 4.7-10.3.3.1-4.9 10.8-15.3-8.2zM27.2 26.3l-1 8.4-4.6 18.2-11.7 3.9-10.4-5.7-6.5-5.6-3.9 1.7v-.6l3.9-1.7 6.6 5.6L10 56.2l11.3-3.7 4.5-17.9 1-8.2.4-.1zm-12.5 7.3l.5-.5 3.6-.4.7-3.3.3-1 .3-.1-1.1 4.9-4.3.4zm-3.1 2.7l1.2-.9 6.2-1.1 1.3-6 .4-.1-1.5 6.6-7.6 1.5zm-4.1 2.2l1.5-.4 10.2-2.4 1.7-7.6.4-.1-1.8 8.2-11 2.6-1-.3zm-1.9.9l.6-.2 1.5.9 11.7-2.9 2.1-9.3.4-.1-2.2 9.8-11.9 3-2.2-1.2zM4 40l.6-.2 3.3 1.7 11.7-2.9L22 27.7l.4-.1-2.5 11.5-11.9 3L4 40zm22.8-13.6l-.8 6.8-4.6 18.3-11.7 3.8-10.4-5.7L-7 44l.3-.2 6.2 5.3 10.2 5.6L21 51l4.5-17.9.8-6.6.5-.1zm-.7.2l-.6 5L21 49.5 9.6 53.3-.6 47.7l-5-4.2-.5.2 5.3 4.5 10.4 5.7L21.1 50l4.6-18.2.7-5.2h-.3zm-1.9.5L20 43.7 8.8 47.4l-10.4-5.7-.7.3 11 6 11.6-3.8L24.6 27l-.4.1zm-1.3.4l-3.2 13.3-11.6 2.7-5.4-3 .6-.2L8.1 43l11.7-2.9 2.8-12.5.3-.1zm.8-.3l-4 15.6-11.2 3.1-8-4.4-.5.3 8.5 4.7 11.4-3.4 3.6-15.8-.2.1-3.8 14.5-11.2 2.6L2.1 41l-.6.2L8.3 45l11.3-3L24 27.2h-.3zm1.5-.3l-.1.5-4.6 18.2-11.6 3.8-10.4-5.7-1.7-1.4.7-.3 1 1.2 10.3 5.6 11.3-3.6 4.5-17.9.1-.3.5-.1zm.8-.3l-.5 3.6-4.6 18.2-11.6 3.9L-1 46.7l-4.1-3.5.5-.2 3.8 3.2 10.2 5.6 11.3-3.7 4.6-19.2.2-2.1-.2.1-.3 1.8-4.5 17.9-11.4 3.7-10.2-5.6-2.6-2.2-.5.2 2.9 2.5 10.4 5.7L20.7 47l4.7-18.3.3-2.1h.3zM-1.8 41.2l.3.4-9.3 4.1v-.6l9-3.9zm-2.4-.6l.3.4-6.9 3.1v-.6l6.6-2.9zm-2-.6l.3.4-4.9 2.2V42l4.6-2zm-2.1-.7l.3.4-2.8 1.3v-.6l2.5-1.1zm-2.5.2v-.6l.2-.1.8.2-1 .5zm22.5 34.6l-9.4-8-5.5-5-7.6 3.3v-.2l7.6-3.3 5.5 5 9.5 7.8-.1.4zm10.5-2.4l2.2-.7 4.2-18.9L30 29.4l7.8-3.8 10.5-.1 17.8 11.1 8.4-22 17.3 5.6v.2l-17.2-5.6-8.4 22-17.9-11.1-10.5.1-7.7 3.8-1.4 22.6-4.2 19-1.5.5h-.8zM-10.8 26.5V26l6.7 1.9 3.9-1.7h1c-3.9 1.7-1 .4-4.8 2.2l-6.8-1.9z"/><path class="prefix__st499" d="M-10.8 28.1v-.4l7.1 2L7 24.8l.7.1C3.8 26.6.1 28.3-3.8 30.1l-7-2z"/><path class="prefix__st499" d="M-10.8 29.7v-.4l7.4 2.1 11.5-5.2 1.2-1.1.5.1-1.5 1.4C4.3 28.3.5 30-3.4 31.8l-7.4-2.1z"/><path class="prefix__st499" d="M-10.8 31.4v-.5l7.8 2.2 11.5-5.2 2.6-2.5.6.1c-2.8 2.7-.3.3-3.1 3C4.7 30.2.9 32-3 33.7l-7.8-2.3z"/><path class="prefix__st499" d="M-10.8 33v-.5l8.1 2.3 11.5-5.2 5-4.8.4.3c-2.8 2.7-2.4 2.3-5.2 5-3.9 1.7-7.7 3.5-11.6 5.2l-8.2-2.3z"/><path class="prefix__st499" d="M-10.8 34.8V34l8.5 2.4 11.4-5.2 5.9-5.6.6.4-6.2 6c-3.9 1.7-7.8 3.5-11.6 5.2l-8.6-2.4z"/><path class="prefix__st499" d="M-10.8 36.3v-.8l9.1 2.7 11.5-4.9 7.1-6.6.6.4-7.5 7C6 35.7 2.1 37.4-1.8 39l-9-2.7z"/><path class="prefix__st499" d="M-10.8 37.8V37l9.6 2.8L10.2 35l7.9-7.4.4-.3.3.7-8.3 7.7c-4 1.7-7.8 3.3-11.7 4.9l-9.6-2.8z"/><path class="prefix__st499" d="M-10.8 39v-.8l10.2 3.2 11.4-4.8 8.3-7.7.2-.5.5.1-.3 1c-2.8 2.6-5.6 5.2-8.5 7.9C7.1 39 3.2 40.6-.6 42.3L-10.8 39z"/><path class="prefix__st328" d="M11 76.3C5.4 71.7 3.4 68.9-2 64l-8.8 3.7M91.9 23.5l-16.9-6-8.3 22.6-18.4-11.9-9.6.4-8.4 2.6-.9 24c-1.2 5.4-2.3 11-3.5 16.4"/><path class="prefix__st328" d="M10.9 77.9L-1.6 66.2l-9.3 3.7M91.9 25.2l-16.4-5.6-8.3 22.6-18.5-11.9-9.6.4-8.4 2.6-.9 24c-1 4.5-2.1 9.6-3.1 14.2"/><path class="prefix__st328" d="M10.9 79.7l-12-11.4-9.7 4.2M91.9 26.9l-16-5.2-8.2 21.6-18.5-10.8-9.6.4-8.4 2.6-.9 24c-.8 3.8-1.6 8-2.5 11.9"/><path class="prefix__st328" d="M11 81.5L-.7 70.4l-10.2 4.4m102.8-46l-15.5-4.9-8.2 20.9-18.6-10.2-9.6.4-8.4 2.6-.9 24c-.7 2.9-1.4 6.4-2 9.4"/><path class="prefix__st328" d="M11 83.3c-3.9-3.5-7.2-7-11.2-10.7l-10.6 4.6M91.9 30.3l-15.1-4.8-8.1 20.7-19.6-9.4-10.2.8-6.8 2.1-.9 24c-.5 2.1-1.1 4.8-1.5 7"/><path class="prefix__st328" d="M11.1 85.1c-3-2.8-7.6-7.5-10.8-10.4l-11.1 4.8M91.9 31.9l-14.6-3.7-8.2 19.3-19.8-7.7-9.7-.1-7 2.2-.9 22.8-.5 5.5"/><path class="prefix__st328" d="M7.5 83.3L.7 76.8l-11.5 5M91.9 33.5l-14.3-3.8L69.8 49l-20.2-6.6-10.6.2-6 1.4-1 25.9"/><path class="prefix__st328" d="M91.9 35.1l-14-4L70.2 51l-20.4-5.9L39 45l-5.6 1.1-.8 23.6"/><path class="prefix__st328" d="M91.9 36.6l-13.7-4.2-7.4 20.3-21.6-5.4-10.2-.6-5.1 1.6-.8 21.2"/><path class="prefix__st328" d="M91.9 37.7l-13.4-3.9-6.9 20.3-22.4-4.4-10-.8-5.3 1.5"/><path class="prefix__st328" d="M59.2 53.2l-9.6-1.6-10.3-1.3-5.6 2.5M91.9 39l-13.1-3.8L72 55.3 63.8 54"/><path class="prefix__st328" d="M56 54.1l-6.8-.8-9.8-.9-5.8 1.8m35.1 1.4l-2.9-.4m26.1-14.9L79 36l-6.7 20"/><path class="prefix__st328" d="M50.2 55.5l-10.8-1.7-5.8 2m58.3-14.2l-12.5-4.5-6.1 19"/><path class="prefix__st328" d="M49.5 57.1l-10-2-5.9 2.1m58.3-14.4l-12.3-4.4L74 56.2M48.7 59l-9.5-1.8-5.7 2M79.2 43l-4.5 13.3"/><path class="prefix__st328" d="M48.1 60.3l-8.9-1.6-5.8 2.2"/><path class="prefix__st328" d="M47.5 61.7l-8.3-1.6-5.9 2.5"/><path class="prefix__st328" d="M46.9 63.1l-8-1.5-5.6 2.4M45.8 65.5l-7.6-1.2-5 1.9M46 67.3L39.2 66l-6 1.5M91.9 43.7l-12.4-5M91.9 44.7l-12.6-5.4M91.9 45.6l-12.7-5.9M91.9 46.6L79 40.2M91.9 47.5l-13-6.9M91.9 48.5l-13.2-7.4M91.9 49.5l-13.4-7.9M91.9 50.4l-13.5-8.3M91.9 51.3l-13.6-8.9"/><path class="prefix__st499" d="M61.6 11.9l1.3-2.8h-.6l-.9 2-3.3-1.8-1.2.1z"/><path class="prefix__st328" d="M61.6 11.9l1.3-2.8h-.6l-.9 2-3.3-1.8-1.2.1zM91.9 52.5L78.8 44M91.9 53.4l-13.5-8.1-.4 1.3 13 7.6-1.2.4-12.2-7-.4 1.1L88.5 55l-.7.3-10.9-5.7-.4 1.3 7.3 3.6-1.3.3-6.3-2.9-.4 1.1 4 1.8H78l-.1.6-2.6-.9-.4 1.1 2.5 1"/><g><defs><path id="prefix__SVGID_1745_" d="M-10.9 14.6H91.9v33.8H-10.9z"/></defs><clipPath id="prefix__SVGID_20_"><use xlink:href="#prefix__SVGID_1745_" overflow="visible"/></clipPath><path clip-path="url(#prefix__SVGID_20_)" fill-rule="evenodd" clip-rule="evenodd" fill="none" d="M-10.8 37.8v5.3l3.8.9 5.8-1.4 9.6-3.9 11.1 3.2 8.7 6.5 4.3-6.6 7.1-2.1h9.6l16.9-3.1 9.8-14.9 16 7.1v-8.3l-17.3-5.8L65 31.3 48.1 21.2l13.5 11.5-5.2 2.2-6.8-.3-10 .5-8 2.5-3.5 5.7-8.3-4.2-8.8-1.8-12.8.9-9-4.3z"/><g><defs><path id="prefix__SVGID_1747_" d="M-10.9 14.6H91.9v33.8H-10.9z"/></defs><clipPath id="prefix__SVGID_22_"><use xlink:href="#prefix__SVGID_1747_" overflow="visible"/></clipPath><path clip-path="url(#prefix__SVGID_22_)" fill="none" d="M-10.8 37.8v5.3l3.8.9 5.8-1.4 9.6-3.9 11.1 3.2 8.7 6.5 4.3-6.6 7.1-2.1h9.6l16.9-3.1 9.8-14.9 16 7.1v-8.3l-17.3-5.8L65 31.3 48.1 21.2l13.5 11.5-5.2 2.2-6.8-.3-10 .5-8 2.5-3.5 5.7-8.3-4.2-8.8-1.8-12.8.9-9-4.3z"/></g></g></g></g></svg>