<?xml version="1.0" encoding="utf-8"?>
<!-- Generator: Adobe Illustrator 17.0.0, SVG Export Plug-In . SVG Version: 6.00 Build 0)  -->
<!DOCTYPE svg PUBLIC "-//W3C//DTD SVG 1.1//EN" "http://www.w3.org/Graphics/SVG/1.1/DTD/svg11.dtd">
<svg version="1.1" id="Capa_1" xmlns="http://www.w3.org/2000/svg" xmlns:xlink="http://www.w3.org/1999/xlink" x="0px" y="0px"
	 width="595.28px" height="841.89px" viewBox="0 0 595.28 841.89" enable-background="new 0 0 595.28 841.89" xml:space="preserve">
<g id="dorso">
	<g>
		<g>
			<defs>
				<path id="SVGID_1_" d="M351.091,447.247c2.821,7.592,3.376,26.587,3.376,26.587c2.251,27.007,5.491,64.712,5.491,64.712
					c3.376,50.638-7.322,105.222-7.322,105.222c-0.675,4.276-1.545,7.877-1.545,7.877c1.32,12.753,27.007,14.164,27.007,14.164
					c49.228,4.126,99.776,0.57,99.776,0.57c24.006-0.465,31.223-5.341,31.223-5.341c6.947-3.001,8.072-8.342,8.072-8.342
					c0.57-1.5-0.84-5.071-0.84-5.071c-5.371-31.253-7.697-55.049-7.697-55.049c-2.341-25.507-0.465-54.584-0.465-54.584
					c2.251-17.164,4.411-50.263,4.411-50.263c1.41-13.128,2.251-28.793,2.251-28.793c0.84-7.697,2.911-11.673,2.911-11.673
					c5.911-9.047,12.753-34.464,12.753-34.464c3.661-16.414,2.341-42.206,2.341-42.206c-10.218-5.912-24.366-9.873-24.366-9.873
					c-14.344-2.911-31.433-12.813-31.433-12.813c-1.41-1.125-7.217-2.161-7.217-2.161h-64.517h-5.912
					c-3.376,0.195-6.842,1.035-6.842,1.035c-16.324,10.323-43.331,17.45-43.331,17.45c-6.197,2.071-13.128,5.446-13.128,5.446
					c-6.377,11.448,4.411,54.014,4.411,54.014C344.625,436.414,351.091,447.247,351.091,447.247z"/>
			</defs>
			<clipPath id="SVGID_2_">
				<use xlink:href="#SVGID_1_"  overflow="visible"/>
			</clipPath>
			<g clip-path="url(#SVGID_2_)">
				<rect x="322.64" y="357.445" width="26.41" height="85"/>
				<rect x="382.75" y="300.945" width="34.39" height="85"/>
				<rect x="451.445" y="300.945" width="34.39" height="85"/>
				<rect x="382.75" y="608.445" width="34.39" height="85"/>
				<rect x="451.445" y="608.445" width="34.39" height="85"/>
				<rect x="520.445" y="300.945" width="34.39" height="156.722"/>
			</g>
		</g>
	</g>
	<g id="Capa_2">
	</g>
	<g id="Capa_3">
	</g>
</g>
<g id="frente">
	<g id="Capa_2_copia">
		<g>
			<g>
				<defs>
					<path id="SVGID_3_" d="M247.7,368.191c-10.833-6.332-16.594-6.887-27.577-9.708c-10.983-2.821-25.882-11.673-25.882-11.673
						c4.081,20.96-28.267,25.462-28.267,25.462c-22.791,3.091-35.724-2.251-35.724-2.251c-22.506-8.867-18.575-23.211-18.575-23.211
						c-11.538,8.162-39.955,16.174-39.955,16.174c-11.253,3.241-13.504,5.491-13.504,5.491c2.161,7.457,5.161,16.264,5.161,16.264
						c3.946,12.948,4.321,27.757,4.321,27.757c0.75,9.572,4.456,29.258,4.456,29.258l0.42,1.26
						c2.536,9.287,2.116,26.302,2.116,26.302c0.57,31.928,1.545,44.592,1.545,44.592c0.135,9.573,1.695,17.164,1.695,17.164
						c2.251,33.204,0.285,60.211,0.285,60.211c-3.241,34.179-9.197,62.401-9.572,63.437s-0.375,1.035-0.375,1.035
						c9.002,7.502,66.767,10.503,66.767,10.503c40.33,3.376,96.97-6.752,96.97-6.752c4.321-1.32,5.446-3.751,5.446-3.751
						c-15.379-84.397-9.197-124.727-9.197-124.727c1.695-10.503,3.001-48.763,3.001-48.763c0.375-4.696,0.195-9.948,0.195-9.948
						c-1.125-19.13,2.446-30.383,2.446-30.383s1.5-14.074,6.182-37.945C240.063,404.006,243.904,381.41,247.7,368.191z"/>
				</defs>
				<clipPath id="SVGID_4_">
					<use xlink:href="#SVGID_3_"  overflow="visible"/>
				</clipPath>
				<rect x="99.431" y="334.445" clip-path="url(#SVGID_4_)" width="34.709" height="340"/>
				<rect x="169.14" y="336.445" clip-path="url(#SVGID_4_)" width="34.709" height="342"/>
				<rect x="321.135" y="357.445" clip-path="url(#SVGID_4_)" width="27.122" height="84.602"/>
				<rect x="382.14" y="340.445" clip-path="url(#SVGID_4_)" width="34.799" height="46.226"/>
				<rect x="382.14" y="607.445" clip-path="url(#SVGID_4_)" width="34.799" height="72.226"/>
				<rect x="452.75" y="607.445" clip-path="url(#SVGID_4_)" width="34.799" height="72.226"/>
				<rect x="451.41" y="340.445" clip-path="url(#SVGID_4_)" width="34.799" height="46.226"/>
				<rect x="520.68" y="340.445" clip-path="url(#SVGID_4_)" width="34.799" height="117.222"/>
			</g>
		</g>
	</g>
	<g id="Capa_3_copia">
	</g>
</g>
<g id="manga_frente">
	<g>
		<path fill="none" d="M71.044,447.262c-0.06-0.765-0.15-1.11-0.285-0.855C70.893,446.377,70.983,446.692,71.044,447.262z"/>
		<path fill="none" d="M70.893,468.072c0.03-9.603,0.435-18.155,0.15-20.81C71.239,450.068,70.923,458.905,70.893,468.072z"/>
		<path fill="none" d="M63.392,384.756c0,0-3.001-8.822-5.161-16.264c-6.497,4.486-12.378,11.253-12.378,11.253
			c-18.71,17.72-19.97,58.935-19.97,58.935c-0.285,16.324-2.251,35.019-2.251,35.019c18.005,9.708,45.012,9.572,45.012,9.572
			c1.26-0.42,1.125-2.956,1.125-2.956c0-7.037,1.125-12.243,1.125-12.243c0.03-9.152,0.345-17.99,0.15-20.81
			c-0.06-0.57-0.15-0.885-0.285-0.855l1.41-4.636c0,0-3.706-19.7-4.456-29.258C67.713,412.513,67.338,397.689,63.392,384.756z"/>
		<path fill="none" d="M282.314,473.969c-0.84-13.504-2.821-43.601-2.821-43.601c-0.6-17.089-5.852-31.118-12.378-41.351
			c-8.792-13.774-19.415-20.825-19.415-20.825c-3.811,13.218-7.637,35.814-7.637,35.814c-4.696,23.871-6.182,37.945-6.182,37.945
			c2.011,3.886,1.59,25.132,1.59,25.132c-0.135,1.83,0.285,4.501,0.285,4.501c0.84,6.197,0.57,10.698,0.57,10.698
			C246.304,487.052,282.314,473.969,282.314,473.969z"/>
	</g>
</g>
<g id="manga_dorso">
	<path fill="none" d="M336.088,369.647c-6.377,11.448,4.411,54.014,4.411,54.014c4.126,12.753,10.593,23.586,10.593,23.586
		c-1.5-0.24-1.215,1.17-1.215,1.17c-1.5,9.948-0.66,23.256-0.66,23.256c-0.375,3.841-0.765,8.537-0.765,8.537
		c-0.285,4.966-0.075,6.842-0.075,6.842c-3.091,2.536-9.663,2.341-9.663,2.341c-26.452-1.035-37.33-11.253-37.33-11.253
		c0.66-0.945,0.945-14.629,0.945-14.629c0.66-6.842,0.84-14.539,0.84-14.539l0.57-6.197l0.285-7.592
		c2.161-41.636,23.256-57.39,23.256-57.39C331.676,374.433,336.088,369.647,336.088,369.647z"/>
	<path fill="none" d="M517.845,447.772c1.575-5.176,3.961-8.492,6.152-14.434c2.971-8.042,4.486-15.259,6.482-20.555
		c3.661-16.414,2.341-42.206,2.341-42.206c10.833,9.708,16.174,16.174,16.174,16.174c16.879,25.747,15.199,54.584,15.199,54.584
		c0.99,15.754,2.386,34.329,2.386,34.329c0.42,3.031-2.536,4.996-2.536,4.996c-21.095,10.263-37.48,8.657-37.48,8.657
		c-5.911,0.075-6.827-2.671-6.827-2.671c-0.21-7.667-0.78-14.704-0.78-14.704c-0.135-13.218-0.495-20.675-0.495-20.675
		C518.1,448.552,517.845,447.772,517.845,447.772z"/>
</g>
<rect x="210.813" y="78.59" fill-rule="evenodd" clip-rule="evenodd" fill="#FFFFFF" width="93.525" height="122.211"/>
<rect x="321.135" y="80.58" fill="#E2000F" width="18.705" height="121.102"/>
<rect x="358.545" y="80.58" fill="#E2000F" width="18.705" height="121.102"/>
<rect x="395.955" y="80.58" fill="#E2000F" width="18.705" height="121.102"/>
<rect x="321.135" y="96.541" fill-rule="evenodd" clip-rule="evenodd" fill="#E2000F" width="93.525" height="82.363"/>
<rect x="210.813" y="78.59" fill-rule="evenodd" clip-rule="evenodd" fill="#E2000F" width="18.705" height="122.211"/>
<rect x="248.223" y="78.59" fill-rule="evenodd" clip-rule="evenodd" fill="#E2000F" width="18.705" height="122.211"/>
<rect x="285.633" y="78.59" fill-rule="evenodd" clip-rule="evenodd" fill="#E2000F" width="18.705" height="122.211"/>
<rect x="432.637" y="71.726" fill="#E32211" width="40.228" height="75.525"/>
<rect x="159.119" y="71.726" fill="#E32211" width="40.228" height="75.525"/>
</svg>
