<?xml version="1.0" encoding="utf-8"?>
<!-- Generator: Adobe Illustrator 24.1.3, SVG Export Plug-In . SVG Version: 6.00 Build 0)  -->
<svg version="1.1" xmlns="http://www.w3.org/2000/svg" xmlns:xlink="http://www.w3.org/1999/xlink" x="0px" y="0px"
	 viewBox="0 0 396.75 360" style="enable-background:new 0 0 396.75 360;" xml:space="preserve">
<style type="text/css">
	.st0{opacity:0.5;clip-path:url(#SVGID_2_);fill-rule:evenodd;clip-rule:evenodd;fill:#1D1D1B;}
	.st1{opacity:0.25;clip-path:url(#SVGID_2_);fill-rule:evenodd;clip-rule:evenodd;fill:#1D1D1B;}
	.st2{opacity:0.2;clip-path:url(#SVGID_2_);fill-rule:evenodd;clip-rule:evenodd;fill:#1D1D1B;}
	.st3{clip-path:url(#SVGID_2_);fill-rule:evenodd;clip-rule:evenodd;fill:#1D1D1B;}
	.st4{clip-path:url(#SVGID_2_);fill:none;stroke:#1D1D1B;stroke-width:0.1588;stroke-miterlimit:22.9256;}
	.st5{clip-path:url(#SVGID_2_);}
	.st6{opacity:0.5;clip-path:url(#SVGID_4_);fill-rule:evenodd;clip-rule:evenodd;fill:#1D1D1B;}
	.st7{opacity:0.25;clip-path:url(#SVGID_4_);fill-rule:evenodd;clip-rule:evenodd;fill:#1D1D1B;}
	.st8{opacity:0.2;clip-path:url(#SVGID_4_);fill-rule:evenodd;clip-rule:evenodd;fill:#1D1D1B;}
	.st9{clip-path:url(#SVGID_4_);fill-rule:evenodd;clip-rule:evenodd;fill:#1D1D1B;}
	.st10{clip-path:url(#SVGID_4_);fill:none;stroke:#1D1D1B;stroke-width:0.1514;stroke-miterlimit:22.9256;}
	.st11{clip-path:url(#SVGID_4_);}
	.st12{opacity:0.5;clip-path:url(#SVGID_6_);fill-rule:evenodd;clip-rule:evenodd;fill:#1D1D1B;}
	.st13{opacity:0.25;clip-path:url(#SVGID_6_);fill-rule:evenodd;clip-rule:evenodd;fill:#1D1D1B;}
	.st14{opacity:0.2;clip-path:url(#SVGID_6_);fill-rule:evenodd;clip-rule:evenodd;fill:#1D1D1B;}
	.st15{clip-path:url(#SVGID_6_);fill-rule:evenodd;clip-rule:evenodd;fill:#1D1D1B;}
	.st16{clip-path:url(#SVGID_6_);fill:none;stroke:#1D1D1B;stroke-width:0.1168;stroke-miterlimit:22.9256;}
	.st17{clip-path:url(#SVGID_6_);}
	.st18{clip-path:url(#SVGID_8_);fill-rule:evenodd;clip-rule:evenodd;fill:#F5EA14;}
	.st19{clip-path:url(#SVGID_8_);fill:none;stroke:#000000;stroke-width:0.7211;stroke-miterlimit:22.9256;}
	.st20{clip-path:url(#SVGID_8_);fill-rule:evenodd;clip-rule:evenodd;}
	.st21{clip-path:url(#SVGID_8_);fill:none;stroke:#000000;stroke-width:0.5669;stroke-miterlimit:22.9256;}
	.st22{opacity:0.5;clip-path:url(#SVGID_8_);fill-rule:evenodd;clip-rule:evenodd;fill:#1D1D1B;}
	.st23{opacity:0.25;clip-path:url(#SVGID_8_);fill-rule:evenodd;clip-rule:evenodd;fill:#1D1D1B;}
	.st24{opacity:0.2;clip-path:url(#SVGID_8_);fill-rule:evenodd;clip-rule:evenodd;fill:#1D1D1B;}
	.st25{clip-path:url(#SVGID_8_);fill-rule:evenodd;clip-rule:evenodd;fill:#1D1D1B;}
	.st26{clip-path:url(#SVGID_8_);fill:none;stroke:#1D1D1B;stroke-width:0.0981;stroke-miterlimit:22.9256;}
	.st27{clip-path:url(#SVGID_8_);}
	.st28{clip-path:url(#SVGID_10_);fill-rule:evenodd;clip-rule:evenodd;}
	.st29{filter:url(#Adobe_OpacityMaskFilter);}
	.st30{clip-path:url(#SVGID_10_);fill:url(#SVGID_12_);}
	.st31{clip-path:url(#SVGID_10_);mask:url(#SVGID_11_);fill-rule:evenodd;clip-rule:evenodd;}
	.st32{filter:url(#Adobe_OpacityMaskFilter_1_);}
	.st33{clip-path:url(#SVGID_10_);fill:url(#SVGID_14_);}
	.st34{clip-path:url(#SVGID_10_);mask:url(#SVGID_13_);}
	.st35{clip-path:url(#SVGID_16_);fill-rule:evenodd;clip-rule:evenodd;}
	.st36{clip-path:url(#SVGID_16_);fill:none;stroke:#000000;stroke-width:0.216;stroke-miterlimit:22.9256;}
	.st37{opacity:0.5;clip-path:url(#SVGID_10_);fill-rule:evenodd;clip-rule:evenodd;fill:#1D1D1B;}
	.st38{opacity:0.25;clip-path:url(#SVGID_10_);fill-rule:evenodd;clip-rule:evenodd;fill:#1D1D1B;}
	.st39{opacity:0.2;clip-path:url(#SVGID_10_);fill-rule:evenodd;clip-rule:evenodd;fill:#1D1D1B;}
	.st40{clip-path:url(#SVGID_10_);fill-rule:evenodd;clip-rule:evenodd;fill:#1D1D1B;}
	.st41{clip-path:url(#SVGID_10_);fill:none;stroke:#1D1D1B;stroke-width:0.0933;stroke-miterlimit:22.9256;}
	.st42{clip-path:url(#SVGID_10_);}
	.st43{opacity:0.5;clip-path:url(#SVGID_18_);fill-rule:evenodd;clip-rule:evenodd;fill:#1D1D1B;}
	.st44{opacity:0.25;clip-path:url(#SVGID_18_);fill-rule:evenodd;clip-rule:evenodd;fill:#1D1D1B;}
	.st45{opacity:0.2;clip-path:url(#SVGID_18_);fill-rule:evenodd;clip-rule:evenodd;fill:#1D1D1B;}
	.st46{clip-path:url(#SVGID_18_);fill-rule:evenodd;clip-rule:evenodd;fill:#1D1D1B;}
	.st47{clip-path:url(#SVGID_18_);fill:none;stroke:#1D1D1B;stroke-width:0.0933;stroke-miterlimit:22.9256;}
	.st48{clip-path:url(#SVGID_18_);}
	.st49{opacity:0.5;fill-rule:evenodd;clip-rule:evenodd;fill:#1D1D1B;}
	.st50{opacity:0.25;fill-rule:evenodd;clip-rule:evenodd;fill:#1D1D1B;}
	.st51{opacity:0.2;fill-rule:evenodd;clip-rule:evenodd;fill:#1D1D1B;}
	.st52{fill-rule:evenodd;clip-rule:evenodd;fill:#1D1D1B;}
	.st53{fill:none;stroke:#1D1D1B;stroke-width:0.0567;stroke-miterlimit:22.9256;}
</style>
<g id="dorso">
	<g id="dorso_1_">
		<g>
			<g>
				<defs>
					<path id="SVGID_1_" d="M234,197.53c1.88,5.06,2.25,17.72,2.25,17.72c1.5,18,3.66,43.13,3.66,43.13
						c2.25,33.75-4.88,70.13-4.88,70.13c-0.45,2.85-1.03,5.25-1.03,5.25c0.88,8.5,18,9.44,18,9.44c32.81,2.75,66.5,0.38,66.5,0.38
						c16-0.31,20.81-3.56,20.81-3.56c4.63-2,5.38-5.56,5.38-5.56c0.38-1-0.56-3.38-0.56-3.38c-3.58-20.83-5.13-36.69-5.13-36.69
						c-1.56-17-0.31-36.38-0.31-36.38c1.5-11.44,2.94-33.5,2.94-33.5c0.94-8.75,1.5-19.19,1.5-19.19c0.56-5.13,1.94-7.78,1.94-7.78
						c3.94-6.03,8.5-22.97,8.5-22.97c2.44-10.94,1.56-28.13,1.56-28.13c-6.81-3.94-16.24-6.58-16.24-6.58
						c-9.56-1.94-20.95-8.54-20.95-8.54c-0.94-0.75-4.81-1.44-4.81-1.44h-43h-3.94c-2.25,0.13-4.56,0.69-4.56,0.69
						c-10.88,6.88-28.88,11.63-28.88,11.63c-4.13,1.38-8.75,3.63-8.75,3.63c-4.25,7.63,2.94,36,2.94,36
						C229.69,190.31,234,197.53,234,197.53z"/>
				</defs>
				<clipPath id="SVGID_2_">
					<use xlink:href="#SVGID_1_"  style="overflow:visible;"/>
				</clipPath>
				<polygon class="st0" points="327.99,166.87 313.48,185.92 307.29,207.81 307.48,217.81 311.54,227.62 325.28,204.6 
					340.37,185.73 333.4,178.56 334.95,163.47 				"/>
				<polygon class="st0" points="319.09,152.9 294.13,162.15 273.82,166.87 262.41,180.64 259.51,152.15 282.14,149.51 				"/>
				<polygon class="st0" points="317.93,243.28 288.72,233.47 288.52,221.96 307.48,217.81 311.54,227.62 317.73,224.79 				"/>
				<polygon class="st0" points="298.58,287.62 298,270.07 292.39,270.64 286.98,267.62 255.44,280.45 264.15,286.67 276.92,285.17 
					268.41,302.71 280.98,294.22 285.82,297.05 				"/>
				<polygon class="st0" points="252.35,289.13 255.44,280.45 227.11,287.24 				"/>
				<polygon class="st0" points="348.9,322.64 331.3,317.17 326.08,301.13 339.42,290.19 360.51,305.09 345.61,309.43 				"/>
				<polygon class="st0" points="325.96,343.96 314.18,332.17 329.17,329.06 332.59,317.53 345.36,321.32 338.84,322.26 
					334.01,333.21 330.08,343.96 				"/>
				<polygon class="st1" points="307.29,207.81 294.33,192.72 301.29,188.75 313.48,185.92 262.41,180.64 289.49,210.07 				"/>
				<polygon class="st1" points="268.14,124.75 282.14,149.51 290.07,140.64 295.49,143.09 293,124.75 				"/>
				<polygon class="st1" points="349.26,126.11 344.4,124.75 348.94,124.75 				"/>
				<polygon class="st1" points="221.98,171.96 222.56,187.62 237.65,162.34 233.39,146.49 221.59,160.07 				"/>
				<polygon class="st1" points="259.51,194.41 242.48,195.17 223.91,225.92 239,214.22 255.25,214.22 				"/>
				<polygon class="st1" points="287.17,250.45 288.72,233.47 259.46,229.82 264.73,243.85 281.95,255.54 				"/>
				<polygon class="st1" points="250.03,253.47 250.03,248.75 259.46,229.82 255.25,214.22 226.24,246.3 227.4,271.58 				"/>
				<polygon class="st1" points="260.09,328.94 260.18,319.69 263.09,316.58 267.05,316.3 265.21,309.88 268.41,302.71 
					255.93,306.86 247.32,312.43 244.03,327.99 				"/>
				<polygon class="st1" points="298.49,308.18 289.49,304.13 285.33,307.15 279.36,307.72 278.28,313.53 280.52,319.34 284,322.64 
					281.08,326.49 283.59,338.94 288.34,343.96 310.97,343.96 314.18,332.17 292.9,330.66 292.03,315.66 				"/>
				<polygon class="st1" points="339.42,290.19 319.69,283.21 313.7,292.45 309.25,300.57 306.35,312.83 316.4,322.64 
					322.79,318.87 319.31,315.47 319.89,297.55 326.08,301.13 				"/>
				<polygon class="st1" points="347.16,268.68 347.65,284.34 361.46,291.99 361.46,276.13 361.38,275.38 				"/>
				<polygon class="st2" points="266.08,261.01 250.03,253.47 227.4,271.58 248.29,274.03 255.44,263.85 				"/>
				<polygon class="st2" points="309.25,300.57 302.09,299.43 289.49,304.13 298.49,308.18 292.03,315.66 292.47,323.16 
					301.7,319.06 314.18,332.17 316.4,322.64 306.35,312.83 				"/>
				<polygon class="st2" points="306.35,277.93 298.58,287.62 313.7,292.45 319.69,283.21 				"/>
				<polygon class="st2" points="347.65,284.34 339.42,290.19 360.51,305.09 361.46,300.99 361.46,291.99 				"/>
				<polygon class="st2" points="336.91,256.51 342.71,263.4 348.9,255 340,231.42 334.01,231.79 				"/>
				<path class="st2" d="M351.03,206.23l-5.22,0.94l-12.57,18.68l-15.5-1.06l0.19,18.49l-9.07,16.16l-21.69-8.99l11.22,14.15
					l11.83,5.4l9.48,13.21l1.55-9.72l-3.39-5.19l-8.99-8.87l10.25-0.19l1.93-4.15l7.83-4.15l5.13-19.15c0,0,13.93-9.53,14.02-10.09
					C348.13,221.13,351.03,206.23,351.03,206.23"/>
				<polygon class="st3" points="313.48,185.92 294.13,162.15 273.82,166.87 262.41,180.64 				"/>
				<polygon class="st4" points="313.48,185.92 294.13,162.15 273.82,166.87 262.41,180.64 				"/>
				<polygon class="st3" points="346.56,155.17 334.95,163.47 333.4,178.56 340.37,185.73 347.33,172.34 358.36,174.6 
					358.74,162.53 353.52,164.79 352.17,156.87 				"/>
				<polygon class="st4" points="346.56,155.17 334.95,163.47 333.4,178.56 340.37,185.73 347.33,172.34 358.36,174.6 
					358.74,162.53 353.52,164.79 352.17,156.87 				"/>
				<polygon class="st3" points="317.15,147.81 299.42,124.75 329.14,124.75 				"/>
				<path class="st5" d="M317.13,147.83l-17.75-23.08h0.06l17.7,23.01l11.96-23.01h0.06c-4,7.7-8.01,15.4-12.01,23.11L317.13,147.83
					z"/>
				<polygon class="st3" points="357.19,135.92 349.26,126.11 348.94,124.75 359.49,124.75 				"/>
				<path class="st5" d="M357.18,135.94l-7.93-9.82c-0.11-0.46-0.21-0.92-0.32-1.38h0.05l0.32,1.35l7.9,9.77l2.28-11.12h0.05
					c-0.77,3.74-1.54,7.49-2.31,11.23L357.18,135.94z"/>
				<polygon class="st3" points="245,124.79 233.39,146.49 221.59,160.07 219.2,145.96 219.2,127.83 				"/>
				<path class="st5" d="M245.02,124.81l-11.61,21.7c-3.96,4.51-7.89,9.08-11.83,13.62c-0.79-4.68-1.59-9.35-2.38-14.03v-0.28
					l2.41,14.2l11.77-13.55l11.58-21.65l-25.76,3.04v-0.06c8.62-1.02,17.23-2.03,25.85-3.04L245.02,124.81z"/>
				<polygon class="st3" points="237.65,162.34 259.51,152.15 245.77,174.04 245.77,185.36 241.13,188.38 242.48,195.17 
					223.91,225.92 222.56,187.62 				"/>
				<polygon class="st4" points="237.65,162.34 259.51,152.15 245.77,174.04 245.77,185.36 241.13,188.38 242.48,195.17 
					223.91,225.92 222.56,187.62 				"/>
				<polygon class="st3" points="288.52,221.96 255.25,214.22 258.54,229.7 288.72,233.47 				"/>
				<polygon class="st4" points="288.52,221.96 255.25,214.22 258.54,229.7 288.72,233.47 				"/>
				<polygon class="st3" points="255.44,280.45 248.29,274.03 255.44,263.85 266.08,261.01 273.34,249.69 281.95,255.54 
					287.17,250.45 298.39,264.6 298,270.07 292.39,270.64 286.98,267.62 				"/>
				<polygon class="st4" points="255.44,280.45 248.29,274.03 255.44,263.85 266.08,261.01 273.34,249.69 281.95,255.54 
					287.17,250.45 298.39,264.6 298,270.07 292.39,270.64 286.98,267.62 				"/>
				<polygon class="st3" points="289.49,304.13 285.82,297.05 280.98,294.22 268.41,302.71 265.21,309.88 267.05,316.3 
					274.21,313.37 278.27,313.56 279.43,307.71 285.33,307.15 				"/>
				<polygon class="st4" points="289.49,304.13 285.82,297.05 280.98,294.22 268.41,302.71 265.21,309.88 267.05,316.3 
					274.21,313.37 278.27,313.56 279.43,307.71 285.33,307.15 				"/>
				<polygon class="st3" points="253.61,298.47 255.93,306.86 247.32,312.43 249.16,306.49 227.78,307.62 227.98,303.84 				"/>
				<polygon class="st4" points="253.61,298.47 255.93,306.86 247.32,312.43 249.16,306.49 227.78,307.62 227.98,303.84 				"/>
				<polygon class="st3" points="257.07,343.96 244.03,327.99 227.3,334.79 227.14,343.96 				"/>
				<path class="st5" d="M257.04,343.96l-13.01-15.93l-16.7,6.78l-0.16,9.15h-0.05c0.05-3.06,0.11-6.13,0.16-9.19
					c5.59-2.27,11.17-4.54,16.76-6.8l0.01,0.01l13.06,15.98H257.04z"/>
				<polygon class="st3" points="277.01,343.96 277.01,321.96 281.08,326.49 283.59,338.94 288.34,343.96 				"/>
				<path class="st5" d="M276.99,343.96v-22.07c1.37,1.53,2.73,3.06,4.11,4.58l2.51,12.45l4.77,5.04h-0.07l-4.74-5.01l-2.51-12.45
					l-4.02-4.48v21.94H276.99z"/>
				<polygon class="st3" points="342.71,263.4 347.16,268.68 361.46,256.3 361.46,245.12 353.16,235.19 348.9,255 				"/>
				<path class="st5" d="M342.74,263.4l4.42,5.25l14.3-12.37v0.07c-4.77,4.13-9.53,8.26-14.3,12.37l-0.01-0.02l-4.46-5.3l6.2-8.41
					l4.26-19.85c2.77,3.31,5.54,6.63,8.32,9.94v0.08l-8.29-9.91l-4.25,19.77L342.74,263.4z"/>
				<polygon class="st3" points="321.24,273.49 331.88,256.32 336.91,256.51 334.01,231.79 328.88,250.94 321.05,255.1 
					319.11,259.25 308.86,259.43 317.86,268.3 				"/>
				<polygon class="st4" points="321.24,273.49 331.88,256.32 336.91,256.51 334.01,231.79 328.88,250.94 321.05,255.1 
					319.11,259.25 308.86,259.43 317.86,268.3 				"/>
				<polygon class="st3" points="356.45,181.97 352.62,186.98 340.37,185.73 348.5,206.23 346.21,221.7 356.45,211.25 				"/>
				<path class="st5" d="M361.46,182l-5.01,5.01l-16.05-1.25l10.65,20.46l-2.99,15.41l13.39-10.43v0.07
					c-4.49,3.49-8.98,6.99-13.47,10.48l3.01-15.53l-10.68-20.53l16.12,1.25l5.02-5.03V182z"/>
			</g>
		</g>
		<g id="Capa_2_3_">
		</g>
		<g id="Capa_3_3_">
		</g>
	</g>
	<g id="Capa_2">
	</g>
	<g id="Capa_3">
	</g>
</g>
<g id="frente">
	<g id="Capa_2_copia">
		<g>
			<defs>
				<path id="SVGID_3_" d="M165.09,144.84c-7.22-4.22-11.06-4.59-18.38-6.47s-17.25-7.78-17.25-7.78
					c2.72,13.97-18.84,16.97-18.84,16.97c-15.19,2.06-23.81-1.5-23.81-1.5c-15-5.91-12.38-15.47-12.38-15.47
					c-7.69,5.44-26.63,10.78-26.63,10.78c-7.5,2.16-9,3.66-9,3.66c1.44,4.97,3.44,10.84,3.44,10.84c2.63,8.63,2.88,18.5,2.88,18.5
					c0.5,6.38,2.97,19.5,2.97,19.5l0.28,0.84c1.69,6.19,1.41,17.53,1.41,17.53c0.38,21.28,1.03,29.72,1.03,29.72
					c0.09,6.38,1.13,11.44,1.13,11.44c1.5,22.13,0.19,40.13,0.19,40.13c-2.16,22.78-6.13,41.59-6.38,42.28s-0.25,0.69-0.25,0.69
					c6,5,44.5,7,44.5,7c26.88,2.25,64.63-4.5,64.63-4.5c2.88-0.88,3.63-2.5,3.63-2.5c-10.25-56.25-6.13-83.13-6.13-83.13
					c1.13-7,2-32.5,2-32.5c0.25-3.13,0.13-6.63,0.13-6.63c-0.75-12.75,1.63-20.25,1.63-20.25s1-9.38,4.12-25.29
					C160,168.71,162.56,153.65,165.09,144.84z"/>
			</defs>
			<clipPath id="SVGID_4_">
				<use xlink:href="#SVGID_3_"  style="overflow:visible;"/>
			</clipPath>
			<polygon class="st6" points="137.48,170.88 123.68,189.1 117.8,210.03 117.98,219.6 121.84,228.98 134.91,206.97 149.26,188.92 
				142.64,182.06 144.11,167.63 			"/>
			<polygon class="st6" points="129.02,157.52 105.28,166.36 85.96,170.88 75.11,184.05 72.35,156.8 93.87,154.27 			"/>
			<polygon class="st6" points="127.92,243.96 100.13,234.57 99.95,223.57 117.98,219.6 121.84,228.98 127.73,226.27 			"/>
			<polygon class="st6" points="109.52,286.36 108.96,269.58 103.63,270.12 98.47,267.24 68.48,279.51 76.76,285.46 88.91,284.02 
				80.81,300.8 92.77,292.68 97.37,295.39 			"/>
			<polygon class="st6" points="65.54,287.81 68.48,279.51 41.53,286 			"/>
			<polygon class="st6" points="157.38,319.86 140.64,314.63 135.67,299.29 148.36,288.82 168.42,303.08 154.25,307.23 			"/>
			<polygon class="st6" points="135.56,340.25 124.35,328.97 138.61,326 141.86,314.97 154.01,318.59 147.81,319.5 143.21,329.97 
				139.48,340.25 			"/>
			<polygon class="st7" points="117.8,210.03 105.47,195.6 112.09,191.81 123.68,189.1 75.11,184.05 100.87,212.2 			"/>
			<polygon class="st7" points="80.56,130.59 93.87,154.27 101.42,145.79 106.57,148.14 104.2,130.59 			"/>
			<polygon class="st7" points="157.72,131.9 153.1,130.59 157.42,130.59 			"/>
			<polygon class="st7" points="36.65,175.75 37.2,190.72 51.55,166.54 47.51,151.39 36.28,164.38 			"/>
			<polygon class="st7" points="72.35,197.22 56.15,197.94 38.49,227.36 52.84,216.17 68.3,216.17 			"/>
			<polygon class="st7" points="98.66,250.82 100.13,234.57 72.3,231.09 77.31,244.5 93.69,255.69 			"/>
			<polygon class="st7" points="63.33,253.7 63.33,249.19 72.3,231.09 68.3,216.17 40.7,246.85 41.8,271.03 			"/>
			<polygon class="st7" points="72.9,325.88 72.99,317.04 75.75,314.06 79.52,313.79 77.77,307.66 80.81,300.8 68.94,304.77 
				60.75,310.09 57.63,324.98 			"/>
			<polygon class="st7" points="109.42,306.03 100.87,302.15 96.91,305.04 91.23,305.59 90.2,311.15 92.33,316.7 95.65,319.86 
				92.86,323.54 95.26,335.45 99.78,340.25 121.3,340.25 124.35,328.97 104.11,327.53 103.28,313.18 			"/>
			<polygon class="st7" points="148.36,288.82 129.6,282.15 123.89,290.99 119.66,298.75 116.9,310.48 126.47,319.86 132.54,316.25 
				129.23,313 129.78,295.86 135.67,299.29 			"/>
			<polygon class="st7" points="155.72,268.25 156.19,283.23 169.33,290.55 169.33,275.37 169.25,274.66 			"/>
			<polygon class="st8" points="78.6,260.92 63.33,253.7 41.8,271.03 61.67,273.37 68.48,263.63 			"/>
			<polygon class="st8" points="119.66,298.75 112.85,297.67 100.87,302.15 109.42,306.03 103.28,313.18 103.7,320.36 
				112.48,316.43 124.35,328.97 126.47,319.86 116.9,310.48 			"/>
			<polygon class="st8" points="116.9,277.09 109.52,286.36 123.89,290.99 129.6,282.15 			"/>
			<polygon class="st8" points="156.19,283.23 148.36,288.82 168.42,303.08 169.33,299.15 169.33,290.55 			"/>
			<polygon class="st8" points="145.97,256.61 151.49,263.2 157.38,255.17 148.92,232.61 143.21,232.97 			"/>
			<path class="st8" d="M159.41,208.52l-4.97,0.9l-11.96,17.86l-14.75-1.02l0.18,17.68l-8.62,15.45l-20.63-8.59l10.67,13.53
				l11.25,5.17l9.02,12.63l1.47-9.29l-3.22-4.96l-8.56-8.48l9.75-0.18l1.84-3.97l7.45-3.97l4.88-18.32c0,0,13.25-9.11,13.34-9.65
				C156.65,222.78,159.41,208.52,159.41,208.52"/>
			<polygon class="st9" points="123.68,189.1 105.28,166.36 85.96,170.88 75.11,184.05 			"/>
			<polygon class="st10" points="123.68,189.1 105.28,166.36 85.96,170.88 75.11,184.05 			"/>
			<polygon class="st9" points="155.15,159.69 144.11,167.63 142.64,182.06 149.26,188.92 155.88,176.11 166.37,178.27 
				166.74,166.72 161.77,168.89 160.48,161.31 			"/>
			<polygon class="st10" points="155.15,159.69 144.11,167.63 142.64,182.06 149.26,188.92 155.88,176.11 166.37,178.27 
				166.74,166.72 161.77,168.89 160.48,161.31 			"/>
			<polygon class="st9" points="127.18,152.65 110.31,130.59 138.58,130.59 			"/>
			<path class="st11" d="M127.16,152.67l-16.88-22.07h0.06l16.83,22.01l11.38-22.01h0.05c-3.81,7.37-7.62,14.73-11.43,22.1
				L127.16,152.67z"/>
			<polygon class="st9" points="165.27,141.28 157.72,131.9 157.42,130.59 167.45,130.59 			"/>
			<path class="st11" d="M165.25,141.3l-7.55-9.39c-0.1-0.44-0.2-0.88-0.31-1.32h0.04l0.3,1.29l7.51,9.34l2.17-10.63h0.05
				c-0.73,3.58-1.46,7.16-2.19,10.74L165.25,141.3z"/>
			<polygon class="st9" points="58.55,130.63 47.51,151.39 36.28,164.38 34,150.88 34,133.54 			"/>
			<path class="st11" d="M58.56,130.65L47.52,151.4c-3.77,4.32-7.51,8.69-11.26,13.03c-0.76-4.47-1.51-8.95-2.27-13.42v-0.27
				l2.29,13.58l11.19-12.96l11.01-20.7l-24.5,2.9v-0.05c8.2-0.98,16.39-1.94,24.59-2.91L58.56,130.65z"/>
			<polygon class="st9" points="51.55,166.54 72.35,156.8 59.28,177.73 59.28,188.56 54.87,191.45 56.15,197.94 38.49,227.36 
				37.2,190.72 			"/>
			<polygon class="st10" points="51.55,166.54 72.35,156.8 59.28,177.73 59.28,188.56 54.87,191.45 56.15,197.94 38.49,227.36 
				37.2,190.72 			"/>
			<polygon class="st9" points="99.95,223.57 68.3,216.17 71.43,230.97 100.13,234.57 			"/>
			<polygon class="st10" points="99.95,223.57 68.3,216.17 71.43,230.97 100.13,234.57 			"/>
			<polygon class="st9" points="68.48,279.51 61.67,273.37 68.48,263.63 78.6,260.92 85.5,250.09 93.69,255.69 98.66,250.82 
				109.33,264.35 108.96,269.58 103.63,270.12 98.47,267.24 			"/>
			<polygon class="st10" points="68.48,279.51 61.67,273.37 68.48,263.63 78.6,260.92 85.5,250.09 93.69,255.69 98.66,250.82 
				109.33,264.35 108.96,269.58 103.63,270.12 98.47,267.24 			"/>
			<polygon class="st9" points="100.87,302.15 97.37,295.39 92.77,292.68 80.81,300.8 77.77,307.66 79.52,313.79 86.33,311 
				90.19,311.18 91.3,305.58 96.91,305.04 			"/>
			<polygon class="st10" points="100.87,302.15 97.37,295.39 92.77,292.68 80.81,300.8 77.77,307.66 79.52,313.79 86.33,311 
				90.19,311.18 91.3,305.58 96.91,305.04 			"/>
			<polygon class="st9" points="66.73,296.74 68.94,304.77 60.75,310.09 62.5,304.41 42.17,305.49 42.35,301.88 			"/>
			<polygon class="st10" points="66.73,296.74 68.94,304.77 60.75,310.09 62.5,304.41 42.17,305.49 42.35,301.88 			"/>
			<polygon class="st9" points="70.03,340.25 57.63,324.98 41.71,331.48 41.56,340.25 			"/>
			<path class="st11" d="M70,340.25l-12.38-15.24l-15.89,6.48l-0.15,8.75h-0.05c0.05-2.93,0.1-5.86,0.15-8.79
				c5.32-2.17,10.63-4.34,15.94-6.51l0.01,0.01l12.42,15.29H70z"/>
			<polygon class="st9" points="89,340.25 89,319.21 92.86,323.54 95.26,335.45 99.78,340.25 			"/>
			<path class="st11" d="M88.98,340.25v-21.1c1.3,1.46,2.6,2.93,3.91,4.38l2.39,11.91l4.53,4.82h-0.07l-4.51-4.79l-2.39-11.91
				l-3.82-4.28v20.98H88.98z"/>
			<polygon class="st9" points="151.49,263.2 155.72,268.25 169.33,256.41 169.33,245.71 161.43,236.22 157.38,255.17 			"/>
			<path class="st11" d="M151.52,263.2l4.2,5.02l13.6-11.83v0.07c-4.53,3.95-9.07,7.9-13.61,11.83l-0.01-0.02l-4.25-5.07l5.9-8.04
				l4.06-18.99c2.64,3.17,5.27,6.34,7.91,9.51v0.07l-7.89-9.48l-4.04,18.91L151.52,263.2z"/>
			<polygon class="st9" points="131.07,272.85 141.19,256.43 145.97,256.61 143.21,232.97 138.34,251.29 130.88,255.26 
				129.04,259.23 119.29,259.41 127.85,267.89 			"/>
			<polygon class="st10" points="131.07,272.85 141.19,256.43 145.97,256.61 143.21,232.97 138.34,251.29 130.88,255.26 
				129.04,259.23 119.29,259.41 127.85,267.89 			"/>
			<polygon class="st9" points="169.33,185.32 164.56,190.12 149.26,188.92 159.41,208.52 156.55,223.32 169.33,213.32 			"/>
			<path class="st11" d="M169.33,185.35l-4.76,4.79l-15.26-1.19l10.13,19.57l-2.84,14.74l12.74-9.97v0.06
				c-4.27,3.34-8.54,6.68-12.81,10.02l2.86-14.85l-10.16-19.64l15.33,1.2l4.78-4.81V185.35z"/>
		</g>
	</g>
	<g id="Capa_3_copia">
	</g>
</g>
<g id="manga_frente">
	<g>
		<defs>
			<path id="SVGID_5_" d="M42.25,155.93c0,0-2-5.88-3.44-10.84c-4.33,2.99-8.25,7.5-8.25,7.5c-12.47,11.81-13.31,39.28-13.31,39.28
				c-0.19,10.88-1.5,23.34-1.5,23.34c12,6.47,30,6.38,30,6.38c0.84-0.28,0.75-1.97,0.75-1.97c0-4.69,0.75-8.16,0.75-8.16
				c0.02-6.1,0.23-11.99,0.1-13.87c-0.04-0.38-0.1-0.59-0.19-0.57l0.94-3.09c0,0-2.47-13.13-2.97-19.5
				C45.13,174.43,44.88,164.56,42.25,155.93z"/>
		</defs>
		<clipPath id="SVGID_6_">
			<use xlink:href="#SVGID_5_"  style="overflow:visible;"/>
		</clipPath>
		<polygon class="st12" points="68.93,152.39 54.98,162.05 46.34,175.32 44.51,182.01 45.45,189.38 59.63,176.92 73.94,167.51 
			70.45,161.29 74.5,151.58 		"/>
		<polygon class="st12" points="65.4,141.26 46.03,142.23 30.81,141.15 20.08,147.94 23.62,128.4 40.07,131.34 		"/>
		<polygon class="st12" points="46.87,201.11 28.24,188.53 30.36,180.84 44.51,182.01 45.45,189.38 50.36,188.78 		"/>
		<polygon class="st12" points="24.57,226.58 27.6,214.79 23.54,214.01 20.32,210.88 -4.39,212.87 0.52,218.81 9.8,220.46 
			0.37,230.36 10.88,227.32 13.73,230.21 		"/>
		<polygon class="st12" points="-8.27,217.99 -4.39,212.87 -6.74,212.71 -8.29,217.98 		"/>
		<polygon class="st12" points="41.54,247.35 41.26,241.27 52.8,236.77 56.3,240.96 53.39,250.85 		"/>
		<polygon class="st13" points="46.34,175.32 40.18,162.6 45.85,161.41 54.98,162.05 20.08,147.94 33.37,173.13 		"/>
		<polygon class="st13" points="37.46,121.24 40.07,131.34 47.39,127.09 50.72,129.84 51.37,125.34 		"/>
		<polygon class="st13" points="15.34,156.5 10.21,155.22 6.39,168.18 8.46,168.79 		"/>
		<polygon class="st13" points="23.82,199.5 28.24,188.53 8.36,180.04 9.32,190.45 19.15,201.8 		"/>
		<polygon class="st13" points="0.52,188.1 8.36,180.04 8.46,168.79 5.75,170.34 		"/>
		<polygon class="st13" points="-3.05,234.21 0.37,230.36 -9.22,230.53 -12.23,231.34 -12.28,231.49 		"/>
		<polygon class="st13" points="20.47,240.24 14.93,235.67 11.41,236.82 7.1,235.96 6.54,237.03 19.46,240.85 		"/>
		<polygon class="st13" points="52.8,236.77 40.29,228.03 34.25,232.93 29.53,237.41 26.32,242.87 35.01,245.43 37.61,237.61 
			41.26,241.27 		"/>
		<polygon class="st14" points="6.91,202.15 -1.51,194.99 -4.21,204.14 -1.13,201.83 		"/>
		<polygon class="st14" points="29.53,237.41 24.72,235.17 14.93,235.67 20.47,240.24 19.46,240.85 26.32,242.87 		"/>
		<polygon class="st14" points="31.93,221.75 24.57,226.58 34.25,232.93 40.29,228.03 		"/>
		<polygon class="st14" points="58.02,235.12 52.8,236.77 56.3,240.96 		"/>
		<polygon class="st14" points="57.64,213.85 60.37,219.63 63.18,217.62 65.77,208.86 64.73,197.81 60.44,196.81 		"/>
		<path class="st14" d="M73.38,183.04l-12.32,9.66l-10.7-3.92l-3.49,12.33l-9.55,8.86l-13.5-10.48l5.12,11.74l7.26,6.04l4.08,10.75
			l2.99-6.14l-1.37-4.15l-4.59-7.76l7.25,2l2.18-2.36l6.33-1.13l7.36-11.67c0,0,6.36-1.88,9.76-3.01L73.38,183.04z"/>
		<polygon class="st15" points="54.98,162.05 46.03,142.23 30.81,141.15 20.08,147.94 		"/>
		<polygon class="st16" points="54.98,162.05 46.03,142.23 30.81,141.15 20.08,147.94 		"/>
		<polygon class="st15" points="83.5,148.72 74.5,151.58 70.45,161.29 73.94,167.51 79.62,161.88 		"/>
		<path class="st17" d="M83.49,148.74l-8.98,2.85l-4.04,9.7l3.48,6.18l5.68-5.63l-0.02,0.08l-5.67,5.62
			c-1.17-2.08-2.34-4.16-3.51-6.24c1.35-3.25,2.7-6.49,4.06-9.73l0.01,0l9.01-2.86L83.49,148.74z"/>
		<polygon class="st15" points="65.04,137.47 61.17,128.23 71.34,131.23 		"/>
		<path class="st17" d="M65.03,137.48l-3.88-9.26l0.04,0.01l3.85,9.21l6.28-6.22l0.04,0.01c-2.11,2.09-4.22,4.18-6.33,6.27
			L65.03,137.48z"/>
		<polygon class="st15" points="17.9,129.14 23.62,128.4 16.31,134.53 		"/>
		<polygon class="st17" points="17.91,129.11 23.69,128.37 16.3,134.57 16.32,134.5 23.56,128.43 17.9,129.16 		"/>
		<polygon class="st15" points="30.36,180.84 8.46,168.79 7.74,179.76 28.24,188.53 		"/>
		<polygon class="st16" points="30.36,180.84 8.46,168.79 7.74,179.76 28.24,188.53 		"/>
		<polygon class="st15" points="-4.39,212.87 -6.04,210.35 -4.21,204.14 -1.13,201.83 6.91,202.15 14.23,196.13 19.15,201.8 
			23.82,199.5 28.94,211.24 27.6,214.79 23.54,214.01 20.32,210.88 		"/>
		<path class="st17" d="M-4.4,212.88l-1.65-2.51l0.01-0.05l1.66,2.52l24.7-1.99l3.22,3.13l4.04,0.78l1.34-3.53l-5.11-11.71
			l-4.67,2.3l-4.91-5.67l-7.32,6.02l-8.04-0.33l-3.1,2.33l0.02-0.06c1.02-0.77,2.04-1.54,3.07-2.3l8.04,0.33l7.33-6.03l4.91,5.68
			l4.68-2.31c1.71,3.92,3.42,7.84,5.13,11.76c-0.45,1.19-0.9,2.39-1.35,3.58c-1.36-0.26-2.72-0.53-4.08-0.79l-3.22-3.13L-4.4,212.88
			L-4.4,212.88z"/>
		<polygon class="st15" points="14.93,235.67 13.73,230.21 10.88,227.32 0.37,230.36 -3.05,234.21 6.57,237.04 7.15,235.97 
			11.41,236.82 		"/>
		<path class="st17" d="M14.91,235.66l-1.19-5.44l-2.84-2.87l-10.5,3.03l-3.41,3.84l-0.04-0.01c1.14-1.29,2.29-2.58,3.43-3.86
			c3.51-1.01,7.02-2.03,10.53-3.04c0.95,0.97,1.9,1.94,2.86,2.9l0,0.01l1.2,5.49c-1.18,0.38-2.36,0.77-3.54,1.15l-4.25-0.85
			l-0.57,1.06l-0.04-0.01l0.59-1.09l4.27,0.85L14.91,235.66z"/>
		<polygon class="st15" points="-9.21,224.47 -9.22,230.53 -12.23,231.34 -10.18,224.38 		"/>
		<path class="st17" d="M-9.19,224.47l-0.01,6.08c-1.01,0.27-2.02,0.54-3.03,0.81l0.01-0.04l2.98-0.8l0.01-6.03l-0.95-0.09
			l0.01-0.04l0.98,0.09L-9.19,224.47z"/>
		<polygon class="st15" points="60.37,219.63 61.74,222.53 63.18,217.62 		"/>
		<polygon class="st17" points="60.39,219.64 61.74,222.5 61.73,222.55 60.35,219.63 63.19,217.59 63.17,217.65 		"/>
		<polygon class="st15" points="43.28,221.89 54.13,212.68 57.64,213.85 60.44,196.81 53.08,208.48 46.75,209.62 44.58,211.98 
			37.32,209.98 41.92,217.74 		"/>
		<polygon class="st16" points="43.28,221.89 54.13,212.68 57.64,213.85 60.44,196.81 53.08,208.48 46.75,209.62 44.58,211.98 
			37.32,209.98 41.92,217.74 		"/>
		<polygon class="st15" points="77.56,168.87 73.94,167.51 75.66,175.3 		"/>
		<polygon class="st17" points="77.55,168.88 73.97,167.53 75.67,175.27 75.65,175.34 73.92,167.48 77.56,168.85 		"/>
	</g>
	<g>
		<defs>
			<path id="SVGID_7_" d="M188.16,215.34c-0.56-9-1.88-29.06-1.88-29.06c-0.4-11.39-3.9-20.74-8.25-27.56
				c-5.86-9.18-12.94-13.88-12.94-13.88c-2.54,8.81-5.09,23.87-5.09,23.87c-3.13,15.91-4.12,25.29-4.12,25.29
				c1.34,2.59,1.06,16.75,1.06,16.75c-0.09,1.22,0.19,3,0.19,3c0.56,4.13,0.38,7.13,0.38,7.13
				C164.16,224.06,188.16,215.34,188.16,215.34z"/>
		</defs>
		<clipPath id="SVGID_8_">
			<use xlink:href="#SVGID_7_"  style="overflow:visible;"/>
		</clipPath>
		<polygon class="st18" points="194.84,154.73 192.8,145.86 190.86,147.81 192.21,148.44 194.44,160.27 		"/>
		<polygon class="st19" points="194.84,154.73 192.8,145.86 190.86,147.81 192.21,148.44 194.44,160.27 		"/>
		<polygon class="st20" points="194.84,154.73 192.8,145.86 190.86,147.81 192.21,148.44 194.44,160.27 		"/>
		<polygon class="st19" points="194.84,154.73 192.8,145.86 190.86,147.81 192.21,148.44 194.44,160.27 		"/>
		<path class="st19" d="M201.31,222.02l-0.54-13.47c-1.3-1.7-2.5-3.13-3.76-4.68 M192.91,197.28c-0.2-2.62-0.35-5.44-0.56-8.03
			c0.19-0.2,0.58-0.63,0.77-0.83"/>
		<polyline class="st21" points="193.97,160.01 194.9,171.12 196.72,176.71 196.74,177.29 		"/>
		<polyline class="st21" points="193.3,154.48 194.51,171.29 195.71,174.98 		"/>
		<line class="st21" x1="193.27" y1="154.21" x2="194.22" y2="171.45"/>
		<polygon class="st20" points="194.45,177.45 194.56,176.71 194.37,175.84 193.91,174.75 194.31,176.81 194.2,177.47 		"/>
		<polygon class="st22" points="142.57,157.43 154.29,165.55 161.56,176.71 163.09,182.33 162.31,188.52 150.39,178.05 
			138.35,170.14 141.29,164.92 137.89,156.75 		"/>
		<polygon class="st22" points="145.53,148.08 161.82,148.89 174.61,147.99 183.63,153.7 180.65,137.27 166.83,139.74 		"/>
		<polygon class="st22" points="161.11,198.39 176.77,187.81 174.99,181.34 163.09,182.33 162.31,188.52 158.18,188.02 		"/>
		<polygon class="st22" points="204.12,203.74 201.56,200.35 203.11,200.25 204.14,203.73 		"/>
		<polygon class="st22" points="165.59,237.26 165.82,232.15 156.12,228.36 153.18,231.88 155.63,240.19 		"/>
		<polygon class="st23" points="161.56,176.71 166.74,166.01 161.97,165.01 154.29,165.55 183.63,153.7 172.46,174.87 		"/>
		<polygon class="st23" points="169.02,131.25 166.83,139.74 160.68,136.16 157.88,138.48 157.33,134.69 		"/>
		<polygon class="st23" points="187.62,160.89 191.93,159.81 195.14,170.71 193.4,171.22 		"/>
		<polygon class="st23" points="180.49,197.03 176.77,187.81 193.48,180.67 192.67,189.43 184.42,198.97 		"/>
		<polygon class="st23" points="200.68,214.45 198.41,211.91 204.75,212.02 206.74,212.55 206.77,212.66 		"/>
		<polygon class="st23" points="183.31,231.28 187.96,227.44 190.92,228.4 194.54,227.68 195.02,228.58 184.15,231.79 		"/>
		<polygon class="st23" points="156.12,228.36 166.65,221.01 171.72,225.14 175.69,228.89 178.39,233.49 171.08,235.64 
			168.89,229.06 165.82,232.15 		"/>
		<polygon class="st24" points="194.09,193.27 199.66,188.54 201.44,194.59 199.41,193.05 		"/>
		<polygon class="st24" points="175.69,228.89 179.73,227.01 187.96,227.44 183.31,231.28 184.15,231.79 178.39,233.49 		"/>
		<polygon class="st24" points="173.67,215.73 179.86,219.8 171.72,225.14 166.65,221.01 		"/>
		<polygon class="st24" points="151.74,226.98 156.12,228.36 153.18,231.88 		"/>
		<polygon class="st24" points="152.06,209.1 149.76,213.96 147.4,212.26 145.23,204.9 146.1,195.61 149.71,194.77 		"/>
		<path class="st24" d="M138.83,183.2l10.35,8.12l8.99-3.3l2.93,10.37l8.02,7.45l11.35-8.81l-4.3,9.87l-6.11,5.08l-3.43,9.04
			l-2.52-5.16l1.15-3.49l3.86-6.53l-6.1,1.68l-1.83-1.98l-5.32-0.95l-6.19-9.81c0,0-5.35-1.58-8.21-2.53L138.83,183.2z"/>
		<polygon class="st25" points="154.29,165.55 161.82,148.89 174.61,147.99 183.63,153.7 		"/>
		<polygon class="st26" points="154.29,165.55 161.82,148.89 174.61,147.99 183.63,153.7 		"/>
		<polygon class="st25" points="130.32,154.35 137.89,156.75 141.29,164.92 138.35,170.14 133.59,165.41 		"/>
		<path class="st27" d="M130.33,154.37l7.55,2.4l3.4,8.15l-2.92,5.2l-4.77-4.73l0.02,0.07l4.76,4.72c0.98-1.75,1.97-3.5,2.95-5.25
			c-1.13-2.73-2.27-5.46-3.41-8.18l-0.01,0l-7.58-2.41L130.33,154.37z"/>
		<polygon class="st25" points="145.84,144.89 149.09,137.12 140.54,139.64 		"/>
		<path class="st27" d="M145.85,144.9l3.26-7.78l-0.04,0.01l-3.24,7.74l-5.27-5.23l-0.03,0.01c1.77,1.76,3.55,3.52,5.32,5.27
			L145.85,144.9z"/>
		<polygon class="st25" points="185.46,137.89 180.65,137.27 186.8,142.42 		"/>
		<polygon class="st27" points="185.46,137.87 180.6,137.24 186.81,142.45 186.79,142.39 180.71,137.29 185.47,137.9 		"/>
		<polygon class="st25" points="174.99,181.34 193.4,171.22 194,180.44 176.77,187.81 		"/>
		<polygon class="st26" points="174.99,181.34 193.4,171.22 194,180.44 176.77,187.81 		"/>
		<path class="st27" d="M201.47,198.97l-6.76,0.27l-6.16-5.07l-4.13,4.77l-3.93-1.94c-1.44,3.3-2.88,6.59-4.31,9.89
			c0.38,1,0.76,2.01,1.14,3.01c1.14-0.22,2.29-0.45,3.43-0.67l2.7-2.63l20.77,1.67"/>
		<polyline class="st27" points="204.19,208.25 183.42,206.58 180.72,209.21 177.32,209.87 176.2,206.9 180.49,197.05 
			184.42,198.99 188.55,194.22 194.7,199.28 201.46,199 		"/>
		<polygon class="st25" points="187.96,227.44 188.97,222.84 191.36,220.42 200.2,222.97 203.08,226.21 194.99,228.59 194.5,227.69 
			190.92,228.4 		"/>
		<path class="st27" d="M187.98,227.43l1-4.58l2.38-2.42l8.82,2.55l2.87,3.23l0.04-0.01c-0.96-1.08-1.92-2.16-2.89-3.24
			c-2.95-0.85-5.9-1.7-8.85-2.56c-0.8,0.81-1.6,1.63-2.4,2.44l0,0l-1.01,4.61c0.99,0.32,1.98,0.65,2.98,0.97l3.58-0.71l0.48,0.89
			l0.03-0.01l-0.49-0.92l-3.59,0.71L187.98,227.43z"/>
		<polygon class="st25" points="204.75,208.02 204.75,212.02 206.74,212.55 205.38,207.96 		"/>
		<path class="st27" d="M204.73,208.02l0.01,4.02c0.67,0.18,1.34,0.36,2,0.54l-0.01-0.03l-1.97-0.53l-0.01-3.99l0.63-0.06
			l-0.01-0.03l-0.65,0.06L204.73,208.02z"/>
		<polygon class="st25" points="149.76,213.96 148.62,216.39 147.4,212.26 		"/>
		<polygon class="st27" points="149.75,213.96 148.61,216.37 148.62,216.41 149.78,213.95 147.39,212.24 147.41,212.29 		"/>
		<polygon class="st25" points="164.13,215.85 155.01,208.11 152.06,209.1 149.71,194.77 155.89,204.58 161.21,205.54 
			163.04,207.52 169.14,205.84 165.28,212.36 		"/>
		<polygon class="st26" points="164.13,215.85 155.01,208.11 152.06,209.1 149.71,194.77 155.89,204.58 161.21,205.54 
			163.04,207.52 169.14,205.84 165.28,212.36 		"/>
		<polygon class="st25" points="135.32,171.28 138.35,170.14 136.91,176.69 		"/>
		<polygon class="st27" points="135.32,171.3 138.33,170.16 136.9,176.66 136.92,176.72 138.38,170.11 135.31,171.27 		"/>
	</g>
</g>
<g id="manga_dorso">
	<g>
		<defs>
			<path id="SVGID_9_" d="M224,145.81c-4.25,7.63,2.94,36,2.94,36c2.75,8.5,7.06,15.72,7.06,15.72c-1-0.16-0.81,0.78-0.81,0.78
				c-1,6.63-0.44,15.5-0.44,15.5c-0.25,2.56-0.51,5.69-0.51,5.69c-0.19,3.31-0.05,4.56-0.05,4.56c-2.06,1.69-6.44,1.56-6.44,1.56
				c-17.63-0.69-24.88-7.5-24.88-7.5c0.44-0.63,0.63-9.75,0.63-9.75c0.44-4.56,0.56-9.69,0.56-9.69l0.38-4.13l0.19-5.06
				c1.44-27.75,15.5-38.25,15.5-38.25C221.06,149,224,145.81,224,145.81z"/>
		</defs>
		<clipPath id="SVGID_10_">
			<use xlink:href="#SVGID_9_"  style="overflow:visible;"/>
		</clipPath>
		<path class="st28" d="M261.3,157.24l-0.08,0.25l-1.13,2.55l-0.25,1.72l-0.05,0.15c0.08-0.56,0.17-1.19,0.27-1.88L261.3,157.24z
			 M261.38,156.05l0.03,0.01l-1.81,4.07l-0.62,4.32l-0.08,0.25c0.16-1.07,0.39-2.5,0.68-4.58L261.38,156.05z M260.98,155.92
			l0.03,0.01l-1.91,4.29l-1,6.92l-0.06,0.17c0.12-1.25,0.42-2.8,1.03-7.1L260.98,155.92z M260.58,155.8l0.03,0.01l-2,4.51
			l-1.13,7.85l0.03,0.83l-0.02,0.05c-0.02-2.07,0.23-2.6,1.09-8.74L260.58,155.8z M260.19,155.67l0.03,0.01l-2.1,4.73l-1.13,7.85
			l0.08,2.12l-0.03,0.1c-0.12-3.4,0.04-2.82,1.06-10.07L260.19,155.67z M259.79,155.54l0.03,0.01l-2.2,4.95l-1.13,7.85l0.13,3.41
			l-0.03,0.09c-0.19-4.91-0.12-3.3,1.01-11.36L259.79,155.54z M259.38,155.41l0.05,0.02l-2.29,5.16l-1.13,7.84l0.17,4.66l-0.05,0.16
			c-0.06-1.6-0.11-3.21-0.18-4.81c0.39-2.62,0.76-5.25,1.13-7.88L259.38,155.41z M258.98,155.28l0.05,0.02l-2.39,5.38l-1.13,7.84
			l0.22,5.95l-0.05,0.14l-0.01-0.02c-0.07-2.02-0.14-4.05-0.22-6.06c0.39-2.62,0.76-5.25,1.13-7.88L258.98,155.28z M258.57,155.15
			l0.08,0.03l-2.49,5.6l-1.13,7.84l0.22,6.02l0.29,0.44l-0.05,0.14l-0.33-0.5c-0.07-2.02-0.15-4.05-0.22-6.07
			c0.38-2.63,0.76-5.26,1.14-7.88L258.57,155.15z M258.17,155.02l0.08,0.03l-2.59,5.82l-1.13,7.84l0.22,6.02l0.6,0.91l-0.05,0.14
			l-0.64-0.98c-0.07-2.02-0.15-4.05-0.22-6.07c0.38-2.63,0.76-5.26,1.14-7.88L258.17,155.02z M257.78,154.89l0.08,0.03l-2.68,6.04
			l-1.13,7.84l0.22,6.02l0.91,1.39l-0.05,0.14l-0.95-1.45c-0.07-2.02-0.15-4.05-0.22-6.07c0.38-2.63,0.76-5.26,1.14-7.88
			L257.78,154.89z M257.37,154.76l0.11,0.03l-2.78,6.26l-1.13,7.83l0.22,6.01l1.21,1.85l-0.06,0.19l-1.27-1.94
			c-0.07-2.03-0.15-4.05-0.22-6.08c0.38-2.63,0.76-5.26,1.14-7.89L257.37,154.76z M256.97,154.63l0.11,0.03l-2.88,6.48l-1.13,7.83
			l0.22,6.01l1.53,2.33l-0.06,0.19l-1.58-2.41c-0.07-2.03-0.15-4.05-0.22-6.08c0.38-2.63,0.76-5.26,1.14-7.89L256.97,154.63z
			 M256.57,154.5l0.11,0.03l-2.98,6.7l-1.13,7.83l0.22,6.01l1.84,2.8l-0.06,0.19l-1.89-2.89c-0.07-2.03-0.15-4.05-0.22-6.08
			c0.38-2.63,0.76-5.26,1.14-7.89L256.57,154.5z M256.16,154.37l0.13,0.04l-3.07,6.91l-1.13,7.82l0.22,6l2.14,3.27l-0.08,0.24
			l-2.21-3.37c-0.07-2.03-0.15-4.06-0.23-6.09c0.38-2.63,0.76-5.27,1.14-7.9L256.16,154.37z M255.77,154.24l0.13,0.04l-3.17,7.13
			l-1.13,7.82l0.22,6l2.45,3.74l-0.08,0.24l-2.52-3.85c-0.07-2.03-0.15-4.06-0.23-6.09c0.38-2.63,0.76-5.27,1.14-7.9L255.77,154.24z
			 M255.33,154.1l0.2,0.06l-3.27,7.35l-1.12,7.8l0.22,5.98l2.66,4.06l0.06,0.21l-0.14,0.44l-0.11-0.42l-2.68-4.09
			c-0.07-2.04-0.15-4.07-0.23-6.11c0.38-2.64,0.76-5.28,1.14-7.92L255.33,154.1z M254.99,153.99l0.2,0.06l-3.5,7.67l-1.19,7.78
			l0.17,5.96l2.64,4.05l0.36,1.36l-0.14,0.44l-0.42-1.58l-2.66-4.09c-0.06-2.03-0.12-4.06-0.17-6.09c0.4-2.63,0.81-5.26,1.21-7.9
			L254.99,153.99z M254.65,153.88l0.2,0.06l-3.68,8.01l-1.21,7.77l0.16,5.96l2.63,4.05l0.57,2.19l-0.14,0.45l-0.63-2.41l-2.65-4.08
			c-0.05-2.03-0.1-4.06-0.16-6.09c0.41-2.63,0.82-5.26,1.23-7.89L254.65,153.88z M254.32,153.77l0.2,0.06l-3.83,8.36l-1.21,7.77
			l0.16,5.96l2.63,4.05l0.76,2.9l-0.14,0.45l-0.81-3.11l-2.65-4.08c-0.05-2.03-0.1-4.06-0.16-6.09c0.41-2.63,0.82-5.26,1.23-7.89
			L254.32,153.77z"/>
		<defs>
			<filter id="Adobe_OpacityMaskFilter" filterUnits="userSpaceOnUse" x="243.5" y="153.14" width="10.64" height="55.84">
				<feColorMatrix  type="matrix" values="1 0 0 0 0  0 1 0 0 0  0 0 1 0 0  0 0 0 1 0"/>
			</filter>
		</defs>
		<mask maskUnits="userSpaceOnUse" x="243.5" y="153.14" width="10.64" height="55.84" id="SVGID_11_">
			<g class="st29">
				
					<linearGradient id="SVGID_12_" gradientUnits="userSpaceOnUse" x1="-68.7044" y1="5167.9609" x2="-80.1454" y2="5172.9243" gradientTransform="matrix(0.9515 0.3075 -0.5002 1.5478 2907.6926 -7799.9844)">
					<stop  offset="0" style="stop-color:#FFFFFF"/>
					<stop  offset="1" style="stop-color:#7B7B7B"/>
				</linearGradient>
				<polygon class="st30" points="234.51,205.72 244.58,208.98 261.66,156.14 251.58,152.89 				"/>
			</g>
		</mask>
		<polygon class="st31" points="252.36,153.14 252.45,155.29 250.13,157.39 249.42,161.1 248.28,167.23 248.15,170.09 
			248.02,174.95 250.75,182.14 249.18,189.47 246.17,196.88 243.9,201.21 243.5,204.43 244.58,208.98 252.73,183.77 251.79,180.46 
			249.2,176.26 248.96,170.03 250.27,161.96 254.14,153.71 		"/>
		<defs>
			<filter id="Adobe_OpacityMaskFilter_1_" filterUnits="userSpaceOnUse" x="250.08" y="153.34" width="8.65" height="10.43">
				<feColorMatrix  type="matrix" values="1 0 0 0 0  0 1 0 0 0  0 0 1 0 0  0 0 0 1 0"/>
			</filter>
		</defs>
		<mask maskUnits="userSpaceOnUse" x="250.08" y="153.34" width="8.65" height="10.43" id="SVGID_13_">
			<g class="st32">
				
					<linearGradient id="SVGID_14_" gradientUnits="userSpaceOnUse" x1="-97.4617" y1="5442.2559" x2="-89.0647" y2="5443.1401" gradientTransform="matrix(0.9515 0.3075 -0.5002 1.5478 3065.0981 -8237.4229)">
					<stop  offset="0" style="stop-color:#FFFFFF"/>
					<stop  offset="1" style="stop-color:#000000"/>
				</linearGradient>
				<polygon class="st33" points="250.25,161.98 255.8,163.77 258.59,155.13 253.04,153.34 				"/>
			</g>
		</mask>
		<g class="st34">
			<g>
				<defs>
					
						<rect id="SVGID_15_" x="249.88" y="155.64" transform="matrix(0.3075 -0.9515 0.9515 0.3075 25.3118 351.8946)" width="9.08" height="5.83"/>
				</defs>
				<clipPath id="SVGID_16_">
					<use xlink:href="#SVGID_15_"  style="overflow:visible;"/>
				</clipPath>
				<polygon class="st35" points="254.14,153.71 258.57,155.15 255.09,160.93 250.27,161.96 				"/>
				<polygon class="st36" points="254.14,153.71 258.57,155.15 255.09,160.93 250.27,161.96 				"/>
			</g>
		</g>
		<polygon class="st37" points="243.25,156.76 232.11,164.48 225.2,175.09 223.74,180.44 224.48,186.33 235.82,176.37 
			247.26,168.84 244.47,163.88 247.7,156.11 		"/>
		<polygon class="st37" points="240.44,147.87 224.95,148.64 212.79,147.78 204.21,153.21 207.04,137.58 220.19,139.93 		"/>
		<polygon class="st37" points="225.62,195.71 210.73,185.65 212.42,179.5 223.74,180.44 224.48,186.33 228.41,185.85 		"/>
		<polygon class="st37" points="207.79,216.07 210.22,206.64 206.97,206.01 204.4,203.51 184.65,205.1 188.57,209.85 195.99,211.17 
			188.45,219.08 196.86,216.66 199.13,218.96 		"/>
		<polygon class="st37" points="181.55,209.2 184.65,205.1 182.77,204.98 181.53,209.19 		"/>
		<polygon class="st37" points="221.36,232.67 221.14,227.81 230.36,224.21 233.16,227.56 230.83,235.46 		"/>
		<polygon class="st38" points="225.2,175.09 220.27,164.92 224.81,163.97 232.11,164.48 204.21,153.21 214.83,173.34 		"/>
		<polygon class="st38" points="218.1,131.86 220.19,139.93 226.04,136.54 228.7,138.74 229.22,135.14 		"/>
		<polygon class="st38" points="200.42,160.05 196.32,159.02 193.26,169.38 194.92,169.87 		"/>
		<polygon class="st38" points="207.2,194.42 210.73,185.65 194.84,178.86 195.61,187.19 203.46,196.26 		"/>
		<polygon class="st38" points="188.57,185.3 194.84,178.86 194.92,169.87 192.75,171.11 		"/>
		<polygon class="st38" points="185.72,222.16 188.45,219.08 180.78,219.22 178.38,219.86 178.34,219.99 		"/>
		<polygon class="st38" points="204.52,226.98 200.09,223.33 197.28,224.25 193.83,223.56 193.38,224.42 203.71,227.47 		"/>
		<polygon class="st38" points="230.36,224.21 220.36,217.22 215.54,221.14 211.76,224.72 209.19,229.08 216.14,231.13 
			218.22,224.88 221.14,227.81 		"/>
		<polygon class="st39" points="193.68,196.54 186.95,190.81 184.79,198.13 187.25,196.28 		"/>
		<polygon class="st39" points="211.76,224.72 207.91,222.93 200.09,223.33 204.52,226.98 203.71,227.47 209.19,229.08 		"/>
		<polygon class="st39" points="213.68,212.2 207.79,216.07 215.54,221.14 220.36,217.22 		"/>
		<polygon class="st39" points="234.54,222.89 230.36,224.21 233.16,227.56 		"/>
		<polygon class="st39" points="234.23,205.89 236.41,210.51 238.66,208.9 240.73,201.9 239.9,193.06 236.47,192.27 		"/>
		<path class="st39" d="M246.81,181.26l-9.85,7.72l-8.55-3.13l-2.79,9.86l-7.63,7.08l-10.79-8.37l4.09,9.38l5.81,4.83l3.26,8.59
			l2.39-4.91l-1.09-3.32l-3.67-6.21l5.8,1.6l1.74-1.89l5.06-0.91l5.88-9.33c0,0,5.09-1.5,7.8-2.4L246.81,181.26z"/>
		<polygon class="st40" points="232.11,164.48 224.95,148.64 212.79,147.78 204.21,153.21 		"/>
		<polygon class="st41" points="232.11,164.48 224.95,148.64 212.79,147.78 204.21,153.21 		"/>
		<polygon class="st40" points="254.9,153.83 247.7,156.11 244.47,163.88 247.26,168.84 251.8,164.35 		"/>
		<path class="st42" d="M254.89,153.85l-7.18,2.28l-3.23,7.75l2.78,4.94l4.54-4.5l-0.02,0.06l-4.53,4.49
			c-0.94-1.66-1.87-3.33-2.81-4.99c1.08-2.59,2.16-5.19,3.24-7.78l0.01,0l7.2-2.29L254.89,153.85z"/>
		<polygon class="st40" points="240.15,144.84 237.05,137.45 245.18,139.84 		"/>
		<path class="st42" d="M240.13,144.84l-3.1-7.4l0.04,0.01l3.08,7.36l5.02-4.97l0.03,0.01c-1.69,1.67-3.37,3.34-5.06,5.01
			L240.13,144.84z"/>
		<polygon class="st40" points="202.47,138.17 207.04,137.58 201.19,142.49 		"/>
		<polygon class="st42" points="202.47,138.16 207.09,137.56 201.19,142.51 201.2,142.46 206.99,137.61 202.46,138.19 		"/>
		<polygon class="st40" points="212.42,179.5 194.92,169.87 194.35,178.64 210.73,185.65 		"/>
		<polygon class="st41" points="212.42,179.5 194.92,169.87 194.35,178.64 210.73,185.65 		"/>
		<polygon class="st40" points="184.65,205.1 183.33,203.09 184.79,198.13 187.25,196.28 193.68,196.54 199.54,191.72 
			203.46,196.26 207.2,194.42 211.29,203.8 210.22,206.64 206.97,206.01 204.4,203.51 		"/>
		<path class="st42" d="M184.64,205.11l-1.32-2l0.01-0.04l1.33,2.02l19.74-1.59l2.58,2.5l3.23,0.63l1.07-2.83l-4.08-9.36l-3.73,1.84
			l-3.92-4.53l-5.85,4.81l-6.43-0.26l-2.48,1.86l0.02-0.05c0.82-0.61,1.63-1.23,2.45-1.84l6.43,0.26l5.86-4.82l3.93,4.54l3.74-1.84
			c1.37,3.13,2.74,6.27,4.1,9.4c-0.36,0.95-0.72,1.91-1.08,2.86c-1.09-0.21-2.17-0.42-3.26-0.63l-2.57-2.5L184.64,205.11
			L184.64,205.11z"/>
		<polygon class="st40" points="200.09,223.33 199.13,218.96 196.86,216.66 188.45,219.08 185.72,222.16 193.41,224.43 
			193.87,223.57 197.28,224.25 		"/>
		<path class="st42" d="M200.07,223.32l-0.95-4.35l-2.27-2.3l-8.39,2.42l-2.73,3.07l-0.03-0.01c0.91-1.03,1.83-2.06,2.74-3.09
			c2.81-0.81,5.61-1.62,8.42-2.43c0.76,0.77,1.52,1.55,2.29,2.32l0,0l0.96,4.38c-0.94,0.31-1.89,0.61-2.83,0.92l-3.4-0.68
			l-0.45,0.85l-0.03-0.01l0.47-0.87l3.41,0.68L200.07,223.32z"/>
		<polygon class="st40" points="180.79,214.37 180.78,219.22 178.38,219.86 180.02,214.3 		"/>
		<path class="st42" d="M180.81,214.37l-0.01,4.86c-0.81,0.22-1.62,0.43-2.42,0.65l0.01-0.04l2.38-0.64l0.01-4.82l-0.76-0.07
			l0.01-0.03l0.78,0.07L180.81,214.37z"/>
		<polygon class="st40" points="236.41,210.51 237.5,212.82 238.66,208.9 		"/>
		<polygon class="st42" points="236.43,210.52 237.51,212.8 237.5,212.84 236.39,210.51 238.67,208.88 238.65,208.92 		"/>
		<polygon class="st40" points="222.75,212.32 231.43,204.95 234.23,205.89 236.47,192.27 230.58,201.6 225.53,202.51 
			223.79,204.39 217.99,202.79 221.66,209 		"/>
		<polygon class="st41" points="222.75,212.32 231.43,204.95 234.23,205.89 236.47,192.27 230.58,201.6 225.53,202.51 
			223.79,204.39 217.99,202.79 221.66,209 		"/>
		<polygon class="st40" points="250.15,169.93 247.26,168.84 248.63,175.08 		"/>
		<polygon class="st42" points="250.15,169.95 247.28,168.87 248.64,175.05 248.63,175.1 247.24,168.82 250.15,169.92 		"/>
	</g>
	<g>
		<defs>
			<path id="SVGID_17_" d="M345.14,197.88c1.05-3.45,2.64-5.66,4.1-9.62c1.98-5.36,2.99-10.17,4.32-13.7
				c2.44-10.94,1.56-28.13,1.56-28.13c7.22,6.47,10.78,10.78,10.78,10.78c11.25,17.16,10.13,36.38,10.13,36.38
				c0.66,10.5,1.59,22.88,1.59,22.88c0.28,2.02-1.69,3.33-1.69,3.33c-14.06,6.84-24.98,5.77-24.98,5.77
				c-3.94,0.05-4.55-1.78-4.55-1.78c-0.14-5.11-0.52-9.8-0.52-9.8c-0.09-8.81-0.33-13.78-0.33-13.78
				C345.31,198.4,345.14,197.88,345.14,197.88z"/>
		</defs>
		<clipPath id="SVGID_18_">
			<use xlink:href="#SVGID_17_"  style="overflow:visible;"/>
		</clipPath>
		<polygon class="st43" points="354.52,147.9 351.17,161.04 352.9,173.58 355.31,178.58 359.74,182.53 361.76,167.58 365.46,154.4 
			360.1,152.48 357.45,144.49 		"/>
		<polygon class="st43" points="346.55,143.04 335.37,153.78 325.63,161.1 322.71,170.83 314.6,157.18 326.06,150.33 		"/>
		<polygon class="st43" points="366.75,188.87 348.91,191.04 346.15,185.29 355.31,178.58 359.74,182.53 362.39,179.6 		"/>
		<polygon class="st43" points="366.64,215.93 362.29,207.23 359.43,208.88 355.84,208.68 341.98,222.83 348.06,223.85 
			354.52,219.97 354.02,230.89 358.77,223.55 362,223.8 		"/>
		<polygon class="st43" points="342.33,227.96 341.98,222.83 340.48,223.97 342.3,227.97 		"/>
		<polygon class="st43" points="387.77,219.56 384.42,216.04 389.02,207.27 393.33,207.97 396.75,215.46 		"/>
		<polygon class="st44" points="352.9,173.58 342.51,169.13 345.32,165.44 351.17,161.04 322.71,170.83 343.93,179.06 		"/>
		<polygon class="st44" points="319.2,145.6 326.06,150.33 328.25,143.93 331.71,143.84 329.74,140.78 		"/>
		<polygon class="st44" points="324.33,178.48 320.57,180.39 325.06,190.22 326.62,189.5 		"/>
		<polygon class="st44" points="351.99,199.98 348.91,191.04 332.46,196.33 338.5,202.12 350.38,203.82 		"/>
		<polygon class="st44" points="331.95,205.31 332.46,196.33 326.62,189.5 325.8,191.85 		"/>
		<polygon class="st44" points="353.97,235.01 354.02,230.89 348.32,236.02 346.93,238.09 346.98,238.2 		"/>
		<polygon class="st44" points="371.32,226.32 365.59,226.47 364.07,229 361.01,230.74 361.24,231.69 371.04,227.21 		"/>
		<polygon class="st44" points="389.02,207.27 376.88,208.56 375.81,214.68 375.31,219.86 376.23,224.84 382.82,221.83 
			380.29,215.74 384.42,216.04 		"/>
		<polygon class="st45" points="343.18,210.44 334.34,210.54 337.51,217.47 338.15,214.46 		"/>
		<polygon class="st45" points="375.31,219.86 371.23,221.03 365.59,226.47 371.32,226.32 371.04,227.21 376.23,224.84 		"/>
		<polygon class="st45" points="368.55,209.15 366.64,215.93 375.81,214.68 376.88,208.56 		"/>
		<polygon class="st45" points="391.3,203.54 389.02,207.27 393.33,207.97 		"/>
		<polygon class="st45" points="379.92,190.91 384.6,192.97 385.24,190.28 382.21,183.63 375.79,177.51 372.68,179.16 		"/>
		<path class="st45" d="M373.27,164.07l-2.37,12.29l-8.51,3.24l4.36,9.27l-1.12,10.35l-13.64,0.76l9.24,4.4l7.55-0.16l8.1,4.35
			l-1.41-5.27l-3-1.79l-6.84-2.28l5.43-2.59l0.08-2.56l3.22-4l-1.68-10.9c0,0,2.85-4.47,4.32-6.93L373.27,164.07z"/>
		<polygon class="st46" points="351.17,161.04 335.37,153.78 325.63,161.1 322.71,170.83 		"/>
		<polygon class="st47" points="351.17,161.04 335.37,153.78 325.63,161.1 322.71,170.83 		"/>
		<polygon class="st46" points="361.38,138.05 357.45,144.49 360.1,152.48 365.46,154.4 365.94,148.03 		"/>
		<path class="st48" d="M361.39,138.07l-3.92,6.43l2.65,7.97l5.34,1.91l0.48-6.38l0.03,0.06l-0.47,6.36
			c-1.8-0.64-3.59-1.28-5.39-1.93c-0.89-2.66-1.77-5.33-2.66-8l0-0.01l3.94-6.45L361.39,138.07z"/>
		<polygon class="st46" points="344.35,140.94 337.17,137.39 344.88,133.87 		"/>
		<path class="st48" d="M344.34,140.95l-7.19-3.56l0.03-0.02l7.15,3.54l0.53-7.04l0.03-0.01c-0.18,2.37-0.35,4.73-0.53,7.1
			L344.34,140.95z"/>
		<polygon class="st46" points="311.53,160.62 314.6,157.18 313.4,164.71 		"/>
		<polygon class="st48" points="311.53,160.6 314.62,157.12 313.41,164.74 313.39,164.69 314.58,157.23 311.54,160.64 		"/>
		<polygon class="st46" points="346.15,185.29 326.62,189.5 331.94,196.49 348.91,191.04 		"/>
		<polygon class="st47" points="346.15,185.29 326.62,189.5 331.94,196.49 348.91,191.04 		"/>
		<polygon class="st46" points="341.98,222.83 339.66,222.18 337.51,217.47 338.15,214.46 343.18,210.44 344.44,202.97 
			350.38,203.82 351.99,199.98 361.24,204.38 362.29,207.23 359.43,208.88 355.84,208.68 		"/>
		<path class="st48" d="M341.97,222.84l-2.31-0.65l-0.02-0.04l2.32,0.65l13.86-14.15l3.59,0.2l2.85-1.64l-1.05-2.83L352,200
			l-1.61,3.84l-5.94-0.85l-1.26,7.46l-5.02,4.02l-0.65,3.03l-0.02-0.05c0.21-1,0.43-2,0.64-3l5.02-4.02l1.26-7.48l5.94,0.85
			l1.61-3.84c3.09,1.47,6.18,2.94,9.26,4.41c0.35,0.96,0.71,1.91,1.06,2.87c-0.96,0.55-1.92,1.11-2.88,1.66l-3.58-0.2L341.97,222.84
			L341.97,222.84z"/>
		<polygon class="st46" points="365.59,226.47 362,223.8 358.77,223.55 354.02,230.89 353.97,235.01 361.27,231.68 361.05,230.72 
			364.07,229 		"/>
		<path class="st48" d="M365.57,226.47l-3.57-2.66l-3.22-0.25l-4.74,7.33l-0.05,4.1l-0.03,0.01c0.01-1.38,0.03-2.75,0.05-4.13
			c1.59-2.45,3.17-4.9,4.76-7.35c1.08,0.08,2.16,0.17,3.24,0.25l0,0l3.6,2.68c-0.51,0.85-1.02,1.7-1.53,2.55l-3.01,1.72l0.21,0.94
			l-0.03,0.01l-0.22-0.97l3.02-1.73L365.57,226.47z"/>
		<polygon class="st46" points="345.15,232.36 348.32,236.02 346.93,238.09 344.52,232.81 		"/>
		<path class="st48" d="M345.16,232.35l3.18,3.68c-0.47,0.69-0.94,1.39-1.4,2.08l-0.02-0.03l1.38-2.04l-3.15-3.65l-0.62,0.45
			l-0.01-0.03l0.64-0.46L345.16,232.35z"/>
		<polygon class="st46" points="384.6,192.97 386.94,194 385.24,190.28 		"/>
		<polygon class="st48" points="384.62,192.96 386.93,193.98 386.95,194.02 384.58,192.98 385.23,190.25 385.25,190.3 		"/>
		<polygon class="st46" points="375.47,203.29 377.19,192.04 379.92,190.91 372.68,179.16 374.36,190.06 371.13,194.06 
			371.06,196.63 365.63,199.22 372.47,201.5 		"/>
		<polygon class="st47" points="375.47,203.29 377.19,192.04 379.92,190.91 372.68,179.16 374.36,190.06 371.13,194.06 
			371.06,196.63 365.63,199.22 372.47,201.5 		"/>
		<polygon class="st46" points="368.36,153.32 365.46,154.4 370.59,158.2 		"/>
		<polygon class="st48" points="368.36,153.34 365.5,154.4 370.57,158.17 370.6,158.23 365.43,154.39 368.35,153.31 		"/>
	</g>
</g>
<g id="ejemplo">
	<polygon class="st49" points="254.27,31.07 248.42,37.6 245.92,45.1 246,48.52 247.64,51.89 253.18,44 259.26,37.53 256.45,35.07 
		257.08,29.9 	"/>
	<polygon class="st49" points="250.68,26.28 240.61,29.45 232.42,31.07 227.82,35.79 226.65,26.02 235.78,25.12 	"/>
	<polygon class="st49" points="250.21,57.25 238.43,53.89 238.35,49.95 246,48.52 247.64,51.89 250.13,50.92 	"/>
	<polygon class="st49" points="242.41,72.45 242.17,66.43 239.91,66.63 237.73,65.59 225.01,69.99 228.52,72.12 233.67,71.61 
		230.24,77.62 235.31,74.71 237.26,75.68 	"/>
	<polygon class="st49" points="223.76,72.97 225.01,69.99 213.58,72.32 	"/>
	<polygon class="st49" points="262.71,84.45 255.61,82.58 253.5,77.08 258.88,73.33 267.39,78.44 261.38,79.92 	"/>
	<polygon class="st49" points="253.45,91.76 248.7,87.72 254.75,86.65 256.13,82.7 261.28,84 258.65,84.32 256.7,88.07 
		255.11,91.76 	"/>
	<polygon class="st50" points="245.92,45.1 240.69,39.92 243.5,38.57 248.42,37.6 227.82,35.79 238.74,45.87 	"/>
	<polygon class="st50" points="230.13,16.63 235.78,25.12 238.98,22.08 241.16,22.92 240.16,16.63 	"/>
	<polygon class="st50" points="262.85,17.1 260.89,16.63 262.72,16.63 	"/>
	<polygon class="st50" points="211.51,32.81 211.74,38.18 217.83,29.51 216.11,24.08 211.35,28.74 	"/>
	<polygon class="st50" points="226.65,40.51 219.78,40.76 212.29,51.3 218.38,47.3 224.93,47.3 	"/>
	<polygon class="st50" points="237.8,59.71 238.43,53.89 226.63,52.64 228.75,57.45 235.7,61.46 	"/>
	<polygon class="st50" points="222.82,60.74 222.82,59.13 226.63,52.64 224.93,47.3 213.23,58.29 213.69,66.95 	"/>
	<polygon class="st50" points="226.88,86.61 226.92,83.44 228.09,82.37 229.69,82.28 228.95,80.08 230.24,77.62 225.2,79.04 
		221.73,80.95 220.4,86.29 	"/>
	<polygon class="st50" points="242.37,79.5 238.74,78.11 237.06,79.14 234.65,79.34 234.22,81.33 235.12,83.32 236.53,84.45 
		235.35,85.77 236.36,90.04 238.28,91.76 247.41,91.76 248.7,87.72 240.12,87.2 239.77,82.06 	"/>
	<polygon class="st50" points="258.88,73.33 250.92,70.94 248.51,74.1 246.71,76.89 245.54,81.09 249.6,84.45 252.17,83.16 
		250.77,81.99 251,75.85 253.5,77.08 	"/>
	<polygon class="st50" points="262,65.96 262.2,71.32 267.77,73.95 267.77,68.51 267.74,68.25 	"/>
	<polygon class="st51" points="229.3,63.33 222.82,60.74 213.69,66.95 222.12,67.79 225.01,64.3 	"/>
	<polygon class="st51" points="246.71,76.89 243.82,76.5 238.74,78.11 242.37,79.5 239.77,82.06 239.94,84.63 243.67,83.22 
		248.7,87.72 249.6,84.45 245.54,81.09 	"/>
	<polygon class="st51" points="245.54,69.13 242.41,72.45 248.51,74.1 250.92,70.94 	"/>
	<polygon class="st51" points="262.2,71.32 258.88,73.33 267.39,78.44 267.77,77.03 267.77,73.95 	"/>
	<polygon class="st51" points="257.87,61.79 260.21,64.15 262.71,61.27 259.12,53.19 256.7,53.32 	"/>
	<path class="st51" d="M263.56,44.56l-2.11,0.32l-5.07,6.4l-6.25-0.36l0.08,6.34l-3.66,5.54l-8.75-3.08l4.53,4.85l4.77,1.85
		l3.82,4.53l0.62-3.33l-1.37-1.78l-3.63-3.04l4.14-0.06l0.78-1.42l3.16-1.42l2.07-6.56c0,0,5.62-3.27,5.66-3.46
		C262.39,49.66,263.56,44.56,263.56,44.56"/>
	<polygon class="st52" points="248.42,37.6 240.61,29.45 232.42,31.07 227.82,35.79 	"/>
	<polygon class="st53" points="248.42,37.6 240.61,29.45 232.42,31.07 227.82,35.79 	"/>
	<polygon class="st52" points="261.76,27.06 257.08,29.9 256.45,35.07 259.26,37.53 262.07,32.94 266.52,33.72 266.68,29.58 
		264.57,30.35 264.02,27.64 	"/>
	<polygon class="st53" points="261.76,27.06 257.08,29.9 256.45,35.07 259.26,37.53 262.07,32.94 266.52,33.72 266.68,29.58 
		264.57,30.35 264.02,27.64 	"/>
	<polygon class="st52" points="249.9,24.54 242.75,16.63 254.73,16.63 	"/>
	<path d="M249.89,24.54l-7.16-7.91h0.03l7.14,7.89l4.83-7.89h0.02C253.13,19.27,251.52,21.91,249.89,24.54L249.89,24.54z"/>
	<polygon class="st52" points="266.05,20.46 262.85,17.1 262.72,16.63 266.98,16.63 	"/>
	<path d="M266.04,20.47l-3.2-3.36c-0.04-0.16-0.09-0.31-0.13-0.47h0.02l0.13,0.46l3.19,3.35l0.92-3.81h0.02
		c-0.31,1.28-0.62,2.57-0.93,3.85L266.04,20.47z"/>
	<polygon class="st52" points="220.79,16.65 216.11,24.08 211.35,28.74 210.39,23.9 210.39,17.69 	"/>
	<path d="M220.8,16.65l-4.68,7.44c-1.6,1.55-3.18,3.11-4.77,4.67c-0.32-1.6-0.64-3.21-0.96-4.81v-0.1l0.97,4.87l4.75-4.64l4.67-7.42
		l-10.39,1.04v-0.02c3.48-0.35,6.95-0.7,10.43-1.04L220.8,16.65z"/>
	<polygon class="st52" points="217.83,29.51 226.65,26.02 221.11,33.52 221.11,37.4 219.23,38.44 219.78,40.76 212.29,51.3 
		211.74,38.18 	"/>
	<polygon class="st53" points="217.83,29.51 226.65,26.02 221.11,33.52 221.11,37.4 219.23,38.44 219.78,40.76 212.29,51.3 
		211.74,38.18 	"/>
	<polygon class="st52" points="238.35,49.95 224.93,47.3 226.26,52.6 238.43,53.89 	"/>
	<polygon class="st53" points="238.35,49.95 224.93,47.3 226.26,52.6 238.43,53.89 	"/>
	<polygon class="st52" points="225.01,69.99 222.12,67.79 225.01,64.3 229.3,63.33 232.23,59.45 235.7,61.46 237.8,59.71 
		242.33,64.56 242.17,66.43 239.91,66.63 237.73,65.59 	"/>
	<polygon class="st53" points="225.01,69.99 222.12,67.79 225.01,64.3 229.3,63.33 232.23,59.45 235.7,61.46 237.8,59.71 
		242.33,64.56 242.17,66.43 239.91,66.63 237.73,65.59 	"/>
	<polygon class="st52" points="238.74,78.11 237.26,75.68 235.31,74.71 230.24,77.62 228.95,80.08 229.69,82.28 232.58,81.27 
		234.22,81.34 234.68,79.33 237.06,79.14 	"/>
	<polygon class="st53" points="238.74,78.11 237.26,75.68 235.31,74.71 230.24,77.62 228.95,80.08 229.69,82.28 232.58,81.27 
		234.22,81.34 234.68,79.33 237.06,79.14 	"/>
	<polygon class="st52" points="224.27,76.17 225.2,79.04 221.73,80.95 222.47,78.91 213.85,79.3 213.93,78.01 	"/>
	<polygon class="st53" points="224.27,76.17 225.2,79.04 221.73,80.95 222.47,78.91 213.85,79.3 213.93,78.01 	"/>
	<polygon class="st52" points="225.66,91.76 220.4,86.29 213.66,88.61 213.59,91.76 	"/>
	<path d="M225.65,91.76l-5.25-5.46l-6.74,2.32l-0.06,3.14h-0.02c0.02-1.05,0.04-2.1,0.06-3.15c2.25-0.78,4.51-1.55,6.76-2.33l0,0
		l5.27,5.48H225.65z"/>
	<polygon class="st52" points="233.71,91.76 233.71,84.22 235.35,85.77 236.36,90.04 238.28,91.76 	"/>
	<path d="M233.7,91.76v-7.56c0.55,0.52,1.1,1.05,1.66,1.57l1.01,4.27l1.92,1.73h-0.03l-1.91-1.72l-1.01-4.27l-1.62-1.53v7.52H233.7z
		"/>
	<polygon class="st52" points="260.21,64.15 262,65.96 267.77,61.72 267.77,57.88 264.42,54.48 262.71,61.27 	"/>
	<path d="M260.22,64.15l1.78,1.8l5.77-4.24v0.02c-1.92,1.41-3.84,2.83-5.77,4.24L262,65.96l-1.8-1.82l2.5-2.88l1.72-6.8
		c1.12,1.14,2.24,2.27,3.35,3.41v0.03l-3.34-3.4l-1.71,6.78L260.22,64.15z"/>
	<polygon class="st52" points="251.55,67.61 255.84,61.72 257.87,61.79 256.7,53.32 254.63,59.88 251.47,61.3 250.69,62.72 
		246.55,62.79 250.18,65.83 	"/>
	<polygon class="st53" points="251.55,67.61 255.84,61.72 257.87,61.79 256.7,53.32 254.63,59.88 251.47,61.3 250.69,62.72 
		246.55,62.79 250.18,65.83 	"/>
	<polygon class="st52" points="267.77,36.24 265.75,37.96 259.26,37.53 263.56,44.56 262.36,49.86 267.77,46.27 	"/>
	<path d="M267.77,36.25l-2.02,1.72l-6.47-0.43l4.29,7.01l-1.2,5.28l5.4-3.57v0.02c-1.81,1.2-3.62,2.39-5.43,3.59l1.21-5.32
		l-4.31-7.04l6.5,0.43l2.03-1.72V36.25z"/>
	<polygon class="st49" points="134.79,16.52 129.56,22.86 127.32,30.13 127.39,33.46 128.86,36.72 133.81,29.07 139.25,22.79 
		136.74,20.41 137.3,15.39 	"/>
	<polygon class="st49" points="131.58,11.88 122.58,14.95 115.25,16.52 111.14,21.1 110.09,11.63 118.25,10.75 	"/>
	<polygon class="st49" points="131.16,41.92 120.63,38.66 120.56,34.84 127.39,33.46 128.86,36.72 131.09,35.78 	"/>
	<polygon class="st49" points="124.18,56.67 123.97,50.83 121.95,51.02 120,50.02 108.63,54.28 111.77,56.35 116.37,55.85 
		113.3,61.68 117.84,58.86 119.58,59.8 	"/>
	<polygon class="st49" points="107.51,57.17 108.63,54.28 107.5,54.53 107.5,57.17 	"/>
	<polygon class="st49" points="135.07,63.92 134.1,61.16 138.91,57.52 141.15,58.98 141.15,63.92 	"/>
	<polygon class="st50" points="127.32,30.13 122.65,25.11 125.16,23.8 129.56,22.86 111.14,21.1 120.9,30.88 	"/>
	<polygon class="st50" points="115.62,6.46 118.25,10.75 121.11,7.8 123.07,8.62 122.75,6.46 	"/>
	<polygon class="st50" points="110.09,25.68 107.5,25.78 107.5,32.26 108.56,32.26 	"/>
	<polygon class="st50" points="120.07,44.31 120.63,38.66 110.07,37.45 111.97,42.11 118.18,46 	"/>
	<polygon class="st50" points="107.5,42.22 110.07,37.45 108.56,32.26 107.5,33.35 	"/>
	<polygon class="st50" points="112.22,63.92 113.3,61.68 108.8,63.06 107.5,63.84 107.5,63.92 	"/>
	<polygon class="st50" points="124.15,63.5 120.9,62.15 119.4,63.16 117.25,63.35 117.14,63.92 123.76,63.92 	"/>
	<polygon class="st50" points="138.91,57.52 131.8,55.2 129.63,58.27 128.03,60.97 127.27,63.92 131.73,63.92 131.87,59.97 
		134.1,61.16 	"/>
	<polygon class="st51" points="112.46,47.82 107.5,45.67 107.5,50.25 108.63,48.76 	"/>
	<polygon class="st51" points="128.03,60.97 125.45,60.59 120.9,62.15 124.15,63.5 123.76,63.92 127.27,63.92 	"/>
	<polygon class="st51" points="126.98,53.44 124.18,56.67 129.63,58.27 131.8,55.2 	"/>
	<polygon class="st51" points="141.15,56.06 138.91,57.52 141.15,58.98 	"/>
	<polygon class="st51" points="138.01,46.32 140.1,48.61 141.15,47.3 141.15,42.92 139.12,37.98 136.96,38.11 	"/>
	<path class="st51" d="M141.15,30.02l-4.46,6.11l-5.59-0.35l0.07,6.15l-3.27,5.37l-7.82-2.99l4.05,4.7l4.27,1.8l3.42,4.39l0.56-3.23
		l-1.22-1.73l-3.24-2.95l3.7-0.06l0.7-1.38l2.83-1.38l1.85-6.37c0,0,2.74-1.73,4.19-2.71V30.02z"/>
	<polygon class="st52" points="129.56,22.86 122.58,14.95 115.25,16.52 111.14,21.1 	"/>
	<polygon class="st53" points="129.56,22.86 122.58,14.95 115.25,16.52 111.14,21.1 	"/>
	<polygon class="st52" points="141.15,12.85 137.3,15.39 136.74,20.41 139.25,22.79 141.15,19.44 	"/>
	<path d="M141.15,12.87l-3.84,2.53l-0.56,5.01l2.5,2.37l1.9-3.36v0.04l-1.89,3.35c-0.84-0.8-1.68-1.6-2.52-2.4
		c0.18-1.68,0.37-3.35,0.56-5.03l0,0l3.85-2.54V12.87z"/>
	<polygon class="st52" points="130.88,10.18 127.77,6.46 132.98,6.46 	"/>
	<path d="M130.87,10.19l-3.11-3.73h0.02l3.1,3.71l2.09-3.71h0.02C132.29,7.7,131.59,8.95,130.87,10.19L130.87,10.19z"/>
	<polygon class="st52" points="107.5,12.74 110.09,11.63 107.5,15.44 	"/>
	<polygon points="107.5,12.73 110.12,11.61 107.5,15.46 107.5,15.42 110.07,11.65 107.5,12.75 	"/>
	<polygon class="st52" points="120.56,34.84 108.56,32.26 109.74,37.41 120.63,38.66 	"/>
	<polygon class="st53" points="120.56,34.84 108.56,32.26 109.74,37.41 120.63,38.66 	"/>
	<polygon class="st52" points="108.63,54.28 107.5,53.35 107.5,50.25 108.63,48.76 112.46,47.82 115.08,44.06 118.18,46 
		120.07,44.31 124.11,49.01 123.97,50.83 121.95,51.02 120,50.02 	"/>
	<path d="M108.62,54.29l-1.12-0.93v-0.02l1.13,0.94L120,50.01l1.95,1l2.01-0.19l0.14-1.81l-4.04-4.69l-1.88,1.69l-3.1-1.94
		l-2.61,3.76l-3.84,0.94l-1.14,1.49v-0.03c0.37-0.49,0.75-0.98,1.13-1.48l3.84-0.94l2.62-3.77l3.11,1.95l1.89-1.7
		c1.35,1.57,2.7,3.14,4.06,4.72c-0.05,0.61-0.09,1.22-0.14,1.83c-0.68,0.06-1.36,0.13-2.03,0.19l-1.95-1L108.62,54.29L108.62,54.29z
		"/>
	<polygon class="st52" points="120.9,62.15 119.58,59.8 117.84,58.86 113.3,61.68 112.22,63.92 117.15,63.92 117.28,63.35 
		119.4,63.16 	"/>
	<path d="M120.89,62.15l-1.32-2.34l-1.74-0.94l-4.53,2.82l-1.08,2.23h-0.02c0.36-0.75,0.72-1.49,1.08-2.24
		c1.51-0.94,3.03-1.88,4.54-2.83c0.58,0.32,1.17,0.63,1.75,0.94l0,0l1.33,2.36c-0.5,0.34-1.01,0.67-1.51,1.01l-2.12,0.19l-0.12,0.56
		h-0.02l0.13-0.58l2.13-0.19L120.89,62.15z"/>
	<polygon class="st52" points="107.96,60.27 108.8,63.06 107.5,63.84 107.5,60.36 	"/>
	<path d="M107.97,60.27l0.84,2.8c-0.44,0.26-0.88,0.52-1.32,0.78v-0.02l1.29-0.77l-0.83-2.78l-0.46,0.09v-0.02L107.97,60.27
		L107.97,60.27z"/>
	<polygon class="st52" points="140.1,48.61 141.15,49.76 141.15,47.3 	"/>
	<polygon points="140.11,48.61 141.15,49.75 141.15,49.77 140.09,48.61 141.15,47.29 141.15,47.32 	"/>
	<polygon class="st52" points="132.36,51.97 136.19,46.26 138.01,46.32 136.96,38.11 135.11,44.47 132.29,45.85 131.59,47.23 
		127.89,47.3 131.13,50.24 	"/>
	<polygon class="st53" points="132.36,51.97 136.19,46.26 138.01,46.32 136.96,38.11 135.11,44.47 132.29,45.85 131.59,47.23 
		127.89,47.3 131.13,50.24 	"/>
	<polygon class="st52" points="141.15,22.93 139.25,22.79 141.15,26.15 	"/>
	<polygon points="141.15,22.94 139.27,22.8 141.15,26.13 141.15,26.16 139.24,22.78 141.15,22.92 	"/>
	<polygon class="st49" points="190.8,31.46 185.24,37.79 182.87,45.07 182.94,48.4 184.5,51.66 189.76,44 195.55,37.73 
		192.88,35.35 193.47,30.33 	"/>
	<polygon class="st49" points="187.39,26.82 177.82,29.89 170.03,31.46 165.66,36.04 164.54,26.57 173.22,25.69 	"/>
	<polygon class="st49" points="186.95,56.86 175.75,53.6 175.67,49.78 182.94,48.4 184.5,51.66 186.87,50.72 	"/>
	<polygon class="st49" points="179.53,71.61 179.31,65.77 177.15,65.96 175.08,64.96 162.99,69.22 166.32,71.29 171.22,70.79 
		167.96,76.62 172.78,73.8 174.63,74.74 	"/>
	<polygon class="st49" points="161.8,72.11 162.99,69.22 152.12,71.48 	"/>
	<polygon class="st49" points="198.82,83.25 192.07,81.43 190.07,76.1 195.19,72.46 203.28,77.42 197.56,78.86 	"/>
	<polygon class="st49" points="190.03,90.34 185.51,86.42 191.26,85.38 192.57,81.55 197.47,82.81 194.97,83.12 193.11,86.76 
		191.61,90.34 	"/>
	<polygon class="st50" points="182.87,45.07 177.9,40.05 180.57,38.74 185.24,37.79 165.66,36.04 176.04,45.82 	"/>
	<polygon class="st50" points="167.85,17.46 173.22,25.69 176.26,22.74 178.34,23.56 177.39,17.46 	"/>
	<polygon class="st50" points="198.96,17.91 197.1,17.46 198.84,17.46 	"/>
	<polygon class="st50" points="150.15,33.15 150.38,38.36 156.16,29.95 154.53,24.68 150,29.2 	"/>
	<polygon class="st50" points="164.54,40.62 158.02,40.87 150.89,51.09 156.68,47.2 162.91,47.2 	"/>
	<polygon class="st50" points="175.15,59.25 175.75,53.6 164.53,52.39 166.55,57.05 173.15,60.94 	"/>
	<polygon class="st50" points="160.91,60.25 160.91,58.68 164.53,52.39 162.91,47.2 151.79,57.87 152.23,66.27 	"/>
	<polygon class="st50" points="164.77,85.34 164.8,82.27 165.92,81.23 167.44,81.14 166.73,79.01 167.96,76.62 163.17,78 
		159.87,79.85 158.61,85.03 	"/>
	<polygon class="st50" points="179.49,78.44 176.04,77.09 174.45,78.1 172.16,78.29 171.74,80.22 172.6,82.15 173.94,83.25 
		172.82,84.53 173.78,88.67 175.6,90.34 184.28,90.34 185.51,86.42 177.35,85.91 177.02,80.93 	"/>
	<polygon class="st50" points="195.19,72.46 187.62,70.14 185.32,73.21 183.62,75.91 182.51,79.99 186.36,83.25 188.81,81.99 
		187.48,80.87 187.7,74.91 190.07,76.1 	"/>
	<polygon class="st50" points="198.16,65.31 198.34,70.52 203.64,73.06 203.64,67.78 203.61,67.54 	"/>
	<polygon class="st51" points="167.07,62.76 160.91,60.25 152.23,66.27 160.24,67.09 162.99,63.7 	"/>
	<polygon class="st51" points="183.62,75.91 180.87,75.53 176.04,77.09 179.49,78.44 177.02,80.93 177.18,83.42 180.73,82.06 
		185.51,86.42 186.36,83.25 182.51,79.99 	"/>
	<polygon class="st51" points="182.51,68.38 179.53,71.61 185.32,73.21 187.62,70.14 	"/>
	<polygon class="st51" points="198.34,70.52 195.19,72.46 203.28,77.42 203.64,76.05 203.64,73.06 	"/>
	<polygon class="st51" points="194.23,61.26 196.45,63.55 198.82,60.76 195.41,52.92 193.11,53.05 	"/>
	<path class="st51" d="M199.64,44.55l-2,0.31l-4.82,6.21l-5.94-0.35l0.07,6.15l-3.48,5.37l-8.32-2.99l4.3,4.7l4.54,1.8l3.63,4.39
		l0.59-3.23l-1.3-1.73l-3.45-2.95l3.93-0.06l0.74-1.38l3-1.38l1.97-6.37c0,0,5.34-3.17,5.38-3.36
		C198.53,49.5,199.64,44.55,199.64,44.55"/>
	<polygon class="st52" points="185.24,37.79 177.82,29.89 170.03,31.46 165.66,36.04 	"/>
	<polygon class="st53" points="185.24,37.79 177.82,29.89 170.03,31.46 165.66,36.04 	"/>
	<polygon class="st52" points="197.92,27.57 193.47,30.33 192.88,35.35 195.55,37.73 198.22,33.28 202.45,34.03 202.6,30.02 
		200.6,30.77 200.08,28.13 	"/>
	<polygon class="st53" points="197.92,27.57 193.47,30.33 192.88,35.35 195.55,37.73 198.22,33.28 202.45,34.03 202.6,30.02 
		200.6,30.77 200.08,28.13 	"/>
	<polygon class="st52" points="186.65,25.12 179.85,17.46 191.25,17.46 	"/>
	<path d="M186.64,25.13l-6.81-7.67h0.02l6.79,7.65l4.59-7.65h0.02C189.72,20.02,188.19,22.58,186.64,25.13L186.64,25.13z"/>
	<polygon class="st52" points="202,21.17 198.96,17.91 198.84,17.46 202.88,17.46 	"/>
	<path d="M202,21.18l-3.04-3.26c-0.04-0.15-0.08-0.31-0.12-0.46h0.02l0.12,0.45l3.03,3.25l0.87-3.7h0.02
		c-0.29,1.24-0.59,2.49-0.88,3.73L202,21.18z"/>
	<polygon class="st52" points="158.98,17.47 154.53,24.68 150,29.2 149.09,24.51 149.09,18.48 	"/>
	<path d="M158.99,17.48l-4.45,7.21c-1.52,1.5-3.03,3.02-4.54,4.53c-0.3-1.55-0.61-3.11-0.91-4.66v-0.09l0.93,4.72l4.51-4.5l4.44-7.2
		l-9.88,1.01v-0.02c3.3-0.34,6.61-0.68,9.91-1.01L158.99,17.48z"/>
	<polygon class="st52" points="156.16,29.95 164.54,26.57 159.28,33.84 159.28,37.61 157.5,38.61 158.02,40.87 150.89,51.09 
		150.38,38.36 	"/>
	<polygon class="st53" points="156.16,29.95 164.54,26.57 159.28,33.84 159.28,37.61 157.5,38.61 158.02,40.87 150.89,51.09 
		150.38,38.36 	"/>
	<polygon class="st52" points="175.67,49.78 162.91,47.2 164.17,52.35 175.75,53.6 	"/>
	<polygon class="st53" points="175.67,49.78 162.91,47.2 164.17,52.35 175.75,53.6 	"/>
	<polygon class="st52" points="162.99,69.22 160.24,67.09 162.99,63.7 167.07,62.76 169.85,59 173.15,60.94 175.15,59.25 
		179.45,63.95 179.31,65.77 177.15,65.96 175.08,64.96 	"/>
	<polygon class="st53" points="162.99,69.22 160.24,67.09 162.99,63.7 167.07,62.76 169.85,59 173.15,60.94 175.15,59.25 
		179.45,63.95 179.31,65.77 177.15,65.96 175.08,64.96 	"/>
	<polygon class="st52" points="176.04,77.09 174.63,74.74 172.78,73.8 167.96,76.62 166.73,79.01 167.44,81.14 170.18,80.17 
		171.74,80.23 172.18,78.29 174.45,78.1 	"/>
	<polygon class="st53" points="176.04,77.09 174.63,74.74 172.78,73.8 167.96,76.62 166.73,79.01 167.44,81.14 170.18,80.17 
		171.74,80.23 172.18,78.29 174.45,78.1 	"/>
	<polygon class="st52" points="162.28,75.21 163.17,78 159.87,79.85 160.58,77.88 152.38,78.25 152.45,77 	"/>
	<polygon class="st53" points="162.28,75.21 163.17,78 159.87,79.85 160.58,77.88 152.38,78.25 152.45,77 	"/>
	<polygon class="st52" points="163.61,90.34 158.61,85.03 152.19,87.29 152.13,90.34 	"/>
	<path d="M163.6,90.34l-4.99-5.3l-6.4,2.25l-0.06,3.04h-0.02c0.02-1.02,0.04-2.04,0.06-3.06c2.14-0.75,4.29-1.51,6.43-2.26l0,0
		l5.01,5.31H163.6z"/>
	<polygon class="st52" points="171.26,90.34 171.26,83.02 172.82,84.53 173.78,88.67 175.6,90.34 	"/>
	<path d="M171.25,90.34V83c0.52,0.51,1.05,1.02,1.58,1.52l0.96,4.14l1.83,1.67h-0.03l-1.82-1.66l-0.96-4.14l-1.54-1.49v7.29H171.25z
		"/>
	<polygon class="st52" points="196.45,63.55 198.16,65.31 203.64,61.19 203.64,57.47 200.46,54.17 198.82,60.76 	"/>
	<path d="M196.46,63.55l1.69,1.74l5.48-4.11v0.02c-1.83,1.37-3.66,2.74-5.49,4.11l-0.01-0.01l-1.71-1.76l2.38-2.8l1.64-6.6
		c1.06,1.1,2.13,2.2,3.19,3.31v0.03l-3.18-3.29l-1.63,6.57L196.46,63.55z"/>
	<polygon class="st52" points="188.22,66.91 192.3,61.2 194.23,61.26 193.11,53.05 191.15,59.41 188.14,60.79 187.4,62.17 
		183.47,62.23 186.92,65.18 	"/>
	<polygon class="st53" points="188.22,66.91 192.3,61.2 194.23,61.26 193.11,53.05 191.15,59.41 188.14,60.79 187.4,62.17 
		183.47,62.23 186.92,65.18 	"/>
	<polygon class="st52" points="203.64,36.48 201.72,38.15 195.55,37.73 199.64,44.55 198.49,49.69 203.64,46.21 	"/>
	<path d="M203.64,36.49l-1.92,1.67l-6.15-0.41l4.08,6.8l-1.15,5.12l5.14-3.47v0.02c-1.72,1.16-3.44,2.32-5.16,3.48l1.15-5.16
		l-4.1-6.83l6.18,0.42l1.93-1.67V36.49z"/>
	<polygon class="st49" points="302.44,16.52 297.21,22.86 294.98,30.13 295.05,33.46 296.51,36.72 301.47,29.07 306.91,22.79 
		304.4,20.41 304.95,15.39 	"/>
	<polygon class="st49" points="299.23,11.88 290.23,14.95 282.91,16.52 278.79,21.1 277.75,11.63 285.91,10.75 	"/>
	<polygon class="st49" points="298.82,41.92 288.28,38.66 288.21,34.84 295.05,33.46 296.51,36.72 298.75,35.78 	"/>
	<polygon class="st49" points="291.84,56.67 291.63,50.83 289.61,51.02 287.65,50.02 276.28,54.28 279.42,56.35 284.03,55.85 
		280.96,61.68 285.49,58.86 287.23,59.8 	"/>
	<polygon class="st49" points="275.17,57.17 276.28,54.28 275.15,54.53 275.15,57.17 	"/>
	<polygon class="st49" points="302.73,63.92 301.75,61.16 306.57,57.52 308.8,58.98 308.8,63.92 	"/>
	<polygon class="st50" points="294.98,30.13 290.3,25.11 292.82,23.8 297.21,22.86 278.79,21.1 288.56,30.88 	"/>
	<polygon class="st50" points="283.28,6.46 285.91,10.75 288.77,7.8 290.72,8.62 290.4,6.46 	"/>
	<polygon class="st50" points="277.75,25.68 275.15,25.78 275.15,32.26 276.21,32.26 	"/>
	<polygon class="st50" points="287.72,44.31 288.28,38.66 277.73,37.45 279.63,42.11 285.84,46 	"/>
	<polygon class="st50" points="275.15,42.22 277.73,37.45 276.21,32.26 275.15,33.35 	"/>
	<polygon class="st50" points="279.88,63.92 280.96,61.68 276.46,63.06 275.15,63.84 275.15,63.92 	"/>
	<polygon class="st50" points="291.8,63.5 288.56,62.15 287.06,63.16 284.91,63.35 284.79,63.92 291.41,63.92 	"/>
	<polygon class="st50" points="306.57,57.52 299.45,55.2 297.29,58.27 295.69,60.97 294.93,63.92 299.38,63.92 299.52,59.97 
		301.75,61.16 	"/>
	<polygon class="st51" points="280.12,47.82 275.15,45.67 275.15,50.25 276.28,48.76 	"/>
	<polygon class="st51" points="295.69,60.97 293.1,60.59 288.56,62.15 291.8,63.5 291.41,63.92 294.93,63.92 	"/>
	<polygon class="st51" points="294.64,53.44 291.84,56.67 297.29,58.27 299.45,55.2 	"/>
	<polygon class="st51" points="308.8,56.06 306.57,57.52 308.8,58.98 	"/>
	<polygon class="st51" points="305.66,46.32 307.75,48.61 308.8,47.3 308.8,42.92 306.78,37.98 304.61,38.11 	"/>
	<path class="st51" d="M308.8,30.02l-4.46,6.11l-5.59-0.35l0.07,6.15l-3.27,5.37l-7.82-2.99l4.05,4.7l4.27,1.8l3.42,4.39l0.56-3.23
		l-1.22-1.73l-3.24-2.95l3.7-0.06l0.7-1.38l2.83-1.38l1.85-6.37c0,0,2.74-1.73,4.19-2.71V30.02z"/>
	<polygon class="st52" points="297.21,22.86 290.23,14.95 282.91,16.52 278.79,21.1 	"/>
	<polygon class="st53" points="297.21,22.86 290.23,14.95 282.91,16.52 278.79,21.1 	"/>
	<polygon class="st52" points="308.8,12.85 304.95,15.39 304.4,20.41 306.91,22.79 308.8,19.44 	"/>
	<path d="M308.8,12.87l-3.84,2.53l-0.56,5.01l2.5,2.37l1.9-3.36v0.04l-1.89,3.35c-0.84-0.8-1.68-1.6-2.52-2.4
		c0.18-1.68,0.37-3.35,0.56-5.03l0,0l3.85-2.54V12.87z"/>
	<polygon class="st52" points="298.54,10.18 295.43,6.46 300.64,6.46 	"/>
	<path d="M298.53,10.19l-3.11-3.73h0.02l3.1,3.71l2.09-3.71h0.02C299.94,7.7,299.24,8.95,298.53,10.19L298.53,10.19z"/>
	<polygon class="st52" points="275.15,12.74 277.75,11.63 275.15,15.44 	"/>
	<polygon points="275.15,12.73 277.77,11.61 275.15,15.46 275.15,15.42 277.72,11.65 275.15,12.75 	"/>
	<polygon class="st52" points="288.21,34.84 276.21,32.26 277.4,37.41 288.28,38.66 	"/>
	<polygon class="st53" points="288.21,34.84 276.21,32.26 277.4,37.41 288.28,38.66 	"/>
	<polygon class="st52" points="276.28,54.28 275.15,53.35 275.15,50.25 276.28,48.76 280.12,47.82 282.73,44.06 285.84,46 
		287.72,44.31 291.77,49.01 291.63,50.83 289.61,51.02 287.65,50.02 	"/>
	<path d="M276.28,54.29l-1.12-0.93v-0.02l1.13,0.94l11.37-4.27l1.95,1l2.01-0.19l0.14-1.81l-4.04-4.69l-1.88,1.69l-3.1-1.94
		l-2.61,3.76l-3.84,0.94l-1.14,1.49v-0.03c0.37-0.49,0.75-0.98,1.13-1.48l3.84-0.94l2.62-3.77l3.11,1.95l1.89-1.7
		c1.35,1.57,2.7,3.14,4.06,4.72c-0.05,0.61-0.09,1.22-0.14,1.83c-0.68,0.06-1.36,0.13-2.03,0.19l-1.95-1L276.28,54.29L276.28,54.29z
		"/>
	<polygon class="st52" points="288.56,62.15 287.23,59.8 285.49,58.86 280.96,61.68 279.88,63.92 284.81,63.92 284.93,63.35 
		287.06,63.16 	"/>
	<path d="M288.55,62.15l-1.32-2.34l-1.74-0.94l-4.53,2.82l-1.08,2.23h-0.02c0.36-0.75,0.72-1.49,1.08-2.24
		c1.51-0.94,3.03-1.88,4.54-2.83c0.58,0.32,1.17,0.63,1.75,0.94l0,0l1.33,2.36c-0.5,0.34-1.01,0.67-1.51,1.01l-2.12,0.19l-0.12,0.56
		h-0.02l0.13-0.58l2.13-0.19L288.55,62.15z"/>
	<polygon class="st52" points="275.62,60.27 276.46,63.06 275.15,63.84 275.15,60.36 	"/>
	<path d="M275.63,60.27l0.84,2.8c-0.44,0.26-0.88,0.52-1.32,0.78v-0.02l1.29-0.77l-0.83-2.78l-0.46,0.09v-0.02L275.63,60.27
		L275.63,60.27z"/>
	<polygon class="st52" points="307.75,48.61 308.8,49.76 308.8,47.3 	"/>
	<polygon points="307.77,48.61 308.8,49.75 308.8,49.77 307.74,48.61 308.8,47.29 308.8,47.32 	"/>
	<polygon class="st52" points="300.01,51.97 303.85,46.26 305.66,46.32 304.61,38.11 302.77,44.47 299.94,45.85 299.24,47.23 
		295.55,47.3 298.79,50.24 	"/>
	<polygon class="st53" points="300.01,51.97 303.85,46.26 305.66,46.32 304.61,38.11 302.77,44.47 299.94,45.85 299.24,47.23 
		295.55,47.3 298.79,50.24 	"/>
	<polygon class="st52" points="308.8,22.93 306.91,22.79 308.8,26.15 	"/>
	<polygon points="308.8,22.94 306.92,22.8 308.8,26.13 308.8,26.16 306.89,22.78 308.8,22.92 	"/>
</g>
</svg>
