<?xml version="1.0" encoding="utf-8"?>
<!-- Generator: Adobe Illustrator 24.1.3, SVG Export Plug-In . SVG Version: 6.00 Build 0)  -->
<svg version="1.1" xmlns="http://www.w3.org/2000/svg" xmlns:xlink="http://www.w3.org/1999/xlink" x="0px" y="0px"
	 viewBox="0 0 396.75 360" style="enable-background:new 0 0 396.75 360;" xml:space="preserve">
<style type="text/css">
	.st0{clip-path:url(#SVGID_2_);}
	.st1{fill:url(#SVGID_3_);}
	.st2{fill:url(#SVGID_4_);}
	.st3{fill:url(#SVGID_5_);}
	.st4{fill:url(#SVGID_6_);}
	.st5{fill:url(#SVGID_7_);}
	.st6{stroke:#000000;stroke-width:0.1;stroke-miterlimit:10;}
	.st7{clip-path:url(#SVGID_9_);fill:url(#SVGID_10_);}
	.st8{clip-path:url(#SVGID_9_);fill:url(#SVGID_11_);}
	.st9{clip-path:url(#SVGID_9_);fill:url(#SVGID_12_);}
	.st10{clip-path:url(#SVGID_9_);fill:url(#SVGID_13_);}
	.st11{clip-path:url(#SVGID_9_);fill:url(#SVGID_14_);}
	.st12{clip-path:url(#SVGID_9_);}
	.st13{fill:none;}
	.st14{fill-rule:evenodd;clip-rule:evenodd;fill:#FFFFFF;}
	.st15{fill:none;stroke:#231F20;stroke-width:0.5669;stroke-miterlimit:22.9256;}
	.st16{clip-path:url(#SVGID_16_);fill:url(#SVGID_17_);}
	.st17{clip-path:url(#SVGID_19_);fill:url(#SVGID_20_);}
	.st18{clip-path:url(#SVGID_22_);fill:url(#SVGID_23_);}
	.st19{clip-path:url(#SVGID_25_);fill:url(#SVGID_26_);}
	.st20{clip-path:url(#SVGID_28_);fill:url(#SVGID_29_);}
	.st21{fill-rule:evenodd;clip-rule:evenodd;}
	.st22{clip-path:url(#SVGID_31_);fill:url(#SVGID_32_);}
	.st23{clip-path:url(#SVGID_34_);fill:url(#SVGID_35_);}
	.st24{clip-path:url(#SVGID_37_);fill:url(#SVGID_38_);}
	.st25{clip-path:url(#SVGID_40_);fill:url(#SVGID_41_);}
	.st26{clip-path:url(#SVGID_43_);fill:url(#SVGID_44_);}
	.st27{fill:#FFFFFF;}
</style>
<g id="dorso">
	<g>
		<defs>
			<path id="SVGID_1_" d="M234,197.53c1.88,5.06,2.25,17.72,2.25,17.72c1.5,18,3.66,43.13,3.66,43.13
				c2.25,33.75-4.88,70.13-4.88,70.13c-0.45,2.85-1.03,5.25-1.03,5.25c0.88,8.5,18,9.44,18,9.44c32.81,2.75,66.5,0.38,66.5,0.38
				c16-0.31,20.81-3.56,20.81-3.56c4.63-2,5.38-5.56,5.38-5.56c0.38-1-0.56-3.38-0.56-3.38c-3.58-20.83-5.13-36.69-5.13-36.69
				c-1.56-17-0.31-36.38-0.31-36.38c1.5-11.44,2.94-33.5,2.94-33.5c0.94-8.75,1.5-19.19,1.5-19.19c0.56-5.13,1.94-7.78,1.94-7.78
				c3.94-6.03,8.5-22.97,8.5-22.97c2.44-10.94,1.56-28.13,1.56-28.13c-6.81-3.94-16.24-6.58-16.24-6.58
				c-9.56-1.94-20.95-8.54-20.95-8.54c-0.94-0.75-4.81-1.44-4.81-1.44h-43h-3.94c-2.25,0.13-4.56,0.69-4.56,0.69
				c-10.88,6.88-28.88,11.63-28.88,11.63c-4.13,1.38-8.75,3.63-8.75,3.63c-4.25,7.63,2.94,36,2.94,36
				C229.69,190.31,234,197.53,234,197.53z"/>
		</defs>
		<clipPath id="SVGID_2_">
			<use xlink:href="#SVGID_1_"  style="overflow:visible;"/>
		</clipPath>
		<g class="st0">
			<linearGradient id="SVGID_3_" gradientUnits="userSpaceOnUse" x1="242.3779" y1="394.9275" x2="242.3779" y2="232.3269">
				<stop  offset="0" style="stop-color:#000000"/>
				<stop  offset="0.4951" style="stop-color:#060606"/>
				<stop  offset="0.5492" style="stop-color:#191919;stop-opacity:0.8929"/>
				<stop  offset="0.6587" style="stop-color:#4A4A4A;stop-opacity:0.6759"/>
				<stop  offset="0.814" style="stop-color:#989898;stop-opacity:0.3683"/>
				<stop  offset="1" style="stop-color:#FFFFFF;stop-opacity:0"/>
			</linearGradient>
			<path class="st1" d="M248.2,338.14v-57.86c-3.87-0.55-7.76-1.2-11.65-1.9v59.76H248.2z"/>
			<linearGradient id="SVGID_4_" gradientUnits="userSpaceOnUse" x1="265.6724" y1="398.214" x2="265.6724" y2="235.5563">
				<stop  offset="0" style="stop-color:#000000"/>
				<stop  offset="0.4951" style="stop-color:#060606"/>
				<stop  offset="0.5492" style="stop-color:#191919;stop-opacity:0.8929"/>
				<stop  offset="0.6587" style="stop-color:#4A4A4A;stop-opacity:0.6759"/>
				<stop  offset="0.814" style="stop-color:#989898;stop-opacity:0.3683"/>
				<stop  offset="1" style="stop-color:#FFFFFF;stop-opacity:0"/>
			</linearGradient>
			<path class="st2" d="M271.5,338.14v-55.51c-3.87-0.24-7.76-0.57-11.65-0.96v56.47H271.5z"/>
			<linearGradient id="SVGID_5_" gradientUnits="userSpaceOnUse" x1="288.9669" y1="399.6584" x2="288.9669" y2="233.7711">
				<stop  offset="0" style="stop-color:#000000"/>
				<stop  offset="0.4951" style="stop-color:#060606"/>
				<stop  offset="0.5492" style="stop-color:#191919;stop-opacity:0.8929"/>
				<stop  offset="0.6587" style="stop-color:#4A4A4A;stop-opacity:0.6759"/>
				<stop  offset="0.814" style="stop-color:#989898;stop-opacity:0.3683"/>
				<stop  offset="1" style="stop-color:#FFFFFF;stop-opacity:0"/>
			</linearGradient>
			<path class="st3" d="M294.79,338.14v-55.02c-3.87,0.07-7.76,0.08-11.65-0.01v55.02H294.79z"/>
			<linearGradient id="SVGID_6_" gradientUnits="userSpaceOnUse" x1="312.2614" y1="398.277" x2="312.2614" y2="237.6114">
				<stop  offset="0" style="stop-color:#000000"/>
				<stop  offset="0.4951" style="stop-color:#060606"/>
				<stop  offset="0.5492" style="stop-color:#191919;stop-opacity:0.8929"/>
				<stop  offset="0.6587" style="stop-color:#4A4A4A;stop-opacity:0.6759"/>
				<stop  offset="0.814" style="stop-color:#989898;stop-opacity:0.3683"/>
				<stop  offset="1" style="stop-color:#FFFFFF;stop-opacity:0"/>
			</linearGradient>
			<path class="st4" d="M318.08,338.14v-56.41c-3.88,0.39-7.76,0.73-11.65,0.96v55.45H318.08z"/>
			<linearGradient id="SVGID_7_" gradientUnits="userSpaceOnUse" x1="335.5559" y1="394.9836" x2="335.5559" y2="229.8577">
				<stop  offset="0" style="stop-color:#000000"/>
				<stop  offset="0.4951" style="stop-color:#060606"/>
				<stop  offset="0.5492" style="stop-color:#191919;stop-opacity:0.8929"/>
				<stop  offset="0.6587" style="stop-color:#4A4A4A;stop-opacity:0.6759"/>
				<stop  offset="0.814" style="stop-color:#989898;stop-opacity:0.3683"/>
				<stop  offset="1" style="stop-color:#FFFFFF;stop-opacity:0"/>
			</linearGradient>
			<path class="st5" d="M341.38,338.14v-59.7c-3.87,0.71-7.76,1.35-11.65,1.9v57.8H341.38z"/>
			<path class="st6" d="M341.38,338.14h-11.65v-57.8c-3.87,0.55-7.76,1-11.65,1.39v56.41h-11.65v-55.45
				c-3.87,0.23-7.76,0.36-11.65,0.43v55.02h-11.65v-55.02c-3.87-0.08-7.76-0.24-11.65-0.48v55.51h-11.65v-56.47
				c-3.88-0.39-7.76-0.84-11.65-1.39v57.86h-11.65v-59.76c-4.57-0.83-9.15-1.73-13.75-2.77v71.94h132.32v-71.94
				c-4.57,1.06-9.15,1.99-13.75,2.83V338.14z"/>
		</g>
	</g>
	<g id="Capa_2">
	</g>
	<g id="Capa_3">
	</g>
</g>
<g id="frente">
	<g id="Capa_2_copia">
		<g>
			<defs>
				<path id="SVGID_8_" d="M165.09,144.84c-7.22-4.22-11.06-4.59-18.38-6.47s-17.25-7.78-17.25-7.78
					c2.72,13.97-18.84,16.97-18.84,16.97c-15.19,2.06-23.81-1.5-23.81-1.5c-15-5.91-12.38-15.47-12.38-15.47
					c-7.69,5.44-26.63,10.78-26.63,10.78c-7.5,2.16-9,3.66-9,3.66c1.44,4.97,3.44,10.84,3.44,10.84c2.63,8.63,2.88,18.5,2.88,18.5
					c0.5,6.38,2.97,19.5,2.97,19.5l0.28,0.84c1.69,6.19,1.41,17.53,1.41,17.53c0.38,21.28,1.03,29.72,1.03,29.72
					c0.09,6.38,1.13,11.44,1.13,11.44c1.5,22.13,0.19,40.13,0.19,40.13c-2.16,22.78-6.13,41.59-6.38,42.28s-0.25,0.69-0.25,0.69
					c6,5,44.5,7,44.5,7c26.88,2.25,64.63-4.5,64.63-4.5c2.88-0.88,3.63-2.5,3.63-2.5c-10.25-56.25-6.13-83.13-6.13-83.13
					c1.13-7,2-32.5,2-32.5c0.25-3.13,0.13-6.63,0.13-6.63c-0.75-12.75,1.63-20.25,1.63-20.25s1-9.38,4.12-25.29
					C160,168.71,162.56,153.65,165.09,144.84z"/>
			</defs>
			<clipPath id="SVGID_9_">
				<use xlink:href="#SVGID_8_"  style="overflow:visible;"/>
			</clipPath>
			<linearGradient id="SVGID_10_" gradientUnits="userSpaceOnUse" x1="54.0789" y1="313.1851" x2="54.0789" y2="208.766">
				<stop  offset="0" style="stop-color:#000000"/>
				<stop  offset="0.0972" style="stop-color:#101010;stop-opacity:0.9028"/>
				<stop  offset="0.2877" style="stop-color:#3A3A3A;stop-opacity:0.7123"/>
				<stop  offset="0.5527" style="stop-color:#7E7E7E;stop-opacity:0.4473"/>
				<stop  offset="0.879" style="stop-color:#DBDBDB;stop-opacity:0.121"/>
				<stop  offset="1" style="stop-color:#FFFFFF;stop-opacity:0"/>
			</linearGradient>
			<path class="st7" d="M48.09,340.03h11.99V190.74c-3.99,0.57-7.98,1.26-11.99,2V340.03z"/>
			<linearGradient id="SVGID_11_" gradientUnits="userSpaceOnUse" x1="78.05" y1="310.7184" x2="78.05" y2="206.2993">
				<stop  offset="0" style="stop-color:#000000"/>
				<stop  offset="0.0972" style="stop-color:#101010;stop-opacity:0.9028"/>
				<stop  offset="0.2877" style="stop-color:#3A3A3A;stop-opacity:0.7123"/>
				<stop  offset="0.5527" style="stop-color:#7E7E7E;stop-opacity:0.4473"/>
				<stop  offset="0.879" style="stop-color:#DBDBDB;stop-opacity:0.121"/>
				<stop  offset="1" style="stop-color:#FFFFFF;stop-opacity:0"/>
			</linearGradient>
			<path class="st8" d="M72.06,340.03h11.99V188.28c-3.99,0.25-7.98,0.59-11.99,1.01V340.03z"/>
			<linearGradient id="SVGID_12_" gradientUnits="userSpaceOnUse" x1="102.0213" y1="310.1182" x2="102.0213" y2="205.6991">
				<stop  offset="0" style="stop-color:#000000"/>
				<stop  offset="0.0972" style="stop-color:#101010;stop-opacity:0.9028"/>
				<stop  offset="0.2877" style="stop-color:#3A3A3A;stop-opacity:0.7123"/>
				<stop  offset="0.5527" style="stop-color:#7E7E7E;stop-opacity:0.4473"/>
				<stop  offset="0.879" style="stop-color:#DBDBDB;stop-opacity:0.121"/>
				<stop  offset="1" style="stop-color:#FFFFFF;stop-opacity:0"/>
			</linearGradient>
			<path class="st9" d="M96.03,187.77v152.26h11.99V187.76c-1.73-0.03-3.46-0.08-5.19-0.08C100.56,187.67,98.3,187.72,96.03,187.77z
				"/>
			<linearGradient id="SVGID_13_" gradientUnits="userSpaceOnUse" x1="125.9925" y1="310.6555" x2="125.9925" y2="206.2365">
				<stop  offset="0" style="stop-color:#000000"/>
				<stop  offset="0.0972" style="stop-color:#101010;stop-opacity:0.9028"/>
				<stop  offset="0.2877" style="stop-color:#3A3A3A;stop-opacity:0.7123"/>
				<stop  offset="0.5527" style="stop-color:#7E7E7E;stop-opacity:0.4473"/>
				<stop  offset="0.879" style="stop-color:#DBDBDB;stop-opacity:0.121"/>
				<stop  offset="1" style="stop-color:#FFFFFF;stop-opacity:0"/>
			</linearGradient>
			<path class="st10" d="M120,340.03h11.99V189.22c-3.99-0.41-7.98-0.76-11.99-1.01V340.03z"/>
			<linearGradient id="SVGID_14_" gradientUnits="userSpaceOnUse" x1="149.9636" y1="313.1263" x2="149.9636" y2="208.7072">
				<stop  offset="0" style="stop-color:#000000"/>
				<stop  offset="0.0972" style="stop-color:#101010;stop-opacity:0.9028"/>
				<stop  offset="0.2877" style="stop-color:#3A3A3A;stop-opacity:0.7123"/>
				<stop  offset="0.5527" style="stop-color:#7E7E7E;stop-opacity:0.4473"/>
				<stop  offset="0.879" style="stop-color:#DBDBDB;stop-opacity:0.121"/>
				<stop  offset="1" style="stop-color:#FFFFFF;stop-opacity:0"/>
			</linearGradient>
			<path class="st11" d="M143.97,340.03h11.99V192.68c-3.99-0.75-7.98-1.42-11.99-2V340.03z"/>
			<g class="st12">
				<path d="M170.1,193.98c-4.7-1.11-9.42-2.08-14.14-2.96c-3.99-0.74-7.98-1.41-11.99-1.99c-3.99-0.57-7.98-1.05-11.99-1.46
					c-3.99-0.41-7.98-0.76-11.99-1c-3.99-0.24-7.98-0.37-11.99-0.45c-1.73-0.03-3.46-0.08-5.19-0.08c-2.26,0-4.53,0.04-6.79,0.09
					c-3.99,0.09-7.98,0.26-11.99,0.51c-3.99,0.25-7.98,0.59-11.99,1.01c-3.99,0.41-7.98,0.88-11.99,1.45
					c-3.99,0.57-7.98,1.25-11.99,1.99c-4.7,0.86-9.42,1.81-14.14,2.9c-0.04,0.01-0.09,0.02-0.13,0.03l0.13,0.81v154.91H170.1V194.82
					l0.13-0.81C170.19,194,170.14,193.99,170.1,193.98z M60.07,340.03H48.09V192.74c4-0.74,8-1.42,11.99-2V340.03z M84.04,340.03
					H72.06V189.29c4-0.42,8-0.76,11.99-1.01V340.03z M108.01,340.03H96.03V187.77c2.27-0.05,4.53-0.09,6.79-0.09
					c1.73,0,3.46,0.05,5.19,0.08V340.03z M131.99,340.03H120V188.21c4,0.24,8,0.6,11.99,1.01V340.03z M155.96,340.03h-11.99V190.68
					c4,0.58,8,1.26,11.99,2V340.03z"/>
			</g>
		</g>
	</g>
	<g id="Capa_3_copia">
	</g>
</g>
<g id="manga_frente">
	<g>
		<path class="st13" d="M47.35,197.54c-0.04-0.51-0.1-0.74-0.19-0.57C47.25,196.95,47.31,197.16,47.35,197.54z"/>
		<path class="st13" d="M47.25,211.41c0.02-6.4,0.29-12.1,0.1-13.87C47.48,199.41,47.27,205.3,47.25,211.41z"/>
		<path class="st13" d="M42.25,155.88c0,0-2-5.88-3.44-10.84c-4.33,2.99-8.25,7.5-8.25,7.5c-12.47,11.81-13.31,39.28-13.31,39.28
			c-0.19,10.88-1.5,23.34-1.5,23.34c12,6.47,30,6.38,30,6.38c0.84-0.28,0.75-1.97,0.75-1.97c0-4.69,0.75-8.16,0.75-8.16
			c0.02-6.1,0.23-11.99,0.1-13.87c-0.04-0.38-0.1-0.59-0.19-0.57l0.94-3.09c0,0-2.47-13.13-2.97-19.5
			C45.13,174.38,44.88,164.5,42.25,155.88z"/>
		<path class="st13" d="M188.16,215.34c-0.56-9-1.88-29.06-1.88-29.06c-0.4-11.39-3.9-20.74-8.25-27.56
			c-5.86-9.18-12.94-13.88-12.94-13.88c-2.54,8.81-5.09,23.87-5.09,23.87c-3.13,15.91-4.12,25.29-4.12,25.29
			c1.34,2.59,1.06,16.75,1.06,16.75c-0.09,1.22,0.19,3,0.19,3c0.56,4.13,0.38,7.13,0.38,7.13
			C164.16,224.06,188.16,215.34,188.16,215.34z"/>
	</g>
</g>
<g id="manga_dorso">
	<path class="st13" d="M224,145.81c-4.25,7.63,2.94,36,2.94,36c2.75,8.5,7.06,15.72,7.06,15.72c-1-0.16-0.81,0.78-0.81,0.78
		c-1,6.63-0.44,15.5-0.44,15.5c-0.25,2.56-0.51,5.69-0.51,5.69c-0.19,3.31-0.05,4.56-0.05,4.56c-2.06,1.69-6.44,1.56-6.44,1.56
		c-17.63-0.69-24.88-7.5-24.88-7.5c0.44-0.63,0.63-9.75,0.63-9.75c0.44-4.56,0.56-9.69,0.56-9.69l0.38-4.13l0.19-5.06
		c1.44-27.75,15.5-38.25,15.5-38.25C221.06,149,224,145.81,224,145.81z"/>
	<path class="st13" d="M345.14,197.88c1.05-3.45,2.64-5.66,4.1-9.62c1.98-5.36,2.99-10.17,4.32-13.7
		c2.44-10.94,1.56-28.13,1.56-28.13c7.22,6.47,10.78,10.78,10.78,10.78c11.25,17.16,10.13,36.38,10.13,36.38
		c0.66,10.5,1.59,22.88,1.59,22.88c0.28,2.02-1.69,3.33-1.69,3.33c-14.06,6.84-24.98,5.77-24.98,5.77
		c-3.94,0.05-4.55-1.78-4.55-1.78c-0.14-5.11-0.52-9.8-0.52-9.8c-0.09-8.81-0.33-13.78-0.33-13.78
		C345.31,198.4,345.14,197.88,345.14,197.88z"/>
</g>
<g id="ejemplo">
	<rect x="200.64" y="7.65" class="st14" width="55.82" height="72.98"/>
	<rect x="200.64" y="7.65" class="st15" width="55.82" height="72.98"/>
	<g>
		<defs>
			<rect id="SVGID_15_" x="206.44" y="24.84" width="4.91" height="55.79"/>
		</defs>
		<clipPath id="SVGID_16_">
			<use xlink:href="#SVGID_15_"  style="overflow:visible;"/>
		</clipPath>
		<linearGradient id="SVGID_17_" gradientUnits="userSpaceOnUse" x1="208.8927" y1="37.1934" x2="208.8927" y2="74.2383">
			<stop  offset="0" style="stop-color:#000000"/>
			<stop  offset="0.0972" style="stop-color:#101010"/>
			<stop  offset="0.2877" style="stop-color:#3A3A3A"/>
			<stop  offset="0.5527" style="stop-color:#7E7E7E"/>
			<stop  offset="0.879" style="stop-color:#DBDBDB"/>
			<stop  offset="1" style="stop-color:#FFFFFF"/>
		</linearGradient>
		<rect x="206.44" y="24.84" class="st16" width="4.91" height="55.79"/>
	</g>
	<g>
		<defs>
			<rect id="SVGID_18_" x="216.26" y="24.84" width="4.91" height="55.79"/>
		</defs>
		<clipPath id="SVGID_19_">
			<use xlink:href="#SVGID_18_"  style="overflow:visible;"/>
		</clipPath>
		<linearGradient id="SVGID_20_" gradientUnits="userSpaceOnUse" x1="218.7194" y1="37.1934" x2="218.7194" y2="74.2383">
			<stop  offset="0" style="stop-color:#000000"/>
			<stop  offset="0.0972" style="stop-color:#101010"/>
			<stop  offset="0.2877" style="stop-color:#3A3A3A"/>
			<stop  offset="0.5527" style="stop-color:#7E7E7E"/>
			<stop  offset="0.879" style="stop-color:#DBDBDB"/>
			<stop  offset="1" style="stop-color:#FFFFFF"/>
		</linearGradient>
		<rect x="216.26" y="24.84" class="st17" width="4.91" height="55.79"/>
	</g>
	<g>
		<defs>
			<rect id="SVGID_21_" x="226.09" y="24.84" width="4.91" height="55.79"/>
		</defs>
		<clipPath id="SVGID_22_">
			<use xlink:href="#SVGID_21_"  style="overflow:visible;"/>
		</clipPath>
		<linearGradient id="SVGID_23_" gradientUnits="userSpaceOnUse" x1="228.546" y1="37.1934" x2="228.546" y2="74.2383">
			<stop  offset="0" style="stop-color:#000000"/>
			<stop  offset="0.0972" style="stop-color:#101010"/>
			<stop  offset="0.2877" style="stop-color:#3A3A3A"/>
			<stop  offset="0.5527" style="stop-color:#7E7E7E"/>
			<stop  offset="0.879" style="stop-color:#DBDBDB"/>
			<stop  offset="1" style="stop-color:#FFFFFF"/>
		</linearGradient>
		<rect x="226.09" y="24.84" class="st18" width="4.91" height="55.79"/>
	</g>
	<g>
		<defs>
			<rect id="SVGID_24_" x="235.92" y="24.84" width="4.91" height="55.79"/>
		</defs>
		<clipPath id="SVGID_25_">
			<use xlink:href="#SVGID_24_"  style="overflow:visible;"/>
		</clipPath>
		<linearGradient id="SVGID_26_" gradientUnits="userSpaceOnUse" x1="238.3727" y1="37.1934" x2="238.3727" y2="74.2383">
			<stop  offset="0" style="stop-color:#000000"/>
			<stop  offset="0.0972" style="stop-color:#101010"/>
			<stop  offset="0.2877" style="stop-color:#3A3A3A"/>
			<stop  offset="0.5527" style="stop-color:#7E7E7E"/>
			<stop  offset="0.879" style="stop-color:#DBDBDB"/>
			<stop  offset="1" style="stop-color:#FFFFFF"/>
		</linearGradient>
		<rect x="235.92" y="24.84" class="st19" width="4.91" height="55.79"/>
	</g>
	<g>
		<defs>
			<rect id="SVGID_27_" x="245.74" y="24.84" width="4.91" height="55.79"/>
		</defs>
		<clipPath id="SVGID_28_">
			<use xlink:href="#SVGID_27_"  style="overflow:visible;"/>
		</clipPath>
		<linearGradient id="SVGID_29_" gradientUnits="userSpaceOnUse" x1="248.1993" y1="37.1934" x2="248.1993" y2="74.2383">
			<stop  offset="0" style="stop-color:#000000"/>
			<stop  offset="0.0972" style="stop-color:#101010"/>
			<stop  offset="0.2877" style="stop-color:#3A3A3A"/>
			<stop  offset="0.5527" style="stop-color:#7E7E7E"/>
			<stop  offset="0.879" style="stop-color:#DBDBDB"/>
			<stop  offset="1" style="stop-color:#FFFFFF"/>
		</linearGradient>
		<rect x="245.74" y="24.84" class="st20" width="4.91" height="55.79"/>
	</g>
	<path class="st21" d="M200.64,7.65h55.82v47.75c-18.17,3.51-36.77,3.59-55.82,0V7.65z"/>
	<rect x="111.77" y="6.73" class="st21" width="21.72" height="45.98"/>
	<rect x="142.7" y="8.06" class="st14" width="55.82" height="72.98"/>
	<rect x="142.7" y="8.06" class="st15" width="55.82" height="72.98"/>
	<g>
		<defs>
			<rect id="SVGID_30_" x="148.5" y="25.25" width="4.91" height="55.79"/>
		</defs>
		<clipPath id="SVGID_31_">
			<use xlink:href="#SVGID_30_"  style="overflow:visible;"/>
		</clipPath>
		<linearGradient id="SVGID_32_" gradientUnits="userSpaceOnUse" x1="150.9588" y1="37.6004" x2="150.9588" y2="74.6453">
			<stop  offset="0" style="stop-color:#000000"/>
			<stop  offset="0.0972" style="stop-color:#101010"/>
			<stop  offset="0.2877" style="stop-color:#3A3A3A"/>
			<stop  offset="0.5527" style="stop-color:#7E7E7E"/>
			<stop  offset="0.879" style="stop-color:#DBDBDB"/>
			<stop  offset="1" style="stop-color:#FFFFFF"/>
		</linearGradient>
		<rect x="148.5" y="25.25" class="st22" width="4.91" height="55.79"/>
	</g>
	<g>
		<defs>
			<rect id="SVGID_33_" x="158.33" y="25.25" width="4.91" height="55.79"/>
		</defs>
		<clipPath id="SVGID_34_">
			<use xlink:href="#SVGID_33_"  style="overflow:visible;"/>
		</clipPath>
		<linearGradient id="SVGID_35_" gradientUnits="userSpaceOnUse" x1="160.7854" y1="37.6004" x2="160.7854" y2="74.6453">
			<stop  offset="0" style="stop-color:#000000"/>
			<stop  offset="0.0972" style="stop-color:#101010"/>
			<stop  offset="0.2877" style="stop-color:#3A3A3A"/>
			<stop  offset="0.5527" style="stop-color:#7E7E7E"/>
			<stop  offset="0.879" style="stop-color:#DBDBDB"/>
			<stop  offset="1" style="stop-color:#FFFFFF"/>
		</linearGradient>
		<rect x="158.33" y="25.25" class="st23" width="4.91" height="55.79"/>
	</g>
	<g>
		<defs>
			<rect id="SVGID_36_" x="168.16" y="25.25" width="4.91" height="55.79"/>
		</defs>
		<clipPath id="SVGID_37_">
			<use xlink:href="#SVGID_36_"  style="overflow:visible;"/>
		</clipPath>
		<linearGradient id="SVGID_38_" gradientUnits="userSpaceOnUse" x1="170.6121" y1="37.6004" x2="170.6121" y2="74.6453">
			<stop  offset="0" style="stop-color:#000000"/>
			<stop  offset="0.0972" style="stop-color:#101010"/>
			<stop  offset="0.2877" style="stop-color:#3A3A3A"/>
			<stop  offset="0.5527" style="stop-color:#7E7E7E"/>
			<stop  offset="0.879" style="stop-color:#DBDBDB"/>
			<stop  offset="1" style="stop-color:#FFFFFF"/>
		</linearGradient>
		<rect x="168.16" y="25.25" class="st24" width="4.91" height="55.79"/>
	</g>
	<g>
		<defs>
			<rect id="SVGID_39_" x="177.98" y="25.25" width="4.91" height="55.79"/>
		</defs>
		<clipPath id="SVGID_40_">
			<use xlink:href="#SVGID_39_"  style="overflow:visible;"/>
		</clipPath>
		<linearGradient id="SVGID_41_" gradientUnits="userSpaceOnUse" x1="180.4387" y1="37.6004" x2="180.4387" y2="74.6453">
			<stop  offset="0" style="stop-color:#000000"/>
			<stop  offset="0.0972" style="stop-color:#101010"/>
			<stop  offset="0.2877" style="stop-color:#3A3A3A"/>
			<stop  offset="0.5527" style="stop-color:#7E7E7E"/>
			<stop  offset="0.879" style="stop-color:#DBDBDB"/>
			<stop  offset="1" style="stop-color:#FFFFFF"/>
		</linearGradient>
		<rect x="177.98" y="25.25" class="st25" width="4.91" height="55.79"/>
	</g>
	<g>
		<defs>
			<rect id="SVGID_42_" x="187.81" y="25.25" width="4.91" height="55.79"/>
		</defs>
		<clipPath id="SVGID_43_">
			<use xlink:href="#SVGID_42_"  style="overflow:visible;"/>
		</clipPath>
		<linearGradient id="SVGID_44_" gradientUnits="userSpaceOnUse" x1="190.2654" y1="37.6004" x2="190.2654" y2="74.6453">
			<stop  offset="0" style="stop-color:#000000"/>
			<stop  offset="0.0972" style="stop-color:#101010"/>
			<stop  offset="0.2877" style="stop-color:#3A3A3A"/>
			<stop  offset="0.5527" style="stop-color:#7E7E7E"/>
			<stop  offset="0.879" style="stop-color:#DBDBDB"/>
			<stop  offset="1" style="stop-color:#FFFFFF"/>
		</linearGradient>
		<rect x="187.81" y="25.25" class="st26" width="4.91" height="55.79"/>
	</g>
	<path class="st21" d="M142.7,8.06h55.82v21.22c-18.17-3.51-36.77-3.59-55.82,0V8.06z"/>
	<path class="st27" d="M198.47,29.54c-9.07-1.75-18.25-2.65-27.53-2.66c-9.28-0.01-18.67,0.86-28.18,2.66L142.65,29
		c9.54-1.8,18.97-2.68,28.29-2.67c9.32,0.01,18.53,0.91,27.63,2.67L198.47,29.54z"/>
	<rect x="262.11" y="6.73" class="st21" width="21.72" height="45.98"/>
</g>
</svg>
