<?xml version="1.0" encoding="utf-8"?>
<!-- Generator: Adobe Illustrator 17.0.0, SVG Export Plug-In . SVG Version: 6.00 Build 0)  -->
<!DOCTYPE svg PUBLIC "-//W3C//DTD SVG 1.1//EN" "http://www.w3.org/Graphics/SVG/1.1/DTD/svg11.dtd">
<svg version="1.1" id="Capa_1" xmlns="http://www.w3.org/2000/svg" xmlns:xlink="http://www.w3.org/1999/xlink" x="0px" y="0px"
	 width="595.28px" height="841.89px" viewBox="0 0 595.28 841.89" enable-background="new 0 0 595.28 841.89" xml:space="preserve">
<g id="dorso">
	<g>
		<g>
			<defs>
				<path id="SVGID_1_" d="M351.091,447.247c2.821,7.592,3.376,26.587,3.376,26.587c2.251,27.007,5.491,64.712,5.491,64.712
					c3.376,50.638-7.322,105.222-7.322,105.222c-0.675,4.276-1.545,7.877-1.545,7.877c1.32,12.753,27.007,14.164,27.007,14.164
					c49.228,4.126,99.776,0.57,99.776,0.57c24.006-0.465,31.223-5.341,31.223-5.341c6.947-3.001,8.072-8.342,8.072-8.342
					c0.57-1.5-0.84-5.071-0.84-5.071c-5.371-31.253-7.697-55.049-7.697-55.049c-2.341-25.507-0.465-54.584-0.465-54.584
					c2.251-17.164,4.411-50.263,4.411-50.263c1.41-13.128,2.251-28.793,2.251-28.793c0.84-7.697,2.911-11.673,2.911-11.673
					c5.911-9.047,12.753-34.464,12.753-34.464c3.661-16.414,2.341-42.206,2.341-42.206c-10.218-5.912-24.366-9.873-24.366-9.873
					c-14.344-2.911-31.433-12.813-31.433-12.813c-1.41-1.125-7.217-2.161-7.217-2.161h-64.517h-5.912
					c-3.376,0.195-6.842,1.035-6.842,1.035c-16.324,10.323-43.331,17.45-43.331,17.45c-6.197,2.071-13.128,5.446-13.128,5.446
					c-6.377,11.448,4.411,54.014,4.411,54.014C344.625,436.414,351.091,447.247,351.091,447.247z"/>
			</defs>
			<clipPath id="SVGID_2_">
				<use xlink:href="#SVGID_1_"  overflow="visible"/>
			</clipPath>
			<g clip-path="url(#SVGID_2_)">
				<g>
					<rect x="459.419" y="635.867" width="0" height="0"/>
				</g>
			</g>
			<g clip-path="url(#SVGID_2_)">
				<g>
					<rect x="546.134" y="635.867" fill="#FFFFFF" width="0" height="0"/>
				</g>
			</g>
			<path clip-path="url(#SVGID_2_)" d="M463.3,571.97c-0.082-8.069-0.444-16.002-1.004-23.814
				c5.765,1.175,11.531,2.482,17.312,3.923c0.562,7.838,0.928,15.8,1.012,23.898C474.835,574.507,469.066,573.17,463.3,571.97
				 M445.241,592.312c0.539-7.953,0.744-15.771,0.689-23.467c1.194,0.191,2.39,0.386,3.584,0.59c4.58,0.782,9.153,1.65,13.728,2.602
				c0.076,7.701-0.105,15.524-0.62,23.482c-4.596-0.957-9.192-1.83-13.792-2.615C447.634,592.701,446.437,592.504,445.241,592.312
				 M428.559,566.395c-0.019-8.008-0.325-15.882-0.835-23.633c5.756,0.62,11.484,1.374,17.199,2.266
				c0.543,7.783,0.886,15.688,0.947,23.729C440.116,567.833,434.35,567.044,428.559,566.395 M410.156,588.399
				c0.66-7.948,0.976-15.762,1.019-23.448c5.809,0.368,11.579,0.875,17.325,1.517c0.017,7.69-0.233,15.505-0.82,23.452
				C421.87,589.273,416.032,588.765,410.156,588.399 M390.304,604.803c0.912-5.736,1.621-11.401,2.157-16.999
				c5.925,0.083,11.796,0.307,17.63,0.67c-0.568,6.825-1.392,13.749-2.517,20.781c-0.136,0.848-0.278,1.7-0.422,2.553
				c-5.938-0.333-11.916-0.521-17.951-0.562C389.597,609.088,389.965,606.939,390.304,604.803 M374.644,587.901
				c0.887-7.967,1.411-15.795,1.642-23.498c5.862-0.181,11.664-0.226,17.416-0.138c-0.125,7.69-0.533,15.507-1.292,23.458
				C386.543,587.643,380.626,587.701,374.644,587.901 M355.65,595.867c0.361-2.301,0.689-4.591,0.986-6.87
				c6.051-0.478,12.028-0.814,17.942-1.013c-0.455,4.075-1.003,8.186-1.658,12.334c-0.586,3.719-1.258,7.467-2.019,11.246
				c-6.076,0.251-12.221,0.647-18.446,1.189C353.722,607.055,354.78,601.428,355.65,595.867 M520.772,674.972
				c1.449-4.717,2.745-9.385,3.897-14.011c1.537,0.554,3.076,1.117,4.62,1.687v12.324H520.772z M529.218,638.737
				c0.023-0.149,0.047-0.298,0.071-0.448v0.473L529.218,638.737z M514.691,609.825c0.564-7.942,0.792-15.752,0.762-23.441
				c4.584,1.543,9.194,3.164,13.836,4.861v23.718C524.389,613.164,519.526,611.451,514.691,609.825 M511.593,636.076
				c0.182-1.088,0.356-2.173,0.522-3.254c5.637,1.873,11.31,3.864,17.034,5.971c-0.092,0.577-0.188,1.155-0.286,1.733
				c-1.123,6.685-2.521,13.463-4.231,20.339c-5.682-2.046-11.317-3.979-16.917-5.796
				C509.267,648.654,510.549,642.324,511.593,636.076 M484.357,671.865c2.443-7.425,4.499-14.734,6.214-21.935
				c5.662,1.608,11.347,3.342,17.068,5.196c-1.581,6.524-3.445,13.138-5.623,19.845h-6.718
				C491.64,673.884,487.994,672.849,484.357,671.865 M494.933,627.364c1.163-7.772,1.963-15.418,2.465-22.945
				c5.711,1.697,11.45,3.521,17.231,5.465c-0.534,7.495-1.365,15.105-2.558,22.841C506.323,630.816,500.615,629.028,494.933,627.364
				 M464.48,674.972c0.883-2.456,1.723-4.899,2.523-7.33c5.746,1.296,11.499,2.723,17.272,4.282
				c-0.334,1.014-0.675,2.03-1.022,3.048H464.48z M480.066,599.557c0.511-7.957,0.69-15.783,0.613-23.485
				c5.756,1.461,11.527,3.054,17.327,4.776c0.062,7.7-0.132,15.522-0.66,23.475C491.561,602.605,485.806,601.017,480.066,599.557
				 M476.939,627.141c0.242-1.471,0.469-2.936,0.686-4.399c5.728,1.43,11.471,2.993,17.24,4.682
				c-0.208,1.387-0.425,2.775-0.656,4.168c-0.995,6.005-2.212,12.085-3.678,18.247c-5.764-1.636-11.504-3.142-17.232-4.519
				C474.75,639.181,475.955,633.122,476.939,627.141 M449.451,664.015c2.51-7.59,4.615-15.059,6.366-22.411
				c5.801,1.124,11.598,2.384,17.407,3.778c-1.721,7.277-3.791,14.665-6.257,22.172
				C461.126,666.236,455.292,665.054,449.451,664.015 M460.227,618.717c1.161-7.829,1.955-15.528,2.448-23.107
				c5.769,1.203,11.541,2.541,17.329,4.013c-0.487,7.554-1.273,15.227-2.424,23.028
				C471.786,621.205,466.006,619.894,460.227,618.717 M426.594,674.972c1.808-4.581,3.466-9.119,4.98-13.615
				c5.071,0.651,10.127,1.405,15.174,2.267c0.873,0.149,1.746,0.3,2.619,0.456c-1.193,3.603-2.477,7.233-3.858,10.892H426.594z
				 M442.286,618.206c0.138-0.857,0.271-1.711,0.401-2.564c1.817,0.283,3.63,0.579,5.444,0.888c4.012,0.684,8.02,1.437,12.027,2.252
				c-0.191,1.289-0.39,2.579-0.603,3.874c-1.014,6.203-2.263,12.488-3.779,18.859c-2.775-0.538-5.552-1.044-8.331-1.518
				c-3.086-0.525-6.174-1.011-9.268-1.458C439.845,631.662,441.201,624.886,442.286,618.206 M413.44,659.414
				c2.69-7.775,4.954-15.418,6.842-22.94c5.966,0.565,11.9,1.279,17.816,2.133c-1.804,7.436-3.976,14.989-6.561,22.666
				C425.533,660.504,419.505,659.883,413.44,659.414 M425.035,613.256c1.254-7.88,2.132-15.628,2.698-23.249
				c5.837,0.651,11.647,1.445,17.446,2.375c-0.517,7.6-1.343,15.321-2.538,23.174C436.789,614.647,430.925,613.881,425.035,613.256
				 M402.181,635.14c2.069-7.881,3.722-15.63,5.017-23.251c5.959,0.334,11.876,0.816,17.766,1.439
				c-0.02,0.13-0.041,0.262-0.062,0.392c-1.197,7.436-2.733,14.989-4.659,22.67C414.258,635.825,408.243,635.407,402.181,635.14
				 M388.42,674.972c2.383-5.544,4.539-11.023,6.488-16.437c6.196,0.161,12.338,0.48,18.443,0.952
				c-1.77,5.105-3.722,10.265-5.874,15.485H388.42z M376.036,658.442c3.012-7.993,5.565-15.848,7.717-23.572
				c6.172-0.037,12.282,0.079,18.346,0.346c-2.003,7.618-4.395,15.362-7.228,23.238C388.652,658.293,382.38,658.286,376.036,658.442
				 M365.039,635.356c2.392-8.042,4.342-15.945,5.908-23.715c6.124-0.253,12.179-0.358,18.18-0.317
				c-1.416,7.689-3.202,15.51-5.414,23.465C377.552,634.827,371.334,635.013,365.039,635.356 M349.963,674.972
				c2.426-5.223,4.651-10.387,6.687-15.495c6.511-0.479,12.936-0.798,19.292-0.955c-2.045,5.419-4.301,10.902-6.783,16.449H349.963z
				 M343.316,644.57c0.904-2.56,1.761-5.104,2.574-7.636c6.439-0.653,12.788-1.15,19.061-1.494c-2.339,7.85-5.1,15.834-8.337,23.96
				c-4.392,0.324-8.824,0.723-13.298,1.196V644.57z M343.316,613.731c3.04-0.33,6.059-0.628,9.059-0.89
				c-1.753,7.866-3.909,15.871-6.524,24.018c-0.843,0.084-1.688,0.174-2.535,0.264V613.731z M343.316,566.79
				c5.17-0.58,10.281-1.062,15.339-1.444c-0.361,7.726-1.027,15.58-2.069,23.576c-4.383,0.346-8.804,0.765-13.271,1.259V566.79z
				 M393.763,564.187c0.128-7.958-0.044-15.784-0.438-23.485c5.755,0.071,11.46,0.278,17.127,0.616
				c0.461,7.724,0.71,15.57,0.666,23.551C405.374,564.507,399.593,564.278,393.763,564.187 M358.718,565.261
				c0.368-7.941,0.415-15.748,0.214-23.429c5.783-0.442,11.496-0.757,17.153-0.946c0.306,7.687,0.382,15.496,0.144,23.441
				C370.456,564.507,364.622,564.817,358.718,565.261 M498.064,580.785c-0.067-8.116-0.42-16.097-0.969-23.955
				c5.774,1.691,11.574,3.511,17.417,5.458c0.524,7.87,0.848,15.865,0.883,23.994C509.581,584.326,503.808,582.49,498.064,580.785"
				/>
			<path clip-path="url(#SVGID_2_)" d="M528.65,354.936l0.541,0.796l-0.002-1.248C529.01,354.635,528.83,354.786,528.65,354.936"/>
			<path clip-path="url(#SVGID_2_)" d="M505.918,351.254c3.352,4.854,6.677,9.704,9.976,14.542c4.139-3.632,8.35-7.263,12.66-10.879
				c-2.057-3.02-4.126-6.045-6.206-9.071h-10.203C510.045,347.647,507.971,349.45,505.918,351.254"/>
			<path clip-path="url(#SVGID_2_)" d="M503.39,377.022c3.307,4.843,6.591,9.674,9.853,14.482c4.125-3.663,8.288-7.349,12.516-11.04
				c-3.264-4.835-6.556-9.69-9.876-14.56C511.651,369.618,507.495,373.33,503.39,377.022"/>
			<path clip-path="url(#SVGID_2_)" d="M483.296,347.91c3.377,4.83,6.73,9.662,10.06,14.489c4.083-3.711,8.23-7.437,12.466-11.16
				c-1.241-1.798-2.485-3.596-3.734-5.392H485.56C484.802,346.534,484.048,347.222,483.296,347.91"/>
			<path clip-path="url(#SVGID_2_)" d="M480.987,373.823c3.316,4.809,6.612,9.61,9.887,14.397c1.613-1.455,3.229-2.916,4.852-4.383
				c2.508-2.266,5.03-4.544,7.57-6.831c-3.293-4.821-6.609-9.657-9.948-14.498c-4.066,3.694-8.072,7.372-12.038,11.018
				L480.987,373.823z"/>
			<path clip-path="url(#SVGID_2_)" d="M461.48,345.846c3.159,4.471,6.3,8.949,9.424,13.429c4.039-3.768,8.128-7.567,12.297-11.38
				c-0.478-0.683-0.956-1.366-1.435-2.049H461.48z"/>
			<path clip-path="url(#SVGID_2_)" d="M458.633,370.822c3.315,4.768,6.614,9.535,9.896,14.294
				c4.101-3.716,8.212-7.493,12.364-11.308c-3.313-4.804-6.644-9.615-9.997-14.423c-1.353,1.263-2.702,2.522-4.045,3.776
				C464.094,365.735,461.358,368.292,458.633,370.822"/>
			<path clip-path="url(#SVGID_2_)" d="M441.066,345.846c2.497,3.502,4.983,7.012,7.457,10.527c1.27-1.204,2.544-2.414,3.824-3.628
				c2.407-2.286,4.832-4.588,7.279-6.899H441.066z"/>
			<path clip-path="url(#SVGID_2_)" d="M436.305,367.958c3.309,4.718,6.602,9.441,9.881,14.164
				c4.111-3.697,8.218-7.477,12.351-11.313c-3.324-4.779-6.665-9.555-10.023-14.324
				C444.416,360.371,440.355,364.204,436.305,367.958"/>
			<path clip-path="url(#SVGID_2_)" d="M343.954,354.936l-0.542,0.796l0.002-1.248C343.595,354.635,343.775,354.786,343.954,354.936
				"/>
			<path clip-path="url(#SVGID_2_)" d="M346.75,380.482c-0.793,1.173-1.583,2.347-2.373,3.517c-0.34,0.498-0.681,0.997-1.021,1.495
				l0.014-7.95C344.503,378.522,345.629,379.502,346.75,380.482"/>
			<path clip-path="url(#SVGID_2_)" d="M366.687,351.254c-3.351,4.854-6.677,9.704-9.976,14.542
				c-4.138-3.632-8.35-7.263-12.66-10.879c2.057-3.02,4.126-6.045,6.206-9.071h10.203
				C362.559,347.647,364.634,349.45,366.687,351.254"/>
			<path clip-path="url(#SVGID_2_)" d="M369.214,377.022c-3.307,4.843-6.592,9.674-9.852,14.482
				c-4.125-3.663-8.289-7.349-12.517-11.04c3.265-4.835,6.556-9.69,9.876-14.56C360.953,369.618,365.11,373.33,369.214,377.022"/>
			<path clip-path="url(#SVGID_2_)" d="M389.308,347.91c-3.377,4.83-6.73,9.662-10.06,14.489c-4.083-3.711-8.229-7.437-12.466-11.16
				c1.242-1.798,2.486-3.596,3.734-5.392h16.528C387.803,346.534,388.557,347.222,389.308,347.91"/>
			<path clip-path="url(#SVGID_2_)" d="M391.618,373.823c-3.315,4.809-6.611,9.61-9.886,14.397c-1.614-1.455-3.23-2.916-4.852-4.383
				c-2.509-2.266-5.031-4.544-7.57-6.831c3.293-4.821,6.609-9.657,9.948-14.498c4.066,3.694,8.072,7.372,12.038,11.018
				L391.618,373.823z"/>
			<path clip-path="url(#SVGID_2_)" d="M411.124,345.846c-3.158,4.471-6.3,8.949-9.424,13.429
				c-4.039-3.768-8.127-7.567-12.296-11.38c0.477-0.683,0.955-1.366,1.434-2.049H411.124z"/>
			<path clip-path="url(#SVGID_2_)" d="M413.973,370.822c-3.316,4.768-6.615,9.535-9.896,14.294
				c-4.101-3.716-8.213-7.493-12.364-11.308c3.312-4.804,6.644-9.615,9.996-14.423c1.353,1.263,2.703,2.522,4.045,3.776
				C408.51,365.735,411.247,368.292,413.973,370.822"/>
			<path clip-path="url(#SVGID_2_)" d="M431.539,345.846c-2.496,3.502-4.982,7.012-7.457,10.527
				c-1.27-1.204-2.544-2.414-3.824-3.628c-2.407-2.286-4.832-4.588-7.279-6.899H431.539z"/>
			<path clip-path="url(#SVGID_2_)" d="M436.299,367.958c-3.308,4.718-6.602,9.441-9.881,14.164
				c-4.112-3.697-8.219-7.477-12.351-11.313c3.323-4.779,6.664-9.555,10.023-14.324C428.188,360.371,432.25,364.204,436.299,367.958
				"/>
		</g>
	</g>
	<g id="Capa_2">
	</g>
	<g id="Capa_3">
	</g>
</g>
<g id="frente">
	<g id="Capa_2_copia">
		<g>
			<g>
				<defs>
					<path id="SVGID_3_" d="M247.7,368.191c-10.833-6.332-16.594-6.887-27.577-9.708c-10.983-2.821-25.882-11.673-25.882-11.673
						c4.081,20.96-28.267,25.462-28.267,25.462c-22.791,3.091-35.724-2.251-35.724-2.251c-22.506-8.867-18.575-23.211-18.575-23.211
						c-11.538,8.162-39.955,16.174-39.955,16.174c-11.253,3.241-13.504,5.491-13.504,5.491c2.161,7.457,5.161,16.264,5.161,16.264
						c3.946,12.948,4.321,27.757,4.321,27.757c0.75,9.572,4.456,29.258,4.456,29.258l0.42,1.26
						c2.536,9.287,2.116,26.302,2.116,26.302c0.57,31.928,1.545,44.592,1.545,44.592c0.135,9.573,1.695,17.164,1.695,17.164
						c2.251,33.204,0.285,60.211,0.285,60.211c-3.241,34.179-9.197,62.401-9.572,63.437s-0.375,1.035-0.375,1.035
						c9.002,7.502,66.767,10.503,66.767,10.503c40.33,3.376,96.97-6.752,96.97-6.752c4.321-1.32,5.446-3.751,5.446-3.751
						c-15.379-84.397-9.197-124.727-9.197-124.727c1.695-10.503,3.001-48.763,3.001-48.763c0.375-4.696,0.195-9.948,0.195-9.948
						c-1.125-19.13,2.446-30.383,2.446-30.383s1.5-14.074,6.182-37.945C240.063,404.006,243.904,381.41,247.7,368.191z"/>
				</defs>
				<clipPath id="SVGID_4_">
					<use xlink:href="#SVGID_3_"  overflow="visible"/>
				</clipPath>
				<rect x="321.135" y="357.445" clip-path="url(#SVGID_4_)" width="27.122" height="84.602"/>
				<rect x="382.14" y="340.445" clip-path="url(#SVGID_4_)" width="34.799" height="46.226"/>
				<rect x="382.14" y="607.445" clip-path="url(#SVGID_4_)" width="34.799" height="72.226"/>
				<rect x="452.75" y="607.445" clip-path="url(#SVGID_4_)" width="34.799" height="72.226"/>
				<rect x="451.41" y="340.445" clip-path="url(#SVGID_4_)" width="34.799" height="46.226"/>
				<rect x="520.68" y="340.445" clip-path="url(#SVGID_4_)" width="34.799" height="117.222"/>
				<g clip-path="url(#SVGID_4_)">
					<g>
						<polygon fill="#231F20" points="98.629,367.94 98.65,367.964 98.629,367.94 						"/>
						<rect x="98.629" y="446.911" fill="#FFFFFF" width="0" height="0"/>
						<rect x="98.629" y="420.587" fill="#FFFFFF" width="0" height="0"/>
						<polygon fill="#FFFFFF" points="98.629,394.264 98.629,394.264 98.629,394.263 						"/>
						<polygon fill="#FFFFFF" points="98.629,367.94 98.629,367.94 98.629,367.94 						"/>
						<polygon fill="#FFFFFF" points="98.629,420.587 98.629,420.588 98.629,420.588 						"/>
						<rect x="98.629" y="420.587" fill="#FFFFFF" width="0" height="0"/>
						<rect x="98.629" y="394.264" fill="#FFFFFF" width="0" height="0"/>
						<polygon fill="#FFFFFF" points="98.629,394.264 98.629,394.264 98.629,394.264 						"/>
						<rect x="98.629" y="367.94" fill="#FFFFFF" width="0" height="0"/>
						<polygon fill="#FFFFFF" points="98.629,367.94 98.629,367.94 98.629,367.94 						"/>
					</g>
					<g>
						<polygon fill="#231F20" points="98.629,651.105 98.65,651.081 98.629,651.105 						"/>
						<rect x="98.629" y="572.134" fill="#FFFFFF" width="0" height="0"/>
						<rect x="98.629" y="598.458" fill="#FFFFFF" width="0" height="0"/>
						<polygon fill="#FFFFFF" points="98.629,624.782 98.629,624.782 98.629,624.782 						"/>
						<polygon fill="#FFFFFF" points="98.629,651.106 98.629,651.105 98.629,651.106 						"/>
						<polygon fill="#FFFFFF" points="98.629,598.458 98.629,598.458 98.629,598.458 						"/>
						<rect x="98.629" y="598.458" fill="#FFFFFF" width="0" height="0"/>
						<rect x="98.629" y="624.781" fill="#FFFFFF" width="0" height="0"/>
						<polygon fill="#FFFFFF" points="98.629,624.782 98.629,624.781 98.629,624.782 						"/>
						<rect x="98.629" y="651.105" fill="#FFFFFF" width="0" height="0"/>
						<polygon fill="#FFFFFF" points="98.629,651.105 98.629,651.105 98.629,651.105 						"/>
					</g>
				</g>
				<g clip-path="url(#SVGID_4_)">
					<g>
						<polygon fill="#231F20" points="143.714,367.94 143.735,367.964 143.714,367.94 						"/>
						<rect x="143.714" y="446.911" fill="#FFFFFF" width="0" height="0"/>
						<rect x="143.714" y="420.587" fill="#FFFFFF" width="0" height="0"/>
						<polygon fill="#FFFFFF" points="143.713,394.264 143.714,394.264 143.714,394.263 						"/>
						<polygon fill="#FFFFFF" points="143.713,367.94 143.714,367.94 143.714,367.94 						"/>
						<polygon fill="#FFFFFF" points="143.714,420.587 143.714,420.588 143.714,420.588 						"/>
						<rect x="143.714" y="420.587" fill="#FFFFFF" width="0" height="0"/>
						<rect x="143.714" y="394.264" fill="#FFFFFF" width="0" height="0"/>
						<polygon fill="#FFFFFF" points="143.714,394.264 143.714,394.264 143.714,394.264 						"/>
						<rect x="143.714" y="367.94" fill="#FFFFFF" width="0" height="0"/>
						<polygon fill="#FFFFFF" points="143.714,367.94 143.714,367.94 143.714,367.94 						"/>
					</g>
					<g>
						<polygon fill="#231F20" points="143.714,651.105 143.735,651.081 143.714,651.105 						"/>
						<rect x="143.714" y="572.134" fill="#FFFFFF" width="0" height="0"/>
						<rect x="143.714" y="598.458" fill="#FFFFFF" width="0" height="0"/>
						<polygon fill="#FFFFFF" points="143.713,624.782 143.714,624.782 143.714,624.782 						"/>
						<polygon fill="#FFFFFF" points="143.713,651.106 143.714,651.105 143.714,651.106 						"/>
						<polygon fill="#FFFFFF" points="143.714,598.458 143.714,598.458 143.714,598.458 						"/>
						<rect x="143.714" y="598.458" fill="#FFFFFF" width="0" height="0"/>
						<rect x="143.714" y="624.781" fill="#FFFFFF" width="0" height="0"/>
						<polygon fill="#FFFFFF" points="143.714,624.782 143.714,624.781 143.714,624.782 						"/>
						<rect x="143.714" y="651.105" fill="#FFFFFF" width="0" height="0"/>
						<polygon fill="#FFFFFF" points="143.714,651.105 143.714,651.105 143.714,651.105 						"/>
					</g>
				</g>
				<path clip-path="url(#SVGID_4_)" d="M76.769,394.767c-2.769-6.682-6.023-13.108-9.858-19.224
					c-3.342,1.95-6.684,3.945-10.028,5.99v15.998c1.123,2.342,2.179,4.72,3.172,7.131C65.63,401.23,71.196,397.934,76.769,394.767
					 M83.859,365.987c-3.846-6.147-8.28-11.978-13.396-17.437c-4.529,2.533-9.053,5.153-13.58,7.861v5.378
					c3.73,4.347,7.064,8.908,10.046,13.658C72.567,372.16,78.205,369.005,83.859,365.987 M100.786,406.61
					c-1.884-7.232-4.164-14.266-6.941-21.042c-5.679,2.943-11.337,6.023-16.992,9.235c2.785,6.731,5.078,13.721,6.975,20.91
					C89.467,412.544,95.116,409.511,100.786,406.61 M111.152,376.965c-2.75-6.862-5.999-13.469-9.854-19.751
					c-5.806,2.799-11.582,5.732-17.341,8.804c3.865,6.187,7.139,12.692,9.915,19.453c5.142-2.663,10.298-5.219,15.482-7.664
					C109.953,377.523,110.554,377.244,111.152,376.965 M119.073,349.037c-0.929-1.564-1.894-3.109-2.897-4.635H92.274
					c3.335,4.068,6.339,8.313,9.045,12.719c1.115-0.539,2.231-1.073,3.349-1.6C109.444,353.268,114.243,351.108,119.073,349.037
					 M135.396,390.698c-1.771-7.353-3.928-14.514-6.582-21.423c-5.904,2.444-11.757,5.021-17.575,7.732
					c2.734,6.836,4.973,13.929,6.815,21.219C123.794,395.587,129.569,393.077,135.396,390.698 M146.686,362.264
					c-2.234-6.159-4.847-12.126-7.901-17.862h-8.263c-3.805,1.504-7.587,3.061-11.349,4.673c3.796,6.402,6.988,13.122,9.674,20.105
					C134.737,366.744,140.678,364.437,146.686,362.264 M156.912,406.53c-1.009-7.633-2.287-15.144-3.935-22.474
					c-5.894,2.106-11.725,4.336-17.504,6.693c1.755,7.297,3.127,14.783,4.214,22.396
					C145.375,410.818,151.112,408.613,156.912,406.53 M183.108,350.919c-0.669-2.194-1.38-4.366-2.135-6.517h-20.589
					c1.657,3.835,3.145,7.754,4.486,11.75C170.867,354.286,176.942,352.542,183.108,350.919 M191.647,395.711
					c-0.804-7.648-1.842-15.199-3.206-22.595c-5.986,1.566-11.888,3.244-17.715,5.038c1.517,7.366,2.683,14.9,3.596,22.545
					C180.023,398.927,185.794,397.265,191.647,395.711 M206.237,368.771c-1.227-7.564-2.765-14.985-4.72-22.199
					c-6.204,1.354-12.309,2.823-18.326,4.405c2.175,7.148,3.903,14.518,5.295,22.048C194.318,371.5,200.23,370.083,206.237,368.771
					 M210.578,414.469c-0.369-7.685-0.85-15.344-1.534-22.921c-5.862,1.307-11.634,2.713-17.33,4.223
					c0.796,7.585,1.366,15.263,1.801,22.983C199.126,417.226,204.809,415.798,210.578,414.469 M200.981,344.402
					c0.197,0.692,0.388,1.386,0.578,2.081c3.322-0.725,6.672-1.419,10.055-2.081H200.981z M226.403,387.948
					c-0.577-7.628-1.335-15.189-2.365-22.628c-6.006,1.074-11.912,2.245-17.73,3.514c1.2,7.421,2.098,14.98,2.789,22.623
					C214.778,390.193,220.545,389.024,226.403,387.948 M241.763,362.399c-0.704-6.078-1.571-12.085-2.647-17.997h-18.789
					c1.554,6.803,2.78,13.762,3.761,20.832C229.885,364.199,235.773,363.256,241.763,362.399 M244.76,407.921
					c-0.255-7.602-0.57-15.207-1.034-22.761c-5.845,0.865-11.596,1.818-17.257,2.856c0.572,7.567,0.965,15.199,1.274,22.848
					C233.328,409.796,238.998,408.815,244.76,407.921 M241.833,362.468c0.861,7.449,1.479,15.002,1.948,22.606
					c1.686-0.249,3.379-0.492,5.082-0.726v-22.834C246.503,361.819,244.16,362.137,241.833,362.468 M122.441,420.649
					c-1.149-7.596-2.591-15.057-4.426-22.323c-1.319,0.607-2.638,1.219-3.953,1.84c-4.418,2.084-8.816,4.249-13.201,6.49
					c1.884,7.244,3.369,14.687,4.557,22.269c4.422-2.262,8.856-4.444,13.31-6.546C119.964,421.795,121.202,421.22,122.441,420.649
					 M61.407,552.533c-0.402-7.069-0.716-14.231-1.016-21.435c-1.168,0.79-2.338,1.585-3.508,2.386v25.432
					c1.573-1.094,3.142-2.176,4.709-3.249C61.528,554.623,61.465,553.576,61.407,552.533 M59.299,506.314
					c-0.416-8.109-0.925-16.206-1.636-24.222c-0.259,0.172-0.52,0.344-0.78,0.516v25.324
					C57.689,507.39,58.494,506.851,59.299,506.314 M80.192,568.676c-0.846-8.068-1.446-16.072-1.906-23.995
					c-5.522,3.546-11.061,7.223-16.631,11.032c0.487,7.938,1.125,15.956,2.013,24.034C69.204,575.928,74.708,572.235,80.192,568.676
					 M66.941,425.6c-1.883-7.162-4.155-14.128-6.914-20.837c-1.047,0.645-2.097,1.295-3.145,1.949v25.155
					C60.24,429.73,63.592,427.642,66.941,425.6 M74.419,471.331c-0.712-7.878-1.624-15.674-2.839-23.33
					c-4.89,2.981-9.786,6.064-14.697,9.251v16.293c0.305,2.797,0.581,5.607,0.831,8.428
					C63.301,478.292,68.864,474.744,74.419,471.331 M77.042,517.595c-0.294-7.321-0.59-14.676-0.966-22.017
					c-5.555,3.46-11.122,7.055-16.715,10.783c0.354,6.902,0.639,13.815,0.923,20.7c0.055,1.304,0.107,2.61,0.162,3.913
					c5.589-3.774,11.15-7.412,16.694-10.92L77.042,517.595z M99.941,581.483c-1.307-7.773-2.306-15.5-3.083-23.17
					c-5.524,3.338-11.053,6.805-16.6,10.407c0.806,7.674,1.835,15.408,3.178,23.182C88.954,588.301,94.451,584.826,99.941,581.483
					 M94.982,533.6c-0.427-7.81-0.744-15.731-1.053-23.698c-5.571,3.267-11.141,6.667-16.727,10.2
					c0.312,7.715,0.63,15.387,1.053,22.961c0.027,0.498,0.056,0.998,0.084,1.498c5.572-3.576,11.127-7.017,16.678-10.329
					C95.006,534.021,94.993,533.81,94.982,533.6 M88.404,438.059c-1.206-7.574-2.709-15.008-4.614-22.241
					c-5.593,3.14-11.18,6.413-16.774,9.821c1.9,7.236,3.402,14.673,4.607,22.248C77.22,444.478,82.809,441.203,88.404,438.059
					 M92.884,485.416c-0.408-8.023-0.917-16.027-1.63-23.949c-5.59,3.171-11.177,6.473-16.77,9.91
					c0.718,7.967,1.231,16.015,1.646,24.082C81.722,491.977,87.302,488.63,92.884,485.416 M113.584,548.511
					c-0.797-8.005-1.357-15.945-1.782-23.805c-5.58,3.06-11.149,6.252-16.721,9.575c0.438,7.897,1.011,15.875,1.826,23.917
					C102.466,554.838,108.02,551.607,113.584,548.511 M108.146,452.22c-0.692-7.83-1.582-15.578-2.773-23.189
					c-5.65,2.892-11.278,5.917-16.9,9.074c1.213,7.628,2.123,15.397,2.831,23.248C96.909,458.177,102.517,455.131,108.146,452.22
					 M110.676,498.656c-0.282-7.467-0.566-14.968-0.936-22.454c-5.609,2.954-11.202,6.042-16.794,9.262
					c0.384,7.553,0.679,15.124,0.973,22.657l0.065,1.662c5.581-3.272,11.163-6.407,16.757-9.415L110.676,498.656z M133.428,562.698
					c-1.286-7.732-2.265-15.418-3.026-23.049c-5.603,2.841-11.183,5.81-16.754,8.91c0.762,7.656,1.743,15.37,3.031,23.129
					C122.251,568.561,127.828,565.565,133.428,562.698 M126.627,467.652c-0.375-7.937-0.843-15.858-1.506-23.703
					c-0.562,0.263-1.124,0.524-1.686,0.788c-5.097,2.407-10.168,4.916-15.224,7.533c0.696,7.88,1.189,15.841,1.585,23.82
					C115.385,473.148,120.99,470.336,126.627,467.652 M155.045,576.744c-1.89-7.435-3.42-14.843-4.669-22.21
					c-1.17,0.539-2.339,1.083-3.506,1.633c-4.475,2.112-8.93,4.305-13.373,6.58c1.228,7.377,2.738,14.797,4.603,22.244
					c4.462-2.285,8.939-4.49,13.435-6.612C152.704,577.828,153.874,577.285,155.045,576.744 M142.144,436.353
					c-0.619-7.792-1.421-15.512-2.504-23.107c-5.754,2.357-11.459,4.843-17.129,7.453c1.148,7.6,2,15.333,2.662,23.142
					C130.791,441.22,136.444,438.724,142.144,436.353 M167.438,547.014c-1.338-7.656-2.365-15.268-3.167-22.825
					c-5.685,2.308-11.32,4.739-16.921,7.293c0.773,7.596,1.767,15.249,3.07,22.949C156.053,551.834,161.721,549.361,167.438,547.014
					 M160.506,453.226c-0.321-7.845-0.715-15.689-1.279-23.468c-5.727,2.096-11.396,4.313-17.018,6.651
					c0.618,7.811,1.052,15.692,1.404,23.584C149.196,457.617,154.823,455.363,160.506,453.226 M189.684,562.545
					c-2.011-7.397-3.653-14.763-5.001-22.093c-5.783,2.083-11.502,4.289-17.175,6.615c1.287,7.35,2.862,14.74,4.801,22.158
					C178.047,566.873,183.834,564.646,189.684,562.545 M176.333,423.827c-0.501-7.748-1.156-15.445-2.06-23.033
					c-5.834,1.814-11.592,3.745-17.292,5.792c1.002,7.59,1.735,15.299,2.3,23.072C164.903,427.599,170.583,425.656,176.333,423.827
					 M212.44,572.294c-1.889-5.208-3.564-10.407-5.051-15.594c-5.948,1.843-11.818,3.81-17.626,5.896
					c1.729,6.349,3.731,12.719,6.054,19.099c0.281,0.771,0.568,1.542,0.858,2.313c5.918-2.088,11.901-4.052,17.967-5.89
					C213.877,576.177,213.143,574.235,212.44,572.294 M194.461,442.081c-0.262-7.747-0.565-15.509-1-23.231
					c-5.762,1.572-11.447,3.251-17.064,5.037c0.5,7.751,0.848,15.554,1.14,23.352C183.111,445.411,188.747,443.693,194.461,442.081
					 M225.331,551.482c-2.242-7.347-4.096-14.67-5.634-21.957c-5.929,1.574-11.773,3.262-17.548,5.062
					c1.43,7.308,3.165,14.652,5.277,22.022C213.315,554.783,219.278,553.074,225.331,551.482 M211.579,441.841
					c-0.042-1.369-0.083-2.739-0.126-4.109c-5.722,1.369-11.362,2.84-16.93,4.411c0.103,3.058,0.202,6.114,0.3,9.166
					c0.151,4.738,0.302,9.464,0.475,14.163c5.567-1.628,11.204-3.153,16.924-4.576C211.972,454.591,211.776,448.229,211.579,441.841
					 M245.793,553.425c-0.752-2.09-1.469-4.179-2.155-6.267c-6.169,1.348-12.241,2.808-18.224,4.381
					c1.148,3.757,2.397,7.521,3.758,11.289c1.22,3.375,2.531,6.757,3.936,10.139c5.183-1.324,10.432-2.562,15.755-3.721v-7.764
					C247.78,558.795,246.759,556.109,245.793,553.425 M228.397,432.372c-0.211-7.123-0.425-14.277-0.712-21.421
					c-5.767,1.101-11.447,2.295-17.044,3.583c0.368,7.692,0.628,15.411,0.868,23.103c5.563-1.33,11.204-2.569,16.934-3.712
					L228.397,432.372z M66.262,666.948c-1.35-3.15-2.616-6.3-3.803-9.447c-1.855,1.342-3.713,2.7-5.576,4.072v5.374H66.262z
					 M87.215,666.948c-0.152-0.315-0.305-0.629-0.455-0.945c-0.463,0.315-0.925,0.629-1.388,0.945H87.215z M66.936,603.015
					c-1.394-7.762-2.469-15.481-3.315-23.146c-2.24,1.547-4.486,3.115-6.738,4.705v25.53
					C60.247,607.693,63.598,605.33,66.936,603.015 M78.418,646.13c-2.551-6.979-4.72-13.95-6.569-20.897
					c-4.959,3.437-9.944,6.978-14.966,10.627v4.778c1.617,5.502,3.446,11.013,5.517,16.531c0.028,0.075,0.056,0.15,0.085,0.225
					C67.833,653.518,73.139,649.763,78.418,646.13 M88.133,614.18c-1.913-7.418-3.467-14.81-4.739-22.164
					c-5.438,3.552-10.898,7.231-16.389,11.039c1.316,7.322,2.917,14.682,4.879,22.064C77.328,621.348,82.74,617.703,88.133,614.18
					 M95.7,638.334c-0.366-0.986-0.727-1.97-1.077-2.953c-5.354,3.47-10.725,7.063-16.126,10.781
					c0.192,0.524,0.384,1.048,0.581,1.571c2.263,6.051,4.817,12.109,7.705,18.167c5.37-3.65,10.712-7.178,16.04-10.58
					C100.171,649.654,97.808,643.99,95.7,638.334 M129.169,664.4c-3.715-6.365-7.023-12.733-9.968-19.1
					c-5.424,3.224-10.852,6.575-16.293,10.053c1.81,3.866,3.754,7.731,5.842,11.596h16.066
					C126.267,666.09,127.719,665.24,129.169,664.4 M110.986,625.044c-2.487-7.078-4.588-14.141-6.369-21.181
					c-5.458,3.323-10.924,6.776-16.41,10.357c1.807,7,3.933,14.022,6.444,21.056C100.11,631.737,105.551,628.327,110.986,625.044
					 M153.258,666.948c-2.61-3.917-5.053-7.836-7.341-11.759c-5.562,2.951-11.109,6.029-16.654,9.241
					c0.491,0.84,0.989,1.679,1.493,2.517H153.258z M121.233,594.05c-1.864-7.45-3.37-14.871-4.597-22.252
					c-5.543,3.112-11.08,6.355-16.625,9.729c1.243,7.375,2.765,14.787,4.643,22.227C110.183,600.388,115.704,597.155,121.233,594.05
					 M129.054,619.465c-0.493-1.332-0.97-2.666-1.435-3.996c-5.521,3.073-11.035,6.278-16.554,9.612
					c0.445,1.26,0.898,2.522,1.366,3.784c2.02,5.44,4.275,10.886,6.794,16.333c5.524-3.28,11.043-6.432,16.573-9.454
					C133.297,630.314,131.058,624.887,129.054,619.465 M162.962,646.492c-3.812-6.502-7.197-13.009-10.205-19.509
					c-5.645,2.801-11.265,5.733-16.874,8.798c2.965,6.437,6.301,12.877,10.053,19.313
					C151.591,652.094,157.261,649.226,162.962,646.492 M176.443,666.948c-0.403-0.548-0.803-1.096-1.199-1.644
					c-1.188,0.543-2.376,1.09-3.561,1.644H176.443z M144.441,606.435c-2.495-7.131-4.599-14.249-6.377-21.34
					c-5.602,2.868-11.183,5.868-16.757,8.998c1.77,7.07,3.862,14.165,6.342,21.275C133.233,612.258,138.826,609.283,144.441,606.435
					 M193.044,657.56c-4.618-6.303-8.786-12.619-12.545-18.937c-4.992,2.133-9.951,4.361-14.884,6.688
					c-0.854,0.403-1.705,0.809-2.558,1.217c3.659,6.234,7.713,12.465,12.203,18.685C181.144,662.525,187.066,659.976,193.044,657.56
					 M162.408,600.597c-0.285-0.776-0.563-1.551-0.839-2.329c-1.78,0.812-3.555,1.635-5.327,2.471
					c-3.921,1.851-7.826,3.765-11.72,5.738c0.411,1.173,0.83,2.347,1.263,3.521c2.071,5.622,4.394,11.254,6.998,16.887
					c2.702-1.341,5.41-2.652,8.125-3.934c3.017-1.424,6.042-2.808,9.079-4.158C167.144,612.723,164.63,606.655,162.408,600.597
					 M198.416,631.358c-4.025-6.623-7.599-13.249-10.773-19.873c-5.907,2.318-11.757,4.77-17.566,7.352
					c3.077,6.563,6.541,13.13,10.443,19.694C186.433,636.006,192.393,633.615,198.416,631.358 M224.768,666.948
					c-4.783-5.411-9.197-10.835-13.269-16.268c-6.183,2.167-12.291,4.474-18.344,6.917c2.287,3.12,4.687,6.238,7.202,9.351H224.768z
					 M178.927,590.725c-2.598-7.153-4.794-14.292-6.655-21.404c-5.762,2.362-11.473,4.852-17.151,7.471
					c1.81,7.103,3.947,14.235,6.481,21.379C167.334,595.56,173.105,593.079,178.927,590.725 M205.63,604.815
					c-3.417-6.914-6.392-13.821-8.988-20.715c-5.94,2.096-11.812,4.321-17.632,6.673c0.043,0.118,0.085,0.237,0.128,0.358
					c2.465,6.744,5.291,13.501,8.53,20.265C193.595,609.07,199.576,606.878,205.63,604.815 M230.486,644.441
					c-4.998-6.474-9.505-12.959-13.572-19.448c-6.207,2.002-12.333,4.138-18.396,6.409c3.895,6.404,8.211,12.802,12.998,19.192
					C217.76,648.404,224.077,646.352,230.486,644.441 M235.886,619.276c-4.385-6.737-8.286-13.478-11.758-20.216
					c-6.217,1.807-12.345,3.74-18.402,5.803c3.306,6.679,7.026,13.362,11.211,20.043
					C223.167,622.896,229.477,621.019,235.886,619.276 M248.862,639.475c-6.175,1.551-12.256,3.221-18.256,5.009
					c4.894,6.334,10.261,12.659,16.142,18.963c0.703-0.187,1.408-0.375,2.114-0.561V639.475z M243.039,593.946
					c-3.77-6.969-7.071-13.936-9.963-20.893c-6.205,1.585-12.315,3.291-18.346,5.118c2.727,6.926,5.85,13.862,9.425,20.801
					C230.358,597.173,236.646,595.496,243.039,593.946 M248.862,616.037c-4.334,1.039-8.622,2.134-12.867,3.289
					c3.895,5.977,8.172,11.95,12.867,17.913V616.037z M248.862,592.656c-1.916,0.437-3.822,0.885-5.72,1.344
					c1.798,3.32,3.703,6.64,5.72,9.96V592.656z M248.862,522.816c-3.792,0.745-7.547,1.527-11.265,2.352
					c1.672,7.271,3.674,14.577,6.078,21.904c1.721-0.377,3.45-0.745,5.187-1.102V522.816z M246.072,448.395
					c-0.255-5.775-0.45-11.608-0.624-17.475c-5.737,0.937-11.38,1.961-16.943,3.071c0.23,7.726,0.465,15.41,0.8,22.999
					c5.588-1.164,11.262-2.238,17.024-3.224C246.236,451.973,246.15,450.182,246.072,448.395 M244.824,407.989
					c0.168,4.976,0.309,9.952,0.451,14.911c0.076,2.65,0.15,5.295,0.229,7.934c1.116-0.184,2.236-0.361,3.358-0.538v-22.917
					C247.511,407.578,246.164,407.781,244.824,407.989 M128.558,514.665c-0.394-7.534-0.686-15.171-0.968-22.852
					c-5.619,2.739-11.209,5.608-16.787,8.606c0.301,7.967,0.61,15.891,1.026,23.708c0.009,0.155,0.017,0.309,0.025,0.465
					c5.573-3.055,11.157-5.977,16.764-8.771C128.598,515.436,128.577,515.049,128.558,514.665 M202.075,534.529
					c-1.477-7.564-2.63-15.09-3.54-22.564c-5.778,1.785-11.483,3.684-17.128,5.696c0.845,7.516,1.925,15.084,3.322,22.693
					C190.446,538.296,196.225,536.354,202.075,534.529 M195.708,476.797c-0.178-3.721-0.33-7.466-0.469-11.229
					c-5.7,1.668-11.327,3.442-16.892,5.326c0.184,5.155,0.385,10.283,0.632,15.366c0.131,2.684,0.278,5.378,0.443,8.082
					c5.592-1.95,11.244-3.788,16.969-5.517C196.121,484.794,195.898,480.785,195.708,476.797 M215.845,506.939
					c-1.023-7.661-1.773-15.271-2.343-22.819c-5.759,1.483-11.437,3.071-17.046,4.765c0.512,7.597,1.19,15.264,2.13,22.985
					C204.264,510.118,210.013,508.474,215.845,506.939 M237.519,525.106c-1.717-7.477-3.085-14.92-4.185-22.317
					c-5.893,1.303-11.696,2.705-17.419,4.212c0.994,7.433,2.242,14.915,3.826,22.433
					C225.581,527.884,231.504,526.442,237.519,525.106 M229.283,457.862c-0.011-0.259-0.023-0.52-0.035-0.781
					c-5.739,1.197-11.389,2.489-16.965,3.877c0.084,2.129,0.175,4.254,0.273,6.368c0.257,5.528,0.579,11.098,1,16.702
					c5.633-1.449,11.342-2.799,17.14-4.052C230.057,472.542,229.613,465.166,229.283,457.862 M248.862,484.301
					c-0.307-2.556-0.587-5.105-0.84-7.648c-5.843,1.035-11.595,2.165-17.26,3.387c0.644,7.496,1.49,15.053,2.619,22.659
					c5.091-1.123,10.249-2.169,15.481-3.142V484.301z M246.393,453.833c0.391,7.51,0.923,15.09,1.682,22.732
					c0.262-0.047,0.525-0.094,0.787-0.14v-23.008C248.037,453.554,247.214,453.693,246.393,453.833 M170.689,378.138
					c-1.548-7.501-3.458-14.828-5.836-21.921c-6.113,1.904-12.147,3.932-18.116,6.09c2.539,7.011,4.59,14.269,6.266,21.711
					C158.831,381.936,164.72,379.976,170.689,378.138"/>
				<polygon clip-path="url(#SVGID_4_)" points="127.59,491.813 144.924,484.47 143.613,459.993 126.627,467.652 				"/>
				<polygon clip-path="url(#SVGID_4_)" points="161.267,477.658 178.183,471.086 177.538,447.237 160.506,453.226 				"/>
				<polygon clip-path="url(#SVGID_4_)" points="130.413,539.765 147.351,531.483 145.883,507.519 128.618,515.821 				"/>
				<polygon clip-path="url(#SVGID_4_)" points="164.272,524.19 181.407,517.661 179.423,494.341 162.392,500.33 				"/>
				<polygon clip-path="url(#SVGID_4_)" points="145.883,507.519 162.393,500.329 161.267,477.658 144.924,484.47 				"/>
			</g>
		</g>
	</g>
	<g id="Capa_3_copia">
	</g>
</g>
<g id="manga_frente">
	<g>
		<path fill="none" d="M71.044,447.262c-0.06-0.765-0.15-1.11-0.285-0.855C70.893,446.377,70.983,446.692,71.044,447.262z"/>
		<path fill="none" d="M70.893,468.072c0.03-9.603,0.435-18.155,0.15-20.81C71.239,450.068,70.923,458.905,70.893,468.072z"/>
		<path fill="none" d="M63.392,384.756c0,0-3.001-8.822-5.161-16.264c-6.497,4.486-12.378,11.253-12.378,11.253
			c-18.71,17.72-19.97,58.935-19.97,58.935c-0.285,16.324-2.251,35.019-2.251,35.019c18.005,9.708,45.012,9.572,45.012,9.572
			c1.26-0.42,1.125-2.956,1.125-2.956c0-7.037,1.125-12.243,1.125-12.243c0.03-9.152,0.345-17.99,0.15-20.81
			c-0.06-0.57-0.15-0.885-0.285-0.855l1.41-4.636c0,0-3.706-19.7-4.456-29.258C67.713,412.513,67.338,397.689,63.392,384.756z"/>
		<path fill="none" d="M282.314,473.969c-0.84-13.504-2.821-43.601-2.821-43.601c-0.6-17.089-5.852-31.118-12.378-41.351
			c-8.792-13.774-19.415-20.825-19.415-20.825c-3.811,13.218-7.637,35.814-7.637,35.814c-4.696,23.871-6.182,37.945-6.182,37.945
			c2.011,3.886,1.59,25.132,1.59,25.132c-0.135,1.83,0.285,4.501,0.285,4.501c0.84,6.197,0.57,10.698,0.57,10.698
			C246.304,487.052,282.314,473.969,282.314,473.969z"/>
	</g>
</g>
<g id="manga_dorso">
	<path fill="none" d="M336.088,369.647c-6.377,11.448,4.411,54.014,4.411,54.014c4.126,12.753,10.593,23.586,10.593,23.586
		c-1.5-0.24-1.215,1.17-1.215,1.17c-1.5,9.948-0.66,23.256-0.66,23.256c-0.375,3.841-0.765,8.537-0.765,8.537
		c-0.285,4.966-0.075,6.842-0.075,6.842c-3.091,2.536-9.663,2.341-9.663,2.341c-26.452-1.035-37.33-11.253-37.33-11.253
		c0.66-0.945,0.945-14.629,0.945-14.629c0.66-6.842,0.84-14.539,0.84-14.539l0.57-6.197l0.285-7.592
		c2.161-41.636,23.256-57.39,23.256-57.39C331.676,374.433,336.088,369.647,336.088,369.647z"/>
	<path fill="none" d="M517.845,447.772c1.575-5.176,3.961-8.492,6.152-14.434c2.971-8.042,4.486-15.259,6.482-20.555
		c3.661-16.414,2.341-42.206,2.341-42.206c10.833,9.708,16.174,16.174,16.174,16.174c16.879,25.747,15.199,54.584,15.199,54.584
		c0.99,15.754,2.386,34.329,2.386,34.329c0.42,3.031-2.536,4.996-2.536,4.996c-21.095,10.263-37.48,8.657-37.48,8.657
		c-5.911,0.075-6.827-2.671-6.827-2.671c-0.21-7.667-0.78-14.704-0.78-14.704c-0.135-13.218-0.495-20.675-0.495-20.675
		C518.1,448.552,517.845,447.772,517.845,447.772z"/>
</g>
<rect x="261.974" y="84.342" fill-rule="evenodd" clip-rule="evenodd" fill="#3953A3" width="96.689" height="132.546"/>
<rect x="369.229" y="85.184" fill-rule="evenodd" clip-rule="evenodd" fill="#3953A3" width="96.69" height="132.546"/>
<path fill="#4561AB" d="M431.61,176.248c-0.042-3.25-0.231-6.445-0.522-9.59c2.997,0.473,5.995,0.999,9.001,1.58
	c0.292,3.156,0.482,6.363,0.526,9.624C437.608,177.27,434.608,176.731,431.61,176.248 M422.221,184.44
	c0.28-3.203,0.387-6.352,0.358-9.451c0.621,0.077,1.242,0.155,1.864,0.237c2.381,0.315,4.759,0.665,7.137,1.048
	c0.04,3.102-0.055,6.252-0.322,9.457c-2.39-0.386-4.779-0.737-7.171-1.053C423.465,184.597,422.843,184.517,422.221,184.44
	 M413.548,174.003c-0.01-3.225-0.169-6.396-0.434-9.518c2.993,0.249,5.971,0.553,8.942,0.913c0.283,3.134,0.461,6.318,0.492,9.556
	C419.557,174.582,416.559,174.264,413.548,174.003 M403.98,182.864c0.343-3.201,0.508-6.348,0.53-9.443
	c3.02,0.148,6.02,0.353,9.007,0.611c0.009,3.097-0.121,6.244-0.426,9.445C410.07,183.216,407.035,183.012,403.98,182.864
	 M393.659,189.47c0.474-2.31,0.843-4.592,1.121-6.846c3.081,0.034,6.133,0.124,9.166,0.27c-0.296,2.748-0.724,5.537-1.309,8.369
	c-0.07,0.341-0.144,0.684-0.219,1.028c-3.087-0.134-6.195-0.21-9.333-0.226C393.291,191.196,393.483,190.331,393.659,189.47
	 M385.517,182.664c0.461-3.209,0.734-6.361,0.854-9.463c3.048-0.073,6.064-0.091,9.055-0.056c-0.065,3.097-0.277,6.245-0.672,9.447
	C391.704,182.56,388.627,182.583,385.517,182.664 M375.642,185.872c0.188-0.926,0.358-1.849,0.513-2.766
	c3.146-0.192,6.253-0.328,9.328-0.408c-0.237,1.641-0.521,3.297-0.862,4.967c-0.305,1.497-0.654,3.007-1.049,4.529
	c-3.159,0.101-6.354,0.26-9.591,0.479C374.64,190.377,375.19,188.111,375.642,185.872 M461.491,217.729
	c0.753-1.899,1.427-3.779,2.026-5.642c0.799,0.223,1.599,0.45,2.402,0.68v4.963H461.491z M465.882,203.136
	c0.012-0.06,0.025-0.12,0.037-0.18v0.19L465.882,203.136z M458.329,191.493c0.293-3.198,0.412-6.344,0.396-9.44
	c2.383,0.622,4.78,1.274,7.193,1.958v9.551C463.371,192.838,460.843,192.148,458.329,191.493 M456.718,202.065
	c0.095-0.438,0.185-0.875,0.272-1.311c2.93,0.755,5.88,1.556,8.856,2.404c-0.048,0.232-0.098,0.465-0.148,0.698
	c-0.584,2.692-1.31,5.422-2.2,8.191c-2.954-0.824-5.884-1.602-8.796-2.334C455.509,207.13,456.176,204.581,456.718,202.065
	 M442.558,216.478c1.27-2.99,2.339-5.933,3.23-8.833c2.944,0.648,5.9,1.346,8.874,2.092c-0.822,2.628-1.791,5.291-2.924,7.992
	h-3.493C446.345,217.291,444.449,216.874,442.558,216.478 M448.057,198.556c0.604-3.13,1.021-6.209,1.281-9.241
	c2.969,0.684,5.953,1.418,8.959,2.201c-0.278,3.019-0.71,6.083-1.33,9.199C453.979,199.946,451.011,199.226,448.057,198.556
	 M432.224,217.729c0.459-0.989,0.896-1.973,1.312-2.952c2.987,0.522,5.979,1.096,8.98,1.725c-0.173,0.408-0.351,0.818-0.531,1.227
	H432.224z M440.327,187.358c0.266-3.204,0.359-6.356,0.319-9.458c2.992,0.589,5.993,1.23,9.008,1.923
	c0.032,3.101-0.069,6.251-0.343,9.454C446.304,188.585,443.312,187.946,440.327,187.358 M438.701,198.466
	c0.126-0.592,0.244-1.183,0.357-1.772c2.978,0.576,5.964,1.206,8.964,1.885c-0.108,0.559-0.221,1.118-0.341,1.679
	c-0.518,2.419-1.15,4.867-1.912,7.348c-2.997-0.659-5.981-1.266-8.959-1.82C437.563,203.315,438.19,200.875,438.701,198.466
	 M424.41,213.316c1.305-3.057,2.4-6.064,3.31-9.025c3.016,0.452,6.03,0.96,9.05,1.521c-0.895,2.93-1.971,5.906-3.253,8.929
	C430.48,214.211,427.447,213.735,424.41,213.316 M430.013,195.074c0.604-3.153,1.017-6.253,1.273-9.305c3,0.484,6,1.023,9.01,1.616
	c-0.253,3.042-0.662,6.132-1.26,9.274C436.022,196.076,433.017,195.548,430.013,195.074 M412.526,217.729
	c0.94-1.845,1.802-3.672,2.589-5.483c2.636,0.262,5.265,0.566,7.889,0.913c0.454,0.06,0.908,0.121,1.362,0.184
	c-0.62,1.451-1.288,2.913-2.006,4.386H412.526z M420.685,194.868c0.072-0.345,0.141-0.689,0.208-1.033
	c0.944,0.114,1.887,0.233,2.83,0.357c2.086,0.276,4.17,0.579,6.253,0.907c-0.1,0.519-0.203,1.038-0.314,1.56
	c-0.527,2.498-1.177,5.029-1.964,7.595c-1.443-0.217-2.887-0.421-4.331-0.612c-1.605-0.211-3.21-0.407-4.819-0.587
	C419.416,200.287,420.121,197.558,420.685,194.868 M405.688,211.463c1.398-3.131,2.576-6.209,3.557-9.239
	c3.102,0.228,6.187,0.515,9.263,0.859c-0.938,2.995-2.067,6.036-3.411,9.128C411.975,211.902,408.841,211.652,405.688,211.463
	 M411.716,192.875c0.652-3.174,1.109-6.294,1.403-9.363c3.034,0.262,6.055,0.582,9.07,0.956c-0.269,3.061-0.698,6.17-1.32,9.333
	C417.827,193.435,414.778,193.126,411.716,192.875 M399.834,201.688c1.076-3.174,1.935-6.294,2.608-9.363
	c3.098,0.134,6.174,0.328,9.237,0.579c-0.01,0.052-0.021,0.105-0.032,0.158c-0.622,2.995-1.421,6.036-2.422,9.13
	C406.113,201.964,402.986,201.795,399.834,201.688 M392.679,217.729c1.239-2.232,2.36-4.439,3.373-6.619
	c3.221,0.065,6.414,0.193,9.589,0.383c-0.92,2.056-1.935,4.134-3.054,6.236H392.679z M386.241,211.072
	c1.566-3.219,2.893-6.383,4.012-9.493c3.209-0.015,6.385,0.032,9.538,0.139c-1.042,3.068-2.285,6.187-3.758,9.359
	C392.8,211.012,389.539,211.009,386.241,211.072 M380.523,201.775c1.243-3.239,2.257-6.422,3.071-9.551
	c3.184-0.102,6.332-0.144,9.452-0.128c-0.736,3.096-1.665,6.246-2.815,9.45C387.029,201.562,383.796,201.637,380.523,201.775
	 M372.685,217.729c1.261-2.103,2.418-4.183,3.477-6.24c3.385-0.193,6.725-0.322,10.03-0.384c-1.063,2.182-2.236,4.39-3.526,6.624
	H372.685z M369.229,205.485c0.47-1.031,0.915-2.055,1.339-3.075c3.347-0.263,6.648-0.463,9.91-0.602
	c-1.216,3.161-2.651,6.376-4.334,9.649c-2.284,0.131-4.588,0.291-6.914,0.482V205.485z M369.229,193.066
	c1.581-0.133,3.15-0.253,4.71-0.358c-0.911,3.168-2.032,6.391-3.392,9.672c-0.439,0.034-0.878,0.07-1.318,0.107V193.066z
	 M369.229,174.162c2.688-0.234,5.345-0.428,7.975-0.582c-0.188,3.112-0.534,6.275-1.076,9.495c-2.279,0.139-4.578,0.308-6.899,0.507
	V174.162z M395.457,173.114c0.067-3.205-0.023-6.356-0.227-9.458c2.992,0.029,5.958,0.112,8.904,0.248
	c0.24,3.111,0.369,6.27,0.346,9.484C401.494,173.242,398.488,173.15,395.457,173.114 M377.237,173.546
	c0.191-3.198,0.216-6.342,0.111-9.435c3.007-0.178,5.977-0.305,8.918-0.381c0.159,3.096,0.198,6.241,0.075,9.44
	C383.34,173.242,380.307,173.367,377.237,173.546 M449.685,179.798c-0.035-3.268-0.219-6.482-0.504-9.647
	c3.002,0.681,6.018,1.414,9.055,2.198c0.273,3.17,0.441,6.389,0.459,9.663C455.672,181.224,452.671,180.485,449.685,179.798"/>
<path fill="#4561AB" d="M465.586,88.844l0.281,0.321l-0.001-0.503C465.773,88.723,465.68,88.784,465.586,88.844"/>
<path fill="#4561AB" d="M453.768,87.361c1.742,1.955,3.471,3.908,5.186,5.857c2.152-1.462,4.341-2.925,6.582-4.381
	c-1.07-1.216-2.145-2.435-3.227-3.653h-5.305C455.914,85.909,454.835,86.635,453.768,87.361"/>
<path fill="#4561AB" d="M452.454,97.739c1.719,1.951,3.427,3.896,5.122,5.832c2.144-1.475,4.309-2.959,6.507-4.446
	c-1.697-1.947-3.409-3.902-5.134-5.863C456.749,94.757,454.588,96.252,452.454,97.739"/>
<path fill="#4561AB" d="M442.006,86.015c1.755,1.945,3.499,3.891,5.23,5.835c2.123-1.495,4.279-2.995,6.481-4.494
	c-0.645-0.724-1.292-1.448-1.942-2.172h-8.593C442.789,85.461,442.397,85.738,442.006,86.015"/>
<path fill="#4561AB" d="M440.806,96.45c1.724,1.937,3.438,3.87,5.14,5.798c0.839-0.586,1.679-1.174,2.523-1.765
	c1.304-0.912,2.615-1.83,3.935-2.751c-1.712-1.941-3.436-3.889-5.172-5.839c-2.114,1.488-4.196,2.969-6.258,4.437L440.806,96.45z"/>
<path fill="#4561AB" d="M430.664,85.184c1.642,1.801,3.275,3.604,4.899,5.408c2.1-1.518,4.226-3.048,6.393-4.583
	c-0.248-0.275-0.497-0.55-0.746-0.825H430.664z"/>
<path fill="#4561AB" d="M429.184,95.242c1.723,1.92,3.438,3.84,5.145,5.757c2.132-1.496,4.27-3.017,6.428-4.554
	c-1.723-1.935-3.455-3.872-5.198-5.809c-0.703,0.508-1.405,1.015-2.103,1.52C432.023,93.193,430.601,94.223,429.184,95.242"/>
<path fill="#4561AB" d="M420.05,85.184c1.298,1.411,2.59,2.824,3.877,4.24c0.661-0.485,1.323-0.972,1.988-1.461
	c1.251-0.921,2.512-1.847,3.784-2.779H420.05z"/>
<path fill="#4561AB" d="M417.575,94.088c1.72,1.9,3.432,3.802,5.137,5.704c2.138-1.489,4.273-3.011,6.422-4.556
	c-1.728-1.924-3.465-3.848-5.211-5.769C421.792,91.033,419.681,92.576,417.575,94.088"/>
<path fill="#4561AB" d="M369.561,88.844l-0.282,0.321l0.001-0.503C369.374,88.723,369.468,88.784,369.561,88.844"/>
<path fill="#4561AB" d="M371.015,99.132c-0.412,0.473-0.823,0.945-1.234,1.417c-0.177,0.201-0.354,0.402-0.531,0.602l0.008-3.202
	C369.846,98.343,370.432,98.737,371.015,99.132"/>
<path fill="#4561AB" d="M381.38,87.361c-1.742,1.955-3.472,3.908-5.187,5.857c-2.151-1.462-4.341-2.925-6.582-4.381
	c1.07-1.216,2.145-2.435,3.227-3.653h5.305C379.234,85.909,380.312,86.635,381.38,87.361"/>
<path fill="#4561AB" d="M382.694,97.739c-1.72,1.951-3.427,3.896-5.122,5.832c-2.145-1.475-4.31-2.959-6.508-4.446
	c1.698-1.947,3.409-3.902,5.134-5.863C378.399,94.757,380.56,96.252,382.694,97.739"/>
<path fill="#4561AB" d="M393.141,86.015c-1.756,1.945-3.499,3.891-5.231,5.835c-2.123-1.495-4.279-2.995-6.481-4.494
	c0.646-0.724,1.293-1.448,1.942-2.172h8.593C392.359,85.461,392.751,85.738,393.141,86.015"/>
<path fill="#4561AB" d="M394.342,96.45c-1.724,1.937-3.437,3.87-5.14,5.798c-0.839-0.586-1.68-1.174-2.523-1.765
	c-1.305-0.912-2.615-1.83-3.936-2.751c1.712-1.941,3.436-3.889,5.172-5.839c2.114,1.488,4.196,2.969,6.258,4.437L394.342,96.45z"/>
<path fill="#4561AB" d="M404.483,85.184c-1.642,1.801-3.276,3.604-4.9,5.408c-2.1-1.518-4.225-3.048-6.393-4.583
	c0.248-0.275,0.497-0.55,0.745-0.825H404.483z"/>
<path fill="#4561AB" d="M405.964,95.242c-1.724,1.92-3.439,3.84-5.145,5.757c-2.132-1.496-4.27-3.017-6.428-4.554
	c1.722-1.935,3.455-3.872,5.197-5.809c0.703,0.508,1.406,1.015,2.103,1.52C403.124,93.193,404.547,94.223,405.964,95.242"/>
<path fill="#4561AB" d="M415.097,85.184c-1.298,1.411-2.59,2.824-3.877,4.24c-0.661-0.485-1.323-0.972-1.988-1.461
	c-1.251-0.921-2.512-1.847-3.784-2.779H415.097z"/>
<path fill="#4561AB" d="M417.572,94.088c-1.72,1.9-3.433,3.802-5.137,5.704c-2.138-1.489-4.273-3.011-6.422-4.556
	c1.727-1.924,3.464-3.848,5.211-5.769C413.355,91.033,415.467,92.576,417.572,94.088"/>
<path fill="#4561AB" d="M271.989,105.038c-1.395-2.746-3.034-5.387-4.965-7.9c-1.683,0.801-3.367,1.621-5.05,2.462v6.574
	c0.565,0.962,1.097,1.939,1.597,2.93C266.379,107.694,269.183,106.34,271.989,105.038 M275.56,93.212
	c-1.937-2.526-4.17-4.922-6.747-7.165c-2.281,1.041-4.56,2.117-6.839,3.23v2.21c1.878,1.786,3.557,3.66,5.059,5.612
	C269.873,95.748,272.713,94.452,275.56,93.212 M284.085,109.905c-0.949-2.972-2.097-5.862-3.496-8.647
	c-2.86,1.209-5.71,2.475-8.558,3.795c1.402,2.766,2.557,5.639,3.513,8.592C278.385,112.344,281.23,111.097,284.085,109.905
	 M289.306,97.723c-1.385-2.82-3.021-5.535-4.963-8.117c-2.924,1.15-5.833,2.355-8.733,3.618c1.946,2.543,3.596,5.215,4.993,7.994
	c2.59-1.094,5.187-2.145,7.798-3.149C288.702,97.952,289.005,97.838,289.306,97.723 M293.295,86.246
	c-0.468-0.643-0.954-1.277-1.459-1.904h-12.038c1.68,1.671,3.193,3.416,4.556,5.227c0.561-0.221,1.123-0.441,1.686-0.658
	C288.446,87.985,290.863,87.097,293.295,86.246 M301.516,103.366c-0.892-3.021-1.979-5.965-3.315-8.804
	c-2.974,1.005-5.922,2.064-8.852,3.178c1.377,2.809,2.505,5.724,3.432,8.719C295.673,105.375,298.582,104.344,301.516,103.366
	 M307.202,91.682c-1.125-2.531-2.441-4.983-3.979-7.34h-4.161c-1.917,0.618-3.821,1.258-5.716,1.921
	c1.912,2.631,3.52,5.393,4.872,8.262C301.184,93.523,304.177,92.575,307.202,91.682 M312.353,109.872
	c-0.508-3.137-1.152-6.223-1.982-9.236c-2.969,0.865-5.905,1.782-8.816,2.751c0.884,2.998,1.575,6.075,2.122,9.203
	C306.542,111.634,309.432,110.728,312.353,109.872 M325.546,87.02c-0.337-0.901-0.695-1.794-1.076-2.678h-10.369
	c0.834,1.576,1.584,3.186,2.259,4.828C319.381,88.403,322.441,87.687,325.546,87.02 M329.847,105.426
	c-0.405-3.143-0.927-6.246-1.615-9.285c-3.015,0.643-5.987,1.333-8.922,2.07c0.764,3.027,1.352,6.123,1.811,9.264
	C323.992,106.748,326.899,106.065,329.847,105.426 M337.195,94.356c-0.618-3.108-1.392-6.158-2.377-9.122
	c-3.125,0.557-6.2,1.16-9.229,1.81c1.095,2.938,1.966,5.966,2.667,9.061C331.192,95.477,334.169,94.895,337.195,94.356
	 M339.381,113.135c-0.186-3.158-0.428-6.305-0.773-9.419c-2.952,0.537-5.859,1.115-8.728,1.736c0.401,3.117,0.688,6.272,0.907,9.445
	C333.613,114.268,336.476,113.681,339.381,113.135 M334.548,84.342c0.099,0.285,0.195,0.57,0.291,0.855
	c1.673-0.298,3.36-0.583,5.064-0.855H334.548z M347.351,102.236c-0.291-3.135-0.673-6.242-1.191-9.299
	c-3.025,0.442-6,0.923-8.93,1.444c0.604,3.049,1.057,6.156,1.405,9.297C341.496,103.159,344.401,102.678,347.351,102.236
	 M355.087,91.737c-0.354-2.497-0.791-4.966-1.333-7.395h-9.463c0.782,2.796,1.4,5.656,1.894,8.561
	C349.105,92.477,352.07,92.089,355.087,91.737 M356.597,110.444c-0.129-3.124-0.287-6.249-0.521-9.354
	c-2.944,0.355-5.84,0.747-8.692,1.173c0.288,3.109,0.486,6.246,0.642,9.389C350.839,111.214,353.695,110.811,356.597,110.444
	 M355.122,91.766c0.433,3.061,0.745,6.165,0.981,9.29c0.849-0.103,1.702-0.202,2.56-0.299v-9.383
	C357.474,91.499,356.294,91.63,355.122,91.766 M294.992,115.674c-0.579-3.122-1.305-6.188-2.229-9.174
	c-0.665,0.249-1.329,0.501-1.991,0.756c-2.225,0.857-4.44,1.746-6.648,2.667c0.949,2.977,1.697,6.035,2.295,9.151
	c2.227-0.93,4.46-1.826,6.703-2.69C293.744,116.145,294.368,115.909,294.992,115.674 M264.252,169.87
	c-0.203-2.905-0.361-5.848-0.512-8.808c-0.588,0.324-1.177,0.651-1.767,0.98v10.451c0.792-0.449,1.582-0.894,2.371-1.335
	C264.313,170.729,264.282,170.299,264.252,169.87 M263.191,150.877c-0.21-3.332-0.466-6.66-0.824-9.953
	c-0.131,0.07-0.262,0.141-0.393,0.212v10.407C262.38,151.319,262.785,151.098,263.191,150.877 M273.713,176.504
	c-0.426-3.315-0.729-6.604-0.96-9.86c-2.781,1.457-5.571,2.968-8.376,4.533c0.245,3.262,0.566,6.557,1.014,9.876
	C268.179,179.484,270.951,177.966,273.713,176.504 M267.04,117.709c-0.948-2.943-2.093-5.806-3.482-8.563
	c-0.528,0.265-1.056,0.532-1.584,0.801v10.337C263.665,119.406,265.353,118.548,267.04,117.709 M270.806,136.501
	c-0.359-3.238-0.818-6.441-1.43-9.587c-2.463,1.225-4.929,2.492-7.402,3.801v6.696c0.154,1.149,0.292,2.304,0.418,3.463
	C265.206,139.362,268.008,137.904,270.806,136.501 M272.127,155.513c-0.148-3.008-0.297-6.031-0.486-9.047
	c-2.798,1.422-5.602,2.899-8.419,4.431c0.178,2.836,0.322,5.677,0.465,8.507c0.028,0.536,0.054,1.072,0.082,1.608
	c2.815-1.551,5.615-3.046,8.408-4.487L272.127,155.513z M283.66,181.767c-0.659-3.194-1.161-6.37-1.553-9.521
	c-2.782,1.372-5.567,2.796-8.361,4.277c0.406,3.154,0.924,6.331,1.601,9.526C278.126,184.568,280.895,183.14,283.66,181.767
	 M281.162,162.09c-0.215-3.21-0.375-6.465-0.531-9.739c-2.806,1.342-5.611,2.74-8.424,4.192c0.157,3.17,0.318,6.323,0.531,9.435
	c0.013,0.204,0.028,0.41,0.042,0.616c2.807-1.469,5.604-2.883,8.4-4.245C281.174,162.263,281.168,162.176,281.162,162.09
	 M277.849,122.829c-0.607-3.113-1.365-6.167-2.324-9.139c-2.817,1.29-5.63,2.635-8.448,4.036c0.957,2.973,1.714,6.029,2.32,9.143
	C272.216,125.466,275.031,124.121,277.849,122.829 M280.106,142.289c-0.206-3.297-0.462-6.586-0.821-9.841
	c-2.815,1.303-5.629,2.66-8.446,4.072c0.362,3.274,0.62,6.581,0.829,9.896C274.484,144.985,277.294,143.61,280.106,142.289
	 M290.531,168.217c-0.401-3.289-0.683-6.552-0.897-9.782c-2.81,1.257-5.615,2.569-8.422,3.934c0.221,3.245,0.509,6.523,0.919,9.828
	C284.931,170.817,287.729,169.49,290.531,168.217 M287.792,128.648c-0.349-3.217-0.797-6.402-1.396-9.529
	c-2.846,1.189-5.68,2.432-8.512,3.729c0.611,3.135,1.069,6.327,1.426,9.553C282.133,131.096,284.957,129.844,287.792,128.648
	 M289.066,147.73c-0.142-3.069-0.285-6.151-0.471-9.227c-2.825,1.214-5.642,2.483-8.458,3.806c0.194,3.104,0.342,6.215,0.49,9.311
	l0.033,0.683c2.811-1.344,5.622-2.633,8.44-3.869L289.066,147.73z M300.525,174.047c-0.647-3.178-1.141-6.336-1.524-9.471
	c-2.822,1.167-5.632,2.387-8.438,3.661c0.384,3.146,0.878,6.316,1.526,9.505C294.896,176.457,297.705,175.225,300.525,174.047
	 M297.1,134.989c-0.189-3.261-0.424-6.516-0.758-9.74c-0.283,0.108-0.566,0.215-0.849,0.324c-2.567,0.989-5.121,2.02-7.668,3.095
	c0.351,3.238,0.599,6.51,0.798,9.788C291.438,137.248,294.261,136.092,297.1,134.989 M311.412,179.819
	c-0.952-3.055-1.722-6.1-2.352-9.127c-0.589,0.221-1.178,0.445-1.766,0.671c-2.254,0.868-4.497,1.769-6.735,2.704
	c0.618,3.031,1.379,6.081,2.318,9.141c2.247-0.939,4.502-1.845,6.766-2.717C310.233,180.265,310.823,180.042,311.412,179.819
	 M304.915,122.128c-0.312-3.202-0.716-6.374-1.261-9.495c-2.898,0.969-5.771,1.99-8.627,3.063c0.578,3.123,1.008,6.301,1.341,9.51
	C299.197,124.128,302.044,123.102,304.915,122.128 M317.654,167.602c-0.674-3.146-1.191-6.274-1.595-9.38
	c-2.863,0.949-5.701,1.947-8.522,2.997c0.39,3.122,0.89,6.267,1.546,9.431C311.92,169.583,314.775,168.567,317.654,167.602
	 M314.163,129.061c-0.161-3.224-0.36-6.447-0.644-9.644c-2.885,0.861-5.74,1.772-8.571,2.733c0.311,3.21,0.53,6.449,0.707,9.691
	C308.467,130.866,311.301,129.939,314.163,129.061 M328.858,173.984c-1.013-3.039-1.84-6.066-2.518-9.079
	c-2.912,0.856-5.793,1.762-8.65,2.718c0.648,3.021,1.441,6.057,2.418,9.105C322.997,175.763,325.912,174.848,328.858,173.984
	 M322.134,116.98c-0.253-3.184-0.582-6.347-1.037-9.465c-2.938,0.745-5.838,1.539-8.709,2.38c0.505,3.119,0.874,6.287,1.159,9.481
	C316.377,118.53,319.238,117.732,322.134,116.98 M340.319,177.991c-0.951-2.14-1.795-4.276-2.544-6.408
	c-2.995,0.757-5.952,1.565-8.877,2.423c0.871,2.609,1.879,5.226,3.049,7.848c0.142,0.317,0.286,0.634,0.432,0.951
	c2.981-0.858,5.994-1.665,9.049-2.421C341.043,179.586,340.673,178.788,340.319,177.991 M331.264,124.481
	c-0.132-3.184-0.284-6.373-0.503-9.546c-2.902,0.646-5.765,1.336-8.594,2.07c0.252,3.185,0.427,6.392,0.574,9.596
	C325.548,125.85,328.386,125.144,331.264,124.481 M346.811,169.438c-1.129-3.019-2.063-6.029-2.837-9.023
	c-2.986,0.647-5.93,1.34-8.838,2.08c0.72,3.003,1.594,6.021,2.657,9.049C340.76,170.795,343.763,170.092,346.811,169.438
	 M339.885,124.383c-0.021-0.563-0.042-1.126-0.064-1.689c-2.882,0.563-5.722,1.167-8.526,1.813c0.052,1.257,0.102,2.513,0.151,3.767
	c0.076,1.947,0.152,3.889,0.239,5.82c2.804-0.669,5.643-1.296,8.523-1.88C340.083,129.622,339.985,127.008,339.885,124.383
	 M357.117,170.237c-0.379-0.859-0.74-1.717-1.086-2.576c-3.107,0.554-6.165,1.154-9.179,1.801c0.578,1.544,1.207,3.09,1.893,4.639
	c0.615,1.387,1.274,2.776,1.982,4.166c2.611-0.544,5.254-1.053,7.935-1.529v-3.19C358.118,172.443,357.603,171.34,357.117,170.237
	 M348.356,120.492c-0.107-2.927-0.214-5.867-0.358-8.802c-2.905,0.452-5.765,0.943-8.584,1.472c0.186,3.161,0.316,6.333,0.437,9.494
	c2.802-0.546,5.643-1.055,8.529-1.525L348.356,120.492z M266.698,216.887c-0.68-1.295-1.318-2.589-1.916-3.882
	c-0.934,0.552-1.87,1.11-2.808,1.674v2.209H266.698z M277.25,216.887c-0.077-0.13-0.154-0.259-0.229-0.389
	c-0.233,0.13-0.466,0.259-0.699,0.389H277.25z M267.037,190.615c-0.702-3.189-1.244-6.361-1.669-9.512
	c-1.128,0.635-2.26,1.28-3.393,1.934v10.491C263.668,192.537,265.356,191.566,267.037,190.615 M272.82,208.332
	c-1.285-2.868-2.377-5.732-3.308-8.588c-2.497,1.413-5.008,2.868-7.537,4.367v1.964c0.814,2.261,1.735,4.526,2.779,6.793
	c0.014,0.031,0.028,0.061,0.043,0.092C267.489,211.368,270.161,209.825,272.82,208.332 M277.713,195.203
	c-0.964-3.048-1.746-6.086-2.387-9.108c-2.739,1.459-5.489,2.971-8.254,4.536c0.663,3.009,1.469,6.033,2.457,9.067
	C272.271,198.149,274.997,196.651,277.713,195.203 M281.524,205.129c-0.185-0.405-0.366-0.809-0.543-1.214
	c-2.696,1.426-5.401,2.902-8.122,4.431c0.096,0.215,0.193,0.43,0.292,0.645c1.14,2.486,2.426,4.976,3.88,7.465
	c2.705-1.5,5.395-2.949,8.078-4.348C283.776,209.781,282.585,207.453,281.524,205.129 M298.38,215.84
	c-1.871-2.615-3.537-5.232-5.021-7.849c-2.732,1.325-5.466,2.702-8.206,4.131c0.911,1.589,1.891,3.177,2.943,4.765h8.091
	C296.919,216.535,297.65,216.185,298.38,215.84 M289.222,199.667c-1.253-2.909-2.31-5.811-3.208-8.704
	c-2.749,1.366-5.502,2.785-8.265,4.256c0.91,2.876,1.981,5.762,3.245,8.652C283.745,202.418,286.485,201.017,289.222,199.667
	 M310.512,216.887c-1.314-1.61-2.545-3.22-3.697-4.832c-2.801,1.212-5.595,2.477-8.388,3.797c0.247,0.345,0.498,0.69,0.752,1.035
	H310.512z M294.383,186.931c-0.939-3.061-1.698-6.111-2.315-9.144c-2.792,1.279-5.581,2.611-8.373,3.998
	c0.626,3.03,1.393,6.077,2.339,9.134C288.818,189.535,291.599,188.207,294.383,186.931 M298.322,197.375
	c-0.248-0.548-0.488-1.095-0.723-1.642c-2.781,1.263-5.557,2.58-8.338,3.95c0.224,0.518,0.453,1.037,0.688,1.555
	c1.018,2.236,2.153,4.473,3.422,6.712c2.782-1.348,5.562-2.643,8.347-3.885C300.459,201.833,299.332,199.603,298.322,197.375
	 M315.4,208.481c-1.92-2.672-3.625-5.346-5.139-8.017c-2.843,1.151-5.674,2.356-8.499,3.615c1.494,2.645,3.174,5.291,5.063,7.937
	C309.673,210.783,312.528,209.605,315.4,208.481 M322.189,216.887c-0.203-0.225-0.404-0.451-0.604-0.676
	c-0.598,0.223-1.196,0.448-1.793,0.676H322.189z M306.072,192.02c-1.256-2.931-2.316-5.855-3.212-8.77
	c-2.822,1.178-5.632,2.411-8.44,3.697c0.891,2.906,1.945,5.821,3.194,8.743C300.427,194.413,303.244,193.191,306.072,192.02
	 M330.55,213.029c-2.326-2.59-4.425-5.186-6.318-7.782c-2.514,0.876-5.012,1.792-7.496,2.749c-0.43,0.165-0.859,0.332-1.288,0.5
	c1.843,2.562,3.884,5.122,6.146,7.678C324.557,215.07,327.54,214.022,330.55,213.029 M315.121,189.621
	c-0.143-0.319-0.284-0.637-0.422-0.957c-0.896,0.333-1.791,0.672-2.683,1.015c-1.975,0.76-3.942,1.547-5.903,2.358
	c0.207,0.482,0.418,0.965,0.636,1.447c1.043,2.311,2.213,4.624,3.525,6.939c1.361-0.551,2.724-1.09,4.092-1.617
	c1.519-0.585,3.043-1.154,4.573-1.708C317.506,194.604,316.24,192.111,315.121,189.621 M333.256,202.262
	c-2.027-2.722-3.827-5.445-5.426-8.167c-2.975,0.952-5.921,1.96-8.847,3.021c1.549,2.697,3.294,5.396,5.26,8.093
	C327.221,204.172,330.222,203.19,333.256,202.262 M346.528,216.887c-2.409-2.224-4.632-4.453-6.683-6.685
	c-3.114,0.891-6.19,1.839-9.239,2.842c1.152,1.282,2.361,2.564,3.627,3.843H346.528z M323.44,185.565
	c-1.309-2.939-2.414-5.873-3.352-8.796c-2.902,0.971-5.779,1.994-8.638,3.07c0.911,2.919,1.988,5.849,3.264,8.785
	C317.602,187.551,320.508,186.532,323.44,185.565 M336.889,191.355c-1.721-2.841-3.219-5.68-4.526-8.513
	c-2.992,0.862-5.949,1.776-8.88,2.742c0.021,0.048,0.043,0.098,0.065,0.147c1.242,2.771,2.665,5.548,4.296,8.327
	C330.828,193.103,333.84,192.202,336.889,191.355 M349.408,207.638c-2.517-2.661-4.787-5.326-6.836-7.992
	c-3.126,0.822-6.211,1.701-9.265,2.633c1.961,2.632,4.135,5.261,6.547,7.887C342.998,209.267,346.18,208.424,349.408,207.638
	 M352.127,197.297c-2.209-2.769-4.173-5.538-5.922-8.307c-3.131,0.742-6.217,1.537-9.268,2.385c1.665,2.744,3.538,5.491,5.646,8.236
	C345.721,198.785,348.9,198.013,352.127,197.297 M358.663,205.598c-3.11,0.638-6.172,1.324-9.195,2.059
	c2.465,2.603,5.168,5.202,8.13,7.793c0.354-0.077,0.709-0.154,1.065-0.23V205.598z M355.73,186.888
	c-1.898-2.864-3.561-5.727-5.018-8.585c-3.125,0.651-6.203,1.352-9.24,2.103c1.373,2.846,2.946,5.697,4.747,8.548
	C349.343,188.214,352.51,187.525,355.73,186.888 M358.663,195.966c-2.183,0.427-4.342,0.877-6.48,1.352
	c1.961,2.456,4.116,4.911,6.48,7.361V195.966z M358.663,186.358c-0.965,0.179-1.925,0.363-2.881,0.553
	c0.906,1.365,1.865,2.728,2.881,4.093V186.358z M358.663,157.658c-1.91,0.306-3.801,0.628-5.673,0.966
	c0.842,2.988,1.85,5.99,3.061,9.001c0.867-0.155,1.737-0.306,2.612-0.453V157.658z M357.257,127.076
	c-0.128-2.373-0.227-4.77-0.314-7.181c-2.89,0.385-5.732,0.806-8.533,1.262c0.116,3.175,0.234,6.333,0.403,9.451
	c2.815-0.479,5.672-0.919,8.574-1.325C357.34,128.546,357.297,127.81,357.257,127.076 M356.629,110.472
	c0.085,2.045,0.156,4.089,0.227,6.127c0.038,1.089,0.076,2.176,0.116,3.261c0.562-0.076,1.126-0.149,1.691-0.221v-9.417
	C357.982,110.303,357.304,110.386,356.629,110.472 M298.072,154.309c-0.198-3.096-0.345-6.234-0.487-9.391
	c-2.83,1.126-5.646,2.305-8.454,3.536c0.151,3.274,0.307,6.53,0.517,9.743c0.005,0.063,0.008,0.127,0.013,0.191
	c2.807-1.255,5.619-2.456,8.443-3.604C298.093,154.626,298.082,154.467,298.072,154.309 M335.099,162.472
	c-0.744-3.108-1.325-6.201-1.783-9.272c-2.91,0.734-5.784,1.514-8.627,2.34c0.426,3.089,0.97,6.199,1.673,9.326
	C329.242,164.02,332.152,163.222,335.099,162.472 M331.892,138.747c-0.089-1.529-0.166-3.068-0.236-4.615
	c-2.871,0.686-5.705,1.414-8.508,2.188c0.092,2.118,0.194,4.226,0.318,6.314c0.066,1.103,0.14,2.21,0.223,3.321
	c2.816-0.801,5.663-1.556,8.547-2.267C332.1,142.034,331.988,140.386,331.892,138.747 M342.034,151.134
	c-0.515-3.148-0.893-6.275-1.18-9.377c-2.901,0.609-5.76,1.262-8.585,1.958c0.258,3.122,0.599,6.272,1.073,9.445
	C336.201,152.44,339.097,151.765,342.034,151.134 M352.95,158.599c-0.865-3.072-1.554-6.131-2.108-9.171
	c-2.968,0.535-5.891,1.111-8.773,1.731c0.5,3.055,1.129,6.129,1.927,9.219C346.937,159.741,349.92,159.148,352.95,158.599
	 M348.802,130.966c-0.006-0.107-0.012-0.214-0.018-0.321c-2.891,0.492-5.736,1.023-8.544,1.593c0.042,0.875,0.088,1.748,0.138,2.617
	c0.129,2.271,0.291,4.56,0.503,6.863c2.837-0.596,5.712-1.15,8.633-1.665C349.192,136.999,348.968,133.968,348.802,130.966
	 M358.663,141.831c-0.154-1.051-0.295-2.098-0.423-3.143c-2.943,0.426-5.84,0.889-8.693,1.392c0.324,3.081,0.75,6.186,1.319,9.312
	c2.564-0.462,5.162-0.892,7.797-1.291V141.831z M357.419,129.311c0.197,3.086,0.465,6.201,0.847,9.342
	c0.132-0.02,0.264-0.038,0.396-0.058v-9.455C358.247,129.196,357.833,129.253,357.419,129.311 M319.291,98.205
	c-0.78-3.082-1.742-6.093-2.939-9.008c-3.079,0.783-6.118,1.616-9.124,2.503c1.279,2.881,2.312,5.863,3.156,8.922
	C313.319,99.766,316.285,98.96,319.291,98.205"/>
<polygon fill-rule="evenodd" clip-rule="evenodd" fill="#4561AB" points="297.585,144.918 306.315,141.901 305.654,131.842 
	297.099,134.99 "/>
<polygon fill-rule="evenodd" clip-rule="evenodd" fill="#4561AB" points="314.546,139.101 323.065,136.401 322.74,126.6 
	314.162,129.061 "/>
<polygon fill-rule="evenodd" clip-rule="evenodd" fill="#4561AB" points="299.006,164.623 307.537,161.22 306.798,151.372 
	298.102,154.784 "/>
<polygon fill-rule="evenodd" clip-rule="evenodd" fill="#4561AB" points="316.059,158.223 324.689,155.54 323.69,145.957 
	315.113,148.418 "/>
<polygon fill-rule="evenodd" clip-rule="evenodd" fill="#4561AB" points="306.798,151.372 315.113,148.418 314.546,139.101 
	306.315,141.901 "/>
<rect x="205.012" y="83.526" fill-rule="evenodd" clip-rule="evenodd" fill="#4561AB" width="36.858" height="71.464"/>
<rect x="485.012" y="83.526" fill-rule="evenodd" clip-rule="evenodd" fill="#4561AB" width="36.859" height="71.464"/>
</svg>
