<?xml version="1.0" encoding="utf-8"?>
<!-- Generator: Adobe Illustrator 17.0.0, SVG Export Plug-In . SVG Version: 6.00 Build 0)  -->
<!DOCTYPE svg PUBLIC "-//W3C//DTD SVG 1.1//EN" "http://www.w3.org/Graphics/SVG/1.1/DTD/svg11.dtd">
<svg version="1.1" id="Capa_1" xmlns="http://www.w3.org/2000/svg" xmlns:xlink="http://www.w3.org/1999/xlink" x="0px" y="0px"
	 width="595.28px" height="841.89px" viewBox="0 0 595.28 841.89" enable-background="new 0 0 595.28 841.89" xml:space="preserve">
<g id="dorso">
	<g>
		<g>
			<defs>
				<path id="SVGID_7_" d="M351.091,447.247c2.821,7.592,3.376,26.587,3.376,26.587c2.251,27.007,5.491,64.712,5.491,64.712
					c3.376,50.638-7.322,105.222-7.322,105.222c-0.675,4.276-1.545,7.877-1.545,7.877c1.32,12.753,27.007,14.164,27.007,14.164
					c49.228,4.126,99.776,0.57,99.776,0.57c24.006-0.465,31.223-5.341,31.223-5.341c6.947-3.001,8.072-8.342,8.072-8.342
					c0.57-1.5-0.84-5.071-0.84-5.071c-5.371-31.253-7.697-55.049-7.697-55.049c-2.341-25.507-0.465-54.584-0.465-54.584
					c2.251-17.164,4.411-50.263,4.411-50.263c1.41-13.128,2.251-28.793,2.251-28.793c0.84-7.697,2.911-11.673,2.911-11.673
					c5.911-9.047,12.753-34.464,12.753-34.464c3.661-16.414,2.341-42.206,2.341-42.206c-10.218-5.912-24.366-9.873-24.366-9.873
					c-14.344-2.911-31.433-12.813-31.433-12.813c-1.41-1.125-7.217-2.161-7.217-2.161h-64.517h-5.912
					c-3.376,0.195-6.842,1.035-6.842,1.035c-16.324,10.323-43.331,17.45-43.331,17.45c-6.197,2.071-13.128,5.446-13.128,5.446
					c-6.377,11.448,4.411,54.014,4.411,54.014C344.625,436.414,351.091,447.247,351.091,447.247z"/>
			</defs>
			<clipPath id="SVGID_1_">
				<use xlink:href="#SVGID_7_"  overflow="visible"/>
			</clipPath>
			<path clip-path="url(#SVGID_1_)" d="M379.886,465.371v10.659l-21.039-10.958v-10.63L379.886,465.371z M379.886,599.657v-10.66
				l-21.039,10.96v10.629L379.886,599.657z M416.597,635.106v-10.66l-21.038,10.96v10.628L416.597,635.106z M416.597,429.308v10.66
				l-21.038-10.958v-10.63L416.597,429.308z M489.938,465.371v10.659l21.039-10.958v-10.63L489.938,465.371z M489.938,599.657
				v-10.66l21.039,10.96v10.629L489.938,599.657z M453.227,635.106v-10.66l21.039,10.96v10.628L453.227,635.106z M496.055,674.544
				h21.04V615.34l-21.04-10.98V674.544z M459.344,674.544h21.039v-23.757l-21.039-10.98V674.544z M389.441,674.544h21.039v-34.737
				l-21.039,10.98V674.544z M352.73,674.544h21.039V604.36l-21.039,10.98V674.544z M373.768,342.038H352.73V449.69l21.039,10.98
				V342.038z M410.48,342.038h-21.039v71.588l21.039,10.98V342.038z M480.383,342.038h-21.039v82.568l21.039-10.98V342.038z
				 M517.095,342.038h-21.04V460.67l21.04-10.98V342.038z M453.227,429.308v10.66l21.039-10.958v-10.63L453.227,429.308z"/>
		</g>
	</g>
	<g id="Capa_2">
	</g>
	<g id="Capa_3">
	</g>
</g>
<g id="frente">
	<g id="Capa_2_copia">
		<g>
			<g>
				<defs>
					<path id="SVGID_9_" d="M247.7,368.191c-10.833-6.332-16.594-6.887-27.577-9.708c-10.983-2.821-25.882-11.673-25.882-11.673
						c4.081,20.96-28.267,25.462-28.267,25.462c-22.791,3.091-35.724-2.251-35.724-2.251c-22.506-8.867-18.575-23.211-18.575-23.211
						c-11.538,8.162-39.955,16.174-39.955,16.174c-11.253,3.241-13.504,5.491-13.504,5.491c2.161,7.457,5.161,16.264,5.161,16.264
						c3.946,12.948,4.321,27.757,4.321,27.757c0.75,9.572,4.456,29.258,4.456,29.258l0.42,1.26
						c2.536,9.287,2.116,26.302,2.116,26.302c0.57,31.928,1.545,44.592,1.545,44.592c0.135,9.573,1.695,17.164,1.695,17.164
						c2.251,33.204,0.285,60.211,0.285,60.211c-3.241,34.179-9.197,62.401-9.572,63.437s-0.375,1.035-0.375,1.035
						c9.002,7.502,66.767,10.503,66.767,10.503c40.33,3.376,96.97-6.752,96.97-6.752c4.321-1.32,5.446-3.751,5.446-3.751
						c-15.379-84.397-9.197-124.727-9.197-124.727c1.695-10.503,3.001-48.763,3.001-48.763c0.375-4.696,0.195-9.948,0.195-9.948
						c-1.125-19.13,2.446-30.383,2.446-30.383s1.5-14.074,6.182-37.945C240.063,404.006,243.904,381.41,247.7,368.191z"/>
				</defs>
				<clipPath id="SVGID_2_">
					<use xlink:href="#SVGID_9_"  overflow="visible"/>
				</clipPath>
			</g>
			<g>
				<defs>
					<path id="SVGID_11_" d="M247.7,368.191c-10.833-6.332-16.594-6.887-27.577-9.708c-10.983-2.821-25.882-11.673-25.882-11.673
						c4.081,20.96-28.267,25.462-28.267,25.462c-22.791,3.091-35.724-2.251-35.724-2.251c-22.506-8.867-18.575-23.211-18.575-23.211
						c-11.538,8.162-39.955,16.174-39.955,16.174c-11.253,3.241-13.504,5.491-13.504,5.491c2.161,7.457,5.161,16.264,5.161,16.264
						c3.946,12.948,4.321,27.757,4.321,27.757c0.75,9.572,4.456,29.258,4.456,29.258l0.42,1.26
						c2.536,9.287,2.116,26.302,2.116,26.302c0.57,31.928,1.545,44.592,1.545,44.592c0.135,9.573,1.695,17.164,1.695,17.164
						c2.251,33.204,0.285,60.211,0.285,60.211c-3.241,34.179-9.197,62.401-9.572,63.437s-0.375,1.035-0.375,1.035
						c9.002,7.502,66.767,10.503,66.767,10.503c40.33,3.376,96.97-6.752,96.97-6.752c4.321-1.32,5.446-3.751,5.446-3.751
						c-15.379-84.397-9.197-124.727-9.197-124.727c1.695-10.503,3.001-48.763,3.001-48.763c0.375-4.696,0.195-9.948,0.195-9.948
						c-1.125-19.13,2.446-30.383,2.446-30.383s1.5-14.074,6.182-37.945C240.063,404.006,243.904,381.41,247.7,368.191z"/>
				</defs>
				<clipPath id="SVGID_3_">
					<use xlink:href="#SVGID_11_"  overflow="visible"/>
				</clipPath>
				<path clip-path="url(#SVGID_3_)" d="M92.995,440.658v52.177l-23.009-10.756v-52.163L92.995,440.658z M86.304,491.209v90.678
					l-23.009-10.759v-90.67L86.304,491.209z M92.995,586.494v71.07l-23.009-10.738v-71.041L92.995,586.494z M133.122,492.474v78.768
					l-23.008-10.748v-78.791L133.122,492.474z M141.724,430.382v10.219l-23.009-10.666v-10.252L141.724,430.382z M138.481,575.201
					v66.285l-23.008-10.709v-66.27L138.481,575.201z M213.44,440.658v52.177l23.009-10.756v-52.163L213.44,440.658z
					 M220.131,491.209v90.678l23.009-10.759v-90.67L220.131,491.209z M213.44,586.494v71.07l23.009-10.738v-71.041L213.44,586.494z
					 M173.312,492.474v78.768l23.009-10.748v-78.791L173.312,492.474z M164.711,430.382v10.219l23.008-10.666v-10.252
					L164.711,430.382z M167.953,575.201v66.285l23.009-10.709v-66.27L167.953,575.201z M218.411,666.948h23.008v-20.927
					l-23.008,10.742V666.948z M110.114,666.948h23.008v-26.45L110.114,629.8V666.948z M65.015,666.948h23.009v-10.185
					l-23.009-10.742V666.948z M86.246,344.742h-22.85L63.295,425.3l22.799,10.616L86.246,344.742z M133.047,344.742h-22.81
					l-0.123,69.41l22.81,10.625L133.047,344.742z M196.199,344.742H173.39l0.121,80.035l22.81-10.625L196.199,344.742z
					 M243.049,344.742H220.2l0.141,91.174L243.14,425.3L243.049,344.742z M173.312,640.498v26.45h23.009V629.8L173.312,640.498z"/>
			</g>
		</g>
	</g>
	<g id="Capa_3_copia">
	</g>
</g>
<g id="manga_frente">
	<g>
		<path fill="none" d="M71.044,447.262c-0.06-0.765-0.15-1.11-0.285-0.855C70.893,446.377,70.983,446.692,71.044,447.262z"/>
		<path fill="none" d="M70.893,468.072c0.03-9.603,0.435-18.155,0.15-20.81C71.239,450.068,70.923,458.905,70.893,468.072z"/>
		<path fill="none" d="M63.392,384.756c0,0-3.001-8.822-5.161-16.264c-6.497,4.486-12.378,11.253-12.378,11.253
			c-18.71,17.72-19.97,58.935-19.97,58.935c-0.285,16.324-2.251,35.019-2.251,35.019c18.005,9.708,45.012,9.572,45.012,9.572
			c1.26-0.42,1.125-2.956,1.125-2.956c0-7.037,1.125-12.243,1.125-12.243c0.03-9.152,0.345-17.99,0.15-20.81
			c-0.06-0.57-0.15-0.885-0.285-0.855l1.41-4.636c0,0-3.706-19.7-4.456-29.258C67.713,412.513,67.338,397.689,63.392,384.756z"/>
		<path fill="none" d="M282.314,473.969c-0.84-13.504-2.821-43.601-2.821-43.601c-0.6-17.089-5.852-31.118-12.378-41.351
			c-8.792-13.774-19.415-20.825-19.415-20.825c-3.811,13.218-7.637,35.814-7.637,35.814c-4.696,23.871-6.182,37.945-6.182,37.945
			c2.011,3.886,1.59,25.132,1.59,25.132c-0.135,1.83,0.285,4.501,0.285,4.501c0.84,6.197,0.57,10.698,0.57,10.698
			C246.304,487.052,282.314,473.969,282.314,473.969z"/>
	</g>
</g>
<g id="manga_dorso">
	<path fill="none" d="M336.088,369.647c-6.377,11.448,4.411,54.014,4.411,54.014c4.126,12.753,10.593,23.586,10.593,23.586
		c-1.5-0.24-1.215,1.17-1.215,1.17c-1.5,9.948-0.66,23.256-0.66,23.256c-0.375,3.841-0.765,8.537-0.765,8.537
		c-0.285,4.966-0.075,6.842-0.075,6.842c-3.091,2.536-9.663,2.341-9.663,2.341c-26.452-1.035-37.33-11.253-37.33-11.253
		c0.66-0.945,0.945-14.629,0.945-14.629c0.66-6.842,0.84-14.539,0.84-14.539l0.57-6.197l0.285-7.592
		c2.161-41.636,23.256-57.39,23.256-57.39C331.676,374.433,336.088,369.647,336.088,369.647z"/>
	<path fill="none" d="M517.845,447.772c1.575-5.176,3.961-8.492,6.152-14.434c2.971-8.042,4.486-15.259,6.482-20.555
		c3.661-16.414,2.341-42.206,2.341-42.206c10.833,9.708,16.174,16.174,16.174,16.174c16.879,25.747,15.199,54.584,15.199,54.584
		c0.99,15.754,2.386,34.329,2.386,34.329c0.42,3.031-2.536,4.996-2.536,4.996c-21.095,10.263-37.48,8.657-37.48,8.657
		c-5.911,0.075-6.827-2.671-6.827-2.671c-0.21-7.667-0.78-14.704-0.78-14.704c-0.135-13.218-0.495-20.675-0.495-20.675
		C518.1,448.552,517.845,447.772,517.845,447.772z"/>
</g>
<rect x="249.061" y="134.038" fill-rule="evenodd" clip-rule="evenodd" fill="#010101" width="97.2" height="132.506"/>
<path fill-rule="evenodd" clip-rule="evenodd" fill="#2A2F38" d="M269.249,173.483v21.458l-10.855-4.424v-21.452L269.249,173.483z
	 M266.092,194.272v37.291l-10.855-4.424v-37.288L266.092,194.272z M269.249,233.458v29.228l-10.855-4.416v-29.215L269.249,233.458z
	 M288.18,194.792v32.393l-10.854-4.42v-32.402L288.18,194.792z M292.238,169.257v4.203l-10.855-4.386v-4.216L292.238,169.257z
	 M290.708,228.814v27.26l-10.855-4.404v-27.253L290.708,228.814z M326.071,173.483v21.458l10.855-4.424v-21.452L326.071,173.483z
	 M329.228,194.272v37.291l10.855-4.424v-37.288L329.228,194.272z M326.071,233.458v29.228l10.855-4.416v-29.215L326.071,233.458z
	 M307.14,194.792v32.393l10.855-4.42v-32.402L307.14,194.792z M303.082,169.257v4.203l10.855-4.386v-4.216L303.082,169.257z
	 M304.612,228.814v27.26l10.855-4.404v-27.253L304.612,228.814z M328.417,266.544h10.854v-8.606l-10.854,4.418V266.544z
	 M277.326,266.544h10.854v-10.878l-10.854-4.399V266.544z M256.049,266.544h10.855v-4.188l-10.855-4.418V266.544z M266.065,134.038
	h-10.78l-0.047,33.129l10.756,4.366L266.065,134.038z M288.144,134.038h-10.761l-0.058,28.544l10.761,4.37L288.144,134.038z
	 M317.938,134.038h-10.76l0.057,32.914l10.761-4.37L317.938,134.038z M340.04,134.038H329.26l0.066,37.495l10.756-4.366
	L340.04,134.038z M307.14,255.667v10.878h10.855v-15.277L307.14,255.667z"/>
<rect x="355.596" y="134.038" fill-rule="evenodd" clip-rule="evenodd" fill="#010101" width="97.2" height="132.506"/>
<path fill-rule="evenodd" clip-rule="evenodd" fill="#2A2F38" d="M375.795,183.187v4.247l-10.859-4.367v-4.236L375.795,183.187z
	 M375.795,236.701v-4.248l-10.859,4.367v4.236L375.795,236.701z M394.743,250.828v-4.248l-10.858,4.367v4.235L394.743,250.828z
	 M394.743,168.816v4.248l-10.858-4.367v-4.236L394.743,168.816z M432.597,183.187v4.247l10.859-4.367v-4.236L432.597,183.187z
	 M432.597,236.701v-4.248l10.859,4.367v4.236L432.597,236.701z M413.649,250.828v-4.248l10.859,4.367v4.235L413.649,250.828z
	 M435.755,266.544h10.859v-23.594l-10.859-4.375V266.544z M416.807,266.544h10.859v-9.467l-10.859-4.376V266.544z M380.727,266.544
	h10.859v-13.843l-10.859,4.376V266.544z M361.778,266.544h10.859v-27.969l-10.859,4.375V266.544z M372.637,134.038h-10.859v42.9
	l10.859,4.375V134.038z M391.586,134.038h-10.859v28.529l10.859,4.375V134.038z M427.666,134.038h-10.859v32.904l10.859-4.375
	V134.038z M446.614,134.038h-10.859v47.276l10.859-4.375V134.038z M413.649,168.816v4.248l10.859-4.367v-4.236L413.649,168.816z"/>
<rect x="182.816" y="140.336" fill-rule="evenodd" clip-rule="evenodd" fill="#010101" width="36.858" height="89.245"/>
<rect x="462.816" y="140.336" fill-rule="evenodd" clip-rule="evenodd" fill="#010101" width="36.859" height="89.245"/>
</svg>
