<?xml version="1.0" encoding="utf-8"?>
<!-- Generator: Adobe Illustrator 17.0.0, SVG Export Plug-In . SVG Version: 6.00 Build 0)  -->
<!DOCTYPE svg PUBLIC "-//W3C//DTD SVG 1.1//EN" "http://www.w3.org/Graphics/SVG/1.1/DTD/svg11.dtd">
<svg version="1.1" id="Capa_1" xmlns="http://www.w3.org/2000/svg" xmlns:xlink="http://www.w3.org/1999/xlink" x="0px" y="0px"
	 width="595.28px" height="841.89px" viewBox="0 0 595.28 841.89" enable-background="new 0 0 595.28 841.89" xml:space="preserve">
<g id="dorso">
	<g>
		<g>
			<defs>
				<path id="SVGID_1_" d="M351.091,447.247c2.821,7.592,3.376,26.587,3.376,26.587c2.251,27.007,5.491,64.712,5.491,64.712
					c3.376,50.638-7.322,105.222-7.322,105.222c-0.675,4.276-1.545,7.877-1.545,7.877c1.32,12.753,27.007,14.164,27.007,14.164
					c49.228,4.126,99.776,0.57,99.776,0.57c24.006-0.465,31.223-5.341,31.223-5.341c6.947-3.001,8.072-8.342,8.072-8.342
					c0.57-1.5-0.84-5.071-0.84-5.071c-5.371-31.253-7.697-55.049-7.697-55.049c-2.341-25.507-0.465-54.584-0.465-54.584
					c2.251-17.164,4.411-50.263,4.411-50.263c1.41-13.128,2.251-28.793,2.251-28.793c0.84-7.697,2.911-11.673,2.911-11.673
					c5.911-9.047,12.753-34.464,12.753-34.464c3.661-16.414,2.341-42.206,2.341-42.206c-10.218-5.912-24.366-9.873-24.366-9.873
					c-14.344-2.911-31.433-12.813-31.433-12.813c-1.41-1.125-7.217-2.161-7.217-2.161h-64.517h-5.912
					c-3.376,0.195-6.842,1.035-6.842,1.035c-16.324,10.323-43.331,17.45-43.331,17.45c-6.197,2.071-13.128,5.446-13.128,5.446
					c-6.377,11.448,4.411,54.014,4.411,54.014C344.625,436.414,351.091,447.247,351.091,447.247z"/>
			</defs>
			<clipPath id="SVGID_2_">
				<use xlink:href="#SVGID_1_"  overflow="visible"/>
			</clipPath>
			<rect x="432.511" y="231.014" clip-path="url(#SVGID_2_)" fill="none" width="0" height="212.718"/>
			<path clip-path="url(#SVGID_2_)" fill="none" d="M326.153,673.221H538.87V337.374H326.153V673.221z M326.242,337.482
				L326.242,337.482L326.242,337.482l15.357,0h4.371h21.017h4.371h21.017h4.371h21.017h4.371h21.017h4.371h21.017h4.371h21.017
				h4.371h21.017h4.371h14.377h0.717v0v335.631h-0.717h-14.377h-4.371h0h-21.017h-4.371h-21.017h-4.371h-21.017h0h-4.371h-21.017h0
				h-4.37h0h-21.017h0h-4.371h-21.017h0h-4.371h-21.017h0H341.6h-15.357h0V337.482z"/>
			<linearGradient id="SVGID_3_" gradientUnits="userSpaceOnUse" x1="483.4197" y1="337.4815" x2="483.4197" y2="673.1129">
				<stop  offset="0.4021" style="stop-color:#FFFFFF;stop-opacity:0"/>
				<stop  offset="0.6014" style="stop-color:#000000"/>
			</linearGradient>
			<polygon clip-path="url(#SVGID_2_)" fill="url(#SVGID_3_)" points="493.928,337.482 472.911,337.482 472.911,673.113 
				472.911,673.113 472.911,673.113 493.928,673.113 493.928,673.113 			"/>
			<linearGradient id="SVGID_4_" gradientUnits="userSpaceOnUse" x1="356.4792" y1="337.4815" x2="356.4792" y2="673.1129">
				<stop  offset="0.4021" style="stop-color:#FFFFFF;stop-opacity:0"/>
				<stop  offset="0.6014" style="stop-color:#000000"/>
			</linearGradient>
			<polygon clip-path="url(#SVGID_2_)" fill="url(#SVGID_4_)" points="366.988,337.482 345.971,337.482 345.971,673.113 
				345.971,673.113 366.988,673.113 366.988,673.113 			"/>
			<linearGradient id="SVGID_5_" gradientUnits="userSpaceOnUse" x1="333.9211" y1="337.4815" x2="333.9211" y2="673.1129">
				<stop  offset="0.4021" style="stop-color:#FFFFFF;stop-opacity:0"/>
				<stop  offset="0.6014" style="stop-color:#000000"/>
			</linearGradient>
			<polygon clip-path="url(#SVGID_2_)" fill="url(#SVGID_5_)" points="341.6,337.482 326.243,337.482 326.243,673.113 
				341.6,673.113 341.6,673.113 			"/>
			<linearGradient id="SVGID_6_" gradientUnits="userSpaceOnUse" x1="381.8674" y1="337.4815" x2="381.8674" y2="673.1129">
				<stop  offset="0.4021" style="stop-color:#FFFFFF;stop-opacity:0"/>
				<stop  offset="0.6014" style="stop-color:#000000"/>
			</linearGradient>
			<polygon clip-path="url(#SVGID_2_)" fill="url(#SVGID_6_)" points="392.376,337.482 371.359,337.482 371.359,673.113 
				392.376,673.113 392.376,673.113 			"/>
			<linearGradient id="SVGID_7_" gradientUnits="userSpaceOnUse" x1="432.6436" y1="337.4815" x2="432.6436" y2="673.1129">
				<stop  offset="0.4021" style="stop-color:#FFFFFF;stop-opacity:0"/>
				<stop  offset="0.6014" style="stop-color:#000000"/>
			</linearGradient>
			<polygon clip-path="url(#SVGID_2_)" fill="url(#SVGID_7_)" points="443.152,337.482 422.135,337.482 422.135,673.113 
				422.135,673.113 443.152,673.113 443.152,673.113 			"/>
			<linearGradient id="SVGID_8_" gradientUnits="userSpaceOnUse" x1="458.0317" y1="337.4815" x2="458.0317" y2="673.1129">
				<stop  offset="0.4021" style="stop-color:#FFFFFF;stop-opacity:0"/>
				<stop  offset="0.6014" style="stop-color:#000000"/>
			</linearGradient>
			<rect x="447.523" y="337.482" clip-path="url(#SVGID_2_)" fill="url(#SVGID_8_)" width="21.017" height="335.631"/>
			<linearGradient id="SVGID_9_" gradientUnits="userSpaceOnUse" x1="407.2556" y1="337.4815" x2="407.2556" y2="673.1129">
				<stop  offset="0.4021" style="stop-color:#FFFFFF;stop-opacity:0"/>
				<stop  offset="0.6014" style="stop-color:#000000"/>
			</linearGradient>
			<polygon clip-path="url(#SVGID_2_)" fill="url(#SVGID_9_)" points="417.764,673.113 417.764,337.482 396.747,337.482 
				396.747,673.113 417.764,673.113 417.764,673.113 417.764,673.113 			"/>
			<linearGradient id="SVGID_10_" gradientUnits="userSpaceOnUse" x1="508.8079" y1="337.4815" x2="508.8079" y2="673.1129">
				<stop  offset="0.4021" style="stop-color:#FFFFFF;stop-opacity:0"/>
				<stop  offset="0.6014" style="stop-color:#000000"/>
			</linearGradient>
			<polygon clip-path="url(#SVGID_2_)" fill="url(#SVGID_10_)" points="498.299,337.482 498.299,673.113 498.299,673.113 
				519.316,673.113 519.316,337.482 			"/>
			<linearGradient id="SVGID_11_" gradientUnits="userSpaceOnUse" x1="530.876" y1="337.4815" x2="530.876" y2="673.1129">
				<stop  offset="0.4021" style="stop-color:#FFFFFF;stop-opacity:0"/>
				<stop  offset="0.6014" style="stop-color:#000000"/>
			</linearGradient>
			<polygon clip-path="url(#SVGID_2_)" fill="url(#SVGID_11_)" points="523.688,337.482 523.688,673.113 523.688,673.113 
				538.064,673.113 538.064,337.482 			"/>
			<linearGradient id="SVGID_12_" gradientUnits="userSpaceOnUse" x1="521.5021" y1="673.1128" x2="521.5021" y2="337.4815">
				<stop  offset="0.4021" style="stop-color:#FFFFFF;stop-opacity:0"/>
				<stop  offset="0.6014" style="stop-color:#000000"/>
			</linearGradient>
			<rect x="519.317" y="337.482" clip-path="url(#SVGID_2_)" fill="url(#SVGID_12_)" width="4.371" height="335.631"/>
			<linearGradient id="SVGID_13_" gradientUnits="userSpaceOnUse" x1="470.7257" y1="673.1128" x2="470.7257" y2="337.4815">
				<stop  offset="0.4021" style="stop-color:#FFFFFF;stop-opacity:0"/>
				<stop  offset="0.6014" style="stop-color:#000000"/>
			</linearGradient>
			<rect x="468.54" y="337.482" clip-path="url(#SVGID_2_)" fill="url(#SVGID_13_)" width="4.371" height="335.631"/>
			<linearGradient id="SVGID_14_" gradientUnits="userSpaceOnUse" x1="445.3375" y1="673.1128" x2="445.3375" y2="337.4815">
				<stop  offset="0.4021" style="stop-color:#FFFFFF;stop-opacity:0"/>
				<stop  offset="0.6014" style="stop-color:#000000"/>
			</linearGradient>
			<rect x="443.152" y="337.482" clip-path="url(#SVGID_2_)" fill="url(#SVGID_14_)" width="4.371" height="335.631"/>
			<linearGradient id="SVGID_15_" gradientUnits="userSpaceOnUse" x1="419.9494" y1="673.1128" x2="419.9494" y2="337.4815">
				<stop  offset="0.4021" style="stop-color:#FFFFFF;stop-opacity:0"/>
				<stop  offset="0.6014" style="stop-color:#000000"/>
			</linearGradient>
			<rect x="417.764" y="337.482" clip-path="url(#SVGID_2_)" fill="url(#SVGID_15_)" width="4.37" height="335.631"/>
			<linearGradient id="SVGID_16_" gradientUnits="userSpaceOnUse" x1="394.5613" y1="673.1128" x2="394.5613" y2="337.4815">
				<stop  offset="0.4021" style="stop-color:#FFFFFF;stop-opacity:0"/>
				<stop  offset="0.6014" style="stop-color:#000000"/>
			</linearGradient>
			<rect x="392.376" y="337.482" clip-path="url(#SVGID_2_)" fill="url(#SVGID_16_)" width="4.371" height="335.631"/>
			<linearGradient id="SVGID_17_" gradientUnits="userSpaceOnUse" x1="369.1731" y1="673.1128" x2="369.1731" y2="337.4815">
				<stop  offset="0.4021" style="stop-color:#FFFFFF;stop-opacity:0"/>
				<stop  offset="0.6014" style="stop-color:#000000"/>
			</linearGradient>
			<rect x="366.988" y="337.482" clip-path="url(#SVGID_2_)" fill="url(#SVGID_17_)" width="4.371" height="335.631"/>
			<linearGradient id="SVGID_18_" gradientUnits="userSpaceOnUse" x1="343.7849" y1="673.1128" x2="343.7849" y2="337.4815">
				<stop  offset="0.4021" style="stop-color:#FFFFFF;stop-opacity:0"/>
				<stop  offset="0.6014" style="stop-color:#000000"/>
			</linearGradient>
			<rect x="341.6" y="337.482" clip-path="url(#SVGID_2_)" fill="url(#SVGID_18_)" width="4.371" height="335.631"/>
			<linearGradient id="SVGID_19_" gradientUnits="userSpaceOnUse" x1="496.1139" y1="673.1128" x2="496.1139" y2="337.4815">
				<stop  offset="0.4021" style="stop-color:#FFFFFF;stop-opacity:0"/>
				<stop  offset="0.6014" style="stop-color:#000000"/>
			</linearGradient>
			<rect x="493.928" y="337.482" clip-path="url(#SVGID_2_)" fill="url(#SVGID_19_)" width="4.371" height="335.631"/>
		</g>
	</g>
	<g id="Capa_2">
	</g>
	<g id="Capa_3">
	</g>
</g>
<g id="frente">
	<g id="Capa_2_copia">
		<g>
			<g>
				<defs>
					<path id="SVGID_20_" d="M247.7,368.191c-10.833-6.332-16.594-6.887-27.577-9.708c-10.983-2.821-25.882-11.673-25.882-11.673
						c4.081,20.96-28.267,25.462-28.267,25.462c-22.791,3.091-35.724-2.251-35.724-2.251c-22.506-8.867-18.575-23.211-18.575-23.211
						c-11.538,8.162-39.955,16.174-39.955,16.174c-11.253,3.241-13.504,5.491-13.504,5.491c2.161,7.457,5.161,16.264,5.161,16.264
						c3.946,12.948,4.321,27.757,4.321,27.757c0.75,9.572,4.456,29.258,4.456,29.258l0.42,1.26
						c2.536,9.287,2.116,26.302,2.116,26.302c0.57,31.928,1.545,44.592,1.545,44.592c0.135,9.573,1.695,17.164,1.695,17.164
						c2.251,33.204,0.285,60.211,0.285,60.211c-3.241,34.179-9.197,62.401-9.572,63.437s-0.375,1.035-0.375,1.035
						c9.002,7.502,66.767,10.503,66.767,10.503c40.33,3.376,96.97-6.752,96.97-6.752c4.321-1.32,5.446-3.751,5.446-3.751
						c-15.379-84.397-9.197-124.727-9.197-124.727c1.695-10.503,3.001-48.763,3.001-48.763c0.375-4.696,0.195-9.948,0.195-9.948
						c-1.125-19.13,2.446-30.383,2.446-30.383s1.5-14.074,6.182-37.945C240.063,404.006,243.904,381.41,247.7,368.191z"/>
				</defs>
				<clipPath id="SVGID_21_">
					<use xlink:href="#SVGID_20_"  overflow="visible"/>
				</clipPath>
				<g clip-path="url(#SVGID_21_)">
					<rect x="152.294" y="245.553" fill="none" width="0" height="195.733"/>
					<path fill="none" d="M54.428,676.367H250.16V343.419H54.428V676.367z M54.51,343.526L54.51,343.526L54.51,343.526l14.131,0
						h4.022h19.339h4.022h19.339h4.022h19.339h4.022h19.339h4.022h19.339h4.022h19.339h4.022h19.339h4.022h13.229h0.66v0V676.26
						h-0.66H236.19h-4.022h0h-19.339h-4.022h-19.339h-4.022h-19.339h0h-4.022h-19.339h0h-4.021h0h-19.339h0h-4.022H96.024h0h-4.022
						H72.663h0h-4.022H54.511h0V343.526z"/>
					<linearGradient id="SVGID_22_" gradientUnits="userSpaceOnUse" x1="199.1374" y1="343.5265" x2="199.1374" y2="676.2599">
						<stop  offset="0.4021" style="stop-color:#FFFFFF;stop-opacity:0"/>
						<stop  offset="0.6014" style="stop-color:#000000"/>
					</linearGradient>
					<polygon fill="url(#SVGID_22_)" points="208.807,343.526 189.468,343.526 189.468,676.26 189.468,676.26 189.468,676.26 
						208.807,676.26 208.807,676.26 					"/>
					<linearGradient id="SVGID_23_" gradientUnits="userSpaceOnUse" x1="82.3328" y1="343.5265" x2="82.3328" y2="676.2599">
						<stop  offset="0.4021" style="stop-color:#FFFFFF;stop-opacity:0"/>
						<stop  offset="0.6014" style="stop-color:#000000"/>
					</linearGradient>
					<polygon fill="url(#SVGID_23_)" points="92.002,343.526 72.663,343.526 72.663,676.26 72.663,676.26 92.002,676.26 
						92.002,676.26 					"/>
					<linearGradient id="SVGID_24_" gradientUnits="userSpaceOnUse" x1="61.5759" y1="343.5265" x2="61.5759" y2="676.2599">
						<stop  offset="0.4021" style="stop-color:#FFFFFF;stop-opacity:0"/>
						<stop  offset="0.6014" style="stop-color:#000000"/>
					</linearGradient>
					<polygon fill="url(#SVGID_24_)" points="68.641,343.526 54.511,343.526 54.511,676.26 68.641,676.26 68.641,676.26 					"/>
					<linearGradient id="SVGID_25_" gradientUnits="userSpaceOnUse" x1="105.6938" y1="343.5265" x2="105.6938" y2="676.2599">
						<stop  offset="0.4021" style="stop-color:#FFFFFF;stop-opacity:0"/>
						<stop  offset="0.6014" style="stop-color:#000000"/>
					</linearGradient>
					<polygon fill="url(#SVGID_25_)" points="115.363,343.526 96.024,343.526 96.024,676.26 115.363,676.26 115.363,676.26 					"/>
					<linearGradient id="SVGID_26_" gradientUnits="userSpaceOnUse" x1="152.4156" y1="343.5265" x2="152.4156" y2="676.2599">
						<stop  offset="0.4021" style="stop-color:#FFFFFF;stop-opacity:0"/>
						<stop  offset="0.6014" style="stop-color:#000000"/>
					</linearGradient>
					<polygon fill="url(#SVGID_26_)" points="162.085,343.526 142.746,343.526 142.746,676.26 142.746,676.26 162.085,676.26 
						162.085,676.26 					"/>
					<linearGradient id="SVGID_27_" gradientUnits="userSpaceOnUse" x1="175.7765" y1="343.5265" x2="175.7765" y2="676.2599">
						<stop  offset="0.4021" style="stop-color:#FFFFFF;stop-opacity:0"/>
						<stop  offset="0.6014" style="stop-color:#000000"/>
					</linearGradient>
					<rect x="166.107" y="343.526" fill="url(#SVGID_27_)" width="19.339" height="332.733"/>
					<linearGradient id="SVGID_28_" gradientUnits="userSpaceOnUse" x1="129.0548" y1="343.5265" x2="129.0548" y2="676.2599">
						<stop  offset="0.4021" style="stop-color:#FFFFFF;stop-opacity:0"/>
						<stop  offset="0.6014" style="stop-color:#000000"/>
					</linearGradient>
					<polygon fill="url(#SVGID_28_)" points="138.724,676.26 138.724,343.526 119.385,343.526 119.385,676.26 138.724,676.26 
						138.724,676.26 138.724,676.26 					"/>
					<linearGradient id="SVGID_29_" gradientUnits="userSpaceOnUse" x1="222.4983" y1="343.5265" x2="222.4983" y2="676.2599">
						<stop  offset="0.4021" style="stop-color:#FFFFFF;stop-opacity:0"/>
						<stop  offset="0.6014" style="stop-color:#000000"/>
					</linearGradient>
					<polygon fill="url(#SVGID_29_)" points="212.829,343.526 212.829,676.26 212.829,676.26 232.168,676.26 232.168,343.526 					
						"/>
					<linearGradient id="SVGID_30_" gradientUnits="userSpaceOnUse" x1="242.8043" y1="343.5265" x2="242.8043" y2="676.2599">
						<stop  offset="0.4021" style="stop-color:#FFFFFF;stop-opacity:0"/>
						<stop  offset="0.6014" style="stop-color:#000000"/>
					</linearGradient>
					<polygon fill="url(#SVGID_30_)" points="236.19,343.526 236.19,676.26 236.19,676.26 249.419,676.26 249.419,343.526 					"/>
					<linearGradient id="SVGID_31_" gradientUnits="userSpaceOnUse" x1="234.179" y1="676.2597" x2="234.179" y2="343.5265">
						<stop  offset="0.4021" style="stop-color:#FFFFFF;stop-opacity:0"/>
						<stop  offset="0.6014" style="stop-color:#000000"/>
					</linearGradient>
					<rect x="232.168" y="343.526" fill="url(#SVGID_31_)" width="4.022" height="332.733"/>
					<linearGradient id="SVGID_32_" gradientUnits="userSpaceOnUse" x1="187.457" y1="676.2597" x2="187.457" y2="343.5265">
						<stop  offset="0.4021" style="stop-color:#FFFFFF;stop-opacity:0"/>
						<stop  offset="0.6014" style="stop-color:#000000"/>
					</linearGradient>
					<rect x="185.446" y="343.526" fill="url(#SVGID_32_)" width="4.022" height="332.733"/>
					<linearGradient id="SVGID_33_" gradientUnits="userSpaceOnUse" x1="164.0959" y1="676.2597" x2="164.0959" y2="343.5265">
						<stop  offset="0.4021" style="stop-color:#FFFFFF;stop-opacity:0"/>
						<stop  offset="0.6014" style="stop-color:#000000"/>
					</linearGradient>
					<rect x="162.085" y="343.526" fill="url(#SVGID_33_)" width="4.022" height="332.733"/>
					<linearGradient id="SVGID_34_" gradientUnits="userSpaceOnUse" x1="140.735" y1="676.2597" x2="140.735" y2="343.5265">
						<stop  offset="0.4021" style="stop-color:#FFFFFF;stop-opacity:0"/>
						<stop  offset="0.6014" style="stop-color:#000000"/>
					</linearGradient>
					<rect x="138.724" y="343.526" fill="url(#SVGID_34_)" width="4.021" height="332.733"/>
					<linearGradient id="SVGID_35_" gradientUnits="userSpaceOnUse" x1="117.3741" y1="676.2597" x2="117.3741" y2="343.5265">
						<stop  offset="0.4021" style="stop-color:#FFFFFF;stop-opacity:0"/>
						<stop  offset="0.6014" style="stop-color:#000000"/>
					</linearGradient>
					<rect x="115.363" y="343.526" fill="url(#SVGID_35_)" width="4.022" height="332.733"/>
					<linearGradient id="SVGID_36_" gradientUnits="userSpaceOnUse" x1="94.0131" y1="676.2597" x2="94.0131" y2="343.5265">
						<stop  offset="0.4021" style="stop-color:#FFFFFF;stop-opacity:0"/>
						<stop  offset="0.6014" style="stop-color:#000000"/>
					</linearGradient>
					<rect x="92.002" y="343.526" fill="url(#SVGID_36_)" width="4.022" height="332.733"/>
					<linearGradient id="SVGID_37_" gradientUnits="userSpaceOnUse" x1="70.6521" y1="676.2597" x2="70.6521" y2="343.5265">
						<stop  offset="0.4021" style="stop-color:#FFFFFF;stop-opacity:0"/>
						<stop  offset="0.6014" style="stop-color:#000000"/>
					</linearGradient>
					<rect x="68.641" y="343.526" fill="url(#SVGID_37_)" width="4.022" height="332.733"/>
					<linearGradient id="SVGID_38_" gradientUnits="userSpaceOnUse" x1="210.8179" y1="676.2597" x2="210.8179" y2="343.5265">
						<stop  offset="0.4021" style="stop-color:#FFFFFF;stop-opacity:0"/>
						<stop  offset="0.6014" style="stop-color:#000000"/>
					</linearGradient>
					<rect x="208.807" y="343.526" fill="url(#SVGID_38_)" width="4.022" height="332.733"/>
				</g>
			</g>
		</g>
	</g>
	<g id="Capa_3_copia">
	</g>
</g>
<g id="manga_frente">
	<g>
		<path fill="none" d="M71.044,447.262c-0.06-0.765-0.15-1.11-0.285-0.855C70.893,446.377,70.983,446.692,71.044,447.262z"/>
		<path fill="none" d="M70.893,468.072c0.03-9.603,0.435-18.155,0.15-20.81C71.239,450.068,70.923,458.905,70.893,468.072z"/>
		<path fill="none" d="M63.392,384.756c0,0-3.001-8.822-5.161-16.264c-6.497,4.486-12.378,11.253-12.378,11.253
			c-18.71,17.72-19.97,58.935-19.97,58.935c-0.285,16.324-2.251,35.019-2.251,35.019c18.005,9.708,45.012,9.572,45.012,9.572
			c1.26-0.42,1.125-2.956,1.125-2.956c0-7.037,1.125-12.243,1.125-12.243c0.03-9.152,0.345-17.99,0.15-20.81
			c-0.06-0.57-0.15-0.885-0.285-0.855l1.41-4.636c0,0-3.706-19.7-4.456-29.258C67.713,412.513,67.338,397.689,63.392,384.756z"/>
		<path fill="none" d="M282.314,473.969c-0.84-13.504-2.821-43.601-2.821-43.601c-0.6-17.089-5.852-31.118-12.378-41.351
			c-8.792-13.774-19.415-20.825-19.415-20.825c-3.811,13.218-7.637,35.814-7.637,35.814c-4.696,23.871-6.182,37.945-6.182,37.945
			c2.011,3.886,1.59,25.132,1.59,25.132c-0.135,1.83,0.285,4.501,0.285,4.501c0.84,6.197,0.57,10.698,0.57,10.698
			C246.304,487.052,282.314,473.969,282.314,473.969z"/>
	</g>
</g>
<g id="manga_dorso">
	<path fill="none" d="M336.088,369.647c-6.377,11.448,4.411,54.014,4.411,54.014c4.126,12.753,10.593,23.586,10.593,23.586
		c-1.5-0.24-1.215,1.17-1.215,1.17c-1.5,9.948-0.66,23.256-0.66,23.256c-0.375,3.841-0.765,8.537-0.765,8.537
		c-0.285,4.966-0.075,6.842-0.075,6.842c-3.091,2.536-9.663,2.341-9.663,2.341c-26.452-1.035-37.33-11.253-37.33-11.253
		c0.66-0.945,0.945-14.629,0.945-14.629c0.66-6.842,0.84-14.539,0.84-14.539l0.57-6.197l0.285-7.592
		c2.161-41.636,23.256-57.39,23.256-57.39C331.676,374.433,336.088,369.647,336.088,369.647z"/>
	<path fill="none" d="M517.845,447.772c1.575-5.176,3.961-8.492,6.152-14.434c2.971-8.042,4.486-15.259,6.482-20.555
		c3.661-16.414,2.341-42.206,2.341-42.206c10.833,9.708,16.174,16.174,16.174,16.174c16.879,25.747,15.199,54.584,15.199,54.584
		c0.99,15.754,2.386,34.329,2.386,34.329c0.42,3.031-2.536,4.996-2.536,4.996c-21.095,10.263-37.48,8.657-37.48,8.657
		c-5.911,0.075-6.827-2.671-6.827-2.671c-0.21-7.667-0.78-14.704-0.78-14.704c-0.135-13.218-0.495-20.675-0.495-20.675
		C518.1,448.552,517.845,447.772,517.845,447.772z"/>
</g>
<g>
	<g>
		<rect x="297.417" y="121.872" fill="#020204" width="0" height="0.329"/>
	</g>
	<rect x="299.093" y="122.305" fill="#2E2682" width="96.809" height="127.644"/>
	<g>
		<defs>
			<filter id="Adobe_OpacityMaskFilter" filterUnits="userSpaceOnUse" x="299.051" y="122.264" width="96.892" height="127.726">
				<feColorMatrix  type="matrix" values="1 0 0 0 0  0 1 0 0 0  0 0 1 0 0  0 0 0 1 0"/>
			</filter>
		</defs>
		<mask maskUnits="userSpaceOnUse" x="299.051" y="122.264" width="96.892" height="127.726" id="SVGID_39_">
			<g filter="url(#Adobe_OpacityMaskFilter)">
				<rect x="299.051" y="122.264" width="96.892" height="127.726"/>
				<g enable-background="new    ">
					
						<linearGradient id="SVGID_40_" gradientUnits="userSpaceOnUse" x1="-0.2447" y1="836.9709" x2="-0.0996" y2="836.9709" gradientTransform="matrix(0 221.07 221.07 0 -184681.6719 218.1035)">
						<stop  offset="0" style="stop-color:#FFFFFF"/>
						<stop  offset="1" style="stop-color:#1A1A18"/>
					</linearGradient>
					<rect x="299.051" y="122.264" fill="url(#SVGID_40_)" width="96.892" height="127.726"/>
				</g>
			</g>
		</mask>
		<g mask="url(#SVGID_39_)">
			<g>
				<defs>
					<rect id="SVGID_41_" x="299.051" y="122.264" width="96.892" height="127.726"/>
				</defs>
				<clipPath id="SVGID_42_">
					<use xlink:href="#SVGID_41_"  overflow="visible"/>
				</clipPath>
				<rect x="299.092" y="122.305" clip-path="url(#SVGID_42_)" fill="#020204" width="96.809" height="127.644"/>
				<g clip-path="url(#SVGID_42_)">
					<defs>
						<rect id="SVGID_43_" x="299.051" y="122.264" width="96.891" height="127.726"/>
					</defs>
					<clipPath id="SVGID_44_">
						<use xlink:href="#SVGID_43_"  overflow="visible"/>
					</clipPath>
					
						<rect x="299.092" y="122.305" clip-path="url(#SVGID_44_)" fill="none" stroke="#1A1A18" stroke-width="0.0823" stroke-miterlimit="22.926" width="96.809" height="127.644"/>
				</g>
			</g>
		</g>
	</g>
	<rect x="309.338" y="122.305" fill="#2E2682" width="2.083" height="127.644"/>
	<g>
		<defs>
			<filter id="Adobe_OpacityMaskFilter_1_" filterUnits="userSpaceOnUse" x="309.338" y="122.305" width="2.083" height="127.644">
				<feColorMatrix  type="matrix" values="1 0 0 0 0  0 1 0 0 0  0 0 1 0 0  0 0 0 1 0"/>
			</filter>
		</defs>
		<mask maskUnits="userSpaceOnUse" x="309.338" y="122.305" width="2.083" height="127.644" id="SVGID_45_">
			<g filter="url(#Adobe_OpacityMaskFilter_1_)">
				<rect x="309.338" y="122.305" width="2.083" height="127.644"/>
				<g enable-background="new    ">
					
						<linearGradient id="SVGID_46_" gradientUnits="userSpaceOnUse" x1="1.6193" y1="844.9382" x2="1.7645" y2="844.9382" gradientTransform="matrix(0 -220.57 -220.57 0 186678.375 562.1428)">
						<stop  offset="0" style="stop-color:#FFFFFF"/>
						<stop  offset="1" style="stop-color:#1A1A18"/>
					</linearGradient>
					<rect x="309.338" y="122.305" fill="url(#SVGID_46_)" width="2.083" height="127.644"/>
				</g>
			</g>
		</mask>
		<g mask="url(#SVGID_45_)">
			<g>
				<defs>
					<rect id="SVGID_47_" x="309.338" y="122.305" width="2.083" height="127.644"/>
				</defs>
				<clipPath id="SVGID_48_">
					<use xlink:href="#SVGID_47_"  overflow="visible"/>
				</clipPath>
				
					<rect x="309.338" y="122.305" clip-path="url(#SVGID_48_)" fill-rule="evenodd" clip-rule="evenodd" fill="#020204" width="2.083" height="127.644"/>
			</g>
		</g>
	</g>
	<rect x="324.104" y="122.305" fill="#2E2682" width="2.083" height="127.644"/>
	<rect x="338.869" y="122.305" fill="#2E2682" width="2.083" height="127.644"/>
	<rect x="353.635" y="122.305" fill="#2E2682" width="2.083" height="127.644"/>
	<rect x="368.401" y="122.305" fill="#2E2682" width="2.083" height="127.644"/>
	<rect x="383.167" y="122.305" fill="#2E2682" width="2.083" height="127.644"/>
	<g>
		<defs>
			<filter id="Adobe_OpacityMaskFilter_2_" filterUnits="userSpaceOnUse" x="324.104" y="122.305" width="2.084" height="127.644">
				<feColorMatrix  type="matrix" values="1 0 0 0 0  0 1 0 0 0  0 0 1 0 0  0 0 0 1 0"/>
			</filter>
		</defs>
		<mask maskUnits="userSpaceOnUse" x="324.104" y="122.305" width="2.084" height="127.644" id="SVGID_49_">
			<g filter="url(#Adobe_OpacityMaskFilter_2_)">
				<rect x="324.104" y="122.305" width="2.083" height="127.644"/>
				<g enable-background="new    ">
					
						<linearGradient id="SVGID_50_" gradientUnits="userSpaceOnUse" x1="1.6193" y1="845.3325" x2="1.7645" y2="845.3325" gradientTransform="matrix(0 -220.57 -220.57 0 186780.1094 562.1428)">
						<stop  offset="0" style="stop-color:#FFFFFF"/>
						<stop  offset="1" style="stop-color:#1A1A18"/>
					</linearGradient>
					<rect x="324.104" y="122.305" fill="url(#SVGID_50_)" width="2.083" height="127.644"/>
				</g>
			</g>
		</mask>
		<g mask="url(#SVGID_49_)">
			<g>
				<defs>
					<rect id="SVGID_51_" x="324.104" y="122.305" width="2.083" height="127.644"/>
				</defs>
				<clipPath id="SVGID_52_">
					<use xlink:href="#SVGID_51_"  overflow="visible"/>
				</clipPath>
				
					<rect x="324.104" y="122.305" clip-path="url(#SVGID_52_)" fill-rule="evenodd" clip-rule="evenodd" fill="#020204" width="2.083" height="127.644"/>
			</g>
		</g>
		<defs>
			<filter id="Adobe_OpacityMaskFilter_3_" filterUnits="userSpaceOnUse" x="338.869" y="122.305" width="2.083" height="127.644">
				<feColorMatrix  type="matrix" values="1 0 0 0 0  0 1 0 0 0  0 0 1 0 0  0 0 0 1 0"/>
			</filter>
		</defs>
		<mask maskUnits="userSpaceOnUse" x="338.869" y="122.305" width="2.083" height="127.644" id="SVGID_53_">
			<g filter="url(#Adobe_OpacityMaskFilter_3_)">
				<rect x="338.869" y="122.305" width="2.083" height="127.644"/>
				<g enable-background="new    ">
					
						<linearGradient id="SVGID_54_" gradientUnits="userSpaceOnUse" x1="1.6193" y1="845.7267" x2="1.7645" y2="845.7267" gradientTransform="matrix(0 -220.57 -220.57 0 186881.8281 562.1428)">
						<stop  offset="0" style="stop-color:#FFFFFF"/>
						<stop  offset="1" style="stop-color:#1A1A18"/>
					</linearGradient>
					<rect x="338.869" y="122.305" fill="url(#SVGID_54_)" width="2.083" height="127.644"/>
				</g>
			</g>
		</mask>
		<g mask="url(#SVGID_53_)">
			<g>
				<defs>
					<rect id="SVGID_55_" x="338.869" y="122.305" width="2.083" height="127.644"/>
				</defs>
				<clipPath id="SVGID_56_">
					<use xlink:href="#SVGID_55_"  overflow="visible"/>
				</clipPath>
				
					<rect x="338.869" y="122.305" clip-path="url(#SVGID_56_)" fill-rule="evenodd" clip-rule="evenodd" fill="#020204" width="2.083" height="127.644"/>
			</g>
		</g>
		<defs>
			<filter id="Adobe_OpacityMaskFilter_4_" filterUnits="userSpaceOnUse" x="353.635" y="122.305" width="2.083" height="127.644">
				<feColorMatrix  type="matrix" values="1 0 0 0 0  0 1 0 0 0  0 0 1 0 0  0 0 0 1 0"/>
			</filter>
		</defs>
		<mask maskUnits="userSpaceOnUse" x="353.635" y="122.305" width="2.083" height="127.644" id="SVGID_57_">
			<g filter="url(#Adobe_OpacityMaskFilter_4_)">
				<rect x="353.635" y="122.305" width="2.083" height="127.644"/>
				<g enable-background="new    ">
					
						<linearGradient id="SVGID_58_" gradientUnits="userSpaceOnUse" x1="1.6193" y1="846.121" x2="1.7645" y2="846.121" gradientTransform="matrix(0 -220.57 -220.57 0 186983.5625 562.1428)">
						<stop  offset="0" style="stop-color:#FFFFFF"/>
						<stop  offset="1" style="stop-color:#1A1A18"/>
					</linearGradient>
					<rect x="353.635" y="122.305" fill="url(#SVGID_58_)" width="2.083" height="127.644"/>
				</g>
			</g>
		</mask>
		<g mask="url(#SVGID_57_)">
			<g>
				<defs>
					<rect id="SVGID_59_" x="353.636" y="122.305" width="2.083" height="127.644"/>
				</defs>
				<clipPath id="SVGID_60_">
					<use xlink:href="#SVGID_59_"  overflow="visible"/>
				</clipPath>
				
					<rect x="353.635" y="122.305" clip-path="url(#SVGID_60_)" fill-rule="evenodd" clip-rule="evenodd" fill="#020204" width="2.083" height="127.644"/>
			</g>
		</g>
		<defs>
			<filter id="Adobe_OpacityMaskFilter_5_" filterUnits="userSpaceOnUse" x="368.401" y="122.305" width="2.084" height="127.644">
				<feColorMatrix  type="matrix" values="1 0 0 0 0  0 1 0 0 0  0 0 1 0 0  0 0 0 1 0"/>
			</filter>
		</defs>
		<mask maskUnits="userSpaceOnUse" x="368.401" y="122.305" width="2.084" height="127.644" id="SVGID_61_">
			<g filter="url(#Adobe_OpacityMaskFilter_5_)">
				<rect x="368.401" y="122.305" width="2.083" height="127.644"/>
				<g enable-background="new    ">
					
						<linearGradient id="SVGID_62_" gradientUnits="userSpaceOnUse" x1="1.6193" y1="846.5152" x2="1.7645" y2="846.5152" gradientTransform="matrix(0 -220.57 -220.57 0 187085.2813 562.1428)">
						<stop  offset="0" style="stop-color:#FFFFFF"/>
						<stop  offset="1" style="stop-color:#1A1A18"/>
					</linearGradient>
					<rect x="368.401" y="122.305" fill="url(#SVGID_62_)" width="2.083" height="127.644"/>
				</g>
			</g>
		</mask>
		<g mask="url(#SVGID_61_)">
			<g>
				<defs>
					<rect id="SVGID_63_" x="368.401" y="122.305" width="2.083" height="127.644"/>
				</defs>
				<clipPath id="SVGID_64_">
					<use xlink:href="#SVGID_63_"  overflow="visible"/>
				</clipPath>
				
					<rect x="368.401" y="122.305" clip-path="url(#SVGID_64_)" fill-rule="evenodd" clip-rule="evenodd" fill="#020204" width="2.083" height="127.644"/>
			</g>
		</g>
		<defs>
			<filter id="Adobe_OpacityMaskFilter_6_" filterUnits="userSpaceOnUse" x="383.167" y="122.305" width="2.083" height="127.644">
				<feColorMatrix  type="matrix" values="1 0 0 0 0  0 1 0 0 0  0 0 1 0 0  0 0 0 1 0"/>
			</filter>
		</defs>
		<mask maskUnits="userSpaceOnUse" x="383.167" y="122.305" width="2.083" height="127.644" id="SVGID_65_">
			<g filter="url(#Adobe_OpacityMaskFilter_6_)">
				<rect x="383.167" y="122.305" width="2.083" height="127.644"/>
				<g enable-background="new    ">
					
						<linearGradient id="SVGID_66_" gradientUnits="userSpaceOnUse" x1="1.6193" y1="846.9095" x2="1.7645" y2="846.9095" gradientTransform="matrix(0 -220.57 -220.57 0 187187.0156 562.1428)">
						<stop  offset="0" style="stop-color:#FFFFFF"/>
						<stop  offset="1" style="stop-color:#1A1A18"/>
					</linearGradient>
					<rect x="383.167" y="122.305" fill="url(#SVGID_66_)" width="2.083" height="127.644"/>
				</g>
			</g>
		</mask>
		<g mask="url(#SVGID_65_)">
			<g>
				<defs>
					<rect id="SVGID_67_" x="383.167" y="122.305" width="2.083" height="127.644"/>
				</defs>
				<clipPath id="SVGID_68_">
					<use xlink:href="#SVGID_67_"  overflow="visible"/>
				</clipPath>
				
					<rect x="383.167" y="122.305" clip-path="url(#SVGID_68_)" fill-rule="evenodd" clip-rule="evenodd" fill="#020204" width="2.083" height="127.644"/>
			</g>
		</g>
	</g>
	<rect x="195.417" y="121.872" fill="#020204" width="0" height="0.329"/>
	<rect x="197.093" y="122.305" fill="#2E2682" width="96.809" height="127.644"/>
	<g>
		<defs>
			<filter id="Adobe_OpacityMaskFilter_7_" filterUnits="userSpaceOnUse" x="197.051" y="122.264" width="96.892" height="127.726">
				<feColorMatrix  type="matrix" values="1 0 0 0 0  0 1 0 0 0  0 0 1 0 0  0 0 0 1 0"/>
			</filter>
		</defs>
		<mask maskUnits="userSpaceOnUse" x="197.051" y="122.264" width="96.892" height="127.726" id="SVGID_69_">
			<g filter="url(#Adobe_OpacityMaskFilter_7_)">
				<rect x="197.051" y="122.264" width="96.892" height="127.726"/>
				<g enable-background="new    ">
					
						<linearGradient id="SVGID_70_" gradientUnits="userSpaceOnUse" x1="-0.2447" y1="836.5095" x2="-0.0996" y2="836.5095" gradientTransform="matrix(0 221.07 221.07 0 -184681.6719 218.1035)">
						<stop  offset="0" style="stop-color:#FFFFFF"/>
						<stop  offset="1" style="stop-color:#1A1A18"/>
					</linearGradient>
					<rect x="197.051" y="122.264" fill="url(#SVGID_70_)" width="96.892" height="127.726"/>
				</g>
			</g>
		</mask>
		<g mask="url(#SVGID_69_)">
			<g>
				<defs>
					<rect id="SVGID_71_" x="197.051" y="122.264" width="96.892" height="127.726"/>
				</defs>
				<clipPath id="SVGID_72_">
					<use xlink:href="#SVGID_71_"  overflow="visible"/>
				</clipPath>
				<rect x="197.092" y="122.305" clip-path="url(#SVGID_72_)" fill="#020204" width="96.809" height="127.644"/>
				<g clip-path="url(#SVGID_72_)">
					<defs>
						<rect id="SVGID_73_" x="197.051" y="122.264" width="96.891" height="127.726"/>
					</defs>
					<clipPath id="SVGID_74_">
						<use xlink:href="#SVGID_73_"  overflow="visible"/>
					</clipPath>
					
						<rect x="197.092" y="122.305" clip-path="url(#SVGID_74_)" fill="none" stroke="#1A1A18" stroke-width="0.0823" stroke-miterlimit="22.926" width="96.809" height="127.644"/>
				</g>
			</g>
		</g>
	</g>
	<rect x="207.338" y="122.305" fill="#2E2682" width="2.083" height="127.644"/>
	<g>
		<defs>
			<filter id="Adobe_OpacityMaskFilter_8_" filterUnits="userSpaceOnUse" x="207.338" y="122.305" width="2.083" height="127.644">
				<feColorMatrix  type="matrix" values="1 0 0 0 0  0 1 0 0 0  0 0 1 0 0  0 0 0 1 0"/>
			</filter>
		</defs>
		<mask maskUnits="userSpaceOnUse" x="207.338" y="122.305" width="2.083" height="127.644" id="SVGID_75_">
			<g filter="url(#Adobe_OpacityMaskFilter_8_)">
				<rect x="207.338" y="122.305" width="2.083" height="127.644"/>
				<g enable-background="new    ">
					
						<linearGradient id="SVGID_76_" gradientUnits="userSpaceOnUse" x1="1.6193" y1="845.4006" x2="1.7645" y2="845.4006" gradientTransform="matrix(0 -220.57 -220.57 0 186678.375 562.1428)">
						<stop  offset="0" style="stop-color:#FFFFFF"/>
						<stop  offset="1" style="stop-color:#1A1A18"/>
					</linearGradient>
					<rect x="207.338" y="122.305" fill="url(#SVGID_76_)" width="2.083" height="127.644"/>
				</g>
			</g>
		</mask>
		<g mask="url(#SVGID_75_)">
			<g>
				<defs>
					<rect id="SVGID_77_" x="207.338" y="122.305" width="2.083" height="127.644"/>
				</defs>
				<clipPath id="SVGID_78_">
					<use xlink:href="#SVGID_77_"  overflow="visible"/>
				</clipPath>
				
					<rect x="207.338" y="122.305" clip-path="url(#SVGID_78_)" fill-rule="evenodd" clip-rule="evenodd" fill="#020204" width="2.083" height="127.644"/>
			</g>
		</g>
	</g>
	<rect x="222.104" y="122.305" fill="#2E2682" width="2.083" height="127.644"/>
	<rect x="236.869" y="122.305" fill="#2E2682" width="2.083" height="127.644"/>
	<rect x="251.635" y="122.305" fill="#2E2682" width="2.083" height="127.644"/>
	<rect x="266.401" y="122.305" fill="#2E2682" width="2.083" height="127.644"/>
	<rect x="281.167" y="122.305" fill="#2E2682" width="2.083" height="127.644"/>
	<g>
		<defs>
			<filter id="Adobe_OpacityMaskFilter_9_" filterUnits="userSpaceOnUse" x="222.104" y="122.305" width="2.084" height="127.644">
				<feColorMatrix  type="matrix" values="1 0 0 0 0  0 1 0 0 0  0 0 1 0 0  0 0 0 1 0"/>
			</filter>
		</defs>
		<mask maskUnits="userSpaceOnUse" x="222.104" y="122.305" width="2.084" height="127.644" id="SVGID_79_">
			<g filter="url(#Adobe_OpacityMaskFilter_9_)">
				<rect x="222.104" y="122.305" width="2.083" height="127.644"/>
				<g enable-background="new    ">
					
						<linearGradient id="SVGID_80_" gradientUnits="userSpaceOnUse" x1="1.6193" y1="845.7949" x2="1.7645" y2="845.7949" gradientTransform="matrix(0 -220.57 -220.57 0 186780.1094 562.1428)">
						<stop  offset="0" style="stop-color:#FFFFFF"/>
						<stop  offset="1" style="stop-color:#1A1A18"/>
					</linearGradient>
					<rect x="222.104" y="122.305" fill="url(#SVGID_80_)" width="2.083" height="127.644"/>
				</g>
			</g>
		</mask>
		<g mask="url(#SVGID_79_)">
			<g>
				<defs>
					<rect id="SVGID_81_" x="222.104" y="122.305" width="2.083" height="127.644"/>
				</defs>
				<clipPath id="SVGID_82_">
					<use xlink:href="#SVGID_81_"  overflow="visible"/>
				</clipPath>
				
					<rect x="222.104" y="122.305" clip-path="url(#SVGID_82_)" fill-rule="evenodd" clip-rule="evenodd" fill="#020204" width="2.083" height="127.644"/>
			</g>
		</g>
		<defs>
			<filter id="Adobe_OpacityMaskFilter_10_" filterUnits="userSpaceOnUse" x="236.869" y="122.305" width="2.083" height="127.644">
				<feColorMatrix  type="matrix" values="1 0 0 0 0  0 1 0 0 0  0 0 1 0 0  0 0 0 1 0"/>
			</filter>
		</defs>
		<mask maskUnits="userSpaceOnUse" x="236.869" y="122.305" width="2.083" height="127.644" id="SVGID_83_">
			<g filter="url(#Adobe_OpacityMaskFilter_10_)">
				<rect x="236.869" y="122.305" width="2.083" height="127.644"/>
				<g enable-background="new    ">
					
						<linearGradient id="SVGID_84_" gradientUnits="userSpaceOnUse" x1="1.6193" y1="846.1891" x2="1.7645" y2="846.1891" gradientTransform="matrix(0 -220.57 -220.57 0 186881.8281 562.1428)">
						<stop  offset="0" style="stop-color:#FFFFFF"/>
						<stop  offset="1" style="stop-color:#1A1A18"/>
					</linearGradient>
					<rect x="236.869" y="122.305" fill="url(#SVGID_84_)" width="2.083" height="127.644"/>
				</g>
			</g>
		</mask>
		<g mask="url(#SVGID_83_)">
			<g>
				<defs>
					<rect id="SVGID_85_" x="236.869" y="122.305" width="2.083" height="127.644"/>
				</defs>
				<clipPath id="SVGID_86_">
					<use xlink:href="#SVGID_85_"  overflow="visible"/>
				</clipPath>
				
					<rect x="236.869" y="122.305" clip-path="url(#SVGID_86_)" fill-rule="evenodd" clip-rule="evenodd" fill="#020204" width="2.083" height="127.644"/>
			</g>
		</g>
		<defs>
			<filter id="Adobe_OpacityMaskFilter_11_" filterUnits="userSpaceOnUse" x="251.635" y="122.305" width="2.083" height="127.644">
				<feColorMatrix  type="matrix" values="1 0 0 0 0  0 1 0 0 0  0 0 1 0 0  0 0 0 1 0"/>
			</filter>
		</defs>
		<mask maskUnits="userSpaceOnUse" x="251.635" y="122.305" width="2.083" height="127.644" id="SVGID_87_">
			<g filter="url(#Adobe_OpacityMaskFilter_11_)">
				<rect x="251.635" y="122.305" width="2.083" height="127.644"/>
				<g enable-background="new    ">
					
						<linearGradient id="SVGID_88_" gradientUnits="userSpaceOnUse" x1="1.6193" y1="846.5834" x2="1.7645" y2="846.5834" gradientTransform="matrix(0 -220.57 -220.57 0 186983.5625 562.1428)">
						<stop  offset="0" style="stop-color:#FFFFFF"/>
						<stop  offset="1" style="stop-color:#1A1A18"/>
					</linearGradient>
					<rect x="251.635" y="122.305" fill="url(#SVGID_88_)" width="2.083" height="127.644"/>
				</g>
			</g>
		</mask>
		<g mask="url(#SVGID_87_)">
			<g>
				<defs>
					<rect id="SVGID_89_" x="251.636" y="122.305" width="2.083" height="127.644"/>
				</defs>
				<clipPath id="SVGID_90_">
					<use xlink:href="#SVGID_89_"  overflow="visible"/>
				</clipPath>
				
					<rect x="251.635" y="122.305" clip-path="url(#SVGID_90_)" fill-rule="evenodd" clip-rule="evenodd" fill="#020204" width="2.083" height="127.644"/>
			</g>
		</g>
		<defs>
			<filter id="Adobe_OpacityMaskFilter_12_" filterUnits="userSpaceOnUse" x="266.401" y="122.305" width="2.084" height="127.644">
				<feColorMatrix  type="matrix" values="1 0 0 0 0  0 1 0 0 0  0 0 1 0 0  0 0 0 1 0"/>
			</filter>
		</defs>
		<mask maskUnits="userSpaceOnUse" x="266.401" y="122.305" width="2.084" height="127.644" id="SVGID_91_">
			<g filter="url(#Adobe_OpacityMaskFilter_12_)">
				<rect x="266.401" y="122.305" width="2.083" height="127.644"/>
				<g enable-background="new    ">
					
						<linearGradient id="SVGID_92_" gradientUnits="userSpaceOnUse" x1="1.6193" y1="846.9777" x2="1.7645" y2="846.9777" gradientTransform="matrix(0 -220.57 -220.57 0 187085.2813 562.1428)">
						<stop  offset="0" style="stop-color:#FFFFFF"/>
						<stop  offset="1" style="stop-color:#1A1A18"/>
					</linearGradient>
					<rect x="266.401" y="122.305" fill="url(#SVGID_92_)" width="2.083" height="127.644"/>
				</g>
			</g>
		</mask>
		<g mask="url(#SVGID_91_)">
			<g>
				<defs>
					<rect id="SVGID_93_" x="266.401" y="122.305" width="2.083" height="127.644"/>
				</defs>
				<clipPath id="SVGID_94_">
					<use xlink:href="#SVGID_93_"  overflow="visible"/>
				</clipPath>
				
					<rect x="266.401" y="122.305" clip-path="url(#SVGID_94_)" fill-rule="evenodd" clip-rule="evenodd" fill="#020204" width="2.083" height="127.644"/>
			</g>
		</g>
		<defs>
			<filter id="Adobe_OpacityMaskFilter_13_" filterUnits="userSpaceOnUse" x="281.167" y="122.305" width="2.083" height="127.644">
				<feColorMatrix  type="matrix" values="1 0 0 0 0  0 1 0 0 0  0 0 1 0 0  0 0 0 1 0"/>
			</filter>
		</defs>
		<mask maskUnits="userSpaceOnUse" x="281.167" y="122.305" width="2.083" height="127.644" id="SVGID_95_">
			<g filter="url(#Adobe_OpacityMaskFilter_13_)">
				<rect x="281.167" y="122.305" width="2.083" height="127.644"/>
				<g enable-background="new    ">
					
						<linearGradient id="SVGID_96_" gradientUnits="userSpaceOnUse" x1="1.6193" y1="847.3719" x2="1.7645" y2="847.3719" gradientTransform="matrix(0 -220.57 -220.57 0 187187.0156 562.1428)">
						<stop  offset="0" style="stop-color:#FFFFFF"/>
						<stop  offset="1" style="stop-color:#1A1A18"/>
					</linearGradient>
					<rect x="281.167" y="122.305" fill="url(#SVGID_96_)" width="2.083" height="127.644"/>
				</g>
			</g>
		</mask>
		<g mask="url(#SVGID_95_)">
			<g>
				<defs>
					<rect id="SVGID_97_" x="281.167" y="122.305" width="2.083" height="127.644"/>
				</defs>
				<clipPath id="SVGID_98_">
					<use xlink:href="#SVGID_97_"  overflow="visible"/>
				</clipPath>
				
					<rect x="281.167" y="122.305" clip-path="url(#SVGID_98_)" fill-rule="evenodd" clip-rule="evenodd" fill="#020204" width="2.083" height="127.644"/>
			</g>
		</g>
	</g>
	<rect x="153.549" y="127.123" width="38.928" height="73.085"/>
	<g>
		<rect x="153.549" y="127.123" fill="none" width="38.928" height="73.085"/>
	</g>
	<rect x="410.29" y="127.123" width="38.928" height="73.085"/>
	<g>
		
			<rect x="410.29" y="127.123" fill="none" stroke="#1A1A18" stroke-width="0.0823" stroke-miterlimit="22.926" width="38.928" height="73.085"/>
	</g>
</g>
</svg>
