<?xml version="1.0" encoding="utf-8"?>
<!-- Generator: Adobe Illustrator 17.0.0, SVG Export Plug-In . SVG Version: 6.00 Build 0)  -->
<!DOCTYPE svg PUBLIC "-//W3C//DTD SVG 1.1//EN" "http://www.w3.org/Graphics/SVG/1.1/DTD/svg11.dtd">
<svg version="1.1" id="Capa_1" xmlns="http://www.w3.org/2000/svg" xmlns:xlink="http://www.w3.org/1999/xlink" x="0px" y="0px"
	 width="595.28px" height="1133.445px" viewBox="0 0 595.28 1133.445" enable-background="new 0 0 595.28 1133.445"
	 xml:space="preserve">
<g id="dorso">
	<g>
		<g>
			<defs>
				<path id="SVGID_7_" d="M351.091,447.247c2.821,7.592,3.376,26.587,3.376,26.587c2.251,27.007,5.491,64.712,5.491,64.712
					c3.376,50.638-7.322,105.222-7.322,105.222c-0.675,4.276-1.545,7.877-1.545,7.877c1.32,12.753,27.007,14.164,27.007,14.164
					c49.228,4.126,99.776,0.57,99.776,0.57c24.006-0.465,31.223-5.341,31.223-5.341c6.947-3.001,8.072-8.342,8.072-8.342
					c0.57-1.5-0.84-5.071-0.84-5.071c-5.371-31.253-7.697-55.049-7.697-55.049c-2.341-25.507-0.465-54.584-0.465-54.584
					c2.251-17.164,4.411-50.263,4.411-50.263c1.41-13.128,2.251-28.793,2.251-28.793c0.84-7.697,2.911-11.673,2.911-11.673
					c5.911-9.047,12.753-34.464,12.753-34.464c3.661-16.414,2.341-42.206,2.341-42.206c-10.218-5.912-24.366-9.873-24.366-9.873
					c-14.344-2.911-31.433-12.813-31.433-12.813c-1.41-1.125-7.217-2.161-7.217-2.161h-64.517h-5.912
					c-3.376,0.195-6.842,1.035-6.842,1.035c-16.324,10.323-43.331,17.45-43.331,17.45c-6.197,2.071-13.128,5.446-13.128,5.446
					c-6.377,11.448,4.411,54.014,4.411,54.014C344.625,436.414,351.091,447.247,351.091,447.247z"/>
			</defs>
			<clipPath id="SVGID_3_">
				<use xlink:href="#SVGID_7_"  overflow="visible"/>
			</clipPath>
			<polygon clip-path="url(#SVGID_3_)" fill-rule="evenodd" clip-rule="evenodd" fill="#808080" points="355.979,480.167 
				353.203,484.696 353.185,484.111 353.112,478.021 			"/>
			<polygon clip-path="url(#SVGID_3_)" fill-rule="evenodd" clip-rule="evenodd" fill="#808080" points="363.21,492.151 
				363.21,491.566 363.137,485.541 365.968,487.665 			"/>
			<polygon clip-path="url(#SVGID_3_)" fill-rule="evenodd" clip-rule="evenodd" fill="#808080" points="383.244,507.061 
				383.244,506.476 383.17,500.559 385.946,502.64 			"/>
			<polygon clip-path="url(#SVGID_3_)" fill-rule="evenodd" clip-rule="evenodd" fill="#808080" points="393.251,514.494 
				393.251,513.909 393.178,508.057 395.936,510.116 			"/>
			<polygon clip-path="url(#SVGID_3_)" fill-rule="evenodd" clip-rule="evenodd" fill="#808080" points="403.277,521.949 
				403.277,521.364 403.204,515.578 405.925,517.615 			"/>
			<polygon clip-path="url(#SVGID_3_)" fill-rule="evenodd" clip-rule="evenodd" fill="#808080" points="413.284,529.404 
				413.284,528.819 413.211,523.097 415.914,525.113 			"/>
			<polygon clip-path="url(#SVGID_3_)" fill-rule="evenodd" clip-rule="evenodd" fill="#808080" points="425.885,532.611 
				423.31,536.859 423.292,536.274 423.219,530.596 			"/>
			<polygon clip-path="url(#SVGID_3_)" fill-rule="evenodd" clip-rule="evenodd" fill="#808080" points="443.325,531.918 
				443.27,536.274 443.27,536.859 441.243,533.5 			"/>
			<polygon clip-path="url(#SVGID_3_)" fill-rule="evenodd" clip-rule="evenodd" fill="#808080" points="453.351,524.246 
				453.296,528.819 453.277,529.404 451.159,525.936 			"/>
			<polygon clip-path="url(#SVGID_3_)" fill-rule="evenodd" clip-rule="evenodd" fill="#808080" points="463.358,516.618 
				463.303,521.364 463.303,521.949 461.094,518.351 			"/>
			<polygon clip-path="url(#SVGID_3_)" fill-rule="evenodd" clip-rule="evenodd" fill="#808080" points="473.384,508.946 
				473.329,513.909 473.311,514.494 471.028,510.766 			"/>
			<polygon clip-path="url(#SVGID_3_)" fill-rule="evenodd" clip-rule="evenodd" fill="#808080" points="483.391,501.318 
				483.336,506.476 483.318,507.061 480.944,503.181 			"/>
			<polygon clip-path="url(#SVGID_3_)" fill-rule="evenodd" clip-rule="evenodd" fill="#808080" points="493.417,493.668 
				493.344,499.021 493.344,499.606 490.897,495.596 			"/>
			<polygon clip-path="url(#SVGID_3_)" fill-rule="evenodd" clip-rule="evenodd" fill="#808080" points="503.443,486.018 
				503.37,491.566 503.351,492.151 500.813,488.012 			"/>
			<polygon clip-path="url(#SVGID_3_)" fill-rule="evenodd" clip-rule="evenodd" fill="#808080" points="513.45,478.368 
				513.377,484.111 513.377,484.696 510.766,480.427 			"/>
			<polygon clip-path="url(#SVGID_3_)" fill-rule="evenodd" clip-rule="evenodd" fill="#808080" points="523.457,470.718 
				523.384,476.677 523.384,477.263 520.682,472.842 			"/>
			<path clip-path="url(#SVGID_3_)" fill-rule="evenodd" clip-rule="evenodd" fill="#808080" d="M533.483,463.068l-0.073,6.155
				v0.585c-0.931-1.517-1.863-3.034-2.794-4.551L533.483,463.068z"/>
			<path clip-path="url(#SVGID_3_)" fill="#231F20" d="M538.14,428.632v25.074c-1.479-2.406-2.958-4.833-4.456-7.238l-0.201,16.6
				l-0.073,6.155v0.585c-0.931-1.517-1.863-3.034-2.794-4.551c-2.301-3.792-4.62-7.585-6.94-11.356l-0.219,16.817l-0.073,5.96v0.585
				l-2.703-4.421l-7.013-11.486l-0.219,17.012l-0.073,5.743v0.585l-2.611-4.269l-7.122-11.637l-0.201,17.229l-0.073,5.548
				l-0.018,0.585l-2.538-4.139l-7.177-11.746l-0.219,17.402l-0.073,5.353v0.585l-2.447-4.009l-7.287-11.898l-0.219,17.619
				l-0.055,5.158l-0.018,0.585l-2.374-3.879l-7.341-12.006l-0.219,17.771l-0.055,4.963l-0.018,0.585l-2.283-3.728l-7.451-12.158
				l-0.219,18.009l-0.055,4.746v0.585l-2.21-3.598l-7.524-12.288l-0.219,18.182l-0.055,4.573l-0.018,0.585l-2.118-3.467
				l-7.597-12.439l-0.237,18.421l-0.055,4.356v0.585l-2.027-3.359l-7.926-13.133l-7.433,12.244l-2.575,4.248l-0.018-0.585
				l-0.073-5.678l-0.201-17.099l-7.104,11.616l-2.63,4.291v-0.585l-0.073-5.721l-0.219-17.034l-7.067,11.551l-2.648,4.334v-0.585
				l-0.073-5.786l-0.219-16.969l-7.049,11.507l-2.685,4.378v-0.585l-0.073-5.851l-0.219-16.882l-7.013,11.464l-2.703,4.421v-0.585
				l-0.073-5.916l-0.219-16.86l-6.994,11.443l-2.666,4.399c-0.018,0.022-0.018,0.043-0.055,0.065l-0.018-0.585l-0.073-5.981
				l-0.201-16.774l-6.976,11.399l-2.758,4.486v-0.585l-0.073-6.025l-0.219-16.752l-6.939,11.377l-2.776,4.529l-0.018-0.585
				l-0.073-6.09l-0.201-16.665l-6.921,11.334l-2.739,4.508c-0.018,0.022-0.018,0.043-0.055,0.065l-0.018-0.585l-0.073-6.176
				l-0.201-16.6c-2.301,3.749-4.602,7.52-6.903,11.291c-0.931,1.517-1.863,3.034-2.776,4.551c-0.018,0.022-0.018,0.043-0.055,0.065
				v-0.585l-0.073-6.22l-0.219-16.535c-1.479,2.405-2.958,4.833-4.438,7.238v-25.074c1.644-2.731,3.287-5.44,4.949-8.17
				l-0.037,24.055c3.342-5.526,6.702-11.074,10.044-16.6l-0.037,24.077c3.342-5.548,6.702-11.096,10.044-16.622
				c0,8.018-0.018,16.037-0.018,24.055c3.342-5.548,6.684-11.074,10.044-16.622c-0.018,8.04-0.018,16.058-0.036,24.077
				c3.342-5.526,6.702-11.074,10.044-16.622c0,8.018-0.018,16.058-0.037,24.077c3.36-5.548,6.702-11.096,10.044-16.622
				c0,8.018-0.018,16.058-0.018,24.077c3.342-5.526,6.702-11.074,10.044-16.622c-0.018,8.018-0.018,16.037-0.036,24.055
				c3.36-5.526,6.702-11.074,10.044-16.6c0,8.018-0.018,16.058-0.037,24.077c3.36-5.548,6.702-11.096,10.062-16.622
				c-0.018,8.018-0.018,16.037-0.037,24.055c3.342-5.548,6.702-11.074,10.044-16.622c-0.018,8.04-0.018,16.058-0.037,24.099
				c3.36-5.548,6.501-11.096,9.861-16.644c3.342,5.548,6.41,11.096,9.752,16.644c0-8.04-0.018-16.058-0.018-24.099
				c3.342,5.548,6.684,11.074,10.026,16.622c0-8.018-0.018-16.037-0.018-24.055c3.342,5.526,6.702,11.074,10.044,16.622
				c-0.018-8.018-0.018-16.058-0.037-24.077c3.36,5.526,6.702,11.074,10.044,16.6c0-8.018-0.018-16.037-0.036-24.055
				c3.36,5.548,6.702,11.096,10.062,16.622c-0.018-8.018-0.018-16.058-0.036-24.077c3.342,5.526,6.702,11.074,10.044,16.622
				c-0.018-8.018-0.018-16.058-0.037-24.077c3.36,5.548,6.702,11.096,10.062,16.622c-0.018-8.018-0.037-16.037-0.037-24.077
				c3.342,5.548,6.684,11.074,10.044,16.622c-0.018-8.018-0.018-16.037-0.036-24.055c3.36,5.526,6.702,11.074,10.044,16.622
				l-0.018-24.077c3.342,5.526,6.684,11.074,10.044,16.6l-0.037-24.055C534.835,423.193,536.478,425.902,538.14,428.632z"/>
			<g clip-path="url(#SVGID_3_)">
				<path fill="#231F20" d="M375.957,495.141l-2.812-2.102l0.073,5.981l0.018,0.585c0.036-0.022,0.036-0.043,0.055-0.065
					L375.957,495.141z"/>
				<path fill="#808080" d="M345.99,472.69l-2.885-2.189l0.073,6.176l0.018,0.585c0.036-0.022,0.036-0.043,0.055-0.065
					L345.99,472.69z"/>
				<polygon fill="#808080" points="423.365,560.806 423.328,560.762 423.328,560.87 				"/>
				<path opacity="0.5" fill="#231F20" d="M533.684,518.547l-0.018,0.585l-9.715-15.885l-0.292,22.755v0.585l-9.734-15.907
					l-0.274,22.777l-0.018,0.585l-9.715-15.907l-0.274,22.755l-0.018,0.585l-9.715-15.885l-0.292,22.755v0.585l-9.734-15.885
					l-0.274,22.755l-0.018,0.585l-9.715-15.907l-0.292,22.777v0.585l-9.715-15.885l-0.292,22.755v0.585l-9.734-15.907l-0.292,22.777
					v0.585l-9.715-15.907l-0.292,22.755v0.585l-10.19-18.074l-10.19,18.031l-0.018-0.585l-0.274-22.755l-9.734,15.907v-0.585
					l-0.292-22.777l-9.715,15.885l-0.018-0.563l-0.274-22.755l-9.715,15.885l-0.018-0.585l-0.274-22.777l-9.734,15.907v-0.585
					l-0.292-22.755l-9.715,15.885l-0.018-0.585l-0.274-22.777l-9.733,15.907v-0.585l-0.292-22.755l-9.715,15.907v-0.585
					l-0.292-22.777l-9.734,15.907v-0.585l-0.292-22.755l-9.715,15.885v-0.585l-0.292-22.777c-1.424,2.341-2.867,4.681-4.291,7.021
					v172.157h209.7V502.596c-1.406-2.276-2.794-4.551-4.182-6.827L533.684,518.547z"/>
				<path fill="#808080" d="M413.339,553.394l-0.018-0.022v0.065C413.321,553.416,413.339,553.416,413.339,553.394z"/>
				<path fill="#808080" d="M336,465.192l-2.904-2.189l0.073,6.22v0.585c0.036-0.022,0.036-0.043,0.055-0.065
					C334.138,468.226,335.069,466.709,336,465.192z"/>
			</g>
		</g>
	</g>
	<g id="Capa_2">
	</g>
	<g id="Capa_3">
	</g>
</g>
<g id="frente">
	<g id="Capa_2_copia">
		<g>
			<g>
				<defs>
					<path id="SVGID_9_" d="M247.7,368.191c-10.833-6.332-16.594-6.887-27.577-9.708c-10.983-2.821-25.882-11.673-25.882-11.673
						c4.081,20.96-28.267,25.462-28.267,25.462c-22.791,3.091-35.724-2.251-35.724-2.251c-22.506-8.867-18.575-23.211-18.575-23.211
						c-11.538,8.162-39.955,16.174-39.955,16.174c-11.253,3.241-13.504,5.491-13.504,5.491c2.161,7.457,5.161,16.264,5.161,16.264
						c3.946,12.948,4.321,27.757,4.321,27.757c0.75,9.572,4.456,29.258,4.456,29.258l0.42,1.26
						c2.536,9.287,2.116,26.302,2.116,26.302c0.57,31.928,1.545,44.592,1.545,44.592c0.135,9.573,1.695,17.164,1.695,17.164
						c2.251,33.204,0.285,60.211,0.285,60.211c-3.241,34.179-9.197,62.401-9.572,63.437s-0.375,1.035-0.375,1.035
						c9.002,7.502,66.767,10.503,66.767,10.503c40.33,3.376,96.97-6.752,96.97-6.752c4.321-1.32,5.446-3.751,5.446-3.751
						c-15.379-84.397-9.197-124.727-9.197-124.727c1.695-10.503,3.001-48.763,3.001-48.763c0.375-4.696,0.195-9.948,0.195-9.948
						c-1.125-19.13,2.446-30.383,2.446-30.383s1.5-14.074,6.182-37.945C240.063,404.006,243.904,381.41,247.7,368.191z"/>
				</defs>
				<clipPath id="SVGID_4_">
					<use xlink:href="#SVGID_9_"  overflow="visible"/>
				</clipPath>
			</g>
		</g>
	</g>
	<g id="Capa_3_copia">
	</g>
</g>
<g id="manga_frente">
	<g>
		<path fill="none" d="M71.044,447.262c-0.06-0.765-0.15-1.11-0.285-0.855C70.893,446.377,70.983,446.692,71.044,447.262z"/>
		<path fill="none" d="M70.893,468.072c0.03-9.603,0.435-18.155,0.15-20.81C71.239,450.068,70.923,458.905,70.893,468.072z"/>
		<path fill="none" d="M63.392,384.756c0,0-3.001-8.822-5.161-16.264c-6.497,4.486-12.378,11.253-12.378,11.253
			c-18.71,17.72-19.97,58.935-19.97,58.935c-0.285,16.324-2.251,35.019-2.251,35.019c18.005,9.708,45.012,9.572,45.012,9.572
			c1.26-0.42,1.125-2.956,1.125-2.956c0-7.037,1.125-12.243,1.125-12.243c0.03-9.152,0.345-17.99,0.15-20.81
			c-0.06-0.57-0.15-0.885-0.285-0.855l1.41-4.636c0,0-3.706-19.7-4.456-29.258C67.713,412.513,67.338,397.689,63.392,384.756z"/>
		<path fill="none" d="M282.314,473.969c-0.84-13.504-2.821-43.601-2.821-43.601c-0.6-17.089-5.852-31.118-12.378-41.351
			c-8.792-13.774-19.415-20.825-19.415-20.825c-3.811,13.218-7.637,35.814-7.637,35.814c-4.696,23.871-6.182,37.945-6.182,37.945
			c2.011,3.886,1.59,25.132,1.59,25.132c-0.135,1.83,0.285,4.501,0.285,4.501c0.84,6.197,0.57,10.698,0.57,10.698
			C246.304,487.052,282.314,473.969,282.314,473.969z"/>
	</g>
</g>
<g id="manga_dorso">
	<path fill="none" d="M336.088,369.647c-6.377,11.448,4.411,54.014,4.411,54.014c4.126,12.753,10.593,23.586,10.593,23.586
		c-1.5-0.24-1.215,1.17-1.215,1.17c-1.5,9.948-0.66,23.256-0.66,23.256c-0.375,3.841-0.765,8.537-0.765,8.537
		c-0.285,4.966-0.075,6.842-0.075,6.842c-3.091,2.536-9.663,2.341-9.663,2.341c-26.452-1.035-37.33-11.253-37.33-11.253
		c0.66-0.945,0.945-14.629,0.945-14.629c0.66-6.842,0.84-14.539,0.84-14.539l0.57-6.197l0.285-7.592
		c2.161-41.636,23.256-57.39,23.256-57.39C331.676,374.433,336.088,369.647,336.088,369.647z"/>
	<path fill="none" d="M517.845,447.772c1.575-5.176,3.961-8.492,6.152-14.434c2.971-8.042,4.486-15.259,6.482-20.555
		c3.661-16.414,2.341-42.206,2.341-42.206c10.833,9.708,16.174,16.174,16.174,16.174c16.879,25.747,15.199,54.584,15.199,54.584
		c0.99,15.754,2.386,34.329,2.386,34.329c0.42,3.031-2.536,4.996-2.536,4.996c-21.095,10.263-37.48,8.657-37.48,8.657
		c-5.911,0.075-6.827-2.671-6.827-2.671c-0.21-7.667-0.78-14.704-0.78-14.704c-0.135-13.218-0.495-20.675-0.495-20.675
		C518.1,448.552,517.845,447.772,517.845,447.772z"/>
</g>
<g id="dorso_1_">
	<g>
		<g>
			<defs>
				<path id="SVGID_2_" d="M351.091,809.028c2.821,7.592,3.376,26.587,3.376,26.587c2.251,27.007,5.491,64.712,5.491,64.712
					c3.376,50.638-7.322,105.222-7.322,105.222c-0.675,4.276-1.545,7.877-1.545,7.877c1.32,12.753,27.007,14.164,27.007,14.164
					c49.228,4.126,99.776,0.57,99.776,0.57c24.006-0.465,31.223-5.341,31.223-5.341c6.947-3.001,8.072-8.342,8.072-8.342
					c0.57-1.5-0.84-5.071-0.84-5.071c-5.371-31.253-7.697-55.049-7.697-55.049c-2.341-25.507-0.465-54.584-0.465-54.584
					c2.251-17.164,4.411-50.263,4.411-50.263c1.41-13.128,2.251-28.792,2.251-28.792c0.84-7.697,2.911-11.673,2.911-11.673
					c5.911-9.047,12.753-34.464,12.753-34.464c3.661-16.414,2.341-42.206,2.341-42.206c-10.218-5.912-24.366-9.873-24.366-9.873
					c-14.344-2.911-31.433-12.813-31.433-12.813c-1.41-1.125-7.217-2.161-7.217-2.161h-64.517h-5.912
					c-3.376,0.195-6.842,1.035-6.842,1.035c-16.324,10.323-43.331,17.45-43.331,17.45c-6.197,2.071-13.128,5.446-13.128,5.446
					c-6.377,11.448,4.411,54.014,4.411,54.014C344.625,798.195,351.091,809.028,351.091,809.028z"/>
			</defs>
			<clipPath id="SVGID_5_">
				<use xlink:href="#SVGID_2_"  overflow="visible"/>
			</clipPath>
			<path clip-path="url(#SVGID_5_)" fill="none" stroke="#231F20" stroke-width="0.2256" stroke-miterlimit="22.926" d="
				M328.44,704.876v110.611c1.479-2.406,2.958-4.833,4.438-7.238l0.219,16.535l0.073,6.22v0.585
				c-1.552,2.622-3.159,5.244-4.73,7.867v197.231h209.7V839.282c-1.571-2.557-3.123-5.136-4.675-7.715l0.036,24.098
				c-3.36-5.548-6.702-11.096-10.062-16.644c0.018,8.018,0.018,16.037,0.036,24.077c-3.342-5.548-6.702-11.096-10.044-16.622
				c0.018,8.018,0.018,16.058,0.037,24.077c-3.36-5.548-6.702-11.074-10.044-16.622c0,8.018,0.018,16.037,0.018,24.055
				c-3.342-5.526-6.684-11.074-10.044-16.6c0.018,8.018,0.018,16.037,0.036,24.077c-3.342-5.548-6.702-11.096-10.044-16.622
				c0,8.018,0.018,16.037,0.018,24.055c-3.342-5.548-6.684-11.074-10.026-16.622c0,8.04,0.018,16.058,0.018,24.099
				c-3.342-5.548-6.702-11.096-10.044-16.644c0.018,8.018,0.018,16.058,0.037,24.077c-3.36-5.548-6.702-11.074-10.044-16.622
				c0,8.018,0.018,16.058,0.036,24.077c-3.36-5.526-6.702-11.074-10.062-16.622c0.018,8.018,0.018,16.037,0.037,24.055
				l-10.026-16.579l-9.971,16.47l-0.036-0.043c0.018-7.975,0.036-15.972,0.036-23.947c-3.342,5.526-6.684,11.052-10.026,16.579
				l-0.018-0.022c0.018-7.997,0.018-16.015,0.037-24.012c-3.36,5.526-6.702,11.074-10.044,16.622c0-8.04,0.018-16.058,0.018-24.077
				c-3.342,5.548-6.684,11.096-10.044,16.622c0.018-8.018,0.018-16.037,0.037-24.077c-3.342,5.548-6.702,11.074-10.044,16.622
				c0.018-8.018,0.018-16.037,0.036-24.077c-3.36,5.548-6.702,11.096-10.062,16.644c0.018-8.04,0.018-16.058,0.037-24.099
				l2.666-4.399l6.994-11.443l0.219,16.86l0.073,5.916v0.585l2.703-4.421l7.013-11.464l0.219,16.882l0.073,5.851v0.585l2.685-4.378
				l7.049-11.507l0.219,16.969l0.073,5.786v0.585l2.648-4.334l7.067-11.551l0.219,17.034l0.073,5.721v0.585l2.63-4.291l7.104-11.616
				l0.201,17.099l0.073,5.678l0.018,0.585l2.575-4.248l7.433-12.244l7.926,13.133l2.027,3.359v-0.585l0.055-4.356l0.237-18.421
				l7.597,12.439l2.118,3.467l0.018-0.585l0.055-4.573l0.219-18.182l7.524,12.288l2.21,3.597v-0.585l0.055-4.746l0.219-18.009
				l7.451,12.158l2.283,3.727l0.018-0.585l0.055-4.963l0.219-17.771l7.341,12.006l2.374,3.879l0.018-0.585l0.055-5.158l0.219-17.619
				l7.287,11.898l2.447,4.009v-0.585l0.073-5.353l0.219-17.402l7.177,11.746l2.538,4.139l0.018-0.585l0.073-5.548l0.201-17.229
				l7.122,11.637l2.611,4.269v-0.585l0.073-5.743l0.219-17.012l7.013,11.486l2.703,4.421v-0.585l0.073-5.96l0.219-16.817
				c2.319,3.771,4.639,7.563,6.94,11.356c0.931,1.517,1.863,3.034,2.794,4.551v-0.585l0.073-6.155l0.201-16.6
				c1.497,2.405,2.977,4.833,4.456,7.238V704.876H328.44z M336,826.972c2.301-3.771,4.602-7.542,6.903-11.291l0.201,16.6
				l0.073,6.176l0.018,0.585c-3.305,5.526-6.666,11.052-9.989,16.557l0.018-24.077C334.138,830.006,335.069,828.489,336,826.972z
				 M373.218,860.801l0.018,0.585c-3.305,5.526-6.666,11.052-9.989,16.557c0.018-8.018,0.018-16.037,0.037-24.055
				c-3.36,5.526-6.702,11.074-10.044,16.622c0-8.018,0.018-16.058,0.018-24.077c-3.342,5.526-6.684,11.074-10.044,16.6
				c0.018-8.018,0.018-16.037,0.036-24.055l2.739-4.508l6.921-11.334l0.201,16.665l0.073,6.09l0.018,0.585l2.776-4.529l6.939-11.377
				l0.219,16.752l0.073,6.025v0.585l2.758-4.486l6.976-11.399l0.201,16.774L373.218,860.801z"/>
			<g clip-path="url(#SVGID_5_)">
				<path d="M333.17,831.003v0.585c-1.552,2.622-3.159,5.244-4.73,7.867v-23.968c1.479-2.406,2.958-4.833,4.438-7.238l0.219,16.535
					L333.17,831.003z"/>
				<path d="M343.196,839.043c-3.305,5.526-6.666,11.052-9.989,16.557l0.018-24.077c0.913-1.517,1.844-3.034,2.776-4.551
					c2.301-3.771,4.602-7.542,6.903-11.291l0.201,16.6l0.073,6.176L343.196,839.043z"/>
				<path d="M538.14,839.282c-1.571-2.557-3.123-5.136-4.675-7.715l0.036,24.098c-3.36-5.548-6.702-11.096-10.062-16.644
					c0.018,8.018,0.018,16.037,0.036,24.077c-3.342-5.548-6.702-11.096-10.044-16.622c0.018,8.018,0.018,16.058,0.037,24.077
					c-3.36-5.548-6.702-11.074-10.044-16.622c0,8.018,0.018,16.037,0.018,24.055c-3.342-5.526-6.684-11.074-10.044-16.6
					c0.018,8.018,0.018,16.037,0.036,24.077c-3.342-5.548-6.702-11.096-10.044-16.622c0,8.018,0.018,16.037,0.018,24.055
					c-3.342-5.548-6.684-11.074-10.026-16.622c0,8.04,0.018,16.058,0.018,24.099c-3.342-5.548-6.702-11.096-10.044-16.644
					c0.018,8.018,0.018,16.058,0.037,24.077c-3.36-5.548-6.702-11.074-10.044-16.622c0,8.018,0.018,16.058,0.036,24.077
					c-3.36-5.526-6.702-11.074-10.062-16.622c0.018,8.018,0.018,16.037,0.037,24.055l-10.026-16.579l-9.971,16.47l-0.036-0.043
					c0.018-7.975,0.036-15.972,0.036-23.947c-3.342,5.526-6.684,11.052-10.026,16.579l-0.018-0.022
					c0.018-7.997,0.018-16.015,0.037-24.012c-3.36,5.526-6.702,11.074-10.044,16.622c0-8.04,0.018-16.058,0.018-24.077
					c-3.342,5.548-6.684,11.096-10.044,16.622c0.018-8.018,0.018-16.037,0.037-24.077c-3.342,5.548-6.702,11.074-10.044,16.622
					c0.018-8.018,0.018-16.037,0.036-24.077c-3.36,5.548-6.702,11.096-10.062,16.644c0.018-8.04,0.018-16.058,0.037-24.099
					l2.666-4.399l6.994-11.443l0.219,16.86l0.073,5.916v0.585l2.703-4.421l7.013-11.464l0.219,16.882l0.073,5.851v0.585l2.685-4.378
					l7.049-11.507l0.219,16.969l0.073,5.786v0.585l2.648-4.334l7.067-11.551l0.219,17.034l0.073,5.721v0.585l2.63-4.291
					l7.104-11.616l0.201,17.099l0.073,5.678l0.018,0.585l2.575-4.248l7.433-12.244l7.926,13.133l2.027,3.359v-0.585l0.055-4.356
					l0.237-18.421l7.597,12.439l2.118,3.467l0.018-0.585l0.055-4.573l0.219-18.182l7.524,12.288l2.21,3.597v-0.585l0.055-4.746
					l0.219-18.009l7.451,12.158l2.283,3.727l0.018-0.585l0.055-4.963l0.219-17.771l7.341,12.006l2.374,3.879l0.018-0.585
					l0.055-5.158l0.219-17.619l7.287,11.898l2.447,4.009v-0.585l0.073-5.353l0.219-17.402l7.177,11.746l2.538,4.139l0.018-0.585
					l0.073-5.548l0.201-17.229l7.122,11.637l2.611,4.269v-0.585l0.073-5.743l0.219-17.012l7.013,11.486l2.703,4.421v-0.585
					l0.073-5.96l0.219-16.817c2.319,3.771,4.639,7.563,6.94,11.356c0.931,1.517,1.863,3.034,2.794,4.551v-0.585l0.073-6.155
					l0.201-16.6c1.497,2.405,2.977,4.833,4.456,7.238V839.282z"/>
				<path d="M363.247,877.943c0.018-8.018,0.018-16.037,0.037-24.055c-3.36,5.526-6.702,11.074-10.044,16.622
					c0-8.018,0.018-16.058,0.018-24.077c-3.342,5.526-6.684,11.074-10.044,16.6c0.018-8.018,0.018-16.037,0.036-24.055l2.739-4.508
					l6.921-11.334l0.201,16.665l0.073,6.09l0.018,0.585l2.776-4.529l6.939-11.377l0.219,16.752l0.073,6.025v0.585l2.758-4.486
					l6.976-11.399l0.201,16.774l0.073,5.981l0.018,0.585C369.931,866.913,366.571,872.439,363.247,877.943z"/>
			</g>
		</g>
	</g>
	<g id="Capa_2_1_">
	</g>
	<g id="Capa_3_1_">
	</g>
</g>
<g id="frente_1_">
	<g id="Capa_2_copia_1_">
		<g>
			<g>
				<defs>
					<path id="SVGID_1_" d="M247.7,729.972c-10.833-6.332-16.594-6.887-27.577-9.708c-10.983-2.821-25.882-11.673-25.882-11.673
						c4.081,20.96-28.267,25.462-28.267,25.462c-22.791,3.091-35.724-2.251-35.724-2.251c-22.506-8.867-18.575-23.211-18.575-23.211
						c-11.538,8.162-39.955,16.174-39.955,16.174c-11.253,3.241-13.504,5.491-13.504,5.491c2.161,7.457,5.161,16.264,5.161,16.264
						c3.946,12.948,4.321,27.757,4.321,27.757c0.75,9.573,4.456,29.258,4.456,29.258l0.42,1.26
						c2.536,9.287,2.116,26.302,2.116,26.302c0.57,31.928,1.545,44.592,1.545,44.592c0.135,9.573,1.695,17.164,1.695,17.164
						c2.251,33.204,0.285,60.211,0.285,60.211c-3.241,34.179-9.197,62.401-9.572,63.436c-0.375,1.035-0.375,1.035-0.375,1.035
						c9.002,7.502,66.767,10.503,66.767,10.503c40.33,3.376,96.97-6.752,96.97-6.752c4.321-1.32,5.446-3.751,5.446-3.751
						c-15.379-84.397-9.197-124.727-9.197-124.727c1.695-10.503,3.001-48.763,3.001-48.763c0.375-4.696,0.195-9.948,0.195-9.948
						c-1.125-19.13,2.446-30.383,2.446-30.383s1.5-14.074,6.182-37.945C240.063,765.786,243.904,743.19,247.7,729.972z"/>
				</defs>
				<clipPath id="SVGID_6_">
					<use xlink:href="#SVGID_1_"  overflow="visible"/>
				</clipPath>
			</g>
		</g>
	</g>
	<g id="Capa_3_copia_1_">
	</g>
</g>
<g id="manga_frente_1_">
	<g>
		<path fill="none" d="M71.044,809.043c-0.06-0.765-0.15-1.11-0.285-0.855C70.893,808.157,70.983,808.472,71.044,809.043z"/>
		<path fill="none" d="M70.893,829.853c0.03-9.602,0.435-18.155,0.15-20.81C71.239,811.848,70.923,820.686,70.893,829.853z"/>
		<path fill="none" d="M63.392,746.536c0,0-3.001-8.822-5.161-16.264c-6.497,4.486-12.378,11.253-12.378,11.253
			c-18.71,17.72-19.97,58.935-19.97,58.935c-0.285,16.324-2.251,35.019-2.251,35.019c18.005,9.708,45.012,9.573,45.012,9.573
			c1.26-0.42,1.125-2.956,1.125-2.956c0-7.037,1.125-12.243,1.125-12.243c0.03-9.152,0.345-17.99,0.15-20.81
			c-0.06-0.57-0.15-0.885-0.285-0.855l1.41-4.636c0,0-3.706-19.7-4.456-29.258C67.713,774.294,67.338,759.47,63.392,746.536z"/>
		<path fill="none" d="M282.314,835.75c-0.84-13.503-2.821-43.601-2.821-43.601c-0.6-17.089-5.852-31.118-12.378-41.351
			c-8.792-13.774-19.415-20.825-19.415-20.825c-3.811,13.218-7.637,35.814-7.637,35.814c-4.696,23.871-6.182,37.945-6.182,37.945
			c2.011,3.886,1.59,25.132,1.59,25.132c-0.135,1.831,0.285,4.501,0.285,4.501c0.84,6.197,0.57,10.698,0.57,10.698
			C246.304,848.833,282.314,835.75,282.314,835.75z"/>
	</g>
</g>
<g id="manga_dorso_1_">
	<path fill="none" d="M336.088,731.427c-6.377,11.448,4.411,54.014,4.411,54.014c4.126,12.753,10.593,23.586,10.593,23.586
		c-1.5-0.24-1.215,1.17-1.215,1.17c-1.5,9.948-0.66,23.256-0.66,23.256c-0.375,3.841-0.765,8.537-0.765,8.537
		c-0.285,4.966-0.075,6.842-0.075,6.842c-3.091,2.536-9.663,2.341-9.663,2.341c-26.452-1.035-37.33-11.253-37.33-11.253
		c0.66-0.945,0.945-14.629,0.945-14.629c0.66-6.842,0.84-14.539,0.84-14.539l0.57-6.197l0.285-7.592
		c2.161-41.636,23.256-57.39,23.256-57.39C331.676,736.214,336.088,731.427,336.088,731.427z"/>
	<path fill="none" d="M517.845,809.553c1.575-5.176,3.961-8.492,6.152-14.434c2.971-8.042,4.486-15.259,6.482-20.555
		c3.661-16.414,2.341-42.206,2.341-42.206c10.833,9.708,16.174,16.174,16.174,16.174c16.879,25.747,15.199,54.584,15.199,54.584
		c0.99,15.754,2.386,34.329,2.386,34.329c0.42,3.031-2.536,4.996-2.536,4.996c-21.095,10.263-37.48,8.657-37.48,8.657
		c-5.911,0.075-6.827-2.671-6.827-2.671c-0.21-7.667-0.78-14.704-0.78-14.704c-0.135-13.218-0.495-20.675-0.495-20.675
		C518.1,810.333,517.845,809.553,517.845,809.553z"/>
</g>
<rect x="176.722" y="72.688" fill-rule="evenodd" clip-rule="evenodd" width="114.827" height="153.102"/>
<rect x="176.722" y="72.688" fill="none" stroke="#231F20" stroke-width="0.1134" stroke-miterlimit="22.926" width="114.827" height="153.102"/>
<path fill-rule="evenodd" clip-rule="evenodd" d="M307.89,72.685v51.04c0.81-1.11,1.62-2.23,2.43-3.34l0.12,7.63l0.04,2.87v0.27
	c-0.85,1.21-1.73,2.42-2.59,3.63v91.01h114.83v-91.09c-0.86-1.18-1.71-2.37-2.56-3.56l0.02,11.12c-1.84-2.56-3.67-5.12-5.51-7.68
	c0.01,3.7,0.01,7.4,0.02,11.11c-1.83-2.56-3.67-5.12-5.5-7.67c0.01,3.7,0.01,7.41,0.02,11.11c-1.84-2.56-3.67-5.11-5.5-7.67
	c0,3.7,0.01,7.4,0.01,11.1c-1.83-2.55-3.66-5.11-5.5-7.66c0.01,3.7,0.01,7.4,0.02,11.11c-1.83-2.56-3.67-5.12-5.5-7.67
	c0,3.7,0.01,7.4,0.01,11.1c-1.83-2.56-3.66-5.11-5.49-7.67c0,3.71,0.01,7.41,0.01,11.12c-1.83-2.56-3.67-5.12-5.5-7.68
	c0.01,3.7,0.01,7.41,0.02,11.11c-1.84-2.56-3.67-5.11-5.5-7.67c0,3.7,0.01,7.41,0.02,11.11c-1.84-2.55-3.67-5.11-5.51-7.67
	c0.01,3.7,0.01,7.4,0.02,11.1l-5.49-7.65l-5.46,7.6l-0.02-0.02c0.01-3.68,0.02-7.37,0.02-11.05c-1.83,2.55-3.66,5.1-5.49,7.65
	l-0.01-0.01c0.01-3.69,0.01-7.39,0.02-11.08c-1.84,2.55-3.67,5.11-5.5,7.67c0-3.71,0.01-7.41,0.01-11.11
	c-1.83,2.56-3.66,5.12-5.5,7.67c0.01-3.7,0.01-7.4,0.02-11.11c-1.83,2.56-3.67,5.11-5.5,7.67c0.01-3.7,0.01-7.4,0.02-11.11
	c-1.84,2.56-3.67,5.12-5.51,7.68c0.01-3.71,0.01-7.41,0.02-11.12l1.46-2.03l3.83-5.28l0.12,7.78l0.04,2.73v0.27l1.48-2.04l3.84-5.29
	l0.12,7.79l0.04,2.7v0.27l1.47-2.02l3.86-5.31l0.12,7.83l0.04,2.67v0.27l1.45-2l3.87-5.33l0.12,7.86l0.04,2.64v0.27l1.44-1.98
	l3.89-5.36l0.11,7.89l0.04,2.62l0.01,0.27l1.41-1.96l4.07-5.65l4.34,6.06l1.11,1.55v-0.27l0.03-2.01l0.13-8.5l4.16,5.74l1.16,1.6
	l0.01-0.27l0.03-2.11l0.12-8.39l4.12,5.67l1.21,1.66v-0.27l0.03-2.19l0.12-8.31l4.08,5.61l1.25,1.72l0.01-0.27l0.03-2.29l0.12-8.2
	l4.02,5.54l1.3,1.79l0.01-0.27l0.03-2.38l0.12-8.13l3.99,5.49l1.34,1.85v-0.27l0.04-2.47l0.12-8.03l3.93,5.42l1.39,1.91l0.01-0.27
	l0.04-2.56l0.11-7.95l3.9,5.37l1.43,1.97v-0.27l0.04-2.65l0.12-7.85l3.84,5.3l1.48,2.04v-0.27l0.04-2.75l0.12-7.76
	c1.27,1.74,2.54,3.49,3.8,5.24c0.51,0.7,1.02,1.4,1.53,2.1v-0.27l0.04-2.84l0.11-7.66c0.82,1.11,1.63,2.23,2.44,3.34v-51.04H307.89z
	 M312.03,129.025c1.26-1.74,2.52-3.48,3.78-5.21l0.11,7.66l0.04,2.85l0.01,0.27c-1.81,2.55-3.65,5.1-5.47,7.64l0.01-11.11
	C311.01,130.425,311.52,129.725,312.03,129.025z M332.41,144.635l0.01,0.27c-1.81,2.55-3.65,5.1-5.47,7.64
	c0.01-3.7,0.01-7.4,0.02-11.1c-1.84,2.55-3.67,5.11-5.5,7.67c0-3.7,0.01-7.41,0.01-11.11c-1.83,2.55-3.66,5.11-5.5,7.66
	c0.01-3.7,0.01-7.4,0.02-11.1l1.5-2.08l3.79-5.23l0.11,7.69l0.04,2.81l0.01,0.27l1.52-2.09l3.8-5.25l0.12,7.73l0.04,2.78v0.27
	l1.51-2.07l3.82-5.26l0.11,7.74L332.41,144.635z"/>
<path fill="none" stroke="#231F20" stroke-width="0.1134" stroke-miterlimit="22.926" d="M307.89,72.685v51.04
	c0.81-1.11,1.62-2.23,2.43-3.34l0.12,7.63l0.04,2.87v0.27c-0.85,1.21-1.73,2.42-2.59,3.63v91.01h114.83v-91.09
	c-0.86-1.18-1.71-2.37-2.56-3.56l0.02,11.12c-1.84-2.56-3.67-5.12-5.51-7.68c0.01,3.7,0.01,7.4,0.02,11.11
	c-1.83-2.56-3.67-5.12-5.5-7.67c0.01,3.7,0.01,7.41,0.02,11.11c-1.84-2.56-3.67-5.11-5.5-7.67c0,3.7,0.01,7.4,0.01,11.1
	c-1.83-2.55-3.66-5.11-5.5-7.66c0.01,3.7,0.01,7.4,0.02,11.11c-1.83-2.56-3.67-5.12-5.5-7.67c0,3.7,0.01,7.4,0.01,11.1
	c-1.83-2.56-3.66-5.11-5.49-7.67c0,3.71,0.01,7.41,0.01,11.12c-1.83-2.56-3.67-5.12-5.5-7.68c0.01,3.7,0.01,7.41,0.02,11.11
	c-1.84-2.56-3.67-5.11-5.5-7.67c0,3.7,0.01,7.41,0.02,11.11c-1.84-2.55-3.67-5.11-5.51-7.67c0.01,3.7,0.01,7.4,0.02,11.1l-5.49-7.65
	l-5.46,7.6l-0.02-0.02c0.01-3.68,0.02-7.37,0.02-11.05c-1.83,2.55-3.66,5.1-5.49,7.65l-0.01-0.01c0.01-3.69,0.01-7.39,0.02-11.08
	c-1.84,2.55-3.67,5.11-5.5,7.67c0-3.71,0.01-7.41,0.01-11.11c-1.83,2.56-3.66,5.12-5.5,7.67c0.01-3.7,0.01-7.4,0.02-11.11
	c-1.83,2.56-3.67,5.11-5.5,7.67c0.01-3.7,0.01-7.4,0.02-11.11c-1.84,2.56-3.67,5.12-5.51,7.68c0.01-3.71,0.01-7.41,0.02-11.12
	l1.46-2.03l3.83-5.28l0.12,7.78l0.04,2.73v0.27l1.48-2.04l3.84-5.29l0.12,7.79l0.04,2.7v0.27l1.47-2.02l3.86-5.31l0.12,7.83
	l0.04,2.67v0.27l1.45-2l3.87-5.33l0.12,7.86l0.04,2.64v0.27l1.44-1.98l3.89-5.36l0.11,7.89l0.04,2.62l0.01,0.27l1.41-1.96l4.07-5.65
	l4.34,6.06l1.11,1.55v-0.27l0.03-2.01l0.13-8.5l4.16,5.74l1.16,1.6l0.01-0.27l0.03-2.11l0.12-8.39l4.12,5.67l1.21,1.66v-0.27
	l0.03-2.19l0.12-8.31l4.08,5.61l1.25,1.72l0.01-0.27l0.03-2.29l0.12-8.2l4.02,5.54l1.3,1.79l0.01-0.27l0.03-2.38l0.12-8.13
	l3.99,5.49l1.34,1.85v-0.27l0.04-2.47l0.12-8.03l3.93,5.42l1.39,1.91l0.01-0.27l0.04-2.56l0.11-7.95l3.9,5.37l1.43,1.97v-0.27
	l0.04-2.65l0.12-7.85l3.84,5.3l1.48,2.04v-0.27l0.04-2.75l0.12-7.76c1.27,1.74,2.54,3.49,3.8,5.24c0.51,0.7,1.02,1.4,1.53,2.1v-0.27
	l0.04-2.84l0.11-7.66c0.82,1.11,1.63,2.23,2.44,3.34v-51.04H307.89z M312.03,129.025c1.26-1.74,2.52-3.48,3.78-5.21l0.11,7.66
	l0.04,2.85l0.01,0.27c-1.81,2.55-3.65,5.1-5.47,7.64l0.01-11.11C311.01,130.425,311.52,129.725,312.03,129.025z M332.41,144.635
	l0.01,0.27c-1.81,2.55-3.65,5.1-5.47,7.64c0.01-3.7,0.01-7.4,0.02-11.1c-1.84,2.55-3.67,5.11-5.5,7.67c0-3.7,0.01-7.41,0.01-11.11
	c-1.83,2.55-3.66,5.11-5.5,7.66c0.01-3.7,0.01-7.4,0.02-11.1l1.5-2.08l3.79-5.23l0.11,7.69l0.04,2.81l0.01,0.27l1.52-2.09l3.8-5.25
	l0.12,7.73l0.04,2.78v0.27l1.51-2.07l3.82-5.26l0.11,7.74L332.41,144.635z"/>
<polygon fill-rule="evenodd" clip-rule="evenodd" fill="#808080" points="322.97,135.935 321.45,138.025 321.44,137.755 
	321.4,134.945 "/>
<polygon fill-rule="evenodd" clip-rule="evenodd" fill="#808080" points="326.93,141.465 326.93,141.195 326.89,138.415 
	328.44,139.395 "/>
<polygon fill-rule="evenodd" clip-rule="evenodd" fill="#808080" points="337.9,148.345 337.9,148.075 337.86,145.345 
	339.38,146.305 "/>
<polygon fill-rule="evenodd" clip-rule="evenodd" fill="#808080" points="343.38,151.775 343.38,151.505 343.34,148.805 
	344.85,149.755 "/>
<polygon fill-rule="evenodd" clip-rule="evenodd" fill="#808080" points="348.87,155.215 348.87,154.945 348.83,152.275 
	350.32,153.215 "/>
<polygon fill-rule="evenodd" clip-rule="evenodd" fill="#808080" points="354.35,158.655 354.35,158.385 354.31,155.745 
	355.79,156.675 "/>
<polygon fill-rule="evenodd" clip-rule="evenodd" fill="#808080" points="361.25,160.135 359.84,162.095 359.83,161.825 
	359.79,159.205 "/>
<polygon fill-rule="evenodd" clip-rule="evenodd" fill="#808080" points="370.8,159.815 370.77,161.825 370.77,162.095 
	369.66,160.545 "/>
<polygon fill-rule="evenodd" clip-rule="evenodd" fill="#808080" points="376.29,156.275 376.26,158.385 376.25,158.655 
	375.09,157.055 "/>
<polygon fill-rule="evenodd" clip-rule="evenodd" fill="#808080" points="381.77,152.755 381.74,154.945 381.74,155.215 
	380.53,153.555 "/>
<polygon fill-rule="evenodd" clip-rule="evenodd" fill="#808080" points="387.26,149.215 387.23,151.505 387.22,151.775 
	385.97,150.055 "/>
<polygon fill-rule="evenodd" clip-rule="evenodd" fill="#808080" points="392.74,145.695 392.71,148.075 392.7,148.345 
	391.4,146.555 "/>
<polygon fill-rule="evenodd" clip-rule="evenodd" fill="#808080" points="398.23,142.165 398.19,144.635 398.19,144.905 
	396.85,143.055 "/>
<polygon fill-rule="evenodd" clip-rule="evenodd" fill="#808080" points="403.72,138.635 403.68,141.195 403.67,141.465 
	402.28,139.555 "/>
<polygon fill-rule="evenodd" clip-rule="evenodd" fill="#808080" points="409.2,135.105 409.16,137.755 409.16,138.025 
	407.73,136.055 "/>
<polygon fill-rule="evenodd" clip-rule="evenodd" fill="#808080" points="414.68,131.575 414.64,134.325 414.64,134.595 
	413.16,132.555 "/>
<path fill-rule="evenodd" clip-rule="evenodd" fill="#808080" d="M420.17,128.045l-0.04,2.84v0.27c-0.51-0.7-1.02-1.4-1.53-2.1
	L420.17,128.045z"/>
<path fill-rule="evenodd" clip-rule="evenodd" fill="#808080" d="M422.72,134.705v91.09H307.89v-91.01
	c0.86-1.21,1.74-2.42,2.59-3.63v-0.27l-0.04-2.87l1.59,1.01c-0.51,0.7-1.02,1.4-1.52,2.1l-0.01,11.11c1.82-2.54,3.66-5.09,5.47-7.64
	l-0.01-0.27l-0.04-2.85l1.58,1.01l-1.5,2.08c-0.01,3.7-0.01,7.4-0.02,11.1c1.84-2.55,3.67-5.11,5.5-7.66c0,3.7-0.01,7.41-0.01,11.11
	c1.83-2.56,3.66-5.12,5.5-7.67c-0.01,3.7-0.01,7.4-0.02,11.1c1.82-2.54,3.66-5.09,5.47-7.64l-0.01-0.27l-0.04-2.76l1.54,0.97
	l-1.46,2.03c-0.01,3.71-0.01,7.41-0.02,11.12c1.84-2.56,3.67-5.12,5.51-7.68c-0.01,3.71-0.01,7.41-0.02,11.11
	c1.83-2.56,3.67-5.11,5.5-7.67c-0.01,3.71-0.01,7.41-0.02,11.11c1.84-2.55,3.67-5.11,5.5-7.67c0,3.7-0.01,7.4-0.01,11.11
	c1.83-2.56,3.66-5.12,5.5-7.67c-0.01,3.69-0.01,7.39-0.02,11.08l0.01,0.01c1.83-2.55,3.66-5.1,5.49-7.65
	c0,3.68-0.01,7.37-0.02,11.05l0.02,0.02l5.46-7.6l5.49,7.65c-0.01-3.7-0.01-7.4-0.02-11.1c1.84,2.56,3.67,5.12,5.51,7.67
	c-0.01-3.7-0.02-7.41-0.02-11.11c1.83,2.56,3.66,5.11,5.5,7.67c-0.01-3.7-0.01-7.41-0.02-11.11c1.83,2.56,3.67,5.12,5.5,7.68
	c0-3.71-0.01-7.41-0.01-11.12c1.83,2.56,3.66,5.11,5.49,7.67c0-3.7-0.01-7.4-0.01-11.1c1.83,2.55,3.67,5.11,5.5,7.67
	c-0.01-3.71-0.01-7.41-0.02-11.11c1.84,2.55,3.67,5.11,5.5,7.66c0-3.7-0.01-7.4-0.01-11.1c1.83,2.56,3.66,5.11,5.5,7.67
	c-0.01-3.7-0.01-7.41-0.02-11.11c1.83,2.55,3.67,5.11,5.5,7.67c-0.01-3.71-0.01-7.41-0.02-11.11c1.84,2.56,3.67,5.12,5.51,7.68
	l-0.02-11.12C421.01,132.335,421.86,133.525,422.72,134.705z"/>
<g>
	<path fill="#DD1D54" d="M310.48,130.885v0.27c-0.85,1.21-1.73,2.42-2.59,3.63v-11.06c0.81-1.11,1.62-2.23,2.43-3.34l0.12,7.63
		L310.48,130.885z"/>
	<path fill="#DD1D54" d="M315.97,134.595c-1.81,2.55-3.65,5.1-5.47,7.64l0.01-11.11c0.5-0.7,1.01-1.4,1.52-2.1
		c1.26-1.74,2.52-3.48,3.78-5.21l0.11,7.66l0.04,2.85L315.97,134.595z"/>
	<path fill="#DD1D54" d="M422.72,134.705c-0.86-1.18-1.71-2.37-2.56-3.56l0.02,11.12c-1.84-2.56-3.67-5.12-5.51-7.68
		c0.01,3.7,0.01,7.4,0.02,11.11c-1.83-2.56-3.67-5.12-5.5-7.67c0.01,3.7,0.01,7.41,0.02,11.11c-1.84-2.56-3.67-5.11-5.5-7.67
		c0,3.7,0.01,7.4,0.01,11.1c-1.83-2.55-3.66-5.11-5.5-7.66c0.01,3.7,0.01,7.4,0.02,11.11c-1.83-2.56-3.67-5.12-5.5-7.67
		c0,3.7,0.01,7.4,0.01,11.1c-1.83-2.56-3.66-5.11-5.49-7.67c0,3.71,0.01,7.41,0.01,11.12c-1.83-2.56-3.67-5.12-5.5-7.68
		c0.01,3.7,0.01,7.41,0.02,11.11c-1.84-2.56-3.67-5.11-5.5-7.67c0,3.7,0.01,7.41,0.02,11.11c-1.84-2.55-3.67-5.11-5.51-7.67
		c0.01,3.7,0.01,7.4,0.02,11.1l-5.49-7.65l-5.46,7.6l-0.02-0.02c0.01-3.68,0.02-7.37,0.02-11.05c-1.83,2.55-3.66,5.1-5.49,7.65
		l-0.01-0.01c0.01-3.69,0.01-7.39,0.02-11.08c-1.84,2.55-3.67,5.11-5.5,7.67c0-3.71,0.01-7.41,0.01-11.11
		c-1.83,2.56-3.66,5.12-5.5,7.67c0.01-3.7,0.01-7.4,0.02-11.11c-1.83,2.56-3.67,5.11-5.5,7.67c0.01-3.7,0.01-7.4,0.02-11.11
		c-1.84,2.56-3.67,5.12-5.51,7.68c0.01-3.71,0.01-7.41,0.02-11.12l1.46-2.03l3.83-5.28l0.12,7.78l0.04,2.73v0.27l1.48-2.04
		l3.84-5.29l0.12,7.79l0.04,2.7v0.27l1.47-2.02l3.86-5.31l0.12,7.83l0.04,2.67v0.27l1.45-2l3.87-5.33l0.12,7.86l0.04,2.64v0.27
		l1.44-1.98l3.89-5.36l0.11,7.89l0.04,2.62l0.01,0.27l1.41-1.96l4.07-5.65l4.34,6.06l1.11,1.55v-0.27l0.03-2.01l0.13-8.5l4.16,5.74
		l1.16,1.6l0.01-0.27l0.03-2.11l0.12-8.39l4.12,5.67l1.21,1.66v-0.27l0.03-2.19l0.12-8.31l4.08,5.61l1.25,1.72l0.01-0.27l0.03-2.29
		l0.12-8.2l4.02,5.54l1.3,1.79l0.01-0.27l0.03-2.38l0.12-8.13l3.99,5.49l1.34,1.85v-0.27l0.04-2.47l0.12-8.03l3.93,5.42l1.39,1.91
		l0.01-0.27l0.04-2.56l0.11-7.95l3.9,5.37l1.43,1.97v-0.27l0.04-2.65l0.12-7.85l3.84,5.3l1.48,2.04v-0.27l0.04-2.75l0.12-7.76
		c1.27,1.74,2.54,3.49,3.8,5.24c0.51,0.7,1.02,1.4,1.53,2.1v-0.27l0.04-2.84l0.11-7.66c0.82,1.11,1.63,2.23,2.44,3.34V134.705z"/>
	<path fill="#DD1D54" d="M326.95,152.545c0.01-3.7,0.01-7.4,0.02-11.1c-1.84,2.55-3.67,5.11-5.5,7.67c0-3.7,0.01-7.41,0.01-11.11
		c-1.83,2.55-3.66,5.11-5.5,7.66c0.01-3.7,0.01-7.4,0.02-11.1l1.5-2.08l3.79-5.23l0.11,7.69l0.04,2.81l0.01,0.27l1.52-2.09l3.8-5.25
		l0.12,7.73l0.04,2.78v0.27l1.51-2.07l3.82-5.26l0.11,7.74l0.04,2.76l0.01,0.27C330.61,147.455,328.77,150.005,326.95,152.545z"/>
</g>
<path fill="#FFFFFF" d="M422.72,112.155v11.57c-0.81-1.11-1.62-2.23-2.44-3.34l-0.11,7.66l-0.04,2.84v0.27
	c-0.51-0.7-1.02-1.4-1.53-2.1c-1.26-1.75-2.53-3.5-3.8-5.24l-0.12,7.76l-0.04,2.75v0.27l-1.48-2.04l-3.84-5.3l-0.12,7.85l-0.04,2.65
	v0.27l-1.43-1.97l-3.9-5.37l-0.11,7.95l-0.04,2.56l-0.01,0.27l-1.39-1.91l-3.93-5.42l-0.12,8.03l-0.04,2.47v0.27l-1.34-1.85
	l-3.99-5.49l-0.12,8.13l-0.03,2.38l-0.01,0.27l-1.3-1.79l-4.02-5.54l-0.12,8.2l-0.03,2.29l-0.01,0.27l-1.25-1.72l-4.08-5.61
	l-0.12,8.31l-0.03,2.19v0.27l-1.21-1.66l-4.12-5.67l-0.12,8.39l-0.03,2.11l-0.01,0.27l-1.16-1.6l-4.16-5.74l-0.13,8.5l-0.03,2.01
	v0.27l-1.11-1.55l-4.34-6.06l-4.07,5.65l-1.41,1.96l-0.01-0.27l-0.04-2.62l-0.11-7.89l-3.89,5.36l-1.44,1.98v-0.27l-0.04-2.64
	l-0.12-7.86l-3.87,5.33l-1.45,2v-0.27l-0.04-2.67l-0.12-7.83l-3.86,5.31l-1.47,2.02v-0.27l-0.04-2.7l-0.12-7.79l-3.84,5.29
	l-1.48,2.04v-0.27l-0.04-2.73l-0.12-7.78l-3.83,5.28l-1.46,2.03c-0.01,0.01-0.01,0.02-0.03,0.03l-0.01-0.27l-0.04-2.76l-0.11-7.74
	l-3.82,5.26l-1.51,2.07v-0.27l-0.04-2.78l-0.12-7.73l-3.8,5.25l-1.52,2.09l-0.01-0.27l-0.04-2.81l-0.11-7.69l-3.79,5.23l-1.5,2.08
	c-0.01,0.01-0.01,0.02-0.03,0.03l-0.01-0.27l-0.04-2.85l-0.11-7.66c-1.26,1.73-2.52,3.47-3.78,5.21c-0.51,0.7-1.02,1.4-1.52,2.1
	c-0.01,0.01-0.01,0.02-0.03,0.03v-0.27l-0.04-2.87l-0.12-7.63c-0.81,1.11-1.62,2.23-2.43,3.34v-11.57c0.9-1.26,1.8-2.51,2.71-3.77
	l-0.02,11.1c1.83-2.55,3.67-5.11,5.5-7.66l-0.02,11.11c1.83-2.56,3.67-5.12,5.5-7.67c0,3.7-0.01,7.4-0.01,11.1
	c1.83-2.56,3.66-5.11,5.5-7.67c-0.01,3.71-0.01,7.41-0.02,11.11c1.83-2.55,3.67-5.11,5.5-7.67c0,3.7-0.01,7.41-0.02,11.11
	c1.84-2.56,3.67-5.12,5.5-7.67c0,3.7-0.01,7.41-0.01,11.11c1.83-2.55,3.67-5.11,5.5-7.67c-0.01,3.7-0.01,7.4-0.02,11.1
	c1.84-2.55,3.67-5.11,5.5-7.66c0,3.7-0.01,7.41-0.02,11.11c1.84-2.56,3.67-5.12,5.51-7.67c-0.01,3.7-0.01,7.4-0.02,11.1
	c1.83-2.56,3.67-5.11,5.5-7.67c-0.01,3.71-0.01,7.41-0.02,11.12c1.84-2.56,3.56-5.12,5.4-7.68c1.83,2.56,3.51,5.12,5.34,7.68
	c0-3.71-0.01-7.41-0.01-11.12c1.83,2.56,3.66,5.11,5.49,7.67c0-3.7-0.01-7.4-0.01-11.1c1.83,2.55,3.67,5.11,5.5,7.67
	c-0.01-3.7-0.01-7.41-0.02-11.11c1.84,2.55,3.67,5.11,5.5,7.66c0-3.7-0.01-7.4-0.02-11.1c1.84,2.56,3.67,5.12,5.51,7.67
	c-0.01-3.7-0.01-7.41-0.02-11.11c1.83,2.55,3.67,5.11,5.5,7.67c-0.01-3.7-0.01-7.41-0.02-11.11c1.84,2.56,3.67,5.12,5.51,7.67
	c-0.01-3.7-0.02-7.4-0.02-11.11c1.83,2.56,3.66,5.11,5.5,7.67c-0.01-3.7-0.01-7.4-0.02-11.1c1.84,2.55,3.67,5.11,5.5,7.67
	l-0.01-11.11c1.83,2.55,3.66,5.11,5.5,7.66l-0.02-11.1C420.91,109.645,421.81,110.895,422.72,112.155z"/>
<path d="M422.72,134.705v11.58c-0.77-1.05-1.53-2.1-2.29-3.15l-0.15,10.51l-0.01,0.27l-5.32-7.33l-0.16,10.5v0.27l-5.33-7.34
	l-0.15,10.51l-0.01,0.27l-5.32-7.34l-0.15,10.5l-0.01,0.27l-5.32-7.33l-0.16,10.5v0.27l-5.33-7.33l-0.15,10.5l-0.01,0.27l-5.32-7.34
	l-0.16,10.51v0.27l-5.32-7.33l-0.16,10.5v0.27l-5.33-7.34l-0.16,10.51v0.27l-5.32-7.34l-0.16,10.5v0.27l-5.58-8.34l-5.58,8.32
	l-0.01-0.27l-0.15-10.5l-5.33,7.34v-0.27l-0.16-10.51l-5.32,7.33l-0.01-0.26l-0.15-10.5l-5.32,7.33l-0.01-0.27l-0.15-10.51
	l-5.33,7.34v-0.27l-0.16-10.5l-5.32,7.33l-0.01-0.27l-0.15-10.51l-5.33,7.34v-0.27l-0.16-10.5l-5.32,7.34v-0.27l-0.16-10.51
	l-5.33,7.34v-0.27l-0.16-10.5l-5.32,7.33v-0.27l-0.16-10.51c-0.78,1.08-1.57,2.16-2.35,3.24v-11.57c0.86-1.21,1.74-2.42,2.59-3.63
	c0.02-0.01,0.02-0.02,0.03-0.03l-0.01,11.11c1.82-2.54,3.66-5.09,5.47-7.64c0.02-0.01,0.02-0.02,0.03-0.03
	c-0.01,3.7-0.01,7.4-0.02,11.1c1.84-2.55,3.67-5.11,5.5-7.66c0,3.7-0.01,7.41-0.01,11.11c1.83-2.56,3.66-5.12,5.5-7.67
	c-0.01,3.7-0.01,7.4-0.02,11.1c1.82-2.54,3.66-5.09,5.47-7.64c0.02-0.01,0.02-0.02,0.03-0.03c-0.01,3.71-0.01,7.41-0.02,11.12
	c1.84-2.56,3.67-5.12,5.51-7.68c-0.01,3.71-0.01,7.41-0.02,11.11c1.83-2.56,3.67-5.11,5.5-7.67c-0.01,3.71-0.01,7.41-0.02,11.11
	c1.84-2.55,3.67-5.11,5.5-7.67c0,3.7-0.01,7.4-0.01,11.11c1.83-2.56,3.66-5.12,5.5-7.67c-0.01,3.69-0.01,7.39-0.02,11.08v0.03
	c0-0.01,0.01-0.01,0.01-0.02c1.83-2.55,3.66-5.1,5.49-7.65c0,3.68-0.01,7.37-0.02,11.05v0.05l0.02-0.03l5.46-7.6l5.49,7.65
	c-0.01-3.7-0.01-7.4-0.02-11.1c1.84,2.56,3.67,5.12,5.51,7.67c-0.01-3.7-0.02-7.41-0.02-11.11c1.83,2.56,3.66,5.11,5.5,7.67
	c-0.01-3.7-0.01-7.41-0.02-11.11c1.83,2.56,3.67,5.12,5.5,7.68c0-3.71-0.01-7.41-0.01-11.12c1.83,2.56,3.66,5.11,5.49,7.67
	c0-3.7-0.01-7.4-0.01-11.1c1.83,2.55,3.67,5.11,5.5,7.67c-0.01-3.71-0.01-7.41-0.02-11.11c1.84,2.55,3.67,5.11,5.5,7.66
	c0-3.7-0.01-7.4-0.01-11.1c1.83,2.56,3.66,5.11,5.5,7.67c-0.01-3.7-0.01-7.41-0.02-11.11c1.83,2.55,3.67,5.11,5.5,7.67
	c-0.01-3.71-0.01-7.41-0.02-11.11c1.84,2.56,3.67,5.12,5.51,7.68l-0.02-11.12C421.01,132.335,421.86,133.525,422.72,134.705z"/>
<rect x="109.968" y="82.006" fill-rule="evenodd" clip-rule="evenodd" width="49.69" height="84.675"/>
<rect x="443.109" y="82.006" fill-rule="evenodd" clip-rule="evenodd" width="49.69" height="84.675"/>
</svg>
