<?xml version="1.0" encoding="utf-8"?>
<!-- Generator: Adobe Illustrator 24.1.3, SVG Export Plug-In . SVG Version: 6.00 Build 0)  -->
<svg version="1.1" xmlns="http://www.w3.org/2000/svg" xmlns:xlink="http://www.w3.org/1999/xlink" x="0px" y="0px"
	 viewBox="0 0 396.75 360" style="enable-background:new 0 0 396.75 360;" xml:space="preserve">
<style type="text/css">
	.st0{fill:url(#SVGID_1_);}
	.st1{fill:url(#SVGID_2_);}
	.st2{fill:none;}
	.st3{clip-path:url(#SVGID_4_);fill:url(#SVGID_5_);}
	.st4{clip-path:url(#SVGID_7_);fill:url(#SVGID_8_);}
	.st5{fill-rule:evenodd;clip-rule:evenodd;fill:#0F1E45;}
</style>
<g id="dorso">
	<g id="Capa_2">
		<linearGradient id="SVGID_1_" gradientUnits="userSpaceOnUse" x1="288.7988" y1="129.2133" x2="290.2988" y2="345.7133">
			<stop  offset="0.282" style="stop-color:#FFFFFF"/>
			<stop  offset="0.8502" style="stop-color:#000000"/>
		</linearGradient>
		<path class="st0" d="M234,197.53c1.88,5.06,2.25,17.72,2.25,17.72c1.5,18,3.66,43.13,3.66,43.13c2.25,33.75-4.88,70.13-4.88,70.13
			c-0.45,2.85-1.03,5.25-1.03,5.25c0.88,8.5,18,9.44,18,9.44c32.81,2.75,66.5,0.38,66.5,0.38c16-0.31,20.81-3.56,20.81-3.56
			c4.63-2,5.38-5.56,5.38-5.56c0.38-1-0.56-3.38-0.56-3.38c-3.58-20.83-5.13-36.69-5.13-36.69c-1.56-17-0.31-36.38-0.31-36.38
			c1.5-11.44,2.94-33.5,2.94-33.5c0.94-8.75,1.5-19.19,1.5-19.19c0.56-5.13,1.94-7.78,1.94-7.78c3.94-6.03,8.5-22.97,8.5-22.97
			c2.44-10.94,1.56-28.13,1.56-28.13c-6.81-3.94-16.24-6.58-16.24-6.58c-9.56-1.94-20.95-8.54-20.95-8.54
			c-0.94-0.75-4.81-1.44-4.81-1.44h-43h-3.94c-2.25,0.13-4.56,0.69-4.56,0.69c-10.88,6.88-28.88,11.63-28.88,11.63
			c-4.13,1.38-8.75,3.63-8.75,3.63c-4.25,7.63,2.94,36,2.94,36C229.69,190.31,234,197.53,234,197.53z"/>
	</g>
	<g id="Capa_3">
	</g>
</g>
<g id="frente">
	<g id="Capa_2_copia">
		<g>
			<linearGradient id="SVGID_2_" gradientUnits="userSpaceOnUse" x1="103.0116" y1="196.4908" x2="109.0116" y2="312.4908">
				<stop  offset="0" style="stop-color:#FFFFFF"/>
				<stop  offset="1" style="stop-color:#000000"/>
			</linearGradient>
			<path class="st1" d="M165.09,144.84c-7.22-4.22-11.06-4.59-18.38-6.47s-17.25-7.78-17.25-7.78
				c2.72,13.97-18.84,16.97-18.84,16.97c-15.19,2.06-23.81-1.5-23.81-1.5c-15-5.91-12.38-15.47-12.38-15.47
				c-7.69,5.44-26.63,10.78-26.63,10.78c-7.5,2.16-9,3.66-9,3.66c1.44,4.97,3.44,10.84,3.44,10.84c2.63,8.63,2.88,18.5,2.88,18.5
				c0.5,6.38,2.97,19.5,2.97,19.5l0.28,0.84c1.69,6.19,1.41,17.53,1.41,17.53c0.38,21.28,1.03,29.72,1.03,29.72
				c0.09,6.38,1.13,11.44,1.13,11.44c1.5,22.13,0.19,40.13,0.19,40.13c-2.16,22.78-6.13,41.59-6.38,42.28s-0.25,0.69-0.25,0.69
				c6,5,44.5,7,44.5,7c26.88,2.25,64.63-4.5,64.63-4.5c2.88-0.88,3.63-2.5,3.63-2.5c-10.25-56.25-6.13-83.13-6.13-83.13
				c1.13-7,2-32.5,2-32.5c0.25-3.13,0.13-6.63,0.13-6.63c-0.75-12.75,1.63-20.25,1.63-20.25s1-9.38,4.12-25.29
				C160,168.71,162.56,153.65,165.09,144.84z"/>
		</g>
	</g>
	<g id="Capa_3_copia">
	</g>
</g>
<g id="manga_frente">
	<g>
		<path class="st2" d="M47.35,197.54c-0.04-0.51-0.1-0.74-0.19-0.57C47.25,196.95,47.31,197.16,47.35,197.54z"/>
		<path class="st2" d="M47.25,211.41c0.02-6.4,0.29-12.1,0.1-13.87C47.48,199.41,47.27,205.3,47.25,211.41z"/>
		<path class="st2" d="M42.25,155.88c0,0-2-5.88-3.44-10.84c-4.33,2.99-8.25,7.5-8.25,7.5c-12.47,11.81-13.31,39.28-13.31,39.28
			c-0.19,10.88-1.5,23.34-1.5,23.34c12,6.47,30,6.38,30,6.38c0.84-0.28,0.75-1.97,0.75-1.97c0-4.69,0.75-8.16,0.75-8.16
			c0.02-6.1,0.23-11.99,0.1-13.87c-0.04-0.38-0.1-0.59-0.19-0.57l0.94-3.09c0,0-2.47-13.13-2.97-19.5
			C45.13,174.38,44.88,164.5,42.25,155.88z"/>
		<path class="st2" d="M188.16,215.34c-0.56-9-1.88-29.06-1.88-29.06c-0.4-11.39-3.9-20.74-8.25-27.56
			c-5.86-9.18-12.94-13.88-12.94-13.88c-2.54,8.81-5.09,23.87-5.09,23.87c-3.13,15.91-4.12,25.29-4.12,25.29
			c1.34,2.59,1.06,16.75,1.06,16.75c-0.09,1.22,0.19,3,0.19,3c0.56,4.13,0.38,7.13,0.38,7.13
			C164.16,224.06,188.16,215.34,188.16,215.34z"/>
	</g>
</g>
<g id="manga_dorso">
	<path class="st2" d="M224,145.81c-4.25,7.63,2.94,36,2.94,36c2.75,8.5,7.06,15.72,7.06,15.72c-1-0.16-0.81,0.78-0.81,0.78
		c-1,6.63-0.44,15.5-0.44,15.5c-0.25,2.56-0.51,5.69-0.51,5.69c-0.19,3.31-0.05,4.56-0.05,4.56c-2.06,1.69-6.44,1.56-6.44,1.56
		c-17.63-0.69-24.88-7.5-24.88-7.5c0.44-0.63,0.63-9.75,0.63-9.75c0.44-4.56,0.56-9.69,0.56-9.69l0.38-4.13l0.19-5.06
		c1.44-27.75,15.5-38.25,15.5-38.25C221.06,149,224,145.81,224,145.81z"/>
	<path class="st2" d="M345.14,197.88c1.05-3.45,2.64-5.66,4.1-9.62c1.98-5.36,2.99-10.17,4.32-13.7
		c2.44-10.94,1.56-28.13,1.56-28.13c7.22,6.47,10.78,10.78,10.78,10.78c11.25,17.16,10.13,36.38,10.13,36.38
		c0.66,10.5,1.59,22.88,1.59,22.88c0.28,2.02-1.69,3.33-1.69,3.33c-14.06,6.84-24.98,5.77-24.98,5.77
		c-3.94,0.05-4.55-1.78-4.55-1.78c-0.14-5.11-0.52-9.8-0.52-9.8c-0.09-8.81-0.33-13.78-0.33-13.78
		C345.31,198.4,345.14,197.88,345.14,197.88z"/>
</g>
<g id="ejemplo">
	<g>
		<defs>
			<rect id="SVGID_3_" x="128.9" y="21.22" width="57.79" height="75.35"/>
		</defs>
		<clipPath id="SVGID_4_">
			<use xlink:href="#SVGID_3_"  style="overflow:visible;"/>
		</clipPath>
		<linearGradient id="SVGID_5_" gradientUnits="userSpaceOnUse" x1="157.8008" y1="36.8879" x2="157.8008" y2="78.4759">
			<stop  offset="0" style="stop-color:#0F1E45"/>
			<stop  offset="0.1" style="stop-color:#0F1E45"/>
			<stop  offset="1" style="stop-color:#EC1282"/>
		</linearGradient>
		<rect x="128.9" y="21.22" class="st3" width="57.79" height="75.35"/>
	</g>
	<g>
		<defs>
			<rect id="SVGID_6_" x="189.29" y="20.78" width="57.79" height="75.35"/>
		</defs>
		<clipPath id="SVGID_7_">
			<use xlink:href="#SVGID_6_"  style="overflow:visible;"/>
		</clipPath>
		<linearGradient id="SVGID_8_" gradientUnits="userSpaceOnUse" x1="218.1843" y1="36.4399" x2="218.1843" y2="78.0279">
			<stop  offset="0" style="stop-color:#0F1E45"/>
			<stop  offset="0.1" style="stop-color:#0F1E45"/>
			<stop  offset="1" style="stop-color:#EC1282"/>
		</linearGradient>
		<rect x="189.29" y="20.78" class="st4" width="57.79" height="75.35"/>
	</g>
	<rect x="100.28" y="2.43" class="st5" width="24.65" height="40.68"/>
	<rect x="251.38" y="2.43" class="st5" width="24.65" height="40.68"/>
</g>
</svg>
