<?xml version="1.0" encoding="utf-8"?>
<!-- Generator: Adobe Illustrator 16.0.3, SVG Export Plug-In . SVG Version: 6.00 Build 0)  -->
<!DOCTYPE svg PUBLIC "-//W3C//DTD SVG 1.1//EN" "http://www.w3.org/Graphics/SVG/1.1/DTD/svg11.dtd">
<svg version="1.1" id="Capa_1" xmlns="http://www.w3.org/2000/svg" xmlns:xlink="http://www.w3.org/1999/xlink" x="0px" y="0px"
	 width="150px" height="150px" viewBox="0 0 150 150" enable-background="new 0 0 150 150" xml:space="preserve">
<g transform="translate(-1)">
	<g transform="translate(2 1)">
		<path fill="#A3E598" d="M146.49,73.999c0,40.035-32.455,72.49-72.49,72.49c-1.25,0-2.5-0.025-3.725-0.1h-0.05
			c-38.502-2.024-68.683-33.834-68.683-72.39S31.723,3.633,70.226,1.608h0.05c1.225-0.075,2.475-0.1,3.725-0.1
			C114.035,1.508,146.49,33.963,146.49,73.999z"/>
		<path fill="#E5EFE4" d="M138.99,73.999c0.085,38.601-30.161,70.464-68.715,72.39h-0.05c-38.503-2.024-68.684-33.834-68.684-72.39
			S31.723,3.633,70.226,1.608h0.05C108.829,3.534,139.075,35.397,138.99,73.999z"/>
		<path fill="#E5EFE4" d="M22.657,76.426l-9.719,17.497c-0.882,1.589-2.556,2.573-4.372,2.572H5.084
			c-4.766-14.619-4.766-30.375,0-44.994h3.482c1.816,0,3.49,0.984,4.372,2.572l9.719,17.498
			C23.496,73.081,23.496,74.916,22.657,76.426z"/>
		<path fill="#A3E598" d="M146.49,73.999c0.01,7.641-1.197,15.235-3.574,22.497h-3.475c-1.327,0.009-2.6-0.523-3.525-1.475
			c4.1-13.715,4.1-28.33,0-42.044c0.926-0.951,2.198-1.484,3.525-1.475h3.475C145.293,58.763,146.5,66.357,146.49,73.999z"/>
		<g>
			<path fill="#E5EFE4" d="M138.99,73.999c0.005,7.12-1.031,14.202-3.074,21.022c-0.343-0.316-0.63-0.688-0.85-1.101l-9.724-17.497
				c-0.851-1.505-0.851-3.345,0-4.849l9.724-17.498c0.22-0.412,0.508-0.783,0.85-1.1C137.959,59.797,138.995,66.879,138.99,73.999z"
				/>
			<path fill="#E5EFE4" d="M85.028,96.495H62.971c-0.907,0-1.744-0.491-2.185-1.284L49.678,75.213c-0.42-0.755-0.42-1.674,0-2.429
				l11.108-19.998c0.441-0.793,1.277-1.285,2.185-1.285h22.057c0.907,0,1.743,0.492,2.185,1.285l11.108,19.998
				c0.42,0.755,0.42,1.674,0,2.429L87.213,95.211C86.771,96.004,85.936,96.495,85.028,96.495z"/>
			<path fill="#E5EFE4" d="M57.655,13.932l-9.721,17.498c-0.881,1.589-2.555,2.575-4.372,2.575H24.444
				c-1.813,0-3.485-0.983-4.367-2.567l-2-3.582c9.517-11.539,22.372-19.852,36.8-23.796l2.782,5.024
				C58.495,10.591,58.493,12.424,57.655,13.932z"/>
			<path fill="#E5EFE4" d="M57.66,138.914l-2.782,5.025c-14.427-3.946-27.279-12.258-36.795-23.797l2-3.582
				c0.881-1.583,2.55-2.564,4.362-2.567h19.117c1.816-0.001,3.49,0.984,4.372,2.572l9.721,17.497
				C58.494,135.57,58.496,137.404,57.66,138.914z"/>
			<path fill="#E5EFE4" d="M129.917,27.855l-1.999,3.582c-0.882,1.583-2.551,2.565-4.363,2.567h-19.117
				c-1.816,0.001-3.489-0.984-4.371-2.572l-9.722-17.497c-0.837-1.508-0.837-3.341,0-4.85l2.777-5.027
				C107.549,8.004,120.401,16.316,129.917,27.855z"/>
			<path fill="#E5EFE4" d="M129.917,120.143c-9.516,11.539-22.368,19.851-36.795,23.797l-2.782-5.025
				c-0.836-1.508-0.836-3.341,0-4.85l9.721-17.497c0.883-1.59,2.559-2.576,4.377-2.574h19.117c1.814,0,3.485,0.982,4.367,2.567
				L129.917,120.143z"/>
		</g>
		<path fill="#FFFFFF" d="M1.795,80.268c0.145,1.687,0.345,3.359,0.6,5.017c0.038,0.25,0.085,0.482,0.125,0.726
			c0.28,1.667,0.607,3.318,1,4.946c0.015,0.065,0.027,0.13,0.042,0.194c0.43,1.771,0.935,3.5,1.5,5.225
			c0.015,0.041,0.023,0.08,0.035,0.121c2.814,8.619,7.223,16.633,12.998,23.624v0.022c0.147,0.178,0.31,0.338,0.46,0.515
			c0.982,1.167,2,2.315,3.047,3.417c0.22,0.23,0.45,0.447,0.672,0.676c0.935,0.953,1.896,1.877,2.882,2.773
			c0.308,0.283,0.61,0.568,0.923,0.846c1.122,0.988,2.273,1.94,3.457,2.857c0.37,0.287,0.75,0.564,1.117,0.847
			c1.145,0.854,2.307,1.685,3.5,2.472c0.305,0.203,0.615,0.396,0.922,0.593c1.135,0.722,2.291,1.411,3.467,2.069
			c0.422,0.238,0.84,0.476,1.265,0.705c1.305,0.7,2.634,1.361,3.987,1.982c0.432,0.2,0.872,0.385,1.312,0.575
			c1.227,0.534,2.471,1.034,3.732,1.499c0.3,0.11,0.592,0.233,0.893,0.341c1.47,0.521,2.967,0.979,4.477,1.407
			c0.23,0.064,0.45,0.152,0.68,0.215v-0.022c5.008,1.372,10.149,2.2,15.335,2.472h0.05c1.225,0.075,2.475,0.1,3.725,0.1
			c1.174,0,2.333-0.062,3.5-0.117c-5.106-0.283-10.169-1.106-15.103-2.454v0.022c-0.23-0.063-0.45-0.15-0.68-0.215
			c-1.5-0.428-3-0.888-4.477-1.408c-0.3-0.107-0.592-0.229-0.893-0.34c-1.263-0.467-2.507-0.967-3.732-1.5
			c-0.44-0.189-0.88-0.375-1.312-0.574c-1.353-0.621-2.682-1.283-3.987-1.982c-0.425-0.23-0.842-0.468-1.265-0.705
			c-1.167-0.666-2.322-1.356-3.467-2.069c-0.308-0.198-0.617-0.39-0.922-0.593c-1.195-0.787-2.357-1.617-3.5-2.472
			c-0.375-0.282-0.75-0.56-1.117-0.848c-1.18-0.917-2.333-1.868-3.457-2.856c-0.313-0.277-0.615-0.563-0.923-0.846
			c-0.984-0.896-1.945-1.821-2.882-2.774c-0.222-0.228-0.453-0.444-0.672-0.675c-1.055-1.103-2.065-2.25-3.047-3.417
			c-0.15-0.178-0.313-0.337-0.46-0.515v-0.023c-5.781-6.988-10.195-15.003-13.014-23.624c0-0.04-0.02-0.079-0.035-0.12
			c-0.555-1.715-1.06-3.454-1.5-5.225c-0.015-0.064-0.027-0.13-0.042-0.195c-0.39-1.627-0.717-3.279-1-4.946
			c-0.041-0.249-0.088-0.482-0.125-0.725c-0.256-1.655-0.457-3.327-0.6-5.017c-0.03-0.346-0.053-0.688-0.078-1.033
			c-0.115-1.736-0.2-3.474-0.2-5.236s0.085-3.5,0.208-5.237c0.025-0.342,0.047-0.688,0.078-1.032c0.145-1.69,0.345-3.362,0.6-5.017
			c0.038-0.25,0.085-0.482,0.125-0.725c0.28-1.667,0.608-3.319,1-4.947c0.015-0.065,0.027-0.13,0.042-0.195
			c0.43-1.77,0.935-3.5,1.5-5.227c0.015-0.037,0.022-0.078,0.035-0.117c2.813-8.62,7.223-16.634,12.998-23.625v-0.022
			c0.147-0.178,0.313-0.34,0.46-0.515c0.982-1.167,2-2.314,3.047-3.417c0.22-0.23,0.453-0.45,0.675-0.677
			c0.935-0.954,1.896-1.878,2.882-2.775c0.308-0.28,0.607-0.567,0.92-0.842c1.122-0.988,2.273-1.941,3.455-2.857
			c0.37-0.287,0.75-0.567,1.122-0.847c1.143-0.855,2.305-1.685,3.5-2.472c0.305-0.203,0.615-0.395,0.922-0.592
			c1.135-0.723,2.291-1.413,3.467-2.07c0.42-0.238,0.84-0.478,1.267-0.705c1.305-0.7,2.633-1.361,3.984-1.982
			c0.433-0.2,0.873-0.385,1.313-0.575c1.229-0.535,2.475-1.042,3.75-1.5c0.292-0.11,0.58-0.23,0.875-0.335
			c1.472-0.522,2.972-0.982,4.487-1.41c0.23-0.065,0.45-0.153,0.68-0.215V4.09c4.933-1.351,9.994-2.177,15.101-2.464
			c-1.167-0.055-2.327-0.118-3.5-0.118c-1.25,0-2.5,0.025-3.725,0.1h-0.05C65.039,1.88,59.898,2.709,54.889,4.08V4.058
			c-0.23,0.063-0.45,0.15-0.68,0.215c-1.515,0.427-3.015,0.887-4.487,1.41c-0.295,0.105-0.583,0.225-0.875,0.335
			c-1.265,0.467-2.5,0.975-3.75,1.5c-0.44,0.19-0.88,0.375-1.313,0.575c-1.353,0.62-2.681,1.281-3.984,1.982
			c-0.427,0.228-0.847,0.468-1.267,0.705c-1.175,0.667-2.331,1.356-3.467,2.07c-0.308,0.197-0.617,0.39-0.922,0.592
			c-1.195,0.787-2.357,1.617-3.5,2.472c-0.377,0.28-0.75,0.56-1.122,0.847c-1.18,0.92-2.332,1.872-3.455,2.857
			c-0.313,0.275-0.612,0.563-0.92,0.842c-0.988,0.907-1.952,1.838-2.892,2.794c-0.222,0.228-0.455,0.447-0.675,0.678
			c-1.055,1.102-2.065,2.25-3.047,3.417c-0.147,0.175-0.313,0.337-0.46,0.515v0.022c-5.77,6.988-10.175,14.999-12.986,23.614
			c-0.013,0.041-0.02,0.08-0.035,0.118c-0.555,1.717-1.06,3.457-1.5,5.227c-0.015,0.065-0.027,0.13-0.042,0.195
			c-0.39,1.627-0.717,3.28-1,4.947c-0.04,0.25-0.087,0.482-0.125,0.725c-0.258,1.655-0.458,3.327-0.599,5.017
			c-0.03,0.345-0.053,0.69-0.078,1.032c-0.115,1.737-0.2,3.487-0.2,5.237c0,1.75,0.085,3.5,0.208,5.236
			C1.742,79.58,1.76,79.922,1.795,80.268z"/>
	</g>
	<g>
		<path fill="#54FF0D" d="M90.684,98.71l11.783-21.212h13.527c1.381,0,2.5-1.119,2.5-2.5c0-1.381-1.119-2.5-2.5-2.5h-13.527
			L90.684,51.287c-0.441-0.793-1.277-1.285-2.186-1.285H63.502c-0.908,0-1.744,0.492-2.185,1.285L49.534,72.499H36.006
			c-1.381,0-2.5,1.119-2.5,2.5s1.119,2.5,2.5,2.5h13.528L61.317,98.71c0.441,0.793,1.277,1.284,2.185,1.284h24.996
			C89.406,99.995,90.242,99.504,90.684,98.71z M87.028,94.996H64.971L53.863,74.999l11.108-19.998h22.057l11.108,19.998
			L87.028,94.996z"/>
		<path fill="#54FF0D" d="M147.197,51.502c-2.891-8.742-7.367-16.877-13.205-23.997c-0.087-0.13-0.187-0.25-0.298-0.36
			C119.469,9.959,98.32,0.012,76.01,0.012S32.552,9.959,18.326,27.145c-0.119,0.108-0.225,0.229-0.318,0.36
			C12.166,34.624,7.686,42.759,4.792,51.502c-0.015,0.035-0.023,0.075-0.038,0.11c-5.006,15.192-5.006,31.591,0,46.783
			c0.015,0.035,0.022,0.076,0.038,0.11c2.894,8.739,7.374,16.871,13.215,23.987c0.086,0.129,0.186,0.25,0.297,0.359
			c9.784,11.789,22.938,20.306,37.697,24.409c0.142,0.054,0.289,0.095,0.438,0.122c12.807,3.474,26.308,3.474,39.115,0
			c0.15-0.026,0.299-0.067,0.442-0.122c14.757-4.104,27.907-12.62,37.69-24.406c0.113-0.11,0.216-0.231,0.305-0.362
			c5.842-7.119,10.322-15.254,13.215-23.997c0.016-0.034,0.023-0.075,0.038-0.11c5.007-15.191,5.007-31.59,0-46.783
			C147.221,51.572,147.213,51.532,147.197,51.502z M145.99,74.999c0.001,6.773-0.984,13.509-2.928,19.998h-3.102l-11.108-19.998
			l11.108-19.998h3.102C145.005,61.489,145.991,68.226,145.99,74.999z M128.862,29.205l-1.84,3.3h-22.057L93.857,12.507l2.478-4.475
			C108.953,11.89,120.228,19.229,128.862,29.205z M55.666,8.03l2.477,4.477L47.034,32.504H24.977l-1.84-3.299
			C31.772,19.227,43.046,11.888,55.666,8.03z M6.01,74.999c-0.001-6.772,0.985-13.509,2.927-19.998h3.102l11.108,19.998
			L12.039,94.996H8.937C6.995,88.508,6.009,81.771,6.01,74.999z M23.137,120.792l1.84-3.3h22.057l11.108,19.998l-2.478,4.475
			C43.047,138.107,31.772,130.769,23.137,120.792z M60.657,143.273l2.532-4.574c0.418-0.754,0.418-1.67,0-2.424l-11.653-20.975
			l7.439-8.68c0.854-1.052,0.715-2.594-0.315-3.475c-1.03-0.881-2.575-0.781-3.482,0.226l-7.824,9.122H23.507
			c-0.907-0.002-1.743,0.489-2.185,1.281l-1.564,2.82c-3.778-5.094-6.845-10.679-9.116-16.6h2.867c0.907,0,1.744-0.492,2.185-1.285
			l12.498-22.497c0.42-0.755,0.42-1.674,0-2.43L15.693,51.287c-0.441-0.793-1.277-1.285-2.185-1.285h-2.867
			c2.271-5.921,5.338-11.506,9.116-16.6l1.57,2.82c0.441,0.791,1.274,1.281,2.18,1.282h23.847l7.821,9.126
			c0.908,1.007,2.452,1.107,3.482,0.226c1.03-0.882,1.17-2.423,0.315-3.475l-7.439-8.679l11.653-20.975
			c0.418-0.754,0.418-1.67,0-2.424l-2.532-4.574c10.101-2.287,20.585-2.287,30.686,0l-2.531,4.574c-0.419,0.754-0.419,1.67,0,2.424
			l11.652,20.975l-7.438,8.679c-0.854,1.052-0.715,2.594,0.315,3.475c1.029,0.881,2.574,0.781,3.481-0.226l7.827-9.126h23.846
			c0.907,0,1.743-0.49,2.186-1.282l1.569-2.82c3.776,5.094,6.842,10.679,9.111,16.6h-2.867c-0.907,0-1.744,0.492-2.185,1.285
			l-12.498,22.497c-0.42,0.755-0.42,1.674,0,2.43l12.498,22.497c0.441,0.793,1.277,1.285,2.185,1.285h2.867
			c-2.271,5.921-5.339,11.506-9.116,16.6l-1.57-2.82c-0.44-0.79-1.273-1.28-2.18-1.281h-23.846l-7.822-9.127
			c-0.907-1.007-2.452-1.107-3.482-0.226c-1.029,0.882-1.169,2.423-0.314,3.476l7.439,8.678L88.813,136.27
			c-0.418,0.755-0.418,1.672,0,2.426l2.533,4.574c-10.102,2.286-20.585,2.286-30.686,0L60.657,143.273z M96.334,141.967
			l-2.477-4.477l11.108-19.998h22.057l1.84,3.3C120.228,130.77,108.953,138.109,96.334,141.967z"/>
	</g>
</g>
</svg>
