<?xml version="1.0" encoding="utf-8"?>
<!-- Generator: Adobe Illustrator 16.0.3, SVG Export Plug-In . SVG Version: 6.00 Build 0)  -->
<!DOCTYPE svg PUBLIC "-//W3C//DTD SVG 1.1//EN" "http://www.w3.org/Graphics/SVG/1.1/DTD/svg11.dtd">
<svg version="1.1" id="Capa_1" xmlns="http://www.w3.org/2000/svg" xmlns:xlink="http://www.w3.org/1999/xlink" x="0px" y="0px"
	 width="150px" height="150px" viewBox="0 0 150 150" enable-background="new 0 0 150 150" xml:space="preserve">
<g>
	<g transform="translate(1 1)">
		<path fill="#A3E598" d="M131.828,45.893v15.085c0,0-2.137,6.437-20.34,5.406h-0.102c-1.458-0.075-3.018-0.201-4.701-0.377H41.314
			c-4.061,0.504-8.16,0.631-12.244,0.377c-0.051,0.025-0.076,0.025-0.101,0c-11.289-0.855-12.797-5.406-12.797-5.406V45.893
			c0-20.114,12.571-25.143,12.571-25.143h90.513C119.257,20.75,131.828,25.779,131.828,45.893z"/>
		<path fill="#E5EFE4" d="M124.285,45.893v15.085c0,0-1.508,4.551-12.797,5.406h-0.102c-4.084,0.254-8.184,0.127-12.244-0.377
			H33.772c-1.685,0.176-3.244,0.302-4.702,0.377c-0.051,0.025-0.076,0.025-0.101,0c-11.289-0.855-12.797-5.406-12.797-5.406V45.893
			c0-20.114,12.571-25.143,12.571-25.143h82.971C111.714,20.75,124.285,25.779,124.285,45.893z"/>
		<path fill="#A3E598" d="M108.244,137.311c0.541,2.545-0.956,5.078-3.444,5.834c-4.827,1.458-14.181,3.268-30.8,3.268
			c-1.308,0-2.564,0-3.771-0.05c-9.112,0.14-18.203-0.943-27.028-3.218c-2.488-0.756-3.985-3.29-3.444-5.834
			c2.914-15.227,4.279-30.71,4.073-46.211c0-32.686-15.085-70.4-15.085-70.4c9.341-3.221,17.905-8.359,25.142-15.085h40.228
			c7.238,6.726,15.802,11.865,25.143,15.085c0,0-15.086,37.714-15.086,70.4C103.965,106.602,105.33,122.084,108.244,137.311z"/>
		<g>
			<path fill="#E5EFE4" d="M100.701,137.311c0.541,2.545-0.956,5.078-3.444,5.834c-8.825,2.275-17.915,3.357-27.028,3.219
				c-9.112,0.139-18.203-0.943-27.028-3.219c-2.488-0.756-3.985-3.289-3.444-5.834c2.914-15.227,4.279-30.709,4.073-46.211
				c0-32.686-15.085-70.399-15.085-70.399c9.341-3.221,17.905-8.359,25.142-15.086H86.57c7.238,6.727,15.803,11.865,25.143,15.086
				c0,0-15.085,37.714-15.085,70.399C96.422,106.602,97.787,122.084,100.701,137.311z"/>
			<path fill="#E5EFE4" d="M53.886,13.157v132.175l12.571,1.006V23.214c0-1.028-0.627-1.952-1.582-2.333l-7.542-10.057
				c-0.774-0.309-1.652-0.215-2.342,0.253C54.3,11.544,53.886,12.323,53.886,13.157z"/>
			<path fill="#E5EFE4" d="M81.543,26.231v120.106l12.57-1.006V15.671c0-0.834-0.414-1.613-1.104-2.081
				c-0.69-0.467-1.567-0.562-2.343-0.252l-7.542,10.56C82.17,24.279,81.543,25.203,81.543,26.231z"/>
			<path fill="#E3E7F2" d="M74,28.243C89.086,23.214,94.114,5.614,94.114,5.614L90.689,2.19c-0.87-0.854-2.229-0.96-3.221-0.251
				C83.372,4.306,78.731,5.572,74,5.614C69.268,5.569,64.627,4.3,60.531,1.928c-0.992-0.708-2.35-0.602-3.221,0.251l-3.424,3.435
				C53.886,5.614,58.915,23.214,74,28.243z"/>
		</g>
		<g>
			<polygon fill="#FFFFFF" points="84.057,35.786 84.057,48.356 91.6,53.385 99.143,48.356 99.143,33.271 84.057,33.271 			"/>
			<path fill="#FFFFFF" d="M51.372,91.1c-0.084-8.418-0.892-16.813-2.411-25.093h-0.103c-2.75,0.305-5.177,0.453-7.362,0.503
				c1.469,8.116,2.25,16.342,2.333,24.59c0.206,15.502-1.159,30.984-4.073,46.211c-0.54,2.544,0.956,5.078,3.445,5.834
				c3.5,0.99,7.073,1.702,10.686,2.127v0.061l1.473,0.117c2.603,0.303,5.562,0.551,8.946,0.715l2.152,0.174v-0.086
				c1.225,0.045,2.446,0.09,3.771,0.11c1.207,0.05,2.464,0.05,3.771,0.05c1.458,0,2.845-0.018,4.189-0.045c-0.137,0-0.285,0-0.418,0
				c-1.324-0.02-2.547-0.064-3.771-0.11v0.085l-2.152-0.173c-3.384-0.163-6.344-0.413-8.946-0.714l-1.474-0.123v-0.061
				c-3.612-0.425-7.186-1.136-10.686-2.127c-2.488-0.756-3.985-3.289-3.444-5.834C50.213,122.084,51.578,106.602,51.372,91.1z"/>
			<path fill="#FFFFFF" d="M28.969,66.384c0.025,0.025,0.05,0.025,0.101,0c2.536,0.171,5.082,0.171,7.618,0h-0.076
				c-0.05,0.025-0.076,0.025-0.101,0c-11.289-0.855-12.798-5.406-12.798-5.406V45.893c0-20.114,12.571-25.143,12.571-25.143h0.02
				l-0.02-0.05c9.341-3.221,17.905-8.359,25.143-15.085l2.079-2.079c-1.046-0.43-2.044-0.968-2.977-1.607
				C59.538,1.22,58.18,1.326,57.31,2.18l-3.424,3.435C46.648,12.34,38.084,17.479,28.743,20.7l0.02,0.05h-0.02
				c0,0-12.571,5.029-12.571,25.143v15.085C16.172,60.978,17.681,65.529,28.969,66.384z"/>
			<path fill="#FFFFFF" d="M81.543,5.614c3.592-0.078,7.143-0.781,10.492-2.079L90.689,2.19c-0.87-0.854-2.229-0.96-3.221-0.251
				c-2.939,1.834-6.254,2.985-9.697,3.367C79.021,5.487,80.28,5.59,81.543,5.614z"/>
		</g>
	</g>
	<g>
		<path fill="#FFFFFF" d="M38.292,137.844c2.053-10.568,3.29-21.277,3.701-32.034c0.209-4.548,0.305-9.104,0.314-13.66h5.028
			c0,4.628-0.105,9.263-0.319,13.892c-0.422,11.027-1.694,22.004-3.804,32.836L38.292,137.844z"/>
		<g>
			<path fill="#54FF0D" d="M42.463,120.668c0.135,0.088,0.283,0.154,0.438,0.197c0.165,0.044,0.333,0.078,0.503,0.103
				c0.664,0.061,1.326-0.134,1.851-0.546c1.049-0.912,1.197-2.488,0.337-3.58c-0.218-0.248-0.483-0.451-0.779-0.598
				c-0.291-0.155-0.608-0.251-0.936-0.282c-0.663-0.046-1.319,0.158-1.84,0.571c-1.042,0.891-1.189,2.447-0.334,3.52l0.345,0.337
				C42.172,120.5,42.313,120.594,42.463,120.668z"/>
			<path fill="#54FF0D" d="M33.751,70.037c1.974,0,4.153-0.096,6.555-0.305c1.269,7.407,1.94,14.903,2.009,22.417
				c0,4.556-0.105,9.112-0.314,13.66l-0.119,2.489c-0.076,1.389,0.987,2.576,2.376,2.652s2.576-0.987,2.653-2.376l0.121-2.534
				c0.206-4.639,0.312-9.26,0.312-13.892c0-28.411-10.982-59.945-14.332-68.891c7.55-2.927,14.573-7.064,20.793-12.25
				c2.431,5.763,8.463,16.697,20.398,20.674c0.507,0.171,1.056,0.171,1.563,0c11.936-3.977,17.968-14.912,20.398-20.674
				c6.229,5.186,13.263,9.321,20.823,12.244c-3.347,8.951-14.332,40.495-14.332,68.891c-0.208,15.675,1.174,31.331,4.123,46.727
				c0.28,1.271-0.466,2.541-1.711,2.914c-2.441,0.713-4.928,1.264-7.44,1.65V64.442c0-1.389-1.126-2.514-2.515-2.514
				c-1.388,0-2.514,1.125-2.514,2.514v79.664c-2.234,0.251-4.746,0.445-7.543,0.591V59.414c0-1.389-1.125-2.514-2.514-2.514
				s-2.514,1.126-2.514,2.514v85.485c-1.6,0.041-3.27,0.063-5.029,0.063c-1.76,0-3.43-0.021-5.029-0.063V59.414
				c0-1.389-1.125-2.514-2.514-2.514c-1.388,0-2.514,1.126-2.514,2.514v85.284c-2.795-0.146-5.308-0.35-7.542-0.59V64.442
				c0-1.389-1.126-2.514-2.514-2.514c-1.389,0-2.514,1.125-2.514,2.514v78.993c-2.513-0.385-4.999-0.934-7.439-1.645
				c-1.246-0.373-1.992-1.645-1.712-2.914c0.699-3.354,1.257-6.708,1.74-10.057c0.094-0.664-0.08-1.337-0.484-1.871
				c-0.404-0.535-1.004-0.886-1.668-0.975c-1.366-0.174-2.62,0.775-2.826,2.137c-0.463,3.268-1.006,6.537-1.682,9.745
				c-0.833,3.827,1.429,7.649,5.184,8.762c7.798,2.061,15.821,3.146,23.886,3.231c0.027,0,0.05,0.015,0.078,0.015
				c0.027,0,0.035,0,0.053,0c2.328,0.085,4.807,0.136,7.49,0.136c2.683,0,5.162-0.051,7.49-0.136c0.018,0,0.033,0,0.053,0
				s0.051-0.015,0.078-0.015c8.064-0.086,16.088-1.17,23.886-3.231c3.772-1.101,6.05-4.935,5.212-8.774
				c-2.881-15.057-4.229-30.366-4.022-45.694c0.069-7.515,0.742-15.011,2.011-22.417c2.402,0.209,4.582,0.304,6.555,0.304
				c15.635,0,18.514-5.906,18.963-7.264c0.086-0.256,0.129-0.524,0.129-0.794V46.893c0-21.57-13.578-27.245-14.153-27.479
				c-0.025,0-0.05,0-0.073,0c-0.022,0-0.039-0.03-0.064-0.038c-8.961-3.114-17.185-8.041-24.157-14.473L93.47,1.462
				c-1.729-1.719-4.442-1.95-6.437-0.548C83.36,2.992,79.221,4.105,75,4.15c-4.22-0.044-8.359-1.157-12.033-3.233
				c-1.994-1.401-4.705-1.171-6.434,0.545l-3.424,3.425c-6.966,6.444-15.192,11.374-24.16,14.477c-0.025,0-0.041,0.03-0.065,0.038
				c-0.024-0.001-0.048-0.001-0.073,0c-0.576,0.247-14.153,5.921-14.153,27.491v15.086c0,0.27,0.044,0.538,0.13,0.794
				C15.238,64.13,18.115,70.037,33.751,70.037z M130.314,46.893v14.415c-0.822,1.036-4.844,4.671-19.74,3.449
				c2.633-13.369,6.302-26.513,10.975-39.313C124.782,27.837,130.314,33.836,130.314,46.893z M60.093,5.043
				C64.611,7.71,69.753,9.137,75,9.179C80.252,9.136,85.397,7.7,89.912,5.018l2.32,2.321C90.782,11.266,85.762,22.547,75,26.598
				C64.292,22.563,59.241,11.281,57.772,7.343L60.093,5.043z M19.686,46.893c0-13.057,5.532-19.056,8.765-21.452
				c4.673,12.8,8.342,25.944,10.975,39.313c-15.126,1.234-19.041-2.514-19.74-3.397V46.893z"/>
			<path fill="#54FF0D" d="M50.594,19.973c-2.769,1.949-5.833,3.441-9.074,4.42c-1.319,0.439-2.033,1.864-1.594,3.183
				s1.864,2.033,3.183,1.594c0.83-0.276,8.188-2.786,11.04-5.637c0.654-0.631,0.916-1.566,0.686-2.445
				c-0.23-0.879-0.917-1.565-1.795-1.796c-0.879-0.23-1.814,0.032-2.445,0.686V19.973L50.594,19.973z"/>
			<path fill="#54FF0D" d="M107.686,29.295c1.236,0.005,2.293-0.891,2.491-2.112c0.198-1.221-0.522-2.404-1.696-2.791
				c-3.242-0.979-6.306-2.471-9.074-4.42c-0.631-0.654-1.566-0.916-2.445-0.686c-0.879,0.23-1.566,0.917-1.796,1.795
				c-0.23,0.879,0.032,1.814,0.686,2.445c2.851,2.851,10.21,5.36,11.04,5.637C107.146,29.25,107.415,29.295,107.686,29.295z"/>
			<path fill="#54FF0D" d="M51.248,39.614c-0.597,0.298-1.051,0.821-1.262,1.454c-0.211,0.633-0.162,1.324,0.136,1.92l2.514,5.029
				c0.401,0.804,1.201,1.333,2.098,1.387s1.755-0.374,2.25-1.124c0.495-0.75,0.553-1.707,0.152-2.511l-2.514-5.028
				c-0.298-0.597-0.821-1.051-1.454-1.263C52.536,39.267,51.844,39.315,51.248,39.614z"/>
			<path fill="#54FF0D" d="M62.429,49.407c0.871-0.001,1.68-0.452,2.138-1.193c0.458-0.741,0.5-1.667,0.11-2.446l-5.029-10.057
				c-0.621-1.243-2.131-1.747-3.374-1.126c-1.243,0.621-1.747,2.131-1.126,3.374l5.029,10.057
				C60.603,48.87,61.475,49.408,62.429,49.407z"/>
			<path fill="#54FF0D" d="M82.543,36.836V48.06c-0.001,1.682,0.84,3.253,2.24,4.186l5.028,3.351c1.687,1.13,3.89,1.13,5.577,0
				l5.028-3.351c1.399-0.933,2.241-2.504,2.24-4.186V36.836c0-2.777-2.251-5.029-5.028-5.029H87.572
				C84.794,31.807,82.543,34.058,82.543,36.836z M97.629,48.062L92.6,51.413l-5.028-3.354V36.836h10.058V48.062L97.629,48.062z"/>
			<path fill="#54FF0D" d="M45.002,47.848c0.075,0.155,0.159,0.307,0.251,0.453c0.093,0.131,0.194,0.257,0.301,0.377
				c0.992,0.973,2.579,0.973,3.57,0c0.108-0.12,0.208-0.246,0.302-0.377c0.094-0.141,0.17-0.292,0.226-0.453
				c0.077-0.149,0.127-0.311,0.148-0.478c0.032-0.157,0.051-0.317,0.056-0.478c0.006-1.021-0.607-1.945-1.55-2.337
				c-0.943-0.392-2.03-0.174-2.75,0.552c-0.469,0.476-0.731,1.117-0.729,1.785c-0.008,0.161,0.009,0.322,0.05,0.478
				C44.907,47.533,44.948,47.693,45.002,47.848z"/>
		</g>
	</g>
</g>
</svg>
