<?xml version="1.0" encoding="utf-8"?>
<!-- Generator: Adobe Illustrator 16.0.3, SVG Export Plug-In . SVG Version: 6.00 Build 0)  -->
<!DOCTYPE svg PUBLIC "-//W3C//DTD SVG 1.1//EN" "http://www.w3.org/Graphics/SVG/1.1/DTD/svg11.dtd">
<svg version="1.1" id="Capa_1" xmlns="http://www.w3.org/2000/svg" xmlns:xlink="http://www.w3.org/1999/xlink" x="0px" y="0px"
	 width="150px" height="150px" viewBox="0 0 150 150" enable-background="new 0 0 150 150" xml:space="preserve">
<g transform="translate(-1)">
	<g transform="translate(1)">
		<path fill="#A3E598" d="M119.794,129.225v12.226c0,2.761-2.238,5-5,5h-51.75c-1.381,0-2.5-1.12-2.5-2.5v-17.226
			c0-1.381,1.12-2.5,2.5-2.5h51.75C117.555,124.225,119.794,126.463,119.794,129.225z"/>
		<g>
			<path fill="#E5EFE4" d="M112.294,129.225v12.226c-0.009,2.758-2.242,4.991-5,5h-44.25c-1.381,0-2.5-1.12-2.5-2.5v-17.226
				c0-1.381,1.12-2.5,2.5-2.5h44.25C110.052,124.232,112.285,126.467,112.294,129.225z"/>
			<path fill="#E5EFE4" d="M114.866,124.225V110.25l27.083-27.08c3.857-3.859,3.857-10.115-0.002-13.974
				c-3.858-3.858-10.115-3.858-13.973,0.001l-8.893,8.896c-0.707,0.706-1.77,0.916-2.692,0.533
				c-0.923-0.384-1.524-1.284-1.522-2.283V20.54c-0.003-2.058-0.86-4.022-2.367-5.422c-1.507-1.401-3.528-2.113-5.58-1.965
				c-3.971,0.423-6.957,3.814-6.876,7.805v-10c0.05-2.678-1.351-5.175-3.663-6.528s-5.174-1.354-7.486,0
				c-2.312,1.354-3.712,3.85-3.663,6.528v9.583c0.05-2.678-1.351-5.175-3.663-6.528s-5.174-1.354-7.486,0s-3.712,3.85-3.664,6.528
				v17.28c0-2.047-0.84,7.862-2.172,6.53c-1.519-1.525-3.628-2.313-5.775-2.155c-3.962,0.433-6.937,3.82-6.855,7.805v36.192
				c0.001,3.938,0.591,7.854,1.75,11.617l8.125,26.415H114.866L114.866,124.225z"/>
		</g>
		<path fill="#802D40" d="M82.779,124.232l-17.288-0.015L57.356,97.82c-1.16-3.764-1.745-7.682-1.732-11.62v-6.357
			c5.543-0.046,10.967,1.612,15.538,4.75C84.776,93.965,82.709,109.734,82.779,124.232z"/>
		<path fill="#A3E598" d="M97.919,129.65L92.52,131.6l-43.25,15.75c-1.298,0.469-2.73-0.202-3.2-1.5l-5.875-16.175
			c-0.363-0.978-0.073-2.078,0.725-2.75c0.215-0.202,0.471-0.354,0.75-0.45l48.649-17.699c1.244-0.457,2.617-0.398,3.818,0.16
			c1.2,0.558,2.129,1.57,2.582,2.814l4.176,11.475C101.837,125.82,100.508,128.69,97.919,129.65z"/>
		<g>
			<path fill="#E5EFE4" d="M92.52,131.6l-43.25,15.75c-1.298,0.469-2.73-0.202-3.2-1.5l-5.875-16.175
				c-0.363-0.978-0.073-2.078,0.725-2.75l42.976-15.649c2.595-0.943,5.465,0.385,6.424,2.975l4.176,11.5
				C95.301,127.922,94.477,130.361,92.52,131.6z"/>
			<path fill="#E5EFE4" d="M90.369,108.75l-4.78-13.13l16.185-34.712c1.543-3.207,1.242-6.995-0.787-9.917
				c-2.029-2.922-5.474-4.529-9.017-4.204c-3.544,0.324-6.639,2.529-8.104,5.771l-5.322,11.395
				c-0.423,0.904-1.349,1.464-2.345,1.421c-0.998-0.044-1.871-0.684-2.212-1.621l-19.083-52.44
				c-0.706-1.934-2.185-3.487-4.081-4.288c-1.896-0.801-4.041-0.777-5.919,0.065c-3.578,1.759-5.219,5.961-3.78,9.68l12.528,34.405
				L40.986,16.377l-3.277-9c-0.875-2.526-3.043-4.385-5.673-4.863s-5.314,0.499-7.021,2.556c-1.708,2.057-2.174,4.875-1.22,7.373
				l3.275,9L39.731,56.25L27.066,21.445c-0.865-2.537-3.034-4.409-5.67-4.893c-2.636-0.485-5.329,0.493-7.04,2.557
				C12.646,21.172,12.184,24,13.149,26.5l5.91,16.25l9.288,25.518L19.059,42.75c-0.707-1.934-2.185-3.486-4.082-4.287
				c-1.896-0.801-4.04-0.778-5.918,0.064c-3.58,1.757-5.223,5.96-3.782,9.68L21.684,93.27c1.346,3.699,3.237,7.178,5.61,10.318
				l16.673,22.045L90.369,108.75z"/>
			<path fill="#E5EFE4" d="M60.219,119.725l-16.25,5.9L27.294,103.6c-2.376-3.139-4.265-6.62-5.6-10.324L19.519,87.3
				c5.193-1.939,10.857-2.235,16.225-0.851C51.744,90.6,55.194,106.125,60.219,119.725z"/>
		</g>
		<g>
			<path fill="#A3E598" d="M74.394,64.45l-0.85,1.85c-0.427,0.897-1.349,1.452-2.341,1.408c-0.992-0.043-1.862-0.677-2.209-1.608
				l-19.1-52.45c-0.665-1.848-2.042-3.352-3.825-4.175C44.986,8.962,43.791,8.73,42.594,8.8c0.637-0.735,1.432-1.315,2.325-1.7
				c1.872-0.85,4.012-0.88,5.907-0.082c1.894,0.797,3.369,2.35,4.068,4.282l19.1,52.45C74.082,64.007,74.217,64.244,74.394,64.45z"
				/>
			<path fill="#A3E598" d="M101.77,60.9L85.594,95.625l4.775,13.125l-5.176,1.875l-4.6-12.675l16.176-34.7
				c2.29-4.951,0.158-10.822-4.775-13.15c-1.761-0.826-3.729-1.105-5.65-0.8c3.513-3.061,8.688-3.248,12.411-0.447
				S103.734,56.676,101.77,60.9z"/>
			<path fill="#A3E598" d="M114.895,76.475l-1.626,1.625c-0.708,0.705-1.771,0.916-2.695,0.533s-1.526-1.283-1.529-2.283v-55.8
				c0.001-2.95-1.746-5.62-4.45-6.8c0.729-0.351,1.519-0.555,2.325-0.6c2.055-0.148,4.079,0.564,5.587,1.968
				c1.508,1.403,2.364,3.372,2.363,5.432v55.8C114.862,76.394,114.871,76.438,114.895,76.475z"/>
			<path fill="#A3E598" d="M144.844,76.176c-0.005,2.623-1.047,5.141-2.9,6.999l-27.074,27.075v13.975h-5.825V110.25l27.075-27.075
				c1.852-1.859,2.895-4.376,2.9-6.999c-0.002-2.619-1.045-5.128-2.9-6.976c-1.14-1.141-2.537-1.99-4.075-2.475
				c2.999-0.915,6.254-0.355,8.776,1.507C143.342,70.094,144.834,73.04,144.844,76.176z"/>
		</g>
	</g>
	<path fill="#FFFFFF" d="M22.684,93.27c0.25,0.681,0.533,1.343,0.817,2c1.25,2.963,2.859,5.762,4.792,8.33l13.455,17.773l3.222,4.25
		l5.88-2.141l-1.603-2.119L35.793,103.6c-1.933-2.566-3.542-5.361-4.792-8.322c-0.285-0.664-0.57-1.327-0.817-2l-16.39-45.07
		c-1.296-3.426-0.017-7.292,3.067-9.268c-0.201-0.132-0.409-0.254-0.623-0.365c-1.949-0.914-4.2-0.931-6.163-0.047
		c-3.581,1.758-5.223,5.961-3.783,9.68L22.684,93.27z"/>
	<g>
		<polygon fill="#FFFFFF" points="8.631,47.353 19.747,77.893 25.034,92.415 20.334,94.125 15.049,79.603 3.934,49.063 		"/>
		<g>
			<path fill="#54FF0D" d="M3.934,49.063l3.42,9.397c0.524,1.218,1.907,1.815,3.153,1.361s1.92-1.802,1.537-3.071l-3.413-9.397
				c-0.978-2.488,0.082-5.313,2.455-6.545c1.244-0.555,2.662-0.57,3.917-0.041c1.255,0.529,2.235,1.555,2.706,2.833l9.287,25.522
				c0.293,0.856,1.025,1.487,1.916,1.65s1.799-0.168,2.375-0.865c0.577-0.697,0.732-1.651,0.407-2.495l-9.285-25.518l-5.913-16.24
				c-0.922-2.546,0.389-5.358,2.933-6.287c2.546-0.92,5.356,0.389,6.29,2.93l12.665,34.797c0.108,0.286,0.269,0.548,0.473,0.775
				c0.06,0.067,0.127,0.12,0.192,0.183c0.151,0.141,0.319,0.263,0.5,0.362c0.08,0.047,0.164,0.089,0.25,0.125
				c0.2,0.08,0.409,0.132,0.623,0.157c0.08,0,0.153,0.033,0.233,0.035c0.022,0,0.045,0,0.07,0c0.291,0,0.58-0.051,0.853-0.153
				c0.624-0.226,1.132-0.69,1.414-1.291s0.313-1.289,0.086-1.912l-15.938-43.79c-0.922-2.546,0.389-5.358,2.933-6.288
				c1.222-0.45,2.573-0.39,3.75,0.167c1.177,0.551,2.09,1.543,2.54,2.763l15.933,43.8c0.408,1.116,1.544,1.791,2.72,1.615
				c1.175-0.176,2.063-1.156,2.125-2.342c0.018-0.334-0.034-0.669-0.15-0.982l-2.75-7.54l-9.76-26.865
				c-0.978-2.486,0.08-5.31,2.45-6.542c1.245-0.557,2.665-0.572,3.921-0.042c1.256,0.53,2.236,1.557,2.706,2.837l19.088,52.44
				c0.683,1.891,2.441,3.181,4.449,3.265c2.02,0.121,3.9-1.024,4.721-2.873l5.314-11.395c1.016-2.216,3.064-3.784,5.47-4.185
				c2.404-0.4,4.851,0.417,6.53,2.184c2.121,2.191,2.671,5.463,1.383,8.228L84.322,94.557c-0.031,0.096-0.055,0.193-0.07,0.293
				c-0.082,0.208-0.136,0.428-0.158,0.65c-0.016,0.333,0.035,0.666,0.15,0.979l3.92,10.771l-25.442,9.25
				c-0.305-0.86-0.618-1.715-0.92-2.58c-4.25-12.152-9.058-25.923-24.438-29.91c-5.035-1.287-10.319-1.23-15.325,0.165l-3.147-8.633
				c-0.497-1.26-1.907-1.896-3.18-1.433s-1.946,1.856-1.518,3.141l6.14,16.875c1.429,3.934,3.438,7.632,5.96,10.973l14.688,19.416
				c-2.065,1.225-2.968,3.743-2.153,6l5.885,16.178c0.451,1.249,1.38,2.267,2.583,2.83c1.203,0.563,2.58,0.624,3.827,0.17
				l7.552-2.75c0.783,1.856,2.603,3.063,4.618,3.058h52.625c4.143,0,7.5-3.357,7.5-7.5v-12.55c-0.012-3.21-2.075-6.053-5.125-7.058
				v-11.687l26.88-26.15c4.8-4.91,4.754-12.768-0.102-17.623s-12.715-4.898-17.623-0.097l-9.029,9.04v-56.65
				c-0.002-2.782-1.16-5.438-3.201-7.331c-2.039-1.892-4.775-2.849-7.549-2.64c-1.52,0.118-2.988,0.601-4.281,1.408v-1.138
				C103.389,4.488,98.9,0,93.363,0c-5.535,0-10.024,4.488-10.024,10.025v1.088c-1.514-0.899-3.239-1.378-5-1.388
				c-5.527,0-10.011,4.473-10.025,10v18.38l-10.06-27.65c-0.945-2.584-2.92-4.66-5.455-5.73S47.4,3.684,44.889,4.807
				c-1.355,0.62-2.543,1.553-3.465,2.723l-0.367-1c-0.902-2.467-2.742-4.477-5.12-5.592c-3.63-1.698-7.927-1.041-10.883,1.666
				c-2.956,2.706-3.989,6.928-2.617,10.694l0.357,0.953c-1.697-0.313-3.446-0.17-5.07,0.413c-5.143,1.872-7.797,7.557-5.93,12.703
				l3,8.2c-1.941-0.355-3.945-0.118-5.75,0.68C4.257,38.53,2.032,44.111,3.934,49.063z M25.044,92.415l-1.278-3.5
				c4.046-1.066,8.298-1.084,12.353-0.05c12.795,3.319,16.768,14.685,20.973,26.719c0.31,0.889,0.627,1.75,0.94,2.643l-12.17,4.431
				l-15.567-20.575C28.072,99.139,26.303,95.881,25.044,92.415z M49.424,145l-5.88-16.186l2.218-0.807l46.41-16.893
				c0.273-0.1,0.562-0.15,0.852-0.15c1.053-0.002,1.994,0.656,2.354,1.645l4.167,11.48c0.228,0.624,0.196,1.313-0.085,1.914
				s-0.791,1.065-1.415,1.291L49.424,145z M118.424,142.5c0,1.381-1.119,2.5-2.5,2.5H64.029l20.675-7.525h23.715v2.5
				c0,1.381,1.12,2.5,2.5,2.5s2.5-1.119,2.5-2.5v-2.5c-0.01-2.767-2.258-5.004-5.024-5h-9.953l1.322-0.479
				c2.092-0.771,3.729-2.437,4.46-4.542h11.695c1.38,0,2.499,1.119,2.499,2.5L118.424,142.5z M108.044,14.75
				c1.386-0.104,2.752,0.373,3.771,1.317c1.02,0.943,1.601,2.269,1.604,3.658v56.65c-0.005,2.027,1.214,3.857,3.087,4.633
				c1.873,0.776,4.029,0.345,5.459-1.093l9.018-9.04c2.959-2.794,7.602-2.732,10.486,0.139c2.883,2.872,2.965,7.515,0.184,10.486
				l-27.608,26.857v0.016c-0.249,0.25-0.442,0.552-0.567,0.882c-0.111,0.28-0.17,0.577-0.175,0.878v0.018v12.3h-9.038
				c0-0.022,0-0.048-0.018-0.07l-4.18-11.482c-1.09-2.946-3.9-4.901-7.043-4.897l-3.732-10.25l15.75-33.785
				c2.025-4.286,1.381-9.357-1.652-13V20.15C103.32,17.42,105.334,15.084,108.044,14.75z M88.344,10.025
				C88.344,7.25,90.594,5,93.369,5s5.025,2.25,5.025,5.025v35.25c-3.258-1.3-6.915-1.146-10.051,0.425V10.025z M73.319,19.725
				c0.004-2.026,1.228-3.85,3.1-4.622c1.872-0.773,4.026-0.343,5.458,1.089c0.941,0.934,1.471,2.206,1.467,3.533V50.25
				c-0.275,0.4-0.525,0.818-0.75,1.25l-5.25,11.405l-4.025-11.06V19.725L73.319,19.725z"/>
			<path fill="#54FF0D" d="M15.472,66.145c-0.236-0.618-0.695-1.124-1.288-1.417l-0.455-0.155c-0.163-0.042-0.332-0.061-0.5-0.058
				c-0.158-0.024-0.318-0.024-0.475,0c-0.165,0.031-0.328,0.073-0.487,0.125c-0.618,0.235-1.125,0.695-1.417,1.288
				c-0.55,1.258-0.017,2.726,1.212,3.338c0.302,0.129,0.626,0.201,0.955,0.21c0.326,0.019,0.652-0.028,0.96-0.138
				c0.628-0.22,1.141-0.684,1.423-1.287s0.31-1.294,0.077-1.917L15.472,66.145z"/>
			<path fill="#54FF0D" d="M93.294,121.178c-0.944-2.573-3.789-3.9-6.367-2.971l-4.458,1.623c-0.04,0.015-0.08,0.027-0.119,0.045
				l-30.221,11c-0.856,0.293-1.487,1.025-1.65,1.916c-0.163,0.89,0.168,1.798,0.865,2.375c0.696,0.577,1.651,0.732,2.495,0.406
				L84.204,124.5c0.071-0.021,0.142-0.048,0.21-0.078l4.188-1.527l0.845,2.32c0.307,0.839,1.037,1.451,1.917,1.605
				s1.775-0.172,2.349-0.857s0.738-1.623,0.433-2.463L93.294,121.178z"/>
		</g>
	</g>
</g>
</svg>
