<?xml version="1.0" encoding="utf-8"?>
<!-- Generator: Adobe Illustrator 16.0.3, SVG Export Plug-In . SVG Version: 6.00 Build 0)  -->
<!DOCTYPE svg PUBLIC "-//W3C//DTD SVG 1.1//EN" "http://www.w3.org/Graphics/SVG/1.1/DTD/svg11.dtd">
<svg version="1.1" id="Capa_1" xmlns="http://www.w3.org/2000/svg" xmlns:xlink="http://www.w3.org/1999/xlink" x="0px" y="0px"
	 width="150px" height="150px" viewBox="0 0 150 150" enable-background="new 0 0 150 150" xml:space="preserve">
<g>
	<g transform="translate(1 1)">
		<path fill="#E5EFE4" d="M106.688,66.017c22.632,2.514,25.146-5.03,25.146-5.03V45.899c0-20.117-12.574-25.146-12.574-25.146
			c-9.342-3.221-17.907-8.36-25.146-15.088c0,0-2.514,15.088-20.117,15.088S53.879,5.665,53.879,5.665
			c-7.238,6.728-15.804,11.867-25.146,15.088c0,0-12.573,5.029-12.573,25.146v15.088c0,0,2.515,7.544,25.146,5.03H106.688z"/>
		<path fill="#A3E598" d="M108.246,137.383c0.541,2.543-0.956,5.078-3.445,5.834c-4.828,1.458-14.183,3.269-30.804,3.269
			c-1.308,0-2.565,0-3.772-0.051c-9.114,0.14-18.206-0.943-27.033-3.219c-2.489-0.755-3.985-3.29-3.445-5.834
			c2.915-15.229,4.279-30.715,4.074-46.22c0-32.69-15.088-70.41-15.088-70.41c9.343-3.221,17.908-8.361,25.146-15.088h40.234
			c7.238,6.728,15.805,11.867,25.146,15.088c0,0-15.088,37.72-15.088,70.41C103.967,106.667,105.332,122.152,108.246,137.383z"/>
		<path fill="#E5EFE4" d="M100.702,137.383c0.54,2.543-0.956,5.078-3.445,5.834c-8.827,2.275-17.919,3.357-27.032,3.219
			c-9.114,0.139-18.206-0.943-27.033-3.219c-2.489-0.756-3.985-3.291-3.445-5.834c2.915-15.23,4.279-30.715,4.074-46.221
			c0-32.69-15.088-70.41-15.088-70.41c9.343-3.221,17.908-8.36,25.146-15.088h32.69c7.239,6.728,15.805,11.867,25.146,15.088
			c0,0-15.088,37.72-15.088,70.41C96.423,106.667,97.787,122.152,100.702,137.383z"/>
		<path fill="#A3E598" d="M94.113,5.665v0.025c-0.15,0.729-2.967,15.063-20.117,15.063c-17.15,0-19.967-14.333-20.118-15.063V5.665
			l3.42-3.42c0.864-0.86,2.221-0.977,3.219-0.276c4.098,2.376,8.742,3.649,13.479,3.696c4.737-0.047,9.38-1.32,13.478-3.696
			c0.998-0.701,2.355-0.584,3.219,0.276l3.396,3.42H94.113z"/>
		<polygon fill="#FFFFFF" points="51.365,33.326 41.306,38.355 51.365,43.384 61.423,38.355 		"/>
		<path fill="#A3E598" d="M131.834,45.899v15.088c0,0-2.138,6.438-20.344,5.407c11.291-0.855,12.799-5.407,12.799-5.407V45.899
			c0-20.117-12.572-25.146-12.572-25.146c-6.951-2.386-13.485-5.848-19.363-10.26c0.811-1.51,1.404-3.126,1.76-4.803
			c7.244,6.715,15.809,11.845,25.146,15.063C119.26,20.752,131.834,25.782,131.834,45.899z"/>
		<path fill="#E3E7F2" d="M129.319,33.326c-25.146,12.573-56.052,46.672-87.208,89.295c0.251-2.162,0.478-4.477,0.704-6.99
			c0.579-6.865,1.006-15.038,1.006-24.469c-0.038-5.854-0.449-11.699-1.232-17.501v-0.025c18.936-25.75,43.629-45.616,56.127-54.819
			c2.967-2.163,5.255-3.772,6.588-4.678c4.378,2.742,9.062,4.962,13.956,6.614C123.76,23.881,127.254,28.249,129.319,33.326z"/>
		<path fill="#B4EAA4" d="M121.775,37.425c-22.934,11.467-49.64,44.007-77.955,81.399c0.579-6.865,0-18.231,0-27.662
			c-0.038-5.854-0.449-11.699-1.232-17.501v-0.025c18.935-25.75,43.629-45.616,56.127-54.819c4.098,2.484,8.458,4.508,13.001,6.035
			C116.217,27.979,119.711,32.348,121.775,37.425z"/>
		<polygon fill="#E3E7F2" points="91.6,33.326 91.6,43.384 96.629,45.899 101.658,43.384 101.658,33.326 		"/>
		<g>
			<path fill="#FFFFFF" d="M36.822,66.394c-11.529-0.8-13.119-5.407-13.119-5.407V45.899c0-20.117,12.573-25.146,12.573-25.146
				c9.342-3.221,17.908-8.36,25.146-15.088l2.083-2.082c-1.05-0.433-2.051-0.974-2.988-1.614c-0.998-0.701-2.355-0.584-3.219,0.276
				l-3.42,3.42c-7.239,6.728-15.804,11.867-25.146,15.088c0,0-12.573,5.029-12.573,25.146v15.088
				C16.16,60.987,18.354,67.49,36.822,66.394z"/>
			<path fill="#FFFFFF" d="M43.192,143.217c8.827,2.275,17.918,3.357,27.033,3.219c1.207,0.05,2.464,0.05,3.772,0.05
				c1.457,0,2.839-0.018,4.187-0.046c-0.137,0-0.281,0-0.415,0c-9.114,0.139-18.206-0.945-27.033-3.223
				c-2.489-0.756-3.985-3.291-3.445-5.834c1.516-7.539,2.567-15.166,3.148-22.834c0.103-1.292,0.206-2.605,0.296-3.988
				c0.02-0.299,0.038-0.611,0.056-0.915c0.101-1.595,0.191-3.236,0.269-4.944c0-0.166,0.015-0.324,0.022-0.502
				c0.081-1.85,0.144-3.772,0.191-5.749l0.022-1.071c0.041-2.012,0.068-4.084,0.068-6.231c0-1.306-0.033-2.622-0.078-3.94
				l-0.038-0.94c-0.053-1.177-0.116-2.358-0.201-3.54c0-0.142-0.018-0.279-0.028-0.42c-0.101-1.358-0.22-2.719-0.359-4.08
				c-0.028-0.266-0.058-0.535-0.088-0.801c-0.098-0.921-0.208-1.842-0.322-2.768c-0.367-2.911-0.807-5.811-1.307-8.662H48.85
				c-2.749,0.304-5.19,0.458-7.375,0.503c0.465,2.693,0.888,5.419,1.232,8.165c0.113,0.92,0.224,1.841,0.322,2.767
				c0.03,0.267,0.061,0.536,0.088,0.802c0.137,1.359,0.257,2.719,0.359,4.079c0,0.141,0.018,0.278,0.028,0.42
				c0.085,1.182,0.148,2.363,0.201,3.54l0.038,0.941c0.045,1.316,0.078,2.635,0.078,3.939c0,2.148-0.028,4.213-0.068,6.232
				l-0.022,1.07c-0.048,1.977-0.11,3.9-0.191,5.749c0,0.165-0.015,0.324-0.022,0.503c-0.078,1.707-0.168,3.35-0.269,4.943
				c-0.018,0.305-0.035,0.617-0.056,0.916c-0.09,1.383-0.193,2.695-0.296,3.988c-0.581,7.666-1.632,15.29-3.148,22.828
				C39.207,139.926,40.703,142.461,43.192,143.217z"/>
		</g>
	</g>
	<g>
		<path fill="#FFFFFF" d="M45.703,71.678c0.827,5.482,1.349,11.004,1.562,16.544c0.159,5.602,0.02,11.017-0.186,16.531
			c-0.211,5.111-0.558,10.222-1.069,15.322l-5.004-0.504c0.503-4.99,0.853-9.999,1.048-15.025
			c0.204-5.371,0.334-10.857,0.186-16.151c-0.206-5.352-0.71-10.688-1.509-15.983L45.703,71.678z"/>
		<g>
			<path fill="#54FF0D" d="M43.855,94.389c0.302,0.129,0.627,0.199,0.956,0.206c0.667-0.005,1.306-0.261,1.791-0.72
				c0.987-1.001,0.987-2.609,0-3.611l-0.382-0.299c-0.142-0.092-0.296-0.166-0.458-0.219c-0.143-0.07-0.297-0.117-0.455-0.141
				c-0.167-0.025-0.334-0.038-0.503-0.037c-0.659,0.026-1.286,0.295-1.76,0.754c-0.223,0.238-0.398,0.516-0.518,0.82
				c-0.371,0.929-0.164,1.989,0.531,2.711C43.287,94.078,43.558,94.26,43.855,94.389z"/>
			<path fill="#54FF0D" d="M95.34,48.745c1.396,0.892,3.182,0.892,4.577,0l3.353-2.15c1.188-0.753,1.906-2.062,1.903-3.468v-7.189
				c-0.021-2.296-1.896-4.142-4.192-4.126h-6.704c-2.296-0.015-4.171,1.831-4.192,4.126v7.189c0.002,1.402,0.72,2.707,1.904,3.458
				L95.34,48.745z M95.113,36.84h5.029v5.784l-2.514,1.612l-2.515-1.612L95.113,36.84L95.113,36.84z"/>
			<path fill="#54FF0D" d="M33.741,70.046c1.966,0,4.139-0.096,6.538-0.302c0.143,0.88,0.329,1.803,0.458,2.668
				c0.483,3.269,0.873,6.539,1.144,9.83c0.128,1.369,1.321,2.389,2.693,2.301c0.668-0.05,1.29-0.364,1.725-0.875
				c0.436-0.51,0.649-1.172,0.593-1.84c-0.178-2.168-0.422-4.326-0.694-6.479c21.89-29.457,51.6-51.236,60.178-57.206
				c4.1,2.418,8.437,4.409,12.943,5.942c3.344,1.718,6.042,4.472,7.691,7.851c-10.021,5.814-37.43,25.355-80.564,82.943
				c0.267-3.374,0.503-6.749,0.631-10.126l0.093-2.533c0.029-0.898-0.423-1.744-1.187-2.219s-1.722-0.506-2.515-0.081
				c-0.792,0.424-1.299,1.238-1.328,2.137l-0.093,2.492c-0.208,5.019-0.558,10.026-1.049,15.021
				c-0.583,6.141-1.491,12.248-2.718,18.293c-0.832,3.83,1.431,7.652,5.188,8.767c5.123,1.536,14.751,3.37,31.526,3.37
				s26.404-1.834,31.521-3.37c3.758-1.112,6.022-4.934,5.193-8.764c-2.883-15.06-4.23-30.372-4.023-45.704
				c0.07-7.516,0.742-15.014,2.012-22.423c2.4,0.211,4.581,0.307,6.555,0.307c15.637,0,18.516-5.907,18.966-7.265
				c0.085-0.256,0.128-0.524,0.128-0.795V46.898c0.098-5.145-0.857-10.256-2.809-15.018c0-0.018,0-0.035-0.016-0.05l-0.012-0.02
				c-2.093-5.401-6.129-9.824-11.316-12.4c-0.022,0-0.048,0-0.072,0c-0.025,0-0.041-0.028-0.066-0.038
				c-4.684-1.595-9.17-3.721-13.37-6.337l-0.028-0.018c-3.854-2.336-7.457-5.061-10.758-8.13l-3.432-3.424
				c-1.729-1.72-4.441-1.952-6.438-0.551c-3.674,2.079-7.814,3.192-12.035,3.236c-4.221-0.044-8.361-1.157-12.036-3.234
				c-1.994-1.401-4.705-1.171-6.435,0.545l-3.425,3.425c-6.966,6.445-15.194,11.375-24.163,14.479c-0.025,0-0.042,0.03-0.065,0.038
				c-0.022,0.007-0.05,0-0.073,0c-0.576,0.246-14.155,5.922-14.155,27.495v15.088c0,0.27,0.045,0.538,0.131,0.794
				C15.226,64.139,18.103,70.046,33.741,70.046z M130.319,61.315c-0.822,1.036-4.839,4.667-19.726,3.45
				c0.146-0.754,0.252-1.509,0.412-2.278c0.181-0.881-0.123-1.791-0.797-2.387c-0.673-0.596-1.612-0.788-2.465-0.503
				c-0.854,0.285-1.489,1.002-1.668,1.884c-2.145,10.09-3.289,20.367-3.418,30.681c-0.208,15.679,1.174,31.337,4.124,46.737
				c0.277,1.27-0.468,2.538-1.71,2.914c-4.799,1.439-13.908,3.156-30.076,3.156c-16.167,0-25.277-1.717-30.073-3.156
				c-1.244-0.375-1.99-1.645-1.712-2.914c0.649-3.082,1.509-7.898,2.291-14.295c44.716-61.059,72.908-81.729,83.414-87.958
				c0.969,3.33,1.441,6.785,1.403,10.252V61.315L130.319,61.315z M60.087,5.042c4.519,2.668,9.662,4.095,14.91,4.137
				C80.248,9.136,85.396,7.7,89.91,5.018l2.43,2.429c-0.94,3.216-4.637,11.792-17.343,11.792c-12.599,0-16.363-8.58-17.333-11.794
				L60.087,5.042z M19.674,46.899c0-17.944,10.486-22.597,11.004-22.815C39.07,21.17,46.869,16.768,53.7,11.088
				c2.208,5.08,7.835,13.179,21.296,13.179c13.46,0,19.091-8.102,21.296-13.182c1.387,1.154,3.242,2.595,5.495,4.14
				c-21.199,15.092-40.253,32.99-56.641,53.205c-0.782-4.705-1.717-9.556-2.907-14.567c-0.208-0.874-0.866-1.571-1.727-1.829
				s-1.793-0.036-2.447,0.581s-0.928,1.535-0.72,2.409c0.787,3.312,1.463,6.556,2.069,9.739c-15.13,1.248-19.043-2.524-19.742-3.397
				V46.899z"/>
			<path fill="#54FF0D" d="M39.877,39.813c0.027,0.172,0.072,0.341,0.133,0.503c0.022,0.055,0.02,0.116,0.045,0.168
				c0.055,0.079,0.114,0.155,0.178,0.226c0.092,0.146,0.198,0.283,0.317,0.407c0.121,0.118,0.254,0.221,0.397,0.31
				c0.074,0.065,0.152,0.127,0.234,0.184l10.059,5.029c0.708,0.354,1.54,0.354,2.248,0l10.059-5.029c0.025,0,0.038-0.038,0.063-0.05
				c0.26-0.137,0.493-0.319,0.689-0.538c0.043-0.048,0.068-0.103,0.108-0.154c0.1-0.12,0.189-0.249,0.267-0.385
				c0.025-0.053,0.023-0.113,0.045-0.168c0.062-0.163,0.106-0.331,0.133-0.503c0.081-0.3,0.081-0.616,0-0.916
				c-0.027-0.172-0.072-0.34-0.133-0.503c-0.022-0.055-0.02-0.116-0.045-0.168c-0.055-0.079-0.114-0.155-0.179-0.227
				c-0.09-0.145-0.194-0.281-0.312-0.405c-0.121-0.117-0.254-0.221-0.397-0.31c-0.074-0.065-0.152-0.126-0.234-0.184l-10.059-5.029
				c-0.708-0.354-1.54-0.354-2.248,0l-10.059,5.029c-0.081,0.057-0.159,0.118-0.234,0.184c-0.143,0.088-0.276,0.192-0.397,0.31
				c-0.119,0.125-0.226,0.261-0.316,0.407c-0.064,0.072-0.124,0.147-0.179,0.227c-0.025,0.053-0.022,0.113-0.045,0.168
				c-0.062,0.163-0.106,0.331-0.133,0.503c-0.081,0.3-0.081,0.616,0,0.916L39.877,39.813z M52.365,37.137l4.436,2.218l-4.436,2.218
				l-4.436-2.218L52.365,37.137z"/>
		</g>
	</g>
</g>
</svg>
