<svg xmlns="http://www.w3.org/2000/svg" viewBox="1028.711 352.321 273.844 338.292"><path fill="none" d="M1208.689 360.581l.077.03-.077-.03zM1029.368 495.124l.092.082c.026-.188.051-.389.075-.613-.053.26-.108.447-.167.531zM1252.032 377.629c.398.146.806.3 1.217.455-.412-.156-.818-.308-1.217-.455zM1253.667 378.242c.375.143.755.291 1.138.44-.384-.15-.763-.297-1.138-.44zM1255.642 379.015l.317.127-.317-.127zM1264.192 382.858l.081.041a2.045 2.045 0 00-.081-.041zM1079.674 463.432l-.093-.165.093.165zM1246.495 504.979c1.451-13.496 2.314-29.602 2.314-29.602.863-7.912 2.992-12 2.992-12 .203-.311.406-.641.609-.986-.174.49-.342.988-.5 1.51 0 0 .06.189.159.667 1.621-5.014 3.98-8.403 6.154-14.301 3.055-8.274 4.615-15.699 6.667-21.148 1.945-8.722 2.522-20.01 2.627-28.894-1.451 9.088-2.673 16.116-3.001 16.219-.936.294-29.714 51.114-29.714 51.114l-20.297 21.738 22.227-48.91 14.974-22.032-12.166 12.925 23.301-49.093a95.786 95.786 0 00-2.837-1.326l-22.393 46.894-22.344 26.732-9.242 17.479 2.691-38.482-6.785 9.253-5.615 14.835-18.717 26.438 7.487-33.342 15.793-19.535 5.498-33.341-24.332 8.813 20.472-12.925 1.521-3.525 7.136-7.932-11.347 5.288 2.34-11.897-9.476 1.616 7.333-17.332.367-.868h2.191s1.965.351 3.914.868c.645.171 1.284.361 1.855.562-2.291-.817-5.817-1.448-5.817-1.448h-25.529v-6.188h-20.34v6.188h-26.537c-3.471.2-7.035 1.064-7.035 1.064-16.781 10.613-44.547 17.94-44.547 17.94-6.371 2.128-13.498 5.599-13.498 5.599v-.031s-4.535 4.921-9.055 8.376c0 0-18.003 13.46-22.881 48.237 5.121-33.914 22.722-47.075 22.722-47.075 4.523-3.458 9.061-8.382 9.061-8.382-1.193 2.141-1.8 5.344-1.998 9.145.2-3.789.808-6.979 1.998-9.115 0 0 7.132-3.473 13.507-5.603 0 0 6.985-1.844 16.067-5.02l2.98 3.313 1.521 3.525 20.472 12.925-24.333-8.813 5.498 33.341 15.793 19.535 7.487 33.342-18.717-26.438-5.615-14.835-6.785-9.253 2.691 38.482-9.242-17.479-21.684-25.943c1.181 7.756 2.718 15.05 3.753 19.621l18.692 41.133-4.634-4.963c1.292 8.655 1.597 19.057 1.597 19.057 2.313 27.766 5.645 66.529 5.645 66.529 3.471 52.061-7.527 108.178-7.527 108.178a114.528 114.528 0 01-1.588 8.098c1.358 13.111 27.766 14.563 27.766 14.563 50.609 4.242 102.578.586 102.578.586 24.68-.479 32.1-5.492 32.1-5.492 7.143-3.084 8.299-8.576 8.299-8.576.586-1.543-.863-5.213-.863-5.213-5.521-32.131-7.914-56.596-7.914-56.596-2.406-26.223-.477-56.117-.477-56.117 2.313-17.648 4.533-51.677 4.533-51.677zm-29.648-47.262l15.793-16.936-17.197 36.765-29.363 49.058c.001 0 30.533-67.712 30.767-68.887zm-13.803-10.722l2.691-4.113-2.691 32.46-32.053 80.196-.117-15.716 28.31-75.202 3.86-17.625zm-4.797-17.919l-26.672 31.873 1.638-9.547 29.48-47.148-4.446 24.822zm-4.854-49.352l5.03-.881-1.872 6.316.117 7.05-11.698 7.05 6.727-10.208 1.696-9.327zm-3.334.588l-.76 6.683s-4.27 6.316-4.855 7.197c-.585.881-.585-4.847-.585-4.847s-5.147-1.616-5.908-1.616 11.406-7.417 12.108-7.417zm-8.306 30.698l17.313-6.463-28.076 45.239 10.763-38.776zm-15.091 63.598l14.155-19.094-8.891 39.364-17.43 32.02 12.166-52.29zm6.083 23.795l23.63-34.957-24.123 63.01-29.455 38.336 29.948-66.389zm-2.691 35.691l-19.068 64.627 2.925-42.301 16.143-22.326zm-72.328-161.114c1.092-.4 2.205-.818 3.329-1.251l.607 3.085-3.936-1.834zm7.094 6.534l.117-7.05-.602-2.031a174.555 174.555 0 004.069-1.707l1.388 7.63 6.727 10.208-11.699-7.05zm12.81-2.864s0 5.728-.585 4.847a3227.59 3227.59 0 00-4.855-7.197l-.76-6.683c.702 0 12.868 7.417 12.108 7.417-.76.001-5.908 1.616-5.908 1.616zm2.106 21.665l10.762 38.776-28.076-45.239 17.314 6.463zm-16.495 18.066l-4.445-24.822 29.48 47.148 1.638 9.547-26.673-31.873zm-17.196 48.471l-17.197-36.765 15.793 16.936c.234 1.175 30.766 68.886 30.766 68.886l-29.362-49.057zm37.567 197.761l23.865-71.383c0 .881.117 16.744.117 16.744l-23.982 54.639zm14.974-56.842l4.855-36.279 7.779-10.135s-.936 16.01-1.053 17.332c-.117 1.322-11.581 29.082-11.581 29.082zm21.759-5.728l-9.827 22.032c1.638-3.525 17.079-66.095 17.079-66.095l1.17 11.163-8.422 32.9zm15.207-28.201s-6.785 14.688-8.189 15.422 5.498-29.816 5.498-29.816l5.732-11.163-3.041 25.557zm4.212-7.784l2.808-25.557 17.547-14.541-20.355 40.098zm41.353-65.361l-29.948 25.557 17.08-24.675 25.736-22.913-12.868 22.031zM1062.834 395.768z"/><path fill="none" d="M1079.069 465.67c.028-.214.058-.424.088-.635a1.331 1.331 0 00-.088.635zM1078.403 489.707c-.386 3.953-.787 8.783-.787 8.783-.171 2.984-.169 4.877-.137 5.941.066-.05.139-.093.202-.145 0 0-.215-1.928.078-7.035 0 0 .4-4.828.787-8.775 0 0-.72-11.4.328-21.165-1.251 10.015-.471 22.396-.471 22.396zM1063.31 406.1zM1062.88 399.795zM1063.495 407.923c-.021-.191-.042-.381-.061-.571l.061.571zM1062.829 397.741zM1302.024 493.699c.043-.356.044-.73-.011-1.123 0 0-1.397-18.584-2.412-34.637-.011.351-.022.555-.022.555.976 15.519 2.331 33.686 2.445 35.205zM1063.722 409.914l-.009-.077.009.077zM1251.97 377.606c-5.508-2.027-9.701-3.202-9.701-3.202-4.129-.838-8.48-2.24-12.604-3.824 4.148 1.596 8.527 3.01 12.682 3.853 0 0 4.153 1.163 9.623 3.173zM1062.982 401.907zM1283.942 402.337c13.487 20.572 15.456 43.053 15.663 52.075-.064-8.057-1.549-31.701-15.672-53.244 0 0-5.456-6.604-16.514-16.526.006.119.025.533.052 1.21 11.027 9.898 16.471 16.485 16.471 16.485zM1063.133 404.076z"/><path d="M1069.434 440.342s-.47-1.857-1.16-4.904l.014.032c-1.035-4.571-2.572-11.865-3.753-19.621l-.006-.007a194.17 194.17 0 01-.808-5.927l-.009-.077c-.077-.64-.149-1.277-.218-1.914l-.061-.571a139.459 139.459 0 01-.231-2.432c-.024-.282-.048-.564-.07-.844-.04-.507-.076-1.011-.109-1.511l-.042-.658c-.033-.55-.06-1.095-.083-1.635l-.019-.477a78.893 78.893 0 01-.046-1.726l-.005-.328a66.503 66.503 0 01.002-1.788l.003-.186c.011-.623.031-1.233.062-1.829l.003-.055c.198-3.802.805-7.004 1.998-9.145 0 0-4.538 4.924-9.061 8.382 0 0-17.601 13.161-22.722 47.075a123.367 123.367 0 00-1.029 10.764l-.293 7.805-.586 6.371s-.184 7.914-.863 14.947c0 0-.245 11.746-.806 14.511a20.76 20.76 0 01-.075.613c1.068.946 12.444 10.475 38.287 11.486 0 0 6.481.186 9.731-2.261-.032-1.064-.034-2.957.137-5.941 0 0 .401-4.83.787-8.783 0 0-.78-12.381.471-22.397.059-.553.124-1.1.195-1.64a1.331 1.331 0 01.088-.635c.022-.156.043-.314.067-.469 0 0-.165-.846.45-1.133l-.093-.165c-1.855-3.308-6.764-12.497-10.147-22.927zM1267.47 385.85c.088 2.266.243 7.394.16 13.678l-.111.697c-.104 8.884-.681 20.172-2.627 28.894-2.052 5.449-3.612 12.874-6.667 21.148-2.175 5.898-4.534 9.286-6.154 14.301.112.539.276 1.449.472 2.928 0 0 .371 7.666.51 21.256 0 0 .586 7.234.803 15.117 0 0 .939 2.822 7.018 2.744 0 0 16.846 1.65 38.533-8.9 0 0 2.322-1.543 2.618-4.014-.114-1.52-1.469-19.686-2.444-35.204 0 0 .011-.203.022-.555l-.042-.656s.06-1.03.045-2.872c-.207-9.021-2.176-31.503-15.663-52.075-.001 0-5.445-6.587-16.473-16.487zM1097.726 372.98l3.936 1.834-.607-3.085c-1.125.433-2.237.851-3.329 1.251z"/><path d="M1062.834 395.768l-.003.186a66.503 66.503 0 00-.002 1.788l.005.328c.009.567.025 1.143.046 1.726l.019.477a105.332 105.332 0 00.411 5.828c.039.416.081.833.124 1.252l.061.571a162.566 162.566 0 00.227 1.991c.239 1.981.51 3.968.808 5.927l.006.007 21.684 25.943 9.242 17.479-2.691-38.482 6.785 9.253 5.615 14.835 18.717 26.438-7.487-33.342-15.793-19.535-5.498-33.341 24.333 8.813-20.472-12.925-1.521-3.525-2.98-3.313c-9.082 3.176-16.067 5.02-16.067 5.02-6.375 2.13-13.507 5.603-13.507 5.603-1.19 2.136-1.798 5.326-1.998 9.115l-.003.055c-.03.594-.05 1.205-.061 1.828zM1108.405 368.727c-1.357.59-2.716 1.159-4.069 1.707l.602 2.031-.117 7.05 11.698 7.05-6.727-10.208-1.387-7.63zM1111.43 367.618l.76 6.683s4.27 6.316 4.855 7.197c.585.881.585-4.847.585-4.847s5.147-1.616 5.908-1.616c.76 0-11.406-7.417-12.108-7.417z"/><path d="M1119.736 398.315l-17.313-6.462 28.075 45.238zM1128.276 438.707l-29.48-47.148 4.445 24.822 26.673 31.873zM1068.848 428.087l17.197 36.765 29.363 49.057s-30.532-67.711-30.766-68.886l-15.794-16.936zM1068.289 435.469l-.014-.032a213.19 213.19 0 001.16 4.904c3.383 10.43 8.291 19.619 10.147 22.925l.093.165c.187-.087.44-.128.8-.07.783 2.108 1.396 5.074 1.874 8.278l4.634 4.963-18.694-41.133z"/><path fill="#FFF" d="M1202.583 359.027h-2.191l-.367.868h6.472a55.696 55.696 0 00-3.914-.868zM1200.024 359.896l-7.333 17.332 9.476-1.616-2.34 11.897 11.347-5.288-7.136 7.932-1.521 3.525-20.472 12.925 24.332-8.813-5.498 33.341-15.793 19.535-7.487 33.342 18.717-26.438 5.615-14.835 6.785-9.253-2.691 38.482 9.242-17.479 22.344-26.732 22.393-46.894a119.516 119.516 0 00-4.047-1.718l-.317-.127c-.281-.112-.56-.224-.837-.332a136.17 136.17 0 00-2.773-1.053l-.063-.023c-5.47-2.01-9.623-3.173-9.623-3.173-4.155-.843-8.535-2.257-12.682-3.853-10.604-4.072-19.71-9.349-19.71-9.349-.266-.212-.685-.42-1.188-.62l-.077-.03a12.897 12.897 0 00-.338-.124 24.671 24.671 0 00-1.855-.562h-6.47z"/><path fill="#FFF" d="M1196.668 392.209l-.117-7.05 1.872-6.316-5.03.881-1.696 9.327-6.727 10.208zM1183.859 389.345s0 5.728.585 4.847c.585-.881 4.855-7.197 4.855-7.197l.76-6.683c-.702 0-12.868 7.417-12.108 7.417s5.908 1.616 5.908 1.616zM1181.753 411.01l-10.763 38.776 28.076-45.239zM1171.575 460.948l26.672-31.872 4.446-24.823-29.48 47.148zM1180.817 455.514l-14.155 19.094-12.166 52.289 17.43-32.019zM1196.375 463.446l-23.63 34.957-29.948 66.389 29.456-38.336zM1170.99 555.539l32.054-80.196 2.69-32.46-2.69 4.112-3.861 17.626-28.31 75.201zM1170.054 534.094l-16.143 22.326-2.925 42.301zM1143.441 569.492l-4.855 36.279s11.464-27.76 11.581-29.082c.117-1.322 1.053-17.332 1.053-17.332l-7.779 10.135zM1123.612 662.613l23.981-54.639s-.117-15.863-.117-16.744l-23.864 71.383zM1167.598 555.979s-15.442 62.57-17.079 66.095l9.827-22.032 8.423-32.901-1.171-11.162zM1167.364 587.264c1.404-.734 8.189-15.422 8.189-15.422l3.042-25.557-5.732 11.163c-.001 0-6.903 30.551-5.499 29.816zM1179.764 564.058l20.355-40.098-17.548 14.541zM1215.443 477.546l17.197-36.765-15.793 16.936c-.234 1.175-30.766 68.886-30.766 68.886l29.362-49.057zM1251.708 418.354l-14.974 22.032-22.227 48.91 20.297-21.738s28.778-50.82 29.714-51.114c.327-.103 1.55-7.131 3.001-16.219l.111-.697a271.056 271.056 0 00-.16-13.678c-.026-.676-.046-1.091-.052-1.21l-.113-.102v.007a69.134 69.134 0 00-3.032-1.647l-.081-.041a84.683 84.683 0 00-1.349-.672l-23.301 49.093 12.166-12.924zM1191.169 524.254l29.948-25.557 12.868-22.032-25.736 22.913z"/></svg>