<svg xmlns="http://www.w3.org/2000/svg" viewBox="742.651 352.744 267.003 337.412"><path fill="none" d="M791.927 463.799c.05.725.067 1.834.064 3.238.003-1.406-.014-2.515-.064-3.238z"/><path fill="none" d="M791.86 464.135c.201 2.9-.123 11.983-.154 21.393.041-.21.067-.332.067-.332.03-9.873.447-18.666.154-21.397.05.723.067 1.832.064 3.238.003-1.404-.015-2.514-.064-3.238-.054-.672-.129-1.026-.236-.951l-.124.407c.139-.031.232.294.293.88zM790.48 499.346c.176-.779.136-1.564.136-1.564 0-5.824.749-10.422 1.042-11.996-.22 1.114-1.109 6.011-1.109 12.354-.001.001.027.562-.069 1.206z"/><path fill="none" d="M953.553 549.92c1.743-10.799 3.085-50.133 3.085-50.133.386-4.828.201-10.227.201-10.227-1.126-19.146 2.321-30.613 2.505-31.209.023.046.045.106.068.156.148-1.342 1.261-11.051 4.135-27.128-8.166 15.058-19.155 35.8-19.155 35.8l-18.99 21.738 20.796-48.91 14.01-22.032-11.383 12.925 22.133-49.842a74.988 74.988 0 00-2.637-1.361l-21.302 47.677-20.905 26.732-8.647 17.479 2.517-38.482-6.348 9.253-5.254 14.835-17.512 26.438 7.005-33.342 14.776-19.535 5.144-33.341-22.766 8.813 19.154-12.925 1.423-3.525 6.676-7.932-10.617 5.288 2.116-11.499c3.925-3.756 6.391-8.784 5.231-15.466-.611-.407-1.252-.796-1.68-1.199-1.557-1.467-1.426-2.082-3.867-2.718-4.528-1.18-12.605-2.255-17.936-2.22-2.642.017-3.538-.417-6.185-.405-2.203.009-4.411.025-6.611.023-2.364-.002-3.588-.359-6.063-.401H875.511c-4.061.042-7.631.409-12.149.385-6.569-.035-18.069 1.026-24.201 2.544-2.664.66-2.349.991-3.987 2.602-1.003.986-3.233 1.959-3.553 3.109-12.867 7.9-39.002 15.271-39.002 15.271-11.568 3.332-13.883 5.646-13.883 5.646l.006.022c-6.675 4.612-12.716 11.563-12.716 11.563-6.941 6.573-11.545 16.292-14.596 26.03 3.054-9.643 7.637-19.236 14.511-25.746 0 0 6.046-6.955 12.726-11.571l-.007-.022s2.315-2.315 13.893-5.65c0 0 8.62-2.432 18.398-5.997l4.689 5.57 1.423 3.525 19.154 12.925-22.766-8.813 5.144 33.341 14.776 19.535 7.005 33.342-17.512-26.438-5.254-14.835-6.348-9.253 2.517 38.482-8.647-17.479-17.403-22.253c.605 5.484.702 9.304.702 9.304.205 2.611.625 5.958 1.13 9.466l16.282 38.295-11.586-13.264c1.755 9.778 1.415 23.594 1.415 23.594.586 32.826 1.589 45.844 1.589 45.844.139 9.842 1.743 17.646 1.743 17.646 2.313 34.137.293 61.902.293 61.902-3.332 35.139-9.456 64.154-9.842 65.219l-.386 1.065c9.256 7.713 68.643 10.797 68.643 10.797 41.463 3.471 99.693-6.941 99.693-6.941 4.442-1.358 5.6-3.856 5.6-3.856-15.807-86.768-9.452-128.231-9.452-128.231zm-25.962-92.581l14.776-16.936-16.09 36.765-27.472 49.058c.001-.001 28.567-67.712 28.786-68.887zm-12.915-10.722l2.517-4.113-2.517 32.46-29.99 80.196-.109-15.716 26.487-75.202 3.612-17.625zm-4.487-17.919l-24.955 31.873 1.532-9.547 27.582-47.148-4.159 24.822zm-4.864-47.461l.322-1.891 4.564-.854.143-.027-1.751 6.316.109 7.05-10.945 7.05 6.294-10.208 1.264-7.436zm-11.131 3.838c3.223-2.18 7.919-5.141 8.334-5.141l-.28 2.632-.431 4.051s-3.995 6.316-4.542 7.197c-.547.881-.547-4.847-.547-4.847s-4.816-1.616-5.527-1.616c-.264 0 1.115-1.006 2.993-2.276zm.562 25.556l16.199-6.463-26.268 45.239 10.069-38.776zm-14.119 63.599l13.244-19.094-8.318 39.364-16.308 32.02 11.382-52.29zm5.692 23.795l22.109-34.957-22.57 63.01-27.559 38.336 28.02-66.389zm-2.518 35.691l-17.841 64.627 2.736-42.301 15.105-22.326zm-71.276-162.869c1.981-.738 3.99-1.519 5.972-2.332l1.075 5.842-7.047-3.51zm10.002 8.21l.109-7.05-1.301-4.692c.822-.357 1.637-.718 2.433-1.084l1.823.341 1.587 9.327 6.293 10.208-10.944-7.05zm11.985-2.864s0 5.728-.547 4.847c-.547-.881-4.542-7.197-4.542-7.197l-.711-6.683c.348 0 3.707 2.082 6.683 4.04a20.782 20.782 0 002.66 3.866 128.864 128.864 0 00-3.543 1.127zm1.97 21.665l10.069 38.776-26.268-45.239 16.199 6.463zm-15.433 18.066l-4.159-24.822 27.582 47.148 1.532 9.547-24.955-31.873zm-16.089 48.47l-16.09-36.765 14.776 16.936c.219 1.175 28.786 68.886 28.786 68.886l-27.472-49.057zm35.389 197.841l22.328-71.383c0 .881.109 16.744.109 16.744l-22.437 54.639zm14.01-56.842l4.542-36.279 7.279-10.135s-.876 16.01-.985 17.332c-.11 1.322-10.836 29.082-10.836 29.082zm20.358-5.728l-9.194 22.032c1.532-3.525 15.98-66.095 15.98-66.095l1.095 11.163-7.881 32.9zm14.228-28.201s-6.348 14.688-7.661 15.422c-1.313.734 5.144-29.816 5.144-29.816l5.363-11.163-2.846 25.557zm3.94-7.784l2.627-25.557 16.418-14.541-19.045 40.098zm38.691-65.361l-28.019 25.557 15.98-24.675 24.079-22.913-12.04 22.031z"/><path fill="none" d="M961.323 489.158s-.432-2.748-.293-4.631c0 0 .315-16.001-.89-23.123 1.139 7.274.833 22.773.833 22.773-.139 1.883.293 4.629.293 4.629.864 6.369.586 10.998.586 10.998.023.011.05.018.073.029.044-1.151.13-5.283-.602-10.675zM993.586 404.21c3.747 5.874 7.082 12.967 9.409 21.141-2.328-8.299-5.699-15.489-9.49-21.433-8.418-13.187-18.464-20.378-19.806-21.304l-.054.193c.667.451 11.186 7.688 19.941 21.403z"/><path fill="#FFF" d="M913.782 375.631l-2.116 11.499 10.617-5.288-6.676 7.932-1.423 3.525-19.154 12.925 22.766-8.813-5.144 33.341-14.776 19.535-7.005 33.342 17.512-26.438 5.254-14.835 6.348-9.253-2.517 38.482 8.647-17.479 20.905-26.732 21.302-47.677c-8.051-3.945-13.738-4.758-23.128-7.17-8.79-2.258-20.019-8.272-24.562-10.827-.243-.571-.91-1.065-1.618-1.536 1.159 6.684-1.307 11.712-5.232 15.467z"/><path fill="#FFF" d="M905.647 379.346l-.322 1.891c1.67-.791 3.327-1.697 4.885-2.745l-4.563.854z"/><path fill="#FFF" d="M908.711 391.831l-.109-7.05 1.751-6.316-.143.027c-1.558 1.048-3.216 1.954-4.885 2.745l-1.265 7.436-6.294 10.208 10.945-7.05zM902.527 379.934c-.415 0-5.111 2.961-8.334 5.141a61.625 61.625 0 008.054-2.509l.28-2.632z"/><path fill="#FFF" d="M896.727 388.967s0 5.728.547 4.847c.547-.881 4.542-7.197 4.542-7.197l.431-4.051a61.472 61.472 0 01-8.054 2.509c-1.877 1.27-3.256 2.276-2.994 2.276.712 0 5.528 1.616 5.528 1.616zM894.756 410.631l-10.069 38.777 26.268-45.239zM885.234 460.57l24.955-31.872 4.159-24.823-27.582 47.148zM893.881 455.136l-13.244 19.094-11.383 52.289 16.309-32.02zM908.438 463.067l-22.109 34.958-28.02 66.389 27.559-38.336zM884.687 555.16l29.989-80.195 2.518-32.461-2.518 4.113-3.612 17.625-26.487 75.202zM883.811 533.716l-15.104 22.326-2.736 42.301zM858.911 569.114l-4.542 36.279s10.726-27.76 10.836-29.082c.109-1.322.985-17.332.985-17.332l-7.279 10.135zM840.359 662.235l22.437-54.639s-.109-15.863-.109-16.744l-22.328 71.383zM881.512 555.601s-14.448 62.57-15.98 66.095l9.194-22.032 7.88-32.901-1.094-11.162zM881.294 586.886c1.313-.734 7.661-15.422 7.661-15.422l2.846-25.557-5.363 11.163s-6.458 30.551-5.144 29.816zM892.895 563.68l19.045-40.098-16.418 14.541zM926.278 477.168l16.09-36.765-14.776 16.936c-.219 1.175-28.785 68.886-28.785 68.886l27.471-49.057zM960.207 417.976l-14.01 22.032-20.796 48.91 18.99-21.738s10.989-20.741 19.155-35.8a694.054 694.054 0 012.207-11.749s3.936-23.247 7.857-36.847l.034.023.054-.193-.155-.106a89.12 89.12 0 00-2.586-1.45L948.824 430.9l11.383-12.924zM903.566 523.875l28.02-25.556 12.039-22.032-24.079 22.913z"/><path d="M789.564 437.85c-.505-3.507-.926-6.855-1.13-9.466 0 0-.097-3.82-.702-9.304l-.017-.022c-.605-5.471-1.716-12.598-3.742-19.248 0 0-3.081-9.044-5.304-16.711-6.68 4.616-12.726 11.571-12.726 11.571-6.874 6.51-11.457 16.103-14.511 25.746-5.405 17.25-5.935 34.561-5.935 34.561-.293 16.783-2.314 36.002-2.314 36.002 18.51 9.98 46.275 9.842 46.275 9.842.585-.195.876-.833 1.021-1.475.097-.644.069-1.205.069-1.205 0-6.343.889-11.24 1.109-12.354l.049-.258c.031-9.41.355-18.492.154-21.393-.062-.587-.154-.911-.293-.88l.124-.407a.198.198 0 00-.057.072l1.363-4.481c-.118-.631-2.099-11.219-3.455-20.641l.022.051zM973.645 382.807l-.034-.023c-3.921 13.6-7.857 36.847-7.857 36.847a694.054 694.054 0 00-2.207 11.749c-2.874 16.077-3.987 25.785-4.135 27.128.291.643.532 1.642.728 2.895 1.205 7.123.89 23.123.89 23.123-.139 1.883.293 4.631.293 4.631.731 5.392.645 9.524.601 10.674 10.352 4.813 47.206-8.575 47.206-8.575-.864-13.883-2.9-44.824-2.9-44.824-.268-7.644-1.443-14.69-3.236-21.081-2.326-8.174-5.662-15.267-9.409-21.141-8.754-13.715-19.273-20.952-19.94-21.403z"/><path d="M787.714 419.059l.017.022 17.403 22.253 8.647 17.479-2.517-38.482 6.348 9.253 5.254 14.835 17.512 26.438-7.005-33.342-14.776-19.535-5.144-33.341 22.766 8.813-19.154-12.925-1.423-3.525-4.689-5.57c-9.778 3.565-18.398 5.997-18.398 5.997-11.577 3.334-13.893 5.65-13.893 5.65l.007.022c2.222 7.667 5.304 16.711 5.304 16.711 2.026 6.649 3.137 13.776 3.741 19.247zM812.535 370.847l7.047 3.51-1.075-5.842a194.544 194.544 0 01-5.972 2.332zM825.601 366.573l-1.823-.341c-.797.366-1.611.727-2.433 1.084l1.301 4.692-.109 7.05 10.945 7.05-6.293-10.208-1.588-9.327zM835.404 371.201c-2.976-1.958-6.335-4.04-6.683-4.04l.711 6.683s3.995 6.316 4.542 7.197c.547.881.547-4.847.547-4.847s1.942-.651 3.542-1.127a20.855 20.855 0 01-2.659-3.866z"/><path d="M836.492 397.858l-16.199-6.463 26.268 45.239zM844.482 438.25L816.9 391.102l4.159 24.822 24.955 31.873zM788.881 427.629l16.09 36.765 27.472 49.057s-28.567-67.711-28.786-68.886l-14.776-16.936zM789.564 437.85l-.022-.051c1.356 9.422 3.336 20.01 3.455 20.641l.082-.269.422 1.264c.29 1.061.54 2.224.759 3.447l11.586 13.264-16.282-38.296z"/></svg>