<svg xmlns="http://www.w3.org/2000/svg" viewBox="280.996 153.383 80 80"><path fill-rule="evenodd" clip-rule="evenodd" fill="#231F20" d="M280.996 153.183h80.36v80.201h-80.36z"/><path fill="none" stroke="#231F20" stroke-width=".056" stroke-miterlimit="22.926" d="M280.996 153.183h80.36v80.201h-80.36z"/><path fill-rule="evenodd" clip-rule="evenodd" fill="#A7A9AB" d="M335.458 152.825l-2.97 4.575 3.538-.393-.874 2.895 4.236-1.287-2.664 1.93-.567.858-7.643 3.145 9.084-2.144-2.053 8.113-5.896 4.753-2.795 8.113 6.988-6.433 2.096-3.61 2.533-2.252-1.004 9.364 3.45-4.253 8.342-6.504 12.097-16.512z"/><path fill-rule="evenodd" clip-rule="evenodd" fill="#A7A9AB" d="M329.605 162.761l4.368-1.715-.044-1.716.699-1.537-1.878.215-.633 2.269zM331.505 158.151c-.262 0-4.804 1.805-4.52 1.805s2.206.393 2.206.393 0 1.394.218 1.179c.218-.214 1.813-1.751 1.813-1.751l.283-1.626zM334.868 164.048l-6.464 1.572-4.018 9.436zM324.605 177.772l.611-2.323 11.006-11.473-1.66 6.04zM328.055 176.45l-3.319 9.578-6.508 7.791 4.542-12.723zM333.864 178.38l-8.823 8.506-11.18 16.154 10.997-9.328zM337.358 173.376l-1.005 1.001-1.441 4.288-10.569 18.299.043 3.825 11.967-19.515zM324.037 195.571l-6.027 5.432-1.092 10.293zM317.005 201.718l-2.904 2.466-1.812 8.828s4.28-6.755 4.324-7.076c.043-.323.392-4.218.392-4.218M315.608 209.473c0 .214.044 4.074.044 4.074l-8.953 13.295 8.909-17.369zM316.743 216.979c.611-.858 6.376-16.083 6.376-16.083l.437 2.716-3.145 8.006-3.668 5.361zM327.225 198.537l-2.14 2.716s-2.577 7.434-2.053 7.255 3.057-3.753 3.057-3.753l1.136-6.218zM328.71 196.643l-1.048 6.219 7.599-9.758zM341.506 176.986c-.087.286-11.486 16.762-11.486 16.762l10.962-11.937 6.42-8.946-5.896 4.121zM340.633 184.67l8.298-11.901 5.59-5.361-4.542 3.145 11.017-15.129.36-.495v4.147s-1.863 7.828-2.053 7.867c-.349.071-11.093 12.438-11.093 12.438l-7.577 5.289zM347.905 181.596l-9.609 5.576-6.376 6.004 11.18-6.219z"/><path fill-rule="evenodd" clip-rule="evenodd" fill="#6D6E70" d="M300.65 153.183l.555.855-3.538-.393.874 2.895-4.236-1.287 2.664 1.93.567.858 7.643 3.145-9.084-2.144 2.053 8.113 5.896 4.753 2.795 8.113-6.988-6.433-2.096-3.61-2.533-2.251 1.004 9.363-3.45-4.253-8.342-6.504-3.438-4.693v-8.457z"/><path fill-rule="evenodd" clip-rule="evenodd" fill="#6D6E70" d="M304.088 159.399l-4.368-1.715.044-1.716-.699-1.537 1.878.215.633 2.269zM302.188 154.789c.262 0 4.804 1.805 4.52 1.805-.284 0-2.206.393-2.206.393s0 1.394-.218 1.179a874.202 874.202 0 00-1.812-1.751l-.284-1.626zM298.825 160.686l6.464 1.572 4.018 9.436zM309.088 174.41l-.611-2.323-11.006-11.473 1.66 6.04zM292.187 173.624c.087.286 11.486 16.762 11.486 16.762l-10.962-11.937-6.42-8.946 5.896 4.121zM280.996 165.309l2.718 1.882-2.718-3.732v1.85zm12.064 15.999l-8.298-11.901-3.766-3.611v5.088c2.379 2.709 4.486 5.135 4.486 5.135l7.578 5.289z"/></svg>