<svg xmlns="http://www.w3.org/2000/svg" width="272.688" height="337.292" viewBox="304 252 272.688 337.292"><path fill="none" d="M576.644 391.755s-1.436-19.096-2.453-35.293c0 0 1.727-29.647-15.627-56.117 0 0-5.49-6.648-16.627-16.628v.007c-4.958-2.867-10.813-5.286-15.614-7.042v86.103a8.76 8.76 0 01.11-.229c.203-.311.406-.641.609-.986-.174.49-.342.988-.5 1.51 0 0 .262.803.631 3.596 0 0 .371 7.666.51 21.256 0 0 .586 7.234.803 15.117 0 0 .939 2.822 7.018 2.744 0 0 16.846 1.65 38.533-8.9 0-.001 3.039-2.02 2.607-5.138zM504.664 269.897c-6.473-2.46-12.418-5.39-16.132-7.337v65.38l-21.656 11.303v-81.055h-15.239V252h-20.34v6.188h-14.721v81.055L394.92 327.94v-66.899a77.152 77.152 0 003.114-1.86c-.196.044-.31.072-.31.072-16.781 10.613-44.547 17.94-44.547 17.94-6.371 2.128-13.498 5.599-13.498 5.599v-.031s-4.535 4.921-9.055 8.376c0 0-21.688 16.197-23.91 59.001l-.293 7.805-.586 6.371s-.184 7.914-.863 14.947c0 0-.293 14.068-.973 15.041 0 0 11.184 10.504 38.379 11.568 0 0 6.756.201 9.934-2.406 0 0-.215-1.928.078-7.035 0 0 .4-4.828.787-8.775 0 0-.865-13.684.678-23.91 0 0-.293-1.449 1.25-1.203 2.9 7.805 3.471 27.334 3.471 27.334 2.313 27.766 5.645 66.529 5.645 66.529 3.471 52.061-7.527 108.178-7.527 108.178a114.528 114.528 0 01-1.588 8.098c.31 2.994 1.935 5.375 4.245 7.274a12.941 12.941 0 01-2.221-2.469v-13.144c.474-2.505 2.653-14.398 4.637-31.183l17.021-8.882v62.542c2.459.333 4.083.423 4.083.423 4.017.337 8.042.623 12.049.866v-16.04l21.656-11.303v28.27c19.711.519 37.666.163 50.3-.293v-27.977l21.656 11.303v15.671c6.701-.246 12.001-.834 16.132-1.537v-61.925l14.783 7.713-.225-1.721-20.854-10.832v-10.973l19.423 10.116c-.488-4.249-.721-6.63-.721-6.63-2.406-26.223-.477-56.117-.477-56.117 2.313-17.646 4.533-51.676 4.533-51.676 1.451-13.496 2.314-29.602 2.314-29.602.43-3.935 1.172-6.922 1.81-8.933l-20.587 10.742V269.897zm-125.876-1.269v107.737l-21.658-11.301v-88.991c4.571-1.338 12.906-3.937 21.658-7.445zm6.295 250.809l-21.657 11.248v-10.941l21.657-11.279v10.972zm0-127.259l-21.657-11.281v-10.941l21.657 11.249v10.973zm37.79 163.749l-21.657 11.248v-10.941l21.657-11.279v10.972zm0-200.871l-21.657-11.281v-10.941l21.657 11.249v10.973zm59.362 212.119l-21.658-11.248v-10.973l21.658 11.279v10.942zm0-223.4l-21.658 11.281v-10.973l21.658-11.249v10.941zm37.789 26.181v10.941l-21.656 11.281v-10.974l21.656-11.248z"/><path d="M498.368 519.437l20.854 10.832a814.661 814.661 0 01-1.432-11.688l-19.423-10.116v10.972zM401.215 343.775l21.658 11.281v-10.973l-21.658-11.25zM401.215 567.175l21.658-11.248v-10.972l-21.658 11.279zM460.577 555.927l21.658 11.248v-10.941l-21.658-11.279zM488.532 327.94v-65.38c-2.46-1.29-3.946-2.15-3.946-2.15-1.451-1.157-7.42-2.221-7.42-2.221h-10.29v81.055l21.656-11.304zM516.9 273.583c-4.008-.813-8.222-2.159-12.236-3.685v106.468l20.587-10.742c.472-1.487.884-2.435 1.072-2.839v-86.103c-5.37-1.965-9.423-3.099-9.423-3.099zM498.368 392.178l21.656-11.281v-10.941l-21.656 11.248zM363.426 380.897l21.657 11.281v-10.974l-21.657-11.248zM460.577 355.056l21.658-11.281v-10.942l-21.658 11.25zM394.919 572.068v16.04c7.334.444 14.606.741 21.656.927v-28.27l-21.656 11.303zM363.426 530.685l21.657-11.248v-10.973l-21.657 11.28zM394.919 327.94l21.656 11.303v-81.055H404.759c-2.867.166-5.793.782-6.726.992a78.334 78.334 0 01-3.114 1.86v66.9zM361.766 533.159c-1.983 16.784-4.163 28.678-4.637 31.183v13.144a12.904 12.904 0 002.221 2.469c5.299 4.357 14.237 6.16 19.438 6.865v-62.542l-17.022 8.881zM378.788 376.365V268.628c-8.752 3.508-17.087 6.107-21.658 7.445v88.991l21.658 11.301zM504.664 586.202c9.563-1.629 12.885-3.866 12.885-3.866 7.143-3.084 8.299-8.576 8.299-8.576.586-1.543-.863-5.213-.863-5.213a945.557 945.557 0 01-5.537-36.557l-14.783-7.713v61.925zM466.875 560.765v27.977c11.483-.416 18.573-.914 18.573-.914 1.063-.021 2.083-.053 3.083-.089v-15.671l-21.656-11.303z"/></svg>