<svg xmlns="http://www.w3.org/2000/svg" width="265.948" height="336.412" viewBox="17.814 252.423 265.948 336.412"><path fill="none" d="M66.559 362.978c.05.725.067 1.834.064 3.238.003-1.406-.015-2.515-.064-3.238z"/><path fill="none" d="M232.041 581.185c4.442-1.357 5.6-3.855 5.6-3.855-15.811-86.768-9.456-128.23-9.456-128.23 1.743-10.799 3.085-50.133 3.085-50.133.386-4.828.201-10.227.201-10.227-1.126-19.146 2.321-30.613 2.505-31.209 2.06 4.027 1.629 25.824 1.629 25.824-.139 1.883.293 4.629.293 4.629.864 6.369.586 10.998.586 10.998 10.258 4.904 47.279-8.547 47.279-8.547-.864-13.883-2.9-44.824-2.9-44.824-.617-17.57-6.016-31.993-12.726-42.513-9.039-14.16-19.961-21.41-19.961-21.41-3.559-2.08-6.583-3.55-9.422-4.687a62.696 62.696 0 014.404 2.004l.026 22.805c-1.83 9.028-3.114 16.601-3.105 16.591-2.044 10.423-3.497 19.021-4.494 25.475l-15.804 7.358-.123-79.574c-8.766-2.29-19.88-8.242-24.395-10.78-.454-1.063-2.373-1.865-3.297-2.735-1.557-1.467-1.426-2.082-3.867-2.718-4.528-1.18-12.605-2.255-17.936-2.22-2.642.017-3.538-.417-6.185-.405-2.203.009-4.411.025-6.611.023-2.364-.002-3.588-.359-6.063-.401H150.145c-4.062.042-7.631.409-12.149.385-6.569-.035-18.069 1.026-24.201 2.544-2.664.66-2.349.991-3.987 2.603-1.003.986-3.233 1.959-3.553 3.109-6.454 3.963-16.246 7.792-24.404 10.625l-.133 79.546-16.74-7.794c-.925-5.712-1.841-11.993-2.178-16.291 0 0-.386-15.229-4.444-28.546l-.031-.093.024-19.16c-3.959 1.628-4.978 2.63-4.978 2.63l.006.022c-6.675 4.612-12.716 11.563-12.716 11.563-19.235 18.217-20.531 60.591-20.531 60.591-.293 16.783-2.313 36.002-2.313 36.002C36.324 400.138 64.09 400 64.09 400c1.296-.432 1.157-3.039 1.157-3.039 0-7.234 1.157-12.586 1.157-12.586.03-9.873.447-18.666.154-21.396.05.723.067 1.832.064 3.238.003-1.404-.015-2.514-.064-3.238-.063-.785-.154-1.141-.293-.879l1.305-4.292-.19-.569s-1.032-5.483-2.13-12.128l23.564 11.001v53.661l-18.165-8.491.042 1.566 11.241 5.252v93.255l-7.402-3.461-.047 1.529 14.331 6.67v73.091l-23.072-10.768c-.096.498-.189.975-.279 1.43l18.238 8.515v4.888c7.16 1.191 15.234 2.145 22.718 2.881v-35.5l23.662 11.001v26.366c1.447.086 2.266.129 2.266.129 41.464 3.471 99.694-6.941 99.694-6.941zm-60.627 6.997v-26.551l23.663-11.001v35.58c-7.395.783-15.435 1.491-23.663 1.972zm-8.846-242.638l23.662-11.004v10.544l-23.662 10.969v-10.509zm32.509 133.81l-23.663 11.053v-81.006l23.663-11.078v81.031zm-5.511 4.127v68.153l-23.663 11.014v-68.169l23.663-10.998zm47.81 93.842s-1.157 2.499-5.601 3.856c0 0-5.361.958-13.98 2.196v-5.016l18.253-8.522c.425 2.458.867 4.951 1.328 7.486zm-1.575-8.93l-23.118 10.79v-73.091l14.789-6.883c1.104 18.05 3.52 41.063 8.329 69.184zm-7.884-119.342s-2.437 15.917-.536 48.647l-7.818 3.655v-93.255l11.296-5.278c-.389 10.222-1.535 37.515-2.942 46.231zm7.413-103.513c-1.162 7.691-1.609 11.885-1.609 11.885s-3.672 11.574-2.516 31.249c0 0 .185 5.401-.201 10.23 0 0-.029.857-.084 2.346l-18.237 8.525v-53.661l22.647-10.574zm-42.392-85.942s.743.441 2.02 1.159l.119 68.097-23.458 10.927-.084-55.753c9.548-2.829 24.28-9.651 21.403-24.43zm-86.397.988a36.407 36.407 0 001.484-.988s-4.042 14.751 19.103 23.871c0 0 .971.399 2.835.918l-.085 55.394-23.458-10.927.121-68.268zm-.122 137.739l23.662 11.078v81.006l-23.662-11.053v-81.031zm29.174 164.325l-23.662-11.014v-68.153l23.662 10.998v68.169zm3.335-206.595l-23.663-10.969V334.54l23.663 11.004v10.509z"/><path d="M171.535 284.026l.084 55.753 23.458-10.927-.119-68.097c-1.277-.718-2.02-1.159-2.02-1.159 2.877 14.779-11.855 21.601-21.403 24.43zM219.564 501.354l7.818-3.655c-1.901-32.73.536-48.647.536-48.647 1.407-8.716 2.553-36.009 2.943-46.23l-11.296 5.278v93.254zM212.683 409.772l18.237-8.525c.055-1.488.084-2.346.084-2.346.386-4.829.201-10.23.201-10.23-1.157-19.675 2.516-31.249 2.516-31.249s.447-4.193 1.609-11.885l-22.647 10.573v53.662zM217.795 583.375c8.619-1.238 13.98-2.196 13.98-2.196 4.444-1.357 5.601-3.856 5.601-3.856a838.21 838.21 0 01-1.328-7.485l-18.253 8.522v5.015zM212.683 579.183l23.118-10.79c-4.809-28.121-7.225-51.134-8.329-69.184l-14.789 6.883v73.091zM115.265 345.084l23.663 10.969v-10.509l-23.663-11.004zM129.963 284.385c-1.864-.52-2.835-.918-2.835-.918-23.146-9.119-19.103-23.871-19.103-23.871-.466.33-.968.659-1.484.988l-.121 68.269 23.458 10.927.085-55.395zM111.931 551.634l23.662 11.014v-68.169l-23.662-10.998zM165.903 562.648l23.663-11.014v-68.153l-23.663 10.998zM130.082 409.401l-23.663-11.078v81.031l23.663 11.053zM88.814 506.092l-14.331-6.67c-.239 7.305-.552 11.624-.552 11.624-2.338 24.657-6.049 46.284-8.189 57.369l23.072 10.768v-73.091zM171.414 490.407l23.663-11.053v-81.031l-23.663 11.078zM88.814 356.111L65.25 345.11c1.098 6.645 2.13 12.128 2.13 12.128l.19.569.139-.458.422 1.264c2.606 9.549 2.175 27.041 2.175 27.041.104 5.824.221 11.013.343 15.627l18.165 8.491v-53.661zM81.933 408.099l-11.241-5.252c.558 20.261 1.203 28.65 1.203 28.65.139 9.842 1.743 17.646 1.743 17.646 1.34 19.781 1.226 37.409.892 48.749l7.402 3.461v-93.254zM235.584 343.876c.997-6.454 2.45-15.052 4.494-25.475-.009.009 1.276-7.563 3.105-16.591l-.026-22.805a62.447 62.447 0 00-4.404-2.004c-6.046-2.421-11.246-3.32-18.929-5.293-.055-.014-.112-.032-.167-.046l.123 79.574 15.804-7.36zM58.354 298.604c4.059 13.316 4.444 28.546 4.444 28.546.337 4.298 1.253 10.578 2.178 16.291l16.74 7.794.133-79.546c-8.105 2.815-14.598 4.646-14.598 4.646-3.973 1.144-6.834 2.164-8.905 3.016l-.024 19.16.032.093zM65.464 569.845c-.757 3.847-1.271 6.136-1.374 6.42l-.386 1.064c2.89 2.408 10.667 4.365 19.998 5.918v-4.888l-18.238-8.514zM186.23 334.54l-23.662 11.004v10.509l23.662-10.969zM171.414 561.631v26.551c8.228-.481 16.268-1.189 23.663-1.972v-35.58l-23.663 11.001zM106.419 550.63v35.498a647.28 647.28 0 0023.662 1.869v-26.366l-23.662-11.001z"/></svg>