<svg xmlns="http://www.w3.org/2000/svg" width="80" height="80" viewBox="619.64 89.445 80 80"><path fill="none" d="M619.64 169.445h2.977v-1.033l2.547 1.033h1.442l-6.966-2.84zM619.64 89.445v20.614l.029-20.614zM694.116 169.445l2.546-1.033v1.033h2.978v-2.84l-6.968 2.84z"/><path fill="none" d="M699.613 89.445l.025 20.614-10.141 4.117-.044-24.731H678.78l.033 16.292-10.145 4.12-.037-20.412h-17.983l-.036 20.412-10.146-4.12.033-16.292h-10.67l-.047 24.731-10.143-4.117v21.388l10.234 4.168v33.829h12.977v-5.406l10.234 4.146v1.26h13.109v-1.26l10.234-4.146v5.406h12.975v-33.829l10.236-4.168V89.445h-.025zm-66.76 46.802l-10.236-4.171v-20.227l10.236 4.166v20.232zm17.85 30.402l-10.236-4.167V131.93l10.236 4.176v30.543zm3.824-50.656l-10.234-4.135v-3.976l10.234 4.148v3.963zm10.224 0v-3.963l10.236-4.148v3.976l-10.236 4.135zm14.063 46.488l-10.236 4.167v-30.543l10.236-4.176v30.552zm17.848-30.406l-10.232 4.171v-20.232l10.232-4.166v20.227z"/><path d="M674.988 107.882l-10.237 4.148v3.963l10.237-4.136zM644.292 111.857l10.235 4.136v-3.963l-10.235-4.148zM694.116 169.445h2.546v-1.033zM686.429 136.247l10.233-4.172v-20.226l-10.233 4.165zM668.578 166.649l10.236-4.168V131.93l-10.236 4.176zM640.466 162.481l10.237 4.168v-30.543l-10.237-4.176zM666.195 168.185v1.26h10.234v-5.406zM650.613 109.856l.036-20.411H640.5l-.034 16.291zM678.814 105.736l-.033-16.291h-10.149l.037 20.411zM699.638 110.059l-.025-20.614h-10.159l.044 24.731zM629.83 89.445h-10.161l-.029 20.614 10.143 4.117zM622.617 169.445h2.547l-2.547-1.033zM619.64 131.447v35.158l6.966 2.84h3.269v-33.829zM642.851 164.039v5.406h10.234v-1.26zM689.404 169.445h3.268l6.968-2.84v-35.158l-10.236 4.169zM622.617 132.075l10.236 4.172v-20.233l-10.236-4.165z"/></svg>