<svg xmlns="http://www.w3.org/2000/svg" viewBox="280.996 153.383 80 80"><path fill-rule="evenodd" clip-rule="evenodd" fill="#585858" d="M280.996 153.383h80v80h-80z"/><path fill-rule="evenodd" clip-rule="evenodd" d="M292.001 153.383h57.991v80h-57.991z"/><path fill="#FFF" d="M298.339 153.383h.601v80h-.601z"/><path fill="#585858" d="M299.081 153.383h.601v80h-.601z"/><path fill="#FFF" d="M307.068 153.383h.601v80h-.601zM315.798 153.383h.601v80h-.601zM324.527 153.383h.601v80h-.601zM333.257 153.383h.601v80h-.601zM341.987 153.383h.601v80h-.601z"/><path fill="#585858" d="M307.811 153.383h.601v80h-.601zM316.54 153.383h.601v80h-.601zM325.27 153.383h.601v80h-.601zM333.999 153.383h.601v80h-.601zM342.729 153.383h.601v80h-.601z"/><path fill-rule="evenodd" clip-rule="evenodd" d="M299.698 153.383h7.354v80h-7.354z"/></svg>