<svg xmlns="http://www.w3.org/2000/svg" viewBox="825.303 524.58 267.003 337.412"><path d="M912.86 533.089c-4.109 2.498-9.525 4.939-15.008 7.108V856.51a415.539 415.539 0 0015.008 1.74V533.089zM930.676 551.958c-9.65-4.606-13.538-10.233-15.008-14.689v321.252c5.695.535 10.931.941 15.008 1.227v-307.79zM948.492 860.83V556.432c-9.266-.866-14.272-2.928-14.272-2.928-.255-.1-.488-.205-.736-.307V859.94c3.523.232 5.66.344 5.66.344 3.036.254 6.163.431 9.348.546zM965.992 860.881V556.379c-5.728.518-10.75.518-15.008.248v304.281c4.915.125 9.952.105 15.008-.027zM984.124 552.144c-6.801 2.791-13.149 3.675-13.149 3.675-.628.085-1.245.161-1.858.234v304.731a419.156 419.156 0 0015.008-.806V552.144zM1001.94 532.706c-1.19-.671-1.882-3.082-1.883-3.082 2.114 10.855-5.27 17.417-13.125 21.259v308.888c5.188-.399 10.23-.871 15.008-1.374V532.706zM1004.748 534.253v323.841a623.18 623.18 0 0015.008-1.841V541.338c-5.576-2.178-11.203-5.033-15.008-7.085z"/><g fill="#FFF"><path d="M913.071 534.2v325.161l2.473.127V533.382c-.794.273-1.616.546-2.473.818zM930.549 555.069V860.86l2.919.089V555.67a211.428 211.428 0 01-2.919-.601zM948.544 559.543v302.398c.769.016 1.539.03 2.311.043V559.653c-.786-.034-1.557-.071-2.311-.11zM966.005 559.49v302.502c.987-.011 1.974-.024 2.961-.037V559.366c-.997.044-1.983.085-2.961.124zM983.968 555.255v305.834l2.964-.094V554.7c-.99.192-1.979.379-2.964.555zM1001.882 533.816v325.691l2.794-.137V534.538a494.187 494.187 0 01-2.794-.722z"/></g><path fill="none" d="M1091.783 663.092c-.864-13.883-2.9-44.824-2.9-44.824-.617-17.57-6.016-31.993-12.726-42.513-9.039-14.16-19.961-21.41-19.961-21.41-11.137-6.51-17.061-7.08-28.352-9.98-8.79-2.258-20.019-8.272-24.562-10.827-.454-1.063-2.373-1.865-3.297-2.735-1.557-1.467-1.426-2.082-3.867-2.718-4.528-1.18-12.605-2.255-17.936-2.22-2.642.017-3.538-.417-6.185-.405-2.203.009-4.411.025-6.611.023-2.364-.002-3.588-.359-6.063-.401H958.164c-4.061.042-7.631.409-12.149.385-6.569-.035-18.069 1.026-24.201 2.544-2.664.66-2.349.991-3.987 2.602-1.003.986-3.233 1.96-3.553 3.109-12.867 7.9-39.002 15.271-39.002 15.271-11.568 3.331-13.883 5.646-13.883 5.646l.006.022c-6.675 4.612-12.716 11.563-12.716 11.563-19.235 18.217-20.531 60.591-20.531 60.591-.293 16.783-2.314 36.002-2.314 36.002 18.51 9.98 46.275 9.842 46.275 9.842 1.296-.432 1.157-3.039 1.157-3.039 0-7.234 1.157-12.586 1.157-12.586.03-9.873.447-18.666.154-21.396.05.723.067 1.832.064 3.238.003-1.404-.015-2.514-.064-3.238-.063-.785-.154-1.141-.293-.879l1.444-4.75.422 1.264c2.606 9.549 2.175 27.041 2.175 27.041.586 32.826 1.589 45.844 1.589 45.844.139 9.842 1.743 17.646 1.743 17.646 2.313 34.137.293 61.902.293 61.902-3.332 35.139-9.456 64.154-9.842 65.219l-.386 1.065c9.256 7.713 68.643 10.797 68.643 10.797 41.463 3.471 99.693-6.941 99.693-6.941 4.442-1.358 5.6-3.856 5.6-3.856-15.811-86.768-9.456-128.23-9.456-128.23 1.743-10.799 3.085-50.133 3.085-50.133.386-4.828.201-10.227.201-10.227-1.126-19.146 2.321-30.613 2.505-31.209 2.06 4.027 1.629 25.824 1.629 25.824-.139 1.883.293 4.629.293 4.629.864 6.369.586 10.998.586 10.998 10.261 4.901 47.282-8.55 47.282-8.55z"/></svg>