<svg xmlns="http://www.w3.org/2000/svg" viewBox="1111.363 524.157 273.844 338.292"><path fill="none" d="M1384.665 664.412s-1.436-19.096-2.453-35.293c0 0 1.726-29.647-15.627-56.117 0 0-5.49-6.648-16.627-16.628v.007c-10.504-6.073-25.037-10.142-25.037-10.142-14.746-2.992-32.314-13.173-32.314-13.173-1.451-1.157-7.42-2.221-7.42-2.221h-25.529v-6.188h-20.34v6.188h-26.537c-3.471.2-7.035 1.064-7.035 1.064-16.781 10.613-44.547 17.94-44.547 17.94-6.371 2.128-13.498 5.599-13.498 5.599v-.031s-4.535 4.921-9.055 8.376c0 0-21.688 16.197-23.91 59.001l-.293 7.805-.586 6.371s-.184 7.914-.863 14.947c0 0-.293 14.068-.973 15.041 0 0 11.184 10.504 38.379 11.568 0 0 6.756.201 9.934-2.406 0 0-.215-1.928.078-7.035 0 0 .4-4.828.787-8.775 0 0-.865-13.684.678-23.91 0 0-.293-1.449 1.25-1.203 2.9 7.805 3.471 27.334 3.471 27.334 2.313 27.766 5.645 66.529 5.645 66.529 3.471 52.061-7.527 108.178-7.527 108.178a114.528 114.528 0 01-1.588 8.098c1.358 13.111 27.766 14.563 27.766 14.563 50.609 4.242 102.578.586 102.578.586 24.68-.478 32.1-5.492 32.1-5.492 7.143-3.084 8.299-8.576 8.299-8.576.586-1.543-.863-5.213-.863-5.213-5.521-32.131-7.914-56.596-7.914-56.596-2.406-26.223-.477-56.117-.477-56.117 2.313-17.646 4.533-51.676 4.533-51.676 1.451-13.496 2.315-29.602 2.315-29.602.863-7.912 2.992-12 2.992-12 .203-.311.406-.641.609-.986-.174.49-.342.988-.5 1.51 0 0 .262.803.631 3.596 0 0 .371 7.666.51 21.256 0 0 .586 7.234.803 15.117 0 0 .939 2.822 7.018 2.744 0 0 16.846 1.65 38.533-8.9-.003-.001 3.036-2.02 2.604-5.138z"/><path d="M1239.981 862.433v.016h15.008v-.062c-4.735.057-9.763.079-15.008.046zM1290.936 532.199h-.633c.217.064.427.129.633.196v-.196z"/><path fill="none" d="M1293.004 533.327a3.836 3.836 0 00-.775-.444V861.09c.786-.049 1.299-.083 1.515-.098V533.746c-.478-.267-.74-.419-.74-.419zM1201.728 533.925v327.332c.98.031 1.958.06 2.937.089V533.039c-.963.298-1.945.593-2.937.886zM1290.303 532.199c-2.173-.639-4.724-1.095-4.724-1.095H1213.12c-3.473.199-7.039 1.065-7.039 1.065l-.049.03h14.934v329.876l1.515.047V532.199h16.301v330.225l1.2.009V532.199h16.301V862.37c.616-.008 1.226-.017 1.831-.027V532.199h16.301v329.729a474 474 0 001.515-.055V532.199h14.373z"/><path d="M1201.856 861.175V534.648c-4.703 2.587-9.92 4.935-15.008 6.977v318.309c2.616.365 4.367.463 4.367.463 3.547.297 7.1.554 10.641.778zM1219.672 532.199h-13.641c-.447.282-.905.562-1.367.839v328.307c5.054.294 10.075.52 15.008.688V532.199zM1237.488 532.199h-15.008v329.923c5.13.153 10.154.247 15.008.292V532.199zM1254.989 862.387V532.199h-15.008v330.234c5.245.033 10.273.011 15.008-.046zM1273.12 532.199h-15.008v330.144c5.495-.087 10.544-.22 15.008-.37V532.199zM1290.936 532.395a25.132 25.132 0 00-.633-.196h-14.375v329.675a694.865 694.865 0 0015.008-.706V532.395zM1293.745 533.746v327.246l.124-.009c5.908-.115 10.818-.491 14.884-.994V541.076a161.228 161.228 0 01-15.008-7.33z"/><g fill="#FFF"><path d="M1203.098 534.672V861.2l1.293.081V533.949c-.425.244-.858.484-1.293.723zM1219.718 532.224v329.834l2.763.042V532.224h-2.763zM1237.3 532.224v330.215l2.723.01V532.224h-2.723zM1254.983 532.224v330.187l3.13-.016V532.224h-3.13zM1273.112 532.224v329.774l2.544-.044v-329.73h-2.544zM1291.017 532.419v328.773l2.727-.078V532.907a47.98 47.98 0 00-2.727-.488z"/></g></svg>