<?xml version="1.0" encoding="UTF-8"?>
<!DOCTYPE svg PUBLIC "-//W3C//DTD SVG 1.1//EN" "http://www.w3.org/Graphics/SVG/1.1/DTD/svg11.dtd">
<!-- Creator: CorelDRAW 2019 -->
<svg xmlns="http://www.w3.org/2000/svg" xml:space="preserve" width="60.96mm" height="33.8575mm" version="1.1" style="shape-rendering:geometricPrecision; text-rendering:geometricPrecision; image-rendering:optimizeQuality; fill-rule:evenodd; clip-rule:evenodd"
viewBox="0 0 6081.77 3377.85"
 xmlns:xlink="http://www.w3.org/1999/xlink">
 <defs>
  <style type="text/css">
   <![CDATA[
    .fil0 {fill:#FEFEFE}
   ]]>
  </style>
 </defs>
 <g id="Layer_x0020_1">
  <metadata id="CorelCorpID_0Corel-Layer"/>
  <path class="fil0" d="M2069.49 189.65c0,134.38 6.83,222.94 116.03,331.66 67.65,67.37 126.29,105.15 216.17,147.05 367.84,171.44 904.53,167.86 1272.62,2.67 154.05,-69.13 337.97,-211.17 337.97,-396.91 0,-136.56 -1.4,-92.39 -65.2,-145.98 -38.56,-32.39 -34.01,-46.41 -88.53,-63.51 -305.2,-95.73 -1371.78,-74.35 -1615.61,-5.62 -35.48,10 -173.45,103.41 -173.45,130.63z"/>
  <path class="fil0" d="M-0 3154.51c72.31,38.26 582.54,169.63 666.51,186.62 106.23,21.5 297.78,51.79 414.69,24.55 8.69,-37.3 15.79,-141.68 16.9,-185.84 1.64,-65.72 16.89,-118.9 16.89,-185.83 -78.84,32.56 -430.98,-74.96 -535.72,-97.8l-409.64 -88.73c-46.67,-9.75 -87.18,-24.64 -144.29,-24.64 0,116.06 -25.34,318.84 -25.34,371.66z"/>
  <path class="fil0" d="M4966.78 2994.03l33.79 371.66c250.03,58.25 731.12,-108.19 973.16,-175.61 39.87,-11.1 76.53,-18.9 108.04,-35.57 0,-61.44 -25.34,-240.65 -25.34,-371.66 -54.77,0 -95.73,14.38 -137.27,23.23 -51.11,10.89 -87.23,19.23 -139.37,29.56 -189.31,37.53 -700.68,182.17 -813.01,158.39z"/>
 </g>
</svg>
