<?xml version="1.0" encoding="UTF-8"?>
<!DOCTYPE svg PUBLIC "-//W3C//DTD SVG 1.1//EN" "http://www.w3.org/Graphics/SVG/1.1/DTD/svg11.dtd">
<!-- Creator: CorelDRAW 2019 -->
<svg xmlns="http://www.w3.org/2000/svg" xml:space="preserve" width="210mm" height="297mm" version="1.1" style="shape-rendering:geometricPrecision; text-rendering:geometricPrecision; image-rendering:optimizeQuality; fill-rule:evenodd; clip-rule:evenodd"
viewBox="0 0 21000 29700"
 xmlns:xlink="http://www.w3.org/1999/xlink">
 <defs>
  <style type="text/css">
   <![CDATA[
    .fil1 {fill:black}
    .fil0 {fill:lime}
   ]]>
  </style>
 </defs>
 <g id="Layer_x0020_1">
  <metadata id="CorelCorpID_0Corel-Layer"/>
  <path class="fil0" d="M7544.26 2259.08l694.26 0c20.07,0 30.73,-8.46 50.8,-8.46l167.12 4.25c234.65,11.8 504.2,4.21 747.28,4.21 0,123.65 -94.77,248.53 -179.19,303.41 -145.53,94.62 -467.98,179.19 -659.01,179.19 -197.71,0 -482.6,-86.3 -635.62,-177.17 -88.63,-52.63 -185.64,-179.62 -185.64,-305.43z"/>
  <path class="fil1" d="M5325.91 5237.31c72.48,38.35 583.9,170.03 668.07,187.06 106.48,21.55 298.48,51.91 415.66,24.61 8.71,-37.39 15.83,-142.01 16.94,-186.27 1.64,-65.87 16.93,-119.18 16.93,-186.26 -79.02,32.64 -431.99,-75.14 -536.97,-98.03l-410.6 -88.94c-46.78,-9.77 -87.38,-24.7 -144.63,-24.7 0,116.33 -25.4,319.59 -25.4,372.53z"/>
  <path class="fil1" d="M10304.31 5076.46l33.87 372.53c250.61,58.39 732.83,-108.44 975.44,-176.02 39.96,-11.13 76.71,-18.94 108.29,-35.65 0,-61.58 -25.4,-241.21 -25.4,-372.53 -54.9,0 -95.95,14.41 -137.59,23.28 -51.23,10.92 -87.43,19.27 -139.7,29.63 -189.75,37.62 -702.32,182.6 -814.91,158.76z"/>
  <path class="fil1" d="M7544.34 2260.9l694.26 0c20.07,0 30.73,-8.46 50.8,-8.46l167.12 4.25c234.65,11.8 504.2,4.21 747.28,4.21 0,123.65 -94.77,248.53 -179.19,303.41 -145.53,94.62 -467.98,179.19 -659.01,179.19 -197.71,0 -482.6,-86.3 -635.62,-177.17 -88.63,-52.63 -185.64,-179.62 -185.64,-305.43zm815.67 -186.26l25.28 0c54.06,0.9 80.8,8.69 132.42,8.76 48.08,0.06 96.33,-0.29 144.42,-0.49 57.82,-0.24 77.36,9.22 135.08,8.85 116.44,-0.74 292.83,22.69 391.78,48.49 53.3,13.9 50.47,27.33 84.52,59.41 22.98,21.64 74.22,41.34 74.22,69.71 0,143.79 -0.63,217.3 -120.63,336.57 -397.52,395.12 -1521.56,357.1 -1784.23,-99.64 -47.49,-82.58 -42.46,-147.1 -42.46,-236.93 0,-27.76 54.83,-50.67 78.48,-73.91 35.82,-35.19 28.95,-42.44 87.11,-56.83 133.94,-33.15 385.14,-56.32 528.61,-55.58 98.73,0.51 176.7,-7.49 265.4,-8.41z"/>
 </g>
</svg>
