<svg xmlns="http://www.w3.org/2000/svg" id="prefix__svg1682" viewBox="0 0 6081.77 3377.85" version="1.1" height="127.965" width="230.4" xml:space="preserve" shape-rendering="geometricPrecision" text-rendering="geometricPrecision" image-rendering="optimizeQuality" fill-rule="evenodd" clip-rule="evenodd"><defs id="prefix__defs1672"><style id="style1670" type="text/css">.prefix__fil0{fill:#fefefe}</style><style type="text/css" id="style2536">.prefix__fil0{fill:#81c048}</style><clipPath id="prefix__id0"><path id="prefix__rect2538" d="M0 0h385.67v157.92H0z"/></clipPath></defs><g id="prefix__g2747"><path id="prefix__path1675" d="M2069.49 189.65c0 134.38 6.83 222.94 116.03 331.66 67.65 67.37 126.29 105.15 216.17 147.05 367.84 171.44 904.53 167.86 1272.62 2.67 154.05-69.13 337.97-211.17 337.97-396.91 0-136.56-1.4-92.39-65.2-145.98-38.56-32.39-34.01-46.41-88.53-63.51-305.2-95.73-1371.78-74.35-1615.61-5.62-35.48 10-173.45 103.41-173.45 130.63z" class="prefix__fil0" fill="red"/><path id="prefix__path1677" d="M0 3154.51c72.31 38.26 582.54 169.63 666.51 186.62 106.23 21.5 297.78 51.79 414.69 24.55 8.69-37.3 15.79-141.68 16.9-185.84 1.64-65.72 16.89-118.9 16.89-185.83-78.84 32.56-430.98-74.96-535.72-97.8l-409.64-88.73c-46.67-9.75-87.18-24.64-144.29-24.64C25.34 2898.9 0 3101.68 0 3154.5z" class="prefix__fil0" fill="red"/><path id="prefix__path1679" d="M4966.78 2994.03l33.79 371.66c250.03 58.25 731.12-108.19 973.16-175.61 39.87-11.1 76.53-18.9 108.04-35.57 0-61.44-25.34-240.65-25.34-371.66-54.77 0-95.73 14.38-137.27 23.23-51.11 10.89-87.23 19.23-139.37 29.56-189.31 37.53-700.68 182.17-813.01 158.39z" class="prefix__fil0" fill="red"/><g id="prefix__g2564" transform="matrix(5.08123 0 0 5.08123 1703.845 -913.102)" clip-rule="evenodd" fill-rule="evenodd" image-rendering="optimizeQuality" shape-rendering="geometricPrecision" text-rendering="geometricPrecision"><path class="prefix__fil0" d="M100.258 215.324h136.31c3.94 0 6.03-1.66 9.97-1.66l32.81.83c46.07 2.32 99 .83 146.72.83 0 24.28-18.61 48.8-35.18 59.57-28.57 18.58-91.88 35.18-129.39 35.18-38.82 0-94.76-16.94-124.8-34.79-17.4-10.33-36.45-35.27-36.45-59.97zm160.15-36.57h4.96c10.61.18 15.86 1.71 26 1.72 9.44.01 18.91-.06 28.36-.1 11.35-.05 15.19 1.81 26.52 1.74 22.86-.15 57.5 4.46 76.92 9.52 10.47 2.73 9.91 5.37 16.59 11.66 4.51 4.25 14.57 8.12 14.57 13.69 0 28.23-.12 42.67-23.68 66.08-78.05 77.58-298.75 70.11-350.32-19.56-9.32-16.21-8.34-28.88-8.34-46.52 0-5.45 10.77-9.95 15.41-14.51 7.03-6.91 5.68-8.33 17.1-11.16 26.3-6.51 75.62-11.06 103.79-10.91 19.38.1 34.69-1.47 52.11-1.65z" id="prefix__path2547"/></g></g></svg>