<svg xmlns="http://www.w3.org/2000/svg" width="230.4" height="284.29" viewBox="0 0 6081.77 7504.28" shape-rendering="geometricPrecision" text-rendering="geometricPrecision" image-rendering="optimizeQuality" fill-rule="evenodd" clip-rule="evenodd"><defs><style>.prefix__fil0{fill:#ffffff}</style></defs><g id="prefix__colorPrimario"><path id="prefix__colorPrimarioFront" d="M4871.09 3453.04c6.22-1.64 2.81 1.07 0 0zM4011.44 0c47.13 27.14 97.87 48.99 147.12 76.73 236.81 133.43 447.57 179.4 705.79 265.6 64.86 21.66 367.32 128.01 413.22 169.62 34.24 31.04 61.39 67.21 97.16 97.11 150.23 125.59 263.67 237.86 367.64 409.47 98.08 161.89 168.21 352.29 212.15 564.96 50.16 242.75 39.4 350.31 64.56 518.29 16.42 109.61 14.83 334.23 33.63 456.5 11.74 76.34 7.69 196.13 12.6 257.49 4.65 58.17 16.46 99.86 16.46 169.36-36.72 19.43-62.42 22.58-106.64 36.96-56.72 18.46-281.26 97.32-324.15 81.34-11.84 14.98-5.82 15.16-50.49 25.97-51.07 12.36-118.22 37.38-152.23 24.71-19.62 24.84 25.13 9.08-39.37 20.94-16.41 3.01-22.76 4.28-45.1-4.05-19.84 25.13 3.63 4.56-25.27 16.6-3.43 1.43-25.46 6.35-28.48 6.72-34.33 4.4-27.8 4.48-56.05-6.42-17.65 26.62 14.73 9.28-33.5 17.46l-116.52 5.81c-175.34 1.16-88.05-45.34-137.53-344.62-12.64-76.49 6.71-366.71.4-489.64-2.67-52.07-15.59-93.03-25.39-135.09l-14.74 52.84c-3.52 23.97-5.62 44.37-8.13 59.44-26.25 157.45-36.27 440.49-36.27 605.7l1.14 194.9c-1.57 62.91-6.5 45.49-16.37 50.06 8.49 27.22 12.09 211.46 3.44 234.83-3.49 9.45-1.65 12.62.57 13.45-2.65.71-7.08 2.2-14.07 5.13 25.11 65.02-24.9 660.78-35.26 758.79-57.55 544.28-58.6 1334.76 18.78 1884.62 16.13 114.62 34.07 232.61 49.73 347.27 28.2 206.34 69.56 481.98 110.9 683.11 11.31 55.05 44.55 110.97-2.44 150.76-93.3 79.02-667.82 143.88-823.36 164.97-142.61 19.33-620.79 48.25-745.92 48.1-132.33-.17-264.69.28-397.02-.02-76.94-.17-118.84 8.77-194.24 8.49-265.12-.99-310.84-7.2-574.72-25.07-196.98-13.34-873.33-97.85-1048.97-142.05-211.41-53.2-154.22-112.1-131.44-211.16 48.54-211.07 124.51-785.46 159.12-1031.91l50.47-549.26c1-33.35-1.56-68.56-.56-101.91 1.25-41.69 7.75-42.23 9-83.92 3.88-129.63-.27-266.78-.27-397.28 0-235.71-7.29-351.54-24.7-575.02-13.46-172.74-83.5-845.3-51.37-928.52-26.79-17.76-9.09 14.71-17.48-33.47-.2-1.12.21-38.29.3-42.39 1.14-52.67-1.21-96.7-3.7-136.32-.94-8.75-1.48-17.52-1.68-26.28-1.64-25.77-2.99-49.92-3.02-73.79-.35-246.98 3.11-519.09-32-770.47l-26.85-133.64c-11.91 51.13-25.58 95.87-25.63 160.2l-20.4 691.01c-6.42 64.03 9.89 100.8-39.68 110.5-27.71 5.41-149.84 2.51-184.87 1.52-36.8-1.06-127.45-3.25-151.76-34.03-21.87 8.45-15.78 13.82-46.15 4.8-48.63-14.44-10.08 3.36-29.87-21.69-37.67 14.55-89.21-7.56-126.7-16.94-54.81-13.71-97.21-15.55-118.26-42.19-41.74 15.55-363.79-92.27-397-109.85 0-67.05 13.81-117.91 16.93-177.35 1.76-33.28-2.51-67.04 1.2-100.17 23.36-208.24 26.16-419.77 48.16-627.59 6.75-63.76 5.7-117.12 14.52-179.76 33.87-240.53 47.87-407.39 140.02-637.1 36.56-91.16 75.85-178.94 128.92-259.64 69.66-105.95 167.38-238.77 265.63-317.21 202.3-161.5 106.49-150.01 338.02-244.82 287.14-117.59 573.79-178.19 795.02-277.73C1801.59 139.85 1973.27 54.6 2069.56.24c.78 124.46 11.72 209.89 115.97 313.69 67.65 67.37 126.29 105.15 216.17 147.05 367.84 171.44 904.53 167.86 1272.62 2.67 154.05-69.13 337.97-211.17 337.97-396.91 0-29.98-.07-51.24-.85-66.75z"/></g></svg>