<?xml version="1.0" encoding="utf-8"?>
<!-- Generator: Adobe Illustrator 16.0.3, SVG Export Plug-In . SVG Version: 6.00 Build 0)  -->
<!DOCTYPE svg PUBLIC "-//W3C//DTD SVG 1.1//EN" "http://www.w3.org/Graphics/SVG/1.1/DTD/svg11.dtd">
<svg version="1.1" xmlns="http://www.w3.org/2000/svg" xmlns:xlink="http://www.w3.org/1999/xlink" x="0px" y="0px"
	 width="265.948px" height="335.955px" viewBox="24.295 312.958 265.948 335.955"
	 enable-background="new 24.295 312.958 265.948 335.955" xml:space="preserve">
<g id="dorso_1_">
</g>
<g id="frente_1_">
	<g id="camiseta">
		<g id="cuerpo">
			<path id="trama" fill="#FFFFFF" d="M254.656,341.765c-11.137-6.51-17.061-7.08-28.352-9.98
				c-11.291-2.9-26.608-12.001-26.608-12.001c4.195,21.549-29.062,26.177-29.062,26.177c-23.431,3.177-36.728-2.314-36.728-2.314
				c-23.138-9.116-19.097-23.863-19.097-23.863c-11.862,8.392-41.078,16.629-41.078,16.629c-11.568,3.332-13.883,5.646-13.883,5.646
				c2.222,7.667,5.307,16.721,5.307,16.721c4.057,13.312,4.442,28.537,4.442,28.537c0.771,9.841,4.581,30.079,4.581,30.079
				l0.433,1.296c2.606,9.549,2.175,27.041,2.175,27.041c0.586,32.825,1.589,45.844,1.589,45.844
				c0.139,9.842,1.743,17.646,1.743,17.646c2.313,34.137,0.293,61.902,0.293,61.902c-3.332,35.139-9.456,64.153-9.842,65.218
				s-0.386,1.064-0.386,1.064c9.256,7.713,68.644,10.798,68.644,10.798c41.463,3.471,99.693-6.941,99.693-6.941
				c4.442-1.357,5.6-3.856,5.6-3.856c-15.811-86.768-9.456-128.23-9.456-128.23c1.743-10.798,3.085-50.133,3.085-50.133
				c0.386-4.828,0.201-10.227,0.201-10.227c-1.157-19.667,2.514-31.236,2.514-31.236s1.543-14.469,6.355-39.011
				C246.805,378.585,250.754,355.354,254.656,341.765z"/>
			<linearGradient id="base_3_" gradientUnits="userSpaceOnUse" x1="157.2532" y1="319.7832" x2="157.2532" y2="648.9126">
				<stop  offset="0.2808" style="stop-color:#FFFFFF"/>
				<stop  offset="0.3737" style="stop-color:#CECECE"/>
				<stop  offset="0.5018" style="stop-color:#909090"/>
				<stop  offset="0.6248" style="stop-color:#5C5C5C"/>
				<stop  offset="0.7394" style="stop-color:#343434"/>
				<stop  offset="0.8435" style="stop-color:#181818"/>
				<stop  offset="0.9338" style="stop-color:#060606"/>
				<stop  offset="1" style="stop-color:#000000"/>
			</linearGradient>
			<path id="base_1_" fill="url(#base_3_)" d="M254.656,341.765c-11.137-6.51-17.061-7.08-28.352-9.98
				c-11.291-2.9-26.608-12.001-26.608-12.001c4.195,21.549-29.062,26.177-29.062,26.177c-23.431,3.177-36.728-2.314-36.728-2.314
				c-23.138-9.116-19.097-23.863-19.097-23.863c-11.862,8.392-41.078,16.629-41.078,16.629c-11.568,3.332-13.883,5.646-13.883,5.646
				c2.222,7.667,5.307,16.721,5.307,16.721c4.057,13.312,4.442,28.537,4.442,28.537c0.771,9.841,4.581,30.079,4.581,30.079
				l0.433,1.296c2.606,9.549,2.175,27.041,2.175,27.041c0.586,32.825,1.589,45.844,1.589,45.844
				c0.139,9.842,1.743,17.646,1.743,17.646c2.313,34.137,0.293,61.902,0.293,61.902c-3.332,35.139-9.456,64.153-9.842,65.218
				s-0.386,1.064-0.386,1.064c9.256,7.713,68.644,10.798,68.644,10.798c41.463,3.471,99.693-6.941,99.693-6.941
				c4.442-1.357,5.6-3.856,5.6-3.856c-15.811-86.768-9.456-128.23-9.456-128.23c1.743-10.798,3.085-50.133,3.085-50.133
				c0.386-4.828,0.201-10.227,0.201-10.227c-1.157-19.667,2.514-31.236,2.514-31.236s1.543-14.469,6.355-39.011
				C246.805,378.585,250.754,355.354,254.656,341.765z"/>
		</g>
		<g id="manga_frente">
			<g id="base">
				<path fill="#FFFFFF" d="M73.039,423.056c-0.063-0.786-0.154-1.141-0.293-0.879C72.885,422.146,72.977,422.47,73.039,423.056z"/>
				<path fill="#FFFFFF" d="M72.885,444.451c0.03-9.872,0.447-18.665,0.154-21.396C73.24,425.94,72.915,435.026,72.885,444.451z"/>
				<path fill="#FFFFFF" d="M65.172,358.794c0,0-3.085-9.07-5.307-16.721c-6.679,4.612-12.726,11.569-12.726,11.569
					c-19.235,18.217-20.531,60.59-20.531,60.59c-0.293,16.783-2.313,36.003-2.313,36.003c18.51,9.98,46.275,9.842,46.275,9.842
					c1.296-0.433,1.157-3.039,1.157-3.039c0-7.234,1.157-12.587,1.157-12.587c0.03-9.409,0.354-18.495,0.154-21.396
					c-0.063-0.586-0.154-0.91-0.293-0.879l1.449-4.767c0,0-3.81-20.254-4.581-30.079C69.615,387.331,69.229,372.091,65.172,358.794z
					"/>
				<path fill="#FFFFFF" d="M290.243,450.513c-0.864-13.883-2.9-44.825-2.9-44.825c-0.617-17.57-6.016-31.993-12.726-42.513
					c-9.039-14.16-19.961-21.41-19.961-21.41c-3.918,13.59-7.852,36.82-7.852,36.82c-4.828,24.542-6.354,39.011-6.354,39.011
					c2.066,3.995,1.635,25.837,1.635,25.837c-0.139,1.882,0.293,4.628,0.293,4.628c0.864,6.37,0.586,10.998,0.586,10.998
					C253.222,463.964,290.243,450.513,290.243,450.513z"/>
			</g>
		</g>
		<g id="cuello">
			<path id="cuello-exterior" fill="#999999" d="M156.655,312.958h1.115c2.388,0.039,3.569,0.363,5.85,0.366
				c2.123,0.002,4.253-0.012,6.379-0.021c2.553-0.011,3.417,0.386,5.966,0.37c5.144-0.032,12.937,0.948,17.305,2.024
				c2.355,0.581,2.229,1.143,3.731,2.479c1.015,0.904,3.278,1.727,3.278,2.912c0,6.005-0.025,9.075-5.327,14.053
				c-17.558,16.498-67.209,14.91-78.811-4.159c-2.095-3.448-1.876-6.142-1.876-9.894c0-1.159,2.424-2.116,3.468-3.085
				c1.582-1.469,1.276-1.771,3.847-2.373c5.917-1.385,17.011-2.352,23.35-2.321c5.005,0.024,7.12-0.306,11.722-0.351H156.655z"/>
			<g id="cuello-interior">
				<path fill="#353535" d="M120.627,320.733h30.665c0.887,0,1.357-0.352,2.243-0.352l7.381,0.177
					c10.365,0.494,22.272,0.175,33.006,0.175c0,5.165-4.186,10.379-7.913,12.67c-6.428,3.951-20.671,7.481-29.109,7.481
					c-8.733,0-21.317-3.602-28.076-7.398c-3.914-2.197-8.201-7.502-8.201-12.754L120.627,320.733z"/>
			</g>
		</g>
	</g>
</g>
</svg>
