<?xml version="1.0" encoding="utf-8"?>
<!-- Generator: Adobe Illustrator 16.0.3, SVG Export Plug-In . SVG Version: 6.00 Build 0)  -->
<!DOCTYPE svg PUBLIC "-//W3C//DTD SVG 1.1//EN" "http://www.w3.org/Graphics/SVG/1.1/DTD/svg11.dtd">
<svg version="1.1" xmlns="http://www.w3.org/2000/svg" xmlns:xlink="http://www.w3.org/1999/xlink" x="0px" y="0px"
	 width="272.686px" height="337.104px" viewBox="309.848 312.688 272.686 337.104"
	 enable-background="new 309.848 312.688 272.686 337.104" xml:space="preserve">
<g id="dorso_1_">
	<g id="camiseta_1_">
		<g id="cuerpo_1_">
			<path id="base_2_" fill="#FFFFFF" d="M360.952,423.041c2.9,7.805,3.471,27.333,3.471,27.333
				c2.313,27.766,5.646,66.529,5.646,66.529c3.471,52.061-7.527,108.179-7.527,108.179c-0.694,4.396-1.589,8.098-1.589,8.098
				c1.357,13.111,27.766,14.562,27.766,14.562c50.61,4.242,102.578,0.586,102.578,0.586c24.681-0.478,32.101-5.491,32.101-5.491
				c7.142-3.085,8.299-8.576,8.299-8.576c0.586-1.543-0.864-5.214-0.864-5.214c-5.521-32.131-7.913-56.596-7.913-56.596
				c-2.406-26.223-0.478-56.117-0.478-56.117c2.313-17.646,4.534-51.675,4.534-51.675c1.45-13.497,2.314-29.602,2.314-29.602
				c0.863-7.913,2.992-12.001,2.992-12.001c6.078-9.302,13.111-35.432,13.111-35.432c3.764-16.875,2.406-43.392,2.406-43.392
				c-10.504-6.078-25.051-10.15-25.051-10.15c-14.746-2.992-32.315-13.173-32.315-13.173c-1.45-1.157-7.42-2.221-7.42-2.221h-66.329
				h-6.077c-3.471,0.2-7.034,1.064-7.034,1.064c-16.782,10.613-44.548,17.94-44.548,17.94c-6.371,2.128-13.497,5.599-13.497,5.599
				c-6.557,11.77,4.534,55.531,4.534,55.531C354.304,411.903,360.952,423.041,360.952,423.041z"/>
			<path fill="#999999" d="M404.017,319.753c0,0,3.563-0.864,7.034-1.064h6.077h66.329c0,0,3.091,0.553,5.365,1.294
				c-0.688-0.77-2.142-1.4-2.899-2.076c-1.502-1.337-1.376-1.898-3.731-2.479c-4.368-1.075-12.161-2.056-17.305-2.024
				c-2.549,0.016-3.413-0.381-5.967-0.369c-2.126,0.009-4.257,0.023-6.379,0.021c-2.281-0.003-3.462-0.327-5.85-0.366h-1.115h-0.003
				c-4.603,0.045-6.717,0.375-11.723,0.352c-6.338-0.031-17.433,0.936-23.35,2.32c-2.57,0.602-2.265,0.904-3.847,2.373
				c-0.807,0.749-2.432,1.49-3.132,2.323C403.687,319.955,403.856,319.855,404.017,319.753z"/>
		</g>
		<g id="manga_dorso">
			<path fill="#FFFFFF" d="M345.528,343.261c-6.557,11.77,4.534,55.531,4.534,55.531c4.242,13.111,10.891,24.249,10.891,24.249
				c-1.542-0.247-1.249,1.203-1.249,1.203c-1.543,10.227-0.679,23.909-0.679,23.909c-0.386,3.948-0.787,8.776-0.787,8.776
				c-0.293,5.106-0.077,7.034-0.077,7.034c-3.178,2.607-9.934,2.406-9.934,2.406c-27.195-1.064-38.379-11.568-38.379-11.568
				c0.679-0.973,0.973-15.04,0.973-15.04c0.679-7.034,0.863-14.947,0.863-14.947l0.586-6.371l0.293-7.805
				c2.222-42.805,23.91-59.002,23.91-59.002C340.992,348.182,345.528,343.261,345.528,343.261z"/>
			<path fill="#FFFFFF" d="M532.39,423.58c1.619-5.321,4.072-8.73,6.324-14.839c3.054-8.269,4.612-15.688,6.664-21.133
				c3.764-16.875,2.406-43.391,2.406-43.391c11.137,9.98,16.628,16.628,16.628,16.628c17.354,26.47,15.626,56.117,15.626,56.117
				c1.019,16.196,2.453,35.293,2.453,35.293c0.432,3.116-2.607,5.137-2.607,5.137c-21.688,10.551-38.532,8.9-38.532,8.9
				c-6.078,0.077-7.019-2.745-7.019-2.745c-0.216-7.883-0.802-15.117-0.802-15.117c-0.139-13.59-0.51-21.256-0.51-21.256
				C532.652,424.383,532.39,423.58,532.39,423.58z"/>
		</g>
	</g>
</g>
<g id="frente_1_">
</g>
</svg>
