<svg xmlns="http://www.w3.org/2000/svg" width="265.9" height="336.4"><path fill="#FFF" d="M213 129.4h-3.8L185.6 27l-23.7 102.5-79.9-.3 64.7 65.4-24.3 103.6 63.1-64.3 24.9 25.4c-3.6-42-.4-62.4-.4-62.4 1.7-10.8 3.1-50.2 3.1-50.2.4-4.8.2-10.2.2-10.2-.2-2.4-.3-4.8-.3-7.1z"/><path d="M185.6 242.6l-73.7 75.1 28.4-121.1-74.9-75.7 92.4.2 25.3-109.6c-2.3-1.2-4.3-2.3-5.6-3-.1-.2-.3-.5-.5-.7-1.2-.7-2-1.1-2-1.1 2.7 14-10.4 20.9-19.9 24l-14 60.5-94.1-.4c-.9-5.8-1.9-12.2-2.2-16.6 0 0-.4-15.3-4.4-28.6 0 0-2.9-8.5-5.1-15.9-6.6 4.6-12.4 11.4-12.4 11.4C3.6 59.4 2.3 101.7 2.3 101.7 2 117.4.3 135.3 0 137.5c18.5 9.7 45.7 9.6 45.7 9.6 1.3-.4 1.2-3 1.2-3 0-7.2 1.2-12.6 1.2-12.6 0-9.4.4-18.5.2-21.4-.1-.6-.2-.9-.3-.9l1.4-4.8.4 1.1.2-.5.4 1.3c2.6 9.5 2.2 27 2.2 27 .1 4.5.2 8.7.3 12.5l61.3 62L84.7 333c15.4 1.6 29.4 2.3 29.4 2.3 5.4.5 11.1.7 16.9.7l54.6-55.7 31.8 32.4c-2.7-16.4-4.7-31-6-43.9l-25.8-26.2zM262.7 92.6c-.6-17.3-5.8-31.5-12.4-42-9-14.1-19.9-21.4-19.9-21.4-.2-.1-.3-.2-.5-.3-2.8 9.8-5.6 24.3-6.9 31.7l-8.9-38.4c-3.6-1-7.4-1.8-12.1-3-4.2-1.1-9-3-13.3-5l22.2 96.3 2.3 10.1c.7-10.1 2.4-15.8 2.5-16.1.1.2.2.5.3.8 0-.1.1-.2.1-.3 2.1 4 1.6 25.8 1.6 25.8-.1 1.9.3 4.6.3 4.6.7 5.3.6 9.4.6 10.6 10.8 4.4 46.9-8.7 46.9-8.7-.8-13.7-2.8-44.7-2.8-44.7z"/></svg>