<svg xmlns="http://www.w3.org/2000/svg" width="272.7" height="337.3"><path d="M113 318.1L141.4 197l-74.9-75.7 92.4.2 25.6-110.9c-2.5-1.3-3.9-2.2-3.9-2.2-1.5-1.2-7.4-2.2-7.4-2.2H162l-19.7 85.3L42 91.2l-1.8-5.1S29.4 43.3 35.4 31c-.9 1-4.9 5.1-8.9 8.2 0 0-21.7 16.2-23.9 59l-.3 7.8-.6 6.4s-.2 7.9-.9 14.9c0 0-.3 13.4-.9 14.9.8.7 12.1 10.5 38.4 11.5 0 0 6.7.2 9.9-2.4 0-.5-.2-2.5.1-6.9 0 0 .4-4.8.8-8.8 0 0-.9-13.7.7-23.9 0 0-.1-.3 0-.6 0-.4.3-.9 1.3-.8 2.9 7.8 3.5 27.4 3.5 27.4.3 3.2.5 6.5.8 9.9l59.8 60.4-29.9 127.7c12 .8 23.9 1.3 35 1.5 1.8 0 3.6 0 5.3.1h5.5l55.5-56.6 34.1 34.7c-3.2-18.5-5.3-34.4-6.5-44.4l-27.5-28-73.7 75.1zM222.7 110.9s.3.8.6 3.6c0 0 .4 7.7.5 21.3 0 0 .6 7.2.8 15.1 0 0 .9 2.8 7 2.7 0 0 16.8 1.7 38.5-8.9.6-.5 2.8-2.3 2.4-5 0 0-1.4-19.1-2.5-35.3 0 0 1.7-29.6-15.6-56.1 0 0-5.4-6.6-16.4-16.5.1 3.3 1.1 27.3-2.4 43-1.6 4.2-2.9 9.6-4.8 15.6L215 22.2c-1.4-.4-2.3-.7-2.3-.7-8.1-1.6-17-5.4-23.4-8.5l22.6 97.8 2.4 10.6h5c.9-7.2 2.9-10.9 2.9-10.9.2-.3.4-.6.6-1 0 .1 0 .1-.1.2.1-.1.2-.2.2-.4.1.6 0 1.1-.2 1.6z"/><path fill="#FFF" d="M210.2 129.4L186.5 26.9l-23.7 102.5-79.8-.2 64.7 65.4-24.3 103.6 63.1-64.3 26.6 27.2c-.1-.5-.1-.8-.1-.8-2.4-26.2-.5-56.2-.5-56.2v-.2-.1c.4-3.3.9-7.1 1.3-11.2 1.8-17.9 3.2-40.1 3.2-40.1v-.2-.1c.1-.8.2-1.7.3-2.5v-.5c.7-7.1 1.2-14.6 1.6-19.7l-8.7-.1z"/></svg>