<?xml version="1.0" encoding="utf-8"?>
<!-- Generator: Adobe Illustrator 16.0.3, SVG Export Plug-In . SVG Version: 6.00 Build 0)  -->
<!DOCTYPE svg PUBLIC "-//W3C//DTD SVG 1.1//EN" "http://www.w3.org/Graphics/SVG/1.1/DTD/svg11.dtd">
<svg version="1.1" xmlns="http://www.w3.org/2000/svg" xmlns:xlink="http://www.w3.org/1999/xlink" x="0px" y="0px"
	 width="272.687px" height="337.292px" viewBox="317 300 272.687 337.292" enable-background="new 317 300 272.687 337.292"
	 xml:space="preserve">
<g id="Capa_1">
</g>
<g id="Capa_2">
	<path fill="none" d="M589.645,439.756c0,0-1.436-19.096-2.453-35.293c0,0,1.727-29.647-15.627-56.117c0,0-5.49-6.648-16.627-16.628
		c0,0,0,0.006,0,0.007c-10.504-6.073-25.037-10.142-25.037-10.142c-14.746-2.992-32.314-13.173-32.314-13.173
		c-1.451-1.157-7.42-2.221-7.42-2.221h-25.529V300h-20.34v6.188h-20.461h-6.076c-3.471,0.2-7.035,1.064-7.035,1.064
		c-16.781,10.613-44.547,17.94-44.547,17.94c-6.371,2.128-13.498,5.599-13.498,5.599v-0.031c0,0-4.535,4.921-9.055,8.376
		c0,0-21.688,16.197-23.91,59.002l-0.293,7.805l-0.586,6.371c0,0-0.184,7.914-0.863,14.947c0,0-0.293,14.068-0.973,15.041
		c0,0,11.184,10.504,38.379,11.568c0,0,6.756,0.201,9.934-2.406c0,0-0.215-1.928,0.078-7.035c0,0,0.4-4.828,0.787-8.775
		c0,0-0.865-13.684,0.678-23.91c0,0-0.293-1.449,1.25-1.203c2.9,7.805,3.471,27.334,3.471,27.334
		c2.313,27.766,5.645,66.529,5.645,66.529c3.471,52.061-7.527,108.178-7.527,108.178c-0.693,4.396-1.588,8.098-1.588,8.098
		c1.357,13.111,27.766,14.563,27.766,14.563c50.609,4.242,102.578,0.586,102.578,0.586c24.68-0.479,32.1-5.492,32.1-5.492
		c7.143-3.084,8.299-8.576,8.299-8.576c0.586-1.543-0.863-5.213-0.863-5.213c-5.521-32.131-7.914-56.596-7.914-56.596
		c-2.406-26.223-0.477-56.117-0.477-56.117c2.313-17.646,4.533-51.676,4.533-51.676c1.451-13.496,2.314-29.602,2.314-29.602
		c0.863-7.912,2.992-12,2.992-12c0.203-0.311,0.406-0.641,0.609-0.986c-0.174,0.49-0.342,0.988-0.5,1.51
		c0,0,0.262,0.803,0.631,3.596c0,0,0.371,7.666,0.51,21.256c0,0,0.586,7.234,0.803,15.117c0,0,0.939,2.822,7.018,2.744
		c0,0,16.846,1.65,38.533-8.9C587.037,444.893,590.076,442.873,589.645,439.756z"/>
</g>
<g id="Capa_3_1_">
</g>
</svg>
