<svg xmlns="http://www.w3.org/2000/svg" viewBox="280.996 153.383 80 80"><path fill="#B3B3B3" d="M280.98 153.042h80.821v80.693H280.98z"/><path fill="#1C1C1C" d="M320.043 165.314c1.717.987 4.784 4.038 6.728 4.082 4.025.091-2.548-2.877-3.185-3.308-.821-.555-.661-1.367-1.376-1.755-.909-.493-1.904.128-2.806-.134-2.471-.716-1.756-2.903-4.182-2.344-.742.171-1.033.998-1.825 1.048-1.216.076-2.82-.765-4.159-.814-1.456-.053-2.595.4-3.856.657-.42.086-.816.064-1.228.176-.517.14-1.047.262-1.593.303-.457.034-.955.124-1.412.102-.385-.018-.743-.148-1.129-.115-.106.009.514.266.561.279.251.069.613.203.799.353.508.411.849.924 1.557 1.159.566.188 1.225.151 1.821.099 1.372-.12 2.607-.547 3.914-.858.47-.112 1.084-.265 1.585-.206 2.076.247 3.486 2.072 5.296 1.312.601-.253.386-1.153 1.222-1.277 1.084-.158 2.237.649 3.268 1.241M321.017 178.198l-.11.024c-1.158-.866-1.846-.752-3.197-.293-.91.309-2.372-.682-1.692-1.384.372-.384 1.349-.449 1.933-.43.775.025 1.631-.095 2.411.009 2.28.305 2.115 1.73.655 2.074m-2.679 3.942c.687.507 1.59.723 2.462.979 1.027.302 2.059.69 3.185.575 1.156-.118 1.764-.767 3.028-.453.438.108.64.382 1.19.453.529.068 1.033-.091 1.553-.06.47.029.883.263 1.345.276 1.036.028.79-.322.149-.855-1.579-1.314-4.021-.885-5.894-1.737-.439-.2-.873-.245-1.319-.428-.783-.32-2.256-1.483-1.704-2.249.724-1.004 1.414.609 1.867.707 1.013.219 1.821-.143 2.78-.082 1.015.064 1.86.293 2.79.929.976.666 1.484 1.229 2.654 1.683.869.337 2.774.699 1.369-.414-.459-.156-1.497-.283-1.815-.539-.163-.131-.237-.332-.332-.552-.095-.22-.211-.456-.454-.652-.537-.324-1.456-.751-.865-1.318.066-.047.197-.142.328-.142 1.182-.047 2.297.237 3.421.35.364.064.739.147 1.115.221.752.148 1.504.256 2.33.275 1.186.027 9.019.372 6.648-1.68-.883-.765-2.853-.974-3.877-1.129-1.577-.238-3.332-.718-4.79-.631-.352.021-.676.056-.985.095-.309.039-.604.082-.895.125-1.26.29-2.573.054-3.824-.168-.429-.063-.854-.122-1.279-.185-1.277-.19-2.562-.421-3.852-.806-2.163-.645-4.622-1.824-6.715-1.748-.958.035-1.235.769-2.059.932-.554.11-1.596-.032-1.84-.437-.293-.487-.085-1.041-.474-1.553-.221-.291-.297-.299-.337-.631-.026-.217.222-.381.07-.59-.108-.148-.376-.214-.582-.216-.453-.005-.876.147-1.303-.003-.428-.151-.836-.35-1.271-.49-.858-.276-1.329-1.039-2.243-1.208-.722-.133-1.609-.104-2.236.24-.297.163-.416.408-.626.629-.254.267-.475.525-.165.85.289.302.676.203 1.083.26.365.051.644.186 1.028.164.397-.024.68-.081 1.042.097.562.276 1.012.799 1.385 1.214.43.479.54.933.793 1.457.207.428.915.428 1.141.847.115.212.214.495.13.721-.089.241-.419.395-.497.637-.084.259-.055.631-.091.903-.075.574.503.803 1.116.989.754.228 1.56.345 2.304.591.521.172.693.353.844.754.112.297.262.605.503.853.177.183.354.292.622.377.329.105.508.209.747.435.459.432.776.95 1.302 1.338zM349.981 172.942c1.205.487.736-.225-.028-.667-.784-.453-1.674-.715-2.504-1a19.05 19.05 0 00-3.611-.862c-1.375-.185-1.909.082-2.875.418-.719.25-.406.029-1.075-.346-.884-.495-2.151-.151-2.144.686.009 1.09 1.37.854 2.163 1.266.491.256.671.583 1.234.774 1.972.668 3.786.438 5.631.546 1.222.071 2.326-.015 3.543.585.449.221 1.004.646 1.357.343.36-.309-.177-.824-.641-1.107-.922-.563-2.467-.846-3.471-1.146-.511-1.224 1.984.334 2.421.51"/><path fill="#414141" d="M334.436 182.425c.98-.116 2.244.018 3.002.552.6.423.53.976.636 1.539a.681.681 0 00.565.554c1.028.212 1.468-1.472 1.757-1.947.556-.911-.385-1.268-.607-2.111-.299-1.135-.909-1.402-2.449-1.583-1.207-.142-2.443-.043-3.642-.247-.965-.165-1.653-.579-2.605-.696-1.106-.136-2.037-.035-2.992-.613-.53-.321-.963-.722-1.481-1.051-.471-.3-1.056-.404-1.611-.58-.333-.106-.718-.301-1.095-.253-.16.257.043.417.275.579.49.34.887.696 1.416 1.024.552.343 1.119.69 1.527 1.143.284.315.101.583.637.8.654.265 1.458-.17 1.94.453-.154.138-.774.623-1.025.633-.517.021-.522-.318-.925-.517-.413-.204-.792-.106-1.231-.211-.173-.041-.405-.26-.557-.272-.217-.016-.373.164-.551.163-.761-.005-.863-.043-1.441-.411-.785-.5-1.636-.583-2.355-1.097-.54-.385-1.127-.688-1.695-1.037-.46-.283-1-.666-1.633-.619-.244.018-1.107.146-1.252.28-.365.338.594.383.856.365.66-.046.961.135 1.449.422.355.21.833.317 1.207.509.705.363 1.137.985 1.826 1.383.539.311.997.71 1.577.978.323.149.764.146 1.115.254.146.045.869.353.351.461-.13.027-.323-.074-.445-.105a3.438 3.438 0 01-.799-.293c-.274-.135-.635-.155-.908-.301a50.173 50.173 0 00-2.05-1.023c-.281-.134-.682-.189-.667.167.015.341.583.505.879.671.346.195.515.49.836.702.885.585 2.504 1.151 3.696 1.052 1.434-.118 2.859-.091 4.303-.125.567-.013 1.174-.136 1.72-.132.556.005 1.084.398 1.596.537.305.082.51.044.824.005a.211.211 0 00.026-.002m19.213-7.848c1.136-.439 2.363-.521 3.596-.664.818-.095 2.189.007 2.848-.44.567-.385.358-1.057.264-1.56-.536-.097-1.022.184-1.593.134-.523-.046-.858-.288-1.305-.455-1.346-.504-2.803-.489-4.216-.109-1.875.504-4.095.23-6.027.02-1.888-.205-3.294-.258-3.171 1.396.773-.003 1.272.559 1.813.822.418.203.962.372 1.452.425.251.027.968-.102 1.133-.045.757.259.152.481-.219.89-.142.156-.275.339-.313.531-.095.474.461.703.558 1.121.161.694-1.35.62-1.866.699-.649.099-1.051.905-.088.708.501-.102.928-.35 1.401-.504.262-.085.527-.091.794-.154.501-.119 1.03-.468 1.462-.695.617-.323 1.195-.687 1.787-1.037.12-.101.241-.2.365-.297.247-.193.508-.376.791-.541.17-.093.348-.173.534-.245zm-30.14-11.991c1.463.24 2.702.024 3.992-.114 1.318-.141 4.203-.375 5.307 1.245 2.081.632 2.751-.7 4.568-.37.79.143 1.464.779 2.236.966 1.024.248 1.102-.329 1.345-.877.279-.631.654-1.011 1.764-.659.964.306 1.001.643 1.498 1.195.416.461.395.552 1.152.514.291-.015 1.16-.469 1.485-.249 1.394.943-2.592 1.301-2.836 1.349-.703.136-2.792.852-1.295 1.815.966.621 3.507.907 4.387.832 1.822-.156 3.366-.923 5.108-1.235.965-.173 1.898-.45 2.883-.554.809-.085 1.635.01 2.438-.096.619-.082.921-.219 1.475.079.255.137 1.678.895 1.868.385.152-.407-.945-.629-1.243-.743-.714-.274-1.514-.468-2.201-.775-.549-.246-.6-.46-1.264-.532-.634-.069-1.178.092-1.806.03-.753-.074-1.616-.337-2.386-.557-1.552-.445-3.119-1.052-4.586-1.851-1.771-.965-2.924-2.15-4.208-3.48-1.005-1.042-2.028-1.778-3.501-2.065-.958-.187-2.857-.34-3.318.272-.401.531.363 1.037.994 1.559.456.377 1.469 1.075 1.186 1.528-.295.473-1.648-.075-2.218-.315-1.224-.515-4.4-2.62-5.096-1.38-.557.992 1.373 1.338 2.128 1.891 1.816 1.331-1.991.709-2.541.621-2.31-.372-4.64-.797-6.877-.893-.364-.016-.727-.034-1.091-.039-.235-.003-.469.004-.703.011-.187.006-.374-.025-.562-.029-.274-.006-.547-.013-.821.002-.506.029-.962.158-1.453.233-.316.048-.807-.019-1.055.174-.402.311.927.535 1.109.562.3.044.638.045.926.127.234.067.271.315.442.437.191.137.407.267.634.365a8.83 8.83 0 001.481.488c.215.05.433.097.655.133zm34.225-5.358c.295-.013.527-.18.764-.308.18-.098.373-.173.596-.136.255.043.414.134.212.326-.15.144-.325.268-.459.423-.094.109-.204.244-.164.381.056.193.346.332.551.417.234.098.542.195.812.142.124-.025.219-.095.342-.122.105-.023.212-.019.313-.054.079-.027.135-.067.225-.073.156-.011.325-.014.479.009.059.009.411.087.411.139v-2.136c-1.477-.473-2.939.268-4.42.11a3.051 3.051 0 01-.231-.032.95.95 0 01-.209-.068c-.921-.398-2.88-2.238-3.336-1.553-.388.583 1.307 1.132 1.823 1.471l.045.031c.738.55 1.367 1.071 2.246 1.033zm-56.435-.59c.969.327 2.025.413 3.065.495a37.02 37.02 0 011.566.146c.25.03.514.049.753.119.214.063.38.181.557.29.478.296 1.025.521 1.552.759.443.199.952.496 1.189.86.132.203.186.332.022.524-.14.163-.35.358-.57.452-.265.113-.584.17-.867.249a3.91 3.91 0 00-.644.221c-.401.194-.687.375-1.13.527-.867.297-1.455 1.087-.567 1.657.966.621 3.507.907 4.387.832 1.822-.156 3.367-.923 5.108-1.235 1.493-.268 2.674-.716 4.378-.583 1.173.092 2.583.558 3.657.447-.231-1.042-1.968-1.189-2.814-1.568-.549-.246-.6-.46-1.264-.532-.634-.068-1.178.092-1.806.031-.753-.074-1.616-.337-2.386-.557-1.552-.445-3.119-1.052-4.586-1.852-.503-.274-1.187-.611-1.541-1.008-.254-.285-.538-.659-1.087-.42-.21.092-.244.325-.493.379-.221.048-.408-.086-.594-.152a8.018 8.018 0 00-1.193-.317c-.378-.07-.724.019-1.092-.029-.325-.042-.726-.21-.395-.445.47-.332 1.25-.217 1.811-.155.496.056 1.312.333 1.769.064.032-.019-.937-.771-1.037-.815-.485-.217-1.182-.28-1.711-.416-.725-.187-1.394-.449-2.104-.653-.507-.146-.979-.13-1.452-.362-.377-.185-1.219-.359-1.612-.076-.44.317.727.498.868.644.377.39.784.99.086 1.326-.466.225-.832-.206-1.25-.319-.536-.145-1.09-.191-1.626-.361-.743-.235-1.483-.58-2.284-.675-.755-.089-1.737-.003-2.486.122-.707.119-.324.734.08.987.323.203 1.174.135 1.301.498.154.442-1.291.63-1.647.649-.268.014-.624-.085-.871-.038-.164.031-.294.123-.297.266-.007.357.767.31 1.044.268.575-.086 1.148-.319 1.738-.159.377.102.823.213 1.234.158.458-.062 1.076-.447 1.473-.631.536-.249 1.167-.504 1.786-.316.676.206 1.313.478 1.982.704zm-10.142 14.94c-.218-.026-.438-.065-.639-.076-.752-.043-1.114-.445-1.659-.82-.495-.34-.902-.692-1.497-.939-.746-.309-1.57-.467-2.389-.6-.678-.11-1.624-.104-2.13-.511-.504-.405-1.162-.538-1.845-.646v1.06c.798.282 1.694.635 1.88 1.225.217.69-.83 1.086.392 1.44.956.277 1.987-.132 2.956.125.73.193 1.478.622 2.112.962.37.198.387.593.579.903.252.408.58.661.924 1.021.451.473.641.975.869 1.52.111.265.256.512.443.75.297.378.901.621 1.44.639.596.02.582-.224.871-.576.27-.329.627-.555 1.136-.445.293.063.783.24.906.482.153.301.096.69.273 1.02l.115.382.053.166c.298.149.601.281.921.363 1.243.32 5.693-.374 5.302 1.695-.176.932-1.172.79-2.096.798-.562.005-1.112-.059-1.67-.108-.531-.047-1.127-.085-1.614.13-.181.08-.566.311-.312.475.216.139.854.008 1.106.006.482-.004.959.05 1.426.139.765.146 1.395.486 2.129.687.326.089.667.11.998.183.728.159 1.428.448 2.15.633.637.163 1.281.311 1.924.456.978.221 2.319.601 3.35.384.362-.076.457-.323.31-.595-.259-.482-1.012-.632-1.477-.723-.747-.146-2.885-.197-2.434-1.158.471-1.003 3.106-.534 4.329-.324 1.305.224 2.635.386 3.868.802.184.062.452.227.638.255.261.039.564-.169.789-.285.364-.187.517-.135.926-.197.153-.023.24-.1.381-.13.148-.031.32-.001.469-.007.065-.255-.14-.326-.351-.446-.293-.166-.459-.408-.723-.6-.434-.315-.838-.36-1.377-.492-.752-.184-1.35-.531-2.035-.833-.471-.208-.946-.419-1.433-.602-.332-.125-.633-.127-.976-.2-.477-.101-.826-.231-1.339-.228-.467.002-.931.051-1.396.076-.757.041-1.157-.081-1.455-.654-.26-.499-.248-1.141-.875-1.436a19.346 19.346 0 00-1.62-.702c-.237-.087-.372-.15-.636-.083-.211.053-.421.175-.654.1-.092-.19.117-.43.081-.632-.037-.204-.293-.387-.567-.283-1.217.461-2.691 1.433-3.845.409-.577-.512-.897-1.075-1.794-1.382-.513-.154-.577-.87-.064-1.024.769-.256 1.602 0 2.435-.205.705-.205 1.282-.87.777-1.358a1.282 1.282 0 00-.422-.285c-.986-.435-2.642-.107-3.211.007-1.162.232-2.36.201-3.645.017-.256.325-.664.324-1.078.275zm41.642 14.181c1.174.246 2.756-.177 3.709.583 1.547 1.233-.116 2.463-1.927 1.842-1.204-.412-2.719-.204-3.948-.161-.581.021-1.099-.112-1.648-.197-1.73-.266-1.967-1.3-2.516-2.398-.29-.58-.77-.713-1.191-1.224-.325-.395-.343-.887-.56-1.319-.967-1.922-4.264-.501-5.092-2.37 1.956-.585 4.974.211 7.163 1.684 1.214.818 2.287 1.908 3.561 2.619.819.458 1.611.766 2.449.941zm10.029 8.435c-.649-.002-.552-.999-.345-1.242.397-.464.943-.311 1.513-.156.344.094.681.231 1.034.303.45.092.506.007.907-.07.548-.105 1.275-.086 1.793.102.441.16.693.351 1.209.393.611.049.988-.155 1.546-.23.308-.041 1.383-.028 1.547.231.317.501-1.25.796-.709 1.395.294.326 1.131.106 1.539.179.476.085.835.359 1.28.496.938.288 2.669.222 3.063-.655.399-.891-.18-2.002 2.059-1.242.873.297 1.705.655 2.539 1.006v-4.013c-.306.028-.619.049-.933.059l-.236.006c-1.013.017-2.02-.073-2.833-.335-2.7-.869-3.095-2.244-5.809-.943-.801.384-1.541.811-2.316 1.202-1.179.594-2.44 1.105-4.124 1.25-3.078.266-6.645-.482-9.791-.333-.955.045-1.946.141-2.845.395-.656.186-1.38.681-2.091.654-.909-.035-1.392-.093-2.283.073-.954.178-1.822.445-2.689.779-1.714.659-4.759-.191-6.598-.175-.255.002-.527.084-.765.145-.762.195-1.535.435-2.239.735-.338.144-.691.264-.979.466-.36.252-.828.353-1.207.579-.197.118-.4.22-.622.308-.125.049-.434.123-.454.255-.021.138.262.218.392.242a.916.916 0 00.588-.087c.145-.073.254-.143.431-.16.199-.019.397.002.588-.059.222-.071.34-.262.563-.329.109-.032.227-.034.34-.064.147-.039.298-.078.45-.106.221-.04.519-.058.706.065.206.135.061.316-.059.454-.098.112-.342.375-.152.515.251.185.756-.098.956-.208.897-.496 1.708-1.233 2.766-1.525.264-.073.574-.104.853-.08.301.025.519.072.673.135.677.333-.164 1.113.372 1.282 1.011.3 2.102-.294 3.254-.357.161 0 .309.006.451.005.519-.006.997-.184 1.506-.222 2.576-.192 5.276-.388 7.864-.359a8.267 8.267 0 002.386-.323c.759-.214 1.683.134 2.344.402.218.088.459.139.701.166.193.022.586-.058.743-.007a1.328 1.328 0 00-.119-.034c-.272-.731.434-.965 1.242-.963zm-32.052 1.815c.439.027 1.077-.108 1.269-.456.047-.086.099-.198.07-.293-.027-.085-.101-.103-.174-.162-.192-.153-.239-.381-.467-.516-.142-.084-.368-.065-.536-.095-.113-.02-.212-.043-.33-.035-.212.015-.353.025-.566-.004-.367-.051-.851-.139-.832-.473.759-.173.889-.551.098-.712-.548-.111-.947.134-1.392.196-.841.116-1.248-.566-1.916-.796-.851-.293-2.037-.337-2.966-.301-1.674.065-3.185.543-5.064.126-.747-.165-1.624-.039-2.344-.264-.873-.273-.707-.605-1.171-.963-.499-.384.179-.369-.773-.521-.438-.07-1.088.226-1.513.308-1.369.262-1.811-.472-3.08-.369-.321 1.354 1.133 1.447 2.17 1.847 2.464.951 4.203 2.644 6.913 3.345 1.64.425 2.675.033 4.156.143 1.457.108 2.167 1.268 3.424 1.836 1.676.758 3.119-.157 1.782-1.568a8.589 8.589 0 00-1.087-.936c-.277-.208-.488-.51-.775-.69-.257-.162-.762-.094-.614-.464 1.022-.153 1.331.405 2.123.742 1.13.482 2.283.994 3.595 1.075zm-5.915 12.149a1.46 1.46 0 01-.168-.092c-.295-.196-.759-.339-1-.559-.278-.255-.238-.654-.388-.953-.252-.503-.452-.683-1.152-.737-.97-.076-1.773-.095-2.64-.447a5.422 5.422 0 00-1.333-.338 6.604 6.604 0 00-.643-.051c-.193-.007-.294-.123-.481-.148-.091-.013-.196.024-.291.021-.291-.008-.575-.093-.836-.183-.152-.052-.315-.121-.476-.154-.179-.037-.372-.04-.553-.069-.445-.071-.831-.15-1.233-.306-.468-.183-.989-.315-1.477-.501-1.184-.452-2.52-.582-3.704-1.004a6.158 6.158 0 00-.425-.136c-.848-.282-1.696.329-2.408.673-.107.083-.211.179-.318.277-.427.391-.892.801-1.696.455-1.358-.584-1.178-2.633-1.379-3.424-.516.166-.912.205-1.243.148v2.913c.391.119.803.288 1.209.445.454.175 1.002.352 1.45.456.208.048.753-.068.901.063.287.256-.447.673.257.726.479.036 1.001-.332 1.355-.539.361-.212.918-.611 1.424-.437.406.14.196.575.47.833.572.537 1.327.279 2.039.488.708.208 1.11 1.071.298 1.376-.166.063-.39.06-.569.072-.539.037-.749-.032-1.224-.233-.323-.136-2.12-.486-1.945.159.247.04.763.096.959.225.186.122.232.332.47.446 1.135.544 2.236 1.114 3.646.733.139-.037.256-.072.346-.098.273-.079.55-.143.832-.195 1.332-.244 2.772-.197 4.37-.024.691.075 1.324.217 1.978.184l.077-.005c.14-.01.277-.026.412-.045 1.521-.549 2.675.35 3.5 1.235.136.075.29.135.474.177.184.041.398.064.654.061.433-.005 1.447-.14 1.7-.449.387-.473-.703-.781-1.239-1.039zm37.87-4.043c-1.243-.04-2.486-.229-3.447-.645-2.964-1.284-3.249-3.013-6.487-1.617-2.409 1.039-4.407 2.448-7.606 2.529-3.528.089-7.49-1.112-11.082-1.172-2.405-.04-4.365.289-5.798 1.375-.844.64-.69 1.309-1.936 1.691-1.038.318-2.619-.501-3.164.505 3.356.769 7.014.299 10.234.558 2.827.228 3.584-.87 6.542.55 1.653.794 3.754 1.463 5.316.293.817-.613 1.524-1.009 2.696-.748.963.214 1.757.713 2.652 1.041 2.255.827 6.498 2.297 7.42.532.559-1.07.033-2.487 2.485-1.374 2.036.924 3.823 2.177 5.929 2.984 1.439.551 3.043 1.434 3.861.656.375-.356.027-1.368-.055-1.761-.167-.797-.329-1.693-.955-2.36-.303-.323-.626-.322-1.101-.451-.851-.231-1.655-.441-2.465-.744-1.403-.524.352-.798 1.134-.843.771-.044 1.602.044 2.354-.108.649-.132 1.212-.483.384-.765-.863-.295-2.012-.636-2.973-.513-1.341.174-2.531.433-3.938.387zm4.536 10.384c.561.045 1.48.024 1.956.301.062.036.065.102.12.135.159.096.308.119.5.151.392.066.709.19 1.079.302.326.099.671.126.997.228.447.14 1.287.157.629-.291-.302-.206-.54-.319-.011-.503.388-.135.678-.161 1.055-.057.461.128 1.038.152 1.534.232.243.039.565.048.792.124.225.075.364.253.544.375.448.304.468.046.894.117.353.059.496.297.706.502.278.271.568.496 1.104.424.635-1.17-.74-1.292-1.789-1.777-.203-.094-.182-.22-.329-.342-.138-.114-.331-.116-.514-.148a8.163 8.163 0 00-1.193-.107c-.35-.008-.649.058-1.001.013-1.344-.174-2.736-.643-4.088-1.101-1.497-.507-2.907-.747-4.397-1.148-1.499-.402-4.406-2.471-5.515-1.962-.652.299-.434 1.022-1.294 1.131-.786.1-1.883-.437-2.721-.407-.917.032-5.942-.912-6.174.175-.115.54 2.097.734 2.492.746 1.287.04 2.582-.133 3.864.01.781.088 1.622.387 2.51.446.605.041 1.506-.061 2.126.343.397.259.416.711.819 1.003.985.714 2.537.584 3.584.841.6.148 1.164.199 1.721.244zm-48.511-.025c.118.324 2.374.187 2.698.157.842-.078 1.664-.242 2.514-.276.569-.023 1.951-.121 1.576.568-.346.636-1.35.986-1.669 1.679-.112.245-.166.587.242.705.475.137.731-.318 1.006-.526.537-.406 1.26-.383 1.9-.644.934-.382 2.183.156 2.959-.361.592-.394.737-.509 1.466-.516.818-.008 1.576-.325 2.408-.146.688.148 1.695.695 2.417.317.556-.291.14-.574-.113-.893-.571-.718.928-.64.759-1.3-.117-.458-.832-.386-1.257-.339-.621.069-.97-.172-1.6-.121-.32.026-.638.151-.943.177-1.002.086-1.784-.602-2.855-.242-.338.114-.518.22-.907.235-.342.013-.67-.057-1.009.026-.202.049-.381.1-.57.177-.175.071-.516.059-.713.078-.231.022-.463.04-.695.049a8.081 8.081 0 01-1.302-.05c-.816-.098-1.601-.311-2.414-.424a12.262 12.262 0 00-2.202-.104c-.493.021-1.127.049-1.497.34-.404.318-.306.84-.235 1.24.011.063.014.133.036.194zm-5.214-1.696c.093.017.181.043.258.076.164.071.279.222.476.239.292.025.506-.016.746.138.272.175.466.4.719.59.285.214.643.283 1.027.209.36-.07-1.184-1.066-1.289-1.108-.59-.236-1.137-.682-1.765-.852-.634-.171-1.455-.327-2.125-.227-1.51.227-3.025.289-4.554.42-.238.02-.474.045-.709.072-1.232.137-2.43.306-3.677.014-.552-.13-1.119-.159-1.66-.219v2.921c.079.004.158.011.237.022 1.054.144 1.787.757 2.75 1.057.523.163 1.084.216 1.643.208.971-.015 1.956-.144 2.914.035.985.184 1.727.766 2.576 1.165.43.202.869.395 1.326.557.281.1.628.235.947.225.405-.013.203-.27.388-.418.259-.207.443.193.693.116.237-.073.217-.232.083-.352-.135-.122-.267-.291-.459-.364-.093-.035-.184-.033-.276-.064-.13-.044-.256-.135-.375-.196-.426-.217-.877-.391-1.33-.569-.333-.131-.669-.274-.911-.5-.188-.176-.289-.394-.465-.577-.37-.384-.904-.595-1.513-.556-.247.016-.498.055-.746.022a1.083 1.083 0 01-.342-.1c-.1-.051-.165-.13-.253-.191-.036-.024-.105-.036-.126-.068-.132-.196.326-.281.461-.354.209-.114.369-.38.647-.41.547-.058.585.326 1.034.525.334.148.634.117.956.124.12.003.242.01.371.035a.58.58 0 01.144.053c.165.08.35.216.475.218.171.003.296-.112.426-.177a.37.37 0 01.143-.043c.34-.018.557-.022.743.007.255.041.451.145.827.364.884.514 1.794.553 2.61 1.087.722.473 1.753 1.168 2.726 1.16.268-.002-.273-.739-.35-.793-.286-.202-.89-.185-1.235-.345-.785-.365-1.306-1.04-2.076-1.445a13.777 13.777 0 01-.214-.117c-.202-.115-.397-.237-.592-.358-.33-.205-.664-.411-1.043-.559a2.643 2.643 0 00-.597-.17c-.13-.018-.418-.107-.427-.235-.005-.069.075-.1.121-.152.066-.075.102-.12.223-.155.151-.044.269-.013.419.015zm35.249 11.192c-1.217-.041-2.433-.23-3.375-.646-2.902-1.285-3.182-3.014-6.351-1.618-2.358 1.038-4.313 2.447-7.445 2.527-3.453.088-7.333-1.114-10.849-1.175-2.354-.041-4.273.288-5.675 1.374-.17.131-.255.288-.495.34a2.223 2.223 0 01-.737.013c-.417-.051-.762-.107-1.193-.052-.275.035-.655.089-.849.262-.194.173.015.361.188.484.313.221.688.391 1.039.571.371.19.74.385 1.121.562.347.161.709.31 1.09.418.303.085.575.07.893.07l.989-.002c.646 0 1.293.004 1.938.029.348.014.696.033 1.042.062 2.767.229 3.508-.869 6.405.552 1.21.594 2.653 1.044 3.78.884.949-.134 1.734-.842 1.067-1.822-.626-.919-1.871-1.057-2.81-1.107.007-1.195 1.903-.504 3.008-.004 1.85.837 3.472 1.917 5.394 2.637 2.208.828 6.362 2.299 7.264.533.546-1.069.032-2.487 2.432-1.374 1.994.925 3.744 2.178 5.806 2.986 1.409.552 2.979 1.435 3.78.658.156-.151.102-.457.096-.632a7.1 7.1 0 00-.147-1.101c-.071-.372-.206-.731-.29-1.101-.088-.385-.148-.758-.519-1.053-.334-.265-.827-.415-1.218-.601-.381-.181-.642-.508-1.057-.638-.328-.103-.692-.098-1.036-.133-.357-.036-.632-.148-.941-.288-.576-.262-.502-.474-.349-.942 1.302.2 2.87.361 3.627-.171-.236-.21-1.013-.736-1.396-.934-.975.278-2.602.487-4.227.432zm28.19 3.354c-.919-.247-2.368-1.12-3.607-1.642-.449-.189-.99-.398-1.513-.319-.473.072-.893.343-1.26.572-.239.149-.483.397-.799.44-.421.057-.922-.171-1.335-.223-.534-.068-1.085-.057-1.623-.095-1.221-.086-2.433-.253-3.662-.254-.481-.001-1.043.006-1.491.16-.155.053-.295.119-.365.245-.025.046-.086.344-.019.369 2.106.793 4.323.216 6.325.441.782.088 1.623.386 2.51.446.605.041 1.506-.061 2.126.343.397.259.416.711.819 1.003.985.714 2.537.584 3.584.841.597.147 1.162.198 1.719.242.582.047 1.156.086 1.752.22.572.129 1.116.431 1.658.722v-2.221l-.423-.143c-1.497-.506-2.906-.747-4.396-1.147zm-7.424-5.058c.208.088.415.178.633.262.27.104.536.137.826.223.375.111.59.257 1.025.226.233-.016.532-.113.763-.056.287.071.386.294.681.377.451.127 1.778-.28 1.994.155.288.58-1.461.678-1.87.821-.96.336-2.024.418-2.992.029-.606-.244-1.112-.581-1.746-.811a20.136 20.136 0 00-2.181-.674c-1.532-.367-3.159-.468-4.713-.122-1.138.333-2.313-.573-3.191-1.235a11.824 11.824 0 01-.585-.631c-.396-.471-.833-1.526.465-1.398.365.036.535.301.782.475.274.193.668.394 1.027.236.245-.107.317-.378.584-.478.643-.24 1.333.146 1.845.406.606.308 1.281.538 1.95.749 1.354.427 2.761.743 4.096 1.207.21.074.409.156.607.239zm10.1-12.728c.942-.396 1.526.021 2.143.489v-2.475c0-.201-1.189-.288-1.355-.274-.383.034-.751.275-1.108.261-.324-.013-.802-.235-1.158-.288-.411-.061-.705-.123-1.063-.286-.932-.426-1.438-.62-2.502-.66-1.187-.045-2.389-.304-3.56-.461a12.226 12.226 0 00-2.288-.073c-.411.023-.767.13-1.152.001-.359-.119-.717-.292-1.123-.257-.174.015-.461.101-.616.089-.187-.014-.304-.186-.499-.189.209-.19-.243-.094-.353.002-.32.281-.038.368.208.49.303.15.621.235.939.446.361.239.62.316 1.052.464.381.131.824.256 1.169.404.315.135.544.533.926.367a.623.623 0 000-.34c-.241-.068-.422-.339-.317-.546.226-.443 1.422-.193 1.847-.126.781.122 1.623.538 2.51.621.605.057 1.506-.085 2.126.478.397.36.416.99.819 1.397.641.647 1.521.796 2.346.92a3.12 3.12 0 01.431-.249c.19-.088.382-.156.578-.205zm-3.91-7.903c.162.118.619.056.663.312.111.65-.975-.205-1.233-.214-.324-.012-.738.168-1.065.213-.231.031-1.055-.016-1.169.172-.238.389.901.52 1.172.537 1.807.113 2.906.901 4.399 1.582.185.084.37.164.555.238 1.057.424 1.58.308 2.476.219a3.07 3.07 0 01.243-.017v-2.242c0-.019-1.162-.665-1.245-.71-.517-.28-1.127-.454-1.73-.584-1.034-.223-1.962-.703-2.925-1.066-.403-.152-.576-.33-.961-.513-.448-.213-1.427-.664-1.82-.118-.377.522.648.805 1.035 1.035.607.363 1.067.762 1.605 1.156zm-25.851 9.05c.646.059 1.223-.109 1.85-.171.291-.029.584-.064.877-.084.495-.034 2.305.153 1.991-.597-.194-.465-.908-.495-1.26-.831-.553-.527-.271-1.246.056-1.778.186-.304.627-.679.578-1.038-.037-.274-.403-.443-.634-.62-.276-.211-1.218-.801-.512-1.043.728-.25 2.987 1.08 3.181.237-1.348-.235-2.882-.874-4.123-.719-1.33.166-1.396 1.266-2.225 1.874a3.771 3.771 0 01-.764.429 4.605 4.605 0 01-.417.152c-.544.147-1.057.247-1.634.197-.512-.1-.961-.25-1.346-.1-1.922.799-3.781.499-5.831.799-.385.05-.705.25-1.068.373a13.97 13.97 0 01-.518.268 7.924 7.924 0 01-.552.243c-1.401.547-3.248.164-4.74.163-.959-.001-1.851-.113-2.694.278-.616.286-1.422.813-2.164.82-.702.006-.783.243-.964.695-.134.335-.725.605-.723.968.002.475.772.52 1.229.432.59-.114 1.023-.39 1.657-.431.805-.052 1.61.12 2.412.086.596-.025 1.952-.495 2.369.102.324.464-.411.475-.551.853-.433 1.176 1.907.662 2.754.468 1.254-.288 2.454-.527 3.402-1.282.611-.486 1.426-.761 2.256-.932 1.702-.351 3.542-.328 5.279-.17.778.07 1.553.137 2.314.287.176.032.347.057.515.072zm-47.135 18.119c1.535-.134 2.847.394 4.466.939 1.309.44 3.306.919 4.016.19.162-.166.207-.375.201-.579-.005-.173-.156-.366-.067-.533.039-.073.123-.127.175-.195.184-.238.199-.545.333-.801a1.98 1.98 0 01.928-.91c.251-.123.519-.236.795-.322.099-.031.205-.065.313-.063.069.001.129.028.197.027.18-.003.404-.083.573-.128.343-.092.683-.217.947-.415 1.322-.991-2.565-1.338-3.324-1.366-3.176-.117-6.156.176-9.324.089-.502-.014-1.229-.121-1.989-.21v4.713c.681-.164 1.339-.399 1.76-.436zm69.867 3.137c-.704-.56-1.569-.794-2.404-.863-.36.125-.688.254-.973.351-1.264.434-3.28-.154-4.541-.355-.845-.135-1.776-.362-2.643-.346-.987.018-1.896.399-2.804.658-.419.119-1.264.215-1.155.703.206.921 2.115.602 2.894.534.72-.062 1.436-.097 2.155-.181.353-.041 2.725-.31 2.877.048.276.65-.396.894-.954 1.229h5.239c.445-.313.681-.648 1.471-.524.584.092 1.097.407 1.698.524h.988c.312 0 .711-.204.893-.39.251-.256.159-.517.195-.814.016-.136.156-.273.121-.411-.039-.153-.233-.162-.384-.218-.816-.304-1.929-.441-2.673.055zm-67.787-74.454c.743.349 1.691.559 2.167.637 1.068.175 2.016.107 2.953.004-1.312-3.258-3.343-1.135-5.12-.641zm-3.251 26.691c.46-.098.912-.208 1.378-.298l.155-.057c.804-.301 1.576-.69 2.482-.733.389-.018.831.184 1.17.308.398.145.893.433 1.34.351.231-.042.458.065.686.089.138.015.719-.003.474-.204-.101-.083-.292-.117-.421-.164a2.17 2.17 0 01-.473-.241c-.186-.127-.265-.208-.516-.232a2.304 2.304 0 01-.606-.153c-.768-.312-1.454-.622-2.152-.571-.124.009-.248.03-.374.064-.24.065-.365.244-.587.336-.087.036-.173.035-.265.056-.153.034-.39.252-.513.073-.088-.127.058-.318.089-.444.106-.429-.766-.599-1.149-.524-.375.073-.708.284-1.094.32a3.384 3.384 0 01-.215.013v1.984a3.56 3.56 0 00.591.027zm11.981 16.385c-.742-.028-.111.866-.074 1.172.076.628-.103.648-.505 1.059-.147.15-.281.26-.406.334 1.003.333 2.114.502 3.202.584-.365-1.163-.023-3.067-2.217-3.149zm33.306-30.383c-1.771-.965-2.924-2.15-4.208-3.48-.728-.755-1.567-1.351-2.577-1.867-.935-.478-2.277-1.499-3.528-1.299-1.285.206-.894 1.509-.596 2.167l.001.001c.125.277.621.554.875.763.456.377 1.469 1.075 1.186 1.528-.295.473-1.648-.075-2.218-.315-1.224-.515-4.4-2.62-5.096-1.379-.557.992 1.373 1.338 2.128 1.891 1.816 1.331-1.991.709-2.541.621-2.31-.373-4.641-.797-6.877-.893-.895-.039-3.777-.239-3.64.827.125.972 2.377 1.504 3.202 1.639 1.463.24 2.702.024 3.992-.114 1.318-.141 4.203-.375 5.307 1.245 2.081.632 2.751-.7 4.568-.37.79.143 1.464.779 2.236.966 1.024.249 1.102-.328 1.345-.877.28-.631.654-1.011 1.764-.659.964.306 1.001.643 1.498 1.195.416.461.394.552 1.152.514.291-.015 1.16-.469 1.485-.249 1.394.943-2.592 1.301-2.836 1.349-.703.136-2.792.852-1.295 1.815.966.621 3.507.907 4.387.832 1.822-.156 3.366-.923 5.108-1.235 1.493-.268 2.674-.716 4.378-.583 1.173.092 2.583.558 3.657.447-.231-1.042-1.968-1.189-2.814-1.568-.549-.246-.6-.46-1.264-.532-.634-.069-1.178.092-1.806.03-.753-.074-1.616-.337-2.386-.557-1.553-.446-3.12-1.053-4.587-1.853zm26.151 2.576c.201-.024.4-.045.598-.063 1.384-.127 2.715-.124 4.066-.238.202-.007.48-.034.762-.048.282-.014.567-.014.783.035.142.032.336.132.52.238.45-.187.892-.381 1.36-.559.22-.084.449-.137.685-.176v-1.72c-.493.07-.974.143-1.427.315-.285.108-.558.196-.881.194-.196-.001-.595-.021-.64-.217-.038-.167.201-.363.321-.481.112-.109.236-.244.386-.326.312-.17.707-.378.162-.424-.311-.026-.702.095-.993.177-.203.057-.451.126-.669.099-.158-.019-.285-.1-.437-.128-.392-.072-.891.235-1.18.407-.744.444-1.504.88-2.221 1.349-.249.163-.5.28-.788.386-.316.117-.574.273-.926.337-.363.065-.75-.017-1.119-.001-.267.011-.673.049-.877.207-.368.287 1.436.649 1.589.673.133.021.292.059.43.044.17-.02.343-.057.496-.08zm-8.173 11.012c.148.032.304.048.457.068.426.058.88.126 1.313.12.423-.005.845-.039 1.263-.087.825-.094 1.646-.23 2.483-.234.908-.004 2.354.254 1.09 1.059-.351.223-.809.399-1.038.715-.12.166-.606.405-.349.622.13.11.368.016.534.069.287.093.469.123.787.07.265-.044.558-.083.809-.168.182-.061.349-.196.515-.282.42-.218.864-.45 1.378-.494.284-.024.566-.003.849.022.204.018.412.038.617.01.221-.03.325-.133.507-.215.416-.187.932-.352 1.412-.39.534-.042 1.121.084 1.609.241.691.224 1.435.244 2.01-.192.594-.451.181-1.125-.229-1.563-1.972-2.101-4.409-.888-5.794-.412-.488.168-1.104.11-1.615.064a28.787 28.787 0 01-2.334-.325c-.84-.144-1.69-.281-2.539-.387-.4-.05-.805-.072-1.208-.099-.344-.024-.684-.047-1.029-.011a4.905 4.905 0 00-.825.142c-.32.091-.582.309-.831.48-.106.073-.229.142-.323.224-.301.261-.243.588.103.807.113.074.242.117.378.146zm-55.084 16.213a3.692 3.692 0 00-.313-.266 4.575 4.575 0 00-.42-.285 18.203 18.203 0 00-2.039-1.054 21.705 21.705 0 00-1.298-.524c.275.504.826.975 1.444 1.41.143.1.289.199.435.295.948.475 1.555 1.149 2.179 1.834.104.114.209.229.321.346.376.382.82.694 1.309.95a6.566 6.566 0 01-.331-.592c-.388-.771-.615-1.476-1.287-2.114zm-7.275-2.979a23.526 23.526 0 00-1.498-.267v1.056c.861.716 1.093-.017 1.498-.789zm33.827-15.006c.491.255.671.583 1.234.774 1.972.668 3.786.439 5.631.546.7.041 1.256.091 1.917-.089.124-.034 1.208-.268 1.19-.397-.045-.317-1.719-.447-2.009-.444-.053-.196-.393-.251-.495-.461-.144-.295.032-.65-.197-.925-.568-.684-2.403-.902-3.34-1.028-1.375-.185-1.909.082-2.875.418-.719.25-.406.029-1.075-.346-.337-.189-.609-.328-1.039-.285-.413.042-.794.21-1.211.236-.279.018-1.145-.239-1.328-.022-.242.286.753.865 1.025.957.183.062.4.103.55.212.185.134.2.286.421.397.481.241 1.119.206 1.601.457zm-23.792-25.738c.094.579.03 1.307.577 1.663.271.012.545.037.816.078.363-.104.71-.332.909-.482.326-.246.643-.52.972-.776-.64-.053-1.28-.158-1.482-.19l-1.792-.293zm58.599 1.131a4.11 4.11 0 01-1.148-.394 12.446 12.446 0 01-.523-.279c-1.511-.638-3.626-1.138-5.349-.666-.159.064-.311.14-.455.227-.064.05-.064.2 0 .299.513.599 1.089 1.198 1.922 1.398.283.053.548.097.836.065.296-.033.635.011.923.047.186.023.363.081.537.137.503.161.966.353 1.491.481.316.077.646.209.943.325.282.11.575.209.848.331.296.133.584.23.851.404.427.28.606.73 1.082.977.158.082.316.167.473.255.472.263.939.551 1.416.848l.55.343c.304.379 1.008.679 1.585.429.577-.25.961-.799.705-1.298-.32-.599-1.153-.999-1.428-1.646a12.92 12.92 0 01-.256-.483 4.844 4.844 0 00-1.259-.739 5.316 5.316 0 00-.596-.189c-.502-.125-1.04-.233-1.573-.379a10.01 10.01 0 01-.399-.117c-.256-.042-.512-.192-.759-.252l-.417-.124z"/><path fill="#1C1C1C" d="M359.343 168.28c-2.049-1.893-4.053-.135-5.91-.321-2.388-.24-4.423-1.471-6.87-1.385-.224.008-.44.009-.65.005-1.629.035-3.167-.364-4.473-1.165a6.116 6.116 0 00-.457-.232c-.465-.213-1.077-.521-1.615-.604-.55-.084-1.113.099-1.662 0-1.886-.338 1.479-1.814-1.107-2.39-1.627-.362-2.821.127-4.406-.059-.613-.072-1.318-.249-1.924-.26-.469-.008-.471.133-.802.324-.529.306-1.531.151-2.137.109a9.83 9.83 0 00-2.465.138c-.289.054-2.449 1.119-2.388 1.134-1.207-.286-2.215-.106-2.011.866 3.448.514 5.014-.398 7.986-.681 1.915-.182 3.934.16 5.293 1.299.311.26.55.531.98.687.446.162.964.155 1.412.316.345.124.598.26.862.375.264.115.538.21.924.252.37-.056.753-.11 1.139-.15.193-.02.387-.036.58-.048.796-.127 1.629.023 2.141.522 1.089.899 2.307 1.548 3.631 2.078.143.069.284.134.424.194 4.315 1.877 7.161-.232 11.132.487 1.442.264 4.866.812 2.373-1.491M349.727 190.221a.835.835 0 01.291.127c.095.081.104.201.16.297a.739.739 0 00.287.262c.402.229.704-.051.853-.354.067-.135.043-.274.15-.405.083-.103.192-.199.284-.298.227-.243.606-.428.971-.517a2.45 2.45 0 01.669-.076c1.112.041 1.812 1.367 2.908 1.059.842-.237.589-.805.355-1.303-.309-.657-.579-.557.194-1.062.726-.474 2.448-.928 2.565-1.811.161-1.218-3.242-.371-4.187-.27-1.475.158-3.12 1.296-4.65.865-.512-.144-.858-.537-1.349-.725-.735-.282-1.694-.399-2.5-.48-2.412-.243-3.834 1.019-6.166.925a23.9 23.9 0 01-.735-.042c-2.08-.393-4.899.056-4.963 2.053 0 .349.128.699.384.949.385.3 1.089.499 1.474.15.384-.3.641-.749 1.217-.799.713-.062 1.45.225 2.121.366.725.153 1.431.139 2.094-.155.25-.111.42-.299.646-.433.347-.206 1.028-.326.732.191-.119.207-.738.509-.25.664.46.147 1.05-.061 1.534-.023.72.057.153.383.517.582.163.089.44-.079.567-.149.053-.029.325-.191.358-.074.017.059-.183.159-.23.187a.496.496 0 00-.225.228c-.1.207-.106.429-.174.642-.1.314-.383.704-.344 1.039.573.048 1.083-.96 1.531-1.195.283-.149.588-.241.864-.381.259-.131.579-.196.882-.227.371-.037.62.019.954.132.061.021.135.04.211.061M336.385 201.228c-2.883-1.222-4.113 1.089-6.003 1.633-1.919.552-3.946 1.007-6.007 1.031-1.087.013-4.221-.731-4.837.165 1.025 1.227 2.437 1.022 3.958 1.041 2.012.024 4.529.843 6.411 1.362.845.233 1.847.441 2.748.306.953-.144 1.575-.86 1.91-1.525.575-1.141.809-1.393 2.039-2.126.946-.565 2-.946-.219-1.887M298.282 160.475a.443.443 0 01-.062-.219c-.047-.491-.281-.695-.898-.89-.634-.2-1.234-.232-1.901-.196-.484.026-.832-.103-1.27-.242-.388-.123-.818-.134-1.198-.271-.414-.149-.72-.354-1.172-.454-.427-.094-.856-.311-1.309-.314-.466-.003-.821.281-1.298.195-.481-.087-.929-.227-1.428-.287-.552-.067-1.109-.108-1.663-.165a17.699 17.699 0 00-1.594-.072 89.483 89.483 0 00-.524-.004c-.998-.005-2.033-.006-2.967-.15v2.007c.522.206.946.463 1.516.823 1.048.661 2.047.498 3.293.626 1.09.113 2.189.049 3.284.096.712.03 2.208.024 2.61.608.12.174.123.4.248.564.229.299 1.157.312 1.597.329.289.012.561-.06.841.028.191.06.386.179.565.263.191.09.38.183.538.307.363.284.397.311.902.271.416-.033.84-.138 1.258-.139.861-.001 1.829.017 2.63.295.379.131 3.36 1.447 2.965.12-.179-.602-1.921-.365-2.539-.516-.789-.192-.856-.783-1.158-1.288-.265-.444-.213-.961-.893-1.151-.203-.053-.313-.087-.373-.174"/><path d="M310.436 160.451a1.062 1.062 0 00.025-.596c-.279-1.214-2.588-2.157-3.507-2.394-1.923-.495-3.691-.16-5.655-.823-.996-.337-2.029-.876-3.024-.893a3.09 3.09 0 00-1.306.265 5.312 5.312 0 00-1.25.794c-.213.18-.381.399-.652.53-.565.274-1.915.482-2.381-.03-.222-.244-.108-.755-.155-1.046a1.619 1.619 0 00-.089-.344c-.318-.794-.794-.794-1.475-1.179-.81-.457-1.488-1.191-2.295-1.654a1.218 1.218 0 00-.087-.046h-5.606c-.167.493-.296.975-.964.943-.387-.019-.699-.252-1.016-.459v2.612c.408.274.828.529 1.26.779.31.18.65.319.909.546.171.15.408.207.66.222.357.022.728-.05 1.066-.136.45-.114.912-.208 1.345-.357.633-.218 1.512-.613 2.227-.44.328.079.546.317.754.515.171.163.355.314.536.47.153.132.233.322.321.489.133.251.279.504.481.728.467.517.848.805 1.669.939.5.081.95.236 1.438.341.532.114 1.061.008 1.599-.016.542-.024 1.159 0 1.657.19.397.151.509.409.7.699.491.743 1.104.502 1.905.291.428-.113.77-.156 1.153-.371.452-.254.877-.536 1.337-.782 1.645-.878 2.795.286 4.624.903.116.039.253.075.405.106 1.119.231 3.045.199 3.391-.796m9.797 7.741a40.54 40.54 0 001.85.125c.523.025 2.073-.017 1.938.66-.033.164-1.476.052-1.666.088-.676.129-1.26.462-1.943.579-.466.08-1.16.24-1.373.605-.194.335-.009.387.416.301.558-.113 1.013-.471 1.554-.626.496-.142 1.006-.126 1.529-.146.912-.035 2.366.027 3.032-.51.954-.77 1.274-1.42 2.842-1.335 1.193.065 3.174.026 3.74 1.039.352.63-.473.703-.98.968-.253.132-.427.312-.335.632.139.476.425.756.777.907.703.301 1.667.083 2.224-.143.186-.076.377-.134.572-.177.195-.043.394-.07.597-.082.412-.017.796-.017 1.117.078.15.049.299.099.447.15.578.232 1.154.376 1.69.646.204.088.403.177.6.267.609.279 1.203.565 1.813.828.375.161.757.314 1.153.451.769.287 1.73.526 2.691.621.448 0 .833-.143 1.217-.239 1.858-.478 3.781-.335 5.36.483a20.542 20.542 0 00.925.353c.151.057.301.116.451.176a4.336 4.336 0 001.722.374h.004c1.727-.087 2.9.857 3.906 1.757l.223.201c.147.091.293.18.439.268.582.354 1.148.723 1.709 1.072.192.096.449.191.689.17.175.015.355.013.537-.002l.099-.01v-2.11c-.167-.068-.374-.143-.509-.247-.085-.066-.119-.179-.215-.235-.185-.108-.843-.268-1.049-.324-.13-.036-1.361-.082-1.353-.149.038-.315 1.335-.182 1.555-.164.35.028.597.123.922.186.254.049.413.024.653.144-.036-.51-.004-1.031-.004-1.543-.112.006-.216.02-.315.04a5.898 5.898 0 01-2.393.254c-.749-.072-2.477-.589-1.953-1.412.656-1.032 2.658-.239 3.508-.04.387.09.775.098 1.154.109v-.415c-.513-.204-.986-.209-1.525-.302-.06-.01-.281-.15-.521-.282-.184-.101-.378-.197-.52-.228-.216-.046-.501-.046-.783-.033-.282.013-.56.039-.762.046-1.278.043-2.494.161-3.751-.073-.533-.099-1.032-.289-1.569-.375-.445-.071-.888-.033-1.336-.052-.339-.014-.71-.026-1.02-.142-.226-.085-.414-.238-.639-.317-.381-.133-.859-.065-1.228-.193-.29-.1-.56-.245-.862-.323-.281-.072-.56-.076-.845-.151a4.043 4.043 0 01-.598-.177 6.943 6.943 0 01-.536-.236c-.403-.161-.788-.352-1.236-.4a11.169 11.169 0 00-.641-.016c-.218.001-.44.005-.664.009-1.002.054-2.092.007-3.053-.328-.897-.287-1.602-.621-2.435-1.004-.641-.287-1.089-.717-1.489-1.181a3.302 3.302 0 01-.315-.324c-.477-.559-.753-1.2-1.444-1.724-2.987-2.266-5.775-1.5-8.477-1.396-.956.037-1.625.048-2.488-.253-.952-.333-1.973-.538-2.937-.849-.97-.313-2.778-1.113-3.85-.712-.993.371.91.829 1.331.941.971.257 1.97.419 2.95.651.572.135 2.939.741 1.62 1.353-.084.304.255.392.252.68-.004.557-.335.762.429 1.142.577.287 1.089.478 1.643.699.186.096.341.19.43.278.089.088.114.169.04.237-.074.069-.246.125-.551.163a13.402 13.402 0 00-.568-.086c-.19-.025-.381-.048-.572-.069a53.043 53.043 0 00-.574-.06l-.573-.058c-.191-.02-.381-.041-.571-.065-.948-.118-1.878-.298-2.743-.704-.192-.048-.385-.096-.513 0-.32.382.128.717.513.908.224.096.448.179.681.245.237.066.477.114.733.138zm-18.419-15.158a.685.685 0 00-.092.211c-.201.788.723 1.203 1.556 1.399.656.155 1.311.29 1.988.373.611.075 1.318.088 1.881.307.162.063.404.175.276.337-.14.177-.621.057-.812.026-.667-.11-1.396-.222-2.055-.01-.387.124-1.955.18-1.127.721.652.426 1.691.119 2.447.381.748.258 1.195.353 1.985.078a3.9 3.9 0 011.689-.229c.476.039 1.846.134 2.274.456.629.473-.095.524.848.776.904.242 1.216-.329 1.745-.631 1.472-.837 3.188.095 5.144.551 2.524.589 4.997 1.115 7.509 1.58.798.148 3.793.866 3.349-.274-.495-1.271-3.371-1.133-4.297-1.251-1.478-.189-2.902.474-4.546-.347-1.162-.581-.847-.888-.139-1.086-.614-.109-1.153-.366-1.556-.847-.359-.429-.264-.716.069-.915-.343-.155-.685-.315-1.038-.453-1.079-.42-2.287-.494-3.249-.411-1.461.126-2.659.635-4.171.689-1.384.05-2.912-.167-4.414-.566-.388-.103-.982-.328-1.637-.557a24.481 24.481 0 00-.937-.309h-2.69zm57.805 9.868c.074-.01.147-.021.221-.034.805-.143 2.566-1.433 1.006-1.72-1.081-.199-2.329.096-3.311-.391-2.369-1.174-5.324-1.28-7.908-2.102-.964-.307-1.88-.692-2.781-1.095-.419-.187-.835-.378-1.257-.561-.411-.178-.85-.321-1.256-.503-.23-.103-.483-.155-.729-.238a8.892 8.892 0 01-.828-.335 4.413 4.413 0 01-.715-.409c-.168-.119-.322-.278-.521-.367-.331-.147-.876.037-.735.374.046.109.161.141.235.227.061.071.064.229.088.314.028.097.056.195.094.29a.917.917 0 00.339.441c.315.211.734.289 1.088.451.241.109.442.253.594.437.593.721.521 1.649 1.148 2.363.332.378.651 1.366 1.378 1.283.37-.042.746-.282 1.098-.382a4.26 4.26 0 011.728-.128c1.439.191 2.623.991 3.711 1.692.792.509 1.711 1.212 2.823 1.149.825-.046 1.567-.445 2.366-.59.697-.13 1.422-.076 2.124-.166zm-3.508-6.433c.039.01.076.022.113.037.267.107.498.189.784.259.296.073 1.036.28 1.019-.148-.013-.329-.321-.759-.563-1.023a1.108 1.108 0 01-.253-.398.829.829 0 01-.013-.45c.104-.322.314-.551.588-.723.162-.102.4-.24.609-.258.245-.021.532.029.779.038.525.02 1.064.025 1.575-.085.226-.049.466-.16.225-.326-.219-.152-.577-.208-.858-.238-.416-.044-.821-.042-1.236-.102a2.445 2.445 0 00-.184-.019l-.06-.003c-.127.004-.319.004-.425.005l-.048.001a5.283 5.283 0 01-.291.005c-.255-.003-.517-.019-.769.021-.251.04-.505.144-.734.232-.32.124-.55.278-.77.489-.203.195-.629.297-.939.324-.49.044-.975-.055-1.464-.05-.539.005-1.014.171-1.465.389a6.317 6.317 0 00-.57.305c-.067.04-.283.146-.278.228.015.246 1.242-.041 1.469.017.253.064.513.303.231.441-.286.14-.603.226-.882.383-.222.124-.467.235-.671.376-.464.322.03.47.399.602.178.063.345.117.537.146.893.137 1.372-.488 2.186-.607.506-.074.986.027 1.486.066.158.015.322.026.473.066zm-35.545 21.153c1.111.49 2.112 1.162 2.991 1.879.809.66 2.236.567 3.298.53 1.227-.043 2.499.035 3.713-.081 2.15-.205 3.572-1.004 6.139.137 2.263 1.005 4.391 1.999 5.469.32.775-1.207.412-2.698-1.84-2.707-2.291-.008-3.802-.298-6.213-1.199-1.671-.624-1.061.338-1.867.971-1.394 1.097-4.884.411-7.088-.043-2.423-.499-4.132-1.559-6.27-2.947-1.307-.849-3.281-1.899-3.356-3.123-.056-.912.278-1.405-1.408-1.581-2.669-.279-1.481 4.641-4.358.827-.356-.472-.405-1.022-.639-1.519-.254-.538-.831-.924-1.427-1.244-.807-.434-1.808-.761-2.724-.323-.346.165-.373.308-.463.588-.081.252-.282.369-.646.334-.653-.063-1.21.258-1.851.271-.619.013-1.241-.054-1.815-.238-.411-.132-1.23-.42-1.347-.807-.179-.591 1.523-.495 1.967-.561.418-.062 1.674-.1 1.261-.716-.343-.511-1.51-.259-2.083-.333-.672-.086-1.288-.354-1.907-.635-1.942.596-5.979.008-4.612 2.242.075.019.147.033.219.045.247-.02.5-.009.76.023.31-.022.621-.066.967-.067.57-.001 1.566-.063 2.007.269.541.407-.335.353-.614.457.163.154.483.063.704.119.325.082.549.316.835.449.411.192 2.449.472 1.279.915.397.161.773.055 1.166.15.253.061.367.226.548.361.564.422 1.545.47 2.289.471.267 0 .544-.056.807-.048.229.007.447.083.678.1.962.072 1.735-.051 2.54.397.836.465.675 1.214 1.142 1.843.425.573.627.95.868 1.583.116.303.418 1.205.989 1.173.039-.292.324-.767.647-.935.689-.36 1.197.339 1.62.637.536.379 1.099.594 1.486 1.102.373.489.791.683 1.47.877.366.105.674.163 1.062.075.454-.103.828-.329 1.26-.47.384-.126.829-.25 1.246-.133.382.112.737.404 1.101.565zm-34.199-11.182c.066.249-.59.181-.79.175-.369-.012-.737-.037-1.106-.049a17.743 17.743 0 00-.799-.013c-.15.002-.673.093-.789.035.155.079.304.168.447.271.115.073.23.147.347.219.546.34 1.129.671 1.759.896.882-.185 1.182-.633 2.319-.539.476.039 1.846.134 2.274.456.408.307.247.436.341.558l.014-.017c.517-.627-.041-.832-.082-1.495-.032-.52.449-.778.997-.999 1.066-.43 2.303-.549 3.464-.739.46-.075 1.004-.265 1.578-.443a7.947 7.947 0 00-2.474-.171c-1.461.126-2.659.636-4.171.689-1.384.05-2.912-.167-4.414-.566-.917-.244-2.995-1.171-4.285-1.212v1.816c1 .34 2.134.434 3.201.569.478.06 1.024.102 1.473.25.169.055.652.143.696.309zm11.057 16.932c-.48.183-.76.661-1.196.898-.583.318-1.088.165-1.679-.064-1.361-.527-2.938-1.01-3.663-2.134-.213-.33-.168-.705-.356-1.028-.186-.321-.57-.474-.936-.656-.699-.348-1.049-.718-1.57-1.192-.38-.346-.863-.519-1.031-.965-.065-.174.011-.29-.121-.467-.165-.222-.531-.349-.753-.531-.604-.498-.015-.539-.102-1.019-.084-.463-1.139-.608-1.346-1.073-.156-.352.144-.851.335-1.173.391-.659 1.166-1.042 2.076-1.103.783-.053 1.169.158 1.701.565.426.326 1.128.592 1.452.981.466.559.364 1.382.831 1.997.338.445.693.943 1.188 1.296.468.334.861.177 1.413.194.521.016 1.043.138 1.534.266.675.175 1.291.44 1.962.618.703.185 1.252.601 1.96.77.677.161 1.136.619 1.672.965 2.28 1.471 4.103 2.594 6.687 3.123 2.35.481 6.073 1.208 7.56.045.859-.672.209-1.691 1.991-1.03 2.571.955 4.182 1.262 6.626 1.271 2.402.009 2.788 1.59 1.962 2.869-1.149 1.779-3.419.727-5.833-.339-2.738-1.209-4.255-.362-6.548-.144-2.622.249-5.603-.568-8.465-1.58-2.679-.95-5.09-2.223-7.351-1.36zm3.197 8.915c-2.74-1.11-5.516-1.254-8.255-2.105-1.283-.399-2.804-1.03-3.818-1.951-.456-.414-.762-.836-.816-1.301-.055-.474.476-.781.427-1.197-.103-.874-2.588-2.775-.473-2.824 1.634-.037 1.283 1.066 1.703 1.88.491.952 1.416.924 2.288 1.005 1.605.149 2.923.471 4.516 1.32 1.517.808 2.978 1.77 4.625 2.135 2.367.524 2.95-2.028 5.587-1.139.882.297 1.306.947 2.219.891.838-.051 1.284-.663 2.111-.758 1.168-.135 3.772.55 4.951 1.285.576.36 1.216 1.064.95 1.509-.342.571-1.923.09-2.684-.001-.593-.071-1.375-.19-1.803.048-.185.103-.62.612-.365.893.526.58 2.793.543 3.508.864 1.332.598 1.133 1.419.136 1.604-1.709.317-4.165-.291-6.079-.427-1.496-.107-2.893.226-4.374.058-1.422-.162-2.968-1.227-4.354-1.789zm55.921 12.958c.071.018.14.039.209.062.404.139.779.181 1.198.273.63.137 1.141.959 1.762.886.613-.073 1.251-1.005 1.487-1.404.18-.303.15-.619.147-.945-.007-.886-.002-1.773-.002-2.66 0-.052.046-.695.001-.706-.7-.18-1.404-.435-2.107-.621-1.533-.406-2.789-.423-3.644.307-.744.636-1.083 1.185-2.563.946-1.682-.271-3.487-.979-5.125-1.759-1.4-.667-2.042-1.659-3.287-2.403-.784-.468-2.708-1.059-3.531-.412-.156.123-.227.329-.436.409-.194.075-.42-.021-.618.023-.772.172-.114.464.398.478.419.012 1.057-.072 1.428.106.409.196-.005.615-.349.647-.177.016-.317-.065-.477-.108-.284-.076-.578-.092-.874-.117-.685-.059-1.255.236-1.904.347-.383.065-.699.183-1.096.121-1.033-.162-4.934-1.542-4.13.469.791.19 1.282-.266 2.086-.15.725.104 1.396.365 2.106.51.652.134.745.601.991 1.009.316.521.777.736 1.516.761.747.025 1.82-.036 2.497-.307.267-.107.503-.273.752-.415.357-.204.899-.526 1.367-.488.23.019.443.103.68.122.337.027.643.086.957.189 1.139.372 1.323.832 1.984 1.621.368.44.923.67 1.538.815.535.126.869.376 1.378.588.539.225.962.521 1.461.791.421.227.93.262 1.348.484.352.186.7.266 1.12.32.586.073 1.188.071 1.732.211zm-33.587-13.099c-.922.573-1.435 1.28-.122 1.675 1.398.42 2.798.779 4.117.034 1.141-.645 2.16-1.453 3.677-1.117.792.175 1.3.375 2.178.308.83-.063 1.627-.267 2.469-.251.328.006 2.105.02 1.207-.65-.13-.097-4.138.54-2.027-.519.409-.205 1.462-.308.777-.758-.28-.184-1.323-.074-1.691-.11-.65-.063-1.107-.255-1.725.022-.426.191-.514.681-1.141.563-.646-.122-.952-.674-1.64-.813-.708-.143-1.511-.034-2.218.062-.662.09-2.645.798-3.861 1.554zm34.843-1.725c.813.262 1.821.352 2.833.335-.136-.316-.775-.821-.487-1.049.242-.192 1.117-.017 1.656-.008v-.887c-.525-.634-2.019-1.09-3.153-1.435-3.016-.917-5.509.726-7.321 1.625-.691.343-2.02.862-1.741 1.526a.738.738 0 00.087.151c.775-.391 1.515-.818 2.316-1.202 2.715-1.3 3.11.075 5.81.944zm-58.979 19.143c-.731-.539-1.407-.801-2.161-.918-.599.198-1.025.629-1.722.671-.912.056-1.337-.594-2.219-.891a3.277 3.277 0 00-1.094-.189c-.287.078-.665.171-1.071.236-1.092.467-1.877 1.435-3.421 1.093-1.647-.365-3.108-1.326-4.625-2.135a11.906 11.906 0 00-1.507-.68v4.336c1.779.378 3.564.658 5.337 1.29.235-.025.471-.048.709-.068 1.015-.083 2.033-.138 3.048-.229.488-.044.963-.093 1.441-.18.425-.077.836-.005 1.245.1.487.124.946.308 1.405.483.417.158.849.322 1.179.581.219.172.463.248.725.376.156.076.433.238.426.407-.008.194-.426.149-.565.088-.173-.076-.33-.249-.462-.363-.339-.293-.677-.553-1.226-.49-.014.002-.161-.125-.178-.136a2.876 2.876 0 00-.367-.188c-.333-.146-.57-.068-.822.141-.103.085-.344.261-.251.395.128.186.571.142.791.147.371.009.582.098.804.342.138.151.248.156.454.217.219.065.371.211.577.292.259.102.483.05.757.072.233.019.466.05.697.079 1.609.202 3.39.619 5.017.318.997-.185 1.196-1.006-.136-1.604-.715-.321-2.983-.284-3.508-.864-.254-.281.18-.79.366-.893.427-.237 1.21-.119 1.803-.048.526.063 1.442.312 2.071.272a5.544 5.544 0 01-.925-.285c-1.143-.478-1.64-1.072-2.592-1.775zm23.906 3.471c-.39-.456-2.052-1.396-2.734-1.333-.648.06-.85.656-1.679.444-.583-.149-.707-.522-1.089-.801-.606-.443-.858-.356-1.584-.549-.439-.116-.814-.333-1.248-.432-1.481-.341-3.161.079-4.428.693-.76.368-.994.959-1.854 1.242-.382.126-2.004.583-1.044 1.024.36.165.829-.095 1.179-.165.425-.085 1.22-.172 1.629.002.524.222.506.356 1.075.207.399-.104.697-.237 1.138-.246.639-.013 1.444.478 1.991.334.103-.027.249-.227.395-.272.154-.048.357.008.517-.006.37-.032.768-.186 1.138-.141.293.035.618.218.903.294.435.117.913.106 1.33.248.432.148.838.388 1.28.54.734.252 1.691.516 2.416.111.472-.264 1.125-.661.669-1.194zm25.548 8.005c.261-.217.34-.544.571-.785.267-.279.511-.41.943-.213.565.258.036.284-.009.588-.064.431.672.379.929.177.497-.39.766-.739 1.493-.899.642-.14 1.208.013 1.815.168.47.12.954.336 1.46.284a3.934 3.934 0 001.412-.423c1.201-.652 1.321-1.418 3.155-1.075.189.035.906.112 1.758.156v-1.546a2.879 2.879 0 01-.446-.093c-.536-.173-.746-.468-1.122-.759-.298-.23-.472-.278-.821-.445-.301-.144-.529-.412-.935-.502-.654-.144-1.191.16-1.883-.085-.978-.345-1.303-.481-2.13.203-.469.388-.723.89-1.038 1.343-.844 1.211-3.363.843-4.835 1.57-1.766.873-4.437 1.899-5.936.212-.59-.664-.695-.948-1.908-1.132-.855-.13-1.737-.077-2.6-.158-1.017-.095-2.128-.126-3.141.012-1.855.253-3.604.781-5.508.968-1.398.137-2.856.123-4.267-.175-1.281-.271-2.548-.596-3.855-.789-1.227-.181-2.454-.087-3.688-.286-.545-.088-2.025-.351-1.934.418.178 1.513 2.603 1.289 3.964 1.57 1.087.225 2.212.291 3.335.316 2.234.05 4.526-.133 6.727.243.598.102 1.373.176 1.927.347.397.122.554.461.948.576.5.146 1.294-.16 1.828-.14.662.025 1.557.072 2.182.201.636.131.941.713 1.478.969.255.122 1.664.515 1.003-.034-.502-.001-.605-.594-.444-.863.295-.494 1.049-.245 1.606-.29.55-.045 1.045-.259 1.601-.3 1.131-.086 1.935.27 2.401 1.088l.002.003c.224.392 1.046.384 1.536.471.825.145.742-.245 1.377-.54.368-.169.727-.083 1.049-.351zm13.528.305c-.299-.154-.645-.204-.991-.294-.897-.15-1.73-.2-2.565-.025-.219.033-.437.074-.653.121a9.528 9.528 0 00-2.555.942c-.287.158-.54.344-.811.517-.295.189-.62.504-.988.602-1.053.28-2.172.049-3.195-.192-1.112-.261-2.204-.585-3.342-.773-.726-.12-1.476-.085-2.214-.062-.881.028-1.765.243-2.638.168-.501-.043-.803-.239-1.224-.416-.438-.185-1.245-.069-1.595-.291-.828-.526 1.408-1.245-.315-1.168-.793.035-1.055-.371-1.79-.532-.853-.187-2.191-.129-3.067-.06-.503.039-1.125-.002-1.569.202-.312.143-.563.339-.051.438 1.2.231 2.293.443 3.521.368.667-.041.752.273 1.156.586.437.339 1.065.503 1.606.72.35.14 1.322.67.998 1.049-.173.202-.871.216-1.142.236-1.259.091-2.608-.065-3.857-.176-.563-.05-2.155-.319-2.457.231.319.193.934.221 1.307.298 1.001.206 2.091 0 3.11.174.587.1.829.215.688.697-.061.208-.207.497-.08.702.063.101.097.196.257.142.12-.04.227-.156.293-.238.508-.622.956.117 1.103.52.073.2.134.512.091.718-.019.092-.08.177-.096.275-.018.11-.012.222-.041.332-.035.132-.14.313.066.399.186.077.288-.093.426-.157.87-.405.433-1.267.328-1.883a1.727 1.727 0 01-.006-.633c.061-.191.136-.421.264-.591.16-.213.496-.102.717-.043.232.062.42.099.599.231.23.169.521.263.801.371.32.123.64.238.97.343.359.114.719.259 1.091.345.212.049.425.091.641.125.862.137 1.758.15 2.687-.028l.41-.02c.136-.006.272-.011.408-.014.56-.01 1.143.303 1.665.429.354.086.818.062 1.205.042.069-.003.555-.602.763-.672.457-.154.718.032 1.142.142 1.11.288 2.323.04 3.445-.067.846-.081 2 .066 2.562-.521.275-.287.368-.618.765-.843a2.859 2.859 0 011.002-.324c.248-.03.599.067.825.009.449-.115.335-.364.327-.707-.013-.581.003-1.163.003-1.744zm-44.596 7.742c.962-.263 2.866.64 3.885.677.633.023 4.107-.456 4.347.636l.002.01c.21 1.071-1.315 1.091-2.727 1.147.564.308 1.118.586 1.759.666 1.26.157 2.344-.086 3.681.217.377.085.833.275 1.304.485.087-.041.169-.085.244-.132.836-.524.955-3.177 3.238-2.051-.212.859-1.577.555-1.892 1.171.601-.092 1.441.042 2.112.269.525.177.972.474 1.438.727.367.2.993.598 1.479.434.158-.053.285-.128.452-.171.211-.054.402-.16.226-.339-.097-.099-.264-.152-.403-.206a4.161 4.161 0 01-.599-.281c-.296-.174-.586-.37-.809-.602-.095-.099-.136-.208-.241-.303a4.198 4.198 0 00-.33-.268c-.488-.354-.753-.24-1.272-.495-.402-.198-2.792-1.741-2.791-2.003.009-.964 2.591.407 3.007.165a.5.5 0 00.166-.136c.118-.17-.165-.29-.577-.378-.696-.148-1.758-.201-1.879-.239-.591-.184-1.318-.643-1.906-.696-.733-.066-.796.288-1.556.16-.612-.103-1.229-.3-1.846-.493a22.216 22.216 0 00-.917-.27c-.17-.045-.336-.085-.499-.12-1.307-.28-2.384-.222-3.145.427-.744.635-1.083 1.185-2.563.946-1.682-.271-3.487-.979-5.125-1.759-.992-.473-1.547-1.417-2.572-1.792-.346-.126-.766-.207-1.14-.32-.815-.247-1.684-1.006-2.556-1.02-.557-.009-1.522.286-.997.819.302.307 1.07.265 1.363.592.564.63-1.336.418-1.73.482-.595.096-.962.633-1.455.713-.297.049-.653-.071-.928-.139-.5-.122-.988-.267-1.482-.402-.859-.234-1.986-.603-2.919-.471-.235.033-.337.166-.474.305a2.045 2.045 0 01-.31.264c-.116.078-.341.142-.43.234-.236.245.525.238.67.238.376.001.584.177.966.08.284-.072.435-.257.756-.282.798-.062 1.277.479 1.828.814.517.314 1.201.325 1.63.744.494.483.711.8 1.603.83.954.032 2.429-.212 3.145-.513.962-.404 1.677-.855 3.108-.387 1.139.372 1.323.832 1.984 1.621.594.71 1.737.95 2.889 1.083.23-.327.562-.626.788-.688zm-29.833 2.394c.962.68 1.968.176 2.911.565.615.253.935.758.689 1.156-.334.539-1.685.295-2.446.214-1.995-.212-5.065-.247-6.46-2.125-.315-.423-.638-.852-.868-1.308-.197-.391-.289-.851-.036-1.246.101-.157.093-.265.109-.448.018-.202.094-.54.402-.6.305-.059.377.215.403.391.05.329-.083.881.568.754.215-.042.345-.185.518-.283.255-.145.556-.239.823-.37.279-.137.523-.226.85-.113.224.077.319.207.433.363.116.159.272.295.413.441.481.498.681.646.898 1.222.177.471.213.976.793 1.387zm65.276.728c.21.022.417.062.618.111.601.147 1.366.378 1.867-.047.718-.609.043-1.015-.784-.886-.844.132-1.867.431-2.669.002-.467-.25-.518-.726-.924-.991-.557-.363-1.423-.047-2.009.1-.997.25-1.263-.029-1.968-.614-.35-.29-2.456.086-2.914.162-.747.124-1.418.32-1.939.773-.538.469-.661.89.141 1.16.451.152 1.417.377.557.847-.192.105-1.018.105-1.066.3-.065.263.625.24.814.278.37.074.602.183.987.114.364-.065.507-.191.922-.189.387.002.777.091 1.143-.05.427-.165.523-.314.979-.375.541-.073 1.108-.18 1.666-.259.342-.049.761.032 1.176.112.42.08.836.158 1.165.096.431-.081.655-.37 1.027-.512.392-.151.805-.175 1.211-.132zm-51.953-58.017c-.634.079-1.451-.193-2.135-.328-.718-.142-1.416-.099-2.126-.272-.475-.115-1.888-.938-1.861-.161.02.567 1.289.783 1.796.909.789.197 4.22.164 4.69.638.676.683-1.614 2.017-1.948 2.389 1.043.054.993-.593 1.491-.992.605-.484 1.692-.134 2.318-.467.671-.357-.211-1.235.652-1.547.763-.276 4.114-.466 4.852.855.409.733-.827.634-1.348.88-.274.129-.531.377-.38.639.164.283.706.309 1.042.352.656.083 1.313.162 1.97.242.596.072 1.233.207 1.839.19.915-.026 1.89-.346 2.702.178.412.266.712.738.975 1.089.249.333.627.412 1.027.57.256.101.509.278.8.309.22.023.449-.042.674-.03.62.032 1.26.222 1.715.554.106.074.206.152.305.23.396.314.787.633 1.191.886 2.399 1.502 4.573 1.837 6.949 1.846 2.325.009 4.809.636 7.217 1.685 1.467.64 2.903 1.465 3.932.698.409-.305 1.24-1.362.473-1.937-.337-.252-.914-.233-1.264-.499-.328-.249-.967-.372-1.154-.714-.26-.476.493-.324.815-.381.521-.093.187-.413.005-.671-.179-.254-.433-.544-.835-.57-.314-.02-.579.141-.88.171-.436.044-.983-.145-1.415-.208-.555-.08-1.031-.272-1.535-.462-.314-.118-.754-.271-.815-.58-.062-.315.423-.474.747-.565.606-.171 1.603-.419 2.35-.297.41.067.938.416 1.387.521.523.122 1.049.093 1.548.125-.019-.111-.026-.164-.07-.278-.645-.359-1.199-.342-1.849-.454-.105-.018-.713-.438-1.04-.508-.432-.092-1.141 0-1.544.014-1.232.043-2.313.346-3.466.517-2.59.385-4.39-.332-7.182-1.738-1.121-.564-2.435-1.364-3.725-1.901-1.154-.481-2.289-.753-3.25-.459-1.734.531-2.577.152-4.274-1.357-.697-.62-.928-1.417-1.757-2.045-2.985-2.261-5.773-1.495-8.476-1.389-1.142.045-2.067.12-3.287-.297-1.623-.555-4.33-1.68-5.433-.729.649.134 1.259.433 1.922.551.649.115 1.133.066 1.729.197 1.065.234 2.12.809 3.179.889a.814.814 0 01.101.384c-.012.584-2.598.517-.842 1.917.389.307 3.327 1.182 1.498 1.411zm-1.994 14.846c.036-.008.07-.013.106-.02a.552.552 0 00-.044-.221c-.495-1.272-3.371-1.133-4.297-1.251l-.08-.009a8.25 8.25 0 01-.776-.022c-1.182.043-2.364.346-3.69-.317-1.623-.811-.364-1.089.822-1.282-.55-.114-1.134-.149-1.575-.338-.38-.163-.643-.463-1.124-.512-.481-.05-1.066.348-1.496.225-.924-.266.209-.544.523-.66.476-.176.569-.317.589-.564a21.054 21.054 0 00-.404-.168c-1.079-.42-2.287-.494-3.25-.411a9.672 9.672 0 00-.806.107c-.078.013-.155.028-.232.043-.466.09-.918.2-1.378.298-.195.042-.392.08-.592.115v2.048c.248-.043.496-.084.74-.124.572-.094 1.104-.302 1.645-.465a9.887 9.887 0 011.784-.366c.192-.022.638-.036.646.204.005.134-.155.293-.263.382-.161.132-.268.268-.485.348-.237.087-.467.191-.708.271-.243.081-.545.09-.806.118-.578.062-1.161.104-1.734.192a5.32 5.32 0 00-.82.181v.727l.017.005c.904.242 1.216-.329 1.745-.631 1.472-.837 3.188.095 5.144.551 2.524.589 4.997 1.115 7.509 1.58.516.096 1.949.429 2.779.346-.014-.201.021-.278.511-.38zm-2.814 14.672c-1.088-.08-2.199-.244-3.202-.569a7.63 7.63 0 01-1.098-.45 5.181 5.181 0 01-1.309-.927c-.112-.114-.217-.227-.321-.338-.624-.668-1.232-1.326-2.179-1.79-.274-.134-1.174-.666-.855-.98.208-.205.846-.109 1.116-.093.495.029 2.402.083 1.813.833-.179.228-.401.209-.693.286-.177.047-.416.26-.243.406.09.076.297.066.416.07.226.008.454.008.679-.007.31-.021.588-.142.89-.17.278-.027.535-.021.782-.149.671-.349-.211-1.205.652-1.51.763-.269 4.114-.455 4.852.835.527.921-1.593.622-1.315 1.561.63 2.13 7.729-1.456 6.369 2.41-.553 1.574-4.874.691-6.354.582zm-14.46-10.387c.377.074.576.219.984.229.268.007.536-.034.802-.049a8.228 8.228 0 012.312.164c1.066.228 2.12.79 3.18.867a.791.791 0 01.101.374c-.012.57-2.598.504-.842 1.871.387.301 3.326 1.155 1.496 1.379-.634.078-1.451-.189-2.135-.321-.526-.101-1.041-.107-1.558-.168a1.225 1.225 0 01-.052-.279c-.056-.889.277-1.369-1.404-1.541-1.028-.105-1.482.545-1.818 1.17-.405.754-.638 1.469-1.498.77v2.982c.327.056.719.018 1.229-.145.198.772.021 2.772 1.364 3.342.796.337 1.256-.063 1.678-.444.106-.095.209-.189.315-.27.704-.336 1.543-.932 2.382-.657.141.038.28.083.421.132.986.246 2.443.369 3.26.885.319.202.411.6.772.755.368.159.848-.008 1.248.028 1.548.138 2.91.752 4.423.951 1.395.184 2.254-.323 3.609-.398 1.749-.097 2.62.606 4.04 1.087 1.372.464 1.7.039 2.752-.671.611-.412 1.461-1.523 2.365-1.557 1.052-.039 1.659 1.044 2.644 1.302.921.242 1.84.605 2.738.874.87.26 1.791.36 2.577.768.685.355 1.086.974 1.807 1.293 1.25.553 2.806.243 4.063.851.177.086.349.178.519.271.646.355 1.13.772 1.671 1.174.57.423.868-.002 1.46-.178.389-.116 1.607.131 1.428-.513-.328-.055-.378-.436-.572-.611-.094-.085-.251-.064-.351-.164-.268-.267-.483-.378-.804-.611-.236-.171-.29-.404-.484-.587-.501-.471-1.18-.109-1.809-.352-.667-.258-.771-.687-1.59-.915-.723-.202-1.261-.041-1.947-.018-.622.021-1.041.451-1.612-.091-1.659-1.577 5.313-.352 6.095-.187.793.167 2.398.902 2.914.008.498-.865-1.337-1.628-2.179-1.773-.994-.171-1.346.22-2.144.345-1.16.181-5.943-1.011-3.335-1.73.606-.167 1.603-.409 2.35-.29.41.065.938.406 1.387.508.485.11 1.611.387 1.645-.219.009-.153-.675-.213-.801-.231-.367-.053-.705-.222-1.06-.263-.22-.026-.44-.044-.637-.125-.191-.079-.34-.204-.558-.249-.432-.09-1.141 0-1.544.013-1.232.042-2.312.338-3.466.505-2.59.376-4.39-.324-7.182-1.696-.665-.327-1.319-.593-1.859-1.034-1.212-.989-2.88-2.262-4.716-2.413-1.682-.138-2.707.973-4.292.048-.954-.557-1.28-1.59-2.14-2.226-2.984-2.205-5.772-1.457-8.474-1.354-1.142.043-2.067.117-3.287-.29-1.119-.374-2.253-.848-3.467-1.015-.847-.116-1.81-.026-2.65.074a4.774 4.774 0 00-.194.025v.581c.159-.002.322-.012.43.009zm36.361 5.606c-.552.954-.895 2.11-2.246 2.504-.891.26-2.058.071-3.098.05-2.051-.041-3.468.741-5.405.837-.96.047-3.601-.16-4.302-1.247-.884-1.371 1.751-2.09 2.889-2.069 1.909.037 3.467.741 4.525-.483.872-1.009 1.445-2.407 3.592-2.099.785.113 1.484.442 2.141.227 1.013-.33 1.538-1.166 2.732-1.292 1.473-.155 2.123.64 3.153 1.627 2.911 2.788 3.658-.232 5.214-.96.992-.464 3.097.132 4.404.482 1.669.447 1.891-.788 3.375-.718.667.031 3.603.518 3.179 1.408-.196.412-1.17.207-1.631.337-1.331.374-1.717 1.596-3.396 1.445-1.478-.133-2.57-.236-3.749.675-.947.732-1.987 1.744-3.466 1.666-1.056-.056-2.371-.5-3.395-.752-1.111-.274-1.469-.698-2.034-1.451-.72-.96-1.76-1.437-2.482-.187zm39.883-15.939c-.404-.557-2.094-1.691-2.774-1.603-.646.084-.83.823-1.665.575-.588-.175-.723-.633-1.113-.972-.619-.538-.868-.427-1.6-.653-.442-.137-.824-.398-1.262-.514-.594-.158-1.29-.069-1.831-.05-1.324.047-3.79.295-4.503 1.137-.973 1.149 2.146 2.622 3.445 2.789 1.936.249 3.19-1.236 5.086-.725 1.795.484 4.202 2.495 5.587 1.501.461-.333 1.102-.833.63-1.485zm-59.34 37.598c-.575 1.008-.933 2.229-2.343 2.646-.93.275-2.148.075-3.233.053-1.37-.028-2.62.357-3.918.636-1.534.33-2.786-.053-4.33-.161-.583-.041-1.694.1-2.062-.366-.388-.491.324-.958.883-1.048.97-.156 1.768-.092 2.713-.444.865-.322 1.695-.703 2.573-1.002.72-.245 1.268-.182 1.748-.744.909-1.066 1.507-2.544 3.747-2.218.819.12 1.549.467 2.234.241 1.057-.349 1.605-1.232 2.85-1.365 1.537-.164 2.215.677 3.291 1.72 3.039 2.947 3.817-.244 5.44-1.013 1.035-.49 3.231.139 4.595.51 1.741.473 1.972-.832 3.521-.758 1.192.057 1.769.385 2.626.932.309.197.568-.031.476.313-.058.22-.759.423-.972.491-.84.268-1.916.081-2.734.394-.538.207-1.054.922-1.659.96-.59.038-1.268-.381-1.86-.227-.97.252-.199 1.247-.451 1.928-.221.597-1.095.72-1.917.76-.701.034-1.449-.089-2.136-.023-.417.04-.738.208-1.241.106-.971-.195-1.952-.678-2.923-.866-.816-.158-1.258-.02-1.934-.664-.524-.5-.775-1.526-1.664-1.686-.644-.117-1.128.558-1.32.895zm34.24-11.538c-.229.68-.096 1.455.882 1.646.649.127 1.337-.039 2 .031.631.066 1.331-.055 1.941.056.581.106.973.547 1.55.643.538.089 1.179-.021 1.729-.004.711.022 1.218.142 1.858.349.607.197 1.142.04 1.765.039.616-.001 1.272.226 1.819.428 1.167.43 2.332.863 3.539 1.225.292.088.642.188.919.027.908-.53-1.112-2.171-1.606-2.546-.467-.355-.72-.24-1.216-.495-.385-.198-2.67-1.742-2.669-2.005.008-.964 2.476.408 2.873.166.939-.571-1.988-.688-2.189-.753-.565-.185-1.26-.644-1.822-.697-.7-.066-.76.288-1.486.159-.874-.155-1.759-.519-2.641-.764-1.465-.407-2.665-.424-3.482.306-.849.758-2.691.677-3.384 1.505-.16.192-.295.432-.38.684zm28.757-5.866c-.836-.432-1.971-.693-2.859-.907-1.789-.429-3.316-.428-5.149-1.051-.96-.326-.981-.82-1.775-1.237-.139-.073-.29-.101-.429-.166-.568-.268-1.066-.634-1.731-.738-.332-.052-1.228-.297-1.124.199.043.205.222.347.224.574.002.392-.157.944-.733 1.034-.608.095-1.555-.042-2.23-.002-1.511.089-3.02-.052-4.514-.199-.677-.066-1.373-.112-2.036-.213-.634-.096-1.145.049-1.697.277-.559.231-1.382.266-1.96.045-.273-.104-.499-.291-.814-.314-.349-.025-.715.131-1.023.238-.485.169-.851.291-1.121.652-.161.215-.529.417-.617.65-.212.563 1.881.391 2.163.365.333-.031.804.063.936.332.11.223-.022.353.348.477.652.218 1.343.042 1.953-.164.585-.198 1.135-.432 1.744-.587.411-.104.937-.384 1.365-.398.575-.018.856.434 1.215.696.302.22.953.402 1.346.194.365-.193-.092-.374-.249-.502-.468-.38.456-.464.758-.495.749-.077 1.38.308 2.103.371 1.047.091 2.083.239 3.106.416 2.117.365 4.187.859 6.232 1.386 1.041.269 2.062.353 3.1.618.783.2 1.547.521 2.318.803a15.373 15.373 0 001.617.497v-2.564a4.608 4.608 0 00-.467-.287zm-4.045 27.74c-.545.786 1.193 1.301 2.524 1.957.671.15 1.339.311 1.994.477v-2.338c-.983.461-3.828-1.092-4.518-.096zm-54.537-20.022c.106.091.193.172.262.245.022-.434-.517-.995-1.011-1.303-.441-.275-1.082-.543-1.772-.764.459.425.437.982.749 1.253.311.27 1.324.405 1.772.569z"/><path fill="#8A8A8A" d="M292.416 214.399a.367.367 0 00-.143.041c.296-.002.591-.016.886-.034-.186-.029-.402-.025-.743-.007M290.858 214.317a3.852 3.852 0 00.515.083.652.652 0 00-.144-.05 2.42 2.42 0 00-.371-.033"/><path fill="#1C1C1C" d="M291.257 206.131c.014-.28-.238-.453-.601-.56.31.157.505.353.601.56M293.118 209.283c.798.252 1.52.382 2.374.242.603-.098 1.126-.233 1.751-.165.219.024.419.063.603.114.183.052.351.115.508.189.881.488 1.522 1.187 2.387 1.784.115.067.237.13.365.187a5.258 5.258 0 002.133.447c.586-.005 1.659-.173 1.017-.744a2.51 2.51 0 00-.376-.277c-.672-.409-1.505-.459-2.21-.759-.513-.2-.833-.649-1.154-1.049-.449-.549-1.153-1.198-1.931-1.202a7.816 7.816 0 01-.483-.048c-.323-.041-.65-.095-.992-.132-1.367-.15-2.896-.384-4.27-.249-.64.063-1.134-.089-1.738-.064-.601.025-1.161.295-1.768.297-.4.001-.802-.01-1.202 0-.485.011-.7.131-1.126.258-.475.488.926.681 1.332.809.747.237 1.505.383 2.286.24.914-.166 1.614-.155 2.494.122M284.948 205.969c1.299.078 2.252-.488 3.4-.677-.371-.671-.15-1.402-1.583-1.156-.802.137-.895 1.047-1.888.847-.166-.223-.015-.668-.183-.809-.483-.408-.486.044-.814.083-.482.057-1.077-.149-1.686-.386.435 1.114 1.066 1.996 2.754 2.098M281.214 182.153c.427-.039 1.137-.489 1.623-.305.695.263.456.816.276 1.121.954.363 1.002-.463 1.621-.632.126-.034.25-.055.374-.064-.024-.152-.01-.327-.138-.419-.431-.308-1.231.211-1.734.064-.526-.153-.828-.701-1.252-.967a7.953 7.953 0 00-.985-.522v1.736c.068-.001.139-.005.215-.012M351.74 218.699a.422.422 0 00.124-.188c.18-.559-1.155-.494-1.54-.483-.311.009-.78.113-1.076.048-.433-.095-.651-.655-.458-.949.324-.492 1.246-.368 1.746-.253.437.101.852.257 1.294.344.307.061.948-.044 1.177.127.1.074.048.203.191.255.27.099.945-.286 1.17-.368.499-.181.8-.329.713-.778-.039-.2-.102-.224.139-.367.314-.185 1.645-.234 1.496-.664-.158-.455-1.135-.65-1.609-.819-.746-.266-1.278-.13-2.084-.095-1.387.06-3.012.141-4.362-.181-1.664-.396-3.545-.761-5.115-1.349-1.586-.594-3.184-1.194-4.844-1.616-1.256-.319-2.513-.652-3.819-.808a13.18 13.18 0 01-2.645-.587c-.274-.09-.299-.343-.648-.361-.397-.02-.685.452-1.132.452-.582-.001-.893-.347-1.264-.645-.39-.313-.877-1.21-1.507-1.218-.533-.007-.498.374-.884.572-.791.406-1.666.232-2.446-.093-.339-.141-.651-.346-1.016-.442-.339-.09-.703-.117-1.053-.16a7.236 7.236 0 01-1.413-.334c-.396-.133-.795-.277-1.097-.521-1.045-.844-2.564-.982-4.02-.988-1.017-.004-1.886-.267-2.76.317-.633.423-.685.28-.588-.345.216-1.394-1.142-.538-1.91-.152-1.566.787-3.117-.24-4.526-.902a7.198 7.198 0 00-1.077-.411 6.039 6.039 0 00-.373-.108c-1.303-.299-2.617-.256-3.925-.138-.187.017-.373.035-.56.054-.613.016-1.269.214-1.866.016a12.289 12.289 0 00-1.874-.357c1.294.928 3.31 1.794 4.401 1.98.362.062.741.062 1.109.078.568.024 1.003.373 1.31.749.244.299.221.61.701.729.332.082.742.16 1.089.165.898.015 1.982-.195 2.621.33.585.437 1.347.656 1.991.99.129.067.253.138.37.217.285.196.477.616.157.773a3.522 3.522 0 01-.498.257c-.179.078-.367.149-.551.223-.265.106-.533.162-.745.344-.349.301-.481.731-.335 1.126.061.165.147.483.336.583.242.128.421-.308.514-.416.224-.262.4-.537.696-.752a1.85 1.85 0 01.772-.316c.092-.014.224-.001.309-.029a.603.603 0 00.331-.231c.383-.472-.128-.997.387-1.428.17-.162.381-.299.572-.406.297-.168.591-.213.933-.279.144-.028.291-.051.44-.071.742-.099 1.549-.125 2.2-.164 1.032-.062 2.066-.092 3.096.015.327.034.47.155.708.322.27.189.69.217.91.456.088.096.126.217.193.323.065.103.152.188.238.277.219.227.126.424-.127.606-.126.091-.267.195-.416.259-.18.078-.474.091-.674.12a4.676 4.676 0 01-.592.046c-.358.002-.714-.042-1.072-.05-.54-.011-1.347-.015-1.774.308-.225.17-.305.474-.286.718l.001.01c.135 1.422 4.566.767 5.624 1.066.833.235 1.43.824 2.277.222.363-.257.324-.648.659-.892.341-.248.741-.148 1.103-.343.787-.425 1.185-1.056 1.956-.881.154.035.323.102.514.21.944 1.171 2.097 2.019 3.953 2.062l.568.093a43.92 43.92 0 011.694.317c.522.11 1.502.206 1.833.552.15.157.104.387.228.533.126.149.381.212.461.305.252.29.242.679.613.912.332.208.754.133 1.113.266.557.206.766.672 1.225.947.643.385.505.053 1.097-.12.549-.16 1.412.215 2.038.314.603.095 1.238.974 1.985.698.402-.148.239-.595.858-.616.946-.032 1.77.346 2.491.784.316.193.725.609 1.095.715.324.093 1.019-.174 1.402-.214.386-.038 1.048-.032 1.339-.297M289.763 216.605c-1.951-1.019-3.844-.071-5.778-.642-.963-.284-1.696-.863-2.75-.999a3.155 3.155 0 00-.237-.02v3.871c.508.003 1.035-.218 1.507-.312.942-.188 2.283-.244 3.205.05 1.09.348.819 1.08 1.368 1.729.214.253.504.778.805.943.511.282 1.197-.002 1.733-.046.968-.08 1.357.351 2.156.604.474.15.86.038 1.323.014h.002c.724-.037 1.181.116 1.442-.492.151-.353.035-.61-.093-.968-.282-.785-.564-1.47.642-1.857 1.798-.577 2.896 1.173 4.508 1.158.442-.004 2.168-.326 1.717-.842-.105-.121-1-.245-1.218-.352-.52-.255-.886-.613-1.525-.712-.882-.137-2.154.114-2.931-.293-.484-.253-.727-.719-1.243-.987-.949-.493-2.261-.43-3.356-.588l-.074-.011c.902.715 2.237 1.187 3.156 1.914-2.408.634-2.552-.219-4.359-1.162M282.355 190.36c.062.029.125.054.193.075.171.051.348.058.529.061.093.002.214-.014.27.055.051.064.016.172.062.245.089.142.3.213.481.26.27.071.562.108.846.122.152.008.435.035.554-.065.253-.21-.383-.467-.556-.529-.086-.03-.205-.041-.164-.114.04-.071.28-.122.354-.183.265-.216-.281-.276-.445-.354-.093-.045-.113-.104-.182-.162-.095-.079-.238-.083-.369-.095-.168-.016-.432-.011-.554-.121-.106-.097-.043-.315.053-.399.111-.096.279-.118.436-.127a3.52 3.52 0 01.934.09c.281.059.551.229.801.34.144.064.315.161.476.197.16.036.271-.055.412-.103.207-.069.291.11.481.096.227-.016.168-.267.079-.366-.185-.205-.556-.259-.855-.252-.154.004-.331.037-.477-.016-.203-.073-.218-.267-.4-.344a2.394 2.394 0 01-.583-.377c-.258-.216-.461-.489-.887-.376-.249.066-.554.189-.5.419.025.103.05.154-.091.21-.096.038-.206.026-.303.063-.104.041-.177.12-.277.166-.183.084-.34.03-.523-.028-.382-.122-.753-.083-1.154-.119v.155c0 .42-.029.847.005 1.266.575-.284.9.098 1.354.31M282.194 186.655l.036-.007c.103-.017.18.009.284.023.238.033.562.054.78-.046.09-.041.132-.08.24-.1.138-.026.284-.032.424-.049.476-.059.822-.236 1.23-.412.287-.124.763-.297.779-.591.008-.13-.043-.377-.17-.465-.197-.137-.54.01-.757.042-.179.026-.268.072-.427.139-.137.058-.325.065-.473.106-.25.069-.5.138-.748.212-.545.164-1.079.372-1.654.466a88 88 0 00-.74.124c-.035.006 0 .666-.001.741.041-.042.31-.003.399-.013.163-.019.319-.06.478-.089.109-.02.214-.06.32-.081"/><path fill="#1C1C1C" d="M289.167 185.624c.441.19 1.026.226 1.575.34.307.064.603.151.857.304.502.301.579.928 1.144 1.14.228.085.532.136.866.162.249.019.513.025.776.022a12.424 12.424 0 001.35-.092c1.557-.201 3.103-1.1 4.715-.86.997.148 2.123.795 1.543 1.689-.263.406-.695.537-1.237.561-.693.031-1.279.06-1.95.191l-.106.02c-.49.102-.525.18-.509.379.008.104.03.241.01.431-.341.074-.655.315-.981.351-.379.041-.686-.211-1.077-.029-.335.156-.494.474-.128.655.403.2 1.342-.135 1.761-.196.481-.07.991-.054 1.462-.163.682-.158 1.254-.503 1.904-.719.311-.104.628-.152.901-.291.296-.151.466-.459.876-.444.874.033.986.995 1.295 1.069.151.036.303.057.454.067.151.01.302.008.453-.001.233.038.491-.013.684-.116.403-.177.818-.233 1.226-.24.136-.002.271.001.405.008.426.021.775.116 1.217.056a4.92 4.92 0 001.177-.329c.37-.15.707-.344 1.078-.489.32-.125.56-.349.899-.449.166-.049.339-.057.496-.126.262-.114.42-.29.575-.481.143-.175.53-.377.546-.591.028-.378-.651-.347-.956-.334-.352.015-.705.003-1.057-.001-.324-.003-.623.045-.943.054-1.959.057-5.893-.49-7.051-1.812-.654-.747-.516-1.673-1.836-2.135a2.826 2.826 0 00-.441-.118c-.647-.116-1.562-.001-2.148.24-.45.186-1.089.2-1.584.144-.555-.062-1.049-.346-1.603-.437-.203-.033-.444-.096-.652-.091-.13.003-.242.043-.375.038-.298-.011-.451-.165-.521-.377-.102-.305-.173-.606-.323-.902-.074-.145-.18-.243-.289-.369a1.301 1.301 0 01-.222-.527c-.021-.288-.104-.151.169-.388.299-.259.959-.503 1.385-.583.584-.109 1.078.12 1.629.217.597.105 1.115-.027 1.697.026.453.041.942.288 1.332.461.833.369 1.713.878 2.698.938a2.744 2.744 0 001.593-.39c.856-.514.032-1.177-.539-1.581a5.062 5.062 0 00-1.604-.758c-1.03-.281-2.13-.198-3.17-.008-.47.086-.941.071-1.416-.002-.594-.092-.856-.463-1.385-.62-.463-.138-.944-.185-1.398-.352-.441-.162-.883-.387-1.334-.504-.338-.088-.746.008-1.087-.079-.169-.043-.311-.1-.462-.157-.196-.073-.404-.034-.608-.048-.266-.017-.535-.062-.797-.1-2.78-.411-4.794-1.86-7.297-2.746-.233-.083-.954-.389-1.833-.711v1.768c.456.021.561.208.781.724.209.492.498.465 1.018.665.786.302 1.503 1.031 2.041 1.562.438.432.097 2.038 1.141 1.837.466-.09.432-.668 1.067-.466.409.13.528.573.615.869.105.357.112.792.317 1.125.154.25.531.462.806.625.177.105.368.222.56.31.154.071.333.126.341.295.008.16-.18.177-.341.183-.254.01-.472.034-.722-.006-.251-.04-.491-.13-.746-.155-.351-.034-.462.138-.699.291-.317.205-.721-.005-1.062-.102-.159-.045-.337-.097-.51-.089-.236.011-3.455.636-2.84 1.092.309.229.635-.073.862-.186.236-.117.567-.102.824-.201.281-.108.617-.114.925-.096.449.027.92.131 1.34.253.191.055.387.13.582.173.137.03.354.008.459.096.177.147-.069.3-.228.364-.334.135-1.371.247-1.407.609-.008.08.099.285.149.354.124.172.21.151.453.111.224-.037.411-.077.612-.161.263-.109.567-.301.861-.167.15.068.282.198.44.274.175.084.355.155.532.232M297.192 165.649c.6-.124 1.33-.29 1.943-.249.42.029 1.65.44 1.407-.201-.114-.301-1.136-.795-1.531-.839-.655-.073-1.463.107-2.098.227a6.748 6.748 0 00-.395.084c-1.961.644-4.716.394-6.09 1.809-.073.126-.121.26-.14.396-.038.273.041.558.265.819.04.106.063.211.043.329-.02.118-.082.248-.211.405l-.014.017c-.249.298-.802.845-1.336.653-.306-.11-.203-.395-.4-.528-.255-.173-.372-.139-.676-.218-.811-.21-1.628-.085-2.388-.336l-.134-.046c-.63-.226-1.214-.557-1.759-.896a52.577 52.577 0 01-.347-.219 3.41 3.41 0 00-.447-.271c-.445-.226-.944-.364-1.514-.475a6.026 6.026 0 00-.37-.057v1.93c.683.106 1.341.235 1.845.63.14.107.289.21.5.262.907.223 1.803.497 2.709.769l.152.046c.709.212 1.432.535 2.157.853.296.13.554.302.843.441.3.145.374.416.77.479.232.037.502 0 .742.024.201.02.397.066.598.082.384.031.682-.094.9-.342.448-.51.062-1.285.663-1.735.371-.278 1.164-.121 1.613-.058.305.043 1 .307 1.217.485.124.102.118.297.24.39.291.222.318.478.831.214.692-.357.105-.384-.292-.61-.413-.236-.683-.68-.416-1.058.26-.368.881-.338 1.368-.25.327.06.816.154.862-.19.045-.339-.507-.393-.795-.499-.399-.147-.628-.476-1.122-.498-.478-.022-.844.234-1.337.226a7.28 7.28 0 01-1.239-.131.595.595 0 01-.341-.101c-.192-.449.256-.749.641-.999.192-.15.449-.2.705-.299.513-.1 1.025-.3 1.575-.324l.428-.073c.134-.021.26-.044.375-.068M356.74 202a11.373 11.373 0 00-1.193-.502c.486.467 1.088.966 1.193.502"/><path fill="#1C1C1C" d="M357.943 203.19a13.885 13.885 0 01-2.096-1.188c-.581-.4-1.218-.793-1.706-1.323a2.01 2.01 0 01-.179-.223 15.466 15.466 0 01-.973-.312c-1.531-.27-4.14-.117-5.153-1.327-.661-.789-.846-1.249-1.984-1.621-1.376-.45-2.09-.051-2.998.34 1.23.629.554 1.473 1.749 2.266.453.301 1.229.285 1.751.473.69.249 1.014.543 1.786.627.8.087 1.089-.171 1.747-.263 2.469-.347 3.56 1.604 5.746 2.666.668.324 1.301.552 1.907.707.099-.178.188-.367.28-.557.039-.08.079-.169.123-.265M361.702 179.419a3.012 3.012 0 01-.537.002c-.241.022-.497-.078-.69-.178-.779-.406-1.443-1.051-2.339-1.316-1.715-.508-.753 1.032.042 1.499.835.491 1.594.902.936 1.78-.98 1.309-3.215.436-4.485 1.21-.348.212-1.47 1.284-.709 1.481.178.046.986-.278 1.242-.296.612-.043 1.182.069 1.767-.155.807-.309 1.623-1.109 2.558-1.153.582-.028 1.137.228 1.757.197.189-.01.374-.036.556-.075v-3.006a1.626 1.626 0 01-.098.01M357.413 156.382a2.404 2.404 0 00-.44-.099.966.966 0 00.209.068c.077.012.154.022.231.031M361.553 212.226c-.193-.024-.393-.047-.59-.073-1.561-.205-2.612-1.212-.716-1.484.475-.068 1.037.272 1.554.237v-1.13c-.617-.336-1.202-.636-2.143-.351a3.88 3.88 0 00-1.006.327l-.111.056c-.12.055-.241.112-.362.165-.364.161-.741.297-1.174.288a2.512 2.512 0 01-.121-.006c-.856-.071-1.107-.614-1.867-.792-1.167-.272-1.182.402-1.865.422-.294.009-.725-.229-1.052-.33-1.227.192-.304.852.334 1.307.959.684 2.865.821 4.478.892.202.009.399.017.589.027.659.034 1.42.166 2.017.378.146.052.213.173.313.247.133.1.266.182.441.25.23.09.536.146.793.129.103-.007.738-.142.738-.227v-.301l-.25-.031M328.302 155.362c2.055.247 3.45 2.071 5.242 1.312.595-.252.382-1.152 1.21-1.276 1.071-.16 2.213.646 3.234 1.239 1.7.987 4.736 4.037 6.661 4.081 3.984.092-2.523-2.876-3.153-3.307-.813-.555-.654-1.366-1.362-1.754-.9-.493-1.885.127-2.778-.134-2.446-.716-1.738-2.902-4.14-2.344-.735.171-1.023.998-1.806 1.047-1.203.076-2.791-.765-4.117-.814-1.441-.053-2.568.4-3.817.656-.246.051-.507.065-.759.084-.625.047-1.266.079-1.875.203a5.646 5.646 0 00-1.804.687c-.28.169-.563.345-.799.551-.159.139-.372.347-.297.548.092.25.495.315.786.264.145-.026.261-.1.409-.124a2.74 2.74 0 01.689-.006c.443.043-.065.2-.226.27-.226.097-.65.272-.667.508-.02.285.626.348.872.36.636.031 1.155-.194 1.711-.398.651-.239 1.339-.324 2.033-.451.535-.098.998-.292 1.498-.46.321-.108.666-.17.983-.283a3.21 3.21 0 01.584-.164 1.2 1.2 0 00.351-.111c.123-.062.245-.09.39-.119.307-.062.63-.104.947-.065"/><path fill="#1C1C1C" d="M338.889 154.004c.091.03.176.059.239.093.441.238.548.635 1.214.54.453-.065.584-.411 1.108-.282.571.141.364.625.77.879.527.33 1.496.426 2.122.619.444.137 1.228 1.058 1.753 1.333.931.487 2 .811 3.056 1.095 2.174.587 4.164 1.325 6.538 1.142.968-.074 1.892-.376 2.866-.348.237.007.535.018.715.156.229.174.31.533.18.754-.128.219-.307.538.157.582.225.021.441-.07.666-.062.163.006.274.099.436.119.074.009 1.114.065 1.113.061-.037-.553.158-.926-.561-1.137-.949-.278-.282-.509-.052-1.061.232-.557-.738-.274-1.079-.272-.425.002-1.434-.279-.882-.691.239-.179.542-.207.733-.459.259-.342.095-.332-.405-.413a8.516 8.516 0 00-1.341-.113c-.371.004-.747.144-1.122.112-.327-.028-.685-.279-.991-.394-.463-.175-.82-.448-1.35-.483-.489-.031-.973.096-1.458.113-.749.025-1.336.055-2.069.225-1.307.302-2.571-.595-3.345-1.344-.455-.44-.909-.813-1.667-.88-.91-.08-1.918-.004-2.776-.237-.81-.22-1.767-.603-2.641-.603-.466 0-.903.091-1.354.167-.289.048-.763.039-.962.227-.361.339.053.452.389.562"/><path fill="#5E5E5E" d="M302.022 233.325c-3.963-1.358-8.512.108-12.264-.287-3.92-.413-7.586-2.15-8.719.663h21.934c-.161-.097-.47-.211-.951-.376"/><path fill="#1C1C1C" d="M325.795 226.341c.554.054 1.175.049 1.581.136.607.131 1.141.31 1.769.371.568.056.723.116 1.142.396.484.323.828.346 1.458.379.543.028.923.239 1.439.31.687.094.86-.209.294-.538-.463-.269-1.279-.192-1.441-.671-.21-.622.84-1.021 1.367-1.319.388-.22.947-.366 1.427-.346.514.021.878.248 1.221.515.526.411.817.915 1.184 1.412.313.424.736.891 1.437.877.832-.016 1.245-.833 2.101-.728.39.048.843.371 1.205.501.647.232 1.313.447 1.973.656.152.057.3.115.446.176.44.183.864.399 1.349.674.346.196.669.467.999.741.626.52.556 1.289 1.702 1.404.354.035.543-.149.854-.211.431-.085.718.075 1.14.13.585.076 1.286.23 1.662.616.717.737 1.549.015 2.522.011.229-.001.526.152.714.238.229.104.247.185.583.254.375.078.729.097 1.08.209.408.13.797.296 1.171.478.135.066.256.157.393.217.18.079.401.116.59.185.142.052.261.092.421.086.375-.015.911-.097 1.238-.242.403-.179.027-.457-.262-.547-.463-.143-.997-.04-1.449-.189a6.644 6.644 0 01-1.407-.65c-.37-.233-.669-.581-.415-.946.69-.996 3.535.557 4.518.096v-.185c-.542-.291-1.085-.593-1.658-.722-.596-.134-1.171-.173-1.752-.22-.557-.044-1.121-.095-1.719-.242-1.047-.258-2.599-.127-3.584-.841-.403-.292-.421-.744-.819-1.003-.62-.404-1.521-.302-2.126-.343-.887-.06-1.728-.358-2.51-.446-2.002-.226-4.219.352-6.326-.441-.562-1.407 5.104-.454 6.144-.491.838-.03 1.935.507 2.721.407.319-.04.489-.166.61-.322a1.41 1.41 0 00-.093-.07c-.032-.021-.064-.042-.099-.062a1.83 1.83 0 00-.465-.174c-1.245-.178-2.526-.477-3.744-.278-1.346.3-2.499-.05-3.596-.531a41.216 41.216 0 00-1.466-.468c-.256-.05-.512-.25-.675-.392a6.672 6.672 0 01-.381-.42c-.247-.291-.492-.593-.747-.897-.526-.626-.556-.474-1.332-.796-.581-.241-.661-.448-1.017-.935a7.403 7.403 0 00-.119-.16c-.315-.419-.618-.731-1.3-.82-1.005-.13-1.813.189-2.676.377a5.351 5.351 0 01-.76.116c-1.371.1-2.765-.736-4.236-.655-.899.049-1.619.461-2.574.399-.519-.034-1.277-.259-1.712-.492-.423-.226-.605-.7-1.233-.589-.732.129-.494.692-.869 1.016-.298.258-1 .33-1.411.381-.887.11-3.399-.182-3.65.809-.168.66.956.937 1.409 1.279.402.303.864 1.015.534 1.44-.312.401-.923.345-1.406.514-.576.203-.738.571-.161.772.478.166.973.086 1.357-.171.74-.496.822-1.486 1.63-1.904.895-.463 2.581-.493 3.757-.561 1.149-.066 5.909-.393 5.354 1.734-.212.815-2.113.541-2.9.619-.475.047-2.311.249-1.352.844.225.141.57.206.946.243M320.603 232.3c.048-.134.129-.272.246-.412.755-.907 2.105-.024 3.213-.227.359-.066.663-.254 1.039-.278.436-.028.842.147 1.263.204 1.22.165 1.761-.57.667-1.158-1.128-.606-2.584-.846-3.934-.89-.657-.021-1.337.121-1.98.084-.669-.039-1.486-.256-2.078-.493-.666-.267-1.807-.505-2.407.076-.268.26-.095.723-.226 1.032-.106.249-.304.438-.587.576-.223.109-.637.109-.803.249-.344.292-.003.947-.784.952-1.396.009-2.399-1.628-2.751-1.655-2.154-.163-4.562-.264-6.808-.769-.95-.215-1.841-.736-2.713-1.089-.339-.137-.561-.362-.892-.519-.649-.309-.554.219-.988.148-.672-.108-.778-.522-1.376-.763-.731-.294-2.342-.887-3.103-.986-1.384-.182-2.344.343-3.736.033-.529-.118-1.031-.29-1.54-.451-.196-.062-.351-.05-.544-.084-.24-.042-.467-.178-.706-.239-.243-.062-.692-.225-.948-.157-.32.084-.116.241.027.346.503.369 1.22.578 1.862.79.538.178 1.231.397 1.577.786.16.179.189.378.077.583-.733 1.334-5.477-1.253-4.694 1.209.554 1.744 2.731 1.186 4.397 1.388.861.104 1.439.474 2.284.111.827-.355 1.333-1.119 2.242-1.382.782-.227 1.721-.076 2.31.393.642.511.441.775.148 1.322-.704 1.315.947 1.139 2.065.895.635-.138 1.029-.229 1.642-.008.534.193.73.635 1.179.821.577.239 1.199-.196 1.834-.008.672.199.838.463 1.555.504.954.055 1.897.08 2.807.343.139.04.272.088.401.139h12.132c-1.021-.184-1.612-.743-1.369-1.416"/><path fill="#5E5E5E" d="M331.078 232.696a1.66 1.66 0 01-.092-.396.702.702 0 01.06-.388c.315-.616 1.68-.312 1.892-1.171-2.283-1.126-2.402 1.528-3.238 2.051a2.336 2.336 0 01-.244.132c-.889.419-2.373.555-3.432.692-.192.025-.487.064-.841.103h7.126l-.011-.02c-.256-.417-1.041-.486-1.22-1.003"/><path fill="#1C1C1C" d="M333.129 197.134c-.145-.056-.289-.114-.442-.167-.188-.066-.372-.084-.573-.137-.26-.069-.412-.165-.71-.136-.159.016-.36.087-.521.052-.199-.043-.273-.194-.478-.246-.313-.079-1.209.225-1.371-.069-.215-.391.98-.492 1.256-.598.647-.248 1.374-.324 2.048-.076.423.156.779.377 1.221.523.495.163.995.312 1.515.421 1.061.223 2.178.261 3.232-.005.769-.25 1.602.35 2.224.787.137.13.289.276.42.421.285.315.617 1.03-.276.967-.251-.018-.376-.196-.55-.311-.193-.127-.47-.257-.711-.143-.164.078-.205.265-.385.338-.433.177-.917-.075-1.276-.244-.424-.199-.894-.345-1.359-.476-.94-.267-1.914-.457-2.842-.75a5.997 5.997 0 01-.422-.151M291.333 192.518c-.005.485.082.408.536.639.525.267.669.669 1.408.605 1.362-.117 3.343.756 4.14 1.57 1.188 1.214 3.706 2.7 5.736 2.921.8.087 1.089-.171 1.747-.263 2.469-.347 3.56 1.604 5.746 2.666 4.554 2.21 7.455-.061 11.554.681 1.441.261 4.865.809 2.373-1.493-2.049-1.893-4.053-.135-5.91-.321-2.387-.24-4.422-1.471-6.87-1.385a9.543 9.543 0 01-3.263-.468c-.986-.313-1.813-.867-2.78-1.164-.301-.092-.739-.01-1.028-.156-.174-.088-.148-.25-.335-.328-.144-.061-.401-.01-.564-.046-.484-.107-1.17-.194-1.384-.573-.289-.512-.197-.993-.873-1.334l-.043-.021c-.704-.333-1.442-.807-2.178-.462-.621.291-1.253.344-1.993.206-.395-.073-.685-.312-1.093-.345-.441-.036-.803.139-1.237.003-.287-.09-.458-.352-.744-.422-.308-.075-.584.124-.892.017-.103-.036-.487-.358-.546-.437-.113-.151.087-.458-.031-.577-.343-.347-.546.205-.802.294-.258.09-.633-.008-.908-.043-.262-.033-.536.011-.792-.045-.315-.069-.629-.383-.972-.356-.868.067.241.412.501.499.686.228 1.292.285 1.902.644.316.186.498.411.734.565l-1.139-1.071z"/></svg>