<svg xmlns="http://www.w3.org/2000/svg" viewBox="280.996 153.383 80 80"><path fill-rule="evenodd" clip-rule="evenodd" fill="#939597" d="M280.996 153.383h80v80h-80z"/><path d="M280.996 181.601h25.072c4.988.023 9.742.068 14.018.159-4.753.146-9.346.107-14.018.161h-25.072v-.32zM360.996 172.93H349.33c-6.448-.054-12.786-.015-19.345-.161 5.902-.09 12.461-.136 19.345-.159h11.667v.32zM280.996 195.452h6.178c5.243-.054 10.396-.015 15.728-.161a1096.88 1096.88 0 00-15.728-.159h-6.178v.32zM280.996 214.008h23.623c5.597.023 10.93.068 15.728.159-5.333.146-10.486.107-15.728.161h-23.623v-.32zM360.996 211.634h-15.828c-7.509-.054-14.889-.015-22.526-.161 6.872-.09 14.51-.136 22.526-.159h15.828v.32zM360.996 199.004h-17.55c-5.293-.054-10.495-.015-15.879-.161 4.844-.09 10.228-.136 15.879-.159h17.55v.32zM280.996 201.46h19.773c5.243-.054 10.396-.015 15.728-.161a1096.88 1096.88 0 00-15.728-.159h-19.773v.32zM360.996 225.993h-8.17c-5.288-.054-10.486-.015-15.865-.161 4.84-.09 10.22-.136 15.865-.159h8.17v.32zM360.996 216.201h-3.895c-5.288-.054-10.486-.015-15.865-.161 4.84-.09 10.22-.136 15.865-.159h3.895v.32zM280.996 171.958h10.986c4.155.023 8.114.068 11.677.159-3.959.146-7.784.107-11.677.161h-10.986v-.32z"/></svg>