<svg xmlns="http://www.w3.org/2000/svg" viewBox="-433.617 645.914 273.844 338.292"><path fill="none" d="M-160.315 786.17s-1.436-19.096-2.453-35.293c0 0 1.727-29.647-15.627-56.117 0 0-5.49-6.648-16.627-16.628v.007c-10.504-6.073-25.037-10.142-25.037-10.142-14.746-2.992-32.315-13.173-32.315-13.173-1.451-1.157-7.42-2.221-7.42-2.221h-25.529v-6.188h-20.34v6.188H-332.2c-3.471.2-7.035 1.064-7.035 1.064-16.781 10.613-44.547 17.94-44.547 17.94-6.371 2.128-13.498 5.599-13.498 5.599v-.031s-4.535 4.921-9.055 8.376c0 0-21.688 16.197-23.91 59.001l-.293 7.805-.586 6.371s-.184 7.914-.863 14.947c0 0-.293 14.068-.973 15.041 0 0 11.184 10.504 38.379 11.568 0 0 6.756.201 9.934-2.406 0 0-.215-1.928.078-7.035 0 0 .4-4.828.787-8.775 0 0-.865-13.684.678-23.91 0 0-.293-1.449 1.25-1.203 2.9 7.805 3.471 27.334 3.471 27.334 2.313 27.766 5.645 66.529 5.645 66.529 3.471 52.061-7.527 108.178-7.527 108.178a114.528 114.528 0 01-1.588 8.098c1.357 13.111 27.766 14.563 27.766 14.563 50.609 4.242 102.578.586 102.578.586 24.68-.479 32.1-5.492 32.1-5.492 7.143-3.084 8.299-8.576 8.299-8.576.586-1.543-.863-5.213-.863-5.213a915.593 915.593 0 01-1.752-10.574v.16h-21.664c-14.023-.224-3.653-.061-17.916-.671 12.835-.377 2.946-.566 17.916-.662h21.476a952.017 952.017 0 01-2.933-19.862h-44.424c-15.231-.224-30.201-.062-45.693-.671 13.94-.377 29.433-.566 45.693-.662h44.243a839.888 839.888 0 01-2.279-18.25h-9.464c-14.023-.224 1.064-.061-13.2-.671 12.835-.377-1.771-.566 13.2-.662h9.315c-.291-2.627-.432-4.071-.432-4.071-1.521-16.575-1.309-34.609-.948-45.641h-28.841c-14.044-.224 2.389-.061-11.896-.671 12.854-.377-3.097-.566 11.896-.662h28.886c.201-5.647.426-9.144.426-9.144.935-7.131 1.854-16.937 2.618-26.093h-2.315c-13.902-.224-.542-.061-14.682-.671 12.724-.377-.159-.566 14.682-.662h2.425c1.067-12.951 1.805-24.251 1.805-24.251 1.451-13.496 2.315-29.601 2.315-29.601.863-7.912 2.992-12 2.992-12 .203-.311.406-.641.609-.986-.174.49-.342.988-.5 1.51 0 0 .262.803.631 3.596 0 0 .371 7.666.51 21.256 0 0 .586 7.234.803 15.117 0 0 .939 2.822 7.018 2.744 0 0 16.846 1.65 38.533-8.9-.002-.001 3.037-2.02 2.605-5.137zm-238.746-84.923v-1.333h37.013c21.978.096 42.92.285 61.763.662-20.94.609-41.175.447-61.763.671h-37.013zm6.517 27.598v-1.333h19.967c11.018.096 21.517.285 30.963.662-10.498.609-20.642.447-30.963.671h-19.967zm13.74 40.16v-1.333h43.582c13.228.096 25.831.285 37.172.662-12.603.609-24.781.447-37.172.671h-43.582zm3.143 40.436h8.888c15.043.096 3.332.285 16.228.662-14.333.609-2.137.447-16.228.671h-8.888v-1.333zm1.368 15.916v-1.333h16.382c14.841.096 1.569.285 14.293.662-14.14.609-.391.447-14.293.671h-16.382zm1.631 25.021v-1.333h23.389c14.841.096 28.982.285 41.706.662-14.14.609-27.804.447-41.706.671h-23.389zm23.469 23.096h-22.024v-1.333h22.024c14.841.096-1.507.285 11.216.662-14.139.61 2.686.447-11.216.671zm-14.626 63.945h-12.044v-1.333h12.044c14.841.096 3.139.285 15.863.662-14.141.609-1.961.447-15.863.671zm24.754-33.453h-33.597v-1.333h33.597c14.841.096 28.982.285 41.706.662-14.14.61-27.804.448-41.706.671zm107.521-12.552h10.103v1.333h-10.103c-19.911-.224-39.48-.062-59.732-.671 18.223-.377 38.477-.566 59.732-.662zm12.075-52.599v1.333h-16.641c-14.035-.224-27.829-.061-42.105-.671 12.845-.377 27.122-.566 42.105-.662h16.641zm11.894-86.833h-47.417c-15.51-.224-30.755-.061-46.531-.671 14.196-.377 29.973-.566 46.531-.662h47.417v1.333zm7.177-20.42h-20.112c-17.099-.224-33.905-.061-51.297-.671 15.65-.377 33.043-.566 51.297-.662h20.112v1.333zm6.069-24.95h-1.984c-15.51-.224-26-.061-41.776-.671 14.196-.377 25.218-.566 41.776-.662h1.984v1.333z"/><path d="M-350.544 810.103c-12.897-.377-1.185-.566-16.228-.662h-8.888v1.333h8.888c14.09-.224 1.895-.062 16.228-.671zM-234.744 823.484c14.14.609.78.447 14.682.671h2.315l.11-1.333h-2.425c-14.841.097-1.958.285-14.682.662zM-375.863 936.086v1.333h12.044c13.902-.224 1.723-.061 15.863-.671-12.724-.377-1.022-.566-15.863-.662h-12.044zM-349.193 872.141h-22.024v1.333h22.024c13.902-.224-2.924-.061 11.216-.671-12.723-.377 3.625-.566-11.216-.662zM-261.574 860.053c14.285.609-2.148.447 11.896.671h28.841l.045-1.333h-28.886c-14.992.096.958.285-11.896.662zM-301.523 751.311c15.776.609 31.021.447 46.531.671h47.417v-1.333h-47.417c-16.558.097-32.335.286-46.531.662zM-306.965 930.68c15.492.609 30.462.447 45.693.671h44.424a370.69 370.69 0 01-.181-1.333h-44.243c-16.26.097-31.753.286-45.693.662zM-238.088 705.941c15.776.609 26.266.447 41.776.671h1.984v-1.333h-1.984c-16.558.096-27.581.285-41.776.662zM-300.286 700.576c-18.843-.377-39.785-.566-61.763-.662h-37.013v1.333h37.013c20.588-.224 40.823-.062 61.763-.671z"/><path fill="#FFF" d="M-298.051 768.334c-11.34-.377-23.944-.566-37.172-.662h-43.582v1.333h43.582c12.391-.223 24.569-.061 37.172-.671zM-271.806 730.891c17.392.609 34.198.447 51.297.671h20.112v-1.333h-20.112c-18.255.096-35.648.285-51.297.662zM-343.619 824.686c-12.724-.377.548-.566-14.293-.662h-16.382v1.333h16.382c13.903-.223.153-.061 14.293-.671zM-372.662 902.634v1.333h33.597c13.902-.224 27.566-.061 41.706-.671-12.724-.377-26.865-.566-41.706-.662h-33.597zM-231.544 892.746h10.103v-1.333h-10.103c-21.256.096-41.509.285-59.732.662 20.252.61 39.822.448 59.732.671zM-278.215 839.476c14.275.609 28.07.447 42.105.671h16.641v-1.333h-16.641c-14.983.097-29.259.286-42.105.662zM-307.568 849.707c-12.724-.377-26.865-.566-41.706-.662h-23.389v1.333h23.389c13.902-.223 27.566-.061 41.706-.671zM-253.307 951.875c14.263.609 3.893.447 17.916.671h21.664v-.16l-.188-1.173h-21.476c-14.97.096-5.081.285-17.916.662zM-241.971 911.098c14.264.609-.823.447 13.2.671h9.464l-.149-1.333h-9.315c-14.971.096-.366.285-13.2.662zM-341.614 728.174c-9.446-.377-19.944-.566-30.963-.662h-19.967v1.333h19.967c10.322-.224 20.466-.062 30.963-.671z"/></svg>