<svg xmlns="http://www.w3.org/2000/svg" viewBox="-719.677 646.337 267.003 337.412"><path fill="none" d="M-670.401 757.392c.05.725.067 1.834.064 3.238.004-1.406-.014-2.515-.064-3.238z"/><path fill="none" d="M-453.197 784.849c-.864-13.883-2.9-44.824-2.9-44.824-.617-17.57-6.016-31.993-12.726-42.513-9.039-14.16-19.961-21.41-19.961-21.41-11.137-6.51-17.06-7.08-28.352-9.981-8.79-2.258-20.019-8.272-24.562-10.827-.454-1.063-2.373-1.865-3.297-2.735-1.557-1.467-1.426-2.082-3.867-2.718-4.528-1.18-12.605-2.255-17.936-2.22-2.642.017-3.538-.417-6.185-.405-2.203.009-4.411.025-6.611.023-2.364-.002-3.588-.359-6.063-.401H-586.816c-4.062.042-7.631.409-12.149.385-6.569-.035-18.069 1.026-24.201 2.544-2.664.66-2.349.991-3.987 2.602-1.003.986-3.233 1.959-3.553 3.109-12.867 7.9-39.001 15.271-39.001 15.271-11.568 3.332-13.883 5.646-13.883 5.646l.006.022c-6.675 4.612-12.716 11.563-12.716 11.563-19.235 18.217-20.531 60.591-20.531 60.591-.293 16.783-2.313 36.002-2.313 36.002 18.51 9.98 46.275 9.842 46.275 9.842 1.296-.432 1.157-3.039 1.157-3.039 0-7.234 1.157-12.586 1.157-12.586.03-9.873.447-18.666.154-21.397.05.723.067 1.832.064 3.238.003-1.404-.015-2.514-.064-3.238-.063-.785-.154-1.141-.293-.879l1.444-4.75.422 1.264c2.606 9.549 2.175 27.041 2.175 27.041.179 10.018.396 18.182.613 24.703h7.929c13.744.096 8.591.285 20.374.662-13.095.609-7.499.447-20.374.671h-7.884c.476 13.888.931 19.808.931 19.808.139 9.842 1.743 17.647 1.743 17.647.135 1.994.254 3.964.361 5.911h26.978c13.56.096 26.48.285 38.105.662-12.919.609-25.404.447-38.105.671h-26.908c.304 5.841.489 11.439.587 16.67h11.475c13.56.096 12.948.285 24.573.662-12.919.609-11.871.447-24.573.671h-11.453c.347 21.581-.747 36.656-.747 36.656a611.46 611.46 0 01-3.041 25.956h10.071c13.56.096 9 .285 20.625.662-12.919.609-7.923.447-20.625.671h-10.256c-3.056 21.76-6.337 37.16-6.616 37.93l-.386 1.065c9.256 7.713 68.643 10.797 68.643 10.797 41.463 3.471 99.693-6.941 99.693-6.941 4.442-1.357 5.6-3.855 5.6-3.855a807.928 807.928 0 01-3.392-20.015v1.241h-7.152c-12.812-.224-25.405-.061-38.438-.671 11.727-.377 24.76-.566 38.438-.662h7.138c-11.419-73.074-6.05-108.123-6.05-108.123 1.743-10.799 3.085-50.133 3.085-50.133.386-4.828.201-10.227.201-10.227-1.127-19.146 2.321-30.613 2.505-31.209 2.06 4.027 1.629 25.824 1.629 25.824-.139 1.883.293 4.629.293 4.629.864 6.369.586 10.998.586 10.998 10.259 4.9 47.28-8.551 47.28-8.551zm-223.415-88.272v-1.333h28.364c20.081.096 39.214.285 56.43.662-19.132.609-37.62.447-56.43.671h-28.364zm4.261 32.691v-1.333h15.079c10.067.096 19.659.285 28.289.662-9.591.609-18.859.447-28.289.671h-15.079zm22.484 96.513h-14.967v-1.333h14.967c13.56.096 7.427.285 19.053.662-12.92.609-6.352.447-19.053.671zm26.724-56.352h-43.207v-1.333h43.207c12.086.096 23.601.285 33.962.662-11.515.609-22.642.447-33.962.671zm-3.511 134.961h-35.969v-1.333h35.969c13.56.096 26.48.285 38.105.662-12.92.609-25.404.447-38.105.671zm119.798 22.292h-49.316c-13.916-.224-27.593-.062-41.748-.671 12.736-.377 26.892-.566 41.748-.662h49.316v1.333zm-1.876-14.49h-9.436c-12.813-.224-6.743-.062-19.775-.671 11.727-.377 6.097-.566 19.775-.662h9.436v1.333zm-1.081-20.355v1.333h-18.603c-18.192-.224-36.072-.062-54.575-.671 16.65-.377 35.155-.566 54.575-.662h18.603zm-46.635-36.454c11.744-.377 24.796-.566 38.495-.662h7.546v1.333h-7.546c-12.832-.223-25.443-.061-38.495-.671zm47.716-14.812h-23.856c-12.823-.224-25.427-.061-38.47-.671 11.736-.377 24.78-.566 38.47-.662h23.856v1.333zm1.258-21.086h-3.165c-12.702-.224-8.376-.061-21.295-.671 11.625-.377 7.735-.566 21.295-.662h3.165v1.333zm3.961-72.172h-46.922c-14.171-.224-28.1-.061-42.514-.671 12.97-.377 27.385-.566 42.514-.662h46.922v1.333zm2.501-15.328h-17.323c-15.623-.224-30.978-.061-46.868-.671 14.298-.377 30.19-.566 46.868-.662h17.323v1.333zm-33.978-30.714c12.97-.377 22.31-.566 37.438-.662h1.813v1.333h-1.813c-14.171-.224-23.024-.061-37.438-.671z"/><path d="M-637.737 805.433c-11.783-.377-6.63-.566-20.374-.662h-7.929l.045 1.333h7.884c12.875-.224 7.279-.061 20.374-.671zM-531.934 818.815c12.919.609 8.593.447 21.295.671h3.165v-1.333h-3.165c-13.56.096-9.67.285-21.295.662zM-635.373 932.078c-11.625-.377-7.065-.566-20.625-.662h-10.071l-.185 1.333h10.256c12.702-.224 7.706-.061 20.625-.671zM-626.254 868.134c-11.625-.377-11.013-.566-24.573-.662h-11.475l.022 1.333h11.453c12.701-.224 11.653-.062 24.573-.671zM-510.407 856.054v-1.333h-7.546c-13.698.096-26.751.285-38.495.662 13.051.609 25.663.447 38.495.671h7.546zM-592.948 746.642c14.414.609 28.343.447 42.514.671h46.922v-1.333h-46.922c-15.129.096-29.544.285-42.514.662zM-597.92 926.011c14.154.609 27.832.447 41.748.671h49.316v-1.333h-49.316c-14.856.096-29.012.285-41.748.662zM-495.739 701.942v-1.333h-1.813c-15.128.096-24.468.285-37.438.662 14.414.609 23.267.447 37.438.671h1.813zM-591.818 695.906c-17.216-.377-36.35-.566-56.43-.662h-28.364v1.333h28.364c18.81-.224 37.298-.061 56.43-.671z"/><path fill="#FFF" d="M-623.143 768.096h-43.207v1.333h43.207c11.321-.224 22.448-.061 33.962-.671-10.361-.377-21.877-.566-33.962-.662zM-565.202 731.314c15.89.609 31.245.447 46.868.671h17.323v-1.333h-17.323c-16.678.096-32.57.285-46.868.662zM-664.835 824.448v1.333h14.967c12.702-.224 6.133-.061 19.053-.671-11.625-.377-5.493-.566-19.053-.662h-14.967zM-626.654 903.057h-35.969v1.333h35.969c12.702-.224 25.186-.061 38.105-.671-11.625-.377-24.546-.566-38.105-.662zM-582.991 892.499c18.503.609 36.384.447 54.575.671h18.603v-1.333h-18.603c-19.42.096-37.925.285-54.575.662zM-571.057 839.9c13.043.609 25.646.447 38.47.671h23.856v-1.333h-23.856c-13.69.096-26.734.285-38.47.662zM-597.876 850.131c-11.625-.377-24.546-.566-38.105-.662h-26.978c.025.446.047.889.07 1.333h26.908c12.701-.224 25.185-.062 38.105-.671zM-548.3 952.299c13.032.609 25.625.447 38.438.671h7.152v-1.241l-.014-.092h-7.138c-13.678.096-26.711.285-38.438.662zM-537.943 911.522c13.032.609 6.962.447 19.775.671h9.436v-1.333h-9.436c-13.678.096-8.048.285-19.775.662zM-628.983 728.597c-8.63-.377-18.223-.566-28.289-.662h-15.079v1.333h15.079c9.43-.224 18.698-.061 28.289-.671z"/></svg>