<svg xmlns="http://www.w3.org/2000/svg" width="272.687" height="337.292"><path fill="none" d="M162.697 196.095l-.04-.302-24.961 58.974.084.198zM199.35 151.236l-.048-.252-33.151 69.724.037.273zM112.695 196.095l-.128-.302-3.327 24.913.131.275zM76.042 151.236l-.12-.252-4.533 23.925.125.225z"/><path fill="#FFF" d="M212.595 122.38l-5.646-29.792-30.838 64.859-4.071-30.494-34.428 72.816-34.429-72.816-4.071 30.494-30.837-64.859-5.646 29.792-25.762-51.063c1.598 8.261 3.144 14.369 3.144 14.369 3.384 10.456 8.292 19.649 10.147 22.956a65.6 65.6 0 00.751 1.31c2.902 7.813 3.474 27.354 3.474 27.354.225 2.704.461 5.517.701 8.382l16.305 29.221 4.533-23.925.12.252.048-.252 33.15 69.722 3.327-24.913.128.302.04-.302 24.961 58.974 24.961-58.974.04.302.128-.302 3.326 24.915 33.15-69.724.048.252.12-.252 4.534 23.926 13.059-23.406c1.445-13.487 2.307-29.527 2.307-29.527.863-7.92 2.994-12.009 2.994-12.009.202-.309.405-.64.609-.984 1.602-4.506 3.795-7.826 5.828-13.341 3.056-8.274 4.616-15.699 6.668-21.148.123-.55.238-1.11.351-1.679l-23.224 49.564z"/><path fill="#000202" d="M199.35 151.236l-33.162 69.745-.036-.273-3.326-24.915-.128.302-24.917 58.87-.084-.198-24.961-58.974-.04.302-3.324 24.887-.131-.275-33.15-69.722-.048.252-4.528 23.897-.125-.225-16.305-29.221-.124-.222c2.242 26.72 5.003 58.84 5.003 58.84 3.473 52.099-7.533 108.255-7.533 108.255a115.363 115.363 0 01-1.59 8.104c1.358 13.121 27.785 14.574 27.785 14.574 50.648 4.245 102.654.586 102.654.586 24.698-.479 32.123-5.497 32.123-5.497 7.146-3.087 8.305-8.581 8.305-8.581.587-1.543-.864-5.217-.864-5.217-5.526-32.154-7.919-56.639-7.919-56.639-2.408-26.242-.479-56.158-.479-56.158 2.315-17.659 4.538-51.712 4.538-51.712l.011-.092-12.947 23.204-.043-.224-4.534-23.926-.121.253z"/></svg>