<svg xmlns="http://www.w3.org/2000/svg" width="267.003" height="337.411"><path fill="none" d="M133.071 254.414l.405 1.05 22.197-57.593-.194-1.596zM106.978 220.03l.628 1.451 2.872-23.621-.611-1.585zM159.167 220.021l.178 1.46 29.734-68.679-.23-1.336zM72.531 174.45l.602 1.184 3.94-22.839-.575-1.329z"/><path fill="#FFF" d="M72.531 174.45l3.967-22.984.575 1.329.227-1.313 29.678 68.548 2.889-23.755.611 1.585.191-1.568 22.402 58.122 22.408-58.139.194 1.596.609-1.579 2.885 23.729 29.682-68.555.23 1.336.571-1.319 3.962 22.96 20.109-39.58c-.889-18.334 2.398-29.281 2.578-29.864-.002-.004-.003-.009-.006-.013 0 0 1.085-10.272 4.313-28.186l-19.654 46.063-5.141-29.792-28.081 64.859-3.708-30.494-31.351 72.816-31.351-72.816-3.708 30.494-28.079-64.86-5.141 29.792-17.996-39.174c1.398 9.817 3.523 21.112 3.523 21.112l-.006.017.422 1.265c2.608 9.556 2.177 27.061 2.177 27.061.021 1.231.045 2.426.067 3.602l.58 1.142-.032-1.628 19.404 38.191z"/><path fill="#000202" d="M211.07 197.072c1.744-10.806 3.087-50.169 3.087-50.169.387-4.832.201-10.234.201-10.234-.026-.448-.048-.887-.069-1.326l-20.471 40.291-.206-1.191-3.962-22.96-.571 1.319-29.734 68.68-.178-1.461-2.885-23.729-.609 1.579-22.198 57.593-.404-1.05-22.402-58.122-.191 1.568-2.872 23.621-.628-1.451L77.3 151.482l-.227 1.313-3.94 22.839-.602-1.184-19.404-38.193.032 1.628c.593 29.675 1.508 41.574 1.508 41.574.139 9.849 1.744 17.659 1.744 17.659 2.315 34.16.293 61.946.293 61.946-3.334 35.166-9.462 64.202-9.849 65.267l-.386 1.065c9.262 7.719 68.693 10.806 68.693 10.806 41.493 3.473 99.767-6.946 99.767-6.946 4.445-1.358 5.603-3.859 5.603-3.859-15.822-86.832-9.462-128.325-9.462-128.325z"/></svg>