<svg xmlns="http://www.w3.org/2000/svg" width="265.948" height="336.412" viewBox="24.383 312.876 265.948 336.412"><path fill="none" d="M290.331 450.889c-.864-13.883-2.9-44.824-2.9-44.824-.617-17.57-6.016-31.993-12.726-42.513-9.039-14.16-19.961-21.41-19.961-21.41-11.137-6.51-17.061-7.08-28.352-9.98-8.791-2.258-20.019-8.272-24.562-10.827-.454-1.063-2.373-1.865-3.297-2.735-1.557-1.467-1.426-2.082-3.867-2.718-4.528-1.18-12.605-2.255-17.936-2.22-2.642.017-3.538-.417-6.185-.405-2.203.009-4.411.025-6.611.023-2.364-.002-3.588-.359-6.063-.401H156.712c-4.062.042-7.631.409-12.149.385-6.569-.035-18.069 1.026-24.201 2.544-2.664.66-2.349.991-3.987 2.603-1.003.986-3.233 1.959-3.553 3.109-12.867 7.9-39.001 15.271-39.001 15.271-11.568 3.332-13.883 5.646-13.883 5.646l.006.022c-6.675 4.612-12.716 11.563-12.716 11.563-19.235 18.217-20.531 60.591-20.531 60.591-.293 16.783-2.313 36.002-2.313 36.002 18.51 9.98 46.275 9.842 46.275 9.842 1.296-.432 1.157-3.039 1.157-3.039 0-7.234 1.157-12.586 1.157-12.586.03-9.873.447-18.666.154-21.396.05.723.067 1.832.064 3.238.003-1.404-.015-2.514-.064-3.238-.063-.785-.154-1.141-.293-.879l1.444-4.75.422 1.264c2.606 9.549 2.175 27.041 2.175 27.041.586 32.826 1.589 45.844 1.589 45.844.139 9.842 1.743 17.646 1.743 17.646 2.314 34.132.293 61.898.293 61.898-3.332 35.139-9.456 64.154-9.842 65.219l-.386 1.064c9.256 7.713 68.644 10.797 68.644 10.797 41.463 3.471 99.693-6.941 99.693-6.941 4.442-1.357 5.6-3.855 5.6-3.855-15.811-86.768-9.456-128.23-9.456-128.23 1.743-10.799 3.085-50.133 3.085-50.133.386-4.828.201-10.227.201-10.227-1.126-19.146 2.321-30.613 2.505-31.209 2.06 4.027 1.629 25.824 1.629 25.824-.139 1.883.293 4.629.293 4.629.864 6.369.586 10.998.586 10.998 10.258 4.904 47.279-8.547 47.279-8.547z"/><path fill="none" d="M181.855 548.682l.119-.157h-.001zM183.679 546.29l.131-.171h-.002zM188.842 539.456h.011l.449-.587h-.018zM187.359 541.415l.107-.14h-.002zM185.477 543.897l.153-.2h-.002zM161.21 512.77v-.016M161.21 510.348v-.015M161.226 507.941v-.015M161.226 505.505v.015M118.019 349.462v.015M118.019 356.727v-.015M118.019 354.321v-.016M118.019 351.899v-.015M118.019 359.133v.016M211.589 342.073v.015M182.821 593.197v.016M182.821 590.807v-.016M182.821 588.385v-.016M182.821 585.963v-.016M182.821 583.541v.016M161.21 515.176v.015M145.816 634.83v.016M145.816 642.096v-.016M145.816 639.658v.016M145.816 637.252v.016M86.952 613.39v-.016M86.952 608.546v.016M86.952 610.952v.016M86.952 606.124v.016M80.767 406.042v.015M80.767 403.62v.016M100.203 484.557v-.016M100.203 486.979v-.016M100.203 482.15v-.015M100.203 479.713v.016M198.231 463.887v-.016M198.231 461.48v-.015M198.231 456.621v.016M198.231 459.043v.016M198.231 466.293v.016M118.019 361.555v.016M220.088 536.633v.015M220.073 541.461v.016M220.088 539.055v.015M220.073 543.898v-.015M135.897 632.64v-.015M211.589 332.401v.016M211.589 337.26v-.015M211.589 339.667v-.016M211.589 334.838v-.015M123.958 562.1v-.015M123.958 564.491v.015M123.958 559.678v-.015M123.958 557.257v-.016M123.958 554.835v.015M80.751 408.464v.015M118.019 363.977v.015M80.767 401.214v.015M80.767 398.792v.016M174.46 391.188v.015M174.46 388.781v-.015M174.476 381.516v.015M174.476 383.953v-.015M174.476 386.359v-.015M80.751 413.292v.015M137.455 440.07v-.015M137.455 435.242v-.015M137.455 437.664v-.016M137.455 430.398v.016M137.455 432.82v-.015"/><path d="M81.754 610.042h-4.735v1.142h3.872zM76.829 447.968h6.684l.863-1.142h-7.568l.021 1.142zM140.062 586.364h13.358l.556-.726h-13.358l.17-.216H127.26l-.833 1.096h-13.39l.324-.417H99.895l.154-.216H86.582l.186-.247h-7.919c-.063.525-.125 1.053-.189 1.573h6.919l.14-.185h13.466l.154-.216h13.436l-.354.463h13.512l.54-.71h13.436l.153-.199zM98.692 427.899h13.358l.555-.724H99.246l.17-.216H85.904l-.864 1.142h13.497zM85.425 605.214h-8.391v1.141h7.528zM128.786 601.249h-13.42l.802-1.049h-13.512l-.293.386H88.927l.17-.216H77.049v1.142h11.184l.154-.216h13.436l-.355.463h13.513l.123-.17h13.42zM83.59 607.62h-6.571v1.142h5.707zM117.773 436.476v1.604l1.218-1.604zM170.326 422.054h-13.512l-.293.385h-13.436l.17-.216h-13.467l.186-.232h-12.186v1.574h10.998l.139-.185h13.466l.154-.216h13.436l-.355.463h13.513zM130.483 367.972l-.864 1.142h13.497l.155-.201h13.358l.555-.725h-13.359l.17-.216zM80.767 405.332v.71h7.558l-.354.463h13.513l.123-.17h13.42l.864-1.142H102.47l.186-.246H89.143l-.293.385zM99.771 408.757h13.42l.864-1.142h-13.42l.185-.246H87.307l-.293.385h-6.263v.71h5.739l-.355.462h13.513zM83.636 412.197l-.293.385h-2.592v.71h2.068l-.355.462h13.513l.123-.169h13.42l.154-.2h13.297l-.37.477h13.497l.139-.184h13.465l.155-.217h13.435l-.354.463h13.512l.54-.709h13.405l.154-.201h13.313l-.371.494h1.897v-1.573h-.709l-.263.354h-13.311l.169-.216h-13.482l-.833 1.095h-13.388l.323-.416h-13.466l.154-.216h-13.467l.186-.247h-13.497l-.278.37h-13.312l.17-.216H96.963l.186-.246zM152.989 586.827l-.062.077h.062zM162.722 601.219v-1.142h-6.324l-.865 1.142zM134.416 593.614h13.436l-.416.539v.016h5.568v-1.573h-4.365l-.232.293h-13.435zM162.738 602.499h-8.161l-.864 1.142h9.025zM130.067 581.721h13.497l.154-.2h13.358l.555-.725h-13.358l.17-.217H130.93zM131.902 579.314h13.497l.154-.2h13.358l.556-.725h-13.358l.17-.216h-13.513zM134.586 575.751l-.864 1.142h13.497l.154-.201h13.359l.555-.724h-13.358l.17-.217zM145.6 596.591h7.389v-1.573h-6.186l-.231.293h-13.436l-.556.725h13.436l-.416.539zM152.047 588.045h-13.42l-.554.726h13.435l-.417.54v.014h1.898v-1.573h-.71zM127.059 447.582h-2.946l-.556.726h3.502zM136.252 591.192h13.436l-.417.54v.015h3.733v-1.573h-2.53l-.232.293h-13.435zM149.765 573.546l.169-.217h-13.513l-.863 1.142h13.497l.154-.2h13.359l.555-.725zM127.073 550.223l.155-.216h13.435l-.354.463h13.513l1.187-1.574h-13.513l-.293.385h-13.435l.17-.2h-13.467l.185-.247H104.29v1.573h9.179l.586-.77-.031.586zM78.556 588.046c-.065.531-.131 1.063-.198 1.588h5.417l.139-.185H97.38l.154-.216h13.436l-.354.463h13.512l1.188-1.573h-13.513l-.293.385H98.074l.154-.216H84.762l.186-.246h-6.392zM122.308 592.103l1.188-1.573h-13.513l-.293.386H96.254l.154-.217H82.942l.186-.246h-4.873c-.068.534-.137 1.061-.206 1.589h3.906l.14-.186H95.56l.154-.216h13.436l-.354.463h13.512zM90.053 508.559h-10.06c.078.422.126.663.126.663l.004.062h9.93v-.725zM146.448 613.313h13.466l.155-.217h12.602v-.725h-12.062l.154-.216h-13.467l.186-.247h-13.497l-1.188 1.573v.016h13.512zM162.738 595.249h-2.669l-.865 1.142h3.534zM162.738 597.671h-4.505l-.864 1.142h5.369zM128.231 584.143h13.497l.154-.201h13.358l.556-.725h-13.358l.169-.216h-13.512zM143.764 598.981h9.209v-1.573h-8.022l-.215.309H131.3l-.555.725h13.436zM162.738 592.827h-.849l-.864 1.142h1.713zM185.058 349.184l-.864 1.142h7.188v-1.142zM199.697 319.783c.063.327.092.638.139.957h1.522c-1.053-.595-1.661-.957-1.661-.957zM201.331 351.807h-4.782l-.555.724h5.337zM194.714 354.213l-.556.725h7.158v-.725zM178.147 470.751h-4.504l-.863 1.142h5.367zM198.469 330.396h.781l1.188-1.573h-1.301c-.195.541-.42 1.064-.668 1.573zM178.147 465.923h-.848l-.864 1.141h1.712zM107.622 369.083h-4.781l-.556.725h5.337zM199.65 347.688h1.666v-.725h-1.111zM196.781 333.651h-.402c-.438.545-.9 1.073-1.395 1.573h.61l1.187-1.573zM201.316 350.11v-.725h-2.947l-.554.725zM197.033 332.802h.396l1.188-1.573h-.592a17.272 17.272 0 01-.992 1.573zM88.371 459.213l-1.187 1.573h13.497l.139-.17h13.466l.155-.216h12.602v-.724h-12.062l.169-.216h-13.466l.184-.247zM86.567 461.542h-9.431l.019.726h8.857l.555-.726zM139.183 463.27l.586-.771h-13.482l.325-.417h-13.467l.17-.2H99.848l.185-.247H86.536l-1.188 1.573h13.498l.139-.185h13.465l.155-.216h13.42l-.355.463zM204.895 322.977h.547a176.82 176.82 0 01-2.566-1.388h-2.917c.055.538.076 1.058.083 1.573h4.714l.139-.185zM181.633 345.667v-1.573h-2.971c-1.486.45-2.86.809-4.032 1.083l-.371.491h7.374zM181.649 343.102l-.396.144h.396v-.144zM189.979 555.791h-13.497l-1.189 1.573h13.497l.14-.184h10.812v-1.142h-9.949zM191.398 341.934h-.849l-.864 1.142h1.713zM168.769 352.917h12.864v-1.573h-11.677zM181.633 350.495v-1.573h-9.841l-1.188 1.573zM172.424 348.089h9.209v-1.573h-8.02zM191.906 338.494v1.605l1.219-1.605zM182.373 352.732h9.025v-1.142h-8.16zM107.622 366.661h-2.946l-.555.725h3.501zM188.713 344.341l-.863 1.141h3.532v-1.141zM194.961 336.073h-.872a25.913 25.913 0 01-1.898 1.573h1.582l1.188-1.573zM109.181 360.63h-1.08v1.141h.216zM191.398 346.762h-4.505l-.863 1.142h5.368zM113.592 443.695h3.532v-1.141h-2.668zM135.928 431.895h-8.392v1.141h7.528zM117.787 428.378h7.343l1.188-1.573h-8.531zM134.108 434.316h-6.572v1.142h5.708zM130.437 439.145h-2.901v1.141h2.037zM127.043 445.901v-.725h-1.11l-.556.725zM132.272 436.723h-4.736v1.141h3.872zM176.25 431.956h-13.421l.186-.246h-13.513l-.293.386h-11.754v.709h11.23l-.355.463h13.513l.123-.17h13.42zM127.536 442.708h.216l.864-1.142h-1.08zM127.043 452.426h-6.602l-.555.724h7.157zM117.787 430.8h5.523l1.188-1.573h-6.711zM117.787 435.628h1.868l1.187-1.573h-3.055zM133.229 364.44l.123-.17h13.42l.154-.201h13.358l.556-.724h-13.358l.17-.217h-13.42l.184-.246h-13.512l-.293.386h-2.592v.709h2.052l-.355.463zM117.787 433.206h3.688l1.187-1.573h-4.875zM130.067 350.789l-.293.385h-11.755v.71h11.23l-.355.462h13.512l.125-.169h13.419l.864-1.142h-13.42l.185-.246zM127.059 450.004h-4.782l-.556.725h5.338zM118.019 359.133h5.738l-.354.463h13.512l.123-.169h13.42l.865-1.142h-13.42l.184-.247h-13.512l-.294.386h-6.262zM118.019 356.712h7.558l-.354.462h13.513l.123-.169h13.42l.864-1.142h-13.42l.184-.246h-13.512l-.293.385h-8.083zM118.019 354.305h9.394l-.354.463h13.512l.124-.169h13.42l.864-1.142h-13.421l.185-.247h-13.512l-.293.386h-9.919zM204.108 323.995h-4.07a16.039 16.039 0 01-.119 1.573h3.001l.139-.185h7.09c-.787-.387-1.55-.769-2.279-1.142h-3.947l.185-.246zM117.124 440.132h-.847l-.865 1.141h1.712zM118.019 361.555h3.887l-.354.463h13.512l.124-.17h13.42l.154-.2h13.358l.556-.725h-13.358l.169-.216h-13.42l.185-.247H122.74l-.293.386h-4.428zM158.171 438.111l.124-.17h13.42l.863-1.141h-13.42l.186-.247h-13.513l-.293.385h-8.083v.71h7.559l-.356.463zM127.536 429.473v1.141h9.348l.571-.74v.524h13.066l-.356.463h13.513l.124-.17h13.42l.863-1.141h-13.42l.186-.246h-13.513l-.293.384H137.61l.154-.215zM201.331 356.635h-8.437l-.556.724h8.993zM174.414 434.378h-13.42l.185-.246h-13.513l-.293.385h-9.918v.71h9.394l-.355.462h13.513l.123-.169h13.42zM167.319 426.033l1.187-1.573h-13.513l-.293.386h-13.435l.154-.201h-13.466l.185-.247h-10.365v1.574h9.177l.586-.772-.03.586h13.05l.154-.216h13.436l-.356.463zM117.787 420.326v.802h12.834l.14-.185h13.466l.154-.216h13.436l-.355.462h13.512l1.188-1.573H158.65l-.293.386h-13.436l.154-.217h-13.466l.185-.246h-13.481l-.279.37h-13.311l.169-.216H91.38l-.864 1.142h13.513v.015l.154-.2h13.358zM93.199 417.271l-.863 1.142h13.529v.015l.153-.199h13.312l-.37.477h13.497l.139-.185h13.467l.154-.216h13.436l-.356.463h13.513l1.187-1.574h-13.512l-.293.386h-13.436l.154-.216h-13.465l.184-.247h-13.497l-.277.37h-13.312l.169-.216zM111 358.223h-2.899v1.142h2.036zM173.504 541.862h13.513l.342-.447.105-.14h.002l.106-.138H174.06zM229.837 556.27h4.205l-.06-1.142h-3.265l-.88 1.142zM228.017 558.69h6.164c-.023-.385-.044-.76-.065-1.141h-5.234l-.865 1.141zM184.441 545.271h5.552v-1.574h-4.363l-.153.2z"/><path d="M171.668 544.284h13.513l.296-.387.151-.2h.002l.107-.138h-13.513zM222.51 565.94h12.159l-.083-1.141h-11.212l-.864 1.141zM212.036 580.024h-13.512l-.293.386h-13.436l.17-.216h-12.047v1.141h11.184l.153-.216h13.436l-.355.463h13.513l.123-.17h13.42l.263-.339h-13.42zM199.758 543.96h-.849l-.863 1.142h1.712zM226.182 561.112h8.15c-.025-.385-.048-.761-.071-1.141h-7.216l-.863 1.141zM182.62 547.692h7.373v-1.573h-6.183l-.131.171zM224.346 563.52h10.148l-.077-1.142h-9.207l-.864 1.142zM209.244 565.91h-13.465l.169-.216h-13.466l.185-.247h-13.498l-.632.849h-13.281l.17-.216h-13.421l.186-.247h-13.513l-.293.386h-4.427v.724h3.871l-.354.463h13.513l.123-.17h13.42l.154-.2h26.778l.14-.185h13.466l.154-.216h13.435l-.354.463h13.513l.586-.772H208.92zM167.319 532.406h13.497l.154-.2h13.358l.556-.726h-13.358l.169-.215h-13.513zM165.498 534.813h13.497l.155-.201h13.358l.556-.725h-13.359l.17-.216h-13.512zM142.854 564.953l.124-.169h13.42l.863-1.141h-13.42l.186-.247h-13.513l-.293.385h-6.263v.71h5.739l-.356.462zM153.173 551.317h-13.512l-.294.386h-13.434l.169-.216h-12.047v1.142h11.184l.154-.216h13.435l-.355.463h13.513l.124-.17h13.42l.261-.34h-13.42zM169.155 529.984h13.497l.154-.2h13.358l.555-.725h-13.358l.17-.216h-13.513zM180.784 550.099h9.209v-1.574h-8.019l-.119.157zM170.99 527.563h13.497l.154-.201h13.358l.556-.725h-13.358l.169-.216h-13.512zM234.202 568.146h.636l-.057-.725h-.024l-.555.725z"/><path d="M169.848 546.705h13.513l.318-.415.129-.171h.002l.106-.139h-13.512zM183.438 564.429h13.467l.154-.216h12.602v-.725h-12.062l.169-.2h-13.466l.185-.247H170.99l-1.188 1.573h13.497zM168.013 549.112h13.513l.329-.43.118-.157h.001l.106-.138h-13.512zM163.662 537.234h13.497l.155-.2h13.358l.556-.725h-13.359l.17-.216h-13.512zM210.155 539.271h5.708l.863-1.142h-6.571zM189.993 538.021v-.077l-.061.077zM192.554 552.352h7.188v-1.142h-6.324zM214.32 488.151h13.358l.556-.725h-13.359l.169-.216h-13.513l-.832 1.096H187.31l.324-.417h-13.467l.155-.216h-13.466l.184-.247h-13.497l-1.187 1.573h13.497l.138-.185h13.467l.155-.215h13.434l-.354.463h13.512l.54-.71h13.42zM203.043 503.052h-13.42l.803-1.049h-13.513l-.293.386h-13.435l.17-.216h-12.048v1.141h11.183l.155-.216h13.435l-.354.463h13.512l.124-.169h13.419zM174.646 558.197l-1.188 1.574h13.497l.139-.185h12.648v-1.142h-11.785l.186-.247zM223.559 511.305h-13.497l-1.188 1.573h13.497l.139-.186h11.754c.04-.417.078-.799.114-1.142h-11.003l.184-.245zM190.719 554.758h9.023v-1.142h-8.16zM180.137 550.947l-1.188 1.574h11.03v-1.574zM177.129 554.942h12.864v-1.573h-11.676zM161.226 522.75l-.139.17h13.512l.124-.17h13.42l.154-.2h26.778l.139-.186h13.467l.154-.216h4.809l.031-.725h-4.3l.186-.217h-13.467l.186-.246h-13.497l-.633.848h-13.281l.17-.216h-13.42l.185-.246H162.29l-.294.385h-.771v1.019zM210.695 475.132l-.864 1.142h13.498l.154-.2h13.357l.226-.295.02-.431h-13.049l.17-.216h-13.512zM210.155 546.521h.215l.865-1.142h-1.08zM210.155 544.114h2.036l.864-1.141h-2.9zM210.155 541.692h3.872l.863-1.141h-4.735zM222.217 530.879H210.17v1.142h11.184l.154-.216h11.905c.001-.239.004-.475.006-.71h-11.356l.154-.216zM218.546 535.723h-8.391v1.141h7.527zM234.673 509.129h-9.448l.186-.246h-13.497l-1.188 1.573h13.497l.139-.186h10.16c.088-.73.144-1.095.144-1.095l.007-.046zM194.374 549.93h5.368v-1.142h-4.503zM225.889 526.051h-13.467l.186-.247h-12.187v1.574h10.998l.14-.186h13.466l.154-.216h8.307l.019-.725h-7.786l.17-.2zM186.277 542.85h3.716v-1.575h-2.527l-.107.14zM227.708 523.645h-13.466l.185-.247H200.93l-.524.694v.88h12.834l.139-.186h13.467l.154-.216h6.555l.024-.726h-6.039l.168-.199zM224.053 528.473h-13.467l.186-.247h-10.366v1.574h9.179l.586-.771-.031.586h13.05l.154-.216h10.097c.004-.243.007-.486.012-.726h-9.569l.169-.2zM200.406 541.908l1.218-1.604h-1.218zM126.842 568.255l-.293.386h-2.591v.724h2.051l-.354.463h13.512l.123-.17h13.421l.154-.2h26.779l.138-.186h13.466l.155-.215h13.435l-.354.463h13.512l1.188-1.574h-13.513l-.293.386h-13.435l.17-.216h-13.467l.185-.247h-13.497l-.633.849H153.42l.17-.216h-13.42l.185-.247zM172.671 609.965h-10.226l.153-.216h-13.466l.186-.247H135.82l-1.188 1.573v.016h13.497l.139-.186h13.467l.154-.216h10.782zM172.671 607.543h-8.437l-.556.725h8.993zM163.154 581.521h7.342l1.188-1.574h-8.53zM214.504 576.77l1.189-1.574H202.18l-.293.386h-13.436l.17-.201h-13.466l.185-.246h-12.186v1.573h10.998l.139-.186h13.466l.154-.215h13.436l-.355.463zM159.081 561.236h-13.42l.186-.247h-13.513l-.293.386h-8.083v.71h7.559l-.356.462h13.513l.123-.169h13.421zM175.802 592.287h-2.899v1.142h2.036zM177.638 589.865h-4.735v1.142h3.872zM172.671 600.293h-2.946l-.556.726h3.502zM172.671 602.699h-4.782l-.555.726h5.337zM173.983 594.709h-1.08v1.142h.215zM163.138 591.223l1.219-1.604h-1.219zM219.348 570.353h-13.513l-.293.385h-13.435l.185-.216h-13.467l.186-.247h-13.497l-.633.849H151.6l.17-.216h-13.42l.184-.247h-13.511l-.294.386h-.771v1.017l-.138.17h13.511l.124-.17h13.42l.155-.2h26.778l.139-.185h13.466l.155-.216h13.434l-.354.463h13.512zM162.738 604.905h-9.95l.185-.247h-13.497l-1.188 1.573h13.497l.139-.184h10.814zM137.64 607.08l-1.188 1.573h13.497l.139-.184h12.65v-1.142h-11.786l.185-.247zM152.973 599.83h-9.841l-1.188 1.573h11.029zM140.109 603.825h12.864v-1.573h-11.677zM169.848 582.369h-6.71v1.573h5.522zM166.193 587.197h-3.055v1.574h1.867zM179.474 587.459h-6.571v1.142h5.707zM163.138 584.791v1.573h3.687l1.188-1.573zM172.656 605.121h-6.602l-.556.726h7.158zM172.656 598.597v-.726h-1.111l-.555.726zM217.528 572.774h-13.512l-.294.386h-13.435l.154-.201h-13.466l.184-.246h-13.497l-.524.694v.879h12.834l.139-.185h13.466l.155-.216h13.451l-.356.463h13.513zM181.294 585.037h-8.391v1.142h7.527zM199.588 560.882h-13.466l.185-.247H172.81l-1.188 1.573h13.497l.139-.186h13.467l.154-.215h10.782v-.725h-10.227zM230.531 572.99h4.71l-.064-.725h-4.09l-.556.725zM166.933 355.339h13.497l.139-.185h10.813v-1.142h-9.949l.184-.246H168.12zM232.367 570.568h2.667l-.06-.725h-2.052l-.555.725zM196.21 547.508h3.532v-1.142h-2.668zM200.406 539.456h1.867l1.187-1.574h-3.054zM164.588 553.986h-13.42l.186-.247h-13.513l-.293.386h-13.435l.154-.216h-10.228v1.142h9.348l.571-.74v.524h13.066l-.356.463h13.513l.123-.17h13.421zM160.917 558.814h-13.42l.185-.247h-13.513l-.293.386h-9.918v.71h9.364l-.356.462h13.544l.123-.169h13.42zM175.895 538.73l-.555.726h13.502l.442-.587h.018l.105-.139zM162.738 556.393h-13.42l.184-.247H135.99l-.293.385h-11.739v.71h11.214l-.354.463h13.512l.123-.17h13.42z"/><path d="M188.842 539.456l-.745.986h1.896v-1.573h-.691l-.449.587zM217.945 589.942h-13.42l.184-.246h-13.512l-.293.385h-8.083v.71h7.558l-.354.463h13.512l.123-.17h13.42zM219.781 587.521H206.36l.185-.247h-13.513l-.292.386h-9.919v.709h9.394l-.354.463h13.512l.123-.17h13.42zM221.615 585.099h-13.419l.185-.246h-13.513l-.293.385h-11.754v.709h11.23l-.355.463h13.512l.124-.17h13.42zM182.821 583.017v.524h13.065l-.355.463h13.513l.123-.17h13.42l.864-1.142h-13.42l.185-.246h-13.513l-.293.386h-13.435l.154-.217h-10.226v1.142h9.347zM201.717 593.66l.123-.17h13.42l.864-1.141h-13.42l.185-.246h-13.512l-.294.385h-6.262v.709h5.738l-.355.463zM228.711 575.396h6.745l-.066-.725h-6.123l-.556.725zM200.406 537.034h3.687l1.188-1.574h-4.875zM235.615 577.094h-8.185l-.555.725h8.807l-.067-.725zM228.99 592.827h8.326l-.188-1.573h-6.951l-1.187 1.573zM227.338 595.002h-13.219l.169-.216h-13.42l.186-.247h-13.513l-.293.386h-4.428v.726h3.888l-.354.463h13.512l.124-.17h13.42l.154-.201h13.358l.37-.493h10.321c-.066-.53-.133-1.063-.197-1.589h-9.059l-1.019 1.341zM230.824 590.405h6.202c-.062-.528-.121-1.05-.181-1.573h-4.834l-1.187 1.573zM186.924 400.011l-.863 1.141h13.497l.154-.201h13.359l.554-.724h-13.358l.17-.216zM141.543 503.499h7.342l1.188-1.573h-8.53zM150.814 520.282h-1.112l-.554.725h1.666zM150.814 522.704h-2.947l-.555.725h3.502zM104.276 562.517l1.217-1.605h-1.217zM168.399 459.923l-.063.077h.063zM141.543 505.905h5.522l1.188-1.573h-6.71zM140.833 478.865h-13.42l.185-.247h-13.512l-.294.386h-13.434l.153-.216H90.284v1.141h9.348l.571-.741v.525h13.065l-.355.463h13.513l.123-.169h13.42zM101.252 495.54l-.293.385h-.771v1.018l-.124.155h13.512l.124-.17h13.42l.155-.2h13.358l.555-.726h-13.359l.17-.216h-13.42l.186-.246zM150.814 525.125h-4.783l-.555.726h5.338zM150.814 527.532h-6.603l-.555.725h7.158zM141.821 530.679h8.993v-.726h-8.438zM107.329 558.49h-3.053v1.573h1.866zM158.665 544.067h-13.512l-.293.386h-13.436l.169-.2h-13.466l.186-.247h-13.498l-.525.694v.879h12.834l.139-.184h13.467l.154-.216h13.436l-.355.463h13.512zM104.276 552.813h7.341l1.189-1.573h-8.53zM160.486 541.646h-13.513l-.293.386h-13.436l.185-.216h-13.466l.185-.246h-13.497l-.679.895H92.66l.169-.216H81.228v1.156H91.95l.154-.2h13.358l.046-.047h13.436l.139-.185h13.467l.154-.216h13.436l-.355.463h13.513l1.188-1.574zM141.543 508.327h3.687l1.187-1.573h-4.874zM138.997 481.287h-13.42l.186-.247H112.25l-.293.386h-11.754v.709h11.23l-.356.463h13.513l.124-.17h13.42zM113.792 569.89v-.725h-1.11l-.555.725zM141.543 513.202l1.218-1.604h-1.218zM141.543 510.749h1.866l1.188-1.573h-3.054zM108.487 539.162l-.679.896H94.495l.17-.217h-13.42l.185-.246h-.212l.008 1.403h12.561l.154-.2h13.358l.046-.047h13.436l.139-.185h13.466l.154-.216h13.436l-.354.462h13.513l1.188-1.573H148.81l-.293.386h-13.436l.186-.216H121.8l.186-.247h-13.499zM140.725 532.175h-13.466l.185-.247h-13.497l-1.188 1.573h13.497l.139-.185h13.467l.154-.215h10.782v-.726h-10.227zM155.642 548.063l1.187-1.574h-13.512l-.293.386h-13.436l.17-.2h-13.467l.186-.247H104.29v1.573h10.999l.139-.185h13.466l.154-.215h13.436l-.355.462zM149.919 448.894l-.864 1.141h13.497l.154-.201h13.359l.555-.725h-13.358l.169-.215zM80.767 403.62h9.363l-.354.463h13.543l.124-.17h13.42l.863-1.142h-13.42l.185-.246H90.979l-.293.385h-9.919zM112.219 410.021h-13.42l.186-.246H85.472l-.293.385h-4.428v.725h3.904l-.356.463h13.513l.124-.169h13.42l.154-.2h13.312l-.371.477h13.497l.139-.185h13.467l.154-.216h12.603v-.725h-12.063l.155-.216h-13.467l.185-.247h-13.497l-.278.371H112.05zM138.89 392.359h-13.513l-.555.725h13.512zM76.791 445.546h8.526l.262-.339h-8.782l-.006.339zM220.782 461.928l.124-.17h13.42l.864-1.142h-13.42l.185-.246h-13.512l-.293.386h-9.919v.709h9.394l-.355.463zM137.162 483.693h-13.42l.185-.247h-13.513l-.293.386h-9.918v.709h9.363l-.355.463h13.544l.123-.169h13.42zM234.542 415.56h6.146l-.017.142.612.306.185-.046-.154-.648-.598.145.078-.623h-6.252v.724zM147.219 452.457h13.497l.154-.201h13.359l.555-.725h-13.358l.17-.216h-13.513zM76.717 436.908c.018.541.032 1.064.044 1.573h.505l1.188-1.573h-1.737zM76.876 450.39h4.801l.864-1.142h-5.688l.023 1.142zM134.123 380.991h13.359l.555-.725h-13.374l.17-.216h-13.512l-.865 1.142h13.513zM178.132 469.486v-1.141h-2.669l-.864 1.141zM229.914 449.85l1.189-1.574H217.59l-.293.386h-13.435l.169-.2h-13.466l.184-.247h-12.185v1.573h10.998l.138-.185h13.467l.155-.216h13.435l-.355.463zM168.383 472.078v-1.574h-8.021l-.262.355h-13.467l-.556.725h13.467l-.37.494zM119.069 489.863l.123-.17h13.42l.864-1.141h-13.421l.217-.262h-13.513l-.293.386h-6.263v.724h5.707l-.354.463zM135.326 486.115h-13.42l.185-.247h-13.512l-.294.386h-8.082v.709h7.558l-.355.463h13.513l.123-.17h13.42zM237.974 454.169h-11.33l.802-1.049h-13.513l-.293.386h-13.436l.17-.216h-12.048v1.141h11.184l.154-.216H213.1l-.354.463h13.513l.123-.17h11.586l.006-.339zM114.672 353.38h-6.571v1.141h5.707zM118.019 348.938v.524h13.065l-.354.462h13.512l.123-.169h13.42l.865-1.142h-13.42l.184-.246h-13.512l-.293.385h-13.436l.154-.216h-10.226v1.142h9.347zM116.492 350.974h-8.391v1.141h7.527zM223.606 458.195l.184-.247h-13.511l-.294.386h-11.754v.709h11.229l-.354.463h13.512l.123-.169h13.42l.865-1.142zM112.836 355.802h-4.735v1.141h3.872zM131.531 366.676h13.42l.155-.2h13.358l.556-.725h-13.359l.17-.216h-13.42l.185-.247h-13.513l-.293.386h-.771v1.018l-.123.154h13.512zM120.086 523.814h11.029v-1.573h-9.841l-.262.355h-13.467l-.555.724h13.466zM131.131 524.663h-11.678l-1.187 1.573h12.865zM115.782 529.491l-1.187 1.573h13.497l.139-.185h12.648v-1.142h-11.784l.185-.246zM128.339 512.924h-13.467l-.555.725h13.466l-.37.494h3.718v-1.574h-2.53zM108.825 520.898h13.467l-.37.495h9.209v-1.574h-8.021l-.263.355h-13.466zM110.661 518.492h13.466l-.37.494h7.374v-1.573h-6.185l-.263.355h-13.466zM112.482 516.07h13.466l-.371.494h5.554v-1.573h-4.366l-.262.355h-13.467zM140.895 515.253h-.849l-.863 1.142h1.712zM109.967 501.771h13.497l.154-.2h13.359l.555-.725h-13.358l.17-.216h-13.513zM106.312 506.615h13.497l.154-.201h13.359l.554-.725h-13.358l.17-.215h-13.513zM108.131 504.193h13.498l.154-.2h13.358l.556-.725h-13.359l.17-.216h-13.513zM131.115 527.085h-13.497l-1.188 1.573h13.498l.139-.185h10.812v-1.142h-9.949zM98.676 481.21h-8.392v1.141h7.528zM135.542 468.113l1.188-1.573h-13.512l-.294.386h-13.435l.169-.2H96.193l.184-.247H82.88l-1.187 1.573H95.19l.138-.186h13.467l.154-.216h13.436l-.355.463zM78.869 454.076h-1.916l.026 1.142h1.026l.864-1.142zM87.554 442.399h13.513l.555-.724H88.11zM77.073 459.12l.018.726h10.756l.556-.726h-11.33zM142.036 477.261h-13.42l.802-1.049h-13.512l-.293.386h-13.436l.17-.216H90.3v1.14h11.184l.154-.215h13.435l-.355.463h13.513l.123-.17h13.421zM113.792 576.415h-6.601l-.556.725h7.157zM93.169 488.459h-2.9v1.142h2.036zM90.269 492.022h.216l.864-1.141h-1.08zM124.575 535.723h13.466l.155-.216h12.602v-.726h-12.062l.17-.2h-13.467l.185-.247h-13.497l-1.188 1.574h13.497zM95.004 486.053h-4.735v1.141h3.872zM96.856 483.631h-6.572v1.141h5.707zM140.879 517.659h-2.668l-.864 1.142h3.532zM103.874 573.792h-8.16l-.863 1.142h9.023zM94.125 558.12l-.061.077h.061zM97.534 571.37l-.864 1.142h7.189v-1.142zM94.125 560.619v-1.573h-.709l-.263.354H80.967l-.024.726h11.655l-.37.493h1.897zM103.874 568.964H99.37l-.864 1.141h5.368zM140.879 520.081h-4.504l-.863 1.142h5.367zM104.276 556.084v1.573h3.686l1.188-1.573zM103.874 566.542h-2.669l-.863 1.142h3.532zM103.874 576.198h-9.949l.185-.246H80.613l-.79 1.046-.055.527h13.154l.139-.186h10.813v-1.141zM94.11 573.546H82.433l-1.188 1.573H94.11zM91.226 579.762h12.648v-1.142H92.089l.186-.246H79.677l-.172 1.573h11.582l.139-.185zM110.986 553.662h-6.71v1.573h5.521zM131.131 509.237l-.062.077h.062zM112.666 498.224l-.863 1.141H125.3l.154-.2h13.359l.554-.726h-13.358l.17-.215zM131.856 526.051h9.023v-1.142h-8.159zM132.041 508.096h-13.358l.169-.216h-13.513l-.863 1.141h13.497l.154-.2h13.359zM140.879 522.503h-6.324l-.863 1.142h7.187zM90.809 544.9l.17-.216h-9.753l-.004 1.142H90.1l.154-.2h13.358l.556-.726H90.809zM103.874 564.121h-.848l-.864 1.141h1.712zM85.858 533.718h13.42l.863-1.142h-13.42l.186-.247h-5.786l.03 1.558h4.583l.124-.169zM234.542 417.256v.725h5.707l-.354.463h.326c.151-.569.244-.863.244-.863l.036-.324h-5.959zM84.022 536.139h13.42l.864-1.141h-13.42l.185-.247h-3.906c.008.521.017 1.044.023 1.558h2.711l.123-.17zM82.201 538.561h13.42l.864-1.142h-13.42l.185-.246h-2.054c.005.521.012 1.046.016 1.558h.866l.123-.17zM227.539 364.131l.155-.2h13.095l-.971 1.28h1.897v-1.573h-.432l.324-.432h-13.359l.17-.216h-13.512l-.864 1.141zM239.448 366.06l.324-.433h-13.513l-.556.726h13.25l-.971 1.28h3.717v-1.573zM203.676 377.999h-13.513l-.293.385h-13.435l.17-.216h-12.047v1.142h11.182l.155-.216h13.435l-.354.463h13.513l.123-.17h13.419l.263-.34h-13.42zM229.36 361.709l.154-.2h13.358l.555-.725h-13.358l.17-.216h-13.513l-.863 1.141zM172.934 383.012h-8.392v1.141h7.528zM231.195 359.303l.154-.2h13.358l.556-.726h-13.358l.169-.215h-13.512l-.864 1.141zM165.113 357.745h13.497l.138-.185h12.65v-1.142h-11.785l.185-.246H166.3zM171.114 385.434h-6.572v1.141h5.707zM206.159 374.744l1.188-1.574h-13.513l-.293.386h-13.435l.17-.201H166.81l.184-.246h-12.185v1.573h10.998l.139-.185h13.466l.155-.216h13.435l-.355.463zM165.621 392.684h-1.079v1.141h.216zM169.278 387.855h-4.736v1.142h3.871zM167.442 390.262h-2.9v1.141h2.036zM241.654 362.789h.061v-.077zM201.671 344.711h.216l.863-1.142h-1.079zM155.965 369.854h13.498l.139-.185h13.466l.154-.216h13.435l-.354.463h13.513l1.187-1.574H197.49l-.292.386h-13.436l.17-.201h-13.467l.186-.246h-13.497zM157.801 367.432h13.497l.139-.185h13.467l.154-.216h13.435l-.355.463h13.513l1.188-1.574h-13.513l-.293.386h-13.435l.169-.201h-13.466l.185-.246h-13.497zM154.376 393.224h-2.668l-.864 1.141h3.532zM127.783 371.536h13.498l.154-.201h13.358l.556-.725H141.99l.169-.216h-13.511zM201.671 342.305h2.036l.864-1.142h-2.9zM155.318 370.687l-.525.694v.879h12.834l.139-.185h13.467l.153-.216h13.436l-.355.463h13.513l1.187-1.573h-13.512l-.293.385h-13.436l.17-.2H168.63l.185-.247zM76.726 630.666h-4.928l-.146.725h5.073v-.725zM201.671 335.039h7.527l.864-1.142h-8.391zM201.671 337.461h5.707l.864-1.142h-6.571zM201.671 339.883h3.871l.864-1.142h-4.735zM157.847 385.171h-3.054v1.574h1.866zM78.099 614.87h-1.08v1.142h.216zM221.354 354.459h13.497l.154-.2h13.359l.554-.725H235.56l.17-.216h-13.513zM233.74 355.956l.169-.216h-13.512l-.864 1.141h13.498l.154-.2h13.358l.555-.725zM90.207 598.89h13.436l-.354.463h13.513l1.188-1.574h-13.513l-.293.386H90.747l.17-.2H77.45l.186-.247h-.353c-.065.464-.129.931-.194 1.389h12.964l.154-.217zM76.741 623.4h-3.565l-.132.725h3.697v-.725zM163.262 360.183h13.497l.139-.186h13.466l.154-.216h10.783v-.725h-10.228l.155-.2h-13.466l.185-.247h-13.498zM76.741 628.244h-4.47l-.14.725h4.61v-.725zM79.918 612.464h-2.899v1.141h2.036zM161.457 362.589h13.497l.139-.185h13.466l.154-.216h12.603v-.725h-12.063l.17-.201h-13.467l.186-.247h-13.497zM164.326 400.689h-4.782l-.555.725h5.337zM236.686 352.053l.154-.2h13.358l.556-.725h-13.358l.17-.216h-13.513l-.864 1.141zM173.241 364.825h13.467l.155-.216h13.435l-.354.463h13.511l.587-.771H200.56l.324-.417h-13.466l.169-.2h-13.466l.185-.247h-13.513l-1.187 1.574h13.497zM241.699 368.466h-4.087l.324-.432h-13.513l-.556.725h13.251l-.971 1.28h5.552zM154.793 381.917h5.523l1.187-1.574h-6.71zM154.793 379.495h7.343l1.187-1.574h-8.53zM154.793 384.338h3.687l1.187-1.573h-4.874zM164.311 403.096h-6.603l-.554.724h7.157zM160.809 398.992h3.502v-.724h-2.946zM200.698 381.979l.125-.17h13.419l.865-1.142h-13.421l.185-.247h-13.512l-.293.386H174.63l.154-.216h-10.226v1.141h9.348l.57-.74v.525h13.065l-.354.463zM177.576 376.919l.155-.216h13.435l-.354.463h13.511l1.189-1.574h-13.513l-.293.386h-13.435l.17-.201h-13.467l.185-.246h-10.366v1.573h9.178l.587-.771-.031.586zM164.311 395.846H163.2l-.555.724h1.666zM154.793 389.213l1.219-1.605h-1.219zM149.009 396.787h5.367v-1.142h-4.504zM80.119 489.015h-.848l-.865 1.141h1.713zM164.311 405.518h-8.438l-.555.724h8.993zM79.24 471.229h-1.813l.025.725h1.233l.555-.725zM126.272 409.065h13.497l.138-.184h13.452l.154-.217h10.782v-.725h-10.226l.169-.201h-13.466l.184-.246h-13.497zM128.108 406.628h13.497l.138-.185h12.649v-1.142h-11.785l.185-.246h-13.497zM80.104 496.265h-1.549c.023.387.047.767.074 1.142h1.475v-1.142zM80.104 491.421h-1.739l.011.154c.005.334.015.658.023.987h1.705v-1.141zM80.104 499.813v-1.142h-1.38c.032.389.065.769.1 1.142h1.28zM80.119 493.843h-1.683c.014.384.029.767.047 1.142h1.636v-1.142zM239.649 420.865c.129-.608.25-1.13.357-1.572h-.744l-.293.385h-4.427v.725h3.872l-.355.463h1.59zM80.119 503.515h-.892c.05.398.1.778.15 1.142h.742v-1.142zM80.104 502.234v-1.142H78.95c.041.393.082.771.125 1.142h1.029zM129.928 404.206h13.497l.139-.185h10.812v-1.141h-9.949l.186-.247h-13.498zM143.564 457.285h13.497l.154-.201h13.358l.555-.725h-13.357l.169-.215h-13.513zM154.392 390.802h-.848l-.864 1.141h1.712zM239.183 423.272c.1-.565.198-1.091.295-1.574h-2.051l-.293.386h-2.592v.726h2.052l-.355.463h2.944zM178.132 474.314v-1.141h-6.325l-.863 1.141zM145.399 454.863h13.498l.154-.201h13.357l.556-.724h-13.358l.17-.216h-13.513zM224.623 409.806v1.141h7.529l.863-1.141zM81.075 468.808h-3.729l.023.725h3.149l.557-.725zM214.86 406.289h7.341l1.189-1.574h-8.53zM224.623 404.978v1.142h11.184l.154-.216h6.082l.01-.063 5.878-1.372-.2-.879-5.552 1.298-.046.306h-5.615l.154-.216h-12.049zM234.542 413.152h6.471l.097-.725h-6.567v.725zM200.406 534.612h5.522l1.187-1.573h-6.709zM178.147 475.595h-8.159l-.865 1.141h9.024zM132.133 383.413h13.513l.555-.725h-13.512zM144.643 385.727h-.709l-1.188 1.573h1.897zM140.91 389.707h3.718v-1.574h-2.53zM144.567 384.878h.061v-.077zM130.313 385.835h13.512l.556-.725h-13.513zM128.478 388.241h13.512l.555-.725h-13.513zM125.963 373.942h13.497l.155-.201h13.358l.556-.725H140.17l.17-.216h-13.513zM124.127 376.364h13.498l.154-.201h13.358l.556-.725h-13.359l.17-.216h-13.513zM90.037 506.862v-.726H79.811l.154-.216h-.407c.05.337.099.651.146.941h10.333zM154.376 399.193v-1.141h-6.324l-.863 1.141zM145.353 401.615h9.023v-1.142h-8.159zM122.292 378.785h13.497l.155-.2h13.358l.555-.725h-13.359l.17-.216h-13.512zM131.763 401.8h12.865v-1.573H132.95zM76.726 625.822h-3.995l-.136.725h4.131v-.725zM126.642 390.663h13.513l.555-.725h-13.512zM118.636 596.931l1.188-1.573h-13.512l-.294.385H92.583l.169-.2H79.286l.185-.247h-1.854l-.215 1.573h.882l.139-.185H91.89l.154-.216h13.436l-.355.463h13.511zM80.258 594.277h13.466l.154-.216h13.436l-.354.463h13.513l1.188-1.574h-13.513l-.293.386H94.418l.154-.216H81.107l.185-.247h-3.351c-.07.535-.142 1.061-.212 1.589h2.391l.138-.185zM76.726 633.087h-5.42l-.152.726h5.573v-.726zM137.254 394.55h7.374v-1.573h-6.185zM144.628 390.555h-4.365l-1.189 1.573h5.554zM135.419 396.957h9.209v-1.574h-8.021zM133.599 399.378h11.029v-1.573h-9.842zM90.053 498.887h-4.782l-.555.725h5.337zM122.431 556.331h-8.392v1.142h7.528zM151.291 517.813h.217l.863-1.14h-1.08zM151.291 515.407h2.036l.865-1.141h-2.901zM150.381 537.203h-13.466l.155-.2h-13.467l.185-.247h-13.497l-1.187 1.573h13.497l.139-.184h13.465l.155-.216h13.435l-.354.463h13.512l.586-.772h-13.481zM161.843 486.408h13.466l.154-.216h12.603v-.725h-12.063l.17-.2h-13.467l.186-.247h-13.497l-1.189 1.573h13.497zM157.863 509.423h-6.572v1.14h5.708zM197.753 492.331H184.24l-.292.386h-13.436l.185-.216h-13.466l.184-.247h-13.497l-1.017 1.342h-13.236l.17-.216h-13.42l.185-.246h-13.513l-.293.385h-2.591v.725h2.051l-.354.463h13.512l.123-.17h13.42l.155-.2h13.374l.37-.494h13.358l.139-.185h13.467l.154-.217h13.435l-.355.463h13.513zM151.291 508.143h7.529l.863-1.142h-8.392zM157.338 474.5h11.029v-1.574h-9.841l-.262.355h-13.467l-.555.725h13.466zM194.097 497.159h-13.513l-.293.386h-13.435l.17-.2h-13.467l.185-.247h-12.186v1.573h10.999l.139-.185h13.465l.155-.216h13.435l-.354.462h13.512zM195.917 494.753h-13.512l-.293.386h-13.436l.17-.201h-13.467l.186-.247h-13.497l-.525.695v.879h12.833l.14-.186h13.466l.154-.216h13.436l-.355.463h13.513zM151.291 512.985h3.872l.865-1.141h-4.737zM120.611 558.753h-6.572v1.142h5.708zM113.808 571.587h-2.946l-.555.725h3.501zM113.808 578.837h-8.438l-.555.725h8.993zM113.792 581.243h-10.227l.154-.201H90.253l.186-.246H79.412c-.059.528-.12 1.049-.18 1.573h10.019l.139-.186h13.466l.154-.216h10.782v-.724zM75.754 387.13l.139-.185h13.481l.154-.216h13.436l-.354.463h13.513l1.188-1.574h-13.513l-.293.386H90.069l.154-.216H76.756l.186-.247h-7.42c.042.775.063 1.325.071 1.589h6.161zM113.808 573.993h-4.781l-.556.725h5.337zM114.271 389.599l1.188-1.574h-13.513l-.293.386H88.217l.17-.201H74.921l.185-.247h-5.452c.044.503.094 1.027.151 1.573h4.113l.139-.185h13.467l.154-.216h13.436l-.355.463h13.512zM70.187 392.807c.059.463.121.934.184 1.41l.462-.608-.031.586h13.065l.154-.216h13.436l-.354.462h13.513l1.188-1.573H98.29l-.293.386H84.562l.17-.201H71.265l.186-.247h-1.264zM118.775 561.159h-4.736v1.142h3.872zM116.94 563.581h-2.901v1.142h2.036zM115.119 566.003h-1.08v1.142h.216zM186.446 631.576h-13.42l.185-.247h-13.513l-.292.386H145.97l.154-.216h-10.227v1.126h9.379l.571-.741v.54h13.034l-.355.463h13.512l.124-.17h13.42zM182.775 636.403h-13.42l.185-.246h-13.512l-.294.386h-9.918v.709h9.393l-.354.463h13.512l.123-.17h13.421zM233.925 607.142h5.273c-.055-.384-.106-.761-.16-1.142h-5.113v1.142zM180.939 638.811h-13.42l.185-.248h-13.512l-.293.386h-8.083v.709h7.558l-.355.463h13.512l.125-.17h13.419zM233.925 608.407v1.141h5.621l-.165-1.141h-5.456zM164.711 642.543l.124-.17h13.42l.864-1.142h-13.421l.186-.246h-13.513l-.293.386h-6.262v.709h5.707l-.355.463zM234.527 603.332H224.16v1.573h9.179l.586-.771-.031.586h4.966l-.159-1.141h-4.359l.185-.247zM233.909 621.642h.216l.865-1.142h-1.081zM236.825 618.078h-2.9v1.142h2.036zM233.925 613.25v1.142h5.707l.528-.698-.066-.443h-6.169zM233.925 611.97h5.978c-.057-.38-.115-.764-.17-1.141h-5.808v1.141zM188.081 480.623h-8.437l-.556.726h8.993zM238.66 615.657h-4.735v1.141h3.872zM115.891 635.756h.061v-.077zM184.611 633.982h-13.42l.184-.247h-13.512l-.293.386h-11.754v.709h11.229l-.354.463h13.512l.123-.17h13.42zM116.955 634.507h-13.358l.169-.217H90.253l-.863 1.142h13.497l.154-.201H116.4zM115.968 636.604h-.71l-.247.325h-13.389l-.555.724h13.389l-.401.525h1.913zM188.081 475.795h-4.782l-.556.726h5.338zM189.377 467.789h-1.08v1.142h.216zM109.983 395.275H96.47l-.293.386H82.741l.17-.216H70.864v1.141h11.183l.154-.216h13.436l-.355.463h13.513l.123-.17h13.42l.263-.339h-13.42zM148.932 627.812l.154-.216h13.436l-.356.463h13.513l1.187-1.574h-13.512l-.293.386h-13.436l.155-.216h-13.466l.184-.247h-10.365v1.589h9.193l.586-.771-.03.586zM115.968 643.006v-1.573h-4.366l-.246.324h-13.39l-.555.724H110.8l-.401.525zM191.197 465.383h-2.9v1.141h2.036zM136.961 643.576h-1.079v1.142h.216zM115.968 639.026h-2.53l-.247.324H99.802l-.556.725h13.39l-.401.525h3.733zM94.141 416.191l.123-.17h13.42l.154-.2h13.313l-.37.479h13.528l.139-.185h13.465l.155-.217h13.435l-.354.463h13.512l1.188-1.573h-13.513l-.293.386h-13.435l.154-.217h-13.467l.186-.246h-13.497l-.278.37h-13.312l.17-.216h-13.42l.184-.247H81.816l-.293.386h-.772v1.017l-.123.17zM223.406 422.81h1.665v-.726h-1.111zM224.609 419.478v1.141h.215l.864-1.141zM83.081 572.697H94.11v-1.573h-9.841l-.263.354h-3.628l-.071.725h3.145l-.371.494zM80.937 433.653l1.188-1.573h-5.637c.034.528.065 1.055.092 1.573h4.357zM114.811 319.783c-.517.366-1.078.731-1.657 1.096h1.471c.079-.697.186-1.096.186-1.096zM225.086 427.638v-.726h-4.781l-.556.726zM224.623 415.775h3.872l.865-1.141h-4.737zM224.623 413.369h5.708l.864-1.141h-6.572zM224.609 417.056v1.141h2.05l.865-1.141zM225.086 425.231v-.725h-2.946l-.555.725zM85.286 569.782l-.37.493h9.209v-1.573h-8.021l-.262.354h-5.299l-.043.726h4.786zM84.623 553.076l.154-.2h13.358l.556-.726H85.333l.169-.216h-4.351l-.02 1.142h3.492zM86.459 550.654l.154-.2h13.358l.555-.726H87.154l.169-.216h-6.135c-.005.382-.009.768-.015 1.142h5.286zM88.28 548.232l.154-.2h13.373l.556-.726H89.004l.17-.216h-7.962l-.01 1.142h7.078zM89.529 528.904h13.42l.864-1.142h-13.42l.185-.246h-9.575c.016.524.028 1.039.042 1.558h8.361l.123-.17zM87.57 531.48l.123-.17h13.421l.863-1.141h-13.42l.185-.247h-7.674l.036 1.558h6.466zM81.121 557.704H94.48l.556-.726H81.677l.17-.216h-.801l-.031 1.08.106-.138zM82.787 555.482l.154-.2H96.3l.556-.726H83.497l.17-.216h-2.563l-.026 1.142h1.709zM88.943 564.954l-.37.493h5.553v-1.573H89.76l-.263.354h-8.712l-.032.726h8.19zM87.107 567.375l-.37.494h7.373v-1.573h-6.186l-.262.354h-6.991c-.012.246-.024.497-.037.725h6.473zM90.763 562.532l-.37.493h3.717v-1.573h-2.53l-.263.354H80.883l-.028.726h9.908zM217.913 430.06h7.158v-.726h-6.602zM211.62 420.604h3.533v-1.142h-2.669zM186.754 417.873h13.467l-.37.494h5.553v-1.574h-4.366l-.262.355H187.31zM181.263 425.123h13.467l-.37.493h11.028v-1.573h-9.841l-.263.355h-13.465zM169.293 458.781h-13.358l.17-.216h-13.513l-.864 1.142h13.497l.154-.201h13.359zM183.099 422.701h13.466l-.37.494h9.209v-1.574h-8.022l-.262.356h-13.466zM184.919 420.279h13.466l-.37.494h7.373v-1.574h-6.186l-.261.356h-13.467zM168.938 441.628h-13.42l.185-.247h-13.512l-.293.386h-4.427v.725h3.871l-.354.463h13.528l.123-.17h13.42l.154-.2h13.359l.045-.047h13.436l.139-.184h13.466l.155-.217h13.435l-.354.463h13.512l1.188-1.574h-13.513l-.293.386h-13.435l.184-.216h-13.465l.184-.247h-13.497l-.679.895h-13.311zM138.52 446.21l-.293.385h-.772v1.018l-.124.155h13.513l.124-.17h13.42l.154-.201h13.359l.554-.725h-13.358l.17-.216h-13.42l.185-.246zM168.399 465.676h-4.367l-.261.355h-13.467l-.555.725h13.466l-.37.494h5.554zM168.383 464.828v-1.573h-2.53l-.262.354h-13.467l-.554.725h13.465l-.37.494zM168.383 469.656v-1.573h-6.185l-.263.355h-13.466l-.556.724h13.467l-.37.494zM119.747 382.349l.586-.771h-13.482l.324-.417H93.709l.169-.2H80.412l.185-.247H69.168c.05.553.095 1.077.135 1.574H79.41l.139-.186h13.467l.154-.216h13.42l-.354.463h13.511zM202.612 414.727h-13.466l-.556.724h13.467l-.371.494h3.718v-1.574h-2.53zM190.056 431.293l-1.189 1.573h13.498l.139-.184h12.649v-1.142h-11.786l.186-.247zM87.57 584.605h13.467l.153-.216h12.603v-.725H101.73l.17-.201H88.434l.185-.247h-9.483a530.96 530.96 0 01-.185 1.574h8.48l.139-.185zM209.784 423.025h5.369v-1.141h-4.504zM186.4 436.137l-1.188 1.573h13.497l.139-.185h13.467l.153-.216h12.603v-.725h-12.063l.17-.2h-13.466l.185-.247zM214.998 433.962h-13.467l.186-.247H188.22l-1.188 1.573h13.498l.138-.184h13.466l.154-.216h10.783v-.726h-10.227zM216.093 432.48h8.993v-.724h-8.437zM205.388 426.449h-11.677l-1.187 1.574h12.864zM205.404 411.117v-.078l-.062.078zM206.129 427.854h9.024v-1.142h-8.161zM207.948 425.432h7.189v-1.142h-6.324zM205.388 428.871h-13.497l-1.188 1.573H204.2l.139-.184h10.814v-1.142h-9.95zM143.275 345.96h-9.553l-.293.385h-13.436l.17-.216h-12.047v1.142h11.183l.154-.216h13.436l-.354.462h13.513l.123-.169h13.42l.263-.339h-13.42l.435-.569a73.793 73.793 0 01-3.594-.48zM87.878 353.272h.062v-.077zM91.256 331.214l.502-.664c-.622.226-1.24.448-1.85.664h1.348zM233.2 516.38h-13.467l.186-.247h-13.497l-.633.849h-13.281l.17-.217h-13.42l.185-.246H165.93l-.293.385h-4.427v.726h3.887l-.354.463h13.513l.123-.17h13.42l.154-.2h26.778l.14-.186h13.466l.154-.216h1.409l.048-.725h-.902l.154-.216zM98.336 357.159l1.219-1.604h-1.219zM114.57 323.285a14.72 14.72 0 01-.013-1.574h-2.778l-.178.104-1.109 1.47h4.078zM87.924 362.943v-1.573h-6.185l-.262.355H68.01l-.555.725h13.466l-.37.493zM218.145 340.978l-.293.385h-6.263v.71h5.738l-.354.463h13.513l.123-.17h13.42l.864-1.141h-13.42l.184-.247zM221.153 550.037l-.293.386h-.771v1.019l-.139.169h13.513l.124-.169h.216c-.021-.475-.04-.938-.059-1.404h-12.591zM71.666 356.897l-.555.725h13.466l-.37.493h3.717v-1.573h-2.529l-.263.355zM88.294 352.793l.556-.725H75.491l.17-.216H62.87l.37 1.142h11.543l.153-.201h13.358zM214.474 345.806l-.293.385h-2.592v.725h2.052l-.354.463H226.8l.123-.17h13.42l.154-.2h12.763l.187-.741h-12.394l.169-.216h-13.42l.186-.247h-13.514zM243.057 343.646h-13.42l.185-.247H216.31l-.294.386h-4.427v.725h3.888l-.355.463h13.513l.124-.17h13.42l.154-.2h11.544c.066-.25.132-.495.199-.741h-11.188l.169-.216zM207.208 639.551h13.467l.154-.216h12.603v-.726h-12.063l.154-.2h-13.466l.185-.247H194.76l-1.187 1.573h13.497zM233.432 633.766h-8.439l-.554.725h8.993zM231.673 553.862h2.243l-.054-1.141h-1.326l-.863 1.141zM202.704 627.643h11.03v-1.574h-9.842l-.262.355h-13.467l-.555.724h13.466zM233.432 631.359h-6.603l-.555.726h7.158zM198.925 615.055h13.313l-.36.478h1.917v-1.573h-.71l-.262.354h-13.312l.17-.215h-13.513l-.833 1.095h-13.388l.323-.417h-13.466l.154-.215h-13.467l.186-.248H132.18l-.633.849h-13.281l.17-.216h-13.42l.184-.247H91.688l-.293.386h-4.427v.725h3.872l-.355.462h13.512l.124-.169h13.42l.155-.201h26.778l.139-.184h13.465l.155-.216h13.435l-.354.462h13.512l.54-.709h13.405zM233.447 628.938h-4.782l-.555.725h5.337zM234.481 585.562h2c-.057-.525-.116-1.054-.171-1.573h-.641l-1.188 1.573zM232.645 587.983h4.104l-.177-1.573h-2.74l-1.187 1.573zM236.347 600.926H224.16v1.573h10.999l.139-.186h3.232a278.97 278.97 0 01-.153-1.141h-2.216l.186-.246zM238.05 598.682l-.023-.178h-13.341l-.524.694v.879h12.833l.14-.186h1.072l-.147-1.141h-.061l.051-.068zM217.883 643.222h-13.467l.186-.247h-13.497l-.679.896h-13.313l.17-.217h-13.42l.185-.246h-13.513l-.293.386h-4.427v.725h3.887l-.354.463h13.513l.123-.17h13.421l.153-.2h13.358l.047-.047h13.436l.139-.185h13.466l.154-.216h2.329c1.843-.249 3.578-.492 5.2-.726h-6.989l.185-.216zM125.701 646.522h-4.505l-.313.413c1.684.143 3.295.272 4.817.39v-.803zM113.621 646.276c.78.076 1.551.148 2.315.22v-.22h-2.315zM86.428 639.951H75.401c1.638.556 3.531 1.08 5.625 1.574h4.215l1.187-1.574zM97.689 359.21h-.849l-.863 1.142h1.712zM135.882 642.312h2.051l.864-1.142h-2.915zM108.98 644.903l-.4.524h7.373v-1.573h-6.186l-.247.323H96.146l-.041.053c1.667.236 3.36.46 5.062.673h7.813z"/><path d="M211.866 615.549l.012-.016h-.012zM232.676 641.448l.323-.417h-13.466l.154-.2H206.22l.186-.247h-13.497l-1.188 1.573h13.498l.139-.185h13.466l.154-.216h13.436l-.354.462h.701c2.13-.338 3.728-.605 4.693-.771h-4.778zM202.596 645.644l.186-.247h-13.497l-.679.895h-13.313l.17-.216h-13.42l.185-.246h-13.512l-.294.385h-2.591v.726h2.052l-.355.463h13.513l.124-.17h13.42l.154-.2h13.358l.046-.047h6.727c4.472-.417 8.774-.873 12.82-1.342h-5.094zM160.192 648.497l.186-.247h-13.513l-.293.386h-.772v.017c8.948.419 18.439.299 27.806-.147l.006-.008h-13.42zM140.633 638.748h-4.736v1.142h3.872zM202.087 326.663l.186-.247h-2.502c-.1.539-.226 1.063-.377 1.573h1.691l.587-.771-.031.586h13.05l.154-.216h.004c-.685-.306-1.363-.615-2.029-.926h-10.733zM98.876 338.648l-.524.694v.879h12.834l.139-.185h13.467l.154-.216h1.212a37.09 37.09 0 01-1.426-.925h-12.543l.185-.247H98.876zM98.352 342.628h10.998l.139-.185h13.467l.154-.216h7.527a48.64 48.64 0 01-1.479-.725h-5.508l.17-.201h-13.467l.186-.247H98.352v1.574zM87.924 365.365v-1.573h-8.006l-.262.354H66.585c.056.242.112.483.166.725h12.35l-.37.494h9.193zM201.686 329.069v1.142h11.184l.154-.216h7.678a85.66 85.66 0 01-1.841-.709h-5.297l.17-.216h-12.048zM211.589 332.401h13.065l-.354.463h6.363a299.058 299.058 0 01-4.358-1.08 38.927 38.927 0 01-.992-.269l-.134.176h-13.436l.154-.216H201.67v1.142h9.348l.57-.74v.524zM91.349 526.483h13.42l.263-.34H91.611l.803-1.049h-11.49c.018.522.034 1.04.05 1.558h10.251l.124-.169zM97.673 367.602v-1.142h-6.324l-.864 1.142zM193.048 462.961h-4.735v1.142h3.871zM75.06 370.193h12.864v-1.573H76.247zM97.689 371.289H87.74l.184-.247H74.427l-1.187 1.573h13.497l.138-.185h10.814zM107.592 376.333H97.365l.169-.201H84.068l.185-.247H70.756l-1.187 1.574H83.05l.139-.186h13.467l.154-.215h10.782zM88.664 370.008h9.025v-1.141h-8.16zM98.352 349.878h5.522l1.188-1.573h-6.71zM209.584 387.917h-13.42l.185-.247h-13.513l-.293.386h-8.083v.71h7.559l-.355.463h13.513l.123-.17h13.42zM211.435 385.495h-13.42l.185-.246h-13.512l-.293.385h-9.919v.71h9.394l-.355.463h13.513l.124-.17h13.42zM187.649 629.956h-13.42l.802-1.049h-13.512l-.293.386H147.79l.155-.216h-12.048v1.141h11.199l.154-.216h13.436l-.355.463h13.512l.124-.17h13.42zM120.626 629.679h-13.358l.17-.217H93.925l-.864 1.142h13.497l.154-.201h13.359zM107.607 372.229v-.725h-6.602l-.556.725zM98.352 347.457h7.343l1.187-1.574h-8.53zM97.689 364.039h-4.504l-.864 1.141h5.368zM95.02 361.617l-.864 1.141h3.533v-1.141zM213.271 383.089h-13.42l.184-.247h-13.512l-.293.386h-11.754v.71h11.229l-.354.462h13.513l.123-.17h13.419zM107.607 364.239h-1.111l-.554.725h1.665zM98.336 352.285h3.687l1.188-1.574h-4.875zM118.79 632.101h-13.358l.17-.217H92.089l-.863 1.141h13.497l.154-.2h13.359zM198.231 456.097v.524h13.065l-.354.463h13.513l.123-.169h13.306c.019-.384.035-.765.048-1.142h-12.49l.185-.247h-13.513l-.293.386h-13.436l.154-.216h-10.227v1.142h9.348l.571-.741zM233.355 463.023h-13.42l.184-.247h-13.512l-.293.386h-8.083v.709h7.558l-.354.463h13.513l.123-.169h13.419zM196.703 458.133h-8.39v1.141h7.527zM194.884 460.54h-6.571v1.141h5.707zM235.607 424.12l-.293.386h-.771v1.019l-.139.169h4.39c.081-.552.163-1.075.245-1.573h-3.432zM89.467 635.91H75.986l.323-.416h-5.525a20.76 20.76 0 01-.177.725h5.117l-.354.463h13.513l.584-.772zM87.061 639.104l1.188-1.573H74.736l-.293.385h-3.556c.376.247.803.488 1.278.726h1.737l-.354.463h13.513zM234.542 410.021v.725h6.798l.102-.725h-6.9zM70.386 341.055l.123-.17h13.42l.154-.201h13.358l.556-.725H84.639l.17-.216h-13.42l.185-.247h-6.915c-1.495.621-2.56 1.147-3.294 1.558h9.021zM234.697 407.6l.154-.216h-10.228v1.142h9.348l.571-.74v.539h7.143l.106-.725h-7.094zM122.447 627.257h-13.359l.17-.216H95.745l-.864 1.141h13.497l.154-.201h13.359zM129.187 636.08h-3.054v1.573h1.866zM131.007 633.658h-4.874v1.573h3.687zM140.833 620.731l.139-.184h13.467l.154-.216h13.436l-.356.462h13.513l1.187-1.573h-13.511l-.294.385h-13.436l.154-.215h-13.465l.184-.247h-13.497l-.632.848h-13.281l.17-.216h-13.421l.186-.247H88.017l-.293.386h-.772v1.019l-.138.169h13.512l.123-.169h13.42l.155-.202h13.281zM180.523 621.657H167.01l-.293.386h-13.436l.155-.216h-13.467l.186-.247h-13.498l-.524.694v.895h12.85l.138-.186h13.466l.154-.215h13.436l-.354.462h13.512zM85.904 373.695l.185-.247H72.592l-1.188 1.573h13.497l.139-.185h12.649v-1.141zM126.133 638.502v1.603l1.219-1.603zM144.288 633.92h-8.391v1.142h7.528zM142.468 636.327h-6.571v1.141h5.708zM135.635 646.724h-1.11l-.556.724h1.666zM134.663 628.83h-8.53v1.573h7.343zM132.843 631.252h-6.71v1.573h5.523zM177.499 625.652l1.188-1.573h-13.513l-.293.386h-13.435l.154-.216h-13.466l.185-.247h-12.186v1.589h11.014l.138-.186h13.467l.154-.216h13.435l-.354.463zM64.925 348.15h13.513l.154-.2H91.95l.556-.725H79.132l.17-.216H65.789zM98.336 353.133v1.574h1.867l1.188-1.574zM66.777 345.744h13.497l.154-.2h13.358l.555-.725H80.983l.17-.216H67.64zM63.105 350.572h13.497l.154-.2h13.359l.555-.725H77.312l.17-.216H63.969zM64.027 355.4h8.919l.154-.2h13.312l-.37.493h1.897v-1.573h-.709l-.263.355H73.656l.17-.216H63.652l.375 1.141zM97.566 624.634l-.865 1.141h13.513l.154-.2h13.359l.554-.724h-13.373l.169-.217zM125.716 641.694h-.848l-.864 1.142h1.712zM83.559 358.948l-.262.355H69.846l-.556.725h13.467l-.37.493h5.537v-1.573zM125.701 644.101h-2.669l-.864 1.141h3.533zM112.759 622.429l.17-.216H99.416l-.864 1.141h13.498l.153-.201h13.359l.555-.724zM219.071 392.622l-.263.339h-13.034l.17-.216h-13.42l.185-.247h-13.512l-.294.386h-4.427v.725h3.888l-.355.463h13.513l.123-.169h13.421l.154-.201h13.034l-.386.509h13.497l.139-.185h12.465l.2-1.157h-11.786l.185-.247h-13.497zM103.164 332.972h13.497l.14-.185h1.402a20.56 20.56 0 01-.949-1.388h-12.901l-1.189 1.573zM96.331 448.708h11.03v-1.573h-9.842zM105 330.55h11.754a18.548 18.548 0 01-.784-1.573h-9.782L105 330.55zM106.836 328.128h8.786a17.512 17.512 0 01-.515-1.573h-7.084l-1.187 1.573zM92.028 454.385l-1.188 1.573h13.497l.139-.185h12.648v-1.141h-11.785l.186-.247zM116.97 457.054h-13.466l.185-.247H90.192l-1.188 1.573h13.497l.139-.185h13.467l.154-.216h10.782v-.725h-10.227zM83.297 430.521h13.404l.154-.2h13.358l.556-.725H97.411l.169-.216H84.068l-.833 1.095h-6.859c.019.253.038.505.055.756h6.326l.54-.71zM101.514 335.132h-13.22l.17-.216h-9.729c-1.646.51-2.962.903-3.83 1.157h12.696l.154-.201h13.358l.37-.494h13.358l.139-.185h5.284a24.95 24.95 0 01-1.068-1.157h-3.353l.186-.247h-13.497l-1.018 1.343zM80.289 434.486H76.62c.025.534.047 1.059.067 1.573h2.414l1.188-1.573zM82.767 333.635h6.669l.864-1.141h-4.092a296.88 296.88 0 01-3.441 1.141zM107.361 451.963H93.864l-1.189 1.573h13.497l.14-.184h10.812v-1.142h-9.949zM69.46 342.181l-.863 1.141h13.497l.154-.2h13.358l.555-.725H82.803l.17-.216zM247.931 372.276h.006l.003-.011zM246.959 373.556l-.863 1.142h1.4l.207-1.142h-.744zM241.699 373.31h-7.743l.324-.433h-13.512l-.556.726h13.25l-.972 1.28h9.209zM127.059 454.832h-8.439l-.554.726h8.993zM246.635 379.526l.186-.957.03-.185h-3.546l-.864 1.142h4.194zM117.124 446.102v-1.142h-4.504l-.864 1.142zM102.193 423.272l.154-.201h13.358l.556-.724h-13.358l.17-.216H89.56l-.864 1.141zM108.656 325.707h6.245a15.826 15.826 0 01-.259-1.574h-4.798l-1.188 1.574zM235.128 336.396l.186-.247h-13.513l-.293.385h-9.919v.71h9.395l-.355.462h13.513l.124-.169h12.074a58.211 58.211 0 00-2.895-1.142h-8.317zM142.838 440.518h13.513l.124-.17h13.42l.863-1.142h-13.42l.186-.246h-13.513l-.293.385h-6.263v.71h5.739zM166.671 426.882h-13.513l-.293.386H139.43l.169-.217h-12.047v1.141h11.184l.154-.215h13.435l-.355.462h13.513l.124-.169h13.42l.261-.339h-13.42zM105.849 613.837l.123-.17h13.42l.864-1.142h-13.42l.185-.247H93.508l-.293.386h-6.263v.71h5.739l-.355.463zM122.076 610.104h-13.42l.185-.248H95.328l-.293.386h-8.083v.71h7.559l-.355.463h13.513l.123-.17h13.42zM76.726 619.297v-.725h-1.111l-.555.725zM125.732 605.275h-13.42l.185-.247H98.985l-.293.386h-11.74v.71h11.2l-.356.463h13.528l.124-.17h13.42zM127.583 602.869h-13.42l.185-.247h-13.513l-.293.386H87.107l.154-.216H77.034v1.142h9.348l.57-.756v.54h13.066l-.355.463h13.513l.123-.17h13.42zM89.837 617.122l-.293.386h-2.592v.724h2.052l-.354.463h13.512l.123-.17h13.42l.155-.2h26.794l.138-.184h13.467l.154-.216h13.435l-.355.462h13.513l1.188-1.574h-13.513l-.293.386h-13.436l.155-.216h-13.466l.184-.247h-13.497l-.631.849h-13.282l.169-.216h-13.42l.186-.247zM123.911 607.697h-13.42l.186-.247H97.164l-.293.386h-9.919v.71h9.395l-.356.463h13.513l.124-.17h13.42zM197.228 634.892h13.498l.139-.185h12.648v-1.142h-11.785l.185-.247h-13.497zM195.377 637.313h13.497l.139-.184h13.467l.154-.216h10.782v-.725h-10.227l.154-.201h-13.466l.185-.247h-13.497zM185.937 578.929l.154-.216h13.436l-.355.463h13.513l1.187-1.573H200.36l-.293.385h-13.436l.17-.201h-13.467l.186-.246h-10.366v1.573h9.177l.587-.771-.031.586zM223.343 386.976h13.497l.14-.185h8.278l.211-1.142h-7.626l.186-.247h-13.497l-1.189 1.574zM107.375 444.713h-8.02l-1.188 1.573h9.208zM210.633 599.599h-13.42l.185-.246h-13.513l-.293.384h-.771v1.019l-.123.154h13.512l.123-.17h13.42l.154-.2h13.359l.556-.726h-13.359zM103.658 439.037h3.717v-1.574h-2.529zM105.479 436.615h1.896v-1.573h-.709zM94.495 451.114h12.866v-1.573H95.683zM107.375 434.193v-.077l-.061.077zM101.823 441.458h5.552v-1.573h-4.365zM97.164 465.445h13.466l.154-.216h13.436l-.355.462h13.513l1.188-1.573h-13.513l-.293.386h-13.436l.17-.2H98.028l.185-.247H84.716l-1.187 1.573h13.497zM76.741 621.719v-.725h-2.946l-.243.316-.073.408h3.262zM153.559 461.912h13.312l-.37.494h1.882v-1.573h-.71l-.262.355h-13.312l.17-.216h-13.513l-.864 1.141h13.513zM84.732 463.964h-7.53l.021.726h6.954l.555-.726zM99.987 443.865h7.374v-1.574h-6.186zM77.034 456.498h-.024v.032l.024-.032zM177.361 394.936l-.293.386h-2.592v.725h2.052l-.354.462h13.512l.124-.169h13.42l.154-.201h13.034l-.386.51h13.497l.139-.186h13.467l.154-.216h.301c.053-.312.105-.624.16-.941h-13.202l.185-.247h-13.497l-.262.339H203.94l.169-.216h-13.42l.186-.247h-13.514zM226.321 489.848h-13.42l-.556.724h13.436l-.416.54v.016h1.896v-1.573h-.709zM188.93 610.428h13.497l.154-.201h13.358l.555-.725h-13.358l.17-.216h-13.513zM227.261 488.629l-.062.077h.062zM212.545 508.034h13.498l.139-.186h8.677c.048-.36.096-.74.143-1.141h-7.957l.186-.247h-13.497l-1.189 1.574zM219.872 498.378h7.389v-1.573h-6.186l-.231.293h-13.435l-.555.724h13.435l-.417.54zM228.85 504.301l-.863 1.142h7.158c.039-.367.078-.751.117-1.142h-6.412zM229.514 468.083l.169-.217h-13.42l.186-.246h-13.513l-.293.386h-4.428v.725h3.888l-.354.463h13.512l.124-.17h13.42l.154-.2h8.414l.031-.74h-7.89zM243.188 398.653l.12-.726h-1.27l.154-.215h-13.466l.185-.248h-13.497l-.262.34h-13.034l.169-.216h-13.42l.186-.247H175.54l-.293.386h-.771v1.019l-.139.17h13.513l.123-.17h13.42l.154-.201h13.313v.51h12.834l.139-.186h13.466l.154-.216h1.735zM208.69 495.416h13.434l-.416.54v.016h5.569v-1.574h-4.366l-.231.293h-13.436zM227.246 501.633h-9.841l-1.188 1.573h11.029zM229.807 503.021h5.576c.034-.371.067-.753.101-1.141h-4.814l-.863 1.141zM210.509 492.994h13.436l-.416.54v.016h3.732v-1.573h-2.529l-.232.293h-13.435zM203.074 556.238l-.555.725h7.157v-.725zM209.677 553.832h-4.782l-.556.725h5.338zM200.684 559.385h8.993v-.725h-8.438zM214.381 505.612h12.865v-1.573h-11.677zM209.677 548.988h-1.111l-.555.726h1.666zM209.677 551.41h-2.946l-.556.725h3.502zM217.127 466.756l.123-.17h13.42l.864-1.141h-13.419l.184-.247h-13.513l-.293.386h-6.262v.709h5.738l-.354.463zM201.331 452.024l.155-.215h13.435l-.354.462h13.512l1.188-1.573h-13.513l-.293.386h-13.435l.17-.2h-13.467l.185-.247h-10.366v1.573h9.178l.587-.772-.032.586zM145.723 489.832l-1.018 1.342h-13.219l.17-.216h-13.42l.184-.246h-13.513l-.292.385h-4.427v.725h3.886l-.354.463h13.513l.138-.17h13.42l.155-.2h13.358l.37-.494h13.358l.139-.185h13.467l.154-.215h13.436l-.356.461h13.513l1.188-1.573h-13.512l-.294.386h-13.436l.17-.216h-13.466l.185-.247zM191.073 501.154l1.188-1.573h-13.513l-.293.386H165.02l.17-.2h-13.466l.184-.247h-10.365v1.573h9.178l.586-.772-.03.586h13.049l.155-.216h13.434l-.354.463zM173.674 524.015l-.864 1.141h13.497l.154-.2h13.359l.555-.726h-13.358l.17-.215zM214.86 403.898h9.178l.586-.771-.03.586h13.05l.154-.217h4.596l-.135.872 5.365-1.257-.201-.879-4.995 1.169.083-.535 4.773-1.112-.108-.494-.555-.277-3.979.929-.138.876h-4.152l.154-.216H225.04l.185-.247H214.86v1.573zM121.119 344.865l.154-.216h13.436l-.354.463h4.543c-2.016-.468-3.438-.913-4.233-1.188H121.83l.154-.201h-13.467l.186-.247H98.336v1.574h9.179l.586-.771-.031.586h13.049zM206.159 481.102h13.497l.155-.201h13.358l.556-.725h-13.359l.17-.216h-13.512zM204.339 483.523h13.497l.154-.2h13.359l.556-.725h-13.359l.17-.216h-13.513zM80.197 399.008l.57-.74v.524h13.065l-.354.463h13.513l.123-.17h13.42l.864-1.142h-13.42l.185-.246H94.65l-.293.385H80.921l.154-.216H70.887c.056.38.112.76.17 1.142h9.14zM202.504 485.945h13.497l.155-.201h13.358l.555-.724H216.71l.17-.216h-13.513zM107.607 378.754H95.544l.17-.201H82.248l.185-.247H68.936l-.007.01c.058.538.112 1.061.161 1.563h12.156l.139-.185h13.467l.153-.216h12.603v-.724zM91.982 401.214l-.356.463h13.513l.123-.17h13.421l.863-1.142h-13.42l.186-.246H92.799l-.293.385H80.767v.71zM227.678 470.504l.17-.216h-13.42l.185-.246H201.1l-.293.385h-2.592v.726h2.052l-.354.463h13.513l.123-.17h13.42l.154-.2h10.147l.032-.741h-9.624zM72.869 408.68l.863-1.142H72.43l-.036-.21-5.988-1.395-.201.879 6.353 1.48.066.387h.245zM225.873 472.911l.17-.217h-13.421l.186-.246h-13.513l-.293.386h-.771v1.018l-.139.17h13.513l.123-.17h13.42l.154-.2h11.861l.033-.74h-11.323zM218.037 500.784h9.209v-1.573h-8.021l-.216.309h-13.436l-.555.724h13.435zM207.995 478.695h13.497l.155-.2h13.358l.555-.725h-13.359l.17-.216h-13.512zM232.506 499.458l-.864 1.142h3.95c.031-.374.062-.756.091-1.142h-3.177zM233.462 498.192h2.318c.028-.376.056-.756.083-1.141h-1.537l-.864 1.141zM245.124 375.962l-.864 1.142h2.81l.201-1.142h-2.147zM241.684 372.461v-1.573h-5.907l.323-.432h-13.513l-.555.725h13.25l-.971 1.28zM218.376 376.009h13.251l-.972 1.28h11.029v-1.573h-9.564l.325-.432h-13.513zM219.965 338.556l-.293.386h-8.083v.709h7.559l-.355.463h13.513l.123-.17h13.42l.864-1.141h-13.421l.186-.247zM235.977 335.286l.123-.17h3.407a121.42 121.42 0 00-5.265-1.388h-10.605l-.293.386H211.59v.709h11.229l-.354.463h13.512zM235.954 495.771l.065-.953-.721.953h.656zM73.224 337.337l.186-.247h-1.949a89.826 89.826 0 00-4.678 1.573h5.438l.124-.17h13.42l.154-.2h13.358l.37-.494h13.358l.139-.185h9.846a29.51 29.51 0 01-1.388-1.157h-7.563l.186-.247h-13.497l-1.019 1.342H86.475l.169-.216h-13.42zM193.357 391.65l.123-.17h13.42l.864-1.141h-13.42l.185-.247h-13.513l-.293.386h-6.263v.71h5.738l-.354.462zM80.52 477.708h7.343l1.187-1.573h-8.53zM178.748 410.824h13.498l.154-.201h13.358l.556-.725h-13.359l.17-.216h-13.512zM213.441 418.182h1.712v-1.142h-.849zM182.405 405.996h13.497l.154-.201h13.358l.556-.725h-13.358l.169-.216h-13.512zM184.24 403.574h13.498l.154-.201h13.358l.555-.725h-13.358l.169-.215h-13.512zM117.109 448.523v-1.141h-6.325l-.863 1.141zM180.569 408.402h13.497l.154-.201h13.358l.556-.724h-13.358l.17-.217h-13.513zM91.226 437.571h13.512l.555-.724H91.781zM200.406 532.206h7.342l1.188-1.574h-8.53zM94.881 432.728h13.513l.555-.725H95.437zM93.045 435.149h13.513l.556-.724H93.601zM108.101 450.945h9.023v-1.141h-8.16zM244.82 389.197l.208-1.141h-9.02l.186-.247h-13.497l-1.188 1.573h13.497l.139-.185h9.675zM179.782 444.96h13.436l.139-.186h13.466l.154-.215h13.435l-.354.462h13.513l1.187-1.573h-13.513l-.293.386h-13.435l.185-.216h-13.466l.185-.247h-13.497l-.679.895h-13.312l.17-.216h-13.42l.184-.247h-13.512l-.293.385h-2.591v.726h2.051l-.355.462h13.513l.123-.169h13.42l.154-.201h13.359zM107.622 373.911h-8.437l-.556.725h8.993zM191.521 447.196h13.467l.154-.216h13.435l-.355.463h13.513l1.187-1.573h-13.497l-.293.386h-13.435l.154-.2h-13.466l.185-.247h-13.497l-.525.694v.879h12.834zM214.86 415.991l1.218-1.604h-1.218zM178.548 454.616h7.343l1.187-1.573h-8.53zM188.066 470.967h-1.111l-.555.725h1.666zM214.86 411.117h3.686l1.188-1.574h-4.874zM214.86 413.539h1.866l1.187-1.574h-3.053zM77.266 367.293l-.37.494h11.028v-1.573h-9.841l-.263.354H67.116c.05.242.098.484.146.725h10.004zM214.86 408.711h5.522l1.188-1.574h-6.71zM224.655 439.006h-13.467l.154-.216h-13.466l.185-.247h-13.497l-1.188 1.573h13.497l.139-.185h13.467l.154-.216h13.436l-.355.462h13.513l.124-.154h.383c.003-.342.009-.678.015-1.013l-.306.411H224.33l.325-.415zM226.366 382.966l-1.188 1.573h13.497l.139-.185h6.896l.215-1.142h-6.247l.185-.247h-13.497zM90.037 503.715H81.6l-.555.725h8.992zM80.52 487.41l1.219-1.603H80.52zM241.699 378.138h-11.676l-1.188 1.573h12.864zM80.52 480.114h5.522l1.189-1.573H80.52zM80.52 482.536h3.687l1.188-1.573H80.52zM80.52 484.958h1.867l1.187-1.573H80.52zM83.189 519.402h13.513l1.203-1.573H84.392l-.293.386H80.64l.035.725h2.869l-.355.462zM81.368 521.84h13.513l1.188-1.573H82.556l-.293.386H80.75l.032.725h.941l-.355.462zM88.68 512.138h13.513l.54-.71h13.42l.154-.2h13.313l-.37.493h1.896v-1.573h-.709l-.263.354h-13.312l.17-.216H103.52l-.833 1.096h-13.39l.324-.417h-9.39l.046.71h8.758l-.355.463zM85.04 516.996h13.512l1.188-1.573H86.228l-.293.386h-5.417l.037.725h4.841l-.356.462zM86.845 514.574h13.527l1.188-1.573H88.048l-.293.386H80.38l.042.725H87.2l-.355.462zM100.511 425.478h13.358l.556-.725h-13.358l.17-.216H87.724l-.864 1.142h13.498zM80.52 469.579v.879h12.834l.139-.186h13.466l.155-.215h13.435l-.354.463h13.511l1.189-1.574h-13.513l-.293.386h-13.435l.169-.2H94.357l.185-.247H81.045zM80.52 472.88h11.013l.14-.186h13.466l.154-.215h13.436l-.355.462h13.513l1.187-1.573h-13.512l-.293.386h-13.436l.155-.2H92.521l.185-.247H80.52zM82.911 466.386h-5.639l.022.725h5.062l.555-.725zM80.52 475.302h9.178l.586-.772-.031.586h13.05l.154-.216h13.436l-.355.463h13.513l1.188-1.573h-13.513l-.293.386h-13.436l.17-.201H90.701l.185-.246H80.52zM76.902 451.654l.025 1.142h2.915l.864-1.142h-3.804zM86.536 497.19h3.501v-.725h-2.946zM94.234 522.673h-13.4l.06 1.573h12.151l1.189-1.573zM89.39 439.978h13.513l.554-.725H89.946zM90.037 494.043h-1.11l-.556.726h1.666zM188.066 473.373h-2.947l-.555.726h3.502zM82.88 502.019h7.157v-.726h-6.601zM168.383 475.332h-11.677l-1.188 1.574h12.865zM185.258 455.465h-6.71v1.573h5.523zM213.749 625.221v-1.574h-8.021l-.263.355h-13.466l-.555.725h13.466l-.37.494zM224.161 617.029l1.218-1.603h-1.218zM195.115 619.898h13.466l-.37.495h5.553v-1.574h-4.365l-.262.355H195.67zM193.28 622.305h13.465l-.37.494h7.374v-1.573h-6.185l-.263.354h-13.467zM225.533 597.408h-13.234l.169-.216h-13.42l.186-.246h-13.513l-.293.385h-2.592v.726h2.052l-.354.463h13.513l.123-.17h13.42l.154-.2h13.358l.37-.494h12.445l-.202-1.589h-11.163l-1.019 1.341zM229.93 627.241h3.502v-.724h-2.946zM233.432 624.109h-1.111l-.555.726h1.666zM224.161 607.312h7.342l1.188-1.574h-8.53zM224.161 612.155h3.687l1.187-1.573h-4.874zM224.161 609.733h5.522l1.188-1.573h-6.71zM213.749 617.971v-1.574h-2.53l-.262.355H197.49l-.555.725h13.467l-.371.494zM223.513 623.894h-4.504l-.864 1.141h5.368zM214.474 629.879h9.023v-1.142h-8.16zM220.829 621.487l-.864 1.142h3.532v-1.142zM223.513 619.065h-.849l-.863 1.142h1.712zM192.585 605.6h13.497l.155-.202h13.358l.556-.724h-13.359l.17-.216h-13.513zM195.284 602.036l-.863 1.142h13.497l.155-.2h13.358l.555-.726h-13.359l.17-.216zM214.658 611.924h-13.357l.169-.216h-13.513l-.863 1.142h13.497l.154-.202h13.359zM213.749 628.476h-11.677l-1.188 1.573h12.865zM223.497 626.315h-6.324l-.863 1.142h7.187zM213.749 613.065l-.062.078h.062zM199.048 632.471h13.497l.14-.186h10.812v-1.141h-9.949l.186-.248h-13.497zM224.161 614.562h1.867l1.187-1.574h-3.054zM153.683 479.327h13.497l.139-.184h10.813v-1.142h-9.95l.185-.247H154.87zM151.863 481.749h13.497l.138-.185h12.649v-1.141h-11.784l.184-.247H153.05zM190.765 608.021h13.497l.154-.201h13.359l.555-.724h-13.358l.17-.216h-13.513zM221.754 513.727h-13.497l-1.188 1.573h13.497l.139-.186h13.351c.031-.403.063-.78.093-1.142h-12.58l.185-.245zM180.106 515.639l.124-.17h13.42l.863-1.141h-13.42l.186-.247h-13.513l-.293.386h-6.263v.709h5.738l-.354.463zM181.603 460.293h-3.055v1.573h1.866zM178.548 457.871v1.573h3.687l1.187-1.573zM188.066 478.217h-6.603l-.555.725h7.158zM196.333 511.906h-13.42l.186-.247h-13.513l-.293.386h-8.083v.709h7.559l-.356.463h13.513l.124-.169h13.42zM150.011 484.171h13.497l.14-.185h13.466l.154-.215h10.782v-.726h-10.227l.155-.2h-13.467l.186-.247h-13.498zM178.548 464.318l1.219-1.603h-1.219zM201.856 504.656h-13.42l.185-.247h-13.512l-.293.386H161.38l.154-.216h-10.227v1.142h9.348l.571-.742v.526h13.065l-.355.462h13.512l.124-.169h13.42zM224.5 545.595h-4.427v.726h3.887l-.354.462h10.016a310.82 310.82 0 01-.049-1.573h-8.779l-.294.385zM226.336 543.173h-6.263v.71h5.738l-.355.463h8.091c-.014-.523-.029-1.047-.041-1.559h-6.878l-.292.386zM228.156 540.751h-8.083v.71h7.559l-.355.463h6.212c-.011-.525-.022-1.047-.031-1.559h-5.009l-.293.386zM231.843 535.923h-11.755v.71h11.23l-.355.463h2.453l-.009-1.559h-1.271l-.293.386zM230.007 538.345h-9.919v.71h9.395l-.354.463h4.317a286.01 286.01 0 01-.02-1.559H230.3l-.293.386zM164.11 518.925l-.293.386h-2.591v.725h2.052l-.355.463h13.513l.123-.17h13.421l.154-.2h26.778l.139-.186h13.466l.154-.216h3.088l.039-.725h-2.587l.17-.216h-13.467l.186-.247h-13.497l-.633.849h-13.281l.17-.217h-13.42l.185-.246H164.11zM220.242 533.501l.154-.216H210.17v1.142h9.348l.57-.74v.54h13.035l-.355.463h.637v-1.188h-13.163zM200.02 507.078H186.6l.185-.247h-13.512l-.293.386h-11.754v.709h11.229l-.354.463h13.512l.124-.169h13.419zM222.68 548.001h-2.592v.726h2.052l-.354.462h11.923c-.021-.532-.039-1.052-.058-1.573h-10.678l-.293.385zM198.169 509.484h-13.42l.185-.247h-13.512l-.294.386h-9.918v.71h9.394l-.355.462h13.513l.123-.169h13.42zM40.707 451.331l-12.047-2.823-.309.154-3.805-.892-.041.421 3.26.764-.37.186 12.047 2.822 1.265-.632zM60.483 352.578l-10.046-2.352c-.117.117-.236.235-.347.349l9.807 2.296.586-.293zM53.65 364.918l1.295-.663-1.08-.247zM53.804 444.481l11.97 2.792.17-.077 6.294 1.476.051-.415-5.774-1.354.186-.107-11.971-2.792.201-.108-12.048-2.822-.309.154-.679-.154-.139.57-.139.077 12.047 2.823.14-.063zM54.281 362.172l3.287.771 1.264-.632-4.349-1.018zM53.973 363.53l1.65.386 1.266-.633-2.715-.633zM56.025 354.861l-.123.494 8.776 2.046-.335-1.006-7.762-1.812-.556.278zM65.2 358.966a3.409 3.409 0 01-.028-.095l-.308-.912-9.087-2.126-.2.879 9.623 2.254zM64.157 355.834l-.331-1.004-5.287-1.234-1.265.632 6.883 1.606zM59.527 361.956l1.264-.632-5.985-1.404-.2.879zM42.034 450.637l-12.032-2.808.34-.17-5.66-1.322-.038.407 5.097 1.193-.371.185 12.048 2.823.616-.308zM58.555 353.549l-9.253-2.167-.336.352 9.002 2.108.587-.293zM55.26 459.087c1.232.153 2.419.285 3.549.397l-11.932-2.786-.586.294 8.969 2.095zM54.236 453.104l11.923 2.792.586-.292-11.923-2.792.185-.093-12.048-2.823-.925.462 12.032 2.824zM31.53 411.626l-4.694-1.095-.015.2 4.432 1.033.277-.138zM31.19 385.079l-.16-.037-.035.134.195-.097zM60.129 459.61l-1.035-.243-.256.12c.44.044.869.085 1.291.123zM30.866 403.127l.154-.078 11.77 2.746.169-.077 11.878 2.776-.401.201 1.682.4.2-.879-.632-.139-.293.139-11.878-2.776.186-.093-12.048-2.822-.447.23-3.455-.809-.058.439 3.173.742zM36.126 382.626l.17-.092 11.985 2.808-.37.185 12.047 2.823 1.265-.632-12.047-2.823-.309.154-11.985-2.807.17-.093-4.893-1.146-.19.646 4.157.977zM38.224 381.531l11.985 2.807-.37.185 12.047 2.823 1.266-.632-12.048-2.823-.309.154-11.985-2.808.17-.092-6.405-1.499c-.067.215-.132.43-.198.646l5.677 1.331.17-.092zM28.907 404.098l1.265-.632-2.544-.593c-.039.305-.077.604-.113.9l1.392.325z"/><path d="M34.167 383.598l.17-.093 11.985 2.808-.37.185 12.047 2.823.139-.062 11.959 2.79a2.46 2.46 0 00-.011-.09h2.012l.139-.185h13.467l.154-.216h13.436l-.355.463h13.513l1.188-1.574h-13.512l-.294.386H86.398l.154-.201H73.085l.186-.247h-3.375c.053.471.11.958.17 1.453l-11.651-2.718.849-.432-12.047-2.823-.309.154-11.985-2.808.17-.093-3.326-.778a91.66 91.66 0 00-.183.649l2.583.609zM45.875 377.69l.169-.092 11.986 2.808-.371.185 11.723 2.747c.036.504.067.969.092 1.387h8.13l.139-.185H91.21l.154-.216H104.8l-.355.462h13.513l1.188-1.573h-13.512l-.294.386H91.905l.154-.216H78.592l.186-.247h-9.401l-.019-.251-11.065-2.587.34-.169-12.017-2.808.17-.092-12.001-2.808.2-.093-.52-.122-.283.75 11.693 2.734zM26.362 423.01l-.036-.009-.001.027.037-.018zM30.942 453.343c1.104.428 2.221.829 3.348 1.204l.572-.285-3.92-.919zM27.719 422.315l.031-.016-.062.294 11.445 2.668.139-.077 12.001 2.808.17-.093 11.985 2.808-.37.186 9.96 2.333.015-.925-8.71-2.041-.309.154-11.985-2.808.17-.093-12.001-2.808.2-.092-12.031-2.808-.293.154-1.686-.393-.018.433 1.349.316zM55.13 358.563l-.2.879 6.556 1.527 1.264-.633zM28.213 404.469l-.76-.178c-.024.199-.048.398-.07.594l.83-.416zM27.349 413.724l.926-.463-1.598-.373c-.015.257-.026.48-.036.671l.708.165zM29.308 412.736l.926-.463-3.467-.811c-.017.238-.031.459-.044.67l2.585.604zM56.442 407.692l-.063.031.047.015zM35.155 429.997l8.345 1.944.602-.309-.077.309 11.631 2.745-.37.186 12.047 2.822.139-.077 5.463 1.274.009-.676-4.546-1.061.201-.108-12.048-2.823-.309.154-11.985-2.807.17-.093-9.116-2.129-.156.649zM49.839 446.426l12.032 2.822.169-.077 9.916 2.322c.011-.141.021-.286.034-.423l-9.363-2.192.185-.093-12.047-2.822-.926.463z"/><path d="M35.679 373.973l.139-.077 12.001 2.808.17-.077 11.245 2.622.092-.401-10.767-2.515.17-.092-12.001-2.808.2-.092-1.947-.454c-.113.281-.224.563-.334.846l1.032.24zM47.88 447.413l12.032 2.822.169-.077 11.775 2.757.027-.424-11.215-2.626.185-.093-12.047-2.822-.926.463zM61.146 352.269l1.997.466-.324-1.003-.409-.095-1.264.632zM50.209 455.033l11.94 2.792-.432.216 3.332.771.2-.879-2.252-.525-.262.123-11.94-2.792zM59.234 353.241l4.409 1.029-.328-1.004-2.816-.657-1.265.632zM45.937 448.385l12.031 2.822.17-.077 11.924 2.792.586-.293-11.924-2.792.185-.093-12.046-2.822zM37.638 372.985l.139-.077 12.001 2.808.17-.093 9.609 2.252.093-.401-9.132-2.128.17-.093-12.001-2.808.2-.092-3.364-.785c-.118.28-.235.561-.35.842l2.465.575zM63.645 361.37l2.386.557a65.137 65.137 0 00-.192-.728l-2.04-.477-.154.648zM63.49 362.095l-.154.648 3.08.717c-.058-.241-.116-.482-.176-.723l-2.75-.642zM40.383 362.681l.587-.293-.663-.155c-.078.125-.158.249-.236.375l.312.073zM39.551 371.998l.139-.077 11.291 2.638.154-.647-10.505-2.453.201-.093-4.743-1.106c-.125.281-.249.563-.37.845l3.833.893zM42.342 361.709l.587-.293-1.82-.426-.248.373 1.481.346zM41.664 370.949l9.656 2.252.153-.647-8.885-2.083.201-.093-6.108-1.425c-.131.281-.262.563-.39.846l5.232 1.228.141-.078zM32.224 384.585l.602-.309-.077.309 11.615 2.715-.37.185 12.047 2.823.139-.062 11.97 2.792.926-.462-11.97-2.792.2-.108-12.047-2.823-.309.154-11.986-2.807.17-.093-1.746-.408-.175.649 1.011.237zM60.93 372.014l-2.622-.618-.586.293 3.115.741zM52.107 369.839l-5.646-1.327-.926.463 6.417 1.511zM43.762 366.291l-5.132-1.195c-.149.273-.297.547-.443.824l5.375 1.25.2-.879zM51.798 371.196l-7.28-1.697-.926.463 8.052 1.882zM60.621 373.387l-4.256-1.003-.587.293 4.751 1.111zM59.99 376.117l-7.529-1.759-.586.293 8.022 1.867zM60.298 374.744l-5.892-1.373-.587.293 6.386 1.481zM43.438 367.664l-5.491-1.283c-.143.275-.285.55-.424.828l5.715 1.334.2-.879zM45.027 422.347l.139-.077 12.001 2.808.17-.093 11.985 2.808-.37.185 4.132.969.005-.445-3.489-.816.34-.17-12.017-2.808.17-.092-12.001-2.808.2-.093-12.031-2.808-1.266.633 12.032 2.807zM39.834 363.002l-.228.381 4.587 1.072.2-.879-3.887-.91-.672.336zM41.201 362.311l3.317.772.2-.88-2.252-.524zM43.885 365.813l.2-.879-4.738-1.112c-.157.271-.311.545-.464.82l5.002 1.171zM33.041 410.607l12.017 2.808-.402.2 9.841 2.299.201-.879-8.777-2.052-.277.139-12.017-2.808zM38.764 452.303l-12.047-2.823-.309.154-1.997-.468-.042.421 1.452.34-.37.186 12.048 2.822 1.265-.632zM44.904 404.746l11.923 2.792.586-.293-11.923-2.792.184-.093-12.047-2.823-.926.463 12.033 2.823zM31.791 388.673l6.726 1.589-.37.185 12.047 2.823.139-.078 11.97 2.792.926-.462-11.971-2.792.201-.108-12.048-2.823-.308.154-7.219-1.681zM53.464 409.188l-12.001-2.807-.586.293 12.001 2.808-.401.2 3.332.771.2-.879-2.252-.524zM31.468 390.03l5.09 1.219-.37.185 12.047 2.823.139-.077 11.97 2.792.926-.462-11.971-2.793.201-.108-12.048-2.823-.308.154-5.584-1.311zM32.1 387.3l8.346 1.974-.371.185 12.047 2.824.139-.077 11.97 2.792.925-.463-11.969-2.792.2-.108-12.047-2.823-.309.154-8.838-2.067zM45.042 360.83l-.633-.139-1.264.633 1.696.385zM42.512 397.096l11.971 2.791.169-.076 11.923 2.791.587-.293-11.923-2.791.184-.094-11.97-2.791.201-.109-12.047-2.822-.309.154-.679-.154-.138.57-.139.078 12.031 2.822zM35 409.621l12.017 2.807-.402.201 8.238 1.912.2-.879-7.157-1.666-.293.139-12.017-2.807zM36.959 408.633l12.017 2.808-.402.2 6.602 1.543.201-.879-5.522-1.296-.293.138-12.017-2.807zM66.761 367.17l-4.227-.987-.154.648 3.455.802zM66.943 365.77l-4.1-.96-.154.648 4.407 1.028c-.049-.238-.102-.477-.153-.716zM62.843 369.145l-.957-.232-.154.648.185.046zM38.903 407.662l12.016 2.807-.401.201 4.967 1.156.201-.879-3.888-.91-.293.139-12.016-2.807zM64.802 368.142l-2.592-.602-.154.648 1.82.416zM43.114 369.037l-5.819-1.362c-.136.277-.272.554-.405.833l6.024 1.409.2-.88zM32.948 438.204l-1.002-.231-.586.293 1.496.338zM32.624 439.576l-2.622-.616-.586.293 3.116.725zM26.424 428.069l4.92 1.158 1.266-.633-5.986-1.404zM26.732 426.696l6.556 1.528 1.265-.633-7.62-1.774zM27.056 425.339l8.191 1.913.617-.309-.108.325 11.631 2.714.169-.092 11.986 2.807-.371.185 12.048 2.823 1.265-.633-12.047-2.822-.309.153-11.985-2.806.154-.077-12.001-2.808.2-.093-9.24-2.159zM32.301 440.934l-4.258-1.002-.586.293 4.751 1.11zM25.514 441.212l6.386 1.48.092-.401-5.892-1.372zM26.1 429.427l3.285.771 1.265-.633-4.35-1.017zM31.36 445.037l-6.427-1.498-.037.422 6.371 1.493.093-.417zM31.035 446.395l-6.227-1.454-.037.416 6.172 1.439.092-.401zM36.821 453.29l-12.048-2.823-.09.045a55.031 55.031 0 003.453 1.672l7.419 1.738 1.266-.632zM31.575 444.065l.093-.401-6.613-1.544-.036.42 6.556 1.525zM27.426 431.186l1.265-.633-2.715-.633-.031.137-.049.771 1.53.358zM25.865 431.308l-.044.676.926-.475-.882-.201zM48.79 358.455l-4.96-1.162c-.098.12-.194.242-.291.363l4.665 1.092.586-.293zM50.734 357.483l-5.888-1.379c-.105.119-.212.236-.316.356l5.619 1.315.585-.292zM52.693 356.511l-6.763-1.583c-.112.117-.224.233-.335.352l6.512 1.525.586-.294zM44.888 360.429l-2.923-.685-.26.37 2.597.608.586-.293zM45.165 360.306l-.061.03.046.016zM53.078 365.735l-.755-.169-.926.463 1.527.354zM46.261 359.735l.586-.293-3.977-.932c-.092.121-.182.244-.272.366l3.663.859zM52.74 367.108l-2.376-.555-.926.463 3.147.74zM54.606 346.731l-.384-.09c-.203.181-.402.36-.599.539l.058.014.925-.463zM47.494 367.988l4.783 1.126.154-.648-4.011-.941zM56.596 354.537l-8.413-1.97c-.122.131-.224.243-.325.354l8.151 1.909.587-.293zM56.565 345.76l-1.046-.244c-.21.178-.419.355-.625.533l.745.174.926-.463zM58.508 344.772l-1.629-.38c-.218.175-.438.349-.653.526l1.357.316.925-.462zM54.637 355.524l-7.538-1.765c-.12.114-.236.232-.354.348l7.305 1.71.587-.293zM60.359 343.824l-.025-.085-2.012-.469a38.23 38.23 0 00-.681.52l1.901.443.817-.409zM51.782 445.438l12.032 2.822.17-.077 8.098 1.896.043-.42-7.555-1.77.185-.093-12.047-2.822-.926.464zM36.619 435.412l-2.59-.601-.155.647 1.821.416zM72.481 446.859l-4.024-.943.186-.092-11.97-2.792.2-.108-12.047-2.823-.309.154-2.314-.539-.092.4 1.835.433-.37.185 12.047 2.823.14-.077 11.97 2.792.17-.077 4.52 1.06.058-.396zM70.941 424.846l-9.132-2.129.185-.093-12.001-2.808.201-.091-12.032-2.809-1.264.633 12.031 2.807.139-.077 12.001 2.808.17-.093 9.61 2.252zM60.19 458.812l-.432.217 3.604.839c.49.033.965.064 1.414.09l.148-.651-3.887-.91-.263.123-11.939-2.792-.586.293 11.941 2.791zM65.619 456.066l.046.016.016-.047zM52.153 454.046l11.939 2.792-.432.216 1.712.385.201-.879-.632-.139-.263.123-11.938-2.791zM35.617 427.992l-.154.647 9.979 2.33.17-.093 11.985 2.808-.37.185 12.048 2.823.139-.077 3.539.83.002-.192-3.264-.762.849-.432-12.048-2.823-.308.154-11.986-2.807.17-.077-10.751-2.514zM59.681 370.718l1.496.339.093-.401-1.003-.231zM59.85 423.704l.185-.077-12.001-2.808.201-.092-12.032-2.807-1.264.632 12.031 2.807.139-.077 12.001 2.808.17-.093 11.245 2.622.092-.401zM42.466 432.45l-7.481-1.743-.155.647 6.71 1.559zM38.564 434.425l-4.227-.987-.154.647 3.455.803zM33.55 436.815l.186.046.924-.462-.956-.231zM40.523 433.453l-5.863-1.373-.154.648 5.091 1.187zM68.103 454.909l.586-.293-11.924-2.792.185-.093-12.046-2.822-.926.463 12.031 2.822.17-.077zM43.392 434.671l8.36 1.975-.37.186 12.047 2.822.139-.077 9.335 2.178.005-.677-8.415-1.963.2-.108-12.047-2.823-.309.154-8.854-2.066-.091.399zM43.068 436.044l6.726 1.589-.37.186 12.047 2.822.139-.077 11.283 2.632.004-.678-10.362-2.417.2-.107-12.047-2.823-.309.154-7.219-1.681-.092.4zM72.701 445.492l-2.285-.532.186-.093-11.97-2.792.2-.107-12.047-2.823-.309.154-3.949-.926-.093.401 3.455.802-.37.186 12.048 2.823.139-.063 11.97 2.792.17-.077 2.788.65.067-.395zM54.266 435.365l-10.474-2.452-.092.4 9.979 2.36-.37.186 12.047 2.822.14-.077 7.42 1.73.007-.677-6.502-1.517.201-.107-12.048-2.823-.308.155zM42.743 437.401l5.091 1.219-.37.186 12.047 2.822.139-.077 11.969 2.792.926-.463-11.97-2.792.201-.108-12.047-2.823-.309.155-5.584-1.311zM73.194 416.979l.83-.416-.013-.073-.848-.205-.154.647.185.047zM73.332 415.574l.533.122-.129-.712-.249-.058-.155.648zM44.071 378.6l11.985 2.808-.37.185 12.047 2.823 1.265-.632-12.048-2.824-.309.154-11.985-2.808.17-.093-10.905-2.551-.229.641 10.208 2.388.171-.091zM65.111 385.742l-12.048-2.823-.309.154-11.985-2.808.17-.092-7.936-1.856c-.071.215-.139.431-.208.646l7.218 1.688.17-.093 11.985 2.808-.37.185 12.047 2.823 1.266-.632zM42.112 379.572l11.985 2.807-.37.185 12.047 2.823 1.265-.632-12.047-2.823-.309.154-11.985-2.808.17-.092-9.414-2.202c-.074.214-.146.429-.218.644l8.706 2.037.17-.093zM43.299 387.84l-.309.154-10.473-2.452-.093.401 9.981 2.344-.371.186 12.047 2.822.139-.062 11.97 2.792.925-.462-11.969-2.792.2-.108zM27.596 423.087l-.2.879 9.811 2.299.139-.077 12.001 2.808.169-.093 11.986 2.808-.371.185 11.865 2.78.015-.926-10.615-2.486-.309.154-11.985-2.808.169-.077-12.001-2.808.201-.093-10.875-2.545zM31.021 420.511l12.031 2.808.139-.077 11.985 2.808.17-.093 11.985 2.808-.37.185 6.103 1.43.013-.925-4.851-1.137-.308.154-11.986-2.808.17-.093-12.001-2.808.201-.092-12.032-2.808-.293.154-5.482-1.282-.014.424 4.925 1.151-.385.201zM73.056 430.875l-6.774-1.587-.309.154-11.985-2.808.17-.093-12.001-2.808.2-.092-12.031-2.808-.293.154-3.589-.838-.016.438 3.034.708-.386.2 12.032 2.808.139-.077 12.001 2.808.17-.093 11.985 2.808-.37.185 8.008 1.869.015-.928z"/><path d="M33.55 392.73l-.309.154-2.313-.54-.093.401 1.836.432-.37.185 12.047 2.823.139-.062 11.97 2.792.17-.078 11.924 2.793.047-.016 2.975.696-.14-.882h6.928l.864-1.142h-7.97l-.008-.048-.244.125-11.878-2.776.186-.093-11.971-2.792.201-.108-12.048-2.823-.309.154-3.948-.926-.093.401 3.455.802-.37.185 12.047 2.823.14-.077 11.97 2.792.17-.076 11.924 2.791.046-.016.81.189.08.516-1.63-.381-.726.371-11.877-2.777.185-.092-11.97-2.792.2-.108-12.047-2.82zM71.898 420.758l-4.258-1.003-.586.293 4.751 1.111zM71.573 422.115l-5.892-1.373-.586.293 6.386 1.496zM72.206 419.4l-2.623-.617-.586.293 3.117.725zM62.92 419.215l.154-.648-7.281-1.696-.926.462zM72.545 418.027l-1.003-.231-.586.293 1.496.354zM38.81 416.577l12.032 2.808.139-.077 11.291 2.637.154-.647-10.504-2.453.185-.093-12.032-2.807zM40.784 415.605l12.033 2.808.138-.077 9.657 2.252.154-.649-8.885-2.082.2-.076-12.032-2.808zM63.398 417.21l-5.646-1.327-.925.463 6.416 1.511zM66.082 407.291l-.201.879 4.921 1.158 1.266-.633zM62.442 351.59l-10.819-2.533-.357.347 10.59 2.479.586-.293zM66.604 364.254l-3.438-.801-.153.648 3.755.872c-.053-.24-.108-.48-.164-.719z"/><path d="M67.841 401.954l-.556.278-.108.493 4.633 1.08.007.046h4.723l.864-1.142h-5.771l.021.134-3.813-.889zM62.455 350.597l-.147-.465-9.482-2.22c-.125.116-.243.229-.365.345l9.994 2.34zM59.881 342.204l-.068-.016c-.24.166-.478.34-.716.512l.999.233c-.072-.243-.145-.488-.215-.729zM71.265 423.488l-7.527-1.759-.586.293 8.02 1.867zM36.605 400.025l12.031 2.824.17-.078 11.924 2.792.586-.292-11.924-2.792.185-.092-12.047-2.824zM63.876 415.127l.155-.648-2.375-.555-.926.463zM34.646 401.014l12.031 2.822.17-.077 11.924 2.792.586-.293-11.924-2.792.185-.093-12.047-2.822zM41.433 397.604l-.926.462 12.031 2.824.17-.077 11.924 2.791.586-.292-11.924-2.792.186-.092zM38.548 399.055l12.031 2.822.17-.077 11.924 2.792.586-.293-11.924-2.792.186-.093-12.047-2.822zM64.355 413.106l-.756-.168-.926.462 1.527.354zM65.573 409.543l3.286.771 1.264-.632-4.349-1.018zM65.249 410.9l1.651.387 1.264-.633-2.715-.633zM64.925 412.289l1.296-.663-1.08-.247zM66.53 405.455l5.778 1.351-.089-.532h2.487l.863-1.142h-3.54l-.128-.782-4.831-1.131-.201.879 5.189 1.216.088.528-5.416-1.266-.2.879zM58.771 415.359l4.781 1.125.154-.647-4.01-.941zM54.39 416.408l-10.412-2.437-1.265.633 11.476 2.683zM64.062 359.673l-.108.324 1.66.388c-.068-.244-.139-.487-.21-.73l-.91-.213.2-.092-9.239-2.16-.201.879 8.191 1.913.617-.309zM286.387 421.005l-.293-.155-12.032 2.808.2.093-12.001 2.808.17.093-11.985 2.808-.309-.154-8.117 1.901c.009.309.018.617.025.923l9.356-2.192-.37-.185 11.985-2.808.17.093 12.001-2.808.139.077 11.446-2.669-.063-.293.031.016 1.603-.376-.028-.431-1.928.451zM286.201 412.289l.926.463.669-.156-.043-.669-1.552.362zM284.242 411.317l.926.463 2.536-.592-.044-.671-3.418.8zM282.947 410.639l.278.139 4.385-1.022-.013-.201-4.65 1.084zM287.08 448.153l-.37-.186 3.325-.778-.027-.425-3.884.91-.309-.154-12.047 2.823 1.265.632 12.047-2.822zM287.254 403.991c-.013-.239-.023-.48-.038-.719l-.953.224.991.495zM289.04 449.141l-.371-.186 1.456-.341-.027-.424-2.015.472-.309-.154-12.047 2.823 1.265.632 12.048-2.822zM290.23 450.305l-.043-.693-.161.038-.308-.154-12.048 2.823 1.265.632 11.295-2.646zM288.425 422.209l-.015-.225-.295.069.31.156zM279.707 373.448l-12.001 2.807.17.093-12.017 2.807.34.17-9.977 2.333.166-.868h-4.875l.17-.247h-13.497l-1.188 1.573h13.497l.139-.185h5.521l-.038.197 10.713-2.511-.37-.185 11.985-2.807.17.092 11.72-2.741c-.108-.25-.222-.491-.333-.738l-.497.117.202.093zM275.481 380.174l.17.092-11.985 2.808-.309-.154-12.047 2.823 1.265.632 12.047-2.823-.37-.185 11.985-2.808.17.093 6.002-1.407c-.076-.215-.157-.423-.235-.637l-6.693 1.566z"/><path d="M277.564 372.353l.2.092-12.001 2.808.17.093-10.767 2.514.092.401 11.245-2.622.17.092 12.001-2.807.139.077.981-.23c-.128-.282-.252-.57-.382-.849l-1.848.431zM285.137 447.166l-.37-.186 5.178-1.213-.026-.409-5.753 1.345.34.17-12.032 2.807.617.309 12.046-2.823zM275.605 371.396l.2.093-12.001 2.807.17.093-9.132 2.129.093.401 9.609-2.252.17.092 12.001-2.807.139.077 2.348-.547c-.133-.281-.271-.553-.406-.83l-3.191.744zM281.358 383.135l.17.093-11.985 2.807-.309-.154-12.047 2.823.2.108-11.97 2.792.926.463 11.97-2.792.139.062 12.047-2.823-.37-.185 11.615-2.715-.077-.308.602.308 1.443-.339c-.064-.215-.128-.431-.193-.644l-2.161.504zM277.44 381.161l.17.093-11.985 2.808-.309-.154-12.047 2.823 1.265.632 12.047-2.823-.37-.185 11.985-2.808.17.093 4.494-1.058-.215-.64-5.205 1.219zM283.286 401.8l-.447-.231-12.048 2.823.186.093-11.878 2.775-.293-.139-.632.139.2.88 1.682-.401-.401-.2 11.878-2.776.169.077 11.77-2.746.154.077 3.454-.806c-.012-.148-.026-.295-.039-.442l-3.755.877zM284.084 384.521c-.052-.185-.11-.363-.163-.547l-.635.148.798.399zM273.63 370.409l.2.093-10.505 2.453.154.648 11.292-2.638.139.077 3.658-.853c-.139-.278-.274-.562-.415-.836l-4.523 1.056zM284.304 402.51l1.266.633 1.62-.378c-.021-.306-.045-.607-.068-.911l-2.818.656zM275.388 388.966l-.308-.154-12.048 2.823.202.108-11.971 2.792.926.463 11.969-2.792.14.077 12.047-2.824-.37-.185 6.725-1.588-.092-.401zM279.26 390.94l-.309-.154-12.047 2.823.2.108-11.97 2.792.185.093-11.877 2.776-.363-.186a98 98 0 00-.112.688l.954-.224.046.016 11.924-2.793.17.078 11.97-2.792.139.062 12.047-2.823-.37-.185 3.456-.802-.093-.401-3.95.924zM277.332 389.953l-.308-.154-12.048 2.823.201.108-11.97 2.792.925.462 11.971-2.792.138.078 12.047-2.823-.37-.185 5.09-1.219-.092-.401z"/><path d="M281.219 391.928l-.309-.154-12.047 2.823.2.108-11.97 2.792.186.093-11.878 2.776-.725-.37-1.775.414a.67.67 0 01.007-.044h-2.721l.154-.216h-13.467l.186-.247h-12.186v1.574h10.998l.139-.186h13.466l.154-.216h3.143l-.051.318 3.141-.735.046.016 11.924-2.792.17.077 11.97-2.792.139.062 12.048-2.823-.37-.185 1.835-.432-.093-.401-2.314.54zM260.611 363.051l-1.08.247 1.295.663zM250.121 412.15l.155.649 1.527-.356-.926-.463zM242.122 438.535v.678l6.843-1.596.139.077 12.047-2.822-.37-.186 9.98-2.36-.093-.4-10.474 2.452-.309-.154-12.047 2.823.2.108-5.916 1.38zM284.011 393.316l-.139-.571-.678.154-.309-.154-12.047 2.823.2.108-11.969 2.793.184.092-11.924 2.792.587.293 11.924-2.792.169.077 11.971-2.792.138.077 12.032-2.823zM271.64 436.014l-5.584 1.311-.309-.154-12.047 2.823.2.107-11.806 2.754-.001.119.764.382 11.97-2.792.139.077 12.048-2.822-.371-.186 5.091-1.219-.094-.4zM244.353 408.711l1.264.632 3.287-.771-.202-.88zM264.097 436.337l-.309-.154-12.047 2.823.2.108-9.831 2.293-.007.68 10.763-2.511.139.077 12.047-2.822-.37-.186 6.726-1.589-.093-.4-7.218 1.681zM256.823 459.507c.196-.029.395-.062.592-.092l-.06-.032-.532.124zM262.154 435.35l-.309-.154-12.047 2.823.2.108-7.878 1.838-.003.678 8.807-2.054.139.077 12.047-2.822-.37-.186 8.36-1.974-.092-.401-8.854 2.067zM268.216 456.035l-.587-.293-11.954 2.792-.263-.123-5.522 1.296.095.415c.85-.015 1.732-.058 2.651-.131l4.057-.948-.432-.216 11.955-2.792zM271.547 448.939l-12.047 2.824.186.092-11.924 2.792.586.293 11.924-2.792.17.078 12.031-2.824zM258.05 406.768l.047-.016-.063-.031zM264.946 410.191l-.293-.138-5.523 1.295.2.88 6.603-1.542-.402-.202 12.017-2.807-.586-.293zM248.394 406.319l-5.985 1.404 1.265.632 4.921-1.156zM262.987 409.204l-.293-.139-3.888.911.201.878 4.967-1.157-.401-.2 12.016-2.808-.586-.293zM257.587 362.327l1.266.632 1.65-.386-.201-.879zM251.699 353.601l-.218.979 5.736-1.338-1.265-.633-4.253.992zM280.293 433.129l-.153-.649-4.227.988.925.463zM253.963 351.59l.586.293 9.314-2.181-.344-.351-9.556 2.239zM257.896 353.611l-6.537 1.525-.213.978 7.429-1.732-.123-.494-.556-.277zM279.986 431.756l-.155-.648-5.862 1.372.926.463zM280.617 434.502l-.154-.648-2.591.601.925.463zM280.926 435.859l-.154-.648-.956.231.925.463zM251.741 359.365l1.265.632 6.556-1.527-.2-.879zM253.685 360.352l1.264.632 4.921-1.156-.2-.88zM279.646 430.414l-.155-.648-7.481 1.743.926.463zM259.007 356.233l-8.302 1.94-.132.63.444.222 8.19-1.913-.2-.879zM244.893 417.812l-2.623.616.093.402 3.116-.726zM254.611 341.927l.211-.049-.165-.113c-.016.052-.031.109-.046.162zM279.63 453.29l.894.446a266.357 266.357 0 007.205-2.344l-8.099 1.898zM248.795 455.079l.016.046.046-.015zM271.687 369.407l.2.092-8.885 2.083.154.648 9.656-2.252.139.077 4.957-1.163a59.36 59.36 0 00-.442-.833l-5.779 1.348zM252.768 349.013l.145-.6h-.277l-.216.293h-13.173l.169-.216h-13.42l.186-.247h-13.513l-.293.386h-.771v1.018l-.139.169h13.513l.123-.169h13.42l.154-.201h13.358l.046-.077v.617h.456l.124-.518 8.842-2.07-.369-.344-8.365 1.959zM252.406 350.512l-.06.255.258.129 10.087-2.362-.359-.347-9.926 2.325zM254.935 343.292l1.376-.321a46.77 46.77 0 00-.688-.518l-1.242.29-.067.239.621.31zM272.72 440.688l-.139-.571-.679.154-.309-.154-12.048 2.823.201.107-11.971 2.792.186.093-5.692 1.334.054.418 6.224-1.459.17.077 11.97-2.792.124.077 12.047-2.822-.138-.077zM269.542 456.714l-10.207 2.384c3.401-.599 6.954-1.405 10.396-2.289l-.189-.095zM279.183 428.362l-9.116 2.129.17.093-11.985 2.807-.309-.154-12.048 2.823.201.108-3.978.928.003.678 4.901-1.144.139.077 12.047-2.822-.37-.186 11.631-2.745-.077-.309.602.309 8.345-1.944-.156-.648zM264.297 418.768l.201.092-12.001 2.808.185.093-9.131 2.128.092.401 9.61-2.252.17.093 12.001-2.808.139.077 12.031-2.807-1.265-.632zM252.112 365.875l-.154-.648-2.815.658-.139.711 3.108-.721zM267.999 438.312l-.309-.154-12.047 2.823.201.107-11.971 2.792.186.093-2 .466c.002.136.005.271.01.408l2.561-.597.17.077 11.97-2.792.139.063 12.048-2.823-.37-.186 3.455-.802-.093-.401-3.95.926zM266.889 411.179l-.293-.14-7.157 1.666.2.88 8.237-1.913-.401-.2 12.016-2.808-.585-.293zM251.402 417.596l.154.647 8.053-1.882-.926-.463zM271.547 360.445l.587.293.744-.174c-.087-.125-.174-.246-.262-.37l-1.069.251zM251.696 447.829l.185.093-9.259 2.168.044.42 9.801-2.295.17.077 12.032-2.823-.926-.463-12.047 2.823zM253.639 448.801l.185.093-11.067 2.591.034.423 11.62-2.721.169.077 12.032-2.823-.926-.462-12.047 2.822zM262.354 417.781l.185.092-10.505 2.453.155.648 11.291-2.638.138.077 12.033-2.808-1.265-.632zM277.964 425.647l.201.093-12.001 2.808.154.077-11.985 2.807-.309-.154-11.939 2.798.001.08 1.156.578 12.047-2.823-.37-.185 11.985-2.808.17.093 11.631-2.715-.108-.324.617.309 8.19-1.913-.2-.879-9.24 2.158zM248.255 410.67l1.296.663-.216-.91zM282.206 418.891l-12.031 2.808.2.093-12.001 2.808.17.093-11.985 2.808-.309-.154-4.335 1.016c.014.306.026.612.039.919l5.561-1.303-.37-.185 11.985-2.808.17.093 12.001-2.808.139.077 12.031-2.808-.386-.201 5.075-1.187-.028-.423-5.633 1.316-.293-.154zM251.787 364.501l-.154-.648-2.193.514-.142.715 2.489-.581zM262.971 400.458l.185.093-11.923 2.791.586.294 11.923-2.792.17.077 12.032-2.823-.926-.463zM248.271 405.857l-.2-.88-6.121 1.425-.143.96 6.464-1.505zM268.2 420.727l.2.093-12.001 2.808.17.093-12.017 2.807.34.17-3.024.707.022.441 3.649-.855-.37-.185 11.985-2.808.17.093 12.001-2.808.139.077 12.032-2.808-1.266-.632-12.03 2.807zM264.914 401.43l.186.092-11.924 2.792.586.293 11.924-2.792.17.078 12.031-2.823-.925-.463zM268.818 412.15l-.279-.138-8.776 2.051.2.879 9.842-2.297-.401-.202 12.016-2.807-.587-.293zM279.384 382.148l.169.093-11.985 2.807-.309-.154-12.047 2.823.849.432-11.535 2.69.064-.361h-10.403l.185-.247h-13.497l-1.188 1.573h13.497l.139-.185h11.064c.033-.189.066-.377.101-.568l11.85-2.764.139.062 12.047-2.823-.37-.185 11.986-2.808.169.093 2.997-.705c-.069-.216-.142-.427-.211-.642l-3.711.869zM262.015 408.727l-.401-.202 12.001-2.807-.586-.293-12.001 2.807-.293-.138-2.252.524.2.879zM246.014 382.67l-.069.359.798.399 12.047-2.823-.37-.185 11.986-2.808.169.093 10.31-2.412c-.087-.211-.172-.424-.261-.633l-10.974 2.567.169.092-11.985 2.808-.309-.154-11.511 2.697zM252.559 368.635l.185-.046-.154-.648-.957.232zM270.931 366.214l4.861-1.131c-.165-.276-.333-.54-.499-.811l-4.563 1.062.201.88zM271.239 367.571l5.276-1.232c-.156-.273-.31-.549-.468-.818l-5.009 1.171.201.879zM271.563 368.944l5.67-1.326a79.483 79.483 0 00-.456-.82l-5.415 1.268.201.878zM273.723 379.279l-11.986 2.808-.308-.154-12.048 2.823 1.265.632 12.048-2.823-.37-.185 11.985-2.807.17.092 7.44-1.741c-.08-.213-.158-.427-.239-.639l-8.127 1.901.17.093zM250.23 394.01l11.969-2.792.139.077 12.048-2.822-.37-.186 8.345-1.974-.093-.401-8.839 2.067-.308-.154-12.048 2.822.202.108-11.971 2.792zM269.774 403.867l12.031-2.823-.925-.462-12.048 2.822.186.092-11.924 2.793.586.293 11.924-2.792zM247.345 392.576l.926.462 11.969-2.791.139.061 12.048-2.823-.37-.185 9.979-2.344-.091-.402-10.475 2.453-.309-.154-12.046 2.823.201.108zM249.674 367.186l.926.462 1.82-.416-.154-.648zM270.498 412.998l-10.412 2.438.201.878 11.477-2.683zM257.865 353.58l.586.293 7.662-1.794-.325-.354-7.923 1.855zM255.968 343.801l.926.463.812-.189a56.745 56.745 0 00-.654-.526l-1.084.252zM242.594 419.801l.093.401 4.751-1.11-.586-.293zM251.726 418.953l.154.648 9.656-2.252.139.077 12.032-2.808-1.264-.632-12.033 2.807.201.078zM242.51 449.1l7.997-1.872.17.077 12.032-2.823-.926-.463-12.048 2.823.186.093-7.464 1.748c.018.138.037.28.053.417zM267.383 420.311l.139.077 12.031-2.808-1.265-.633-12.031 2.808.2.093-12.001 2.807.186.077-10.768 2.514.093.401 11.245-2.622.17.093zM272.273 438.759l-2.314.54-.308-.154-12.048 2.823.186.092-11.971 2.792.186.093-3.876.908c.011.144.023.282.036.419l4.411-1.034.17.077 11.971-2.792.139.077 12.047-2.822-.37-.186 1.836-.432-.095-.401zM242.113 436.331l2.949-.688.14.076 12.047-2.822-.37-.186 11.985-2.807.17.092 9.979-2.329-.154-.647-10.751 2.514.17.063-11.985 2.807-.309-.153-12.048 2.822.849.432-2.673.624.001.202zM270.175 359.766l1.833-.43c-.09-.125-.18-.244-.271-.368l-2.149.504.587.294zM279.923 426.635l1.266.633 6.555-1.528-.201-.88zM269.588 447.952l-12.047 2.823.186.093-11.924 2.792.586.293 11.924-2.792.17.077 12.031-2.823zM287.034 430.214l1.651-.386-.2-.88-2.715.633zM283.826 428.594l1.265.633 3.285-.772-.2-.88zM281.867 427.622l1.265.632 4.921-1.156-.201-.88zM249.567 455.465l-.633.139.2.878 1.713-.385-.433-.216 11.94-2.792-.586-.293-11.94 2.792zM251.757 456.575l-.263-.123-2.252.525.201.878 3.332-.771-.432-.216 11.939-2.792-.586-.293zM284.135 419.879l-12.032 2.807.2.093-12.001 2.808.17.093-11.985 2.807-.309-.154-6.204 1.454.031.922 7.438-1.743-.37-.185 11.985-2.808.17.093 12.001-2.808.139.077 12.032-2.808-.386-.2 3.238-.756-.027-.424-3.797.887-.293-.155zM265.655 454.755l-11.939 2.792-.263-.123-3.886.91.2.879 4.967-1.157-.432-.216 11.939-2.792zM267.645 446.965l-12.047 2.823.184.093-11.923 2.792.587.293 11.923-2.792.169.077 12.033-2.823zM282.901 443.109l6.774-1.577-.027-.423-6.84 1.599.093.401zM283.24 444.467l6.525-1.529-.027-.424-6.59 1.536.092.417zM283.548 445.824l6.307-1.471a55.42 55.42 0 01-.026-.419l-6.372 1.488.091.402zM242.057 432.64c.007.311.014.618.019.924l11.27-2.641-.37-.185 11.985-2.808.169.093 12.001-2.808.14.077 9.81-2.299-.2-.879-10.875 2.545.201.093-12.001 2.808.169.077-11.985 2.807-.309-.153-10.024 2.349zM285.06 438.281l-.586-.294-2.622.617.093.402zM287.019 439.269l-.586-.294-4.257 1.003.092.401zM288.978 440.255l-.586-.293-5.893 1.373.093.401zM287.729 430.553l1.281.655-.005-.078-.195-.824-1.081.247zM281.528 437.247l.092.401 1.496-.339-.585-.293zM258.41 344.656l-.499.116.926.463.201-.047a61.197 61.197 0 00-.628-.532zM249.86 402.648l11.923-2.792.17.078 12.032-2.823-.926-.463-12.047 2.823.186.092-11.924 2.792zM249.227 409.944l-.2-.879-2.715.632 1.264.633zM267.815 402.88l12.031-2.823-.925-.463-12.048 2.823.186.093-11.924 2.791.586.294 11.924-2.792zM256.754 370.718l-.586-.293-2.622.617.093.416zM254.811 369.762l-.586-.294-1.003.232.093.401zM258.714 371.721l-.587-.294-4.257 1.003.092.401zM262.616 373.695l-.585-.293-7.529 1.758.093.402zM261.722 366.137l.154.647 3.147-.74-.926-.463zM260.41 354.845l6.757-1.583c-.104-.118-.208-.24-.312-.357l-7.032 1.646.587.294zM271.764 378.307l-11.986 2.808-.309-.154-12.047 2.823 1.265.632 12.048-2.823-.37-.185 11.985-2.808.17.093 8.907-2.084c-.084-.215-.175-.42-.261-.633l-9.572 2.239.17.092zM241.947 417.056l.092.417 1.496-.356-.587-.293zM242.903 421.144l.092.416 6.386-1.497-.586-.292zM255.705 414.387l-.924-.463-4.011.941.154.649zM251.34 421.066l-.586-.293-7.527 1.758.093.402zM253.746 413.415l-.924-.462-2.376.555.154.648zM266.982 367.016l-.926-.463-4.011.941.154.648zM257.65 415.374l-.926-.462-5.646 1.326.155.648zM240.799 414.683l.345-.079-.154-.648-.101.023-.09.704zM255.644 361.339l1.264.633 3.287-.771-.201-.88zM260.673 372.708l-.587-.293-5.892 1.373.092.4zM270.607 364.841l4.402-1.031c-.131-.21-.259-.428-.391-.635l-.114-.175-4.097.961.2.88zM270.282 363.483l3.937-.919c-.176-.27-.351-.541-.528-.805l-3.609.845.2.879zM269.449 359.874l.202.879 1.696-.385-1.265-.633zM255.937 352.593l.587.293 8.493-1.989-.336-.352-8.744 2.048zM269.758 361.231l.2.879 3.317-.771-1.265-.632zM264.313 356.82l4.889-1.145-.295-.362-5.179 1.213.585.294zM268.231 358.779l2.871-.672c-.093-.124-.186-.243-.279-.366l-3.178.745.586.293zM262.354 355.833l5.846-1.369-.304-.359-6.128 1.435.586.293zM266.257 357.807l3.913-.916-.287-.363-4.212.986.586.293zM261.398 364.764l.154.648 1.527-.355-.925-.463zM269.311 359.35l.015.046.046-.016zM251.029 356.656l-.209.977 8.079-1.893-.2-.879-7.67 1.795zM250.054 361.31l-.146.717 1.231-.287-.154-.648-.931.218zM250.364 359.808c-.05.24-.1.48-.148.719l.616-.144-.154-.648-.314.073zM249.597 363.578l1.867-.434-.154-.648-1.569.366-.144.716zM270.884 368.99l-.926-.463-7.28 1.697.154.648zM252.341 350.795l-.009.04h-.251v1.111l.091-.397 1.144-.267-.975-.487zM268.015 367.54l-5.646 1.327.155.648 6.417-1.512zM252.04 352.092l-.223.979 3.44-.803-1.265-.632-1.952.456z"/></svg>