<svg xmlns="http://www.w3.org/2000/svg" xmlns:xlink="http://www.w3.org/1999/xlink" width="80" height="80" viewBox="280.996 153.383 80 80"><defs><path id="prefix__a" d="M280.996 153.383h80v80h-80z"/></defs><clipPath id="prefix__b"><use xlink:href="#prefix__a" overflow="visible"/></clipPath><g clip-path="url(#prefix__b)"><path d="M289.113 217.007l.077-.077h6.201l.262-.262h-6.201l.077-.077h-6.277l-.401.416h6.262zm-.865.879l.077-.077h6.201l.263-.262h-6.201l.077-.077h-6.278l-.401.417h6.262zm-.848.88l.077-.077h6.201l.263-.262h-6.201l.077-.077h-6.278l-.4.417h6.261v-.001zm-.848.879l.077-.077h6.201l.262-.262h-6.201l.077-.077h-6.278l-.4.417h6.262zm-.849.879l.077-.077h6.201l.262-.262h-6.201l.077-.077h-6.277l-.401.417h6.262v-.001zm3.44-22.876l.263-.262h.524v.262h-.787zm-.848.864l.262-.262h1.373v.262h-1.635zm-.848.88l.262-.263h2.222v.263h-2.484zm-.849.879l.263-.262h3.069v.262h-3.332zm-.849.879l.263-.262h3.918v.262h-4.181zm-8.299 9.625v-.262h5.461l.139-.139h6.278l-.093.093h6.232l-.401.417h-6.232l-.062.062h-6.277l.169-.169h-5.214zm0 .879v-.262h4.612l.139-.139h6.278l-.093.093h6.232l-.401.417h-6.231l-.062.062h-6.278l.169-.17h-4.365zm0 .88v-.262h3.764l.14-.139h6.277l-.092.092h6.231l-.401.417h-6.231l-.062.062h-6.278l.17-.17h-3.518zm0 .863v-.262h2.9l.139-.139h6.278l-.093.092h6.231l-.4.417h-6.232l-.062.062h-6.278l.17-.17h-2.653zm7.066-17.43l.4-.417h.386v.417h-.786zm-.849.879l.401-.417h1.233v.417h-1.634zm-.848.88l.401-.417h2.082v.417h-2.483zm-.849.863l.401-.417h2.946v.417h-3.347zm-.848.88l.4-.417h3.795v.417h-4.195zm-.37-6.063l.03-.031v.031h-.03zm-.848.88l.556-.571h.323v.571h-.879zm-.849.879l.556-.571h1.172v.571h-1.728zm-.849.864l.556-.571h2.021v.571h-2.577zm-.847.879l.555-.571h2.869v.571h-3.424zm-.849.879l.555-.571h3.718v.571h-4.273zm-.864.88l.556-.571h4.581v.571h-5.137zm-.848.863l.555-.571h5.43v.571h-5.985zm-.849.88l.555-.571h6.263l-.092.092h4.627v.417h-5.028l-.062.062h-6.263zm9.718 15.795l.062-.062h6.232l.077-.077h6.2l.263-.263H290.3l.077-.077h-6.231l.092-.092h-6.277l-.14.139h-.354v.371l-.062.062h6.262zm22.629-16.906l.077-.077h6.201l.262-.262h-6.2l.077-.077h-6.278l-.401.417h6.262zm-.848.879l.077-.077h6.201l.263-.262h-6.201l.077-.077h-6.278l-.401.417h6.262zm-.848.879l.077-.077h6.2l.263-.263h-6.201l.077-.077h-6.278l-.4.417h6.262zm-.849.88l.077-.077h6.201l.262-.262h-6.201l.077-.077h-6.278l-.4.417h6.262zm-.848.863l.077-.077h6.201l.262-.262h-6.2l.076-.077h-6.277l-.401.417h6.262zm-4.952-27.102l.03-.031v.031h-.03zm-.864.879l.556-.57h.323v.57h-.879zm-.848.864l.556-.571h1.172v.571h-1.728zm-.848.879l.555-.571h2.021v.571h-2.576zm-.849.88l.555-.571h2.869v.571h-3.424zm-.848.879l.556-.571h3.717v.571h-4.273zm-.849.879l.556-.571h4.581v.571h-5.137zm-.848.864l.555-.571h5.43v.571h-5.985zm-6.494 9.641v-.571h3.964l-.556.571h-3.408zm0 .864v-.571h3.115l-.555.571h-2.56zm0 .879v-.571h2.268l-.556.571h-1.712zm0 .879v-.571h1.419l-.556.571h-.863zm0 .894v-.586h.57l-.57.586zm16.212-16.72l.4-.417h.386v.417h-.786zm-.849.879l.401-.416h1.233v.416h-1.634zm-.864.879l.401-.417h2.083v.417h-2.484zm-.847.864l.4-.417h2.946v.417h-3.346zm-.849.879l.401-.417h3.794v.417h-4.195zm-.432.463h4.627v.417h-5.028l-.062.062h-6.263l.555-.571h6.263l-.092.092zm-.848.879h5.476v.417h-5.877l-.062.062H290.3l.556-.571h6.263l-.093.092zm-6.988 10.042v-.417h3.902l-.401.417h-3.501zm0 .879v-.417h3.054l-.401.417h-2.653zm0 .879v-.416h2.205l-.4.416h-1.805zm0 .865v-.417h1.357l-.401.417h-.956zm0 .879v-.417h.493l-.401.417h-.092zm16.304-16.706l.263-.262h.524v.262h-.787zm-.848.864l.262-.262h1.373v.262h-1.635zm-.848.879l.262-.262h2.222v.262h-2.484zm-.865.88l.263-.262h3.069v.262h-3.332zm-.847.878l.262-.262h3.918v.262h-4.18zm-.571.602h4.751v.263h-5.013l-.077.077h-6.248l-.062.062h-6.263l.556-.571h6.263l-.093.092h6.247l-.061.077zm-.849.879h5.6v.262h-5.861l-.077.077h-6.247l-.062.062h-6.263l.555-.57h6.263l-.093.092h6.248l-.063.077zm-.863.88h6.247l-.154.154h6.263l-.277.277h-6.278l.17-.169h-6.247l-.077.077h-6.248l-.062.062h-6.263l.556-.571h6.263l-.093.093h6.247l-.047.077zm-.849.879h6.247l.139-.139h6.278l-.555.571h-6.278l.17-.169h-6.248l-.077.077h-6.247l-.062.062h-6.263l.556-.571h6.263l-.093.093h6.247l-.077.076zm-.849.879h6.248l.139-.139h6.277l-.555.571h-6.278l.17-.17h-6.247l-.077.077h-6.248l-.062.062h-6.263l.556-.571h6.263l-.093.092h6.247l-.077.078zm-.847.864h6.247l.139-.139h6.278l-.556.571h-6.278l.17-.17h-6.247l-.077.077h-6.247l-.063.062h-5.954v-.324l.247-.247h6.263l-.093.092h6.248l-.077.078zm-.849.879h6.247l.139-.139h6.278l-.556.571h-6.277l.169-.17h-6.247l-.077.077h-6.247l-.062.062h-5.106v-.57h5.661l-.092.092h6.247l-.077.077zm-.849.88h6.247l.139-.139h6.278l-.555.571h-6.278l.17-.169h-6.248l-.077.077h-6.062l.016-.216-.263.278h-4.258v-.571h4.813l-.093.093h6.247l-.076.076zm-.848.879h6.248l.139-.139h6.277l-.37.386h6.232l-.124.124h-6.231l-.062.062h-6.278l.17-.169h-6.247l-.077.077h-5.198v-.417h5.599l-.078.076zm-.925 1.126v-.2l-.263.277h-4.35v-.416h4.751l-.077.077h6.247l.139-.139h6.278l-.093.093h6.232l-.401.417h-6.232l-.062.062h-6.277l.169-.17h-6.061zm0 .879v-.262h5.46l.139-.139h6.278l-.093.092h6.232l-.401.417h-6.231l-.062.062h-6.278l.169-.17h-5.213zm0 .879v-.262h4.611l.14-.139h6.277l-.092.093h6.231l-.401.417h-6.231l-.062.062h-6.278l.17-.169h-4.365zm0 .88v-.262h3.764l.139-.139h6.278l-.093.093h6.231l-.4.417h-6.232l-.062.062h-6.278l.17-.169h-3.517zm0 .863v-.262h2.899l.139-.139h6.278l-.093.093h6.232l-.401.417h-6.231l-.063.062h-6.277l.169-.169h-2.652zm0 2.746v-.37h.354l.139-.139h6.278l-.093.093h6.231l-.077.077h6.201l-.262.262h-6.201l-.077.077h-6.231l-.063.062h-6.277l.078-.062zm28.969-16.998l.077-.077h6.2l.263-.263h-6.201l.077-.077h-6.278l-.4.417h6.262zm-.849.878l.077-.077h6.201l.262-.262h-6.201l.077-.077h-6.277l-.401.417h6.262zm-.849.864l.077-.077h6.201l.262-.262h-6.2l.077-.077h-6.278l-.401.417h6.262zm-.848.88l.077-.077h6.201l.263-.262h-6.201l.077-.077h-6.278l-.401.417h6.262zm-.848.879l.077-.077h6.2l.263-.262h-6.201l.077-.077h-6.278l-.4.417h6.262zm-4.952-27.118l.031-.031v.031h-.031zm-.863.879l.555-.571h.324v.571h-.879zm-.849.88l.556-.571h1.172v.571h-1.728zm-.848.879l.556-.571h2.021v.571h-2.577zm-.849.879l.556-.57h2.869v.57h-3.425zm-.848.864l.555-.571h3.718v.571h-4.273zm-.848.879l.556-.571h4.581v.571h-5.137zm-.849.879l.556-.571h5.43v.571h-5.986zm-6.494 9.626v-.571h3.965l-.556.571h-3.409zm0 .879v-.57h3.116l-.556.57h-2.56zm0 .879v-.571h2.268l-.555.571h-1.713zm0 .88v-.571h1.419l-.555.571h-.864zm0 .879v-.586h.571l-.571.586zm16.212-16.706l.401-.417h.386v.417h-.787zm-.848.864l.4-.416h1.234v.416h-1.634zm-.864.879l.401-.417h2.082v.417h-2.483zm-.849.88l.401-.417h2.946v.417h-3.347zm-.847.878l.4-.416h3.795v.416h-4.195zm-.433.448h4.628v.417h-5.028l-.063.062h-6.263l.556-.571h6.263l-.093.092zm-.848.879h5.476v.417h-5.877l-.062.062h-6.263l.555-.571h6.263l-.092.092zm-6.988 10.058v-.417h3.902l-.4.417h-3.502zm0 .864v-.417h3.055l-.401.417h-2.654zm0 .878v-.416h2.206l-.401.416h-1.805zm0 .88v-.417h1.357l-.401.417h-.956zm0 .879v-.417h.494l-.401.417h-.093zm16.305-16.721l.263-.262h.524v.262h-.787zm-.849.879l.263-.262h1.373v.262h-1.636zm-.848.879l.262-.262h2.222v.262h-2.484zm-.864.865l.262-.262h3.07v.262h-3.332zm-.849.878l.263-.262h3.918v.262h-4.181zm-.57.618h4.751v.262h-5.014l-.077.077h-6.247l-.062.062h-6.263l.556-.571h6.263l-.093.093h6.247l-.061.077zm-5.106 5.259h6.248l.139-.139h6.278l-.556.571h-6.278l.17-.169h-6.247l-.077.077h-6.247l-.063.062h-5.105v-.571h5.661l-.093.093h6.247l-.077.076zm-.848.865h6.247l.139-.139h6.278l-.556.571h-6.278l.17-.169h-6.247l-.077.077h-6.063l.016-.216-.262.278h-4.258v-.571h4.813l-.093.093h6.248l-.077.076zm-.849.879h6.247l.139-.139h6.278l-.37.386h6.231l-.123.123h-6.231l-.063.062h-6.277l.169-.17h-6.247l-.077.077h-5.198v-.417h5.6l-.078.078zm-.925 1.141v-.201l-.262.278h-4.351v-.417h4.751l-.077.077h6.248l.139-.139h6.278l-.093.092h6.231l-.401.417h-6.231l-.062.062h-6.278l.17-.17h-6.062zm0 .88v-.262h5.461l.139-.139h6.278l-.093.093h6.231l-.4.417h-6.232l-.062.062h-6.278l.17-.169h-5.214zm0 .863v-.262h4.612l.139-.139h6.278l-.093.093h6.232l-.401.417h-6.231l-.063.062h-6.277l.169-.169h-4.365zm0 .879v-.262h3.764l.139-.139h6.278l-.093.093h6.232l-.401.417h-6.231l-.062.062h-6.278l.17-.17h-3.518zm0 .88v-.262h2.9l.139-.139h6.278l-.093.092h6.231l-.4.417h-6.232l-.062.062h-6.278l.17-.17h-2.653zm0 2.73v-.37h.354l.14-.139h6.277l-.092.093h6.231l-.077.077h6.201l-.263.262h-6.2l-.077.077h-6.232l-.062.062h-6.278l.078-.062zm28.861-16.829l.077-.077h6.2l.263-.262h-6.201l.077-.077h-6.278l-.4.417h6.262zm-.864.879l.077-.077h6.201l.262-.262h-6.2l.077-.077h-6.278l-.401.417h6.262v-.001zm-.849.864l.077-.077h6.201l.263-.262h-6.201l.077-.077h-6.278l-.401.417h6.262zm-.848.88l.077-.077h6.2l.263-.263h-6.201l.077-.077h-6.278l-.4.417h6.262zm-.848.878l.077-.077h6.201l.262-.262h-6.201l.077-.077h-6.277l-.401.417h6.262zm-4.952-27.117l.031-.031v.031h-.031zm-.848.879l.555-.571h.324v.571h-.879zm-.849.879l.556-.57h1.172v.57h-1.728zm-.848.88l.556-.571h2.021v.571h-2.577zm-.849.863l.556-.571h2.869v.571h-3.425zm-.848.88l.555-.571h3.718v.571H328.2zm-.864.879l.556-.571h4.581v.571h-5.137zm-.848.879l.556-.571h5.43v.571h-5.986zm-6.495 9.625v-.571h3.965l-.556.571h-3.409zm0 .88v-.571h3.116l-.555.571h-2.561zm0 .879v-.57h2.268l-.555.57h-1.713zm0 .864v-.571h1.42l-.556.571h-.864zm0 .895v-.586h.571l-.571.586zm16.213-16.706l.4-.417h.386v.417h-.786zm-.848.864l.401-.417h1.233v.417h-1.634zm-.849.879l.401-.416h2.082v.416h-2.483zm-.849.879l.401-.417h2.946v.417h-3.347zm-.847.879l.4-.417h3.795v.417h-4.195zm-.433.448h4.628v.417h-5.028l-.063.062h-6.263l.556-.571h6.263l-.093.092zm-.848.879h5.476v.417h-5.877l-.062.062h-6.263l.555-.571h6.263l-.092.092zm-7.003 10.057v-.417h3.903l-.401.417h-3.502zm0 .864v-.417h3.055l-.401.417h-2.654zm0 .879v-.416h2.206l-.401.417h-1.805zm0 .88v-.417h1.357l-.4.417h-.957zm0 .879v-.417h.494l-.401.417h-.093zm16.304-16.721l.263-.262h.524v.262h-.787zm-.848.879l.263-.262h1.373v.262h-1.636zm-.848.879l.262-.262h2.222v.262h-2.484zm-.849.864l.262-.262h3.07v.262h-3.332zm-.848.879l.263-.262h3.918v.262h-4.181zm-.586.617h4.751v.262h-5.014l-.077.077h-6.247l-.062.062h-6.263l.556-.571h6.263l-.093.093h6.247l-.061.077zm-.849.88h5.6v.262h-5.861l-.077.077h-6.247l-.063.062h-6.263l.556-.571h6.263l-.093.092h6.247l-.062.078zm-.849.863h6.248l-.154.154h6.263l-.278.278h-6.277l.169-.17h-6.247l-.077.077h-6.247l-.062.062h-6.263l.555-.571h6.263l-.092.092h6.247l-.048.078zm-.847.88h6.247l.139-.139h6.278l-.556.57h-6.278l.17-.169h-6.247l-.077.077h-6.247l-.062.062h-6.263l.555-.571h6.263l-.092.093h6.247l-.077.077zm-.849.879h6.247l.139-.139h6.278l-.556.571h-6.277l.169-.169h-6.247l-.077.077h-6.247l-.062.062h-6.263l.556-.571h6.263l-.093.093h6.247l-.077.076zm-.848.879h6.247l.14-.139h6.277l-.555.571h-6.278l.17-.17h-6.248l-.077.077h-6.247l-.062.062h-5.954v-.324l.247-.247h6.263l-.093.092h6.247l-.077.078zm-.864.879h6.247l.139-.139h6.278l-.556.57h-6.278l.17-.169h-6.247l-.077.077h-6.247l-.062.062h-5.106v-.571h5.661l-.093.093h6.248l-.077.077zm-.848.864h6.247l.139-.139h6.278l-.556.571h-6.277l.169-.17h-6.247l-.077.077h-6.062l.015-.216-.262.277h-4.258v-.57h4.813l-.092.092h6.247l-.077.078zm-.849.88h6.247l.14-.139h6.277l-.37.385h6.232l-.124.124h-6.231l-.062.062h-6.278l.17-.169h-6.248l-.077.077h-5.198v-.417h5.6l-.078.077zm-.91 1.141v-.201l-.262.278h-4.351v-.417h4.751l-.077.077h6.248l.139-.139h6.278l-.093.093h6.231l-.401.417h-6.231l-.062.062h-6.278l.17-.169h-6.062zm0 .879v-.262h5.461l.139-.139h6.278l-.093.092h6.231l-.4.417h-6.232l-.062.062h-6.278l.17-.17h-5.214zm0 .864v-.262h4.612l.139-.139h6.278l-.093.093h6.232l-.401.416h-6.231l-.063.062h-6.277l.169-.17h-4.365zm0 .879v-.262h3.764l.139-.139h6.278l-.092.092h6.231l-.401.417h-6.231l-.062.062h-6.278l.17-.17h-3.518zm0 .88v-.262h2.9l.139-.139h6.278l-.093.093h6.231l-.4.417h-6.232l-.062.062h-6.278l.17-.169h-2.653zm-28.999 84.114l.077-.077h6.2l.263-.262h-6.201l.077-.077h-6.278l-.4.417h6.262v-.001zm-.849.864l.077-.077h6.201l.262-.262h-6.201l.077-.077h-6.277l-.401.417h6.262zm-.848.879l.077-.077h6.201l.262-.262h-6.2l.077-.077h-6.278l-.401.417h6.262zm-.849.879l.077-.077h6.201l.263-.262h-6.201l.077-.077h-6.278l-.401.417h6.262zm-.848.879l.077-.077h6.2l.263-.262h-6.217l.077-.077h-6.278l-.4.417h6.278zm-4.952-27.117l.031-.031v.031h-.031zm-1.712 1.758l.17-.185h-6.248l.263-.262h6.247l.124-.124h1.172v.571h-1.728zm-.848.879l.17-.185h-6.247l.262-.262h6.247l.124-.124h2.021v.571h-2.577zm-.849.864l.17-.185h-6.247l.262-.262h6.248l.123-.124h2.869v.571h-3.425zm-.848.88l.169-.185h-6.247l.263-.262h6.247l.123-.124h3.718v.571h-4.273zm-1.697 1.758l.556-.571h5.43v.571h-5.986zm-6.494 9.625v-.571h3.965l-.556.571h-3.409zm0 .88v-.571h3.116l-.556.571h-2.56zm0 .879v-.57h2.268l-.555.57h-1.713zm0 .864v-.571h1.419l-.555.571h-.864zm0 .894v-.586h.571l-.571.586zm16.536 8.716l.077-.077h6.201l.262-.262h-6.2l.077-.077h-6.278l-.401.417h6.262zm-.324-25.437l.401-.417h.386v.417h-.787zm-.848.88l.4-.417h1.234v.417h-1.634zm-.864.879l.401-.417h2.082v.417h-2.483zm-.849.879l.401-.417h2.946v.417h-3.347zm-.847.864l.4-.417h3.795v.417h-4.195zm-.433.463h4.628v.417h-5.028l-.063.062h-6.263l.556-.571h6.263l-.093.092zm-.849.879h5.477v.417h-5.877l-.062.062h-6.263l.555-.571h6.263l-.093.092zm-6.987 10.042v-.416h3.902l-.4.416h-3.502zm0 .879v-.417h3.055l-.401.417h-2.654zm0 .879v-.417h2.206l-.401.417h-1.805zm0 .879v-.416h1.357l-.401.416h-.956zm0 .864v-.417h.494l-.401.417h-.093zm16.305-16.706l.263-.262h.524v.262h-.787zm-.849.88l.263-.262h1.373v.262h-1.636zm-.863.864l.262-.262h2.222v.262h-2.484zm-.849.879l.262-.262h3.07v.262h-3.332zm-.848.879l.263-.262h3.918v.262h-4.181zm-.571.617h4.751v.262h-5.014l-.077.077h-6.247l-.062.062h-6.263l.556-.571h6.263l-.093.092h6.247l-.061.078zm-.864.879h5.6v.262h-5.861l-.077.077h-6.247l-.063.062h-6.263l.556-.571h6.263l-.093.093h6.247l-.062.077zm-4.242 4.366h6.248l.139-.139h6.278l-.556.571h-6.278l.17-.17h-6.247l-.077.077h-6.248l-.062.062h-5.105v-.571h5.661l-.093.092h6.247l-.077.078zm-.848.879h6.247l.139-.139h6.278l-.556.571h-6.278l.17-.17h-6.247l-.077.077h-6.063l.016-.216-.262.277h-4.258v-.571h4.813l-.093.093h6.248l-.077.078zm-.848.879h6.247l.139-.139h6.278l-.37.386h6.231l-.123.124h-6.231l-.063.062h-6.277l.169-.169h-6.247l-.077.077h-5.198v-.417h5.6l-.078.076zm-.926 1.142v-.2l-.262.277h-4.351v-.417h4.751l-.077.077h6.248l.139-.139h6.278l-.093.093h6.231l-.401.416h-6.231l-.062.062h-6.278l.17-.17h-6.062zm0 .863v-.262h5.461l.139-.139h6.278l-.093.093h6.231l-.4.417h-6.232l-.062.062h-6.278l.17-.17h-5.214zm0 .88v-.262h4.612l.139-.139h6.278l-.093.092h6.232l-.401.417h-6.231l-.063.062h-6.277l.169-.17h-4.365zm0 .879v-.262h3.764l.139-.139h6.278l-.093.093h6.232l-.401.417h-6.231l-.062.062h-6.278l.17-.169h-3.518zm0 .879v-.262h2.9l.139-.139h6.278l-.093.093h6.231l-.4.417h-6.232l-.062.062h-6.278l.17-.17h-2.653zm28.861-14.099l.077-.077h6.2l.263-.262h-6.201l.077-.077h-6.278l-.4.417h6.262zm-.864.864l.077-.077h6.201l.262-.262h-6.2l.077-.077h-6.278l-.401.417h6.262zm-.849.88l.077-.077h6.201l.263-.262h-6.201l.077-.077h-6.278l-.401.417h6.262v-.001zm-.847.879l.077-.077h6.2l.263-.262h-6.201l.077-.077h-6.278l-.4.417h6.262zm-.849.879l.077-.077h6.201l.262-.263h-6.201l.077-.077h-6.278l-.4.417h6.262zm-4.952-27.118l.031-.031v.031h-.031zm-1.697 1.759l.17-.185h-6.248l.263-.262h6.247l.124-.124h1.172v.571h-1.728zm-.848.864l.17-.185h-6.247l.262-.262h6.247l.124-.124h2.021v.571h-2.577zm-.849.879l.17-.186h-6.247l.263-.262h6.247l.123-.123h2.869v.571h-3.425zm-.847.879l.169-.185h-6.247l.263-.262h6.247l.123-.124h3.718v.571h-4.273zm-1.713 1.759l.556-.571h5.43v.571h-5.986zm-6.495 9.625v-.57h3.965l-.556.57h-3.409zm0 .879v-.571h3.116l-.555.571h-2.561zm0 .864v-.571h2.268l-.555.571h-1.713zm0 .879v-.571h1.42l-.556.571h-.864zm0 .895v-.586h.571l-.571.586zm16.552 8.7l.077-.077h6.201l.262-.262h-6.2l.077-.077h-6.278l-.386.401h-6.217l.154-.154h-6.247l.077-.077h-6.247l.093-.092h-6.263l-.556.57h6.263l.062-.062h6.247l.077-.077h6.248l-.17.17h6.278l.246-.263h6.202zm-.339-25.421l.4-.416h.386v.416h-.786zm-.848.879l.4-.417h1.234v.417h-1.634zm-.849.88l.401-.417h2.082v.417h-2.483zm-.849.878l.401-.416h2.946v.416h-3.347zm-.847.865l.4-.417h3.795v.417h-4.195zm-.433.462h4.628v.417h-5.028l-.063.062h-6.263l.556-.571h6.263l-.093.092zm-.847.88h5.476v.417h-5.877l-.062.062h-6.263l.555-.571h6.263l-.092.092zm-7.004 10.041v-.417h3.903l-.401.417h-3.502zm0 .879v-.416h3.055l-.401.416h-2.654zm0 .88v-.417h2.206l-.401.417h-1.805zm0 .879v-.417h1.357l-.4.417h-.957zm0 .864v-.417h.494l-.401.417h-.093zm16.304-16.706l.263-.262h.524v.262h-.787zm-.848.88l.263-.262h1.373v.262h-1.636zm-.848.864l.262-.262h2.222v.262h-2.484zm-.849.878l.262-.262h3.07v.262h-3.332zm-.848.88l.263-.262h3.918v.262h-4.181zm-.586.617h4.751v.262h-5.014l-.077.077h-6.247l-.062.062h-6.263l.556-.571h6.263l-.093.093h6.247l-.061.077zm-.849.864h5.6v.262h-5.861l-.077.077h-6.247l-.063.062h-6.263l.556-.571h6.263l-.093.093h6.247l-.062.077zm-.848.879h6.248l-.154.154h6.263l-.278.278h-6.277l.169-.169h-6.247l-.077.077h-6.247l-.062.062h-6.263l.555-.571h6.263l-.092.092h6.247l-.048.077zm-.848.879h6.247l.139-.139h6.278l-.556.571h-6.278l.17-.17H310.6l-.077.077h-6.247l-.062.062h-6.248l-.015.016h-6.201l-.077.077h-6.232l-.062.062h-6.278l.17-.169h-1.805v-.262h2.052l.139-.139h6.278l-.093.092h6.232l-.077.077h6.186l.323-.324h6.263l-.093.092h6.248l-.077.077zm-.849.88h6.247l.139-.139h6.278l-.556.57h-6.277l.169-.169h-6.247l-.077.077h-6.247l-.062.062h-6.247l-.016.016h-6.201l-.077.077h-6.231l-.062.062h-6.278l.169-.169h-.956v-.262h1.203l.139-.139h6.278l-.093.093h6.232l-.077.077h6.186l.324-.324h6.263l-.093.093h6.247l-.077.075zm-.848.878h6.247l.14-.139h6.277l-.57.556h-6.278l.17-.17h-6.247l-.077.077h-6.248l-.062.062h-5.954v-.324l.247-.247h6.263l-.093.092h6.247l-.062.093zm-.864.865h6.247l.139-.139h6.278l-.556.571h-6.278l.17-.169h-6.247l-.077.077h-6.247l-.062.062h-5.106v-.571h5.661l-.093.093h6.248l-.077.076zm-.848.879h6.247l.139-.139h6.278l-.556.571h-6.277l.169-.17h-6.247l-.077.077h-6.062l.015-.216-.262.278h-4.258v-.571h4.813l-.092.092h6.247l-.077.078zm-.849.879h6.247l.139-.139h6.278l-.37.385h6.232l-.124.124h-6.231l-.062.062h-6.278l.17-.17h-6.248l-.077.077h-5.198v-.417h5.6l-.078.078zm-.91 1.142v-.201l-.262.278h-4.351v-.417h4.751l-.077.077h6.248l.139-.139h6.278l-.093.093h6.231l-.401.417h-6.231l-.062.062h-6.278l.17-.169h-6.062zm0 .863v-.262h5.461l.139-.139h6.278l-.093.093h6.231l-.4.417h-6.232l-.062.062h-6.278l.17-.169h-5.214zm0 .88v-.262h4.612l.139-.139h6.278l-.093.093h6.232l-.401.417h-6.231l-.063.062h-6.277l.169-.169h-4.365zm0 .879v-.262h3.764l.139-.139h6.278l-.092.093h6.231l-.401.416h-6.231l-.062.062h-6.278l.17-.17h-3.518zm0 .879v-.262h2.9l.139-.139h6.278l-.093.092h6.231l-.4.417h-6.232l-.062.062h-6.278l.17-.17h-2.653zm30.142-9.085l.262-.262h-6.278l-.262.262h6.278zm-.849.879l.262-.263h-6.277l-.263.263h6.278zm-.849.879l.263-.262h-6.278l-.263.262h6.278zm-.848.864l.263-.262h-6.278l-.262.262h6.277zm1.373-7.806l.077-.077h6.201l.263-.262h-6.201l.077-.077h-6.278l-.401.417h6.262zm-.864.88l.077-.077h6.2l.263-.262h-6.201l.077-.077h-6.278l-.4.417h6.262zm-.848.879l.077-.077h6.201l.262-.262h-6.201l.077-.077h-6.277l-.401.417h6.262zm-.849.864l.077-.077h6.201l.262-.262h-6.2l.077-.077h-6.278l-.401.417h6.262zm-.848.879l.077-.077h6.201l.263-.262h-6.201l.077-.077h-6.278l-.401.417h6.262zm-4.952-27.102l.031-.031v.031h-.031zm-.848.864l.17-.185h-6.186l-.077.077h-6.278l.401-.417h6.278l-.077.077h6.186l.123-.124h.324v.571h-.864zm-.848.879l.169-.185h-6.247l.263-.262h6.247l.123-.124h1.173v.571h-1.728zm-.849.879l.17-.185h-6.248l.263-.262h6.247l.123-.123h2.021v.57h-2.576zm-.848.879l.17-.185h-6.247l.262-.262h6.247l.124-.124h2.869v.571h-3.425zm-.864.88l.17-.185h-6.247l.263-.262h6.247l.123-.124h3.718v.571h-4.274zm-1.697 1.743l.556-.571h5.43v.571h-5.986zm-6.494 9.625v-.57h3.965l-.556.57h-3.409zm0 .879v-.571h3.116l-.556.571h-2.56zm0 .88v-.571h2.268l-.556.571h-1.712zm0 .879v-.57h1.419l-.555.57h-.864zm0 .879v-.586h.57l-.57.586zm16.552 8.715l.077-.077h6.2l.263-.262h-6.201l.077-.077h-6.278l-.4.417h6.262zm-.34-25.421l.401-.417h.386v.417h-.787zm-.849.88l.401-.417h1.234v.417h-1.635zm-.847.864l.4-.417h2.083v.417h-2.483zm-.849.879l.401-.416h2.946v.416h-3.347zm-.849.879l.401-.417h3.795v.417h-4.196zm-.431.463h4.628v.417h-5.029l-.062.062H319.5l.556-.571h6.263l-.093.092zm-.849.864h5.477v.417h-5.878l-.077.077h-6.263l.556-.571h6.263l-.078.077zm-7.003 10.057v-.417h3.902l-.4.417h-3.502zm0 .879v-.417h3.054l-.4.417h-2.654zm0 .864v-.417h2.206l-.401.417h-1.805zm0 .879v-.417h1.357l-.401.417h-.956zm0 .879v-.416h.493l-.4.416h-.093zm16.305-16.721l.262-.262h.524v.262h-.786zm-.849.879l.263-.262h1.372v.262h-1.635zm-.848.88l.263-.262h2.221v.262h-2.484zm-.848.879l.262-.262h3.069v.262h-3.331zm-.849.864l.262-.262h3.918v.262h-4.18zm-.586.617h4.751v.262h-5.014l-.077.077h-6.247l-.062.062h-6.263l.555-.571h6.263l-.092.093h6.247l-.061.077zm-.848.879h5.6v.262h-5.862l-.077.077h-6.247l-.062.062h-6.263l.556-.571h6.263l-.093.092h6.247l-.062.078zm-1.697 1.759h6.247l.14-.139h6.277l-.555.571h-6.278l.17-.169h-6.247l-.077.077h-6.248l-.062.062h-6.201l-.169.185h-6.201l-.077.077h-6.232l-.062.062H296.3l.17-.17h-1.805v-.262h2.052l.139-.139h6.278l-.093.092h6.232l-.077.077h6.139l.479-.494h6.263l-.093.093h6.247l-.077.077zm-.848.864h6.247l.139-.139h6.278l-.556.57h-6.278l.17-.169h-6.247l-.077.077h-6.247l-.063.062h-6.2l-.17.185h-6.201l-.107.077h-6.232l-.062.062h-6.278l.17-.17h-.956v-.262h1.203l.139-.139h6.278l-.093.092h6.231l-.077.077h6.14l.479-.494h6.262l-.092.093h6.247l-.047.078zm-.849.878h6.247l.139-.139h6.278l-.556.571h-6.277l.169-.169h-6.247l-.077.077h-6.247l-.062.062h-5.954v-.324l.246-.247h6.263l-.092.092h6.247l-.077.077zm-.864.88h6.247l.14-.139h6.277l-.555.571h-6.278l.17-.17h-6.247l-.077.077h-6.248l-.062.062h-5.105v-.57h5.661l-.093.092h6.247l-.077.077zm-.849.879h6.248l.139-.139h6.278l-.556.57h-6.278l.17-.169h-6.247l-.077.077h-6.063l.016-.216-.263.277h-4.257v-.571h4.813l-.093.093h6.247l-.077.078zm-.847.864h6.247l.139-.139h6.278l-.386.385h6.231l-.123.124h-6.231l-.063.062h-6.277l.169-.17h-6.247l-.077.077h-5.198v-.417h5.6l-.062.078zm-.91 1.142v-.201l-.263.278h-4.35v-.417h4.751l-.077.077h6.247l.139-.139h6.278l-.093.093h6.232l-.401.417h-6.231l-.062.062h-6.278l.169-.169h-6.061zm0 .879v-.262h5.46l.14-.139h6.277l-.092.093h6.231l-.401.417h-6.231l-.062.062h-6.278l.17-.17h-5.214zm0 .879v-.262h4.612l.139-.139h6.278l-.093.092h6.231l-.4.417h-6.232l-.062.062h-6.278l.17-.17h-4.365zm0 .864v-.262h3.764l.139-.139h6.278l-.093.092h6.231l-.4.417h-6.232l-.062.062h-6.278l.17-.17h-3.517zm0 .879v-.262h2.899l.14-.139h6.277l-.092.093h6.231l-.401.417h-6.231l-.062.062h-6.278l.17-.169h-2.653zm28.844-14.099l.077-.077h6.201l.263-.262h-6.201l.077-.077h-6.278l-.401.417h6.262zm-.847.879l.077-.077h6.2l.263-.262h-6.201l.077-.077h-6.278l-.4.417h6.262zm-.849.88l.077-.077h6.201l.262-.262h-6.201l.077-.077h-6.277l-.401.417h6.262zm-.849.864l.077-.077h6.201l.263-.262h-6.201l.077-.077h-6.278l-.401.417h6.262zm-.848.879l.077-.077h6.201l.263-.262h-6.201l.077-.077h-6.278l-.401.417h6.262zm-4.967-27.103l.031-.031v.031h-.031zm-1.696 1.744l.17-.185h-6.248l.263-.262h6.247l.123-.124h1.173v.571h-1.728zm-.849.879l.17-.185h-6.247l.262-.262h6.247l.124-.124h2.021v.571h-2.577zm-.849.879l.17-.185H334l.262-.262h6.248l.123-.123h2.869v.57h-3.425zm-.847.864l.169-.186h-6.247l.263-.262h6.247l.123-.124h3.718v.571h-4.273zm-1.698 1.758l.556-.571h5.43v.571h-5.986zm-6.494 9.626v-.571h3.965l-.556.571h-3.409zm0 .879v-.57h3.116l-.556.57h-2.56zm0 .879v-.571h2.268l-.556.571h-1.712zm0 .88v-.571h1.419l-.555.571h-.864zm0 .879v-.586h.571l-.571.586zm16.536 8.715l.077-.077h6.201l.262-.263h-6.201l.077-.077h-6.277l-.386.401h-6.217l.154-.154h-6.247l.077-.077h-6.247l.092-.093h-6.263l-.555.571h6.263l.062-.062h6.247l.077-.077h6.247l-.169.17h6.277l.247-.262h6.202zm-.324-25.421l.401-.417h.386v.417h-.787zm-.863.879l.4-.417h1.234v.417h-1.634zm-.849.864l.401-.417h2.082v.417h-2.483zm-.848.88l.401-.417h2.946v.417h-3.347zm-.849.879l.401-.417h3.795v.417h-4.196zm-.432.462h4.628v.417h-5.029l-.062.062h-6.263l.556-.571h6.263l-.093.092zm-.848.864h5.477v.417h-5.877l-.063.062h-6.262l.555-.571h6.263l-.093.092zm-6.988 10.058v-.417h3.902l-.4.417h-3.502zm0 .879v-.417h3.054l-.4.417h-2.654zm0 .864v-.417h2.206l-.401.417h-1.805zm-.015.879v-.417h1.357l-.401.417h-.956zm0 .879v-.417h.494l-.401.417h-.093zm16.32-16.721l.262-.262h.524v.262h-.786zm-.848.879l.263-.262h1.372v.262h-1.635zm-.864.88l.262-.262h2.222v.262h-2.484zm-.848.879l.262-.262h3.07v.262h-3.332zm-.849.863l.263-.262h3.918v.262h-4.181zm-.57.618h4.751v.262h-5.014l-.077.077h-6.247l-.062.062h-6.263l.555-.571h6.263l-.092.092h6.247l-.061.078zm-.865.879h5.6v.262h-5.861l-.077.077h-6.248l-.062.062h-6.263l.556-.571h6.263l-.093.093h6.247l-.062.077zm-1.696 1.743h6.247l.139-.139h6.278l-.556.571h-6.278l.17-.169h-6.247l-.077.077h-6.247l-.063.062h-6.247l-.016.016h-6.2l-.077.077h-6.232l-.062.062h-6.278l.17-.17h-1.805v-.262h2.052l.139-.139h6.278l-.093.092h6.231l-.077.077h6.186l.324-.324h6.263l-.093.093h6.247l-.076.076zm-.848.879h6.247l.139-.139h6.278l-.556.571h-6.278l.17-.17h-6.247l-.077.077h-6.247l-.062.062h-6.247l-.016.015h-6.201l-.077.077h-6.231l-.063.062h-6.277l.169-.169h-.956v-.262h1.203l.139-.139h6.278l-.093.092h6.232l-.077.077h6.186l.323-.324h6.263l-.092.092h6.247l-.077.078zm-.849.879h6.247l.139-.139h6.278l-.555.57h-6.278l.169-.169h-6.247l-.077.077h-6.247l-.062.062h-5.954v-.324l.247-.247h6.263l-.093.093h6.247l-.077.077zm-.849.88h6.247l.14-.139h6.277l-.555.571h-6.278l.17-.169h-6.247l-.077.077h-6.248l-.062.062h-5.105v-.571h5.661l-.093.093h6.247l-.077.076zm-.847.879h6.247l.139-.139h6.278l-.556.571h-6.278l.17-.17h-6.247l-.077.077h-6.063l.016-.216-.263.278h-4.257v-.571h4.813l-.093.092h6.247l-.076.078zm-.849.864h6.247l.139-.139h6.278l-.37.386h6.231l-.123.124h-6.232l-.062.062h-6.278l.17-.169h-6.247l-.077.077h-5.198v-.417h5.6l-.078.076zm-.926 1.141v-.2l-.262.277h-4.351v-.417h4.751l-.077.077h6.247l.14-.139h6.277l-.092.092h6.231l-.401.417h-6.231l-.062.062h-6.278l.17-.17h-6.062zm0 .88v-.262h5.461l.139-.139h6.278l-.093.092h6.231l-.4.417h-6.232l-.062.062h-6.278l.17-.169h-5.214zm0 .879v-.263h4.612l.139-.139h6.278l-.093.093h6.231l-.4.417h-6.232l-.062.062h-6.278l.17-.169h-4.365v-.001zm0 .864v-.262h3.764l.139-.139h6.278l-.093.093h6.232l-.401.417h-6.231l-.063.062h-6.277l.169-.169h-3.517zm0 .879v-.262h2.9l.139-.139h6.278l-.093.093h6.231l-.401.416h-6.231l-.062.062h-6.278l.17-.17h-2.653zm-53.942-44.564l.077-.077h6.201l.262-.262h-6.2l.077-.077h-6.278l-.401.417h6.262zm-.849.879l.077-.077h6.201l.263-.263h-6.201l.077-.077h-6.278l-.401.417h6.262zm-.848.879l.077-.077h6.2l.263-.262h-6.201l.077-.077h-6.278l-.4.417h6.262zm-.848.88l.077-.077h6.201l.262-.262h-6.201l.077-.077h-6.278l-.4.417h6.262zm-.849.864l.077-.077h6.201l.262-.262h-6.2l.076-.077h-6.277l-.401.417h6.262zm-8.253-9.734v-.262h5.461l.139-.139h6.278l-.093.093h6.232l-.401.417h-6.232l-.062.062h-6.277l.169-.169h-5.214zm0 .88v-.262h4.612l.139-.139h6.278l-.093.093h6.232l-.401.417h-6.231l-.062.062h-6.278l.17-.169h-4.366zm0 .879v-.262h3.765l.139-.139h6.277l-.092.093h6.231l-.401.416h-6.231l-.062.062h-6.278l.17-.17h-3.518zm0 .863v-.262h2.9l.139-.139h6.278l-.093.093h6.232l-.401.417h-6.232l-.062.062h-6.278l.17-.17h-2.653zm-.014 2.746v-.371h.354l.139-.139h6.278l-.093.093h6.231l-.077.077h6.201l-.262.262h-6.201l-.077.077h-6.231l-.063.062h-6.277l.078-.061zm6.694 50.981l.262-.262h-6.277l-.263.262h6.278zm-.849.864l.263-.262h-6.278l-.263.262h6.278zm-.339-6.047l.077-.077h6.2l.263-.263h-6.201l.077-.077h-6.278l-.4.417h6.262zm-4.582-21.055l.401-.417h.386v.417h-.787zm-.847.878l.4-.417h1.234v.417h-1.634zm-.849.88l.401-.417h2.082v.417h-2.483zm6.324-.077l.263-.262h.524v.262h-.787zm-.848.879l.263-.262h1.373v.262h-1.636zm-.849.879l.263-.262h2.222v.262h-2.485zm-.848.864l.262-.262h3.07v.262h-3.332zm-.848.879l.262-.262h3.919v.262h-4.181zm21.719 3.332l.263-.262h-6.278l-.263.262h6.278zm-.849.88l.263-.262h-6.278l-.262.262h6.277zm-.848.879l.262-.262h-6.278l-.262.262h6.278zm-.848.879l.262-.262h-6.277l-.263.262h6.278zm1.373-7.805l.077-.077h6.186l-.17.169h6.263l.062-.062h6.247l.077-.077h6.247l-.169.17h6.277l.556-.571h-6.278l-.139.139h-6.247l.077-.077h-6.247l.093-.092h-6.263l-.124.139h-6.186l.077-.077h-6.278l-.4.417h6.262zm-.849.863l.077-.077h6.201l.107-.108v.293h5.954l.063-.062h6.247l.077-.077h6.247l-.17.169h6.278l.556-.57h-6.278l-.139.139h-6.248l.077-.077h-6.247l.093-.093h-6.263l-.123.139h-6.186l.077-.077h-6.278l-.401.417h6.278v-.016zm-.849.88l.077-.077h6.201l.262-.262h-6.2l.077-.077h-6.278l-.401.417h6.262zm-.863.879l.077-.077h6.2l.263-.263h-6.201l.077-.077h-6.278l-.4.417h6.262zm-.848.879l.077-.077h6.201l.262-.262h-6.201l.077-.077h-6.277l-.401.417h6.262zm-4.953-27.117l.031-.031v.031h-.031zm-1.696 1.758l.17-.185h-6.247l.262-.262h6.247l.124-.123h1.172v.57h-1.728zm-.849.879l.17-.185h-6.247l.262-.262h6.247l.124-.124h2.021v.571h-2.577zm-.848.864l.17-.185h-6.247l.263-.262h6.247l.123-.124h2.869v.571h-3.425zm-.848.879l.169-.185h-6.247l.263-.262h6.247l.123-.124h3.718v.571h-4.273zm-1.697 1.759l.556-.571h5.43v.571h-5.986zm-6.494 9.625v-.571h3.965l-.556.571h-3.409zm0 .88v-.571h3.116l-.556.571h-2.56zm0 .878v-.57h2.268l-.555.57h-1.713zm0 .865v-.571h1.419l-.555.571h-.864zm-.016.894v-.586h.571l-.571.586zm16.213-16.721l.4-.417h.386v.417h-.786zm-.849.879l.4-.417h1.234v.417h-1.634zm-.848.879l.401-.416h2.082v.416h-2.483zm-.849.88l.401-.417h2.946v.417h-3.347zm-.848.864l.4-.417h3.795v.417h-4.195zm-.432.462h4.628v.417h-5.028l-.063.062h-6.263l.556-.571h6.263l-.093.092zm-.848.88h5.476v.417h-5.877l-.062.062h-6.263l.555-.571h6.263l-.092.092zm-7.004 10.041v-.416h3.903l-.401.416h-3.502zm0 .88v-.417h3.055l-.401.417h-2.654zm0 .879v-.417h2.206l-.401.417h-1.805zm0 .879v-.417h1.357l-.4.417h-.957zm0 .864v-.417h.494l-.401.417h-.093zm16.305-16.705l.263-.262h.524v.262h-.787zm-.849.879l.263-.262h1.373v.262h-1.636zm-.847.863l.262-.262h2.222v.262h-2.484zm-.849.88l.262-.262h3.07v.262h-3.332zm-.849.879l.263-.262h3.918v.262h-4.181zm-.586.617h4.751v.262h-5.014l-.077.077h-6.247l-.062.062h-6.263l.556-.571h6.263l-.093.092h6.247l-.061.078zm-.848.879h5.6v.262h-5.861l-.077.077h-6.247l-.063.062h-6.263l.556-.571h6.263l-.093.092h6.247l-.062.078zm-.849.864h6.248l-.154.154h6.263l-.278.278h-6.277l.169-.17h-6.247l-.077.077h-6.247l-.062.062H278.7l.555-.57h6.263l-.092.092h6.247l-.047.077zm-2.545 2.638h6.247l.14-.139h6.277l-.555.571h-6.278l.17-.17h-6.248l-.077.077h-6.247l-.062.062h-5.954v-.324l.247-.247h6.263l-.093.092h6.247l-.077.078zm-.848.863h6.248l.139-.139h6.278l-.556.571h-6.278l.17-.17h-6.247l-.077.077h-6.263l-.062.062h-5.106v-.571h5.661l-.093.092h6.248l-.062.078zm-.848.88h6.247l.139-.139h6.278l-.556.571h-6.278l.17-.17h-6.247l-.077.077h-6.063l.016-.216-.262.277h-4.258v-.57h4.813l-.093.092h6.248l-.077.078zm-.864.879h6.247l.14-.139h6.277l-.37.386h6.232l-.124.124h-6.231l-.062.062h-6.278l.17-.169h-6.248l-.077.077h-5.198v-.417h5.6l-.078.076zm-.91 1.142v-.201l-.262.278h-4.351v-.417h4.751l-.077.077h6.248l.139-.139h6.278l-.093.093h6.231l-.401.417h-6.231l-.062.062h-6.278l.17-.169h-6.062zm0 .864v-.262h5.461l.139-.139h6.278l-.093.093h6.231l-.4.417h-6.232l-.062.062h-6.278l.17-.169h-5.214zm0 .879v-.262h4.612l.139-.139h6.278l-.093.093h6.232l-.401.416h-6.231l-.063.062h-6.277l.169-.17h-4.365zm0 .879v-.262h3.764l.139-.139h6.278l-.093.092h6.232l-.401.417h-6.231l-.062.062h-6.278l.17-.17h-3.518zm0 .879v-.262h2.9l.139-.139h6.278l-.093.093h6.231l-.4.417h-6.232l-.062.062h-6.278l.17-.169h-2.653zm0 .864v-.262h2.052l.139-.139h6.278l-.093.093h6.232l-.077.077h6.186l.123-.139h6.263l-.093.092h6.247l-.077.077h5.6v.262h-5.861l-.077.077h-6.247l-.062.062h-6.263l.169-.169h-6.186l-.077.077h-6.231l-.062.062h-6.278l.17-.169h-1.775zm0 .879v-.262h1.203l.139-.139h6.278l-.093.093h6.232l-.077.077h6.186l.123-.139h6.263l-.093.093h6.248l-.077.077h6.247l-.154.154h6.216l.386-.401h6.278l-.077.077h6.186l.124-.123h.323v.57h-.879l.17-.185h-6.186l-.077.077h-6.232l-.246.262h-6.278l.169-.169h-6.247l-.077.077h-6.247l-.062.062h-6.263l.17-.169H299l-.077.077h-6.232l-.062.062h-6.278l.17-.17h-.91v-.001zm0 .987v-.37h.355l.139-.139h6.277l-.092.092h6.231l-.077.077h6.186l.123-.139h6.263l-.092.092h6.247l-.077.077h6.247l.139-.139h6.278l-.556.571h-6.277l.169-.169h-6.247l-.077.077h-6.247l-.062.062h-6.263l.17-.17h-6.186l-.077.077h-6.232l-.062.062h-6.278l.078-.061zm30.141-11.815l.262-.263h-6.278l-.262.263h6.278zm-.848.879l.262-.262h-6.277l-.263.262h6.278zm-.849.879l.263-.262h-6.278l-.263.262h6.278zm-.849.864l.263-.262h-6.278l-.262.262h6.277zm1.373-7.805l.077-.077h6.201l.263-.262h-6.201l.077-.077h-6.278l-.401.417h6.262zm-.848.879l.077-.077h6.201l.263-.262h-6.201l.077-.077h-6.278l-.401.417h6.262zm-.848.879l.077-.077h6.201l.262-.262h-6.201l.077-.077h-6.278l-.4.417h6.262zm-.864.864l.077-.077h6.201l.262-.263h-6.2l.077-.077h-6.278l-.401.417h6.262zm-.849.879l.077-.077h6.201l.263-.262h-6.201l.077-.077h-6.278l-.401.417h6.262zm-9.193-22.721l.17-.185H295.9l.262-.262h6.248l.123-.123h3.718v.57h-4.274zm-1.696 1.743l.555-.571h5.43v.571h-5.985zm-6.495 9.641v-.571h3.964l-.555.571h-3.409zm0 .864v-.571h3.116l-.556.571h-2.56zm0 .879v-.57h2.268l-.556.57h-1.712zm0 .879v-.571h1.419l-.556.571h-.863zm-.015.894v-.586h.57l-.57.586zm16.552 8.701l.077-.077h6.2l.263-.262h-6.201l.077-.077h-6.278l-.4.417h6.262zm-2.037-23.679l.4-.416h2.083v.416h-2.483zm-.848.88l.401-.417h2.946v.417h-3.347zm-.849.879l.401-.417h3.795v.417h-4.196zm-.432.463h4.628v.416h-5.029l-.062.062h-6.263l.556-.571h6.263l-.093.093zm-.848.879h5.477v.417h-5.878l-.062.062h-6.263l.556-.571h6.263l-.093.092zm-7.003 10.042v-.417h3.902l-.4.417h-3.502zm0 .879v-.417h3.054l-.4.417h-2.654zm0 .864v-.417h2.206l-.401.417h-1.805zm0 .879v-.416h1.357l-.401.416h-.956zm0 .879v-.417h.493l-.4.417h-.093zm16.305-16.721l.262-.262h.524v.262h-.786zm-.849.88l.263-.262h1.372v.262h-1.635zm-.849.879l.263-.262h2.221v.262h-2.484zm-.847.879l.262-.262h3.069v.262h-3.331zm-.849.879l.262-.262h3.918v.262h-4.18zm-.586.602h4.751v.262h-5.014l-.077.077h-6.247l-.062.062h-6.263l.555-.571h6.263l-.092.092h6.247l-.061.078zm-.849.879h5.6v.262h-5.862l-.077.077h-6.247l-.062.062h-6.263l.556-.571h6.263l-.093.093h6.247l-.062.077zm-1.697 1.759h6.248l.139-.139h6.277l-.555.571h-6.278l.17-.17h-6.247l-.077.077h-6.248l-.062.062h-6.201l-.169.185h-6.201l-.077.077h-6.232l-.062.062h-6.277l.169-.169h-1.805v-.262h2.052l.139-.139h6.278l-.093.093h6.232l-.077.077h6.139l.479-.494h6.263l-.093.093h6.247l-.078.076zm-.847.863h6.247l.139-.139h6.278l-.556.571h-6.278l.17-.169h-6.247l-.077.077h-6.247l-.063.062h-6.2l-.17.185h-6.201l-.077.077h-6.231l-.062.062h-6.278l.169-.169h-.956v-.262h1.203l.139-.139h6.278l-.093.093h6.232l-.077.077h6.139l.479-.494h6.263l-.093.092h6.248l-.078.076zm-.849.88h6.247l.139-.139h6.278l-.556.571h-6.277l.169-.17h-6.247l-.077.077h-6.247l-.062.062h-5.954v-.324l.246-.247h6.263l-.092.092h6.247l-.077.078zm-.849.879h6.247l.139-.139h6.278l-.555.57h-6.278l.17-.169h-6.248l-.077.077h-6.247l-.062.062h-5.105v-.571h5.661l-.093.093h6.247l-.077.077zm-.848.88h6.247l.14-.139h6.277l-.555.571h-6.278l.17-.169h-6.247l-.077.077h-6.063l.016-.216-.263.278h-4.257v-.571h4.813l-.093.093h6.247l-.077.076zm-.864.863h6.247l.139-.139h6.278l-.37.386h6.231l-.123.124h-6.232l-.062.062h-6.278l.17-.169h-6.247l-.077.077h-5.198v-.417h5.6l-.078.076zm-.91 1.141v-.2l-.263.277h-4.35v-.417h4.751l-.077.077h6.247l.139-.139h6.278l-.093.093h6.232l-.401.417h-6.231l-.063.062h-6.277l.169-.17h-6.061zm0 .88v-.262h5.46l.14-.139h6.277l-.092.092h6.231l-.401.417h-6.231l-.062.062h-6.278l.17-.17h-5.214zm0 .879v-.262h4.612l.139-.139h6.278l-.093.092h6.231l-.4.417h-6.232l-.062.062h-6.278l.17-.169h-4.365zm0 .864v-.262h3.764l.139-.139h6.278l-.093.093h6.231l-.4.417h-6.232l-.062.062h-6.278l.17-.169h-3.517zm0 .879v-.262h2.899l.14-.139h6.277l-.092.093h6.231l-.401.417h-6.231l-.062.062h-6.278l.17-.169h-2.653zm0 .879v-.262h2.052l.139-.139h6.278l-.093.093h6.231l-.077.077h6.201l-.263.262h-6.2l-.063.077h-6.231l-.062.062h-6.278l.17-.17h-1.804zm0 .88V150h1.203l.139-.139h6.278l-.093.092h6.231l-.077.077h6.201l-.262.262h-6.201l-.077.077h-6.231l-.063.062h-6.277l.169-.17h-.94zm0 .971v-.37h.354l.139-.139h6.278l-.093.092h6.232l-.077.077h6.2l-.262.262h-6.201l-.077.077h-6.231l-.062.062h-6.278l.078-.061zm30.033-11.646l.262-.262h-6.278l-.262.262h6.278zm-.864.88l.263-.262h-6.278l-.263.262h6.278zm-.848.864l.263-.262h-6.278l-.262.262h6.277zm-.848.879l.262-.263h-6.278l-.262.263h6.278zm-.324-6.047l.077-.077h6.201l.262-.262h-6.201l.077-.077h-6.277l-.401.417h6.262zm-.849.864l.077-.077h6.201l.263-.262h-6.201l.077-.077h-6.278l-.401.417h6.262zm-.849.879l.077-.077h6.201l.263-.263h-6.201l.077-.077h-6.278l-.401.417h6.262zm-.847.879l.077-.077h6.2l.263-.262h-6.201l.077-.077h-6.278l-.386.401h-6.216l.154-.154h-6.247l.077-.077h-6.248l.093-.093h-6.263l-.555.571h6.263l.062-.062h6.247l.077-.077h6.247l-.17.169h6.278l.247-.262h6.202zm-.032 115.844l.077-.077h6.201l.262-.262h-6.2l.077-.077h-6.278l-.417.417h6.278zm.032-19.374l.262-.262h.524v.262h-.786zm-.849.88l.262-.263h1.373v.263h-1.635zm-.849.879l.263-.262h2.221v.262h-2.484zm-.848.879l.263-.262h3.069v.262h-3.332zm-.848.864l.262-.262h3.918v.262h-4.18zm-8.299 9.64v-.262h5.46l.139-.139h6.278l-.093.093h6.232l-.401.417h-6.231l-.062.062h-6.278l.17-.17h-5.214zm0 .865v-.263h4.612l.139-.139h6.277l-.092.093h6.231l-.401.417h-6.231l-.062.062h-6.278l.17-.169h-4.365zm0 .879v-.262h3.764l.139-.139h6.278l-.093.092h6.231l-.4.417h-6.232l-.062.062h-6.278l.17-.17h-3.517zm0 .879v-.262h2.899l.139-.139h6.278l-.093.092h6.232l-.401.417h-6.231l-.062.062h-6.278l.17-.169h-2.653zm7.065-17.431l.401-.417h.386v.417h-.787zm-.849.864l.401-.417h1.234v.417h-1.635zm-.847.88l.4-.417h2.083v.417h-2.483zm-.849.879l.4-.417h2.946v.417h-3.346zm-.849.879l.401-.417h3.794v.417H319.5zm-8.283 9.625v-.416h5.6l-.077.077h6.247l.139-.139h6.278l-.37.386h6.231l-.123.123h-6.232l-.062.062h-6.278l.17-.17h-6.247l-.077.077h-5.199zm0 .88v-.417h4.751l-.077.077h6.247l.139-.139h6.278l-.093.093h6.232l-.401.417h-6.231l-.063.062h-6.277l.169-.169h-6.047v-.201l-.262.278h-4.365v-.001zm0 .879v-.417h3.902l-.401.417h-3.501zm0 .864v-.417h3.054l-.4.417h-2.654zm0 .879v-.417h2.206l-.401.417h-1.805zm0 .879v-.417h1.357l-.401.417h-.956zm7.913-20.068l.031-.031v.031h-.031zm-.849.864l.186-.201h-6.232l.263-.262h6.231l.108-.108h.324v.571h-.88zm-.848.879l.186-.201h-6.231l.262-.262h6.231l.108-.108h1.172v.571h-1.728zm-.848.879l.185-.2h-6.231l.262-.262h6.232l.107-.108h2.021v.571h-2.576zm-.848.879l.185-.201h-6.231l.263-.262h6.231l.108-.108h2.869v.571h-3.425zm-1.712 1.743l.555-.571h4.582v.571h-5.137zm-.849.879l.555-.57h5.431v.57h-5.986zm-.849.88l.556-.571h6.263l-.093.093h4.628v.417h-5.014l-.062.062h-6.278v-.001zm-.848.864l.556-.57h6.263l-.093.092h5.477v.417h-5.877l-.063.062h-6.263v-.001zm-.848.879l.555-.571h6.263l-.093.093h6.248l-.077.077h4.751v.262h-4.982l-.077.077h-6.247l-.063.062h-6.278zm-.849.879l.555-.571h6.263l-.092.092h6.247l-.077.077h5.6v.262h-5.862l-.077.077h-6.247l-.062.062h-6.248zm-1.697 1.743h-6.17l-.077.077h-6.231l-.062.062h-6.278l.17-.17h-.957v-.262h1.203l.139-.139h6.278l-.093.092h6.232l-.077.077h6.17l.293-.308h6.263l-.093.092h6.248l-.077.077h6.247l.139-.139h6.278l-.556.571h-6.278l.17-.17h-6.247l-.077.077h-6.247l-.062.062h-6.248zm-.847.879h-6.171l-.077.077h-6.231l-.062.062h-6.278l.062-.062v-.37h.354l.14-.139h6.277l-.092.092h6.231l-.077.077h6.17l.293-.309h6.263l-.092.093h6.247l-.077.077h6.263l.139-.139h6.278l-.556.571h-6.278l.17-.169h-6.247l-.077.077h-6.247l-.062.062h-6.263zm-.54.88v-.324l.246-.247h6.263l-.092.093h6.247l-.077.077h6.247l.139-.139h6.278l-.556.571h-6.277l.169-.17h-6.247l-.077.077h-6.247l-.062.062h-5.954zm0 .879v-.571h5.661l-.093.092h6.247l-.077.077h6.247l.139-.139h6.278l-.555.571h-6.278l.17-.17h-6.248l-.077.077h-6.247l-.062.062h-5.105v.001zm-.016.879v-.571h4.813l-.093.093h6.248l-.077.077h6.247l.139-.139h6.278l-.556.571h-6.278l.17-.17h-6.247l-.077.077h-6.063l.016-.216-.247.277h-4.273zm0 .864v-.571h3.964l-.555.571h-3.409zm0 .879v-.571h3.116l-.556.571h-2.56zm0 .88v-.571h2.268l-.556.571h-1.712zm0 .879v-.571h1.419l-.556.571h-.863zm0 .879v-.586h.57l-.57.586zm4.535 1.682v-.417h.493l-.4.417h-.093zm33.457-15.056l.077-.077h6.201l.263-.262h-6.201l.077-.077h-6.278l-.401.417h6.262zm-.848.879l.077-.077h6.2l.263-.262h-6.201l.077-.077h-6.278l-.4.417h6.262v-.001zm-.848.864l.077-.077h6.201l.262-.262h-6.201l.077-.077h-6.278l-.4.416h6.262zm-.849.879l.077-.077h6.201l.262-.262h-6.2l.077-.077h-6.278l-.401.417h6.262zm-.848.88l.077-.077h6.201l.263-.262h-6.201l.077-.077h-6.278l-.401.417h6.262v-.001zm-4.952-27.118l.031-.031v.031h-.031zm-.864.879l.556-.571h.324v.571h-.88zm-.848.879l.555-.571h1.173v.571h-1.728zm-.848.88l.556-.571h2.021v.571h-2.577zm-.849.879l.556-.571h2.869v.571h-3.425zm-.848.864l.556-.571h3.718v.571h-4.274zm-.848.879l.555-.571h4.582v.571h-5.137zm-.849.879l.555-.571h5.431v.571h-5.986zm-6.494 9.626v-.571h3.964l-.555.571h-3.409zm0 .879v-.571h3.116l-.556.571h-2.56zm0 .879v-.571h2.268l-.556.571h-1.712zm0 .88v-.571h1.419l-.556.571h-.863zm0 .879V232h.57l-.57.587zm16.212-16.706l.401-.416h.386v.416h-.787zm-.849.864l.401-.417h1.234v.417h-1.635zm-.863.879l.4-.417h2.083v.417h-2.483zm-.849.879l.401-.417h2.946v.417h-3.347zm-.848.88l.401-.417h3.795v.417h-4.196zm-.432.447h4.628v.417h-5.029l-.062.062h-6.263l.556-.571h6.263l-.093.092zm-.848.879h5.477v.417h-5.877l-.063.062h-6.263l.556-.571h6.263l-.093.092zm-6.988 10.058v-.417h3.902l-.401.417h-3.501zm0 .863v-.417h3.054l-.4.417h-2.654zm0 .88v-.417h2.206l-.401.417h-1.805zm0 .879v-.417h1.357l-.401.417h-.956zm0 .879v-.417h.493l-.4.417h-.093zm16.305-16.721l.262-.262h.524v.262h-.786zm-.849.879l.262-.262h1.373v.262h-1.635zm-.848.88l.263-.262h2.221v.262h-2.484zm-.864.863l.262-.262h3.069v.262h-3.331zm-.848.88l.262-.263h3.918v.263h-4.18zm-.572.617h4.751v.262h-5.013l-.077.077h-6.247l-.062.062h-6.263l.555-.57h6.263l-.093.092h6.248l-.062.077zm-.847.879h5.599v.262h-5.861l-.077.077h-6.247l-.062.062h-6.263l.555-.571h6.263l-.092.093h6.247l-.062.077zm-.864.879h6.247l-.154.154h6.263l-.277.278h-6.278l.17-.169h-6.247l-.077.077h-6.247l-.063.062h-12.433l-.077.077h-6.231l-.062.062h-6.278l.17-.169h-1.805v-.262h2.051l.14-.139h6.277l-.092.093h6.231l-.046.077h6.17l.293-.309h6.263l-.093.092h6.247l-.062.076zm-.849.864h6.248l.139-.139h6.278l-.556.571h-6.278l.17-.169h-6.247l-.077.077h-6.248l-.062.062h-12.433l-.077.077h-6.231l-.062.062h-6.278l.17-.169h-.957v-.262h1.203l.139-.139h6.278l-.093.093h6.232l-.077.077h6.17l.293-.309h6.263l-.093.093h6.248l-.062.075zm-.848.879h6.247l.139-.139h6.278l-.556.571h-6.278l.17-.17h-6.247l-.077.077h-6.247l-.062.062H318.265l-.077.077h-6.231l-.062.062h-6.278l.062-.062v-.37h.354l.14-.139h6.277l-.092.093h6.231l-.077.077h6.17l.293-.309h6.263l-.092.092h6.247l-.061.078zm-.848.879h6.247l.139-.139h6.278l-.556.571h-6.277l.169-.17h-6.247l-.077.077h-6.247l-.062.062h-5.954v-.324l.246-.247h6.263l-.092.092h6.247l-.077.078zm-.849.88h6.247l.139-.139h6.278l-.555.571h-6.278l.17-.169h-6.248l-.077.077h-6.247l-.062.062h-5.105v-.571h5.661l-.093.093h6.247l-.077.076zm-.849.864h6.248l.139-.139h6.278l-.556.571h-6.278l.17-.169h-6.247l-.077.077H328.4l.016-.216-.263.277h-4.257v-.571h4.813l-.093.093h6.247l-.077.077zm-.847.878h6.247l.139-.139h6.278l-.37.386h6.231l-.123.124h-6.232l-.062.062h-6.278l.17-.17h-6.247l-.077.077h-5.198v-.416h5.6l-.078.076zm-.926 1.142v-.201l-.263.278h-4.35v-.417h4.751l-.077.077h6.247l.139-.139h6.278l-.093.092h6.232l-.401.417h-6.231l-.062.062h-6.278l.17-.17h-6.062v.001zm0 .879v-.262h5.461l.139-.139h6.277l-.092.093h6.231l-.401.417h-6.231l-.062.062h-6.278l.17-.169h-5.214zm0 .864v-.262h4.612l.139-.139h6.278l-.093.092h6.231l-.4.417h-6.232l-.062.062h-6.278l.17-.169h-4.365zm0 .88v-.262h3.764l.139-.139h6.278l-.093.093h6.232l-.401.417H342.7l-.063.062h-6.277l.169-.169h-3.516zm0 .879v-.262h2.899l.14-.139h6.277l-.092.092h6.231l-.401.417h-6.231l-.062.062h-6.278l.17-.17h-2.653zm0 2.73v-.37h.354l.139-.139h6.278l-.093.092h6.232l-.077.077h6.201l-.263.262h-6.201l-.077.077h-6.231l-.062.062h-6.278l.078-.061zm28.12-16.12l.077-.077h6.201l.262-.262h-6.2l.077-.077h-6.278l-.401.417h6.262zm-.849.88l.077-.077h6.201l.263-.262h-6.201l.077-.077h-6.278l-.401.417h6.262zm-.847.879l.077-.077h6.2l.263-.262h-6.201l.077-.077h-6.278l-.4.417h6.262zm-.849.864l.077-.077h6.201l.262-.262h-6.201l.077-.077h-6.277l-.401.417h6.262zm-4.951-27.103l.03-.031v.031h-.03zm-.864.88l.186-.201h-6.232l.263-.262h6.231l.108-.108h.323v.571h-.879zm-.849.879l.186-.201h-6.232l.263-.262h6.231l.108-.108h1.172v.571h-1.728zm-.849.864l.186-.201h-6.231l.262-.262h6.232l.107-.108h2.021v.571h-2.577zm-.847.879l.185-.2h-6.231l.262-.262h6.232l.107-.108h2.869v.571h-3.424zm-1.697 1.759l.556-.571h4.581v.571h-5.137zm-.849.863l.556-.571h5.43v.571h-5.986zm-6.493 9.641v-.57h3.964l-.556.57h-3.408zm0 .879v-.571h3.115l-.555.571h-2.56zm0 .864v-.571h2.267l-.555.571h-1.712zm0 .88v-.571h1.419l-.556.571h-.863zm0 .894v-.586h.57l-.57.586zm16.212-16.721l.4-.417h.386v.417h-.786zm-.849.879l.401-.417h1.233v.417h-1.634zm-.864.88l.401-.417h2.082v.417h-2.483zm-.848.863l.4-.417h2.946v.417h-3.346zm-.849.88l.4-.417h3.795v.417h-4.195zm-.431.462h4.627v.417h-5.028l-.062.062h-6.263l.555-.571h6.263l-.092.092zm-.849.88h5.476v.417h-5.877l-.062.062h-6.263l.556-.571h6.263l-.093.092zm-6.988 10.042v-.417h3.903l-.401.417h-3.502zm0 .879v-.416h3.055l-.401.416h-2.654zm0 .879v-.417h2.206l-.401.417h-1.805zm0 .864v-.417h1.357l-.4.417h-.957zm0 .879v-.417h.494l-.401.417h-.093zm16.305-16.705l.263-.262h.524v.262h-.787zm-.848.863l.262-.262h1.373v.262h-1.635zm-.849.88l.262-.263h2.222v.263h-2.484zm-.864.879l.263-.262h3.069v.262h-3.332zm-.849.879l.263-.262h3.918v.262h-4.181zm-.57.617h4.751v.262h-5.013l-.077.077h-6.248l-.062.062h-6.263l.556-.571h6.263l-.093.093h6.247l-.061.077zm-.849.864h5.6v.262h-5.861l-.077.077h-6.247l-.063.062h-6.263l.556-.571h6.263l-.093.093h6.247l-.062.077zm-1.711 1.758h6.247l.139-.139h6.278l-.556.571h-6.277l.169-.17h-6.247l-.077.077h-6.247l-.062.062h-12.433l-.077.077h-6.232l-.062.062h-6.278l.17-.17h-.956v-.262h1.203l.139-.139h6.278l-.093.093h6.231l-.077.077h6.171l.293-.308h6.263l-.093.092h6.247l-.061.077zm-.849.88h6.247l.14-.139h6.277l-.555.57h-6.278l.17-.169h-6.247l-.077.077h-6.248l-.062.062h-12.433l-.077.077h-6.231l-.063.062h-6.277l.062-.062v-.37h.354l.139-.139h6.278l-.093.092h6.232l-.077.077h6.17l.293-.309h6.263l-.093.093h6.247l-.061.078zm-.849.863h6.248l.139-.139h6.278l-.556.57h-6.278l.17-.169h-6.247l-.077.077h-6.247l-.063.062h-5.954v-.324l.247-.247h6.263l-.093.093h6.247l-.077.077zm-.847.88h6.247l.139-.139h6.278l-.556.571h-6.278l.17-.169h-6.247l-.077.077h-6.247l-.062.062h-5.106v-.571h5.661l-.092.093h6.247l-.077.076zm-.849.879h6.247l.139-.139h6.278l-.556.571h-6.277l.169-.17h-6.247l-.077.077h-6.062l.015-.216-.262.278h-4.258v-.571h4.813l-.093.092h6.247l-.076.078zm-1.774 2.885v-.262h5.461l.139-.139h6.278l-.093.093h6.232l-.401.417h-6.231l-.063.062h-6.277l.169-.169h-5.214zm0 .878v-.262h4.612l.14-.139h6.277l-.092.093h6.231l-.401.417h-6.231l-.062.062h-6.278l.17-.17h-4.366zm0 .88v-.262h3.765l.139-.139h6.278l-.093.092h6.231l-.401.417h-6.231l-.062.062h-6.278l.17-.17h-3.518zm0 .864v-.262h2.9l.139-.139h6.278l-.093.092h6.232l-.401.417h-6.231l-.063.062h-6.277l.169-.17h-2.653zm18.14 3.285v.062l-.2.2h-6.201l-.077.077h-6.278l.401-.417h6.278l-.077.077h6.154v.001zm0-.879v.263h-5.553l-.077.077h-6.232l-.062.062h-6.278l.062-.062v-.371h.355l.139-.139h6.278l-.093.092h6.231l-.077.077h5.307zm0-.879v.262h-4.705l-.077.077h-6.231l-.062.062h-6.278l.17-.169h-.957v-.262h1.204l.139-.139h6.277l-.092.093h6.231l-.077.077h4.458v-.001zm0-.879v.262h-3.856l-.077.077h-6.231l-.062.062h-6.278l.17-.169h-1.806v-.262h2.052l.139-.139h6.278l-.093.092h6.248l-.077.077h3.593zm0-4.458v.417h-5.908l-.062.062h-6.278l.17-.17h-6.047v-.201l-.262.278h-4.351v-.417h4.751l-.077.077h6.248l.139-.139h6.278l-.093.092h5.492zm0-.586v.124h-5.06l-.062.062h-6.278l.17-.17h-6.247l-.077.077h-5.198v-.417h5.599l-.077.077h6.248l.139-.139h6.278l-.371.386h4.936zm0-5.338v.262l-.016.016h-6.278l.17-.17h-6.247l-.077.077h-6.247l-.062.062H337.269l-.077.077h-6.231l-.062.062h-6.278l.17-.169h-1.805v-.262h2.052l.139-.139h6.278l-.093.093h6.231l-.077.077h6.17l.294-.309h6.263l-.093.092h6.247l-.077.077h6.247l-.154.154h6.047zm-10.088-12.201v-.571h3.964l-.555.571h-3.409zm0 .864v-.571h3.115l-.555.571h-2.56zm0 .879v-.571h2.268l-.556.571h-1.712zm0 .879v-.571h1.419l-.556.571h-.863zm0 .895v-.586h.57l-.57.586zm4.535-1.836v-.417h3.902l-.401.417h-3.501zm0 .88v-.417h3.054l-.401.417h-2.653zm0 .879v-.417h2.205l-.4.417h-1.805zm0 .864v-.417h1.357l-.401.417h-.956zm0 .879v-.417h.493l-.401.417h-.092zm5.553 1.28v.571h-1.003l.063-.062v-.37h.354l.139-.139h.447zm0-.462v.154h-.154l.154-.154zm0-.278v.262h-.94v-.262h.94zm0-.88v.262h-.94v-.262h.94zm0-.879v.262h-.94v-.262h.94zm0-.863v.262h-.94v-.262h.94zm0-.88v.262h-.94v-.262h.94zm0-.879v.262h-.94v-.262h.94zm0-.879v.262h-.94v-.2l-.263.277h-4.35v-.416h4.751l-.077.077h.879zm0-.941v.046l-.031.031h.031v.263h-.277l-.077.077h-5.198v-.417h5.552zm0-.879v.417h-5.568l.016-.216-.263.278h-4.257v-.571h4.813l-.093.093h5.352zm0-.88v.417h-4.905l-.062.062h-5.105v-.57h5.661l-.093.092h4.504v-.001zm0-.879v.417h-4.057l-.062.062h-5.954v-.324l.246-.247h6.263l-.092.092h3.656zm0-.864v.417h-3.208l-.063.062h-12.433l-.077.077h-6.231l-.062.062h-6.278l.062-.062v-.37h.354l.139-.139h6.278l-.093.093h6.232l-.077.077h6.17l.293-.309h6.263l-.093.092h2.824zm0-.879v.417h-2.36l-.062.062h-12.433l-.077.077h-6.231l-.063.062h-6.277l.169-.169h-.956v-.262h1.203l.139-.139h6.278l-.093.093h6.232l-.077.077h6.17l.293-.309h6.263l-.093.093h1.975zm0-.879v.417h-1.512l-.062.062h-12.433l-.077.077h-6.232l-.062.062h-6.278l.17-.17h-1.805v-.262h2.052l.139-.139h6.278l-.093.092h6.231l-.077.077h6.171l.293-.309h6.263l-.093.093h1.127zm0-.88v.417h-.647l-.063.062h-6.263l.556-.57h6.263l-.093.092h.247zm0-.956v.571h-6.14l.556-.571h5.584zm0-.879v.571h-5.291l.556-.571h4.735zm0-.879v.571h-4.442l.556-.571h3.886zm0-.88v.571h-3.579l.556-.571h3.023zm0-.864v.571h-2.73l.556-.571h2.174zm0-.879v.571h-1.882l.556-.571h1.326zm0-.879v.571h-1.033l.555-.571h.478zm-21.101 59.866l.03-.031v.031h-.03zm-.849.864l.17-.185h-6.186l-.077.077h-6.232l-.246.262h-6.278l.17-.17h-6.248l-.077.077h-6.247l-.062.062h-12.433l-.077.077h-6.232l-.062.062h-6.277l.169-.169h-1.805v-.262h2.052l.139-.139h6.278l-.093.093h6.232l-.077.077h6.17l.293-.309h6.263l-.093.093h6.247l-.077.077h6.248l-.154.154h6.216l.386-.401h6.278l-.077.077h6.186l.123-.124h.324v.571h-.834zm-.849.879l.17-.185h-6.247l.262-.262h6.248l.123-.124h1.172v.571h-1.728zm-.848.879l.17-.186h-6.247l.263-.262h6.247l.123-.124h2.021v.571h-2.577zm-.848.879l.169-.185h-6.247l.263-.262h6.247l.123-.124h2.869v.571h-3.424zm-.849.88l.17-.185h-6.247l.262-.262h6.247l.124-.124h3.717v.571h-4.273zm-1.711 1.743l.555-.571h5.43v.571h-5.985zm9.717-3.564l.401-.417h.385v.417h-.786zm-.848.88l.401-.417h1.233v.417h-1.634zm-.849.863l.401-.417h2.082v.417h-2.483zm-.848.88l.4-.417h2.946v.417h-3.346zm-.848.879l.401-.417h3.794v.417h-4.195zm-.432.463h4.627v.417h-5.028l-.062.062h-6.263l.555-.571h6.263l-.092.092zm-.849.863h5.476v.417h-5.877l-.062.062h-6.263l.54-.555h6.263l-.077.076zm9.302-3.162l.246-.262h.524v.262h-.77zm-.848.88l.262-.263h1.373v.263h-1.635zm-.849.879l.263-.262h2.221v.262h-2.484zm-.849.879l.263-.262h3.069v.262h-3.332zm-.848.864l.247-.262h3.918v.262h-4.165zm-.586.617h4.751v.262h-5.013l-.077.077h-6.247l-.063.062h-6.263l.556-.571h6.263l-.093.093h6.247l-.061.077zm-.848.879h5.599v.263h-5.861l-.077.077h-6.247l-.062.062h-6.263l.555-.571h6.263l-.092.092h6.247l-.062.077zm-.849.879h6.247l-.154.154h6.263l-.277.278h-6.278l.17-.17h-6.248l-.077.077h-6.247l-.062.062h-6.263l.556-.57h6.263l-.093.092h6.247l-.047.077zm-.848.88h6.247l.139-.139h6.278l-.555.57h-6.278l.169-.169h-6.247l-.077.077h-6.247l-.062.062h-6.247l-.016.016h-6.201l-.077.077h-6.231l-.062.062h-6.278l.17-.169h-1.806v-.262h2.052l.139-.139h6.278l-.093.093h6.232l-.077.077h6.186l.324-.324h6.263l-.093.093h6.247l-.077.075zm-.849.863h6.247l.14-.139h6.277l-.555.571h-6.278l.17-.17h-6.247l-.077.077h-6.248l-.062.062h-6.247l-.016.016h-6.201l-.077.077h-6.231l-.062.062h-6.278l.17-.169h-.957v-.262h1.204l.139-.139h6.277l-.092.093h6.231l-.077.077h6.186l.324-.324h6.263l-.093.092h6.247l-.077.076zm-.847.88h6.247l.139-.139h6.278l-.556.571h-6.278l.17-.169h-6.247l-.077.077h-6.247l-.063.062h-5.954v-.324l.247-.247h6.263l-.093.093h6.247l-.076.076zm-.865.879h6.247l.139-.139h6.278l-.556.571h-6.277l.169-.17h-6.247l-.077.077h-6.247l-.062.062h-5.105v-.571h5.66l-.092.092h6.247l-.077.078zm-.787.818H334.91v-.108h4.813l-.093.092 6.247.016zm18.788-32.301l.031-.031v.031h-.031zm-.847.879l.169-.186h-6.186l-.077.077h-6.277l.4-.416h6.278l-.077.077h6.186l.123-.124h.324v.571h-.863zm-.849.879l.17-.185h-6.248l.263-.262h6.247l.123-.124h1.173v.571h-1.728zm-.849.88l.17-.185h-6.247l.262-.262h6.247l.124-.124h2.021v.571h-2.577zm-.848.863l.17-.185h-6.247l.262-.262h6.248l.123-.124h2.869v.571h-3.425zm-.848.88l.169-.185h-6.247l.263-.262h6.247l.123-.124h3.718v.571h-4.273zm-1.713 1.758l.556-.571h5.43v.571h-5.986zm-6.494 9.625v-.571h3.965l-.556.571h-3.409zm0 .88v-.571h3.116l-.556.571h-2.56zm0 .879v-.57h2.268l-.555.57h-1.713zm0 .864v-.571h1.42l-.556.571h-.864zm0 .895v-.586h.571l-.571.586zm4.535-1.836v-.416h3.902l-.4.416h-3.502zm0 .879v-.417h3.055l-.401.417h-2.654zm0 .879v-.417h2.206l-.401.417h-1.805zm0 .879v-.416h1.357l-.4.416h-.957zm0 .865v-.417h.494l-.401.417h-.093zm11.708 11.09v.262h-3.934l.263-.262h3.671zm0-.879v.262h-3.085l.262-.262h2.823zm0-.879v.262h-2.236l.262-.262h1.974zm0-.879v.262h-1.389l.263-.262h1.126zm0-.865v.262h-.54l.263-.262h.277zm0-.956v.417h-5.97l.401-.417h5.569zm0-.879v.417h-5.121l.401-.417h4.72zm0-.879v.417h-4.258l.401-.417h3.857zm0-.879v.417h-3.409l.401-.417h3.008zm0-.864v.417h-2.56l.401-.417h2.159zm0-.879v.417h-1.712l.4-.417h1.312zm0-.88v.417h-.817l-.062.062h-6.278l.062-.062v-.37h.354l.14-.139h6.277l-.092.092h.416zm0-.972v.54l-.031.031h-6.277l.169-.17h-.956v-.262h1.203l.139-.139h5.753zm0-.863v.571h-5.461l.17-.17h-1.805v-.262h2.052l.139-.139h4.905zm0-.88v.571h-4.612l.17-.17h-2.653v-.262h2.9l.139-.139h4.056zm0-.879v.571h-3.764l.17-.169h-3.502v-.262h3.764l.139-.139h3.193zm0-.879v.571h-2.9l.17-.17h-4.35v-.262h4.612l.139-.139h2.329zm0-.879v.571h-2.052l.17-.17h-5.198v-.262h5.46l.14-.139h1.48zm0-.864v.571h-1.203l.17-.17h-6.047v-.2l-.263.277h-4.35v-.417h4.751l-.077.077h6.247l.139-.139h.633zm0-.74v.432h-.354l.169-.169h-6.247l-.077.077h-5.198v-.417h5.6l-.077.077h6.184zm0-.88v.262h-5.584l-.077.077h-6.063l.016-.216-.262.277h-4.258v-.571h4.813l-.092.093h6.247l-.077.077h5.337zm0-.879v.262h-4.735l-.077.077h-6.247l-.063.062h-5.105v-.571h5.661l-.093.092h6.248l-.077.077h4.488zm0-.864v.262h-3.887l-.077.077h-6.248l-.062.062h-5.954v-.324l.247-.247h6.263l-.093.092h6.247l-.077.077h3.641zm0-.879v.263h-3.039l-.077.077h-6.247l-.062.062h-6.201l-.17.185h-6.2l-.077.077h-6.232l-.062.062h-6.278l.17-.169h-.956v-.262h1.203l.139-.139h6.278l-.093.093h6.231l-.077.077h6.14l.479-.494h6.263l-.093.092h6.247l-.077.077h2.791zm0-.879v.262h-2.19l-.077.077h-6.247l-.062.062h-6.201l-.17.185h-6.201l-.077.077h-6.231l-.062.062h-6.278l.17-.169h-1.805v-.262h2.051l.14-.139h6.277l-.092.092h6.231l-.077.077h6.14l.478-.494h6.263l-.092.093h6.247l-.077.077h1.942zm0-.88v.262h-1.326l-.077.077h-6.248l-.062.062h-6.263l.556-.57h6.263l-.093.092h6.247l-.077.077h1.08zm0-.863v.262h-.479l-.077.077h-6.247l-.062.062h-6.263l.556-.571h6.263l-.093.093h6.247l-.077.077h.232zm0-.957v.417h-5.954l-.062.062h-6.263l.555-.571h6.263l-.092.092h5.553zm0-.879v.417h-5.105l-.062.062h-6.263l.555-.571h6.263l-.093.093h4.705zm0-.879v.417h-4.258l-.062.062h-6.263l.556-.571h6.263l-.093.093h3.857zm0-.88v.417h-3.425l.401-.417h3.024zm0-.863v.417h-2.576l.401-.417h2.175zm0-.879v.416h-1.728l.401-.416h1.327zm0-.88v.417h-.879l.4-.417h.479zm-.277-45.32l.262-.262h-6.278l-.262.262h6.278zm-.864.88l.263-.262h-6.278l-.263.262h6.278zm-6.972-31.406l.03-.031v.031h-.03zm-5.954 6.124l.555-.571h5.43v.571h-5.985zm-6.494 9.625v-.571h3.964l-.556.571h-3.408zm0 .879v-.571h3.115l-.555.571h-2.56zm0 .879v-.571h2.268l-.556.571h-1.712zm0 .88v-.571h1.419l-.556.571h-.863zm0 .879v-.586h.57l-.57.586zm16.212-16.705l.4-.417h.386v.417h-.786zm-.849.879l.401-.417h1.233v.417h-1.634zm-.849.863l.401-.417h2.082v.417h-2.483zm-.848.88l.401-.417h2.946v.417h-3.347zm-.848.879l.4-.417h3.795v.417h-4.195zm-.433.462h4.628v.417h-5.028l-.062.062h-6.263l.555-.571h6.263l-.093.092zm-.847.865h5.476v.416h-5.877l-.062.062h-6.263l.555-.571h6.263l-.092.093zm-7.004 10.057v-.417h3.903l-.401.417h-3.502zm0 .879v-.417h3.055l-.401.417h-2.654zm0 .864v-.417h2.206l-.4.417h-1.806zm0 .879v-.417h1.357l-.4.417h-.957zm0 .879v-.417h.494l-.401.417h-.093zm16.027 8.453v.262h-5.707l.262-.262h5.445zm0-.879v.262h-4.859l.263-.262h4.596zm0-.879v.262h-3.934l-.077.077h-6.093l-.062.062h-6.278l.17-.17h-6.247l-.077.077h-6.248l-.062.062h-6.263l.556-.571h6.263l-.093.093h6.247l-.077.077h6.247l-.153.154h6.093l.185-.2h6.278l-.077.077h3.702zm0-.879v.262h-3.085l-.077.077h-6.278l.401-.417h6.278l-.077.077h2.838zm0-.864v.262h-2.236l-.077.077h-6.278l.401-.417h6.277l-.077.077h1.99zm0-.879v.262h-1.389l-.077.077h-6.277l.4-.417h6.278l-.077.077h1.142zm0-.879v.262h-.54l-.077.077h-6.278l.401-.416h6.278l-.077.077h.293zm0-.957v.417h-6.031l.401-.417h5.63zm0-.879v.417h-5.137l-.062.062h-6.278l.062-.062v-.37h.355l.139-.139h6.278l-.093.092h4.736zm0-.864v.417h-4.288l-.062.062h-6.278l.17-.169h-.957v-.262h1.203l.14-.139h6.277l-.092.092h3.887zm0-.879v.417h-3.439l-.063.062h-6.277l.169-.17h-1.805v-.262h2.052l.139-.139h6.278l-.093.092h3.039zm0-.879v.417h-2.592l-.062.062h-6.278l.17-.169h-2.653v-.263h2.9l.139-.139h6.278l-.093.093h2.191zm0-.88v.417h-1.743l-.062.062h-6.278l.17-.169h-3.502v-.262h3.764l.14-.139h6.277l-.092.093h1.326zm0-.863v.417h-.895l-.062.062h-6.278l.17-.169h-4.351v-.262h4.612l.139-.139h6.278l-.093.093h.48zm0-.972v.509h-.046l-.063.062h-6.277l.169-.169h-5.198v-.262h5.461l.139-.139h5.815zm0-.88v.571h-5.522l.17-.17h-6.047v-.2l-.262.277h-4.351v-.417h4.751l-.077.077h6.248l.139-.139h4.951zm0-.879v.571h-4.674l.17-.169h-6.247l-.077.077h-5.199v-.417h5.6l-.077.077h6.247l.14-.139h4.117zm0-.864v.571h-3.825l.17-.17h-6.248l-.077.077h-6.062l.015-.216-.262.278h-4.258v-.571h4.813l-.093.093h6.247l-.077.077h6.247l.139-.139h3.271zm0-.879v.571h-2.977l.169-.169h-6.247l-.077.077h-6.247l-.062.062h-5.106v-.571h5.661l-.092.093h6.247l-.077.077h6.247l.139-.139h2.422zm0-.879v.571h-2.129l.17-.17h-6.247l-.077.077h-6.247l-.063.062h-5.954v-.186h-6.186l-.077.077h-6.231l-.062.062h-6.278l.062-.062v-.37h.354l.14-.139h6.277l-.092.092h6.231l-.077.077h6.063l.123-.124h6.263l-.093.093h6.247l-.076.077h6.247l.139-.139h1.573zm0-.879v.571h-1.28l.17-.17h-6.247l-.077.077h-6.248l-.062.062h-6.263l.17-.185h-6.063l-.077.077h-6.231l-.062.062h-6.278l.17-.17h-.957v-.262h1.203l.14-.139h6.277l-.092.093h6.231l-.077.077h6.063l.123-.124h6.263l-.093.092h6.247l-.076.077h6.247l.139-.139h.74zm0-.741v.432h-.432l.17-.169h-6.248l-.077.077h-6.247l-.062.062h-6.263l.17-.185h-6.063l-.062.092h-6.231l-.063.062h-6.277l.169-.17h-1.805v-.262h2.052l.139-.139h6.278l-.093.093h6.232l-.077.077h6.046l.124-.124h6.263l-.093.092h6.247l-.077.077 6.28-.015zm0-.863v.262h-5.661l-.077.077h-6.247l-.062.062h-6.263l.555-.571h6.263l-.092.093h6.247l-.077.077h5.414zm0-.88v.262h-4.797l-.077.077h-6.248l-.062.062h-6.263l.556-.571h6.263l-.093.093h6.247l-.077.077h4.551zm0-.879v.262h-3.949l-.077.077h-6.247l-.062.062h-6.263l.556-.571h6.263l-.093.092h6.247l-.077.077h3.702zm0-.879v.262h-3.116l.263-.262h2.853zm0-.864v.263h-2.268l.263-.263h2.005zm0-.879v.262h-1.419l.262-.262h1.157zm0-.88v.262h-.57l.262-.262h.308zm-9.147-3.671l.154-.154h-6.278l-.262.263h6.154l-.447.462h1.728v-.571h-1.049zm-.848.879l.153-.154h-6.277l-.263.262h6.155l-.447.463h2.575v-.571h-1.896zm-.849.88l.154-.154h-6.278l-.263.262h6.155l-.447.463h3.424v-.571h-2.745zm-.848.879l.154-.154h-6.278l-.262.263h6.154l-.447.462h4.272v-.571h-3.593zm1.264-7.713l.077-.077h6.201l.263-.262h-6.201l.077-.077h-6.278l-.401.417h6.262zm-.847.88l.076-.077h6.201l.263-.262h-6.201l.077-.077h-6.278l-.4.417h6.262zm-.849.879l.077-.077h6.201l.262-.262h-6.201l.077-.077h-6.278l-.4.417h6.262zm-.848.879l.077-.077h6.201l.262-.262h-6.201l.077-.077h-6.277l-.401.417h6.262zm-.849.864l.077-.077h6.201l.263-.262h-6.201l.077-.077h-6.278l-.401.417h6.262v-.001zm-17.399-11.338v-.571h3.964l-.555.571h-3.409zm0 .864v-.571h3.116l-.556.571h-2.56zm0 .879v-.57h2.268l-.556.57h-1.712zm0 .879v-.571h1.419l-.556.571h-.863zm0 .895v-.586h.57l-.57.586zm16.55 8.7l.077-.077h6.094l-.447.462h.879v-.57h-.2l.154-.154h-6.201l.077-.077h-6.278l-.401.417h6.246zm-12.015-10.536v-.417h3.902l-.401.417h-3.501zm0 .88v-.417h3.054l-.4.417h-2.654zm0 .879v-.417h2.206l-.401.417h-1.805zm0 .864v-.416h1.357l-.401.416h-.956zm0 .879v-.417h.493l-.4.417h-.093zm10.628-10.844h6.247l-.154.154h6.263l-.277.277h-6.278l.17-.169h-6.247l-.063.077h-6.247l-.062.062h-6.263l.247-.247h-6.186l-.077.077h-6.232l-.062.062h-6.278l.17-.17h-.956v-.262h1.203l.139-.139h6.278l-.093.093h6.231l-.077.077h6.186l.047-.062h6.263l-.093.093h6.247l-.046.077zm-.849.879h6.247l.139-.139h6.278l-.555.571h-6.278l.17-.17h-6.248l-.077.077h-6.247l-.062.062h-6.263l.247-.247h-6.186l-.077.077h-6.263l-.062.062h-6.278l.062-.062v-.37h.354l.139-.139h6.278l-.093.092h6.232l-.077.077h6.186l.046-.062h6.263l-.093.093h6.248l-.03.078zm-.863.879h6.247l.139-.139h6.278l-.556.571h-6.278l.17-.17h-6.247l-.077.077h-6.247l-.063.062h-6.262l.246-.247h-6.186l-.077.077H325.5l.401-.417h6.278l-.077.077h6.186l.046-.062h6.263l-.092.092h6.247l-.061.079zm-.849.864h6.247l.139-.139h6.278l-.556.571h-6.277l.169-.17h-6.247l-.077.077h-6.247l-.062.062h-5.954v-.293l-.047.046h-6.201l-.077.077h-6.277l.4-.417h6.278l-.077.077h6.186l.047-.062h6.263l-.093.092h6.247l-.062.079zm-.849.88h6.247l.139-.139h6.278l-.555.57h-6.278l.17-.169h-6.248l-.077.077h-6.247l-.062.062h-5.105v-.571h5.661l-.093.093h6.247l-.077.077zm-.848.879h6.248l.139-.139h6.277l-.555.571h-6.278l.17-.169h-6.247l-.077.077h-6.063l.016-.216-.263.278h-4.257v-.571h4.813l-.093.093h6.247l-.077.076zm-.848.879h6.247l.139-.139h6.278l-.37.386h6.231l-.123.124h-6.232l-.062.062h-6.278l.17-.17h-6.247l-.077.077h-5.198v-.417h5.6l-.078.077zm-.91 1.126v-.2l-.263.277h-4.35v-.417h4.751l-.077.077h6.247l.139-.139h6.278l-.093.093h6.232l-.401.416h-6.232l-.062.062h-6.277l.169-.17h-6.061zm0 .879v-.262h5.46l.139-.139h6.278l-.093.092h6.232l-.401.417h-6.231l-.062.062h-6.278l.17-.17h-5.214zm0 .88v-.262h4.611l.14-.139h6.277l-.092.093h6.231l-.401.417h-6.231l-.062.062h-6.278l.17-.169h-4.365zm0 .879v-.263h3.764l.139-.139h6.278l-.093.093h6.231l-.4.417h-6.232l-.062.062h-6.278l.17-.169h-3.517zm0 .864v-.262h2.899l.139-.139h6.278l-.093.093h6.232l-.401.417h-6.231l-.062.062h-6.278l.169-.169h-2.652zm18.803 6.37v-.571h3.116l-.556.571h-2.56zm0 .879v-.57h2.268l-.555.57h-1.713zm0 .865v-.571h1.42l-.556.571h-.864zm0 .894v-.586h.571l-.571.586zm3.27-4.088v.571h-3.271v-.571h3.271zm0-.879v.57h-3.271v-.57h3.271zm0-.864v.571h-3.271v-.571h3.271zm0-.879v.57h-3.271v-.231l-.03.031h-6.201l-.077.077h-6.231l-.063.062h-6.277l.062-.062v-.37h.354l.139-.139h6.278l-.093.093h6.232l-.077.077h6.124l.107-.108h3.024zm0-.879v.571h-2.715l.2-.201h-6.123l-.077.077h-6.232l-.062.062h-6.278l.17-.17h-.956v-.262h1.203l.139-.139h6.278l-.093.092h6.231l-.077.077h6.124l.108-.108h2.16zm0-.88v.571h-1.866l.2-.201h-6.124l-.077.077h-6.231l-.062.062h-6.278l.17-.17h-1.805v-.262h2.051l.14-.139h6.277l-.092.093h6.231l-.077.077h6.124l.107-.108h1.312zm0-.863v.571h-1.018l.555-.571h.463zm-58.137 110.969l.246-.262h.524v.262h-.77zm-.849.88l.247-.262h1.372v.262h-1.619zm-.849.864l.263-.262h2.221v.262h-2.484zm-2.93-3.425l.401-.417h.386v.417h-.787zm-.849.88l.401-.417h1.234v.417h-1.635zm-.849.879l.401-.417h2.083v.417h-2.484zm-.847.879l.4-.417h2.946v.417h-3.346zm-.849.864l.401-.417h3.794v.417h-4.195zm-.37-6.062l.03-.031v.031h-.03zm-.849.879l.186-.185h-6.217l.263-.262h6.216l.108-.123h.324v.57h-.88zm-.848.879l.186-.185h-6.217l.263-.262h6.216l.108-.124h1.172v.571h-1.728zm-.848.864l.185-.185h-6.216l.262-.262h6.217l.107-.123h2.021v.57h-2.576zm-.849.879l.185-.185h-6.216l.262-.262h6.217l.108-.124h2.868v.571h-3.424zm-1.712 1.758l.555-.57h4.581v.57h-5.136zm-22.258-15.456l.03-.031v.031h-.03zm-.849.88l.555-.571h.324v.571h-.879zm4.612 1.681l.4-.417h.386v.417h-.786zm-.848.879l.401-.417h1.233v.417h-1.634zm-.849.864l.401-.417h2.082v.417h-2.483zm-.849.879l.401-.417h2.946v.417h-3.347zm-.847.879l.4-.417h3.795v.417h-4.195zm8.036-1.835l.263-.262h.524v.262h-.787zm-.863.879l.262-.262h1.373v.262h-1.635zm-.849.88l.262-.263h2.222v.263h-2.484zm-.849.879l.263-.262h3.069v.262h-3.332zm-.848.879l.263-.262h3.918v.262h-4.181zm16.413 8.577l.555-.571h5.43v.571h-5.985zM368.46 141.5v.185h-.17l.17-.185zm-12.541 13.004l.154-.154h-6.278l-.262.262h6.154l-.447.462h5.121v-.57h-4.442zm10.551 27.611l.263-.263h-6.278l-.262.263h6.277zm1.99 43.083v.031h-.031l.031-.031zm-10.057 29.756h-6.277l.077-.077h6.277l-.077.077zm1.588-27.489h-6.247l-.262.262h6.247l-.17.186h5.121v-.571h-4.58l-.109.123zm-17.306 17.878h-6.247l-.263.262h6.247l-.17.186h5.122v-.571h-4.582l-.107.123zm25.775-65.172v.185h-.186l.186-.185zm-46.415 73.641l.062-.062h6.232l.077-.077h6.201l.262-.262h-6.201l.077-.077h-6.231l.093-.093h-6.278l-.139.139h-.355v.37l-.062.062h6.262zm7.497-110.723l.262-.262h-6.277l-.263.262h6.278zm-17.183 17.708l.262-.262h-6.293l-.263.262h6.294zm-17.308 17.878l.263-.262h-6.278l-.263.262h6.278zm6.494-45.35h-6.247l-.263.262h6.247l-.169.185h5.121v-.571h-4.581l-.108.124zm-17.307 17.863h-6.247l-.262.262h6.247l-.17.186h5.121v-.571h-4.581l-.108.123zm65.588 48.172h-6.231l-.263.262h6.232l-.186.201h4.272v-.571h-3.717l-.107.108zm-34.491 35.587h-6.231l-.263.262h6.232l-.186.201h4.273v-.571h-3.718l-.107.108zm-17.215 17.708h-6.216l-.263.262h6.217l-.186.185h4.273v-.571h-3.718l-.107.124zm40.693-80.505h-6.263l-.262.262h6.247l-.17.185h5.121v-.571h-4.581l-.092.124zm-17.199 17.708h-6.247l-.263.262h6.247l-.169.185h5.121v-.57h-4.581l-.108.123zm-17.308 17.863h-6.247l-.262.262h6.247l-.17.185h5.121v-.571h-4.581l-.108.124zm-17.184 17.708h-6.247l-.263.262h6.248l-.17.186h5.121v-.571h-4.581l-.108.123zm-13.59-92.32v-.417h3.733l-.077.077h6.247l.139-.139h6.278l-.556.571h-6.277l.169-.169h-6.247l-.077.077h-3.332zm0 .879v-.417h2.885l-.077.077h6.247l.139-.139h6.278l-.555.571h-6.278l.17-.169h-6.248l-.077.077h-2.484zm0 .879v-.417h2.036l-.077.077h6.248l.139-.139h6.277l-.37.385h6.232l-.124.124h-6.231l-.062.062h-6.278l.17-.17h-6.247l-.077.077h-1.636zm0 .864v-.417h1.188l-.077.077h6.247l.139-.139h6.278l-.093.092h6.231l-.4.417h-6.232l-.062.062h-6.278l.17-.17h-6.047v-.201l-.262.278h-.802zm0 .802v-.339h.34l-.34.339zm0 10.875v-.278h2.19l.386-.401h6.278l-.077.077h6.186l.123-.124h.324v.571h-.879l.169-.185h-6.186l-.077.077h-6.231l-.247.262h-1.959zm0 .879v-.57h1.666l-.555.57h-1.111zm0 .88v-.571h.817l-.555.571h-.262zm0 3.439v-.124h3.286l-.124.124h-3.162zm0 .864v-.417h2.715l-.4.417h-2.315zm0 .88v-.417h1.867l-.401.417h-1.466zm0 .879v-.417h1.019l-.401.417h-.618zm0 .632v-.17h.17l-.17.17zm0 1.913v-.262h4.566l.323-.324h6.263l-.092.093h6.247l-.077.077h6.247l.139-.139h6.278l-.556.57h-6.277l.169-.169h-6.247l-.077.077h-6.247l-.062.062h-6.247l-.016.016h-4.334zm0 .879v-.263h3.718l.324-.324h6.263l-.093.093h6.247l-.077.077h6.247l.14-.139h6.277l-.555.571h-6.278l.17-.169h-6.248l-.077.077h-6.247l-.062.062h-6.247l-.016.016h-3.486zm0 .879v-.262h2.885l-.262.262h-2.623zm0 .88v-.262h2.036l-.262.262h-1.774zm0 .863v-.262h1.188l-.263.262h-.925zm0 .88v-.262h.34l-.263.262h-.077zm0 7.126v-.417h2.746v.417h-2.746zm0 .864v-.417h2.746v.417h-2.746zm0 .879v-.417h2.746v.417h-2.746zm0 .879v-.417h2.746v.417h-2.746zm0 .88v-.417h2.685l-.077.077h4.751v.262h-5.014l-.077.077h-2.268zm0 .879v-.417h1.82l-.077.077h5.6v.262h-5.861l-.077.077h-1.405zm0 .864v-.417h.972l-.077.077h6.248l-.154.154h6.216l.386-.401h6.278l-.077.077h6.201l-.263.262h-6.201l-.077.077h-6.231l-.247.262h-6.277l.169-.169h-6.247l-.077.077h-.542zm0 .802v-.34h.124l-.077.077h6.247l.139-.139h6.278l-.556.571h-6.278l.17-.169h-6.047zm0 .879v-.262h5.445l.139-.139h6.278l-.556.571h-6.277l.169-.17h-5.198zm0 .879v-.262h4.597l.14-.139h6.277l-.555.57h-6.278l.17-.169h-4.351zm0 .864v-.262h3.749l.139-.139h6.278l-.556.571h-6.278l.17-.17h-3.502zm0 .88v-.262h2.9l.139-.139h6.278l-.556.571h-6.278l.17-.169h-2.653zm0 .878v-.262h2.036l.139-.139h6.278l-.37.386h6.232l-.124.123h-6.231l-.062.062h-6.278l.17-.17h-1.79zm0 .88v-.262h1.188l.139-.139h6.277l-.092.092h6.231l-.401.417h-6.231l-.062.062h-6.278l.17-.17h-.941zm0 1.034v-.077l.093-.093h-.093v-.262h.34l.139-.139h6.278l-.093.092h6.231l-.4.417h-6.232l-.062.062h-6.201zm0 .878v-.571h5.908l-.093.093h6.232l-.401.417h-6.231l-.063.062h-5.352zm0 .88v-.571h5.044l-.092.093h6.247l-.401.417h-6.231l-.062.062h-4.505zm0 .879v-.571h4.196l-.093.092h6.231l-.4.417h-6.232l-.062.062h-3.64zm0 .864v-.571h3.348l-.093.092h6.232l-.077.077h6.2l-.262.263h-6.201l-.077.077h-6.231l-.063.062h-2.776zm0 .879v-.57h2.499l-.093.092h6.232l-.077.077h6.201l-.263.262h-6.201l-.077.077h-6.231l-.046.062h-1.944zm0 .879v-.571h1.65l-.092.093h6.231l-.077.077h6.201l-.263.262h-6.2l-.077.077h-6.232l-.062.062h-1.079zm0 1.682v-.417h6.094l-.077.077h6.2l-.262.262h-6.201l-.077.077h-5.677zm0 .879v-.417h5.245l-.077.077h6.201l-.263.262h-6.201l-.077.077h-4.828v.001zm0 .879v-.417h4.396l-.077.077h6.201l-.263.262h-6.2l-.077.077h-3.98zm0 .88v-.417h3.548l-.077.077h6.201l-.262.262h-6.201l-.077.077h-3.132zm0 .879v-.417h2.7l-.077.077h6.2l-.262.262h-6.201l-.077.077h-2.283zm0 2.545v-.262h6.278l-.262.262h-6.016zm0 .879v-.262h5.43l-.262.262h-5.168zm0 .879v-.262h4.582l-.263.262h-4.319zm0 4.906v-.447l.124-.124h6.263l-.093.093h5.476v.417h-5.877l-.062.062h-5.831zm0 .879v-.571h5.538l-.093.093h6.247l-.077.077h4.751v.262h-5.013l-.077.077h-6.247l-.063.062h-4.966zm0 .864v-.571h4.689l-.093.093h6.248l-.077.077h5.599v.262h-5.861l-.077.077h-6.247l-.062.062h-4.119zm0 .879v-.571h3.841l-.092.092h6.247l-.077.077h6.247l-.154.154h6.217l.386-.401h6.277l-.077.077h6.186l.124-.124h.323v.571h-.879l.17-.185h-6.186l-.077.077h-6.232l-.246.262h-6.278l.17-.17h-6.247l-.077.077h-6.248l-.062.062h-3.256zm0 .879v-.57h2.993l-.093.092h6.247l-.077.077h6.247l.139-.139h6.278l-.555.571h-6.278l.17-.17h-6.248l-.077.077h-6.247l-.062.062h-2.437zm0 .879v-.571h2.145l-.093.093h6.247l-.062.077h6.247l.139-.139h6.278l-.555.57H287.6l.17-.169h-6.248l-.077.077h-6.247l-.062.062h-1.604zm0 .864v-.571h1.296l-.093.093h6.248l-.077.077h6.247l.139-.139h6.278l-.556.571h-6.278l.17-.169h-6.247l-.077.077h-6.247l-.063.062h-.74zm0 .818v-.509h.447l-.092.093h6.247l-.077.077h6.247l.139-.139h6.278l-.556.571h-6.277l.169-.169h-6.247l-.077.077h-6.201zm0 .879v-.417h5.754l-.077.077h6.247l.139-.139h6.278l-.555.571h-6.278l.17-.17h-6.248l-.077.077h-5.353zm0 .879v-.417h4.905l-.077.077h6.247l.14-.139h6.277l-.37.385h6.232l-.124.124h-6.231l-.062.062h-6.278l.17-.17h-6.247l-.077.077h-4.505zm0 .864v-.417h4.058l-.077.077h6.247l.139-.139h6.278l-.093.092h6.231l-.4.417h-6.232l-.062.062h-6.278l.154-.17h-6.047v-.201l-.262.278h-3.656zm0 .88v-.417h3.209l-.401.417h-2.808zm0 .878v-.416h2.36l-.401.416h-1.959zm0 .88v-.417h1.512l-.4.417h-1.112zm0 .864v-.417h.664l-.401.417h-.263zm0 7.99v-.277h5.245l.2-.201h6.278l-.077.077h6.186l.123-.124h.324v.571h-.879l.169-.185h-6.186l-.077.077h-6.123l-.063.062h-5.12zm0 .864v-.571h4.828l-.555.571h-4.273zm0 .879v-.571h3.98l-.556.571h-3.424zm0 .879v-.571h3.132l-.556.571h-2.576zm0 .88v-.571h2.283l-.556.571h-1.727zm0 .864v-.571h1.435l-.555.571h-.88zm0 .878v-.571h.571l-.37.386h6.231l-.123.124h-6.232l-.062.062h-.015zm0 .818v-.417h5.877l-.4.417h-5.477zm0 .879v-.417h5.029l-.401.417h-4.628zm0 .865v-.401h4.165l-.401.417h-3.764v-.016zm0 .878v-.417h3.316l-.4.417h-2.916zm0 .88v-.417h2.469l-.401.417h-2.068zm0 .879v-.417h1.62l-.077.077h6.077l.124-.139h6.263l-.093.093h6.247l-.077.077h6.247l.139-.139h6.278l-.555.57h-6.278l.17-.169h-6.248l-.077.077h-6.247l-.061.062h-6.263l.17-.169h-6.078l-.077.077h-1.204zm0 .879v-.417h.771l-.077.077h6.078l.123-.139h6.263l-.093.092h6.247l-.077.077h6.248l.139-.139h6.277l-.555.571h-6.278l.17-.169h-6.247l-.077.077h-6.248l-.062.062h-6.263l.17-.17h-6.077l-.077.077h-.355zm0 .802v-.262h5.924l.123-.139h6.263l-.093.092h6.248l-.077.077h6.247l.139-.139h6.278l-.556.571h-6.278l.17-.17h-6.247l-.077.077h-6.247l-.063.062h-5.954v-.185l-.015.016h-5.785zm0 .864v-.262h5.198l-.262.262h-4.936zm0 .88v-.262h4.351l-.263.262h-4.088zm0 .879v-.263h3.502l-.263.263h-3.239zm0 .879v-.262h2.653l-.262.262h-2.391zm0 .864v-.262h1.805l-.262.262h-1.543zm0 .879v-.262h.957l-.263.262h-.694zm0 .725v-.108h.093l-.093.108zm0 .71v-.571h1.064v.571h-1.064zm0 .879v-.571h1.064v.571h-1.064zm0 .879v-.571h1.064v.571h-1.064zm0 .879v-.571h1.064v.571h-1.064zm0 .864v-.571h1.064v.571h-1.064zm0 .879v-.571h1.064v.571h-1.064zm0 .879v-.57h1.064l-.093.092h4.628v.417h-5.028l-.062.062h-.509zm0 .803v-.494h.216l-.092.093h5.476v.417h-5.6v-.016zm0 .879v-.417h5.522l-.077.077h4.751v.262h-5.013l-.077.077h-5.106zm0 .879v-.417h4.674l-.077.077h5.6v.262h-5.861l-.077.077h-4.259zm0 .879v-.417h3.826l-.077.077h6.247l-.154.154h6.263l-.277.278h-6.278l.169-.17h-6.247l-.077.077h-3.395zm0 .88v-.417h2.978l-.077.077h6.247l.139-.139h6.278l-.556.571h-6.277l.169-.17h-6.247l-.077.077h-2.577zm0 .863v-.417h2.129l-.077.077h6.247l.139-.139h6.278l-.555.571h-6.278l.17-.17h-6.248l-.077.077h-1.728zm0 .88v-.417h1.28l-.077.077h6.248l.139-.139h6.277l-.555.571h-6.278l.17-.169h-6.247l-.077.077h-.88zm0 .879v-.416h.433l-.077.077h6.247l.139-.139h6.278l-.556.571h-6.278l.17-.17h-6.247l-.077.077h-.032zm0 .802v-.262h5.738l.139-.139h6.278l-.555.571h-6.278l.17-.17h-5.492zm0 .864v-.262h4.89l.14-.139h6.277l-.37.386h6.232l-.124.124h-6.231l-.062.062h-6.278l.17-.17h-4.644v-.001zm0 .818v-.185h4.042l.139-.139h6.278l-.093.093h6.231l-.231.231h-16.366zm66.931-123.141h12.525l-.077.077h-6.247l-.062.062h-6.263l.124-.139zm-18.695 0h6.278l-.016.031h-6.278l.016-.031zm-12.51 0h1.512v.124h-1.65l.138-.124zm-12.495 0h9.487v.201h-3.425l.17-.185-6.232-.016zm-12.401 0h6.278l-.494.509h-6.278l.17-.17h-6.247l-.077.077h-4.181v-.417h4.582l-.077.077h6.247l.077-.076zm48.049 85.518l.262-.262h-6.277l-.263.262h6.278z"/></g></svg>