<svg xmlns="http://www.w3.org/2000/svg" width="272.686" height="337.292" viewBox="310.569 312.454 272.686 337.292"><path fill="none" d="M318.115 382.833l-.03-.007-.169.093-.497-.116c-.085.268-.172.532-.256.804l.662.155c.096-.312.193-.621.29-.929zM316.935 386.869l-.668-.157c-.085.309-.163.629-.245.943l.668.156c.081-.313.161-.632.245-.942zM316.583 388.221l-.668-.156c-.082.319-.169.63-.248.955l.668.157c.079-.327.167-.636.248-.956zM317.707 384.166l-.662-.155a75.1 75.1 0 00-.277.943l.662.155c.092-.317.184-.632.277-.943zM317.312 385.511l-.662-.155c-.092.319-.188.626-.277.951l.668.156c.087-.322.18-.634.271-.952zM315.37 393.038l.103.024c.05-.244.096-.496.146-.737l-.675-.159c-.066.314-.13.635-.194.954l.312.073.308-.155zM316.24 389.581l-.674-.158c-.076.311-.144.638-.217.954l.675.158c.074-.317.142-.642.216-.954zM315.298 393.965l-.682-.16a67.16 67.16 0 00-.092.477l.681.16.093-.477zM322.465 371.758c2.589-5.432 5.349-9.671 7.773-12.817l-.229.115-.46-.108c-2.489 3.224-5.334 7.599-7.986 13.24l.873-.437.029.007zM319.944 377.615l-.643-.15c-.09.231-.181.457-.27.691l.648.152c.089-.232.176-.464.265-.693zM321.576 373.686l-.637-.148c-.098.218-.193.446-.29.667l.636.148c.097-.223.194-.448.291-.667zM318.519 381.603l-.655-.153c-.078.234-.155.472-.232.708l.655.153.232-.708zM315.036 395.316l-.681-.16c-.03.162-.064.317-.094.48l.683.16c.029-.163.063-.318.092-.48zM320.477 376.279l-.643-.15c-.095.231-.188.469-.281.704l.643.15c.093-.236.187-.472.281-.704zM321.016 374.973l-.637-.148c-.099.231-.2.451-.299.686l.643.15c.097-.233.195-.458.293-.688zM322.176 372.37l-.63-.147c-.107.23-.217.453-.324.688l.63.147c.107-.236.217-.456.324-.688zM318.964 380.277l-.648-.152c-.08.227-.161.449-.24.679l.655.153.233-.68zM319.453 378.931l-.648-.152c-.087.233-.172.47-.257.707l.649.151c.085-.237.17-.472.256-.706zM315.93 390.951l-.674-.16c-.072.318-.146.633-.217.956l.675.157c.07-.322.145-.634.216-.953zM312.355 426.419l-.714-.167-.018.532.713.167.019-.532zM312.241 429.288l-.712-.166-.021.497.711.165c.008-.17.016-.332.022-.496zM311.541 439.715c.02-.199.037-.4.055-.6l-.128-.032.154-.647.035.009c.261-2.98.437-6.015.553-8.471l-.736.368c-.134 2.755-.341 6.177-.653 9.42l-.016.68.062.015-.069.3c-.051 1.979-.183 6.521-.409 9.92l.707.165c.307-4.473.445-11.127.445-11.127zM312.301 427.871l-.712-.167-.021.502.713.167.02-.502zM314.8 396.688l-.687-.16c-.028.164-.054.333-.081.498l.688.161.08-.499zM350.236 466.315l.331-.022c-.128.007-.244.011-.36.016l.029.006zM341.82 465.803l-.025.113c1.781.181 3.644.32 5.591.411l-.446-.104a104.044 104.044 0 01-5.12-.42zM310.758 454.11l-.686-.16c-.03.187-.061.348-.093.48l.664.155c.04-.115.078-.274.115-.475zM310.941 452.711l-.7-.164c-.017.175-.033.343-.051.502l.697.163c.019-.158.036-.325.054-.501zM311.064 451.278l-.706-.166c-.013.179-.025.354-.039.524l.704.165.041-.523zM313.712 404.978l-.7-.164c-.024.251-.051.5-.074.753l.7.164c.023-.254.05-.502.074-.753zM313.851 403.567l-.7-.164c-.027.245-.048.498-.073.745l.7.164c.025-.247.046-.499.073-.745zM313.915 402.902c.188-1.651.414-3.242.657-4.805l-.687-.161a115.64 115.64 0 00-.691 5.013l.294-.146.427.099zM313.233 411.946l-.314-.073.323-.162.042-1.119c.074-1.435.174-2.834.291-4.209l-.7-.164a129.506 129.506 0 00-.312 4.42l-.08 2.146.712.167.038-1.006zM312.641 422.198l-.701-.164-.045.484.701.163zM312.725 421.29l.265-2.894.189-5.018-.713-.166-.196 5.231-.257 2.79.149-.074zM312.512 423.604l-.702-.164-.043.469.701.163zM312.399 424.999l-.715-.167-.014.483.715.167.014-.483zM331.932 464.168c-11.104-2.518-17.502-6.488-20.054-8.364l-1.137-.267c.278.215.629.472 1.044.759l.994.233-.373.187c3.521 2.323 10.823 6.186 22.708 8.281l-3.301-.771.119-.058zM534.493 451.765l-.712.167c.021.322.043.662.064 1.02l.713-.167c-.021-.359-.043-.699-.065-1.02zM534.398 450.352l-.712.166.068 1.013.713-.167-.069-1.012zM331.091 357.864l-.575-.134c-.222.272-.45.564-.68.856l.577.135c.229-.294.456-.583.678-.857zM542.073 466.246c-.721.01-1.363-.024-1.946-.088l.235.118c.315.014.643.021.99.017 0 0 1.852.179 5.102.038l-.005-.019c-2.799.086-4.376-.066-4.376-.066zM534.187 443.343l-.719.168.011.743.719-.167-.011-.744zM547.762 466.263c.138-.009.282-.021.424-.03-.132.008-.264.016-.392.022l-.032.008zM534.252 448.385a958 958 0 00-.033-2.796l-.086-.043.085-.02-.011-.764-.719.168c.016 1.124.03 2.279.043 3.5 0 0 .05.624.126 1.683l.712-.166c-.07-.983-.117-1.562-.117-1.562zM534.948 460.317l-.717.168.02.513.717-.168a30.09 30.09 0 01-.02-.513zM537.038 465.339c-1.212-.595-1.717-1.314-1.895-1.648l-.039-.02.025-.006a1.538 1.538 0 01-.075-.163l-.01-.314-.619.145-.101-.051.008.267s.463 1.369 2.796 2.174l-.09-.384zM534.67 454.639l-.568-.284.545-.128c-.021-.348-.04-.682-.061-1.007l-.713.168.048.799.119.06.123.493-.208.049c.01.171.02.336.029.513l.287-.067.2.879-.438.103.026.501.536-.125.2.879-.69.161c.008.171.017.343.024.517l.716-.167c-.056-1.19-.115-2.309-.175-3.344zM535 461.75l-.718.168.017.516.718-.167-.017-.517zM534.887 458.896l-.715.167.021.504.716-.168a40.517 40.517 0 00-.022-.503zM534.162 441.904l-.719.168.013.762.719-.167-.013-.763zM537.724 465.633l-.503.117c.469.155 1.016.285 1.643.381l.402-.094a9.393 9.393 0 01-1.542-.404zM334.254 354.29l-.551-.129c-.25.254-.514.529-.79.823l.558.131c.273-.295.534-.57.783-.825zM336.7 351.989l-.519-.121c-.206.167-.522.437-.924.799l.531.125c.376-.345.681-.608.912-.803zM335.423 353.136l-.538-.126c-.252.235-.531.503-.832.802l.545.127c.299-.3.57-.563.825-.803zM533.967 433.416l-.717.168.016.518.717-.168-.016-.518zM533.742 427.129c-.369-2.793-.631-3.596-.631-3.596.158-.521.326-1.02.5-1.51a23.66 23.66 0 01-.609.986s-.192.374-.482 1.098c.111.514.287 1.449.502 3.067 0 0 .1 2.08.216 5.964l.717-.168c-.115-3.806-.213-5.841-.213-5.841zM337.194 351.59c3.017-2.306 6.032-5.258 7.71-6.971.188-.489.394-.945.624-1.358 0 0-4.449 4.826-8.926 8.275l.509.119.083-.065zM534.044 436.286l-.544.128-.177-.088c.041 1.643.081 3.49.117 5.543l.719-.168a791.23 791.23 0 00-.115-5.415zM332.096 356.653l-.564-.132c-.232.269-.472.555-.715.848l.571.133c.239-.291.477-.581.708-.849zM534.008 434.856l-.718.168.014.508.718-.169-.014-.507zM333.145 355.468l-.558-.13c-.24.261-.487.536-.742.826l.564.132c.251-.289.497-.567.736-.828zM541.506 404.993l11.877-2.776-.185-.093 11.97-2.792-.2-.108 12.047-2.823.309.154.971-.226c-.061-.325-.124-.654-.188-.983l-2.155.5.37.185-12.047 2.823-.139-.062-11.97 2.792-.17-.077-11.739 2.749c-.058.177-.113.352-.172.529l.696-.162.725.37zM551.24 401.137l11.97-2.792-.2-.108 12.047-2.822.309.154 2.664-.624c-.064-.324-.134-.652-.203-.98l-3.803.911.37.185-12.047 2.823-.139-.077-11.971 2.792-.926-.463 11.971-2.792-.201-.107 12.048-2.823.309.154 4.302-1.01c-.066-.315-.13-.626-.201-.946l-5.474 1.293.37.185-12.047 2.823-.14-.077-11.97 2.792-.926-.463 11.971-2.792-.201-.108 12.048-2.823.309.154 5.968-1.39c-.072-.32-.151-.645-.228-.968l-7.098 1.68.37.185-12.048 2.823-.139-.077-11.97 2.792-.926-.463 11.971-2.792-.201-.108 12.047-2.823.309.154 7.59-1.775c-.076-.317-.152-.634-.232-.955l-8.729 2.051.37.185-12.048 2.823-.139-.062-11.97 2.792-.926-.463 11.97-2.792-.2-.108 12.047-2.823.309.154 9.213-2.157c-.08-.314-.161-.629-.244-.947l-10.311 2.41.37.185-12.047 2.823-.139-.062-11.862 2.767a240.94 240.94 0 01-2.153 7.152l11.022-2.577-.185-.093zM553.291 393.316l12.047-2.823.309.154 10.79-2.527c-.084-.312-.175-.628-.262-.943l-11.917 2.792.37.185-12.047 2.823-.139-.062-9.445 2.203-.232.808 10.727-2.502-.201-.108zM555.882 385.742l11.985-2.808-.169-.092 6.646-1.555c-.079-.23-.156-.46-.237-.691l-7.428 1.737-.17-.092-11.985 2.807.37.185-9.484 2.223-.032.153c-.048.128-.094.271-.142.401l10.337-2.422.309.154z"/><path fill="none" d="M335.933 382.657l-11.985-2.808-.17.093-4.324-1.012c-.086.234-.171.469-.256.706l3.547.83-.17.092 11.985 2.808.309-.154 12.047 2.823-1.265.632-12.047-2.823.37-.185-11.985-2.807-.17.092-2.854-.667-.233.681 2.055.48-.17.093 11.985 2.807.309-.154 12.047 2.823-1.265.633-12.047-2.823.37-.185-11.985-2.807-.17.092-1.341-.313-.232.708.555.13-.169.092 11.985 2.808.309-.154 12.047 2.823-1.265.632-12.048-2.823.37-.185-11.955-2.801c-.098.308-.194.617-.29.929l10.888 2.55.309-.154 12.048 2.823-1.266.632-12.047-2.823.37-.185-10.42-2.44a75.1 75.1 0 00-.277.943l9.355 2.191.309-.154 12.047 2.823-1.265.632-12.047-2.823.37-.185-8.888-2.082c-.091.317-.184.63-.271.952l7.786 1.824.309-.154 12.047 2.823-.849.432 11.971 2.792-.278.139-11.97-2.792-.139.062-12.047-2.823.37-.185-7.306-1.711c-.084.31-.164.628-.245.943l6.178 1.447.309-.154 12.047 2.823-.2.108 11.97 2.792-.926.463-11.97-2.792-.139.062-12.047-2.823.37-.185-5.698-1.332c-.081.32-.169.629-.248.955l4.573 1.071.309-.154 12.047 2.823-.2.108 11.97 2.792-.926.463-11.97-2.792-.139.062-12.047-2.823.37-.185-4.082-.959c-.074.312-.143.637-.216.954l2.925.684.309-.154 12.047 2.823-.2.108 11.97 2.792-.926.463-11.97-2.792-.139.077-12.048-2.823.371-.185-2.434-.576c-.071.318-.146.631-.216.954l1.292.301.309-.154 12.047 2.823-.201.108 11.971 2.792-.926.463-11.97-2.792-.139.077-12.048-2.823.37-.186-.8-.189c-.051.242-.097.493-.146.737l11.945 2.799-.201.108 11.971 2.792-.926.463-11.971-2.792-.139.078-10.854-2.544c-.031.159-.063.317-.093.477l10.269 2.406-.2.108 11.97 2.791-.185.093 11.877 2.776.726-.37 1.735.405-.205-.564-.836-.195.65-.325a98.145 98.145 0 01-.944-2.775s-1.407-5.555-2.923-13.237l-11.576-2.712.369-.19zM337.194 351.59l-.083.064 5.192 1.216-.586.293-5.017-1.175c-.231.194-.536.458-.911.802l4.555 1.066-.586.293-4.335-1.015c-.255.241-.526.503-.825.803l3.803.891-.586.293-3.561-.833c-.249.255-.51.531-.783.825l3.002.703-.587.293-2.741-.642a46.07 46.07 0 00-.735.828l2.104.493-.587.293-1.831-.429c-.23.268-.469.558-.708.849l1.167.273-.587.293-.877-.206c-.222.274-.449.563-.678.857l.183.042-.357.178c-2.425 3.146-5.185 7.385-7.773 12.817l7.251 1.69-.154.648-7.386-1.726c-.107.231-.217.452-.324.688l7.525 1.764-.154.647-7.646-1.783c-.098.219-.194.445-.291.667l7.752 1.81-.154.648-7.867-1.838c-.098.229-.196.455-.293.688l7.883 1.844-.17.093 9.132 2.128-.093.401-9.609-2.252-.17.093-7.219-1.689c-.094.232-.188.468-.281.704l6.451 1.509-.17.093 10.767 2.514-.092.401-11.245-2.622-.17.092-5.793-1.355c-.089.229-.176.46-.264.693l5.008 1.171-.17.093 12.017 2.807-.34.17 10.853 2.538c-.919-4.693-1.866-10.136-2.558-15.578l-.752.375-3.455-.802.154-.648 4.036.943-.096-.772-3.771-.88.154-.648 3.532.827-.092-.792-3.271-.76.154-.648 3.041.708-.079-.752-2.792-.65.154-.648 2.567.6-.073-.779-2.34-.546.154-.648 2.123.497c-.022-.259-.044-.517-.064-.773l-1.92-.448.108-.324-.617.309-8.19-1.913.2-.879 9.239 2.159-.2.093 1.327.311-.057-.783-.222-.052-.139.077-9.811-2.298.2-.879 9.918 2.322c-.01-.174-.02-.347-.028-.52l-9.781-2.28.123-.494.556-.278 9.056 2.113a47.966 47.966 0 01-.021-.525l-8.324-1.942 1.265-.633 7.028 1.64-.014-.501-6.336-1.479 1.265-.632 5.058 1.18-.002-.51-4.393-1.025 1.265-.633 3.132.731c.002-.173.006-.344.009-.515l-2.446-.571 1.266-.633 1.208.282.019-.5-.518-.121.539-.27c.165-3.021.591-5.655 1.367-7.673-1.679 1.716-4.695 4.668-7.711 6.974zm-4.47 10.582l5.985 1.404-1.265.632-4.921-1.157.201-.879zm-.323 1.373l4.35 1.018-1.265.633-3.286-.771.201-.88zm-.325 1.357l2.715.633-1.265.632-1.651-.386.201-.879zm-.308 1.358l1.08.247-1.296.663.216-.91zm-1.528 1.558l.756.17-.154.647-1.527-.354.925-.463zm-1.959.987l2.376.555-.154.648-3.147-.74.925-.463zm-1.943.987l4.011.941-.154.648-4.782-1.126.925-.463zm-2.885 1.435l.926-.463 5.646 1.327-.154.648-6.418-1.512zm14.346 7.543l-8.021-1.867.587-.293 7.527 1.758-.093.402zm.324-1.373l-6.387-1.481.587-.293 5.892 1.373-.092.401zm.309-1.342l-4.751-1.111.586-.293 4.257 1.002-.092.402zm.323-1.357l-3.115-.741.586-.293 2.622.617-.093.417zm.324-1.388l-1.496-.339.586-.293 1.003.231-.093.401zm.756-1.451l-.186-.046.154-.648.957.231-.925.463zm2.885-1.45l-.926.463-1.82-.417.154-.648 2.592.602zm-2.067-7.82l-1.265.632-6.556-1.527.2-.879 7.621 1.774zM348.411 402.91l-11.924-2.791-.169.076-11.971-2.791-.139.061-9.173-2.149c-.029.162-.063.317-.092.48l8.57 2.008-.2.107 11.97 2.793-.185.092 11.877 2.777.726-.371 4.276.998-.203-.529-3.317-.777-.046.016zM544.591 433.113l11.985-2.808-.17-.092 12.001-2.808-.2-.093 12.032-2.808.293.154.005-.001-.065-.993-1.282.3.386.201-12.031 2.807-.139-.076-12.001 2.807-.17-.092-11.985 2.807.37.186-9.611 2.252.014.507 10.261-2.404.307.154zM551.317 392.344l12.047-2.823.309.154 11.985-2.808-.169-.092.537-.125c-.066-.235-.13-.467-.198-.703l-1.357.319-.17-.093-11.985 2.808.37.185-12.047 2.823-1.265-.632 12.047-2.823.309.154 11.985-2.808-.17-.092 2.092-.49c-.069-.232-.145-.468-.217-.701l-2.908.682-.17-.092-11.985 2.807.37.185-12.047 2.823-1.265-.632 12.047-2.823.309.154 11.985-2.808-.17-.092 3.635-.851c-.072-.232-.139-.46-.214-.693l-4.424 1.035-.169-.092-11.985 2.807.37.186-12.048 2.823-1.265-.633 12.047-2.823.309.154 11.985-2.807-.169-.093 5.134-1.201c-.075-.227-.153-.455-.229-.682l-5.938 1.389-.169-.092-11.985 2.807.37.185-11.958 2.802c-.617 1.792-1.208 3.756-1.821 5.878l9.105-2.124-.85-.432zM551.964 383.783l12.017-2.808-.17-.092 9.583-2.242a101.25 101.25 0 00-.27-.703l-10.347 2.42-.17-.093-11.245 2.623-.093-.401 10.768-2.514-.17-.093 11.007-2.575-.269-.676-11.787 2.757-.17-.092-9.609 2.252-.093-.401 9.132-2.129-.17-.092 12.001-2.808-.2-.092.602-.14c-.064-.156-.136-.314-.201-.47l-1.095.255-.139-.077-11.292 2.638-.154-.648 10.505-2.453-.2-.092 2.012-.47c-.067-.156-.133-.313-.201-.469l-2.489.584-.139-.077-9.656 2.252-.154-.647 8.885-2.083-.201-.093 3.385-.79c-.066-.148-.14-.297-.207-.445l-3.301.772-.2-.879 3.113-.729-.219-.47-3.019.705-.2-.879 2.824-.66c-.072-.149-.151-.298-.225-.448l-2.707.63-.201-.879 2.492-.58c-.079-.157-.156-.314-.236-.471l-2.379.557-.201-.879 2.154-.505c-.078-.15-.163-.299-.243-.448l-2.034.475-.2-.879 1.789-.419c-.084-.154-.165-.308-.25-.461l-1.663.387-.2-.879 1.406-.328c-.083-.146-.172-.291-.256-.437l-1.259.286-.2-.879.633-.139.563.281-.186-.317-.284.066-.587-.293.649-.152c-.176-.296-.351-.592-.531-.888l-1.476.346-.586-.293 1.824-.428a87 87 0 00-.561-.888l-2.652.621-.586-.293 3.002-.703c-.124-.192-.238-.385-.364-.577l-.235-.279-3.76.88-.586-.293 4.037-.945c-.192-.222-.445-.51-.741-.842l-4.669 1.093-.586-.293 4.938-1.156c-.229-.253-.482-.533-.759-.834l-5.536 1.296-.586-.293 5.795-1.357c-.239-.259-.492-.531-.765-.821l-6.403 1.5-.586-.293 6.658-1.559c-.249-.264-.512-.539-.785-.825l-7.216 1.689-.586-.293 7.465-1.748c-.262-.271-.535-.553-.818-.843l-8.034 1.881-.587-.293 8.279-1.938c-.263-.268-.532-.541-.812-.822l-8.825 2.066-.586-.293 9.063-2.122c-.263-.263-.522-.524-.8-.798l-8.368 1.959c.002.341.003.685.003 1.038l.133-.031 1.265.632-1.397.326-.002.513 2.078-.485 1.265.633-3.349.781-.005.502 4.048-.944 1.265.632-5.323 1.242-.007.53 6.009-1.402.556.278.123.494-6.704 1.563-.01.515 6.838-1.6.2.879-7.061 1.654-.012.502 7.181-1.678.2.879-7.408 1.729-.017.524 7.563-1.76.2.879-6.556 1.527-1.209-.605a224.23 224.23 0 01-.192 4.472l.044-.01.154.647-.237.056c-.015.253-.028.505-.044.76l.451-.105.154.647-.65.151-.051.773.855-.199.154.648-1.059.242c-.336 4.595-.858 9.207-1.651 13.369l6.489-1.518-.339-.166zm-3.301-10.52l-.926-.463.957-.231.154.648-.185.046zm17.4-.108l.926.462-8.052 1.882-.154-.648 7.28-1.696zm-.586-9.163l-.046.016-.016-.046.062.03zm-1.358 8.176l.926.463-6.417 1.511-.154-.647 5.645-1.327zm-1.959-.987l.926.463-4.782 1.126-.154-.648 4.01-.941zm-1.959-.972l.926.462-3.146.741-.154-.648 2.374-.555zm-1.943-.987l.926.463-1.527.354-.154-.648.755-.169zm-1.327-.633l-1.295-.664 1.079-.247.216.911zm-.323-1.403l-1.65.386-1.266-.633 2.715-.632.201.879zm-.325-1.358l-3.285.771-1.266-.632 4.351-1.018.2.879zm-.508-2.252l.2.879-4.921 1.157-1.265-.633 5.986-1.403zm-6.449 10.752l1.003-.231.586.293-1.496.339-.093-.401zm.325 1.341l2.622-.617.586.293-3.115.74-.093-.416zm.324 1.373l4.257-1.003.586.293-4.751 1.111-.092-.401zm.308 1.373l5.892-1.373.587.293-6.387 1.481-.092-.401zm.324 1.357l7.528-1.758.586.293-8.021 1.867-.093-.402zM346.468 403.883l-11.924-2.793-.17.078-11.97-2.793-.139.063-7.466-1.75-.08.499 6.852 1.605-.2.108 11.97 2.791-.185.094 11.923 2.791-.586.293-11.924-2.791-.169.076-11.971-2.791-.139.076-5.719-1.342c-.243 1.563-.47 3.153-.657 4.805l11.621 2.723-.186.093 11.924 2.792-.586.293-11.924-2.791-.17.076-10.744-2.521c-.026.245-.048.498-.073.745l9.814 2.301-.185.092 11.924 2.792-.587.293-11.923-2.792-.17.077-8.939-2.098c-.024.252-.051.499-.074.753l7.979 1.869-.185.093 11.877 2.776.294-.139.632.139-.2.879-1.682-.4.401-.201-11.878-2.775-.169.076-7.134-1.664a126.143 126.143 0 00-.291 4.209l-.042 1.119.263-.131 12.017 2.807.293-.139 7.157 1.666-.2.879-8.237-1.912.4-.201-11.701-2.733-.038 1.006 10.367 2.422.277-.139 8.777 2.052-.201.879-9.841-2.299.4-.199-9.796-2.29-.188 5.019-.266 2.894 11.469 2.676-.2.093 12.001 2.808-.17.093 12.017 2.807-.34.17 11.431 2.673c.133-2.817.37-5.7.77-8.353l-.708-.166.139-.077.139-.571.479.108c.12-.331.432-.633 1.203-.509l-.142-.24-1.339-.315.092-.401.964.225c-.17-.298-.387-.683-.645-1.148l-.072-.017.018-.081a137.813 137.813 0 01-2.575-4.918l-.28.14-5.091-1.188.154-.647 4.951 1.16c-.141-.285-.283-.577-.428-.875l-4.354-1.011.154-.647 3.83.892c-.132-.276-.266-.556-.399-.842l-3.261-.76.154-.647 2.75.643-.377-.822-2.204-.515.154-.647 1.705.398c-.127-.284-.255-.571-.383-.862l-1.183-.276.107-.324-.617.309-8.19-1.913.2-.88 9.24 2.16-.201.092.312.073c-.102-.235-.203-.475-.305-.713l-8.922-2.09.2-.88 8.288 1.939a110.08 110.08 0 01-.234-.568l-7.931-1.849.108-.493.555-.278 6.854 1.6c-.077-.192-.152-.387-.229-.58l-5.869-1.374-.042.009zM344 409.559l5.984 1.404-1.265.633-4.921-1.158.202-.879zm-.324 1.357l4.35 1.019-1.265.632-3.285-.771.2-.88zm-.309 1.357l2.715.633-1.265.633-1.65-.387.2-.879zm.756 1.605l-1.296.663.216-.91 1.08.247zm-24.772-14.022l12.047 2.823-.186.092 11.924 2.792-.586.294-11.924-2.793-.17.078-12.031-2.823.926-.463zm21.24 15.796l.926-.463.756.17-.154.647-1.528-.354zm1.342 1.079l-.154.647-3.146-.74.926-.463 2.374.556zm-24.542-15.887l12.048 2.822-.186.093 11.924 2.792-.586.293-11.924-2.791-.17.076-12.031-2.822.925-.463zm9.333 4.195l-.17.077-12.031-2.823.925-.463 12.048 2.824-.186.092 11.924 2.792-.586.293-11.924-2.792zm10.89 12.125l4.011.94-.154.647-4.781-1.125.924-.462zm-1.959.971l5.646 1.327-.154.647-6.417-1.512.925-.462zm-1.295-8.191l-.016.046-.047-.015.063-.031zm-14.979-1.311l12.001 2.809.293-.14 2.252.524-.2.879-3.332-.771.401-.2-12.001-2.809.586-.292zm-1.975.988l12.017 2.807.293-.139 3.888.91-.201.879-4.967-1.156.401-.201-12.017-2.807.586-.293zm9.086 4.287l.401-.199-12.017-2.809.586-.293 12.017 2.808.293-.139 5.522 1.296-.201.879-6.601-1.543zm7.219 5.215l7.281 1.696-.154.647-8.053-1.881.926-.462zm-11.815-2.9l10.412 2.438-.201.879-11.476-2.684 1.265-.633zm-1.944 1.002l12.031 2.809-.2.076 8.885 2.083-.154.647-9.656-2.252-.139.077-12.032-2.808 1.265-.632zm-1.96.972l12.032 2.808-.185.092 10.504 2.453-.154.647-11.291-2.638-.139.077-12.032-2.807 1.265-.632zm30.451 10.674l-11.245-2.622-.17.093-12.001-2.808-.139.077-12.031-2.808 1.265-.632 12.031 2.807-.2.093 12.001 2.808-.186.077 10.768 2.515-.093.4zm.324-1.372l-9.61-2.253-.17.093-12.001-2.808-.139.077-12.031-2.808 1.265-.632 12.031 2.808-.2.092 12.001 2.808-.186.093 9.132 2.129-.092.401zm.323-1.358l-8.021-1.866.586-.293 7.527 1.759-.092.4zm.309-1.358l-6.386-1.496.586-.293 5.893 1.373-.093.416zm.324-1.357l-4.751-1.11.586-.293 4.258 1.003-.093.4zm.308-1.372l-3.116-.726.586-.293 2.623.617-.093.402zm.339-1.359l-1.496-.354.586-.294 1.003.231-.093.417zm.742-1.465l-.186-.047.154-.646.956.23-.924.463zm1.959-.987l-1.82-.417.154-.646 2.591.602-.925.461zm2.883-1.45l-.925.463-3.456-.802.154-.647 4.227.986zm-4.01-6.833l-1.265.632-6.556-1.526.201-.88 7.62 1.774zM553.939 384.755l11.985-2.807-.17-.093 8.119-1.899c-.083-.23-.167-.461-.253-.691l-8.899 2.082-.17-.092-11.985 2.808.37.185-7.208 1.689c-.036.184-.075.362-.112.543l8.015-1.878.308.153zM555.405 464.997l.535.268c6.043-1.063 13.589-3.094 21.938-6.924l-.894.209-1.266-.633 4.924-1.153a7.46 7.46 0 00.596-.638l-6.198 1.452-1.265-.633 8.199-1.921c.097-.185.186-.376.262-.579l-9.155 2.146-1.265-.633 10.671-2.5a4.26 4.26 0 00.04-.523l-11.39 2.669-1.265-.633 12.047-2.822.309.154.262-.062-.074-.998-1.561.365.37.185-12.047 2.823-.617-.309 12.032-2.808-.34-.169 2.131-.498-.074-1.002-2.658.62-.093-.4 2.721-.636-.073-.996-2.878.675-.093-.416 2.939-.686-.071-.977-3.1.721-.093-.4 3.162-.738-.073-1-3.305.766-.093-.4 3.367-.784-.072-.997-3.526.824-.093-.4 3.589-.846c-.207-2.86-.449-6.259-.705-9.922l-1.232-.616 1.171-.274-.035-.511-1.83.43-1.266-.632 3.032-.711-.033-.485-3.677.856-1.266-.632 4.88-1.137-.036-.519-5.568 1.3-.617-.309.108.324-11.631 2.715-.17-.093-11.985 2.808.37.186-12.047 2.822-1.265-.632 12.047-2.823.309.154 11.985-2.808-.154-.077 12.001-2.808-.201-.092 6.757-1.579-.035-.51-7.4 1.733-.139-.077-12.001 2.808-.169-.093-11.985 2.808.37.186-12.048 2.822-1.265-.632 12.047-2.823.309.154 11.985-2.808-.169-.077 12.001-2.807-.201-.093 8.604-2.014-.033-.497-9.249 2.155-.139-.076-12.001 2.807-.17-.092-11.985 2.807.37.186-12.047 2.822-1.265-.632 12.047-2.823.309.154 11.985-2.808-.17-.092 12.001-2.808-.2-.093 10.451-2.438-.032-.478-11.113 2.592-.139-.077-12.001 2.808-.17-.093-11.985 2.808.37.186-11.503 2.694c.04 1.61.079 3.413.115 5.415l6.729-1.569-.849-.432 12.048-2.823.309.154 11.985-2.808-.17-.062 10.751-2.515.154.648-9.979 2.329-.17-.093-11.985 2.808.37.186-12.047 2.822-.14-.077-7.004 1.634.013.763 8.025-1.872-.201-.107 12.048-2.823.309.154 11.985-2.808-.17-.093 9.116-2.128.154.647-8.345 1.943-.602-.309.077.309-11.631 2.746.37.186-12.047 2.822-.14-.077-8.938 2.085.011.744 9.946-2.32-.2-.107 12.047-2.823.309.154 10.474-2.452.093.4-9.98 2.36.37.186-12.047 2.822-.139-.077-10.862 2.533.011.764 11.885-2.772-.2-.107 12.047-2.823.309.154 8.854-2.067.093.401-8.36 1.975.37.186-12.047 2.822-.139-.077-11.971 2.792-.839-.42a958 958 0 01.033 2.796s.047.579.117 1.563l5.779-1.347-.186-.093 11.971-2.792-.201-.108 12.048-2.822.309.154 3.948-.926.093.401-3.455.802.37.186-12.047 2.822-.14-.062-11.97 2.792-.17-.077-6.321 1.474.069 1.012 7.641-1.791-.186-.093 11.971-2.792-.201-.107 12.048-2.823.309.154 2.313-.54.093.401-1.836.432.37.186-12.047 2.822-.139-.077-11.971 2.792-.169-.077-8.17 1.915c.021.321.044.661.065 1.02l9.492-2.225-.185-.093 11.97-2.792-.2-.108 12.047-2.822.309.154.679-.154.139.57.139.077-12.047 2.823-.139-.062-11.971 2.792-.169-.077-10.036 2.352c.021.325.04.659.061 1.007l11.379-2.665-.186-.092 12.048-2.823.925.463-12.031 2.823-.17-.077-11.924 2.792-.018-.009c.06 1.035.119 2.154.176 3.342l.073-.017.2.879-.232.054c.008.167.016.334.022.503l.334-.078.2.879-.496.117.02.513.585-.137.2.88-.751.177.017.517.858-.2.201.88-1.031.241.01.314s.023.063.075.163l1.054-.241.217.91-1.257-.644c.178.334.683 1.054 1.895 1.648l-.052-.218.756-.17.926.463-.944.219c.44.16.953.298 1.542.404l.42-.099.44.22a15.96 15.96 0 001.946.088s1.577.152 4.376.066l-.146-.637 7.157-1.665.231.123 11.955-2.792.586.293-11.954 2.792.432.216-6.916 1.612.392-.022a70.024 70.024 0 003.224-.302l3.995-.932zm25.173-22.382l.586.293-3.115.726-.093-.401 2.622-.618zm-1.943-.971l.586.293-1.496.34-.093-.401 1.003-.232zm-42.559 4.889l11.97-2.792-.2-.107 12.047-2.823.309.154 7.219-1.682.093.401-6.726 1.589.37.185-12.047 2.823-.139-.077-11.97 2.792-.926-.463zm26.67-4.272l.37.185-12.047 2.823-.139-.077-11.97 2.792-.926-.463 11.97-2.792-.2-.107 12.047-2.823.309.154 5.584-1.312.093.401-5.091 1.219zm14.285-1.789l-.186.046-.925-.463.956-.231.155.648zm-.309-1.343l-1.82.417-.925-.463 2.591-.602.154.648zm-.324-1.372l-3.455.802-.926-.463 4.227-.987.154.648zm-.308-1.373l-5.091 1.188-.926-.463 5.862-1.373.155.648zm-7.975-.263l7.481-1.743.154.648-6.71 1.558-.925-.463zm-31.468 19.514l-.586-.294 11.924-2.792-.186-.092 12.048-2.823.925.463-12.031 2.823-.17-.077-11.924 2.792zm1.943.971l-.586-.293 11.924-2.792-.185-.093 12.047-2.823.926.463-12.032 2.823-.17-.077-11.924 2.792zm1.373.694l11.924-2.792-.185-.092 12.047-2.823.926.463-12.032 2.823-.17-.077-11.923 2.792-.587-.294zm1.943.987l11.924-2.792-.185-.092 12.047-2.823.926.463-12.032 2.822-.169-.077-11.924 2.793-.587-.294zm3.009 1.466l-.016-.046.062.03-.046.016zm.123.478l.633-.14.262.124 11.939-2.792.586.293-11.939 2.792.433.216-1.713.386-.201-.879zm.309 1.358l2.252-.524.263.123 11.938-2.792.587.293-11.939 2.792.432.216-3.332.771-.201-.879zm.324 1.372l3.887-.909.263.123 11.938-2.792.587.293-11.939 2.792.432.216-4.967 1.157-.201-.88zm6.694.478l.432.216-6.602 1.543-.201-.88 5.522-1.295.263.123 11.954-2.792.586.293-11.954 2.792zm4.18-6.586l-.169-.077-11.924 2.792-.586-.293 11.924-2.792-.186-.092 12.047-2.823.926.463-12.032 2.822zM358.111 459.886l-.135.067-4.921-1.156.2-.88 4.882 1.146.02-.511-4.778-1.112.201-.88 4.62 1.076.027-.51-4.54-1.06.201-.88 4.41 1.026.042-.494-4.329-1.01.2-.88 4.207.98.044-.512-4.127-.962.107-.493.556-.278 3.544.826c.014-.161.028-.328.044-.495l-2.878-.67-11.847-2.776-.17.077-11.97-2.792-.14.062-12.047-2.823.139-.077.139-.57.679.154.309-.154 12.048 2.822-.201.108 11.971 2.792-.186.093 11.847 2.776.679-.34 1.71.401.046-.507-1.062-.249-11.847-2.776-.17.077-11.97-2.792-.139.077-12.048-2.823.37-.185-1.835-.433.093-.4 2.313.54.309-.154 12.047 2.822-.2.108 11.97 2.792-.185.093 11.847 2.776.581-.291.054-.582-11.078-2.582-.17.077-11.97-2.793-.139.063-12.048-2.823.37-.185-3.455-.803.093-.4 3.949.925.309-.154 12.047 2.823-.2.107 11.97 2.792-.186.093 10.545 2.458c.049-.512.097-1.021.146-1.517 0 0-.17-2.7-.225-6.596l-11.468-2.675-.14.077-12.047-2.823.37-.186-11.985-2.807-.17.092-9.979-2.329.154-.647 10.751 2.515-.17.062 11.985 2.808.309-.154 12.048 2.822-.849.432 11.188 2.609a150.57 150.57 0 01.115-8.307l-.012.006-12.047-2.823.37-.185-11.985-2.808-.17.093-12.001-2.808-.139.077-10.288-2.4-.045.482 9.608 2.242-.201.092 12.001 2.808-.169.093 11.985 2.808.309-.154 12.047 2.822-1.265.633-12.048-2.823.371-.185-11.986-2.808-.169.093-12.001-2.808-.139.077-8.428-1.967-.044.469 7.808 1.822-.2.093 12.001 2.807-.17.093 11.985 2.808.309-.154 12.047 2.823-1.265.632-12.047-2.822.37-.186-11.985-2.808-.17.093-12.001-2.808-.139.077-6.612-1.543-.014.483 5.932 1.384-.2.093 12.001 2.807-.17.093 11.985 2.808.309-.154 12.047 2.823-1.265.632-12.047-2.822.37-.186-11.985-2.808-.17.093-12.001-2.808-.139.077-4.697-1.095-.019.532 4.053.948-.201.093 12.001 2.808-.169.077 11.985 2.808.309-.154 12.047 2.822-1.265.633-12.048-2.823.37-.185-11.985-2.808-.169.093-12.001-2.808-.139.077-2.823-.661-.02.502 2.133.498-.2.093 12.001 2.808-.154.077 11.985 2.808.309-.154 12.047 2.822-1.265.633-12.048-2.823.37-.185-11.985-2.808-.169.093-11.631-2.715.107-.324-.616.309-.924-.216-.022.496.252.059-.261.131a216.94 216.94 0 01-.553 8.471l.921.222-.925.463-.058-.014c-.018.199-.035.4-.055.6 0 0-.139 6.654-.446 11.126l8.842 2.063-.617.309-8.256-1.935-.041.523 7.603 1.781-1.265.632-6.42-1.504c-.018.176-.035.343-.054.501l5.795 1.358-1.265.632-4.659-1.092a3.7 3.7 0 01-.114.476l4.079.956-1.265.632-1.58-.37c2.552 1.876 8.95 5.847 20.054 8.364l1.147-.574 8.776 2.052-.036.157c1.634.177 3.344.317 5.119.42l-1.011-.238.926-.463 3.353.787c.116-.005.232-.009.36-.016 2.258-.173 5.617-.707 7.594-2.329.003.001-.126-1.169-.046-4.077zm-8.574-13.291l-11.97-2.792-.139.077-12.047-2.822.37-.186-5.091-1.219.093-.4 5.584 1.311.309-.154 12.047 2.823-.2.108 11.97 2.792-.926.462zm1.959-.988l-11.97-2.792-.139.077-12.047-2.822.37-.186-6.726-1.589.093-.4 7.219 1.681.309-.154 12.047 2.823-.2.108 11.97 2.792-.926.462zm1.945-.971l-11.971-2.792-.139.077-12.047-2.822.37-.186-8.36-1.975.093-.4 8.854 2.066.309-.154 12.047 2.823-.2.107 11.97 2.792-.926.464zm1.943-.988l-11.97-2.792-.14.077-12.047-2.822.37-.186-9.98-2.359.093-.401 10.474 2.452.309-.154 12.048 2.823-.201.108 11.971 2.792-.927.462zm-42.157-12.031l9.116 2.129-.17.092 11.985 2.808.309-.154 12.047 2.823-.2.107 11.97 2.792-.925.463-11.971-2.792-.139.077-12.047-2.822.37-.186-11.631-2.745.077-.309-.602.309-8.345-1.944.156-.648zm.37 6.51l-1.82-.417.154-.647 2.592.602-.926.462zm1.959-.972l-3.455-.803.154-.647 4.227.987-.926.463zm1.959-.987l-5.091-1.188.154-.647 5.862 1.373-.925.462zm-4.782-2.546l.154-.647 7.481 1.743-.926.463-6.709-1.559zm17.893 13.606l12.047 2.823-.185.092 11.924 2.792-.586.293-11.924-2.792-.17.077-12.032-2.823.926-.462zm-3.902 1.974l12.047 2.822-.185.093 11.924 2.792-.587.293-11.924-2.792-.169.077-12.032-2.822.926-.463zm15.24 15.949l-8.206-1.912.432-.216-11.955-2.792.587-.293 11.954 2.791.231-.123 7.157 1.666-.2.879zm.355-1.341l-6.602-1.542.432-.216-11.955-2.792.587-.294 11.954 2.792.263-.123 5.521 1.296-.2.879zm.324-1.373l-4.967-1.156.432-.216-11.939-2.792.586-.293 11.939 2.791.263-.123 3.887.91-.201.879zm.308-1.373l-3.332-.771.432-.216-11.939-2.792.587-.293 11.938 2.792.263-.124 2.252.524-.201.88zm.339-1.373l-1.712-.386.432-.216-11.939-2.792.587-.293 11.938 2.792.263-.124.633.139-.202.88zm.279-1.341l-.047-.016.062-.031-.015.047zm.493-.202l-11.924-2.792-.17.077-12.047-2.822.926-.463 12.063 2.822-.186.093 11.924 2.792-.586.293zm1.959-.987l-11.924-2.792-.17.077-12.031-2.822.926-.463 12.047 2.822-.186.093 11.924 2.792-.586.293zm-9.981-3.764l-.169.077-12.032-2.822.926-.463 12.047 2.822-.185.093 11.924 2.792-.587.293-11.924-2.792zm14.979 12.341l-3.147-.741.926-.462 2.376.555-.155.648zm.339-1.373l-1.527-.354.926-.463.756.169-.155.648zm-11.414-12.942l-.17.077-12.032-2.822.926-.463 12.047 2.822-.185.093 11.924 2.792-.586.293-11.924-2.792zm12.139 11.492l.216-.91 1.079.247-1.295.663zm1.974-1.003l-1.65-.386.201-.879 2.715.633-1.266.632zm1.96-.972l-3.286-.771.2-.879 4.351 1.019-1.265.631zM533.612 422.023c-.174.49-.342.988-.5 1.51 0 0 .262.803.631 3.596 0 0 .098 2.035.212 5.842l7.043-1.646-.34-.17 12.017-2.808-.17-.093 12.001-2.807-.2-.093 12.031-2.808 1.265.633-12.031 2.808-.139-.077-12.001 2.807-.17-.092-11.985 2.807.37.186-7.678 1.799.016.518 8.372-1.962.309.154 11.985-2.808-.17-.092 12.001-2.808-.2-.093 12.031-2.808.293.154 1.84-.43c-.14-2.11-.275-4.219-.405-6.28 0 0 .034-.621.044-1.733l-.753.176-.278-.14 1.033-.241c.01-1.744-.048-4.6-.364-8.247l-.145-.072-11.77 2.746-.169-.078-11.878 2.777.401.201-1.682.4-.2-.879.632-.139.293.139 11.878-2.777-.186-.092 12.048-2.823.447.231.292-.068a108.877 108.877 0 00-1.024-7.949l-10.436 2.449-.139-.077-11.971 2.792-.17-.077-11.923 2.792-.587-.293 11.924-2.793-.185-.092 11.97-2.792-.2-.108 11.56-2.708c-.044-.251-.084-.497-.13-.751l-.478.112.37.185-12.048 2.823-.139-.062-11.97 2.791-.17-.076-11.924 2.791-.046-.015-2.22.52c-.061.179-.13.363-.191.543l3.167-.739.555.278.108.493-4.186.976-.191.544 4.516-1.057.2.879-5.078 1.189c-.071.193-.144.38-.216.567l5.402-1.263.2.879-6.005 1.402c-.079.194-.157.389-.236.577l6.38-1.485.201.879-6.556 1.527-.345-.172a87.022 87.022 0 01-1.308 2.858l.109.46-.371.086-.409.85.966-.226.154.647-1.489.348c-.137.285-.271.571-.406.856l2.05-.479.154.648-2.558.594c-.731 1.602-1.407 3.238-1.978 5.113 0 0 .048.156.13.527.29-.724.482-1.098.482-1.098.207-.307.41-.637.614-.983zm4.762 1.033l2.623-.616.586.293-3.116.725-.093-.402zm.309 1.373l4.258-1.002.586.293-4.751 1.11-.093-.401zm.324 1.342l5.893-1.372.586.293-6.386 1.496-.093-.417zm5.353-10.474l1.08-.246.216.91-1.296-.664zm-5.029 11.862l7.527-1.759.586.293-8.021 1.867-.092-.401zm7.698-7.018l-.154-.648 4.011-.94.925.463-4.782 1.125zm5.799-.602l.926.463-6.417 1.512-.154-.648 5.645-1.327zm-6.124-.756l-.154-.648 2.376-.555.925.463-3.147.74zm-.324-1.373l-.154-.647.756-.17.926.463-1.528.354zm-6.725 11.107l9.132-2.129-.185-.093 12.001-2.807-.201-.093 12.032-2.808 1.265.633-12.031 2.808-.14-.078-12 2.808-.17-.092-9.61 2.252-.093-.401zm17.06-7.019l-.2-.077 12.031-2.808 1.266.633-12.032 2.808-.139-.077-9.656 2.252-.154-.648 8.884-2.083zm-.524-1.435l10.412-2.437 1.265.632-11.476 2.685-.201-.88zm2.267 2.345l12.032-2.808 1.265.633-12.032 2.808-.139-.077-11.291 2.638-.154-.648 10.505-2.452-.186-.094zm5.168 2.592l-.139-.077-12.001 2.807-.17-.092-11.245 2.622-.093-.401 10.767-2.514-.185-.077 12.001-2.808-.201-.093 12.032-2.808 1.265.633L563.626 425zm13.898-10.736l-12.016 2.807.4.201-9.841 2.299-.2-.88 8.776-2.052.278.139 12.016-2.807.587.293zm-1.928-.972l-12.017 2.808.401.2-8.237 1.913-.2-.88 7.157-1.665.293.139 12.017-2.809.586.294zm-1.943-.987l-12.017 2.807.401.201-6.603 1.543-.2-.88 5.522-1.296.293.139 12.017-2.807.587.293zm-1.959-.988l-12.017 2.808.401.2-4.967 1.157-.201-.879 3.888-.91.293.139 12.017-2.808.586.293zm-14.855 1.404l.293.139 12.001-2.807.586.293-12.001 2.807.401.201-3.332.771-.201-.879 2.253-.525zm-2.052 7.805l.926.463-8.053 1.882-.154-.648 7.281-1.697zm-.648-9.178l.063.031-.047.016-.016-.047zm23.756-5.676l-12.032 2.822-.17-.076-11.924 2.791-.586-.293 11.924-2.791-.185-.094 12.047-2.822.926.463zm-1.945-.987l-12.031 2.823-.17-.078-11.924 2.793-.586-.293 11.924-2.793-.186-.092 12.048-2.823.925.463zm-1.959-.988l-12.031 2.822-.17-.076-11.924 2.791-.586-.293 11.924-2.791-.186-.094 12.048-2.822.925.463zm-1.943-.987l-12.032 2.823-.169-.078-11.924 2.793-.586-.293 11.924-2.793-.186-.092 12.047-2.823.926.463zm-14.747 1.481l-.185-.094 12.047-2.822.926.463-12.032 2.822-.169-.076-11.924 2.791-.587-.293 11.924-2.791zm-11.97 10.381l-1.65.385-1.265-.632 2.715-.632.2.879zm-.323-1.373l-3.286.771-1.265-.633 4.35-1.018.201.88zm-.51-2.252l.201.879-4.921 1.157-1.265-.633 5.985-1.403zm-5.445 10.505l.587.293-1.497.354-.092-.416 1.002-.231zm-1.496-.864l-.185.047-.926-.463.956-.232.155.648zm-.463-2.006l.154.648-1.82.416-.925-.463 2.591-.601z"/><path fill="none" d="M534.367 418.467c.117-.255.234-.509.354-.763l.406-.856.369-.77c.136-.28.271-.563.409-.85l.262-.546a87.99 87.99 0 001.308-2.858c.106-.245.213-.496.319-.749.079-.188.157-.383.236-.577.135-.331.269-.67.402-1.019.072-.188.145-.374.216-.567.021-.058.044-.112.065-.171.104-.284.195-.559.297-.841l.191-.544c.119-.336.241-.675.355-1.008.062-.18.131-.364.191-.543.117-.345.223-.679.335-1.021.059-.178.114-.353.172-.529l.146-.45a237.986 237.986 0 002.153-7.152l.21-.728.232-.808.063-.218c.613-2.122 1.204-4.085 1.821-5.878.117-.342.235-.684.355-1.012.048-.13.094-.273.142-.401l.032-.153c.07-.321.138-.649.205-.977.037-.182.076-.36.112-.543.03-.153.058-.311.087-.465.793-4.162 1.315-8.774 1.651-13.369l.049-.691.051-.773.045-.693c.016-.254.029-.507.044-.76l.039-.693c.081-1.514.144-3.008.192-4.472l.001-.041.017-.524a151.22 151.22 0 00.039-1.433c.008-.312.017-.625.022-.933l.01-.515a318.752 318.752 0 00.024-1.462l.011-.93.005-.502a6363.41 6363.41 0 01.008-1.442v-.928a176.502 176.502 0 00-.005-1.468 262.614 262.614 0 00-.175-8.28c-.033-.859-.058-1.344-.058-1.344.41.368.797.721 1.191 1.08l.179.162.683.618c.202.185.388.36.586.542.223.205.443.409.66.611l.586.542c.216.201.415.392.625.589l.364.344a219.981 219.981 0 013.376 3.258l.353.348c.277.274.537.535.8.798l.348.349.812.822.342.35c.283.29.557.571.818.843l.337.352c.273.286.536.561.785.825l.331.353c.272.29.525.562.765.821.108.117.226.243.327.354l.759.834.317.356a101.715 101.715 0 011.05 1.2l.235.279c.126.192.24.385.364.577.081.125.157.25.236.375.188.296.377.591.561.888.078.125.16.25.237.375.181.295.355.592.531.888.075.126.147.252.222.379.063.105.124.211.186.317.088.15.177.3.264.451.084.146.173.291.256.437.155.273.306.547.457.82.085.154.166.308.25.461.149.274.3.548.445.823.08.149.165.298.243.448.146.275.284.551.426.827.08.157.157.314.236.471.14.277.28.553.416.83.073.149.152.299.225.448.135.278.264.556.395.834l.219.47c.13.278.262.558.388.836.067.148.141.297.207.445.127.285.246.569.37.854l.201.469c.121.283.246.565.363.847.065.156.137.314.201.47.103.25.195.497.295.745l.269.676c.082.211.169.422.25.633.091.234.181.469.27.703.078.208.15.415.227.623.086.23.17.461.253.691.077.213.159.428.234.64.081.231.158.461.237.691.074.216.145.429.217.644l.229.682c.07.214.146.431.215.644.075.233.142.461.214.693l.199.646c.072.233.147.469.217.701l.191.649c.068.236.132.468.198.703.05.176.101.352.149.527.087.314.178.631.262.943.037.138.069.273.106.411.083.317.164.632.244.947.033.133.07.267.104.399.08.32.156.637.232.955l.095.404c.076.323.155.648.228.968.03.135.063.271.092.406.071.319.135.63.201.946l.087.408c.069.328.139.657.203.98l.077.402c.064.329.128.658.188.983.024.135.054.274.078.408.046.254.086.5.13.751.053.305.106.608.156.907.483 2.912.811 5.59 1.024 7.949.014.148.024.288.037.434.316 3.647.374 6.503.364 8.247l-.002.205c-.01 1.112-.044 1.733-.044 1.733a2240.306 2240.306 0 00.433 6.703l.065.993.048.71.032.478.063.931.033.497.062.912.035.51.062.911.036.519.063.912.033.485.063.913.035.511.062.891c.256 3.663.498 7.062.705 9.922l.03.422.072.997.03.419.073 1 .03.418.071.977.031.427.073.996.03.416.074 1.002.031.41a806.405 806.405 0 00.075 1.013c.032.233.04.458.036.679a4.23 4.23 0 01-.04.523 4.62 4.62 0 01-.513 1.566 6.383 6.383 0 01-.736 1.102 7.46 7.46 0 01-.596.638 6.596 6.596 0 01-.759.629c-.674.328-1.343.644-2.006.948-8.35 3.83-15.896 5.86-21.938 6.924-1.623.286-3.14.505-4.53.666a71.316 71.316 0 01-3.224.302c6.785-.401 18.618-2.172 32.42-8.887 0 0 3.039-2.02 2.607-5.137 0 0-1.436-19.096-2.453-35.293 0 0 1.727-29.647-15.627-56.117 0 0-5.49-6.648-16.627-16.628v.007c-10.504-6.073-25.037-10.142-25.037-10.142-14.746-2.992-32.314-13.173-32.314-13.173-1.451-1.157-7.42-2.221-7.42-2.221H458.2v-6.188h-20.34v6.188h-26.537c-3.471.2-7.035 1.064-7.035 1.064-16.781 10.613-44.547 17.94-44.547 17.94-6.371 2.128-13.498 5.599-13.498 5.599v-.031s-.509.551-1.345 1.405c-.776 2.019-1.202 4.653-1.367 7.673-.007.13-.015.259-.021.391l-.019.5c-.012.304-.021.611-.027.922-.003.171-.007.342-.009.515-.004.306-.005.615-.004.927l.002.51c.003.308.007.618.014.931l.014.501c.009.31.02.621.031.935l.021.525c.014.311.029.624.047.938l.028.52c.017.276.034.553.053.831l.057.783c.017.23.034.461.053.693l.064.773.063.697.073.779c.022.232.047.465.07.699l.079.752.076.699.092.792.084.701c.031.257.063.515.096.772l.017.131c.691 5.442 1.639 10.885 2.558 15.578l.092.468c1.516 7.682 2.923 13.237 2.923 13.237.303.937.619 1.862.944 2.775.062.174.123.348.186.521l.205.564c.126.342.252.683.379 1.02.067.178.136.354.203.529.134.35.269.696.404 1.04.076.193.151.388.229.58a113.747 113.747 0 00.648 1.589c.145.348.289.69.434 1.03.102.238.203.478.305.713.11.256.222.508.332.76a153.789 153.789 0 001.461 3.213c.134.286.268.565.399.842.124.261.247.515.369.767.145.298.287.59.428.875l.266.535a137.813 137.813 0 002.575 4.918c.02.033.036.065.055.098a94.24 94.24 0 001.07 1.88c-.771-.124-1.083.178-1.203.509-.119.332-.046.694-.046.694l-.002.012c-.399 2.652-.637 5.535-.77 8.353l-.02.438c-.13 2.982-.146 5.867-.115 8.307l.003.205c.055 3.896.225 6.596.225 6.596-.049.495-.097 1.005-.146 1.517l-.037.402-.054.582-.075.817-.046.507-.081.917c-.016.167-.03.334-.044.495l-.08.907-.044.512-.078.909-.042.494-.061.717-.011.196-.027.51c-.016.318-.03.625-.043.916l-.02.511c-.011.288-.02.563-.026.823-.079 2.908.05 4.078.05 4.078-1.977 1.622-5.336 2.156-7.594 2.329 2.2-.111 6.113-.569 8.314-2.375 0 0-.215-1.928.078-7.035 0 0 .4-4.828.787-8.775 0 0-.865-13.684.678-23.91 0 0-.293-1.449 1.25-1.203 2.9 7.805 3.471 27.334 3.471 27.334 2.313 27.766 5.645 66.529 5.645 66.529 3.471 52.061-7.527 108.178-7.527 108.178a114.528 114.528 0 01-1.588 8.098c1.357 13.111 27.766 14.563 27.766 14.563 50.609 4.242 102.578.586 102.578.586 24.68-.479 32.1-5.492 32.1-5.492 7.143-3.084 8.299-8.576 8.299-8.576.586-1.543-.863-5.213-.863-5.213-5.521-32.131-7.914-56.596-7.914-56.596-2.406-26.223-.477-56.117-.477-56.117 2.313-17.646 4.533-51.676 4.533-51.676 1.451-13.496 2.314-29.602 2.314-29.602.605-5.545 1.83-9.204 2.51-10.902-.082-.371-.13-.527-.13-.527.573-1.881 1.249-3.518 1.98-5.119z"/><path fill="none" d="M552.658 348.706l-.586-.292.222-.052c-.21-.197-.409-.388-.625-.589l-.63.147-.926-.463.97-.226-.66-.611-1.343.313-.926-.463 1.683-.393c-.221-.202-.457-.413-.683-.618l-1.305.304c.061 1.641.146 4.493.167 8.078l8.018-1.877a215.332 215.332 0 00-3.376-3.258zM547.784 344.217s.024.485.058 1.344l1.134-.264c-.395-.359-.781-.712-1.192-1.08z"/><path d="M313.195 412.952l-.712-.167-.017.427.713.166zM312.596 422.681l-.701-.163-.085.922.702.164zM322.465 371.758l-.029-.007-.873.437-.017.035.63.147c.096-.206.192-.409.289-.612zM312.725 421.29l-.563-.131-.149.074-.073.801.701.164zM321.852 373.058l-.63-.147c-.095.207-.188.417-.282.627l.637.148c.091-.208.182-.424.275-.628zM313.778 404.313l-.7-.164c-.023.22-.044.443-.065.665l.7.164c.021-.222.042-.445.065-.665zM313.638 405.73l-.7-.164c-.02.219-.044.432-.063.652l.7.164c.018-.221.043-.432.063-.652zM330.239 358.941l.175-.221-.577-.135c-.097.123-.189.237-.287.363l.46.108.229-.115zM332.409 356.296l-.564-.132c-.104.118-.207.234-.313.357l.564.132c.107-.126.208-.236.313-.357zM312.385 425.482l-.715-.167-.029.937.714.167.03-.937zM331.388 357.502l-.571-.133c-.101.121-.198.234-.301.36l.575.134.297-.361zM312.281 428.373l-.713-.167c-.012.292-.024.597-.039.916l.712.166c.015-.317.028-.624.04-.915zM312.336 426.951l-.713-.167-.034.92.712.167c.014-.328.025-.637.035-.92zM312.405 424.768l.063-.695-.701-.163-.083.905v.018l.715.167.006-.232zM321.285 374.353l-.636-.148c-.091.206-.181.411-.271.62l.637.148c.09-.21.181-.413.27-.62zM317.43 385.109l-.662-.155-.118.403.662.155c.038-.137.079-.268.118-.403zM317.04 386.463l-.668-.156c-.037.132-.069.272-.105.405l.668.157c.036-.133.069-.273.105-.406zM316.69 387.812l-.668-.156-.106.409.668.156c.034-.138.071-.273.106-.409zM319.198 379.637l-.649-.151c-.077.214-.156.423-.232.64l.648.152c.075-.218.155-.426.233-.641zM316.335 389.176l-.668-.157c-.033.135-.068.267-.101.403l.674.158c.033-.133.063-.271.095-.404zM318.085 382.827l.03.007c.056-.177.114-.347.171-.522l-.655-.153c-.07.216-.143.427-.212.645l.497.116.169-.093zM313.915 402.902l-.427-.1-.294.146c-.017.148-.028.306-.044.454l.7.164c.024-.217.041-.446.065-.664zM333.471 355.114l-.558-.131-.326.354.558.13.326-.353zM317.825 383.763l-.662-.155c-.04.132-.078.271-.118.403l.662.155c.04-.134.078-.271.118-.403zM318.731 380.958l-.655-.153c-.072.21-.141.432-.212.645l.655.153c.071-.214.14-.434.212-.645zM316.025 390.534l-.675-.158-.094.415.674.16.095-.417zM314.945 395.796l-.683-.16c-.052.292-.099.595-.148.891l.687.16c.049-.293.092-.6.144-.891zM320.723 375.661l-.643-.15c-.083.2-.163.415-.246.618l.643.15c.083-.204.163-.417.246-.618zM315.205 394.442l-.681-.16c-.057.292-.115.579-.169.874l.681.16c.054-.296.114-.581.169-.874zM314.72 397.187l-.688-.161c-.05.302-.099.606-.146.911l.687.161c.047-.306.097-.609.147-.911zM319.68 378.308l-.648-.152c-.077.203-.15.417-.227.623l.648.152c.077-.206.151-.419.227-.623zM315.714 391.905l-.675-.157c-.03.141-.064.276-.095.418l.675.159c.031-.143.065-.278.095-.42zM315.473 393.062l-.103-.024-.309.154-.312-.073c-.047.226-.089.459-.134.687l.682.16c.06-.301.115-.607.176-.904zM320.196 376.983l-.643-.15c-.084.211-.169.418-.252.632l.643.15c.083-.215.168-.42.252-.632zM311.023 451.802l-.704-.165c-.025.319-.051.626-.078.91l.7.164c.028-.283.055-.587.082-.909zM337.111 351.655l-.509-.119-.129.101s-.106.081-.291.231l.519.121c.191-.16.33-.272.41-.334zM335.789 352.792l-.531-.125c-.117.106-.24.219-.373.343l.538.126c.125-.118.253-.24.366-.344zM311.095 450.841l-.707-.165-.03.437.706.166.031-.438zM331.932 464.168l-.118.059 3.301.771c2.084.367 4.31.679 6.68.919l.025-.113a87.95 87.95 0 01-9.888-1.636zM312.918 411.873l.315.073.008-.235zM310.887 453.212l-.697-.163c-.037.344-.076.645-.117.901l.686.16c.044-.244.087-.548.128-.898zM311.785 456.296c.192.134.398.273.621.42l.373-.187-.994-.233zM310.805 440.441l-.008.314.069-.3-.061-.014zM311.468 439.083l.128.032.062-.671-.035-.009-.155.648zM334.598 353.939l-.545-.127-.35.349.551.129.344-.351zM310.569 454.756a.756.756 0 00.075-.17l-.664-.155c-.042.176-.086.306-.132.371 0 0 .294.274.894.735l1.137.267c-.882-.648-1.31-1.048-1.31-1.048zM312.219 429.784l-.711-.165-.034.723.736-.368.009-.19zM348.948 466.324a96.36 96.36 0 01-2.009-.102l.446.104c.282.014.556.032.842.043 0 0 .818.021 2.009-.055l-.029-.007c-.768.03-1.259.017-1.259.017zM350.926 419.184l.186.046.924-.462-.956-.231zM342.596 458.797l-11.939-2.792-.586.293 11.939 2.792-.432.216 1.712.385.201-.879-.632-.139zM344.123 409.065l6.556 1.527 1.265-.632-7.62-1.774zM338.632 416.639l3.147.74.154-.648-2.375-.555zM351.573 416.454l3.457.802.924-.463-4.226-.986zM351.25 417.826l1.821.417.924-.462-2.59-.601zM342.273 415.359l-.756-.17-.926.463 1.527.355z"/><path d="M348.936 402.617l-11.877-2.776.185-.093-11.97-2.791.2-.108-10.269-2.406c-.056.292-.115.578-.169.874l9.173 2.149.139-.061 11.971 2.791.169-.076 11.924 2.791.047-.016 3.317.777c-.127-.337-.253-.678-.379-1.02l-1.735-.405-.726.37zM340.607 367.726l3.771.88-.084-.701-3.532-.827-.155.648zM341.254 365.011l2.792.65c-.023-.233-.048-.466-.07-.699l-2.567-.6-.155.649zM341.563 363.638l2.34.546-.063-.697-2.123-.497-.154.648zM342.596 361.617l-9.239-2.159-.2.879 8.19 1.913.617-.309-.108.324 1.92.448a83.955 83.955 0 01-.053-.693l-1.327-.311.2-.092zM340.93 366.353l3.271.76-.076-.699-3.041-.708-.154.647zM348.874 420.342l1.496.353.093-.416-1.003-.231zM330.626 403.064l11.924 2.793.586-.294-11.924-2.792.186-.091-12.047-2.824-.926.463 12.031 2.824zM351.192 402.088c-.063-.173-.124-.347-.186-.521l-.65.325.836.196zM340.282 369.083l3.455.802.752-.375-.017-.131-4.036-.943-.154.647zM336.534 382.379l-12.017-2.807.17-.093-5.008-1.171c-.076.204-.15.417-.227.623l4.324 1.012.17-.093 11.985 2.808-.37.185 11.576 2.712a55.471 55.471 0 01-.092-.468l-10.853-2.538.342-.17zM341.624 418.104l-4.01-.94-.925.463 4.781 1.125zM330.858 420.588l9.656 2.252.154-.648-8.885-2.083.201-.076-12.032-2.808-1.265.632 12.032 2.808zM328.667 404.053l11.924 2.791.586-.293-11.924-2.792.186-.093-12.048-2.822-.925.463 12.031 2.822zM342.827 414.541l1.296-.663-1.08-.247zM334.36 409.944l-.063.032.047.014zM337.953 425.879l-12.001-2.808.201-.092-12.032-2.807-1.264.632 12.031 2.807.139-.077 12.001 2.808.17-.093 11.245 2.622.092-.4-10.767-2.515zM333.295 414.572l-5.522-1.296-.293.139-12.017-2.808-.586.293 12.017 2.809-.402.199 6.602 1.543zM328.436 412.922l4.967 1.156.201-.879-3.888-.91-.293.139-12.017-2.807-.585.293 12.016 2.807zM330.395 411.935l3.332.77.2-.879-2.252-.524-.293.139-12.001-2.808-.586.293 12.001 2.808zM332.308 418.66l-10.412-2.437-1.265.632 11.476 2.684zM328.899 421.56l11.291 2.637.154-.647-10.504-2.453.185-.092-12.033-2.808-1.264.633 12.032 2.807zM339.234 407.538l-11.924-2.792.185-.092-12.047-2.824-.925.463 12.031 2.823.17-.077 11.924 2.792zM344.972 422.315l4.751 1.111.093-.401-4.258-1.003zM343.013 423.287l6.386 1.496.092-.416-5.892-1.373zM346.915 421.328l3.116.726.093-.402-2.623-.617zM341.07 424.274l8.02 1.867.093-.401-7.527-1.759zM339.912 424.876l-12.001-2.808.201-.091-12.032-2.808-1.264.632 12.031 2.807.139-.077 12.001 2.808.169-.093 9.611 2.253.092-.401-9.132-2.129zM341.301 419.462l-5.646-1.327-.925.463 6.417 1.511zM340.992 420.819l-7.281-1.696-.926.463 8.053 1.881zM353.378 457.439l4.778 1.112c.013-.291.027-.598.043-.916l-4.62-1.076-.201.88zM329.716 373.448l-7.251-1.69c-.097.203-.193.406-.289.612l7.386 1.726.154-.648zM346.082 412.906l-2.715-.633-.2.879 1.651.387zM329.037 376.163l-7.752-1.81c-.09.207-.181.41-.27.62l7.867 1.838.155-.648zM330.413 358.721l-.175.221.357-.178-.182-.043zM325.829 387.778l12.047 2.823 1.265-.632-12.047-2.823-.309.154-9.355-2.191c-.039.135-.08.267-.118.402l8.888 2.082-.371.185zM334.514 356.789l-2.104-.493c-.105.121-.206.231-.313.357l1.831.429.586-.293zM329.7 385.819l12.048 2.823 1.265-.632-12.047-2.823-.309.154-11.985-2.808.169-.092-.555-.13c-.057.175-.115.345-.171.522l11.955 2.801-.37.185zM336.473 355.817l-3.002-.703-.326.354 2.741.642.587-.293zM327.757 386.791l12.047 2.823 1.266-.632-12.048-2.823-.309.154-10.888-2.55c-.04.132-.078.27-.118.403l10.42 2.44-.37.185zM320.03 381.824l11.985 2.807-.37.185 12.047 2.823 1.265-.633-12.047-2.823-.309.154-11.985-2.807.17-.093-2.055-.48c-.071.211-.141.431-.212.645l1.341.313.17-.091zM327.865 377.875l9.609 2.252.093-.401-9.132-2.128.17-.093-7.883-1.844c-.083.201-.163.414-.246.618l7.219 1.689.17-.093zM321.989 380.853l11.985 2.807-.37.185 12.047 2.823 1.265-.632-12.047-2.823-.309.154-11.985-2.808.17-.092-3.547-.83c-.077.215-.157.423-.233.641l2.854.667.17-.092zM325.906 378.878l11.245 2.622.092-.401-10.767-2.514.17-.093-6.451-1.509c-.084.212-.169.417-.252.632l5.793 1.355.17-.092zM332.555 357.776l-1.167-.273-.297.361.877.206.587-.294zM354.011 454.709l4.329 1.01.078-.909-4.207-.98-.2.879zM354.443 452.843l-.107.493 4.127.962.08-.907-3.544-.826-.556.278zM353.687 456.066l4.54 1.06.011-.196.061-.717-4.41-1.026-.202.879zM356.279 451.917l-11.847-2.776.186-.093-11.971-2.792.201-.108-12.048-2.822-.309.154-.679-.154-.139.57-.139.077 12.047 2.823.14-.062 11.97 2.792.17-.077 11.847 2.776 2.878.67.081-.917-1.71-.401-.678.34zM338.401 354.83l-3.803-.891-.344.351 3.561.833.586-.293zM333.495 358.964l9.811 2.298.139-.077.222.052c-.019-.278-.036-.555-.053-.831l-9.918-2.322-.201.88zM353.055 458.797l4.921 1.156.135-.067c.007-.26.016-.535.026-.823l-4.882-1.146-.2.88zM340.344 353.858l-4.555-1.066c-.113.104-.241.226-.366.344l4.335 1.015.586-.293zM342.303 352.871l-5.192-1.216c-.079.062-.219.174-.41.334l5.017 1.175.585-.293zM346.361 448.169l.185-.093-11.97-2.792.2-.108-12.047-2.822-.309.154-2.313-.54-.093.4 1.835.433-.37.185 12.048 2.823.139-.077 11.97 2.792.17-.077 11.847 2.776 1.062.249.075-.817-.581.291-11.848-2.777zM348.52 447.119l-11.97-2.792.2-.107-12.047-2.823-.309.154-3.949-.925-.093.4 3.455.803-.37.185 12.048 2.823.139-.063 11.97 2.793.17-.077 11.078 2.582.037-.402-10.545-2.458.186-.093zM348.458 438.312l-12.048-2.822-.309.154-11.985-2.808.17-.062-10.751-2.515-.154.647 9.979 2.329.17-.092 11.985 2.807-.37.186 12.047 2.823.14-.077 11.468 2.675-.003-.205-11.188-2.609.849-.431zM329.377 374.821l-7.525-1.764c-.093.204-.184.42-.275.628l7.646 1.783.154-.647zM352.854 411.024l2.204.515-.345-.764-1.705-.398-.154.647zM352.531 412.366l3.261.76c-.118-.251-.237-.507-.356-.765l-2.75-.643-.155.648zM351.882 415.097l5.091 1.188.28-.14-.266-.535-4.951-1.16-.154.647zM352.206 413.724l4.354 1.011c-.122-.252-.245-.506-.369-.767l-3.83-.892-.155.648zM359.472 422.485l1.339.315-.283-.492-.964-.225-.092.402zM359.883 421.16l-.055-.098-.018.081.073.017zM344.772 406.351l8.922 2.09a153.2 153.2 0 01-.434-1.03l-8.288-1.939-.2.879zM349.985 410.963L344 409.559l-.201.879 4.921 1.158zM348.026 411.935l-4.35-1.019-.2.879 3.285.771zM353.888 408.988l-9.24-2.16-.2.88 8.19 1.913.617-.309-.107.324 1.183.276c-.11-.252-.222-.504-.332-.76l-.312-.073.201-.091zM359.132 424.013l-.139.077.708.166.002-.012s-.073-.362.046-.694l-.479-.108-.138.571zM345.203 404.5l-.108.493 7.931 1.849c-.139-.337-.276-.677-.414-1.021l-6.854-1.6-.555.279zM321.911 389.737l12.047 2.823.139-.062 11.97 2.792.926-.463-11.97-2.792.2-.108-12.047-2.823-.309.154-6.178-1.447-.106.409 5.698 1.332-.37.185zM316.049 392.699l12.048 2.823.139-.077 11.97 2.792.926-.463-11.971-2.792.201-.108-12.047-2.823-.309.154-1.292-.301c-.03.142-.064.277-.095.42l.8.189-.37.186zM317.992 391.712l12.048 2.823.139-.077 11.97 2.792.926-.463-11.97-2.792.2-.108-12.047-2.823-.309.154-2.925-.684-.095.417 2.434.576-.371.185zM326.291 396.432l11.971 2.792.926-.463-11.971-2.792.201-.108-11.945-2.799c-.061.297-.116.603-.175.903l10.854 2.544.139-.077zM323.87 388.766l12.047 2.823.139-.062 11.97 2.792.278-.139-11.971-2.792.849-.432-12.047-2.823-.309.154-7.786-1.824c-.036.133-.069.272-.105.406l7.306 1.711-.371.186zM319.952 390.725l12.047 2.823.139-.062 11.97 2.792.926-.463-11.97-2.792.2-.108-12.047-2.823-.309.154-4.573-1.071-.095.405 4.082.959-.37.186zM320.43 399.363l11.971 2.791.169-.076 11.924 2.791.586-.293-11.923-2.791.185-.094-11.97-2.791.2-.108-6.852-1.605c-.05.303-.1.605-.147.911l5.719 1.342.138-.077zM324.765 406.012l11.924 2.791.586-.293-11.924-2.792.186-.093-11.621-2.723c-.024.218-.041.446-.064.665l10.744 2.521.169-.076zM322.574 415.867l9.841 2.299.201-.879-8.777-2.052-.277.139-10.367-2.422-.016.426 9.796 2.29zM347.841 429.766l-12.017-2.807.17-.093-12.001-2.808.2-.093-11.469-2.676-.084.908 10.288 2.4.139-.077 12.001 2.808.17-.093 11.985 2.808-.37.185 12.047 2.823.012-.006.02-.438-11.431-2.673.34-.168zM324.533 414.881l8.238 1.912.2-.879-7.157-1.666-.293.139-12.017-2.807-.263.131-.008.235 11.701 2.734zM320.877 407.971l11.878 2.775-.401.201 1.682.4.2-.879-.632-.139-.294.139-11.877-2.776.185-.093-7.979-1.869c-.02.22-.045.431-.063.652l7.134 1.664.167-.075zM322.822 406.998l11.923 2.792.587-.293-11.924-2.792.185-.092-9.814-2.301-.065.665 8.939 2.098.169-.077zM346.977 403.574l-11.877-2.777.185-.092-11.97-2.793.2-.107-8.57-2.008c-.052.291-.095.597-.145.891l7.466 1.75.139-.063 11.97 2.793.17-.078 11.924 2.793.046-.016 5.869 1.374c-.136-.344-.271-.69-.404-1.04l-4.276-.998-.727.371zM319.32 453.213l.617-.309-8.842-2.063-.031.438 8.256 1.934zM317.361 454.215l1.265-.632-7.603-1.781c-.026.322-.054.626-.082.909l6.42 1.504zM311.654 439.129l.925-.463-.921-.222-.062.671.058.014zM340.53 451.13l.184-.093-12.047-2.822-.926.463 12.033 2.822.17-.077 11.923 2.792.586-.293zM349.83 464.011l1.528.354.154-.648-.756-.169zM311.878 455.804l1.58.37 1.265-.632-4.079-.956a.756.756 0 01-.075.17s.428.4 1.309 1.048zM348.551 455.896l-11.924-2.792.185-.092-12.047-2.823-.926.463 12.032 2.823.169-.078 11.924 2.792zM347.871 464.997l3.148.741.154-.648-2.376-.555zM315.417 455.202l1.265-.632-5.795-1.358c-.041.35-.084.654-.129.898l4.659 1.092zM312.399 424.999l6.612 1.543.139-.077 12.001 2.808.17-.093 11.985 2.808-.37.186 12.047 2.822 1.265-.632-12.048-2.824-.309.154-11.985-2.808.17-.093-12.001-2.807.2-.093-7.808-1.822-.063.695c.001.002-.001.095-.005.233zM341.856 465.646l-8.776-2.052-1.147.574a87.734 87.734 0 009.888 1.635l.035-.157zM317.052 427.514l.139-.077 12.001 2.808.17-.093 11.985 2.808-.37.186 12.047 2.822 1.265-.632-12.047-2.823-.309.154-11.985-2.808.17-.093-12.001-2.807.2-.093-5.932-1.384-.03.937 4.697 1.095zM312.471 429.843l-.252-.059-.009.189.261-.13zM320.94 425.57l.138-.077 12.001 2.808.169-.093 11.987 2.808-.371.184 12.047 2.823 1.265-.632-12.047-2.823-.308.155-11.986-2.808.169-.093-12.001-2.807.201-.092-9.608-2.242-.084.923zM352.731 460.169l3.286.771 1.264-.631-4.35-1.019zM315.124 428.532l.139-.077 12.001 2.808.169-.093 11.985 2.808-.37.185 12.048 2.823 1.265-.633-12.047-2.822-.309.154-11.985-2.808.169-.077-12.001-2.808.201-.093-4.053-.948c-.01.283-.021.592-.035.92l2.823.661zM313.165 429.504l.616-.309-.107.324 11.631 2.715.169-.093 11.985 2.808-.37.185 12.048 2.823 1.265-.633-12.047-2.822-.309.154-11.985-2.808.154-.077-12.001-2.808.2-.093-2.133-.498c-.013.291-.025.598-.04.915l.924.217zM352.083 462.915l1.295-.663-1.079-.247zM352.406 461.526l1.651.386 1.266-.632-2.715-.633zM342.596 441.273l-12.047-2.823-.309.154-8.853-2.066-.093.4 8.361 1.975-.371.186 12.047 2.822.139-.077 11.971 2.792.924-.463-11.969-2.792zM312.887 432.975l-.154.647 6.71 1.559.925-.463zM337.999 452.41l11.924 2.792.587-.293-11.924-2.792.185-.093-12.047-2.822-.926.463 12.032 2.822zM341.903 450.436l11.923 2.792.586-.293-11.923-2.792.184-.092-12.047-2.823-.926.462 12.033 2.823zM312.424 434.979l5.091 1.189.926-.463-5.863-1.373zM340.637 459.784l-11.939-2.792-.586.293 11.939 2.792-.432.216 3.332.771.201-.879-2.252-.525zM334.776 462.729l-11.954-2.791-.587.293 11.955 2.792-.432.216 8.206 1.912.2-.879-7.157-1.666zM312.101 436.353l3.455.802.926-.463-4.227-.987zM338.694 460.771l-11.94-2.792-.586.293 11.94 2.792-.432.216 4.967 1.157.2-.879-3.887-.911zM334.868 453.983l-12.046-2.822-.926.463 12.031 2.822.17-.077 11.924 2.792.586-.293-11.924-2.792zM336.735 461.758l-11.954-2.792-.587.294 11.955 2.792-.432.216 6.602 1.542.2-.879-5.522-1.296zM340.653 442.245l-12.047-2.823-.309.154-7.219-1.68-.092.4 6.725 1.589-.37.185 12.047 2.823.139-.078 11.969 2.792.926-.461-11.97-2.792zM338.694 443.232l-12.047-2.823-.309.154-5.584-1.31-.093.4 5.091 1.219-.37.186 12.047 2.822.139-.077 11.969 2.792.926-.462-11.97-2.792zM350.206 466.309l-3.353-.787-.926.463 1.011.238c.662.038 1.327.075 2.009.102.001-.001.492.012 1.259-.016zM332.909 454.971l-12.062-2.823-.926.463 12.047 2.823.17-.078 11.924 2.792.586-.293-11.924-2.792zM344.54 440.286l-12.048-2.823-.308.154-10.474-2.452-.093.401 9.981 2.36-.37.185 12.047 2.823.139-.078 11.97 2.792.926-.461-11.971-2.792zM322.019 433.9l-.077.309 11.631 2.745-.371.186 12.047 2.822.139-.077 11.971 2.792.924-.463-11.969-2.792.2-.108-12.047-2.823-.309.155-11.985-2.808.17-.092-9.116-2.129-.154.648 8.344 1.944zM311.777 437.71l1.82.417.926-.463-2.592-.601zM333.927 357.113l-.123.494 9.781 2.28a77.479 77.479 0 01-.047-.938l-9.056-2.113-.555.277zM343.569 458.35l.014-.047-.061.031zM331.737 375.916l6.386 1.481.092-.401-5.892-1.373zM329.778 376.903l8.021 1.867.093-.401-7.527-1.759zM330.025 372.091l-5.646-1.327-.926.463 6.417 1.512zM330.657 369.36l-2.376-.555-.925.463 3.147.74zM330.349 370.733l-4.011-.941-.926.463 4.783 1.126zM330.996 367.988l-.756-.17-.925.463 1.527.354zM332.832 361.694l6.556 1.527 1.265-.632-7.621-1.774zM339.974 370.456l1.82.416.926-.463-2.592-.601zM337.583 372.97l1.496.34.093-.402-1.003-.231zM333.681 374.944l4.751 1.111.092-.401-4.257-1.003zM339.65 371.813l.185.046.926-.463-.957-.231zM335.64 373.957l3.115.741.093-.417-2.622-.617zM341.023 353.534l2.446.571c.007-.311.016-.618.027-.922l-1.208-.282-1.265.633zM343.515 352.684l.021-.391-.539.27.518.121zM339.064 354.521l4.393 1.025c-.001-.312 0-.621.004-.927l-3.132-.731-1.265.633zM337.136 355.508l6.336 1.479a73.638 73.638 0 01-.014-.931l-5.058-1.18-1.264.632zM335.193 356.48l8.324 1.942c-.012-.314-.022-.625-.031-.935l-7.028-1.64-1.265.633zM338.709 363.576l-5.985-1.404-.2.879 4.921 1.157zM334.791 365.535l-2.715-.633-.201.88 1.652.385zM331.768 366.26l-.216.91 1.296-.663zM336.75 364.563l-4.349-1.018-.202.879 3.287.772zM533.954 432.971l-.717.168.013.445.717-.168-.013-.445zM534.175 442.667l-.719.167.012.677.719-.168-.012-.676zM533.983 433.934l-.717.168.024.923.718-.168-.025-.923zM535.105 463.671l.039.02-.014-.025-.025.005zM534.159 441.701l-.719.168.003.203.719-.168-.003-.203zM534.044 436.286l-.022-.923-.718.169.02.794.177.088.543-.128zM534.909 459.399l-.716.168.037.918.717-.168-.038-.918zM534.102 454.354l.568.284a68.28 68.28 0 01-.023-.412l-.545.128zM534.369 449.947l-.712.166.028.404.712-.166a27.794 27.794 0 00-.028-.404zM534.596 456.591l-.536.125.046.915.69-.161-.2-.879zM534.467 451.363l-.713.167.027.401.712-.167a35.509 35.509 0 00-.026-.401zM539.266 466.037l-.402.094c.456.069.948.122 1.498.146l-.235-.118a12.749 12.749 0 01-.861-.122zM546.448 466.313l.005.019c.415-.018.848-.039 1.309-.068l.032-.008c-.475.024-.925.043-1.346.057zM534.559 452.784l-.713.167.027.437.713-.168c-.009-.148-.017-.293-.027-.436zM534.133 445.546l.086.043-.001-.063-.085.02zM534.846 457.98l-.716.167.042.916.715-.167-.041-.916zM535.045 463.188l-.028-.921-.718.167c.01.282.018.564.026.848l.101.051.619-.145zM534.967 460.83l-.717.168.032.92.718-.168c-.01-.309-.021-.615-.033-.92zM537.038 465.339l.091.383c.029.01.063.019.092.028l.503-.117a6.996 6.996 0 01-.686-.294zM534.198 444.087l-.719.167.01.677.719-.168-.01-.676zM534.04 454.246l-.119-.06.034.602.208-.049-.123-.493zM534.272 455.233l-.287.067c.017.296.033.605.049.914l.438-.103-.2-.878zM550.098 356.264l-2.078.485-.006.929 3.349-.781-1.265-.633zM552.057 357.236l-4.048.944-.011.93 5.323-1.242-1.264-.632zM547.738 368.481l-.044.01-.039.693.237-.056-.154-.647zM548.062 369.839l-.451.105-.045.693.65-.151-.154-.647zM548.37 371.211l-.855.199-.049.691 1.059-.242-.155-.648zM565.477 363.992l-.062-.031.016.047zM554.556 358.517l-.556-.278-6.009 1.402-.017.932 6.704-1.563-.122-.493zM547.738 372.8l.925.463.186-.046-.154-.648zM558.937 375.5l8.052-1.882-.926-.463-7.281 1.697zM555.112 360.846l-7.181 1.678-.027.931 7.408-1.729-.2-.88zM554.803 359.488l-6.838 1.6c-.006.308-.015.621-.022.933l7.061-1.654-.201-.879zM555.651 363.098l-.2-.879-7.563 1.76-.001.041 1.209.605 6.555-1.527zM558.135 378.014l-7.528 1.758.092.402 8.022-1.867zM550.329 374.096l-1.003.232.093.401 1.496-.34zM555.975 364.455l-.2-.879-5.986 1.403 1.265.633zM552.273 375.052l-2.622.617.092.417 3.116-.74zM552.998 366.599l3.285-.771-.2-.879-4.35 1.018zM556.175 377.042l-5.892 1.373.092.401 6.387-1.481zM558.628 374.142l6.417-1.511-.926-.463-5.645 1.327zM552.566 384.061l11.985-2.808.17.092 8.899-2.082c-.076-.208-.148-.415-.227-.623l-9.583 2.242.17.092-12.017 2.808.34.169-6.489 1.518c-.029.154-.057.312-.087.465l7.208-1.689-.369-.184zM554.232 376.04l-4.257 1.002.092.401 4.751-1.11zM554.525 385.048l11.985-2.807.17.092 7.428-1.737c-.075-.212-.157-.427-.234-.64l-8.119 1.899.17.093-11.985 2.807-.309-.154-8.015 1.878c-.067.328-.135.656-.205.977l9.484-2.223-.37-.185zM554.957 367.571l1.651-.385-.202-.88-2.714.632zM556.931 368.589l-.216-.91-1.079.247zM554.556 393.948l12.047-2.823-.37-.185 10.311-2.41c-.037-.138-.069-.273-.106-.411l-10.79 2.527-.309-.154-12.047 2.823.2.108-10.727 2.502-.21.728 11.862-2.767.139.062zM548.155 355.277l-.133.031v.928l1.397-.326-1.264-.633zM556.469 386.035l11.985-2.807.169.092 5.938-1.389c-.072-.215-.143-.428-.217-.644l-6.646 1.555.169.092-11.985 2.808-.309-.154-10.337 2.422c-.12.329-.238.67-.355 1.012l11.958-2.802-.37-.185zM552.581 392.977l12.047-2.823-.37-.185 11.917-2.792-.149-.527-.537.125.169.092-11.985 2.808-.309-.154-12.047 2.823.849.432-9.105 2.124-.063.218 9.445-2.203.138.062zM559.184 369.685l-.926-.463-.756.169.154.648zM557.981 371.412l3.146-.741-.926-.462-2.375.555zM558.304 372.77l4.782-1.126-.926-.463-4.01.941zM556.034 351.963l-8.018 1.877.002.43 8.368-1.959c-.112-.113-.235-.233-.352-.348zM551.039 347.919l.63-.147c-.188-.176-.393-.363-.586-.542l-.97.226.926.463zM549.08 346.932l1.343-.313c-.198-.183-.384-.357-.586-.542l-1.683.393.926.462zM548.976 345.297l-1.134.264.008.202 1.305-.304-.179-.162zM538.649 408.912l5.078-1.189-.2-.879-4.516 1.057c-.102.282-.192.557-.297.841-.021.058-.044.112-.065.17zM552.658 348.706l-.364-.344-.222.052.586.292zM573.128 394.411l-12.048 2.823.201.107-11.971 2.792.926.463 11.971-2.792.139.077 12.047-2.823-.37-.185 3.803-.911-.087-.408-4.302 1.01-.309-.153zM571.755 384.894l-11.985 2.808-.309-.154-12.047 2.823 1.265.632 12.047-2.823-.37-.185 11.985-2.807.17.092 2.908-.682c-.065-.215-.132-.43-.199-.646l-3.635.851.17.091zM573.714 385.881l-11.985 2.808-.309-.154-12.047 2.823 1.265.632 12.047-2.823-.37-.185 11.985-2.808.17.093 1.357-.319-.191-.649-2.092.49.17.092zM571.169 393.439l-12.048 2.823.201.108-11.971 2.792.926.463 11.97-2.792.14.077 12.047-2.823-.37-.185 5.474-1.293c-.029-.135-.062-.271-.092-.406l-5.968 1.39-.309-.154zM569.225 392.452l-12.047 2.823.201.108-11.971 2.792.926.463 11.97-2.792.139.077 12.048-2.823-.37-.185 7.098-1.68-.095-.404-7.59 1.775-.309-.154zM567.266 391.48l-12.047 2.823.2.108-11.97 2.792.926.463 11.97-2.792.139.062 12.048-2.823-.37-.185 8.729-2.051c-.033-.132-.07-.267-.104-.399l-9.213 2.157-.308-.155zM544.035 409.096l-.2-.879-5.402 1.263c-.134.349-.268.688-.402 1.019l6.004-1.403zM566.943 400.195l.2.108-11.97 2.792.185.092-11.924 2.793.587.293 11.923-2.792.17.077 11.971-2.792.139.077 10.436-2.449c-.05-.299-.104-.603-.156-.907l-11.561 2.708zM536.925 417.873l-.154-.648-2.05.479c-.119.254-.236.508-.354.763l2.558-.594zM579.051 415.266l.278.14.753-.176.002-.205-1.033.241zM543.388 406.381l-.108-.493-.555-.278-3.167.739c-.114.333-.236.672-.355 1.008l4.185-.976z"/><path d="M541.275 431.432l11.985-2.807.17.092 12.001-2.807.139.077 12.031-2.808-1.265-.633-12.031 2.808.2.093-12.001 2.807.17.093-12.017 2.808.34.17-7.043 1.646.013.445 7.678-1.799-.37-.185zM579.391 406.412l-.447-.231-12.048 2.823.186.092-11.878 2.777-.293-.139-.632.139.2.879 1.682-.4-.401-.201 11.878-2.777.169.078 11.77-2.746.145.072c-.013-.146-.023-.285-.037-.434l-.294.068zM569.826 383.907l-11.985 2.807-.309-.154-12.047 2.823 1.265.633 12.048-2.823-.37-.186 11.985-2.807.169.092 4.424-1.035c-.068-.213-.145-.43-.215-.644l-5.134 1.201.169.093zM536.616 416.5l-.154-.647-.966.226-.369.77 1.489-.349zM536.277 415.143l-.109-.46-.262.546.371-.086zM537.82 411.996l6.556-1.527-.201-.879-6.38 1.485c-.106.253-.213.504-.319.749l.344.172zM562.361 362.419l2.652-.621c-.079-.125-.155-.25-.236-.375l-3.002.703.586.293zM560.417 361.447l3.76-.88a57.071 57.071 0 00-.309-.358l-4.037.945.586.293zM548.709 355.524l8.825-2.066-.348-.349-9.063 2.122.586.293zM558.458 360.46l4.669-1.093-.317-.356-4.938 1.156.586.293zM564.335 363.406l1.476-.346c-.077-.125-.159-.25-.237-.375l-1.824.428.585.293zM566.28 364.394l.284-.066c-.074-.126-.146-.253-.222-.379l-.649.152.587.293zM554.556 358.501l6.403-1.5-.331-.353-6.658 1.559.586.294zM550.654 356.511l8.034-1.881a54.552 54.552 0 00-.342-.35l-8.279 1.938.587.293zM552.627 357.514l7.216-1.689-.337-.352-7.465 1.748.586.293zM565.554 364.501l.2.879 1.259-.286-.264-.451-.563-.281-.632.139zM556.515 359.473l5.536-1.296-.327-.354-5.795 1.357.586.293zM571.909 376.117l-12.001 2.808.17.092-9.132 2.129.093.401 9.609-2.252.17.092 11.787-2.757c-.1-.249-.192-.496-.295-.745l-.602.14.201.092zM567.991 374.127l-8.885 2.083.154.647 9.656-2.252.139.077 2.489-.584c-.124-.285-.243-.568-.37-.854l-3.385.79.202.093zM552.165 401.584l11.97-2.792.139.062 12.047-2.823-.37-.185 2.155-.5-.077-.402-2.664.624-.309-.154-12.047 2.822.2.108-11.97 2.792.185.092-11.022 2.577-.146.45 11.739-2.749.17.078zM562.037 379.973l-10.768 2.514.093.401 11.245-2.623.17.093 10.347-2.42c-.081-.21-.168-.422-.25-.633l-11.007 2.575.17.093zM567.667 373.572l3.301-.772c-.126-.278-.258-.558-.388-.836l-3.113.729.2.879zM566.063 366.738l1.663-.387c-.151-.273-.302-.547-.457-.82l-1.406.328.2.879zM569.935 375.129l-10.505 2.453.154.648 11.292-2.638.139.077 1.095-.255c-.117-.282-.242-.564-.363-.847l-2.012.47.2.092zM567.343 372.199l3.019-.705c-.131-.278-.26-.556-.395-.834l-2.824.66.2.879zM566.387 368.111l2.034-.475c-.146-.274-.296-.549-.445-.823l-1.789.419.2.879zM566.711 369.468l2.379-.557c-.142-.276-.28-.552-.426-.827l-2.154.505.201.879zM567.035 370.841l2.707-.63a91.857 91.857 0 00-.416-.83l-2.492.58.201.88zM544.699 411.826l-.201-.879-5.984 1.404 1.265.632zM544.9 424.398l-5.893 1.373.093.417 6.386-1.497zM545.44 415.051l-1.08.246 1.296.664zM567.652 453.567l-12.047 2.824.185.091-11.924 2.792.586.293 11.924-2.792.169.078 12.032-2.823zM540.997 422.439l-2.623.617.093.401 3.116-.725zM546.859 425.4l-7.528 1.759.093.402 8.021-1.868zM542.941 423.427l-4.258 1.002.093.401 4.751-1.11zM546.55 418.135l.154.648 3.147-.74-.925-.463zM546.874 419.492l.155.649 4.781-1.126-.925-.463zM546.226 416.763l.154.647 1.527-.354-.925-.463zM553.754 420.002l-.926-.463-5.645 1.326.154.649zM546.519 460.509l11.939-2.792-.586-.293-11.939 2.792-.262-.124-.633.139.201.879 1.712-.385zM554.586 455.865l12.032-2.822-.925-.463-12.047 2.823.184.092-11.924 2.792.587.294 11.924-2.793zM550.684 453.892l12.032-2.824-.926-.463-12.047 2.824.185.092-11.924 2.792.586.293 11.924-2.792zM552.643 454.879l12.032-2.823-.926-.463-12.047 2.823.185.092-11.924 2.792.587.294 11.923-2.792zM575.75 435.026l-.154-.648-7.481 1.743.925.463zM548.74 452.92l12.032-2.823-.925-.463-12.048 2.823.186.092-11.924 2.792.586.294 11.924-2.792zM551.78 463.146l-.263-.123-5.523 1.295.202.88 6.601-1.543-.432-.216 11.955-2.792-.586-.293zM544.915 459.753l.046-.016-.061-.03zM548.448 461.48l11.939-2.792-.587-.292-11.938 2.792-.263-.124-2.252.525.2.879 3.332-.772zM550.406 462.468l11.94-2.792-.587-.293-11.938 2.792-.263-.123-3.887.909.2.88 4.967-1.157zM549.528 426.758l12-2.808.139.078 12.031-2.807-1.264-.633-12.032 2.808.201.092-12.001 2.807.184.093-9.131 2.129.092.401 9.611-2.252zM547.66 422.871l8.053-1.882-.926-.463-7.281 1.697zM547.985 424.229l9.656-2.252.139.077 12.032-2.808-1.266-.633-12.031 2.808.2.077-8.885 2.082zM565.107 408.125l-11.924 2.791.586.293 11.924-2.791.17.076 12.032-2.822-.926-.463-12.047 2.822zM557.888 404.484l.169.077 12.032-2.823-.926-.463-12.047 2.823.185.093-11.924 2.791.587.293zM561.204 406.15l-11.923 2.791.585.293 11.924-2.791.17.077 12.031-2.823-.924-.463-12.048 2.823zM563.163 407.137l-11.923 2.793.585.293 11.924-2.793.17.078 12.031-2.823-.924-.463-12.048 2.823zM543.681 414.957l1.65-.385-.2-.879-2.715.632zM541.722 413.971l3.286-.772-.201-.879-4.35 1.018zM537.248 419.23l-.154-.648-2.591.602.925.462zM537.372 420.635l.185-.047-.154-.649-.956.233zM577.323 396.555l-.309-.154-12.047 2.823.2.108-11.97 2.792.185.093-11.877 2.776-.726-.37-.696.162c-.112.342-.218.676-.335 1.021l2.22-.52.046.015 11.924-2.791.17.076 11.97-2.791.139.062 12.048-2.823-.37-.185.478-.112c-.024-.134-.054-.273-.078-.408l-.972.226zM559.261 405.162l-11.924 2.793.586.293 11.924-2.793.169.078 12.032-2.823-.926-.463-12.047 2.823zM562.361 424.367l.201.093-12.001 2.808.184.077-10.766 2.513.093.402 11.245-2.622.17.091 12.001-2.806.138.077 12.031-2.808-1.264-.632zM562.7 415.668l-7.157 1.665.2.88 8.238-1.913-.402-.2 12.017-2.808-.586-.294-12.017 2.809zM564.644 416.639l-8.777 2.051.201.88 9.84-2.299-.4-.201 12.016-2.806-.586-.293-12.016 2.806zM548.293 425.602l11.291-2.638.139.077 12.032-2.808-1.265-.632-12.032 2.807.186.093-10.505 2.452zM554.139 411.348l.016.047.046-.016zM566.603 417.627l-10.412 2.436.201.88 11.475-2.684zM570.999 437.571l5.091-1.187-.154-.649-5.863 1.373zM558.119 413.354l-.401-.202 12.001-2.806-.586-.293-12.001 2.806-.293-.138-2.253.525.201.879zM558.798 413.693l-3.888.911.202.878 4.966-1.157-.401-.2 12.017-2.808-.586-.293-12.017 2.808zM560.757 414.68l-5.522 1.296.2.879 6.602-1.542-.401-.202 12.017-2.806-.586-.293-12.017 2.806zM539.64 421.745l-.587-.293-1.002.232.092.416zM543.265 441.335l12.047-2.822-.37-.186 11.631-2.746-.077-.309.602.309 8.345-1.943-.154-.647-9.116 2.128.17.093-11.985 2.808-.309-.154-12.048 2.823.201.107-8.025 1.872.012.676 8.938-2.085.138.076zM574.254 430.367l-12.001 2.808.154.077-11.985 2.808-.309-.154-12.047 2.823 1.265.632 12.047-2.822-.37-.186 11.985-2.808.17.093 11.631-2.715-.108-.324.617.309 5.568-1.3-.062-.911-6.757 1.579.202.091zM572.311 429.381l-12.001 2.807.169.077-11.985 2.808-.309-.154-12.047 2.823 1.265.632 12.048-2.822-.37-.186 11.985-2.808.169.093 12.001-2.808.139.077 7.4-1.733-.062-.912-8.604 2.014.202.092zM579.237 432.866l1.83-.43-.063-.913-3.032.711 1.265.632zM581.163 433.838l-.062-.891-1.171.274 1.233.617zM570.366 428.378l-12.001 2.808.17.092-11.985 2.808-.309-.154-12.047 2.823 1.265.632 12.047-2.822-.37-.186 11.985-2.807.17.092 12.001-2.807.139.076 9.249-2.155-.063-.931-10.451 2.438.2.093zM541.306 440.348l12.047-2.822-.37-.186 11.985-2.808.17.093 9.979-2.329-.154-.648-10.751 2.515.17.062-11.985 2.808-.309-.154-12.048 2.821.849.432-6.729 1.569.003.203 7.004-1.634.139.078zM545.177 433.406l11.985-2.808.17.093 12.001-2.808.139.077 11.113-2.592-.048-.71-.005.001-.293-.154-12.032 2.808.2.093-12.001 2.808.17.092-11.985 2.808-.309-.154-10.261 2.404.022.923 11.503-2.694-.369-.187zM543.249 432.419l11.985-2.807.17.092 12.001-2.807.139.076 12.031-2.807-.386-.201 1.282-.3-.028-.423-1.84.43-.293-.154-12.031 2.808.2.093-12.001 2.808.17.092-11.985 2.808-.309-.154-8.372 1.962.025.923 9.611-2.252-.369-.187zM578.372 445.006l3.526-.824c-.01-.138-.021-.281-.03-.422l-3.589.846.093.4zM577.293 431.895l3.677-.856-.063-.912-4.88 1.137 1.266.631zM575.04 457.578l6.198-1.452c.262-.315.519-.685.736-1.102l-8.199 1.921 1.265.633zM573.081 456.591l9.155-2.146a4.65 4.65 0 00.251-.987l-10.671 2.5 1.265.633zM578.697 446.363l3.305-.766c-.01-.139-.021-.277-.03-.419l-3.367.784.092.401zM581.92 452.148l-12.047 2.822 1.265.633 11.39-2.669a4.376 4.376 0 00-.036-.679l-.001-.015-.262.062-.309-.154zM551.409 465.931a77.6 77.6 0 004.53-.666l-.535-.268-3.995.934zM576.985 458.55l.894-.209c.663-.305 1.332-.62 2.006-.948 0 0 .332-.224.759-.629l-4.924 1.153 1.265.633zM579.005 447.736l3.1-.721a25.662 25.662 0 01-.03-.418l-3.162.738.092.401zM572.943 438.559l3.455-.802-.155-.649-4.226.988zM579.653 450.451l2.658-.62-.03-.416-2.721.636.093.4zM580.594 451.5l-12.032 2.808.617.309 12.047-2.823-.37-.185 1.561-.365-.031-.41-2.131.498.339.168zM579.329 449.094l2.878-.675-.031-.427-2.939.686.092.416zM545.208 442.307l12.047-2.822-.37-.186 9.98-2.36-.093-.4-10.474 2.452-.309-.154-12.047 2.823.2.107-9.946 2.32.01.676 10.862-2.533.14.077zM578.049 443.634l3.115-.726-.586-.293-2.622.617zM539.686 465.938l-.42.099c.27.048.557.089.86.121l-.44-.22zM538.668 465.414l-.926-.463-.756.17.052.218c.209.103.433.202.686.294l.944-.219zM579.221 441.937l-.586-.293-1.003.231.093.401zM576.845 440.518l.186-.046-.155-.649-.956.232zM574.902 439.546l1.82-.417-.154-.648-2.591.602zM536.184 463.424l-1.054.241a.201.201 0 00.014.025l1.257.644-.217-.91zM562.16 441.952l-.308-.154-12.047 2.823.2.108-11.97 2.792.926.462 11.97-2.792.139.078 12.046-2.824-.37-.184 5.091-1.219-.093-.401zM549.111 444.281l12.046-2.823-.37-.185 6.726-1.588-.093-.402-7.219 1.682-.308-.154-12.047 2.823.2.107-11.97 2.792.926.463 11.97-2.792zM554.71 464.643l-.432-.216 11.954-2.792-.586-.293-11.955 2.792-.231-.123-7.157 1.665.146.637c.421-.014.87-.032 1.346-.058l6.915-1.612zM542.832 449.927l11.971-2.792.139.077 12.047-2.822-.37-.186 1.836-.432-.093-.401-2.313.54-.309-.154-12.048 2.823.201.107-11.971 2.792.186.093-7.641 1.791.026.401 8.17-1.915.169.078zM540.889 448.955l11.97-2.792.14.062 12.047-2.822-.37-.186 3.455-.802-.093-.401-3.948.926-.309-.154-12.048 2.822.201.108-11.971 2.792.186.093-5.779 1.347c.01.132.019.258.028.404l6.321-1.474.17.077zM547.029 443.217l.139.077 12.047-2.822-.37-.186 8.36-1.975-.093-.401-8.854 2.067-.309-.154-12.047 2.823.2.107-11.885 2.772.001.063.839.42 11.972-2.791zM544.791 450.945l11.971-2.792.139.062 12.047-2.823-.139-.077-.139-.57-.679.154-.309-.154-12.047 2.822.2.108-11.97 2.792.185.093-9.492 2.225c.01.143.019.288.027.436l10.036-2.352.17.076zM535.243 459.321l-.334.078.038.918.496-.117-.2-.879zM535.552 460.693l-.585.137c.012.305.022.611.033.92l.752-.177-.2-.88zM535.875 462.066l-.858.2c.011.306.02.612.028.921l1.031-.241-.201-.88zM534.919 457.964l-.073.017.041.916.232-.054-.2-.879zM546.612 451.855l.17.077 12.031-2.823-.925-.463-12.048 2.823.186.092-11.379 2.665.023.412.018.009 11.924-2.792z"/><path fill="none" d="M583.213 452.209s-1.436-19.096-2.453-35.293c0 0 1.727-29.647-15.627-56.117 0 0-5.49-6.648-16.627-16.628v.007c-10.504-6.073-25.037-10.142-25.037-10.142-14.746-2.992-32.314-13.173-32.314-13.173-1.451-1.157-7.42-2.221-7.42-2.221h-25.529v-6.188h-20.34v6.188h-26.537c-3.471.2-7.035 1.064-7.035 1.064-16.781 10.613-44.547 17.94-44.547 17.94-6.371 2.128-13.498 5.599-13.498 5.599v-.031s-4.535 4.921-9.055 8.376c0 0-21.688 16.197-23.91 59.001l-.293 7.805-.586 6.371s-.184 7.914-.863 14.947c0 0-.293 14.068-.973 15.041 0 0 11.184 10.504 38.379 11.568 0 0 6.756.201 9.934-2.406 0 0-.215-1.928.078-7.035 0 0 .4-4.828.787-8.775 0 0-.865-13.684.678-23.91 0 0-.293-1.449 1.25-1.203 2.9 7.805 3.471 27.334 3.471 27.334 2.313 27.766 5.645 66.529 5.645 66.529 3.471 52.061-7.527 108.178-7.527 108.178a114.528 114.528 0 01-1.588 8.098c1.357 13.111 27.766 14.563 27.766 14.563 50.609 4.242 102.578.586 102.578.586 24.68-.479 32.1-5.492 32.1-5.492 7.143-3.084 8.299-8.576 8.299-8.576.586-1.543-.863-5.213-.863-5.213-5.521-32.131-7.914-56.596-7.914-56.596-2.406-26.223-.477-56.117-.477-56.117 2.313-17.646 4.533-51.676 4.533-51.676 1.451-13.496 2.314-29.602 2.314-29.602.863-7.912 2.992-12 2.992-12 .203-.311.406-.641.609-.986-.174.49-.342.988-.5 1.51 0 0 .262.803.631 3.596 0 0 .371 7.666.51 21.256 0 0 .586 7.234.803 15.117 0 0 .939 2.822 7.018 2.744 0 0 16.846 1.65 38.533-8.9-.002-.001 3.037-2.021 2.605-5.138z"/></svg>