<svg xmlns="http://www.w3.org/2000/svg" viewBox="280.996 153.383 80 80"><path fill-rule="evenodd" clip-rule="evenodd" d="M281.103 153.742h79.786v79.641h-79.786z"/><path fill="#231F20" d="M360.876 153.752h-79.759v79.621h79.759v-79.621zm-79.773-.01h79.786v79.641h-79.786v-79.641z"/><path fill="#939597" d="M351.326 159.562l-5.562-5.82h5.449l.262.274z"/><path fill="#FFF" d="M357.207 183.864l-12.772-13.362h5.45l-9.594-10.037h5.449l-5.323-5.57 5.421-.029 8.594 8.992-5.514-.068 9.659 10.105-5.514-.068 4.293 4.492z"/><path fill="#939597" d="M360.889 205.866l-10.573-11.062h5.449l-9.593-10.037h5.449l-5.323-5.569 5.421-.03 8.594 8.992-5.514-.068 6.09 6.372v3.689l-1.945-.024 1.945 2.036z"/><path fill="#FFF" d="M360.889 218.314l-8.836-9.245h5.449l-5.324-5.57 5.421-.029 3.29 3.442v5.485l-.209-.003.209.219v5.701zm0 5.701l-4.692-4.909h4.692v4.909z"/><path fill="#939597" d="M360.889 230.763l-2.83-2.961 2.83-.015v2.976zm-2.944 2.62l-.011-.012h2.956v.012h-2.945z"/><path fill="#FFF" d="M334.399 159.562l-5.563-5.82h5.45l.262.274z"/><path fill="#939597" d="M317.471 159.562l-5.562-5.82h5.449l.263.274z"/><path fill="#FFF" d="M300.544 159.562l-5.562-5.82h5.449l.262.274z"/><path fill="#939597" d="M283.617 159.562l-2.514-2.63v-3.19h2.401l.262.274zM340.28 183.864l-12.772-13.362h5.449l-9.593-10.037h5.449l-5.324-5.57 5.422-.029 8.594 8.992-5.514-.068 9.658 10.105-5.514-.068 4.294 4.492z"/><path fill="#FFF" d="M323.352 183.864l-12.771-13.362h5.449l-9.594-10.037h5.449l-5.323-5.57 5.421-.029 8.595 8.992-5.514-.068 9.658 10.105-5.514-.068 4.293 4.492z"/><path fill="#939597" d="M306.425 183.864l-12.772-13.362h5.449l-9.593-10.037h5.449l-5.323-5.57 5.421-.029 8.594 8.992-5.514-.068 9.659 10.105-5.514-.068 4.293 4.492z"/><path fill="#FFF" d="M289.498 183.864l-8.395-8.782v-4.58h1.072l-1.072-1.121v-11.402l5.62 5.879-5.514-.068 9.658 10.105-5.514-.068 4.294 4.492zM346.161 208.166l-12.772-13.362h5.449l-9.593-10.037h5.449l-5.324-5.569 5.421-.03 8.595 8.992-5.514-.068 9.658 10.105-5.514-.068 4.294 4.492z"/><path fill="#939597" d="M329.233 208.166l-12.771-13.362h5.449l-9.594-10.037h5.449l-5.323-5.569 5.421-.03 8.595 8.992-5.515-.068 9.659 10.105-5.514-.068 4.293 4.492z"/><path fill="#FFF" d="M312.306 208.166l-12.772-13.362h5.449l-9.593-10.037h5.449l-5.324-5.569 5.422-.03 8.594 8.992-5.514-.068 9.659 10.105-5.515-.068 4.294 4.492z"/><path fill="#939597" d="M295.378 208.166l-12.771-13.362h5.449l-6.953-7.274v-2.763h2.809l-2.809-2.938v-2.645l2.906-.016 8.595 8.992-5.514-.068 9.658 10.105-5.514-.068 4.294 4.492zM352.041 232.468l-12.771-13.362h5.449l-9.594-10.037h5.45l-5.324-5.569 5.421-.029 8.595 8.991-5.514-.068 9.658 10.105-5.514-.068 4.294 4.492z"/><path fill="#FFF" d="M335.114 232.468l-12.772-13.362h5.45l-9.594-10.037h5.449l-5.323-5.569 5.421-.029 8.594 8.991-5.514-.068 9.659 10.105-5.514-.068 4.293 4.492z"/><path fill="#939597" d="M318.187 232.468l-12.772-13.362h5.449l-9.593-10.037h5.449l-5.324-5.569 5.422-.029 8.594 8.991-5.514-.068 9.658 10.105-5.514-.068 4.294 4.492z"/><path fill="#FFF" d="M301.259 232.468l-12.771-13.362h5.449l-9.594-10.037h5.449l-5.323-5.569 5.421-.029 8.595 8.991-5.514-.068 9.658 10.105-5.514-.068 4.293 4.492zM341.017 233.383l-.011-.011h5.45l-5.324-5.57 5.421-.029 5.363 5.61z"/><path fill="#939597" d="M324.09 233.383l-.011-.011h5.449l-5.323-5.57 5.421-.029 5.363 5.61z"/><path fill="#FFF" d="M307.163 233.383l-.011-.011h5.449l-5.324-5.57 5.421-.029 5.363 5.61z"/><path fill="#939597" d="M290.235 233.383l-.011-.011h5.449l-5.323-5.57 5.421-.029 5.363 5.61zM360.889 158.693l-3.629-3.797 3.629-.02v3.817zm0 5.701l-3.755-3.929h3.755v3.929zM281.103 218.976l3.367 3.523-3.367-.041v-3.482zm1.998 13.492l-1.998-2.09v-5.701l2.147 2.246-.149 5.545z"/></svg>