<svg xmlns="http://www.w3.org/2000/svg" viewBox="1013.754 466.179 273.844 338.292"><path fill="none" d="M1287.056 606.435s-1.436-19.096-2.453-35.293c0 0 1.726-29.647-15.627-56.117 0 0-5.49-6.648-16.627-16.628v.007c-10.504-6.073-25.037-10.142-25.037-10.142-14.746-2.992-32.315-13.173-32.315-13.173-1.451-1.157-7.42-2.221-7.42-2.221h-25.529v-6.188h-20.34v4.177h18.961l-.002.042h-18.959v1.97h-26.537c-3.471.2-7.035 1.064-7.035 1.064-16.781 10.613-44.547 17.94-44.547 17.94-6.371 2.128-13.498 5.599-13.498 5.599v-.031s-4.535 4.921-9.055 8.376c0 0-21.688 16.197-23.91 59.001l-.293 7.805-.586 6.371s-.184 7.914-.863 14.947c0 0-.293 14.068-.973 15.041 0 0 11.184 10.504 38.379 11.568 0 0 6.756.201 9.934-2.406 0 0-.215-1.928.078-7.035 0 0 .4-4.828.787-8.775 0 0-.865-13.684.678-23.91 0 0-.293-1.449 1.25-1.203 2.9 7.805 3.471 27.334 3.471 27.334 2.313 27.766 5.645 66.529 5.645 66.529 3.471 52.061-7.527 108.178-7.527 108.178a114.528 114.528 0 01-1.588 8.098c.66 6.374 7.24 9.987 13.828 12.023l-10.464-17.386 14.341-.123 12.17 20.221c11.606.923 23.243 1.438 34.273 1.687l-13.37-22.215 14.094-.121-21.655-35.981h14.415l-25.379-43.154H1126.007l9.173 15.241-14.587-.285 25.55 42.452-14.587-.285 11.358 18.871-.388 22.894 1.667 2.77a843.352 843.352 0 0027.256-.355l-13.01-21.616 14.341-.123 12.764 21.208c6.525-.306 10.317-.572 10.317-.572 9.499-.184 16.432-1.041 21.378-2.024l-11.386-18.919 14.341-.123 9.015 14.979c6.031-3.144 7.05-7.982 7.05-7.982.586-1.543-.863-5.213-.863-5.213-5.521-32.131-7.914-56.596-7.914-56.596-2.406-26.223-.477-56.117-.477-56.117 2.313-17.646 4.533-51.676 4.533-51.676 1.451-13.496 2.315-29.602 2.315-29.602.863-7.912 2.992-12 2.992-12 .203-.311.406-.641.609-.986-.174.49-.342.988-.5 1.51 0 0 .262.803.631 3.596 0 0 .371 7.666.51 21.256 0 0 .586 7.234.803 15.117 0 0 .939 2.822 7.018 2.744 0 0 16.846 1.65 38.533-8.9 0-.004 3.039-2.023 2.607-5.14zm-183.057 152.851l-14.587-.285 11.358 18.871-.395 23.296-28.625-47.56c.347-2.705.695-5.569 1.033-8.575h8.221l-7.012-11.923c.872-9.675 1.557-20.28 1.811-31.231h8.059l9.173 15.241-14.587-.285 25.551 42.451zm86.329 18.586l-.395 23.296-33.786-56.136h14.415l-25.378-43.154H1173.42l9.173 15.241-14.587-.285 25.55 42.452-14.587-.285 11.359 18.871zm37.485-31.261c.505 3.874 1.098 8.23 1.786 12.986l-8.485-.166 11.358 18.871-.255 15.074-33.925-47.914h14.415l-25.379-43.154H1215.564l9.173 15.241-14.587-.285 17.663 29.347z"/><path fill="#FFF" d="M1168.007 716.834l14.586.284-9.172-15.24h-28.237l25.379 43.154h-14.415l33.785 56.136.395-23.296-11.358-18.871 14.587.285zM1093.035 717.118l-9.173-15.241h-8.059c-.254 10.951-.938 21.556-1.811 31.231l7.012 11.923h-8.221c-.338 3.006-.686 5.87-1.033 8.575l28.625 47.56.395-23.296-11.358-18.871 14.587.285-25.55-42.452 14.586.286zM1205.853 781.564l11.386 18.919c7.906-1.572 10.722-3.468 10.722-3.468.439-.189.854-.388 1.249-.594l-9.015-14.979-14.342.122zM1142.519 801.598l-12.13-20.155-14.094.121 13.37 22.215c4.987.112 9.849.171 14.528.187l-1.667-2.77-.007.402z"/><path fill="#231F20" d="M1160.669 470.856h-18.961v.042h18.959l.002-.042z"/><path d="M1224.737 717.549l-9.173-15.241H1187.328l25.379 43.154h-14.415l33.925 47.914.255-15.074-11.358-18.871 8.485.166a932.545 932.545 0 01-1.786-12.986l-17.663-29.347 14.587.285zM1142.526 801.196l.388-22.894-11.358-18.871 14.587.285-25.55-42.452 14.586.285-9.172-15.241H1097.77l25.379 43.154h-14.415l21.655 35.981 12.13 20.155zM1158.439 781.995l13.01 21.616c5.499-.16 10.268-.353 14.095-.532l-12.764-21.208-14.341.124zM1068.881 781.995l10.464 17.386c6.964 2.152 13.938 2.54 13.938 2.54.703.059 1.406.116 2.109.172l-12.17-20.221-14.341.123z"/></svg>