<svg xmlns="http://www.w3.org/2000/svg" viewBox="727.694 466.602 267.003 337.412"><path fill="none" d="M776.971 577.657c.05.725.067 1.834.064 3.238.003-1.406-.015-2.515-.064-3.238zM945.312 776.089a747.331 747.331 0 01-2.514-16.715l-7.688-.149 10.202 16.864z"/><path fill="none" d="M994.175 605.114c-.864-13.883-2.9-44.824-2.9-44.824-.617-17.57-6.016-31.993-12.726-42.513-9.039-14.16-19.961-21.41-19.961-21.41-5.635-3.294-9.936-5.066-14.273-6.39l-.087 5.121-3.743-6.188c-.839-.216-1.689-.429-2.568-.643l14.792 24.452-14.661-.285 13.061 21.591c-4.438 22.826-5.998 36.644-6.123 37.781l-18.858-31.174h14.489l-25.508-42.167h14.489l-9.494-15.695c-5.948-2.567-11.54-5.587-14.428-7.211-.454-1.063-2.373-1.865-3.297-2.735-1.557-1.467-1.426-2.082-3.867-2.718-4.528-1.18-12.605-2.255-17.936-2.22-2.642.017-3.538-.417-6.185-.405-2.203.009-4.411.025-6.611.023-2.364-.002-3.588-.359-6.063-.401H860.558c-4.061.042-7.631.409-12.149.385-6.569-.035-18.069 1.026-24.201 2.544-2.664.66-2.349.991-3.987 2.602-1.003.986-3.233 1.959-3.553 3.109-2.044 1.255-4.424 2.496-6.979 3.697l-.259 15.231-7.252-11.989c-11.98 4.797-24.511 8.333-24.511 8.333-11.568 3.332-13.883 5.646-13.883 5.646l.006.022c-6.675 4.612-12.716 11.563-12.716 11.563-19.235 18.217-20.531 60.591-20.531 60.591-.293 16.783-2.314 36.002-2.314 36.002 18.51 9.98 46.275 9.842 46.275 9.842 1.296-.432 1.157-3.039 1.157-3.039 0-7.234 1.157-12.586 1.157-12.586.03-9.873.447-18.666.154-21.397.05.723.067 1.832.064 3.238.003-1.404-.015-2.514-.064-3.238-.063-.785-.154-1.141-.293-.879l1.444-4.75.422 1.264c2.606 9.549 2.175 27.041 2.175 27.041.586 32.826 1.589 45.844 1.589 45.844.139 9.842 1.743 17.646 1.743 17.646 2.313 34.137.293 61.902.293 61.902-3.332 35.139-9.456 64.154-9.842 65.219l-.386 1.065c2.626 2.188 9.289 4.003 17.484 5.482l-9.499-15.702 14.414-.123 10.969 18.133c1.126.134 2.251.262 3.373.387l-.115-.19-29.043-48.01c.323-2.32.642-4.704.955-7.155h9.206l-7.711-12.748c.229-2.151.449-4.331.658-6.535 0 0 1.178-16.228.703-39.119l18.443 30.487-14.661-.285 25.68 42.452-14.661-.285 11.416 18.871-.381 22.392-.003.177c16.218 1.779 31.418 2.569 31.418 2.569 13.116 1.098 27.909.806 42.006-.106l-12.65-20.912 14.414-.123 12.063 19.942c24.416-2.266 43.86-5.742 43.86-5.742.097-.03.183-.062.277-.093l-30.558-50.515h14.489l-25.508-42.167h14.489l-14.154-23.399 14.414-.123 22.424 37.069c-2.374-35.578.271-52.858.271-52.858 1.341-8.306 2.444-33.492 2.882-44.677l-10.955-18.11h11.242a126.9 126.9 0 01-.105-5.542l-10.802-17.857 12.326-.105c.586-3.227 1.134-5.049 1.204-5.277 2.06 4.027 1.629 25.824 1.629 25.824-.139 1.883.293 4.629.293 4.629.864 6.369.586 10.998.586 10.998 10.254 4.9 47.276-8.551 47.276-8.551zm-62.417 176.123l9.006 14.888c-2.568.429-7.2 1.174-13.262 2.028l-10.159-16.793 14.415-.123zM899.531 489.4l-.09 5.27-2.031-3.358c.747-.6 1.458-1.235 2.121-1.912zm-24.658 11.247s3.287-.458 7.663-1.754c.5-.148 1.016-.31 1.542-.481 3.598-1.168 7.704-2.875 11.279-5.307l12.123 20.041-14.661-.285 25.68 42.452-14.661-.285 11.416 18.871-.396 23.296-33.958-56.136h14.489l-24.185-39.979c1.195-.122 2.414-.263 3.669-.433zm11.009 175.351l-.397 23.296-33.958-56.136h14.489l-25.508-42.167h14.489l-14.154-23.398 14.414-.123 22.851 37.775-14.661-.285 25.68 42.452-14.661-.285 11.416 18.871zm-46.391-177.684c2.248.74 7.766 2.264 16.149 2.745l7.053 11.66-14.661-.285 25.681 42.452-14.661-.285 11.416 18.871-.396 23.296-33.958-56.136h14.489l-25.508-42.167h14.489l-.093-.151zm-51.704-10.276a264.063 264.063 0 0011.935-4.222l17.743 29.331-14.661-.285 25.681 42.452-14.661-.285L825.24 573.9l-.397 23.296-33.958-56.136h14.489l-25.508-42.167h14.489l-6.568-10.855zm-18.381 24.617a495.274 495.274 0 01-3.723-11.501l6.996 11.565-3.273-.064zm10.93 67.684c-.318-2.653-.749-5.195-1.334-7.336l-.432-1.297s-.134-.714-.358-1.939l2.241 3.704-.117 6.868zm-4.674-25.609c-.738-4.771-1.402-9.61-1.677-13.125 0 0-.029-1.127-.152-3.027l9.865 16.307-8.036-.155zm20.206 121.268l-.397 23.296-10.298-17.024a481.422 481.422 0 00-.882-18.242s-1.605-7.811-1.744-17.659c0 0-.41-5.338-.859-17.763l17.425 28.806-14.661-.285 11.416 18.871zm-.145-75.435h14.489l-14.154-23.398 14.414-.123 22.851 37.775-14.661-.285 25.68 42.452-14.661-.285 11.416 18.871-.397 23.296-33.958-56.136h14.489l-25.508-42.167zm47.541 202.121s-1.149-.06-3.146-.183L827.33 781.36l14.414-.123 13.351 22.071a204.72 204.72 0 01-11.831-.624zm13.247-24.588l-.397 23.296-33.958-56.136h14.489l-25.508-42.167h14.489l-14.155-23.399 14.414-.123 22.851 37.775-14.661-.285 25.68 42.452-14.661-.285 11.417 18.872zm48.474-19.014l-14.661-.285 11.416 18.871-.396 23.296-33.958-56.136h14.489l-25.508-42.167h14.489L856.7 679.262l14.414-.123 22.851 37.775-14.661-.285 25.681 42.453zm29.371-102.098l-14.661-.285 11.416 18.871-.397 23.296-33.958-56.136h14.489l-25.508-42.167h14.489l-14.154-23.398 14.414-.123 22.852 37.775-14.661-.285 25.679 42.452z"/><path fill="none" d="M940.948 744.923a574.225 574.225 0 01-2.576-27.589l-14.281-.277 16.857 27.866zM948.053 792.009a840.392 840.392 0 01-1.608-9.122l-.189 11.098c1.358-1.038 1.797-1.976 1.797-1.976zM942.183 489.362c.242.066.486.132.726.2-.24-.068-.484-.133-.726-.2z"/><path fill="#FFF" d="M915.108 498.465l25.508 42.167h-14.489l18.858 31.174c.125-1.137 1.685-14.955 6.123-37.781l-13.061-21.591 14.661.285-14.792-24.452c-2.332-.567-4.835-1.15-7.68-1.881-3.202-.822-6.726-2.145-10.134-3.616l9.494 15.695h-14.488zM899.531 489.4a23.983 23.983 0 01-2.121 1.912l2.031 3.358.09-5.27zM809.686 479.439a141.53 141.53 0 01-7.511 3.242l7.252 11.989.259-15.231zM850.601 540.632h-14.489l33.958 56.136.396-23.296-11.416-18.871 14.661.285-25.681-42.452 14.661.285-7.053-11.66c-8.383-.481-13.902-2.005-16.149-2.745l.091.151h-14.489l25.51 42.167zM773.833 538.578a89.57 89.57 0 01.152 3.027c.275 3.514.939 8.353 1.677 13.125l8.036.156-9.865-16.308zM778.57 571.706l.432 1.297c.585 2.141 1.016 4.683 1.334 7.336l.117-6.867-2.241-3.704c.223 1.224.358 1.938.358 1.938zM769.406 512.655l3.272.064-6.996-11.565a509.297 509.297 0 003.724 11.501zM923.337 614.817l-22.851-37.776-14.415.124 14.155 23.398h-14.489l25.508 42.167h-14.489l33.958 56.136.397-23.296-11.416-18.871 14.661.285-25.68-42.452zM840.7 698.866l.396-23.296-11.416-18.871 14.662.285-25.681-42.452 14.661.285-22.851-37.776-14.414.124 14.154 23.398h-14.488l25.508 42.167h-14.489zM893.966 716.914l-22.851-37.775-14.415.123 14.155 23.399h-14.489l25.508 42.167h-14.489l33.958 56.136.397-23.296-11.416-18.871 14.661.285-25.68-42.452zM810.742 799.993l.115.19.484.053.003-.177a61.493 61.493 0 01-.602-.066z"/><path fill="#FFF" d="M811.725 777.668l-11.416-18.871 14.661.285-25.68-42.452 14.661.285-18.443-30.487c.476 22.89-.703 39.119-.703 39.119a570.405 570.405 0 01-.658 6.535l7.711 12.748h-9.206c-.313 2.45-.632 4.835-.955 7.155l29.043 48.01.602.067.383-22.394zM940.764 796.125l-9.006-14.888-14.414.123 10.159 16.793a532.837 532.837 0 0013.261-2.028zM827.33 781.36l12.788 21.141c1.997.123 3.146.183 3.146.183 3.821.32 7.784.521 11.831.624l-13.351-22.071-14.414.123z"/><path d="M884.078 498.412a59.92 59.92 0 01-1.542.481h1.832l-.29-.481zM944.315 489.977a75.458 75.458 0 00-1.405-.415c-.241-.068-.484-.134-.726-.2-.56-.154-1.127-.305-1.699-.453l3.743 6.188.087-5.12zM941.66 595.449c.025-7.898.803-13.995 1.524-17.962l-12.326.105 10.802 17.857zM941.478 619.101c.131-3.357.203-5.456.203-5.456.386-4.828.201-10.227.201-10.227-.049-.826-.086-1.632-.118-2.428h-11.242l10.956 18.111z"/><path d="M880.899 541.06l33.958 56.136.396-23.296-11.416-18.871 14.661.285-25.68-42.452 14.661.285-12.123-20.041c-3.574 2.432-7.681 4.139-11.279 5.307l.291.481h-1.832c-4.376 1.296-7.663 1.754-7.663 1.754-1.255.17-2.474.311-3.67.433l24.185 39.979h-14.489zM805.373 541.06h-14.489l33.958 56.136.397-23.296-11.416-18.871 14.661.285-25.681-42.452 14.661.285-17.743-29.331a264.063 264.063 0 01-11.935 4.222l6.567 10.855h-14.489l25.509 42.167zM863.447 614.959l14.661.285-22.851-37.775-14.414.123 14.154 23.399h-14.488l25.508 42.167h-14.489l33.958 56.135.396-23.295-11.415-18.872 14.661.285zM781.688 628.606c.449 12.425.859 17.763.859 17.763.139 9.849 1.744 17.659 1.744 17.659.43 6.347.71 12.472.882 18.242l10.298 17.024.397-23.296-11.416-18.871 14.661.285-17.425-28.806zM901.486 679.69l14.154 23.399h-14.489l25.508 42.167H912.17l30.558 50.515c1.572-.514 2.715-1.166 3.526-1.786l.189-11.098a822.57 822.57 0 01-1.132-6.798l-10.202-16.865 7.688.149a677.145 677.145 0 01-1.85-14.45l-16.857-27.866 14.281.277-.047-.699-22.424-37.069-14.414.124zM834.076 717.057l14.662.285-22.852-37.775-14.414.123 14.154 23.399h-14.488l25.508 42.167h-14.489l33.958 56.135.396-23.295-11.415-18.872 14.661.285zM872.116 781.788l12.65 20.912c4.716-.305 9.356-.678 13.827-1.093l-12.063-19.942-14.414.123zM782.101 781.788l9.499 15.702c4.922.888 10.397 1.655 15.884 2.307l-10.969-18.133-14.414.124z"/></svg>