<svg xmlns="http://www.w3.org/2000/svg" width="272.687" height="337.292"><path fill="none" d="M272.645 139.755s-1.436-19.096-2.453-35.293c0 0 1.727-29.647-15.627-56.117 0 0-5.49-6.648-16.627-16.628v.007C227.434 25.651 212.9 21.583 212.9 21.583 198.154 18.59 180.586 8.41 180.586 8.41c-1.451-1.157-7.42-2.221-7.42-2.221h-25.529V0h-20.34v6.188H100.76c-3.471.2-7.035 1.064-7.035 1.064-16.781 10.613-44.547 17.94-44.547 17.94-6.371 2.128-13.498 5.599-13.498 5.599v-.031s-4.535 4.921-9.055 8.376c0 0-21.688 16.197-23.91 59.001l-.293 7.805-.586 6.371s-.184 7.914-.863 14.947c0 0-.293 14.068-.973 15.041 0 0 11.184 10.504 38.379 11.568 0 0 6.756.201 9.934-2.406 0 0-.215-1.928.078-7.035 0 0 .4-4.828.787-8.775 0 0-.865-13.684.678-23.91 0 0-.293-1.449 1.25-1.203 2.9 7.805 3.471 27.334 3.471 27.334l.441 5.29 164.886 166.948c-4.753-28.904-6.833-50.162-6.833-50.162-.076-.833-.148-1.67-.216-2.509L38.951 81.362c-2.593-11.489-8.164-39.357-3.801-49.569l-.001-.001c.143-.332.293-.652.456-.947 0 0 7.132-3.473 13.507-5.604 0 0 8.334-2.201 18.629-5.934L215.889 169.31c.753-9.719 1.238-17.152 1.238-17.152.976-9.069 1.685-19.31 2.045-25.057L99.854 6.29c.292-.024.585-.048.878-.064H173.192s5.973 1.064 7.424 2.223c0 0 9.877 5.723 21.037 9.851l36.332 36.786c-.334 6.842-1.023 14.098-2.368 20.127 0 0-2.286 8.488-5.377 17.515-2.22 6.482-4.854 13.233-7.356 17.325-.116.338-.233.673-.341 1.028 0 0 .262.803.631 3.596 0 0 .371 7.666.51 21.256 0 0 .586 7.234.803 15.117 0 0 .939 2.822 7.018 2.744 0 0 16.846 1.65 38.533-8.9-.001-.002 3.038-2.021 2.607-5.139zM57.272 282.183l54.143 54.821c16.962.475 32.686.295 44.92-.052l-95.701-96.897c-.556 15.525-1.918 30.14-3.362 42.128zM221.761 319.096c-.254-1.14-.64-2.19-.746-2.47l.031.184s.418 1.063.715 2.286zM60.705 331.142l-9.451-9.569c.892 4.49 4.817 7.528 9.451 9.569z"/><path fill="#FFF" d="M144.808 6.226h-44.075c-.293.017-.586.04-.878.064l119.317 120.811c.176-2.805.27-4.544.27-4.544.863-7.912 2.992-12 2.992-12 .203-.311.406-.641.609-.986-.056.157-.105.323-.159.482 2.503-4.092 5.137-10.843 7.356-17.325L144.808 6.226zM38.951 81.362l173.903 176.079c-1.425-17.606-1.012-36.355-.616-46.344L35.15 31.793c-4.363 10.212 1.208 38.08 3.801 49.569zM60.221 204.404c.794 11.912.829 24.035.413 35.651l95.701 96.897c15.277-.433 25.114-1.124 25.114-1.124 7.283-.142 13.053-.679 17.583-1.364L59.236 192.918l.985 11.486z"/><path fill="#000100" d="M52.693 312.582a114.528 114.528 0 01-1.588 8.098c.031.306.09.6.148.893l9.451 9.569c8.035 3.54 18.166 4.101 18.166 4.101 10.965.919 21.993 1.467 32.544 1.762l-54.143-54.821c-2.196 18.241-4.578 30.398-4.578 30.398zM59.236 192.918l139.796 141.546c10.819-1.638 14.517-4.128 14.517-4.128 7.143-3.084 8.299-8.576 8.299-8.576.248-.653.13-1.688-.087-2.664-.297-1.223-.715-2.286-.715-2.286a11.77 11.77 0 01-.031-.184l-.03-.079a955.215 955.215 0 01-1.081-6.435L55.018 143.165c1.449 17.304 3.165 37.433 4.218 49.753zM49.112 25.241c-6.375 2.131-13.507 5.604-13.507 5.604-.163.295-.313.615-.456.947l.001.001 177.088 179.304c.18-4.526.355-7.264.355-7.264 1.231-9.399 2.438-23.446 3.295-34.523L67.741 19.308c-10.295 3.732-18.629 5.933-18.629 5.933zM235.617 75.212c1.345-6.029 2.034-13.285 2.368-20.127l-36.332-36.786c-11.16-4.128-21.037-9.851-21.037-9.851-1.451-1.158-7.424-2.223-7.424-2.223h-28.385l85.433 86.501c3.091-9.026 5.377-17.514 5.377-17.514z"/></svg>