<svg xmlns="http://www.w3.org/2000/svg" width="265.948" height="336.412"><path fill="none" d="M48.744 110.555c.05.725.067 1.834.064 3.238.004-1.406-.014-2.515-.064-3.238zM83.592 333.188l125.999-128.162.003-.055L83.546 333.183l.046.005zM46.275 323.843l-.386 1.064c.186.155.399.308.625.459L213.093 155.93c.232-5.575.362-9.386.362-9.386.386-4.828.201-10.227.201-10.227-.812-13.791.75-23.596 1.756-28.226L54.749 271.51c-3.41 29.09-8.136 51.402-8.474 52.333zM172.125 334.339l42.312-43.038c-2.155-15.696-3.496-29.385-4.293-41.113l-84.664 86.115c15.353.447 31.978-.555 46.645-1.964z"/><path fill="none" d="M263.048 93.188c-.617-17.57-6.016-31.993-12.726-42.513-8.842-13.851-19.478-21.086-19.939-21.396-1.926 6.745-3.859 15.794-5.317 23.218L56.889 223.56v.052L225.065 52.549c-1.487 7.57-2.482 13.443-2.475 13.436-4.816 24.56-6.359 39.039-6.359 39.039l-.044.145c2.028 4.167 1.603 25.763 1.603 25.763-.139 1.883.293 4.629.293 4.629.864 6.369.586 10.998.586 10.998 10.258 4.904 47.279-8.547 47.279-8.547-.864-13.883-2.9-44.824-2.9-44.824zM202.01 19.284c-8.791-2.258-20.019-8.272-24.562-10.827-.454-1.063-2.373-1.865-3.297-2.735-1.557-1.467-1.426-2.082-3.867-2.718-4.528-1.18-12.605-2.255-17.936-2.22-2.642.017-3.538-.417-6.185-.405-2.203.009-4.411.025-6.611.023-2.364-.002-3.588-.359-6.063-.401H132.33c-4.062.042-7.631.409-12.149.385-6.569-.035-18.069 1.026-24.201 2.544-2.664.66-2.349.991-3.987 2.603-1.003.986-3.233 1.959-3.553 3.109-12.867 7.9-39.001 15.271-39.001 15.271-11.568 3.332-13.883 5.646-13.883 5.646l.006.022c-6.675 4.612-12.716 11.563-12.716 11.563C3.609 59.359 2.313 101.733 2.313 101.733 2.021 118.516 0 137.735 0 137.735c18.51 9.98 46.275 9.842 46.275 9.842 1.296-.432 1.157-3.039 1.157-3.039 0-7.234 1.157-12.586 1.157-12.586.03-9.873.447-18.666.154-21.396.05.723.067 1.832.064 3.238.003-1.404-.015-2.514-.064-3.238-.063-.785-.154-1.141-.293-.879l1.424-4.684-.051-.153s-.725-3.849-1.605-9.006l63.116-64.198c4.306 1.33 16.492 4.229 35.015 1.718 0 0 4.994-.701 10.866-2.804L52.563 136.996c.592 30.052 1.518 42.079 1.518 42.079.009.613.023 1.219.042 1.815L210.868 21.455c-2.668-.662-5.527-1.315-8.858-2.171zM48.219 95.781c-1.141-6.674-2.543-15.54-2.979-21.095 0 0-.229-8.966-2.167-19.154L90.084 7.714h.279c-.458 2.865-1.136 15.246 19.231 23.27 0 0 .595.244 1.74.598L48.219 95.781z"/><path fill="#000100" d="M83.546 333.183l126.048-128.211c.355-5.547.775-8.295.775-8.295 1.201-7.438 2.211-28.411 2.723-40.747L46.515 325.366c5.372 3.602 21.71 6.152 37.031 7.817zM230.383 29.279l-.022-.015c-7.851-4.589-13.117-6.227-19.493-7.81L54.124 180.89c.29 8.97 1.701 15.832 1.701 15.832.651 9.61.959 18.715 1.065 26.838L225.066 52.497c1.458-7.424 3.392-16.473 5.317-23.218zM90.363 7.714h-.279L43.073 55.532c1.938 10.188 2.167 19.154 2.167 19.154.436 5.556 1.838 14.421 2.979 21.095l63.116-64.199c-1.146-.354-1.74-.598-1.74-.598-20.367-8.024-19.69-20.404-19.232-23.27zM214.227 328.763c4.442-1.357 5.6-3.855 5.6-3.855a777.644 777.644 0 01-5.39-33.606l-42.312 43.038c23.584-2.267 42.102-5.577 42.102-5.577z"/><path fill="#FFF" d="M222.591 65.985c-.008.008.987-5.866 2.475-13.436L56.89 223.611c.269 20.703-.772 35.012-.772 35.012a586.569 586.569 0 01-1.368 12.886L215.413 108.09c.391-1.798.697-2.816.749-2.983.009.018.018.042.026.061l.044-.145s1.542-14.479 6.359-39.038zM114.533 335.704c3.542.297 7.207.489 10.946.599l84.664-86.115c-1.477-21.711-1.092-36.688-.552-45.161L83.592 333.188c16.038 1.742 30.941 2.516 30.941 2.516zM146.35 33.352c-18.522 2.512-30.709-.388-35.015-1.718L48.219 95.833a607.637 607.637 0 001.605 9.006l.051.153.02-.066.422 1.264c2.606 9.549 2.175 27.041 2.175 27.041.023 1.289.047 2.537.071 3.765L157.216 30.548c-5.872 2.103-10.866 2.804-10.866 2.804z"/></svg>