<svg xmlns="http://www.w3.org/2000/svg" width="79.46" height="80.173"><g fill-rule="evenodd" clip-rule="evenodd"><path fill="#FFF" d="M0 0h79.46v80.173H0z"/><path fill="#8D8F92" d="M79.46 59.364v10.797l-14.237 9.433H48.926l30.534-20.23zm0-32.46L0 79.548v.046h16.228L79.46 37.702V26.904zM70.201.579h9.259v4.663L0 57.885V47.088L70.201.579zm-48.945 0L0 14.661v10.797L37.553.578H21.256v.001z"/><path fill="#000202" d="M79.46 48.555v10.797L48.907 79.594H32.61l46.85-31.039zm0-32.46L0 68.739v10.797l79.46-52.644V16.095zM53.886.579h16.298L0 47.077V36.279L53.886.579zm-48.945 0L0 3.852v10.797L21.238.579H4.941z"/></g></svg>