<svg xmlns="http://www.w3.org/2000/svg" width="77.111" height="80"><path fill-rule="evenodd" clip-rule="evenodd" fill="#000202" d="M1.475 80H0V0h1.475v80zm5.321 0H5.067V0h1.729v80zm5.048 0H9.86V0h1.984v80zm4.017 0h-3.185V0h3.185v80zm4.697 0h-3.697V0h3.697v80zm10.192 0h-4.251V0h4.251v80zm6.818 0h-5.509V0h5.509v80zm7.483 0h-5.509V0h5.509v80zm5.561 0H46.36V0h4.251v80h.001zm5.056 0h-3.769V0h3.769v80zm4.582 0h-3.698V0h3.698v80zm4.185 0H61.25V0h3.185v80zm2.816 0h-1.984V0h1.984v80zm4.793 0h-1.729V0h1.729v80zm5.067 0h-1.474V0h1.474v80zm-51.9 0h-3.769V0h3.769v80z"/></svg>