<svg xmlns="http://www.w3.org/2000/svg" width="272.687" height="337.292"><path fill="none" d="M35.367 31.094l-.031.033c-1.055 2.094-1.616 5.075-1.814 8.595.202-3.542.772-6.536 1.845-8.628zM183.308 43.175h-2.307v292.684l.448-.03c2.369-.046 4.576-.135 6.636-.256-1.517.072-3.103.128-4.777.161V43.175zM49.694 111.819c-1.544 10.234-.679 23.927-.679 23.927a703.061 703.061 0 00-.787 8.783c-.294 5.109-.078 7.039-.078 7.039a6.133 6.133 0 01-.556.399c.254-.155.496-.321.718-.503 0 0-.215-1.928.078-7.035 0 0 .4-4.828.787-8.775 0 0-.865-13.684.678-23.91 0 0-.143-.749.353-1.076-.682.26-.514 1.151-.514 1.151zM204.178 47.886a12.73 12.73 0 01-.3-.169v285.871a63.73 63.73 0 002.17-.504V48.938c-.616-.374-1.244-.711-1.87-1.052zM193.697 43.91c-.247-.053-.494-.118-.741-.167v291.458c.904-.086 1.777-.177 2.611-.274V44.364a39.4 39.4 0 00-1.87-.454zM272.645 139.853c.025.18.036.355.039.528a4.463 4.463 0 00-.039-.625s-1.434-19.07-2.451-35.261l-.002.039c1.019 16.208 2.453 35.319 2.453 35.319z"/><path fill="none" d="M119.392 43.175H115.975v293.811a700.667 700.667 0 01-11.094-.355V43.175h-3.359v293.311a588.262 588.262 0 01-9.836-.53V43.175h-2.307v292.631a507.749 507.749 0 01-8.777-.657s-.321-.019-.87-.064V43.189c-.356.006-.712.01-1.07.03-.266.015-.532.043-.799.065-.247.02-.494.035-.741.06v291.459c-2.184-.276-5.17-.761-8.311-1.582V45.747c.421-.179.84-.365 1.263-.528a36.999 36.999 0 015.567-1.661l-.389.064c-.266.044-.53.068-.796.119a36.623 36.623 0 00-6.252 1.811c-.423.163-.843.349-1.264.527-.266.113-.533.215-.798.334-.461.207-.916.439-1.373.666-.266.131-.534.25-.799.387-.882.459-1.757.951-2.621 1.476-.593.36-1.175.757-1.758 1.147-.266.178-.538.339-.801.522a49.69 49.69 0 00-4.142 3.237 44.81 44.81 0 00-1.551 1.416c-.509.485-1.009.983-1.503 1.489-.267.273-.542.536-.804.817-1.315 1.406-2.541 2.917-3.708 4.484-.267.356-.549.696-.806 1.061a51.202 51.202 0 00-3.5 5.717c-1.703 3.243-3.268 6.108-4.759 8.651 1.132 5.329 2.028 8.865 2.028 8.865 4.044 12.497 10.268 23.195 10.85 24.184.071.004.128-.005.209.008 2.9 7.805 3.471 27.334 3.471 27.334 2.313 27.766 5.645 66.529 5.645 66.529 3.471 52.061-7.527 108.178-7.527 108.178a114.528 114.528 0 01-1.588 8.098c1.357 13.111 27.766 14.563 27.766 14.563 13.765 1.154 27.628 1.723 40.521 1.94V43.175zM53.465 56.422v55.948a23.687 23.687 0 00-.65-2.088s-1.666-2.791-3.862-7.219V61.722c1.167-1.566 2.394-3.077 3.708-4.484.262-.28.536-.544.804-.816zm0 266.741a9.534 9.534 0 01-.65-2.588s.281-1.163.65-2.958v5.546zm13.174 9.44c-1.767-.547-3.527-1.207-5.179-2.004V49.757c.584-.391 1.165-.787 1.759-1.147a45.142 45.142 0 012.621-1.476c.265-.138.532-.256.799-.388v285.857zM228.837 96.307c1.753-4.748 3.01-9.2 4.154-13.176a59.054 59.054 0 01-1.753-2.589 93.623 93.623 0 01-.735-1.165c-1.821-2.963-3.746-6.485-5.877-10.544-.282-.537-.59-1.055-.893-1.577v40.509c1.504-3.625 3.363-6.738 5.104-11.458zM212.859 21.594s14.542 4.071 25.054 10.148l-.001-.007c11.146 9.987 16.643 16.641 16.643 16.641 14.109 21.521 15.613 45.143 15.682 53.245-.06-8.026-1.529-31.704-15.672-53.275 0 0-5.49-6.648-16.627-16.628v.007C227.434 25.651 212.9 21.583 212.9 21.583 198.154 18.59 180.586 8.41 180.586 8.41c-1.451-1.157-7.42-2.221-7.42-2.221h-.071s5.974 1.064 7.425 2.223c0-.001 17.582 10.188 32.339 13.182zM138.918 42.842h5.138V6.188h3.581V0h-20.34v6.188h-3.951v36.654h1.87v-.001h8.551v294.45c1.748-.002 3.465-.011 5.151-.024V42.842zM219.221 305.899c-4.27-26.731-6.15-45.948-6.15-45.948-2.406-26.223-.477-56.117-.477-56.117 2.313-17.646 4.533-51.676 4.533-51.676 1.021-9.498 1.751-20.28 2.094-25.84V60.611a58.02 58.02 0 00-1.869-2.193c-.25-.278-.485-.574-.74-.847a51.968 51.968 0 00-3.857-3.723c-.501-.436-1.015-.848-1.528-1.26v278.864c1.636-.654 2.323-1.116 2.323-1.116 2.617-1.13 4.425-2.583 5.672-3.971v-20.466zM171.166 43.175H167.805V336.53c-3.282.131-7.005.26-11.094.369V43.175H153.295V337.034a785.428 785.428 0 0022.044-.843c-1.262.063-2.649.13-4.173.197V43.175z"/><path fill="#FFF" d="M153.295 43.175h-9.24v-.333h-5.138v294.425a846.23 846.23 0 0014.377-.233V43.175zM180.685 43.175h-9.519v293.213a439.22 439.22 0 009.835-.529V43.175h-.316zM113.325 43.175h-8.444V336.63c3.747.15 7.452.268 11.094.355V43.175h-2.65zM98.866 43.175h-7.181v292.78c3.295.205 6.577.382 9.836.53V43.175H98.866zM165.175 43.175h-8.464V336.9c4.089-.109 7.812-.238 11.094-.369V43.175h-2.63zM87.509 43.175h-7.264c-.171 0-.344.011-.515.014v291.895c.549.046.87.064.87.064 2.925.245 5.854.463 8.777.657V43.175H87.509zM75.64 43.558c-1.86.398-3.724.95-5.567 1.661-.423.163-.842.35-1.263.528v287.475c3.141.821 6.127 1.306 8.311 1.582V43.344l-.055.004c-.474.052-.95.13-1.426.21zM63.219 48.609c-.594.36-1.175.757-1.759 1.147v280.842c1.651.797 3.412 1.457 5.179 2.004V46.746c-.267.132-.534.25-.799.388-.883.458-1.757.951-2.621 1.475zM48.952 61.723v41.341c2.196 4.428 3.862 7.219 3.862 7.219.232.625.447 1.33.65 2.088V56.421c-.268.273-.542.537-.805.817-1.313 1.408-2.54 2.918-3.707 4.485zM53.465 323.163v-5.546c-.369 1.795-.65 2.958-.65 2.958.095.921.325 1.779.65 2.588zM133.767 42.842h-8.551v.001h-1.87v.332h-3.954V337.183c4.955.083 9.768.116 14.375.108V42.842zM221.848 321.76c.586-1.543-.863-5.213-.863-5.213a917.343 917.343 0 01-1.764-10.647v20.466c2.157-2.401 2.627-4.606 2.627-4.606zM223.733 67.256a57.58 57.58 0 00-1.869-3.019c-.249-.371-.481-.756-.738-1.121a47.003 47.003 0 00-1.905-2.505v65.707c.145-2.341.221-3.762.221-3.762.863-7.912 2.992-12 2.992-12 .199-.305.398-.629.598-.967.225-.626.457-1.235.702-1.825V67.256zM192.947 43.741c-.621-.119-1.241-.197-1.861-.279-.25-.033-.5-.086-.75-.113a29.61 29.61 0 00-3.178-.174h-3.851v292.559c1.675-.033 3.261-.089 4.777-.161 1.73-.102 3.348-.228 4.871-.371V43.743a.03.03 0 01-.008-.002zM203.432 47.466c-.471-.244-.947-.465-1.423-.69-.25-.118-.497-.249-.747-.362a39.283 39.283 0 00-4.139-1.596 32.234 32.234 0 00-1.556-.453v290.563c3.282-.383 6.03-.85 8.311-1.339V47.717c-.149-.086-.296-.173-.446-.251zM210.715 52.167c-.446-.35-.904-.675-1.359-1.006-.249-.181-.492-.374-.743-.55a47.654 47.654 0 00-2.559-1.67l-.006-.003v284.146c2.299-.579 3.99-1.156 5.178-1.632V52.588c-.172-.138-.338-.286-.511-.421z"/><path fill="#000202" d="M38.019 77.484l-.004.008c-1.545-7.273-3.523-17.878-4.272-27.415a104.676 104.676 0 01-.164-2.405c-.015-.259-.027-.515-.04-.771-.012-.232-.021-.463-.031-.693a67.861 67.861 0 01-.058-1.884l-.005-.41a60.105 60.105 0 01-.007-1.036v-.329c.006-.936.032-1.844.079-2.721l.006-.105c.198-3.52.76-6.5 1.814-8.595-1.125 1.19-4.918 5.11-8.711 8.01 0 0-21.688 16.197-23.91 59.002l-.293 7.805-.586 6.371s-.184 7.914-.863 14.947c0 0-.293 14.068-.973 15.041 0 0 11.184 10.504 38.379 11.568 0 0 5.843.171 9.216-1.903.193-.126.382-.257.556-.399 0 0-.216-1.93.078-7.039 0 0 .4-4.83.787-8.783 0 0-.865-13.692.679-23.927 0 0-.168-.892.514-1.151.155-.103.383-.152.688-.135-.582-.988-6.806-11.687-10.85-24.184-.001-.001-.898-3.538-2.029-8.867zm-9.68 11.843zm5.523-5.434zM237.912 31.735l.001.007.015.009s1.359 26.536-2.407 43.423c0 0-.917 3.403-2.371 8.183-.053-.072-.106-.152-.158-.226-1.145 3.976-2.401 8.428-4.154 13.176-1.741 4.721-3.6 7.833-5.104 11.458-.245.59-.478 1.199-.702 1.825l.012-.02c-.174.49-.342.988-.5 1.51 0 0 .262.803.631 3.596 0 0 .371 7.666.51 21.256 0 0 .586 7.234.803 15.117 0 0 .939 2.822 7.018 2.744 0 0 16.846 1.65 38.533-8.9 0 0 2.634-1.753 2.646-4.512a4.35 4.35 0 00-.039-.528s-1.434-19.11-2.453-35.318l.002-.039-.002-.032s.059-1.021.045-2.842c-.068-8.103-1.572-31.724-15.682-53.245-.001-.001-5.498-6.654-16.644-16.642z"/><path fill="#D3D6DF" d="M33.862 83.893z"/><path fill="#10121B" d="M28.339 89.327zM144.056 9.46v33.714H187.16c1.052 0 2.112.059 3.178.174.25.027.5.08.75.113.62.082 1.24.16 1.861.279a.03.03 0 01.009.002c.247.049.494.114.741.167a39.4 39.4 0 013.426.907 39.54 39.54 0 014.139 1.596c.25.113.497.244.747.362.476.226.952.446 1.423.69.15.078.298.166.446.251.1.058.199.114.3.169.626.341 1.254.679 1.87 1.052l.006.003a48.056 48.056 0 012.559 1.67c.251.176.494.369.743.55.455.331.913.656 1.359 1.006.173.135.339.283.511.421.514.412 1.027.825 1.528 1.26a51.573 51.573 0 013.857 3.723c.255.272.49.568.74.847a58.82 58.82 0 011.869 2.193 47.003 47.003 0 011.905 2.505c.257.365.489.75.738 1.121a57.169 57.169 0 011.869 3.019c.303.522.61 1.041.893 1.577 2.131 4.059 4.056 7.581 5.877 10.544.248.401.491.783.735 1.165a59.054 59.054 0 001.753 2.589c.052.073.105.153.158.226a293.23 293.23 0 002.371-8.183c3.767-16.887 2.407-43.423 2.407-43.423l-.015-.009c-10.512-6.077-25.054-10.148-25.054-10.148C198.102 18.6 180.52 8.411 180.52 8.411c-1.451-1.158-7.425-2.223-7.425-2.223H144.056V9.46zM33.516 39.827a57.846 57.846 0 00-.079 2.721v.329c-.001.342.002.688.007 1.036l.005.41c.008.414.02.831.033 1.253l.025.631.031.693c.013.257.025.513.04.771l.027.439a105.375 105.375 0 00.137 1.966c.749 9.537 2.728 20.142 4.272 27.415l.004-.008c1.491-2.543 3.056-5.408 4.759-8.651a51.293 51.293 0 013.5-5.717c.257-.364.539-.704.806-1.061 1.167-1.567 2.393-3.078 3.708-4.484.262-.281.537-.544.804-.817.494-.506.994-1.004 1.503-1.489a43.908 43.908 0 011.551-1.416 49.69 49.69 0 014.142-3.237c.263-.184.535-.345.801-.522.583-.391 1.165-.787 1.758-1.147a46.08 46.08 0 012.621-1.476c.265-.137.533-.256.799-.387.457-.227.912-.459 1.373-.666.265-.119.532-.221.798-.334.421-.179.841-.364 1.264-.527a36.714 36.714 0 016.252-1.811c.266-.051.53-.075.796-.119l.389-.064c.477-.08.952-.158 1.426-.209l.055-.004c.247-.025.494-.04.741-.06.267-.022.533-.051.799-.065.358-.02.714-.023 1.07-.03.171-.003.344-.014.515-.014H123.348V6.188H100.762c-3.471.2-7.035 1.064-7.035 1.064-16.781 10.613-44.547 17.94-44.547 17.94-6.371 2.128-13.498 5.599-13.498 5.599v-.031s-.117.126-.313.333c-1.073 2.091-1.644 5.085-1.846 8.627l-.007.107z"/></svg>