<svg xmlns="http://www.w3.org/2000/svg" width="267.003" height="337.412"><path fill="none" d="M49.276 111.056c.05.725.067 1.834.064 3.238.004-1.406-.014-2.516-.064-3.238zM209.959 208.437V21.744c1.442.348 2.823.686 4.163 1.041v100.299c.562-10.796 2.437-17.04 2.571-17.476 2.06 4.027 1.629 25.824 1.629 25.824-.139 1.883.293 4.629.293 4.629.864 6.369.586 10.998.586 10.998.021.01.045.016.065.025.017-.311.245-4.824-.589-10.977 0 0-.433-2.747-.294-4.631 0 0 .434-21.857-1.636-25.855 0 0 1.458-13.803 6.021-37.302V25.662a62.502 62.502 0 013.549 1.615v22.222c1.354-6.644 2.991-14.005 4.629-19.698a18.747 18.747 0 00-.054-.037c-11.137-6.51-17.061-7.08-28.352-9.98-5.574-1.432-12.122-4.372-17.33-6.984.174.088.339.174.517.263v320.37c.815-.098 1.616-.194 2.408-.291V14.245a118.492 118.492 0 007.667 3.379v314.528l2.002-.274V18.388a58.222 58.222 0 004.777 1.535v311.275c2.935-.431 5.426-.818 7.376-1.132v-92.547c-.506-12.738-.329-22.408.002-29.082z"/><path fill="none" d="M214.188 136.817c-.025-.43-.046-.851-.066-1.272v9.343c.199-4.148.066-8.071.066-8.071zM214.122 329.374l.637-.111c4.442-1.357 5.6-3.855 5.6-3.855-2.663-14.613-4.694-27.937-6.236-39.998v43.964zM177.951 8.91c-.49-1.039-2.359-1.831-3.269-2.688-1.557-1.467-1.426-2.082-3.867-2.718-4.528-1.18-12.605-2.255-17.936-2.22-2.643.017-3.539-.417-6.185-.405-2.203.009-4.411.025-6.611.023-2.364-.002-3.588-.359-6.063-.401H132.861c-4.062.042-7.631.409-12.149.385-6.569-.035-18.069 1.026-24.201 2.544-2.664.66-2.349.991-3.987 2.603-1.003.986-3.233 1.959-3.553 3.109-12.867 7.9-39.001 15.271-39.001 15.271-11.568 3.332-13.883 5.646-13.883 5.646l.006.022-.042.03c2.222 7.643 5.292 16.667 5.292 16.667 4.06 13.307 4.445 28.558 4.445 28.558.772 9.834 4.585 30.102 4.585 30.102l-1.451 4.77c.139-.031.231.293.293.881.201 2.901-.124 11.994-.155 21.41 0 0-1.157 5.355-1.157 12.594 0 0 .102 1.955-.711 2.761.88-.765.773-2.813.773-2.813 0-7.234 1.157-12.586 1.157-12.586.03-9.873.447-18.666.154-21.396.05.723.067 1.832.064 3.238.003-1.404-.015-2.514-.064-3.238-.063-.785-.154-1.141-.293-.879l1.444-4.75.422 1.264c2.606 9.549 2.175 27.041 2.175 27.041.586 32.826 1.589 45.844 1.589 45.844.139 9.842 1.743 17.646 1.743 17.646 2.313 34.137.293 61.902.293 61.902-3.332 35.139-9.456 64.154-9.842 65.219l-.386 1.064c1.285 1.07 3.537 2.051 6.46 2.947v-34.768c1.482-9.818 2.99-21.318 4.163-33.584v69.471c2.253.537 4.739 1.039 7.376 1.507V20.245c1.54-.531 3.143-1.099 4.776-1.698v313.222c.662.102 1.33.201 2.002.299V17.803a178.967 178.967 0 007.667-3.084v318.365c.803.098 1.605.193 2.408.285V13.652c3.325-1.516 6.4-3.103 8.9-4.708v325.364c.717.069 1.426.136 2.129.201V16.348c1.24 3.313 3.838 7.185 9.074 10.784v308.15c1.079.084 2.116.163 3.1.235V29.046a50.99 50.99 0 006.144 2.883s1.405.578 4.091 1.25v303.006l.354.02c.924.077 1.858.146 2.798.209V33.872c3.338.642 7.791 1.22 13.262 1.338V336.9c1.576.015 3.162.015 4.753.002V35.193c3.504-.097 7.338-.384 11.497-.949 0 0 .664-.094 1.765-.308v302.6a402.82 402.82 0 003.151-.155V33.237c2.833-.704 6.548-1.836 10.234-3.548v306.025c1.04-.079 2.073-.162 3.101-.247V28.088c3.662-2.097 7.011-4.847 9.072-8.424v314.975c.715-.071 1.425-.144 2.13-.216V8.266c.252.146.64.37 1.123.644zM44.233 57.189c-.607-3.313-1.395-6.775-2.413-10.117 0 0-.453-1.332-1.136-3.397v-15.63c.961-.416 2.136-.88 3.549-1.385v30.529zm12.812 144.43a457.72 457.72 0 00-.251-3.993s-1.605-7.812-1.745-17.66c0 0-1.003-13.028-1.59-45.877 0 0 .215-8.728-.577-17.221V23.962c1.096-.328 2.511-.761 4.163-1.283v178.94z"/><path fill="#FFF" d="M209.959 237.519v92.547c1.983-.319 3.403-.561 4.163-.691V285.41c-2.444-19.123-3.651-35.063-4.163-47.891zM209.959 21.744v186.692c.374-7.538.943-11.26.943-11.26 1.743-10.799 3.085-50.133 3.085-50.133.057-.713.101-1.438.135-2.156v-9.343a123.46 123.46 0 010-12.461V22.785c-1.34-.355-2.721-.693-4.163-1.041zM226.318 49.499V27.277a62.185 62.185 0 00-3.549-1.615V68.32c.111-.575.224-1.151.339-1.737 0 0 1.33-7.845 3.21-17.084zM197.806 18.388v313.49c1.695-.235 3.296-.464 4.777-.681V19.922a58.204 58.204 0 01-4.777-1.534zM110.621 31.929a50.99 50.99 0 01-6.144-2.883v306.471c5.294.389 9.102.605 10.234.667V33.179c-2.685-.672-4.09-1.25-4.09-1.25zM81.274 13.652v319.717c3.008.347 6.004.659 8.9.938V8.944c-2.499 1.605-5.574 3.192-8.9 4.708zM71.199 17.803v314.264c2.509.365 5.083.703 7.667 1.017V14.719a178.444 178.444 0 01-7.667 3.084zM92.304 16.348v318.161c3.227.299 6.295.557 9.074.773V27.132c-5.236-3.599-7.834-7.471-9.074-10.784zM152.291 33.237v303.145c3.448-.185 6.87-.411 10.234-.668V29.689c-3.686 1.712-7.401 2.844-10.234 3.548zM117.863 33.872v302.542c4.292.292 8.737.447 13.262.487V35.21c-5.471-.119-9.924-.697-13.262-1.338zM147.375 34.245c-4.159.564-7.993.852-11.497.949v301.709c4.398-.033 8.842-.162 13.262-.365v-302.6a41.32 41.32 0 01-1.765.307zM165.626 28.088v307.378c3.093-.256 6.127-.534 9.072-.828V19.664c-2.061 3.578-5.41 6.327-9.072 8.424zM40.685 43.676a472.641 472.641 0 001.136 3.397c1.019 3.342 1.806 6.804 2.413 10.117V26.661a58.966 58.966 0 00-3.549 1.385v15.63zM52.882 116.868c.792 8.493.577 17.221.577 17.221.587 32.849 1.59 45.877 1.59 45.877.14 9.849 1.745 17.66 1.745 17.66.091 1.342.173 2.672.251 3.993V22.68c-1.652.522-3.067.955-4.163 1.283v92.905zM185.212 12.8a178.295 178.295 0 01-7.232-3.842c-.007-.016-.021-.031-.028-.047-.483-.274-.871-.498-1.123-.645v326.157a605.99 605.99 0 008.9-.99V13.063c-.178-.089-.343-.175-.517-.263zM64.421 20.245V330.98c1.546.274 3.142.537 4.776.788V18.547a262.79 262.79 0 01-4.776 1.698zM52.882 293.587v34.768c1.269.389 2.665.762 4.163 1.119v-69.471c-1.173 12.266-2.681 23.766-4.163 33.584zM188.137 14.245v318.897c2.708-.333 5.276-.666 7.667-.989V17.624a118.8 118.8 0 01-7.667-3.379z"/><path fill="#000202" d="M47.903 145.091c0-7.238 1.157-12.594 1.157-12.594.031-9.416.355-18.509.155-21.41-.062-.588-.155-.912-.293-.881l1.451-4.77s-3.813-20.268-4.585-30.102c0 0-.386-15.251-4.445-28.558 0 0-3.07-9.025-5.292-16.667-6.658 4.612-12.674 11.532-12.674 11.532C4.142 59.859 2.846 102.233 2.846 102.233 2.553 119.016.533 138.235.533 138.235c18.51 9.98 46.275 9.842 46.275 9.842.146-.049.272-.128.384-.226.813-.805.711-2.76.711-2.76zM223.108 66.583c-.115.586-.228 1.162-.339 1.737-4.563 23.5-6.021 37.302-6.021 37.302 2.069 3.998 1.636 25.855 1.636 25.855-.139 1.884.294 4.631.294 4.631.834 6.152.605 10.666.589 10.977 10.342 4.823 47.214-8.572 47.214-8.572-.864-13.883-2.9-44.824-2.9-44.824-.617-17.57-6.016-31.994-12.726-42.514-8.689-13.612-19.112-20.834-19.907-21.374-1.638 5.692-3.275 13.054-4.629 19.698-1.881 9.239-3.211 17.084-3.211 17.084z"/></svg>