<svg xmlns="http://www.w3.org/2000/svg" width="272.686" height="337.292" viewBox="309.848 312.5 272.686 337.292"><path fill="none" d="M582.491 452.256s-1.435-19.097-2.453-35.293c0 0 1.728-29.647-15.626-56.117 0 0-5.491-6.648-16.628-16.628v.007c-.147-.085-.3-.169-.449-.254H345.188c.108-.235.221-.464.34-.679v-.031s-4.535 4.921-9.055 8.376c0 0-21.688 16.197-23.91 59.002l-.293 7.805-.586 6.371s-.185 7.913-.863 14.947c0 0-.294 14.067-.973 15.04 0 0 11.184 10.504 38.379 11.568 0 0 6.756.201 9.934-2.406 0 0-.216-1.928.077-7.034 0 0 .401-4.828.787-8.776 0 0-.864-13.683.679-23.909 0 0-.293-1.45 1.249-1.203 2.9 7.805 3.471 27.333 3.471 27.333.727 8.721 1.554 18.525 2.347 27.874H526.01c.596-7.914.966-13.59.966-13.59 1.45-13.497 2.314-29.602 2.314-29.602.863-7.913 2.992-12.001 2.992-12.001.202-.31.405-.641.609-.985-.174.489-.342.988-.501 1.51 0 0 .262.803.632 3.595 0 0 .371 7.666.51 21.256 0 0 .586 7.234.802 15.117 0 0 .94 2.822 7.019 2.745 0 0 16.845 1.65 38.532-8.9-.001-.001 3.038-2.022 2.606-5.138zm-233.592-58.354a312.815 312.815 0 01-.783-3.563h196.519c-.279.982-.628 2.186-1.038 3.563H348.899zm-2.107-10.104a279.269 279.269 0 01-.69-3.748h200.587a98.995 98.995 0 01-.557 3.748h-199.34zm-1.633-9.47a195.783 195.783 0 01-.681-4.875h203.176a175.778 175.778 0 01-.352 4.875H345.159zm-1.264-10.197a109.737 109.737 0 01-.361-5.275h204.482a251.399 251.399 0 01-.119 5.275H343.895zm204.042-16.073c.043 1.583.082 3.587.096 5.893h-204.56c.051-2.15.217-4.138.526-5.893h203.938zm-195.306 57.83a119.85 119.85 0 01-1.462-3.841h189.883a242.194 242.194 0 01-1.295 3.841H352.631zM370.069 516.903c.01.139.017.278.026.417h152.287c.036-.633.059-.987.059-.987.343-2.618.685-5.603 1.017-8.777h-154.19l.801 9.347zM370.652 530.139h151.221c.099-3.809.226-7.015.335-9.379h-151.91c.164 3.122.281 6.252.354 9.379zM370.71 543.327h151c-.006-3.459.028-6.729.085-9.733H370.714a367.13 367.13 0 01-.004 9.733zM370.372 555.39h151.534a394.508 394.508 0 01-.168-7.82H370.631a420.206 420.206 0 01-.259 7.82zM369.753 566.696h152.71a301.72 301.72 0 01-.386-6.833H370.16a466.01 466.01 0 01-.407 6.833zM437.144 312.5h20.341v6.188h-20.341zM522.748 334.083c-.165-.034-.332-.073-.498-.108H371.266a247.226 247.226 0 01-10.672 3.286h171.79c-5.476-2.013-9.636-3.178-9.636-3.178zM367.945 492.069h156.961c.335-3.947.644-7.809.914-11.338H366.981c.333 3.926.657 7.744.964 11.338zM369.023 504.702h154.726c.342-3.425.67-7.008.979-10.566H368.12l.903 10.566zM496.191 323.995H395.996c-1.685.848-3.41 1.667-5.154 2.453h110.377a165.878 165.878 0 01-5.028-2.453zM363.593 638.918h165.425c.79-.87 1.356-1.71 1.759-2.438H361.914a11.08 11.08 0 001.679 2.438zM449.337 649.762h-13.798c4.786.041 9.407.037 13.798 0zM368.794 578.852h154.818a443.121 443.121 0 01-.688-6.34H369.331a507.356 507.356 0 01-.537 6.34zM362.541 625.082c-.091.574-.185 1.137-.28 1.681h168.182c-.167-.99-.332-1.973-.493-2.946H362.78c-.153.824-.239 1.265-.239 1.265zM364.311 614.839h164.194a1237.84 1237.84 0 01-.599-3.902h-162.99a514.05 514.05 0 01-.605 3.902zM367.55 591.007h157.551a880.137 880.137 0 01-.741-5.861H368.185a568.758 568.758 0 01-.635 5.861zM366.065 602.931h160.663c-.241-1.685-.47-3.315-.686-4.89H366.705a564.044 564.044 0 01-.64 4.89z"/><path d="M351.169 402.047a119.85 119.85 0 001.462 3.841h187.126c.449-1.295.882-2.582 1.295-3.841H351.169zM544.634 390.339H348.115c.28 1.312.545 2.509.783 3.563h194.697c.411-1.378.76-2.581 1.039-3.563zM366.981 480.731H525.82c.065-.847.129-1.68.189-2.483H366.77c.07.832.14 1.66.211 2.483zM368.12 494.136h156.607l.178-2.066h-156.96l.175 2.066zM369.267 507.556h154.19c.098-.937.195-1.888.291-2.854H369.023l.244 2.854zM346.102 380.05c.228 1.285.459 2.537.69 3.748h199.34c.206-1.221.392-2.474.557-3.748H346.102zM501.219 326.447H390.842c-6.799 3.062-13.844 5.625-19.576 7.527H522.25c-7.177-1.527-14.958-4.691-21.031-7.527zM490.433 320.91c-1.45-1.157-7.42-2.221-7.42-2.221h-72.406c-3.471.2-7.034 1.064-7.034 1.064-2.345 1.483-4.908 2.899-7.576 4.242h100.194c-3.529-1.795-5.758-3.085-5.758-3.085zM344.479 369.453c.206 1.631.436 3.263.681 4.875h202.144a175.5 175.5 0 00.352-4.875H344.479zM547.335 343.97c-4.786-2.713-10.335-5.013-14.951-6.71h-171.79c-.999.281-1.569.432-1.569.432-6.371 2.128-13.497 5.599-13.497 5.599a10.48 10.48 0 00-.34.679h202.147zM548.032 353.951a281.833 281.833 0 00-.096-5.893H343.999c-.31 1.755-.476 3.743-.526 5.893h204.559zM343.533 358.856c.073 1.711.197 3.479.361 5.275h204.002c.062-1.823.099-3.59.119-5.275H343.533zM370.714 533.594h151.081c.022-1.197.049-2.352.077-3.455h-151.22c.026 1.152.047 2.304.062 3.455zM364.916 610.937h162.99a964.516 964.516 0 01-1.179-8.006H366.065a549.007 549.007 0 01-1.149 8.006zM362.78 623.816h167.17c-.511-3.081-.992-6.08-1.444-8.978H364.311a380.933 380.933 0 01-1.531 8.978zM366.705 598.041h159.337a929.743 929.743 0 01-.941-7.034H367.55a525.93 525.93 0 01-.845 7.034zM360.952 633.18a9.579 9.579 0 00.962 3.301h168.862c.717-1.296.919-2.221.919-2.221.586-1.543-.864-5.214-.864-5.214-.132-.767-.26-1.525-.389-2.283H362.261c-.633 3.618-1.309 6.417-1.309 6.417zM370.297 520.76h151.91c.07-1.521.132-2.688.175-3.439H370.095c.074 1.144.141 2.291.202 3.439zM388.718 647.741c16.037 1.345 32.209 1.895 46.821 2.021h13.798c24.516-.207 41.959-1.435 41.959-1.435 24.681-.478 32.101-5.491 32.101-5.491 2.583-1.116 4.375-2.546 5.621-3.918H363.593c6.975 7.818 25.125 8.823 25.125 8.823zM368.185 585.146H524.36c-.296-2.413-.544-4.52-.747-6.294H368.794a546.886 546.886 0 01-.609 6.294zM370.16 559.863h151.917a363.644 363.644 0 01-.171-4.474H370.372a416.08 416.08 0 01-.212 4.474zM370.631 547.569h151.107a438.993 438.993 0 01-.028-4.242h-151a395.183 395.183 0 01-.079 4.242zM369.331 572.512h153.593l-.006-.062a241.468 241.468 0 01-.455-5.754h-152.71a492.73 492.73 0 01-.422 5.816z"/></svg>