<svg xmlns="http://www.w3.org/2000/svg" xmlns:xlink="http://www.w3.org/1999/xlink" width="80" height="80" viewBox="202.64 145.467 80 80"><defs><path id="prefix__a" d="M202.64 145.467h80v80h-80z"/></defs><clipPath id="prefix__b"><use xlink:href="#prefix__a" overflow="visible"/></clipPath><g clip-path="url(#prefix__b)"><path fill="#FFF" d="M194.667 127.476h95.946v115.983h-95.946z"/><path fill="none" stroke="#231F20" stroke-width=".567" stroke-miterlimit="22.926" d="M194.667 127.476h95.946v115.983h-95.946z"/><path fill="#231F20" d="M194.899 161.612h95.652v24.156h-95.652zM194.807 157.617h95.652v2.715h-95.652zM194.807 204.248h95.652v3.255h-95.652z"/><path fill="#231F20" d="M194.807 157.617h95.652v2.715h-95.652zM194.807 204.248h95.652v3.255h-95.652zM194.667 154.239h95.946v2.19h-95.946zM194.667 208.921h95.946v2.607h-95.946zM194.667 151.077h95.946v1.913h-95.946zM194.667 213.009h95.946v2.283h-95.946zM194.667 147.683h95.946v1.774h-95.946zM194.667 217.236h95.946v2.113h-95.946zM194.667 144.274h95.946v1.635h-95.946zM194.667 221.462h95.946v1.959h-95.946zM194.667 199.959h95.946v3.131h-95.946zM194.667 195.548h95.946v3.27h-95.946zM194.667 191.074h95.946v3.517h-95.946zM194.667 186.601h95.946v3.779h-95.946z"/></g></svg>