<svg xmlns="http://www.w3.org/2000/svg" width="265.948" height="336.412" viewBox="24.279 312.046 265.948 336.412"><path fill="none" d="M73.023 422.602c.05.725.067 1.834.064 3.238.004-1.406-.014-2.516-.064-3.238zM78.36 491.121c.037 2.593.176 5.037.36 7.241h156.997c.266-3.48.513-7.378.736-11.338H78.106c.154 2.8.254 4.097.254 4.097z"/><path fill="none" d="M70.554 459.623c1.296-.432 1.157-3.039 1.157-3.039 0-7.234 1.157-12.586 1.157-12.586.03-9.873.447-18.666.154-21.396.05.723.067 1.832.064 3.238.003-1.404-.015-2.514-.064-3.238-.063-.785-.154-1.141-.293-.879l1.444-4.75.422 1.264c2.606 9.549 2.175 27.041 2.175 27.041.354 19.804.858 32.388 1.204 39.264H236.59a1501.563 1501.563 0 001.144-25.951c.386-4.828.201-10.227.201-10.227-1.126-19.146 2.321-30.613 2.505-31.209 2.06 4.027 1.629 25.824 1.629 25.824-.139 1.883.293 4.629.293 4.629.864 6.369.586 10.998.586 10.998 10.258 4.904 47.279-8.547 47.279-8.547-.864-13.883-2.9-44.824-2.9-44.824-.617-17.57-6.016-31.993-12.726-42.513-9.039-14.16-19.961-21.41-19.961-21.41-11.137-6.51-17.061-7.08-28.352-9.98-8.791-2.258-20.019-8.272-24.562-10.827-.454-1.063-2.373-1.865-3.297-2.735-1.557-1.467-1.426-2.082-3.867-2.718-4.528-1.18-12.605-2.255-17.936-2.22-2.642.017-3.538-.417-6.185-.405-2.203.009-4.411.025-6.611.023-2.364-.002-3.588-.359-6.063-.401H156.608c-4.062.042-7.631.409-12.149.385-6.569-.035-18.069 1.026-24.201 2.544-2.664.66-2.349.991-3.987 2.603-1.003.986-3.233 1.959-3.553 3.109-12.867 7.9-39.001 15.271-39.001 15.271-11.568 3.332-13.883 5.646-13.883 5.646l.006.022c-6.675 4.612-12.716 11.563-12.716 11.563-19.235 18.217-20.531 60.591-20.531 60.591-.293 16.783-2.313 36.002-2.313 36.002 18.509 9.977 46.274 9.838 46.274 9.838zm63.353-115.977s13.297 5.491 36.728 2.314c0 0 4.385-.616 9.764-2.422h73.764a203.229 203.229 0 00-1.689 6.71H62.356c-.678-2.129-1.4-4.447-2.072-6.71h73.364c.089.036.17.073.259.108zm112.515 36.975H69.159a140.625 140.625 0 00-.533-4.875h178.683a215.293 215.293 0 00-.489 2.823c-.135.693-.268 1.375-.398 2.052zM70.705 396.617h172.822a600.608 600.608 0 00-.588 3.563H71.236a346.668 346.668 0 01-.531-3.563zm-.84-6.525a93.037 93.037 0 01-.266-2.777s-.009-.347-.037-.972h175.779a808.422 808.422 0 00-.682 3.749H69.865zm-2.026-19.667c-.292-1.719-.63-3.489-1.025-5.275h182.479c-.371 1.886-.71 3.666-1.012 5.275H67.839zm-2.259-10.196a70.964 70.964 0 00-.424-1.45s-.609-1.789-1.479-4.443h187.865a425.265 425.265 0 00-1.258 5.893H65.58zm7.654 51.953c-.204-1.154-.43-2.448-.668-3.842h169.117c-.21 1.445-.389 2.725-.54 3.842H73.234zm178.75-71.913h-63.927c3.495-1.888 6.771-4.352 9.017-7.528h33.079c8.089 1.96 13.593 3.085 21.831 7.528zm-30.474-9.981h-22.984c1.131-2.363 1.695-5.067 1.473-8.145h3.892c4.262 2.316 11.138 5.825 17.619 8.145zm-21.285-10.196h-.483c-.019-.104-.024-.203-.045-.309 0 0 .19.113.528.309zm-85.414-.309s-.029.112-.068.309h-.388c.151-.103.31-.206.456-.309zm-3.776 2.361h3.508c-.034 1.932.309 4.872 2.063 8.145H92.475c6.43-2.357 13.317-5.192 18.56-8.145zm-37.302 14.268s5.023-1.417 11.743-3.671h32.693c1.856 2.512 4.63 5.111 8.735 7.528H62.908c2.075-.979 5.438-2.306 10.825-3.857zM80.103 508.768c.05.742.096 1.477.142 2.213h154.129c.16-1.503.275-2.258.275-2.258.316-1.959.619-4.86.903-8.293H78.912c.513 5.021 1.191 8.338 1.191 8.338zM80.871 523.614h152.683c.142-4.121.353-7.377.552-9.78H80.416c.189 3.341.34 6.609.455 9.78zM80.902 524.432c.925 26.575-.505 46.238-.505 46.238-3.332 35.139-9.456 64.154-9.842 65.219l-.386 1.064c.043.036.096.071.141.107l.261-.719c.071-.196.338-1.346.745-3.301h172.023c.234 1.324.473 2.658.718 4.004.032-.057.049-.092.049-.092-7.958-43.67-10.299-75.857-10.664-97.065H81.219a521.74 521.74 0 00-.03-3.455h152.209c-.027-3.456 0-6.576.061-9.379H80.988c-.027-.866-.055-1.739-.086-2.621zM242.826 630.11H71.907a479.177 479.177 0 001.677-8.978h167.74c.474 2.933.975 5.927 1.502 8.978zm-2.124-12.895H74.266a625.27 625.27 0 001.313-8.006h163.917c.381 2.617.781 5.283 1.206 8.006zm-1.896-12.88H76.328c.338-2.259.677-4.613 1.013-7.034h160.53c.293 2.298.605 4.643.935 7.034zm-1.656-12.897H78.126c.266-2.056.527-4.155.782-6.293h157.527c.223 2.055.461 4.153.715 6.293zm-1.371-12.648H79.631c.208-1.916.408-3.854.6-5.815H235.24c.166 1.895.345 3.834.539 5.815zm-1.094-12.633H80.697c.062-1.271.127-2.774.191-4.474H234.37a526.1 526.1 0 00.315 4.474zm-.769-12.294H81.115c.028-1.351.053-2.766.071-4.242h152.541c.054 1.38.117 2.791.189 4.242zM107.671 645.212h99.807a624.947 624.947 0 0018.742-2.453H89.507c5.696.968 12.008 1.782 18.164 2.453z"/><path d="M72.566 408.34c.238 1.394.464 2.688.668 3.842h167.909c.151-1.117.33-2.396.54-3.842H72.566zM243.527 396.617H70.705c.169 1.177.347 2.37.531 3.563h171.703c.183-1.136.38-2.326.588-3.563zM78.106 487.024h158.348c.047-.826.093-1.655.137-2.483H77.975c.047.929.091 1.76.131 2.483zM78.912 500.43h156.64c.056-.67.11-1.359.165-2.067H78.72c.06.717.124 1.405.192 2.067zM80.416 513.834h153.69c.095-1.146.187-2.094.268-2.854H80.245c.061.958.117 1.909.171 2.854zM69.562 386.344c.028.625.037.972.037.972.067.853.158 1.788.266 2.777H244.66c.217-1.214.444-2.463.682-3.749H69.562zM188.057 340.269h63.927c-8.237-4.442-13.741-5.568-21.831-7.528h-33.079c-2.247 3.176-5.522 5.64-9.017 7.528zM118.169 332.741H85.476c-6.72 2.254-11.743 3.671-11.743 3.671-5.387 1.551-8.75 2.877-10.824 3.856h63.996c-4.106-2.416-6.879-5.016-8.736-7.527zM198.526 330.288h22.984c-6.481-2.32-13.357-5.829-17.62-8.145h-3.892c.223 3.078-.341 5.782-1.472 8.145zM114.544 322.144h-3.508c-5.244 2.954-12.13 5.789-18.56 8.145h24.131c-1.754-3.274-2.097-6.213-2.063-8.145zM114.811 319.783c-.146.103-.305.206-.456.309h.388c.038-.196.068-.309.068-.309zM200.225 320.092c-.337-.195-.528-.309-.528-.309.021.105.026.204.045.309h.483zM68.626 375.747c.225 1.77.399 3.413.533 4.875h177.262c.13-.677.263-1.359.399-2.052-.003.003.173-1.048.489-2.823H68.626zM62.356 350.249h190.118a203.229 203.229 0 011.689-6.71h-73.764c-5.379 1.806-9.764 2.422-9.764 2.422-23.431 3.177-36.728-2.314-36.728-2.314-.09-.035-.17-.072-.259-.108H60.284c.672 2.262 1.394 4.58 2.072 6.71zM63.677 354.336a494.049 494.049 0 001.479 4.443c.146.481.287.965.424 1.45h184.704c.4-1.937.821-3.918 1.258-5.893H63.677zM66.814 365.149c.395 1.786.733 3.557 1.025 5.275h180.442c.301-1.61.641-3.39 1.012-5.275H66.814zM81.219 539.888h152.223c-.02-1.185-.035-2.339-.044-3.455H81.189c.014 1.174.024 2.323.03 3.455zM74.266 617.215h166.437a761.026 761.026 0 01-1.206-8.006H75.579a628.175 628.175 0 01-1.313 8.006zM71.907 630.11h170.919a797.947 797.947 0 01-1.502-8.978H73.584a471.123 471.123 0 01-1.677 8.978zM76.328 604.335h162.478c-.33-2.391-.642-4.736-.935-7.034H77.341a671.264 671.264 0 01-1.013 7.034zM71.315 633.041c-.407 1.955-.673 3.104-.745 3.301l-.261.719c2.918 2.302 10.301 4.188 19.197 5.698h136.712c7.623-1.116 12.286-1.95 12.286-1.95 3.948-1.206 5.298-3.309 5.551-3.764-.245-1.346-.484-2.68-.718-4.004H71.315zM80.902 524.432c.031.883.06 1.755.086 2.622h152.471c.026-1.204.058-2.355.095-3.439H80.871l.031.817zM138.812 647.75c21.895 1.833 48.462-.206 68.666-2.538h-99.807c16.114 1.757 31.141 2.538 31.141 2.538zM78.126 591.438H237.15a633.838 633.838 0 01-.715-6.293H78.908a605.289 605.289 0 01-.782 6.293zM80.697 566.157h153.989a490.414 490.414 0 01-.315-4.474H80.887c-.063 1.7-.129 3.204-.19 4.474zM81.115 553.863h152.802a435.265 435.265 0 01-.19-4.242H81.186a539.09 539.09 0 01-.071 4.242zM79.631 578.79h156.148c-.194-1.981-.374-3.92-.539-5.815H80.231a554.741 554.741 0 01-.6 5.815z"/></svg>