<svg xmlns="http://www.w3.org/2000/svg" width="80" height="80"><g fill-rule="evenodd" clip-rule="evenodd"><path fill="#5B5B5F" d="M25.155.321h.459v3.607h-.459zM23.01 3.926v-1.93l-.459.488v1.442zM23.66 3.927V1.303l-.459.489v2.134zM22.358 3.926V2.689l-.459.488v.749zM24.584 3.928l.001-.001.378.001V.32h-.378l-.081.086v3.522zM28.219 1.684V.323h-.459v1.849zM28.852 1.01V.324l-.441-.001v1.156zM29.496.324h-.452v.482zM27.567 2.376V.322h-.459v2.543zM26.112 3.928l.003-.003h-.003l.154-.163V.322l-.459-.001v3.607zM26.916 3.069V.322h-.458v3.235zM21.196 3.925h.511v-.544zM24.312 3.928V.61l-.458.489v2.828z"/><path fill="#070708" d="M32.777 2.064V.323l-.459-.001v2.23zM32.125 2.757V.322h-.458v2.923zM31.028 3.928l.003-.003h-.004l.448-.476V.322l-.459-.001v3.607zM26.266 3.766l-.151.159h.151zM27.567 3.926V2.38l-.459.489v1.057zM30.364.321h.459v3.607h-.459zM34.079.679V.324L33.62.323v.844zM33.428 1.371V.323h-.459v1.536zM34.412.324h-.141v.15zM26.916 3.926v-.853l-.458.489v.363zM28.219 3.927V1.688l-.459.488v1.75zM28.852 3.927V1.014l-.441.469v2.444zM29.713.321h.459v3.607h-.459zM29.044.81v3.117l.456.001v-.001h.021V.32H29.5l-.004.004h.004zM28.219 1.688v-.004l-.459.488v.004z"/><path fill="#070708" d="M27.567 2.38v-.004l-.459.489v.004zM26.112 3.922l.153-.162.002.002-.153.162zM28.852 1.014V1.01l-.441.469v.004zM29.5.325l-.457.485-.002-.002.455-.486zM26.916 3.073v-.004l-.458.488v.005z"/><path opacity=".5" fill="#070708" d="M34.271.478v3.45h.145v-.001l.314.001V.32h-.314l-.004.004h.004zM37.335 2.448V.322h-.459v2.615zM35.943 3.928l.089-.094V.321h-.459v3.607zM38.637 1.063V.324l-.459-.001v1.228zM37.985 1.756V.323h-.458v1.921zM34.922.321h.459v3.607h-.459zM32.125 3.926V2.761l-.458.488v.677zM32.777 3.926V2.068l-.459.488v1.37zM33.428 3.927V1.375l-.459.488v2.063zM34.079 3.927V.682l-.459.488v2.757zM31.475 3.453l-.444.472h.444zM36.684 3.141V.322h-.459v3.307zM39.331.324h-.502v.534z"/><path opacity=".5" fill="#070708" d="M31.028 3.923l.447-.476.003.003-.447.475zM33.428 1.375v-.004l-.459.488v.004zM32.125 2.761v-.004l-.458.488v.004zM34.079.682V.679l-.459.488v.003zM34.415.323l-.144.154-.003-.003.144-.154zM32.777 2.068v-.004l-.459.488v.004z"/><path fill="#5B5B5F" d="M24.504 7.535h.08l.001-.001.378.001V3.928h-.379l-.08.085zM25.807 3.929v3.607h.305l.003-.004h-.003l.154-.163v-3.44l-.154-.001v.001zM25.155 3.928h.459v3.607h-.459zM22.358 6.296l-.459.488v.749h.459zM27.567 5.983V3.93l-.459-.001v2.543zM28.219 5.291V3.93h-.459v1.849zM24.312 7.535V4.218l-.458.488v2.828zM23.66 7.534V4.91l-.459.488v2.136zM21.196 7.532h.511v-.543zM29.496 3.931h-.452v.482zM23.01 7.534V5.603l-.459.488v1.442zM26.916 3.929h-.458v3.236l.458-.489zM28.411 5.086l.441-.468v-.687l-.441-.001zM24.584 3.927h.378v.001h-.378z"/><path fill="#5B5B5F" d="M25.959 3.776h.001v.306h-.001zM27.76 9.386l.459-.488V7.537h-.459zM26.916 7.536h-.458v3.235l.458-.488zM23.01 9.21l-.459.488v1.442l.459.001zM23.66 11.141V8.518l-.459.487v2.136zM27.567 9.591V7.537l-.459-.001v2.543zM23.854 11.141l.458.001V7.825l-.458.488zM25.807 7.536v3.607h.305l.003-.004h-.003l.154-.163v-3.44h-.154zM24.504 11.142h.459V7.535h-.379l-.08.085zM22.358 9.903l-.459.488v.749h.459zM28.411 8.693l.441-.468v-.687h-.441zM25.155 7.535h.459v3.606h-.459zM21.196 11.139l.511.001v-.544zM29.496 7.539l-.452-.001v.483zM24.584 7.534h.378v.001h-.378zM26.916 11.144l-.458-.001v3.236l.458-.488zM21.196 14.747h.511v-.544zM25.807 11.143v3.607h.305l.003-.003h-.003l.154-.164v-3.44h-.154zM29.496 11.146l-.452-.001v.482zM28.411 12.301l.441-.469v-.687h-.441zM23.854 14.749h.458v-3.317l-.458.488zM23.66 12.125l-.459.488v2.135h.459zM25.155 11.142h.459v3.607h-.459zM27.76 12.993l.459-.488v-1.36l-.459-.001zM23.01 12.817l-.459.489v1.442h.459zM22.358 13.51l-.459.489v.748l.459.001zM27.567 13.198v-2.054h-.459v2.542zM24.504 14.749h.459v-3.607h-.379l-.08.086z"/><path fill="#5B5B5F" d="M24.584 11.141h.378v.001h-.378zM28.411 15.908l.441-.469v-.687l-.441-.001zM27.567 16.805v-2.054h-.459v2.542zM29.496 14.752h-.452v.482zM26.916 14.75h-.458v3.236l.458-.488zM22.358 17.117l-.459.488v.749h.459zM25.807 14.75v3.607h.305l.003-.003h-.003l.154-.164v-3.44h-.154zM27.76 16.601l.459-.489v-1.361h-.459zM23.01 16.424l-.459.489v1.441l.459.001zM21.196 18.354h.511v-.544zM24.504 18.356h.459V14.75l-.379-.001-.08.085zM23.66 15.732l-.459.488v2.135h.459zM25.155 14.75h.459v3.607h-.459zM23.854 18.355l.458.001v-3.317l-.458.488z"/><path fill="#5B5B5F" d="M24.584 14.749h.378v.001h-.378zM25.614 14.75l-.459-.001v.001zM23.01 20.032l-.459.488v1.441l.459.001zM28.411 19.515l.441-.469v-.687h-.441zM23.854 21.963h.458v-3.317l-.458.488zM26.916 18.357h-.458v3.236l.458-.489zM22.358 20.724l-.459.489v.748h.459zM23.66 19.339l-.459.488v2.135l.459.001zM21.196 21.961h.511v-.544zM27.76 20.208l.459-.489v-1.36l-.459-.001zM25.155 18.357h.459v3.607h-.459zM24.504 21.963h.459v-3.607h-.379l-.08.085zM29.496 18.36l-.452-.001v.482zM27.567 20.412v-2.054h-.459V20.9zM25.807 18.357v3.607h.305l.003-.003h-.003l.154-.163v-3.441h-.154zM24.584 18.355h.378v.001h-.378zM25.614 18.357l-.459-.001.459.001zM24.312 22.253l-.458.488v2.829h.458zM26.916 21.965l-.458-.001V25.2l.458-.488zM25.807 21.964v3.607h.305l.003-.003h-.003l.154-.163v-3.441h-.154zM23.66 22.946l-.459.488v2.135l.459.001zM25.155 21.964h.459v3.606h-.459zM23.01 23.639l-.459.488v1.442h.459zM27.567 24.019v-2.054h-.459v2.542zM29.496 21.967l-.452-.001v.483zM28.411 23.122l.441-.469v-.687h-.441zM24.504 25.57h.459v-3.607h-.379l-.08.085zM21.196 25.568h.511v-.544zM22.358 24.332l-.459.488v.748l.459.001zM27.76 23.814l.459-.487v-1.361l-.459-.001z"/><path fill="#5B5B5F" d="M24.584 21.963h.378v.001h-.378zM27.76 27.422l.459-.488v-1.361h-.459zM27.567 27.626v-2.053l-.459-.001v2.542zM23.01 27.246l-.459.488v1.442h.459zM24.312 25.86l-.458.489v2.828h.458zM21.196 29.175h.511v-.544zM22.358 27.938l-.459.489v.748l.459.001zM25.807 25.571v3.607l.305.001.003-.004h-.003l.154-.163v-3.441h-.154zM26.916 25.572h-.458v3.235l.458-.488zM24.504 29.177h.081l.378.001v-3.607l-.379-.001-.08.086zM28.411 26.729l.441-.469v-.687h-.441zM25.155 25.571h.459v3.607h-.459zM29.496 25.574h-.452v.482zM23.66 26.553l-.459.489v2.134l.459.001z"/><path fill="#5B5B5F" d="M24.584 25.57h.378v.001h-.378zM23.66 30.16l-.459.488v2.136h.459zM26.916 29.179h-.458v3.236l.458-.489zM22.358 31.546l-.459.488v.749h.459zM25.807 29.179v3.606l.305.001.003-.004h-.003l.154-.163v-3.44h-.154zM27.76 31.029l.459-.488V29.18h-.459zM29.496 29.181h-.452v.482zM28.411 30.336l.441-.469v-.686l-.441-.001zM24.312 29.468l-.458.488v2.828l.458.001zM21.196 32.782l.511.001v-.544zM24.504 32.785h.459v-3.607l-.379-.001-.08.086zM25.155 29.178h.459v3.607h-.459zM27.567 31.233V29.18l-.459-.001v2.543zM23.01 30.853l-.459.488v1.442h.459z"/><path fill="#5B5B5F" d="M24.963 29.178l-.378-.001h-.001zM27.76 34.636l.459-.488v-1.36l-.459-.001zM29.496 32.788h-.452v.482zM25.807 32.786v3.607h.305l.003-.004h-.003l.154-.163v-3.44h-.154zM23.66 33.768l-.459.488v2.135h.459zM28.411 33.943l.441-.468v-.687h-.441zM27.567 34.84v-2.053h-.459v2.542zM24.312 33.075l-.458.488v2.829h.458zM24.585 36.392h.378v-3.607h-.379l-.08.085v3.522h.08zM25.155 32.785h.459v3.607h-.459zM26.916 32.786h-.458v3.235l.458-.488zM22.358 35.153l-.459.488v.749h.459zM21.196 36.389l.511.001v-.544zM23.01 34.46l-.459.488v1.442l.459.001zM24.584 32.784h.378v.001h-.378zM28.411 37.55l.441-.468v-.687h-.441zM25.807 36.393V40h.305l.003-.003h-.003l.154-.164v-3.44h-.154zM22.358 38.76l-.459.489v.748h.459zM26.916 36.394l-.458-.001v3.236l.458-.489zM29.496 36.396l-.452-.001v.482zM27.567 38.448v-2.054h-.459v2.542zM24.585 39.999h.378v-3.607h-.379l-.08.085v3.522h.08zM25.155 36.392h.459v3.607h-.459zM21.196 39.997h.511v-.544zM23.66 37.375l-.459.488v2.135h.459zM23.01 38.067l-.459.489v1.441l.459.001zM27.76 38.243l.459-.488v-1.36l-.459-.001zM24.312 36.682l-.458.488v2.829h.458z"/><path fill="#5B5B5F" d="M24.773 36.202h.001v.379h-.001zM25.155 40h.459v3.607h-.459zM22.358 42.367l-.459.488v.749h.459zM23.66 40.982l-.459.488v2.135h.459zM26.916 40h-.458v3.236l.458-.488zM24.312 40.289l-.458.488v2.828l.458.001zM24.585 43.606h.378v-3.607h-.379l-.08.085v3.522h.08zM21.196 43.604h.511v-.544zM27.76 41.85l.459-.488v-1.361h-.459zM28.411 41.158l.441-.469v-.687h-.441zM25.807 40v3.607h.305l.003-.003h-.003l.154-.164V40h-.154zM27.567 42.055v-2.054L27.108 40v2.543zM29.496 40.002h-.452v.482zM23.01 41.675l-.459.488v1.441l.459.001z"/><path fill="#5B5B5F" d="M24.773 39.809h.001v.379h-.001zM27.567 43.608h-.459v2.542l.459-.488zM23.01 45.282l-.459.488v1.442h.459zM29.044 44.092l.452-.482-.452-.001zM26.112 47.21l.154-.162v-3.441H25.807v3.607h.305l.003-.004zM26.916 43.608l-.458-.001v3.236l.458-.488zM25.155 43.607h.459v3.607h-.459zM24.312 43.896l-.458.488v2.828l.458.001zM28.411 44.765l.441-.469v-.687h-.441zM27.76 45.458l.459-.489v-1.36l-.459-.001zM22.358 45.975l-.459.487v.749h.459zM24.585 47.213h.378v-3.607h-.379l-.08.086v3.521h.08zM21.196 47.21l.511.001v-.544zM23.66 44.589l-.459.488v2.135h.459z"/><path fill="#5B5B5F" d="M24.773 43.417h.001v.379h-.001zM25.807 43.607h.305zM21.196 50.818h.511v-.544zM27.567 47.215h-.459v2.542l.459-.488zM27.76 49.064l.459-.488v-1.36l-.459-.001zM24.312 47.503l-.458.489v2.828h.458zM26.916 47.215l-.458-.001v3.236l.458-.488zM29.044 47.699l.452-.482h-.452zM23.01 48.889l-.459.488v1.442h.459zM28.411 47.216v1.156l.441-.469v-.687zM23.66 48.196l-.459.489v2.134l.459.001zM26.112 50.818l.154-.163v-3.441H25.807v3.607h.305l.003-.003zM24.585 50.82l.378.001v-3.608h-.379l-.08.086v3.521l.08.001zM22.358 49.582l-.459.488v.748h.459zM25.155 47.214h.459v3.607h-.459z"/><path fill="#5B5B5F" d="M24.773 47.024h.001v.379h-.001zM29.044 51.306l.452-.482h-.452zM24.963 54.428v-3.607h-.379l-.08.085v3.522h.08l.001-.001zM26.112 54.425l.154-.163v-3.441h-.154v.001l-.305-.001v3.607l.305.001.003-.004zM21.196 54.425h.511v-.544zM27.567 50.823l-.459-.001v2.542l.459-.488zM23.01 52.496l-.459.488v1.442h.459zM25.155 50.821h.459v3.607h-.459zM28.411 50.823v1.156l.441-.469v-.687zM22.358 53.188l-.459.489v.748l.459.001zM24.312 51.11l-.458.489v2.828h.458zM27.76 52.672l.459-.488v-1.361h-.459zM23.66 51.803l-.459.489v2.134l.459.001zM26.916 50.822h-.458v3.236l.458-.489z"/><path fill="#5B5B5F" d="M24.773 50.631h.001v.379h-.001zM24.963 58.035v-3.607h-.379l-.08.085v3.522h.081zM28.411 54.43v1.156l.441-.468v-.687zM26.916 54.429h-.458v3.236l.458-.489zM21.196 58.032h.511v-.544zM23.66 55.41l-.459.488v2.136h.459zM26.112 58.032l.154-.163v-3.44H25.807v3.606l.305.001.003-.004zM23.01 56.103l-.459.488v1.442h.459zM22.358 56.796l-.459.488v.748l.459.001zM27.76 56.279l.459-.488V54.43h-.459zM24.312 54.718l-.458.488v2.828l.458.001zM27.567 54.43l-.459-.001v2.543l.459-.489zM25.155 54.428h.459v3.607h-.459zM29.044 54.913l.452-.482h-.452z"/><path fill="#5B5B5F" d="M24.773 54.238h.001v.379h-.001zM25.155 54.428l.459.001v-.001zM28.411 58.037v1.156l.441-.468v-.687zM22.358 60.403l-.459.488v.749h.459zM23.66 59.018l-.459.487v2.136h.459zM26.112 61.639l.154-.163v-3.44H25.807v3.607h.305l.003-.004zM26.916 58.036h-.458v3.235l.458-.488zM24.312 58.325l-.458.488v2.828l.458.001zM24.963 61.642v-3.607h-.379l-.08.085v3.522h.081zM21.196 61.639l.511.001v-.544zM23.01 59.71l-.459.488v1.442l.459.001zM27.76 59.886l.459-.488v-1.361h-.459zM25.155 58.035h.459v3.607h-.459zM27.567 58.037l-.459-.001v2.543l.459-.488zM29.044 58.52l.452-.482h-.452z"/><path fill="#5B5B5F" d="M25.155 58.035l.459.001v-.001zM24.773 57.845h.001v.379h-.001zM25.155 61.643h.459v3.606h-.459zM26.916 61.644l-.458-.001v3.236l.458-.488zM23.854 62.42v2.829h.458v-3.317zM28.411 61.645V62.8l.441-.468v-.687zM26.112 65.247l.154-.164v-3.44H25.807v3.607h.305l.003-.003zM22.358 64.01l-.459.488v.749h.459zM23.66 62.625l-.459.488v2.135l.459.001zM29.044 62.127l.452-.481-.452-.001zM21.196 65.247h.511v-.544zM23.01 63.317l-.459.489v1.442h.459zM27.76 63.493l.459-.488v-1.36l-.459-.001zM24.963 65.249v-3.607h-.379l-.08.086v3.521h.081zM27.567 61.644h-.459v2.542l.459-.488z"/><path fill="#5B5B5F" d="M24.773 61.452h.001v.379h-.001zM26.112 68.854l.154-.164v-3.44H25.807v3.607h.305l.003-.003zM27.567 65.251l-.459-.001v2.543l.459-.488zM23.01 66.924l-.459.489v1.441l.459.001zM28.411 65.252v1.156l.441-.469v-.687zM25.155 65.25h.459v3.607h-.459zM23.854 66.027v2.828l.458.001v-3.317zM27.76 67.1l.459-.488v-1.361h-.459zM22.358 67.617l-.459.488v.749h.459zM26.916 65.25h-.458v3.236l.458-.488zM29.044 65.734l.452-.482h-.452zM21.196 68.854h.511v-.544zM23.66 66.231l-.459.489v2.135h.459zM24.963 68.856v-3.607h-.379l-.08.085v3.522h.08l.001-.001z"/><path fill="#5B5B5F" d="M24.773 65.059h.001v.379h-.001zM26.266 72.297v-3.44H25.807v3.607h.305l.003-.003h-.003zM23.854 69.634v2.829h.458v-3.317zM23.201 70.327v2.135h.459v-2.623zM24.584 68.856l-.08.085v3.522l.459.001v-3.608zM25.155 68.856h.459v3.607h-.459zM28.411 68.859v1.156l.441-.469v-.687zM27.567 68.858l-.459-.001V71.4l.459-.488zM22.358 71.225l-.459.488v.748l.459.001zM26.458 68.857v3.236l.458-.488v-2.748zM21.196 72.461h.511v-.544zM29.044 69.342l.452-.482-.452-.001zM27.76 70.708l.459-.489v-1.36l-.459-.001zM23.01 70.532l-.459.488v1.442h.459z"/><path fill="#5B5B5F" d="M24.773 68.667h.001v.379h-.001z"/><path fill="#070708" d="M28.411 7.534h.441V4.622l-.441.468zM30.364 3.928h.459v3.607h-.459zM26.916 7.533V6.68l-.458.488v.364zM29.713 3.928h.459v3.607h-.459zM26.266 7.373l-.151.159h.151zM29.5 3.931l-.456.486v3.117l.456.001v-.001h.021V3.928H29.5l-.004.003zM27.567 5.987l-.459.489v1.057h.459zM31.016 3.929v3.607h.012l.003-.004h-.004l.448-.475V3.929l-.447-.001-.001.001zM27.76 7.534h.459v-2.24l-.459.489zM33.428 4.979V3.93h-.459v1.536zM32.777 5.671V3.93h-.459v2.23zM32.125 3.929h-.458v2.923l.458-.488zM34.412 3.931h-.141v.15zM33.62 4.773l.459-.487v-.355h-.459z"/><path fill="#070708" d="M31.021 3.922h.001v.013h-.001zM26.916 6.676l-.458.489v.003l.458-.488zM27.76 5.783l.459-.489v-.003l-.459.488zM28.852 4.622v-.004l-.441.468v.004zM29.5 3.933l-.456.485-.003-.003.456-.485zM27.567 5.983l-.459.489v.004l.459-.489zM26.114 7.53l.154-.163.002.002-.154.164zM27.567 9.595l-.459.488v1.057h.459zM31.016 7.536v3.607h.012l.003-.004h-.004l.448-.475V7.536h-.448zM34.412 7.539h-.141v.149zM32.777 9.278V7.537h-.459v2.23zM29.5 7.539l-.456.485v3.118H29.521V7.535H29.5l-.004.004zM30.364 7.535h.459v3.607h-.459zM32.969 9.074l.459-.489V7.538l-.459-.001zM27.76 11.141h.459V8.902l-.459.488zM29.713 7.535h.459v3.607h-.459zM26.266 10.98l-.151.159h.151zM26.916 11.14v-.852l-.458.487v.365zM32.125 7.537l-.458-.001v2.923l.458-.488zM28.411 11.141l.441.001V8.229l-.441.468zM33.62 8.381l.459-.488v-.355h-.459zM27.567 9.591l-.459.488v.004l.459-.488z"/><path fill="#070708" d="M26.114 11.138l.154-.163.002.002-.154.163zM27.76 9.39l.459-.488v-.004l-.459.488zM26.916 10.283l-.458.488v.004l.458-.487zM28.852 8.229v-.004l-.441.468v.004zM29.499 7.541l-.457.485-.002-.002.456-.486zM31.021 7.53h.001v.013h-.001zM26.916 14.747v-.852l-.458.488v.364zM28.411 14.748l.441.001v-2.914l-.441.469zM26.266 14.587l-.151.16h.151zM33.62 11.988l.459-.488v-.355h-.459zM34.412 11.146h-.141v.149zM30.364 11.143h.459v3.606h-.459zM27.567 13.202l-.459.488v1.057l.459.001zM29.713 11.142h.459v3.607h-.459zM29.5 11.146l-.456.485v3.118H29.521v-3.607H29.5l-.004.004zM32.125 11.144l-.458-.001v2.923l.458-.488zM32.969 12.681l.459-.489v-1.047l-.459-.001zM32.777 12.885v-1.741h-.459v2.23zM31.016 11.143v3.607h.012l.003-.003h-.004l.448-.476v-3.128h-.448zM27.76 14.748h.459v-2.239l-.459.488z"/><path fill="#070708" d="M29.5 11.147l-.456.486-.003-.003.456-.485zM26.916 13.891l-.458.488v.004l.458-.488zM28.852 11.835v-.003l-.441.469v.003zM26.115 14.746l.153-.163.002.002-.153.163zM27.567 13.198l-.459.488v.004l.459-.488zM27.76 12.997l.459-.488v-.004l-.459.488zM31.021 11.137h.001v.013h-.001zM26.266 18.194l-.151.16h.151zM26.916 18.354v-.853l-.458.489v.364zM31.016 14.75v3.607h.012l.003-.003h-.004l.448-.476V14.75h-.448zM32.969 16.288l.459-.488v-1.048l-.459-.001zM34.412 14.752h-.141v.15zM33.62 15.595l.459-.488v-.355h-.459zM27.76 18.355h.459v-2.239l-.459.488zM32.125 14.751l-.458-.001v2.923l.458-.487zM30.364 14.75h.459v3.607h-.459zM29.713 14.749h.459v3.607h-.459zM28.411 18.355h.441v-2.912l-.441.469zM29.5 14.752l-.456.486v3.118H29.521v-3.607H29.5l-.004.003zM27.567 16.809l-.459.488v1.057l.459.001zM32.777 16.492v-1.741h-.459v2.23z"/><path fill="#070708" d="M27.76 16.604l.459-.488v-.004l-.459.489zM28.852 15.443v-.004l-.441.469v.004zM29.5 14.754l-.456.486-.003-.003.456-.486zM27.567 16.805l-.459.488v.004l.459-.488zM26.115 18.353l.153-.163.002.002-.153.163zM26.916 17.498l-.458.488v.004l.458-.489zM31.021 14.744h.001v.013h-.001zM30.172 14.75l-.459-.001zM30.364 18.356h.459v3.607h-.459zM32.125 18.358l-.458-.001v2.924l.458-.489zM33.62 19.202l.459-.488v-.355h-.459zM34.412 18.36l-.141-.001v.151zM27.76 21.962h.459v-2.239l-.459.488zM32.777 20.1v-1.742h-.459v2.23zM26.916 21.961v-.852l-.458.488v.364zM32.969 19.895l.459-.488v-1.048h-.459zM29.5 18.36l-.456.486v3.117H29.521v-3.607H29.5l-.004.004zM27.567 20.416l-.459.488v1.057l.459.001zM31.016 18.357v3.607h.012l.003-.003h-.004l.448-.476v-3.128h-.448zM29.713 18.356h.459v3.606h-.459zM26.266 21.801l-.151.16h.151zM28.411 21.962l.441.001V19.05l-.441.469z"/><path fill="#070708" d="M29.5 18.361l-.456.486-.003-.003.456-.486zM27.76 20.211l.459-.488v-.004l-.459.489zM26.115 21.96l.153-.163.002.002-.153.163zM27.567 20.412l-.459.488v.004l.459-.488zM26.916 21.104l-.458.489v.004l.458-.488zM28.852 19.05v-.004l-.441.469v.004zM31.021 18.351h.001v.013h-.001zM30.823 18.357l-.459-.001v.001zM32.125 21.965h-.458v2.923l.458-.488zM33.62 22.81l.459-.489v-.354l-.459-.001zM26.916 25.568v-.852l-.458.488v.364zM31.016 21.964v3.607h.012l.003-.003h-.004l.448-.476v-3.128h-.448zM27.76 25.569h.459v-2.238l-.459.487zM26.266 25.409l-.151.159h.151zM34.412 21.967h-.141v.15zM27.567 24.023l-.459.488v1.058h.459zM28.411 25.569l.441.001v-2.913l-.441.469zM29.5 21.967l-.456.486v3.117H29.521v-3.607H29.5l-.004.004zM30.364 21.964h.459v3.607h-.459zM32.777 23.707v-1.742h-.459v2.23zM29.713 21.964h.459v3.607h-.459zM32.969 23.502l.459-.488v-1.048h-.459z"/><path fill="#070708" d="M26.916 24.712l-.458.488v.004l.458-.488zM28.852 22.657v-.004l-.441.469v.004zM29.5 21.968l-.456.486-.003-.003.455-.486zM26.115 25.567l.153-.163.002.002-.153.163zM27.567 24.019l-.459.488v.004l.459-.488zM27.76 23.818l.459-.487v-.004l-.459.487zM31.021 21.958h.001v.013h-.001zM33.62 26.417l.459-.489v-.354l-.459-.001zM26.916 29.175v-.852l-.458.488v.364zM34.412 25.574h-.141v.15zM26.266 29.016l-.151.159h.151zM29.5 25.574l-.456.486v3.117H29.521V25.57H29.5l-.004.004zM32.777 27.314v-1.741l-.459-.001v2.23zM32.969 27.109l.459-.488v-1.048h-.459zM29.713 25.571h.459v3.607h-.459zM30.364 25.571h.459v3.607h-.459zM31.016 25.571v3.608h.012l.003-.004h-.004l.448-.475v-3.128l-.447-.001h-.001zM27.76 29.176l.459.001v-2.239l-.459.488zM28.411 29.177h.441v-2.913l-.441.469zM32.125 25.572h-.458v2.923l.458-.488zM27.567 27.63l-.459.489v1.057h.459z"/><path fill="#070708" d="M26.916 28.319l-.458.488v.004l.458-.488zM28.852 26.264v-.004l-.441.469v.004zM27.567 27.626l-.459.488v.005l.459-.489zM27.76 27.426l.459-.488v-.004l-.459.488zM26.115 29.174l.153-.163.002.002-.153.164zM29.497 25.576l-.456.485-.003-.002.457-.486zM31.027 25.571h.001-.012zM29.521 25.57H29.5zM27.567 31.237l-.459.489v1.057h.459zM27.76 32.783l.459.001v-2.24l-.459.489zM29.5 29.181l-.456.486v3.118H29.521v-3.608H29.5l-.004.004zM32.125 29.18l-.458-.001v2.923l.458-.488zM26.916 32.783v-.853l-.458.488v.364zM31.016 29.179v3.607h.012l.003-.004h-.004l.448-.475v-3.128h-.448zM28.411 32.784h.441v-2.912l-.441.468zM32.969 30.717l.459-.489V29.18h-.459zM29.713 29.178h.459v3.607h-.459zM32.777 30.921V29.18h-.459v2.23zM30.364 29.179h.459v3.606h-.459zM33.62 30.024l.459-.488v-.355h-.459zM26.266 32.623l-.151.159h.151zM34.412 29.181h-.141v.15z"/><path fill="#070708" d="M27.567 31.233l-.459.489v.004l.459-.489zM27.76 31.033l.459-.489v-.003l-.459.488zM26.916 31.926l-.458.489v.003l.458-.488zM29.497 29.183l-.456.485-.003-.003.456-.485zM26.113 32.778l.153-.162.002.002-.153.162zM28.852 29.872v-.005l-.441.469v.004zM29.521 29.177H29.5zM31.021 29.172h.001v.013h-.001zM34.412 32.788h-.141v.15zM29.713 32.785h.459v3.607h-.459zM26.266 36.23l-.151.159h.151zM33.62 33.631l.459-.488v-.355h-.459zM28.411 36.391l.441.001v-2.913l-.441.468zM32.125 32.787l-.458-.001v2.923l.458-.488zM27.76 36.391h.459v-2.239l-.459.488zM26.916 36.39v-.853l-.458.489v.363zM31.016 32.786v3.607h.012l.003-.004h-.004l.448-.475v-3.128h-.448zM30.364 32.786h.459v3.606h-.459zM32.777 34.528v-1.741h-.459v2.23zM32.969 34.324l.459-.489v-1.047l-.459-.001zM27.567 34.844l-.459.489v1.057h.459zM29.5 32.788l-.456.486v3.118H29.521v-3.607H29.5l-.004.003z"/><path fill="#070708" d="M27.567 34.84l-.459.489v.004l.459-.489zM26.916 35.533l-.458.488v.005l.458-.489zM28.852 33.479v-.004l-.441.468v.004zM29.5 32.79l-.456.485-.003-.003.456-.485zM27.76 34.64l.459-.488v-.004l-.459.488zM26.115 36.389l.153-.163.002.002-.153.163zM30.593 32.556h.001v.459h-.001zM31.021 32.78h.001v.013h-.001zM26.266 39.837l-.151.16h.151zM29.713 36.392h.459v3.606h-.459zM30.364 36.393h.459V40h-.459zM32.969 37.931l.459-.488v-1.048l-.459-.001zM32.125 36.394h-.458v2.922l.458-.488zM27.567 38.452l-.459.487v1.058l.459.001zM27.76 39.998h.459v-2.239l-.459.488zM34.412 36.396h-.141v.149zM32.777 38.135v-1.741h-.459v2.23zM33.62 37.238l.459-.488v-.355h-.459zM28.411 39.998l.441.001v-2.914l-.441.469zM29.5 36.396l-.456.485v3.118H29.521v-3.607H29.5l-.004.004zM31.016 36.393V40h.012l.003-.003h-.004l.448-.476v-3.128h-.448zM26.916 39.997v-.852l-.458.488v.364zM26.916 39.14l-.458.489v.004l.458-.488z"/><path fill="#070708" d="M27.567 38.448l-.459.488v.003l.459-.487zM27.76 38.247l.459-.488v-.004l-.459.488zM29.5 36.397l-.456.486-.003-.003.456-.485zM28.852 37.085v-.003l-.441.468v.004zM26.113 39.997l.153-.163.002.002-.153.163zM31.021 36.386h.001v.013h-.001zM26.266 43.444l-.151.16h.151zM33.62 40.845l.459-.488v-.355h-.459zM29.5 40.002l-.456.486v3.118H29.521v-3.607H29.5l-.004.003zM29.713 39.999h.459v3.607h-.459zM34.412 40.002h-.141v.15zM30.364 40h.459v3.607h-.459zM32.969 41.538l.459-.488v-1.048l-.459-.001zM27.567 42.059l-.459.488v1.057h.459zM27.76 43.604l.459.001v-2.239l-.459.488zM28.411 43.605h.441v-2.912l-.441.469zM32.125 40h-.458v2.923l.458-.487zM26.916 42.751l-.458.489v.364h.458zM32.777 41.743v-1.742h-.459v2.229zM31.016 40v3.607h.012l.003-.003h-.004l.448-.476V40h-.448z"/><path fill="#070708" d="M29.5 40.004l-.456.486-.003-.003.456-.485zM27.76 41.854l.459-.488v-.004l-.459.488zM27.567 42.055l-.459.488v.004l.459-.488zM26.115 43.604l.154-.163.002.002-.154.163zM26.916 42.748l-.458.488v.004l.458-.489zM28.852 40.693v-.004l-.441.469v.004zM31.021 39.994h.001v.013h-.001zM32.777 43.608h-.459v2.23l.459-.488zM28.411 47.212h.441V44.3l-.441.469zM32.969 45.145l.459-.488v-1.048h-.459zM27.567 45.666l-.459.488v1.057l.459.001zM26.115 47.21l.151.001v-.16zM29.521 47.213v-3.607H29.5l-.004.004h.004l-.456.485v3.118h.456zM33.62 43.609v.844l.459-.489v-.355zM29.713 43.606h.459v3.607h-.459zM26.916 46.358l-.458.489v.364h.458zM34.271 43.76l.141-.15h-.141zM30.364 43.607h.459v3.607h-.459zM31.027 47.21l.448-.475v-3.128h-.459v3.607h.012l.003-.004zM27.76 45.461v1.751h.459v-2.239zM32.125 43.608l-.458-.001v2.924l.458-.489zM26.114 47.206l.153-.162.002.002-.153.162z"/><path fill="#070708" d="M28.411 44.769l.441-.469v-.004l-.441.469zM27.567 45.662l-.459.488v.004l.459-.488zM29.497 43.61l-.457.486-.002-.003.456-.485zM27.76 45.461l.459-.488v-.004l-.459.489zM26.458 46.843v.004l.458-.489v-.003zM31.021 43.601h.001v.013h-.001zM26.115 50.818h.151v-.159zM30.364 47.214h.459v3.607h-.459zM27.76 49.068v1.751h.459v-2.238zM26.916 49.966l-.458.488v.364h.458zM31.027 50.818l.448-.476v-3.128h-.459v3.607h.012l.003-.003zM27.567 49.273l-.459.488v1.057l.459.001zM32.969 48.752l.459-.488v-1.048h-.459zM33.62 47.216v.844l.459-.489v-.354zM29.521 50.82v-3.607H29.5l-.004.004h.004l-.456.486v3.117l.456.001v-.001zM29.713 47.214h.459v3.607h-.459zM34.271 47.367l.141-.15h-.141zM28.411 50.82h.441v-2.913l-.441.468zM32.777 47.216l-.459-.001v2.23l.459-.488zM32.125 47.215l-.458-.001v2.924l.458-.489z"/><path fill="#070708" d="M29.5 47.218l-.456.486-.003-.003.456-.486zM27.567 49.269l-.459.488v.004l.459-.488zM26.115 50.818l.153-.163.003.002-.154.163zM27.76 49.068l.459-.487v-.005l-.459.488zM26.458 50.45v.004l.458-.488v-.004zM28.411 48.375l.441-.468v-.004l-.441.469zM31.016 47.214h.012zM30.364 50.822h.459v3.606h-.459zM28.411 54.427h.441v-2.913l-.441.469zM32.125 50.822h-.458v2.923l.458-.488zM27.567 52.88l-.459.488v1.058h.459zM26.115 54.425h.151v-.159zM29.713 50.821h.459v3.607h-.459zM29.521 54.427v-3.606H29.5l-.004.003h.004l-.456.486v3.117l.456.001v-.001zM32.969 52.359l.459-.488v-1.048h-.459zM32.777 50.823l-.459-.001v2.23l.459-.488zM26.916 53.573l-.458.488v.364l.458.001zM34.271 50.974l.141-.15h-.141zM27.76 52.676v1.75h.459v-2.238zM33.62 50.823v.844l.459-.489v-.354zM31.027 54.425l.448-.476v-3.127l-.447-.001-.001.001h-.011v3.607h.012l.003-.004zM26.458 54.058v.003l.458-.488v-.004zM28.411 51.983l.441-.469v-.004l-.441.469zM27.567 52.876l-.459.488v.004l.459-.488z"/><path fill="#070708" d="M29.5 50.825l-.456.486-.003-.003.456-.486zM26.115 54.426l.154-.164.002.002-.154.164zM27.76 52.676l.459-.488v-.004l-.459.488zM31.016 50.821h.012v.001h-.012zM32.777 54.43h-.459v2.229l.459-.488zM32.969 55.967l.459-.488v-1.048l-.459-.001zM28.411 58.034h.441v-2.913l-.441.469zM31.027 58.032l.448-.475v-3.128h-.459v3.607h.012l.003-.004zM27.76 56.283v1.75l.459.001v-2.24zM33.62 54.431v.843l.459-.488v-.355zM29.521 58.035v-3.607H29.5l-.004.003h.004l-.456.486v3.118h.456zM26.916 57.18l-.458.488v.364l.458.001zM32.125 54.429h-.458v2.923l.458-.488zM30.364 54.428h.459v3.607h-.459zM26.115 58.032h.151v-.159zM27.567 56.487l-.459.489v1.057h.459zM34.271 54.581l.141-.15h-.141zM29.713 54.428h.459v3.607h-.459zM26.458 57.665v.003l.458-.488v-.004z"/><path fill="#070708" d="M29.5 54.433l-.456.485-.003-.002.456-.486zM27.76 56.283l.459-.489v-.003l-.459.488zM27.567 56.483l-.459.489v.004l.459-.489zM28.411 55.59l.441-.469v-.003l-.441.468zM26.115 58.033l.154-.164.002.003-.154.163zM30.364 54.428l.459.001-.459-.001zM29.713 54.428h.459zM31.016 54.428h.012v.001h-.012zM26.916 60.787l-.458.488v.365h.458zM27.567 60.094l-.459.489v1.057h.459zM31.027 61.639l.448-.475v-3.128h-.459v3.607h.012l.003-.004zM26.115 61.639h.151v-.159zM30.364 58.035h.459v3.607h-.459zM34.271 58.188l.141-.15h-.141zM28.411 61.641l.441.001v-2.913l-.441.468zM32.969 59.574l.459-.489v-1.047l-.459-.001zM32.777 58.037h-.459v2.23l.459-.489zM29.713 58.035h.459v3.607h-.459zM33.62 58.038v.843l.459-.488v-.355zM29.521 61.642v-3.607H29.5l-.004.003h.004l-.456.486v3.118h.456zM27.76 59.89v1.75l.459.001v-2.24zM32.125 58.036h-.458v2.923l.458-.488z"/><path fill="#070708" d="M28.411 59.197l.441-.468v-.004l-.441.468zM26.115 61.64l.153-.163.003.002-.154.163zM26.458 61.271v.004l.458-.488v-.004zM29.5 58.04l-.456.485-.003-.002.456-.486zM27.567 60.091l-.459.488v.004l.459-.489zM27.76 59.89l.459-.489v-.003l-.459.488zM31.016 58.035h.012v.001h-.012zM29.713 58.035h.459zM30.364 58.035l.459.001-.459-.001zM29.521 65.249v-3.607H29.5l-.004.004h.004l-.456.485v3.118h.456zM27.567 63.702l-.459.488v1.057l.459.001zM33.62 61.645v.843l.459-.488v-.355zM26.916 64.394l-.458.489v.364h.458zM28.411 65.248l.441.001v-2.913l-.441.468zM31.027 65.247l.448-.476v-3.128h-.459v3.607h.012l.003-.003zM26.115 65.247h.151v-.16zM34.271 61.795l.141-.149-.141-.001zM32.125 61.644l-.458-.001v2.923l.458-.488zM32.777 61.644h-.459v2.23l.459-.489zM32.969 63.181l.459-.489v-1.047h-.459zM27.76 63.497v1.751h.459v-2.239zM29.713 61.642h.459v3.607h-.459zM30.364 61.643h.459v3.607h-.459z"/><path fill="#070708" d="M27.567 63.698l-.459.488v.004l.459-.488zM26.458 64.879v.004l.458-.489v-.003zM28.411 62.804l.441-.468v-.004l-.441.468zM29.496 61.646l-.456.486-.003-.003.456-.485zM26.116 65.248l.153-.163.002.002-.153.163zM27.76 63.497l.459-.488v-.004l-.459.488zM31.016 61.642h.012v.001h-.012zM34.271 65.402l.141-.15h-.141zM31.027 68.854l.448-.476V65.25h-.459v3.607h.012l.003-.003zM27.108 67.797v1.057h.459v-1.545zM28.219 66.616l-.459.488v1.751h.459zM33.62 65.252v.843l.459-.488v-.355zM26.916 68.001l-.458.489v.364h.458zM32.125 65.251l-.458-.001v2.923l.458-.488zM26.115 68.854h.151v-.16zM32.777 65.251h-.459v2.23l.459-.488zM32.969 66.788l.459-.488v-1.048l-.459-.001zM28.411 68.855h.441v-2.912l-.441.468zM29.713 65.249h.459v3.607h-.459zM30.364 65.25h.459v3.606h-.459zM29.521 68.855v-3.606H29.5l-.004.003h.004l-.456.486v3.117l.456.001v-.001z"/><path fill="#070708" d="M28.411 66.411l.441-.468v-.004l-.441.469zM26.116 68.855l.153-.163.002.002-.153.163zM27.76 67.1v.004l.459-.488v-.004zM26.458 68.486v.004l.458-.489v-.003zM29.5 65.254l-.456.486-.003-.003.456-.485zM27.567 67.305l-.459.488v.004l.459-.488zM31.016 65.25h.012v.001h-.012zM27.108 71.404v1.057l.459.001v-1.546zM28.219 70.223l-.459.488v1.751h.459zM28.411 72.462l.441.001V69.55l-.441.469zM33.62 68.859v.843l.459-.488v-.355zM29.713 68.857h.459v3.607h-.459zM30.364 68.857h.459v3.607h-.459zM34.271 69.01l.141-.15h-.141zM26.115 72.461h.151v-.16zM29.5 68.856l-.004.004h.004l-.456.486v3.117h.477v-3.607zM31.475 71.985v-3.128h-.459v3.607h.011l.004-.003h-.004zM32.777 68.858h-.459v2.23l.459-.488zM31.667 68.857v2.924l.458-.489v-2.434zM32.969 70.395l.459-.488v-1.048l-.459-.001zM26.916 71.609l-.458.488v.364h.458z"/><path fill="#070708" d="M27.567 70.912l-.459.488v.004l.459-.488zM27.76 70.708v.003l.459-.488v-.004zM26.458 72.093v.004l.458-.488v-.004zM26.113 72.463l.153-.164.003.002-.154.164zM29.5 68.861l-.456.486-.003-.003.456-.485zM28.411 70.015v.004l.441-.469v-.004zM31.016 68.857h.012v.001h-.012zM29.51 68.846h.001v.021h-.001z"/><path opacity=".5" fill="#070708" d="M36.684 6.749v-2.82h-.459v3.307zM31.475 7.061l-.444.471h.444zM38.178 5.158l.459-.488v-.739l-.459-.001zM37.985 5.363V3.93h-.458v1.921zM32.777 5.675l-.459.488v1.37l.459.001zM39.331 3.931h-.502v.534zM32.969 7.534h.459V4.982l-.459.489zM34.922 3.928h.459v3.607h-.459zM34.416 3.931l-.145.154v3.45h.145v-.001l.314.001V3.928h-.314l-.004.003zM35.573 3.929v3.607h.37l.089-.095V3.929l-.089-.001v.001zM37.335 6.055V3.93l-.459-.001v2.614zM33.62 7.534h.459V4.29l-.459.488zM32.125 7.533V6.368l-.458.488v.677z"/><path opacity=".5" fill="#070708" d="M35.758 3.744h.001v.37h-.001zM34.416 3.93l-.145.155-.003-.003.145-.154zM31.028 7.53l.447-.476.003.003-.447.476zM32.125 6.364l-.458.488v.004l.458-.488zM34.079 4.29v-.004l-.459.487v.005zM32.777 5.671l-.459.489v.003l.459-.488zM32.969 5.471l.459-.489v-.003l-.459.487zM38.178 8.766l.459-.489v-.739h-.459zM32.777 9.282l-.459.489v1.369l.459.001zM37.335 9.663V7.537l-.459-.001v2.615zM36.684 10.355V7.536h-.459v3.308zM35.573 7.536v3.607h.37l.089-.095V7.536h-.089zM34.416 7.539l-.145.153v3.45H34.73V7.535h-.314l-.004.004zM34.922 7.535h.459v3.606h-.459zM32.125 11.14V9.975l-.458.488v.677zM39.331 7.539l-.502-.001v.534zM37.527 9.458l.458-.488V7.537h-.458zM32.969 11.141h.459V8.589l-.459.489zM31.475 10.667l-.444.472.444.001zM33.62 11.141l.459.001V7.896l-.459.489z"/><path opacity=".5" fill="#070708" d="M34.079 7.896v-.003l-.459.488v.004zM32.969 9.078l.459-.489v-.004l-.459.489zM34.417 7.542l-.145.153-.002-.003.144-.153zM32.125 9.971l-.458.488v.004l.458-.488zM32.777 9.278l-.459.489v.004l.459-.489zM31.03 11.139l.447-.476.003.003-.448.475zM35.573 11.143v3.607h.37l.089-.095v-3.512h-.089zM37.335 13.27v-2.126h-.459v2.614zM32.125 14.748v-1.166l-.458.488v.677zM34.922 11.142h.459v3.607h-.459zM37.527 13.065l.458-.488v-1.433h-.458zM32.969 14.748h.459v-2.552l-.459.489zM36.684 13.962v-2.818l-.459-.001v3.308zM34.416 11.146l-.145.153v3.45H34.73v-3.607h-.314l-.004.004zM39.331 11.146l-.502-.001v.535zM32.777 12.889l-.459.488v1.371h.459zM38.178 12.373l.459-.489v-.739h-.459zM33.62 14.749h.459v-3.245l-.459.488zM31.475 14.274l-.444.473h.444z"/><path opacity=".5" fill="#070708" d="M32.125 13.578l-.458.488v.004l.458-.488zM31.029 14.745l.447-.476.003.003-.447.476zM34.079 11.504V11.5l-.459.488v.004zM32.777 12.885l-.459.489v.003l.459-.488zM34.416 11.145l-.144.154-.003-.003.144-.153zM32.969 12.685l.459-.489v-.004l-.459.489zM32.777 16.497l-.459.488v1.369l.459.001zM34.922 14.75h.459v3.607h-.459zM32.969 18.355h.459v-2.551l-.459.488zM38.178 15.979l.459-.488v-.739l-.459-.001zM34.416 14.752l-.145.154v3.45H34.73V14.75l-.314-.001-.004.003zM36.684 17.569V14.75h-.459v3.308zM37.527 16.672l.458-.488v-1.433h-.458zM33.62 18.355l.459.001v-3.245l-.459.488zM35.573 14.75v3.607h.37l.089-.095V14.75h-.089zM39.331 14.752h-.502v.535zM31.475 17.882l-.444.472h.444zM36.876 17.365l.459-.488v-2.126h-.459zM32.125 18.354v-1.165l-.458.488v.677z"/><path opacity=".5" fill="#070708" d="M34.416 14.752l-.144.154-.003-.003.144-.154zM32.125 17.186l-.458.487v.004l.458-.488zM32.777 16.492l-.459.489v.004l.459-.488zM31.029 18.352l.447-.476.003.003-.447.476zM34.079 15.111v-.004l-.459.488v.004zM32.969 16.292l.459-.488V15.8l-.459.488zM32.777 20.104l-.459.488v1.369l.459.001zM32.125 21.961v-1.165l-.458.488v.677zM32.969 21.962h.459v-2.551l-.459.488zM37.527 20.279l.458-.487v-1.433l-.458-.001zM31.475 21.489l-.444.472h.444zM36.684 21.177v-2.82h-.459v3.308zM34.416 18.36l-.145.154v3.449H34.73v-3.607h-.314l-.004.004zM39.331 18.36l-.502-.001v.535zM34.922 18.357h.459v3.607h-.459zM36.876 20.972l.459-.488v-2.126h-.459zM35.573 18.357v3.607h.37l.089-.094v-3.513h-.089zM38.178 19.587l.459-.488v-.74h-.459zM33.62 21.963h.459v-3.245l-.459.488z"/><path opacity=".5" fill="#070708" d="M34.079 18.718v-.004l-.459.488v.004zM32.777 20.1l-.459.488v.004l.459-.488zM34.416 18.36l-.145.153-.003-.003.145-.154zM31.027 21.96l.447-.476.003.003-.447.476zM32.125 20.792l-.458.489v.003l.458-.488zM32.969 19.899l.459-.488v-.004l-.459.488zM35.381 18.357l-.459-.001zM35.573 21.964v3.607h.37l.089-.094v-3.513h-.089zM37.527 23.887l.458-.489v-1.432l-.458-.001zM34.922 21.964h.459v3.606h-.459zM33.62 25.57h.459v-3.245l-.459.488zM32.777 23.71l-.459.489v1.37h.459zM39.331 21.967l-.502-.001v.535zM32.125 25.569v-1.165l-.458.488v.676zM38.178 23.194l.459-.488v-.74h-.459zM36.684 24.784v-2.819l-.459-.001v3.308zM34.416 21.967l-.145.154v3.449H34.73v-3.607h-.314l-.004.004zM36.876 24.58l.459-.489v-2.126h-.459zM32.969 25.569l.459.001v-2.552l-.459.488zM31.475 25.096l-.444.472h.444z"/><path opacity=".5" fill="#070708" d="M34.079 22.325v-.004l-.459.489v.003zM32.969 23.506l.459-.488v-.004l-.459.488zM34.416 21.966l-.145.154-.002-.003.144-.154zM32.125 24.4l-.458.488v.004l.458-.488zM32.777 23.707l-.459.488v.004l.459-.489zM31.029 25.566l.447-.476.003.003-.447.476zM34.922 25.571h.459v3.607h-.459zM36.876 28.187l.459-.489v-2.126h-.459zM33.62 29.177h.459v-3.245l-.459.488zM38.178 26.801l.459-.488v-.74h-.459zM32.125 29.176v-1.165l-.458.488v.676zM36.225 28.879l.459-.488v-2.819l-.459-.001zM34.416 25.574l-.145.154v3.449H34.73v-3.606l-.314-.001-.004.004zM32.969 29.176l.459.001v-2.552l-.459.488zM31.475 28.703l-.444.472h.444zM35.573 25.571v3.607l.37.001.089-.096v-3.512h-.089zM37.527 27.494l.458-.489v-1.432h-.458zM32.777 27.318l-.459.488v1.37h.459zM39.331 25.574l-.502-.001v.535z"/><path opacity=".5" fill="#070708" d="M32.969 27.113l.459-.488v-.004l-.459.488zM34.416 25.578l-.145.153-.003-.002.145-.154zM32.777 27.314l-.459.488v.004l.459-.488zM31.029 29.175l.447-.476.003.003-.447.475zM34.079 25.932v-.004l-.459.489v.003zM32.125 28.007l-.458.488v.004l.458-.488zM35.943 25.571h-.37zM36.225 32.486l.459-.488v-2.819h-.459zM32.969 32.784h.459v-2.552l-.459.488zM31.475 32.311l-.444.471.444.001zM39.331 29.181h-.502v.534zM34.416 29.181l-.145.154v3.45H34.73v-3.607l-.314-.001-.004.004zM36.876 31.793l.459-.487V29.18l-.459-.001zM33.62 32.784l.459.001V29.54l-.459.487zM34.922 29.178h.459v3.607h-.459zM38.178 30.408l.459-.488v-.739l-.459-.001zM37.527 31.101l.458-.488V29.18h-.458zM32.777 30.925l-.459.489v1.369h.459zM32.125 32.783v-1.165l-.458.488v.677zM35.573 29.179v3.606l.37.001.089-.095v-3.512h-.089z"/><path opacity=".5" fill="#070708" d="M34.417 29.18l-.145.154-.003-.002.145-.154zM32.777 30.921l-.459.489v.004l.459-.489zM32.125 31.614l-.458.488v.004l.458-.488zM31.029 32.782l.447-.476.003.003-.447.475zM32.969 30.72l.459-.488v-.004l-.459.489zM34.079 29.54v-.004l-.459.488v.003zM31.475 35.917l-.444.472.444.001zM32.969 36.391h.459v-2.552l-.459.489zM36.225 36.093l.459-.488v-2.819h-.459zM34.922 32.785h.459v3.606h-.459zM32.777 34.532l-.459.489v1.369l.459.001zM37.527 34.708l.458-.488v-1.432l-.458-.001zM39.331 32.788h-.502v.535zM33.62 36.392h.459v-3.246l-.459.489zM38.178 34.015l.459-.488v-.739h-.459zM34.416 32.788l-.145.154v3.45H34.73v-3.607h-.314l-.004.003zM35.573 32.786v3.607h.37l.089-.095v-3.512h-.089zM32.125 36.39v-1.165l-.458.488v.677zM36.876 35.401l.459-.488v-2.126l-.459-.001z"/><path opacity=".5" fill="#070708" d="M34.079 33.146v-.003l-.459.488v.004zM31.029 36.387l.447-.475.003.002-.447.476zM32.125 35.221l-.458.488v.004l.458-.488zM32.777 34.528l-.459.489v.004l.459-.489zM34.418 32.79l-.144.154-.003-.003.144-.154zM32.969 34.328l.459-.489v-.004l-.459.489zM31.475 39.525l-.444.472h.444zM36.225 39.701l.459-.489v-2.818l-.459-.001zM32.969 39.998h.459v-2.552l-.459.489zM32.125 39.997v-1.165l-.458.488v.677zM33.62 39.999h.459v-3.246l-.459.489zM32.777 38.139l-.459.488v1.37l.459.001zM38.178 37.623l.459-.489v-.739h-.459zM34.922 36.392h.459v3.607h-.459zM37.527 38.315l.458-.488v-1.432l-.458-.001zM39.331 36.396l-.502-.001v.535zM35.943 36.393h-.37V40h.37l.089-.095v-3.512h-.089zM34.416 36.396l-.145.153v3.45H34.73v-3.607h-.314l-.004.004zM36.876 39.008l.459-.488v-2.126h-.459z"/><path opacity=".5" fill="#070708" d="M34.079 36.753v-.003l-.459.488v.004zM32.777 38.135l-.459.489v.003l.459-.488zM32.125 38.828l-.458.488v.004l.458-.488zM31.03 39.995l.447-.475.003.002-.448.476zM32.969 37.935l.459-.489v-.003l-.459.488zM34.417 36.395l-.144.154-.003-.003.144-.154zM36.225 43.308l.459-.489V40h-.459zM32.969 43.605h.459v-2.551l-.459.488zM32.125 43.604v-1.165l-.458.488v.677zM33.62 43.605l.459.001v-3.245l-.459.488zM39.331 40.002h-.502v.535zM34.922 40h.459v3.606h-.459zM38.178 41.229l.459-.488v-.739l-.459-.001zM36.876 42.615l.459-.489v-2.125L36.876 40zM37.527 41.922l.458-.488v-1.433h-.458zM35.943 40h-.37v3.607h.37l.089-.095V40h-.089zM34.416 40.002l-.145.154v3.45H34.73v-3.607h-.314l-.004.003zM31.475 43.132l-.444.472h.444zM32.777 41.746l-.459.489v1.369l.459.001z"/><path opacity=".5" fill="#070708" d="M32.125 42.436l-.458.487v.004l.458-.488zM32.777 41.743l-.459.487v.005l.459-.489zM34.079 40.361v-.004l-.459.488v.004zM32.969 41.542l.459-.488v-.004l-.459.488zM34.417 40.002l-.144.154-.003-.003.144-.154zM31.03 43.602l.447-.476.003.003-.447.476zM32.969 45.149v2.063h.459v-2.551zM31.031 47.21l.444.001v-.472zM32.125 46.046l-.458.489v.676h.458zM34.73 47.213v-3.607h-.314l-.004.004h.004l-.145.153v3.45h.145zM37.527 45.529l.458-.487v-1.433l-.458-.001zM34.922 43.607h.459v3.607h-.459zM38.178 44.836l.459-.487v-.74h-.459zM39.331 43.61l-.502-.001v.535zM35.943 43.607h-.37v3.607h.37l.089-.095v-3.512h-.089zM33.62 47.212l.459.001v-3.245l-.459.488zM36.225 46.915l.459-.488v-2.819l-.459-.001zM36.876 46.222l.459-.488v-2.126h-.459zM32.777 45.354l-.459.488v1.37h.459z"/><path opacity=".5" fill="#070708" d="M32.969 45.149l.459-.488v-.004l-.459.488zM32.777 45.35l-.459.488v.004l.459-.488zM34.415 43.614l-.145.154-.003-.003.145-.154zM33.62 44.456l.459-.488v-.004l-.459.489zM31.667 46.531v.004l.458-.489v-.004zM31.029 47.211l.447-.475.003.003-.447.475zM35.943 43.607h-.37zM32.777 48.961l-.459.488v1.37h.459zM37.527 49.136l.458-.488v-1.432l-.458-.001zM36.225 50.522l.459-.488v-2.819l-.459-.001zM36.876 49.829l.459-.488v-2.126h-.459zM39.331 47.217h-.502v.534zM35.943 47.214h-.37v3.607h.37l.089-.094v-3.513h-.089zM38.178 48.444l.459-.488v-.74h-.459zM34.922 47.214h.459v3.607h-.459zM32.969 48.756v2.063l.459.001v-2.552zM33.62 50.82h.459v-3.245l-.459.488zM34.73 50.82v-3.607h-.314l-.004.004h.004l-.145.154v3.449l.145.001v-.001zM31.031 50.818h.444v-.472zM32.125 49.653l-.458.489v.676h.458z"/><path opacity=".5" fill="#070708" d="M32.969 48.756l.459-.488v-.004l-.459.488zM34.417 47.216l-.144.153-.003-.002.144-.154zM31.667 50.138v.004l.458-.489v-.004zM31.03 50.816l.447-.475.003.003-.447.475zM33.62 48.063l.459-.488v-.004l-.459.489zM32.777 48.957l-.459.488v.004l.459-.488zM35.943 47.214h-.37zM32.125 53.261l-.458.488v.676l.458.001zM36.876 53.437l.459-.489v-2.125l-.459-.001zM39.331 50.824h-.502v.534zM38.178 52.051l.459-.488v-.74h-.459zM34.73 54.428v-3.607h-.314l-.004.003h.004l-.145.154v3.449l.145.001v-.001zM32.777 52.568l-.459.488v1.37h.459zM31.031 54.425h.444v-.472zM37.527 52.744l.458-.489v-1.432h-.458zM32.969 52.363v2.063l.459.001v-2.552zM36.225 54.129l.459-.488v-2.819h-.459zM33.62 54.427h.459v-3.245l-.459.489zM36.032 50.821h-.089v.001l-.37-.001v3.607l.37.001.089-.095zM34.922 50.821h.459v3.607h-.459z"/><path opacity=".5" fill="#070708" d="M31.03 54.423l.447-.475.003.002-.447.476zM32.777 52.564l-.459.488v.004l.459-.488zM34.418 50.826l-.144.154-.003-.003.144-.154zM32.969 52.363l.459-.488v-.004l-.459.488zM33.62 51.671l.459-.489v-.004l-.459.489zM31.667 53.745v.004l.458-.488v-.004zM34.73 58.035v-3.607h-.314l-.004.003h.004l-.145.154v3.45h.145zM32.125 56.868l-.458.488v.676l.458.001zM37.527 56.351l.458-.488V54.43h-.458zM33.62 58.034l.459.001V54.79l-.459.488zM31.031 58.032h.444v-.471zM32.777 56.175l-.459.488v1.37h.459zM34.922 54.428h.459v3.607h-.459zM38.178 55.658l.459-.488v-.739l-.459-.001zM32.969 55.971v2.063h.459v-2.552zM39.331 54.431h-.502v.534zM36.032 54.429H35.573v3.606l.37.001.089-.095zM36.225 57.736l.459-.488v-2.819h-.459zM36.876 57.044l.459-.489V54.43l-.459-.001zM31.667 57.352v.004l.458-.488v-.004z"/><path opacity=".5" fill="#070708" d="M32.969 55.971l.459-.489v-.003l-.459.488zM34.418 54.43l-.145.154-.003-.003.145-.154zM31.029 58.033l.447-.476.003.003-.448.476zM33.62 55.278l.459-.488v-.004l-.459.488zM32.777 56.171l-.459.488v.004l.459-.488zM34.922 54.428h.459-.459zM36.876 60.651l.459-.488v-2.126l-.459-.001zM32.777 59.782l-.459.489v1.369l.459.001zM36.225 61.344l.459-.489v-2.819h-.459zM32.125 60.475l-.458.488v.677h.458zM31.031 61.639l.444.001v-.473zM37.527 59.958l.458-.488v-1.433h-.458zM34.922 58.035h.459v3.607h-.459zM33.62 61.641l.459.001v-3.246l-.459.489zM39.331 58.038h-.502v.534zM32.969 59.578v2.063h.459v-2.552zM36.032 58.036H35.573v3.607h.37l.089-.095zM34.73 61.642v-3.607h-.314l-.004.003h.004l-.145.154v3.45h.145zM38.178 59.265l.459-.488v-.739l-.459-.001z"/><path opacity=".5" fill="#070708" d="M31.03 61.638l.447-.476.003.003-.447.475zM34.418 58.037l-.145.154-.003-.003.145-.154zM31.667 60.959v.004l.458-.488v-.004zM33.62 58.885l.459-.489v-.003l-.459.488zM32.777 59.778l-.459.489v.004l.459-.489zM32.969 59.578l.459-.489v-.004l-.459.489zM34.922 58.035h.459-.459zM32.125 64.082l-.458.488v.677h.458zM37.527 63.565l.458-.488v-1.432l-.458-.001zM39.331 61.646l-.502-.001v.535zM32.777 63.389l-.459.488v1.371h.459zM31.031 65.247h.444v-.473zM36.876 64.258l.459-.488v-2.126h-.459zM36.684 61.643h-.459v3.308l.459-.489zM38.178 62.873l.459-.489v-.739h-.459zM34.922 61.643h.459v3.606h-.459zM33.62 65.249h.459v-3.245l-.459.488zM36.032 61.643H35.573v3.607h.37l.089-.095zM32.969 63.185v2.063l.459.001v-2.552zM34.73 65.249v-3.607h-.314l-.004.004h.004l-.145.153v3.45h.145z"/><path opacity=".5" fill="#070708" d="M31.03 65.246l.448-.476.003.003-.448.475zM31.667 64.566v.004l.458-.488v-.004zM32.777 63.385l-.459.489v.003l.459-.488zM32.969 63.185l.459-.488v-.005l-.459.489zM34.418 61.645l-.144.153-.003-.002.144-.154zM33.62 62.492l.459-.488V62l-.459.488zM32.969 66.792v2.063h.459v-2.551zM36.032 65.25H35.573v3.607h.37l.089-.094zM36.225 65.25v3.308l.459-.488v-2.82zM37.527 67.172l.458-.488v-1.433h-.458zM39.331 65.252h-.502v.535zM38.178 66.479l.459-.488v-.739h-.459zM36.876 67.865l.459-.488v-2.126l-.459-.001zM32.318 68.854l.459.001v-1.858l-.459.487zM34.73 68.856v-3.607h-.314l-.004.003h.004l-.145.154v3.45h.145v-.001zM34.922 65.25h.459v3.607h-.459zM31.031 68.854h.444v-.472zM32.125 67.689l-.458.488v.677h.458zM33.62 68.855l.459.001v-3.245l-.459.488z"/><path opacity=".5" fill="#070708" d="M32.969 66.792l.459-.488V66.3l-.459.488zM31.667 68.173v.004l.458-.488v-.004zM31.03 68.853l.448-.476.003.003-.447.475zM32.318 67.481v.003l.459-.487v-.004zM33.62 66.099l.459-.488v-.004l-.459.488zM34.418 65.252l-.144.153-.003-.002.144-.154zM34.416 68.856l-.004.004h.004l-.145.154v3.449l.459.001v-3.608zM32.969 70.399v2.063h.459v-2.551zM32.318 72.462h.459v-1.858l-.459.488zM39.331 68.86l-.502-.001v.535zM37.527 70.779l.458-.488v-1.433h-.458zM32.125 71.296l-.458.489v.676l.458.001zM35.943 68.857h-.37v3.607h.37l.089-.094v-3.513zM37.335 68.858l-.459-.001v2.615l.459-.488zM38.178 70.087l.459-.489v-.739h-.459zM33.62 72.463h.459v-3.245l-.459.488zM34.922 68.856h.459v3.607h-.459zM36.225 68.857v3.308l.459-.488v-2.82zM31.031 72.461h.444v-.472z"/><path opacity=".5" fill="#070708" d="M32.969 70.399l.459-.488v-.004l-.459.488zM31.667 71.781v.004l.458-.489v-.004zM31.03 72.46l.448-.476.003.003-.448.476zM34.418 68.858l-.144.154-.003-.002.144-.154zM33.62 69.702v.004l.459-.488v-.004zM32.318 71.088v.004l.459-.488V70.6zM34.573 68.699h.001v.314h-.001z"/><path fill="#5B5B5F" d="M23.854 73.242v2.828l.458.001v-3.318zM24.585 72.463l-.081.086v3.522h.459v-3.607zM23.201 73.935v2.135h.459v-2.624zM28.411 72.466v1.157l.441-.47v-.686zM26.266 75.905v-3.44l-.459-.001v3.608h.305l.003-.004h-.003zM22.551 74.627v1.442h.459v-1.93zM25.155 72.464h.459v3.607h-.459zM21.196 76.068l.511.001v-.544zM26.458 72.465v3.236l.458-.489v-2.747zM22.358 74.832l-.459.488v.749h.459zM29.044 72.949l.452-.482h-.452zM27.567 72.466l-.459-.001v2.543l.459-.488zM27.76 74.315l.459-.488v-1.361h-.459zM26.139 79.648h-4.916l-.027.028 4.916.004.003-.004h-.003z"/><path fill="#5B5B5F" d="M26.266 79.513v-3.441h-.459v3.565h-.193v-3.565h-.459v3.565h-.192v-3.566h-.378l-.081.086v3.48h-.192v-3.276l-.458.489v2.787h-.194v-2.583l-.459.488v2.095h-.191v-1.89l-.459.488v1.402h-.193v-1.198l-.459.489v.709h-.192v-.505l-.484.516h4.916zM26.916 76.073l-.458-.001v3.236l.458-.488zM28.411 76.074v1.156l.441-.469v-.687zM27.76 76.074v1.848l.459-.487v-1.361zM29.044 76.557l.452-.482h-.452zM27.108 76.073v2.542l.459-.488v-2.053z"/><path fill="#070708" d="M30.364 72.464h.459v3.607h-.459zM27.76 74.319v1.75l.459.001v-2.239zM26.115 76.068h.151v-.159zM26.916 75.216l-.458.489v.363l.458.001zM33.62 72.467v.843l.459-.488v-.355zM32.777 72.466l-.459-.001v2.231l.459-.489zM32.969 74.003l.459-.488v-1.049h-.459zM31.667 72.465v2.923l.458-.488v-2.435zM29.713 72.464h.459v3.607h-.459zM27.567 74.523l-.459.489v1.057h.459zM28.411 76.07h.441v-2.912l-.441.468zM31.475 75.593v-3.128h-.459v3.607h.011l.004-.004h-.004zM34.271 72.617l.141-.15h-.141zM29.5 72.463l-.004.004h.004l-.456.486v3.117l.477.001v-3.607z"/><path fill="#070708" d="M27.567 74.52l-.459.488v.004l.459-.489zM27.76 74.319l.459-.488v-.004l-.459.488zM28.411 73.623v.003l.441-.468v-.005zM26.458 75.701v.004l.458-.489v-.004zM26.115 76.07l.154-.164.002.003-.154.163zM29.5 72.47l-.456.485-.003-.003.456-.486zM31.054 79.648h-4.911l-.028.028 4.912.004.004-.004h-.004zM32.969 76.074v1.536l.459-.488v-1.048zM33.62 76.074v.843l.459-.488v-.354zM34.271 76.225l.141-.15h-.141zM32.318 76.073v2.23l.459-.488v-1.741zM31.475 76.073l-.459-.001v3.565h-.193v-3.565h-.459v3.565h-.192v-3.565l-.459-.001v3.566h-.192v-3.566H29.5l-.004.004h.004l-.456.486v3.076h-.192v-2.872l-.441.469v2.403h-.192v-2.199l-.459.489v1.71h-.193v-1.506l-.459.488v1.018h-.192v-.813l-.458.488v.325h-.192v-.12l-.123.131h4.911l.421-.447zM31.667 76.073v2.923l.458-.488v-2.435zM26.115 79.67l.026-.028.002.002-.026.028z"/><path fill="#070708" d="M27.108 78.615v.004l.459-.488v-.004zM29.495 76.075l-.456.486-.003-.003.457-.485zM27.76 77.922v.005l.459-.489v-.003zM28.411 77.23v.004l.441-.469v-.004zM26.458 79.308v.004l.458-.488v-.004zM26.137 79.649l.127-.136.003.003-.127.136z"/><path opacity=".5" fill="#070708" d="M38.178 73.694l.459-.488v-.739l-.459-.001zM36.876 72.465v2.615l.459-.488v-2.126zM32.969 74.006v2.064h.459v-2.551zM39.331 72.467h-.502v.534zM36.684 72.465h-.459v3.307l.459-.488zM35.573 72.464v3.608h.37l.089-.095v-3.512zM34.416 72.463l-.004.004h.004l-.145.154v3.45h.459v-3.607zM33.62 76.07l.459.001v-3.245l-.459.488zM37.527 72.466v1.921l.458-.488v-1.433zM32.318 74.7v1.369h.459v-1.858zM32.125 74.904l-.458.488v.677h.458zM31.031 76.068l.444.001v-.472zM34.922 72.464h.459v3.607h-.459z"/><path opacity=".5" fill="#070708" d="M34.419 72.466l-.145.154-.003-.003.145-.154zM33.62 73.31v.004l.459-.488v-.004zM31.031 76.068l.447-.476.003.003-.447.475zM32.969 74.006l.459-.487v-.004l-.459.488zM31.667 75.388v.004l.458-.488V74.9zM32.318 74.696v.004l.459-.489v-.004zM31.031 79.676l4.912.004.03-.032h-4.915zM36.876 76.073v2.615l.459-.489v-2.126zM36.225 76.072v3.308l.459-.488v-2.819zM38.178 76.074v1.228l.459-.489v-.739zM37.527 76.074v1.921l.458-.489v-1.432zM36.032 76.072h-.459v3.565h-.192v-3.565h-.459v3.565h-.192v-3.566h-.314l-.004.004h.004l-.145.154v3.408h-.192v-3.204l-.459.488v2.716h-.192v-2.511l-.459.488v2.023h-.192v-1.818l-.459.488v1.33h-.193v-1.125l-.458.488v.637h-.192v-.433l-.417.444h4.915l.059-.063zM39.331 76.075l-.502-.001v.535z"/><path opacity=".5" fill="#070708" d="M31.054 79.648l-.027.028h.004l.027-.028zM32.318 78.303v.004l.459-.488v-.004zM33.62 76.917v.004l.459-.488v-.004zM32.969 77.61v.004l.459-.488v-.004zM31.667 78.996V79l.458-.488v-.004zM31.262 79.122h.004v.609h-.004zM34.414 76.081l-.145.153-.003-.002.145-.154z"/></g></svg>