<svg xmlns="http://www.w3.org/2000/svg" width="265.948" height="336.412"><path fill="none" d="M48.744 110.555c.05.725.067 1.834.064 3.238.004-1.406-.014-2.515-.064-3.238z"/><path fill="none" d="M265.948 138.012c-.864-13.883-2.9-44.824-2.9-44.824-.617-17.57-6.016-31.993-12.726-42.513-9.039-14.16-19.961-21.41-19.961-21.41-11.137-6.51-17.061-7.08-28.352-9.98-8.791-2.258-20.019-8.272-24.562-10.827-.454-1.063-2.373-1.865-3.297-2.735-1.557-1.467-1.426-2.082-3.867-2.718-4.528-1.18-12.605-2.255-17.936-2.22-2.642.017-3.538-.417-6.185-.405-2.203.009-4.411.025-6.611.023-2.364-.002-3.588-.359-6.063-.401H132.329c-4.062.042-7.631.409-12.149.385-6.569-.035-18.069 1.026-24.201 2.544-2.664.66-2.349.991-3.987 2.603-1.003.986-3.233 1.959-3.553 3.109-12.867 7.9-39.001 15.271-39.001 15.271-11.568 3.332-13.883 5.646-13.883 5.646l.006.022c-6.675 4.612-12.716 11.563-12.716 11.563C3.609 59.359 2.313 101.733 2.313 101.733 2.021 118.516 0 137.735 0 137.735c18.51 9.98 46.275 9.842 46.275 9.842 1.296-.432 1.157-3.039 1.157-3.039 0-7.234 1.157-12.586 1.157-12.586.03-9.873.447-18.666.154-21.396.05.723.067 1.832.064 3.238.003-1.404-.015-2.514-.064-3.238-.063-.785-.154-1.141-.293-.879l1.444-4.75.422 1.264c2.606 9.549 2.175 27.041 2.175 27.041.586 32.826 1.589 45.844 1.589 45.844.139 9.842 1.743 17.647 1.743 17.647 2.313 34.137.293 61.902.293 61.902-3.332 35.139-9.456 64.154-9.842 65.219l-.386 1.064c9.256 7.713 68.644 10.797 68.644 10.797 3.955.331 8.063.535 12.259.635v-13.75l1.941.002v11.781l-1.693 1.78-.179.188c39.77.933 87.366-7.577 87.366-7.577 4.442-1.357 5.6-3.855 5.6-3.855-15.811-86.768-9.456-128.23-9.456-128.23 1.743-10.799 3.085-50.133 3.085-50.133.386-4.828.201-10.227.201-10.227-1.126-19.146 2.321-30.613 2.505-31.209 2.06 4.027 1.629 25.824 1.629 25.824-.139 1.883.293 4.629.293 4.629.864 6.369.586 10.998.586 10.998 10.258 4.902 47.279-8.549 47.279-8.549zM93.739 18.535c.522.833 1.134 1.68 1.863 2.533v.013l-1.863-.001v-2.545zm-2.754-4.773v-.016l.373-.393V7.137c.092-.064.192-.127.283-.191 0 0-.715 2.639.197 6.37l-.273.287a17.522 17.522 0 001.361 3.517v3.959l-1.941-.001v-7.316zM65.754 322.647l-2.161-.001 2.161-2.271v2.272zm0-15.076l-2.161-.002 2.161-2.271v2.273zm0-15.074l-2.161-.002 2.161-2.271v2.273zm0-15.076l-2.161-.001 2.161-2.271v2.272zm0-15.074l-2.161-.002 2.161-2.271v2.273zm0-15.075l-2.161-.002 2.161-2.271v2.273zm0-15.076l-2.161-.001 2.161-2.271v2.272zm0-15.074l-2.161-.002 2.161-2.271v2.273zm0-15.074l-2.161-.002 2.161-2.271v2.273zm0-15.075l-2.161-.002 2.161-2.271v2.273zm0-15.076l-2.161-.002 2.161-2.271v2.273zm0-15.074l-2.161-.002 2.161-2.271v2.273zm0-15.075l-2.161-.001 2.161-2.271v2.272zm0-15.075l-2.161-.002 2.161-2.271v2.273zm0-15.074l-2.161-.002 2.161-2.271v2.273zm0-15.076l-2.161-.002 2.161-2.271v2.273zm0-15.075l-2.161-.002 2.161-2.271v2.273zm0-15.074l-2.161-.002 2.161-2.271v2.273zm0-15.075l-2.161-.002 2.161-2.271v2.273zm0-15.075l-2.161-.002 2.161-2.271v2.273zm0-15.075l-2.161-.002 2.161-2.271v2.273zm2.754 301.501l-1.941-.001v-3.129l1.941-2.041v5.171zm0-15.077l-1.941-.001v-3.129l1.941-2.04v5.17zm0-15.074l-1.941-.002v-3.129l1.941-2.04v5.171zm0-15.075l-1.941-.001v-3.129l1.941-2.041v5.171zm0-15.075l-1.941-.001v-3.129l1.941-2.04v5.17zm0-15.075l-1.941-.002v-3.129l1.941-2.04v5.171zm0-15.075l-1.941-.001v-3.129l1.941-2.041v5.171zm0-15.075l-1.941-.002v-3.127l1.941-2.041v5.17zm0-15.074l-1.941-.002v-3.129l1.941-2.04v5.171zm0-15.074l-1.941-.002v-3.129l1.941-2.04v5.171zm0-15.077l-1.941-.001v-3.129l1.941-2.04v5.17zm0-15.074l-1.941-.002v-3.129l1.941-2.039v5.17zm0-15.074l-1.941-.002v-3.129l1.941-2.04v5.171zm0-15.076l-1.941-.002v-3.128l1.941-2.04v5.17zm0-15.074l-1.941-.002v-3.129l1.941-2.04v5.171zm0-15.076l-1.941-.001v-3.129l1.941-2.041v5.171zm0-15.075l-1.941-.001v-3.128l1.941-2.041v5.17zm0-15.074l-1.941-.001v-3.128l1.941-2.041v5.17zm0-15.075l-1.941-.001v-3.128l1.941-2.04v5.169zm0-15.075l-1.941-.001v-3.128l1.941-2.041v5.17zm0-15.075l-1.941-.001v-2.711c.64-.226 1.288-.458 1.941-.696v3.408zm2.755 310.24c-.482-.071-.962-.144-1.439-.216l1.439-1.514v1.73zm0-8.738l-1.941-.002v-6.025l1.941-2.041v8.068zm0-15.078l-1.941-.001v-6.026l1.941-2.039v8.066zm0-15.074l-1.941-.002v-6.025l1.941-2.041v8.068zm0-15.075l-1.941-.001V271.4l1.941-2.041v8.067zm0-15.075l-1.941-.001v-6.026l1.941-2.039v8.066zm0-15.075l-1.941-.002v-6.025l1.941-2.041v8.068zm0-15.075l-1.941-.001v-6.026l1.941-2.04v8.067zm0-15.075l-1.941-.001V211.1l1.941-2.041v8.067zm0-15.074l-1.941-.002v-6.025l1.941-2.041v8.068zm0-15.074l-1.941-.002v-6.025l1.941-2.041v8.068zm0-15.077l-1.941-.001v-6.026l1.941-2.039v8.066zm0-15.074l-1.941-.002V150.8l1.941-2.041v8.068zm0-15.074l-1.941-.002v-6.025l1.941-2.041v8.068zm0-15.076l-1.941-.001v-6.026l1.941-2.039v8.066zm0-15.074l-1.941-.002v-6.025l1.941-2.041v8.068zm0-15.076l-1.941-.001v-6.025l1.941-2.041v8.067zm0-15.074l-1.941-.002v-6.025l1.941-2.04v8.067zm0-15.075l-1.941-.001v-6.025l1.941-2.041v8.067zm0-15.075l-1.941-.001v-6.026l1.941-2.041v8.068zm0-15.074l-1.941-.002v-6.025l1.941-2.041v8.068zm0-15.076l-1.941-.001v-3.706c.644-.236 1.291-.476 1.941-.721v4.428zm2.754 310.629c-.651-.09-1.297-.182-1.941-.273v-2.701l1.941-2.041v5.015zm0-9.127l-1.941-.002v-8.923l1.941-2.04v10.965zm0-15.078l-1.941-.001v-8.923l1.941-2.041v10.965zm0-15.074l-1.941-.002v-8.922l1.941-2.041v10.965zm0-15.074l-1.941-.002v-8.924l1.941-2.039v10.965zm0-15.076l-1.941-.001v-8.923l1.941-2.04v10.964zm0-15.075l-1.941-.002v-8.922l1.941-2.041v10.965zm0-15.075l-1.941-.001v-8.924l1.941-2.039v10.964zm0-15.074l-1.941-.002v-8.923l1.941-2.041v10.966zm0-15.075l-1.941-.002v-8.922l1.941-2.041v10.965zm0-15.075l-1.941-.002v-8.923l1.941-2.041v10.966zm0-15.076l-1.941-.001v-8.923l1.941-2.041v10.965zm0-15.074l-1.941-.002v-8.922l1.941-2.041v10.965zm0-15.074l-1.941-.002v-8.923l1.941-2.04v10.965zm0-15.076l-1.941-.001v-8.923l1.941-2.04v10.964zm0-15.075l-1.941-.002v-8.922l1.941-2.041v10.965zm0-15.074l-1.941-.002v-8.923l1.941-2.04V96.53zm0-15.075l-1.941-.001V72.53l1.941-2.04v10.965zm0-15.075l-1.941-.002v-8.923l1.941-2.041V66.38zm0-15.075l-1.941-.001v-8.923l1.941-2.041v10.965zm0-15.075l-1.941-.001v-8.923l1.941-2.041V36.23zm0-15.074l-1.941-.001v-4.738a248.82 248.82 0 001.941-.752v5.491zm2.754 310.992c-.649-.083-1.296-.169-1.941-.256v-5.98l1.941-2.041v8.277zm0-9.491l-1.941-.002v-11.82l1.941-2.041v13.863zm0-15.077l-1.941-.002v-11.819l1.941-2.041v13.862zm0-15.075l-1.941-.002v-11.82l1.941-2.04v13.862zm0-15.074l-1.941-.002v-11.82l1.941-2.04v13.862zm0-15.076l-1.941-.001v-11.82l1.941-2.041v13.862zm0-15.075l-1.941-.002v-11.819l1.941-2.04v13.861zm0-15.074l-1.941-.002v-11.82l1.941-2.041v13.863zm0-15.075l-1.941-.001v-11.82l1.941-2.041v13.862zm0-15.075l-1.941-.002v-11.819l1.941-2.04v13.861zm0-15.075l-1.941-.002v-11.82l1.941-2.041v13.863zm0-15.075l-1.941-.002v-11.819l1.941-2.041v13.862zm0-15.075l-1.941-.001v-11.82l1.941-2.04v13.861zm0-15.074l-1.941-.002v-11.82l1.941-2.04v13.862zm0-15.076H74.83v-11.82l1.941-2.041v13.861zm0-15.075l-1.941-.001V99.784l1.941-2.039v13.861zm0-15.074l-1.941-.002V84.71l1.941-2.04v13.862zm0-15.075l-1.941-.001v-11.82l1.941-2.041v13.862zm0-15.075l-1.941-.001v-11.82l1.941-2.041v13.862zm0-15.075l-1.941-.001v-11.82l1.941-2.04v13.861zm0-15.074l-1.941-.002v-11.82l1.941-2.04v13.862zm0-15.075l-1.941-.002v-5.813c.649-.259 1.297-.52 1.941-.787v6.602zm2.755.001V307.578l-1.361-.001 1.361.002v24.909c-.648-.078-1.295-.158-1.941-.239v-9.236l.341-.358 1.6.001-1.941-.002V307.94l.341-.359h-.341v-14.719l.339-.356-.339-.001v-14.717l.339-.357h-.339v-14.717l.339-.357h-.339v-14.718l.34-.357-.34-.001v-14.717l.34-.357h-.34V217.49l.339-.357h-.339v-14.719l.34-.356-.34-.001V187.34l.34-.357h-.34v-14.718l.339-.356h-.339v-14.718l.339-.356-.339-.001v-14.718l.339-.356-.339-.001V127.04l.34-.357h-.34v-14.718l.34-.357h-.34V96.89l.339-.356-.339-.001V81.815l.34-.357h-.34V66.74l.34-.357h-.34V51.665l.339-.357h-.339V36.59l.339-.357h-.339V21.516l.339-.357h-.339v-6.943c.652-.273 1.3-.55 1.941-.83v7.773zm2.755.002V51.31l-1.941-.001 1.941.002V307.581l-1.941-.001 1.941.002v25.231c-.647-.073-1.294-.149-1.941-.226v-9.931l1.941.001-1.941-.002V13.03c.657-.292 1.303-.587 1.941-.885v9.016zm2.754 311.961c-.646-.069-1.292-.141-1.941-.213v-10.246l1.941.001v10.458zm0-312.656l-.373.392v.214h-.204l-.072.075h.016l-.014.015h.647V35.54l-.373.392v.215h-.204l-.071.075h.016l-.014.015h.647v14.378l-.373.392v.215h-.205l-.071.075h.016l-.014.015h.647V65.69l-.373.392v.215h-.205l-.071.075h.015l-.014.015h.647v14.378l-.373.392v.215h-.205l-.071.074h.015l-.014.016h.647v14.379l-.373.392v.215h-.205l-.071.075h.016l-.014.015.647.001v14.378l-.373.392v.214h-.204l-.071.075h.016l-.015.015.647.001v14.378l-.373.392v.215h-.205l-.071.075h.016l-.015.016h.647v14.379l-.373.392v.214h-.204l-.072.076h.016l-.014.014.647.001v14.378l-.373.392v.214h-.204l-.071.075h.016l-.014.015.647.001v14.377l-.373.392v.215h-.205l-.071.075h.016l-.014.016h.647v14.379l-.373.392v.215h-.205l-.071.074h.015l-.014.015.647.001v14.378l-.373.393v.214h-.204l-.071.075h.015l-.014.015.647.001v14.378l-.373.392v.215h-.205l-.071.074h.016l-.014.016h.647v14.379l-.373.392v.214h-.204l-.072.075h.016l-.015.015.647.001v14.378l-.373.393v.214h-.204l-.072.075h.016l-.015.015.647.001v14.377l-.373.393v.215h-.205l-.071.074h.016l-.014.016h.647v14.378l-.373.393v.214h-.204l-.071.075h.016l-.014.015h.647v14.379l-.373.393v.214h-.204l-.071.075h.015l-.014.015.647.001V306.9l-.373.392v.215h-.205l-.071.074h.015l-.015.016h-1.292l1.941.002v14.379l-.373.392v.214h-.204l-.072.075h.016l-.016.017-1.292-.002V11.762c.66-.314 1.309-.631 1.941-.95v9.654zm2.755 312.946c-.644-.065-1.292-.134-1.942-.203v-10.544l1.942.001v10.746zm0-14.343l-.373.392v3.113l-1.942-.002V321.034l.373-.392v-13.056l1.942.001v11.482zm0-15.076l-.373.392v3.112l-1.942-.002V305.957l.373-.392v-13.056l1.942.002v11.482zm0-15.075l-.373.392v3.112l-1.942-.001v-1.537l.373-.392v-13.057l1.942.002v11.481zm0-15.075l-.373.392v3.113l-1.942-.002v-1.537l.373-.392v-13.056l1.942.001v11.481zm0-15.074l-.373.392v3.112l-1.942-.002V260.733l.373-.392v-13.056l1.942.002v11.482zm0-15.076l-.373.392v3.112l-1.942-.001v-1.537l.373-.392v-13.056l1.942.001v11.481zm0-15.075l-.373.392v3.112l-1.942-.001V230.583l.373-.392v-13.056l1.942.001v11.482zm0-15.074l-.373.392v3.112l-1.942-.001V215.509l.373-.392v-13.056l1.942.002v11.481zm0-15.075l-.373.392v3.112l-1.942-.001v-1.537l.373-.392v-13.056l1.942.001v11.481zm0-15.075l-.373.392v3.113l-1.942-.002v-1.537l.373-.392v-13.056l1.942.001v11.481zm0-15.075l-.373.392v3.112l-1.942-.002V170.283l.373-.392v-13.056l1.942.002v11.482zm0-15.075l-.373.392v3.112l-1.942-.001v-1.537l.373-.392v-13.056l1.942.002v11.48zm0-15.075l-.373.392v3.113l-1.942-.002V140.134l.373-.392v-13.056l1.942.001v11.482zm0-15.074l-.373.392v3.112l-1.942-.002V125.059l.373-.392v-13.056l1.942.002v11.482zm0-15.075l-.373.392v3.112l-1.942-.001v-1.537l.373-.392V96.538l1.942.001v11.481zm0-15.076l-.373.392v3.113l-1.942-.002V94.91l.373-.392V81.463l1.942.001v11.48zm0-15.074l-.373.392v3.112l-1.942-.001v-1.537l.373-.392V66.388l1.942.001V77.87zm0-15.075l-.373.392V66.3l-1.942-.002v-1.537l.373-.392V51.313l1.942.001v11.481zm0-15.075l-.373.392v3.113l-1.942-.002V49.685l.373-.392V36.238l1.942.001V47.72zm0-15.074l-.373.392v3.112l-1.942-.001v-1.537l.373-.392V21.164l1.942.001v11.481zm0-15.075l-.373.392v3.113l-1.942-.002V19.536l.373-.392v-8.753a67.84 67.84 0 001.942-1.044v8.224zm2.754 313.68l-.373.392v1.968c-.642-.062-1.29-.126-1.941-.191v-.203l.373-.393v-10.157l1.941.001v8.583zm0-15.076l-.373.392v6.01l-1.941-.002V318.14l.373-.392V307.59l1.941.002v8.583zm0-15.077l-.373.392v6.01l-1.941-.001v-4.436l.373-.392v-10.158l1.941.002v8.583zm0-15.076l-.373.392v6.011l-1.941-.002v-4.435l.373-.393v-10.157l1.941.001v8.583zm0-15.074l-.373.392v6.01l-1.941-.002v-4.435l.373-.392v-10.158l1.941.001v8.584zm0-15.075l-.373.392v6.01l-1.941-.001v-4.436l.373-.392v-10.158l1.941.002v8.583zm0-15.075l-.373.392v6.01l-1.941-.001v-4.436l.373-.392v-10.157l1.941.002v8.582zm0-15.074l-.373.392v6.01l-1.941-.002V227.689l.373-.393v-10.157l1.941.001v8.584zm0-15.076l-.373.392v6.01l-1.941-.001v-4.436l.373-.392v-10.158l1.941.002v8.583zm0-15.075l-.373.392v6.011l-1.941-.002v-4.435l.373-.393v-10.157l1.941.002v8.582zm0-15.074l-.373.392v6.01l-1.941-.002v-4.435l.373-.392v-10.158l1.941.001v8.584zm0-15.075l-.373.392v6.01l-1.941-.001v-4.436l.373-.392v-10.158l1.941.002v8.583zm0-15.075l-.373.392v6.011l-1.941-.002V152.315l.373-.392v-10.158l1.941.002v8.582zm0-15.075l-.373.392v6.01l-1.941-.002V137.239l.373-.392v-10.158l1.941.001v8.584zm0-15.075l-.373.392v6.01l-1.941-.001v-4.436l.373-.392v-10.157l1.941.001v8.583zm0-15.075l-.373.392v6.01l-1.941-.001v-4.435l.373-.392V96.54l1.941.002v8.582zm0-15.074l-.373.392v6.01l-1.941-.002V92.015l.373-.392V81.465l1.941.001v8.584zm0-15.074l-.373.392v6.009l-1.941-.001V76.94l.373-.392V66.391l1.941.001v8.584zm0-15.076l-.373.392v6.01L88.23 66.3v-4.435l.373-.392V51.315l1.941.001V59.9zm0-15.075l-.373.392v6.01l-1.941-.002V46.79l.373-.392V36.241l1.941.001v8.583zm0-15.075l-.373.392v6.01l-1.941-.002v-4.436l.373-.392V21.166l1.941.002v8.582zm0-15.074l-.373.392v6.01l-1.941-.002V16.641l.373-.392V8.877a47.046 47.046 0 001.941-1.189v6.988zm2.754 313.68l-.373.392v5.123c-.641-.06-1.289-.12-1.941-.183v-3.368l.373-.392v-7.261l1.941.002v5.687zm0-15.077l-.373.392v8.907l-1.941-.002V315.244l.373-.392v-7.26l1.941.001v5.686zm0-15.077l-.373.392v8.907l-1.941-.001v-7.332l.373-.392v-7.262l1.941.002v5.686zm0-15.074l-.373.392v8.907l-1.941-.002V285.093l.373-.392v-7.261l1.941.002v5.686zm0-15.075l-.373.392v8.907l-1.941-.001v-7.333l.373-.392v-7.261l1.941.002v5.686zm0-15.075l-.373.392v8.908l-1.941-.002v-7.332l.373-.392v-7.262l1.941.002v5.686zm0-15.075l-.373.392v8.906l-1.941-.001V239.868l.373-.392v-7.261l1.941.002v5.686zm0-15.075l-.373.392v8.907l-1.941-.002V224.793l.373-.392v-7.261l1.941.001v5.687zm0-15.075l-.373.392v8.907l-1.941-.001v-7.332l.373-.392v-7.262l1.941.002v5.686zm0-15.074l-.373.392v8.907l-1.941-.002V194.644l.373-.392v-7.261l1.941.002v5.686zm0-15.075l-.373.392v8.907l-1.941-.002V179.569l.373-.392v-7.261l1.941.002v5.686zm0-15.076l-.373.392v8.907l-1.941-.001v-7.332l.373-.392v-7.262l1.941.002v5.686zm0-15.074l-.373.392v8.907l-1.941-.002V149.419l.373-.392v-7.261l1.941.002v5.686zm0-15.074l-.373.392v8.906l-1.941-.001v-7.333l.373-.392v-7.261l1.941.001v5.688zm0-15.076l-.373.392v8.907l-1.941-.001v-7.332l.373-.392v-7.261l1.941.001v5.686zm0-15.075l-.373.392v8.907l-1.941-.002V104.194l.373-.392v-7.261l1.941.002v5.686zm0-15.075l-.373.392v8.907l-1.941-.001V89.12l.373-.392v-7.261l1.941.001v5.686zm0-15.074l-.373.392v8.906l-1.941-.001V74.045l.373-.392v-7.261l1.941.001v5.687zm0-15.075l-.373.392v8.907l-1.941-.001V58.97l.373-.392v-7.261l1.941.001v5.687zm0-15.075l-.373.392v8.907l-1.941-.001v-7.333l.373-.392v-7.26l1.941.001v5.686zm0-15.075l-.373.392v8.906l-1.941-.001V28.82l.373-.392v-7.261l1.941.001v5.687zm2.677 298.688l-.373.392v8.176c-.613-.054-1.235-.108-1.863-.165V327.426l.373-.392v-4.363l1.863.002v2.87zm0-15.077l-.373.393v11.722l-1.863-.001v-10.23l.373-.392v-4.363l1.863.001v2.87zm0-15.076l-.373.392v11.722l-1.863-.001v-10.23l.373-.392v-4.364l1.863.002v2.871zm0-15.076l-.373.392v11.723l-1.863-.002V282.197l.373-.392v-4.363l1.863.002v2.87zm0-15.075l-.373.393v11.722l-1.863-.002v-10.229l.373-.392v-4.363l1.863.001v2.87zm0-15.074l-.373.392v11.723l-1.863-.002V252.048l.373-.392v-4.364l1.863.002v2.871zm0-15.075l-.373.392v11.722l-1.863-.001V236.973l.373-.392v-4.363l1.863.002v2.87zm0-15.075l-.373.393v11.722l-1.863-.001v-10.23l.373-.392v-4.363l1.863.001v2.87zm0-15.075l-.373.393v11.721l-1.863-.001V206.823l.373-.392v-4.363l1.863.001v2.871zm0-15.075l-.373.392v11.723l-1.863-.002v-10.229l.373-.392v-4.364l1.863.002v2.87zm0-15.075l-.373.392v11.722l-1.863-.001v-10.23l.373-.392v-4.363l1.863.001v2.871zm0-15.074l-.373.392v11.721l-1.863-.001V161.598l.373-.392v-4.364l1.863.002v2.872zm0-15.075l-.373.392v11.722l-1.863-.002V146.523l.373-.392v-4.363l1.863.002v2.871zm0-15.076l-.373.392v11.723l-1.863-.002v-10.23l.373-.392v-4.363l1.863.001v2.871zm0-15.074l-.373.392v11.721l-1.863-.001V116.373l.373-.392v-4.363l1.863.001v2.872zm0-15.075l-.373.392v11.722l-1.863-.002V101.298l.373-.392v-4.363l1.863.002v2.871zm0-15.075l-.373.392v11.722l-1.863-.001V86.224l.373-.392V81.47l1.863.001v2.87zm0-15.074l-.373.392V81.38l-1.863-.001V71.149l.373-.392v-4.363l1.863.001v2.872zm0-15.076l-.373.392v11.722l-1.863-.001V56.075l.373-.392v-4.364l1.863.001v2.871zm0-15.074l-.373.392V51.23l-1.863-.001V41l.373-.392v-4.363l1.863.001v2.871zm0-15.075l-.373.392v11.722l-1.863-.002V25.924l.373-.392V21.17l1.863.001v2.871zm2.46 298.916v11.395c-.661-.055-1.335-.112-2.019-.171v-9.57l.373-.392v-1.548l1.472.002.071-.075.016-.017h.088v.092h.27l-.271.284zm0-15.077v14.701l-2.019-.001v-13.045l.373-.392v-1.548l1.472.001.071-.075.016-.017.088.001v.091h.27l-.271.284zm.27-181.184l-.27.284v14.791h.27l-.27.283V156.846h.27l-.27.283v14.792h.27l-.27.283V186.996h.27l-.27.283V202.07h.27l-.27.283v14.792h.27l-.27.283V232.22h.27l-.27.283V247.294h.27l-.27.283v14.792h.27l-.27.283V277.444h.27l-.27.283V292.518h.27l-.27.283v14.701l-2.019-.001v-13.045l.373-.392v-1.549l1.472.002.071-.075.014-.015-1.93-.001v-13.043l.373-.392v-1.548l1.471.002.072-.076.014-.015-1.93-.002V264.308l.373-.392v-1.548l1.472.001.071-.075.014-.015-1.93-.002v-13.045l.373-.392v-1.549l1.472.002.071-.075.014-.015-1.93-.002v-13.044l.373-.392v-1.549l1.472.002.071-.075.014-.016-1.93-.001v-13.045l.373-.392v-1.548l1.472.001.071-.075.014-.015-1.93-.002v-13.045l.373-.392v-1.548l1.472.001.071-.075.015-.015-1.93-.001V188.93l.373-.392v-1.549l1.472.002.071-.075.015-.016-1.93-.001v-13.045l.373-.392v-1.548l1.472.001.071-.075.014-.015-1.93-.002v-13.045l.373-.392v-1.548l1.472.001.071-.075.014-.015-1.93-.001v-13.045l.373-.392v-1.549l1.472.001.071-.075.014-.015-1.93-.002v-13.045l.373-.392v-1.548l1.472.001.071-.075.014-.015-1.93-.002v-13.044l.373-.392v-1.549l1.472.001.071-.075.014-.015-1.93-.001V98.486l.373-.392v-1.549l1.472.001.071-.075.014-.016-1.93-.001V83.411l.373-.392v-1.548l1.471.001.072-.076.015-.015-1.93-.002V68.336l.373-.392v-1.548l1.472.001.071-.074.015-.016-1.93-.001V53.261l.373-.392V51.32l1.472.001.071-.075.014-.016-1.93-.001V38.186l.373-.392v-1.548l1.472.001.071-.075.014-.015-1.93-.002V23.111l.373-.391v-.677c.177.188.365.375.554.563l-.136.143c.39.379.79.757 1.229 1.134V36.248h.27l-.27.283V51.322h.27l-.27.283V66.396h.27l-.27.283v14.792h.27l-.27.283v14.79h.27l-.27.283V111.618h.27l-.27.284v14.792h.265zm2.484 195.888v11.99l-1.941-.156v-11.835l1.941.001-1.941-.002v-15.076l1.941.002v15.076zm0-286.426V307.504l-1.941-.002V24.553c.605.483 1.247.964 1.941 1.439v10.167zm2.754 286.428v12.199l-1.941-.147v-12.053l1.941.001-1.941-.002v-15.076l1.941.002v15.076zm0-286.426V307.506l-1.941-.002V26.526c.613.396 1.26.787 1.941 1.174v8.461zm2.755 298.825l-1.942-.14v-12.259l1.942.002v12.397zm0-14.402V322.573l-1.875-.001-.016.016h-.051v-15.075l1.942.001v13.07zm0-286.424v1.989l-1.875-.002-.014.016 1.889.001v15.061l-1.875-.002-.014.015 1.889.002V66.299l-1.875-.001-.014.015 1.89.002v15.058l-1.875-.001-.014.015 1.89.001v15.061l-1.875-.002-.014.015 1.889.002v15.06l-1.875-.001-.015.015 1.89.002v15.06l-1.875-.002-.015.016 1.89.001v15.061l-1.875-.002-.014.015 1.889.002V156.751l-1.875-.001-.014.015 1.889.001v15.061l-1.875-.002-.014.016 1.889.001v15.061l-1.875-.002-.014.015 1.89.002v15.06l-1.875-.001-.014.015 1.89.001v15.061l-1.875-.002-.014.016 1.889.001V232.129l-1.875-.001-.015.015 1.89.002v15.06l-1.875-.002-.015.016 1.89.001v15.061l-1.875-.002-.014.016 1.889.001V277.356l-1.875-.001-.014.015 1.889.002v15.06l-1.875-.001-.014.015 1.889.001v15.061l-1.875-.002-.015.016h-.051V28.156c.618.334 1.268.662 1.942.985v5.019zm2.754 298.606V335.176c-.608-.04-1.256-.084-1.94-.132V322.59l1.94.002v10.174zm0-15.077v4.886l-1.94-.002V307.513l1.94.001v10.175zm0-15.077v4.886l-1.94-.002V292.436l1.94.001v10.175zm0-15.075V292.424l-1.94-.002v-15.061l1.94.002v10.174zm0-15.074v4.885l-1.94-.001V262.287l1.94.001v10.175zm0-15.075v4.886l-1.94-.002V247.212l1.94.001v10.175zm0-15.075v4.885l-1.94-.001v-15.061l1.94.002v10.175zm0-15.075v4.886l-1.94-.002V217.062l1.94.001v10.175zm0-15.075v4.886l-1.94-.002V201.987l1.94.001v10.175zm0-15.074v4.885l-1.94-.001V186.913l1.94.001v10.175zm0-15.075v4.886l-1.94-.002V171.838l1.94.001v10.175zm0-15.076v4.886l-1.94-.002V156.762l1.94.002v10.174zm0-15.074v4.885l-1.94-.001v-15.061l1.94.002v10.175zm0-15.075v4.886l-1.94-.002V126.613l1.94.001v10.175zm0-15.075v4.886l-1.94-.002V111.538l1.94.002v10.174zm0-15.074v4.885l-1.94-.001V96.464l1.94.001v10.175zm0-15.076v4.886l-1.94-.002V81.389l1.94.002v10.173zm0-15.075v4.886l-1.94-.001V66.313l1.94.002v10.174zm0-15.074v4.886l-1.94-.002V51.238l1.94.002v10.175zm0-15.075v4.886l-1.94-.002V36.164l1.94.001V46.34zm0-15.074v4.885l-1.94-.002V29.52c.623.287 1.27.568 1.94.846v.9zm2.755 298.604V335.351c-.577-.035-1.228-.076-1.942-.123V322.592l1.942.002v7.276zm0-15.076v7.784l-1.942-.002V307.516l1.942.001v7.277zm0-15.077V307.501l-1.942-.002v-15.06l1.942.002v7.276zm0-15.074v7.784l-1.942-.002v-15.061l1.942.002v7.277zm0-15.076v7.784l-1.942-.002V262.289l1.942.001v7.277zm0-15.075V262.276l-1.942-.001v-15.061l1.942.002v7.276zm0-15.075V247.201l-1.942-.001V232.14l1.942.001v7.276zm0-15.074v7.784l-1.942-.002V217.065l1.942.001v7.277zm0-15.075V217.052l-1.942-.001V201.99l1.942.002v7.276zm0-15.075v7.783l-1.942-.001V186.915l1.942.001v7.277zm0-15.075v7.784l-1.942-.001V171.84l1.942.001v7.277zm0-15.075V171.827l-1.942-.002V156.765l1.942.002v7.276zm0-15.074v7.784l-1.942-.002V141.691l1.942.001v7.277zm0-15.075v7.784l-1.942-.002v-15.06l1.942.001v7.277zm0-15.076V126.602l-1.942-.001V111.54l1.942.002v7.276zm0-15.074v7.784l-1.942-.002V96.466l1.942.001v7.277zm0-15.075V96.453l-1.942-.002V81.391l1.942.002v7.276zm0-15.074v7.783l-1.942-.001V66.316l1.942.002v7.277zm0-15.075v7.784l-1.942-.002v-15.06l1.942.001v7.277zm0-15.076V51.228l-1.942-.002v-15.06l1.942.002v7.276zm0-7.292l-1.942-.001v-5.447l.113.047s.623.256 1.829.625v4.776zm2.754 290.824V335.513c-.367-.02-1.03-.057-1.941-.111V322.596l1.941.001v4.379zm0-15.078v10.681l-1.941-.002V307.517l1.941.002v4.379zm0-15.077v10.681l-1.941-.001V292.44l1.941.002v4.379zm0-15.074v10.681l-1.941-.002v-15.061l1.941.002v4.38zm0-15.075v10.681l-1.941-.002V262.291l1.941.001v4.38zm0-15.074v10.68l-1.941-.001v-15.061l1.941.002v4.38zm0-15.076v10.68l-1.941-.001V232.14l1.941.002v4.38zm0-15.075v10.681l-1.941-.002V217.066l1.941.002v4.379zm0-15.074v10.68l-1.941-.001v-15.061l1.941.002v4.38zm0-15.075v10.681l-1.941-.002V186.917l1.941.001v4.38zm0-15.075v10.681l-1.941-.001v-15.061l1.941.001v4.38zm0-15.075v10.68l-1.941-.001V156.767l1.941.001v4.38zm0-15.075v10.681l-1.941-.002V141.692l1.941.001v4.38zm0-15.075v10.681l-1.941-.001v-15.061l1.941.002v4.379zm0-15.074v10.68l-1.941-.001V111.543l1.941.001v4.38zm0-15.075v10.681l-1.941-.002V96.468l1.941.001v4.38zm0-15.076v10.681l-1.941-.001V81.392l1.941.002v4.379zm0-15.074V81.38l-1.941-.002V66.318l1.941.001v4.38zm0-15.075v10.681l-1.941-.002V51.243l1.941.001v4.38zm0-15.075V51.23l-1.941-.001V36.168l1.941.002v4.379zm0-4.394l-1.941-.002v-4.538c.562.159 1.205.33 1.941.507v4.033zm2.754 287.925v11.634c-.65-.046-1.298-.095-1.941-.146v-12.971l1.941.001v1.482zm0-15.076v13.578l-1.941-.001V307.52l1.941.002v1.482zm0-15.078V307.505l-1.941-.001v-15.061l1.941.002v1.481zm0-15.074V292.431l-1.941-.002V277.369l1.941.001v1.482zm0-15.075v13.578l-1.941-.001v-15.061l1.941.002v1.482zm0-15.075v13.579l-1.941-.002v-15.061l1.941.002v1.482zm0-15.075V247.206l-1.941-.002V232.144l1.941.001v1.482zm0-15.075V232.131l-1.941-.001v-15.061l1.941.002v1.481zm0-15.074V217.057l-1.941-.002V201.995l1.941.001v1.482zm0-15.076V201.981l-1.941-.002V186.919l1.941.002v1.481zm0-15.074v13.578l-1.941-.001v-15.061l1.941.002v1.482zm0-15.075v13.578l-1.941-.001V156.77l1.941.001v1.482zm0-15.075V156.757l-1.941-.002V141.695l1.941.002v1.481zm0-15.074v13.579l-1.941-.002V126.62l1.941.002v1.482zm0-15.076v13.578l-1.941-.001V111.545l1.941.001v1.482zm0-15.075V111.532l-1.941-.002V96.47l1.941.002v1.481zm0-15.074v13.578l-1.941-.001V81.395l1.941.002v1.482zm0-15.075V81.383l-1.941-.002V66.32l1.941.001v1.483zm0-15.075V66.308l-1.941-.001V51.246l1.941.001v1.482zm0-15.075v13.578l-1.941-.001V36.171l1.941.001v1.482zm0-1.497l-1.941-.002V32.31c.599.134 1.246.27 1.941.401v3.446zm2.755 299.729c-.65-.036-1.297-.075-1.941-.117v-13.17l.596.001.015-.017 1.33.001v13.302zm0-13.303l-1.941-.001V307.522h.596l.015-.017 1.33.002v15.076zm0-286.425V307.503l-1.941-.002V292.441h.596l.014-.015-.61-.001v-15.06h.596l.014-.015h-.61v-15.061l.596.001.014-.015-.61-.001v-15.061l.597.001.014-.015-.61-.001v-15.06l.597.001.014-.016h-.61v-15.061l.596.001.014-.015-.61-.001v-15.06h.596l.014-.015-.61-.001v-15.06l.596.001.014-.016h-.61v-15.061l.596.001.014-.015-.61-.001v-15.06h.596l.014-.015h-.61v-15.049l.596.001.014-.015-.61-.001V126.62l.597.001.014-.015-.61-.001v-15.06h.597l.014-.015h-.61V96.471l.596.001.014-.016h-.61V81.397h.596l.014-.015-.61-.001V66.322l.596.001.014-.016h-.61v-15.06l.596.001.014-.016h-.61V36.172h.596l.014-.015h-.61V32.86a66.76 66.76 0 001.941.315v2.983zm2.755 299.865a238.45 238.45 0 01-1.941-.092v-13.347l1.941.001v13.438zm0-13.438l-1.941-.001v-15.076l1.941.002v15.075zm0-286.425V307.506l-1.941-.002V33.294a80.09 80.09 0 001.941.239v2.627zm2.754 299.961c-.65-.02-1.296-.042-1.941-.066v-13.468l1.941.001v13.533zm0-13.931l-.378.396-1.563-.001V307.51l1.941.002v14.678zm0-286.423l-.376.396h.376v14.679l-.376.396.376.001v14.679l-.377.396h.377V80.99l-.377.396h.377v14.679l-.376.396h.376v14.68l-.377.396.377.001v14.678l-.377.396h.377v14.679l-.376.396.376.001v14.679l-.376.396h.376v14.679l-.376.396h.376v14.679l-.377.396.377.001v14.679l-.377.396h.377v14.679l-.376.396h.376v14.679l-.377.396h.377v14.679l-.377.396h.377v14.679l-.376.396h.376v14.679l-.376.396h.376v14.68l-.376.396h.376v14.679l-.378.396-1.563-.001V33.62c.626.063 1.275.12 1.941.172v1.975zm.813-1.914c.312.021.633.039.953.058l-.953 1.001v-1.059zm1.941 285.442l-1.941 2.041v-13.824l1.941.002v11.781zm0-15.077l-1.941 2.04v-13.822l1.941.001v11.781zm0-15.074l-1.941 2.04V277.36l1.941.001v11.783zm0-15.076l-1.941 2.041v-13.824l1.941.002v11.781zm0-15.074l-1.941 2.04v-13.823l1.941.001v11.782zm0-15.075l-1.941 2.04v-13.823l1.941.002v11.781zm0-15.075l-1.941 2.041v-13.824l1.941.002v11.781zm0-15.074l-1.941 2.04v-13.823l1.941.001v11.782zm0-15.076l-1.941 2.04v-13.823l1.941.002v11.781zm0-15.075l-1.941 2.041v-13.824l1.941.002v11.781zm0-15.074l-1.941 2.04v-13.823l1.941.001v11.782zm0-15.075l-1.941 2.04v-13.823l1.941.002v11.781zm0-15.074l-1.941 2.04v-13.824l1.941.002v11.782zm0-15.076l-1.941 2.04v-13.823l1.941.002v11.781zm0-15.075l-1.941 2.041V96.462l1.941.002v11.781zm0-15.075l-1.941 2.041V81.388l1.941.001V93.17zm0-15.074l-1.941 2.04V66.313l1.941.002v11.781zm0-15.075l-1.941 2.04V51.237l1.941.002v11.782zm0-15.075l-1.941 2.04V36.163l1.941.001v11.782zm2.755 283.531l-1.942 2.041v-10.927l1.942.002v8.884zm0-15.078l-1.942 2.041v-10.926l1.942.001v8.884zm0-15.077l-1.942 2.041v-10.926l1.942.001v8.884zm0-15.074l-1.942 2.041v-10.927l1.942.002v8.884zm0-15.075l-1.942 2.041v-10.926l1.942.001v8.884zm0-15.074l-1.942 2.04v-10.926l1.942.002v8.884zm0-15.076l-1.942 2.04v-10.926l1.942.002v8.884zm0-15.075l-1.942 2.041v-10.926l1.942.001v8.884zm0-15.074l-1.942 2.041v-10.927l1.942.002v8.884zm0-15.075l-1.942 2.041v-10.927l1.942.002v8.884zm0-15.075l-1.942 2.041v-10.927l1.942.002v8.884zm0-15.076l-1.942 2.041v-10.926l1.942.002v8.883zm0-15.074l-1.942 2.041v-10.927l1.942.002v8.884zm0-15.074l-1.942 2.04v-10.926l1.942.001v8.885zm0-15.075l-1.942 2.04v-10.926l1.942.002v8.884zm0-15.075l-1.942 2.041V96.464l1.942.002v8.884zm0-15.076l-1.942 2.041V81.39l1.942.001v8.883zm0-15.074l-1.942 2.041V66.314l1.942.002V75.2zm0-15.075l-1.942 2.041V51.239l1.942.002v8.884zm0-15.074l-1.942 2.04V36.165l1.942.002v8.884zm2.754 283.531l-1.941 2.04v-8.028l1.941.001v5.987zm0-15.077l-1.941 2.04v-8.028l1.941.002v5.986zm0-15.077l-1.941 2.04v-8.028l1.941.002v5.986zm0-15.074l-1.941 2.04v-8.029l1.941.002v5.987zm0-15.076l-1.941 2.04v-8.028l1.941.001v5.987zm0-15.075l-1.941 2.04v-8.028l1.941.002v5.986zm0-15.074l-1.941 2.04v-8.029l1.941.002v5.987zm0-15.075l-1.941 2.04v-8.028l1.941.001v5.987zm0-15.075l-1.941 2.041v-8.029l1.941.002v5.986zm0-15.075l-1.941 2.04v-8.028l1.941.001v5.987zm0-15.075l-1.941 2.04v-8.028l1.941.001v5.987zm0-15.074l-1.941 2.039v-8.028l1.941.002v5.987zm0-15.075l-1.941 2.04v-8.028l1.941.001v5.987zm0-15.076l-1.941 2.04v-8.028l1.941.001v5.987zm0-15.075l-1.941 2.04v-8.028l1.941.002v5.986zm0-15.074l-1.941 2.04v-8.028l1.941.001v5.987zm0-15.075l-1.941 2.04v-8.028l1.941.002v5.986zm0-15.074l-1.941 2.04v-8.028l1.941.001v5.987zm0-15.076l-1.941 2.04v-8.028l1.941.001v5.987zm0-15.075l-1.941 2.04v-8.028l1.941.002v5.986zm2.755 283.532l-1.941 2.041v-5.132l1.941.001v3.09zm0-15.078l-1.941 2.041v-5.132l1.941.001v3.09zm0-15.077l-1.941 2.041v-5.132l1.941.002v3.089zm0-15.074l-1.941 2.04v-5.131l1.941.001v3.09zm0-15.075l-1.941 2.041v-5.132l1.941.002v3.089zm0-15.075l-1.941 2.041v-5.132l1.941.002v3.089zm0-15.076l-1.941 2.041v-5.131l1.941.001v3.089zm0-15.074l-1.941 2.041v-5.132l1.941.001v3.09zm0-15.074l-1.941 2.04v-5.131l1.941.001v3.09zm0-15.075l-1.941 2.04v-5.131l1.941.002v3.089zm0-15.075l-1.941 2.041v-5.132l1.941.002v3.089zm0-15.076l-1.941 2.041v-5.132l1.941.002v3.089zm0-15.074l-1.941 2.041v-5.132l1.941.001v3.09zm0-15.075l-1.941 2.041v-5.132l1.941.002v3.089zm0-15.074l-1.941 2.04v-5.132l1.941.002v3.09zm0-15.075l-1.941 2.041v-5.132l1.941.002v3.089zm0-15.076l-1.941 2.041v-5.132l1.941.002v3.089zm0-15.074l-1.941 2.04v-5.131l1.941.001v3.09zm0-15.075l-1.941 2.041v-5.132l1.941.001v3.09zm0-15.075l-1.941 2.041v-5.132l1.941.002v3.089zm.813 285.572v-2.234l2.124.002-2.124 2.232zm0-15.077v-2.234l2.124.002-2.124 2.232zm0-15.077v-2.234l2.124.002-2.124 2.232zm0-15.074v-2.234l2.124.001-2.124 2.233zm0-15.076v-2.234l2.124.002-2.124 2.232zm0-15.075v-2.234l2.124.002-2.124 2.232zm0-15.075v-2.233l2.124.002-2.124 2.231zm0-15.074v-2.234l2.124.002-2.124 2.232zm0-15.075v-2.233l2.124.001-2.124 2.232zm0-15.075v-2.234l2.124.002-2.124 2.232zm0-15.075v-2.234l2.124.002-2.124 2.232zm0-15.075v-2.233l2.124.001-2.124 2.232zm0-15.074v-2.234l2.124.002-2.124 2.232zm0-15.076v-2.234l2.124.002-2.124 2.232zm0-15.075v-2.234l2.124.002-2.124 2.232zm0-15.074v-2.234l2.124.002-2.124 2.232zm0-15.075v-2.234l2.124.002-2.124 2.232zm0-15.074v-2.234l2.124.002-2.124 2.232zm0-15.076v-2.234l2.124.002-2.124 2.232zm0-15.075v-2.234l2.124.002-2.124 2.232z"/><path fill="#070708" d="M69.322 51.302l1.941.001v-8.068l-1.941 2.041zM72.076 51.304l1.941.001V40.34l-1.941 2.041zM66.567 51.299l1.941.002v-5.17l-1.941 2.04zM65.754 51.299v-2.273l-2.161 2.271zM85.848 64.369l-.373.392v1.537l1.942.002v-3.113l.373-.392V51.314l-1.942-.001zM65.754 66.374v-2.273l-2.161 2.271zM94.112 55.684l-.373.391v10.23l1.863.001V54.583l.373-.392v-2.87l-1.863-.002zM74.831 66.381l1.94.001V52.52l-1.94 2.041zM72.076 66.378l1.941.002V55.415l-1.941 2.041zM80.339 66.384V307.583l1.942.001V51.311l-1.942-.002v.001zM91.357 58.578l-.372.392v7.333l1.941.001v-8.908l.372-.391v-5.686l-1.941-.002zM69.322 66.376l1.941.002V58.31l-1.941 2.041zM66.567 66.375l1.941.001v-5.17l-1.941 2.04zM88.603 61.473l-.373.392V66.3l1.941.002v-6.01l.373-.392v-8.583l-1.941-.002zM94.112 70.758l-.373.391V81.379l1.863.001V69.659l.373-.392v-2.871l-1.863-.001zM88.603 76.548l-.373.392v4.435l1.941.001v-6.009l.373-.391v-8.584l-1.941-.001zM85.848 79.444l-.373.392v1.537l1.942.001v-3.112l.373-.392V66.39l-1.942-.002zM66.567 81.449l1.941.001v-5.17l-1.941 2.041zM91.357 73.653l-.372.392V81.377l1.941.001v-8.906l.372-.392v-5.686l-1.941-.001zM69.322 81.451l1.941.002v-8.067l-1.941 2.04zM65.754 81.448v-2.272l-2.161 2.27zM72.076 81.454l1.941.001V70.49l-1.941 2.04zM74.831 81.456l1.94.001V67.595l-1.94 2.041zM69.322 96.526l1.941.001V88.46l-1.941 2.041zM94.112 85.833l-.373.392v10.229l1.863.001V84.733l.373-.392v-2.87l-1.863-.001zM74.831 96.53l1.94.002V82.67l-1.94 2.04zM85.848 94.519l-.373.391v1.537l1.942.002v-3.113l.373-.392v-11.48l-1.942-.001zM66.567 96.524l1.941.001v-5.171l-1.941 2.042zM72.076 96.528l1.941.002V85.565l-1.941 2.04zM65.754 96.523v-2.272l-2.161 2.27zM91.357 88.729l-.372.391v7.332l1.941.001v-8.907l.372-.392v-5.685l-1.941-.001zM88.603 91.623l-.373.392v4.434l1.941.002v-6.01l.373-.391v-8.584l-1.941-.001zM74.831 111.605l1.94.001V97.745l-1.94 2.039zM85.848 109.594l-.373.391v1.537l1.942.001v-3.112l.373-.391V96.539l-1.942-.001zM72.076 111.603l1.941.001V100.64l-1.941 2.041zM69.322 111.601l1.941.002v-8.069l-1.941 2.041zM88.603 106.698l-.373.392V111.524l1.941.001v-6.009l.373-.392v-8.582l-1.941-.002zM94.112 100.907l-.373.392v10.229l1.863.002V99.808l.373-.392v-2.87l-1.863-.002zM65.754 111.599v-2.274l-2.161 2.272zM66.567 111.599l1.941.002v-5.171l-1.941 2.04zM91.357 103.803l-.372.391V111.526l1.941.002v-8.907l.372-.392v-5.685l-1.941-.002zM91.357 118.878l-.372.392v7.332l1.941.001v-8.908l.372-.391v-5.686l-1.941-.001zM88.603 121.772l-.373.392v4.436l1.941.001v-6.01l.373-.392v-8.583l-1.941-.001zM69.322 126.676l1.941.001v-8.067l-1.941 2.039zM74.831 126.681h1.94v-13.862l-1.94 2.041zM65.754 126.673v-2.274l-2.161 2.272zM66.567 126.673l1.941.002v-5.17l-1.941 2.04zM85.848 124.668l-.373.392v1.537l1.942.002v-3.113l.373-.391v-11.481l-1.942-.002zM94.112 115.982l-.373.392V126.604h1.863v-11.721l.373-.392v-2.871l-1.863-.001zM72.076 126.678l1.941.001v-10.964l-1.941 2.04zM72.076 141.753l1.941.002V130.79l-1.941 2.04zM85.848 139.743l-.373.392v1.537l1.942.002v-3.113l.373-.392v-11.481h-1.942zM66.567 141.749l1.941.002v-5.171l-1.941 2.04zM91.357 133.952l-.372.392v7.333l1.941.001v-8.907l.372-.391v-5.688l-1.941-.001zM94.112 131.058l-.373.391v10.23l1.863.002v-11.723l.373-.393v-2.87l-1.863-.001zM74.831 141.755l1.94.002v-13.862l-1.94 2.04zM65.754 141.748v-2.272l-2.161 2.271zM88.603 136.847l-.373.392V141.674l1.941.002v-6.01l.373-.392v-8.584l-1.941-.001zM69.322 141.751l1.941.002v-8.068l-1.941 2.041zM91.357 149.027l-.372.392V156.751l1.941.002v-8.907l.372-.392v-5.685l-1.941-.002zM72.076 156.827l1.941.002v-10.965l-1.941 2.041zM94.112 146.132l-.373.391V156.753l1.863.002v-11.722l.373-.392v-2.87l-1.863-.002zM88.603 151.922l-.373.392V156.749l1.941.002v-6.011l.373-.391v-8.582l-1.941-.002zM74.831 156.83l1.94.001V142.97l-1.94 2.04zM85.848 154.818l-.373.392v1.537l1.942.001v-3.112l.373-.392v-11.479l-1.942-.002zM66.567 156.823l1.941.002v-5.17l-1.941 2.039zM65.754 156.823v-2.273l-2.161 2.271zM69.322 156.825l1.941.002v-8.068l-1.941 2.041zM94.112 161.207l-.373.392v10.229l1.863.001v-11.721l.373-.392v-2.871l-1.863-.002zM66.567 171.898l1.941.001v-5.17l-1.941 2.041zM85.848 169.893l-.373.391v1.537l1.942.002v-3.112l.373-.392v-11.48l-1.942-.002zM88.603 166.997l-.373.392v4.435l1.941.001v-6.01l.373-.391v-8.583l-1.941-.002zM65.754 171.897v-2.273l-2.161 2.272zM72.076 171.902l1.941.001v-10.965l-1.941 2.041zM69.322 171.9l1.941.001v-8.066l-1.941 2.039zM91.357 164.103l-.372.391v7.332l1.941.001v-8.907l.372-.392v-5.685l-1.941-.002zM74.831 171.904l1.94.002v-13.862l-1.94 2.041zM66.567 186.974l1.941.002v-5.171l-1.941 2.04zM72.076 186.978l1.941.001v-10.965l-1.941 2.041zM85.848 184.968l-.373.391v1.537l1.942.002v-3.113l.373-.391v-11.481l-1.942-.001zM74.831 186.979l1.94.002v-13.863l-1.94 2.041zM65.754 186.973v-2.274l-2.161 2.272zM91.357 179.177l-.372.391V186.9l1.941.002v-8.907l.372-.391v-5.686l-1.941-.002zM94.112 176.282l-.373.392V186.903l1.863.001v-11.722l.373-.392v-2.87l-1.863-.001zM88.603 182.072l-.373.392V186.898l1.941.002v-6.009l.373-.392v-8.584l-1.941-.001zM69.322 186.976l1.941.002v-8.069l-1.941 2.041zM88.603 197.146l-.373.393v4.435l1.941.002v-6.011l.373-.392v-8.582l-1.941-.002zM69.322 202.05l1.941.002v-8.069l-1.941 2.041zM85.848 200.043l-.373.392v1.537l1.942.001v-3.113l.373-.391v-11.481l-1.942-.001zM74.831 202.054l1.94.002v-13.862l-1.94 2.04zM94.112 191.357l-.373.392v10.229l1.863.001v-11.722l.373-.392v-2.87l-1.863-.002zM91.357 194.252l-.372.392v7.332l1.941.002v-8.908l.372-.391v-5.686l-1.941-.002zM66.567 202.048l1.941.002v-5.171l-1.941 2.04zM65.754 202.048v-2.274l-2.161 2.272zM72.076 202.052l1.941.002v-10.965l-1.941 2.041zM65.754 217.122v-2.273l-2.161 2.271zM88.603 212.222l-.373.391v4.436l1.941.001v-6.01l.373-.392v-8.583l-1.941-.002zM91.357 209.327l-.372.392v7.332l1.941.001v-8.907l.372-.392v-5.686l-1.941-.002zM74.831 217.13l1.94.001v-13.862l-1.94 2.041zM85.848 215.117l-.373.392v1.538l1.942.001v-3.112l.373-.392v-11.481l-1.942-.001zM69.322 217.125l1.941.001v-8.067l-1.941 2.041zM94.112 206.432l-.373.391V217.053l1.863.001v-11.721l.373-.393v-2.871l-1.863-.001zM72.076 217.127l1.941.002v-10.966l-1.941 2.041zM66.567 217.122l1.941.002v-5.17l-1.941 2.041zM65.754 232.196v-2.272l-2.161 2.271zM88.603 227.296l-.373.392V232.123l1.941.002v-6.01l.373-.391v-8.584l-1.941-.001zM69.322 232.2l1.941.001v-8.067l-1.941 2.04zM94.112 221.507l-.373.391v10.23l1.863.001v-11.722l.373-.392v-2.87l-1.863-.001zM66.567 232.198l1.941.001v-5.171l-1.941 2.041zM74.831 232.204l1.94.002v-13.863l-1.94 2.041zM91.357 224.401l-.372.392V232.125l1.941.002v-8.907l.372-.392v-5.686l-1.941-.001zM72.076 232.202l1.941.001v-10.964l-1.941 2.039zM85.848 230.192l-.373.392v1.537l1.942.001v-3.112l.373-.392v-11.48l-1.942-.001zM94.112 236.581l-.373.392v10.229l1.863.001v-11.722l.373-.391v-2.87l-1.863-.002zM85.848 245.268l-.373.391v1.537l1.942.001v-3.112l.373-.392v-11.48l-1.942-.001zM65.754 247.272v-2.273l-2.161 2.272zM72.076 247.276l1.941.002v-10.965l-1.941 2.041zM69.322 247.274l1.941.002v-8.068l-1.941 2.041zM66.567 247.272l1.941.002v-5.17l-1.941 2.04zM91.357 239.477l-.372.391V247.2l1.941.001v-8.906l.372-.392v-5.685l-1.941-.002zM74.831 247.278l1.94.002v-13.861l-1.94 2.04zM88.603 242.371l-.373.392v4.435l1.941.001v-6.01l.373-.391v-8.582l-1.941-.002zM94.112 251.656l-.373.392v10.229l1.863.002v-11.722l.373-.392v-2.871l-1.863-.002zM66.567 262.348l1.941.001v-5.17l-1.941 2.04zM72.076 262.352l1.941.001v-10.964l-1.941 2.04zM85.848 260.342l-.373.391V262.271l1.942.001v-3.112l.373-.391v-11.481l-1.942-.002zM74.831 262.354l1.94.001v-13.862l-1.94 2.041zM65.754 262.347v-2.274l-2.161 2.272zM69.322 262.35l1.941.001v-8.067l-1.941 2.039zM91.357 254.552l-.372.391v7.332l1.941.002v-8.908l.372-.391v-5.686l-1.941-.002zM88.603 257.446l-.373.392v4.435l1.941.001v-6.009l.373-.392v-8.583l-1.941-.002zM85.848 275.417l-.373.392v1.537l1.942.002v-3.114l.373-.391v-11.481l-1.942-.001zM74.831 277.429l1.94.002v-13.863l-1.94 2.04zM94.112 266.731l-.373.392v10.229l1.863.002v-11.722l.373-.393v-2.87l-1.863-.001zM66.567 277.423l1.941.001v-5.171l-1.941 2.041zM72.076 277.427l1.941.002v-10.965l-1.941 2.039zM65.754 277.421v-2.273l-2.161 2.272zM69.322 277.425l1.941.001v-8.068l-1.941 2.041zM91.357 269.626l-.372.392v7.333l1.941.001v-8.908l.372-.391v-5.686l-1.941-.002zM88.603 272.521l-.373.392v4.435l1.941.002v-6.01l.373-.392v-8.584l-1.941-.001zM88.603 287.596l-.373.392v4.435l1.941.002v-6.011l.373-.392v-8.583l-1.941-.001zM69.322 292.499l1.941.002v-8.068l-1.941 2.041zM94.112 281.806l-.373.391V292.427l1.863.002v-11.723l.373-.392v-2.87l-1.863-.002zM74.831 292.503l1.94.002v-13.862l-1.94 2.04zM91.357 284.701l-.372.392v7.332l1.941.002v-8.907l.372-.392v-5.686l-1.941-.002zM66.567 292.497l1.941.002v-5.171l-1.941 2.04zM85.848 290.492l-.373.392v1.537l1.942.001v-3.112l.373-.392v-11.48l-1.942-.002zM65.754 292.497v-2.273l-2.161 2.271zM72.076 292.501l1.941.002v-10.965l-1.941 2.041zM74.831 307.578l1.94.002v-13.862l-1.94 2.041zM72.076 307.576l1.941.001v-10.965l-1.941 2.041zM94.112 296.881l-.373.391v10.23l1.863.001v-11.722l.373-.391v-2.871l-1.863-.002zM88.603 302.671l-.373.392v4.435l1.941.001v-6.01l.373-.391v-8.583l-1.941-.002zM66.567 307.572l1.941.001v-5.17l-1.941 2.04zM85.848 305.566l-.373.392v1.537l1.942.002v-3.112l.373-.392v-11.48l-1.942-.002zM65.754 307.571v-2.273l-2.161 2.271zM91.357 299.776l-.372.392v7.332l1.941.001v-8.907l.372-.392v-5.685l-1.941-.002zM69.322 307.574l1.941.001v-8.066l-1.941 2.039zM74.831 322.655l1.94.002v-13.863l-1.94 2.041zM72.076 322.653l1.941.002V311.69l-1.941 2.04zM94.112 311.958l-.373.392V322.579l1.863.001v-11.722l.373-.392v-2.87l-1.863-.001zM84.387 322.663l.015-.017h-.015l.071-.075h.204v-.214l.373-.391v-14.379l-1.941-.002v15.076zM69.322 322.651l1.941.002v-8.068l-1.941 2.041zM80.339 307.584h1.941v15.076h-1.941zM65.754 322.647v-2.271l-2.161 2.27zM85.848 320.644l-.373.391v1.537l1.942.002v-3.113l.373-.392v-11.48l-1.942-.001zM66.567 322.649l1.941.001v-5.171l-1.941 2.042zM88.603 317.748l-.373.392v4.434l1.941.002v-6.01l.373-.391v-8.583l-1.941-.002zM91.357 314.853l-.372.391V322.576l1.941.002v-8.907l.372-.392v-5.685l-1.941-.001zM94.112 327.034l-.373.392V333.946c.628.057 1.25.111 1.863.165v-8.176l.373-.392v-2.87l-1.863-.002v4.363zM98.435 322.583h-.088l-.016.017-.071.075-1.472-.002v1.548l-.373.392v9.57c.684.059 1.358.116 2.019.171v-11.395l.27-.283h-.27v-.093zM80.339 21.16v30.148l1.941.001V12.145c-.638.298-1.284.593-1.941.885v8.13zM69.322 21.152l1.941.001v-4.428c-.65.245-1.297.485-1.941.721v3.706zM72.076 21.154l1.941.001v-5.492c-.647.255-1.294.506-1.941.752v4.739zM66.567 21.15l1.941.001v-3.408c-.653.237-1.301.47-1.941.696v2.711zM77.585 21.159h.339l-.339.357v14.718h.339l-.339.357v14.718h.339l-.339.357v14.718h.34l-.34.357v14.718h.34l-.34.357v14.717l.339.001-.339.356v14.718h.34l-.34.357v14.718h.34l-.34.357v14.717l.339.001-.339.356v14.718l.339.001-.339.356v14.718h.339l-.339.356v14.718h.34l-.34.357v14.717l.34.001-.34.356v14.719h.339l-.339.357v14.717h.34l-.34.357v14.717l.34.001-.34.357v14.718h.339l-.339.357v14.717h.339l-.339.357v14.717l.339.001-.339.356v14.719h.341l-.341.359v14.717l1.941.002v-15.076l-1.361-.002 1.361.001V13.386c-.641.28-1.289.557-1.941.83v6.943zM88.603 16.249l-.373.392V21.076l1.941.002v-6.01l.373-.392V7.688c-.61.398-1.264.794-1.941 1.189v7.372zM83.094 21.161V307.582h1.292l.015-.016h-.015l.071-.074h.205v-.215l.373-.392v-14.378l-.647-.001.014-.015h-.015l.071-.075h.204v-.214l.373-.393V277.43h-.647l.014-.015h-.016l.071-.075h.204v-.214l.373-.393V262.36h-.647l.014-.016h-.016l.071-.074h.205v-.215l.373-.393v-14.377l-.647-.001.015-.015h-.016l.072-.075h.204v-.214l.373-.393v-14.378l-.647-.001.015-.015h-.016l.072-.075h.204v-.214l.373-.392v-14.379h-.647l.014-.016h-.016l.071-.074h.205v-.215l.373-.392v-14.378l-.647-.001.014-.015h-.015l.071-.075h.204v-.214l.373-.393v-14.378l-.647-.001.014-.015h-.015l.071-.074h.205v-.215l.373-.392v-14.379h-.647l.014-.016h-.016l.071-.075h.205v-.215l.373-.392v-14.377l-.647-.001.014-.015h-.016l.071-.075h.204v-.214l.373-.392v-14.378l-.647-.001.014-.014h-.016l.072-.076h.204v-.214l.373-.392V126.68h-.647l.015-.016h-.016l.071-.075h.205v-.215l.373-.392v-14.378l-.647-.001.015-.015h-.016l.071-.075h.204v-.214l.373-.392v-14.37l-.647-.001.014-.015h-.016l.071-.075h.205v-.215l.373-.392V81.462h-.647l.014-.016h-.015l.071-.074h.205v-.215l.373-.392V66.388h-.647l.014-.015h-.015l.071-.075h.205v-.215l.373-.392V51.313h-.647l.014-.015h-.016l.071-.075h.205v-.215l.373-.392V36.238h-.647l.014-.015h-.016l.071-.075h.204v-.215l.373-.392V21.163h-.647l.014-.015h-.016l.072-.075h.204v-.214l.373-.392v-9.654c-.632.319-1.281.635-1.941.95v9.398zM85.848 19.145l-.373.392V21.075l1.942.002v-3.113l.373-.392V9.348a67.84 67.84 0 01-1.942 1.044v8.753zM65.754 21.149v-2.273l-2.161 2.271zM74.831 21.156l1.941.002v-6.602c-.644.267-1.292.528-1.941.787v5.813zM66.567 36.225l1.941.001v-5.17l-1.941 2.04zM88.603 31.323l-.373.392v4.435l1.941.002v-6.01l.373-.392v-8.583l-1.941-.001zM91.357 28.429l-.372.391V36.152l1.941.001v-8.906l.372-.392v-5.686l-1.941-.001zM74.831 36.231l1.94.002V22.371l-1.94 2.04zM72.076 36.229l1.941.001V25.266l-1.941 2.04zM65.754 36.224v-2.273l-2.161 2.271zM69.322 36.227l1.941.002v-8.068l-1.941 2.04zM85.848 34.22l-.373.391v1.537l1.942.001v-3.112l.373-.391V21.165l-1.942-.001zM94.112 25.533l-.373.392v10.229l1.863.002V24.434l.373-.392v-2.871l-1.863-.001zM91.357 43.503l-.372.392v7.333l1.941.001v-8.907l.372-.392v-5.686l-1.941-.001zM85.848 49.294l-.373.392v1.537l1.942.002v-3.113l.373-.392V36.24l-1.942-.002zM88.603 46.398l-.373.392V51.225l1.941.002v-6.01l.373-.392v-8.583l-1.941-.001zM74.831 51.306l1.94.001V37.445l-1.94 2.04zM94.112 40.608l-.373.392v10.229l1.863.001V39.509l.373-.392v-2.871l-1.863-.001zM71.263 331.391v-1.729l-1.439 1.514 1.439.215zM80.339 332.591c.647.076 1.294.152 1.941.226v-10.155l-1.941-.001v9.93zM77.585 323.017v9.236c.646.081 1.293.161 1.941.239v-9.833l-1.6-.001-.341.359zM83.094 332.909c.648.072 1.295.144 1.941.213v-10.458l-1.941-.001v10.246zM72.076 331.509c.644.092 1.29.184 1.941.273v-5.016l-1.941 2.041v2.702zM74.831 331.893c.645.087 1.292.173 1.941.256v-8.277l-1.941 2.041v5.98zM85.848 333.209c.65.069 1.298.138 1.942.203v-10.746l-1.942-.001v10.544zM91.357 329.93l-.373.392v3.368c.652.063 1.3.123 1.941.183v-5.123l.373-.392v-5.686l-1.941-.002v7.26zM88.603 332.824l-.373.393v.203c.651.065 1.299.13 1.941.191v-1.968l.373-.392v-8.583l-1.941-.001v10.157zM115.774 54.77l1.941-2.041v-1.483l-1.941-.001zM118.529 51.247v.627l.596-.626zM107.512 63.455l1.94-2.04V51.24l-1.94-.002zM113.02 57.664l1.941-2.04v-4.38l-1.941-.001zM110.265 60.561l1.942-2.041v-7.278l-1.942-.001zM113.02 72.739l1.941-2.04v-4.38l-1.941-.001zM118.529 66.322v.627l.596-.626zM115.774 69.845l1.941-2.041v-1.483l-1.941-.001zM107.512 78.529l1.94-2.04V66.315l-1.94-.002zM110.265 75.635l1.942-2.04v-7.278l-1.942-.002zM107.512 93.604l1.94-2.04V81.391l-1.94-.002zM115.774 84.919l1.941-2.04v-1.483l-1.941-.001zM118.529 81.397v.627l.596-.627zM110.265 90.71l1.942-2.041v-7.276l-1.942-.002zM113.02 87.814l1.941-2.041v-4.378l-1.941-.002zM107.512 108.679l1.94-2.039V96.465l-1.94-.001zM115.774 99.994l1.941-2.041v-1.481l-1.941-.002zM118.529 96.472v.627l.596-.626zM110.265 105.784l1.942-2.04v-7.277l-1.942-.001zM113.02 102.889l1.941-2.04v-4.38l-1.941-.001zM115.774 115.069l1.941-2.041v-1.482l-1.941-.001zM118.529 111.547v.627l.596-.627zM110.265 120.859l1.942-2.041v-7.276l-1.942-.002zM113.02 117.964l1.941-2.04v-4.38l-1.941-.001zM107.512 123.754l1.94-2.04V111.54l-1.94-.002zM107.512 138.829l1.94-2.04v-10.175l-1.94-.001zM113.02 133.039l1.941-2.041v-4.379l-1.941-.002zM110.265 135.935l1.942-2.041v-7.278l-1.942-.001zM115.774 130.144l1.941-2.04v-1.483l-1.941-.002zM118.529 126.621v.627l.596-.626zM98.435 126.606v-14.701l.27-.284h-.27V96.83l.27-.283h-.27v-14.79l.27-.283h-.27V66.681l.27-.283h-.27V51.607l.27-.283h-.27V36.533l.27-.283h-.27V23.883a26.864 26.864 0 01-1.229-1.134l.136-.143a26.524 26.524 0 01-.554-.563v.677l-.373.391v13.045l1.93.002-.014.015-.071.075-1.472-.001v1.548l-.373.392v13.045l1.93.001-.014.016-.071.075-1.472-.001v1.549l-.373.392v13.045l1.93.001-.015.016-.071.074-1.472-.001v1.548l-.373.392v13.045l1.93.002-.015.015-.072.076-1.471-.001v1.548l-.373.392v13.045l1.93.001-.014.016-.071.075-1.472-.001v1.549l-.373.392v13.045l1.93.001-.014.015-.071.075-1.472-.001v1.549l-.373.392v13.044l1.93.002-.014.015-.071.075-1.472-.001v1.548l-.373.392v13.045l1.93.002-.014.015-.071.075-1.472-.001v1.549l-.373.392v13.045l1.93.001-.014.015-.071.075-1.472-.001v1.548l-.373.392v13.045l1.93.002-.014.015-.071.075-1.472-.001v1.548l-.373.392v13.045l1.93.001-.015.016-.071.075-1.472-.002v1.549l-.373.392v13.045l1.93.001-.015.015-.071.075-1.472-.001v1.548l-.373.392v13.045l1.93.002-.014.015-.071.075-1.472-.001v1.548l-.373.392v13.045l1.93.001-.014.016-.071.075-1.472-.002v1.549l-.373.392v13.044l1.93.002-.014.015-.071.075-1.472-.002v1.549l-.373.392v13.045l1.93.002-.014.015-.071.075-1.472-.001v1.548l-.373.392V277.37l1.93.002-.014.015-.072.076-1.471-.002v1.548l-.373.392v13.046l1.93.001-.014.015-.071.075-1.472-.002v1.549l-.373.392v13.045l2.019.001v-14.701l.27-.283h-.27V277.748l.27-.283h-.27v-14.792l.27-.283h-.27v-14.792l.27-.283h-.27V232.524l.27-.283h-.27v-14.792l.27-.283h-.27v-14.792l.27-.283h-.27V187.3l.27-.283h-.27v-14.792l.27-.283h-.27V157.15l.27-.283h-.27V142.076l.27-.283h-.27V127.002l.27-.284h-.27v-.112h.005zM118.529 141.696v.627l.596-.626zM115.774 145.219l1.941-2.041v-1.482l-1.941-.002zM107.512 153.904l1.94-2.04v-10.175l-1.94-.001zM110.265 151.009l1.942-2.04v-7.278l-1.942-.001zM113.02 148.113l1.941-2.04v-4.38l-1.941-.001zM113.02 163.188l1.941-2.04v-4.379l-1.941-.001zM107.512 168.979l1.94-2.041v-10.173l-1.94-.002zM118.529 156.771v.627l.596-.627zM110.265 166.084l1.942-2.041v-7.276l-1.942-.002zM115.774 160.293l1.941-2.04v-1.482l-1.941-.001zM115.774 175.368l1.941-2.04v-1.482l-1.941-.002zM118.529 171.846v.627l.596-.626zM113.02 178.264l1.941-2.041v-4.38l-1.941-.001zM107.512 184.054l1.94-2.04v-10.175l-1.94-.001zM110.265 181.159l1.942-2.041v-7.277l-1.942-.001zM110.265 196.233l1.942-2.04v-7.277l-1.942-.001zM113.02 193.338l1.941-2.04v-4.38l-1.941-.001zM115.774 190.443l1.941-2.041v-1.481l-1.941-.002zM118.529 186.921v.627l.596-.626zM107.512 199.128l1.94-2.039v-10.175l-1.94-.001zM113.02 208.413l1.941-2.04v-4.38l-1.941-.002zM115.774 205.518l1.941-2.04v-1.483l-1.941-.001zM118.529 201.996v.627l.596-.627zM110.265 211.309l1.942-2.041v-7.277l-1.942-.002zM107.512 214.203l1.94-2.04v-10.175l-1.94-.001zM107.512 229.278l1.94-2.04v-10.175h-1.94zM113.02 223.488l1.941-2.041v-4.379l-1.941-.002zM110.265 226.383l1.942-2.04v-7.278l-1.942-.001zM118.529 217.07v.627l.596-.626zM115.774 220.593l1.941-2.041v-1.482l-1.941-.002zM110.265 241.458l1.942-2.041v-7.276l-1.942-.001zM113.02 238.563l1.941-2.041v-4.379l-1.941-.002zM115.774 235.668l1.941-2.041v-1.482l-1.941-.001zM107.512 244.353l1.94-2.04v-10.174l-1.94-.002zM118.529 232.146v.626l.596-.626zM118.529 247.22v.628l.596-.627zM113.02 253.638l1.941-2.04v-4.38l-1.941-.002zM110.265 256.533l1.942-2.041v-7.276l-1.942-.002zM115.774 250.742l1.941-2.04v-1.482l-1.941-.002zM107.512 259.428l1.94-2.04v-10.175l-1.94-.001zM115.774 265.817l1.941-2.04v-1.482l-1.941-.002zM118.529 262.295v.627l.596-.626zM107.512 274.503l1.94-2.04v-10.175l-1.94-.001zM110.265 271.607l1.942-2.04v-7.277l-1.942-.001zM113.02 268.712l1.941-2.04v-4.38l-1.941-.001zM118.529 277.37v.627l.596-.627zM115.774 280.892l1.941-2.04v-1.483l-1.941-.001zM107.512 289.578l1.94-2.041v-10.174l-1.94-.002zM110.265 286.683l1.942-2.04v-7.278l-1.942-.002zM113.02 283.787l1.941-2.04v-4.38l-1.941-.002zM115.774 295.967l1.941-2.041v-1.482l-1.941-.002zM118.529 292.445v.626l.596-.626zM110.265 301.758l1.942-2.041v-7.277l-1.942-.002zM107.512 304.652l1.94-2.04v-10.174l-1.94-.001zM113.02 298.862l1.941-2.041v-4.379l-1.941-.002z"/><path opacity=".5" fill="#070708" d="M113.02 42.606v8.623h1.941v-10.68l-1.941 2.041zM107.512 48.396v2.828l1.94.002V46.34l-1.94 2.04zM110.265 45.501v5.725l1.942.002V43.444l-1.942 2.041zM104.823 51.222l1.875.002v-1.99l-1.89 1.988zM129.546 62.166l1.942-2.041v-8.884l-1.942-.002zM132.301 59.271l1.941-2.041v-5.987l-1.941-.001zM126.792 65.061l1.941-2.04V51.239l-1.941-.002zM137.81 53.48l2.124-2.232-2.124-.002zM135.056 56.376l1.941-2.041v-3.09l-1.941-.001zM107.512 63.471v2.828l1.94.002v-4.886l-1.94 2.04zM104.823 66.297l1.875.001V64.31l-1.89 1.987zM115.774 54.785v11.521l1.941.001V52.729l-1.941 2.041zM110.265 60.576v5.725l1.942.002V58.52l-1.942 2.041zM113.02 57.681v8.622l1.941.002V55.624l-1.941 2.04zM135.056 71.45l1.941-2.04v-3.09l-1.941-.001zM126.792 80.136l1.941-2.04V66.314l-1.941-.001zM132.301 74.346l1.941-2.04v-5.988l-1.941-.001zM137.81 68.556l2.124-2.233-2.124-.002zM129.546 77.241l1.942-2.041v-8.884l-1.942-.002zM107.512 78.546v2.828l1.94.001v-4.886l-1.94 2.04zM110.265 75.651v5.725l1.942.001v-7.782l-1.942 2.04zM104.823 81.372l1.875.001v-1.988l-1.89 1.987zM115.774 69.86v11.52l1.941.002V67.804l-1.941 2.041zM113.02 72.756v8.622l1.941.002V70.699l-1.941 2.04zM132.301 89.42l1.941-2.04v-5.986l-1.941-.002zM126.792 95.211l1.941-2.041V81.389l-1.941-.001zM137.81 83.63l2.124-2.233-2.124-.001zM129.546 92.315l1.942-2.041v-8.883l-1.942-.001zM135.056 86.525l1.941-2.041v-3.088l-1.941-.002zM115.774 84.936v11.519l1.941.001V82.879l-1.941 2.04zM110.265 90.727v5.723l1.942.002v-7.783l-1.942 2.041zM104.823 96.446l1.875.002V94.459l-1.89 1.987zM107.512 93.621v2.827l1.94.002v-4.886l-1.94 2.04zM113.02 87.83v8.623l1.941.001V85.773l-1.941 2.041zM132.301 104.495l1.941-2.04v-5.987l-1.941-.001zM137.81 98.705l2.124-2.232-2.124-.002zM135.056 101.601l1.941-2.041v-3.089l-1.941-.002zM126.792 110.286l1.941-2.041V96.464l-1.941-.002zM129.546 107.391l1.942-2.041v-8.884l-1.942-.002zM115.774 100.01v11.519l1.941.002V97.953l-1.941 2.041zM113.02 102.905v8.622l1.941.002v-10.68l-1.941 2.04zM107.512 108.695v2.828l1.94.001V106.64l-1.94 2.039zM110.265 105.801v5.724l1.942.002v-7.783l-1.942 2.04zM104.823 111.521l1.875.001v-1.988l-1.89 1.987zM129.546 122.465l1.942-2.04v-8.884l-1.942-.002zM135.056 116.675l1.941-2.04v-3.09l-1.941-.002zM126.792 125.36l1.941-2.04v-11.781l-1.941-.002zM132.301 119.569l1.941-2.04v-5.986l-1.941-.002zM137.81 113.779l2.124-2.232-2.124-.002zM113.02 117.98v8.623l1.941.001v-10.68l-1.941 2.04zM110.265 120.876v5.725l1.942.001V118.818l-1.942 2.041zM104.823 126.596l1.875.002v-1.989l-1.89 1.987zM115.774 115.085v11.519l1.941.001v-13.577l-1.941 2.041zM107.512 123.771v2.827l1.94.002v-4.886l-1.94 2.04zM126.792 140.436l1.941-2.04v-11.783l-1.941-.002zM137.81 128.854l2.124-2.232-2.124-.002zM129.546 137.54l1.942-2.04v-8.885l-1.942-.001zM135.056 131.75l1.941-2.041v-3.089l-1.941-.002zM132.301 134.645l1.941-2.041v-5.987l-1.941-.001zM110.265 135.95v5.725l1.942.002V133.894l-1.942 2.041zM107.512 138.846v2.827l1.94.002v-4.886l-1.94 2.04zM104.823 141.671l1.875.002v-1.989l-1.89 1.987zM113.02 133.055v8.623l1.941.001v-10.681l-1.941 2.041zM115.774 130.16v11.52l1.941.002V128.104l-1.941 2.04zM126.792 155.51l1.941-2.04v-11.782l-1.941-.001zM132.301 149.72l1.941-2.04v-5.988l-1.941-.001zM137.81 143.93l2.124-2.233-2.124-.002zM135.056 146.825l1.941-2.041v-3.09l-1.941-.001zM129.546 152.615l1.942-2.041v-8.884l-1.942-.002zM115.774 145.235v11.519l1.941.002v-13.578l-1.941 2.041zM104.823 156.746l1.875.001v-1.988l-1.89 1.987zM107.512 153.92v2.828l1.94.001v-4.885l-1.94 2.04zM110.265 151.025v5.725l1.942.002V148.969l-1.942 2.04zM113.02 148.13v8.622l1.941.002v-10.681l-1.941 2.04zM126.792 170.585l1.941-2.04v-11.782l-1.941-.001zM135.056 161.899l1.941-2.041v-3.088l-1.941-.002zM132.301 164.794l1.941-2.039v-5.987l-1.941-.002zM137.81 159.004l2.124-2.233h-2.124zM129.546 167.689l1.942-2.041v-8.882l-1.942-.002zM115.774 160.31v11.519l1.941.001v-13.577l-1.941 2.04zM110.265 166.101v5.723l1.942.002v-7.783l-1.942 2.041zM107.512 168.995v2.827l1.94.002v-4.886l-1.94 2.041zM104.823 171.82l1.875.002V169.833l-1.89 1.987zM113.02 163.205v8.622l1.941.001v-10.68l-1.941 2.04zM126.792 185.66l1.941-2.041v-11.781l-1.941-.002zM137.81 174.079l2.124-2.232-2.124-.002zM135.056 176.975l1.941-2.041v-3.089l-1.941-.002zM129.546 182.765l1.942-2.041v-8.884l-1.942-.002zM132.301 179.869l1.941-2.04v-5.987l-1.941-.001zM107.512 184.069v2.828l1.94.002v-4.885l-1.94 2.04zM110.265 181.175v5.725l1.942.001v-7.783l-1.942 2.041zM115.774 175.384v11.52l1.941.001v-13.577l-1.941 2.04zM113.02 178.279v8.623l1.941.001v-10.68l-1.941 2.041zM104.823 186.896l1.875.001V184.908l-1.89 1.988zM132.301 194.944l1.941-2.04v-5.987l-1.941-.001zM135.056 192.049l1.941-2.04v-3.089l-1.941-.002zM137.81 189.154l2.124-2.232-2.124-.002zM126.792 200.734l1.941-2.04v-11.781l-1.941-.002zM129.546 197.84l1.942-2.041v-8.884l-1.942-.002zM113.02 193.354v8.623l1.941.002v-10.681l-1.941 2.04zM110.265 196.25v5.725l1.942.001v-7.783l-1.942 2.04zM115.774 190.459v11.52l1.941.001v-13.578l-1.941 2.041zM107.512 199.145v2.828l1.94.001v-4.885l-1.94 2.039zM104.823 201.971l1.875.001v-1.989l-1.89 1.988zM132.301 210.02l1.941-2.041v-5.987l-1.941-.002zM126.792 215.81l1.941-2.04v-11.783l-1.941-.001zM129.546 212.915l1.942-2.041v-8.884l-1.942-.002zM137.81 204.229l2.124-2.233-2.124-.001zM135.056 207.124l1.941-2.04v-3.09l-1.941-.001zM113.02 208.43v8.622l1.941.001v-10.68l-1.941 2.04zM107.512 214.22v2.827l1.94.002v-4.886l-1.94 2.04zM104.823 217.045l1.875.002v-1.989l-1.89 1.987zM115.774 205.534v11.52l1.941.002v-13.578l-1.941 2.04zM110.265 211.325v5.725l1.942.001v-7.783l-1.942 2.041zM129.546 227.989l1.942-2.041v-8.884l-1.942-.001zM137.81 219.304l2.124-2.233-2.124-.002zM135.056 222.199l1.941-2.041v-3.09l-1.941-.001zM132.301 225.094l1.941-2.04v-5.988l-1.941-.001zM126.792 230.885l1.941-2.041v-11.781l-1.941-.002zM104.823 232.12l1.875.001v-1.988l-1.89 1.987zM110.265 226.399v5.725l1.942.002V224.343l-1.942 2.04zM113.02 223.504v8.622l1.941.002v-10.681l-1.941 2.041zM115.774 220.609v11.52l1.941.001v-13.578l-1.941 2.041zM107.512 229.294v2.828l1.94.002v-4.886l-1.94 2.04zM132.301 240.169l1.941-2.04v-5.987l-1.941-.002zM135.056 237.273l1.941-2.041v-3.088l-1.941-.001zM137.81 234.378l2.124-2.232-2.124-.001zM126.792 245.959l1.941-2.04v-11.781l-1.941-.002zM129.546 243.063l1.942-2.04v-8.883l-1.942-.002zM107.512 244.369v2.828l1.94.001v-4.885l-1.94 2.04zM113.02 238.579v8.622l1.941.001v-10.68l-1.941 2.041zM104.823 247.194l1.875.002V245.207l-1.89 1.987zM115.774 235.684v11.519l1.941.002v-13.578l-1.941 2.041zM110.265 241.475v5.724l1.942.001v-7.783l-1.942 2.041zM129.546 258.139l1.942-2.04v-8.884l-1.942-.002zM126.792 261.034l1.941-2.04v-11.782l-1.941-.001zM132.301 255.243l1.941-2.04v-5.986l-1.941-.002zM137.81 249.453l2.124-2.232-2.124-.002zM135.056 252.349l1.941-2.041v-3.089l-1.941-.002zM104.823 262.27l1.875.001v-1.988l-1.89 1.987zM107.512 259.444v2.827l1.94.002v-4.885l-1.94 2.04zM115.774 250.759v11.519l1.941.002v-13.578l-1.941 2.04zM110.265 256.55v5.724l1.942.001v-7.783l-1.942 2.041zM113.02 253.654v8.622l1.941.001v-10.679l-1.941 2.04zM132.301 270.318l1.941-2.04v-5.987l-1.941-.001zM137.81 264.528l2.124-2.232-2.124-.002zM129.546 273.214l1.942-2.041v-8.884l-1.942-.001zM126.792 276.109l1.941-2.041v-11.781l-1.941-.002zM135.056 267.424l1.941-2.041v-3.089l-1.941-.002zM104.823 277.345l1.875.001V275.357l-1.89 1.988zM107.512 274.519v2.828l1.94.001v-4.885l-1.94 2.04zM110.265 271.624v5.725l1.942.002v-7.784l-1.942 2.04zM113.02 268.729v8.622l1.941.002v-10.681l-1.941 2.04zM115.774 265.834v11.52h1.941v-13.577l-1.941 2.04zM126.792 291.184l1.941-2.04v-11.783l-1.941-.001zM132.301 285.394l1.941-2.04v-5.988l-1.941-.002zM137.81 279.604l2.124-2.234-2.124-.001zM135.056 282.498l1.941-2.04v-3.09l-1.941-.001zM129.546 288.289l1.942-2.041v-8.884l-1.942-.002zM113.02 283.804v8.622l1.941.002v-10.681l-1.941 2.04zM107.512 289.594v2.828l1.94.002V287.537l-1.94 2.041zM104.823 292.42l1.875.001v-1.988l-1.89 1.987zM110.265 286.699v5.725l1.942.002V284.643l-1.942 2.04zM115.774 280.908v11.52l1.941.002v-13.578l-1.941 2.04zM137.81 294.678l2.124-2.233-2.124-.002zM132.301 300.468l1.941-2.04v-5.987l-1.941-.002zM129.546 303.363l1.942-2.041v-8.884h-1.942zM135.056 297.573l1.941-2.041v-3.089l-1.941-.002zM126.792 306.258l1.941-2.04v-11.781l-1.941-.001zM113.02 298.878v8.623l1.941.001v-10.681l-1.941 2.041zM107.512 304.668v2.828l1.94.002v-4.886l-1.94 2.04zM104.823 307.494l1.875.002v-1.989l-1.89 1.987zM115.774 295.983v11.52l1.941.001v-13.578l-1.941 2.041zM110.265 301.773v5.725l1.942.002v-7.783l-1.942 2.041z"/><path fill="#070708" d="M102.002 307.51h1.941v15.076h-1.941zM115.774 311.044l1.941-2.04v-1.483l-1.941-.001zM110.265 316.834l1.942-2.04v-7.277l-1.942-.001zM113.02 313.939l1.941-2.041v-4.378l-1.941-.002zM107.512 319.729l1.94-2.04v-10.174l-1.94-.001zM99.248 307.508h1.941v15.076h-1.941zM104.756 322.587h.052l.015-.016h-.015l1.89-1.987v-13.071l-1.942-.001zM118.529 307.522v.626l.596-.626zM98.435 307.507l-.088-.001-.016.016-.071.076-1.472-.001v1.548l-.372.391v13.045l2.019.001v-14.701l.269-.283h-.269zM115.774 326.121l1.941-2.041v-1.482l-1.941-.001zM118.529 322.599v.627l.596-.626z"/><path opacity=".5" fill="#070708" d="M135.056 312.65l1.941-2.041v-3.089l-1.941-.001zM129.546 318.44l1.942-2.041v-8.883l-1.942-.001zM137.81 309.755l2.124-2.233-2.124-.001zM126.792 321.336l1.941-2.041v-11.781l-1.941-.002zM124.038 322.586l1.563.001.378-.397v-14.678l-1.941-.002zM119.125 307.522l-.596.626v14.434l1.941.001v-15.075l-1.33-.002zM132.301 315.545l1.941-2.04v-5.986l-1.941-.002zM121.283 307.509h1.941v15.075h-1.941zM115.774 311.061v11.519l1.941.001v-13.577l-1.941 2.04zM104.823 322.571l1.875.001v-1.988l-1.89 1.987zM113.02 313.955v8.622l1.941.002v-10.681l-1.941 2.041zM107.512 319.746v2.827l1.94.002v-4.886l-1.94 2.04zM110.265 316.851v5.724l1.942.002v-7.783l-1.942 2.04zM135.056 327.728l1.941-2.041v-3.09l-1.941-.001zM137.81 324.832l2.124-2.232-2.124-.002zM115.774 326.137v9.431c.643.052 1.291.101 1.941.146V324.08l-1.941 2.041v.016z"/><path fill="#070708" d="M92.926 17.12a17.522 17.522 0 01-1.361-3.517l.273-.287c-.913-3.731-.197-6.37-.197-6.37-.09.064-.191.127-.283.191v6.216l-.373.393v7.332l1.941.001V17.12zM95.602 21.068a21.362 21.362 0 01-1.863-2.533v2.545l1.863.001v-.013zM102.002 36.16V307.505l1.941.002V27.7a39.507 39.507 0 01-1.941-1.174v9.634zM99.248 36.157V307.502l1.941.002V25.992a33.19 33.19 0 01-1.941-1.439v11.604zM104.756 36.162V307.506h.051l.015-.016h-.015l1.891-1.987v-13.071l-1.889-.001.014-.015h-.015l1.891-1.987v-13.071l-1.889-.002.014-.015h-.016l1.891-1.987v-13.071l-1.889-.001.014-.016h-.016l1.891-1.986v-13.072l-1.89-.001.015-.016h-.016l1.891-1.987v-13.07l-1.89-.002.015-.015h-.016l1.891-1.987v-13.071l-1.889-.001.014-.016h-.016l1.891-1.987v-13.071l-1.89-.001.014-.015h-.015l1.891-1.987V186.91l-1.89-.002.014-.015h-.015l1.891-1.987v-13.071l-1.889-.001.014-.016h-.016l1.891-1.987V156.76l-1.889-.001.014-.015h-.016l1.891-1.987v-13.071l-1.889-.002.014-.015h-.016l1.891-1.987v-13.071l-1.89-.001.015-.016h-.016l1.891-1.986v-13.071l-1.89-.002.015-.015h-.016l1.891-1.987v-13.07l-1.889-.002.014-.015h-.016l1.891-1.987V81.388l-1.89-.001.014-.015h-.015l1.891-1.987V66.313l-1.89-.002.014-.015h-.015l1.891-1.987V51.238l-1.889-.002.014-.015h-.016l1.891-1.987V36.163l-1.889-.001.014-.016h-.016l1.891-1.986v-5.019a44.972 44.972 0 01-1.942-.985v8.006zM107.512 33.305l1.94-2.039v-.9a52.655 52.655 0 01-1.94-.846v3.785zM118.529 36.173v.626l.596-.626zM110.265 45.485l1.942-2.041v-7.276l-1.942-.002zM113.02 42.59l1.941-2.041V36.17l-1.941-.002zM107.512 48.38l1.94-2.04V36.165l-1.94-.001zM115.774 39.694l1.941-2.04v-1.482l-1.941-.001z"/><path opacity=".5" fill="#070708" d="M126.792 33.853v1.059l.953-1.001c-.32-.019-.641-.037-.953-.058zM110.265 30.704v5.447l1.942.001v-4.776c-1.207-.369-1.829-.625-1.829-.625l-.113-.047zM113.02 36.153l1.941.002v-4.033a50.305 50.305 0 01-1.941-.507v4.538zM121.283 36.158V307.503l1.941.002V33.533a79.478 79.478 0 01-1.941-.239v2.864zM118.529 36.158h.61l-.014.015-.596.626v14.434h.61l-.014.016-.596.626v14.434h.61l-.014.016-.596.626v14.433l.61.001-.014.015-.596.627V96.46h.61l-.014.016-.596.626v14.434h.61l-.014.015-.597.627v14.433l.61.001-.014.015-.597.626v14.434l.61.001-.014.015-.596.626v14.434h.61l-.014.015-.596.627v14.433l.61.001-.014.015-.596.626v14.434h.61l-.014.016-.596.626v14.433l.61.001-.014.015-.596.627v14.433l.61.001-.014.015-.596.626v14.434h.61l-.014.016-.597.626v14.433l.61.001-.014.015-.597.627v14.433l.61.001-.014.015-.596.626v14.434h.61l-.014.015-.596.627v14.433l.61.001-.014.015-.596.626v14.434l1.941.002V33.176a69.147 69.147 0 01-1.941-.315v3.297zM124.038 36.16V307.506l1.563.001.378-.396v-14.679h-.376l.376-.396v-14.68h-.376l.376-.396v-14.679h-.376l.376-.396V247.21h-.377l.377-.396v-14.679h-.377l.377-.396V217.06h-.376l.376-.396v-14.679h-.377l.377-.396V186.91l-.377-.001.377-.396v-14.679h-.376l.376-.396v-14.679h-.376l.376-.396v-14.679l-.376-.001.376-.396v-14.679h-.377l.377-.396v-14.678l-.377-.001.377-.396v-14.68h-.376l.376-.396V81.387h-.377l.377-.396V66.312h-.377l.377-.396V51.237l-.376-.001.376-.396V36.162h-.376l.376-.396v-1.975a81.727 81.727 0 01-1.941-.172v2.541zM115.774 36.155l1.941.002v-3.445a64.104 64.104 0 01-1.941-.401v3.844zM104.823 36.146l1.875.002V34.16l-1.89 1.986zM107.512 33.321v2.827l1.94.002V31.266l-1.94 2.039zM135.056 41.301l1.941-2.041v-3.089l-1.941-.002zM129.546 47.091l1.942-2.04v-8.884l-1.942-.002zM126.792 49.986l1.941-2.04V36.164l-1.941-.001zM137.81 38.405l2.124-2.232-2.124-.002zM132.301 44.195l1.941-2.04v-5.986l-1.941-.002zM115.774 39.711V51.23l1.941.001V37.654l-1.941 2.04z"/><path fill="#070708" d="M113.02 329.016l1.941-2.04v-4.38l-1.941-.001zM110.265 331.911l1.942-2.041v-7.276l-1.942-.002zM104.756 334.847l1.942.14V322.59l-1.942-.002v12.259zM99.248 334.419l1.941.156v-11.99l-1.941-.001v11.835zM102.002 334.639c.665.052 1.313.101 1.941.147v-12.199l-1.941-.001v12.053zM107.512 334.806l1.94-2.04v-10.174l-1.94-.002z"/><path opacity=".5" fill="#070708" d="M129.546 333.518l1.942-2.041v-8.884l-1.942-.002zM128.733 334.372v-11.781l-1.941-.002v13.75l.069.001.179-.188 1.693-1.78zM132.301 330.622l1.941-2.04v-5.987l-1.941-.001zM121.283 335.932c.645.033 1.292.063 1.941.092v-13.438l-1.941-.001v13.347zM124.038 336.055c.645.024 1.292.047 1.941.066v-13.533l-1.941-.001v13.468zM119.125 322.6l-.596.626v12.543c.644.042 1.291.081 1.941.117v-13.302l-1.33-.001-.015.017zM110.265 331.928v3.3c.714.047 1.365.088 1.942.123V329.87l-1.942 2.041v.017zM113.02 329.032v6.368c.911.055 1.574.092 1.941.111V326.974l-1.941 2.04v.018zM107.512 334.822v.221c.684.048 1.332.092 1.94.132V332.765l-1.94 2.04v.017z"/></svg>