<svg xmlns="http://www.w3.org/2000/svg" width="267.003" height="337.412" viewBox="23.763 312 267.003 337.412"><path fill="none" d="M290.243 450.513c-.864-13.883-2.9-44.825-2.9-44.825-.617-17.57-6.016-31.993-12.726-42.513-9.039-14.16-19.961-21.41-19.961-21.41-11.137-6.51-17.061-7.08-28.352-9.98-8.791-2.258-20.019-8.272-24.562-10.827-.454-1.063-2.373-1.865-3.297-2.735-1.557-1.467-1.426-2.082-3.867-2.718-4.528-1.18-12.605-2.255-17.936-2.22-2.642.017-3.538-.417-6.185-.405-2.203.009-4.411.025-6.611.023-2.364-.002-3.588-.359-6.063-.401H156.624c-4.062.042-7.631.409-12.149.385-6.569-.035-18.069 1.026-24.201 2.544-2.664.66-2.349.991-3.987 2.603-1.003.986-3.233 1.959-3.553 3.109-12.867 7.9-39.001 15.271-39.001 15.271-11.568 3.332-13.883 5.646-13.883 5.646l.006.022c-6.675 4.612-12.716 11.563-12.716 11.563-19.235 18.217-20.531 60.59-20.531 60.59-.293 16.783-2.313 36.003-2.313 36.003 18.51 9.98 46.275 9.842 46.275 9.842 1.296-.433 1.157-3.039 1.157-3.039 0-7.234 1.157-12.587 1.157-12.587.03-9.872.447-18.665.154-21.396.05.722.067 1.831.064 3.237.003-1.403-.015-2.514-.064-3.237-.063-.786-.154-1.141-.293-.879l1.444-4.75.422 1.264c2.606 9.549 2.175 27.041 2.175 27.041.586 32.825 1.589 45.844 1.589 45.844.139 9.842 1.743 17.646 1.743 17.646 2.313 34.137.293 61.902.293 61.902-3.332 35.139-9.456 64.153-9.842 65.218l-.386 1.064c9.256 7.713 68.644 10.798 68.644 10.798 41.463 3.471 99.693-6.941 99.693-6.941 4.442-1.357 5.6-3.856 5.6-3.856-15.811-86.768-9.456-128.23-9.456-128.23 1.743-10.798 3.085-50.133 3.085-50.133.386-4.828.201-10.227.201-10.227-1.126-19.146 2.321-30.612 2.505-31.208 2.06 4.026 1.629 25.824 1.629 25.824-.139 1.882.293 4.628.293 4.628.864 6.37.586 10.998.586 10.998 10.258 4.903 47.279-8.548 47.279-8.548z"/></svg>