<svg xmlns="http://www.w3.org/2000/svg" width="273.843" height="337.41" viewBox="309.191 313.191 273.843 337.41"><path fill="none" d="M582.491 452.256s-1.435-19.097-2.453-35.293c0 0 1.728-29.647-15.626-56.117 0 0-5.367-6.493-16.23-16.269.013.284.031.733.054 1.337h-67.818v-1.496H411.22v1.496h-66.372c.282-.99.628-1.872 1.046-2.622 0 0 5.517-2.687 11.182-4.782h54.145v1.435h69.197v-1.435h55.241c-7.003-2.772-12.91-4.427-12.91-4.427-5.126-1.04-10.593-2.95-15.545-4.998h-26.786v-1.496H411.22v1.496h-26.209c5.352-2.158 10.839-4.65 15.7-7.404h10.509v1.435h69.197v-1.435h11.392a80.805 80.805 0 01-1.376-.771c-1.45-1.157-7.42-2.221-7.42-2.221H410.607c-3.471.2-7.034 1.064-7.034 1.064-16.782 10.613-44.548 17.94-44.548 17.94-6.371 2.128-12.884 5.12-12.884 5.12l-.613.448s-4.535 4.921-9.055 8.376c0 0-21.688 16.197-23.91 59.002l-.293 7.805-.586 6.371s-.185 7.913-.863 14.947c0 0-.294 14.067-.973 15.04 0 0 11.184 10.504 38.379 11.568 0 0 6.756.201 9.934-2.406 0 0-.216-1.928.077-7.034 0 0 .401-4.828.787-8.776 0 0-.864-13.683.679-23.909 0 0-.293-1.45 1.249-1.203 2.9 7.805 3.471 27.333 3.471 27.333 2.313 27.766 5.646 66.529 5.646 66.529 3.471 52.061-7.527 108.179-7.527 108.179-.694 4.396-1.589 8.098-1.589 8.098 1.357 13.111 27.766 14.562 27.766 14.562 50.61 4.242 102.578.586 102.578.586 9.14-.177 15.907-.977 20.813-1.912h-30.936v1.465h-69.814v1.258a556.377 556.377 0 01-22.275-1.396s-18.665-1.027-25.416-9.147h47.691v1.882h69.814v1.466h44.001c5.548-3.143 6.521-7.682 6.521-7.682.448-1.18-.293-3.598-.667-4.674h-49.855v1.465h-69.908v1.929h-49.899c.191-.817.94-4.096 1.542-7.897 0 0 .228-1.164.606-3.302h47.751v1.867h69.908v1.465h48.992a936.735 936.735 0 01-1.981-12.355h-47.011v1.48h-69.814v1.897h-46.89a517.877 517.877 0 001.686-11.198h45.204v1.896h69.814v1.45h46.335a956.997 956.997 0 01-1.757-12.371h-44.578v1.496h-69.814v1.913H366.91c.449-3.478.898-7.228 1.329-11.199h43.122v1.882h69.814v1.435h43.984a839.758 839.758 0 01-1.519-12.355h-42.466v1.496H411.36v1.913h-42.541c.352-3.595.681-7.34.974-11.198h41.567v1.882h69.814v1.435h41.969c-.149-1.4-.224-2.16-.224-2.16a254.847 254.847 0 01-.646-8.808h-41.146v1.913h-70.633v-1.913h-40.18c.146-2.436.277-4.906.388-7.404h39.792v-1.882h70.633v1.882h40.81c-.109-3.21-.174-6.37-.204-9.425h-40.697v1.928h-70.633v-1.928h-39.387c.054-2.453.087-4.924.094-7.404h39.293v-1.866h70.633v1.866h40.687c.022-3.402.081-6.571.155-9.409h-40.75v1.913h-70.633V530h-39.479a326.51 326.51 0 00-.26-7.404h39.738v-1.882h70.633v1.882h41c.164-3.93.314-6.263.314-6.263a242.5 242.5 0 00.393-3.162h-41.707v1.913h-70.633v-1.913h-40.379c-.161-1.879-.378-4.402-.634-7.404h41.013v-1.882h70.633v1.882h42.515c.309-3.043.608-6.227.893-9.425h-43.407v1.913h-70.633v-1.913h-41.818l-.631-7.404h42.449v-1.882h70.633v1.882h44.041c.215-2.608.417-5.146.602-7.543h-45.213v-1.913H410.37v-1.465h-43.255l-.379-4.474h43.634v-1.465h70.186v-1.882h46.04c.241-3.432.379-5.538.379-5.538l.008-.077h-46.519v-1.928H410.37v-1.466h-44.677l-.375-4.474h45.052v-1.465h70.094v-1.867h47.563c.159-1.948.306-3.842.437-5.63h-47.908v-1.913H410.37v-1.48h-45.879a206.064 206.064 0 00-.33-4.474h46.209v-1.449h70.186v-1.883h48.648c.056-.956.085-1.496.085-1.496.166-1.521.379-2.897.614-4.134h-49.348v-1.913H410.37v-1.48h-47.839c-.35-1.702-.75-3.235-1.209-4.474h49.048v-1.449h70.186v-1.882h53.972c-.631 1.253-1.26 2.383-1.88 3.331 0 0-.096.185-.252.544.029.097.278.955.626 3.575 0 0 .371 7.666.51 21.256 0 0 .586 7.234.802 15.117 0 0 .94 2.822 7.019 2.745 0 0 16.845 1.65 38.532-8.9-.001.001 3.038-2.02 2.606-5.136zm-45.435-38.162h-56.5v-1.912H410.37v-1.496h-55.336a128.925 128.925 0 01-1.906-4.475h57.242v-1.434h70.186v-1.883h60.582c-1.234 3.72-2.63 7.644-4.082 11.2zm6.156-17.708h-62.795v-1.466H411.22v1.466h-61.383a306.592 306.592 0 01-1.644-7.404h63.026v1.466h69.197v-1.466h64.967a315.78 315.78 0 01-2.171 7.404zm3.907-16.829h-66.702v-1.465H411.22v1.465h-64.839a234.13 234.13 0 01-1.176-7.404h66.015v1.465h69.197v-1.465h67.427c-.182 2.488-.42 4.979-.725 7.404zm1.187-16.814h-67.889v-1.481H411.22v1.481h-67.079c-.206-2.573-.323-5.068-.319-7.404h67.398v1.45h69.197v-1.45h67.985c.003 2.267-.023 4.768-.096 7.404z"/><path d="M410.54 640.476h.818v-1.882h-47.691c6.751 8.12 25.416 9.147 25.416 9.147a556.493 556.493 0 0022.275 1.396v-1.258h-.818v-7.403z"/><path d="M480.603 641.941h.57v-1.465H410.54v7.404h70.633v-1.465h-.57zM410.54 623.647h.725v-1.867h-47.751c-.379 2.138-.606 3.302-.606 3.302a117.914 117.914 0 01-1.542 7.897h49.899v-1.929h-.725v-7.403zM410.54 606.833h.818v-1.896h-45.204a510.781 510.781 0 01-1.686 11.198h46.89v-1.897h-.818v-7.405zM410.54 590.004h.818v-1.882h-43.122a555.73 555.73 0 01-1.329 11.199h44.451v-1.913h-.818v-7.404zM410.54 573.176h.818v-1.882h-41.567a515.63 515.63 0 01-.974 11.198h42.541v-1.913h-.818v-7.403z"/><path d="M480.603 608.283h.57v-1.45H410.54v7.404h70.633v-1.48h-.57zM480.603 591.438h.57v-1.434H410.54v7.404h70.633v-1.496h-.57zM480.603 574.61h.57v-1.434H410.54v7.403h70.633v-1.496h-.57zM480.603 625.112h.57v-1.465H410.54v7.404h70.633v-1.465h-.57zM480.603 641.941v4.474h31.506c8.341-1.592 11.288-3.579 11.288-3.579a17.943 17.943 0 001.777-.895h-44.571z"/><path d="M480.603 625.112v4.474h50.425a16.12 16.12 0 00-.197-.54 991.328 991.328 0 01-.666-3.934h-49.562zM480.603 608.283v4.474h47.581c-.233-1.522-.459-3.014-.676-4.474h-46.905zM480.603 591.438v4.474h45.148c-.21-1.555-.408-3.048-.594-4.474h-44.554zM480.603 574.61v4.473h43.036a583.65 583.65 0 01-.497-4.473h-42.539zM480.603 556.238h.523v-1.882h-70.633v1.882h.727v7.405h-.727v1.913h70.633v-1.913h-.523z"/><path d="M480.603 556.238v7.404H522.272a323.371 323.371 0 01-.336-7.404H480.603zM411.22 556.238h-40.519c-.11 2.498-.241 4.969-.388 7.404h40.907v-7.404zM480.603 539.409h.431v-1.866h-70.632v1.866h.818v7.404h-.818v1.928h70.632v-1.928h-.431zM480.603 522.596h.523v-1.882h-70.633v1.882h.727V530h-.727v1.913h70.633V530h-.523zM480.603 505.767h.523v-1.882h-70.633v1.882h.727v7.404h-.727v1.913h70.633v-1.913h-.523zM480.603 488.938h.523v-1.882h-70.633v1.882h.727v7.404h-.727v1.913h70.633v-1.913h-.523z"/><path d="M480.603 522.596V530h41.273c.074-2.836.163-5.344.25-7.404h-41.523zM411.22 522.596H370.755c.115 2.466.201 4.937.26 7.404H411.221v-7.404zM480.603 505.767v7.404H522.833c.273-2.305.544-4.801.808-7.404H480.603zM411.22 505.767H369.48c.256 3.002.473 5.525.634 7.404H411.22v-7.404zM480.603 488.938v7.404h43.93c.222-2.484.434-4.972.634-7.404h-44.564zM411.22 488.938H368.044l.631 7.404H411.22v-7.404zM480.603 539.409v7.404H521.732a459.866 459.866 0 01-.011-7.404H480.603zM411.22 539.409h-40.111c-.007 2.48-.04 4.951-.094 7.404h40.205v-7.404zM480.556 472.078h.447v7.403h-.447v1.913h45.213c.338-4.377.62-8.272.827-11.198h-46.04v1.882z"/><path d="M481.003 472.078H410.37v1.465h.85v4.474h-.85v1.464H481.003zM480.464 455.249h.539v7.404h-.539v1.928h46.519c.394-3.669.743-7.525 1.045-11.199h-47.563v1.867zM480.556 438.436h.447v7.403h-.447v1.913h47.908c.365-4.968.618-9.1.74-11.199h-48.648v1.883zM534.528 419.725h-53.972v1.882h.447v7.403h-.447v1.913h49.348c.989-5.196 2.378-7.867 2.378-7.867.202-.31.405-.641.609-.985-.174.489-.342.988-.501 1.51l.006.02a9.75 9.75 0 01.252-.544c.62-.95 1.249-2.079 1.88-3.332zM480.556 404.777h.447v7.404h-.447v1.912h56.5c1.452-3.556 2.848-7.479 4.082-11.199h-60.582v1.883z"/><path d="M481.003 438.436H410.37v1.449h.85v4.473h-.85v1.481H481.003zM481.003 421.606H410.37v1.45h.85v4.473h-.85v1.481H481.003zM481.003 404.777H410.37v1.434h.85v4.475h-.85v1.496H481.003zM481.003 455.249H410.37v1.465h.85v4.474h-.85v1.465h70.633zM411.22 473.543h-44.484l.379 4.474H411.22v-4.474z"/><path d="M411.22 456.714h-45.902l.375 4.474h45.527v-4.474zM411.22 439.885H364.161c.136 1.597.244 3.112.33 4.474h46.729v-4.474zM411.22 423.056h-49.898c.459 1.238.859 2.771 1.209 4.474h48.689v-4.474zM411.22 406.211h-58.092a128.925 128.925 0 001.906 4.475h56.186v-4.475zM410.37 390.447h.85v-1.466h-63.026a297.143 297.143 0 001.644 7.404h61.383v-1.466h-.85v-4.472zM410.37 356.789h.85v-1.45h-67.398c-.004 2.336.113 4.832.319 7.404h67.079v-1.481h-.85v-4.473zM410.37 339.944h.85v-1.435h-54.145c-5.665 2.096-11.182 4.782-11.182 4.782-.418.75-.764 1.632-1.046 2.622h66.372v-1.496h-.85v-4.473zM410.37 323.115h.85v-1.435h-10.509c-4.861 2.754-10.349 5.247-15.7 7.404h26.209v-1.496h-.85v-4.473zM410.37 373.617h.85v-1.465h-66.015c.356 2.519.758 5.012 1.176 7.404h64.839v-1.465h-.85v-4.474z"/><path d="M411.22 390.447h-.85v4.473h70.047v-4.473zM411.22 373.617h-.85v4.475h70.047v-4.475zM411.22 356.789h-.85v4.473h70.047v-4.473zM411.22 339.944h-.85v4.474h70.047v-4.474zM411.22 323.115h-.85v4.474h70.047v-4.474z"/><path d="M480.417 390.447v5.939h62.795c.992-3.24 1.75-5.895 2.172-7.404h-64.967v1.465zM480.417 356.789v5.954h67.889c.073-2.636.099-5.137.097-7.404h-67.985v1.45zM480.417 339.944V345.914h67.818c-.022-.604-.041-1.053-.054-1.337l-.397-.36v.007c-3.808-2.202-8.144-4.138-12.126-5.714h-55.241v1.434zM480.417 323.115V329.085h26.786c-6.921-2.862-12.827-5.991-15.395-7.404h-11.392v1.434zM480.417 373.617V379.557h66.702c.305-2.424.543-4.916.725-7.404h-67.427v1.464z"/></svg>