<svg xmlns="http://www.w3.org/2000/svg" width="80" height="80" viewBox="296.557 168.513 80 80"><path fill="none" d="M356.088 231.96h-39.276v-1.064h-20.255v4.255h20.737v1.046h38.821v.798h20.442v-6.099h-20.469zM296.557 171.438h20.186v-.815h38.976v-1.038h20.838v-1.072h-80zM356.088 213.252h-39.276v-1.063h-20.255v5.232h20.204v-1.037h39.274v1.037h20.522v-5.232h-20.469zM356.088 203.895h-39.276v-1.064h-20.255v5.241h20.255v-1.047h39.276v1.047h20.469v-5.241h-20.469zM356.115 240.313h-38.821v1.064h-20.737v3.13h20.737v1.047h38.821v.798h20.442v-6.87h-20.442zM356.035 222.61h-39.274v-1.072h-20.204v5.241h20.255v-1.047h39.276v1.047h20.469v-5.241h-20.522zM356.088 194.537h-39.276v-1.064h-20.255v5.24h20.255v-1.046h39.276v1.046h20.469v-5.24h-20.469zM355.719 174.741h-38.976v-.816h-20.186v6.871h20.186v-.815h39.028v-1.046h20.786v-3.122h-20.838zM355.771 184.098h-39.028v-.814h-20.186v6.072h20.255v-1.047h39.276v1.047h20.469v-4.194h-20.786z"/><path d="M317.294 245.554v-1.047h-20.737v4.006h20.281v-2.959zM317.294 240.313h-.456v-4.116h.456v-1.046h-20.737v6.226h20.737z"/><path d="M356.115 246.352v-.798h-39.277v2.959h38.959v-2.161zM316.838 240.313h39.277v-.831h-.318v-2.487h.318v-.798h-39.277z"/><path d="M355.797 246.352v2.161h20.76v-2.161h-20.442zM355.797 236.995v2.487h20.76v-2.487h-20.442zM317.216 230.896h-.404v1.064h39.276v-1.064h-.291v-4.117h.291v-1.047h-39.276v1.047h.404z"/><path d="M355.797 226.779v4.117h20.76v-4.117h-20.469zM317.216 230.896v-4.117h-20.659v4.117h20.255zM317.216 221.538h-.455v1.072h39.274v-1.072h-.238v-4.117h.238v-1.037h-39.274v1.037h.455zM317.216 212.189h-.404v1.063h39.276v-1.063h-.291v-4.117h.291v-1.047h-39.276v1.047h.404zM317.216 202.831h-.404v1.064h39.276v-1.064h-.291v-4.118h.291v-1.046h-39.276v1.046h.404zM317.216 193.473h-.404v1.064h39.276v-1.064h-.291v-4.117h.291v-1.047h-39.276v1.047h.404z"/><path d="M355.797 208.072v4.117h20.76v-4.117h-20.469zM317.216 212.189v-4.117h-20.659v4.117h20.255zM355.797 198.713v4.118h20.76v-4.118h-20.469zM317.216 202.831v-4.118h-20.659v4.118h20.255zM355.797 189.356v4.117h20.76v-4.117h-20.469zM317.216 193.473v-4.117h-20.659v4.117h20.255zM355.797 217.421v4.117H376.557v-4.117h-20.522zM317.216 221.538v-4.117h-20.659v4.117h20.204zM355.771 179.981h.249v4.117h-.249v1.064h20.786v-6.227h-20.786z"/><path d="M317.216 183.284h-.473v.814h39.277v-4.117h-39.277v.815h.473zM355.719 170.623h.301v4.118h-.301v1.072h20.838v-6.228h-20.838z"/><path d="M317.216 173.925h-.473v.816h39.277v-4.118h-39.277v.815h.473zM317.216 183.284v-2.488h-20.659v2.488h20.186z"/><path d="M317.216 173.925v-2.487h-20.659v2.487h20.186z"/></svg>