<svg xmlns="http://www.w3.org/2000/svg" viewBox="312.375 704.896 267.003 337.412"><path fill="none" d="M361.652 815.951c.05.725.067 1.834.064 3.238.003-1.406-.014-2.516-.064-3.238zM514.124 876.724c.22.07.114-.017-.112-.158-.02.064-.004.121.112.158zM491.675 863.418c.684.2 0 .767.114 1.601s1.31.9 1.51.333c.199-.567.94-.667 2.137-1 1.196-.333.513.8.769 1.534s.655 1.301.969 2.368c.313 1.067-.912 1.267-1.339 2.068-.427.8.513 2.134 1.709 2.834 1.196.7.969.233 1.396-.3.427-.533.086-1.601-.086-2.101-.171-.5-1.111-.934-1.196-1.867s.57-.7.997-.5c.427.2.997 1.1 1.253 1.1s.285-.7-.313-1.134c-.598-.434-1.453-1.234-1.624-2.868-.171-1.634-.256-2.401-.57-2.334-.313.067-1.31-.133-1.396-1.134s-.199-1.5-.57-.9c-.37.6-1.168 1.467-2.279 1.667-1.111.2.37-2.634.285-3.535-.085-.9.086-1.034.313-2.468.037-.23.107-.403.188-.554-.438.493-1.811.215-2.097-.146-.37-.467-1.681.567-1.966.567-.285 0-1.197-1.701-1.396-2.735-.199-1.034-.484.767-1.282.133s.855-.033.086-1.867-.684.167-.997.767c-.313.6-.313.734-.798 1.167-.484.434-.798 1.134-.627 1.734.171.6.627-.4 1.367-.433.741-.033.769.133.997.4.228.267-.285.867-1.111 1.167s-.541 1.667-.085 2.168c.456.5 1.282.033 1.795-1 .513-1.034.199-.333.997.734s.285-.467.798-.367c.513.1 1.539.967 1.168 1.801-.37.834-.37 1.267-.684 1.301-.313.033-1.339.233-1.396 1.434-.025.525.256.997.554 1.335h.656c.283-.499 1.232-1.123 1.754-.97z"/><path fill="none" d="M578.856 843.408c-.864-13.883-2.9-44.824-2.9-44.824-.617-17.57-6.016-31.993-12.726-42.513-9.039-14.16-19.961-21.41-19.961-21.41-11.137-6.51-17.06-7.08-28.352-9.98-8.79-2.258-20.019-8.272-24.562-10.827-.454-1.063-2.373-1.865-3.297-2.735-1.557-1.467-1.426-2.082-3.867-2.718-4.528-1.18-12.605-2.255-17.936-2.22-2.642.017-3.538-.417-6.185-.405-2.203.009-4.411.025-6.611.023-2.364-.002-3.588-.359-6.063-.401H445.237c-4.062.042-7.631.409-12.149.385-6.569-.035-18.069 1.026-24.201 2.544-2.664.66-2.349.991-3.987 2.602-1.003.986-3.233 1.96-3.553 3.109-12.867 7.9-39.002 15.271-39.002 15.271-11.568 3.331-13.883 5.646-13.883 5.646l.006.022c-6.675 4.612-12.716 11.563-12.716 11.563-19.235 18.217-20.531 60.591-20.531 60.591-.293 16.783-2.314 36.002-2.314 36.002 18.51 9.98 46.275 9.842 46.275 9.842 1.296-.432 1.157-3.039 1.157-3.039 0-7.234 1.157-12.586 1.157-12.586.03-9.873.447-18.666.154-21.397.05.723.067 1.832.064 3.238.003-1.404-.015-2.514-.064-3.238-.063-.785-.154-1.141-.293-.879l1.444-4.75.422 1.264c2.606 9.549 2.175 27.041 2.175 27.041.586 32.826 1.589 45.844 1.589 45.844.139 9.842 1.743 17.646 1.743 17.646 2.313 34.137.293 61.902.293 61.902-3.332 35.139-9.456 64.154-9.842 65.219l-.386 1.064c9.256 7.713 68.643 10.797 68.643 10.797 41.463 3.471 99.693-6.941 99.693-6.941 4.442-1.358 5.6-3.856 5.6-3.856-15.811-86.768-9.456-128.23-9.456-128.23 1.743-10.799 3.085-50.133 3.085-50.133.386-4.828.201-10.227.201-10.227-1.126-19.146 2.321-30.613 2.505-31.209 2.06 4.027 1.629 25.824 1.629 25.824-.139 1.883.293 4.629.293 4.629.864 6.369.586 10.998.586 10.998 10.261 4.903 47.282-8.548 47.282-8.548zm-144.841-3.298s1.937-1.067 2.507-.6c.57.467.94 1.1 1.168 1.367.228.267 1.254.1 1.88-.267s1.994-.033 2.507-.033c.513 0 .541 1.834.541 2.568s.627 1.067 1.111 1.334c.484.267.484-1.034.741-1.801.256-.767 2.279-.567 3.276-.4.997.167 1.367.734 1.88 1.434.513.7.798.967.741 1.901-.057.934-.826.433-1.624.967-.798.534-1.538 1.201-2.194 1.367-.655.167-1.766.734-3.276-.3-1.51-1.034-2.051-2.368-2.593-2.901s-2.023-.1-2.792-.3c-.769-.2-1.311-.067-1.595-.1-.285-.033-.57-.867-1.196-1.567-.627-.7-1.253-.367-1.567-.834-.313-.468.257-1.335.485-1.835zm8.974 10.771c-.199.233-1.937.334-2.649 0-.712-.333.171-1 .342-1.667s.883-.233 1.453-.233l.712.3c.712.299.341 1.367.142 1.6zm-9.487-4.068c.855-.467 1.795-1.967 2.735-1.167s.37 1.201 1.538 1.334c1.168.133.94-.067 1.424-.167s1.396-.834 1.51-.434c.114.4-.028.7-.028.7s-.484.667-1.168 1.134c-.684.467-1.026.7-1.538 1.367-.513.667-.513.9-1.424.7s-2.023-.6-2.279-1.034c-.256-.434-.684-.7-1.254-.7s-.371-1.267.484-1.733zm-1.424-6.036c-.741.267-1.424-.1-1.738-.434-.313-.333-.085-.734-.114-1.367 0 0 .513-.033.826-.033.313 0 1.026.067 1.652.434.627.366.114 1.133-.626 1.4zm-2.735-4.069l.541-.167c.541-.167 1.254.1 1.424.534.171.434-.57 1.1-1.282 1.034-.712-.067-.968-.467-.683-1.401zm-4.843 7.303c.399-.667 2.735-1 2.735-1l1.042.333c.449 1.117 1.179 2.3.561 2.366-.617.066-1.628.066-1.291.92.337.854 2.021.197 1.796 1.25-.228 1-4.045-.467-4.444-1.267-.399-.801-.798-1.935-.399-2.602zm-12.308-3.601l1.254-.734c1.253-.734 1.766 1.334 1.766 1.334s1.994 2.334 2.108 3.135c.114.8 1.709.2 2.678-.133.969-.333 2.279-.667 2.279-.667s1.652 3.135 1.652 3.802c0 .667-.57 2.401-.912 2.734-.342.333-1.652 1.601-1.937 2.334-.285.734-1.709-.133-2.507-.267-.798-.133-1.766 1.267-2.051.467-.285-.8-.228-.867-2.279-.934-2.051-.067-.969-1.067-.798-2.068.171-1 1.88-1.601 2.849-1.667s1.026.2 1.254 1.134c.228.934 1.31 1.267 2.507.667 1.196-.6-.057-1.601-.057-1.601s-2.45-1.267-3.077-2.334c-.627-1.067-2.507-.6-3.817-2.068-1.31-1.466-.912-3.134-.912-3.134zm-2.392 7.203c-.228.036 1.14.467 1.396 1.067.256.6-.342 1.367-.684 1.334-.342-.033-1.254-.667-1.738-1.434-.484-.767-.028-.8 1.026-.967zm-2.792-2.201l-.141.072s.767-.205 1.28.195-.028 1.467-.342 1.567c-.313.1-1.197.2-1.567-.6-.37-.8.001-.834.77-1.234zm-6.04-4.168c.085-.667 1.766-.934 1.766-.934.655.9.769.634 1.595 1.701s1.823.2 1.339 1.434.37 2.101-1.311 1.601-1.766-1.534-2.564-2.234c-.796-.701-.91-.901-.825-1.568zm-3.76 15.439l1.367.467c1.367.467.456 1.601-.741 1.701-1.197.1-2.023-.267-2.194-1.201-.17-.933.855-.8 1.568-.967zm1.851 15.541c-.171.867-.94 1.134-.94.734s-.114-1-.37-1.968c-.256-.967.114-2.468.37-3.301 1.105-1.275 1.182 3.311.94 4.535zm-5.014-7.704c.456-.133 2.393 0 2.393 0s.798.4.171 1.667-1.994 2.134-2.564 1.667c-.57-.467-.171-.8-.969-1.667-.797-.866.969-1.667.969-1.667zm-1.481 34.082c.57.567-.883.7-1.339.767-.456.067-1.282 0-1.823-.5-.541-.5-1.225-.2-2.108-.267s1.253-1.101 2.45-1.801.684-.534.969-1.134c0 0 .399-.1.883-.1s0 .8-.029 1.701c-.028.9.427.767.997 1.334zm-3.419-34.482c.513-.534 1.595-.734 1.595-.734.342.267 1.482 0 .855 1.667s-.855 2.801-1.88 1.534c-1.026-1.266-1.082-1.933-.57-2.467zm-9.5 17.457s1.14.033 1.51-.633c.37-.667.085-.867.826-1.134 0 0 .342.367.541.767s-.256 1.467-.256 1.467-2.165 1.267-3.419.333c-1.253-.933.798-.8.798-.8zm-3.647-10.738s.798-.067.969.233c.171.3-.143.767-.456.934-.313.167-.997-.067-1.225-.5-.228-.433.085-.4.712-.667zm-3.789 5.236c0-.967.171-2.534 1.083-2.634s1.709.067 1.852-.1c.143-.167.456-.767 1.026 0s1.538 1.1.627 1.901c-.912.8-2.365.9-2.393 1.567-.028.667.171 1.534-.228 2.134s-.741.967-.741.967.171.634-.655-.867c-.827-1.501-.571-2.001-.571-2.968zm2.536 12.172c-.199-.4-1.681-1.1-2.735-2.234-1.054-1.134-.057-1.334-.057-1.334s.313-1.767 1.339-.767c1.026 1.001 1.624-.6 1.823-1.467s.541-.5 1.624-.634c1.083-.133.712.7 1.396 2.201.684 1.501-.598 1.067-1.225 1.201-.627.133-.256.633.313 1.801.57 1.167-.199.767-.598 1.3-.399.533-1.681.333-1.88-.067zm4.501 3.568c-.513.3-1.282.534-1.88-.667-.598-1.201.655-.834.684-1.734s.114-1.734.769-1 .627 1.134.712 1.567c.085.434.285.767.285.767.114.867-.057.767-.57 1.067zm1.111-2.601c-.57-.967-.029-1.3.057-2.301.085-1-.912.267-1.766.033-.855-.233.057-1.134.427-1.801s.798-.267.969-1.067 1.339-.567 1.567-.567 0 1.701 0 1.701.456.634.712.634 1.168-1.301 1.253-2.301c.085-1 .798-1.901.798-1.901s1.111-.367 2.479-.133c1.367.234.627.8.855 1.267.228.467-.114 1.567-.769 2.168-.655.6-1.567.934-2.649 2.568-1.083 1.634.541 1.1.541 1.1s1.538-.5 2.991-1.801 1.709-1.801 1.909-2.468-.313-.533-.798-2.068c-.484-1.534 0-1.134.171-1.701.171-.567.741-.834 1.424-1.501.684-.667.94.367.94.367s.057 2.601.057 2.968-.256 1.434-.427 1.834c-.171.4-.142 1.601-.171 2.501-.029.9-.613 2.384-1.011 2.718-.399.334-.513 1.534-.513 1.534s.741.133 1.197-.467c.456-.6.741-.2.741-.2s-.228 1.667-.228 2.134c0 .467-2.279 2.601-2.279 2.601s-1.254 1.334-2.792 1.867c-1.538.534-1.766-.934-1.766-.934s-.67-.951-.897-1.818c-.228-.867-.541-1-1.254-1.634s-1.198-2.365-1.768-3.332zm10.412 23.694c-.171.867-1.652.267-2.507-.4-.855-.667.171-.934.513-1.601 0 0 .855-.267 1.339-.133.484.133.826 1.267.655 2.134zm18.147 2c-.456.033-.684.117-1.011.35-.328.233-.555 1.617-1.197 1.667-.641.05-.427-.1-.94-.884-.513-.784.499-.233.841-.85.342-.617.456-.567 1.04-1.067.584-.5 1.068-.15 1.581-.167l.242.033s.228-.067.527.467-.627.418-1.083.451zm16.396-17.189c-.57-1.601-2.393-3.335-2.393-3.335v3.935l-1.652.667s-3.504.534-3.875.234c-.37-.3-.285-2.034-.655-2.134-.37-.1-.94-.367-1.481.2-.541.567-.627.434-.712 1.134s.114 1.201.541 1.501c.427.3 1.424.067 1.339 1-.085.934 0 2.434-.256 2.901-.256.467-3.305 5.936-3.305 5.936s-.912 2.801-1.994 2.601c-1.083-.2-1.31-.734-1.31-.734l-.969-2.268-.798 3.201s-1.083-1.867-1.88-2.935c-.798-1.067-1.994-3.201-2.45-2.201-.456 1-.114 1.734.399 2.268.513.534 2.222 1.801 2.222 2.268s-.171 1.667-.399 2.068c-.228.4-2.051 2.801-2.906 3.335-.855.534-3.134 1.467-3.76-.133-.627-1.601-.114-3.401-.399-4.135-.285-.734-.228-1.667-.969-2.401-.741-.734-1.595-1.2-1.253-1.801.342-.6.798-.467 1.31-.534.513-.067 1.311-.734.228-1.201-1.083-.467-2.849-.2-2.849-.2l-2.792-.234s1.424 2.201 2.336 3.001c.912.8 2.621 1.401 2.393 2.201-.228.8.627 2.401-1.481 1.734-2.108-.667-3.077-1.801-3.703-2.868-.627-1.067-1.709-2.534-2.564-3.401s-2.279-2.735-3.76-3.135c-1.481-.4-1.937-.667-2.222-1.801-.285-1.134.171-2.468-.285-3.401-.456-.934-.228-1.067.513-.934.741.133 2.336.334 2.564 1 .228.667.342 2.201 1.026 2.201.684 0 1.652-.6 2.279-.067.627.534 1.026 1.734 1.026 1.734s1.481 1.201 1.595.8c.114-.4-.114-.133-.684-1.134-.57-1-.57-1.134-.57-1.867s.684-.867.684-.867l3.476.133.342-1.067s.513-.4-.855-.8c-1.367-.4-1.595-1.134-1.823-1.867-.228-.734.171-1.201.741-1.201s1.766-.067 1.766-.067l1.766.934s-.057 1 .456 1.067c.513.067 1.88-.2 1.88-.2l2.906-.2s.798 2.068 2.393.4c1.595-1.668 3.703-1.668 3.703-1.668s1.766-1 1.766-2.067c0-.883.077-1.169.104-1.242-.045.101-.294.504-1.529.909-1.424.467-2.165 2.201-2.678 1.934-.513-.267-2.45.2-3.077-.333-.627-.534-2.165-2.534-2.165-2.534s-.969-.934.399-.6c1.368.333 2.279 1.934 3.419 1.467 1.14-.467 2.336-.734 2.108-1.401-.228-.667.342-1.534.684-1.867.342-.334 1.595-.333.627-1.201-.969-.867-1.14-1-.969-1.467.171-.467.855-.8.855-.8s.57-.667-.228-1c-.798-.333-.456-1.467-.456-1.467l.855-1.934s1.652-.267 1.709-1.067c.028-.392.356-.56.684-.551.342.009.683.211.683.551 0 .667-.57 1.267-.57 1.267s-1.14 1.134-.285 1.267 1.652.4 1.083 1.067c-.57.667-1.88.267-1.026 1.334.855 1.067 1.082 2.001 1.88 1.267.798-.734 1.481-2.134 1.481-2.134s.285-1.401 0-2.468-1.253-2.201-.912-2.268c.342-.067.456-1.067 1.424-1.067.969 0 1.709-.334 1.823.734.114 1.067.627 1.934 1.367 1.467.741-.467 1.083-.267 1.197-1.601.114-1.334.285-3.935.285-3.935s-.399-1.067-1.083-1.067-.855-.867-1.595.2c-.741 1.067-.855 2.134-1.709 2.134s-1.595-1.201-1.595-1.534c0-.333-.114 1-.798 1s-.969.467-.969 1.067c0 .6.969 1.134.285 1.601-.684.467-2.108.067-2.108.067s-.171.667-.741 1c-.57.334-1.424.267-2.108.267-.684 0-1.481-.133-1.481-.133l-.513 1.401.285 1.134-.855.2s-.798 0-1.254-.8c-.456-.8-.627-2.401-1.082-3.201-.456-.8-1.367-3.668-1.937-4.535-.57-.867-.399-2.001.285-1.867.684.133 3.419 1.401 3.419 1.401s3.191 1.334 3.818.867c.627-.467 2.564-2.134 3.533-2.134.969 0 4.216-.133 4.558-.267.342-.133 2.336-1.067 2.336-1.067s-2.678-5.269-5.868-5.669c-3.191-.4-2.735-2.001-2.735-2.001s-2.108-2.534-3.134-2.935c-1.026-.4-1.083-.8-.171-1.601.912-.8 2.165-.267 2.792-.333.627-.067 2.678.734 1.937-.8-.741-1.534-.855-1.934-2.222-2.401-1.367-.467-.741-.267-2.108-.2s-2.621.934-3.305-.133c-.684-1.067-3.02-2.334-2.621-2.868.399-.534.114-4.535.114-4.535s-.456-1.467 1.14-.734c1.595.734 7.92 5.135 9.116 6.803 1.197 1.667 4.33 4.402 6.438 4.935 2.108.534 8.775-.867 9.23-1.801.456-.934-1.994-1.2-1.994-1.2s-3.077-.2-2.564-.934c.513-.734 1.424-1.734 1.88-2.668.456-.934.798-2.334 1.937-2.201s1.253.4 1.31 1.601c.057 1.201.399 2.601.912 1.534s2.051-2.268 2.051-2.268.399-1 .855.067c.456 1.067 2.108.867 2.45.4.342-.467 1.026-.267.912.667-.114.934 1.197 1.401 1.652 1.067.456-.333 2.051-1.334 2.507-2.268.456-.934 1.253.8.912 1.601-.342.8-1.709 1.934-2.222 2.068-.513.133-2.849.6-2.849.6s2.792 1.534 4.159 1 3.76-1.267 4.159-1.467c.399-.2-1.083-2.068-1.083-2.068l.912-.667s.798 2.401 1.367 2.001c.57-.4 2.507-2.068 2.507-2.068s1.652-1 1.14.8c-.513 1.801-3.362 3.468-3.362 3.468s.57.667 1.367.667c.798 0 1.197-.867 1.197-.867s1.31 0 1.823.4c.513.4 1.766-.133 2.393-.534.627-.4 2.45-.534.969-1.401-1.481-.867-2.963-1.401-2.963-1.401s-.456-1.734 0-2.801c.456-1.067 2.564-.2 2.336-1.401-.228-1.2 0-3.335 1.026-1.801s3.248 3.135 3.647 3.535c.399.4 3.134.133 3.02 1.601-.114 1.467-.171 1.601-1.31 1.601s-2.564.133-1.026 1 3.305.6 1.766 1.734c-1.538 1.134-2.792 2.334-2.849 3.268-.057.934-.456 1.334-1.652 1.401-1.196.067-2.393.334-1.253 1.001 1.14.667 1.367 1.201.855 2.201-.513 1-.912 3.401-1.481 4.068-.57.667-1.482 1.467-1.595 2.268-.114.8-1.338.867-1.338.867l-.627-2.601s-2.108 1.4-3.191 2.001c-1.083.6-1.823 1.201-.969 1.267.855.067 1.823.467 1.823.467s-.342.867-.798 1.401-1.652 1.401-1.766 1.734c-.114.334-1.253 1.534-1.31 2.468-.057.934.342 1.401-.171 1.934-.513.534-.456 2.134-.456 2.134s-.798.467-1.197.067-.228-1.601-.228-1.601l-1.424 2.001s-3.02 2.868-4.217 5.936c-1.197 3.068-1.083 3.001-1.31 4.135-.228 1.134 0 2.534-1.197 3.068s-2.051 2.001-3.59 2.067c-1.539.066-1.995 1.267-2.564-.333zm-17.817-30.798s.795.033 1.137.467c.342.433.37 2.434.029 2.601-.692.167-.87-.834-1.304-1.567-.434-.734.059-.9.138-1.501zm3.758 2.702s.37-.167 1.026.167c.655.333.57.6.826 1.467s-.142.6-.712.734c-.57.133-.627-.5-1.339-1.067s-.286-.568.199-1.301zm29.983 13.989c-.627-.534 1.168-1.567 1.197-1.967.029-.4.826-1.067 1.481-1.301 0 0 .627.5.969 1.134s.37 1.1-.057 1.701a1.45 1.45 0 01-1.367.634c-.371-.034-1.596.333-2.223-.201zm1.695 5.119c-.029.534-.399.433-1.083.4-.684-.033-.114-1.334-.057-1.901s.655.067.855 0c.001.001.314.968.285 1.501zm-3.903 8.004c-.057.467-.826.333-1.481.1-.655-.233-.456-1.201-.456-1.667s.541-1.2.541-1.467c0-.267.826-.433.826-.433s.313.4.513.667c.199.267-.085.667-.114 1.034-.028.366.228 1.299.171 1.766zm-.199 20.675c.028.8-.484.9-.826 1.267-.342.367-.741 1.301-1.367 1.834s-.655-.8-.655-.8v-4.068c0-1.067-.142-1.401-.285-2.368-.142-.967-.513-.267-1.282-.467s-.456-.7-.541-1.667.684-1.701.798-1.867c0 0 .285.533.256.8-.028.267.712 1.167.712 1.167s1.567-.1 2.621.434.313 1.834.313 1.834.228 3.101.256 3.901zm-3.333-13.139c.085-.667.456-.5.627-1.067.171-.567.028-.9.798-1.034 0 0 .769 1.267.798 1.934.029.667-.399 1.234-1.054 1.234s-1.255-.4-1.169-1.067zm3.048-13.505c-.741-.4.228-.967.399-1.334 0 0 .456.233.798.5s.427.7.285 1.1c-.143.4-.741.134-1.482-.266zm1.909 1.2s.826 0 .826.367-.057 1.134-.313 1.101c-.256-.033-.598 0-1.083-.6-.484-.601.029-.601.57-.868zm4.373-13.523c.342-.534.598-.533.684-1.167.085-.634.826-.867.969-.9 0 0 .456 1.367.342 1.934-.114.567-.598 1.167-1.339 1.401-.741.233-.998-.734-.656-1.268zm-13.433 21.56c0-.934.456-1.067.798-1.334 0 0 .513.4.456.834-.057.434.114.6.057 1.067s-.37 1-.94 1-.371-.633-.371-1.567zm.713 8.437c-.057-.767-.199-.934.37-1.367 0 0 .912.267.855.767-.057.5.199 1.1-.456 1.267-.655.167-.712.1-.769-.667zm1.453 18.307c-.769-.7-.256-1.367.171-1.367.427 0 1.225-1.401 1.595-1.901.37-.5 1.31-1.134 2.365-1.334l.627-.3c.627-.3-.171 1.434.142 1.434s-1.083 1.267-1.538 1.901c-.456.634-.684 1.634-1.168 2.468-.485.833-1.425-.201-2.194-.901zm6.068 1.034c-.427.267-1.026 1.367-1.253 1.667-.228.3-.741 0-1.595-.333s-.114-1.1.285-1.867c.399-.767 1.111-.6 1.823-1.201 0 0 .37-.067 1.168.467.797.533-.001 1-.428 1.267zm2.08-1.834c-.37.4-.598.133-.997-.267s-.057-.734.285-1.467c0 0 .627-.133.94.367.313.5.142.967-.228 1.367zm21.181 8.352c-.855.133-2.564.2-4.387.267-1.823.067 0-2.001.627-2.734.232-.271 2.188-.668 3.423-.371 0 0 1.477-.029 1.819.371.342.4-.627 2.334-1.482 2.467zm4.445-.6c-.228.4-1.994.734-2.336-.2-.342-.934.798-1.067 1.538-1.334 0 0 1.025 1.134.798 1.534zm3.646-.067c-.171.734-1.31.4-1.709-.067s.171-.667 1.31-1.334c0 .001.57.668.399 1.401zm6.32-23.505c-.513-.334.057-1.267.114-1.601l.798.667c.797.667-.399 1.267-.912.934zm5.242.667c-.912.133-.798-.334-.798-1.334l.969-.067c.969-.067.74 1.268-.171 1.401zm9.002-11.538c-.855 1.801-1.538-.333-2.051.8-.513 1.134-.456 2.601-.228 3.868s2.374 3.076 1.481 3.401c-.892.325-.513.6-.513.6s-2.165-1.534-2.621-2.201c-.456-.667-1.823-2.668-2.393-3.468-.57-.8-.456-2.001-.114-2.468.342-.467 2.165-1.067 1.994-2.068-.171-1-.057-3.535.969-1.934 1.026 1.601 0 2.534 1.595 2.668s2.736-.999 1.881.802zm27.139-23.132s-1.424 1.134-2.165 1.867c-.741.734-2.621 1.201-2.621 1.201s-1.054 2.134-1.88 1.734c-.826-.4-1.88.7-3.077.6-1.197-.1-2.82 0-3.561-.8-.741-.8-.741 1.134-.855 1.467-.114.333-1.481 0-1.88.067-.399.067-.798-.333-1.88-1.534-1.083-1.201-.855.934-.855.934s-.741-.2-1.14-.667c-.399-.467-.741-.067-1.196.534-.456.6.912.8 1.766.8s1.595.467 2.279 1c.684.533.285 1.067.285 1.067s-1.538-.333-1.994-.534c-.456-.2-.855.267-2.393.534s.969.934.969.934h1.88s-.513 1.134-1.254 1.334c-.741.2-.171 1.401-.171 2.268s-1.937 1-1.937 1l-.285-1.534s-3.305 2.268-4.672 3.068c-1.367.8-1.424 2.268-2.564 2.334s-1.14-.6-1.31-1.601c-.171-1-1.311-1.201-1.937-1.467-.627-.267-.171-1.467-1.253-2.468-1.083-1 .057 3.401-.399 3.335-.456-.067-1.766-.067-3.02.667s-2.108-.867-2.165-1.734-1.766.6-2.621.6-2.393-.8-2.792-1.801c-.399-1-3.077-2.001-3.761-2.334-.684-.333-.912-2.134-1.652-3.602s-1.083 1.934-1.083 1.934-.513 1.134-.627 2.001c-.114.867 2.45 1.867 3.077 2.201.627.333 1.994 1 3.077 2.134s1.709.734 2.678 1.534c.969.8-.114 1.201-.969 1.267-.855.067-.256 1.068-.284 1.868-.029.8.997.767 1.823.3s-.427-1 1.481-.467c1.909.534 1.909-.2 3.276-.233 1.367-.033.969.8.997 1.934s.541.9 1.026 1.701c.484.8-.456 1.234-.855 1.167-.399-.067-1.083.133-1.14 1-.057.867-.057 1.134-.627 1.534-.57.4-.798.6-.171 1.401.627.8.399 1 .399 1.601 0 .6.456 2.001.171 2.801-.285.8-1.766.267-1.88-.8-.114-1.067 0-1.267-.456-2.468s-1.367-.2-1.595-1c-.228-.8-.684-1.201-1.88-1.801-1.196-.6-1.652-.534-2.621.067s0 1.001-.171 2.268-.855.267-1.083.6c-.228.333-.342 1.934-1.595 1.801s-.114-.267-.456-2.068c-.342-1.801-1.254-.067-2.108-.934-.855-.867.342-1.134-.285-2.534-.627-1.401-1.994 1.467-2.621-.867s-.285-.734-1.254-.734c-.969 0-.912-.067-1.026-1.534-.114-1.467-1.652-1.534-1.652-1.534s-.285 1-.057 1.534c.228.534-.741.6-1.424.6s-1.823-1.267-2.735-1.201c-.912.067-1.14 1.334-1.14 1.334s.228.133 1.766-.133c1.538-.267 1.197.6 1.481.934.285.333.171 2.068.171 2.068s1.367.267 1.31-.6c-.057-.867 1.595-.667 1.766-.067.171.6-.228.867.456 1.334.684.467.969.267.969.867s-.627 0-.627 1.134.513.467 1.595.467.029 1.667.029 1.667-.199.6-.969.6c-.769 0-1.339-.3-2.308.333s-.712 1.567-.541 1.434c.171-.133 1.852-.467 2.108-.067s.855.133 1.254-.133c.399-.267 1.909-.634 2.222-.267s.171.467.484.867c.313.4-.769.967-1.909 1.467-1.14.5-.712 1.267-.712 1.834 0 .567 1.254.133 1.966.2s.769.734.684 1.067c-.086.334-.997.3-1.738.967s.427 1.767.427 1.767.484-.1.484-.367 1.339-.634 2.678-.667c1.339-.033 2.251-1.067 2.763-1.767s1.31-2.068 1.823-3.535c.513-1.467-.427-1.667.883-2.101 1.311-.434.912.333.912.7s-.142 2.434-.142 3.101c0 .667-.028 1.767-.342 2.734-.313.967-1.823 1.134-3.191 1.767-1.367.634-3.476.634-3.732.667-.256.033-.37-.167-.712.433-.342.6-1.937.267-2.308-.2-.37-.467-.57-.967-.798-.934-.228.033-1.709-.4-2.507-1.201-.798-.8-1.339-.567-2.023-.834-.684-.267-2.336-.333-2.479-.333-.143 0 .142-1.634-.085-2.601-.228-.967-.57-.267-1.424-.6-.855-.333-.085-1.267-.085-1.267s-.912.334-1.51.233c-.598-.1-.712-1.801-.94-2.034-.228-.233-.826.534-1.197.534-.37 0-1.681.033-1.966.7-.285.667 1.14 1.067 1.14 1.067s.285 1.701-.285 2.101c-.57.4-.427 1.467-.427 1.634s1.111.4 1.14.2c.029-.2.969-.434 2.507-.3 1.538.133.199 1.134.199 1.134s-.997-.133-1.538.333c-.541.467.627.467 1.595.934.969.467-.028 1.234-.028 1.234s-1.225-.067-1.766.7c-.541.767.627.834.94.834s.541 1.034.513 1.734c-.029.7-1.253.267-1.253.267s.142 1.367.199 1.967c.057.6 1.31.367 2.336.3 1.026-.067.228 1.201.228 1.201s-.627.667-1.652.767c-1.026.1-.655.367-1.909-.467-1.254-.834-1.282-2.868-1.282-2.868s-1.88-.367-2.507-.433c-.627-.067-.199-.834-.086-1.167.114-.333-.57-.2-.826-.867s-.399-1.601-.399-1.601-.57-.4-.969-.2.484 1.234.484 1.234.285 1.167.057 1.167c-.228 0-1.225-.267-1.225-1 0-.734-.627-.567-1.083-2.201-.395-1.416.365-.979.574-.837-.217-.16-1.028-.835-.631-1.764.456-1.067 0-.6-.57-.8s-1.766-1.201-1.88-2.134c-.114-.934-1.367-1.334-1.481-2.734-.114-1.401-1.709-1.267-1.709-2.401s.251-2.009 1.368-2.134.969.4.912 1c-.057.6 1.766 1.401 1.766 1.401s-.627-1.801-.228-2.401c.399-.6.114.667 1.197-.133s1.595-1.067 1.595-1.067-2.393-3.001-2.963-3.602c-.57-.6-.798-.934-.513-1.934.285-1 1.766.6 2.735.133.969-.467-.969-.867-1.424-1.267-.456-.4-.855-.667-.342-1.734.513-1.067.513.867 1.766 1.467 1.253.6.342 0 1.026-1 .684-1-1.026-.267-1.88-.867-.855-.6-.958-1.913-.958-1.913s1.072-1.555 2.326-1.822c1.253-.267.855 1.467 1.595 1.867.741.4 1.538.467 1.937-.534.399-1-1.026-.6-1.538-1.134-.513-.534-.456-2.134-.114-2.935.342-.8.456.867 1.026 1.467.57.6.798 0 .969-.867.171-.867-.456-.934-1.253-1.467-.798-.534 0-2.468 0-2.468s.057 0 1.937.467c1.88.467.342-.934 1.88-.934 1.538 0 .513 1.734.969 1.401.456-.333.741-1.201.912-2.468s-.228-1.601 0-2.001c.228-.4 1.595.934 1.595.934l1.766-.133s-.684-1.801-.399-2.468c.285-.667 1.31-1.267 2.108-2.201.798-.934.399 2.268.399 2.268l.855-.2-.285-1.801s.456.333 1.254.2.798-1.667 1.197-2.134c.399-.467 1.709-.867 2.336-1.467.627-.6 1.424-.067 1.424-.067l.969 4.135.057 6.336 2.393-2.801c-.117-.208-.058-.834-.685-1.134s-.114-1.301-.228-2.368-.883-3.302-.883-4.469c0-1.167-.313-2.101-.513-2.301-.199-.2-3.59-2.701-4.786-4.102-1.197-1.401-1.595-2.401.285-3.535 1.88-1.134.228-3.201 1.709-3.201s.399-.6.855 2.868c.456 3.468 1.253 1.334 1.538.667.285-.667 0-2.734-.684-3.802-.684-1.067.171-.8 1.652-1.334 1.481-.534-2.279-1.734-3.305-2.268-1.026-.534.114-2.068.399-3.868.285-1.801 1.481.467 2.279 1.2.798.734 2.507.133 2.507.133s-.285-2.935-.627-4.002c-.342-1.067 1.937-1.867 4.33-.534 2.393 1.334 1.424-.934 1.424-1.534s-1.14-1.934-3.305-5.402-1.595-1.601-.798-4.002 1.481 1.467 2.507 2.401c1.026.934 2.678 1.667 3.988 3.802 1.31 2.134 6.325 1.968 7.065 2.568.741.6.997 1.067 1.652 1.334.655.267.912-1 .228-1.934-.684-.934-.399-.767-.171-1.634.228-.867 3.732-.434 4.131-.467.399-.033 1.852.433 2.194.867.342.434 2.165 1.734 2.621 1.934.456.2.912 1.567 1.254 2.301.342.734.541 1.167.541 2.501s-1.054 1.467-.684 2.768c.059.208.047.37-.007.501.457-.639 1.275-.602 1.431-1.335.199-.934 1.14-2.668 1.339-3.068.199-.4 2.849-.067 3.504-.467.655-.4 2.593-.934 3.105-1.034.513-.1.969.967 1.652 1.401.684.434 2.45 0 3.191-.7s1.88.3 2.735.2c.855-.1.541 1.734 1.225 2.168.684.434 1.14.934 1.168 1.901.028.967-2.393.033-3.02.433s1.339 1.101 2.194 1.234 1.282.467 1.396.967c.114.5 1.31 1.267 1.852 1.801.541.534 1.567 1.834 1.567 1.834s.029.634-1.14.634-1.253.067-3.362-1.534c-2.108-1.601-.142 1.267-.057 1.467.086.2 1.225.367 1.937.767s1.168.067 2.165.467c.997.4-.627 1.234-.627 1.234h-2.108c-.627 0-3.02.067-4.159 0-1.14-.067-.57-.133-1.424-1.801s-2.735-.934-2.735-.934l.513 1.734s-2.279.2-2.906.2-.798 1.134-1.026 2.001c-.228.867 1.367.534 1.367.534l.57.801s1.652 1.334 3.419 1.401 3.305.467 5.641.8 3.476 2.335 3.476 2.335l1.367 1.667s-3.077 1.067-3.817 1.201c-.741.133-2.507.2-2.507.2l.798 1.267s.837.448 1.255.709c.088-.28 1.188-.759.91-.976-.342-.267 1.766 0 3.305-.267 1.543-.263.46.804.46.804z"/><path fill="#231F20" d="M432.662 892.916c.228-1.134.114-1.067 1.31-4.135 1.197-3.068 4.217-5.936 4.217-5.936l1.424-2.001s-.171 1.2.228 1.601 1.197-.067 1.197-.067-.057-1.601.456-2.134c.513-.534.114-1 .171-1.934.057-.934 1.196-2.134 1.31-2.468.114-.333 1.31-1.2 1.766-1.734.456-.534.798-1.401.798-1.401s-.969-.4-1.823-.467c-.855-.067-.114-.667.969-1.267 1.083-.6 3.191-2.001 3.191-2.001l.627 2.601s1.224-.067 1.338-.867c.114-.8 1.026-1.601 1.595-2.268.57-.667.969-3.068 1.481-4.068.513-1 .285-1.534-.855-2.201s.057-.934 1.253-1.001c1.197-.067 1.595-.467 1.652-1.401.057-.934 1.31-2.134 2.849-3.268 1.538-1.134-.228-.867-1.766-1.734s-.114-1 1.026-1 1.197-.133 1.31-1.601c.114-1.467-2.621-1.201-3.02-1.601-.399-.4-2.621-2.001-3.647-3.535-1.026-1.534-1.254.6-1.026 1.801.228 1.201-1.88.334-2.336 1.401-.456 1.067 0 2.801 0 2.801s1.481.534 2.963 1.401c1.481.867-.342 1-.969 1.401-.627.4-1.88.934-2.393.534-.513-.4-1.823-.4-1.823-.4s-.399.867-1.197.867-1.367-.667-1.367-.667 2.849-1.667 3.362-3.468c.513-1.801-1.14-.8-1.14-.8s-1.937 1.667-2.507 2.068c-.57.4-1.367-2.001-1.367-2.001l-.912.667s1.481 1.867 1.083 2.068c-.399.2-2.792.934-4.159 1.467-1.368.534-4.159-1-4.159-1s2.336-.467 2.849-.6c.513-.133 1.88-1.267 2.222-2.068.342-.8-.456-2.534-.912-1.601-.456.934-2.051 1.934-2.507 2.268-.456.333-1.766-.133-1.652-1.067.114-.934-.57-1.134-.912-.667-.342.467-1.994.667-2.45-.4-.456-1.067-.855-.067-.855-.067s-1.538 1.201-2.051 2.268c-.513 1.067-.855-.333-.912-1.534-.057-1.201-.171-1.467-1.31-1.601s-1.481 1.267-1.937 2.201c-.456.934-1.367 1.934-1.88 2.668-.513.734 2.564.934 2.564.934s2.45.267 1.994 1.2c-.456.934-7.122 2.334-9.23 1.801-2.108-.534-5.242-3.268-6.438-4.935-1.197-1.667-7.521-6.069-9.116-6.803-1.595-.734-1.14.734-1.14.734s.285 4.002-.114 4.535c-.399.534 1.937 1.801 2.621 2.868.684 1.067 1.937.2 3.305.133 1.367-.067.741-.267 2.108.2s1.481.867 2.222 2.401c.741 1.534-1.31.734-1.937.8-.627.067-1.88-.467-2.792.333-.912.8-.855 1.201.171 1.601 1.026.4 3.134 2.935 3.134 2.935s-.456 1.601 2.735 2.001c3.191.4 5.868 5.669 5.868 5.669s-1.994.934-2.336 1.067c-.342.133-3.59.267-4.558.267-.969 0-2.906 1.667-3.533 2.134-.627.467-3.818-.867-3.818-.867s-2.735-1.267-3.419-1.401c-.684-.133-.855 1-.285 1.867.57.867 1.481 3.735 1.937 4.535.456.8.627 2.401 1.082 3.201.456.8 1.254.8 1.254.8l.855-.2-.285-1.134.513-1.401s.798.133 1.481.133c.684 0 1.538.067 2.108-.267.57-.333.741-1 .741-1s1.424.4 2.108-.067c.684-.467-.285-1-.285-1.601 0-.6.285-1.067.969-1.067s.798-1.334.798-1c0 .333.741 1.534 1.595 1.534s.969-1.067 1.709-2.134c.741-1.067.912-.2 1.595-.2s1.083 1.067 1.083 1.067-.171 2.601-.285 3.935c-.114 1.334-.456 1.134-1.197 1.601-.741.467-1.254-.4-1.367-1.467-.114-1.067-.855-.734-1.823-.734-.969 0-1.083 1-1.424 1.067-.342.067.627 1.201.912 2.268s0 2.468 0 2.468-.684 1.401-1.481 2.134c-.798.734-1.026-.2-1.88-1.267-.855-1.067.456-.667 1.026-1.334.57-.667-.228-.934-1.083-1.067-.855-.133.285-1.267.285-1.267s.57-.6.57-1.267c0-.34-.341-.542-.683-.551-.328-.009-.656.159-.684.551-.057.8-1.709 1.067-1.709 1.067l-.855 1.934s-.342 1.134.456 1.467c.798.333.228 1 .228 1s-.684.333-.855.8c-.171.467 0 .6.969 1.467.969.867-.285.867-.627 1.201-.342.333-.912 1.201-.684 1.867.228.667-.969.934-2.108 1.401-1.14.467-2.051-1.134-3.419-1.467-1.367-.333-.399.6-.399.6s1.538 2.001 2.165 2.534c.627.534 2.564.067 3.077.333.513.267 1.253-1.467 2.678-1.934 1.235-.405 1.484-.808 1.529-.909-.027.074-.104.359-.104 1.242 0 1.067-1.766 2.067-1.766 2.067s-2.108 0-3.703 1.668c-1.595 1.667-2.393-.4-2.393-.4l-2.906.2s-1.367.267-1.88.2c-.513-.067-.456-1.067-.456-1.067l-1.766-.934s-1.197.067-1.766.067-.969.467-.741 1.201c.228.734.456 1.467 1.823 1.867 1.367.4.855.8.855.8l-.342 1.067-3.476-.133s-.684.133-.684.867 0 .867.57 1.867.798.734.684 1.134c-.114.4-1.595-.8-1.595-.8s-.399-1.201-1.026-1.734c-.627-.534-1.595.067-2.279.067-.684 0-.798-1.534-1.026-2.201-.228-.667-1.823-.867-2.564-1-.741-.133-.969 0-.513.934.456.934 0 2.268.285 3.401.285 1.134.741 1.401 2.222 1.801 1.481.4 2.906 2.268 3.76 3.135.855.867 1.937 2.334 2.564 3.401.627 1.067 1.595 2.201 3.703 2.868 2.108.667 1.253-.934 1.481-1.734.228-.8-1.481-1.401-2.393-2.201-.912-.8-2.336-3.001-2.336-3.001l2.792.234s1.766-.267 2.849.2c1.083.467.285 1.134-.228 1.201-.513.067-.969-.067-1.31.534-.342.6.513 1.067 1.253 1.801.741.734.684 1.667.969 2.401.285.734-.228 2.534.399 4.135s2.906.667 3.76.133c.855-.534 2.678-2.935 2.906-3.335.228-.4.399-1.601.399-2.068s-1.709-1.734-2.222-2.268c-.513-.534-.855-1.267-.399-2.268.456-1 1.652 1.134 2.45 2.201.798 1.067 1.88 2.935 1.88 2.935l.798-3.201.969 2.268s.228.534 1.31.734c1.083.2 1.994-2.601 1.994-2.601s3.049-5.469 3.305-5.936c.256-.467.171-1.968.256-2.901.086-.934-.912-.7-1.339-1-.427-.3-.627-.8-.541-1.501s.171-.567.712-1.134c.541-.567 1.111-.3 1.481-.2.37.1.285 1.834.655 2.134.37.3 3.875-.234 3.875-.234l1.652-.667v-3.935s1.823 1.734 2.393 3.335c.57 1.601 1.026.4 2.564.333s2.393-1.534 3.59-2.067.969-1.934 1.197-3.068zm-22.943-1.86c-.756 1.384-.906.776-2.146 1.501l-.673.568h-1.109c.488-.416 1.117-.364 1.231-1.218.068-.505-.254-1.383.707-1.831 2.082-.969.468-2.052-.29-2.893.346-.496.869-.414.962-1.344.103-1.04-.431-1.106-.91-1.509.003-.367.393-1.364.554-1.659.215-.394 1.021-.679 1.401-.748-.193.099-.451.685-.338 1.227.116.557.495.706.997.806-1.141.523-1.23 1.098-.454 2.215.515.741.834 1.563 1.877 1.682l-1.809 3.203zm.741 2.069c.015-.927.321-1.837.519-2.665.211-.877.406-1.658.593-2.549.862-.534.875-.485 1.449-1.254 1.034-1.383 1.403-2.504 1.044-4.401-.186-.986-.731-1.458-.798-2.154.69-.551.683-.513 1.763-.494.093.194-.028-.17.109.281.292.96.526 2.938 2.658 1.672.727-.432.968-.573 1.116-1.745.118-.935.146-1.877.22-2.818.088-1.12.265-1.634-.301-2.37-.651-.846-.791-.667-1.721-1.032-1.612-.632-1.989 1.588-2.809 2.508-1.041-.101-.447-.903-2.109-1.418-.8 1.735-.754.503-1.509 1.37-.661.759-.524 1.53-.108 2.39-.896.066-1.214-.105-2.006-.245-.222 1.204-.441 1.339-1.559 1.394-.986.048-1.792-.121-2.727-.192-.287 1.145-.806 1.431-.621 2.783-1.126-.127-1.061-1.636-1.613-3.164-.151-.418-.338-.649-.517-1.085l-1.887-4.673c1.508.486 2.834 1.218 4.374 1.775.707.256 1.69.593 2.48.555.769-.037 1.468-.78 2.022-1.205 1.763-1.353 2.554-1.03 4.948-1.133 2.314-.1 2.918-.911 4.699-1.554-.469-1.819-3.304-5.454-5.447-6.45-.76-.353-2.437-.44-2.861-.865h42.16c-.32.915-.765 2.978-1.234 3.581-.36.463-.695.678-1.11 1.259-.837 1.172-.276 1.075-.853 1.41l-.655-2.797c-.461.161-1.594.952-2.034 1.256-1.089.753-3.395 1.735-3.516 2.719-.158 1.284 1.14.946 1.797 1.303-.461.86-1.076.895-2.3 2.576-.844 1.159-1.318 1.74-1.115 3.85-.833 1.051-.427 1.57-.782 2.274-.448-.636.157-2.547.221-3.415-.373.275-1.023 1.309-1.295 1.71l-1.848 2.458c-.284.279-.4.47-.675.78-.266.3-.421.507-.674.799-1.787 2.06-3.89 6.201-4.073 8.974H410.46z"/><path fill="#231F20" d="M445.481 879.711c.741-.233 1.225-.834 1.339-1.401.114-.567-.342-1.934-.342-1.934-.143.033-.883.267-.969.9-.086.634-.342.634-.684 1.167-.341.534-.084 1.501.656 1.268zM444.826 883.179c.427-.6.399-1.067.057-1.701s-.969-1.134-.969-1.134c-.655.234-1.453.9-1.481 1.301-.029.4-1.823 1.434-1.197 1.967.627.534 1.852.167 2.222.2.371.034.941-.033 1.368-.633zM441.792 887.231c-.057.567-.627 1.867.057 1.901.684.033 1.054.133 1.083-.4.029-.534-.285-1.501-.285-1.501-.2.066-.798-.567-.855 0zM440.026 891.032c.143-.4.057-.834-.285-1.1-.342-.267-.798-.5-.798-.5-.171.367-1.139.934-.399 1.334s1.339.666 1.482.266zM440.966 893.434c.256.033.313-.734.313-1.101s-.826-.367-.826-.367c-.541.267-1.054.267-.57.867.484.601.826.567 1.083.601zM438.971 893.934c-.199-.267-.513-.667-.513-.667s-.826.167-.826.433c0 .267-.541 1-.541 1.467s-.2 1.434.456 1.667c.655.233 1.424.367 1.481-.1s-.199-1.401-.171-1.767c.029-.366.314-.766.114-1.033zM432.704 900.57c.057-.467-.114-.634-.057-1.067.057-.434-.456-.834-.456-.834-.342.267-.798.4-.798 1.334s-.199 1.567.37 1.567c.57 0 .884-.533.941-1zM437.718 904.105c-.029-.667-.798-1.934-.798-1.934-.769.133-.627.467-.798 1.034-.171.567-.541.4-.627 1.067-.086.667.513 1.067 1.168 1.067s1.083-.567 1.055-1.234zM433.331 907.84c.057-.5-.855-.767-.855-.767-.57.434-.427.6-.37 1.367s.114.834.769.667c.655-.167.399-.767.456-1.267zM438.259 911.674c-1.054-.534-2.621-.434-2.621-.434s-.741-.9-.712-1.167c.028-.267-.256-.8-.256-.8-.114.167-.883.9-.798 1.867s-.228 1.467.541 1.667c.769.2 1.14-.5 1.282.467.142.967.285 1.301.285 2.368v4.068s.029 1.334.655.8 1.026-1.467 1.367-1.834c.342-.367.855-.467.826-1.267-.029-.8-.256-3.902-.256-3.902s.741-1.299-.313-1.833zM438.459 923.279c-.313 0 .484-1.734-.142-1.434l-.627.3c-1.054.2-1.994.834-2.365 1.334-.37.5-1.168 1.901-1.595 1.901-.427 0-.94.667-.171 1.367.769.7 1.709 1.734 2.194.9.484-.834.712-1.834 1.168-2.468.455-.633 1.851-1.9 1.538-1.9zM440.054 926.514c-.798-.534-1.168-.467-1.168-.467-.712.6-1.424.434-1.823 1.201-.399.767-1.139 1.534-.285 1.867s1.367.633 1.595.333c.228-.3.826-1.401 1.253-1.667.428-.267 1.226-.734.428-1.267zM440.994 924.213c-.342.734-.684 1.067-.285 1.467.399.4.627.667.997.267s.541-.867.228-1.367c-.313-.501-.94-.367-.94-.367zM409.472 913.991l-.242-.033c-.513.017-.997-.333-1.581.167s-.698.45-1.04 1.067c-.342.617-1.353.067-.841.85.513.784.299.934.94.884.641-.05.869-1.434 1.197-1.667.328-.234.555-.317 1.011-.35.456-.033 1.382.083 1.083-.45s-.527-.468-.527-.468zM442.134 848.98c-.57 0-1.282-.433-1.453.233-.171.667-1.054 1.334-.342 1.667.712.334 2.45.233 2.649 0 .199-.233.57-1.301-.143-1.601l-.711-.299zM433.018 848.547c.57 0 .997.267 1.254.7.256.433 1.367.834 2.279 1.034s.912-.033 1.424-.7c.513-.667.855-.9 1.538-1.367.684-.467 1.168-1.134 1.168-1.134s.142-.3.028-.7c-.114-.4-1.026.334-1.51.434-.484.1-.256.3-1.424.167-1.168-.133-.598-.534-1.538-1.334-.94-.8-1.88.7-2.735 1.167-.855.465-1.054 1.733-.484 1.733zM430.027 838.109c.712.067 1.453-.6 1.282-1.034-.171-.433-.883-.7-1.424-.534l-.541.167c-.286.934-.03 1.334.683 1.401zM430.226 838.976c.029.634-.199 1.034.114 1.367.313.333.997.7 1.738.434.741-.267 1.254-1.034.627-1.401s-1.339-.434-1.652-.434c-.314.001-.827.034-.827.034z"/><path fill="#231F20" d="M435.097 842.778c.627.7.912 1.534 1.196 1.567.285.033.826-.1 1.595.1s2.25-.233 2.792.3 1.083 1.867 2.593 2.901c1.51 1.034 2.621.467 3.276.3.655-.167 1.396-.834 2.194-1.367.798-.534 1.567-.033 1.624-.967.057-.934-.228-1.201-.741-1.901s-.883-1.267-1.88-1.434c-.997-.167-3.02-.367-3.276.4-.256.767-.256 2.068-.741 1.801-.484-.267-1.111-.6-1.111-1.334 0-.734-.028-2.568-.541-2.568s-1.88-.333-2.507.033-1.652.534-1.88.267c-.228-.267-.598-.9-1.168-1.367-.57-.467-2.507.6-2.507.6-.228.5-.798 1.367-.484 1.834.313.468.94.134 1.566.835zM429.343 847.88c.225-1.052-1.459-.395-1.796-1.25-.337-.854.674-.854 1.291-.92.617-.066-.112-1.249-.561-2.366l-1.042-.333s-2.336.333-2.735 1 0 1.801.399 2.601c.398.801 4.216 2.268 4.444 1.268zM416.921 845.612c.627 1.067 3.077 2.334 3.077 2.334s1.254 1 .057 1.601c-1.197.6-2.279.267-2.507-.667-.228-.934-.285-1.201-1.254-1.134s-2.678.667-2.849 1.667c-.171 1-1.254 2.001.798 2.068 2.051.067 1.994.133 2.279.934.285.8 1.254-.6 2.051-.467.798.133 2.222 1 2.507.267.285-.734 1.595-2.001 1.937-2.334.342-.334.912-2.068.912-2.734 0-.667-1.652-3.802-1.652-3.802s-1.31.334-2.279.667c-.969.333-2.564.934-2.678.133-.114-.8-2.108-3.135-2.108-3.135s-.513-2.067-1.766-1.334l-1.254.734s-.399 1.667.912 3.135c1.31 1.467 3.191 1 3.817 2.067zM401.794 842.811c.798.7.883 1.734 2.564 2.234s.826-.367 1.311-1.601c.484-1.234-.513-.367-1.339-1.434s-.94-.8-1.595-1.701c0 0-1.681.267-1.766.934-.086.668.028.868.825 1.568zM407.805 847.246c.313-.1.855-1.167.342-1.567-.513-.4-1.28-.195-1.28-.195l.141-.072c-.769.4-1.139.434-.769 1.234s1.253.7 1.566.6zM410.512 850.014c.342.033.94-.734.684-1.334-.256-.6-1.624-1.031-1.396-1.067-1.054.167-1.51.2-1.026.967.484.767 1.396 1.401 1.738 1.434zM397.834 858.851c1.197-.1 2.108-1.234.741-1.701l-1.367-.467c-.712.167-1.738.033-1.567.967.171.934.997 1.301 2.193 1.201zM391.595 865.054c.627-1.667-.513-1.401-.855-1.667 0 0-1.083.2-1.595.734-.513.534-.456 1.201.57 2.468 1.026 1.266 1.254.132 1.88-1.535zM394.045 867.855c.57.467 1.937-.4 2.564-1.667s-.171-1.667-.171-1.667-1.937-.133-2.393 0c0 0-1.766.8-.969 1.667.798.867.4 1.2.969 1.667zm2.021-2.713c-.038.917-1.043 1.948-1.84 2.017-.091-.243-.203-.609-.315-.84-.079-.164-.127-.223-.216-.36l-.219-.359c.737-.664 1.408-.486 2.59-.458zM398.119 867.688c-.256.834-.627 2.334-.37 3.301.256.967.37 1.567.37 1.968s.769.133.94-.734c.242-1.223.165-5.809-.94-4.535zM408.66 869.989c.342-.167.313-2.168-.029-2.601-.342-.434-1.137-.467-1.137-.467-.079.6-.572.767-.138 1.501.434.734.612 1.734 1.304 1.567zM412.392 871.99c.57-.133.969.133.712-.734s-.171-1.134-.826-1.467c-.655-.333-1.026-.167-1.026-.167-.484.734-.912.733-.199 1.3s.769 1.202 1.339 1.068zM390.114 910.773c-.484-.133-1.339.133-1.339.133-.342.667-1.367.934-.513 1.601.855.667 2.336 1.267 2.507.4.171-.866-.171-2-.655-2.134zM391.596 895.567c-.484 0-.883.1-.883.1-.285.6.228.434-.969 1.134s-3.333 1.734-2.45 1.801c.883.067 1.567-.234 2.108.267.541.5 1.367.567 1.823.5.456-.067 1.909-.2 1.339-.767-.57-.567-1.026-.434-.997-1.334.029-.901.513-1.701.029-1.701zM383.377 894.183c.228.867.897 1.818.897 1.818s.228 1.467 1.766.934c1.538-.534 2.792-1.867 2.792-1.867s2.279-2.134 2.279-2.601c0-.467.228-2.134.228-2.134s-.285-.4-.741.2c-.456.6-1.197.467-1.197.467s.114-1.2.513-1.534c.399-.333.983-1.818 1.011-2.718.028-.9 0-2.101.171-2.501.171-.4.427-1.467.427-1.834s-.057-2.968-.057-2.968-.256-1.034-.94-.367c-.684.667-1.254.934-1.424 1.501-.171.567-.655.167-.171 1.701s.997 1.401.798 2.068-.456 1.167-1.909 2.468-2.991 1.801-2.991 1.801-1.624.534-.541-1.1c1.083-1.634 1.994-1.968 2.649-2.568.655-.6.997-1.701.769-2.168-.228-.467.513-1.034-.855-1.267-1.367-.233-2.479.133-2.479.133s-.712.9-.798 1.901c-.086 1-.997 2.301-1.253 2.301s-.712-.634-.712-.634.228-1.701 0-1.701-1.396-.234-1.567.567-.598.4-.969 1.067c-.37.667-1.282 1.567-.427 1.801.855.233 1.852-1.034 1.766-.033-.086 1.001-.627 1.334-.057 2.301.57.967 1.054 2.701 1.766 3.335s1.028.764 1.256 1.631zm-1.359-2.731c-.384-.647-.673-1.53-1.02-2.21-.83-1.629-.009-.974-.092-2.541-.071-1.346-1.079-.856-1.771-.627.4-.711.297-.494.899-.971.661-.524.144-.982.901-.895l-.078 1.335c.402.229 1.545 2.613 2.978-.995.771-1.941-.283-2.702 3.076-2.317.008.529.161.867.017 1.315-.317.987-1.394 1.31-2.208 2.155-.77.799-2.589 3.168-.884 3.633 1.633.446 6.069-2.818 6.365-4.875.433 3.39-1.07 4.498-1.311 5.259l-.194 1.876c.628.177 1.172.134 1.731-.122-.102 1.34-.295.88-.713 1.653h-6.216c-.325-.727-1.041-.934-1.48-1.673zM379.531 889.981c-.086-.433-.057-.834-.712-1.567-.655-.734-.741.1-.769 1s-1.282.534-.684 1.734 1.367.967 1.88.667c.513-.3.684-.2.57-1.067 0 0-.2-.333-.285-.767zM377.223 887.013c-.57-1.167-.94-1.667-.313-1.801.627-.133 1.909.3 1.225-1.201-.684-1.501-.313-2.334-1.396-2.201s-1.425-.233-1.624.634-.798 2.468-1.823 1.467c-1.026-1-1.339.767-1.339.767s-.997.2.057 1.334c1.054 1.134 2.535 1.834 2.735 2.234.199.4 1.481.6 1.88.067.399-.533 1.168-.133.598-1.3zm-2.939-.016c-.817-.591-1.329-.935-2.015-1.633.117-.27.163-.656.342-1.037 2.24 1.614 2.457-.574 3.04-1.798l1.181-.03c.159.335.508 1.517.619 1.886-.82.053-1.514.045-1.594.984-.066.779.462 1.36.656 1.935-1.113 1.14-1.239.411-2.229-.307zM378.847 882.378c1.253.934 3.419-.333 3.419-.333s.456-1.067.256-1.467a3.8 3.8 0 00-.541-.767c-.741.267-.456.467-.826 1.134-.37.667-1.51.633-1.51.633s-2.051-.134-.798.8zM373.434 879.91s.342-.367.741-.967.2-1.467.228-2.134c.029-.667 1.481-.767 2.393-1.567.912-.8-.057-1.134-.627-1.901s-.883-.167-1.026 0c-.142.167-.94 0-1.852.1s-1.083 1.667-1.083 2.634c0 .967-.256 1.467.57 2.968.827 1.5.656.867.656.867zm-.319-5.803l1.426-.013c.597.001.657-.169 1.063-.36.189.223.5.627.659.838-.613.606-1.664.713-2.211 1.252-.867.855.084 1.893-.727 2.921-.8-.923-.907-3.508-.21-4.638zM376.511 872.007c.313-.167.627-.634.456-.934-.171-.3-.969-.233-.969-.233-.627.267-.94.233-.712.667.228.433.912.666 1.225.5zM462.551 931.461c-1.235-.297-3.191.099-3.423.371-.627.734-2.45 2.801-.627 2.734 1.823-.067 3.533-.133 4.387-.267.855-.133 1.823-2.068 1.481-2.468-.341-.4-1.818-.37-1.818-.37zM464.997 933.499c.342.934 2.108.6 2.336.2.228-.4-.798-1.534-.798-1.534-.741.267-1.88.4-1.538 1.334zM469.27 933.566c.399.467 1.538.8 1.709.067.171-.734-.399-1.401-.399-1.401-1.139.667-1.709.867-1.31 1.334zM518.227 875.323c-1.538.267-3.646 0-3.305.267.278.217-.822.696-.91.976.226.141.332.228.112.158-.117-.037-.132-.094-.112-.158a29.908 29.908 0 00-1.255-.709l-.798-1.267s1.766-.067 2.507-.2c.741-.133 3.817-1.201 3.817-1.201l-1.367-1.667s-1.14-2.001-3.476-2.335-3.875-.734-5.641-.8-3.419-1.401-3.419-1.401l-.57-.801s-1.595.333-1.367-.534c.228-.867.399-2.001 1.026-2.001s2.906-.2 2.906-.2l-.513-1.734s1.88-.734 2.735.934.285 1.734 1.424 1.801c1.14.067 3.533 0 4.159 0h2.108s1.624-.834.627-1.234c-.997-.4-1.453-.067-2.165-.467s-1.852-.567-1.937-.767c-.085-.2-2.051-3.068.057-1.467s2.194 1.534 3.362 1.534 1.14-.634 1.14-.634-1.026-1.3-1.567-1.834c-.541-.534-1.738-1.301-1.852-1.801-.114-.5-.541-.834-1.396-.967-.855-.133-2.82-.834-2.194-1.234s3.048.534 3.02-.433c-.029-.967-.484-1.467-1.168-1.901-.684-.434-.37-2.268-1.225-2.168-.855.1-1.994-.9-2.735-.2s-2.507 1.134-3.191.7c-.684-.434-1.14-1.501-1.652-1.401-.513.1-2.45.634-3.105 1.034-.655.4-3.305.067-3.504.467-.199.4-1.14 2.134-1.339 3.068-.157.733-.974.696-1.431 1.335.054-.131.066-.293.007-.501-.37-1.301.684-1.434.684-2.768s-.199-1.767-.541-2.501-.798-2.101-1.254-2.301c-.456-.2-2.279-1.5-2.621-1.934-.342-.434-1.795-.9-2.194-.867-.399.033-3.903-.4-4.131.467-.228.867-.513.7.171 1.634.684.934.427 2.201-.228 1.934-.655-.267-.912-.734-1.652-1.334-.741-.6-5.755-.434-7.065-2.568-1.311-2.134-2.963-2.868-3.988-3.802-1.026-.934-1.709-4.802-2.507-2.401s-1.367.534.798 4.002 3.305 4.802 3.305 5.402c0 .6.969 2.868-1.424 1.534-2.393-1.334-4.672-.534-4.33.534.342 1.067.627 4.002.627 4.002s-1.709.6-2.507-.133c-.798-.734-1.994-3.001-2.279-1.2-.285 1.801-1.424 3.335-.399 3.868 1.026.534 4.786 1.734 3.305 2.268-1.481.534-2.336.267-1.652 1.334.684 1.067.969 3.135.684 3.802-.285.667-1.083 2.801-1.538-.667-.456-3.468.627-2.868-.855-2.868-1.481 0 .171 2.068-1.709 3.201-1.88 1.134-1.481 2.134-.285 3.535 1.197 1.401 4.587 3.902 4.786 4.102.199.2.513 1.134.513 2.301 0 1.167.769 3.402.883 4.469.114 1.067-.399 2.067.228 2.368s.567.926.685 1.134l-2.393 2.801-.057-6.336-.969-4.135s-.798-.534-1.424.067c-.627.6-1.937 1-2.336 1.467-.399.467-.399 2.001-1.197 2.134s-1.254-.2-1.254-.2l.285 1.801-.855.2s.399-3.201-.399-2.268c-.798.934-1.823 1.534-2.108 2.201-.285.667.399 2.468.399 2.468l-1.766.133s-1.367-1.334-1.595-.934c-.228.4.171.734 0 2.001s-.456 2.134-.912 2.468c-.456.333.57-1.401-.969-1.401-1.538 0 0 1.401-1.88.934-1.88-.467-1.937-.467-1.937-.467s-.798 1.934 0 2.468 1.424.6 1.253 1.467c-.171.867-.399 1.467-.969.867-.57-.6-.684-2.268-1.026-1.467-.342.8-.399 2.401.114 2.935.513.533 1.937.133 1.538 1.134-.399 1-1.197.934-1.937.534-.741-.4-.342-2.134-1.595-1.867-1.254.267-2.326 1.822-2.326 1.822s.104 1.313.958 1.913c.855.6 2.564-.133 1.88.867-.684 1 .228 1.601-1.026 1-1.253-.6-1.253-2.534-1.766-1.467-.513 1.067-.114 1.334.342 1.734.456.4 2.393.8 1.424 1.267-.969.467-2.45-1.134-2.735-.133-.285 1.001-.057 1.334.513 1.934.57.6 2.963 3.602 2.963 3.602s-.513.267-1.595 1.067c-1.083.8-.798-.467-1.197.133-.399.6.228 2.401.228 2.401s-1.823-.8-1.766-1.401c.057-.6.205-1.125-.912-1s-1.368 1-1.368 2.134 1.595 1 1.709 2.401c.114 1.401 1.367 1.801 1.481 2.734.114.934 1.311 1.934 1.88 2.134s1.026-.267.57.8c-.397.929.414 1.604.631 1.764-.21-.142-.969-.579-.574.837.456 1.634 1.083 1.467 1.083 2.201s.997 1 1.225 1c.228 0-.057-1.167-.057-1.167s-.883-1.034-.484-1.234.969.2.969.2.143.934.399 1.601c.256.667.94.534.826.867-.114.333-.541 1.1.086 1.167.627.067 2.507.433 2.507.433s.028 2.034 1.282 2.868c1.253.834.883.567 1.909.467 1.026-.1 1.652-.767 1.652-.767s.798-1.267-.228-1.201c-1.026.067-2.279.3-2.336-.3-.057-.6-.199-1.967-.199-1.967s1.225.434 1.253-.267c.029-.7-.199-1.734-.513-1.734s-1.481-.067-.94-.834c.541-.767 1.766-.7 1.766-.7s.997-.767.028-1.234c-.969-.467-2.137-.467-1.595-.934.541-.467 1.538-.333 1.538-.333s1.339-1-.199-1.134c-1.538-.133-2.479.1-2.507.3-.028.2-1.14-.033-1.14-.2s-.142-1.234.427-1.634c.57-.4.285-2.101.285-2.101s-1.424-.4-1.14-1.067c.285-.667 1.595-.7 1.966-.7.37 0 .969-.767 1.197-.534.228.233.342 1.934.94 2.034.598.1 1.51-.233 1.51-.233s-.769.934.085 1.267c.855.333 1.197-.367 1.424.6.228.967-.057 2.601.085 2.601.142 0 1.795.067 2.479.333.684.267 1.225.033 2.023.834.798.8 2.279 1.234 2.507 1.201.228-.033.427.467.798.934.37.467 1.966.8 2.308.2.342-.6.456-.4.712-.433.256-.033 2.365-.034 3.732-.667 1.367-.634 2.878-.8 3.191-1.767.313-.967.342-2.068.342-2.734 0-.667.142-2.734.142-3.101s.399-1.134-.912-.7c-1.31.434-.37.634-.883 2.101s-1.31 2.835-1.823 3.535-1.424 1.734-2.763 1.767c-1.339.033-2.678.4-2.678.667s-.484.367-.484.367-1.168-1.1-.427-1.767c.741-.667 1.652-.634 1.738-.967.085-.333.029-1-.684-1.067-.712-.067-1.966.367-1.966-.2s-.427-1.334.712-1.834c1.14-.5 2.222-1.067 1.909-1.467-.313-.4-.171-.5-.484-.867s-1.823 0-2.222.267-.997.534-1.254.133c-.256-.4-1.937-.067-2.108.067-.171.133-.427-.8.541-1.434s1.538-.333 2.308-.333c.769 0 .969-.6.969-.6s1.054-1.667-.029-1.667-1.595.667-1.595-.467c0-1.134.627-.534.627-1.134s-.285-.4-.969-.867c-.684-.467-.285-.734-.456-1.334-.171-.6-1.823-.8-1.766.067.057.867-1.31.6-1.31.6s.114-1.734-.171-2.068c-.285-.333.057-1.201-1.481-.934s-1.766.133-1.766.133.228-1.267 1.14-1.334c.912-.067 2.051 1.201 2.735 1.201s1.652-.067 1.424-.6c-.228-.534.057-1.534.057-1.534s1.538.067 1.652 1.534c.114 1.467.057 1.534 1.026 1.534s.627-1.601 1.254.734c.627 2.334 1.994-.534 2.621.867s-.57 1.667.285 2.534c.855.867 1.766-.867 2.108.934.342 1.801-.798 1.934.456 2.068s1.367-1.467 1.595-1.801c.228-.333.912.667 1.083-.6.171-1.267-.798-1.668.171-2.268s1.424-.667 2.621-.067c1.197.6 1.652 1 1.88 1.801.228.8 1.14-.2 1.595 1 .456 1.201.342 1.401.456 2.468.114 1.067 1.595 1.601 1.88.8.285-.8-.171-2.201-.171-2.801 0-.6.228-.8-.399-1.601-.627-.8-.399-1 .171-1.401.57-.4.57-.667.627-1.534.057-.867.741-1.067 1.14-1 .399.067 1.339-.367.855-1.167s-.997-.567-1.026-1.701.37-1.967-.997-1.934c-1.368.033-1.368.767-3.276.233-1.909-.534-.655 0-1.481.467-.826.467-1.852.5-1.823-.3.028-.8-.57-1.801.284-1.868.855-.067 1.937-.467.969-1.267-.969-.8-1.595-.4-2.678-1.534s-2.45-1.801-3.077-2.134c-.627-.333-3.191-1.334-3.077-2.201.114-.867.627-2.001.627-2.001s.342-3.401 1.083-1.934.969 3.268 1.652 3.602c.684.333 3.362 1.334 3.761 2.334.399 1.001 1.937 1.801 2.792 1.801s2.564-1.467 2.621-.6.912 2.468 2.165 1.734c1.253-.734 2.564-.734 3.02-.667.456.067-.684-4.335.399-3.335 1.083 1 .627 2.201 1.253 2.468.627.267 1.766.467 1.937 1.467.171 1 .171 1.667 1.31 1.601s1.196-1.534 2.564-2.334c1.367-.8 4.672-3.068 4.672-3.068l.285 1.534s1.937-.133 1.937-1-.57-2.068.171-2.268c.741-.2 1.254-1.334 1.254-1.334h-1.88s-2.507-.667-.969-.934 1.937-.734 2.393-.534c.456.2 1.994.534 1.994.534s.399-.534-.285-1.067c-.684-.534-1.424-1-2.279-1s-2.222-.2-1.766-.8c.456-.6.798-1 1.196-.534.399.467 1.14.667 1.14.667s-.228-2.134.855-.934c1.083 1.2 1.482 1.601 1.88 1.534.399-.067 1.766.267 1.88-.067.114-.334.114-2.268.855-1.467.741.8 2.365.7 3.561.8 1.197.1 2.251-1 3.077-.6.826.4 1.88-1.734 1.88-1.734s1.88-.467 2.621-1.201c.741-.734 2.165-1.867 2.165-1.867s1.078-1.07-.46-.804zm-49.807 14.299c1.557.728 2.798 1.336 4.048 2.561.514.503.708.529 1.224.942h-26.317c.312-.738.504-1.533-.25-1.978-.787-.464-1.222.124-1.438-.994.883 1.007 1.756.892 2.151-.651.471-1.84-.573-2.008-1.469-2.682l.034-.862c.463-.16 1.437.299 2.055.333 1.517.082.759-.948 1.548-1.005.284.49-.108 1.136.587 1.355 1.309.412 1.831-2.693 1.819-4.109.807.62.435.645 1.655.557.649-.047 1.303-.061 1.95-.178-.742-2.786-1.474-2.368.645-4.128l-.166 1.949 2.281-.466-.182-1.401c2.052-.331 1.373-1.066 2.057-2.32.218-.399 1.022-.659 1.361-.842.47-.253.896-.785 1.421-.75.52 1.121.923 3.867.927 5.199.007 2.121.017 4.238.07 6.359.419-.133 2.088-2.332 2.52-2.813-.116 2.679-2.548 4.045 1.469 5.924zm47.626-12.324c-.512.445-1.007.682-1.711.909-1.413.455-.732.066-1.481 1.196-.736 1.11-.647.514-1.78.709-1.367.235-1.189.994-4.314.468-.997-.168-1.199-.791-1.804-.812-.874-.03-.905.881-1.118 1.738-.248.057-1.285-.015-1.506-.113-.287-.128-.717-.687-.956-.941-1.543-1.646-1.771-.632-2.26.037-.776-1.181-2.153.092-2.342.928-.348 1.539 1.54 1.518 2.615 1.604-.196-.024-1.113.364-1.45.453-.518.138-1.233.141-1.499.58-.793 1.307 1.184 1.9 2.08 1.954-.901.903-.446 1.361-.359 2.75l-.753.33c-.099-.292-.148-.606-.194-.871-.027-.156-.057-.367-.092-.498l-.174-.44-4.125 2.737c-1.781 1.134-1.68.891-2.799 2.434-.307.423-.456.681-1.178.533-.53-2.175-.496-2.305-2.458-2.958-.446-1.442-.688-2.798-2.183-2.611-.767.482-.349 2.556-.29 3.38a7.277 7.277 0 00-1.535.263c-.506.15-.937.441-1.309.553-1.366.412-.819-1.737-1.771-2.067-1.411-.489-1.861 1.736-4.07.267-1.631-1.085.327-1.175-4.363-3.293-1.485-.671-1.047-2.829-2.137-3.934-.543-.55-.466-.071-.814-1.11-.299-.894-.305-.655-.845-1.203.048-4.077-.183-2.111-.739-5.429-.472-2.82.288-2.738-1.83-4.43-6.932-5.538-4.095-4.687-3.155-6.026h1.288c.513 3.338 2.361 2.159 2.734 0h23.896c-.297-.338-.579-.81-.554-1.335.057-1.201 1.083-1.401 1.396-1.434.313-.033.313-.467.684-1.301.37-.834-.655-1.701-1.168-1.801-.513-.1 0 1.434-.798.367s-.484-1.767-.997-.734c-.513 1.034-1.339 1.501-1.795 1-.456-.5-.741-1.867.085-2.168s1.339-.9 1.111-1.167c-.228-.267-.256-.434-.997-.4-.741.033-1.196 1.034-1.367.433-.171-.6.142-1.3.627-1.734.484-.434.484-.567.798-1.167.313-.6.228-2.601.997-.767s-.883 1.234-.086 1.867c.798.634 1.083-1.167 1.282-.133.199 1.034 1.111 2.735 1.396 2.735.285 0 1.595-1.034 1.966-.567.286.361 1.659.639 2.097.146a1.666 1.666 0 00-.188.554c-.228 1.434-.399 1.567-.313 2.468.086.9-1.396 3.735-.285 3.535 1.111-.2 1.909-1.067 2.279-1.667.37-.6.484-.1.57.9s1.082 1.201 1.396 1.134c.313-.067.399.7.57 2.334.171 1.634 1.026 2.434 1.624 2.868.598.434.57 1.134.313 1.134s-.826-.9-1.253-1.1c-.427-.2-1.083-.433-.997.5s1.026 1.367 1.196 1.867c.171.5.513 1.568.086 2.101-.427.534-.199 1-1.396.3-1.197-.7-2.137-2.034-1.709-2.834.427-.8 1.652-1 1.339-2.068-.313-1.067-.712-1.634-.969-2.368s.427-1.867-.769-1.534c-1.197.333-1.937.434-2.137 1-.2.567-1.396.5-1.51-.333-.114-.834.57-1.401-.114-1.601-.522-.153-1.471.471-1.753.968h1.121c-.119 1.336.674 2.189 1.831 1.936 1.266-.277-.19-.729 2.506-1.316.007 1.63.86 2.222 1.064 3.503-.598.716-1.927 1.261-1.329 2.981.456 1.309 2.833 3.45 3.809 2.348.846-.955.914-2.34.344-3.545-.199-.422-.706-.863-.984-1.272.644.412 1.007 1.448 1.845 1.012.403-.281.578-.834.351-1.505-.555-1.644-1.583-.065-2.114-4.142h3.573c-.102.532-.658 1.912.362 2.375.419.19.884.011 1.162.228.275.215.214.421.779.783 1.624 1.042 2.345 1.175 4.467 1.352l4.935.801c1.342.331 1.855.999 2.608 1.93.358.443.455.375.674.946-3.326.824-1.988.955-6.255 1.034.185.444.442.817.674 1.185.976 1.543.527 1.12 1.809 1.89.78.469.376.529 1.331.337.027-.047.256-.952.992-1.104.336-.07 1.523-.064 1.922-.052-.377.25-.966.873-1.353 1.21z"/><path fill="#231F20" d="M477.413 908.526c-.057.333-.627 1.267-.114 1.601.513.333 1.709-.267.912-.934l-.798-.667zM482.712 909.393l-.969.067c0 1-.114 1.467.798 1.334.911-.133 1.139-1.467.171-1.401zM489.663 898.455c-1.595-.133-.57-1.067-1.595-2.668-1.026-1.601-1.14.934-.969 1.934.171 1-1.652 1.601-1.994 2.068-.342.467-.456 1.667.114 2.468.57.8 1.937 2.801 2.393 3.468.456.667 2.621 2.201 2.621 2.201s-.38-.275.513-.6c.892-.325-1.253-2.134-1.481-3.401-.228-1.267-.285-2.734.228-3.868s1.196 1 2.051-.8c.854-1.802-.286-.668-1.881-.802z"/><path fill="#FFF" d="M515.477 876.143c-.736.153-.965 1.058-.992 1.104-.955.192-.551.132-1.331-.337-1.281-.77-.833-.348-1.809-1.89-.232-.368-.49-.74-.674-1.185 4.266-.079 2.929-.211 6.255-1.034-.219-.571-.316-.503-.674-.946-.752-.93-1.266-1.598-2.608-1.93l-4.935-.801c-2.122-.177-2.844-.31-4.467-1.352-.565-.363-.504-.569-.779-.783-.279-.217-.744-.039-1.162-.228-1.02-.462-.464-1.843-.362-2.375h-3.573c.532 4.077 1.559 2.498 2.114 4.142.227.671.052 1.225-.351 1.505-.838.437-1.201-.599-1.845-1.012.278.409.785.849.984 1.272.569 1.205.502 2.59-.344 3.545-.976 1.101-3.353-1.039-3.809-2.348-.598-1.72.73-2.264 1.329-2.981-.204-1.281-1.057-1.873-1.064-3.503-2.695.587-1.24 1.039-2.506 1.316-1.156.253-1.95-.6-1.831-1.936H465.37c-.373 2.159-2.221 3.338-2.734 0h-1.288c-.94 1.339-3.777.488 3.155 6.026 2.118 1.692 1.357 1.61 1.83 4.43.556 3.318.786 1.352.739 5.429.541.548.546.309.845 1.203.348 1.04.272.56.814 1.11 1.09 1.105.652 3.263 2.137 3.934 4.69 2.118 2.732 2.208 4.363 3.293 2.209 1.469 2.658-.756 4.07-.267.953.33.406 2.479 1.771 2.067.372-.112.803-.403 1.309-.553a7.408 7.408 0 011.535-.263c-.059-.825-.478-2.898.29-3.38 1.495-.187 1.737 1.169 2.183 2.611 1.961.653 1.927.783 2.458 2.958.722.148.871-.109 1.178-.533 1.119-1.544 1.018-1.301 2.799-2.434l4.125-2.737.174.44c.034.131.064.343.092.498.046.265.095.579.194.871l.753-.33c-.087-1.389-.542-1.847.359-2.75-.896-.054-2.873-.647-2.08-1.954.266-.439.981-.442 1.499-.58.337-.089 1.254-.477 1.45-.453-1.076-.086-2.963-.065-2.615-1.604.189-.837 1.565-2.109 2.342-.928.488-.669.717-1.683 2.26-.037.239.255.669.813.956.941.22.098 1.258.17 1.506.113.213-.857.244-1.768 1.118-1.738.605.021.808.644 1.804.812 3.125.526 2.947-.234 4.314-.468 1.132-.194 1.044.401 1.78-.709.749-1.13.068-.74 1.481-1.196.705-.227 1.199-.464 1.711-.909.388-.337.977-.961 1.354-1.207-.401-.013-1.587-.019-1.924.051zM435.949 884.151c.254-.292.408-.499.674-.799.275-.31.391-.502.675-.78l1.848-2.458c.272-.402.922-1.435 1.295-1.71-.064.867-.669 2.779-.221 3.415.355-.704-.051-1.223.782-2.274-.203-2.111.271-2.692 1.115-3.85 1.225-1.681 1.839-1.716 2.3-2.576-.658-.356-1.955-.018-1.797-1.303.121-.984 2.427-1.966 3.516-2.719.439-.304 1.573-1.095 2.034-1.256l.655 2.797c.576-.335.015-.237.853-1.41.415-.581.75-.797 1.11-1.259.469-.603.914-2.666 1.234-3.581h-42.16c.424.425 2.101.512 2.861.865 2.143.995 4.977 4.63 5.447 6.45-1.781.643-2.386 1.453-4.699 1.554-2.394.104-3.185-.22-4.948 1.133-.554.425-1.253 1.168-2.022 1.205-.79.038-1.773-.299-2.48-.555-1.54-.557-2.866-1.289-4.374-1.775l1.887 4.673c.179.437.366.668.517 1.085.552 1.528.487 3.036 1.613 3.164-.185-1.352.333-1.638.621-2.783.935.07 1.741.24 2.727.192 1.118-.055 1.338-.189 1.559-1.394.792.14 1.11.311 2.006.245-.416-.86-.554-1.631.108-2.39.756-.867.709.365 1.509-1.37 1.663.515 1.068 1.317 2.109 1.418.82-.92 1.197-3.14 2.809-2.508.931.365 1.071.187 1.721 1.032.566.736.389 1.25.301 2.37-.074.941-.102 1.883-.22 2.818-.148 1.172-.389 1.313-1.116 1.745-2.132 1.266-2.366-.712-2.658-1.672-.137-.451-.016-.087-.109-.281-1.08-.02-1.073-.058-1.763.494.067.696.612 1.168.798 2.154.359 1.897-.01 3.018-1.044 4.401-.574.768-.587.719-1.449 1.254-.188.891-.383 1.673-.593 2.549-.199.828-.504 1.738-.519 2.665h21.416c.182-2.774 2.285-6.915 4.072-8.975zM464.429 886.509a293.083 293.083 0 01-.07-6.359c-.005-1.333-.408-4.079-.927-5.199-.525-.035-.951.498-1.421.75-.339.182-1.143.442-1.361.842-.684 1.254-.005 1.988-2.057 2.32l.182 1.401-2.281.466.166-1.949c-2.118 1.76-1.386 1.343-.645 4.128-.646.117-1.301.131-1.95.178-1.22.088-.848.063-1.655-.557.011 1.417-.51 4.521-1.819 4.109-.695-.219-.304-.865-.587-1.355-.789.057-.031 1.087-1.548 1.005-.618-.033-1.592-.493-2.055-.333l-.034.862c.897.674 1.94.841 1.469 2.682-.395 1.544-1.268 1.658-2.151.651.216 1.118.651.529 1.438.994.754.445.562 1.241.25 1.978h26.317c-.516-.412-.71-.439-1.224-.942-1.25-1.225-2.491-1.833-4.048-2.561-4.017-1.878-1.585-3.244-1.47-5.926-.431.483-2.1 2.682-2.519 2.815zM383.499 893.125h6.216c.418-.773.611-.313.713-1.653-.56.257-1.103.299-1.731.122l.194-1.876c.241-.76 1.744-1.869 1.311-5.259-.296 2.057-4.732 5.32-6.365 4.875-1.706-.465.114-2.835.884-3.633.814-.845 1.891-1.167 2.208-2.155.144-.448-.009-.786-.017-1.315-3.359-.385-2.305.376-3.076 2.317-1.433 3.609-2.576 1.225-2.978.995l.078-1.335c-.757-.088-.24.37-.901.895-.602.477-.498.26-.899.971.692-.229 1.699-.719 1.771.627.083 1.568-.738.912.092 2.541.347.681.636 1.564 1.02 2.21.438.739 1.154.946 1.48 1.673z"/><path fill="#FFF" d="M409.649 886.171c-.776-1.118-.687-1.693.454-2.215-.503-.1-.881-.249-.997-.806-.113-.542.145-1.128.338-1.227-.38.069-1.186.354-1.401.748-.161.295-.552 1.293-.554 1.659.479.403 1.013.469.91 1.509-.092.93-.616.848-.962 1.344.758.84 2.373 1.923.29 2.893-.961.447-.639 1.325-.707 1.831-.114.854-.742.802-1.231 1.218h1.109l.673-.568c1.24-.725 1.39-.116 2.146-1.501l1.807-3.203c-1.04-.119-1.36-.94-1.875-1.682zM377.45 884.385c-.112-.369-.46-1.55-.619-1.886l-1.181.03c-.583 1.224-.8 3.412-3.04 1.798-.179.38-.225.766-.342 1.037.686.699 1.198 1.042 2.015 1.633.991.717 1.116 1.447 2.229.307-.194-.575-.722-1.156-.656-1.935.08-.938.774-.93 1.594-.984zM374.052 875.824c.547-.539 1.598-.646 2.211-1.252-.16-.21-.47-.615-.659-.838-.405.191-.465.361-1.063.36l-1.426.013c-.696 1.13-.59 3.716.21 4.638.811-1.028-.14-2.065.727-2.921z"/><path fill="#231F20" d="M393.911 866.318c.112.231.224.597.315.84.797-.069 1.802-1.099 1.84-2.017-1.182-.027-1.853-.205-2.589.457l.219.359c.088.138.136.198.215.361z"/></svg>