<svg xmlns="http://www.w3.org/2000/svg" viewBox="280.996 153.383 80 80"><path fill-rule="evenodd" clip-rule="evenodd" fill="#181818" d="M280.996 153.383h80.515v79.765h-80.515z"/><path fill-rule="evenodd" clip-rule="evenodd" fill="#232323" d="M321.162 198.119l-.24-.914s-.806.492-1.219.703c-.414.211-.697.422-.37.445.327.023.697.164.697.164s-.131.305-.305.492c-.174.188-.631.492-.675.609s-.479.539-.501.867c-.022.328.131.492-.065.68-.196.188-.174.75-.174.75s-.305.164-.457.023c-.152-.141-.087-.563-.087-.563l-.544.703s-1.154 1.008-1.611 2.086c-.457 1.078-.414 1.055-.501 1.453-.087.398 0 .891-.457 1.078-.457.187-.784.703-1.372.727-.588.023-.762.445-.98-.117s-.915-1.172-.915-1.172v1.383l-.632.234s-1.339.188-1.481.082c-.142-.105-.109-.715-.25-.75-.142-.035-.359-.129-.566.07-.207.199-.24.152-.272.398-.033.246.044.422.207.527.163.105.544.023.512.352-.033.328 0 .856-.098 1.02-.098.164-1.263 2.086-1.263 2.086s-.348.984-.762.914c-.414-.07-.501-.258-.501-.258l-.37-.797-.305 1.125s-.414-.656-.719-1.031c-.305-.375-.762-1.125-.936-.773-.174.352-.044.609.152.797.196.188.849.633.849.797 0 .164-.065.586-.152.727-.087.141-.784.984-1.111 1.172-.327.188-1.198.516-1.437-.047-.24-.563-.044-1.195-.152-1.453-.109-.258-.087-.586-.37-.844-.283-.258-.61-.422-.479-.633.131-.211.305-.164.501-.188s.501-.258.087-.422c-.414-.164-1.089-.07-1.089-.07l-1.067-.082s.544.774.893 1.055c.348.281 1.002.492.915.773-.087.281.24.844-.566.609-.806-.234-1.176-.633-1.415-1.008a7.11 7.11 0 00-.98-1.195c-.327-.305-.871-.961-1.437-1.102-.566-.141-.74-.234-.849-.633-.109-.398.065-.867-.109-1.195-.174-.328-.087-.375.196-.328.283.047.893.117.98.352.087.234.131.774.392.774s.631-.211.871-.023.392.609.392.609.566.422.61.281c.044-.141-.044-.047-.261-.398-.218-.352-.218-.398-.218-.656s.261-.305.261-.305l1.328.047.131-.375s.196-.141-.327-.281c-.523-.141-.61-.398-.697-.656-.087-.258.065-.422.283-.422.218 0 .675-.023.675-.023l.675.328s-.022.352.174.375c.196.023.719-.07.719-.07l1.111-.07s.305.727.915.141 1.415-.586 1.415-.586.675-.352.675-.727.044-.445.044-.445-.044.164-.588.328c-.544.164-.827.774-1.023.68-.196-.094-.936.07-1.176-.117-.24-.188-.827-.891-.827-.891s-.37-.328.152-.211c.523.117.871.68 1.306.516.436-.164.893-.258.806-.492s.131-.539.261-.656c.131-.117.61-.117.24-.422s-.436-.352-.37-.516c.065-.164.327-.281.327-.281s.218-.234-.087-.352c-.305-.117-.174-.516-.174-.516l.327-.68s.631-.094.653-.375c.011-.138.136-.197.261-.194.131.003.261.074.261.194 0 .234-.218.445-.218.445s-.435.398-.109.445c.327.047.631.141.414.375s-.719.094-.392.469c.327.375.414.703.719.445.305-.258.566-.75.566-.75s.109-.492 0-.867-.479-.774-.348-.797c.131-.023.174-.375.544-.375s.653-.117.697.258c.044.375.24.68.523.516.283-.164.414-.094.457-.563.044-.469.109-1.383.109-1.383s-.152-.375-.414-.375c-.261 0-.327-.305-.61.07s-.327.75-.653.75c-.327 0-.61-.422-.61-.539s-.044.352-.305.352-.37.164-.37.375.37.398.109.563c-.261.164-.806.023-.806.023s-.065.234-.283.352c-.218.117-.544.094-.806.094-.261 0-.566-.047-.566-.047l-.196.492.109.398-.327.07s-.305 0-.479-.281-.24-.844-.414-1.125-.523-1.289-.74-1.594c-.218-.305-.152-.703.109-.656.261.047 1.307.492 1.307.492s1.219.469 1.459.305.98-.75 1.35-.75c.37 0 1.611-.047 1.742-.094s.893-.375.893-.375-1.023-1.852-2.243-1.992c-1.219-.141-1.045-.703-1.045-.703s-.806-.891-1.198-1.031c-.392-.141-.414-.281-.065-.563s.827-.094 1.067-.117c.24-.023 1.023.258.74-.281-.283-.539-.327-.68-.849-.844s-.283-.094-.806-.07c-.523.023-1.002.328-1.263-.047-.261-.375-1.154-.82-1.002-1.008.152-.188.044-1.594.044-1.594s-.174-.516.435-.258c.61.258 3.027 1.805 3.484 2.391.457.586 1.655 1.547 2.461 1.734.806.188 3.353-.305 3.528-.633.174-.328-.762-.422-.762-.422s-1.176-.07-.98-.328c.196-.258.544-.609.719-.938.174-.328.305-.82.74-.773.435.047.479.141.501.563.022.422.152.914.348.539.196-.375.784-.797.784-.797s.152-.352.327.023c.174.375.806.305.936.141.131-.164.392-.094.348.234-.044.328.457.492.631.375.174-.117.784-.469.958-.797.174-.328.479.281.348.563-.131.281-.653.68-.849.727-.196.047-1.089.211-1.089.211s1.067.539 1.59.352c.523-.187 1.437-.445 1.59-.516.152-.07-.414-.727-.414-.727l.348-.234s.305.844.523.703c.218-.141.958-.727.958-.727s.631-.352.436.281c-.196.633-1.285 1.219-1.285 1.219s.218.234.523.234c.305 0 .457-.305.457-.305s.501 0 .697.141c.196.141.675-.047.915-.188.24-.141.936-.187.37-.492-.566-.305-1.132-.492-1.132-.492s-.174-.609 0-.984.98-.07.893-.492 0-1.172.392-.633c.392.539 1.241 1.102 1.394 1.242.152.141 1.198.047 1.154.563-.044.516-.065.563-.501.563-.435 0-.98.047-.392.352s1.263.211.675.609-1.067.82-1.089 1.149c-.022.328-.174.469-.632.492-.457.023-.915.117-.479.352s.523.422.327.773c-.196.352-.348 1.195-.566 1.43-.218.234-.566.516-.61.797-.048.281-.516.304-.516.304"/><path fill-rule="evenodd" clip-rule="evenodd" fill="#232323" d="M320.389 199.807c-.054.012-.337.094-.37.316-.033.223-.131.223-.261.41-.131.188-.033.527.25.445.283-.082.468-.293.512-.492.043-.199-.131-.679-.131-.679M319.409 201.201c-.25.082-.555.316-.566.457-.011.141-.697.504-.457.691.24.188.708.059.849.07a.576.576 0 00.523-.223c.163-.211.152-.375.022-.598-.132-.221-.371-.397-.371-.397M318.924 203.621c-.076.023-.305-.199-.327 0-.022.199-.24.656.022.668.261.012.403.047.414-.141.011-.187-.109-.527-.109-.527M317.509 204.395c-.065.129-.435.328-.152.469.283.141.512.234.566.094a.318.318 0 00-.109-.387c-.131-.094-.305-.176-.305-.176M318.086 205.286c-.207.094-.403.094-.218.305.185.211.316.199.414.211.098.012.12-.258.12-.387s-.316-.129-.316-.129M317.324 205.743s-.316.059-.316.152c0 .094-.207.352-.207.516s-.076.504.174.586c.25.082.544.129.566-.035.022-.164-.076-.492-.065-.621.011-.129.12-.27.044-.363-.077-.095-.196-.235-.196-.235M314.928 207.641c-.131.094-.305.141-.305.469 0 .328-.076.551.142.551.218 0 .338-.187.359-.352.022-.164-.044-.223-.022-.375s-.174-.293-.174-.293M316.736 208.872c-.294.047-.24.164-.305.363-.065.199-.207.141-.24.375s.196.375.446.375.414-.199.403-.434c-.01-.234-.304-.679-.304-.679M315.037 210.595c-.218.152-.163.211-.142.48s.044.293.294.234c.25-.059.152-.27.174-.445.023-.175-.326-.269-.326-.269M315.876 211.368c-.044.059-.337.316-.305.656.033.34-.087.516.207.586s.436-.176.49.164c.054.34.109.457.109.832v1.43s.011.469.25.281.392-.516.523-.645.327-.164.316-.445c-.011-.281-.098-1.371-.098-1.371s.283-.457-.12-.645c-.403-.188-1.002-.152-1.002-.152s-.283-.316-.272-.41c.011-.093-.098-.281-.098-.281M317.03 215.892c-.403.07-.762.293-.904.469-.142.176-.446.668-.61.668-.163 0-.359.234-.065.481.294.246.653.609.838.316.185-.293.272-.645.446-.867.174-.223.708-.668.588-.668s.185-.609-.054-.504l-.239.105M317.487 217.263c-.272.211-.544.152-.697.422-.152.27-.435.539-.109.656.327.117.523.223.61.117.087-.105.316-.492.479-.586.163-.094.468-.258.163-.445-.304-.187-.446-.164-.446-.164M318.293 216.619c-.131.258-.261.375-.109.516.152.141.24.234.381.094.142-.141.207-.305.087-.481s-.359-.129-.359-.129M306.153 213.015c-.196.006-.381-.117-.604.059-.223.176-.267.158-.397.375-.131.217-.517.023-.321.299.196.275.114.328.359.311.245-.018.332-.504.457-.586a.685.685 0 01.387-.123c.174-.012.528.029.414-.158-.114-.188-.201-.164-.201-.164l-.094-.013zM318.728 190.179c-.218 0-.49-.152-.555.082-.065.234-.403.469-.131.586.272.117.936.082 1.013 0 .076-.082.218-.457-.054-.563l-.273-.105M318.173 189.511s-.185.234-.446.398-.392.246-.588.481c-.196.234-.196.316-.544.246-.348-.07-.773-.211-.871-.363a.543.543 0 00-.479-.246c-.218 0-.142-.445.185-.609.327-.164.686-.691 1.045-.41.359.281.142.422.588.469.446.047.359-.023.544-.059.185-.035.534-.293.577-.152a.343.343 0 01-.011.245M313.84 185.866c-.109.328-.011.469.261.492.272.023.555-.211.49-.363-.065-.152-.338-.246-.544-.188l-.207.059M314.177 186.663c.011.223-.076.363.044.481.12.117.381.246.664.152.283-.094.479-.363.24-.492a1.424 1.424 0 00-.632-.152c-.12-.001-.316.011-.316.011"/><path fill-rule="evenodd" clip-rule="evenodd" fill="#232323" d="M315.625 187.061c-.087.176-.305.481-.185.645.12.164.359.047.599.293s.348.539.457.551c.109.012.316-.035.61.035s.86-.082 1.067.105c.207.188.414.656.991 1.02.577.363 1.002.164 1.252.105.25-.059.533-.293.838-.48.305-.188.599-.012.621-.34.022-.328-.087-.422-.283-.668-.196-.246-.338-.445-.719-.504-.381-.059-1.154-.129-1.252.141-.098.27-.098.727-.283.633-.185-.094-.425-.211-.425-.469s-.011-.902-.207-.902-.719-.117-.958.012c-.24.129-.631.188-.719.094-.087-.094-.229-.316-.446-.48-.217-.166-.958.209-.958.209M313.432 188.198c.172.393.451.808.215.831-.236.023-.622.023-.493.323s.772.069.686.439c-.087.352-1.546-.164-1.698-.445-.152-.281-.305-.68-.152-.914.152-.234 1.045-.352 1.045-.352l.397.118zM307.286 187.167s-.152.586.348 1.102c.501.516 1.219.352 1.459.727s1.176.82 1.176.82.479.352.022.563c-.457.211-.871.094-.958-.234-.087-.328-.109-.422-.479-.398-.37.023-1.023.234-1.089.586-.065.352-.479.703.305.727.784.023.762.047.871.328.109.281.479-.211.784-.164.305.047.849.352.958.094.109-.258.61-.703.74-.82.131-.117.348-.727.348-.961 0-.234-.632-1.336-.632-1.336s-.501.117-.871.234-.98.328-1.023.047c-.044-.281-.806-1.102-.806-1.102s-.196-.727-.675-.469l-.478.256M308.81 184.354c-.261 0-.784-.094-.61.234.174.328.348.211.588.281.24.07.24-.293.196-.369-.044-.076-.174-.146-.174-.146M306.088 183.827c-.196.023-.381-.117-.425.234-.044.352.283.445.566.48.283.035.294-.07.523-.234.229-.164.131-.375-.044-.469-.174-.093-.62-.011-.62-.011M303.671 187.132c.25.316.294.223.61.598s.697.07.512.504c-.185.434.142.738-.501.563-.642-.176-.675-.539-.98-.785-.305-.246-.348-.316-.316-.551.033-.236.675-.329.675-.329M305.304 188.925c-.294.141-.435.152-.294.434.142.281.479.246.599.211s.327-.41.131-.551c-.196-.141-.489-.069-.489-.069l.053-.025zM306.371 189.698c-.403.059-.577.07-.392.34.185.27.534.492.664.504.131.012.359-.258.261-.469-.097-.211-.62-.362-.533-.375M301.102 183.44s-.632.047-.501.352.61.539.827.305c.218-.235-.326-.657-.326-.657M299.49 184.19s-.446-.117-.457.082c-.011.199-.37.152-.196.41s.577.328.751.27c.174-.059.316-.34.196-.527-.12-.188-.294-.235-.294-.235M298.206 185.585c-.566.129-.827.094-.566.445.261.352.577.481.947.234.37-.246.512-.246.577-.527.065-.281.218-.469-.229-.457-.446.012-.729.305-.729.305M298.423 183.452c-.392-.293-.523-.117-.501-.492.022-.375.152-.691.152-.691s.49-.141.49.281c0 .422-.044.574.272.527.316-.047.686.106.512.328-.173.222-.925.047-.925.047M295.233 181.119c-.25.152-.392.035-.414.34-.022.305-.044.961.229 1.078.272.117.653.164.849.164.196 0 .806.305.675-.105s-.316-.41-.512-.516c-.196-.105-.457-.258-.479-.457s-.348-.504-.348-.504M293.633 180.932c.065.199.425.609.403.75-.022.141.12.375-.163.363-.283-.012-.675-.023-.904-.41-.229-.387-.381-.516-.37-.82.011-.305-.207-.422.087-.457.294-.035.468-.246.631 0s.316.574.316.574M301.559 192.886c-.272.059-.664.012-.599.34.065.328.381.457.838.422.457-.035.806-.434.283-.598l-.522-.164M299.087 195.242c.131.094.566 0 .327.586-.24.586-.327.984-.719.539-.392-.445-.414-.68-.218-.867.197-.188.61-.258.61-.258M300.35 195.64c.174-.047.915 0 .915 0s.305.141.065.586-.762.75-.98.586c-.218-.164-.065-.281-.37-.586-.305-.305.37-.586.37-.586M301.907 196.753c-.098.293-.24.82-.142 1.16.098.34.142.551.142.691 0 .141.294.047.359-.258.093-.429.063-2.04-.359-1.593M305.49 196.484c-.03.211-.219.27-.053.527.166.258.234.609.498.551.131-.059.12-.762-.011-.914-.13-.152-.434-.164-.434-.164M306.926 197.433c-.185.258-.348.258-.076.457.272.199.294.422.512.375.218-.047.37.047.272-.258-.098-.305-.065-.398-.316-.516-.25-.116-.392-.058-.392-.058M298.336 211.942c-.131.234-.523.328-.196.563.327.234.893.445.958.141.065-.305-.065-.703-.25-.75-.185-.047-.512.046-.512.046M299.077 206.586c-.109.211.087.152-.37.398-.457.246-1.274.609-.936.633.337.023.599-.082.806.094.207.176.523.199.697.176.174-.023.729-.07.512-.27-.218-.199-.392-.152-.381-.469s.196-.598.011-.598c-.187.001-.339.036-.339.036M296.616 206.704s.087.516.675.328c.588-.188 1.067-.656 1.067-.656s.871-.75.871-.914c0-.164.087-.75.087-.75s-.109-.141-.283.07-.457.164-.457.164.044-.422.196-.539.376-.639.387-.955c.011-.316 0-.738.065-.879.065-.141.163-.516.163-.645s-.022-1.043-.022-1.043-.098-.363-.359-.129c-.261.234-.479.328-.544.527-.065.199-.25.059-.065.598.185.539.381.492.305.727-.076.234-.174.41-.73.867-.555.457-1.143.633-1.143.633s-.621.188-.207-.387c.414-.574.762-.691 1.013-.902.25-.211.381-.598.294-.762-.087-.164.196-.363-.327-.445-.523-.082-.947.047-.947.047s-.272.316-.305.668c-.033.352-.381.809-.479.809s-.272-.223-.272-.223.087-.598 0-.598-.534-.082-.599.199c-.065.281-.229.141-.37.375-.142.234-.49.551-.163.633.327.082.708-.363.675-.012-.033.352-.24.469-.022.809.218.34.403.949.675 1.172.272.223.392.27.479.574.086.304.342.639.342.639M294.912 204.858c.044.305-.022.27-.218.375-.196.105-.49.188-.719-.234-.229-.422.25-.293.261-.609.011-.316.044-.609.294-.352.25.258.24.398.272.551.034.151.11.269.11.269M291.907 202.725s-.381.07.022.469.969.645 1.045.785c.076.141.566.211.719.023.152-.188.446-.047.229-.457-.218-.41-.359-.586-.12-.633.24-.047.729.105.468-.422s-.12-.82-.533-.774c-.414.047-.544-.082-.621.223s-.305.867-.697.516c-.392-.352-.512.27-.512.27M295.74 201.014c-.283.094-.174.164-.316.398-.142.234-.577.223-.577.223s-.784-.047-.305.281c.479.328 1.306-.117 1.306-.117s.174-.375.098-.516c-.076-.141-.206-.269-.206-.269M292.473 201.049s.065.223-.25-.305c-.316-.527-.218-.703-.218-1.043s.065-.891.414-.926c.348-.035.653.023.708-.035.054-.059.174-.27.392 0 .218.27.588.387.24.668s-.904.316-.915.551c-.011.234.065.539-.087.75-.153.211-.284.34-.284.34M293.453 197.861c-.24.094-.359.082-.272.234.087.152.348.234.468.176.12-.059.24-.223.174-.328-.065-.106-.37-.082-.37-.082M328.44 201.828l-.915.984-.022-2.227-.37-1.453s-.305-.187-.544.023c-.24.211-.74.352-.893.516s-.152.703-.457.75c-.305.047-.479-.07-.479-.07l.109.633-.327.07s.152-1.125-.152-.797c-.305.328-.697.539-.806.773-.109.234.152.867.152.867l-.675.047s-.523-.469-.61-.328c-.087.141.065.258 0 .703-.065.445-.174.75-.348.867-.174.117.218-.492-.37-.492s0 .492-.719.328c-.719-.164-.74-.164-.74-.164s-.305.68 0 .867c.305.188.544.211.479.516-.065.305-.152.516-.37.305-.218-.211-.261-.797-.392-.516s-.152.844.044 1.031c.196.188.74.047.588.398-.152.352-.457.328-.74.188-.283-.141-.131-.75-.61-.656s-.889.64-.889.64.04.461.366.672c.327.211.98-.047.719.305s.087.563-.392.352c-.479-.211-.479-.891-.675-.516-.196.375-.044.469.131.609.174.141.915.281.544.445-.37.164-.936-.398-1.045-.047-.109.352-.022.469.196.68.218.211 1.132 1.266 1.132 1.266s-.196.094-.61.375-.305-.164-.457.047c-.152.211.087.844.087.844s-.697-.281-.675-.492c.022-.211.078-.396-.348-.352-.427.044-.523.352-.523.75s.61.352.653.844c.044.492.523.633.566.961.044.328.501.68.719.75.218.07.392-.094.218.281-.174.375.261.633.261.633s-.414-.293-.24.281c.174.574.414.516.414.773 0 .258.381.352.468.352.087 0-.022-.41-.022-.41s-.338-.363-.185-.434.37.07.37.07.054.328.152.563.359.188.316.305c-.044.117-.207.387.033.41.24.023.958.152.958.152s.011.715.49 1.008c.479.293.337.199.729.164.392-.035.631-.27.631-.27s.305-.445-.087-.422c-.392.023-.871.105-.893-.105-.022-.211-.076-.691-.076-.691s.468.152.479-.094c.011-.246-.076-.609-.196-.609-.12 0-.566-.023-.359-.293s.675-.246.675-.246.381-.27.011-.434c-.37-.164-.817-.164-.61-.328.207-.164.588-.117.588-.117s.512-.352-.076-.398c-.588-.047-.947.035-.958.105-.011.07-.436-.012-.436-.07 0-.059-.054-.434.163-.574.218-.141.109-.738.109-.738s-.544-.141-.435-.375c.109-.234.61-.246.751-.246s.37-.27.457-.188c.087.082.131.68.359.715.229.035.577-.082.577-.082s-.294.328.033.445c.327.117.457-.129.544.211.087.34-.022.914.033.914.054 0 .686.023.947.117.261.094.468.012.773.293.305.281.871.434.958.422.087-.012.163.164.305.328s.751.281.882.07c.131-.211.174-.141.272-.152s.904-.012 1.426-.234c.523-.223 1.1-.281 1.219-.621.12-.34.131-.727.131-.961 0-.234.054-.961.054-1.09 0-.129.152-.399-.348-.246-.501.152-.142.223-.338.738a5.064 5.064 0 01-.697 1.242c-.196.246-.544.609-1.056.621-.512.012-1.023.141-1.023.234s-.185.129-.185.129-.446-.387-.163-.621c.283-.234.631-.223.664-.34.033-.117.011-.352-.261-.375-.272-.023-.751.129-.751-.07s-.163-.469.272-.645c.436-.176.849-.375.729-.516-.12-.141-.065-.176-.185-.305s-.697 0-.849.094c-.152.094-.381.187-.479.047-.098-.141-.74-.023-.806.023-.065.047-.163-.281.207-.504.37-.223.588-.117.882-.117.294 0 .37-.211.37-.211s.403-.586-.011-.586c-.414 0-.61.234-.61-.164s.24-.187.24-.398-.109-.141-.37-.305-.109-.258-.174-.469c-.065-.211-.697-.281-.675.023.022.305-.501.211-.501.211s.044-.609-.065-.727c-.109-.117.022-.422-.566-.328s-.675.047-.675.047.087-.445.436-.469c.348-.023.784.422 1.045.422.261 0 .632-.023.544-.211s.022-.539.022-.539.588.023.632.539c.044.516.022.539.392.539s.24-.563.479.258c.24.82.762-.188 1.002.305.24.492-.218.586.109.891.327.305.675-.305.806.328s-.305.68.174.727c.479.047.523-.516.61-.633.087-.117.348.234.414-.211.065-.445-.305-.586.065-.797.37-.211.544-.234 1.002-.023.457.211.632.352.719.633.087.281.435-.07.61.352.174.422.131.492.174.867.044.375.61.563.719.281.109-.281-.065-.773-.065-.984 0-.211.087-.281-.152-.563-.24-.281-.152-.352.065-.492.218-.141.218-.234.24-.539.022-.305.283-.375.436-.352.152.023.512-.129.327-.41-.185-.281-.381-.199-.392-.598-.011-.398.142-.691-.381-.68-.523.012-.523.27-1.252.082-.729-.187-.25 0-.566.164-.316.164-.708.176-.697-.105.011-.281-.218-.633.109-.657.327-.023.74-.164.37-.445s-.61-.141-1.023-.539c-.414-.398-.936-.633-1.176-.75-.24-.117-1.219-.469-1.176-.773.044-.305.24-.703.24-.703s.131-1.195.414-.68c.283.516.37 1.148.632 1.266.261.117 1.285.469 1.437.82.152.352.74.633 1.067.633s.98-.516 1.002-.211c.022.305.348.867.827.609s.98-.258 1.154-.234-.261-1.524.152-1.172c.414.352.24.774.479.867.24.094.675.164.74.516.065.352.065.586.501.563.436-.023.457-.539.98-.82.523-.281 1.786-1.078 1.786-1.078l.109.539s.74-.047.74-.352-.218-.727.065-.797c.283-.07.479-.469.479-.469h-.719s-.958-.234-.37-.328.74-.258.915-.188c.174.07.762.188.762.188s.152-.188-.109-.375c-.261-.188-.544-.352-.871-.352-.327 0-.849-.07-.675-.281.174-.211.305-.352.457-.188.152.164.436.234.436.234s-.087-.75.327-.328c.414.422.566.563.719.539s.675.094.719-.023c.044-.117.044-.797.327-.516.283.281.904.246 1.361.281.457.035.86-.352 1.176-.211.316.141.719-.609.719-.609s.719-.164 1.002-.422.827-.656.827-.656.414-.375-.174-.281c-.588.094-1.394 0-1.263.094s-.544.328-.305.398c.24.07-.523-.305-.523-.305l-.305-.445s.675-.023.958-.07c.283-.047 1.459-.422 1.459-.422l-.523-.586s-.436-.703-1.328-.821c-.893-.117-1.481-.258-2.156-.281s-1.306-.492-1.306-.492l-.218-.281s-.61.117-.523-.188c.087-.305.152-.703.392-.703.24 0 1.111-.07 1.111-.07l-.196-.609s.719-.258 1.045.328c.327.586.109.609.544.633.436.023 1.35 0 1.59 0h.806s.621-.293.24-.434c-.381-.141-.555-.023-.827-.164-.272-.141-.708-.199-.74-.27-.033-.07-.784-1.078.022-.516.806.563.838.539 1.285.539.446 0 .436-.223.436-.223s-.392-.457-.599-.645c-.207-.188-.664-.457-.708-.633-.044-.176-.207-.293-.534-.34-.327-.047-1.078-.293-.838-.434s1.165.188 1.154-.152c-.011-.34-.185-.516-.446-.668-.261-.152-.142-.797-.468-.762-.327.035-.762-.316-1.045-.07-.283.246-.958.398-1.219.246-.261-.152-.436-.527-.632-.492-.196.035-.936.223-1.187.363-.25.141-1.263.023-1.339.164-.076.141-.436.75-.512 1.078-.076.328-.566.211-.653.715-.087.504-.152.551-.12.867.033.316-.534 1.313-.109 1.242.425-.07.729-.375.871-.586.142-.211.185-.035.218.316.033.352.414.422.533.398.12-.023.152.246.218.82.065.574.392.856.621 1.008.229.152.218.398.12.398s-.316-.316-.479-.387c-.163-.07-.414-.152-.381.176.033.328.392.48.457.656.065.176.196.551.033.738-.163.188-.076.352-.533.105-.457-.246-.817-.715-.653-.996.163-.281.632-.352.512-.727s-.272-.574-.37-.832c-.098-.258.163-.656-.294-.539-.457.117-.74.152-.817.352-.076.199-.534.176-.577-.117-.044-.293.218-.492-.044-.563-.261-.07-.806.328-.686.48.12.152-.468-.187-.446-.609.022-.422.414-.492.533-.504.12-.012.12-.164.261-.457.142-.293-.25-.598-.446-.633-.196-.035 0 .504-.305.129s-.185-.621-.381-.258-.512.527-.686.352c-.174-.176-.283-.656.033-.762s.512-.316.425-.41c-.087-.094-.098-.152-.381-.141-.283.012-.457.363-.523.152-.065-.211.054-.457.24-.609s.185-.199.305-.41c.12-.211.087-.914.381-.27.294.645-.338.434-.033.656.305.223.414-.41.49-.047.076.363.425.961.533.961s.61-.363.751-.199.98.281.838-.176c-.142-.457.261-.504.261-.973s-.076-.621-.207-.879-.305-.738-.479-.809c-.174-.07-.871-.527-1.002-.68-.131-.152-.686-.316-.838-.305-.152.012-1.492-.141-1.579.164-.087.305-.196.246.065.574.261.328.163.774-.087.68-.25-.094-.348-.258-.631-.469-.283-.211-2.199-.152-2.7-.902-.501-.75-1.132-1.008-1.524-1.336-.392-.328-.653-1.688-.958-.844-.305.844-.523.188.305 1.406.827 1.219 1.263 1.688 1.263 1.899 0 .211.37 1.008-.544.539-.915-.469-1.786-.188-1.655.188.131.375.24 1.406.24 1.406s-.653.211-.958-.047c-.305-.258-.762-1.055-.871-.422s-.544 1.172-.152 1.359c.392.188 1.829.609 1.263.797s-.893.094-.631.469c.261.375.37 1.102.261 1.336-.109.234-.414.984-.588-.234-.174-1.219.24-1.008-.327-1.008s.065.727-.653 1.125c-.719.398-.566.75-.109 1.242.457.492 1.753 1.371 1.829 1.442.076.07.196.398.196.809 0 .41.294 1.195.338 1.571.044.375-.152.727.087.832.23.114.207.334.252.407"/><path fill-rule="evenodd" clip-rule="evenodd" fill="#232323" d="M332.211 211.106c-.022.117-.24.445-.044.563.196.117.653-.094.348-.328l-.304-.235M333.866 211.434c0 .352-.044.516.305.469.348-.047.435-.516.065-.492l-.37.023M337.11 210.895s-.827-.539-1.002-.773c-.174-.234-.697-.938-.915-1.219-.218-.281-.174-.703-.044-.867.131-.164.827-.375.762-.727-.065-.352-.022-1.242.37-.68.392.563 0 .891.61.938.61.047 1.045-.352.719.281-.327.633-.588-.117-.784.281-.196.398-.174.914-.087 1.359.087.445.907 1.081.566 1.195-.34.115-.195.212-.195.212M300.133 196.019l.084.126c.034.048.052.069.082.127.043.081.085.21.12.295.305-.024.689-.386.703-.709-.451-.009-.708-.072-.989.161"/><path fill-rule="evenodd" clip-rule="evenodd" fill="#909090" d="M320.712 177.613l-.24-.914s-.806.492-1.219.703c-.414.211-.697.422-.37.445.327.023.697.164.697.164s-.131.305-.305.492c-.174.188-.631.492-.675.609-.044.117-.479.539-.501.867-.022.328.131.492-.065.68-.196.187-.174.75-.174.75s-.305.164-.457.023c-.152-.141-.087-.563-.087-.563l-.544.703s-1.154 1.008-1.611 2.086c-.457 1.078-.414 1.055-.501 1.453-.087.398 0 .891-.457 1.078-.457.188-.784.703-1.372.727-.588.023-.762.446-.98-.117s-.915-1.172-.915-1.172v1.383l-.631.234s-1.339.188-1.481.082c-.142-.105-.109-.715-.25-.75-.142-.035-.359-.129-.566.07-.207.199-.24.152-.272.398-.033.246.044.422.207.527.163.105.544.023.512.352-.033.328 0 .856-.098 1.02-.098.164-1.263 2.086-1.263 2.086s-.348.984-.762.914c-.414-.07-.501-.258-.501-.258l-.37-.797-.305 1.125s-.414-.656-.719-1.031c-.305-.375-.762-1.125-.936-.773-.174.352-.044.609.152.797.196.188.849.633.849.797 0 .164-.065.586-.152.727-.087.141-.784.984-1.111 1.172-.327.188-1.198.516-1.437-.047-.24-.563-.044-1.195-.152-1.453-.109-.258-.087-.586-.37-.844-.283-.258-.61-.422-.479-.633.131-.211.305-.164.501-.188.196-.023.501-.258.087-.422-.414-.164-1.089-.07-1.089-.07l-1.067-.082s.544.774.893 1.055c.348.281 1.002.492.915.773-.087.281.24.844-.566.609-.806-.234-1.176-.633-1.415-1.008a7.11 7.11 0 00-.98-1.195c-.327-.305-.871-.961-1.437-1.102-.566-.141-.74-.234-.849-.633s.065-.867-.109-1.195c-.174-.328-.087-.375.196-.328.283.047.893.117.98.352.087.234.131.774.392.774s.631-.211.871-.023c.24.187.392.609.392.609s.566.422.61.281c.044-.141-.044-.047-.261-.398-.218-.352-.218-.398-.218-.656s.261-.305.261-.305l1.328.047.131-.375s.196-.141-.327-.281c-.523-.141-.61-.398-.697-.656-.087-.258.065-.422.283-.422.218 0 .675-.023.675-.023l.675.328s-.022.352.174.375c.196.023.719-.07.719-.07l1.111-.07s.305.727.915.141c.61-.586 1.415-.586 1.415-.586s.675-.352.675-.727.044-.445.044-.445-.044.164-.588.328c-.544.164-.827.774-1.023.68-.196-.094-.936.07-1.176-.117-.24-.188-.827-.891-.827-.891s-.37-.328.152-.211c.523.117.871.68 1.307.516.435-.164.893-.258.806-.492-.087-.234.131-.539.261-.656.131-.117.61-.117.24-.422s-.435-.352-.37-.516c.065-.164.327-.281.327-.281s.218-.234-.087-.352c-.305-.117-.174-.516-.174-.516l.327-.68s.631-.094.653-.375c.011-.138.136-.197.261-.194.131.003.261.074.261.194 0 .234-.218.445-.218.445s-.435.398-.109.445c.327.047.631.141.414.375-.218.234-.719.094-.392.469.327.375.414.703.719.445.305-.258.566-.75.566-.75s.109-.492 0-.867-.479-.774-.348-.797c.131-.023.174-.375.544-.375.37 0 .653-.117.697.258.044.375.24.68.523.516.283-.164.414-.094.457-.563.044-.469.109-1.383.109-1.383s-.152-.375-.414-.375c-.261 0-.327-.305-.61.07s-.327.75-.653.75-.61-.422-.61-.539c0-.117-.044.352-.305.352s-.37.164-.37.375.37.398.109.563c-.261.164-.806.023-.806.023s-.065.234-.283.352c-.218.117-.544.094-.806.094-.261 0-.566-.047-.566-.047l-.196.492.109.398-.327.07s-.305 0-.479-.281-.24-.844-.414-1.125-.523-1.289-.74-1.594c-.218-.305-.152-.703.109-.656.261.047 1.307.492 1.307.492s1.219.469 1.459.305c.24-.164.98-.75 1.35-.75.37 0 1.611-.047 1.742-.094s.893-.375.893-.375-1.023-1.852-2.243-1.992c-1.219-.141-1.045-.703-1.045-.703s-.806-.891-1.198-1.031c-.392-.141-.414-.281-.065-.563.348-.281.827-.094 1.067-.117.24-.023 1.023.258.74-.281-.283-.539-.327-.68-.849-.844s-.283-.094-.806-.07c-.523.023-1.002.328-1.263-.047-.261-.375-1.154-.82-1.002-1.008.152-.188.044-1.594.044-1.594s-.174-.516.435-.258c.61.258 3.027 1.805 3.484 2.391.457.586 1.655 1.547 2.461 1.734.806.188 3.353-.305 3.528-.633.174-.328-.762-.422-.762-.422s-1.176-.07-.98-.328c.196-.258.544-.609.719-.938.174-.328.305-.82.74-.773.435.047.479.141.501.563s.152.914.348.539c.196-.375.784-.797.784-.797s.152-.352.327.023c.174.375.806.305.936.141.131-.164.392-.094.348.234-.044.328.457.492.631.375s.784-.469.958-.797c.174-.328.479.281.348.563-.131.281-.653.68-.849.727-.196.047-1.089.211-1.089.211s1.067.539 1.59.352c.523-.188 1.437-.445 1.59-.516.152-.07-.414-.727-.414-.727l.348-.234s.305.844.523.703c.218-.141.958-.727.958-.727s.631-.352.436.281c-.196.633-1.285 1.219-1.285 1.219s.218.234.523.234c.305 0 .457-.305.457-.305s.501 0 .697.141c.196.141.675-.047.915-.188.24-.141.936-.187.37-.492s-1.132-.492-1.132-.492-.174-.609 0-.984.98-.07.893-.492c-.087-.422 0-1.172.392-.633.392.539 1.241 1.102 1.394 1.242.152.141 1.198.047 1.154.563-.044.516-.065.563-.501.563s-.98.047-.392.352 1.263.211.675.609c-.588.398-1.067.82-1.089 1.149-.022.328-.174.469-.632.492-.457.023-.915.117-.479.352.436.234.523.422.327.773-.196.352-.348 1.195-.566 1.43-.218.234-.566.516-.61.797-.05.281-.518.304-.518.304z"/><path fill="none" stroke="#909090" stroke-width=".276" stroke-miterlimit="22.926" d="M320.712 177.613l-.24-.914s-.806.492-1.219.703c-.414.211-.697.422-.37.445.327.023.697.164.697.164s-.131.305-.305.492c-.174.188-.631.492-.675.609-.044.117-.479.539-.501.867-.022.328.131.492-.065.68-.196.187-.174.75-.174.75s-.305.164-.457.023c-.152-.141-.087-.563-.087-.563l-.544.703s-1.154 1.008-1.611 2.086c-.457 1.078-.414 1.055-.501 1.453-.087.398 0 .891-.457 1.078-.457.188-.784.703-1.372.727-.588.023-.762.446-.98-.117s-.915-1.172-.915-1.172v1.383l-.631.234s-1.339.188-1.481.082c-.142-.105-.109-.715-.25-.75-.142-.035-.359-.129-.566.07-.207.199-.24.152-.272.398-.033.246.044.422.207.527.163.105.544.023.512.352-.033.328 0 .856-.098 1.02-.098.164-1.263 2.086-1.263 2.086s-.348.984-.762.914c-.414-.07-.501-.258-.501-.258l-.37-.797-.305 1.125s-.414-.656-.719-1.031c-.305-.375-.762-1.125-.936-.773-.174.352-.044.609.152.797.196.188.849.633.849.797 0 .164-.065.586-.152.727-.087.141-.784.984-1.111 1.172-.327.188-1.198.516-1.437-.047-.24-.563-.044-1.195-.152-1.453-.109-.258-.087-.586-.37-.844-.283-.258-.61-.422-.479-.633.131-.211.305-.164.501-.188.196-.023.501-.258.087-.422-.414-.164-1.089-.07-1.089-.07l-1.067-.082s.544.774.893 1.055c.348.281 1.002.492.915.773-.087.281.24.844-.566.609-.806-.234-1.176-.633-1.415-1.008a7.11 7.11 0 00-.98-1.195c-.327-.305-.871-.961-1.437-1.102-.566-.141-.74-.234-.849-.633s.065-.867-.109-1.195c-.174-.328-.087-.375.196-.328.283.047.893.117.98.352.087.234.131.774.392.774s.631-.211.871-.023c.24.187.392.609.392.609s.566.422.61.281c.044-.141-.044-.047-.261-.398-.218-.352-.218-.398-.218-.656s.261-.305.261-.305l1.328.047.131-.375s.196-.141-.327-.281c-.523-.141-.61-.398-.697-.656-.087-.258.065-.422.283-.422.218 0 .675-.023.675-.023l.675.328s-.022.352.174.375c.196.023.719-.07.719-.07l1.111-.07s.305.727.915.141c.61-.586 1.415-.586 1.415-.586s.675-.352.675-.727.044-.445.044-.445-.044.164-.588.328c-.544.164-.827.774-1.023.68-.196-.094-.936.07-1.176-.117-.24-.188-.827-.891-.827-.891s-.37-.328.152-.211c.523.117.871.68 1.307.516.435-.164.893-.258.806-.492-.087-.234.131-.539.261-.656.131-.117.61-.117.24-.422s-.435-.352-.37-.516c.065-.164.327-.281.327-.281s.218-.234-.087-.352c-.305-.117-.174-.516-.174-.516l.327-.68s.631-.094.653-.375c.011-.138.136-.197.261-.194.131.003.261.074.261.194 0 .234-.218.445-.218.445s-.435.398-.109.445c.327.047.631.141.414.375-.218.234-.719.094-.392.469.327.375.414.703.719.445.305-.258.566-.75.566-.75s.109-.492 0-.867-.479-.774-.348-.797c.131-.023.174-.375.544-.375.37 0 .653-.117.697.258.044.375.24.68.523.516.283-.164.414-.094.457-.563.044-.469.109-1.383.109-1.383s-.152-.375-.414-.375c-.261 0-.327-.305-.61.07s-.327.75-.653.75-.61-.422-.61-.539c0-.117-.044.352-.305.352s-.37.164-.37.375.37.398.109.563c-.261.164-.806.023-.806.023s-.065.234-.283.352c-.218.117-.544.094-.806.094-.261 0-.566-.047-.566-.047l-.196.492.109.398-.327.07s-.305 0-.479-.281-.24-.844-.414-1.125-.523-1.289-.74-1.594c-.218-.305-.152-.703.109-.656.261.047 1.307.492 1.307.492s1.219.469 1.459.305c.24-.164.98-.75 1.35-.75.37 0 1.611-.047 1.742-.094s.893-.375.893-.375-1.023-1.852-2.243-1.992c-1.219-.141-1.045-.703-1.045-.703s-.806-.891-1.198-1.031c-.392-.141-.414-.281-.065-.563.348-.281.827-.094 1.067-.117.24-.023 1.023.258.74-.281-.283-.539-.327-.68-.849-.844s-.283-.094-.806-.07c-.523.023-1.002.328-1.263-.047-.261-.375-1.154-.82-1.002-1.008.152-.188.044-1.594.044-1.594s-.174-.516.435-.258c.61.258 3.027 1.805 3.484 2.391.457.586 1.655 1.547 2.461 1.734.806.188 3.353-.305 3.528-.633.174-.328-.762-.422-.762-.422s-1.176-.07-.98-.328c.196-.258.544-.609.719-.938.174-.328.305-.82.74-.773.435.047.479.141.501.563s.152.914.348.539c.196-.375.784-.797.784-.797s.152-.352.327.023c.174.375.806.305.936.141.131-.164.392-.094.348.234-.044.328.457.492.631.375s.784-.469.958-.797c.174-.328.479.281.348.563-.131.281-.653.68-.849.727-.196.047-1.089.211-1.089.211s1.067.539 1.59.352c.523-.188 1.437-.445 1.59-.516.152-.07-.414-.727-.414-.727l.348-.234s.305.844.523.703c.218-.141.958-.727.958-.727s.631-.352.436.281c-.196.633-1.285 1.219-1.285 1.219s.218.234.523.234c.305 0 .457-.305.457-.305s.501 0 .697.141c.196.141.675-.047.915-.188.24-.141.936-.187.37-.492s-1.132-.492-1.132-.492-.174-.609 0-.984.98-.07.893-.492c-.087-.422 0-1.172.392-.633.392.539 1.241 1.102 1.394 1.242.152.141 1.198.047 1.154.563-.044.516-.065.563-.501.563s-.98.047-.392.352 1.263.211.675.609c-.588.398-1.067.82-1.089 1.149-.022.328-.174.469-.632.492-.457.023-.915.117-.479.352.436.234.523.422.327.773-.196.352-.348 1.195-.566 1.43-.218.234-.566.516-.61.797-.05.281-.518.304-.518.304z"/><path fill-rule="evenodd" clip-rule="evenodd" fill="#909090" d="M319.939 179.301c-.054.012-.338.094-.37.316-.033.223-.131.223-.261.41-.131.188-.033.527.25.445.283-.082.468-.293.512-.492.043-.198-.131-.679-.131-.679z"/><path fill="none" stroke="#909090" stroke-width=".276" stroke-miterlimit="22.926" d="M319.939 179.301c-.054.012-.338.094-.37.316-.033.223-.131.223-.261.41-.131.188-.033.527.25.445.283-.082.468-.293.512-.492.043-.198-.131-.679-.131-.679z"/><path fill-rule="evenodd" clip-rule="evenodd" fill="#909090" d="M318.959 180.696c-.25.082-.555.316-.566.457-.011.141-.697.504-.457.691.24.188.708.059.849.07a.576.576 0 00.523-.223c.163-.211.152-.375.022-.598-.131-.221-.371-.397-.371-.397z"/><path fill="none" stroke="#909090" stroke-width=".276" stroke-miterlimit="22.926" d="M318.959 180.696c-.25.082-.555.316-.566.457-.011.141-.697.504-.457.691.24.188.708.059.849.07a.576.576 0 00.523-.223c.163-.211.152-.375.022-.598-.131-.221-.371-.397-.371-.397z"/><path fill-rule="evenodd" clip-rule="evenodd" fill="#909090" d="M318.475 183.116c-.076.023-.305-.199-.327 0-.022.199-.24.656.022.668.261.012.403.047.414-.141.01-.187-.109-.527-.109-.527z"/><path fill="none" stroke="#909090" stroke-width=".276" stroke-miterlimit="22.926" d="M318.475 183.116c-.076.023-.305-.199-.327 0-.022.199-.24.656.022.668.261.012.403.047.414-.141.01-.187-.109-.527-.109-.527z"/><path fill-rule="evenodd" clip-rule="evenodd" fill="#909090" d="M317.059 183.889c-.065.129-.435.328-.152.469.283.141.512.234.566.094a.318.318 0 00-.109-.387c-.131-.094-.305-.176-.305-.176z"/><path fill="none" stroke="#909090" stroke-width=".276" stroke-miterlimit="22.926" d="M317.059 183.889c-.065.129-.435.328-.152.469.283.141.512.234.566.094a.318.318 0 00-.109-.387c-.131-.094-.305-.176-.305-.176z"/><path fill-rule="evenodd" clip-rule="evenodd" fill="#909090" d="M317.636 184.78c-.207.094-.403.094-.218.305.185.211.316.199.414.211.098.012.12-.258.12-.387s-.316-.129-.316-.129z"/><path fill="none" stroke="#909090" stroke-width=".276" stroke-miterlimit="22.926" d="M317.636 184.78c-.207.094-.403.094-.218.305.185.211.316.199.414.211.098.012.12-.258.12-.387s-.316-.129-.316-.129z"/><path fill-rule="evenodd" clip-rule="evenodd" fill="#909090" d="M316.874 185.237s-.316.059-.316.152c0 .094-.207.352-.207.516s-.076.504.174.586c.25.082.544.129.566-.035.022-.164-.076-.492-.065-.621.011-.129.12-.27.044-.363-.076-.094-.196-.235-.196-.235z"/><path fill="none" stroke="#909090" stroke-width=".276" stroke-miterlimit="22.926" d="M316.874 185.237s-.316.059-.316.152c0 .094-.207.352-.207.516s-.076.504.174.586c.25.082.544.129.566-.035.022-.164-.076-.492-.065-.621.011-.129.12-.27.044-.363-.076-.094-.196-.235-.196-.235z"/><path fill-rule="evenodd" clip-rule="evenodd" fill="#909090" d="M314.479 187.136c-.131.094-.305.141-.305.469 0 .328-.076.551.142.551.218 0 .337-.188.359-.352.022-.164-.044-.223-.022-.375s-.174-.293-.174-.293z"/><path fill="none" stroke="#909090" stroke-width=".276" stroke-miterlimit="22.926" d="M314.479 187.136c-.131.094-.305.141-.305.469 0 .328-.076.551.142.551.218 0 .337-.188.359-.352.022-.164-.044-.223-.022-.375s-.174-.293-.174-.293z"/><path fill-rule="evenodd" clip-rule="evenodd" fill="#909090" d="M316.286 188.366c-.294.047-.24.164-.305.363-.065.199-.207.141-.24.375s.196.375.446.375.414-.199.403-.434c-.01-.233-.304-.679-.304-.679z"/><path fill="none" stroke="#909090" stroke-width=".276" stroke-miterlimit="22.926" d="M316.286 188.366c-.294.047-.24.164-.305.363-.065.199-.207.141-.24.375s.196.375.446.375.414-.199.403-.434c-.01-.233-.304-.679-.304-.679z"/><path fill-rule="evenodd" clip-rule="evenodd" fill="#909090" d="M314.588 190.089c-.218.152-.163.211-.142.48s.044.293.294.234c.25-.059.152-.27.174-.445.022-.175-.326-.269-.326-.269z"/><path fill="none" stroke="#909090" stroke-width=".276" stroke-miterlimit="22.926" d="M314.588 190.089c-.218.152-.163.211-.142.48s.044.293.294.234c.25-.059.152-.27.174-.445.022-.175-.326-.269-.326-.269z"/><path fill-rule="evenodd" clip-rule="evenodd" fill="#909090" d="M315.426 190.863c-.044.059-.338.316-.305.656.033.34-.087.516.207.586.294.07.435-.176.49.164s.109.457.109.832v1.43s.011.469.25.281c.239-.188.392-.516.523-.645s.327-.164.316-.445c-.011-.281-.098-1.371-.098-1.371s.283-.457-.12-.645c-.403-.188-1.002-.152-1.002-.152s-.283-.316-.272-.41c.011-.094-.098-.281-.098-.281z"/><path fill="none" stroke="#909090" stroke-width=".276" stroke-miterlimit="22.926" d="M315.426 190.863c-.044.059-.338.316-.305.656.033.34-.087.516.207.586.294.07.435-.176.49.164s.109.457.109.832v1.43s.011.469.25.281c.239-.188.392-.516.523-.645s.327-.164.316-.445c-.011-.281-.098-1.371-.098-1.371s.283-.457-.12-.645c-.403-.188-1.002-.152-1.002-.152s-.283-.316-.272-.41c.011-.094-.098-.281-.098-.281z"/><path fill-rule="evenodd" clip-rule="evenodd" fill="#909090" d="M316.58 195.386c-.403.07-.762.293-.904.469-.142.176-.446.668-.61.668-.163 0-.359.234-.065.48.294.246.653.609.838.316.185-.293.272-.645.446-.867.174-.223.708-.668.588-.668s.185-.609-.054-.504l-.239.106z"/><path fill="none" stroke="#909090" stroke-width=".276" stroke-miterlimit="22.926" d="M316.58 195.386c-.403.07-.762.293-.904.469-.142.176-.446.668-.61.668-.163 0-.359.234-.065.48.294.246.653.609.838.316.185-.293.272-.645.446-.867.174-.223.708-.668.588-.668s.185-.609-.054-.504l-.239.106z"/><path fill-rule="evenodd" clip-rule="evenodd" fill="#909090" d="M317.037 196.758c-.272.211-.544.152-.697.422s-.435.539-.109.656c.327.117.523.223.61.117.087-.105.316-.492.479-.586.163-.094.468-.258.163-.445-.304-.188-.446-.164-.446-.164z"/><path fill="none" stroke="#909090" stroke-width=".276" stroke-miterlimit="22.926" d="M317.037 196.758c-.272.211-.544.152-.697.422s-.435.539-.109.656c.327.117.523.223.61.117.087-.105.316-.492.479-.586.163-.094.468-.258.163-.445-.304-.188-.446-.164-.446-.164z"/><path fill-rule="evenodd" clip-rule="evenodd" fill="#909090" d="M317.843 196.113c-.131.258-.261.375-.109.516.152.141.24.234.381.094.142-.141.207-.305.087-.48-.119-.177-.359-.13-.359-.13z"/><path fill="none" stroke="#909090" stroke-width=".276" stroke-miterlimit="22.926" d="M317.843 196.113c-.131.258-.261.375-.109.516.152.141.24.234.381.094.142-.141.207-.305.087-.48-.119-.177-.359-.13-.359-.13z"/><path fill-rule="evenodd" clip-rule="evenodd" fill="#909090" d="M305.703 192.509c-.196.006-.381-.117-.604.059-.223.176-.267.158-.397.375-.131.217-.517.023-.321.299.196.275.114.328.359.311.245-.018.332-.504.457-.586a.685.685 0 01.386-.123c.174-.012.528.029.414-.158s-.201-.164-.201-.164l-.093-.013z"/><path fill="none" stroke="#909090" stroke-width=".276" stroke-miterlimit="22.926" d="M305.703 192.509c-.196.006-.381-.117-.604.059-.223.176-.267.158-.397.375-.131.217-.517.023-.321.299.196.275.114.328.359.311.245-.018.332-.504.457-.586a.685.685 0 01.386-.123c.174-.012.528.029.414-.158s-.201-.164-.201-.164l-.093-.013z"/><path fill-rule="evenodd" clip-rule="evenodd" fill="#909090" d="M318.279 169.673c-.218 0-.49-.152-.555.082-.065.234-.403.469-.131.586.272.117.936.082 1.013 0 .076-.082.218-.457-.054-.563l-.273-.105z"/><path fill="none" stroke="#909090" stroke-width=".276" stroke-miterlimit="22.926" d="M318.279 169.673c-.218 0-.49-.152-.555.082-.065.234-.403.469-.131.586.272.117.936.082 1.013 0 .076-.082.218-.457-.054-.563l-.273-.105z"/><path fill-rule="evenodd" clip-rule="evenodd" fill="#909090" d="M317.723 169.005s-.185.234-.446.398-.392.246-.588.481c-.196.234-.196.316-.544.246-.348-.07-.773-.211-.871-.363a.543.543 0 00-.479-.246c-.218 0-.142-.445.185-.609.327-.164.686-.691 1.045-.41.359.281.142.422.588.469.446.047.359-.023.544-.059.185-.035.534-.293.577-.152.044.14-.011.245-.011.245z"/><path fill="none" stroke="#909090" stroke-width=".276" stroke-miterlimit="22.926" d="M317.723 169.005s-.185.234-.446.398-.392.246-.588.481c-.196.234-.196.316-.544.246-.348-.07-.773-.211-.871-.363a.543.543 0 00-.479-.246c-.218 0-.142-.445.185-.609.327-.164.686-.691 1.045-.41.359.281.142.422.588.469.446.047.359-.023.544-.059.185-.035.534-.293.577-.152.044.14-.011.245-.011.245z"/><path fill-rule="evenodd" clip-rule="evenodd" fill="#909090" d="M313.39 165.36c-.109.328-.011.469.261.492.272.023.555-.211.49-.363-.065-.152-.338-.246-.544-.188l-.207.059z"/><path fill="none" stroke="#909090" stroke-width=".276" stroke-miterlimit="22.926" d="M313.39 165.36c-.109.328-.011.469.261.492.272.023.555-.211.49-.363-.065-.152-.338-.246-.544-.188l-.207.059z"/><path fill-rule="evenodd" clip-rule="evenodd" fill="#909090" d="M313.728 166.157c.011.223-.076.363.044.481.12.117.381.246.664.152.283-.094.479-.363.24-.492-.24-.129-.512-.152-.632-.152s-.316.011-.316.011z"/><path fill="none" stroke="#909090" stroke-width=".276" stroke-miterlimit="22.926" d="M313.728 166.157c.011.223-.076.363.044.481.12.117.381.246.664.152.283-.094.479-.363.24-.492-.24-.129-.512-.152-.632-.152s-.316.011-.316.011z"/><path fill-rule="evenodd" clip-rule="evenodd" fill="#909090" d="M315.176 166.556c-.087.176-.305.481-.185.645.12.164.359.047.599.293s.348.539.457.551c.109.012.316-.035.61.035s.86-.082 1.067.105c.207.188.414.656.991 1.02.577.363 1.002.164 1.252.105.25-.059.533-.293.838-.48.305-.188.599-.012.621-.34.022-.328-.087-.422-.283-.668-.196-.246-.338-.445-.719-.504-.381-.059-1.154-.129-1.252.141-.098.27-.098.727-.283.633-.185-.094-.425-.211-.425-.469s-.011-.902-.207-.902c-.196 0-.719-.117-.958.012-.24.129-.631.188-.719.094-.087-.094-.229-.316-.446-.48-.218-.166-.958.209-.958.209z"/><path fill="none" stroke="#909090" stroke-width=".276" stroke-miterlimit="22.926" d="M315.176 166.556c-.087.176-.305.481-.185.645.12.164.359.047.599.293s.348.539.457.551c.109.012.316-.035.61.035s.86-.082 1.067.105c.207.188.414.656.991 1.02.577.363 1.002.164 1.252.105.25-.059.533-.293.838-.48.305-.188.599-.012.621-.34.022-.328-.087-.422-.283-.668-.196-.246-.338-.445-.719-.504-.381-.059-1.154-.129-1.252.141-.098.27-.098.727-.283.633-.185-.094-.425-.211-.425-.469s-.011-.902-.207-.902c-.196 0-.719-.117-.958.012-.24.129-.631.188-.719.094-.087-.094-.229-.316-.446-.48-.218-.166-.958.209-.958.209z"/><path fill-rule="evenodd" clip-rule="evenodd" fill="#909090" d="M312.983 167.692c.172.393.451.808.215.831-.236.023-.622.023-.493.323s.772.069.686.439c-.087.352-1.546-.164-1.698-.445-.152-.281-.305-.68-.152-.914.152-.234 1.045-.352 1.045-.352l.397.118z"/><path fill="none" stroke="#909090" stroke-width=".276" stroke-miterlimit="22.926" d="M312.983 167.692c.172.393.451.808.215.831-.236.023-.622.023-.493.323s.772.069.686.439c-.087.352-1.546-.164-1.698-.445-.152-.281-.305-.68-.152-.914.152-.234 1.045-.352 1.045-.352l.397.118z"/><path fill-rule="evenodd" clip-rule="evenodd" fill="#909090" d="M306.836 166.661s-.152.586.348 1.102 1.219.352 1.459.727 1.176.82 1.176.82.479.352.022.563c-.457.211-.871.094-.958-.234-.087-.328-.109-.422-.479-.398-.37.023-1.023.234-1.089.586-.065.352-.479.703.305.727.784.023.762.047.871.328.109.281.479-.211.784-.164.305.047.849.352.958.094.109-.258.61-.703.74-.82.131-.117.348-.727.348-.961s-.632-1.336-.632-1.336-.501.117-.871.234-.98.328-1.023.047c-.044-.281-.806-1.102-.806-1.102s-.196-.727-.675-.469l-.478.256z"/><path fill="none" stroke="#909090" stroke-width=".276" stroke-miterlimit="22.926" d="M306.836 166.661s-.152.586.348 1.102 1.219.352 1.459.727 1.176.82 1.176.82.479.352.022.563c-.457.211-.871.094-.958-.234-.087-.328-.109-.422-.479-.398-.37.023-1.023.234-1.089.586-.065.352-.479.703.305.727.784.023.762.047.871.328.109.281.479-.211.784-.164.305.047.849.352.958.094.109-.258.61-.703.74-.82.131-.117.348-.727.348-.961s-.632-1.336-.632-1.336-.501.117-.871.234-.98.328-1.023.047c-.044-.281-.806-1.102-.806-1.102s-.196-.727-.675-.469l-.478.256z"/><path fill-rule="evenodd" clip-rule="evenodd" fill="#909090" d="M303.221 166.626c.25.316.294.223.61.598s.697.07.512.504c-.185.434.142.738-.501.563-.642-.176-.675-.539-.98-.785-.305-.246-.348-.316-.316-.551.033-.235.675-.329.675-.329z"/><path fill="none" stroke="#909090" stroke-width=".276" stroke-miterlimit="22.926" d="M303.221 166.626c.25.316.294.223.61.598s.697.07.512.504c-.185.434.142.738-.501.563-.642-.176-.675-.539-.98-.785-.305-.246-.348-.316-.316-.551.033-.235.675-.329.675-.329z"/><path fill-rule="evenodd" clip-rule="evenodd" fill="#909090" d="M304.854 168.419c-.294.141-.435.152-.294.434.142.281.479.246.599.211s.327-.41.131-.551c-.196-.141-.489-.069-.489-.069l.053-.025z"/><path fill="none" stroke="#909090" stroke-width=".276" stroke-miterlimit="22.926" d="M304.854 168.419c-.294.141-.435.152-.294.434.142.281.479.246.599.211s.327-.41.131-.551c-.196-.141-.489-.069-.489-.069l.053-.025z"/><path fill-rule="evenodd" clip-rule="evenodd" fill="#909090" d="M305.921 169.193c-.403.059-.577.07-.392.34.185.27.533.492.664.504.131.012.359-.258.261-.469-.097-.211-.62-.363-.533-.375z"/><path fill="none" stroke="#909090" stroke-width=".276" stroke-miterlimit="22.926" d="M305.921 169.193c-.403.059-.577.07-.392.34.185.27.533.492.664.504.131.012.359-.258.261-.469-.097-.211-.62-.363-.533-.375z"/><path fill-rule="evenodd" clip-rule="evenodd" fill="#909090" d="M301.109 172.38c-.272.059-.664.012-.599.34s.381.457.838.422c.457-.035.806-.434.283-.598l-.522-.164z"/><path fill="none" stroke="#909090" stroke-width=".276" stroke-miterlimit="22.926" d="M301.109 172.38c-.272.059-.664.012-.599.34s.381.457.838.422c.457-.035.806-.434.283-.598l-.522-.164z"/><path fill-rule="evenodd" clip-rule="evenodd" fill="#909090" d="M298.638 174.736c.131.094.566 0 .327.586-.24.586-.327.984-.719.539-.392-.445-.414-.68-.218-.867.196-.188.61-.258.61-.258z"/><path fill="none" stroke="#909090" stroke-width=".276" stroke-miterlimit="22.926" d="M298.638 174.736c.131.094.566 0 .327.586-.24.586-.327.984-.719.539-.392-.445-.414-.68-.218-.867.196-.188.61-.258.61-.258z"/><path fill-rule="evenodd" clip-rule="evenodd" fill="#909090" d="M299.9 175.135c.174-.047.915 0 .915 0s.305.141.065.586c-.24.445-.762.75-.98.586-.218-.164-.065-.281-.37-.586-.305-.305.37-.586.37-.586z"/><path fill="none" stroke="#909090" stroke-width=".276" stroke-miterlimit="22.926" d="M299.9 175.135c.174-.047.915 0 .915 0s.305.141.065.586c-.24.445-.762.75-.98.586-.218-.164-.065-.281-.37-.586-.305-.305.37-.586.37-.586z"/><path fill-rule="evenodd" clip-rule="evenodd" fill="#909090" d="M301.457 176.248c-.098.293-.24.82-.142 1.16.098.34.142.551.142.691 0 .141.294.047.359-.258.093-.429.064-2.041-.359-1.593z"/><path fill="none" stroke="#909090" stroke-width=".276" stroke-miterlimit="22.926" d="M301.457 176.248c-.098.293-.24.82-.142 1.16.098.34.142.551.142.691 0 .141.294.047.359-.258.093-.429.064-2.041-.359-1.593z"/><path fill-rule="evenodd" clip-rule="evenodd" fill="#909090" d="M305.04 175.978c-.03.211-.218.27-.053.527.166.258.234.609.498.551.131-.059.12-.762-.011-.914-.13-.152-.434-.164-.434-.164z"/><path fill="none" stroke="#909090" stroke-width=".276" stroke-miterlimit="22.926" d="M305.04 175.978c-.03.211-.218.27-.053.527.166.258.234.609.498.551.131-.059.12-.762-.011-.914-.13-.152-.434-.164-.434-.164z"/><path fill-rule="evenodd" clip-rule="evenodd" fill="#909090" d="M306.477 176.928c-.185.258-.348.258-.076.457.272.199.294.422.512.375.218-.047.37.047.272-.258-.098-.305-.065-.398-.316-.516-.251-.117-.392-.058-.392-.058z"/><path fill="none" stroke="#909090" stroke-width=".276" stroke-miterlimit="22.926" d="M306.477 176.928c-.185.258-.348.258-.076.457.272.199.294.422.512.375.218-.047.37.047.272-.258-.098-.305-.065-.398-.316-.516-.251-.117-.392-.058-.392-.058z"/><path fill-rule="evenodd" clip-rule="evenodd" fill="#909090" d="M297.886 191.437c-.131.234-.523.328-.196.563.327.234.893.445.958.141.065-.305-.065-.703-.25-.75-.185-.048-.512.046-.512.046z"/><path fill="none" stroke="#909090" stroke-width=".276" stroke-miterlimit="22.926" d="M297.886 191.437c-.131.234-.523.328-.196.563.327.234.893.445.958.141.065-.305-.065-.703-.25-.75-.185-.048-.512.046-.512.046z"/><path fill-rule="evenodd" clip-rule="evenodd" fill="#909090" d="M298.627 186.081c-.109.211.087.152-.37.398-.457.246-1.274.609-.936.633.338.023.599-.082.806.094.207.176.523.199.697.176.174-.023.729-.07.512-.27-.218-.199-.392-.152-.381-.469s.196-.598.011-.598a1.725 1.725 0 00-.339.036z"/><path fill="none" stroke="#909090" stroke-width=".276" stroke-miterlimit="22.926" d="M298.627 186.081c-.109.211.087.152-.37.398-.457.246-1.274.609-.936.633.338.023.599-.082.806.094.207.176.523.199.697.176.174-.023.729-.07.512-.27-.218-.199-.392-.152-.381-.469s.196-.598.011-.598a1.725 1.725 0 00-.339.036z"/><path fill-rule="evenodd" clip-rule="evenodd" fill="#909090" d="M296.166 186.198s.087.516.675.328c.588-.188 1.067-.656 1.067-.656s.871-.75.871-.914c0-.164.087-.75.087-.75s-.109-.141-.283.07-.457.164-.457.164.044-.422.196-.539c.152-.117.376-.639.387-.955.011-.316 0-.738.065-.879.065-.141.163-.516.163-.645s-.022-1.043-.022-1.043-.098-.363-.359-.129c-.261.234-.479.328-.544.527-.065.199-.25.059-.065.598.185.539.381.492.305.727-.076.234-.174.41-.729.867-.555.457-1.143.633-1.143.633s-.621.188-.207-.387c.414-.574.762-.691 1.013-.902.25-.211.381-.598.294-.762-.087-.164.196-.363-.327-.445-.523-.082-.947.047-.947.047s-.272.316-.305.668c-.033.352-.381.809-.479.809s-.272-.223-.272-.223.087-.598 0-.598-.534-.082-.599.199c-.065.281-.229.141-.37.375-.142.234-.49.551-.163.633.327.082.708-.363.675-.012-.033.352-.24.469-.022.809.218.34.403.949.675 1.172.272.223.392.27.479.574.085.305.341.639.341.639z"/><path fill="none" stroke="#909090" stroke-width=".276" stroke-miterlimit="22.926" d="M296.166 186.198s.087.516.675.328c.588-.188 1.067-.656 1.067-.656s.871-.75.871-.914c0-.164.087-.75.087-.75s-.109-.141-.283.07-.457.164-.457.164.044-.422.196-.539c.152-.117.376-.639.387-.955.011-.316 0-.738.065-.879.065-.141.163-.516.163-.645s-.022-1.043-.022-1.043-.098-.363-.359-.129c-.261.234-.479.328-.544.527-.065.199-.25.059-.065.598.185.539.381.492.305.727-.076.234-.174.41-.729.867-.555.457-1.143.633-1.143.633s-.621.188-.207-.387c.414-.574.762-.691 1.013-.902.25-.211.381-.598.294-.762-.087-.164.196-.363-.327-.445-.523-.082-.947.047-.947.047s-.272.316-.305.668c-.033.352-.381.809-.479.809s-.272-.223-.272-.223.087-.598 0-.598-.534-.082-.599.199c-.065.281-.229.141-.37.375-.142.234-.49.551-.163.633.327.082.708-.363.675-.012-.033.352-.24.469-.022.809.218.34.403.949.675 1.172.272.223.392.27.479.574.085.305.341.639.341.639z"/><path fill-rule="evenodd" clip-rule="evenodd" fill="#909090" d="M294.462 184.352c.044.305-.022.27-.218.375-.196.105-.49.188-.719-.234-.229-.422.25-.293.261-.609.011-.316.044-.609.294-.352.25.258.24.398.272.551.034.152.11.269.11.269z"/><path fill="none" stroke="#909090" stroke-width=".276" stroke-miterlimit="22.926" d="M294.462 184.352c.044.305-.022.27-.218.375-.196.105-.49.188-.719-.234-.229-.422.25-.293.261-.609.011-.316.044-.609.294-.352.25.258.24.398.272.551.034.152.11.269.11.269z"/><path fill-rule="evenodd" clip-rule="evenodd" fill="#909090" d="M291.457 182.219s-.381.07.022.469c.403.398.969.645 1.045.785.076.141.566.211.719.023.152-.187.446-.047.229-.457-.218-.41-.359-.586-.12-.633.24-.047.729.105.468-.422-.261-.527-.12-.82-.533-.774-.414.047-.544-.082-.621.223-.076.305-.305.867-.697.516-.392-.351-.512.27-.512.27z"/><path fill="none" stroke="#909090" stroke-width=".276" stroke-miterlimit="22.926" d="M291.457 182.219s-.381.07.022.469c.403.398.969.645 1.045.785.076.141.566.211.719.023.152-.187.446-.047.229-.457-.218-.41-.359-.586-.12-.633.24-.047.729.105.468-.422-.261-.527-.12-.82-.533-.774-.414.047-.544-.082-.621.223-.076.305-.305.867-.697.516-.392-.351-.512.27-.512.27z"/><path fill-rule="evenodd" clip-rule="evenodd" fill="#909090" d="M295.29 180.508c-.283.094-.174.164-.316.398-.142.234-.577.223-.577.223s-.784-.047-.305.281c.479.328 1.306-.117 1.306-.117s.174-.375.098-.516c-.076-.14-.206-.269-.206-.269z"/><path fill="none" stroke="#909090" stroke-width=".276" stroke-miterlimit="22.926" d="M295.29 180.508c-.283.094-.174.164-.316.398-.142.234-.577.223-.577.223s-.784-.047-.305.281c.479.328 1.306-.117 1.306-.117s.174-.375.098-.516c-.076-.14-.206-.269-.206-.269z"/><path fill-rule="evenodd" clip-rule="evenodd" fill="#909090" d="M292.024 180.543s.065.223-.25-.305c-.316-.527-.218-.703-.218-1.043s.065-.891.414-.926c.348-.035.653.023.708-.035.054-.059.174-.27.392 0 .218.27.588.387.24.668s-.904.316-.915.551c-.011.234.065.539-.087.75a3.09 3.09 0 01-.284.34z"/><path fill="none" stroke="#909090" stroke-width=".276" stroke-miterlimit="22.926" d="M292.024 180.543s.065.223-.25-.305c-.316-.527-.218-.703-.218-1.043s.065-.891.414-.926c.348-.035.653.023.708-.035.054-.059.174-.27.392 0 .218.27.588.387.24.668s-.904.316-.915.551c-.011.234.065.539-.087.75a3.09 3.09 0 01-.284.34z"/><path fill-rule="evenodd" clip-rule="evenodd" fill="#909090" d="M293.003 177.355c-.24.094-.359.082-.272.234.087.152.348.234.468.176.12-.059.24-.223.174-.328-.065-.105-.37-.082-.37-.082z"/><path fill="none" stroke="#909090" stroke-width=".276" stroke-miterlimit="22.926" d="M293.003 177.355c-.24.094-.359.082-.272.234.087.152.348.234.468.176.12-.059.24-.223.174-.328-.065-.105-.37-.082-.37-.082z"/><path fill-rule="evenodd" clip-rule="evenodd" fill="#909090" d="M324.773 198.791c-.24.258-.936.984-.24.961.697-.023 1.35-.047 1.677-.094.327-.047.697-.727.566-.867-.131-.141-.695-.13-.695-.13-.472-.105-1.219.034-1.308.13z"/><path fill="none" stroke="#909090" stroke-width=".276" stroke-miterlimit="22.926" d="M324.773 198.791c-.24.258-.936.984-.24.961.697-.023 1.35-.047 1.677-.094.327-.047.697-.727.566-.867-.131-.141-.695-.13-.695-.13-.472-.105-1.219.034-1.308.13z"/><path fill-rule="evenodd" clip-rule="evenodd" fill="#909090" d="M327.604 198.908c-.283.094-.719.141-.588.469.131.328.806.211.893.07.087-.141-.305-.539-.305-.539z"/><path fill="none" stroke="#909090" stroke-width=".276" stroke-miterlimit="22.926" d="M327.604 198.908c-.283.094-.719.141-.588.469.131.328.806.211.893.07.087-.141-.305-.539-.305-.539z"/><path fill-rule="evenodd" clip-rule="evenodd" fill="#909090" d="M329.15 198.931c-.435.234-.653.305-.501.469.152.164.588.281.653.023.066-.257-.152-.492-.152-.492z"/><path fill="none" stroke="#909090" stroke-width=".276" stroke-miterlimit="22.926" d="M329.15 198.931c-.435.234-.653.305-.501.469.152.164.588.281.653.023.066-.257-.152-.492-.152-.492z"/><path fill-rule="evenodd" clip-rule="evenodd" fill="#909090" d="M327.99 181.322l-.915.984-.022-2.227-.37-1.453s-.305-.188-.544.023c-.24.211-.74.352-.893.516-.152.164-.152.703-.457.75-.305.047-.479-.07-.479-.07l.109.633-.327.07s.152-1.125-.152-.797c-.305.328-.697.539-.806.773-.109.234.152.867.152.867l-.675.047s-.523-.469-.61-.328c-.087.141.065.258 0 .703-.065.445-.174.75-.348.867-.174.117.218-.492-.37-.492s0 .492-.719.328c-.719-.164-.74-.164-.74-.164s-.305.68 0 .867c.305.188.544.211.479.516-.065.305-.152.516-.37.305-.218-.211-.261-.797-.392-.516s-.152.844.044 1.031c.196.188.74.047.588.398-.152.352-.457.328-.74.188-.283-.141-.131-.75-.61-.656-.479.094-.889.64-.889.64s.04.461.366.672c.327.211.98-.047.719.305s.087.563-.392.352c-.479-.211-.479-.891-.675-.516-.196.375-.044.469.131.609.174.141.915.281.544.445-.37.164-.936-.398-1.045-.047-.109.352-.022.469.196.68.218.211 1.132 1.266 1.132 1.266s-.196.094-.61.375-.305-.164-.457.047.087.844.087.844-.697-.281-.675-.492c.022-.211.078-.396-.348-.352-.427.044-.523.352-.523.75s.61.352.653.844c.044.492.523.633.566.961.044.328.501.68.719.75.218.07.392-.094.218.281-.174.375.261.633.261.633s-.414-.293-.24.281c.174.574.414.516.414.774s.381.352.468.352c.087 0-.022-.41-.022-.41s-.338-.363-.185-.434c.152-.07.37.07.37.07s.054.328.152.563c.098.234.359.188.316.305-.044.117-.207.387.033.41.24.023.958.152.958.152s.011.715.49 1.008.338.199.729.164c.392-.035.632-.27.632-.27s.305-.445-.087-.422-.871.105-.893-.105c-.022-.211-.076-.691-.076-.691s.468.152.479-.094-.076-.609-.196-.609-.566-.023-.359-.293c.207-.27.675-.246.675-.246s.381-.27.011-.434-.817-.164-.61-.328c.207-.164.588-.117.588-.117s.512-.352-.076-.398c-.588-.047-.947.035-.958.105-.011.07-.436-.012-.436-.07 0-.059-.054-.434.163-.574.218-.141.109-.738.109-.738s-.544-.141-.435-.375.61-.246.751-.246c.142 0 .37-.27.457-.187.087.082.131.68.359.715.229.035.577-.082.577-.082s-.294.328.033.445c.327.117.457-.129.544.211.087.34-.022.914.033.914.054 0 .686.023.947.117.261.094.468.012.773.293.305.281.871.434.958.422.087-.012.163.164.305.328s.751.281.882.07c.131-.211.174-.141.272-.152.098-.012.904-.012 1.426-.234.523-.223 1.1-.281 1.219-.621.12-.34.131-.727.131-.961 0-.234.054-.961.054-1.09s.152-.398-.348-.246c-.501.152-.142.223-.337.738s-.501.996-.697 1.242c-.196.246-.544.609-1.056.621-.512.012-1.023.141-1.023.234s-.185.129-.185.129-.446-.387-.163-.621c.283-.234.632-.223.664-.34.033-.117.011-.352-.261-.375-.272-.023-.751.129-.751-.07s-.163-.469.272-.645c.436-.176.849-.375.729-.516-.12-.141-.065-.176-.185-.305s-.697 0-.849.094-.381.188-.479.047c-.098-.141-.74-.023-.806.023-.065.047-.163-.281.207-.504.37-.223.588-.117.882-.117.294 0 .37-.211.37-.211s.403-.586-.011-.586-.61.234-.61-.164.24-.188.24-.398c0-.211-.109-.141-.37-.305s-.109-.258-.174-.469c-.065-.211-.697-.281-.675.023.022.305-.501.211-.501.211s.044-.609-.065-.727c-.109-.117.022-.422-.566-.328-.588.094-.675.047-.675.047s.087-.445.435-.469c.348-.023.784.422 1.045.422s.632-.023.544-.211c-.087-.188.022-.539.022-.539s.588.023.632.539c.044.516.022.539.392.539s.24-.563.479.258c.24.82.762-.188 1.002.305.24.492-.218.586.109.891.327.305.675-.305.806.328s-.305.68.174.727c.479.047.523-.516.61-.633.087-.117.348.234.414-.211.065-.445-.305-.586.065-.797.37-.211.544-.234 1.002-.023.457.211.632.352.719.633.087.281.435-.07.61.352.174.422.131.492.174.867.044.375.61.563.719.281s-.065-.773-.065-.984c0-.211.087-.281-.152-.563-.24-.281-.152-.352.065-.492.218-.141.218-.234.24-.539.022-.305.283-.375.436-.352s.512-.129.327-.41c-.185-.281-.381-.199-.392-.598-.011-.398.142-.691-.381-.68-.523.012-.523.27-1.252.082s-.25 0-.566.164-.708.176-.697-.105c.011-.281-.218-.633.109-.657.327-.023.74-.164.37-.445s-.61-.141-1.023-.539c-.414-.398-.936-.633-1.176-.75-.24-.117-1.219-.469-1.176-.773.044-.305.24-.703.24-.703s.131-1.195.414-.68.37 1.149.631 1.266c.261.117 1.285.469 1.437.82.152.352.74.633 1.067.633s.98-.516 1.002-.211c.022.305.348.867.827.609s.98-.258 1.154-.234c.174.023-.261-1.524.152-1.172.414.352.24.773.479.867.24.094.675.164.74.516.065.352.065.586.501.563s.457-.539.98-.82c.523-.281 1.786-1.078 1.786-1.078l.109.539s.74-.047.74-.352-.218-.727.065-.797c.283-.07.479-.469.479-.469h-.719s-.958-.234-.37-.328.74-.258.915-.188c.174.07.762.188.762.188s.152-.188-.109-.375c-.261-.188-.544-.352-.871-.352-.327 0-.849-.07-.675-.281.174-.211.305-.352.457-.188.152.164.436.234.436.234s-.087-.75.327-.328c.414.422.566.563.719.539.152-.023.675.094.719-.023.044-.117.044-.797.327-.516.283.281.904.246 1.361.281.457.035.86-.352 1.176-.211.316.141.719-.609.719-.609s.719-.164 1.002-.422.827-.656.827-.656.414-.375-.174-.281c-.588.094-1.394 0-1.263.094s-.544.328-.305.398c.24.07-.523-.305-.523-.305l-.305-.445s.675-.023.958-.07c.283-.047 1.459-.422 1.459-.422l-.523-.586s-.435-.703-1.328-.821c-.893-.117-1.481-.258-2.156-.281s-1.306-.492-1.306-.492l-.218-.281s-.61.117-.523-.188c.087-.305.152-.703.392-.703s1.111-.07 1.111-.07l-.196-.609s.719-.258 1.045.328c.327.586.109.609.544.633.436.023 1.35 0 1.59 0h.806s.621-.293.24-.434c-.381-.141-.555-.023-.827-.164-.272-.141-.708-.199-.74-.27-.033-.07-.784-1.078.022-.516.806.563.838.539 1.285.539s.435-.223.435-.223-.392-.457-.599-.645c-.207-.188-.664-.457-.708-.633-.044-.176-.207-.293-.534-.34-.327-.047-1.078-.293-.838-.434s1.165.188 1.154-.152c-.011-.34-.185-.516-.446-.668-.261-.152-.142-.797-.468-.762-.327.035-.762-.316-1.045-.07s-.958.398-1.219.246c-.261-.152-.436-.527-.632-.492-.196.035-.936.223-1.187.363-.25.141-1.263.023-1.339.164s-.435.75-.512 1.078c-.076.328-.566.211-.653.715-.087.504-.152.551-.12.867.033.316-.533 1.313-.109 1.242.425-.07.729-.375.871-.586.142-.211.185-.035.218.316.033.352.414.422.533.398.12-.023.152.246.218.82.065.574.392.856.621 1.008.229.152.218.398.12.398s-.316-.316-.479-.387c-.163-.07-.414-.152-.381.176.033.328.392.48.457.656.065.176.196.551.033.738-.163.188-.076.352-.533.105-.457-.246-.817-.715-.653-.996.163-.281.632-.352.512-.727s-.272-.574-.37-.832c-.098-.258.163-.656-.294-.539-.457.117-.74.152-.817.352-.076.199-.534.176-.577-.117-.044-.293.218-.492-.044-.563s-.806.328-.686.48c.12.152-.468-.188-.446-.609.022-.422.414-.492.533-.504.12-.012.12-.164.261-.457.142-.293-.25-.598-.446-.633-.196-.035 0 .504-.305.129s-.185-.621-.381-.258-.512.527-.686.352c-.174-.176-.283-.656.033-.762.316-.105.512-.316.425-.41-.087-.094-.098-.152-.381-.141-.283.012-.457.363-.523.152-.065-.211.054-.457.24-.609.185-.152.185-.199.305-.41.12-.211.087-.914.381-.27.294.645-.337.434-.033.656.305.223.414-.41.49-.047s.425.961.534.961c.109 0 .61-.363.751-.199.142.164.98.281.838-.176-.142-.457.261-.504.261-.973s-.076-.621-.207-.879-.305-.738-.479-.809c-.174-.07-.871-.527-1.002-.68-.131-.152-.686-.316-.838-.305s-1.492-.141-1.579.164c-.087.305-.196.246.065.574.261.328.163.774-.087.68-.25-.094-.348-.258-.631-.469-.283-.211-2.199-.152-2.7-.902-.501-.75-1.132-1.008-1.524-1.336-.392-.328-.653-1.688-.958-.844s-.523.188.305 1.406c.827 1.219 1.263 1.688 1.263 1.899 0 .211.37 1.008-.544.539s-1.786-.188-1.655.188c.131.375.24 1.406.24 1.406s-.653.211-.958-.047c-.305-.258-.762-1.055-.871-.422-.109.633-.544 1.172-.152 1.359.392.188 1.829.609 1.263.797-.566.188-.893.094-.632.469s.37 1.102.261 1.336c-.109.234-.414.984-.588-.234-.174-1.219.239-1.008-.327-1.008s.065.727-.653 1.125c-.719.398-.566.75-.109 1.242.457.492 1.753 1.371 1.829 1.442.076.07.196.398.196.809 0 .41.294 1.195.337 1.571.044.375-.152.727.087.832.232.112.209.332.254.405z"/><path fill="none" stroke="#909090" stroke-width=".055" stroke-miterlimit="22.926" d="M327.99 181.322l-.915.984-.022-2.227-.37-1.453s-.305-.188-.544.023c-.24.211-.74.352-.893.516-.152.164-.152.703-.457.75-.305.047-.479-.07-.479-.07l.109.633-.327.07s.152-1.125-.152-.797c-.305.328-.697.539-.806.773-.109.234.152.867.152.867l-.675.047s-.523-.469-.61-.328c-.087.141.065.258 0 .703-.065.445-.174.75-.348.867-.174.117.218-.492-.37-.492s0 .492-.719.328c-.719-.164-.74-.164-.74-.164s-.305.68 0 .867c.305.188.544.211.479.516-.065.305-.152.516-.37.305-.218-.211-.261-.797-.392-.516s-.152.844.044 1.031c.196.188.74.047.588.398-.152.352-.457.328-.74.188-.283-.141-.131-.75-.61-.656-.479.094-.889.64-.889.64s.04.461.366.672c.327.211.98-.047.719.305s.087.563-.392.352c-.479-.211-.479-.891-.675-.516-.196.375-.044.469.131.609.174.141.915.281.544.445-.37.164-.936-.398-1.045-.047-.109.352-.022.469.196.68.218.211 1.132 1.266 1.132 1.266s-.196.094-.61.375-.305-.164-.457.047.087.844.087.844-.697-.281-.675-.492c.022-.211.078-.396-.348-.352-.427.044-.523.352-.523.75s.61.352.653.844c.044.492.523.633.566.961.044.328.501.68.719.75.218.07.392-.094.218.281-.174.375.261.633.261.633s-.414-.293-.24.281c.174.574.414.516.414.774s.381.352.468.352c.087 0-.022-.41-.022-.41s-.338-.363-.185-.434c.152-.07.37.07.37.07s.054.328.152.563c.098.234.359.188.316.305-.044.117-.207.387.033.41.24.023.958.152.958.152s.011.715.49 1.008.338.199.729.164c.392-.035.632-.27.632-.27s.305-.445-.087-.422-.871.105-.893-.105c-.022-.211-.076-.691-.076-.691s.468.152.479-.094-.076-.609-.196-.609-.566-.023-.359-.293c.207-.27.675-.246.675-.246s.381-.27.011-.434-.817-.164-.61-.328c.207-.164.588-.117.588-.117s.512-.352-.076-.398c-.588-.047-.947.035-.958.105-.011.07-.436-.012-.436-.07 0-.059-.054-.434.163-.574.218-.141.109-.738.109-.738s-.544-.141-.435-.375.61-.246.751-.246c.142 0 .37-.27.457-.187.087.082.131.68.359.715.229.035.577-.082.577-.082s-.294.328.033.445c.327.117.457-.129.544.211.087.34-.022.914.033.914.054 0 .686.023.947.117.261.094.468.012.773.293.305.281.871.434.958.422.087-.012.163.164.305.328s.751.281.882.07c.131-.211.174-.141.272-.152.098-.012.904-.012 1.426-.234.523-.223 1.1-.281 1.219-.621.12-.34.131-.727.131-.961 0-.234.054-.961.054-1.09s.152-.398-.348-.246c-.501.152-.142.223-.337.738s-.501.996-.697 1.242c-.196.246-.544.609-1.056.621-.512.012-1.023.141-1.023.234s-.185.129-.185.129-.446-.387-.163-.621c.283-.234.632-.223.664-.34.033-.117.011-.352-.261-.375-.272-.023-.751.129-.751-.07s-.163-.469.272-.645c.436-.176.849-.375.729-.516-.12-.141-.065-.176-.185-.305s-.697 0-.849.094-.381.188-.479.047c-.098-.141-.74-.023-.806.023-.065.047-.163-.281.207-.504.37-.223.588-.117.882-.117.294 0 .37-.211.37-.211s.403-.586-.011-.586-.61.234-.61-.164.24-.188.24-.398c0-.211-.109-.141-.37-.305s-.109-.258-.174-.469c-.065-.211-.697-.281-.675.023.022.305-.501.211-.501.211s.044-.609-.065-.727c-.109-.117.022-.422-.566-.328-.588.094-.675.047-.675.047s.087-.445.435-.469c.348-.023.784.422 1.045.422s.632-.023.544-.211c-.087-.188.022-.539.022-.539s.588.023.632.539c.044.516.022.539.392.539s.24-.563.479.258c.24.82.762-.188 1.002.305.24.492-.218.586.109.891.327.305.675-.305.806.328s-.305.68.174.727c.479.047.523-.516.61-.633.087-.117.348.234.414-.211.065-.445-.305-.586.065-.797.37-.211.544-.234 1.002-.023.457.211.632.352.719.633.087.281.435-.07.61.352.174.422.131.492.174.867.044.375.61.563.719.281s-.065-.773-.065-.984c0-.211.087-.281-.152-.563-.24-.281-.152-.352.065-.492.218-.141.218-.234.24-.539.022-.305.283-.375.436-.352s.512-.129.327-.41c-.185-.281-.381-.199-.392-.598-.011-.398.142-.691-.381-.68-.523.012-.523.27-1.252.082s-.25 0-.566.164-.708.176-.697-.105c.011-.281-.218-.633.109-.657.327-.023.74-.164.37-.445s-.61-.141-1.023-.539c-.414-.398-.936-.633-1.176-.75-.24-.117-1.219-.469-1.176-.773.044-.305.24-.703.24-.703s.131-1.195.414-.68.37 1.149.631 1.266c.261.117 1.285.469 1.437.82.152.352.74.633 1.067.633s.98-.516 1.002-.211c.022.305.348.867.827.609s.98-.258 1.154-.234c.174.023-.261-1.524.152-1.172.414.352.24.773.479.867.24.094.675.164.74.516.065.352.065.586.501.563s.457-.539.98-.82c.523-.281 1.786-1.078 1.786-1.078l.109.539s.74-.047.74-.352-.218-.727.065-.797c.283-.07.479-.469.479-.469h-.719s-.958-.234-.37-.328.74-.258.915-.188c.174.07.762.188.762.188s.152-.188-.109-.375c-.261-.188-.544-.352-.871-.352-.327 0-.849-.07-.675-.281.174-.211.305-.352.457-.188.152.164.436.234.436.234s-.087-.75.327-.328c.414.422.566.563.719.539.152-.023.675.094.719-.023.044-.117.044-.797.327-.516.283.281.904.246 1.361.281.457.035.86-.352 1.176-.211.316.141.719-.609.719-.609s.719-.164 1.002-.422.827-.656.827-.656.414-.375-.174-.281c-.588.094-1.394 0-1.263.094s-.544.328-.305.398c.24.07-.523-.305-.523-.305l-.305-.445s.675-.023.958-.07c.283-.047 1.459-.422 1.459-.422l-.523-.586s-.435-.703-1.328-.821c-.893-.117-1.481-.258-2.156-.281s-1.306-.492-1.306-.492l-.218-.281s-.61.117-.523-.188c.087-.305.152-.703.392-.703s1.111-.07 1.111-.07l-.196-.609s.719-.258 1.045.328c.327.586.109.609.544.633.436.023 1.35 0 1.59 0h.806s.621-.293.24-.434c-.381-.141-.555-.023-.827-.164-.272-.141-.708-.199-.74-.27-.033-.07-.784-1.078.022-.516.806.563.838.539 1.285.539s.435-.223.435-.223-.392-.457-.599-.645c-.207-.188-.664-.457-.708-.633-.044-.176-.207-.293-.534-.34-.327-.047-1.078-.293-.838-.434s1.165.188 1.154-.152c-.011-.34-.185-.516-.446-.668-.261-.152-.142-.797-.468-.762-.327.035-.762-.316-1.045-.07s-.958.398-1.219.246c-.261-.152-.436-.527-.632-.492-.196.035-.936.223-1.187.363-.25.141-1.263.023-1.339.164s-.435.75-.512 1.078c-.076.328-.566.211-.653.715-.087.504-.152.551-.12.867.033.316-.533 1.313-.109 1.242.425-.07.729-.375.871-.586.142-.211.185-.035.218.316.033.352.414.422.533.398.12-.023.152.246.218.82.065.574.392.856.621 1.008.229.152.218.398.12.398s-.316-.316-.479-.387c-.163-.07-.414-.152-.381.176.033.328.392.48.457.656.065.176.196.551.033.738-.163.188-.076.352-.533.105-.457-.246-.817-.715-.653-.996.163-.281.632-.352.512-.727s-.272-.574-.37-.832c-.098-.258.163-.656-.294-.539-.457.117-.74.152-.817.352-.076.199-.534.176-.577-.117-.044-.293.218-.492-.044-.563s-.806.328-.686.48c.12.152-.468-.188-.446-.609.022-.422.414-.492.533-.504.12-.012.12-.164.261-.457.142-.293-.25-.598-.446-.633-.196-.035 0 .504-.305.129s-.185-.621-.381-.258-.512.527-.686.352c-.174-.176-.283-.656.033-.762.316-.105.512-.316.425-.41-.087-.094-.098-.152-.381-.141-.283.012-.457.363-.523.152-.065-.211.054-.457.24-.609.185-.152.185-.199.305-.41.12-.211.087-.914.381-.27.294.645-.337.434-.033.656.305.223.414-.41.49-.047s.425.961.534.961c.109 0 .61-.363.751-.199.142.164.98.281.838-.176-.142-.457.261-.504.261-.973s-.076-.621-.207-.879-.305-.738-.479-.809c-.174-.07-.871-.527-1.002-.68-.131-.152-.686-.316-.838-.305s-1.492-.141-1.579.164c-.087.305-.196.246.065.574.261.328.163.774-.087.68-.25-.094-.348-.258-.631-.469-.283-.211-2.199-.152-2.7-.902-.501-.75-1.132-1.008-1.524-1.336-.392-.328-.653-1.688-.958-.844s-.523.188.305 1.406c.827 1.219 1.263 1.688 1.263 1.899 0 .211.37 1.008-.544.539s-1.786-.188-1.655.188c.131.375.24 1.406.24 1.406s-.653.211-.958-.047c-.305-.258-.762-1.055-.871-.422-.109.633-.544 1.172-.152 1.359.392.188 1.829.609 1.263.797-.566.188-.893.094-.632.469s.37 1.102.261 1.336c-.109.234-.414.984-.588-.234-.174-1.219.239-1.008-.327-1.008s.065.727-.653 1.125c-.719.398-.566.75-.109 1.242.457.492 1.753 1.371 1.829 1.442.076.07.196.398.196.809 0 .41.294 1.195.337 1.571.044.375-.152.727.087.832.232.112.209.332.254.405z"/><path fill-rule="evenodd" clip-rule="evenodd" fill="#909090" d="M331.761 190.6c-.022.117-.24.445-.044.563.196.117.653-.094.348-.328l-.304-.235z"/><path fill="none" stroke="#909090" stroke-width=".276" stroke-miterlimit="22.926" d="M331.761 190.6c-.022.117-.24.445-.044.563.196.117.653-.094.348-.328l-.304-.235z"/><path fill-rule="evenodd" clip-rule="evenodd" fill="#909090" d="M333.416 190.928c0 .352-.044.516.305.469.348-.047.435-.516.065-.492l-.37.023z"/><path fill="none" stroke="#909090" stroke-width=".276" stroke-miterlimit="22.926" d="M333.416 190.928c0 .352-.044.516.305.469.348-.047.435-.516.065-.492l-.37.023z"/><path fill-rule="evenodd" clip-rule="evenodd" fill="#909090" d="M336.661 190.389s-.827-.539-1.002-.773c-.174-.234-.697-.938-.915-1.219-.218-.281-.174-.703-.044-.867.131-.164.827-.375.762-.727-.065-.352-.022-1.242.37-.68.392.563 0 .891.61.938.61.047 1.045-.352.719.281-.327.633-.588-.117-.784.281-.196.398-.174.914-.087 1.359.087.445.907 1.081.566 1.195-.34.115-.195.212-.195.212z"/><path fill="none" stroke="#909090" stroke-width=".276" stroke-miterlimit="22.926" d="M336.661 190.389s-.827-.539-1.002-.773c-.174-.234-.697-.938-.915-1.219-.218-.281-.174-.703-.044-.867.131-.164.827-.375.762-.727-.065-.352-.022-1.242.37-.68.392.563 0 .891.61.938.61.047 1.045-.352.719.281-.327.633-.588-.117-.784.281-.196.398-.174.914-.087 1.359.087.445.907 1.081.566 1.195-.34.115-.195.212-.195.212z"/><path fill-rule="evenodd" clip-rule="evenodd" fill="#FFF" d="M341.134 175.087h-1.366c.203 1.433.596.878.808 1.456.087.236.02.43-.134.529-.32.153-.459-.211-.705-.355.106.144.3.298.376.447.218.424.192.91-.132 1.246-.373.387-1.281-.365-1.456-.825-.229-.604.279-.796.508-1.048-.078-.45-.404-.658-.407-1.231-1.03.206-.474.365-.958.463-.442.089-.745-.211-.7-.68h-9.812c-.142.759-.849 1.173-1.045 0h-.492c-.359.471-1.443.172 1.206 2.118.809.595.519.566.699 1.557.212 1.166.301.475.282 1.908.207.192.209.109.323.423.133.365.104.197.311.39.417.388.249 1.147.817 1.383 1.792.745 1.044.776 1.667 1.157.844.516 1.016-.266 1.555-.094.364.116.155.871.677.727.142-.039.307-.142.5-.194.182-.05.389-.08.587-.092-.022-.29-.183-1.019.111-1.188.571-.066.664.411.834.918.75.229.737.275.939 1.039.276.052.333-.038.45-.187.428-.543.389-.457 1.07-.856l1.576-.962.067.155c.013.046.025.12.035.175.018.093.036.203.074.306l.288-.116c-.033-.488-.207-.649.137-.967-.343-.019-1.098-.227-.795-.687.102-.154.375-.155.573-.204.129-.031.479-.168.554-.159-.411-.03-1.132-.023-1-.564.072-.294.598-.741.895-.326.187-.235.274-.592.864-.013.091.089.256.286.365.331.084.034.481.06.576.04.081-.301.093-.621.427-.611.231.007.309.226.69.285 1.194.185 1.126-.082 1.649-.165.433-.068.399.141.68-.249.286-.397.026-.26.566-.42.269-.08.458-.163.654-.319.148-.119.373-.338.518-.424-.153-.004-.606-.006-.735.018-.281.054-.369.372-.379.388-.365.068-.211.046-.509-.118-.49-.271-.318-.122-.691-.664-.089-.129-.187-.26-.258-.416 1.631-.028 1.119-.074 2.39-.364-.084-.201-.121-.177-.258-.332-.288-.327-.484-.562-.997-.678l-1.886-.281c-.811-.062-1.087-.109-1.707-.475-.216-.127-.192-.2-.298-.275-.107-.076-.284-.014-.444-.08-.385-.168-.172-.653-.134-.84z"/><path fill="none" stroke="#909090" stroke-width=".055" stroke-miterlimit="22.926" d="M341.134 175.087h-1.366c.203 1.433.596.878.808 1.456.087.236.02.43-.134.529-.32.153-.459-.211-.705-.355.106.144.3.298.376.447.218.424.192.91-.132 1.246-.373.387-1.281-.365-1.456-.825-.229-.604.279-.796.508-1.048-.078-.45-.404-.658-.407-1.231-1.03.206-.474.365-.958.463-.442.089-.745-.211-.7-.68h-9.812c-.142.759-.849 1.173-1.045 0h-.492c-.359.471-1.443.172 1.206 2.118.809.595.519.566.699 1.557.212 1.166.301.475.282 1.908.207.192.209.109.323.423.133.365.104.197.311.39.417.388.249 1.147.817 1.383 1.792.745 1.044.776 1.667 1.157.844.516 1.016-.266 1.555-.094.364.116.155.871.677.727.142-.039.307-.142.5-.194.182-.05.389-.08.587-.092-.022-.29-.183-1.019.111-1.188.571-.066.664.411.834.918.75.229.737.275.939 1.039.276.052.333-.038.45-.187.428-.543.389-.457 1.07-.856l1.576-.962.067.155c.013.046.025.12.035.175.018.093.036.203.074.306l.288-.116c-.033-.488-.207-.649.137-.967-.343-.019-1.098-.227-.795-.687.102-.154.375-.155.573-.204.129-.031.479-.168.554-.159-.411-.03-1.132-.023-1-.564.072-.294.598-.741.895-.326.187-.235.274-.592.864-.013.091.089.256.286.365.331.084.034.481.06.576.04.081-.301.093-.621.427-.611.231.007.309.226.69.285 1.194.185 1.126-.082 1.649-.165.433-.068.399.141.68-.249.286-.397.026-.26.566-.42.269-.08.458-.163.654-.319.148-.119.373-.338.518-.424-.153-.004-.606-.006-.735.018-.281.054-.369.372-.379.388-.365.068-.211.046-.509-.118-.49-.271-.318-.122-.691-.664-.089-.129-.187-.26-.258-.416 1.631-.028 1.119-.074 2.39-.364-.084-.201-.121-.177-.258-.332-.288-.327-.484-.562-.997-.678l-1.886-.281c-.811-.062-1.087-.109-1.707-.475-.216-.127-.192-.2-.298-.275-.107-.076-.284-.014-.444-.08-.385-.168-.172-.653-.134-.84z"/><path fill-rule="evenodd" clip-rule="evenodd" fill="#FFF" d="M306.174 185.187h8.185c.07-.974.874-2.43 1.557-3.154.097-.103.156-.176.258-.281.105-.109.149-.176.258-.274l.706-.864c.104-.141.352-.504.495-.601-.024.305-.256.977-.084 1.2.136-.248-.019-.43.299-.799-.077-.742.104-.946.426-1.353.468-.591.703-.603.879-.905-.251-.125-.747-.006-.687-.458.046-.346.928-.691 1.344-.956.168-.107.601-.385.777-.441l.25.983c.22-.118.006-.083.326-.495.159-.204.287-.28.424-.443.179-.212.349-.937.472-1.258h-16.112c.162.149.803.18 1.093.304.819.35 1.902 1.627 2.082 2.267-.681.226-.912.511-1.796.546-.915.036-1.217-.077-1.891.398-.212.149-.479.411-.773.424-.302.013-.678-.105-.948-.195-.589-.196-1.095-.453-1.672-.624l.721 1.642c.069.153.14.235.198.381.211.537.186 1.067.616 1.112-.071-.475.127-.576.237-.978.357.025.665.084 1.042.067.427-.019.511-.067.596-.49.302.049.424.109.766.086-.159-.302-.212-.573.041-.84.289-.305.271.128.577-.482.635.181.408.463.806.498.313-.323.458-1.104 1.074-.881.356.128.409.066.658.363.216.259.149.439.115.833-.028.331-.039.662-.084.99-.057.412-.149.461-.427.613-.815.445-.904-.25-1.016-.588-.052-.158-.006-.031-.042-.099-.413-.007-.41-.02-.674.174.026.245.234.41.305.757.137.667-.004 1.061-.399 1.547-.219.27-.225.253-.554.441-.072.313-.146.588-.227.896-.075.292-.191.611-.197.937z"/><path fill="none" stroke="#909090" stroke-width=".055" stroke-miterlimit="22.926" d="M306.174 185.187h8.185c.07-.974.874-2.43 1.557-3.154.097-.103.156-.176.258-.281.105-.109.149-.176.258-.274l.706-.864c.104-.141.352-.504.495-.601-.024.305-.256.977-.084 1.2.136-.248-.019-.43.299-.799-.077-.742.104-.946.426-1.353.468-.591.703-.603.879-.905-.251-.125-.747-.006-.687-.458.046-.346.928-.691 1.344-.956.168-.107.601-.385.777-.441l.25.983c.22-.118.006-.083.326-.495.159-.204.287-.28.424-.443.179-.212.349-.937.472-1.258h-16.112c.162.149.803.18 1.093.304.819.35 1.902 1.627 2.082 2.267-.681.226-.912.511-1.796.546-.915.036-1.217-.077-1.891.398-.212.149-.479.411-.773.424-.302.013-.678-.105-.948-.195-.589-.196-1.095-.453-1.672-.624l.721 1.642c.069.153.14.235.198.381.211.537.186 1.067.616 1.112-.071-.475.127-.576.237-.978.357.025.665.084 1.042.067.427-.019.511-.067.596-.49.302.049.424.109.766.086-.159-.302-.212-.573.041-.84.289-.305.271.128.577-.482.635.181.408.463.806.498.313-.323.458-1.104 1.074-.881.356.128.409.066.658.363.216.259.149.439.115.833-.028.331-.039.662-.084.99-.057.412-.149.461-.427.613-.815.445-.904-.25-1.016-.588-.052-.158-.006-.031-.042-.099-.413-.007-.41-.02-.674.174.026.245.234.41.305.757.137.667-.004 1.061-.399 1.547-.219.27-.225.253-.554.441-.072.313-.146.588-.227.896-.075.292-.191.611-.197.937z"/><path fill-rule="evenodd" clip-rule="evenodd" fill="#FFF" d="M320.281 185.187h10.058c-.197-.145-.271-.154-.468-.331-.478-.431-.952-.644-1.547-.9-1.535-.66-.606-1.14-.562-2.083-.165.169-.803.942-.963.989a97.9 97.9 0 01-.027-2.235c-.002-.468-.156-1.433-.354-1.827-.201-.012-.363.175-.543.264-.13.064-.437.155-.52.296-.261.441-.002.699-.786.815l.07.492-.872.164.064-.685c-.81.619-.53.472-.246 1.451-.247.041-.497.046-.745.063-.466.031-.324.022-.633-.196.004.498-.195 1.589-.695 1.444-.266-.077-.116-.304-.224-.476-.302.02-.012.382-.592.353-.236-.012-.608-.173-.785-.117l-.013.303c.343.237.742.296.562.943-.151.543-.484.583-.822.229.083.393.249.186.549.349.287.156.214.436.094.695z"/><path fill="none" stroke="#909090" stroke-width=".055" stroke-miterlimit="22.926" d="M320.281 185.187h10.058c-.197-.145-.271-.154-.468-.331-.478-.431-.952-.644-1.547-.9-1.535-.66-.606-1.14-.562-2.083-.165.169-.803.942-.963.989a97.9 97.9 0 01-.027-2.235c-.002-.468-.156-1.433-.354-1.827-.201-.012-.363.175-.543.264-.13.064-.437.155-.52.296-.261.441-.002.699-.786.815l.07.492-.872.164.064-.685c-.81.619-.53.472-.246 1.451-.247.041-.497.046-.745.063-.466.031-.324.022-.633-.196.004.498-.195 1.589-.695 1.444-.266-.077-.116-.304-.224-.476-.302.02-.012.382-.592.353-.236-.012-.608-.173-.785-.117l-.013.303c.343.237.742.296.562.943-.151.543-.484.583-.822.229.083.393.249.186.549.349.287.156.214.436.094.695z"/><path fill-rule="evenodd" clip-rule="evenodd" fill="#FFF" d="M295.87 185.187h2.376c.16-.272.233-.11.273-.581a.985.985 0 01-.662.043l.074-.659c.092-.267.667-.657.501-1.848-.113.723-1.808 1.87-2.432 1.713-.652-.164.043-.996.338-1.277.311-.297.723-.41.844-.757.055-.157-.004-.276-.006-.462-1.284-.135-.881.132-1.176.814-.548 1.268-.985.43-1.138.35l.03-.469c-.289-.031-.092.13-.344.314-.23.168-.19.091-.343.341.264-.08.649-.253.677.22.032.551-.282.321.035.893.133.239.243.55.39.777.165.26.438.333.563.588z"/><path fill="none" stroke="#909090" stroke-width=".055" stroke-miterlimit="22.926" d="M295.87 185.187h2.376c.16-.272.233-.11.273-.581a.985.985 0 01-.662.043l.074-.659c.092-.267.667-.657.501-1.848-.113.723-1.808 1.87-2.432 1.713-.652-.164.043-.996.338-1.277.311-.297.723-.41.844-.757.055-.157-.004-.276-.006-.462-1.284-.135-.881.132-1.176.814-.548 1.268-.985.43-1.138.35l.03-.469c-.289-.031-.092.13-.344.314-.23.168-.19.091-.343.341.264-.08.649-.253.677.22.032.551-.282.321.035.893.133.239.243.55.39.777.165.26.438.333.563.588z"/><path fill-rule="evenodd" clip-rule="evenodd" fill="#FFF" d="M304.389 185.187h.424l.257-.2c.474-.255.531-.041.82-.527l.691-1.126c-.398-.042-.52-.33-.717-.591-.297-.393-.262-.595.174-.779-.192-.035-.337-.088-.381-.283-.043-.191.055-.396.129-.431-.145.024-.453.124-.535.263-.061.104-.211.454-.212.583.183.142.387.165.348.53-.035.327-.235.298-.368.472.29.295.907.676.111 1.017-.367.157-.244.466-.27.643-.044.301-.284.283-.471.429z"/><path fill="none" stroke="#909090" stroke-width=".055" stroke-miterlimit="22.926" d="M304.389 185.187h.424l.257-.2c.474-.255.531-.041.82-.527l.691-1.126c-.398-.042-.52-.33-.717-.591-.297-.393-.262-.595.174-.779-.192-.035-.337-.088-.381-.283-.043-.191.055-.396.129-.431-.145.024-.453.124-.535.263-.061.104-.211.454-.212.583.183.142.387.165.348.53-.035.327-.235.298-.368.472.29.295.907.676.111 1.017-.367.157-.244.466-.27.643-.044.301-.284.283-.471.429z"/><path fill-rule="evenodd" clip-rule="evenodd" fill="#FFF" d="M291.709 182.096c-.068.134-.086.269-.131.364.262.246.458.366.77.574.379.252.427.509.852.108-.074-.202-.276-.406-.251-.68.03-.33.296-.327.609-.346-.043-.13-.176-.545-.237-.663l-.451.01c-.222.431-.305 1.2-1.161.633z"/><path fill="none" stroke="#909090" stroke-width=".055" stroke-miterlimit="22.926" d="M291.709 182.096c-.068.134-.086.269-.131.364.262.246.458.366.77.574.379.252.427.509.852.108-.074-.202-.276-.406-.251-.68.03-.33.296-.327.609-.346-.043-.13-.176-.545-.237-.663l-.451.01c-.222.431-.305 1.2-1.161.633z"/><path fill-rule="evenodd" clip-rule="evenodd" fill="#FFF" d="M292.447 178.499l-.545.004c-.266.397-.225 1.306.08 1.63.31-.361-.054-.726.278-1.027.209-.189.611-.227.845-.44a8.692 8.692 0 00-.252-.294c-.155.068-.178.128-.406.127z"/><path fill="none" stroke="#909090" stroke-width=".055" stroke-miterlimit="22.926" d="M292.447 178.499l-.545.004c-.266.397-.225 1.306.08 1.63.31-.361-.054-.726.278-1.027.209-.189.611-.227.845-.44a8.692 8.692 0 00-.252-.294c-.155.068-.178.128-.406.127z"/><path fill-rule="evenodd" clip-rule="evenodd" fill="#909090" d="M299.683 175.514l.084.126c.034.048.052.069.082.127.043.081.086.21.12.295.305-.024.689-.386.703-.709-.451-.01-.708-.072-.989.161z"/><path fill="none" stroke="#909090" stroke-width=".055" stroke-miterlimit="22.926" d="M299.683 175.514l.084.126c.034.048.052.069.082.127.043.081.086.21.12.295.305-.024.689-.386.703-.709-.451-.01-.708-.072-.989.161z"/></svg>