<svg xmlns="http://www.w3.org/2000/svg" width="272.687" height="337.292"><path fill="none" d="M272.644 139.755s-1.436-19.096-2.453-35.293c0 0 1.727-29.647-15.627-56.117 0 0-5.49-6.648-16.627-16.628v.007C227.433 25.651 212.9 21.582 212.9 21.582 198.153 18.59 180.585 8.41 180.585 8.41c-1.451-1.157-7.42-2.221-7.42-2.221h-25.529V0h-20.34v6.188h-26.537c-3.471.2-7.035 1.064-7.035 1.064-16.781 10.613-44.547 17.94-44.547 17.94-6.371 2.128-13.498 5.599-13.498 5.599v-.031s-4.535 4.921-9.055 8.376c0 0-21.688 16.197-23.91 59.001l-.293 7.805-.586 6.371s-.184 7.914-.863 14.947c0 0-.293 14.068-.973 15.041 0 0 11.184 10.504 38.379 11.568 0 0 6.756.201 9.934-2.406 0 0-.215-1.928.078-7.035 0 0 .4-4.828.787-8.775 0 0-.865-13.684.678-23.91 0 0-.293-1.449 1.25-1.203 2.9 7.805 3.471 27.334 3.471 27.334 2.313 27.766 5.645 66.529 5.645 66.529 3.471 52.061-7.527 108.178-7.527 108.178a114.528 114.528 0 01-1.588 8.098c1.357 13.111 27.766 14.563 27.766 14.563 50.609 4.242 102.578.586 102.578.586 24.68-.479 32.1-5.492 32.1-5.492 7.143-3.084 8.299-8.576 8.299-8.576.586-1.543-.863-5.213-.863-5.213-5.521-32.131-7.914-56.596-7.914-56.596-2.406-26.223-.477-56.117-.477-56.117 2.313-17.646 4.533-51.676 4.533-51.676 1.451-13.496 2.314-29.602 2.314-29.602.863-7.912 2.992-12 2.992-12 .203-.311.406-.641.609-.986-.174.49-.342.988-.5 1.51 0 0 .262.803.631 3.596 0 0 .371 7.666.51 21.256 0 0 .586 7.234.803 15.117 0 0 .939 2.822 7.018 2.744 0 0 16.846 1.65 38.533-8.9-.002-.001 3.037-2.02 2.606-5.138z"/></svg>