<svg xmlns="http://www.w3.org/2000/svg" width="267.003" height="337.411"><path fill="none" d="M49.276 111.055c.05.725.067 1.834.064 3.238.004-1.406-.014-2.516-.064-3.238zM192.369 69.948v262.659a587.74 587.74 0 0018.534-2.695v-76.013c-2.838-38.193-.001-56.723-.001-56.723l.001-.006V81.846c-5.223-5.331-11.386-9.4-18.534-11.898zM54.623 179.982c.003.196.009.39.013.585-.003-.186-.009-.369-.011-.556l-.002-.029z"/><path fill="none" d="M263.58 93.688c-.617-17.57-6.016-31.993-12.726-42.513-9.039-14.16-19.961-21.41-19.961-21.41-11.137-6.51-17.061-7.08-28.352-9.98-8.79-2.258-20.019-8.272-24.562-10.827-.454-1.063-2.373-1.865-3.298-2.735-1.557-1.467-1.426-2.082-3.867-2.718-4.528-1.18-12.604-2.255-17.936-2.22-2.643.017-3.538-.417-6.185-.405-2.203.009-4.411.025-6.611.023-2.364-.002-3.589-.359-6.063-.401H132.86c-4.062.042-7.631.409-12.149.385-6.569-.035-18.068 1.026-24.2 2.544-2.664.66-2.349.991-3.987 2.603-1.004.986-3.233 1.959-3.553 3.109-12.867 7.9-39.002 15.271-39.002 15.271-11.568 3.332-13.883 5.646-13.883 5.646l.007.022c-6.675 4.612-12.717 11.563-12.717 11.563-19.234 18.214-20.53 60.588-20.53 60.588-.293 16.783-2.313 36.001-2.313 36.001 18.51 9.98 46.275 9.842 46.275 9.842 1.296-.432 1.157-3.039 1.157-3.039 0-7.234 1.157-12.586 1.157-12.586.03-9.873.447-18.666.154-21.396.05.723.067 1.832.064 3.238.003-1.404-.015-2.514-.064-3.238-.063-.785-.154-1.141-.293-.879l1.402-4.612a589.92 589.92 0 01-1.061-5.879l2.501-.704-2.501.704c-.26-1.48-.548-3.153-.846-4.932l3.347-1.265 4.187-1.579 18.534-7.003 4.193-1.583 18.538-7.003 4.19-1.583 18.534-7.003 4.19-1.583 18.534-6.999v-.004c.171-.065.342-.13.514-.191 1.236-.468 2.463-.92 3.677-1.355 6.479-2.343 12.668-4.325 18.537-5.896a152.85 152.85 0 014.191-1.066c6.618-1.591 12.81-2.612 18.534-2.995a71.895 71.895 0 014.19-.163c6.96-.081 13.159.903 18.534 3.097a33.39 33.39 0 014.194 2.055c3.504 2.034 6.577 4.705 9.199 8.063a370.987 370.987 0 00-1.104 6.226c-1.995 10.169-3.426 18.603-4.421 25.003-1.16-1.839-2.373-3.617-3.674-5.283 1.302 1.667 2.514 3.444 3.674 5.284-1.366 8.791-1.905 13.725-1.936 14.009 1.896 4.737 1.487 25.496 1.487 25.496-.139 1.883.293 4.629.293 4.629.864 6.369.586 10.998.586 10.998 10.258 4.904 47.279-8.547 47.279-8.547-.863-13.883-2.899-44.824-2.899-44.824z"/><path fill="none" d="M101.468 85.007v250.281a587.03 587.03 0 0013.597.915c1.621.136 3.27.248 4.937.343V79.791l-18.534 5.216zM153.91 70.245l-6.993 1.969v264.417a443.806 443.806 0 0018.537-1.151V67.795c-3.686.509-7.535 1.323-11.544 2.45zM52.998 126.46c.101 4.231.027 7.271.027 7.271.094 5.261.199 10.007.308 14.277-.106-4.165-.207-8.78-.298-13.874 0 0 .079-3.232-.037-7.674zM56.013 97.8v97.504c.202 1.218.344 1.916.344 1.916 2.313 34.137.293 61.902.293 61.902-3.332 35.139-9.456 64.154-9.842 65.219l-.386 1.064c.049.041.107.08.159.121l.233-.644c.23-.636 2.505-11.235 5.012-27.15v-.001a640.573 640.573 0 004.187-31.659v63.147c5.163 1.299 11.701 2.397 18.534 3.313V92.584L56.013 97.8zM186.045 68.212c-5.039-1.034-10.502-1.354-16.4-.881 5.898-.473 11.361-.152 16.4.881z"/><path fill="#000202" d="M218.771 91.926c.995-6.4 2.426-14.834 4.421-25.003-.005.005.41-2.451 1.104-6.226-2.623-3.358-5.695-6.03-9.199-8.063a33.393 33.393 0 00-4.194-2.055c-5.375-2.193-11.574-3.178-18.534-3.097a70.175 70.175 0 00-4.19.163c-5.724.383-11.917 1.404-18.534 2.995-1.378.33-2.773.684-4.191 1.066-5.869 1.571-12.058 3.553-18.537 5.896-1.213.436-2.44.887-3.677 1.355-.171.061-.342.126-.514.191v.004l-18.534 6.999-4.19 1.583-18.534 7.003-4.19 1.583-18.538 7.003-4.193 1.583-18.534 7.003-4.187 1.579-3.347 1.265c.298 1.779.586 3.452.846 4.932l2.501-.704v12.444c.77 4.927 1.067 10.628 1.172 15.035.116 4.442.037 7.674.037 7.674.091 5.094.192 9.709.298 13.874.574 22.381 1.281 31.566 1.281 31.566.002.138.007.271.01.408l.002.029c.002.187.008.37.011.556.158 6.495.92 11.98 1.376 14.737V97.8l18.534-5.216v239.949c1.389.186 2.789.364 4.193.535V91.404l18.538-5.216v248.761c1.456.123 2.855.235 4.19.34V85.007l18.534-5.216v256.755c1.383.078 2.781.144 4.19.195V78.611l18.534-5.216v263.382c1.396-.04 2.794-.089 4.19-.145V72.214l6.993-1.969c4.01-1.127 7.858-1.941 11.544-2.45V335.48a522.44 522.44 0 004.191-.362V67.332c5.898-.474 11.361-.153 16.4.881.72.147 1.431.31 2.134.486v264.436c1.438-.177 2.837-.354 4.19-.528V69.948c7.147 2.499 13.311 6.567 18.534 11.898V197.17c1.743-10.808 3.084-50.127 3.084-50.127.386-4.828.201-10.227.201-10.227-.6-10.197.098-18.215.909-23.573v-26.6c1.303 1.667 2.515 3.444 3.675 5.283zM51.826 297.732v30.283a59.01 59.01 0 004.187 1.205v-63.147a640.412 640.412 0 01-4.187 31.659z"/><path d="M214.759 329.262c.118-.036.225-.076.338-.113v-36.428c-2.033-14.66-3.359-27.593-4.194-38.822v76.013a293.22 293.22 0 003.856-.65z"/><path fill="#FFF" d="M49.325 99.685c.528 3.009.937 5.214 1.061 5.879l.042-.138.422 1.263c.39 1.429.71 3.036.976 4.735V98.98l-2.501.705zM46.814 324.884l-.233.644c1.137.891 2.941 1.72 5.245 2.488v-30.282c-2.507 15.914-4.782 26.514-5.012 27.15zM78.74 91.404v241.665c6.405.778 12.871 1.401 18.538 1.88V86.188L78.74 91.404zM124.193 78.611v258.13c6.026.224 12.269.214 18.534.035V73.395l-18.534 5.216zM186.045 68.212c-5.039-1.034-10.502-1.354-16.4-.881v267.787a586.065 586.065 0 0018.534-1.983V68.699a49.144 49.144 0 00-2.134-.487zM220.358 325.406a778.676 778.676 0 01-5.261-32.686v36.428c4.156-1.377 5.261-3.742 5.261-3.742zM215.097 86.643v26.6c.711-4.702 1.51-7.357 1.596-7.635.049.096.096.211.142.328.031-.284.57-5.218 1.936-14.009-1.16-1.84-2.372-3.617-3.674-5.284z"/></svg>