<svg xmlns="http://www.w3.org/2000/svg" width="80" height="80"><g fill-rule="evenodd" clip-rule="evenodd"><path fill="#C92228" d="M27.225 29.79l-1.674.641v-.002z"/><path fill="#FFF" d="M16.475 37.014V80H9.072V39.126z"/><path fill="#67686A" d="M7.4 39.604V80H0V41.715zM25.551 34.425V80h-7.403V36.537z"/><path fill="#2A2C68" d="M34.625 26.955l-7.4 2.835v-.002z"/><path fill="#FFF" d="M34.625 31.835V80h-7.4V33.947z"/><path fill="#070708" d="M43.699 23.479v.002l-7.4 2.833z"/><path fill="#67686A" d="M43.699 29.247V80h-7.4V31.358z"/><path fill="#FFF" d="M52.775 26.98V80h-7.402V28.77l2.793-.797c1.6-.458 3.137-.787 4.609-.993z"/><path fill="#67686A" d="M61.85 27.346V80h-7.402V26.792c2.693-.219 5.157-.018 7.402.554z"/><path fill="#FFF" d="M70.924 32.667V80h-7.4V27.851c2.853 1.012 5.314 2.659 7.4 4.816z"/><path fill="#67686A" d="M80 62.047V80h-7.402V34.61C77.641 41.152 80 51.119 80 62.047z"/><path fill="#000100" d="M80 33.542v28.505c0-10.929-2.359-20.896-7.402-27.438V80h-1.674V32.667c-2.086-2.158-4.547-3.805-7.4-4.816V80H61.85V27.346c-2.244-.572-4.709-.772-7.402-.554V80h-1.672V26.98c-1.473.206-3.01.535-4.609.992l-2.793.797V80H43.7V29.247l-7.4 2.111V80h-1.674V31.835l-7.4 2.112V80h-1.674V34.425l-7.402 2.111V80h-1.674V37.014l-7.402 2.112V80H7.4V39.604L0 41.715v-1.5l7.4-2.835 1.672-.639 7.402-2.835 1.674-.641 7.402-2.835 1.674-.641 7.4-2.835 1.674-.641 7.4-2.833v-.002c.068-.026.137-.053.205-.077.494-.189.984-.372 1.469-.549 2.588-.948 5.059-1.75 7.402-2.387a59.897 59.897 0 011.672-.431c2.645-.644 5.117-1.058 7.402-1.212.57-.04 1.127-.061 1.674-.066 2.779-.033 5.254.366 7.4 1.253.582.241 1.141.517 1.674.832 2.773 1.63 4.871 4.271 6.229 8.089l.129.374.117.36.107.345c.072.244.145.487.211.739a29.79 29.79 0 01.428 1.826c.066.318.126.64.183.968z"/><path fill="#FFF" d="M80 0v33.542a32.611 32.611 0 00-.385-1.898 19.173 19.173 0 00-.225-.895c-.066-.252-.139-.496-.211-.739l-.107-.345-.117-.36-.129-.374c-1.342-3.808-3.424-6.5-6.229-8.173a12.91 12.91 0 00-1.674-.843c-2.129-.895-4.598-1.312-7.4-1.282-.547.003-1.104.026-1.674.066-2.271.153-4.74.57-7.402 1.234-.549.137-1.107.285-1.672.443-2.33.649-4.799 1.473-7.402 2.464-.08.029-.158.059-.238.09l-1.23.471c-.068.024-.137.051-.205.077l-7.4 2.835-1.674.641-7.4 2.833v.002l-1.674.639v.001l-7.402 2.835-1.674.641-7.402 2.835-1.674.64L0 40.215V0h80z"/><path fill="#2A2C68" d="M45.373 22.841v.013a94.48 94.48 0 00-1.469.549l1.23-.471c.081-.032.159-.062.239-.091zM54.447 19.934v.102c-.549.133-1.107.277-1.672.431v-.09a54.99 54.99 0 011.672-.443zM72.598 20.759v.084a13.242 13.242 0 00-1.674-.832v-.095c.584.243 1.142.524 1.674.843zM63.523 18.634v.124c-.547.005-1.104.026-1.674.066V18.7a26 26 0 011.674-.066zM52.775 20.376v.09c-2.344.636-4.814 1.438-7.402 2.387v-.013c2.604-.991 5.072-1.815 7.402-2.464z"/><path fill="#2A2C68" d="M61.85 18.7v.124c-2.285.155-4.758.568-7.402 1.212v-.102c2.661-.664 5.13-1.081 7.402-1.234zM70.924 19.916v.095c-2.146-.888-4.621-1.286-7.4-1.253v-.124c2.802-.03 5.271.387 7.4 1.282zM78.826 28.932c-1.357-3.818-3.455-6.458-6.229-8.089v-.084c2.805 1.673 4.887 4.365 6.229 8.173zM79.615 31.645zM79.818 32.575z"/></g></svg>