<svg xmlns="http://www.w3.org/2000/svg" viewBox="-492.758 344.379 267.003 337.412"><path fill="none" d="M-443.481 455.434c.05.725.067 1.834.064 3.238.003-1.406-.014-2.516-.064-3.238zM-436.936 611.597c.051-.47.103-.932.153-1.405-.05.471-.102.937-.153 1.405z"/><path fill="none" d="M-226.277 482.891c-.864-13.883-2.9-44.824-2.9-44.824-.617-17.57-6.016-31.993-12.726-42.513-9.039-14.16-19.961-21.41-19.961-21.41-11.137-6.51-17.06-7.08-28.352-9.981-8.79-2.258-20.019-8.272-24.562-10.827-.454-1.063-2.373-1.865-3.297-2.735-1.557-1.467-1.426-2.082-3.867-2.718-4.528-1.18-12.605-2.255-17.936-2.22-2.642.017-3.538-.417-6.185-.405-2.203.009-4.411.025-6.611.023-2.364-.002-3.588-.359-6.063-.401H-359.896c-4.062.042-7.631.409-12.149.385-6.569-.035-18.069 1.026-24.201 2.544-2.664.66-2.349.991-3.987 2.603-1.003.986-3.233 1.959-3.553 3.109-12.867 7.9-39.001 15.271-39.001 15.271-11.568 3.332-13.883 5.646-13.883 5.646l.006.022c-6.675 4.612-12.716 11.562-12.716 11.562-19.235 18.217-20.531 60.591-20.531 60.591-.293 16.783-2.313 36.002-2.313 36.002 18.51 9.981 46.275 9.842 46.275 9.842 1.296-.432 1.157-3.039 1.157-3.039 0-7.234 1.157-12.586 1.157-12.586.03-9.873.447-18.666.154-21.396.05.723.067 1.832.064 3.238.003-1.404-.015-2.514-.064-3.238-.063-.785-.154-1.141-.293-.879l1.444-4.75.21.628v-81.576c.515-.15 1.3-.381 2.29-.68v100.346c.2 5.395.097 9.586.097 9.586.586 32.826 1.589 45.844 1.589 45.844.051 3.654.305 7.025.604 9.823V367.475c.71-.221 1.474-.462 2.29-.722v307.208c.741.173 1.504.342 2.29.507V366.012c.736-.241 1.505-.498 2.29-.763v309.679c.748.144 1.513.285 2.29.423V364.468c.749-.26 1.516-.53 2.29-.806v312.082c.754.125 1.518.246 2.29.366V362.832a246.07 246.07 0 002.29-.855v314.475c.758.11 1.521.218 2.29.324V361.089c.766-.302 1.529-.608 2.29-.92v316.912c.761.099 1.524.196 2.29.29V359.21c.774-.332 1.536-.669 2.29-1.009v319.446c.764.09 1.528.178 2.29.263V357.14a88.888 88.888 0 002.29-1.14v322.16c.767.082 1.531.162 2.29.24V354.771a49.852 49.852 0 002.29-1.374v325.229c.77.075 1.534.148 2.29.219V360.813a19.069 19.069 0 002.29 4.238v314.003c.776.069 1.538.136 2.29.201V367.793c.68.698 1.443 1.395 2.29 2.088v309.567c.781.064 1.547.126 2.29.184V371.589c.711.484 1.48.961 2.29 1.433v306.786c.793.06 1.558.116 2.29.168V374.265c.73.369 1.487.734 2.29 1.091v304.781c.824.056 1.589.107 2.29.152V376.316c.157.063.932.363 2.29.759v303.357c1.108.067 1.888.111 2.29.133V377.681c.687.164 1.456.332 2.29.497v302.558c.758.055 1.522.104 2.29.15V378.589c.722.117 1.486.228 2.29.332v302.09c.759.037 1.523.07 2.29.099V379.183c.736.073 1.498.14 2.29.196v301.807c.76.022 1.524.04 2.29.054V379.512c.742.034 1.505.059 2.29.075v301.688c.761.008 1.524.013 2.29.015V379.607c.745-.003 1.512-.018 2.29-.039v301.717c.762-.004 1.525-.012 2.29-.022V379.478c.75-.037 1.512-.083 2.29-.139v301.885c36.572-.745 74.819-7.583 74.819-7.583 4.442-1.357 5.6-3.855 5.6-3.855-15.811-86.768-9.456-128.231-9.456-128.231 1.743-10.799 3.085-50.133 3.085-50.133.386-4.828.201-10.227.201-10.227-1.127-19.146 2.321-30.613 2.505-31.209 2.06 4.027 1.629 25.824 1.629 25.824-.139 1.883.293 4.629.293 4.629.864 6.369.586 10.998.586 10.998 10.25 4.905 47.271-8.546 47.271-8.546zm-227.292-97.944a412.862 412.862 0 01-2.29-7.295v-3.565c.488-.304 1.231-.716 2.29-1.211v12.071zm4.579 16.712c-.582-3.184-1.331-6.509-2.29-9.735v-20.036c.676-.27 1.447-.559 2.29-.86v30.631zm4.58 36.985c-.858-5.149-1.776-11.101-2.29-15.779v-52.62a112.11 112.11 0 012.29-.715v69.114z"/><path fill="none" d="M-437.334 615.144c-3.419 29.692-8.274 52.633-8.616 53.577l-.386 1.065c.03.025.067.05.099.075l.235-.649c.112-.31.715-3.012 1.592-7.535v9.315c.671.337 1.437.665 2.29.983v-22.987a651.256 651.256 0 002.29-14.587v38.346c.724.221 1.489.437 2.29.648v-56.406c.071-.606.136-1.234.206-1.845z"/><path d="M-355.108 379.478v301.785c.762-.01 1.526-.023 2.29-.039V379.339c-.778.056-1.54.102-2.29.139zM-359.687 379.607v301.682c.762.002 1.525.001 2.29-.004V379.568c-.779.021-1.546.036-2.29.039zM-364.267 379.512v301.729c.761.015 1.524.026 2.29.034V379.586a90.281 90.281 0 01-2.29-.074zM-368.846 379.183V681.11c.76.029 1.523.055 2.29.076V379.38a84.88 84.88 0 01-2.29-.197zM-373.426 378.589v302.298c.759.046 1.522.087 2.29.124v-302.09a72.418 72.418 0 01-2.29-.332zM-378.006 377.681v302.884l.314.017c.655.055 1.313.106 1.976.154V378.178a60.485 60.485 0 01-2.29-.497zM-382.585 376.316v303.972c.865.056 1.635.104 2.29.144V377.076c-1.359-.397-2.134-.697-2.29-.76zM-387.165 374.265v305.712c.806.058 1.568.111 2.29.16V375.356a50.779 50.779 0 01-2.29-1.091zM-391.744 371.589v308.043c.787.062 1.55.12 2.29.176V373.022a38.151 38.151 0 01-2.29-1.433zM-396.324 367.793v311.462c.778.067 1.542.131 2.29.192V369.88a27.366 27.366 0 01-2.29-2.087zM-400.904 360.813v318.032c.773.072 1.536.142 2.29.209V365.052a19.096 19.096 0 01-2.29-4.239zM-405.483 354.771v323.627c.769.078 1.532.154 2.29.228V353.397c-.722.46-1.483.918-2.29 1.374zM-410.063 357.138v320.77c.766.086 1.529.168 2.29.25v-322.16c-.744.383-1.504.764-2.29 1.14zM-414.642 359.21v318.161c.763.094 1.526.185 2.29.275V358.2c-.754.34-1.517.678-2.29 1.01zM-419.222 361.089v315.686c.759.104 1.523.206 2.29.305V360.169c-.761.312-1.525.618-2.29.92zM-423.802 362.832v313.276c.756.117 1.52.231 2.29.343V361.977c-.767.292-1.531.576-2.29.855zM-428.381 364.468v310.883c.752.134 1.515.265 2.29.393V363.662c-.774.276-1.541.546-2.29.806zM-432.961 366.012v308.457c.744.157 1.51.309 2.29.459V365.249c-.785.265-1.554.522-2.29.763zM-437.54 367.475v166.301c.505 4.736 1.139 7.824 1.139 7.824 2.314 34.137.293 61.902.293 61.902-.214 2.258-.44 4.489-.675 6.69-.05.473-.102.935-.153 1.405-.13 1.192-.263 2.375-.397 3.547-.07.611-.136 1.239-.207 1.844v56.406c.734.193 1.498.382 2.29.566V366.753c-.816.26-1.58.501-2.29.722zM-442.12 368.857v81.576l.212.635c1.331 4.877 1.869 11.823 2.078 17.455V368.177c-.99.299-1.775.53-2.29.68zM-442.12 648.988v22.987c.708.264 1.47.522 2.29.772v-38.346a651.256 651.256 0 01-2.29 14.587zM-446.002 669.212l-.235.649c.485.389 1.101.766 1.827 1.132v-9.315c-.877 4.522-1.479 7.223-1.592 7.534zM-446.7 422.865c.514 4.677 1.432 10.629 2.29 15.779V369.53c-.808.244-1.581.483-2.29.715v52.62zM-451.279 391.924c.959 3.226 1.708 6.551 2.29 9.735v-30.631c-.842.301-1.613.589-2.29.86v20.036zM-455.859 377.651c.77 2.544 1.577 5.09 2.29 7.295v-12.072c-1.059.496-1.802.907-2.29 1.211v3.566z"/></svg>