<svg xmlns="http://www.w3.org/2000/svg" width="265.948" height="336.412"><path fill="none" d="M48.744 110.555c.05.725.067 1.834.064 3.238.004-1.406-.014-2.515-.064-3.238z"/><path fill="none" d="M177.448 8.458c-.454-1.063-2.373-1.865-3.297-2.735-1.557-1.467-1.426-2.082-3.867-2.718-4.528-1.18-12.605-2.255-17.936-2.22-2.642.017-3.538-.417-6.185-.405-2.203.009-4.411.025-6.611.023-2.364-.002-3.588-.359-6.063-.401H132.33c-4.062.042-7.631.409-12.149.385-6.569-.035-18.069 1.026-24.201 2.544-2.664.66-2.349.991-3.987 2.603-1.003.986-3.233 1.959-3.553 3.109-12.867 7.9-39.001 15.271-39.001 15.271-11.568 3.332-13.883 5.646-13.883 5.646l.006.022c-6.675 4.612-12.716 11.563-12.716 11.563C3.609 59.359 2.313 101.733 2.313 101.733 2.021 118.516 0 137.735 0 137.735c18.51 9.98 46.275 9.842 46.275 9.842 1.296-.432 1.157-3.039 1.157-3.039 0-7.234 1.157-12.586 1.157-12.586.03-9.873.447-18.666.154-21.396.05.723.067 1.832.064 3.238.003-1.404-.015-2.514-.064-3.238-.063-.785-.154-1.141-.293-.879l1.444-4.75.422 1.264c2.606 9.549 2.175 27.041 2.175 27.041.586 32.826 1.589 45.844 1.589 45.844.139 9.842 1.743 17.646 1.743 17.646 2.313 34.137.293 61.902.293 61.902-2.422 25.546-6.318 47.844-8.415 58.529l138.46-304.12a176.588 176.588 0 01-8.713-4.575zM69.458 331.388c-.292-.043-.584-.088-.875-.132.29.045.583.089.875.132zM79.661 332.743zM67.445 331.078zM64.812 330.643l-.523-.091.523.091zM82.332 333.05c-.642-.072-1.285-.146-1.928-.22.643.074 1.286.148 1.928.22zM87.538 333.6zM72.107 331.772zM85.132 333.353zM74.791 332.138zM77.084 332.431l-1.358-.172 1.358.172zM60.564 329.856l-.15-.03.15.03zM265.948 138.012c-.864-13.883-2.9-44.824-2.9-44.824-.617-17.57-6.016-31.993-12.726-42.513-9.039-14.16-19.961-21.41-19.961-21.41a85.237 85.237 0 00-3.896-2.149L87.984 333.645a631.779 631.779 0 0026.549 2.06c41.463 3.471 99.693-6.941 99.693-6.941 4.442-1.357 5.6-3.855 5.6-3.855-15.811-86.768-9.456-128.23-9.456-128.23 1.743-10.799 3.085-50.133 3.085-50.133.386-4.828.201-10.227.201-10.227-1.126-19.146 2.321-30.613 2.505-31.209 2.06 4.027 1.629 25.824 1.629 25.824-.139 1.883.293 4.629.293 4.629.864 6.369.586 10.998.586 10.998 10.258 4.902 47.279-8.549 47.279-8.549zM58.062 329.331l-.071-.016.071.016zM82.534 333.071h.001L196.177 81.522z"/><path fill="#FFF" d="M221.751 24.914l-25.574 56.608L82.535 333.071l.311.034c.765.085 1.527.167 2.286.247l.42.044c.666.069 1.327.137 1.986.203.148.016.298.03.446.045L226.465 27.116a63.79 63.79 0 00-4.714-2.202zM186.161 13.033L47.703 317.153c-.787 4.013-1.322 6.398-1.427 6.689l-.386 1.064c.744.62 1.815 1.209 3.15 1.771L189.932 14.81a139.201 139.201 0 01-3.771-1.777z"/><path fill="#000100" d="M221.751 24.914c-6.399-2.675-11.718-3.569-19.741-5.63-3.816-.98-8.09-2.668-12.078-4.474L49.04 326.678c2.293.964 5.371 1.842 8.951 2.638l.071.016a116.964 116.964 0 002.503.525 155.1 155.1 0 003.724.695l.523.091a201.639 201.639 0 002.633.435c.377.06.757.119 1.138.178.291.044.583.089.875.132a234.791 234.791 0 002.649.385 301.658 301.658 0 002.683.366 264.527 264.527 0 002.293.293l1.004.124c.524.063 1.048.127 1.573.188l.742.087 1.928.22.202.021 113.645-251.55 25.574-56.608z"/></svg>