<svg xmlns="http://www.w3.org/2000/svg" width="272.687" height="337.292"><path fill="none" d="M231.574 153.788c-6.083.078-7.023-2.746-7.023-2.746a322.608 322.608 0 00-.804-15.128c-.139-13.6-.51-21.271-.51-21.271-.37-2.794-.633-3.597-.633-3.597 1.623-5.326 4.077-8.737 6.331-14.851 3.055-8.273 4.615-15.698 6.667-21.147 3.602-16.153 2.517-41.116 2.415-43.258l-.08-.073v.007C227.434 25.651 212.9 21.583 212.9 21.583 198.154 18.59 180.586 8.41 180.586 8.41c-1.451-1.157-7.42-2.221-7.42-2.221h-25.529V0h-20.34v6.188H100.76c-3.471.2-7.035 1.064-7.035 1.064-16.781 10.613-44.547 17.94-44.547 17.94-6.371 2.128-13.498 5.599-13.498 5.599v-.031l-.268.286c-6.136 12.302 4.732 55.191 4.732 55.191 4.245 13.121 10.898 24.267 10.898 24.267-1.544-.245-1.25 1.204-1.25 1.204-1.544 10.234-.68 23.927-.68 23.927-.386 3.953-.787 8.783-.787 8.783-.293 5.109-.077 7.039-.077 7.039-3.164 2.595-9.864 2.411-9.935 2.409l.064.003s6.756.201 9.934-2.406c0 0-.215-1.928.078-7.035 0 0 .4-4.828.787-8.775 0 0-.865-13.684.678-23.91 0 0-.293-1.449 1.25-1.203 2.9 7.805 3.471 27.334 3.471 27.334 2.313 27.766 5.645 66.529 5.645 66.529 3.471 52.061-7.527 108.178-7.527 108.178-.693 4.397-1.588 8.098-1.588 8.098 1.357 13.111 27.766 14.563 27.766 14.563 50.609 4.242 102.578.586 102.578.586 24.68-.479 32.1-5.492 32.1-5.492 7.143-3.084 8.299-8.576 8.299-8.576.586-1.543-.863-5.213-.863-5.213-5.521-32.131-7.914-56.596-7.914-56.596-2.406-26.223-.477-56.117-.477-56.117 2.313-17.646 4.533-51.676 4.533-51.676 1.451-13.496 2.314-29.602 2.314-29.602.863-7.912 2.992-12 2.992-12 .203-.311.406-.641.609-.986-.174.49-.342.988-.5 1.51 0 0 .262.803.631 3.596 0 0 .371 7.666.51 21.256 0 0 .586 7.234.803 15.117 0 0 .939 2.822 7.018 2.744 0 0 2.012.196 5.538.02-3.483.169-5.468-.025-5.468-.025z"/><path fill="#000202" d="M48.249 151.458s-.216-1.93.077-7.039c0 0 .401-4.83.787-8.783 0 0-.864-13.692.68-23.927 0 0-.294-1.449 1.25-1.204 0 0-6.653-11.146-10.898-24.267 0 0-10.868-42.889-4.732-55.191-1.023 1.085-4.906 5.123-8.787 8.09 0 0-21.688 16.197-23.91 59.001l-.293 7.805-.586 6.371s-.184 7.914-.863 14.947c0 0-.293 14.068-.973 15.041 0 0 11.167 10.486 38.314 11.565.07.002 6.77.186 9.934-2.409zM235.603 75.048c-2.052 5.449-3.612 12.874-6.667 21.147-2.254 6.113-4.708 9.524-6.331 14.851 0 0 .263.803.633 3.597 0 0 .371 7.672.51 21.271 0 0 .586 7.239.804 15.128 0 0 .94 2.824 7.023 2.746 0 0 1.984.194 5.468.024 6.68-.336 18.8-2.014 32.995-8.92 0 0 3.039-2.02 2.607-5.137 0 0-1.436-19.096-2.453-35.293 0 0 1.727-29.647-15.627-56.117 0 0-5.466-6.617-16.547-16.556.101 2.143 1.186 27.106-2.415 43.259z"/></svg>