<svg xmlns="http://www.w3.org/2000/svg" width="265.948" height="336.412"><path fill="none" d="M139.446 126.403l-.129.121 17.624-1.231.165-.124zM133.373 183.782l-.1.117 13.813.188 19.155-27.548-.025.012-19.064 27.419zM128.471 176.303l-.115.12 11.789-.651.102-.12zM150.769 130.004l-.141.105 9.354 1.558.124-.108zM153.649 137.283l-.122.107 8.759 1.648 25.033-26.539-.091.05-24.875 26.372zM156.797 184.102l-4.889-.067-.153.116 4.966.069zM139.715 293.693l-4.867 12.115 1.311-.702 33.021-50.874-.025.023-32.93 50.734-1.311.701 4.867-12.115-23.302 12.914 4.768-8.734-.004.003-4.83 8.849zM154.927 130.076l.031-.016 4.926-6.826 12.02-16.655-.031.017-11.923 16.521zM149.413 195.655l-.073.114 3.634 2.277 30.184-37.716-.072.055-30.047 37.544zM136.531 269.749l-25.968 1.046-.147.12 26.05-1.049-15.09 27.649.008-.011zM134.87 267.851l.02-.015 20.084-30.74-.016.008zM121.325 297.612l29.873-41.285-.04.029-29.774 41.148z"/><path fill="none" d="M121.173 297.822l.07-.064.063-.115-.011.01zM136.192 80.724l-.121.13 10.749-2.442 32.996-45.117-.024.006-32.906 44.994-10.694 2.429zM161.534 74.967l-6.447 1.465-.214.151 6.558-1.49zM160.821 100.358l-3.983 2.193-.067.118 3.984-2.194c9.05-10.892 18.343-22.04 19.194-22.923.076-.079.101-.128.104-.165-.015.017-.019.028-.037.047-.852.885-10.144 12.032-19.195 22.924z"/><path fill="none" d="M142.323 45.225l-.079.115 23.465 3.474.104-.111zM159.689 91.031l2.165-10.738-6.26 1.985-.107.13 6.301-1.997-2.165 10.737 3.797-.269-.283.502.349-.619z"/><path opacity=".7" fill="#000100" d="M156.721 184.22h.01l-7.318 11.435 3.626 2.274 30.047-37.544-31.178 23.65 4.889.067z"/><path fill="#000100" d="M139.534 33.417c2.157-.159 4.416-.388 6.784-.708 0 0 2.16-.303 5.304-1.105l.113-.166-12.201 1.979z"/><path opacity=".7" fill="#000100" d="M151.775 311.157l-18.362 20.694 4.668 3.987.672.574h.004l.243-.473h-.005zM140.247 175.652l-.102.12.036-.001-6.808 8.011 13.779.188 19.064-27.419-34.155 16.001-3.59 3.751zM157.106 125.169l-.165.124.099-.007-6.271 4.718 9.337 1.555-.124.108.058.01-6.391 5.606 8.704 1.638 24.875-26.372-32.368 17.645.098-.134-.031.016 5.023-6.959 11.923-16.521-26.054 13.784-6.373 6.023z"/><path fill="#000100" d="M121.376 297.515l-.059.107.008-.01.059-.108zM121.306 297.643l.011-.021-.022.031z"/><path opacity=".7" fill="#000100" d="M154.958 237.104l-7.757 3.754-36.638 29.937 25.968-1.046-15.147 27.755 29.774-41.148-16.355 11.614.087-.134-.02.015zM161.431 75.093l.038-.008-5.875 7.193 6.261-1.985-2.165 10.738 3.797-.27-.349.619-6.299 11.171 3.983-2.193c9.051-10.892 18.343-22.04 19.195-22.923.019-.02.022-.03.037-.047.05-.782-15.937 7.653-15.937 7.653l13.288-24.396-22.318 15.788 6.447-1.465-.103.125zM142.323 45.225l23.489 3.478-.104.112.038.006-29.555 31.903 10.695-2.429 32.906-44.994c-.515.131-25.61 6.514-27.008 7.093-.774.32 2.338-4.793 5.583-9.63l.339-.523c.281-.417.563-.833.843-1.24l-.028.011c.144-.208.228-.321.228-.302.001.208-8.126 2.895-8.126 2.895l-.083.122a.105.105 0 00.017-.004l-9.234 13.502zM139.781 293.575l-4.867 12.115 1.311-.701 32.93-50.734-47.908 43.5-4.768 8.734z"/><path opacity=".5" fill="#070708" d="M151.83 311.051l4.462-8.653-34.021 24.106 13.889-21.397-1.312.701 4.867-12.114-23.302 12.914 4.83-8.85-.07.064.122-.169-.056.051.137-.189 15.09-27.648-26.05 1.049.147-.12-.082.003 36.785-30.057 7.773-3.764-.082.126.016-.008 10.6-16.223-29.745 20.292 20.961-29.517-30.283 19.468 26.468-33.07-3.634-2.277.073-.113-.006-.004 7.315-11.432-4.966-.068-9.972 7.563 5.303-7.628-13.813-.188.099-.117h-.033l6.805-8.01-11.789.65.115-.12-.048.003 3.552-3.714-2.394 1.12 32.705-34.674-8.759-1.648.122-.106-.055-.011 6.389-5.605-9.354-1.558.141-.105-.074-.013 6.247-4.698-17.624 1.231.129-.121-.063.004 6.302-5.956-2.673 1.414s8.753-10.568 17.744-21.389l-3.984 2.194.067-.118h-.001l6.3-11.171.283-.501-3.797.269 2.165-10.738-6.301 1.998.106-.13-.04.013 5.877-7.198-6.558 1.49-13.911 9.84 5.858-8.011-10.749 2.442.121-.13-.055.013 29.572-31.922-23.465-3.474.079-.116-.014-.002 9.229-13.498c-3.134.799-5.287 1.102-5.287 1.102-2.367.321-4.626.55-6.784.708l-18.652 27.25 20.599-6.417-8.769 15.769 16.366-8.088-17.384 23.343 4.082 1.061-16.354 21.275 10.108 2.746-16.476 24.906 10.071 9.882-2.34 27.785-1.108 16.699 7.758 7.68-12.137 18.654-9.046 24.381 16.683-3.266-21.239 36.326 20.23-1.484-22.751 35.305 14.85-3.156-11.826 30.289c7.303.555 12.288.814 12.288.814 7.467.625 15.477.799 23.593.666l-4.69-4.006.088-.1-.022-.019 18.439-20.78z"/><path fill="#000100" d="M156.721 184.22l-7.315 11.431.007.004 7.318-11.435z"/><path opacity=".5" fill="#070708" d="M156.721 184.22l-7.315 11.431.007.004 7.318-11.435z"/><path fill="#000100" d="M128.471 176.303l3.59-3.751-.086.04-3.552 3.714z"/><path opacity=".5" fill="#070708" d="M128.471 176.303l3.59-3.751-.086.04-3.552 3.714z"/><path fill="#000100" d="M140.145 175.772l-6.805 8.01h.033l6.808-8.011z"/><path opacity=".5" fill="#070708" d="M140.145 175.772l-6.805 8.01h.033l6.808-8.011z"/><path fill="#000100" d="M159.982 131.667l-6.388 5.605.055.011 6.391-5.606z"/><path opacity=".5" fill="#070708" d="M159.982 131.667l-6.388 5.605.055.011 6.391-5.606z"/><path fill="#000100" d="M139.446 126.403l6.373-6.023-.134.071-6.302 5.956z"/><path opacity=".5" fill="#070708" d="M139.446 126.403l6.373-6.023-.134.071-6.302 5.956z"/><path fill="#000100" d="M156.941 125.293l-6.247 4.698.075.013 6.271-4.718z"/><path opacity=".5" fill="#070708" d="M156.941 125.293l-6.247 4.698.075.013 6.271-4.718z"/><path fill="#000100" d="M121.239 297.704l.056-.051.022-.031.059-.107z"/><path opacity=".5" fill="#070708" d="M121.239 297.704l.056-.051.022-.031.059-.107z"/><path fill="#000100" d="M161.431 75.093l-5.877 7.198.04-.013 5.875-7.194z"/><path opacity=".5" fill="#070708" d="M161.431 75.093l-5.877 7.198.04-.013 5.875-7.194z"/><path fill="#000100" d="M156.837 102.552h.001l6.299-11.171z"/><path opacity=".5" fill="#070708" d="M156.837 102.552h.001l6.299-11.171z"/><path fill="#000100" d="M142.323 45.225l9.232-13.504a.105.105 0 00-.017.004l-9.229 13.498.014.002z"/><path opacity=".5" fill="#070708" d="M142.323 45.225l9.232-13.504a.105.105 0 00-.017.004l-9.229 13.498.014.002z"/><path fill="#000100" d="M165.709 48.814l-29.572 31.922.055-.012 29.555-31.904z"/><path opacity=".5" fill="#070708" d="M165.709 48.814l-29.572 31.922.055-.012 29.555-31.904z"/><path fill="#000100" d="M154.958 237.104l.082-.126-7.773 3.763-36.786 30.057.082-.003 36.638-29.937z"/><path opacity=".5" fill="#070708" d="M154.958 237.104l.082-.126-7.773 3.763-36.786 30.057.082-.003 36.638-29.937z"/><path fill="#000100" d="M151.83 311.051l-18.439 20.781.022.019 18.362-20.694z"/><path opacity=".5" fill="#070708" d="M151.83 311.051l-18.439 20.781.022.019 18.362-20.694z"/><path fill="#070708" d="M265.948 137.455c-.865-13.894-2.902-44.86-2.902-44.86-.617-17.581-6.021-32.014-12.735-42.542-9.046-14.171-19.975-21.426-19.975-21.426-.076.266-.153.541-.229.814.076-.272.152-.548.229-.813-11.145-6.514-17.072-7.085-28.372-9.988-11.3-2.902-26.628-12.009-26.628-12.009 2.357 12.109-7.104 18.878-15.853 22.487a180 180 0 00-1.116 1.646c-3.245 4.837-6.357 9.951-5.583 9.63 1.398-.579 26.493-6.961 27.008-7.093l.024-.006-32.996 45.117-5.858 8.011 13.911-9.84.214-.151 22.318-15.788-13.288 24.396s15.987-8.435 15.937-7.653c-.002.037-.027.086-.104.165-.852.884-10.145 12.031-19.194 22.923-8.991 10.821-17.744 21.389-17.744 21.389l2.673-1.414.134-.071 26.053-13.785.032-.017-12.021 16.655-4.926 6.825-.098.135 32.367-17.646.092-.05-25.033 26.54-32.705 34.674 2.394-1.12.086-.04 34.156-16.001.025-.012-19.155 27.548-5.303 7.628 9.972-7.563.153-.116 31.179-23.65.072-.055-30.185 37.716-26.468 33.07 30.283-19.468-20.961 29.517 29.745-20.292-10.6 16.223-20.083 30.74-.087.134 16.355-11.613.041-.029-29.874 41.285-.007.01-.011.021-.063.115.004-.003 47.908-43.5.025-.022-33.021 50.874-13.889 21.397 34.021-24.106-4.462 8.653-.055.106-12.78 24.782H139c36.693-.713 75.188-7.596 75.188-7.596 4.446-1.358 5.604-3.858 5.604-3.858-15.822-86.832-9.463-128.325-9.463-128.325 1.745-10.806 3.088-50.169 3.088-50.169.386-4.831.2-10.234.2-10.234-1.127-19.159 2.323-30.634 2.508-31.23 2.062 4.028 1.63 25.843 1.63 25.843-.139 1.883.294 4.631.294 4.631.864 6.375.586 11.006.586 11.006 10.265 4.908 47.313-8.552 47.313-8.552z"/></svg>