<svg xmlns="http://www.w3.org/2000/svg" width="80" height="80"><g fill-rule="evenodd" clip-rule="evenodd"><path fill="#8D8F92" d="M49.457 1.006l-15.19 13.379 8.113-1.524-3.453 3.744 6.447-1.92-6.848 5.543 1.608.252-6.442 5.052 3.982.652-6.49 5.915 3.967 2.346-.922 6.599-.437 3.965 3.057 1.824-4.781 4.43-3.563 5.79 6.571-.776-8.366 8.627 7.969-.353-8.962 8.385 5.849-.75L26.506 80l14.9-.134L80 79.867V0H49.457z"/><path fill="#5B5B5F" d="M49.457 1.006l-7.203 4.708 6.232-.091-5.778 5.094 9.257.826-11.689 7.608L50.28 17.78l-2.356 1.74 2.482-.475-.853 2.55 1.496-.064-2.619 2.8 7.348-2.439-14.223 8.104 6.981-.294-2.526 1.145 3.708.373-2.566 1.356 4.061.461-13.976 8.808 4.658-.154-2.721 1.93 9.24.076-2.911 2.742 9.705 3.667-3.198 4.896-7.35 2.145-14.49 7.138 10.262-.249-7.899 8.725 9.178-3.067-1.917 2.877 16.246-5.238-16.846 11.446 2.114 1.088H80V0H49.457z"/><path fill="#070708" d="M49.457 1.006l-8.535 3.193s11.225.902 10.576 1.11c-.649.208-5.195 4.372-4.638 4.233.557-.139 10.648-1.686 10.648-1.686L42.203 20.473l14.355-6.122-5.234 5.793s6.906-2.196 6.237-1.778c-.67.419-14.551 10.524-14.551 10.524l11.381-3.63-4.735 3.955-1.979 1.652 12.786-4.202L37.72 41.202l14.44-4.078-9.634 8.353 16.298-7.453-22.316 16.81 11.929-4.624-8.257 7.01 11.717-4.819-12.121 11.184 6.458-2.764-11.827 9.854 18.91-10.352L34.84 77.486l13.401-5.725-6.934 8.106H80V0H49.457v1.006z"/></g></svg>