<svg xmlns="http://www.w3.org/2000/svg" width="272.687" height="337.292"><path fill="none" d="M87.619 161.439l-.521-.38 31.375 37.714 27.482 33.037.108.066-27.512-33.07 3.777-2.277-.017-.026-3.676 2.217zM119.671 184.829l-4.942.065.055.084 4.999-.066-.043-.032zM104.979 157.402l-.297-.134 19.91 27.547 5.475 7.576.117.085-5.514-7.628 14.357-.188-.074-.084-14.199.186zM132.016 176.539l12.123.644-.095-.096-12.112-.643zM111.361 132.411l9.627-1.542-.082-.059-9.617 1.541zM83.212 113.456l-.439-.229 26.02 26.54 33.989 34.669.083.037-33.994-34.674 9.106-1.65-.069-.057-8.955 1.621zM137.384 306.563l.009.005-5.057-12.104-.006-.003zM137.337 268.681l-17.019-11.626.074.097 17.004 11.617zM136.268 241.855l.105.07-21.764-29.486-.101-.062zM114.546 126.062l18.2 1.223-.108-.098-18.232-1.226zM101.748 255.066l-.121-.105 34.324 50.874 14.409 21.358.105.072-14.426-21.383-.014-.007zM116.395 237.824l.054.08 8.061 3.753 38.181 30.015.096.004-38.234-30.058-8.08-3.762-10.994-16.189-.102-.066zM151.355 298.321l.022.029.049.085.103.09 5.015 8.837.011.006-5.022-8.85.074.064-.152-.2-15.721-27.713-.066-.003zM111.451 123.909l-12.328-16.434-.328-.167 12.496 16.655 5.051 6.732.33.173zM109.495 81.204l6.444 1.965-.127-.151-6.341-1.933zM116.306 77.18l-6.503-1.421.108.127 6.619 1.447-.03-.021zM90.819 34.084l-.249-.061 34.299 45.117 6.057 7.967.111.076-6.09-8.012 11.174 2.442-.127-.131-10.965-2.397-34.21-45.001z"/><path fill="none" d="M272.645 139.756s-1.436-19.096-2.453-35.293c0 0 1.727-29.647-15.627-56.117 0 0-5.49-6.648-16.627-16.628v.007C227.434 25.651 212.9 21.583 212.9 21.583 198.154 18.59 180.586 8.41 180.586 8.41c-1.451-1.157-7.42-2.221-7.42-2.221h-25.529V0h-20.34v6.188H100.76c-3.471.2-7.035 1.064-7.035 1.064-16.781 10.613-44.547 17.94-44.547 17.94-6.371 2.128-13.498 5.599-13.498 5.599v-.031s-4.535 4.921-9.055 8.376c0 0-21.688 16.197-23.91 59.001l-.293 7.805-.586 6.371s-.184 7.914-.863 14.948c0 0-.293 14.068-.973 15.041l.059.053c.638-1.664.914-14.931.914-14.931.68-7.04.865-14.959.865-14.959l.586-6.375.293-7.81C4.94 55.441 26.645 39.233 26.645 39.233c4.521-3.458 9.061-8.382 9.061-8.382-1.539 2.761-2.105 7.281-2.072 12.585-.031-5.29.537-9.799 2.072-12.555 0 0 7.131-3.474 13.508-5.604 0 0 27.785-7.332 44.58-17.951 0 0 3.566-.866 7.039-1.065H112.858l12.945 13.501c-.997.139-2.037.285-3.097.436l3.292 4.629-11.459-.269.063.089 11.313.265 26.063 36.63-21.412-6.417 9.115 15.769-17.012-8.088 18.068 23.343-4.242 1.062 16.998 21.274-10.506 2.746 17.125 24.906-10.469 9.881 2.432 27.786 1.152 16.699-8.064 7.679 12.615 18.655 9.404 24.381-17.342-3.266 22.078 36.326-21.029-1.485 23.648 35.308-15.436-3.156 12.751 31.419c6.08-.291 9.595-.538 9.595-.538 24.68-.479 32.1-5.492 32.1-5.492 7.143-3.084 8.299-8.576 8.299-8.576.586-1.543-.863-5.213-.863-5.213-5.521-32.131-7.914-56.596-7.914-56.596-2.406-26.223-.477-56.117-.477-56.117 2.313-17.646 4.533-51.676 4.533-51.676 1.451-13.496 2.314-29.602 2.314-29.602.863-7.913 2.992-12 2.992-12 .203-.311.406-.641.609-.986-.174.49-.342.988-.5 1.51 0 0 .262.803.631 3.596 0 0 .371 7.667.51 21.256 0 0 .586 7.234.803 15.117 0 0 .939 2.822 7.018 2.744 0 0 16.846 1.65 38.533-8.9.002.002 3.041-2.018 2.61-5.135zM125.986 19.874L113.043 6.373h.779l20.699 12.356s-3.765.484-8.535 1.145zM138.975 332.71l-.076-.083-5.57 4.577h-.004l-13.602-25.373.067.073-4.671-8.714-.096-.065 4.695 8.76 13.602 25.373-.26-.004-8.276.001c2.977.028 5.893.04 8.729.037l-.113-.002 5.575-4.58z"/><path fill="none" d="M105.42 49.561l24.283-3.46-.048-.068-24.298 3.462zM107.831 91.649l3.81.26-.02-.093-3.846-.262zM60.264 204.623s-3.334-38.792-5.648-66.578c0 0-.442-15.084-2.519-24.045 2.044 8.971 2.479 23.875 2.479 23.875 2.313 27.766 5.645 66.529 5.645 66.529 3.471 52.061-7.527 108.178-7.527 108.178a114.528 114.528 0 01-1.588 8.098c.01.091.032.176.044.266.09-.377.926-3.91 1.583-8.067-.001-.001 11.005-56.157 7.531-108.256zM106.592 23.241c-.172-.088-.024-.205.37-.345-.515.164-.725.3-.532.398 1.621.829 12.422 16.535 12.357 17.757l.045.015c1.469.586-10.527-16.948-12.24-17.825zM90.592 78.227c-.074-.074-.101-.122-.107-.158-.195-.028-.233.032-.053.212.887.885 10.545 12.032 19.953 22.924 9.218 10.673 18.188 21.093 18.432 21.376l.09.046s-9.098-10.568-18.443-21.39l4.141 2.194-.111-.189-3.947-2.091c-9.41-10.892-19.068-22.041-19.955-22.924zM93.388 61.583l-.31-.211 13.703 24.206.27.137-13.663-24.132z"/><path opacity=".5" fill="#070708" d="M174.539 308.104l-23.648-35.308 21.029 1.485-22.078-36.326 17.342 3.266-9.404-24.381-12.615-18.655 8.064-7.679-1.152-16.699-2.432-27.786 10.469-9.881-17.125-24.906 10.506-2.746-16.998-21.274 4.242-1.062-18.069-23.343 17.012 8.088-9.115-15.769 21.412 6.417-26.063-36.63-11.313-.265 15.185 21.365-.132.019.048.067-24.283 3.46 30.783 31.968-.209-.045.127.131-11.174-2.442 6.09 8.012-.111-.076.033.043-14.429-9.819-6.619-1.446 6.11 7.196-.21-.064.128.151-6.444-1.965 2.228 10.62-.102-.007.02.093-3.81-.26 6.856 11.696-.195-.103.111.189-4.141-2.194c9.346 10.821 18.443 21.39 18.443 21.39l-.09-.046a.248.248 0 01.012.014l-2.42-1.232 6.42 5.837-.19-.013.108.099-18.2-1.224 6.526 4.722-.166.026.082.06-9.627 1.542 6.697 5.653-.15.027.068.058-9.105 1.649 33.994 34.674-.083-.037.005.005-2.186-.985 3.619 3.642-.177-.01.095.096-12.123-.644 7.096 8.035-.158.002.074.084-14.357.188 5.514 7.628-.116-.085.038.053-10.322-7.531-4.999.065 7.626 11.466-.1.06.018.026-3.777 2.276 27.512 33.07-.107-.066.029.035-31.375-19.405 21.764 29.485-.105-.069.027.037-30.816-20.226 10.994 16.189 8.08 3.762 38.234 30.058-.096-.004.055.043-27.012-1.046 15.721 27.713.152.2-.074-.064 5.021 8.851-.011-.006.007.013-24.215-12.911 5.057 12.104-.009-.005.005.013-1.35-.694 14.426 21.383-.104-.071.026.039-35.268-24.042 4.671 8.714 19.112 20.72-.004.003.076.083-5.574 4.58.113.002c16.14-.02 29.784-.517 38.341-.926l-12.751-31.419 15.435 3.152z"/><path d="M138.953 184.576l.158-.002-7.095-8.035-.166-.009z"/><path opacity=".5" fill="#070708" d="M138.953 184.576l.158-.002-7.095-8.035-.166-.009z"/><path d="M144.044 177.087l.177.01-3.619-3.642-.307-.138z"/><path opacity=".5" fill="#070708" d="M144.044 177.087l.177.01-3.619-3.642-.307-.138z"/><path d="M120.906 130.81l.166-.027-6.526-4.721-.222-.015z"/><path opacity=".5" fill="#070708" d="M120.906 130.81l.166-.027-6.526-4.721-.222-.015z"/><path d="M117.908 138.092l.151-.028-6.698-5.653-.156.026z"/><path opacity=".5" fill="#070708" d="M117.908 138.092l.151-.028-6.698-5.653-.156.026z"/><path d="M132.638 127.187l.19.012-6.42-5.837-.401-.204z"/><path opacity=".5" fill="#070708" d="M132.638 127.187l.19.012-6.42-5.837-.401-.204z"/><path d="M122.311 196.503l.099-.06-7.626-11.465-.139.001z"/><path opacity=".5" fill="#070708" d="M122.311 196.503l.099-.06-7.626-11.465-.139.001z"/><path d="M135.994 81.483l.209.045-30.783-31.967-.145.02z"/><g opacity=".7"><path d="M134.521 18.729L113.822 6.373h-.779l12.943 13.501c4.77-.661 8.535-1.145 8.535-1.145zM124.754 184.762l14.199-.186-7.103-8.046.166.009-.084-.095 12.112.643-3.749-3.77-.084-.038-35.232-15.877zM117.908 138.092l-6.703-5.655.156-.026-.072-.06 9.617-1.541-6.582-4.763.222.015-.14-.101 18.232 1.226-6.631-6.029-.097-.05-26.787-13.633 12.328 16.434 5.221 6.959-.33-.173.17.227-33.3-17.466 25.741 26.257zM122.311 196.503l-7.666-11.524.139-.001-.055-.084 4.942-.065-32.052-23.39 31.016 37.281zM118.832 41.067l-.045-.015c-.004.07-.037.102-.117.07-1.388-.553-25.21-6.391-27.851-7.038l34.21 45.001 10.965 2.397-30.719-31.902.145-.021-.063-.065 24.298-3.462-15.198-21.387.146.003-.063-.089 11.459.269-3.292-4.629-.183.026c-6.436.919-13.496 2.016-15.562 2.671-.395.14-.542.257-.37.345 1.713.877 13.709 18.411 12.24 17.826zM110.545 101.15l3.947 2.091-6.799-11.602.138.009-.056-.095 3.846.263-2.232-10.646.106.033-.024-.119 6.341 1.933-6.091-7.173.19.042-.108-.127 6.503 1.421-22.918-15.597 13.663 24.132-.27-.137.107.19s-14.683-7.453-16.404-7.7c.007.037.033.084.107.158.888.884 10.546 12.033 19.954 22.924zM124.51 241.657l-8.061-3.753 20.912 30.793-.024-.016.059.088-17.004-11.617 30.963 41.169-15.687-27.655.066.003-.023-.042 26.98 1.045zM119.79 311.904l-.067-.073 13.601 25.373h.004l5.57-4.577-19.101-20.71zM151.426 298.435l.029.051-49.707-43.42 34.277 50.809.014.007-.01-.015 1.355.696-5.054-12.102.006.003-.004-.01 24.212 12.908-5.015-8.837z"/><path opacity=".5" d="M135.994 81.483l.209.045-30.783-31.967-.145.02z"/></g><path d="M129.655 46.033l.132-.018-15.184-21.365-.146-.004z"/><path opacity=".5" fill="#070708" d="M129.655 46.033l.132-.018-15.184-21.365-.146-.004z"/><path d="M114.492 103.242l.196.103-6.857-11.696-.138-.009z"/><path opacity=".5" fill="#070708" d="M114.492 103.242l.196.103-6.857-11.696-.138-.009z"/><path d="M111.621 91.816l.102.007-2.228-10.619-.106-.033z"/><path opacity=".5" fill="#070708" d="M111.621 91.816l.102.007-2.228-10.619-.106-.033z"/><path d="M115.812 83.018l.209.064-6.11-7.196-.19-.041z"/><path opacity=".5" fill="#070708" d="M115.812 83.018l.209.064-6.11-7.196-.19-.041z"/><path d="M135.734 270.669l27.012 1.046-.055-.043-26.98-1.045z"/><path opacity=".5" fill="#070708" d="M135.734 270.669l27.012 1.046-.055-.043-26.98-1.045z"/><path d="M138.898 332.627l.004-.003-19.112-20.72.007.013z"/><path opacity=".5" fill="#070708" d="M138.898 332.627l.004-.003-19.112-20.72.007.013z"/><path d="M136.039 305.882l1.35.694-.005-.013-1.355-.696z"/><path opacity=".5" fill="#070708" d="M136.039 305.882l1.35.694-.005-.013-1.355-.696z"/><path d="M132.336 294.464l24.215 12.911-.007-.013-24.212-12.908z"/><path opacity=".5" fill="#070708" d="M132.336 294.464l24.215 12.911-.007-.013-24.212-12.908z"/><path fill="#070708" d="M133.32 337.258l-13.602-25.373-4.695-8.76.096.065 35.268 24.042-.026-.039-14.409-21.358-34.324-50.874.121.105 49.707 43.42-.029-.052-.049-.085-.021-.028-30.964-41.169-.073-.098 17.019 11.626.024.017-20.912-30.793-.055-.08-11.018-16.224.102.066 30.816 20.226-.027-.037-21.76-29.479.102.063 31.375 19.405-.029-.035-27.482-33.036L87.1 161.058l.521.381 32.052 23.39.069.051.043.032 10.322 7.531-.038-.053-5.476-7.575-19.91-27.548.298.135 35.231 15.877.084.038.307.138 2.186.985-.005-.005-33.989-34.669-26.02-26.54.438.229 33.3 17.466-.17-.227-5.051-6.732-12.496-16.655.328.167 26.787 13.634.097.049.401.204 2.42 1.232-.012-.014c-.244-.283-9.214-10.703-18.432-21.376-9.408-10.892-19.066-22.039-19.953-22.924-.181-.18-.143-.24.053-.212 1.722.248 16.404 7.7 16.404 7.7l-.107-.19-13.704-24.205.31.211 22.918 15.597.194.132.03.021 14.429 9.819-.033-.043-6.057-7.967L90.57 34.023l.249.061c2.641.646 26.463 6.485 27.851 7.038.08.032.113 0 .117-.07.064-1.222-10.736-16.928-12.357-17.757-.192-.099.018-.235.532-.398 2.065-.655 9.126-1.751 15.562-2.671l.183-.026c1.06-.151 2.1-.297 3.097-.436L112.857 6.263H100.832c-3.473.199-7.039 1.065-7.039 1.065-16.795 10.619-44.58 17.951-44.58 17.951-6.377 2.13-13.508 5.604-13.508 5.604-1.535 2.756-2.104 7.265-2.072 12.555-.033-5.304.533-9.824 2.072-12.585 0 0-4.539 4.924-9.061 8.382 0 0-21.705 16.208-23.928 59.047l-.293 7.81-.586 6.375s-.186 7.919-.865 14.959c0 0-.276 13.267-.914 14.931.851.763 12.192 10.493 38.32 11.516 0 0 6.756.201 9.934-2.406 0 0-.215-1.928.078-7.035 0 0 .4-4.828.787-8.775 0 0-.865-13.684.678-23.911 0 0-.293-1.449 1.25-1.203.366.986.695 2.161.991 3.459 2.076 8.961 2.519 24.045 2.519 24.045 2.314 27.786 5.648 66.578 5.648 66.578 3.475 52.099-7.531 108.255-7.531 108.255a115.466 115.466 0 01-1.583 8.067c1.69 12.86 27.722 14.297 27.722 14.297 15.705 1.316 31.54 1.872 45.913 2.013l8.276-.001.26.002z"/></svg>