<svg xmlns="http://www.w3.org/2000/svg" width="272.688" height="337.292" viewBox="305 252 272.688 337.292"><path fill="none" d="M577.644 391.755s-1.436-19.096-2.453-35.293c0 0 1.727-29.647-15.627-56.117 0 0-5.49-6.648-16.627-16.628v.007c-10.504-6.073-25.037-10.142-25.037-10.142-14.746-2.992-32.314-13.173-32.314-13.173-1.451-1.157-7.42-2.221-7.42-2.221h-25.529V252h-20.34v6.188H405.76c-3.471.2-7.035 1.064-7.035 1.064-16.781 10.613-44.547 17.94-44.547 17.94-6.371 2.128-13.498 5.599-13.498 5.599v-.031s-4.535 4.921-9.055 8.376c0 0-21.688 16.197-23.91 59.001l-.293 7.805-.586 6.371s-.184 7.914-.863 14.947c0 0-.293 14.068-.973 15.041 0 0 11.184 10.504 38.379 11.568 0 0 6.756.201 9.934-2.406 0 0-.215-1.928.078-7.035 0 0 .4-4.828.787-8.775 0 0-.865-13.684.678-23.91 0 0-.293-1.449 1.25-1.203 2.9 7.805 3.471 27.334 3.471 27.334 2.313 27.766 5.645 66.529 5.645 66.529 3.471 52.061-7.527 108.178-7.527 108.178a114.528 114.528 0 01-1.588 8.098c.34 3.278 2.245 5.827 4.912 7.808-1.18-.933-2.196-1.98-2.963-3.169l5.006 4.497c1.353.776 2.822 1.44 4.333 2.015-4.406-4.116-8.081-7.55-10.737-10.034-.015-.078-.027-.157-.039-.235l11.991 10.709a45.92 45.92 0 002.72.842c-5.285-4.921-10.172-9.474-14.479-13.488l.123-.57a47850.26 47850.26 0 0116.232 14.545 68.831 68.831 0 009.791 1.579 34821.976 34821.976 0 01-16.808-15.721c-.002 0 7.028 6.268 17.689 15.786.367.031.735.061 1.103.09a37271.069 37271.069 0 01-26.43-24.734l.08-.452a34196.02 34196.02 0 0128.43 25.353l.271.021c-13.344-12.481-22.729-21.28-22.729-21.28s9.948 8.857 23.978 21.376l1.168.084c-4.276-3.99-6.759-6.31-6.759-6.31l7.083 6.333.789.057a48363.859 48363.859 0 01-31.573-29.423l.115-.692c7.501 6.697 19.904 17.776 33.877 30.279l.762.048-8.777-8.191 6.607 5.905c-16.371-15.24-27.802-25.899-27.802-25.899-.002 0 13.187 11.801 31.57 28.287 1.16.07 2.318.137 3.476.2-12.187-11.364-20.288-18.93-20.288-18.93s8.5 7.596 21.219 18.981c1.325.07 2.646.136 3.965.198l-5.891-5.469 5.99 5.474.207.009c-5.425-5.069-8.669-8.104-8.669-8.104l9.1 8.125c.782.036 1.562.07 2.34.103l-11.8-10.985s4.633 4.151 12.275 11.006c2.523.104 5.027.191 7.507.266-20.739-19.345-37.024-34.576-37.024-34.576s17.132 15.289 38.74 34.626l1.486.039a63100.15 63100.15 0 01-55.899-51.927l.048-.381a72410.7 72410.7 0 0158.273 52.364l.947.021c-24.808-23.128-46.077-43.024-46.077-43.024s22.386 19.973 48.177 43.065l.604.01a52479.525 52479.525 0 01-61.361-57.139.35.35 0 00.004-.032c5.474 4.896 33.996 30.422 63.823 57.209l1.613.021c-7.044-6.579-11.376-10.63-11.376-10.63s4.546 4.057 11.908 10.636l2.182.021c-14.274-13.361-24.596-23.044-24.596-23.044s10.914 9.706 25.882 23.054l1.379.007c-23.748-22.154-43.98-41.096-43.98-41.096 0-.002 18.559 16.541 41.113 36.716-28.972-27.012-59.932-56.055-59.932-56.055s21.253 18.909 45.193 40.294c-16.061-15.016-27.962-26.173-27.962-26.173s22.172 19.739 47.008 41.945c-20.15-18.777-35.402-33.021-35.402-33.021-.002-.002 17.334 15.494 39.562 35.408-31.381-29.207-63.877-59.611-63.877-59.611s29.175 26.022 59.179 52.912c-15.2-14.169-25.805-24.071-25.805-24.071s5.246 4.686 13.663 12.214a45944.332 45944.332 0 01-57.867-53.918l.017-.188c13.274 11.87 49.903 44.639 80.695 72.34a53710.088 53710.088 0 01-62.94-58.585c0-.002 10.452 9.355 25.723 23.045l-5.727-5.345s21.966 19.63 48.137 43.093l.53-.009c-6.002-5.609-9.64-9.013-9.64-9.013s3.813 3.403 10.087 9.006l1.788-.032a56601.482 56601.482 0 01-31.609-29.336l27.984 25.573c1.208 1.077 2.623 2.341 4.203 3.752l1.257-.026c-17.2-16.077-30.201-28.264-30.201-28.264s13.694 12.196 31.65 28.232l.253-.006c-23.415-21.835-42.86-40.024-42.86-40.024 0-.002 20.407 18.208 44.728 39.979l.829-.021c-25.633-23.823-45.915-42.716-45.915-42.716s21.092 18.899 47.56 42.671l.958-.027c-17.349-16.182-30.039-28.042-30.039-28.042s13.284 11.861 31.323 28.003l1.271-.04c-14.635-13.683-25.123-23.509-25.123-23.509s11.029 9.826 26.312 23.47l1.037-.036c-33.513-31.164-70.538-65.792-70.538-65.792s38.89 34.705 73.401 65.687l.289-.011c-45.257-41.883-102.234-94.911-102.234-94.911-.003 0 54.349 48.743 99.511 89.464-34.085-31.688-73.45-68.513-73.45-68.513s32.975 29.417 64.987 58.128c-37.365-34.688-78.504-73.068-78.504-73.068s57.262 51.224 98.614 88.5l.351-.018c-23.979-22.351-43.963-41.038-43.963-41.038s20.926 18.678 45.786 40.941l.668-.037c-28.01-26.129-56.963-53.29-56.963-53.29s30.332 26.978 59.237 52.844c-33.987-31.589-75.955-70.879-75.955-70.879s18.556 16.544 41.113 36.718c-28.973-27.014-59.932-56.057-59.932-56.057s13.539 12.044 31.171 27.776c-13.362-12.459-22.418-20.915-22.418-20.915s6.264 5.599 16.074 14.378l-7.596-7.116s23.647 21.053 49.456 44.129c-17.949-16.725-31.067-28.979-31.067-28.979l2.386 2.132-5.782-5.419c0-.002 13.155 11.705 30.498 27.186-29.503-27.479-58.2-54.327-58.2-54.327l5.616 5.011a54547.014 54547.014 0 01-33.345-31.087l-.007-.334c15.274 13.661 48.925 43.775 77.535 69.515-32.601-30.292-62.94-58.585-62.94-58.585s50.664 45.349 91.865 82.454c-18.681-17.436-32.842-30.683-32.842-30.683l5.374 4.797c-14.401-13.427-24.319-22.688-24.319-22.688 0-.002 25.508 22.797 54.3 48.62a41923.51 41923.51 0 01-32.082-29.967c-.002 0 17.556 15.665 39.525 35.328-29.191-27.208-59.289-55.416-59.289-55.416s16.945 15.092 37.858 33.772c-25.981-24.215-48.812-45.57-48.812-45.57s35.701 31.855 68.945 61.684C445.82 530.202 412 498.701 412 498.701s37.635 33.719 75.442 67.732c-29.417-27.389-56.959-53.133-56.959-53.133s31.777 28.377 63.786 57.092c-28.344-26.428-56.318-52.637-56.318-52.637s27.596 24.584 55.982 49.994c-35.997-33.271-99.173-92.354-99.173-92.354s47.317 42.222 83.881 75.102c-46.357-42.848-112.424-104.339-112.424-104.339s54.352 48.749 99.512 89.466c-34.088-31.688-73.451-68.511-73.451-68.511 0-.002 32.975 29.417 64.988 58.126-37.368-34.686-78.503-73.066-78.503-73.066s69.319 62.012 110.498 99.228c-28.743-26.768-55.498-51.785-55.498-51.785s32.41 28.929 64.485 57.699c-31.899-29.655-74.992-70.088-74.992-70.088s30.331 26.982 59.237 52.845c-33.988-31.589-75.956-70.879-75.956-70.879s18.557 16.543 41.114 36.718c-28.971-27.014-59.932-56.057-59.932-56.057s21.253 18.911 45.194 40.294c-16.061-15.017-27.965-26.171-27.965-26.171s23.651 21.053 49.458 44.133c-17.946-16.729-31.067-28.982-31.067-28.982s10.741 9.598 26.131 23.378c-33.595-31.232-67.934-63.305-67.934-63.305s4.796 4.286 12.567 11.239l-1.863-1.741s29.176 26.022 59.18 52.912c-15.2-14.171-25.805-24.073-25.805-24.073 0-.002 2.418 2.16 6.605 5.904-16.369-15.237-27.803-25.9-27.803-25.9s27.464 24.582 58.395 52.358l-4.947-4.63s11.781 10.504 28.002 24.998c-13.282-12.402-22.424-20.953-22.424-20.953 0-.002 10.424 9.3 25.24 22.542-34.151-31.739-69.506-64.756-69.506-64.756s42.248 37.759 79.374 71.131c-26.556-24.773-51.598-48.242-51.598-48.242s16.321 14.533 36.695 32.736a52530.695 52530.695 0 01-45.176-41.916l14.83 13.551a31982.373 31982.373 0 01-17.307-16.171c0-.002 35.701 31.855 68.947 61.682-35.49-32.94-69.308-64.441-69.308-64.441s37.631 33.721 75.44 67.732c-29.417-27.387-56.959-53.131-56.959-53.131s31.777 28.375 63.787 57.09c-28.343-26.424-56.319-52.633-56.319-52.633s27.596 24.582 55.982 49.992c-35.996-33.269-99.173-92.354-99.173-92.354s47.315 42.222 83.881 75.102C455.916 484.381 389.849 422.89 389.849 422.89s54.352 48.747 99.512 89.464c-34.085-31.688-73.451-68.512-73.451-68.512s32.973 29.418 64.986 58.129c-37.366-34.686-78.503-73.068-78.503-73.068s69.319 62.014 110.498 99.229a45473.97 45473.97 0 01-55.498-51.785c0-.003 31.4 28.029 62.979 56.346a942.05 942.05 0 005.491 36.222s1.445 3.661.86 5.198c0 0-.033.146-.107.381a6.55 6.55 0 00.228-.729c.586-1.543-.863-5.213-.863-5.213-5.521-32.131-7.914-56.596-7.914-56.596-2.391-26.051-.503-55.711-.478-56.099l-.09.704s-.021.317-.053.89c-30.402-28.315-61.645-57.561-61.645-57.561s18.557 16.543 41.114 36.715c-28.973-27.012-59.934-56.055-59.934-56.055s21.255 18.911 45.194 40.294c-16.062-15.016-27.963-26.173-27.963-26.173s23.649 21.055 49.458 44.136a54259.495 54259.495 0 01-31.067-28.985c-.002 0 10.741 9.6 26.131 23.379-33.595-31.231-67.936-63.303-67.936-63.303s4.798 4.286 12.567 11.237l-1.863-1.742s29.176 26.023 59.18 52.914c-15.2-14.173-25.803-24.075-25.803-24.075l6.605 5.905c-16.369-15.24-27.803-25.899-27.803-25.899s27.464 24.58 58.393 52.356c-3.148-2.946-4.945-4.63-4.945-4.63s4.414 3.936 11.541 10.298a407.32 407.32 0 01-.936 8.426c2.259-17.93 4.387-50.525 4.387-50.525 1.451-13.496 2.314-29.602 2.314-29.602.069-.638.149-1.243.234-1.831-6.259-5.864-10.119-9.486-10.119-9.486s3.881 3.45 10.182 9.063c.089-.584.182-1.15.28-1.683-15.751-14.716-27.18-25.415-27.18-25.415s11.491 10.245 27.374 24.438l.095-.453c-24.272-22.673-46.288-43.324-46.288-43.324s21.255 18.908 45.194 40.294c-16.061-15.016-27.962-26.173-27.962-26.173s12.746 11.35 29.733 26.514c.062-.211.121-.409.182-.604-7.149-6.672-11.526-10.76-11.526-10.76s4.417 3.948 11.636 10.405c.079-.25.157-.484.233-.702-23.415-21.839-42.967-40.132-42.967-40.132s19.747 17.614 43.454 38.831c.064-.159.123-.298.175-.418-6.395-5.968-10.256-9.575-10.256-9.575s3.909 3.494 10.384 9.288c.083-.179.134-.28.134-.28.203-.311.406-.641.609-.986-.174.49-.342.988-.5 1.51 0 0 .262.803.631 3.596 0 0 .371 7.666.51 21.256 0 0 .586 7.234.803 15.117 0 0 .939 2.822 7.018 2.744 0 0 16.846 1.65 38.533-8.9.006-.003 3.045-2.022 2.613-5.14zm-59.666 120.74s.753 7.703 2.391 20.136c-31.731-29.51-73.479-68.677-73.479-68.677 0-.002 30.333 26.979 59.237 52.845-33.986-31.592-75.956-70.881-75.956-70.881s18.557 16.545 41.114 36.718c-28.973-27.014-59.934-56.056-59.934-56.056s21.255 18.907 45.194 40.297c-16.061-15.019-27.962-26.173-27.962-26.173s22.173 19.739 47.009 41.943c-20.149-18.777-35.406-33.021-35.406-33.021s17.338 15.494 39.563 35.41c-31.381-29.209-63.877-59.613-63.877-59.613s29.176 26.026 59.18 52.914c-15.2-14.171-25.803-24.073-25.803-24.073s5.244 4.686 13.661 12.216c-31.932-29.697-62.979-58.693-62.979-58.693s47.448 42.402 85.824 76.923c-32.602-30.292-62.942-58.585-62.942-58.585s10.455 9.357 25.723 23.045c-3.641-3.399-5.727-5.343-5.727-5.343s30.024 26.832 61.693 55.25c-13.414-12.523-22.666-21.179-22.666-21.179s14.518 12.95 33.635 30.05l-7.266-6.797s3.594 3.202 9.529 8.498c.078.952.157 1.902.244 2.846zm-.283-3.397l-.585-.545a47190.237 47190.237 0 01-55.004-51.017l27.984 25.572c5.643 5.038 15.622 13.952 27.496 24.573.035.475.072.945.109 1.417zm-.128-1.7c-26.784-24.985-52.219-48.824-52.219-48.824s16.943 15.09 37.856 33.771c-25.98-24.211-48.811-45.568-48.811-45.568s31.517 28.121 62.9 56.261c.082 1.454.171 2.909.274 4.36zm-.284-4.563c-33.183-30.813-63.249-58.819-63.249-58.819s29.879 26.773 63.142 56.673c.032.715.069 1.431.107 2.146zm-.502-17.551l.004.582.01 1.011.012 1.166.018 1.156.002.171c.041 2.588.106 5.235.206 7.915l.002.074c.04 1.068.085 2.142.136 3.217l-28.656-26.481c5.297 4.758 10.532 9.462 15.566 13.991-18.127-16.906-31.567-29.468-31.567-29.468l5.544 4.952c-17.739-16.531-30.634-28.571-30.634-28.571s28.68 25.632 59.554 53.332c-15.604-14.585-26.994-25.255-26.994-25.255s3.699 3.295 9.78 8.718c-11.247-10.524-18.869-17.671-18.869-17.671 0-.003 17.788 15.828 39.271 35.018a30055.087 30055.087 0 01-44.155-41.136c-30.424-28.304-58.844-54.845-58.844-54.845s44.41 39.686 82.05 73.53c-40.034-37.114-80.969-75.211-80.969-75.211s54.352 48.743 99.514 89.466c-34.087-31.689-73.453-68.513-73.453-68.513 0-.002 32.975 29.417 64.99 58.128-37.368-34.688-78.507-73.068-78.507-73.068s27.871 24.933 58.767 52.667c6.858 6.113 18.13 16.166 30.886 27.562-25.983-24.216-48.813-45.57-48.813-45.57s26.531 23.672 55.146 49.31c-.006 1.247-.005 2.523.003 3.823zm.432-23.06c-19.394-18.09-34.181-31.919-34.181-31.919s14.773 13.188 34.239 30.606l-.058 1.313zm.208-4.281c-.027.506-.062 1.155-.099 1.912l-.021.421a50992.757 50992.757 0 01-36.798-34.146l32.802 29.974c-21.966-20.531-40.782-38.186-40.782-38.186s21.117 18.781 44.898 40.025zm-51.889-41.489l-4.322-4.035s26.513 23.697 55.989 50.137l-.012.29c-.095 2.248-.192 5.02-.27 8.174l-.007.286c-.021.872-.04 1.773-.057 2.699l-.016.864-.019 1.27-.014.989c-.005.474-.011.951-.015 1.435l-.005.647c-.005.596-.009 1.196-.011 1.807-29.973-27.844-55.507-51.629-55.507-51.629s5.718 5.123 14.915 13.372c-6.71-6.287-10.897-10.216-10.897-10.216s23.697 21.075 49.158 43.831c-19.687-18.358-34.695-32.386-34.695-32.386l8.206 7.331c-21.704-20.256-39.387-36.811-39.387-36.811s18.557 16.543 41.113 36.718c-28.972-27.016-59.933-56.057-59.933-56.057s21.256 18.907 45.194 40.294c-16.061-15.014-27.964-26.171-27.964-26.171s3.924 3.494 10.318 9.193c-8.152-7.615-13.271-12.402-13.271-12.402 0-.001 17.52 15.632 39.475 35.28-10.972-10.233-18.131-16.921-18.131-16.921s15.98 14.281 36.886 33.008l-2.861-2.662c-40.944-37.953-83.91-77.942-83.91-77.942s38.26 34.315 77.249 69.412c-14.813-13.812-25.088-23.405-25.088-23.405s6.755 6.037 17.219 15.401c-23.605-22.011-43.319-40.453-43.319-40.453 0-.002 32.973 29.417 64.988 58.126-37.368-34.686-78.503-73.066-78.503-73.066s16.159 14.455 37.504 33.592zm53.206 29.185l-6.027-5.637 6.052 5.402-.025.235zm.088-.88c-27.056-25.188-50.381-46.968-50.381-46.968s23.331 20.851 50.55 45.257l-.169 1.711zm.26-2.677c-13.428-12.56-22.865-21.402-22.865-21.402s9.456 8.42 22.954 20.467l-.089.935zm.13-1.369A57993.199 57993.199 0 01487.74 411.5l14.827 13.549c-10.458-9.768-17.302-16.171-17.302-16.171s14.733 13.147 34.078 30.454c-.041.461-.084.921-.127 1.381zm.226-2.455c-20.003-18.6-34.536-32.137-34.536-32.137s14.547 13.034 34.633 31.066l-.097 1.071zm.21-2.344c-9.889-9.232-16.267-15.192-16.267-15.192s6.39 5.706 16.32 14.586l-.053.606zm.201-2.311c-5.604-5.244-8.998-8.424-8.998-8.424s3.404 3.032 9.03 8.05l-.032.374zm.164-1.921c-27.445-25.57-52.353-48.865-52.353-48.865s24.889 22.213 52.512 46.959c-.051.633-.105 1.267-.159 1.906zm.229-2.741c-40.083-37.163-81.126-75.359-81.126-75.359s40.964 36.737 81.313 73.066l-.187 2.293zm.226-2.795c-28.509-26.557-55.29-51.611-55.29-51.611s26.749 23.865 55.452 49.58c-.052.669-.106 1.346-.162 2.031zm.185-2.318c-34.503-32.055-68.991-64.233-68.991-64.233s34.423 30.794 69.164 62.007l-.173 2.226zm.268-3.468c-8.729-8.153-14.258-13.321-14.258-13.321 0-.001 5.539 4.945 14.299 12.773l-.041.548zm.177-2.341c-14.455-13.532-24.943-23.371-24.943-23.371s10.499 9.336 25.024 22.289l-.081 1.082zm.171-2.311c-22.803-21.28-41.831-39.094-41.831-39.094s18.557 16.545 41.114 36.717c-28.973-27.014-59.934-56.055-59.934-56.055s21.255 18.907 45.194 40.294a43090.013 43090.013 0 01-27.965-26.171c0-.002 20.297 18.065 43.799 39.071-.106 1.506-.233 3.277-.377 5.238zm.386-5.352c-18.54-17.278-32.201-30.035-32.201-30.035s13.666 12.213 32.281 28.888l-.08 1.147zm.096-1.388a39776.444 39776.444 0 01-56.611-52.85c-.002 0 27.623 24.644 56.757 50.741-.04.58-.088 1.287-.146 2.109zm.267-3.921s-.041.628-.116 1.729c-13.894-12.953-23.389-21.817-23.389-21.817s5.246 4.688 13.663 12.215c-31.932-29.695-62.979-58.693-62.979-58.693s37.613 33.613 72.948 65.351c-.041.407-.084.813-.127 1.215zm.164-1.571c-27.305-25.392-50.103-46.653-50.103-46.653-.002 0 10.453 9.355 25.723 23.044l-5.725-5.342s12.701 11.351 30.29 27.104c-.06.618-.121 1.234-.185 1.847zm.462-4.776l-11.272-10.468 11.287 10.314-.015.154zm.157-1.762l-8.189-7.669s3.081 2.742 8.22 7.323l-.031.346zm.126-1.461c-11.556-10.792-19.269-18.006-19.269-18.006s7.728 6.895 19.331 17.266l-.062.74zm.192-2.314C511.102 381.979 503.3 374.71 503.3 374.71s7.813 7.001 19.874 17.82l-.051.633zm.191-2.418l-1.532-1.432 1.537 1.373-.005.059zm.315-4.254c-20.998-19.586-37.566-35.083-37.566-35.083s16.565 14.783 37.666 33.665c-.031.462-.064.934-.1 1.418zm.189-2.71c-34.774-32.268-66.302-61.607-66.302-61.607s31.48 28.231 66.431 59.673l-.129 1.934zm.19-2.896c-22.301-20.801-40.43-37.759-40.43-37.759s18.118 16.165 40.527 36.219c-.029.477-.062.991-.097 1.54zm.253-4.132l-.108 1.815c-28.876-26.858-54.091-50.381-54.091-50.381s25.178 22.523 54.199 48.566zm3.156-17.833c-10.3-9.605-16.939-15.807-16.939-15.807s6.63 5.927 16.939 15.154v.653z"/><path fill="none" d="M498.325 584.905l-1.622-1.512-.002.057 1.624 1.455z"/><path d="M462.106 457.537a48077.348 48077.348 0 0055.004 51.017l.585.545c-.037-.472-.074-.942-.108-1.416a43723.374 43723.374 0 00-27.496-24.573l-27.985-25.573zM525.867 568.91a942.05 942.05 0 01-5.491-36.222 41582.789 41582.789 0 00-62.979-56.346s26.756 25.016 55.498 51.785c-41.179-37.216-110.498-99.229-110.498-99.229s41.137 38.383 78.503 73.068c-32.014-28.711-64.986-58.129-64.986-58.129s39.366 36.824 73.451 68.512c-45.16-40.717-99.512-89.464-99.512-89.464s66.066 61.491 112.424 104.339c-36.565-32.88-83.881-75.102-83.881-75.102s63.177 59.085 99.173 92.354c-28.387-25.41-55.982-49.992-55.982-49.992s27.977 26.209 56.319 52.633c-32.01-28.715-63.787-57.09-63.787-57.09s27.542 25.744 56.959 53.131c-37.81-34.012-75.44-67.732-75.44-67.732s33.817 31.501 69.308 64.441a39055.83 39055.83 0 00-68.947-61.682s6.846 6.403 17.307 16.171l-14.83-13.551a52530.695 52530.695 0 0045.176 41.916c-20.374-18.203-36.695-32.736-36.695-32.736s25.042 23.469 51.598 48.242c-37.126-33.372-79.374-71.131-79.374-71.131s35.354 33.017 69.506 64.756a35142.644 35142.644 0 00-25.24-22.542s9.142 8.551 22.424 20.953c-16.221-14.494-28.002-24.998-28.002-24.998l4.947 4.63c-30.931-27.776-58.395-52.358-58.395-52.358s11.434 10.663 27.803 25.9c-4.188-3.744-6.605-5.906-6.605-5.904 0 0 10.604 9.902 25.805 24.073-30.004-26.89-59.18-52.912-59.18-52.912l1.863 1.741c-7.771-6.953-12.567-11.239-12.567-11.239s34.339 32.072 67.934 63.305c-15.39-13.78-26.131-23.378-26.131-23.378s13.121 12.253 31.067 28.982c-25.807-23.08-49.458-44.133-49.458-44.133s11.904 11.154 27.965 26.171c-23.941-21.383-45.194-40.294-45.194-40.294s30.961 29.043 59.932 56.057c-22.558-20.175-41.114-36.718-41.114-36.718s41.968 39.29 75.956 70.879c-28.906-25.862-59.237-52.845-59.237-52.845s43.093 40.433 74.992 70.088c-32.075-28.771-64.485-57.699-64.485-57.699s26.755 25.018 55.498 51.785c-41.179-37.216-110.498-99.228-110.498-99.228s41.135 38.381 78.503 73.066a37954.501 37954.501 0 00-64.988-58.126s39.363 36.823 73.451 68.511c-45.16-40.717-99.512-89.466-99.512-89.466s66.066 61.491 112.424 104.339c-36.563-32.88-83.881-75.102-83.881-75.102s63.176 59.083 99.173 92.354c-28.387-25.41-55.982-49.994-55.982-49.994s27.975 26.209 56.318 52.637c-32.009-28.715-63.786-57.092-63.786-57.092s27.542 25.744 56.959 53.133c-37.808-34.014-75.442-67.732-75.442-67.732s33.819 31.501 69.308 64.441c-33.244-29.828-68.945-61.684-68.945-61.684s22.83 21.355 48.812 45.57c-20.913-18.681-37.858-33.772-37.858-33.772s30.098 28.208 59.289 55.416c-21.97-19.663-39.527-35.328-39.525-35.328 0 0 13.76 12.87 32.082 29.967 7.099 6.367 14.397 12.918 21.563 19.356l-.019.73 1.622 1.512-1.624-1.455-.047 1.835a39857.932 39857.932 0 01-51.476-47.911l-5.374-4.797s14.161 13.247 32.842 30.683c-41.201-37.105-91.865-82.454-91.865-82.454s30.34 28.293 62.94 58.585c-28.61-25.739-62.261-55.854-77.535-69.515l.007.334a54764.36 54764.36 0 0033.345 31.087c9.894 8.831 31.496 28.125 53.563 47.899-15.2-14.171-25.805-24.073-25.805-24.073s29.962 26.779 61.587 55.156c-16.872-15.757-29.338-27.424-29.338-27.424s16.371 14.596 37.086 33.12c-.012.496-.023.942-.035 1.348 16.625-1.392 21.952-4.987 21.952-4.987 5.564-2.402 7.489-6.256 8.071-7.847.074-.235.107-.381.107-.381.578-1.536-.867-5.197-.867-5.197zm-29.123 12.912c-6.503-6.08-10.488-9.812-10.488-9.812s3.985 3.551 10.5 9.365l-.012.447zm.023-.92a50830.782 50830.782 0 01-56.613-52.507l56.634 51.752-.021.755zM414.227 518.68c-9.811-8.779-16.074-14.378-16.074-14.378s9.056 8.456 22.418 20.915c4.464 3.982 9.185 8.197 14.021 12.518-8.23-7.694-15.361-14.369-20.365-19.055zM515.472 507.949c-19.117-17.1-33.635-30.05-33.635-30.05s9.252 8.655 22.666 21.179c-31.669-28.418-61.693-55.25-61.693-55.25s2.086 1.943 5.727 5.343c-15.268-13.688-25.723-23.045-25.723-23.045s30.341 28.293 62.942 58.585c-38.376-34.521-85.824-76.923-85.824-76.923s31.047 28.996 62.979 58.693c-8.417-7.53-13.661-12.216-13.661-12.216s10.603 9.902 25.803 24.073c-30.004-26.888-59.18-52.914-59.18-52.914s32.496 30.404 63.877 59.613c-22.226-19.916-39.563-35.41-39.563-35.41s15.257 14.243 35.406 33.021c-24.836-22.204-47.009-41.943-47.009-41.943s11.901 11.154 27.962 26.173c-23.939-21.39-45.194-40.297-45.194-40.297s30.961 29.042 59.934 56.056c-22.558-20.173-41.114-36.718-41.114-36.718s41.97 39.289 75.956 70.881a29753.613 29753.613 0 00-59.237-52.845s41.748 39.167 73.479 68.677c-1.638-12.433-2.391-20.136-2.391-20.136-.087-.943-.166-1.894-.242-2.845-5.936-5.296-9.529-8.498-9.529-8.498l7.264 6.796zM502.256 457.453c-20.905-18.727-36.886-33.008-36.886-33.008s7.159 6.688 18.131 16.921c10.594 9.48 22.22 19.896 33.409 29.94l.007-.286a31190.044 31190.044 0 01-17.522-16.229l2.861 2.662zM479.557 450.158c-30.896-27.734-58.767-52.667-58.767-52.667s41.139 38.381 78.507 73.068a37904.094 37904.094 0 00-64.99-58.128s39.366 36.824 73.453 68.513c-45.162-40.723-99.514-89.466-99.514-89.466s40.935 38.097 80.969 75.211a5271.81 5271.81 0 013.775 3.396c-32.601-30.292-62.94-58.584-62.94-58.584s46.611 41.721 86.775 77.87l-.002-.171c-16.103-15.032-27.75-25.928-27.75-25.928s11.611 10.359 27.732 24.771l-.012-1.166c-14.379-13.425-24.448-22.843-24.448-22.843s10.042 8.96 24.438 21.832l-.004-.582c-23.623-22.056-44.196-41.34-44.196-41.34s2.588 2.304 6.974 6.214zM446.98 409.294s11.903 11.157 27.964 26.171c-23.938-21.387-45.194-40.294-45.194-40.294s30.961 29.042 59.933 56.057c-22.557-20.175-41.113-36.718-41.113-36.718s17.683 16.555 39.387 36.811c6.722 6.008 17.032 15.226 28.851 25.808l.014-.989a37354.082 37354.082 0 01-29.6-27.691c0-.002 12.646 11.265 29.618 26.422l.016-.864a36683.28 36683.28 0 01-59.556-55.518c-6.396-5.701-10.32-9.195-10.32-9.195zM484.865 438.256c-10.464-9.364-17.219-15.401-17.219-15.401s10.274 9.594 25.088 23.405c7.482 6.735 14.991 13.498 22.262 20.054a28233.818 28233.818 0 01-30.131-28.058zM452.122 550.613a27211.68 27211.68 0 00-30.498-27.186l5.782 5.419a48493.88 48493.88 0 0134.5 30.874c-3.246-3.019-6.52-6.067-9.784-9.107zM517.199 462.556c-29.477-26.44-55.989-50.137-55.989-50.137l4.322 4.035a35566.264 35566.264 0 0151.655 46.393l.012-.291zM479.982 463.076s11.39 10.67 26.994 25.255l10.058 9.028-.002-.074a35152.466 35152.466 0 01-27.27-25.491c-6.081-5.423-9.78-8.718-9.78-8.718zM478.056 463.57l-5.544-4.952s13.44 12.562 31.567 29.468c3.257 2.93 6.432 5.788 9.479 8.534a46531.283 46531.283 0 01-35.502-33.05zM466.009 448.004a31106.018 31106.018 0 0044.155 41.136l5.322 4.756c-13.801-12.734-31.97-29.604-49.477-45.892zM480.504 426.129a50992.757 50992.757 0 0036.798 34.146l.021-.421-4.017-3.752-32.802-29.973zM465.287 432.544s4.188 3.929 10.897 10.216a62548.848 62548.848 0 0140.603 36.45l.005-.647-2.347-2.188c-25.461-22.755-49.158-43.831-49.158-43.831zM517.283 502.835c-.038-.716-.074-1.432-.107-2.146-33.263-29.899-63.142-56.673-63.142-56.673s30.066 28.006 63.249 58.819zM503.205 492.344a38544.41 38544.41 0 00-37.856-33.771s25.435 23.839 52.219 48.824a274.267 274.267 0 01-.272-4.361c-31.384-28.14-62.9-56.261-62.9-56.261s22.828 21.358 48.809 45.569zM523.123 393.163l.052-.632c-12.061-10.819-19.874-17.82-19.874-17.82s7.801 7.268 19.822 18.452zM519.652 435.914l.054-.606c-9.931-8.88-16.32-14.586-16.32-14.586s6.377 5.959 16.266 15.192zM519.442 438.258l.097-1.07c-20.086-18.032-34.633-31.066-34.633-31.066s14.533 13.537 34.536 32.136zM502.568 425.049L487.741 411.5a51166.08 51166.08 0 0031.476 29.213l.128-1.382c-19.345-17.307-34.078-30.454-34.078-30.454s6.843 6.404 17.301 16.172zM519.853 433.603l.032-.374c-5.626-5.018-9.03-8.05-9.03-8.05s3.395 3.18 8.998 8.424zM520.246 428.941l.187-2.293a63783.69 63783.69 0 00-81.313-73.066s41.043 38.196 81.126 75.359zM520.017 431.682l.159-1.906c-27.623-24.746-52.512-46.959-52.512-46.959s24.908 23.295 52.353 48.865zM520.472 426.146c.056-.685.109-1.362.162-2.031-28.703-25.715-55.452-49.58-55.452-49.58s26.781 25.054 55.29 51.611zM519.086 442.082l.089-.936c-13.498-12.047-22.954-20.467-22.954-20.467s9.438 8.843 22.865 21.403z"/><path d="M506.534 455.929a38852.99 38852.99 0 00-64.988-58.126s19.714 18.442 43.319 40.453c9.752 9.093 20.166 18.794 30.131 28.058a36702.501 36702.501 0 00-22.262-20.054c-38.989-35.097-77.249-69.412-77.249-69.412s42.966 39.989 83.91 77.942c5.93 5.495 11.814 10.947 17.522 16.229.077-3.154.175-5.926.27-8.174a36100.356 36100.356 0 00-51.655-46.393c-21.345-19.137-37.501-33.59-37.501-33.59s41.135 38.382 78.503 73.067zM461.269 429.388s25.534 23.785 55.507 51.629c.002-.61.006-1.211.011-1.807a57385.708 57385.708 0 00-55.518-49.822zM517.213 462.224c.02-.463.039-.901.059-1.313-19.466-17.418-34.239-30.606-34.239-30.606s14.787 13.829 34.18 31.919zM479.75 443.99s15.009 14.027 34.695 32.386l2.347 2.188c.004-.483.01-.961.015-1.435a42501.663 42501.663 0 00-28.851-25.808l-8.206-7.331zM518.826 444.759l.169-1.711c-27.219-24.406-50.55-45.257-50.55-45.257s23.325 21.78 50.381 46.968zM444.027 406.085s5.119 4.787 13.271 12.402a35864.163 35864.163 0 0059.556 55.518c.017-.926.036-1.827.057-2.699a28339.057 28339.057 0 00-33.409-29.94 38751.948 38751.948 0 00-39.475-35.281zM518.738 445.639a9.27 9.27 0 00.024-.234l-6.052-5.402 6.028 5.636zM520.657 423.828l.173-2.226c-34.741-31.213-69.164-62.007-69.164-62.007s34.488 32.177 68.991 64.233zM521.102 418.019l.081-1.082c-14.525-12.952-25.024-22.289-25.024-22.289s10.488 9.839 24.943 23.371zM523.818 383.781l.129-1.935c-34.95-31.441-66.431-59.673-66.431-59.673s31.527 29.34 66.302 61.608zM523.629 386.491l.1-1.417c-21.101-18.882-37.666-33.665-37.666-33.665s16.568 15.496 37.566 35.082zM522.805 396.938l.03-.346c-5.139-4.581-8.22-7.323-8.22-7.323l8.19 7.669zM523.314 390.745l.005-.059-1.537-1.373 1.532 1.432zM527.417 358.92v-.652c-10.31-9.228-16.939-15.154-16.939-15.154s6.64 6.2 16.939 15.806zM524.008 380.885l.098-1.541c-22.409-20.054-40.527-36.219-40.527-36.219s18.129 16.959 40.429 37.76zM524.153 378.568l.108-1.815c-29.021-26.043-54.199-48.566-54.199-48.566s25.215 23.523 54.091 50.381zM520.925 420.36l.041-.548c-8.76-7.829-14.299-12.775-14.299-12.773 0 0 5.529 5.168 14.258 13.321zM505.817 397.571c-23.939-21.387-45.194-40.294-45.194-40.294s30.961 29.041 59.934 56.055c-22.558-20.172-41.114-36.717-41.114-36.717s19.028 17.813 41.831 39.094c.145-1.961.271-3.732.378-5.237a30703.595 30703.595 0 00-43.799-39.071c-.001-.001 11.903 11.152 27.964 26.17zM522.648 398.7l.015-.154-11.287-10.314 11.272 10.468zM521.659 410.356l.08-1.147a41124.55 41124.55 0 00-32.281-28.888s13.661 12.758 32.201 30.035zM510.443 477.719a38169.564 38169.564 0 00-30.886-27.562c-4.386-3.91-6.973-6.214-6.973-6.214s20.573 19.284 44.196 41.34c-.008-1.3-.009-2.575-.006-3.825-28.614-25.638-55.146-49.31-55.146-49.31s22.831 21.355 48.815 45.571zM497.806 379.867c-15.27-13.689-25.725-23.044-25.723-23.044 0 0 22.798 21.261 50.103 46.653.063-.613.125-1.229.186-1.848-17.589-15.752-30.29-27.104-30.29-27.104l5.724 5.343zM521.755 408.968c.058-.822.105-1.529.146-2.109-29.134-26.098-56.759-50.741-56.757-50.741 0 0 27.677 25.896 56.611 52.85zM512.18 397.174c-8.417-7.528-13.663-12.215-13.663-12.215s9.495 8.864 23.389 21.817c.075-1.102.116-1.729.116-1.729l.128-1.214c-35.335-31.738-72.948-65.351-72.948-65.351s31.047 28.997 62.978 58.692zM522.931 395.477l.063-.74c-11.604-10.372-19.331-17.266-19.331-17.266s7.712 7.214 19.268 18.006zM524.213 366.162c-23.939-21.387-45.194-40.294-45.194-40.294s22.016 20.651 46.288 43.324c.221-1.01.452-1.907.678-2.688-16.987-15.164-29.733-26.514-29.733-26.514s11.901 11.156 27.961 26.172zM525.018 370.62c.063-.338.128-.66.194-.977-15.883-14.194-27.374-24.438-27.374-24.438s11.429 10.699 27.18 25.415zM526.167 365.899c.036-.119.073-.242.109-.354-7.219-6.457-11.636-10.405-11.636-10.405s4.377 4.087 11.527 10.759zM527.171 363.123c.049-.113.092-.208.128-.287-6.475-5.794-10.384-9.288-10.384-9.288s3.862 3.607 10.256 9.575zM526.509 364.842c.182-.528.347-.956.487-1.301-23.707-21.217-43.454-38.831-43.454-38.831s19.552 18.293 42.967 40.132zM447.422 434.999a48460.254 48460.254 0 0066.137 61.621 22351.28 22351.28 0 00-9.479-8.534c-5.034-4.529-10.27-9.233-15.566-13.991l28.656 26.481a321.873 321.873 0 01-.136-3.217c-3.356-3.015-6.719-6.032-10.058-9.028-30.874-27.701-59.554-53.332-59.554-53.332zM507.134 435.959s1.797 1.684 4.945 4.63c-30.929-27.776-58.393-52.356-58.393-52.356s11.434 10.659 27.803 25.899l-6.605-5.905s10.603 9.902 25.803 24.075c-30.004-26.891-59.18-52.914-59.18-52.914l1.863 1.742c-7.77-6.952-12.567-11.237-12.567-11.237s34.341 32.072 67.936 63.303c-15.39-13.779-26.133-23.379-26.131-23.379 0 0 13.121 12.254 31.067 28.985-25.809-23.081-49.458-44.136-49.458-44.136s11.901 11.157 27.963 26.173c-23.939-21.383-45.194-40.294-45.194-40.294s30.961 29.043 59.934 56.055a40859.91 40859.91 0 00-41.114-36.715s31.242 29.246 61.645 57.561c.032-.572.053-.89.053-.89l.09-.704.001-.019c.049-.373.098-.763.146-1.15.316-2.574.631-5.428.936-8.426-7.129-6.362-11.543-10.298-11.543-10.298zM524.675 372.725c.021-.143.041-.282.063-.422-6.301-5.613-10.182-9.063-10.182-9.063s3.861 3.621 10.119 9.485zM516.794 486.876l-.01-1.011c-14.396-12.872-24.438-21.832-24.438-21.832s10.07 9.419 24.448 22.843zM492.991 470.084l-3.775-3.396c-37.64-33.844-82.05-73.53-82.05-73.53s28.42 26.541 58.844 54.845c17.507 16.287 35.676 33.157 49.478 45.892l-5.322-4.756a28889.66 28889.66 0 00-39.271-35.018s7.622 7.146 18.869 17.671c7.791 7.29 17.317 16.199 27.27 25.491-.1-2.68-.165-5.327-.206-7.915-40.164-36.148-86.775-77.87-86.775-77.87s30.337 28.294 62.938 58.586zM516.82 476.139l.019-1.27a32754.183 32754.183 0 00-29.618-26.422c-.001.001 12.673 11.874 29.599 27.692zM516.824 489.199l-.018-1.156c-16.121-14.412-27.732-24.771-27.732-24.771s11.647 10.895 27.75 25.927zM517.323 459.855c.037-.757.071-1.406.099-1.912-23.781-21.244-44.897-40.026-44.897-40.026s18.816 17.655 40.782 38.186l4.016 3.752zM451.129 589.179l.447-.007c-6.273-5.603-10.087-9.006-10.087-9.006s3.638 3.404 9.64 9.013zM408.189 551.44a43437.687 43437.687 0 00-25.723-23.045s30.34 28.293 62.94 58.585c-30.792-27.701-67.421-60.47-80.695-72.34l-.017.188c10.093 9.42 33.721 31.464 57.867 53.918-8.417-7.528-13.663-12.214-13.663-12.214s10.604 9.902 25.805 24.071c-30.004-26.89-59.179-52.912-59.179-52.912s32.496 30.404 63.877 59.611a49281.615 49281.615 0 00-39.562-35.408s15.252 14.243 35.402 33.021c-24.836-22.206-47.008-41.945-47.008-41.945s11.901 11.157 27.962 26.173c-23.94-21.385-45.193-40.294-45.193-40.294s30.96 29.043 59.932 56.055a32935.213 32935.213 0 00-41.113-36.716s20.232 18.941 43.98 41.096c5.923.027 11.563-.012 16.797-.095-26.171-23.463-48.137-43.093-48.137-43.093l5.728 5.344zM421.755 559.804c9.804 9.104 20.623 19.147 31.609 29.336l.578-.011c-1.58-1.411-2.995-2.675-4.203-3.752l-27.984-25.573zM431.137 589.266l1.286.01c-14.968-13.348-25.882-23.054-25.882-23.054s10.322 9.683 24.596 23.044zM421.64 589.13c.703.015 1.402.028 2.1.041-25.791-23.093-48.177-43.065-48.177-43.065s21.27 19.896 46.077 43.024zM455.2 589.103l1.449-.031c-17.956-16.036-31.65-28.232-31.65-28.232S438 573.026 455.2 589.103zM428.423 589.24l.532.006c-7.362-6.579-11.908-10.636-11.908-10.636s4.332 4.051 11.376 10.63zM362.983 532.042c5.314 4.957 32.546 30.354 61.361 57.139.826.014 1.647.026 2.466.038a49635.281 49635.281 0 00-63.823-57.209l-.004.032zM456.902 589.066l1.867-.045a38121.047 38121.047 0 00-44.728-39.979c.001 0 19.446 18.189 42.861 40.024zM479.408 588.239c.649-.033 1.258-.066 1.823-.097-24.86-22.264-45.786-40.941-45.786-40.941s19.984 18.687 43.963 41.038zM466.981 588.773c.985-.034 1.94-.069 2.863-.105-34.512-30.981-73.401-65.687-73.401-65.687s37.025 34.628 70.538 65.792zM458.947 572.825c-32.013-28.711-64.987-58.128-64.987-58.128s39.365 36.825 73.45 68.513c-45.162-40.721-99.514-89.464-99.511-89.464 0 0 56.978 53.028 102.234 94.911 3.472-.136 6.472-.274 8.924-.4-41.353-37.276-98.614-88.5-98.614-88.5s41.139 38.38 78.504 73.068zM459.598 589c.555-.015 1.104-.029 1.645-.045-26.468-23.771-47.56-42.671-47.56-42.671s20.282 18.892 45.915 42.716zM462.201 588.927l1.284-.039c-18.039-16.142-31.323-28.003-31.323-28.003s12.69 11.861 30.039 28.042zM464.755 588.848l1.188-.039c-15.282-13.644-26.312-23.47-26.312-23.47s10.49 9.827 25.124 23.509zM391.87 585.704l-6.607-5.905 8.777 8.191 1.599.102c-18.384-16.486-31.572-28.287-31.57-28.287-.001-.001 11.43 10.658 27.801 25.899zM382.995 587.176c.552.047.876.065.876.065h.006c-10.661-9.519-17.691-15.786-17.689-15.786-.001.001 6.655 6.232 16.807 15.721zM358.549 562.597c6.818 6.388 16.181 15.153 26.43 24.734.693.057 1.387.112 2.08.166a36121.394 36121.394 0 00-28.43-25.353l-.08.453zM387.33 587.518l1.248.096c-14.029-12.519-23.978-21.376-23.978-21.376s9.386 8.799 22.73 21.28zM361.017 580.487c.64.475 1.326.916 2.043 1.328l-5.006-4.497c.767 1.188 1.783 2.236 2.963 3.169zM362.372 537.126c12.868 11.968 33.86 31.48 55.899 51.927.811.021 1.617.039 2.422.057a72410.7 72410.7 0 00-58.273-52.364l-.048.38zM356.848 571.623c4.308 4.015 9.194 8.567 14.479 13.488.631.175 1.258.338 1.876.486a47850.26 47850.26 0 00-16.232-14.545l-.123.571zM356.656 573.795c2.656 2.484 6.331 5.918 10.737 10.034.402.153.808.3 1.215.439l-11.991-10.709c.011.079.024.158.039.236zM389.746 587.698l.324.023-7.083-6.333s2.482 2.32 6.759 6.31zM359.286 558.355c8.682 8.097 19.756 18.421 31.573 29.423.807.057 1.613.111 2.419.164a42287.266 42287.266 0 00-33.877-30.279l-.115.692zM407.086 588.678l.476.021-12.275-11.006s4.445 4.14 11.799 10.985zM415.069 588.964c.573.018 1.146.034 1.716.05-21.608-19.337-38.74-34.626-38.74-34.626s16.285 15.232 37.024 34.576zM404.316 588.555l.431.021-9.1-8.125s3.244 3.035 8.669 8.104zM404.009 588.542l.1.005-5.99-5.474 5.89 5.469zM399.114 588.292l.931.052c-12.719-11.386-21.219-18.981-21.219-18.981s8.101 7.564 20.288 18.929zM496.701 583.45l.002-.057.019-.73a31993.362 31993.362 0 00-21.563-19.356 44692.526 44692.526 0 00-54.3-48.62s9.918 9.261 24.319 22.688a39857.932 39857.932 0 0051.476 47.911c.013-.577.03-1.201.047-1.836zM496.744 581.822l.012-.446c-6.515-5.814-10.5-9.365-10.5-9.365s3.985 3.731 10.488 9.811zM496.767 580.902l.021-.755-56.634-51.752a50830.782 50830.782 0 0056.613 52.507zM459.545 552.855s12.466 11.667 29.338 27.424c-31.625-28.377-61.587-55.156-61.587-55.156s10.604 9.902 25.805 24.073a39788.708 39788.708 0 00-53.563-47.899l-5.616-5.011s28.697 26.849 58.2 54.327c3.265 3.04 6.538 6.088 9.784 9.107a48493.88 48493.88 0 00-34.5-30.874l-2.386-2.132s13.118 12.254 31.067 28.979c-25.809-23.076-49.456-44.129-49.456-44.129a33612.705 33612.705 0 0027.96 26.171c-4.836-4.32-9.557-8.535-14.021-12.518-17.632-15.732-31.171-27.776-31.171-27.776s30.959 29.043 59.932 56.057c-22.558-20.174-41.113-36.718-41.113-36.718s41.968 39.29 75.955 70.879c-28.905-25.866-59.237-52.844-59.237-52.844s28.953 27.161 56.963 53.29c2.932-.164 4.55-.277 4.55-.277a158.67 158.67 0 0010.147-.505c.012-.405.023-.852.035-1.348-20.714-18.524-37.086-33.12-37.086-33.12z"/></svg>