<svg xmlns="http://www.w3.org/2000/svg" width="80" height="80" viewBox="505.38 83.143 80 80"><path fill="none" d="M585.378 135.133h.002v.108h-.002zM505.38 163.143h.699l-.699-.497v.497zM572.502 161.3l-.719-.511-.001.019.72.492z"/><path fill="none" d="M583.007 83.143l2.371 1.619v.221l-2.585-1.84h-2.582l5.167 3.527v.598l-5.795-4.125h-1.302c2.054 1.397 4.465 3.039 7.097 4.832v1.142c-2.902-2.068-5.75-4.099-8.375-5.973h-.614c2.302 1.568 5.419 3.691 8.989 6.126v.421c-3.664-2.611-6.859-4.892-9.181-6.548h-3.706c3.84 2.626 8.277 5.662 12.887 8.819v.681c-4.8-3.406-9.421-6.688-13.377-9.5h-.896a17615.5 17615.5 0 0114.272 9.738v.593c-5.716-4.068-10.921-7.777-14.502-10.331h-1.003a20172.12 20172.12 0 0115.505 10.636v.727c-5.691-4.029-11.242-7.962-16.038-11.363h-1.242c2.483 1.691 9.276 6.319 17.28 11.787v.557c-8.03-5.714-14.876-10.596-17.327-12.344h-9.873c6.845 4.673 17.397 11.885 27.2 18.607v1.915c-13.665-9.707-27.562-19.628-27.562-19.628s12.913 8.789 26.192 17.869c-6.728-4.785-11.423-8.129-11.423-8.129s2.323 1.583 6.047 4.125a18978.323 18978.323 0 01-20.765-14.759H505.38v65.144l3.133 2.137-.824-.588s8.897 6.056 19.516 13.307h.265l-5.009-3.566 2.924 1.994c-7.245-5.147-12.306-8.748-12.306-8.748s6.382 4.357 15.095 10.32h1.4c-5.937-4.223-9.962-7.092-9.962-7.092s4.212 2.872 10.39 7.092h1.625l-3.476-2.462 3.532 2.462h.066l-4.693-3.347 4.913 3.347h.951c-3.731-2.649-6.023-4.279-6.023-4.279l6.254 4.279h3.167c-9.491-6.754-17.052-12.149-17.052-12.149-.002 0 7.938 5.407 17.813 12.149h.615c-16.056-11.364-31.063-22.021-31.063-22.021s15.608 10.681 32.126 22.021h.389c-11.229-7.986-20.979-14.946-20.979-14.946s10.252 6.979 21.914 14.946h.24c-14.431-10.233-28.138-19.991-28.138-19.991s14.335 9.785 29.229 19.991h.685l-5.567-3.969 5.823 3.969h.932c-6.585-4.702-11.405-8.153-11.405-8.153s5.094 3.458 11.995 8.153h.583c-10.729-7.637-19.978-14.244-19.978-14.244s8.213 5.587 18.195 12.4c-12.823-9.123-26.527-18.931-26.527-18.931s9.407 6.385 20.004 13.608c-7.108-5.071-12.376-8.839-12.376-8.839s9.813 6.666 20.806 14.165c-8.918-6.34-15.67-11.151-15.67-11.151s7.675 5.233 17.511 11.958c-13.889-9.864-28.271-20.132-28.271-20.132s12.913 8.788 26.192 17.869c-6.727-4.786-11.421-8.129-11.421-8.129l6.046 4.125c-14.133-10.029-27.874-19.821-27.874-19.821s21 14.319 37.986 25.978c-14.43-10.229-27.859-19.784-27.859-19.784 0-.001 4.627 3.16 11.387 7.783l-2.535-1.805s10.05 6.852 21.886 14.95h.217l-4.829-3.444s1.93 1.313 5.056 3.444h.786a29355 29355 0 01-14.575-10.32L551 161.459l2.47 1.684h.542c-7.903-5.637-13.964-9.97-13.964-9.97s6.39 4.343 14.647 9.97h.089c-10.637-7.567-19.586-13.954-19.586-13.954s9.406 6.403 20.461 13.954h.353c-11.648-8.26-20.973-14.886-20.973-14.886s9.708 6.637 21.746 14.886h.411c-8.022-5.709-13.977-9.956-13.977-9.956s6.243 4.253 14.592 9.956h.551c-6.849-4.885-11.838-8.451-11.838-8.451s5.256 3.573 12.416 8.451h.446c-15.027-10.66-31.979-22.755-31.979-22.755s17.849 12.152 33.324 22.755h.108c-20.153-14.229-46.065-32.628-46.065-32.628s24.056 16.461 44.045 30.213c-15.088-10.701-32.51-23.137-32.51-23.137s14.593 9.934 28.763 19.63c-16.538-11.715-34.746-24.676-34.746-24.676s26.313 17.961 44.68 30.598h.132c-11.055-7.861-20.468-14.576-20.468-14.576s9.885 6.731 21.363 14.576h.27c-12.718-9.05-26.283-18.759-26.283-18.759s13.426 9.11 26.22 17.845c-15.043-10.668-33.619-23.936-33.619-23.936s8.213 5.586 18.197 12.4c-12.823-9.123-26.527-18.931-26.527-18.931s6.036 4.097 13.88 9.436c-5.958-4.239-10.002-7.12-10.002-7.12l7.093 4.841-3.343-2.389s10.468 7.11 21.891 14.903c-7.945-5.648-13.752-9.787-13.752-9.787l1.042.711-2.545-1.82c0-.001 5.833 3.96 13.515 9.192-13.063-9.285-25.776-18.359-25.776-18.359l2.472 1.683c-10.23-7.27-18.417-13.104-18.417-13.104s21.002 14.319 37.987 25.979c-14.429-10.23-27.858-19.785-27.858-19.785s22.427 15.315 40.662 27.846c-8.27-5.888-14.535-10.361-14.535-10.361l2.342 1.595c-6.355-4.521-10.729-7.637-10.729-7.637 0-.001 11.261 7.677 23.982 16.383a15994.017 15994.017 0 01-14.148-10.083c0-.001 7.771 5.29 17.496 11.93-12.921-9.188-26.242-18.714-26.242-18.714s7.499 5.097 16.755 11.406c-11.498-8.178-21.604-15.39-21.604-15.39s15.803 10.758 30.517 20.831c-15.707-11.125-30.674-21.763-30.674-21.763s16.654 11.387 33.389 22.874c-13.019-9.249-25.21-17.943-25.21-17.943s14.065 9.583 28.233 19.28c-12.546-8.925-24.927-17.774-24.927-17.774s12.214 8.302 24.777 16.883c-15.934-11.236-43.896-31.188-43.896-31.188s20.942 14.258 37.127 25.362c-20.519-14.47-49.76-35.236-49.76-35.236s24.056 16.462 44.045 30.213c-15.087-10.701-32.51-23.137-32.51-23.137s14.594 9.935 28.764 19.63c-16.537-11.713-34.745-24.675-34.745-24.675s30.682 20.942 48.907 33.51c-12.722-9.04-24.563-17.488-24.563-17.488s14.345 9.77 28.542 19.485c-14.12-10.016-33.192-23.669-33.192-23.669s13.424 9.112 26.22 17.845c-15.045-10.668-33.621-23.936-33.621-23.936s8.215 5.587 18.198 12.399a13607.876 13607.876 0 01-26.526-18.931c-.002 0 9.407 6.386 20.004 13.608-7.11-5.071-12.378-8.838-12.378-8.838s10.468 7.11 21.891 14.904c-7.944-5.65-13.752-9.789-13.752-9.789s4.755 3.242 11.565 7.895c-14.867-10.547-30.067-21.377-30.067-21.377s2.123 1.447 5.563 3.795l-.825-.588s12.913 8.788 26.192 17.869c-6.727-4.785-11.421-8.13-11.421-8.13l2.924 1.994c-7.246-5.146-12.305-8.747-12.305-8.747s12.153 8.301 25.845 17.681l-2.189-1.563s5.215 3.547 12.394 8.441c-5.878-4.188-9.925-7.076-9.925-7.076s4.614 3.141 11.171 7.612c-15.115-10.718-30.764-21.868-30.764-21.868s18.699 12.751 35.131 24.021c-11.754-8.366-22.837-16.292-22.837-16.292s7.224 4.909 16.242 11.056c-6.859-4.85-13.875-9.817-19.996-14.155l6.563 4.576c-4.63-3.298-7.66-5.46-7.66-5.46s15.802 10.758 30.517 20.83c-15.708-11.124-30.674-21.762-30.674-21.762s16.655 11.388 33.391 22.874c-13.021-9.249-25.212-17.943-25.212-17.943s14.064 9.582 28.234 19.279c-12.547-8.923-24.929-17.775-24.929-17.775s12.215 8.303 24.779 16.883c-15.934-11.235-43.896-31.188-43.896-31.188s20.942 14.259 37.126 25.363c-20.518-14.47-49.76-35.236-49.76-35.236s24.057 16.461 44.045 30.212c-15.086-10.701-32.51-23.136-32.51-23.136s14.595 9.934 28.765 19.63c-16.538-11.713-34.746-24.675-34.746-24.675s30.681 20.941 48.908 33.51c-12.724-9.041-24.564-17.488-24.564-17.488 0-.001 14.344 9.77 28.543 19.485-14.12-10.015-33.193-23.668-33.193-23.668 0-.001 13.426 9.111 26.219 17.846-15.043-10.668-33.619-23.937-33.619-23.937s8.214 5.587 18.198 12.4c-12.824-9.122-26.528-18.93-26.528-18.93s9.408 6.386 20.004 13.609c-7.108-5.073-12.377-8.84-12.377-8.84s9.814 6.666 20.808 14.165c-8.92-6.341-15.67-11.15-15.67-11.15s7.673 5.231 17.511 11.958c-13.891-9.864-28.272-20.132-28.272-20.132s12.913 8.79 26.192 17.871c-6.728-4.787-11.421-8.131-11.421-8.131l6.045 4.126c-14.133-10.03-27.873-19.821-27.873-19.821s21 14.319 37.986 25.978c-14.431-10.23-27.859-19.785-27.859-19.785s4.626 3.16 11.384 7.783c-1.61-1.148-2.533-1.804-2.533-1.804s13.289 9.061 27.305 18.659c-5.937-4.23-10.03-7.152-10.03-7.152s6.425 4.374 14.887 10.148l-3.217-2.295s3.413 2.319 8.504 5.789v-.041l-4.563-3.247a21891.097 21891.097 0 01-24.346-17.229l12.388 8.636c2.979 2.029 8.682 5.917 15.29 10.428-12.921-9.188-26.242-18.714-26.242-18.714s7.501 5.097 16.757 11.404c-11.5-8.176-21.605-15.388-21.605-15.388s15.802 10.756 30.517 20.831c-15.708-11.125-30.676-21.762-30.676-21.762 0-.001 14.392 9.838 29.858 20.449l-14.598-10.293c2.353 1.612 4.667 3.199 6.901 4.733-8.029-5.714-13.982-9.96-13.982-9.96l2.423 1.652c-7.836-5.572-13.529-9.628-13.529-9.628s12.712 8.669 26.388 18.032c-6.921-4.936-11.977-8.55-11.977-8.55l4.31 2.931c-4.967-3.546-8.331-5.953-8.331-5.953 0-.001 7.892 5.358 17.414 11.849a14422.86 14422.86 0 01-19.265-13.694c-13.582-9.641-26.356-18.743-26.356-18.743s19.632 13.384 36.283 24.81c-17.709-12.527-35.805-25.377-35.805-25.377s24.057 16.461 44.046 30.213c-15.087-10.702-32.51-23.137-32.51-23.137s14.594 9.935 28.766 19.63c-16.541-11.714-34.749-24.676-34.749-24.676s12.51 8.539 26.299 17.984c3.058 2.079 7.904 5.377 13.381 9.11-11.5-8.177-21.605-15.389-21.605-15.389s14.82 10.088 29.118 19.874v.033l.002.001v-.149l-.002-.001v.083c-15.184-10.756-29.277-20.772-29.277-20.772l6.574 4.498-4.796-3.43s10.517 7.137 21.804 14.833c-8.735-6.215-15.402-10.97-15.402-10.97l3.568 2.432a16817.043 16817.043 0 01-17.369-12.385s8.215 5.586 18.197 12.399c-12.823-9.123-26.525-18.931-26.525-18.931s9.405 6.385 20.002 13.607c-7.108-5.07-12.376-8.838-12.376-8.838l4.569 3.106c-3.605-2.569-5.878-4.191-5.878-4.191s7.769 5.29 17.496 11.932c-4.867-3.464-8.049-5.731-8.049-5.731s7.073 4.821 16.325 11.146l-1.162-.825c-18.154-12.839-37.244-26.396-37.244-26.396s16.954 11.602 34.223 23.462c-6.571-4.674-11.134-7.926-11.134-7.926l7.599 5.186c-10.438-7.426-19.151-13.646-19.151-13.646 0-.001 14.594 9.935 28.764 19.631-16.537-11.714-34.745-24.676-34.745-24.676s7.147 4.879 16.59 11.338l-1.906-1.358s14.448 9.854 29.106 19.893c-10.607-7.544-19.446-13.851-19.446-13.851 0-.001 8.916 6.072 19.645 13.402v.159l.002.001v-.275a21483.769 21483.769 0 01-20.766-14.699l14.549 10.145c-9.735-6.942-18.08-12.917-18.08-12.917s12.115 8.222 24.295 16.534v.716l.002.001V83.143h-2.383zm2.371 38.246c-14.655-10.401-31.696-22.572-31.696-22.572s8.213 5.587 18.198 12.399c-12.822-9.123-26.526-18.931-26.526-18.931s9.407 6.386 20.002 13.607c-7.108-5.071-12.375-8.838-12.375-8.838s10.467 7.11 21.89 14.904c-7.944-5.65-13.752-9.788-13.752-9.788s4.755 3.241 11.565 7.895c-14.869-10.547-30.067-21.377-30.067-21.377s2.123 1.447 5.563 3.795l-.825-.588s12.913 8.788 26.192 17.869c-6.728-4.786-11.421-8.13-11.421-8.13l2.924 1.994c-7.245-5.147-12.306-8.747-12.306-8.747s12.156 8.301 25.846 17.682l-2.189-1.564s3.62 2.462 8.978 6.115v4.275zm0-4.381l-6.509-4.643s2.532 1.724 6.509 4.435v.208zm0-.336c-13.504-9.587-26.101-18.563-26.101-18.563s12.537 8.551 26.101 17.836v.727zm0-.974c-7.83-5.585-13.808-9.859-13.808-9.859s5.96 4.048 13.808 9.396v.463zm0-.525c-6.068-4.292-12.162-8.607-17.562-12.434l6.563 4.577c-4.63-3.299-7.658-5.461-7.658-5.461s8.4 5.72 18.656 12.724v.594zm0-.893c-10.622-7.534-18.815-13.357-18.815-13.357s8.171 5.587 18.815 12.881v.476zm0-.848c-6.281-4.473-10.637-7.578-10.637-7.578s4.346 2.96 10.637 7.255v.323zm0-.838c-4.424-3.157-7.33-5.235-7.33-5.235s2.901 1.972 7.33 4.988v.247zm0-.711c-13.364-9.495-26.447-18.83-26.447-18.83s13.012 8.859 26.447 18.049v.781zm0-1.008c-18.677-13.208-39.081-27.695-39.081-27.695 0-.001 20.288 13.882 39.081 26.799v.896zm0-1.006c-13.695-9.727-27.546-19.614-27.546-19.614s13.771 9.375 27.546 18.797v.817zm0-.846c-16.201-11.479-33.527-23.813-33.527-23.813s17.225 11.757 33.527 22.939v.874zm0-1.245c-5.484-3.907-9.184-6.546-9.184-6.546l9.184 6.262v.284zm0-.841c-7.796-5.566-13.834-9.888-13.834-9.888s6.019 4.085 13.834 9.406v.482zm0-.841c-11.254-8.009-21.234-15.138-21.234-15.138s8.214 5.586 18.198 12.399c-12.824-9.123-26.528-18.93-26.528-18.93s9.408 6.386 20.004 13.608c-7.108-5.072-12.377-8.839-12.377-8.839s9.814 6.667 20.807 14.165c-8.919-6.34-15.67-11.152-15.67-11.152s7.308 4.984 16.801 11.474v2.413zm0-4.425c-13.083-9.28-24.491-17.397-24.491-17.397s4.628 3.16 11.386 7.783l-2.535-1.805s6.72 4.582 15.641 10.681v.738zm0-1.76l-7.1-5.03 7.1 4.952v.078zm0-.632l-5.666-4.048s2.192 1.489 5.666 3.854v.194zm0-.536c-6.198-4.416-10.515-7.496-10.515-7.496s4.307 2.932 10.515 7.167v.329zm0-.847c-6.388-4.535-10.674-7.581-10.674-7.581s4.279 2.924 10.674 7.304v.277zm0-.871l-2.493-1.779 2.493 1.7v.079zm0-5.657l-1.041-.744 1.041.711v.033zm0-.855c-3.477-2.486-5.691-4.072-5.691-4.072s2.21 1.5 5.691 3.867v.205zm0-2.779l-5.655-4.028s2.161 1.473 5.655 3.859v.169zm0-1.255l-4.646-3.31s1.75 1.192 4.646 3.171v.139z"/><path fill="none" d="M585.378 135.948h.002v.021h-.002zM505.38 162.569l.841.574h8.602l-6.019-4.29s2.44 1.661 6.297 4.29h1.038a22529.91 22529.91 0 01-10.759-7.628v7.054zM577.958 83.143h-.287l6.29 4.284-6.003-4.284zM585.378 122.664h.002v.414h-.002zM585.378 124.628h.002v.021h-.002zM505.38 153.508c3.209 2.191 8.267 5.648 14.096 9.635h2.353l-.412-.295.435.295h1.114a15236 15236 0 01-8.948-6.385c-.001 0 3.806 2.588 9.378 6.385h.375c-9.75-6.952-18.083-12.917-18.083-12.917s8.815 5.984 18.989 12.917h.046c-6.611-4.716-11.407-8.147-11.407-8.147s5.059 3.436 11.977 8.147h.417l-4.255-3.03 4.442 3.03h.271c-8.829-6.27-16.902-12.018-20.786-14.782v5.147zM585.378 134.368h.002v.088h-.002zM505.38 155.286c3.257 2.231 7.189 4.926 11.463 7.857h.803c-5.886-4.194-9.94-7.088-9.94-7.088 0-.001 4.258 2.897 10.401 7.088h.682a29354.48 29354.48 0 01-13.408-9.53v1.673zM585.378 123.884h.002v.353h-.002zM585.378 130.299h.002v.037h-.002z"/><path d="M585.378 122.252c-2.091-1.488-4.182-2.979-6.215-4.428l-14.549-10.145c6.352 4.501 13.662 9.679 20.766 14.699v-.22l-.002-.001v.095zM585.378 134.456h.002v.677h-.002zM585.378 135.241h.002v.707h-.002zM568.693 123.086l-4.31-2.931s5.056 3.614 11.977 8.55l5.306 3.634c-4.731-3.369-9.291-6.623-12.973-9.253zM585.378 131.009c-12.267-8.73-24.27-17.313-24.27-17.313l3.376 2.295c-13.789-9.445-26.299-17.984-26.299-17.984s18.208 12.961 34.749 24.676c-14.172-9.695-28.766-19.63-28.766-19.63s17.423 12.435 32.51 23.137c-19.989-13.752-44.046-30.213-44.046-30.213s18.096 12.85 35.805 25.377l1.703 1.168c-14.429-10.229-27.857-19.785-27.857-19.785s22.425 15.315 40.66 27.845c-8.27-5.888-14.537-10.361-14.537-10.361s7.506 5.109 16.972 11.572v2.574l.002.001v-4.032l-.002-.001v.674zm0 .533c-8.761-6.237-15.523-11.062-15.523-11.062s6.742 4.59 15.523 10.584v.478zM563.501 120.302l-2.423-1.652s5.953 4.247 13.982 9.96l4.184 2.874c-5.507-3.907-11.015-7.82-15.743-11.182zM552.069 149.731c-7.682-5.231-13.515-9.193-13.515-9.192l2.545 1.82c2.28 1.555 8.121 5.54 15.284 10.437l-4.314-3.065zM585.378 122.653h.002v.012h-.002zM535.261 138.92c-4.33-2.957-7.093-4.841-7.093-4.841s4.044 2.881 10.002 7.12c1.952 1.329 4.012 2.731 6.124 4.171-3.656-2.608-6.817-4.867-9.033-6.45zM580.093 135.311c-8.462-5.774-14.887-10.148-14.887-10.148s4.094 2.922 10.03 7.152c-14.016-9.598-27.305-18.659-27.305-18.659s.923.656 2.533 1.804c-6.758-4.623-11.384-7.783-11.384-7.783s13.429 9.555 27.859 19.785c-16.986-11.659-37.986-25.978-37.986-25.978s13.74 9.792 27.873 19.821l-6.045-4.126s4.693 3.344 11.421 8.131c-13.279-9.081-26.192-17.871-26.192-17.871s14.382 10.269 28.272 20.132c-9.838-6.726-17.511-11.958-17.511-11.958s6.75 4.81 15.67 11.15a13857.203 13857.203 0 00-20.808-14.165s5.269 3.767 12.377 8.84c-10.596-7.223-20.004-13.609-20.004-13.609s13.704 9.808 26.528 18.93c-9.984-6.813-18.198-12.4-18.198-12.4s18.576 13.268 33.619 23.937a12804.583 12804.583 0 00-26.219-17.846s19.073 13.654 33.193 23.668a18042.552 18042.552 0 00-28.543-19.485s11.841 8.447 24.564 17.488c-18.228-12.568-48.908-33.51-48.908-33.51s18.208 12.962 34.746 24.675c-14.17-9.696-28.765-19.63-28.765-19.63s17.424 12.435 32.51 23.136c-19.988-13.751-44.045-30.212-44.045-30.212s29.242 20.766 49.76 35.236c-16.184-11.104-37.126-25.363-37.126-25.363s27.962 19.953 43.896 31.188c-12.564-8.58-24.779-16.883-24.779-16.883s12.382 8.852 24.929 17.775c-14.17-9.697-28.234-19.279-28.234-19.279s12.191 8.694 25.212 17.943c-16.735-11.486-33.391-22.874-33.391-22.874s14.966 10.639 30.674 21.762c-14.715-10.072-30.517-20.83-30.517-20.83s3.03 2.162 7.66 5.46l-6.563-4.576c6.121 4.338 13.137 9.305 19.996 14.155-9.019-6.147-16.242-11.056-16.242-11.056s11.083 7.926 22.837 16.292c-16.432-11.27-35.131-24.021-35.131-24.021s15.648 11.15 30.764 21.868c-6.557-4.471-11.171-7.612-11.171-7.612s4.047 2.888 9.925 7.076c-7.179-4.895-12.394-8.441-12.394-8.441s.796.567 2.189 1.563c-13.691-9.379-25.845-17.681-25.845-17.681s5.059 3.601 12.305 8.747l-2.924-1.994s4.694 3.345 11.421 8.13c-13.279-9.081-26.192-17.869-26.192-17.869s.288.207.825.588c-3.44-2.349-5.563-3.795-5.563-3.795s15.2 10.831 30.067 21.377c-6.811-4.652-11.565-7.895-11.565-7.895s5.808 4.138 13.752 9.789c-11.423-7.794-21.891-14.904-21.891-14.904s5.268 3.767 12.378 8.838c-10.597-7.222-20.006-13.608-20.004-13.608 0 0 13.704 9.808 26.526 18.931-9.983-6.813-18.198-12.399-18.198-12.399s18.576 13.268 33.621 23.936c-12.796-8.733-26.22-17.845-26.22-17.845s19.072 13.654 33.192 23.669c-14.197-9.716-28.542-19.485-28.542-19.485s11.842 8.448 24.563 17.488c-18.226-12.567-48.907-33.51-48.907-33.51s18.208 12.962 34.745 24.675c-14.17-9.695-28.764-19.63-28.764-19.63s17.423 12.436 32.51 23.137c-19.989-13.75-44.045-30.213-44.045-30.213s29.241 20.766 49.76 35.236c-16.185-11.104-37.127-25.362-37.127-25.362s27.962 19.952 43.896 31.188c-12.563-8.582-24.777-16.883-24.777-16.883s12.381 8.85 24.927 17.774c-14.168-9.697-28.233-19.28-28.233-19.28s12.191 8.694 25.21 17.943c-16.734-11.486-33.389-22.874-33.389-22.874s14.967 10.638 30.674 21.763c-14.714-10.073-30.517-20.831-30.517-20.831s10.106 7.212 21.604 15.39c-9.256-6.31-16.755-11.407-16.755-11.406 0 0 13.321 9.526 26.242 18.714-9.726-6.64-17.496-11.931-17.496-11.93 0 0 6.064 4.328 14.148 10.083l9.595 6.572-.009.247.719.511-.72-.492-.021.621a16895.968 16895.968 0 01-22.816-16.205l-2.342-1.595s6.266 4.473 14.535 10.361c-18.235-12.531-40.662-27.846-40.662-27.846s13.43 9.555 27.858 19.785c-16.985-11.659-37.987-25.979-37.987-25.979s8.187 5.833 18.417 13.104c4.373 2.978 13.944 9.501 23.722 16.186-6.727-4.785-11.421-8.129-11.421-8.129s13.262 9.043 27.259 18.626c-7.467-5.321-12.984-9.262-12.984-9.262s7.245 4.929 16.414 11.187l-.018.533c-.01.213-.019.545-.027.948h13.672v-24.339c-5.091-3.469-8.504-5.789-8.504-5.789l3.219 2.301zm-8.291 24.949l-4.642-3.314s1.764 1.198 4.647 3.162l-.005.152zm.011-.311a23980.076 23980.076 0 01-25.058-17.731l25.065 17.476-.007.255zM558.511 115.288c5.787 4.121 12.727 9.057 19.265 13.694l2.322 1.583a7434.815 7434.815 0 01-21.587-15.277zM585.378 136.019l-2.621-1.848a23594.006 23594.006 0 00-29.858-20.449s14.968 10.638 30.676 21.762c-14.715-10.074-30.517-20.831-30.517-20.831s10.105 7.212 21.605 15.388c-9.256-6.308-16.757-11.404-16.757-11.404s13.321 9.526 26.242 18.714c-6.608-4.511-12.312-8.399-15.29-10.428l-12.388-8.636c7.427 5.261 16.165 11.45 24.346 17.229a6898.22 6898.22 0 014.563 3.247v-2.792l-.002-.001v.049zM585.378 129.621h.002v.678h-.002zM585.378 124.237h.002v.392h-.002zM585.378 126.12a13511.75 13511.75 0 01-12.299-8.687l1.162.825c-9.252-6.325-16.325-11.146-16.325-11.146s3.182 2.267 8.049 5.731c6.177 4.217 13.14 8.978 19.413 13.281v1.039a13330.995 13330.995 0 01-31.031-22.061l-4.569-3.106s5.268 3.768 12.376 8.838c-10.597-7.222-20.002-13.607-20.002-13.607s13.702 9.808 26.525 18.931a12990.17 12990.17 0 00-18.197-12.399s7.793 5.566 17.369 12.385c3.829 2.611 10.339 7.053 17.529 11.968v.62l-5.695-4.05c-11.287-7.696-21.804-14.833-21.804-14.833l4.796 3.43c5.526 3.782 13.91 9.522 22.703 15.554v.638l.002.001v-4.822l-.002-.001v1.471zm0 1.791c-9.715-6.922-17.791-12.695-17.791-12.695s8.044 5.468 17.791 12.115v.58zM585.378 123.083l-.198-.141c-14.658-10.039-29.106-19.893-29.106-19.893l1.906 1.358c8.452 5.782 18.742 12.831 27.398 18.785v.691l.002.001v-.806l-.002-.001v.006z"/><path d="M566.523 111.759c-4.619-3.154-7.599-5.186-7.599-5.186s4.563 3.251 11.134 7.926c3.302 2.268 6.615 4.544 9.823 6.751-4.419-3.134-9.035-6.415-13.358-9.491zM585.378 97.025v-.079l-2.493-1.7 2.493 1.779zM585.378 99.911v-.078l-7.1-4.952 7.1 5.03zM585.378 90.513v-.205l-5.691-3.867 5.691 4.072zM585.378 99.279v-.194c-3.474-2.365-5.666-3.854-5.666-3.854l5.666 4.048zM585.378 98.743v-.329c-6.208-4.234-10.515-7.167-10.515-7.167s4.317 3.081 10.515 7.496zM585.378 87.734v-.169c-3.494-2.386-5.655-3.859-5.655-3.859l5.655 4.028zM585.378 97.896v-.277c-6.395-4.38-10.674-7.304-10.674-7.304s4.287 3.046 10.674 7.581zM585.378 91.368v-.033l-1.041-.71zM585.378 86.479v-.138c-2.896-1.979-4.646-3.171-4.646-3.171l4.646 3.309zM572.273 92.057c-6.758-4.623-11.386-7.783-11.386-7.783s11.408 8.117 24.491 17.397v-.739c-8.921-6.099-15.641-10.681-15.641-10.681l2.536 1.806zM574.38 107.315l-6.563-4.577a20179.25 20179.25 0 0017.562 12.434v-.594c-10.256-7.004-18.656-12.724-18.656-12.724s3.027 2.163 7.657 5.461zM578.59 112.562c-13.689-9.381-25.846-17.682-25.846-17.682s5.061 3.6 12.306 8.747l-2.924-1.994s4.693 3.344 11.421 8.13c-13.279-9.081-26.192-17.869-26.192-17.869l.825.588c-3.44-2.348-5.563-3.795-5.563-3.795s15.198 10.831 30.067 21.377c-6.811-4.654-11.565-7.895-11.565-7.895s5.808 4.138 13.752 9.788c-11.423-7.794-21.89-14.904-21.89-14.904s5.267 3.767 12.375 8.838c-10.595-7.222-20.002-13.607-20.002-13.607s13.704 9.808 26.526 18.931c-9.985-6.813-18.198-12.399-18.198-12.399s17.041 12.171 31.696 22.572v-4.276c-5.357-3.653-8.978-6.115-8.978-6.115s.797.568 2.19 1.565zM585.378 112.594v-.248c-4.429-3.016-7.33-4.988-7.33-4.988s2.907 2.079 7.33 5.236zM585.378 114.28v-.477c-10.645-7.294-18.815-12.881-18.815-12.881s8.193 5.824 18.815 13.358zM585.378 116.672v-.727c-13.563-9.285-26.101-17.836-26.101-17.836s12.598 8.975 26.101 18.563zM584.248 103.362c-10.992-7.498-20.807-14.165-20.807-14.165s5.269 3.767 12.377 8.839c-10.596-7.223-20.004-13.608-20.004-13.608s13.704 9.808 26.528 18.93c-9.984-6.813-18.198-12.399-18.198-12.399s9.98 7.129 21.234 15.138v-2.412c-9.493-6.49-16.801-11.474-16.801-11.474s6.752 4.811 15.671 11.151zM585.378 117.008v-.208c-3.977-2.711-6.509-4.435-6.509-4.435l6.509 4.643zM585.378 115.698v-.462c-7.848-5.348-13.808-9.396-13.808-9.396s5.978 4.272 13.808 9.858zM585.378 107.778v-.285l-9.184-6.262s3.7 2.64 9.184 6.547zM585.378 109.023v-.874c-16.303-11.182-33.527-22.939-33.527-22.939s17.326 12.335 33.527 23.813zM585.378 106.937v-.482c-7.815-5.321-13.834-9.406-13.834-9.406s6.039 4.322 13.834 9.888zM585.378 110.875v-.896a25394.957 25394.957 0 00-39.081-26.799s20.405 14.487 39.081 27.695zM585.378 109.869v-.816c-13.774-9.422-27.546-18.797-27.546-18.797s13.851 9.886 27.546 19.613zM585.378 111.883v-.781c-13.436-9.19-26.447-18.049-26.447-18.049s13.083 9.335 26.447 18.83zM585.378 113.432v-.323c-6.291-4.295-10.637-7.255-10.637-7.255s4.356 3.105 10.637 7.578zM585.378 91.962c-4.609-3.157-9.047-6.193-12.887-8.819h-.49c3.956 2.812 8.577 6.094 13.377 9.5v-.681zM585.378 89.27c-3.57-2.435-6.688-4.559-8.989-6.126h-.191c2.321 1.656 5.517 3.937 9.181 6.548v-.422zM585.378 92.881a17615.5 17615.5 0 00-14.272-9.738h-.229c3.581 2.554 8.786 6.263 14.502 10.331v-.593zM585.378 94.93a15090.08 15090.08 0 00-17.28-11.787h-.047c2.451 1.748 9.297 6.629 17.327 12.344v-.557zM585.378 93.779c-5.49-3.77-10.84-7.439-15.505-10.636h-.533c4.796 3.4 10.347 7.334 16.038 11.363v-.727zM572.586 93.776s4.695 3.344 11.423 8.129c-13.279-9.08-26.192-17.869-26.192-17.869s13.896 9.921 27.562 19.628v-1.915a17093.076 17093.076 0 00-27.2-18.607h-.31c5.316 3.784 12.979 9.234 20.765 14.759-3.724-2.542-6.048-4.125-6.048-4.125zM585.378 87.975l-7.097-4.832h-.323l6.003 4.284-6.29-4.284h-.668c2.625 1.874 5.473 3.905 8.375 5.973v-1.141zM585.378 84.762l-2.371-1.619h-.214c.787.561 1.649 1.175 2.585 1.84v-.221zM585.378 86.67c-1.785-1.22-3.515-2.4-5.167-3.527h-.628l5.795 4.125v-.598zM585.378 122.157v-.716c-12.18-8.312-24.295-16.534-24.295-16.534s8.345 5.975 18.08 12.917c2.033 1.449 4.124 2.94 6.215 4.428v-.095zM585.378 126.124a15479.086 15479.086 0 00-36.909-25.213s2.272 1.622 5.878 4.191c7.362 5.248 20.314 14.472 31.031 22.061v-1.039zM585.378 128.111c-7.19-4.916-13.7-9.357-17.529-11.968l-3.568-2.432a21948.21 21948.21 0 0021.097 15.02v-.62z"/><path d="M585.378 124.649V123.192a13461.344 13461.344 0 00-27.398-18.785c-9.442-6.459-16.59-11.338-16.59-11.338s18.208 12.962 34.745 24.676a16133.905 16133.905 0 00-28.764-19.631s8.714 6.22 19.151 13.646c4.323 3.076 8.939 6.357 13.358 9.491-3.208-2.207-6.521-4.484-9.823-6.751-17.269-11.86-34.223-23.462-34.223-23.462s19.09 13.556 37.244 26.396c4.235 2.995 8.42 5.951 12.299 8.687v-1.472zM585.378 127.911v-.58c-9.747-6.647-17.791-12.115-17.791-12.115s8.077 5.773 17.791 12.695zM585.378 123.077v-.585a16400.726 16400.726 0 00-19.645-13.402s8.839 6.307 19.446 13.851l.198.141v-.005zM562.675 113.278l-6.574-4.498s14.094 10.016 29.277 20.772v-.721a26111.147 26111.147 0 00-22.703-15.553zM585.378 135.969v-4.175c-9.466-6.463-16.972-11.572-16.972-11.572s6.268 4.474 14.537 10.361c-18.235-12.53-40.66-27.845-40.66-27.845s13.429 9.556 27.857 19.785l-1.703-1.168c-16.651-11.425-36.283-24.81-36.283-24.81s12.774 9.102 26.356 18.743a7299.91 7299.91 0 0021.587 15.277l-2.322-1.583c-9.522-6.491-17.414-11.85-17.414-11.849a14386.676 14386.676 0 0021.304 15.206l-5.306-3.634c-13.676-9.362-26.388-18.032-26.388-18.032a20162.07 20162.07 0 0029.272 20.811l-4.184-2.874a7201.922 7201.922 0 00-6.901-4.733l14.598 10.293 2.621 1.848v-.049zM585.378 131.009v-1.421c-14.298-9.786-29.118-19.874-29.118-19.874s10.105 7.212 21.605 15.389c-5.477-3.732-10.323-7.031-13.381-9.11-2.11-1.436-3.376-2.295-3.376-2.295s12.004 8.581 24.27 17.311zM585.378 131.542v-.478c-8.781-5.994-15.523-10.584-15.523-10.584s6.763 4.826 15.523 11.062zM552.174 163.143h.227c-3.126-2.131-5.056-3.444-5.056-3.444l4.829 3.444zM554.011 163.143h.684c-8.258-5.627-14.647-9.97-14.647-9.97s6.06 4.333 13.963 9.97zM532.607 149.998c-6.76-4.623-11.387-7.784-11.387-7.783 0 0 13.43 9.555 27.859 19.784-16.986-11.659-37.986-25.978-37.986-25.978s13.741 9.792 27.874 19.821l-6.046-4.125s4.694 3.344 11.421 8.129c-13.279-9.081-26.192-17.869-26.192-17.869s14.383 10.268 28.271 20.132c-9.836-6.725-17.511-11.958-17.511-11.958s6.752 4.811 15.67 11.151c-10.992-7.5-20.806-14.165-20.806-14.165s5.268 3.768 12.376 8.839c-10.597-7.223-20.004-13.608-20.004-13.608s13.704 9.808 26.527 18.931a14491.663 14491.663 0 00-18.195-12.4s9.248 6.607 19.978 14.244h7.501c-11.836-8.098-21.886-14.95-21.886-14.95l2.536 1.805zM538.612 152.823c4.514 3.197 9.512 6.738 14.575 10.32h.282l-2.47-1.684-12.387-8.636zM540.321 163.143h1.091c-14.894-10.206-29.229-19.991-29.229-19.991s13.707 9.758 28.138 19.991zM539.146 163.143h.935c-11.662-7.967-21.914-14.946-21.914-14.946s9.75 6.96 20.979 14.946zM543.284 163.143h.59c-6.901-4.695-11.995-8.153-11.995-8.153s4.82 3.451 11.405 8.153zM542.096 163.143h.256l-5.823-3.969 5.567 3.969zM557.196 163.143h.615c-8.349-5.702-14.592-9.956-14.592-9.956s5.954 4.247 13.977 9.956zM565.138 163.143h.896c-11.479-7.845-21.363-14.576-21.363-14.576s9.412 6.715 20.467 14.576zM537.694 163.143h1.063c-16.518-11.341-32.126-22.021-32.126-22.021s15.007 10.657 31.063 22.021zM555.073 157.221c-14.17-9.696-28.763-19.63-28.763-19.63s17.422 12.436 32.51 23.137c-19.989-13.751-44.045-30.213-44.045-30.213s25.912 18.399 46.065 32.628h4.166c-18.366-12.637-44.68-30.598-44.68-30.598s18.209 12.961 34.747 24.676zM556.011 163.143h.773c-12.038-8.249-21.746-14.886-21.746-14.886s9.325 6.626 20.973 14.886zM559.386 163.143h1.346c-15.476-10.603-33.324-22.755-33.324-22.755s16.951 12.095 31.978 22.755zM554.784 163.143h.875c-11.055-7.551-20.461-13.954-20.461-13.954s8.949 6.387 19.586 13.954zM558.362 163.143h.578c-7.16-4.878-12.416-8.451-12.416-8.451s4.989 3.566 11.838 8.451zM521.829 163.143h.022l-.435-.295.413.295zM517.646 163.143h.461c-6.144-4.19-10.401-7.089-10.401-7.088 0 0 4.054 2.894 9.94 7.088zM505.38 153.613c3.085 2.194 7.881 5.604 13.408 9.53h.688c-5.829-3.987-10.887-7.443-14.096-9.635v.105zM522.965 163.143h.43c-5.572-3.796-9.379-6.385-9.378-6.385 0 0 3.619 2.585 8.948 6.385zM523.77 163.143h.906c-10.174-6.932-18.989-12.917-18.989-12.917s8.333 5.965 18.083 12.917zM505.38 162.646l.699.497h.142l-.841-.574v.077zM524.722 163.143h.569c-6.918-4.711-11.977-8.147-11.977-8.147s4.797 3.431 11.408 8.147zM514.823 163.143h.278c-3.856-2.629-6.297-4.29-6.297-4.29l6.019 4.29zM505.38 155.515c3.08 2.185 6.762 4.796 10.759 7.628h.704c-4.273-2.931-8.206-5.626-11.463-7.857v.229zM536.318 163.143h.761c-9.874-6.742-17.814-12.149-17.813-12.149 0 0 7.561 5.395 17.052 12.149zM531.75 163.143h.22l-4.913-3.347s1.781 1.272 4.693 3.347zM525.708 163.143h.188l-4.442-3.03 4.254 3.03zM532.92 163.143h.23l-6.254-4.279 6.024 4.279zM531.626 163.143h.057l-3.532-2.462 3.475 2.462zM508.513 150.424l-3.133-2.137v.074c3.884 2.765 11.957 8.512 20.786 14.782h1.038c-10.618-7.251-19.516-13.307-19.516-13.307l.825.588zM529.574 163.143h.428c-6.178-4.22-10.39-7.092-10.39-7.092s4.025 2.869 9.962 7.092zM525.384 161.571a2329.355 2329.355 0 00-2.924-1.994s1.9 1.354 5.009 3.566h.704c-8.713-5.962-15.095-10.32-15.095-10.32s5.061 3.6 12.306 8.748zM571.802 160.26l.006-.152c-2.884-1.964-4.647-3.162-4.647-3.162l4.641 3.314zM571.813 159.949l.008-.256-25.065-17.476c7.642 5.414 16.672 11.809 25.057 17.732zM571.753 161.662c-9.169-6.257-16.414-11.187-16.414-11.187s5.518 3.941 12.984 9.262c-13.997-9.583-27.259-18.626-27.259-18.626s4.694 3.344 11.421 8.129a16364.185 16364.185 0 00-23.722-16.186l-2.472-1.683s12.713 9.074 25.776 18.359l4.314 3.064c-7.163-4.896-13.004-8.881-15.284-10.437l-1.042-.711s5.807 4.139 13.752 9.787c-11.423-7.793-21.891-14.903-21.891-14.903l3.343 2.389c2.216 1.583 5.377 3.841 9.033 6.449l-6.124-4.171c-7.844-5.339-13.88-9.436-13.88-9.436s13.704 9.808 26.527 18.931c-9.984-6.813-18.197-12.4-18.197-12.4s18.576 13.268 33.619 23.936c-12.794-8.735-26.22-17.845-26.22-17.845s13.565 9.709 26.283 18.759h5.405a54.177 54.177 0 01.048-1.48zM571.783 160.809l.001-.019.009-.247a16731.64 16731.64 0 00-33.577-22.955s4.374 3.117 10.729 7.637c6.407 4.558 14.828 10.543 22.816 16.205l.022-.621z"/></svg>