<svg xmlns="http://www.w3.org/2000/svg" width="272.687" height="337.292"><path fill="none" d="M139.51 211.967l.292.644 1.881-.398-.415-1.03 9.36-3.874h-1.981l-7.936 3.285.414 1.03zM130.979 230.665l1.98 1.407h.271l-2.808-1.996.52.58.229-.034-.229.035 1.269 1.415h.029z"/><path fill="none" d="M138.773 212.215l.47-.194-.311-.69 1.416-.587-2.131.882v17.262l-6.121.922.811.551 5.866-.883zM105.79 171.823l18.697-.167-4.3-.414 3.725-.491 14.861-1.962v-13.706l-.557-.074v13.19l-14.861 1.962-18.049.16-36.992 23.654-8.969-8.772-.777-.099.14 1.626 9.394 9.191 37.688-24.098zM135.501 252.055l2.478.238-.54-.524-.599-.581-1.625.32zM113.802 234.545l-.239.024.239-.023.251-.025.992-.097.245.619.991-.098 5.904-.582 2.273 1.314.472.004-3.303-1.907-5.902.582-1.672.165z"/><path fill="none" d="M115.602 235.013l-.312.03.147.37.072.182-.122-.001.447.004zM61.115 158.471l-2.252 21.31 8.18-18.742L81 167.093l31.749-14.62 2.136-6.219-.93-.159-.002-.001-.541-.37-.082-.057.102-.001 1.199-.015.463-.006 8.041-23.423-.75-.106.466.065-.218-.257h.604l.065-.191.084.012-.009.179h16.769l-1.468-.288-.108-.021-1.425-.28H126.512l-.098-2.106-3.224-.632-.763-.15-1.346 2.889h.991l.218.257-.466-.066-.781-.109-4.212 9.035-10.552-14.217 19.039-5.203-1.579 4.602-.158.34h-3.373l-1.098 1.342-5.434-1.066-.1-.275h-1.043l-.012.048-.248-.048h-.005l7.736 1.518.76-.929h14.861l.037-.186.081-.403H133.764l-6.022-7.168-1.791.488-.004-.096-.037.107-20.598 5.628-9.229-12.436 4.417 13.751-4.983 1.361-14.738-11.531 8.254 14.918 1.037 2.401-29.27-28.61 6.421 11.231-5.877 20.284-7.314 2.053c.042.524.081 1.035.117 1.536l6.029-1.692-5.751 6.179c.045.854.078 1.589.102 2.156l2.191-2.355-2.155 3.296c.01.252.014.398.014.398l.179 2.146.726-1.11-.682 1.629.282 3.375 2.45-5.852 6.876-1.011-7.375 17.997-1.054-.458.145 1.716.334.145-.267.651.289 3.419 1.413-3.448 3.222 1.397zm66.059-47.944l4.576 5.447h-5.484l-.238-5.134 1.146-.313zm-15.71 40.87L80.98 165.432l-13.33-5.78 10.762-24.661.819-.12-.831 18.365 2.77-16.716 9.456 8.575-4.384-9.405c3.938.86 8.273 1.683 12.027 2.726l-3.637-8.408 2.537 2.481-2.889-5.222 18.09 21.484-.906 2.646zm-38.726-26.888l-1.027-1.115-3.793 1.064.797-15.823 6.104 10.677-2.081 5.197zm2.268-1.459l.119 4.049-1.213-1.316 1.094-2.733zm-1.729 4.319l1.915 2.08.075 2.568 2.441.681-.408.935-6.941 1.021 2.918-7.285zm3.284-5.009l3.211 5.614-1.236 2.828-1.785-1.939-.19-6.503zm4.501 9.703l.142-1.581 1.102 1.926-1.244-.345zm2.286 2.202l.021.007 2.678 4.68-4.126-4.477 1.427-.21zm3.686-.541l.521-.076 1.124.533-1.645-.457zm26.853 12.533l.082.057.542.37-.632-.108-.718-.123-.678 1.974-.878-2.733 1.716.293-.096.279.662-.009zm3.259-12.781l1.78-3.816-5.495 16.006-1.827.023-9.125-28.414 2.2-.602 12.467 16.803zm-16.685-22.484l3.252 4.381-1.695.463-1.557-4.844zm-14.647.969l9.348 7.313 5.803-1.586 7.85 24.438-18.403-21.854-4.598-8.311zm5.87 15.164l3.703 8.565-7.579-3.603-3.591.528-2.771-4.848.408-4.568-1.307 2.997-4.082-7.142-.105-3.591-.802 2.004-6.698-11.717.023-.461-.314-.048-.918-1.607 24.033 23.491zm-23.846-1.076l3.354-.941.91.987-3.531 8.822-1.188.174.455-9.042zm-.531 10.576l.614-.09-.697 1.744.083-1.654zm-.369-23.996l-.617 12.278-3.197.896 3.814-13.174zm-9.961 23.993l5.301-8.108.056.014.054-.183.611-.937 3.242-.911-.443 8.828-.664.098.02-.188-.082.197-8.095 1.19zm7.991.347l.751-.11-.539 10.731 4.532-11.319 6.878-1.011-10.375 23.771-3.421-1.483 2.174-20.579zm.641 23.45l-4.114 9.427 1.132-10.72 2.982 1.293zm-3.175-14.429l-1.151 10.9-2.815-1.22 3.966-9.68zM136.93 248.903l-.145-.642 1.432-.19-3.998.529.6.582zM113.295 235.239l-.246-.619-2.236.22-6.616.651 5.981.055 1.192-.117zM138.773 173.034l-2.556-.247-17.596 3.013-4.1.702-2.937.503 11.757.144-4.163-.76zM49.792 112.167c-1.544 10.234-.679 23.927-.679 23.927-.387 3.954-.787 8.784-.787 8.784-.22 3.827-.154 5.869-.107 6.654.03-.023.064-.043.094-.067 0 0-.215-1.928.078-7.035 0 0 .4-4.828.787-8.775 0 0-.865-13.684.678-23.91 0 0-.02-.109-.02-.259-.114.327-.044.681-.044.681zM148.031 145.241l.168.593 1.275-.016.982-.011-.72-.233-1.058-.342-1.832.022zM128.282 151.206l.131.366.092.255 1.402-.136.08-.119.38-.567 2.362-.228-.461.687 6.505-.627-2.402-.412-8.471.817-1.568.151 1.568-.15zM133.287 151.366l-1.019.099-.073.107-1.011 1.505-.301.448.875.116.995-1.48zM26.545 39.508c3.504-2.679 7.008-6.229 8.412-7.697l-.236-.042c-1.565 1.617-4.83 4.871-8.096 7.367 0 0-14.398 10.76-20.933 37.902 6.583-26.87 20.853-37.53 20.853-37.53z"/><path fill="none" d="M117.908 115.974h-.369l.188.222zM109.954 88.302l-5.495 10.392 2.532-10.684-.608-.06-.672-.066-3.767 17.278 9.299-16.733-.463-.045zM213.343 167.036l1.271-28.857-16.398 33.443-2.38-2.654.837 5.804-3.21 6.545-.096.012.419-18.561-41.453-3.75-3.091-10.885-.472-1.66-.182-.643-.39.004.014.049.473 1.66-1.303 1.212.249.876 3.024 10.65L191.76 164l-.397 17.562-6.123.718-2.031-3.635.372 3.829-2.242.263-31.647-1.822-3.193-.185-3.647-.21-3.058.988-.196.064 1.365.248 6.04.348 26.275 1.515-34.505 4.045V181.836l1.016-.328 10.667-3.444-2.294-.028-8.93 2.884-26.359.083-3.844-8.287.873 8.298-6.492.021-20.134 19.48-12.567-4.961 2.563 7.114-4.244.105-8.711-7.642-.898-.09.558 6.509 1.214 2.921 7.242-.179 7.93 6.959.191.53.3-.101.427.376.322-.622.438-.144-.149-.413.605-1.169-1.236-.585-1.802-5.005 19.204-.476 8.572 12.904-2.896-22.417 14.544 21.908 7.942 15.167-1.982.298.923.533 1.616-.243 1.632-.245 3.727-.562.674-.102-.487-.599 1.07-.162-15.157-17.254-.647-6.152h-1.196l-.019-.138v-.001l1.176-.23-2.51-23.839h.208l8.732 18.829.96-.137.002.002.08.15h-1.15l-.007.001H125.211l2.461-.347-.057-.398-.036-.256-5.38.758-8.627-18.609 24.646-.077v15.841l.646 1.105-2.029.223-.294-.502 1.677-.236-8.671 1.221.044.315.137.962h-1.533v.001h2.007l-.053-.374-.045-.315 3.748-.527-.093-.205-.191-.422 2.535-.357.201.499.053.132 2.418-.34-1.677.236.295.502.687 1.172H139.592l-1.355.267.188.321h1.726l-.005.001h-3.555l-1.76.346-4.834.949-1.953.384-2.021.396-2.548.5-.14.027-2.995.588-.704.139.747 1.444h.253l-.442-.855.704-.139.118.994h5.38l-.011-.048.055.048h4.523l-.409-2.89 4.835-.949 1.741 3.839h2.342l-1.731-4.301.863-.169.781 1.337 39.781-5.42 8.87 9.415-1.946-19.949 10.514 16.951-1.74-10.219 8.156 10.51-.647-4.496 1.535 2.088-1.644 13.374-1.642-.23-7.971-6.05 4.019 5.497-14.432-2.025-29.896 23.309 6.724 8.989-3.806.591-.621-.441-4.629-5.018-1.173-1.271-.39-.422.01.025.995 1.078-.542.129.249.662.473 1.257-1.495-1.015-1.691-1.147-10.018-6.798 3.035-.3h-3.478l-.387-.263-1.675.165-.239.023.104.074h-.855l-.178.018 2.778 3.1h.03l-2.251-2.511 1.168-.115 3.729 2.65h.008v.005l6.227 4.425 1.635 1.162 4.574 3.25.706 1.883-4.598.715-2.829-2.125-2.375-2.65-1.146-1.278-1.638-1.826v-2.971l-.557-.005v2.387l1.637 1.826 1.146 1.278-2.263.537-.52-.593v3.816l.807 3.584.332 1.472-1.53.301.15.669.145.643.097.009-.003.001-.088.015.029.132-.12-.116-2.186.374-1.613.276-.68.116-.475-.757-.823-.08.329-1.093.346-1.146.057-.188 2.251 2.181.056.005-2.863-2.774-.057.188-.346 1.146-.33 1.094-1.27-.122-.013.044-.144.476-1.313-.127.635-.875.42-.577.023-.078.193-.641-.376.05-.377.05-.441.607-.635.875-.001.001-.94-.091.047.203-.52.102-.125.172-.503-.049-6.122 1.201v-1.803l-.051.007h-.002l.053-.007v-.522l-.61-.059.002-.001.608-.08 1.097-.146.16.405 1.032.1 4.129-.545.344-.046.531-.73 1.091-.145.676-.089.714-.094-.415.57-.117.161.375-.05.377-.05.208-.689.553-.073-6.436-10.269 2.166 9.343-11.499-11.911.161-.594-1.634-.015.232.586-2.311-.021-.667-.006-4.172 6.836-9.561-16.558 4.102 22.306-5.741 1.166.29-1.046-9.549-2.415 9.806-19.398-16.571 17.688-7.824-1.979 4.418-9.03-6.617 6.744-3.398-3.98 2.148-20.726-6.877 15.188-.592-.692-.004.369.353.86-.378.835c-.022 1.33-.051 2.657-.086 3.977l1.279-2.825 2.307 5.618-.338 3.25 1.863.471.564 1.377-1.076 1.27-.693-1.334.224 1.888-4.483 5.284-.287-.372c-.066 1.124-.138 2.24-.212 3.349l.439-.517 1.837 2.385-.002.003-1.643.163-.637-1.961c-.237 3.54-.507 6.995-.801 10.345l.818 1.065-1.011 1.08c-.077.843-.156 1.679-.236 2.507l2.2-2.348 5.407 7.033-3.083-9.514 2.983-3.184 1.718 2.23 4.933 32.731-10.202-21.293-4.568.34c-.055.512-.11 1.019-.166 1.521l3.762-.279 14.287 29.818-5.943-39.454 17.42 22.931-2.031-8.745 4.303-7.056 12.878-1.018 2.077 4.138-3.147 8.424 4.712-5.31 2.791 5.558-6.374 14.152 5.038-4.749-5.479 24.48-5.932-.052-4.694-13.842-.755 3.815-2.551-4.771-1.697 14.432-10.02-28.991-.135 28.055-24.218-2.831c-.098.521-.193 1.019-.286 1.482l11.186 1.309-11.363-.437c-.119.575-.228 1.079-.319 1.494l17.341.663 6.614 14.83c1.061.135 1.929.222 2.538.275l.073-15.087 4.968.581 4.609 13.568 4.474-20.57 2.935 7.063 5.191 15.309h.003l3.309-14.779 7.325.063.366 2.482 22.466.835 4.607 9.023v1.046h.556v-10.136l8.936-.195 17.331-.379 5.014 10.387h1.367l.698-10.541 5.334-.117 4.939 9.923 3.725-10.506 1.563 3.645 3.07-2.716 1.015 7.819 1.788.023 1.965-10.591 3.845 11.243 6.118-20.168 7.145-.444 6.581 14.432c.537-.596.968-1.176 1.314-1.718l-5.855-12.841 5.431-.339c.306 1.851.622 3.729.95 5.637 0 0 .685 1.733.923 3.318-.124-1.707-.984-3.892-.984-3.892-4.654-27.085-7.085-48.721-7.734-54.849.259 2.475.928 8.618 2.056 17.316l-2.348-.328-2.106-15.087-12.343 21.396 4.332-23.041 6.162 4.849-5.261-8.452 9.085-1.27c-.036-.45-.07-.902-.104-1.354l-8.962 1.331 1.781-9.475-3.817 6.132-5.153-8.905 6.537-4.984 9.2 9.184a322.198 322.198 0 01-.245-5.974l-3.732-7.195 1.302-.992 2.271 1.211a448.838 448.838 0 01-.041-4.983l-.793.604-4.235-5.793 1.641-2.245 3.401 2.582c.006-.694.014-1.378.021-2.052l-2.45-1.86 2.548-3.487c.019-.809.039-1.601.061-2.358l-1.147.587-8.552-1.198 4.944-8.771 4.843 6.583c.035-1.041.071-2.012.107-2.91l-3.975-5.402.409-.727 3.719 2.673c.037-.765.071-1.415.1-1.937l-3.012-2.165 4.007-7.106c.229-2.146.454-4.39.673-6.684l-5.855-6.527.234-1.91 4.523-.53 1.772 1.574.181-2.104-1.117-.992-5.237-.249.172-7.39-3.759 8-5.505-6.137 12.63-25.756-.867 30.336 3.791-5.44.445.94c.239-2.99.457-5.834.65-8.419l-1.52 3.575-1.37-1.34zM62.246 202.94l-2.646-6.367.037.002 7.125 6.253-4.516.112zm65.936 27.459l-3.727.562-6.229-11.893 9.956 11.331zm-57.487-26.163l3.113-.077 1.477 4.107-4.59-4.03zm30.121 5.867l-5.305-7.984-20.592.509-1.586-4.41 10.318 4.075 14.359-13.895 2.806 21.705zm12.344-2.859l.373-.073.02.138h-.724l.331-.065zm-.556-.589l-.331.064h.338l.388 3.673-14.754-22.221 5.824-5.636 5.992-.02 2.543 24.14zm10.341-5.299h-.15l-.035-.161.185.161zm.945 3.782l.14-.027.102.478-.242-.451zm2.686-.528l2.021-.396.348 2.451-2.369-2.055zm53.516-8.001l-39.485 5.379-.353-.603-.833-1.423-.647-1.105v-9.706l42.649-4.999 2.336.134 1.766 18.088-5.433-5.765zm-50.793 52.639l-.675.089-.431-1.853 1.106 1.764zm-9.059-.477l.855.645-.855-1.443v-4.371l5.861 6.069-5.861.773v-1.673zM64.779 234.82l-2.198-2.575 3.197-7.061-.999 9.636zm11.549 98.42l-6.283-14.086 6.346.742-.063 13.344zm10.811-5.066l-3.02-8.89-6.148-.719.092-19.019 9.251 26.766 1.917-16.287 1.093 2.045-3.185 16.104zm12.691 2.066l-3.068-9.047 5.084.044-2.016 9.003zm54.925-93.684l28.203-21.989 14.877 2.086 3.773 5.161-18.247 10.277 16.408-5.279 2.83 1.798-12.892 17.644-4.886-4.929-23.737 3.691-6.329-8.46zm47.778-13.479l2.056 2.812-1.045 1.428-3.455-2.195-10.083 4.141 12.527-6.186zm-22.485 51.561l-8.131-20.623 8.75 7.908 17.572-2.611-21.53 34.575 5.16-19.052-1.821-.197zm-4.733-6.744l-15.33-16.617 12.196 8.666 3.134 7.951zm6.162-7.528l-14.182-12.813 4.809 12.193-10.056-13.443 21.901-3.403 4.727 4.768-5.224 7.15 7.012-5.348 8.264 8.335-17.251 2.561zm-21.451-13.749l4.298 5.746-7.404-5.263 3.106-.483zm-5.876.915l24.909 26.999-12.881-1.39 1.635-2.645-1.503-.635-3.093 2.742-9.396-25.021.329-.05zm8.154 28.14l.049.132-1.462 2.364-.579-.729 1.992-1.767zm-3.046.441l-1.998-2.515 4.311.465-2.313 2.05zm3.918 1.882l2.172 5.783-3.231-4.069 1.059-1.714zm-31.967-25.702l.691 1.104-.051.009-1.005-1.043.365-.07zm-9.738 3.574l-.217-.547-.037-.094 1.941-.332.157.397.351-.485-2.668.457-.758-.165v-.653l7.61-1.493.255 1.095-4.043.692 2.165-.37-.566.78 3.001-.514.116-.02.218-.722.659-.112.356-.062-.356.061-.132-.566.488.506 1.137-.194-.218.722 1.476-.253.052-.009 1.656-.284.679-.116 1.614-.276 2.363-.404h.003l-2.232.382 3.374 3.269.021-.028-.552-.534.923-1.074.195.867.328-.428-.918-4.075-.332-1.472-.808-3.583v-2.29l3.684 2.126 3.358 2.524.264.198.863-.135.328.189-.189-.211 4.279-.665.51-.079 9.278 24.71-5.123-.553-4.665-5.872-1.357-1.709-.896.11-1.449.178-1.563.191-3.38.415-1.854.228.389-4.676 1.608-.52 2.173-.701 1.605-.519 3.818-1.233-2.293-.028-2.083.673-.128-.7-2.52-.031 1.042 1.25-2.173.702 1.05-1.953-.89-.011-.868-.011-.927 1.727-1.397-.305-.246-.468.839-.975-.964-.013-.143-.002-1.771-.021-.25-.003.426.813-.103.118-.586-.934-2.586-.032.419.435-2.086-.455-1.235-.016-.356-.005v.001l-.199-.003.199.002.093-.307-.241-.053-.053-.225.376.005.026-.086.563-1.866.314-1.045-.774.133-.098.323-.562 1.866-.201.666-.2-.003-1.103-.013-.096.317-.078.262-3.742-.046.657-.906 1.276-1.757-1.125.192-.708.976-.657.906-.633-.008-1.415-.018.031.081 6.88 1.5 1.699 7.322-5.318 6.185-1.334-2.273-3.406.271-.734-2.848 2.72-6.946-3.698 3.155-1.53-5.922-.496-.006-.698-.782-.027.005.168.188.001.001-.726-.01.719 2.776-1.271-2.201-1.811-.022 4.324 7.49-5.118 5.767-4.02.318 1.098-2.935-2.568-1.005 5.697-9.643-.687-.009.77-.132.212-.358.169.293 1.024-.176.359.403.55.008-.339-.587-.196-.002-.571-.008-.36-.402-.001-.001.47-.08.341-.058-.536-.929.945-1.604.609 2.357-1.019.175 1.02-.174.217-.037.528.593 1.364-.233 1.527-.262 2.25-.38zm32.051 15.906l-4.674-.505-1.629-.176-1.59-.172-2.475-.267-2.689-.291.268-3.221.01-.118 2.675-.327 2.933-.36 1.563-.191 1.037-.127 4.571 5.755zm-14.345-9.972l-.336 4.032-.067.008v-3.513l.403-.527zm-5.265 10.333l-1.354-5.835 4.297-4.996 1.361 2.172v.642l-4.304 8.017zm4.305-4.723v11.32l-1.383.194-1.451-.448-.937-4.044 3.771-7.022zm-5.43 6.818l-2.314 4.309 2.848.881-3.215.453-3.74-6.371 4.924-5.725 1.497 6.453zm-1.932-15.272l5.035 1.099-3.764 4.379-1.271-5.478zm1.862 18.694l.604-1.121.328 1.409-.932-.288zm-13.123-9.466l1.105 1.913-2.15.171 1.045-2.084zm-2.862 2.227l-1.892.149 3.712-4.183.107.187-1.927 3.847zm-6.025-17.619l1.521 2.635-4.147 7.02 2.626-9.655zm-.68-4.291l.235-.049-.084.311-.151-.262zm6.764 2.266l1.877-3.178v4.65l-1.877-1.472zm1.877 3.42v1.476l-1.527.261-.952-3.682 2.479 1.945zm-3.109-4.392l-1.465-5.661 3.326 2.509-1.861 3.152zm-1.403.85l.273 1.059-1.292 2.186-1.854-3.212.513-1.886 2.36 1.853zm.598-12.728l4.852 5.025-1.17 1.98-3.828-6.464.146-.541zm-.717 2.633l1.74 2.936-2.105-1.587.365-1.349zm-1.805 6.637l.528-1.94.765 2.955-1.293-1.015zm-.116-9.881l.808 1.364-.602 2.211-.855-.646.502 1.945-1.264 4.645-1.473.299-1.51-2.617 4.394-7.201zm-4.491 10.144l-1.939.395 1.111-1.824.828 1.429zm-7.164-12.406l5.451 9.442-2.307 3.781-.688.14-2.456-13.363zm4.115 31.071l-4.662-1.823-1.928-3.835 4.266-6.985 2.324 12.643zm-9.394-14.598l6.469-1.314.18.976-4.666 7.642-2.582-5.144.599-2.16zm2.558 11.925l-1.271-.497.561-.919.71 1.416zm-5.048-8.83l-1.718 6.184-9.903-3.873.616-1.219 11.005-1.092zm-10.2-.501l.01-.02 10.953-2.225-.33 1.189-10.633 1.056zm11.467 1.802l2.248 4.476-1.209 1.981-2.556-1.001 1.517-5.456zM94 249.91l-.09.327-10.541 2.142 2.311-4.572L94 249.91zm-4.088-13.932l-5.084 10.057-3.508-.887 8.592-9.17zm-9.77 10.428l3.989 1.008-2.709 5.359-1.117.228-3.024-3.542 2.861-3.053zm-7.54 8.687l-.183-.444 3.799-4.055 3.26 3.817-6.876.682zm.414 5.13l-1.804-3.479.362-.035 1.442 3.514zm5.418-14.249l-2.16 2.307-3.106-3.639 5.266 1.332zm-7.764-4.411l-.055.091-.01-.014.065-.077zm.193 2.759l4.348 5.092-3.436 3.667-2.486-6.061 1.574-2.698zm-.262 10.013l-.41.437-2.552-4.922.658-1.128 2.304 5.613zm-1.175-10.639l-.881 1.511-.314-.768.729-.861.466.118zm-3.484-4.834l.026-.271 2.606 3.052-.196.23-1.34-.339-1.096-2.672zm.099 16.881l-1.953.194 1.641-2.813.312 2.619zm-4.676-3.211l3.768-4.441.292 2.465-2.405 4.125-1.655-2.149zm-.126 5.2l-.153.264-.078-.24.231-.024zm-1.298 1.815l.084.264-.451.777.367-1.041zm1.047 5.049l-1.109-1.441.789-1.356.758 2.331-.438.466zm.951 1.239l.027-.03.039.114-.066-.084zm.709-3.014l-.919-2.839 1.421-2.439.112-.011 1.958 2.544-2.572 2.745zm3.646-3.889l-1.216-1.579 1.139-.113.186 1.576-.109.116zm-.172-12.007l.97-1.144.461 1.127-.762 1.306-.669-1.289zm1.112 5.531l1.561 3.015-1.189.118-.372-3.133zm.575 4.858l-.026-.229.268-.027-.242.256zm17.546 23.691l-3.78-16.263 6.107 7.891-2.327 8.372zm2.846-10.234l-9.77-12.619 5.802 24.961-15.837-20.846-.35-2.951 1.766-1.886 10.217 19.71 1.379-.584-8.209-20.01 6.648-.66-.922 1.823 11.641 4.552-2.365 8.51zm3.834-7.934l2.162.846-4.404 7.219 2.242-8.065zm-1.381 9.637l5.014-8.216 3.09 1.209 3.076 6.124-11.18.883zm10.276-6.159l3.969 1.554.033.18-.064.233.115.044.547 2.973-2.016.159-2.584-5.143zm4.457 8.873l-1.145-2.277 1.56-.123.159.863-.574 1.537zm.498-10.643l-2.406-13.085 1.134-1.858 3.806-.772 1.185 2.049-3.719 13.666zm.688 13.008l-.229-.457.168-.449.148.807-.087.099zm.046-9.011l1.092.427-.679 1.816-.413-2.243zm.965 5.24l.438-1.171 3.158-.25-3.195 3.602-.401-2.181zm.754 4.108l5.063-5.704 2.544-.201-6.358 12.69-1.249-6.785zm-1.74 16.232l3.272-6.531.397.79-.213-1.158 7.707-15.382 5.564-.44 1.141 1.941-11.23 13.061-.964.188h.802l-6.476 7.531zm1.261 7.439l1.957 13.249.561-.056v.001l.059.665-.529-.005-4.788-.043-.034-.095 1.282-.127-1.585.156 3.077-13.745zm-3.129 13.75l-.01.058-.516-.005h-.008l.534-.053zm7.788 7.032l-.148-1.014 19.641.17.816 1.599-20.309-.755zm25.699 7.884l-2.822-5.526 2.822.104v5.422zm31.535-.843l-2.623-5.438 2.988-.064-.365 5.502zm.458-6.909l-3.753.082-3.933-8.149-12.533 1.048-.319.026.115.299h.048l5.356.049.55.006-5.217 1.851-1.475.523-7.128 2.528v-4.606l-1.016.085-.558.046v5.034l-2.132.757v.521l.799-.018 1.891-.671 1.573-.559 7.128-2.528 1.475-.523 5.217-1.852-.551-.004 5.407-.476 3.214 6.658-13.009.285-.17.003-8.711.191-1.573.034-.558.013v.25l-2.132-.079-3.605-.134-1.615-3.163-20.85-.18-.563-3.807-1.121-.011-.471-.004.563 3.808-6.768-.059.98-4.381 5.139.047.086.584.471.004.529.005-.059-.665 1.007-.099.841-.083.292.283h.052l-.9-.872-.842.083-2.992-20.25 6.214-7.227h-1.776l.965-.189 1.17-.229.146-.17h.721l.413-.081 3.11-.61.224-.742-3.891.764 9.605-11.172 3.146 5.357-7.972 1.122h.295l.013-.043 2.867-.403-.341.446h1.907l3.788-.533 1.666-.234 3.214-.452 3.514-.495 1.383-.194v-7.719l5.443.588 2.202.238 1.065.115 1.63.176 2.245.242.001.001 3.397.366 3.156 3.976-7.161 6.347-2.31 2.047-1.01.895h2.551l1.377-1.22 7.608-6.741.92 1.158-10.517 17.001 22.263 4.197-1.42 21.488zm1.519-22.924l-19.601-3.695 8.984-14.527 7.556 8.308-4.208-13.719.894-1.445 14.166 1.53-4.465 16.482-2.475-5.77-.851 12.836zm4.647.875l-1.395-.263.759-1.219.636 1.482zm-2.127-4.959l-.33 1.214.114-1.717.216.503zm7.821 33.278l-3.215-6.46-6.645.145 1.398-21.071 3.443.649 7.938 18.503-2.919 8.234zm3.864-10.897l-6.61-15.412 8.519 1.604 2.178 2.278-4.087 11.53zm2.556 5.96l-1.43-3.333 2.356-6.65 1.069 8.219-1.995 1.764zm4.363 1.016l-.305-2.347.886-.783-.581 3.13zm2.082-11.22l-1 5.391-1.649 1.459-1.771-13.617 5.858 6.126 4.719-.295-4.974 4.397-1.183-3.461zm4.31 12.611l-2.535-7.417 6.54-5.783-4.005 13.2zm6.671-15.259l.125-.408 4.236-3.746 1.723 3.776-6.084.378zm1.061-3.491l1.439-4.747 1.128 2.476-2.567 2.271zm12.43-.211l-1.562 2.685.917.218-4.724.295-2.266-4.971 6.461-5.714c.371 2.42.762 4.921 1.174 7.487zm-17.75-49.93l.024.042-.056.009.032-.051zm-5.453 33.705l13.451-21.622 1.459 10.453 4.382.613a944.756 944.756 0 002.438 17.303l-6.895 6.095-3.013-6.604-3.842 12.665-1.378 1.219-5.437.339-8.289-8.67-10.437-1.966-1.669-3.893 23.367-37.525.806.811-4.943 30.782zm4.403-35.52l-.664 1.066-8.093-8.162 3.226-2.463 5.531 9.559zm-1.482-14.719l1.993-2.953.813.813-2.806 2.14zm1.654-5.728l-6.208 9.203-2.628 2.004 11.505-15.747 2.593 4.995-2.725 2.077-2.537-2.532zm10.415 10.395l-6.701-6.688 2.315-1.768 4.386 8.456zm-4.069-11.946l.91.484-.472.36-.438-.844zm2.271-.553l-5.562-2.963.299-.411 5.285 3.355-.022.019zm-1.949-3.162l-2.368-1.505.634-.867 1.734 2.372zm-1.735-5.444l-1.545-2.11 1.473-.753 1.392 1.057-1.32 1.806zm2.291-3.136l-.738-.56 1.832-.938-1.094 1.498zm.71-3.037l-2.814 1.439-2.966-2.25 5.78.811zm-4.442 2.272l-1.028.526-2.148-2.939 3.176 2.413zm-7.12-42.349l.394 2.736-1.842.216 1.448-2.952zm-2.188 4.463l2.785-.326.21 1.456-3.452-.199.457-.931zm-3.631.426l-.008.322-1.841-.106 1.849-.216zm-4.883 1.45l4.843.279-.046 2.055-.501-.645.474 1.866-.052 2.31.42-.856 1.937 7.644-7.075-12.653zm5.81 3.639l1.574-3.214 4.33.25 1.597 11.087-.982-.706 1.096 1.488.159 1.112-7.774-10.017zm13.136 18.576l.228-1.855.464.63-.692 1.225zm1.667-2.956l-.375-.51.472.338-.097.172zm6.781-12.027l-5.879 10.428-1.846-1.327 1.913-15.577 5.812 6.476zm-7.933-8.843l.359.4-1.993 16.218-2.277-1.636-1.481-10.283 2.669 3.136 2.723-7.835zm-3.508 4.179l-2.359-2.771-.321-2.231 4.605-.539-1.925 5.541zm1.094-6.868l-3.976.467-.818-5.67.045-.092 4.749 5.295zm9.623-8.018l.166-3.749.752 1.59-.918 2.159z"/><path fill="none" d="M131.854 315.617l-.224-2.311-2.58.254.049 2.031.666.007z"/><path fill="none" d="M125.445 315.558l-1.301-.012 2.037.018.544-1.776 12.736-1.255h-6.534l-6.76.666zM117.644 314.683l6.213-.612.204-.664-6.975.687.719-.071-1.637 1.451 1.21.01.984-.872zM133.727 248.664l-6.79-12.965-.308-.587-1.756-1.013 1.401-.139 4.671-.46.623-.061 1.886 2.32 1.503.013-2.678-3.047-1.268.125-.622.062-4.671.46-1.402.138-.272.027 1.124 2.147.302.577.017.01h-.011l6.603 12.61-1.085.143 1.086-.142zM149.835 315.78h-.047l5.4.05zM138.287 280.549l-.703.606-.085.074h.372zM133.027 286.592h-.779l.272.462.137-.125zM124.867 310.771l-4.088.616-.628.557h1.392l3.108-.468zM128.443 310.904l-.015-.67-1.42.214-.455 1.496h.736l.276-.907zM149.772 315.78l-1.668-.015 1.464.013zM137.476 201.772l-.296.058-.587.115h.952zM128.971 152.161l-.132-.366-.334.033.448 1.249.008.02.015-.02.211-.314z"/><path fill="none" d="M134.958 235.773l-1.504-.013.479.588-.491-.005h-.04l4.815 5.479v-2.34zM136.659 199.745l-.303.043.531 1.318.101.25h-2.295v.001h2.616l-.449-1.113zM117.703 205.654l-2.773.544.072.522h.829l2.201-.432zM119.791 231.663l-2.719.409h1.603l-.33-.19zM141.555 257.245l.015-.188.126-1.511-.635.829-.029-.127-.018.219-.065.77zM180.924 335.827s-9.727.684-24.856 1.117h-46.7c39.044 1.208 72.082-1.116 72.082-1.116 3.932-.076 7.422-.269 10.517-.536h-.56a157.02 157.02 0 01-10.483.535zM126.514 152.019l-.176-.49-.047-.131.041-.005-1.533.148.824.563zM223.746 136.373c-.139-13.601-.509-21.272-.509-21.272a59.16 59.16 0 00-.17-1.188c.035.24.069.484.106.763 0 0 .371 7.666.51 21.256 0 0 .586 7.234.803 15.117 0 0 .016.046.055.125a323.547 323.547 0 00-.795-14.801zM137.689 26.019l.541 1.019h.245l-.746-1.407zM115.886 32.39l.003.011h.395l-.023-.085z"/><path fill="none" d="M116.961 32.179l.051-.709-1.309.258.183.662zM141.333 13.247l1.157-1.688-.976.022-.143.208zM119.63 152.039l2.815.372.399-.039.113-.011-.113.011.165.113.377.05-1.1-.752z"/><path fill="none" d="M225.094 105.294l-7.242 7.481-1.013-2.142 3.787-5.254-3.166-.829-1.948-.511-2.041-.535-13.973-29.568 27.207 27.986c.15-.32.302-.646.453-.979l-7.469-17.375 6.823 7.335 5.029-2.14c.191-.636.379-1.263.56-1.88L227.129 89 213.76 74.629l8.855 20.599-28.919-29.744 1.632.014 1.546 2.485.085-2.469 1.022.009 9.801 10.962 2.623-12.042 13.294 18.817.398-27.486 4.22.168 4.87 8.533.3 1.524.156-.728.146.255 3.398.011c.051-.467.099-.935.146-1.404l-2.19-.008-.913-1.599 1.345-6.299 2.348.093c.025-.47.048-.938.069-1.404l-2.12-.084 2.376-11.13a275.89 275.89 0 00-.13-8.847l-4.248 19.898-.571-.023-3.552-18.135h-10.023l-2.554-12.46-2.716 12.46H197.6l-9.718-14.315 7.439-6.221c5.473 2.369 11.776 4.693 17.637 5.883 0 0 .702.196 1.908.567l-1.329 4.979 3.347-4.343c5.047 1.635 14.009 4.829 21.127 8.943v-.007c11.146 9.987 16.642 16.641 16.642 16.641 6.487 9.895 10.309 20.232 12.553 29.303-2.229-9.159-6.062-19.646-12.64-29.681 0 0-5.49-6.648-16.627-16.628v.007c-10.505-6.072-25.039-10.14-25.039-10.14C198.154 18.59 180.586 8.41 180.586 8.41c-1.451-1.157-7.42-2.221-7.42-2.221h-25.529V0h-20.34v5.947h3.459l2.203 3.725-17.418.4-1.654-3.883h-1.701l2.308 5.414 19.344-.446 4.38 7.406v5.978l-15.931 2.242 1.335-.188.234.443h1.357l11.927-1.679.031-.317.154.291 1.448-.204V10.14l-1.568.036.786-.62-1.343.031-.812-3.64h5.423l1.024-.33-1.022.33-.639.206-2.406.777v2.447l.557-.439V7.52l2.407-.777h-.001l.638-.206 1.024-.33-1.023.33-.002.001-.312.246-.088 3.295 2.122-.049.778-1.136.876 1.098 1.403 1.756 4.24 5.31.523.655 10.34 12.944-2.654-24.12h8.493l3.812 8.646 4.41-5.624-6.821 15.729 7.264-6.971-4.749 33.032-.371-.019-5.872-18.572-13.85-.688-2.433-.121-.285-.014-1.742-.087-6.031-.3-.138-.26-.798-1.503-1.018-1.917 1.231-.242h-1.36l-.207-.391-.222.043-.811.159-.019.188h-.941l-7.995 1.57h-6.714l-.75-1.57h-.104l.098-.014-.275-.576h.875l-.087-.164-.813.114-2.449-5.128.192 7.337h-2.309l-6.395-16.681.84-6.328h-1.586l-.432 3.256-1.249-3.256h-1.793l-.433 3.585-1.049-3.585h-1.634l2.204 7.542-3.825 31.673-.176.225-1.765-3.403.726-8.395-2.578 4.819-.185-.358 1.493-31.88c-.556.071-1.09.15-1.587.231l-.66 14.108-2.358 2.438-2.843-9.146-12.992 1.231a194.472 194.472 0 01-7.547 3.02l7.083 8.38-4.314-9.436 16.633-1.571 2.678 8.682-17.053 27.38-.5.031 1.868-11.117-5.072 9.235 1.866-6.817-12.862-4.853-3.033-5.184.387 4.186-6.489-2.449-5.249-.928-.369-5.794-.035-1.688c-.896.341-1.78.692-2.633 1.042l.811 4.542-6.739-1.954c-1.074.497-1.728.814-1.728.814v-.031s-.074.081-.211.226l8.082 2.345-8.31-1.47c-.2.443-.381.923-.542 1.434l16.486 2.916 7.08 2.671.676 7.315-24.855-10.361a27.968 27.968 0 00-.23 1.544L59.1 47.906l.352 3.804-4.156 8.417-6.341-14.938-12.832-1.949-2.471 4.334c.049.927.109 1.868.185 2.82l3.137-5.501L47.83 46.54l6.553 15.436-4.804 9.729.761-8.338-15.525-4.114c.074.542.15 1.083.229 1.622l13.615 3.608-1.41 15.468 7.939-16.079 1.354 3.191-4.752 29 8.963-19.083 3.34 7.868-1.156-12.521 2.502-5.33-1.836 6.706 7.334-11.777-1.586 6.696 8.888 2.188-2.06 9.178 2.968-4.439 2.977-3.781 17.655 4.345L97.49 91.53l11.713-19.651-3.338 15.309-1.666.015 1.628.161-.092.419.688-.006.628-.006.066-.281 2.605.256 1.404-.013 1.396-.013 4.867-.045.145-.595 1.332-.013-6.9.063 7.76-13.962.245 9.369-.151.644.17.036.035 1.36-2.184-2.104 2.408 4.581-.684.006-.145.596h.003-.003l-.248 1.02.684.067.266-1.093.684-.007 2.327-.021 13.422-.122 1.447.32 1.265.28.383.347 1.047.948-1.466 1.791-1.581-.156-.224-.021-3.95-.389h-16.403l.004.001h1.622l-.057.235 2.343.353h18.471l.006.001h-.251l-.507.62.742.64-.848 1.035-.381.467v9.666l.26-1.298.297.286v-3.931l1.058.247-.789 3.942 1.124 1.083-.357 1.79-1.592-1.532v6.841l1.388.575 1.412.584 2.499-2.847 1.016-1.157 1.555-1.771 1.089-1.242 1.437-1.636 1.887-2.149.003.001 4.68 1.088 2.646 2.398-6.466 10.696-.344.567-.214-.042v.208l-.272-.262-.068-.014-.461-.091h-.796l1.423.588h-.002l-1.422-.588H136.656l-.518.589h.169l-.08.402-.186.933.422-.481.749-.854h8.405l4.614.914-2.518 4.164-.813 1.344-3.074 5.085-.171.282-2.019 3.338-2.861.28v-7.547l-1.027-.145-.896-.126-9.599 13.102-.675-14.548-1.051-.147-.017-.003-.517-.073.777 16.795-1.837 2.51.992-19.314-.98-.138-.084-.011-.5-.07-1.196 23.304-6.018.073.855.585 5.72-.07.937-.011.742-.009-.213-.594-1.086.014 2.783-3.802.175 3.765.179-.002 1.028 2.864-.446-.076.815.14-.84-2.338 1.396-.018 6.492-.079-2.194 3.266 1.126.192.855.146 2.441-3.632-.18.002 9.438-.116-.169-.594-9.826.121-2.05.025-6.491.079-.268-5.768 10.85-14.814v16.535l1.43.462 4.071-6.058 2.304 8.117 1.814.586.429.138-3.379-11.897 25.48-2.487.572.36-1.502 5.852 4.122-4.196 5.282 3.337-6.59 13.936 16.659-15.87 15.223 19.664-7.233-27.835 3.25-3.324 2.918 7.118 2.31-1.186 13.495 3.498.1-1.47-12.435-3.224.209-.217 12.571-2.021c.036-.602.064-1.094.084-1.455l-11.003 1.771 4.69-4.847 6.42 1.808c.061-.503.125-.989.194-1.46l-5.465-1.537 8.226-8.497c.192-.297.386-.609.579-.938-.06.167-.113.346-.171.516l.318-.329c.576-1.577 1.22-3.017 1.906-4.462zm-86.877-94.239v6.369l-1.268-6.34 1.268-.029zm-3.475-1.425l-2.179-3.684h1.671l.82 3.677-.312.007zm16.618 5.213l-.392-.489-5.803-7.265.26-.553h11.619l1.968 17.886-7.652-9.579zm20.51-3.229l-2.239-5.078h3.562s1.006.181 2.288.471l-3.611 4.607zm44.894 94.253l1.07.28-1.881 2.609-.339-.717 1.15-2.172zm-2.42-.633l-.038.038-.025-.057.063.019zm-.236 5.654l.144.229-.994 1.379.85-1.608zm-1.259-1.647l-4.313 8.157-2.873-.809 7.186-7.348zm-9.087 6.814l-6.601-1.857-2.466-3.82.606-10.133 14.537 3.809 2.206 3.531-8.282 8.47zm-20.953 6.849l6.288-6.4-4.597 8.584-1.691-2.184zm.76 3.919l-3 5.603-.935-6.29 1.903-1.938 2.032 2.625zm-1.83-5.302l-4.406-5.692 12.389-10.08 1.571 6.048-9.554 9.724zm8.271-16.008l3.131-2.546-.274 4.576-2.857-2.03zm-13.697 8.999l-.033-.042 10.708-15.799 1.355-.25 5.858 1.534-17.888 14.557zm-13.852-11.755l-5.448-8.754.09-.103 6.885 5.392-1.527 3.465zm.801 4.785l-.665-.602.174-.187.491.789zm-1.703-2.735l-.376.854-1.059-.959.674-1.115.761 1.22zm-3.364-12.151l17.493-19.931-11.015 25.004-6.478-5.073zm7.735 8.158l-.987 1.058.6-1.363.387.305zm1.381 1.081l7.892-1.039-9.031 7.859-2.092-3.361 3.231-3.459zm17.786-4.326l-4.511.836 1.781-1.551 2.73.715zm-1.405-1.867l7.551-6.572-4.922 7.262-2.629-.69zm-3.484.586l.187.05-3.072 2.672-8.851 1.642 12.768-13.666-1.032 9.302zm-14.891 15.404l2.594 1.34-.837-2.868 11.392-9.912 5.993-1.111-14.141 20.86-11.85-2.348 6.849-5.961zm26.377-13.893l12.759-2.364 4.267 6.826-17.026-4.462zm18.703 3.657l-4.802-7.686-17.147 3.178-.247-.063 8.075-13.439L182.4 94.592l1.435-12.941L167.064 99.6l-.834-.652 13.162-31.932-22.589 24.551-5.366-4.202 4.861-.045-1.634-.58-3.785.034-.735.007-1.584.015.153 1.016-3.177-.679-.191-.308-1.195.011-3.662-.782 2.877-3.714-.808-.287.038.061.276.442-.485-.172-.796-.283-2.308 2.98.436-3.645-.918-.325-.027-.01V76.09l-.02.164-.537-.86v5.118l.027.01-.588 4.927-14.098-3.011 2.063-3.233 12.596-10.222v2.914l.887 1.423-.319 2.68.526.845 1.329 2.132 1.504 2.412 1.103-1.425.873 1.4.996 1.596.243.086-.682-1.093-.873-1.4-2.813-4.512-1.329-2.132-.888-1.423v-4.035l3.26-1.156 1.803-.64 1.007-.357.248-.875.216-.077.066.438-.243.413.519-.184-.519.184-.497.843.21-.741-.885.314.744 4.906.999 6.584.32 2.113.492 3.24 2.122.753-.935-6.161-.321-2.115-1.079-7.123-.37-2.437-.066-.438.41-.146 2.284-.811 6.666-2.364v-.001l.749-.265.324-.115h.001l-.325.115-.749.266 1.337 2.52 36.834.345 17.002 35.977zm-78.941-40.703l-.952-1.527 1.651-.162 2.259-.223-.26 2.606.943.008.523-.82-.082.824v.001l-.441-.004-10.688 16.758-.118.097 1.057-4.739 5.034-12.159.517-1.249.786 1.261.191.002-.42-.674zm75.164 11.793l-7.526-8.418-2.087-.019.561-16.472 7.312 18.521.589-8.707 3.395 4.805-2.244 10.29zm17.5-18.178l.08-5.637 3.294 5.77-3.374-.133zm7.944 4.369l-1.546-2.71 1.024.041.522 2.669zm-4.059-20.736l3.261 16.649-1.569-.062-7.391-12.944-.101 7.052-2.193-10.695h7.993zm-10.898-4.316l.598 2.911h-1.23l.632-2.911zm-.94 4.316h1.826l4.109 17.694-.314 21.702-10.857-15.366 5.236-24.03zm-22.558-22.694l-3.877 3.242 1.939-4.127c.631.293 1.275.588 1.938.885zm-3.659-1.697l-5.374 11.433 3.279-2.742-2.105 17.753-6.348-24.806 4.747-4.557c1.545.816 3.524 1.828 5.801 2.919zm-11.357-5.769c.871.286 1.623.598 2.024.918 0 0 .708.41 1.942 1.082l-3.646 3.499-1.003-3.923.683-1.576zm-4.312 9.945l2.989-6.896-.672 4.671-2.317 2.225zm3.911.661l7.092 27.722 1.751-.059 2.202-18.571 7.102 10.462h17.808l-4.76 21.844-6.059-8.576.179 7.809-5.986-17.623-1.744.13-.683 20.037-5.821-9.351-15.825-.816 4.744-33.008zm-6.112 42.507l1.165-8.103 14.681.758 6.522 10.476-36.494-.343-6.374-12.009 17.876.922 2.624 8.299zM150.628 32.99l-.975.403 1.707.085 12.225.608 5.419 17.137-18.192-.938-.461-.869-1.063-2.003-1.115-2.103-.837-1.577-4.081-7.69-.912.377 5.548-2.297 2.737-1.133zm-25.284-3.156l.21.392 1.081.054 2.516-.494 8.933-1.754-.606.119-.163 1.635-.149 1.503-.008.076-1.52-.076-9.525-.474-.062-.115h-2.376l-.26-.486 1.929-.38zm-4.476.867l.006.011-.689.136-.004-.146h.687zm-.72-1.504h-.008l-.001-.02.009.02zm-.963 2.932l.046-.396 1.511-.297.69-.135 2.54-.499.259.486.46.864 4.983.248H150.071l-2.737 1.133-9.116 3.774v10.59l-7.225.373-7.301-15.281h-1.729l8.044 16.836 8.211-.422v5.165l-2.021.305-2.032.306-3.493.526-1.276-.282-.296-1.904-1.542 1.5-6.775-1.493-.543-20.536h-1.156l.101-.861zm7.325 24.204l.316.069-.209.393-.272-.437-5.468.823-.057-2.102 5.69 1.254-.057.008.057-.008zM106.877 9.096l1.379 3.595-.687 5.154-1.237-4.236.545-4.513zm-1.023 8.468l2.297 7.857 1.281-9.657 5.728 14.937h3.446l.012.454.057-.011-.047.396-.1.861h.123l.547 20.777c-4.482-.986-8.959-1.974-13.434-2.96l6.732-17.817h2.059l-.127-.423-1.914.375 1.23-3.255-10.966 13.929 3.076-25.463zm.118 41.567l1.261 1.743-2.851.28 1.59-2.023zm-5.505 5.105l3.437-9.094 1.265 2.439-4.702 6.655zm4.177-11.055l.581-1.537 3.58.789-2.625 3.715-1.536-2.967zm-2.222-7.199l6.287-7.986-4.49 11.882-1.452-.319-.63-1.217.285-2.36zm-1.969 2.5l.066.129-.052.441-.396-.087.382-.483zm1.586 3.061l.896 1.73-2.096 5.546-1.104-7.131 2.304-.145zm-2.367-4.571l-.557.71-.395-2.545.952 1.835zm-2.539-1.806l.227 4.745-.35.444-4.544.289 4.278-7.998.389 2.52zm-1.373 6.776L83.32 67.745l8.312-15.54 4.128-.263zm.386-30.577l-.383 8.201-1.119-3.629 1.502-4.572zm.498 16.376l-.942-1.82.646 4.164-5.712 10.677-4.243.27 7.406-22.519 2.845 9.228zm-4.049-10.593l-7.886 23.988-7.344.469 15.23-24.457zM74.107 48.536l-.787 3.326-.691.044-.088-.037 1.566-3.333zm-2.362-4.569l-1.86 6.794-2.356-.982-5.558-9.499 9.774 3.687zm-2.532 8.156l-.303.019-.111-.191.414.172zm-4.068-3.338l-4.56-1.902-.646-6.996 5.206 8.898zm-4.197-.109l-.167.339-.038-.425.205.086zm-4.847 13.346l1.896-3.842-.982 5.996-.914-2.154zm-.941 23.19l2.529-15.443 2.243 5.281-4.772 10.162zm5.664-12.061l-2.661-6.268 1.72-10.496 1.45 15.683-.509 1.081zm1.828-3.893l-1.759-19.035.241-1.47 5.279 2.201 1.609 2.751 1.072-.067-1.244 4.547-5.198 11.073zm5.29-5.464l1.397-5.106 2.453-5.222.559-.035.543.226-.834 3.525-4.118 6.612zm10.769 5.58l-7.488-1.843 2.316-9.784c.967-1.552 2.072-2.828 2.75-4.315l-.049-.022.146-.236 7.814-.497-5.489 16.697zm1.741.427l-.216-.053 5.648-17.179 3.918-.249-9.35 17.481zm39.516-7.9l-.541-.005.212 8.094-9.07 17.151-3.379.031 5.887-24.834-12.871 21.593 1.328-8.942-18.387-4.524 14.686-18.653.328-.022 1.538 9.925.052-.006-2.571 8.614 7.188-9.147 3.104.028.851.007 1.863.017 3.006-.296-.228-.622-4.805.473-1.174-3.085 3.464-4.903 8.79 1.936.07 2.688-2.236.337h3.819l.003.098.539-.082 5.468-.823.273.438.599.958h2.18l-.386-.617-.673-1.079 2.333-.352 3.493-.525-.258 2.573h2.003l.286-2.88 2.021-.304V37.899l2.732-1.132 4.666 8.792.837 1.577.479.903.778 1.467.279.525.075.143-.114-.006-1.791-.094-.3-.473-1.407-2.22-5.213-8.22 1.396 9.201.227 1.495.386 2.547.354 2.335 1.029 6.79 1.373.013.11-.391.06.392.469.004-1.419-9.354-.354-2.334-.016-.105-.227-1.495-.062-.403.249.394 1.458 2.299.548.864 2.736.141 1.274.066.22.414 5.096 9.601 1.036.009-.868.308.144.27-.881-.008-6.133 2.176-2.285.811-.626.222-1.812.644-1.803.64.309-2.593-13.552 11 8.329-13.061-.464-.004.082-.824.259-2.583 1.482-.146 1.542-.151H120.906l.03 1.18-1.569.155-4.415.435.424 1.161-.874-.008 1.217.011-.209-.575 4.415-.436 1.569-.154 4.47-.44 2.485-.244.544.873.574.921.48.771-.111-.002-.377-.75-.04-.079.008.154.035.672-.312-.003-.633-.006-.166-.001-1.133 2.736.612-2.741-.918-.008-.496-.004-.191-.002-2.492 11.174-2.388 5.767-.225-8.569 4.431-8.378-.891-.008-.864-.008-2.76 5.217-.138-5.244-1.03-.011zm.604 23.203l.671-1.62.271.058-.452 2.035-.49-.473zm18.893 2.272l-.373.481-.383-.347-1.266-.28-1.447-.32-13.422.122-1.205-1.161 1.324-2.076 14.527 3.104 3.306-.03h.001l.651.589h.063l.488-.6.001-.001 1.863-.018-.001.002-.272 1.36-1.403-.3-.146.179-.305-.275-2.001-.429zm.648 10.151l-1.34-.312V94.56l.382-.467.848-1.036 1.331-1.627-.474 2.366-.492 2.46-.255 1.271zm7.702 4.28l-1.556 1.771-1.089 1.241-1.912 2.178-1.016 1.157-2.9 3.304 1.023-5.111.357-1.79 1.034-5.166.423.099 2.054.478 1.977.459 2.339.544-.734.836zm1.813-2.066l-.461-.106-2.089-.486-3.222-.749-.576-.135-1.239-.287.54-2.699.708-3.534 6.199 5.614 1.243 1.126-1.103 1.256zm.147-4.413l-6.1-5.524.203-1.014.272-1.359.557-.005 1.194-.012.191.308 1.11 1.779 2.768 4.438.185.296-.117-.773-.526-3.466-.241-1.595-.154-1.016 1.585-.015 4.061 6.521-2.912 3.316-.669-.605-1.407-1.274zm1.802 4.868l.462-.528.942.854-1.404-.326zm4.808 1.117l-3.226-2.921 2.577-2.937 4.155 6.673-3.506-.815zm2.385 2.036l-.049.081-.138-.125.187.044zm.459 2.832l1.232 1.116-1.607 3.649 2.585-2.767 2.619 2.374-7.68 6.685-3.425-.679 6.276-10.378zm-10.94 18.095l.812-1.344 3.065-5.07 2.847.564-5.558 4.836-1.166 1.014-.003.003.003-.003zm-9.516 15.641v-6.529l4.697-.458-4.697 6.987zm32.238-11.094l-26.517 2.588-.001-.004-.003.004-2.063.203 7.105-6.183 1.165-1.015 6.406-5.575 12.343 2.446-1.447 2.135 2.394-1.947 2.759.548-1.799 7.015-.342-.215zm2.196 1.385l-.107-.065 2.34-9.125-3.605-.714 4.396-3.578 1.342 9.038-4.366 4.444zm1.497.946l3.187-3.242.861 5.8-4.048-2.558zm4.122-10.456l1.642 2.118-1.151 1.173-.491-3.291zm-2.232 23.137l3.841-7.172.844.531-.246-1.647 3.799-7.094 3.008 3.884-11.246 11.498zm9.168-17.118l6.334-11.829 2.689 10.346-5.678 5.806-3.345-4.323zm14.166 18.299l-9.749-12.592 5.116-5.232 4.633 17.824zm-3.538-21.423l-2.271-8.738 1.556.438 3.513 5.441-2.798 2.859zm1.964-7.547l4.246 1.195-2.093 2.142-2.153-3.337zm5.633 10.708l-2.516-5.878 3.03-3.1 3.336.939-3.85 8.039zm3.855-3.637l2.637-3.659.711.201-3.348 3.458zm4.499-4.646l-.955-.27 3.906-5.421 1.003 1.604-3.954 4.087zM138.389 291.427l-.986-4.247h-1.611l.908 3.921-2.303-3.921h-.165l.084-.138-.265-.451h.541l1.075-1.759 1.168-1.91.315-.517 2.737-.537.26-.051h-2.636l.126-.206-.755.148-.067.058h-.223l-.315.515-.1-.434-1.541.303-2.836.557-1.617.317-10.38 2.037.618-.121-.629.822.343-.067-.254.845h.324l.773-1.01-.618.12 10.379-2.037 1.617-.318 1.867-.366.494-.425.072.314.402-.079 1.541-.303-.904.178-.555.479-.351.302.185.798-1.242 2.033-.749-1.274-1.057.911-.141.121.179.305-.276.252h.403l.011-.018.011.018h.78l.321-.292-.188.292h.513l-.001.001h-.513l-.366.57-.012.018h-.189l5.623 9.574v12.006l-7.422 1.118.201 2.066h.5l-.144-1.478 7.421-1.117v-12.825l1.01-.896 1.123-.994.768-.681 6.373-5.647.122-.108-.112.047-4.671 1.934-2.362 2.093-.117.104-.558.494v1.177l-1.122.995-1.01.895v-2.26l.557-.494v-1.095l.172-.07 9.111-3.772 2.571-1.064h-1.31l.589-.521-2.408.997-9.107 3.768zm9.101-3.709l.009-.062.112-.047-.121.109zM0 142.302l.041.038c.021-.085.039-.181.059-.288a.988.988 0 01-.1.25z"/><path fill="none" d="M222.669 110.699c-.041.129-.086.249-.126.38 0 0 .033.105.089.343.153-.5.315-.982.482-1.452-.148.255-.297.492-.445.729z"/><path fill="#000202" d="M223.746 136.373s.57 7.042.795 14.801c.267.544 1.656 2.687 6.963 2.619 0 0 16.846 1.65 38.533-8.9 0 0 3.039-2.02 2.607-5.137 0 0-1.436-19.096-2.453-35.293 0 0 .662-11.433-2.987-26.436-2.244-9.07-6.065-19.408-12.553-29.303 0 0-5.496-6.653-16.642-16.641v.007l.016.009s.051.989.104 2.695l-.013.062c.064 2.065.134 5.16.13 8.847l.016-.072a247.977 247.977 0 01-.255 11.287l-.017-.001c-.021.467-.044.935-.069 1.404l.017.001a169.226 169.226 0 01-.588 7.812h-.018c-.047.47-.095.938-.146 1.404h.018c-.386 3.503-.9 6.905-1.588 9.985 0 0-1.329 4.937-3.33 11.282l-.186.079c-.181.617-.368 1.244-.56 1.88l.139-.06c-1.3 4.024-2.825 8.439-4.429 12.456l-.094-.217c-.151.333-.303.659-.453.979l.168.173.659.678-1.684 1.74-.755.78c-.686 1.445-1.33 2.885-1.903 4.463l.127-.132c-.067.118-.136.23-.203.346-.167.47-.329.952-.482 1.452.09.385.243 1.15.436 2.49.054.353.11.736.17 1.188.001.001.371 7.672.51 21.273z"/><path fill="#070708" d="M213.471 103.505l2.041.535 1.948.511 3.166.829-3.787 5.254 1.013 2.141 7.242-7.481.755-.78 1.683-1.741-.659-.677-.168-.173-27.207-27.986z"/><path fill="#FFF" d="M141.505 6.783l.311-.246-.635.205.324.032zM138.217 9.377v.173l-.226.006-.786.62 1.568-.036V8.938z"/><path fill="#070708" d="M208.535 117.398l4.314-8.157-7.187 7.349zM214.344 105.234l-.064-.018.026.056zM195.302 100.244l-.607 10.133 2.466 3.82 6.601 1.858 8.283-8.471-2.206-3.531zM214.108 110.888l-.85 1.608.994-1.379zM143.289 91.744l-.708 3.534-.54 2.7 1.239.287.576.134 3.222.749 2.089.487.461.106 1.103-1.257-1.243-1.126zM194.118 114.854l2.272 8.739 2.797-2.86-3.513-5.441zM192.096 114.888l-6.334 11.829 3.345 4.322 5.678-5.806zM190.179 132.424l9.749 12.592-4.633-17.825zM142.039 81.524l.105-.135-1.504-2.412-1.329-2.132-.527-.845-.011.09v5.012l.028.009.918.326.045-.376 2.065.732-.238.308.796.283.485.172-.276-.443-.038-.06-.244-.087zM181.032 135.547l.246 1.647-.843-.531-3.841 7.172 11.245-11.498-3.008-3.884zM180.468 122.816l-1.642-2.118.49 3.291zM174.704 131.154l4.048 2.558-.861-5.8zM201.472 120.876l2.515 5.878 3.851-8.038-3.336-.94zM198.354 116.046l2.154 3.337 2.093-2.142zM207.842 123.117l3.347-3.458-.71-.201zM211.386 118.201l.955.27 3.954-4.086-1.003-1.605zM177.271 10.891l-2.99 6.895 2.318-2.224zM182.56 9.841c-1.234-.672-1.942-1.082-1.942-1.082-.401-.32-1.153-.632-2.024-.918l-.683 1.576 1.003 3.923 3.646-3.499zM154.763 93.892l-4.061-6.522-1.585.015.154 1.015.242 1.595.526 3.466.117.773-.184-.296-2.768-4.437-1.11-1.779-.192-.308-1.194.012-.557.005-.272 1.359-.203 1.014 6.099 5.524 1.407 1.275.669.605zM124.469 91.734l.914.138 2.629.396 8.274 1.245 1.374-1.68.433-.529.61.526.507-.62h.251l-.006-.001H120.984l1.573.237zM205.48 312.394l-6.118 20.168-3.845-11.243-1.965 10.591-1.788-.023-1.015-7.819-3.07 2.716-1.563-3.645-3.725 10.506-4.939-9.923-5.334.117-.698 10.541h-1.367l-5.014-10.387-17.331.379-8.936.195v10.136H196.821c-1.652.221-3.457.42-5.416.59h.56c16.335-1.413 21.583-4.956 21.583-4.956 2.607-1.126 4.41-2.571 5.657-3.955l-6.581-14.432-7.144.444zM195.094 61.621l.682-20.037 1.745-.13 5.986 17.623-.179-7.808 6.059 8.576 4.759-21.844h-17.807l-7.102-10.462-2.202 18.571-1.751.059-7.092-27.722-4.745 33.007 15.825.817zM134.154 61.447l.26-2.606-2.259.222-1.651.163.952 1.527.42.673 1.663.016z"/><path fill="#070708" d="M204.879 66.159l-7.312-18.521-.56 16.471 2.087.019 7.526 8.418 2.242-10.289-3.394-4.805zM224.12 54.368l3.374.133-3.294-5.77zM157.954 63.742l36.494.343-6.522-10.476-14.681-.757-1.165 8.102-2.624-8.299-17.876-.922zM232.064 58.737l-.521-2.669-1.024-.041zM221.788 77.397l.315-21.702-4.11-17.694h-1.826l-5.236 24.03z"/><path fill="#070708" d="M222.306 41.645l7.39 12.944 1.57.061-3.261-16.649h-7.993l2.193 10.695zM217.107 33.685l-.632 2.911h1.23zM217.834 106.147l-1.07-.28-1.15 2.173.339.717zM189.722 105.749l-12.389 10.08 4.406 5.692 9.554-9.724zM191.243 89.13l-7.551 6.572 2.629.69zM193.141 102.967l-3.131 2.546 2.856 2.03zM189.097 116.504l-6.288 6.4 1.691 2.184zM188.344 98.421l-1.356.25-10.708 15.799.033.042 17.889-14.557zM179.635 126.136l.934 6.29 3-5.603-2.031-2.625zM165.93 100.814l-.388-.305-.6 1.363zM175.688 72.726l-17.493 19.93 6.479 5.073zM177.322 99.01l3.073-2.672-.187-.05 1.031-9.303-12.767 13.666zM175.202 100.855l-7.891 1.04-3.232 3.459 2.092 3.361zM157.103 93.9l-.09.103 5.448 8.754 1.526-3.465zM180.586 98.405l4.511-.836-2.73-.715z"/><path fill="#070708" d="M213.536 27.489l1.329-4.979c-1.206-.371-1.908-.567-1.908-.567-5.86-1.189-12.164-3.514-17.637-5.883l-7.439 6.221 9.718 14.315h16.854l2.716-12.46 2.554 12.46h10.023l3.552 18.135.571.023 4.248-19.898.013-.062c-.054-1.706-.104-2.695-.104-2.695a.229.229 0 00-.016-.009c-7.118-4.114-16.08-7.309-21.127-8.943l-3.347 4.342zM148.051 115.137l2.017.835.002.002h-.069l.461.091.068.014-.626-.603.556.109.343-.567v1.115l.214.042.343-.568 6.466-10.696-2.645-2.398-4.68-1.088-.003-.001-1.887 2.149-1.436 1.636-1.089 1.242-1.555 1.771-1.015 1.157-2.499 2.847 6.901 2.857zM204.453 95.435l-12.759 2.364 17.026 4.462z"/><path fill="#070708" d="M185.75 40.054l2.105-17.753-3.279 2.742 5.374-11.433a170.921 170.921 0 01-5.801-2.919l-4.747 4.557 6.348 24.806zM193.609 15.307c-.663-.297-1.308-.592-1.938-.885l-1.939 4.127 3.877-3.242zM163.262 107.542l-.491-.788-.174.186zM130.627 257.691l.356.005 1.236.016-1.499-.327zM131.705 254.115l-.314 1.045-.563 1.866-.026.086 2.516.031.568.589 2.586.032-.368-.587.324.004.307.586.25.003 1.771.021.143.002.964.013.495-.576-.951-.012h.001l.508-.663-3.374-3.269 2.232-.382h-.003l-2.363.404-1.614.276-.679.116-1.656.284-.052.009-1.476.253.774-.131zm6.637 3.09l-.088.103-.055-.104.143.001zM158.77 103.349l-.187-.044.138.125zM142.342 36.42l.912-.377 4.081 7.69.837 1.578 1.115 2.102 1.064 2.003.461.869 18.192.939-5.419-17.137-12.225-.608-1.707-.085.975-.404h-.001l-2.737 1.133zM164.058 110.554l-2.62-2.374-2.584 2.766 1.607-3.649-1.232-1.116-6.276 10.379 3.425.678zM170.318 120.001l14.141-20.86-5.993 1.111-11.392 9.912.837 2.868-2.594-1.34-6.848 5.961zM147.857 61.572l1.796.016 4.805.044.001.001.245.002-5.096-9.601-.219-.414-1.275-.066-2.736-.141-.548-.864-1.458-2.299-.249-.394.062.404.226 1.495.016.105.353 2.334 1.419 9.354.987.009zM155.016 62.222l-.144-.27-.737.262zM155.736 95.456l-2.577 2.937 3.226 2.92 3.507.816zM161.183 105.66l.376-.853-.761-1.221-.674 1.115zM176.229 116.726l-4.395 3.578 3.605.714-2.339 9.125.107.065 4.364-4.444z"/><path fill="#070708" d="M137.729 25.631l.746 1.407h1.115l-1.01.199.207.391h1.36l-1.231.242 1.018 1.917.798 1.503.138.26 6.031.3 1.742.087.285.014 2.433.121 13.851.688 5.872 18.572.371.019 4.749-33.032-7.264 6.971 6.821-15.729-4.41 5.624-3.812-8.646h-8.493l2.654 24.12-10.34-12.944-.523-.655-4.24-5.31-1.403-1.756-.876-1.098-.778 1.136-2.122.049.088-3.295v-.012l-.324-.032-2.407.777v17.61l-1.448.204.364.687.038-.389zm3.091-14.635l1.113-.026-.42.612.977-.022-1.157 1.688.038-1.458-.596.869.045-1.663zM136.588 27.627h.941l.019-.189-.023.005zM137.14 25.359l-11.927 1.679h11.76zM151.577 100.196l1.404.325-.942-.853zM203.243 220.978l1.028-.527-3.176-2.413zM166.311 269.862l1.502.635-1.634 2.645 12.881 1.389-24.91-26.999-.329.051 9.397 25.021zM123.89 205.138l.241.45-.102-.478zM126.576 204.61l2.369 2.055-.347-2.451zM160.026 246.617l-3.106.484 7.404 5.262zM184.822 241.324l4.886 4.929 12.892-17.644-2.83-1.797-16.409 5.279 18.247-10.278-3.773-5.161-14.877-2.086-28.203 21.99 6.33 8.46zM163.176 277.995l-1.06 1.714 3.232 4.069zM205.079 228.291l2.368 1.505-1.734-2.372zM204.493 238.769l6.701 6.688-4.385-8.456zM207.125 233.511l.438.844.472-.36zM125.07 147.998l-.67-1.871-.742.01-.936.01-5.72.071.777.532z"/><path fill="#070708" d="M203.544 227.316l1.045-1.427-2.056-2.812-12.527 6.185 10.083-4.141zM203.834 229.995l5.562 2.963.022-.019-5.285-3.355zM208.003 221.216l1.094-1.498-1.832.938zM208.713 218.179l-5.78-.811 2.965 2.25zM204.167 222.241l1.545 2.111 1.319-1.807-1.391-1.057zM113.553 207.309l-.02-.138-.373.073-.331.065h.339zM196.372 312.962l-5.858-6.126 1.771 13.617 1.65-1.459 1-5.39 1.182 3.46 4.974-4.397zM123.277 232.072H130.379l-.966-1.185-.674.101-3.726.562-1.632.245-1.616.243.058.034zM130.942 230.656v.001l.229-.035zM192.853 324.824l.581-3.13-.886.784zM187.061 320.475l1.429 3.333 1.996-1.765-1.069-8.219zM133.375 235.758l.079.001-1.886-2.32-.623.061-4.671.46-1.401.139 1.756 1.013-.201-.383 1.701.981 4.756.044.517.589h.04l.491.005-.479-.588-.079-.001zM206.977 307.465l2.567-2.272-1.128-2.475zM206.041 310.548l-.125.408 6.084-.378-1.723-3.776zM199.245 326.215l4.005-13.2-6.54 5.783zM132.24 232.072h.719l-1.98-1.407zM133.787 232.661l-.104-.074-.751.074zM175.056 292.484l4.465-16.482-14.167-1.53-.893 1.445 4.208 13.719-7.556-8.308-8.984 14.527 19.6 3.696.852-12.836zM162.353 275.804l-.049-.132-1.992 1.767.579.729zM159.258 276.113l2.312-2.05-4.31-.464zM176.376 300.426l-.636-1.482-.759 1.219zM138.773 139.917l4.698-6.987-4.698.458zM187.842 304.04l-8.519-1.604 6.611 15.412 4.086-11.53zM174.249 295.467l-.216-.503-.114 1.717zM134.479 233.152l-1.167.116 2.251 2.51 2.646.025zM138.773 236.392v2.97l1.638 1.826 1.146 1.279 2.375 2.65 2.829 2.125 4.597-.715-.706-1.882-4.574-3.25-1.635-1.163-6.226-4.424v.579zM173.609 301.358l-1.398 21.072 6.644-.145 3.215 6.46 2.92-8.234-7.937-18.503zM207.964 202.101l5.879-10.428-5.812-6.477-1.913 15.577zM197.151 178.102l-1.448 2.952 1.842-.216zM198.702 174.938l.819 5.669 3.975-.466-4.749-5.295zM197.748 182.239l-2.785.326-.457.931 3.452.199zM191.332 182.991l-1.849.216 1.841.106zM201.657 257.324l-.031.051.056-.009zM207.062 203.7l.096-.172-.471-.338zM205.395 206.656l.691-1.225-.464-.63zM191.167 190.307l.052-2.31-.474-1.866.501.644.046-2.054-4.843-.28 7.074 12.653-1.936-7.644zM213.119 172.123l.918-2.159-.752-1.59zM139.831 98.942l-1.058-.247v3.931l.269.259zM115.886 32.39l.375-.074.023.085h.661l.016-.222-1.075.211zM200.518 187.529l1.481 10.284 2.277 1.635 1.994-16.218-.36-.4-2.723 7.835zM146.021 143.964l-2.303-8.116-4.072 6.058 6.227 2.011zM149.915 115.498h.002v1.54h-.002zM199.125 240.79l2.806-2.14-.813-.813z"/><path fill="#070708" d="M203.448 230.521l-11.505 15.748 2.628-2.004 6.208-9.203 2.537 2.532 2.725-2.077zM170.393 121.476l-2.394 1.947 1.447-2.135-12.342-2.446-6.407 5.575-1.165 1.015-7.105 6.182 2.063-.203.003-.004.001.004 26.517-2.588.342.215 1.798-7.015zM200.043 184.238l2.359 2.771 1.925-5.541-4.605.539zM198.777 195.497l.983.706-1.597-11.087-4.33-.25-1.574 3.214 7.773 10.018-.159-1.113zM169.752 329.384l.365-5.502-2.988.064zM175.315 267.894l-3.133-7.952-12.197-8.666zM190.464 249.47l-7.012 5.347 5.224-7.15-4.727-4.768-21.901 3.404 10.056 13.443-4.809-12.193 14.182 12.813 17.251-2.561z"/><path fill="none" d="M122.957 152.361l-.113.011"/><path fill="#070708" d="M122.445 152.411l.564.074-.165-.113zM169.631 6.536l2.239 5.078 3.61-4.607c-1.282-.29-2.288-.471-2.288-.471h-3.561zM198.239 259.312l-17.572 2.611-8.75-7.908 8.131 20.623 1.821.197-5.16 19.052zM191.851 248.413l8.092 8.162.664-1.066-5.531-9.559zM113.073 315.445l-.292-.283-.841.083-1.006.099.058.665-.529-.005-.471-.004v.001l.471.004 1.121.011-.087-.585zM125.487 236.271l-.017-.01.006.01zM116.281 234.945l-.991.098.312-.03.232.585 8.624.079-2.273-1.314zM113.794 286.99l-.965.19h1.775l.36-.419zM119.793 285.813l-.595.778h.684l.254-.845zM119.354 285.899l-3.11.611-.413.081h3.315zM113.19 60.932l-3.005.296 3.124.028zM120.985 61.327l3.221.029-.308.582.864.008.891.008.308-.581.496.004-.13.583.191.002.496.004.918.008.13-.583.632.006-.241.582.166.001.633.006.312.003-.035-.672-.008-.154.04.079.377.75.111.002-.48-.771-.574-.921-.544-.873-2.485.244-4.47.44-1.569.154-4.415.436.209.575 3.691.034.016.584.541.005 1.033.01-.017-.584zm8.018-.674l.378.751-.158-.002-.217-.002-.034-.672-.009-.154.04.079zM115.831 206.72h2.425l-.224-.432zM120.895 205.726l-.705.138.443.856h.38zM135.386 202.881l-4.835.949.409 2.89h6.167z"/><path fill="#070708" d="M148.647 207.309h1.981l-9.36 3.874.415 1.03-1.881.398-.292-.644-.266.055-.001-.001-.47.194v17.263l-5.866.883 2.519 1.711h3.478l-3.036.3-.271.026.386.263h3.478l-3.035.3 10.017 6.798 1.692 1.147 1.495 1.015-.473-1.257-.249-.662-.308.073-.535-1.423-.176-.471.388.422.178.192-.01-.025.39.421 1.173 1.271 4.629 5.017.621.442 3.805-.591-6.723-8.989 29.895-23.309 14.432 2.026-4.019-5.497 7.971 6.049 1.642.231 1.643-13.374-1.535-2.088.648 4.496-8.157-10.51 1.741 10.219-10.514-16.951 1.946 19.949-8.87-9.415-39.781 5.42-.781-1.337-.864.169 1.732 4.301h10.601zM126.382 206.672l.011.048h.044zM122.633 121.926l.218.257-.466-.066.75.106.102-.297z"/><path fill="#070708" d="M135.48 117.308l.149-.745h-14.86l-.76.929 2.626.515-.205.441.762.15 3.224.632-.022-.484 9.204 1.806 2.416.475.109.021 1.467.288h-2.444l1.425.28.109.022 1.467.288H123.378l-.018.329.5.07.084.011.981.138.026-.507.018.002.023.515.517.073.016.003 1.051.147-.023-.514 10.636 1.497-.339.463.896.126 1.027.145v7.547l2.862-.281 2.018-3.337.171-.283 3.074-5.085.813-1.343 2.518-4.164-4.615-.915h-8.405l-.749.854-.422.481.186-.932.08-.403h-.169l-.233.265zM141.032 256.248l.029.127.635-.829-.126 1.511-.015.188.349.004-.31.578.868.011.89.011.031-.059.05.06 2.519.031-.106-.583 4.052.05-1.735.56 2.293.029-3.818 1.233-1.606.518-2.173.702-1.608.519-.389 4.676 1.854-.228 3.38-.415 1.562-.191 1.449-.178.896-.11 1.357 1.709 4.665 5.872 5.123.553-9.278-24.71-.51.079-4.279.665.19.211-.329-.19-.863.135-.264-.198-3.358-2.525-3.684-2.126v2.291l.808 3.583.332 1.471.918 4.075.308-.401zM117.644 314.683l.718-.071-.984.872 6.03.055.449-1.468zM123.931 315.544l.213.002zM208.332 235.84l3.732 7.195a384.896 384.896 0 01-.16-6.977l-2.271-1.211-1.301.993zM133.35 286.299l-.322.292h.134zM132.795 287.162l.366-.57h-.134l-.37.337-.137.125.074.126h.189zM202.357 215.854l8.552 1.198 1.147-.587c.027-.982.057-1.91.088-2.799l-4.843-6.583-4.944 8.771zM211.898 224.172c.023-1.877.058-3.661.098-5.348l-2.548 3.487 2.45 1.861zM212.505 205.364c.054-.984.089-1.53.089-1.53.306-2.332.609-4.954.906-7.741l-4.007 7.106 3.012 2.165zM208.277 205.354l3.975 5.402c.054-1.323.105-2.482.153-3.456l-3.719-2.673-.409.727zM220.096 311.483l-5.431.339 5.855 12.841c1.054-1.646 1.327-2.903 1.327-2.903.134-.352.158-.816.121-1.321-.238-1.585-.923-3.318-.923-3.318a902.851 902.851 0 01-.949-5.638zM209.003 266.803l-6.162-4.849-4.332 23.041 12.343-21.396 2.106 15.087 2.348.328c-1.128-8.698-1.797-14.842-2.056-17.316-.12-1.142-.18-1.747-.18-1.747-.087-.952-.167-1.91-.243-2.87l-9.085 1.27 5.261 8.452zM134.231 287.18h.165l-.081-.138zM130.902 281.229h5.356l.768-.663.703-.606-.422.692-.353.577h.545l.085-.074.703-.606-.416.68H139.59l-.26.05-1.692.332-.126.206H140.147l-.259.051-2.738.537-.315.517-1.168 1.91-1.075 1.759h1.062l.137.589h1.611l-.136-.589h10.168l1.009-.895 2.31-2.047 7.161-6.346-3.156-3.976-3.398-.366-.001-.001-2.245-.242-1.63-.176-1.065-.115-2.202-.239-5.444-.587v7.718l-1.382.195-3.514.495-3.214.452-1.666.234-3.788.534h3.89z"/><path fill="#070708" d="M136.593 281.817h.222l.068-.057-.289.056zM214.039 310.451l4.724-.295-.917-.218 1.562-2.685a955.154 955.154 0 01-1.173-7.487l-6.461 5.714 2.265 4.971zM176.976 296.961l1.669 3.893 10.437 1.966 8.289 8.67 5.437-.339 1.378-1.219 3.842-12.665 3.013 6.604 6.895-6.095a953.553 953.553 0 01-2.438-17.303l-4.382-.613-1.459-10.453-13.451 21.622 4.944-30.783-.806-.811-23.368 37.526zM208.552 180.972l-.234 1.91 5.855 6.527c.232-2.433.458-4.916.675-7.394l-1.772-1.574-4.524.531zM159.889 279.788l-.92-1.158-7.609 6.741-1.377 1.22h.087l-.163.067-.589.522h1.31l-2.571 1.064-9.112 3.773-.172.07v1.095l.018-.016 1.558-1.38v1.083l.557-.494.117-.104 2.363-2.092 4.671-1.934.112-.047-.122.109-6.373 5.647-.768.681-1.123.994-1.01.895v12.826l-7.42 1.117.143 1.477h7.408l-5.977.589h6.534l-12.736 1.255-.544 1.776 2.374.022.544.005-.049-2.031 2.58-.254.224 2.311 7.765.071.73-.062 1.573-.131 5.888-.493 1.624-.136.238.615.319-.026 12.533-1.048 3.933 8.15 3.753-.082 1.425-21.489-22.263-4.197z"/><path fill="#070708" d="M140.349 315.694v.568l.557-.046 1.016-.085v-.422zM121.543 311.944h2.965l.143-.468zM127.565 311.037l-.276.907h1.18l-.026-1.04zM196.572 244.81l5.153 8.905 3.817-6.132-1.781 9.475 8.962-1.331a283.17 283.17 0 01-.414-6.718l-9.2-9.184-6.537 4.985zM147.913 266.146l-1.562.191-2.933.36-2.675.327-.01.119-.267 3.22 2.689.291 2.475.267 1.59.172 1.629.176 4.673.504-4.572-5.754zM211.345 177.725l.867-30.336-12.63 25.756 5.505 6.137 3.759-8-.172 7.39 5.237.249 1.117.992c.193-2.27.378-4.514.553-6.688l-.445-.94-3.791 5.44zM206.835 225.887l4.235 5.793.793-.604c-.004-1.66.001-3.283.014-4.852l-3.401-2.582-1.641 2.245zM234.229 62.526l.913 1.599 2.19.008h.018c.259-2.595.451-5.227.588-7.812l-.017-.001-2.348-.093-1.344 6.299zM181.423 184.152l-42.65 4.999v9.706l.648 1.106.833 1.423.352.602 39.486-5.379 5.432 5.765-1.765-18.088z"/><path fill="#070708" d="M233.644 65.271l-.156.728-.3-1.524-4.87-8.533-4.22-.168-.398 27.486-13.294-18.817-2.623 12.042-9.801-10.962-1.022-.009-.085 2.469-1.546-2.485-1.632-.014 28.919 29.744-8.855-20.599L227.129 89l4.973-2.116.186-.079c2.001-6.346 3.33-11.282 3.33-11.282.688-3.08 1.202-6.482 1.588-9.985h-.018l-3.398-.011-.146-.256zM128.971 152.161l.216.602.72-1.072-1.402.136v.001l.334-.033zM136.371 150.425l2.402.412-6.505.627v.001l1.019-.099-.534.795-.995 1.48 6.459.853v.515l.556.074v13.706l-14.861 1.962-3.724.491 4.299.414 5.083-.045 8.647.834-2 .342 2.556.247-19.595 3.355 4.163.76 26.557.327-1.736.56 2.294.028-10.667 3.445-1.016.328V187.729l34.505-4.045-26.275-1.515-6.04-.348-1.365-.248.196-.064 3.058-.988 3.647.209 3.193.185 31.648 1.822 2.242-.262-.372-3.829 2.031 3.634 6.123-.717.398-17.562-41.106-3.719-3.024-10.65-.249-.877-.309.287-.471-1.66-.432-1.523-9.439.117.18-.002-2.441 3.632 3.746.642zM126.514 152.019l-.891.085.766.523.455.312zM121.025 27.627h.104l-.006-.014zM208.398 125.04l11.003-1.771.04-.713c.021-.191.046-.369.067-.555l-6.42-1.808-4.69 4.847z"/><path fill="#070708" d="M203.067 129.345l-2.918-7.118-3.25 3.324 7.233 27.835-15.223-19.664-16.659 15.87 6.59-13.936-5.282-3.337-4.122 4.196 1.502-5.852-.572-.36-25.48 2.487 3.379 11.897.915.295.719.233-.982.012-.238.003 1.059.342.72.232-.982.012-1.274.016.39-.004.182.643.472 1.66 3.091 10.885 41.453 3.75-.419 18.561.096-.012 3.21-6.545-.837-5.804 2.38 2.654 16.398-33.443-1.271 28.857 1.369 1.344 1.52-3.575c.554-7.415.896-12.647.896-12.647.753-7.004 1.348-14.707 1.745-20.501l-13.495-3.498-2.315 1.188z"/><path fill="#070708" d="M206.537 126.963l12.435 3.224c.15-2.248.267-4.129.346-5.462l-12.571 2.021-.21.217zM223.317 109.625l-.127.132-.318.329c-.068.202-.137.406-.203.614.148-.237.297-.474.445-.729.068-.116.136-.228.203-.346zM219.703 120.542c.967-6.583 2.73-9.985 2.73-9.985l.03-.048-8.226 8.497 5.466 1.536zM219.689 83.568l7.469 17.375.094.217c1.604-4.017 3.129-8.432 4.429-12.456l-.139.06-5.029 2.14-6.824-7.336zM237.991 54.916l.017.001c.188-4.038.253-7.91.255-11.287l-.016.072-2.376 11.13 2.12.084zM155.225 62.614v.001l.749-.265zM156.298 62.234l-.324.116.325-.116zM145.648 66.013l-.518.184zM156.562 65.135l-1.337-2.52-6.666 2.364-2.285.811-.41.146.067.437.37 2.437 1.079 7.123.321 2.115.935 6.16 7.105 2.522-1.076.01 1.634.579-4.861.045 5.366 4.202 22.589-24.55-13.163 31.931.834.653 16.771-17.95-1.435 12.942 13.876-11.147-8.075 13.44.247.063 17.148-3.177 4.801 7.685-17.001-35.977zM146.021 80.216l-.32-2.113-.999-6.584-.744-4.907.885-.314-1.007.357-1.803.64-3.26 1.156v4.035l.888 1.423 1.329 2.132 2.814 4.512.873 1.4.681 1.093 1.156.41zM133.438 251.855l.21.021 1.593.153-2.251-2.18-.056.188-.346 1.147-.329 1.092.823.08-.24-.383zM135.275 283.144l.555-.479.904-.178-1.541.303-.402.079.134.576zM131.921 286.034l.141-.121 1.056-.911-.417-.71 1.524-1.313-1.868.367-1.617.318-10.379 2.037.618-.12-.773 1.01h9.828l1.47-1.267zM144.234 99.967l-2.053-.478-.423-.098-1.034 5.166-.358 1.79-1.023 5.111 2.9-3.304 1.016-1.157 1.912-2.178 1.089-1.241 1.555-1.771.735-.837-2.339-.544zM141.771 88.08l.147-.179-.451-.096zM141.242 87.458h-.063l.036.033zM126.785 254.958l-1.276 1.757-.657.906 3.742.046.078-.262.096-.317-.732-.009v-.001l.079-.262.358-1.185.305-1.015-.116.02-3.001.513-.001.001zM126.841 250.436l.161-.223-.344.046-4.129.545 3.78.364zM129.719 251.497l.142-.476.156-.514-.42.577-.635.875 1.313.127.144-.476.013-.044-.714-.068zM129.856 249.837l-.375.05-.001.001.377-.05.376-.05v-.001zM126.865 251.757l.125-.172-.628.123zM120.213 251.084h.002v.051h-.002zM120.24 32.99l-.015-.589h1.456l.281.589h1.729l-.281-.589h6.264l-4.984-.248-.46-.864-.258-.486-2.54.499-.691.135-1.511.296-.045.396-.101.861h.123zM131.634 149.121l.855.146 2.195-3.266-6.493.079-1.395.018.84 2.338.135.023zM151.36 6.536h-5.934l-.26.553 5.803 7.265.391.489 7.652 9.579-1.968-17.886zM138.155 252.463l-.029-.132-.091.016zM137.088 249.603l-.158-.7-2.111.279.744.719 1.32 1.279-.043.008.599.581.54.524.141.014-.144-.643-.151-.669-.407.08zM134.693 201.357v-.001h-.291l-.551-1.215-3.748.527.044.315.053.374h4.404zM136.659 199.745l.201.499.449 1.113h.769l-.686-1.171-.295-.502 1.676-.237-2.418.34.001.001zM137.476 201.772l.069.173h-.952l-.005.001h3.555l.004-.001h-1.725l-.188-.321-.191.037zM128.193 201.356h-.474l-.049-.345-2.461.346h2.984zM114.676 257.495l-.36-.403-1.024.176.123.212 1.811.023zM112.142 257.465l.686.009.083-.141zM149.455 123.263l5.558-4.836-2.847-.565-3.065 5.071-.812 1.343-.003.003.003-.002zM138.773 264.063v1.778l.068-.008.336-4.032-.404.527zM117.697 256.514l-1.364.233.001.001.027-.005.699.782.496.006-.152-.584 4.487.056.387.085-.031-.081-.326-.004-.45-1.136-2.246.385zM130.627 257.692v-.001l-.199-.002zM106.383 87.95l.608.06.058-.24-.628.005-.688.006-.022.103zM119.423 87.656h-.003zM109.954 88.302l.826.082.463.045.281-.507 5.669.559.196-.806-4.868.045-1.396.012-1.404.013.502.049zM113.161 146.453l.718.122.632.109-.542-.371-.082-.056-.661.008zM121.449 58.344h18.012l-1.542.151-1.482.147-.259 2.583-.082.824.464.004.37-.581 5.799.053.459.004-1.03-6.79-.354-2.335-.386-2.547-.227-1.495-1.395-9.201 5.213 8.22 1.407 2.22.3.472 1.791.094.114.006-.075-.143-.279-.525-.779-1.467-.479-.903-.837-1.577-4.666-8.792-2.733 1.131v17.262l-2.02.304-.286 2.88h-2.003l.258-2.573-3.493.525-2.333.351.672 1.08.386.617h-2.181l-.598-.958-.274-.438-5.467.824-.539.081.012.492zM113.295 235.239l-1.925.19-1.192.117.939.009.102.237-.211.346.667.006 2.31.021-.232-.586-.324-.003zM124.864 89.237l12.003 1.182.225.022 1.58.156.232.023h-5.429l3.95.389.223.021 1.581.157 1.466-1.791-1.047-.949-.382-.346-1.265-.281-1.447-.32-13.422.122-2.327.022-.684.006-.266 1.094 1.351.132zM126.05 30.701l.061.114 9.526.474 1.519.076.008-.076.149-1.503.164-1.635.606-.119-8.933 1.754-2.515.494 8.444.421zM140.86 93.797l.474-2.366-1.331 1.627-.848 1.036-.382.467v2.655l1.34.311.255-1.27zM140.349 323.128l.558-.013 1.573-.034 8.711-.191.17-.003 13.009-.285-3.214-6.658-5.407.476.551.004-5.217 1.852-1.475.523-7.128 2.528-1.573.559-1.891.671 1.333-.029v.6zm10.454-.831v.443l-.169-.439.169-.004zM141.818 6.536l1.024-.33-1.025.33-.637.206h.001l.635-.205z"/><path fill="#000202" d="M39.587 86.14s-3.083-12.165-5.038-25.396l.494.131c-.078-.539-.154-1.08-.229-1.622l-.5-.132c-.37-2.654-.688-5.332-.922-7.947l.444-.779c-.075-.953-.136-1.893-.185-2.82l-.475.833c-.273-4.13-.293-8.013.082-11.275l.597.249c.065-.532.142-1.048.23-1.544l-.61-.254c.143-.859.318-1.665.531-2.408l.691.122c.161-.511.342-.991.542-1.434l-.284-.05c-1.404 1.468-4.908 5.018-8.412 7.697 0 0-14.27 10.661-20.853 37.531-1.484 6.167-2.566 13.174-2.978 21.099l-.293 7.805-.586 6.371s-.184 7.914-.863 14.947c0 0-.265 12.683-.873 14.791-.02.107-.038.203-.059.288.739.667 12.065 10.502 38.338 11.531 0 0 6.627.193 9.84-2.339-.047-.785-.112-2.827.107-6.654 0 0 .4-4.83.787-8.784 0 0-.865-13.692.679-23.927 0 0-.07-.354.044-.683-.002-.322.101-.834.707-.943-.02-.055-.038-.114-.058-.167.003-.003-6.65-11.148-10.895-24.237z"/><path fill="#070708" d="M142.284 5.617l-1.024.33h.002z"/><path fill="#FFF" d="M125.476 236.271l-.006-.01-.302-.577-.237-.002-.001-.001-.472-.004-8.624-.079-.447-.004-.161.594 11.499 11.911-2.166-9.343 6.435 10.268 1.085-.143zM131.686 61.425l-1.304-.012-5.034 12.159-1.057 4.739.118-.097 10.689-16.757-1.559-.015-1.663-.016-.191-.002zM138.217 263.475l-1.362-2.172-4.296 4.996 1.353 5.835 4.305-8.018zM117.086 314.094l6.975-.687v-.002l2.107-.207-.001.001 6.76-.666 5.977-.589H117.072l3.707-.558v.001l4.088-.616 2.142-.324-.001.001 1.42-.214 2.367-.357v.001l7.422-1.118v-12.006l-5.623-9.574-.074-.126-.272-.462h-.022l.001-.001h-.404l-.001.001h-1.789l.001-.001H119.198l-.001.001h-.051v-.001h-4.036l-.146.17-.36.419-6.213 7.226 2.992 20.25.842-.083v-.001zM54.146 129.893c.122 1.692.213 3.225.278 4.487l5.751-6.179-6.029 1.692zM54.755 140.02l.044.519.682-1.629-.726 1.11zM119.804 285.112l10.38-2.037-.74-1.258-.345-.588h-8.631l7.971-1.123-3.146-5.357-9.605 11.172 3.89-.764v-.001zM64.407 137.051l-6.876 1.011-2.45 5.852c.291 3.48.593 7.067.897 10.676l1.054.458 7.375-17.997zM54.526 136.536c.017.402.028.714.036.941l2.155-3.296-2.191 2.355zM70.695 204.236l4.59 4.031-1.476-4.108zM138.217 68.983l-12.596 10.222-2.062 3.233 14.097 3.011.588-4.927-.027-.01v-8.615zM83.652 202.292l-10.318-4.075 1.586 4.41 20.592-.509 5.304 7.985-2.804-21.706z"/><path fill="#FFF" d="M69.027 202.773l4.244-.105-2.563-7.114 12.567 4.961 20.134-19.48 6.492-.021-.873-8.298 3.844 8.287 26.359-.083 8.93-2.884 1.736-.561-26.558-.326-11.757-.145 2.938-.503h-.002l4.1-.702h.002l17.596-3.013 2-.342-8.646-.834-5.083.045-18.697.167-37.688 24.1-9.394-9.191.71 8.311.898.09 8.711 7.641zM59.6 196.573l2.646 6.367 4.516-.112-7.125-6.253zM136.93 61.472l-.37.581-8.33 13.061 13.555-11.001-.308 2.593 1.802-.64 1.282-4.524-1.373-.013-.459-.004zM139.613 315.688h.006l-7.765-.071-2.089-.019-1.21-.011v-.001l-2.374-.022-2.037-.018-.213-.002-.523-.005-6.03-.055-1.21-.01-3.043-.029h-.052l-1.576-.014.087.585.562 3.806 20.85.18 1.615 3.163 3.606.134v-1.246l2.132-.757V315.694zM155.741 315.835l-.55-.006-.003.001-5.4-.05.736 1.906z"/><path fill="#FFF" d="M68.338 215.745l-2.148 20.726 3.398 3.98 6.617-6.744-4.418 9.03 7.824 1.979 16.571-17.688-9.806 19.398 9.549 2.415-.29 1.046 5.741-1.166-4.102-22.306 9.561 16.558 4.172-6.836.211-.346-.102-.237-.939-.009-5.98-.055 6.615-.651-1.745-4.09 3.556 2.742 6.02-9.864-2.918 10.729 5.902-.582 2.417-.238-.458-.875-.309-.589h-1.454l.001.001h-3.148l-.001-.001h-1.603l2.719-.409 1.05-.158h.001l1.982-.298-7.942-15.167-14.544-21.908 2.896 22.417-8.572-12.904-19.204.476 1.802 5.005 1.236.585-.605 1.169.149.413-.438.144-.322.622-.427-.376-.3.101-.191-.53-7.93-6.959-7.242.179-1.214-2.921.245 2.854c.253 3.798.428 7.617.536 11.435l2.063-3.263-1.953 8.531c.039 3.057.038 6.104.002 9.133l.592.692 6.877-15.19zM60.865 230.609c-.007.566-.016 1.131-.025 1.695l.378-.835-.353-.86zM112.272 286.591l.964-.189 11.231-13.06-1.141-1.942-5.564.441-7.707 15.382.213 1.158-.398-.79-3.272 6.531 6.476-7.531zM136.834 278.925l1.383-.195V267.411l-3.771 7.022.937 4.044zM56.123 156.306l.067.796.267-.651-.334-.145zM138.217 330.227v-5.423l-2.822-.104zM145.846 257.298l.106.583.128.7 2.083-.673 1.735-.56zM109.906 315.416l-5.138-.047-.981 4.381 6.768.059-.563-3.808V316zM141.922 315.709v5.028l7.128-2.528-.946-2.443zM147.499 287.655l.161-1.063h-1.449l.001-.001h-8.946l.136.589.987 4.247zM105.644 6.188h-1.482l1.049 3.586zM109.117 6.188h-1.68l1.249 3.257zM136.178 281.898l.008-.002.408-.08.289-.056.755-.149 1.692-.332-.164-.05H136.021l.138.588zM93.817 23.187l2.358-2.438.66-14.108a46.387 46.387 0 00-3.111.611 76.62 76.62 0 01-2.67 1.604l1.339 3.245-3.036-2.292c-3.594 1.969-7.48 3.799-11.38 5.459l12.997-1.229 2.843 9.148zM97.114 38.649l2.578-4.819-.726 8.395 1.765 3.403.176-.225 3.825-31.673-2.204-7.542h-1.769c-.789.045-1.581.126-2.337.222l-1.493 31.88.185.359zM131.801 282.758l2.836-.557-.09-.384-.137-.588h-3.508l.346.588zM141.555 257.245l-.606-.008-.592-.007-.495.577-.839.974.247.468 1.397.305.927-1.727.31-.578zM130.105 279.872l3.215-.453-2.847-.881 2.314-4.309-1.498-6.453-4.924 5.725zM109.816 314.81l-1.957-13.249-3.078 13.746 1.585-.157zM133.648 251.876l-.21-.021-.596.118.24.383.475.757.679-.116-.292-.558zM68.314 193.977l36.992-23.654 18.049-.16 14.861-1.962v-13.706l-6.459-.853-.875-.116-3.4-.448h-1.072l-.008-.143-3.016-.398-.001-.001-.377-.05-.563-.074-2.815-.372 2.656-.256 2.513-.242 1.533-.147-.148-3.205-1.112-.189-.001-.001-7.291-1.248.002.001-2.896-.496-2.136 6.219L81 167.093l-13.957-6.054-8.18 18.742 2.252-21.31-3.223-1.398-1.413 3.448c.739 8.747 1.472 17.347 2.089 24.584l.777.099 8.969 8.773zM130.802 257.112l-.376-.005.053.225.241.053 1.499.327 2.086.455-.419-.435-.569-.588z"/><path fill="#FFF" d="M180.924 335.827a157.59 157.59 0 0010.482-.535c1.959-.17 3.764-.369 5.416-.59h-46.02v.551l-.258-.551h-8.623v1.329h-2.492l-.378-.739-.278-.544-.023-.046h-.533v-1.046l-4.607-9.023-22.466-.835-.366-2.482-7.325-.063-3.309 14.779h-.003l-5.191-15.309-2.935-7.063-4.474 20.57-4.609-13.568-4.968-.581-.073 15.087c.619.054.98.074.98.074 10.258.859 20.57 1.396 30.496 1.702h46.7c15.13-.433 24.857-1.117 24.857-1.117zM132.959 9.671l-2.203-3.724h-3.459v.241h-13.41l1.654 3.884zM123.691 32.99l7.301 15.281 7.225-.373v-10.59l9.116-3.774-.493-1.133h-23.43zM132.563 5.947l2.179 3.683.313-.006-.821-3.677zM114.953 60.114l4.415-.435-.035-1.335-.007-.256-.009-.334h-2.245l2.237-.337-.071-2.687-8.79-1.936-3.464 4.904 1.174 3.085 4.805-.473 1.99-.197zM121.723 27.039v-.001h-.875l.275.575.006.014.75 1.57h6.714l7.995-1.57.937-.184.832-.163h.001l.222-.044 1.01-.198H138.23v.001h-1.257v-.001h-13.118v.001zM114.978 253.833l-.946 1.604.536.928 1.019-.175z"/><path fill="#FFF" d="M120.225 32.401l.015.589.541 20.537 6.776 1.493 1.542-1.5.296 1.904 1.276.283 3.493-.527v-.001l2.032-.305v.001l2.021-.305v-5.165l-8.211.422-8.044-16.837-.281-.589zM116.258 29.197h2.308l-.192-7.337 2.449 5.128.813-.114.65-.092 15.931-2.242v-5.978l-4.38-7.406-19.344.446-2.307-5.414h-1.483l-.84 6.328zM129.546 200.079l8.671-1.221v-16.43l-24.647.077 8.627 18.609 5.38-.758v-.001zM148.636 84.208l-2.122-.752-1.156-.41-.243-.087-1.75-.62-2.877 3.714 3.662.782 1.196-.01h-.001l3.216-.03 1.584-.014.734-.007h.001l3.785-.034 1.076-.01zM154.458 61.632l-4.805-.044-.342.581-1.309 2.221 6.133-2.176.737-.262.868-.308-1.036-.009-.245-.002zM117.141 255.924l1.527-.261v-1.475l-2.48-1.946zM129.655 253.781l.357-.06-.489-.506zM125.383 91.872l-.914-.138.289.549 12.457 23.691h7.842l-.004-.002h5.015l-2.017-.835-.133-.054-6.901-2.857-1.413-.585-1.387-.574V104.225l-12.212-11.754zM120.248 87.054l-2.408-4.581 2.183 2.104-.035-1.361-.17-.036.152-.643-.245-9.37-7.76 13.962 6.9-.062.699-.007zM136.867 90.419l-12.003-1.182.618.595.819.788h10.679zM137.221 86.899l-14.528-3.104-1.324 2.077 1.205 1.161 13.422-.122-.004-.001zM143.352 257.849l-1.05 1.953 2.173-.702-1.042-1.25-.05-.06zM121.243 83.484l-.671 1.62.49.473.452-2.035zM59.096 264.674a520.6 520.6 0 01-.192 2.146l1.011-1.08-.819-1.066zM64.884 245.995l-.224-1.888.693 1.334 1.076-1.27-.564-1.377-1.863-.471.338-3.25-2.307-5.618-1.279 2.825a443.596 443.596 0 01-.641 14.626l.287.372 4.484-5.283zM120.24 243.601v4.371l.856 1.443-.856-.644v1.672l5.862-.773zM129.299 249.248l-1.106-1.764.431 1.853zM51.895 317.033c-.062.307-.12.596-.178.872l11.363.437-11.185-1.309zM138.342 257.205l-.143-.002.055.105zM76.533 290.327l10.02 28.991 1.697-14.432 2.551 4.771.755-3.815 4.694 13.842 5.932.052 5.479-24.48-5.038 4.749 6.374-14.152-2.791-5.558-4.712 5.31 3.147-8.424-2.077-4.138-12.878 1.018-4.303 7.056 2.031 8.745-17.42-22.931 5.943 39.454-14.287-29.82-3.762.279c-2.342 21.171-5.195 35.737-5.195 35.737-.164 1.043-.34 2.044-.513 2.969l24.218 2.831.135-28.054z"/><path fill="#FFF" d="M72.825 296.276l-4.933-32.731-1.718-2.23-2.983 3.184 3.083 9.514-5.407-7.033-2.2 2.348a522.33 522.33 0 01-.612 5.997l4.568-.34 10.202 21.291zM147.857 61.572l-1.671-.015-.165.583-.93 3.282.626-.221 1.798-3.048zM148.572 32.401h-.027l.051.118zM123.387 121.747l-.084-.012-.066.191-.102.297-8.041 23.423 1.051-.014h.001l6.018-.073 1.196-23.304.018-.329zM117.404 256.947l.152.584 1.53 5.922 3.698-3.155-2.72 6.946.735 2.848 3.406-.271 1.334 2.274 5.318-6.185-1.699-7.322-6.88-1.5-.387-.085zM114.887 256.916l.339.587 1.27 2.201-.719-2.776zM132.885 235.754l-4.756-.044v.001l-1.192-.012 6.79 12.965.491-.065.001.001 3.998-.529V241.822l-4.815-5.479zM104.459 98.694l5.495-10.392.269-.508-.502-.049-2.606-.256-.066.281-.058.24zM115.72 61.278l-1.217-.011-1.194-.011-3.124-.028-1.864-.018.074.194.15.394.717 1.881-1.366-1.887-.228-.316-.197-.272-3.105-.029-7.187 9.148 2.571-8.615-.052.006-1.538-9.924-.328.022-14.686 18.653 18.387 4.525-1.328 8.942 12.871-21.593-5.887 24.834 3.379-.031 9.071-17.151-.212-8.095-.016-.584zM128.105 254.047l-.254-1.095-7.611 1.493v.654l.758.165 2.668-.457.397-.068zM136.104 257.178l.368.587.586.933.102-.118-.426-.812-.306-.586zM131.9 253.397l-.691-1.104-.364.07 1.005 1.043zM117.703 205.654v-.001l1.93-.379v.001l.704-.138v-.001l2.995-.587.14-.028h-.001l2.547-.5h.002l2.021-.396-.001-.001 1.954-.384v.001l4.834-.949 1.76-.346.005-.001.587-.115.296-.058.567-.111v-.001l1.542-.303h-4.981l-4.336.478-1.004.11-.009.001-7.984.879-.68-1.468h-.123l.007-.001h-.007l.115-.015-8.732-18.829h-.208l2.509 23.839.778-.153zM120.009 117.492l-7.737-1.518h.005l-.005-.002h.266l-.001.002h1.043v-.002h3.959v.002h.369v-.002h2.305l-.002.002h3.373l.158-.34 1.579-4.601-19.039 5.203 10.552 14.217 4.212-9.036-.578-.081h.616l1.346-2.888.205-.441zM126.309 251.168l-3.78-.364-1.032-.1.001.001-1.258-.121v2.325l6.122-1.201.628-.123.52-.102-.047-.203zM61.239 257.732l-.231.024.078.24zM65.425 250.556l-.292-2.465-3.768 4.441 1.655 2.149zM85.355 281.005l2.328-8.372-6.108-7.891zM59.941 259.547l-.367 1.041.451-.777zM68.545 245.207l.881-1.511-.466-.118-.73.861zM66.041 255.743l-.312-2.619-1.641 2.814zM67.639 249.85l2.551 4.921.411-.436-2.304-5.613zM71.775 253.081l3.436-3.667-4.348-5.092-1.574 2.699zM68.379 241.874l.196-.23-2.606-3.052-.027.27 1.097 2.673zM132.095 229.81h.001l6.121-.922v-17.262l2.131-.882.363-.15 7.936-3.285 1.423-.589h-35.879l.648 6.152 15.157 17.254.618-.093zM65.078 257.353l1.216 1.579.108-.117-.185-1.576zM67.234 252.456l.371 3.133 1.19-.118zM67.092 245.781l-.97 1.144.669 1.289.762-1.306zM67.782 257.085l.027.229.241-.256zM104.068 182.536l-5.824 5.636 14.754 22.221-.388-3.673h-.338l.332-.065-2.543-24.138zM63.15 257.543l-1.421 2.439.919 2.839 2.573-2.745-1.958-2.544z"/><path fill="#FFF" d="M61.939 265.835l.067.084-.039-.114zM59.879 263.154l1.109 1.442.438-.467-.758-2.331zM62.176 256.127l.002-.003-1.837-2.385-.439.517a1.789 1.789 0 01-.005.073l.637 1.961 1.642-.163zM101.83 251.179l-.18-.976-6.468 1.315-.6 2.159 2.582 5.143zM99.914 264.293l4.662 1.823-2.324-12.643-4.266 6.985zM93.455 251.868l-10.953 2.225-.01.019 10.633-1.054zM81.071 256.924l9.904 3.873 1.717-6.184-11.004 1.092zM96.469 262.946l1.271.497-.711-1.416zM103.605 248.269l2.307-3.782-5.451-9.442 2.456 13.363zM112.232 247.188l1.293 1.015-.764-2.955zM110.705 246.826l1.264-4.644-.502-1.946.855.646.602-2.211-.808-1.364-4.393 7.201 1.509 2.617zM107.625 247.451l-.828-1.43-1.111 1.825zM76.218 250.594l-3.799 4.054.183.445 6.876-.682zM71.212 256.743l1.804 3.48-1.442-3.515zM70.67 241.563l-.065.078.01.013zM135.867 232.371l.001.001 3.036-.3h-3.478l.001.001h-2.197v-.001h-1.019v.001h-.504l.572.652.475-.046.178-.018.751-.074.239-.024zM78.434 245.974l-5.267-1.332 3.106 3.638zM89.912 235.978l-8.592 9.169 3.508.887zM83.369 252.379l10.541-2.142.09-.327-8.32-2.103zM80.305 253.001l1.117-.228 2.709-5.359-3.989-1.008-2.862 3.053zM96.207 260.39l-2.248-4.476-1.517 5.456 2.556 1.001zM123.883 90.62h.2l-.405-.39zM138.217 9.377V6.93l2.406-.777h-.001l.638-.206h-5.423l.811 3.639 1.343-.03.226-.006zM112.514 32.353l1.914-.375v-.001l.81-.158.465-.092v.001l1.309-.258 1.605-.315-.012-.454h-3.446l-5.727-14.937-1.282 9.657-2.296-7.857-3.076 25.463 10.966-13.929z"/><path fill="#FFF" d="M116.945 32.401h-4.45l-6.732 17.817c4.475.986 8.951 1.974 13.434 2.96l-.547-20.777h-1.705zM120.874 30.711l-.006-.01h-.687l.004.146zM137.297 90.62h1.601l-.226-.023-1.58-.156-.001.001zM136.285 93.514l.001-.001-8.274-1.245.621.598 9.584 9.224v-8.285zM120.82 55.08l.057 2.101 5.468-.823.108-.016.056-.009zM105.972 59.131l-1.59 2.024 2.85-.28zM135.501 252.055l.24.458.055.104.054.104 2.185-.374.091-.016.088-.015zM131.633 149.122l.001-.001-3.863-.662.019.409.005.089.105 2.285 8.471-.817 1.846-.177-3.746-.642-.856-.147v.001zM126.553 122.193l.023.514.675 14.548 9.599-13.102.339-.463zM125.885 141.746l-2.783 3.801 1.086-.013 1.872-.024zM124.951 121.967l-.026.507-.992 19.315 1.837-2.51-.778-16.795-.023-.515zM139.764 81.061l-.045.376-.436 3.645 2.308-2.981.238-.308zM148.678 145.232l.238-.003.264-.245-.915-.296-.429-.138v.001l-1.963-.634-6.227-2.011-1.429-.462v-16.535l-10.85 14.814.268 5.768 6.491-.079.001-.001 2.049-.025 9.826-.121.844-.011zM114.037 240.551l-.365 1.348 2.105 1.587zM138.123 121.048l-.109-.021.259.308zM78.926 257.71l.922-1.823-6.649.66 8.209 20.01-1.379.584-10.216-19.71-1.766 1.885.349 2.952 15.837 20.845-5.801-24.961 9.769 12.619 2.365-8.509zM138.217 11.055l-1.268.029 1.268 6.34zM106.344 277.096l.229.457.087-.1-.148-.807zM131.75 115.974l-4.576-5.447-1.147.313.239 5.134zM108.021 272.611l-.437 1.171.4 2.181 3.196-3.602zM106.619 268.542l.413 2.243.679-1.816zM108.418 248.829l-3.806.773-1.133 1.858 2.406 13.085 3.718-13.667zM104.982 268.326l-.115-.044.065-.233-.034-.18-3.968-1.554 2.584 5.143 2.015-.159zM92.035 262.837l-2.242 8.064 4.404-7.218zM95.668 264.258l-5.014 8.216 11.18-.883-3.076-6.124zM104.242 272.91l1.145 2.278.574-1.538-.159-.863zM125.961 61.373l-.308.581-4.43 8.378.224 8.569 2.388-5.767 2.492-11.174.13-.584zM112.369 321.329l.149 1.014 20.308.755-.816-1.599zM115.944 271.984l-2.544.202-5.062 5.704 1.248 6.785zM99.83 330.24l2.016-9.003-5.084-.044zM128.063 61.391l-.13.583-.613 2.741 1.133-2.736.241-.582zM87.313 326.313l-9.25-26.766-.092 19.018 6.148.719 3.02 8.89 3.184-16.104-1.093-2.045zM114.244 233.822l-.442.723.251-.024zM135.598 120.552l-9.204-1.806.022.484.098 2.106h9.742l-.176-.209zM76.328 333.24l.063-13.344-6.346-.742zM92.595 27.148l-15.23 24.457 7.344-.469zM73.32 51.862l.787-3.326-1.566 3.333.088.037zM76.387 53.173l-.147.237.049.021c-.678 1.487-1.783 2.764-2.75 4.315l-2.316 9.784 7.488 1.843 5.49-16.697-7.814.497zM72.895 53.657l-.543-.226-.559.035-2.453 5.222-1.398 5.106 4.119-6.612zM69.885 50.761l1.86-6.794-9.774-3.687 5.557 9.499zM83.319 67.745L95.76 51.942l-4.129.263zM97.01 50.355l.349-.444-.226-4.745-.389-2.52-4.278 7.998zM90.636 50.761l5.712-10.677-.647-4.164.943 1.821-2.845-9.229-7.406 22.519zM96.146 21.365l-1.501 4.572 1.119 3.629zM67.918 124.458l3.793-1.064 1.027 1.115 2.08-5.197-6.103-10.677zM97.17 132.489l-2.537-2.481 3.637 8.408c-3.754-1.043-8.09-1.865-12.027-2.726l4.384 9.405-9.456-8.575-2.77 16.716.831-18.365-.819.12-10.763 24.661 13.33 5.78 30.483-14.035.907-2.646-18.09-21.484 2.89 5.222zM65.609 160.419l-2.982-1.293-1.132 10.72zM62.434 145.99l-3.967 9.68 2.815 1.22zM85.885 52.57l-5.649 17.179.216.052 9.351-17.48zM57.996 58.18l-1.895 3.842.913 2.154zM58.163 66.883l2.661 6.268.509-1.081-1.45-15.683z"/><path fill="#FFF" d="M67.221 106.02L60.8 94.789l29.271 28.61-1.037-2.401-8.254-14.918 14.741 11.531 4.983-1.361-4.417-13.751 9.229 12.436 20.598-5.628.037-.107.004.096 1.791-.488 6.022 7.168h1.686l-12.608-23.979-.289-.549-1.572-.237-2.343-.353-.001.001-1.568-.236h.004l-.004-.001h5.051l-.62-1.179-.297-.564-1.351-.133-.684-.067-.001.001-1.978-.196-5.669-.559-.281.507-9.299 16.732 3.767-17.277.022-.103.092-.419-1.628-.161 1.666-.015 3.338-15.309-11.713 19.649 2.289-15.417-17.655-4.345-2.977 3.781-2.968 4.439 2.06-9.178-8.888-2.188 1.586-6.696-7.334 11.777 1.836-6.706-2.502 5.33 1.156 12.521-3.34-7.868-8.963 19.083 4.752-29-1.354-3.191-7.939 16.079 1.41-15.468-13.615-3.608-.494-.131c1.955 13.231 5.038 25.396 5.038 25.396 4.245 13.089 10.898 24.233 10.898 24.233.02.053.038.113.058.167.155-.028.333-.037.563 0 1.553 4.178 2.438 11.714 2.924 17.817l7.314-2.053 5.878-20.283zM65.145 48.785l-5.206-8.899.646 6.996z"/><path fill="#FFF" d="M111.604 145.689l1.828-.023 5.495-16.006-1.781 3.816-12.466-16.803-2.201.602zM102.936 53.274l-.897-1.731-2.304.146 1.105 7.131zM120.148 29.197l-.008-.02.001.02zM33.178 48.407l.475-.833 2.471-4.334 12.831 1.949 6.341 14.938 4.156-8.417-.352-3.804L33.856 37.38l-.597-.249c-.374 3.263-.355 7.146-.081 11.276z"/><path fill="#FFF" d="M34.314 59.121l.5.132 15.525 4.114-.761 8.338 4.804-9.729-6.552-15.435-10.856-1.647-3.137 5.501-.444.779c.233 2.615.551 5.292.921 7.947zM108.256 12.691l-1.379-3.595-.545 4.513 1.237 4.236zM119.605 242.943l-4.851-5.025-.147.542 3.829 6.464zM100.467 64.236l4.701-6.654-1.265-2.44zM113.321 145.986l-1.716-.293.878 2.733.678-1.973.065-.188zM33.477 35.582l.61.254 24.854 10.362-.676-7.315-7.08-2.671-16.486-2.916-.691-.122a21.44 21.44 0 00-.531 2.408zM35.241 31.861l8.31 1.47-8.082-2.345c-.162.172-.422.446-.748.783l.236.042.284.05zM55.16 85.212l4.773-10.162-2.244-5.281zM105.225 51.644l-.581 1.537 1.536 2.967 2.625-3.715zM99.672 46.972l-.951-1.835.394 2.545zM69.213 52.123l-.414-.173.111.191zM60.948 48.676l-.205-.086.038.425zM68.023 53.706l-1.609-2.751-5.279-2.202-.241 1.47 1.758 19.035 5.2-11.073 1.244-4.547zM104.219 49.877l4.49-11.881-6.287 7.986-.285 2.359.63 1.217zM75.006 123.05l-1.094 2.733 1.213 1.316zM100.52 48.611l-.067-.129-.381.483.396.087z"/><path fill="#FFF" d="M46.373 33.83l5.249.928 6.489 2.449-.387-4.186 3.033 5.184 12.862 4.853-1.866 6.817 5.072-9.235-1.868 11.117.5-.031L92.51 24.345l-2.678-8.682L73.2 17.234l4.313 9.436-7.083-8.38a243.445 243.445 0 01-10.298 3.609l1.281 7.25-3.25-6.616c-5.383 1.708-8.986 2.661-8.986 2.661a79.928 79.928 0 00-3.209 1.155l.035 1.688.37 5.793zM128.182 230.399l-9.955-11.331 6.228 11.893zM130.855 258.957l1.272 5.478 3.764-4.379zM134.958 235.773l3.259 3.709V235.803h-.008l-2.646-.025h-.031l.001.001zM119.594 268.185l-1.045 2.084 2.15-.171zM120.985 61.327l.016.584.138 5.244 2.759-5.217.308-.582zM134.315 287.042l.081.138 2.303 3.921-.908-3.921-.137-.589H134.051zM51.397 319.399c-.177.804-.292 1.28-.292 1.28 1.048 10.121 17.016 13.292 24.247 14.213l-6.614-14.83-17.341-.663zM133.32 276.53l-.603 1.121.931.288zM64.779 234.82l.999-9.635-3.197 7.06zM110.027 248.502l.152.262.084-.311zM111.283 250.678l1.855 3.212 1.292-2.186-.274-1.058-2.36-1.854zM115.559 249.796l1.861-3.152-3.326-2.509zM118.668 247.59l-1.877 3.178 1.877 1.472zM43.336 27.389a152 152 0 00-5.929 2.588l6.739 1.954-.81-4.542zM114.841 270.562l1.891-.15 1.928-3.847-.107-.186zM112.229 255.428l-1.522-2.635-2.626 9.654zM113.123 256.975l-.212.358-.083.141-5.697 9.642 2.568 1.005-1.097 2.935 4.019-.319 5.118-5.766-4.324-7.491-.123-.212zM76.59 135.26l-6.878 1.011-4.532 11.319.539-10.731-.751.11-2.174 20.578 3.421 1.484zM125.718 233.372l4.671-.46-.221-.251-.517-.589h-4.614l.309.589zM108.814 142.126l-7.849-24.438-5.803 1.586-9.348-7.313 4.597 8.312zM68.883 105.291l-.024.46 6.699 11.717.801-2.004.106 3.591 4.082 7.142 1.307-2.997-.409 4.568 2.772 4.848 3.591-.529 7.579 3.603-3.703-8.565-24.034-23.49.918 1.608zM72.102 126.095l-.911-.987-3.353.941-.455 9.042 1.187-.174zM87.034 133.724l1.645.457-1.124-.533zM65.152 135.234l-.019.188.664-.097.443-8.828-3.242.911-.611.936-.054.183-.056-.014-5.3 8.109 8.093-1.191zM103.713 115.373l-3.252-4.381 1.557 4.843zM83.369 134.272l-.021-.007-1.427.21 4.126 4.477zM77.301 133.632l.408-.934-2.441-.681-.076-2.568-1.915-2.08-2.918 7.285zM81.062 132.063l1.243.345-1.102-1.926z"/><path fill="#FFF" d="M67.307 136.625l-.083 1.654.697-1.744zM66.938 112.629l-3.815 13.175 3.197-.896zM79.771 127.974l-3.21-5.614.189 6.503 1.785 1.939z"/><path opacity=".5" fill="#070708" d="M149.788 315.78h-.001zM149.772 315.78l-1.668-.014.946 2.443 1.474-.523-.736-1.906h-.001z"/><path opacity=".5" fill="#070708" d="M149.772 315.78h.015-.015l-.204-.002zM136.08 121.127l.176.209h.89l-.992-.194z"/><path fill="#070708" d="M138.123 121.048l.15.287-.259-.308-2.416-.475.482.575.074.015.992.194h2.444z"/><path opacity=".5" fill="#070708" d="M138.123 121.048l.15.287-.259-.308-2.416-.475.482.575.074.015.992.194h2.444zM131.248 281.817h-1.804l.74 1.258 1.617-.317z"/><path fill="#070708" d="M131.248 281.817l-.346-.588h-1.803l.345.588h.211z"/><path opacity=".5" fill="#070708" d="M131.248 281.817l-.346-.588h-1.803l.345.588h.211zM127.239 153.077h.243l-.254-.034zM126.402 152.934l.008.143h.331l-.178-.121z"/><path fill="#070708" d="M126.563 152.956l.178.121h.498l-.011-.034z"/><path opacity=".5" fill="#070708" d="M126.563 152.956l.178.121h.498l-.011-.034zM130.936 232.661h-.768l.221.251.622-.062h-.001l1.269-.125-.572-.652h-1.25z"/><path fill="#070708" d="M130.209 232.661h.727l-.479-.588h-.078v-.001h-.728l.517.589z"/><path opacity=".5" fill="#070708" d="M130.209 232.661h.727l-.479-.588h-.078v-.001h-.728l.517.589z"/><path fill="#070708" d="M139.59 281.229h-.424l.164.05z"/><path opacity=".5" fill="#070708" d="M139.59 281.229h-.424l.164.05zM124.316 233.51l1.402-.138-.372-.711H123.586l.458.875.27-.027z"/><path fill="#070708" d="M125.346 232.661l-.309-.589h-1.76l.309.589h.249z"/><path opacity=".5" fill="#070708" d="M125.346 232.661l-.309-.589h-1.76l.309.589h.249zM135.501 252.055l-.204-.021-.056-.005.5.484zM134.206 252.465l-.211-.021-.051-.005.292.558 1.614-.276-.054-.104z"/><path fill="#070708" d="M133.944 252.439l.051.005.211.021 1.59.152-.055-.104-.5-.484-1.593-.153z"/><path opacity=".5" fill="#070708" d="M133.944 252.439l.051.005.211.021 1.59.152-.055-.104-.5-.484-1.593-.153zM119.333 58.344l.035 1.335 1.57-.155-.031-1.18h-1.032zM119.866 58.007l1.029-.155-.003-.098h-1.575l.009.334z"/><path fill="#070708" d="M119.326 58.088l.007.256h1.574l-.012-.492-1.029.155z"/><path opacity=".5" fill="#070708" d="M119.326 58.088l.007.256h1.574l-.012-.492-1.029.155zM107.896 61.792l1.366 1.887-.717-1.881-.518-.005zM107.789 61.464l.606-.06-.074-.194-.85-.006.197.272z"/><path fill="#070708" d="M107.668 61.476l.228.316.131.001.518.005-.15-.394-.606.06z"/><path opacity=".5" fill="#070708" d="M107.668 61.476l.228.316.131.001.518.005-.15-.394-.606.06zM145.091 65.422l.93-3.282-.734-.007-.058-.392-.03-.193-.469-.005v.001l-.169-.002-1.282 4.524z"/><path fill="#070708" d="M145.287 62.133l.734.007.165-.583-.987-.009.03.193z"/><path opacity=".5" fill="#070708" d="M145.287 62.133l.734.007.165-.583-.987-.009.03.193zM148.414 62.161l-.899-.008-1.798 3.048 2.285-.811 1.309-2.221z"/><path fill="#070708" d="M148.414 62.161l.897.008.342-.581-1.796-.016-.342.581z"/><path opacity=".5" fill="#070708" d="M148.414 62.161l.897.008.342-.581-1.796-.016-.342.581zM125.421 89.826l-3.658-.36-.26-.026.62 1.18h1.76l-.205-.39.405.39h2.218l-.819-.788z"/><path fill="#070708" d="M125.421 89.826l.061.006-.618-.595-3.658-.361.297.564.26.026z"/><path opacity=".5" fill="#070708" d="M125.421 89.826l.061.006-.618-.595-3.658-.361.297.564.26.026z"/><path fill="#070708" d="M128.569 92.856l.064.01-.621-.598-2.629-.396.622.599z"/><path opacity=".5" fill="#070708" d="M128.569 92.856l.064.01-.621-.598-2.629-.396.622.599z"/><path fill="#070708" d="M137.297 90.62l-.206-.178.001-.001-.225-.022.113.201z"/><path opacity=".5" fill="#070708" d="M137.297 90.62l-.206-.178.001-.001-.225-.022.113.201z"/><path fill="#070708" d="M149.898 145.217l-.718-.233-.264.245z"/><path opacity=".5" fill="#070708" d="M149.898 145.217l-.718-.233-.264.245zM129.264 201.945l1.004-.11-.068-.478h-2.007l.083.588z"/><path opacity=".5" fill="#070708" d="M129.255 201.946H121.025l.007-.001h1.151l-.081-.15.653-.092 2.454-.346h-4.618l.68 1.468z"/><path opacity=".5" fill="#070708" d="M123.503 201.945l-.186-.161.035.161z"/><path fill="#070708" d="M122.102 201.795l.081.15h-1.15l-.007.001h8.229l.009-.001h-.987l-.083-.588h-2.984l-2.454.346-.654.092zm1.401.15h-.151l-.034-.161.185.161z"/><path opacity=".5" fill="#070708" d="M122.102 201.795l.081.15h-1.15l-.007.001h8.229l.009-.001h-.987l-.083-.588h-2.984l-2.454.346-.654.092zm1.401.15h-.151l-.034-.161.185.161z"/><path fill="#070708" d="M134.604 201.357H130.2l.068.478z"/><path opacity=".5" fill="#070708" d="M134.604 201.357H130.2l.068.478zM126.332 151.393l1.568-.151-.105-2.285-.417-.071.417.071-.005-.089-.154-.432-.816-.14-.636-.108z"/><path fill="#070708" d="M127.771 148.459l-.135-.023.154.432z"/><path opacity=".5" fill="#070708" d="M127.771 148.459l-.135-.023.154.432z"/><path fill="#070708" d="M127.378 148.886l.417.071z"/><path opacity=".5" fill="#070708" d="M127.378 148.886l.417.071z"/><path fill="#070708" d="M124.758 92.283l-.289-.549-1.912-.288.289.549.268.04z"/><path opacity=".5" fill="#070708" d="M124.758 92.283l-.289-.549-1.912-.288.289.549.268.04zM150.07 32.401h-1.498l.024.118-.051-.118h-1.705l.493 1.133zM139.052 335.292l.378.739h2.492v-.739h-2.614zM138.773 334.702h-.023l.023.046z"/><path fill="#070708" d="M139.052 335.292h2.87v-.59h-3.149v.046z"/><path opacity=".5" fill="#070708" d="M139.052 335.292h2.87v-.59h-3.149v.046z"/><path fill="#070708" d="M150.803 334.702h-.258l.258.551z"/><path opacity=".5" fill="#070708" d="M150.803 334.702h-.258l.258.551zM134.968 281.817h-.421l.09.384 1.541-.303-.019-.081z"/><path fill="#070708" d="M134.968 281.817h1.191l-.138-.588h-1.611l.137.588z"/><path opacity=".5" fill="#070708" d="M134.968 281.817h1.191l-.138-.588h-1.611l.137.588zM147.66 286.592l-.161 1.063 2.408-.997.076-.067h-1.221l-.001.001z"/><path fill="#070708" d="M150.07 286.591h-.087l-.076.067z"/><path opacity=".5" fill="#070708" d="M150.07 286.591h-.087l-.076.067z"/><path fill="#070708" d="M114.513 176.494l4.099-.702v.002l-4.099.702zM112.272 115.972l.005.002h.26l.001-.002zM132.237 286.58h.001v.022h-.001zM145.013 312.645h.001v6.183h-.001zM138.043 201.66v.001l.191-.037 1.356-.267h-.005zM134.126 145.412l2.05-.026-2.049.025zM129.765 315.598l-.666-.007-.544-.005v.001zM112.225 314.572v.001l4.861-.479zM126.937 235.699l1.192.012v-.001zM124.044 233.536l-2.417.238 2.417-.237zM129.016 202.437h.001v1.99h-.001zM124.931 235.682l.237.002-.238-.003zM150.068 115.972h-5.015l.004.002H150.07zM134.328 230.975h.001v2.195h-.001zM119.578 285.156v.001l.226-.045zM120.475 201.356l.108-.014v-.001l-.115.015zM143.365 82.338v.001l1.75.62zM119.147 286.591h.051v.001h-.051zM130.614 230.033l1.482-.223h-.001zM130.928 285.697h.001v1.789h-.001zM117.07 311.931l3.706-.558.001.004-3.707.56zM135.542 235.79l-.575-.007.575.005zM119.791 231.663l1.051-.158h-.001z"/><path fill="#070708" d="M135.867 232.371l-1.945.192 1.675-.165.271-.026zM120.249 230.499h.001v3.148h-.001zM124.069 313.399l2.108-.207v.002l-2.108.207zM130.795 309.877l-2.367.357 2.367-.356zM135.501 252.055l2.713.261.003-.001-.097-.008-.141-.014zM150.145 86.781l.735-.007h-.001zM127.009 310.447l-2.142.324 2.141-.323zM140.349 315.694l-.73-.006h-.006z"/><path fill="none" d="M149.835 315.78h-.047"/><path fill="#070708" d="M155.191 315.829l-5.356-.049 5.353.05zM141.26 5.941l-.638.206v-.002l.638-.206zM109.816 314.811v-.001l-3.45.34zM117.193 88.481l1.978.196.001-.001zM114.953 60.113l-1.99.197 1.99-.196zM117.858 89.947h.001v1.583h-.001zM135.18 53.999h.001v2.055h-.001zM131.958 231.821h.001v.504h-.001zM121.723 27.038h2.133v.001h-2.133zM137.601 26.409h.001v1.258h-.001z"/><path fill="#070708" d="M137.525 27.443l.023-.005.81-.158h-.001zM145.346 86.825l3.215-.03-3.216.03zM137.251 92.683h.001v1.952h-.001zM137.221 86.899l-1.229.011.004.001 1.229-.012zM114.428 31.977v.001l.81-.159zM139.604 111.641l-1.387-.575v.001zM120.242 250.585l1.257.121v.001l-1.257-.12zM138.904 90.62l-.232-.023.226.023zM126.309 251.168l1.154.112v-.001zM125.07 147.998l.001.001 1.113.189zM135.098 61.457v-.001l-.944-.009-.615-.005zM118.667 204.481h.001v1.967h-.001zM120.337 205.137l2.995-.588-2.995.587zM113.58 115.972h3.959v.002h-3.959zM124.744 202.973h.001v2.596h-.001zM131.633 149.122l1.982.338v-.001l-1.126-.192-.855-.146zM119.059 114.822h.002v2.303h-.002zM127.577 200.355v.001l1.969-.277zM126.06 145.51l-1.872.024 1.872-.023zM147.836 144.551v-.001l-1.815-.586-.148-.047zM120.468 121.336l.578.081-.573-.081zM116.333 145.033h.001v2.939h-.001zM146.211 286.592h1.449l.001-.001h-1.449zM131.685 61.424l-1.303-.011 1.304.012zM115.094 145.646l1.052-.014h-.001zM127.484 153.077h-.002l3.401.448zM124.893 151.213h.001v3.042h-.001zM128.036 257.078v.001l.732.009 1.102.013zM116.503 256.938l-.001-.001-.725-.009zM104.73 315.312v-.001l-.533.052h.008zM110.096 314.501h.001v.563h-.001zM113.758 256.503l.001.001.469-.081zM113.049 234.62l.514-.051-.514.05zM129.719 251.497l-.001.001.714.068 1.269.122zM126.402 152.933v.001l.161.022.665.087.254.034h.002zM138.874 85.231h.001v3.306h-.001zM141.734 86.865l1.863-.017-1.863.018zM112.977 206.581v.001l1.175-.231zM140.349 315.694l1.573.015v-.001zM144.73 61.543l-.169-.001.169.002zM121.063 200.789h.003v.97h-.003zM133.161 286.592h.513l.001-.001h-1.427v.001h.779zM142.314 81.966l.244.087.807.286v-.001zM139.406 257.219l.951.011-.95-.011zM128.393 251.366l-.94-.09v-.001l.94.09zM114.418 145.703h.002v.943h-.002zM126.238 145.508l-.178.002v.001zM119.935 250.248h.002v.613h-.002zM136.199 115.521h.002v.905h-.002zM124.179 233.387h.002v.272h-.002zM130.457 232.073h1.25v-.001h-1.328v.001zM131.011 232.85l1.268-.125-1.269.125z"/><path fill="none" d="M149.787 315.78h-.015"/><path fill="#070708" d="M149.772 315.78l-.204-.002-1.464-.013v.001z"/><path fill="none" d="M149.787 315.78h.001"/><path fill="#070708" d="M133.375 235.758v.001l.079.001 1.504.013-.001-.001-1.503-.013zM148.21 286.041h.001v1.101h-.001zM135.318 61.237h.001v.441h-.001zM130.898 60.164l-.516 1.249 1.303.011zM138.23 27.038l-.541-1.019-.364-.686-.154-.291-.031.317-.167 1.679zM124.952 256.126l.708-.976.001-.001.567-.78-2.165.37-.397.068-.351.485-.157-.397-1.941.332.037.093zM128.473 255.631l-.358 1.185.666.146zM130.271 256.438l.562-1.867-.821-.85-.357.061zM139.104 73.32l-.887-1.423v3.497l.537.86.019-.164.011-.09zM144.633 67.04l.497-.843.243-.413-.066-.438-.216.077-.248.875zM145.115 82.959l-.996-1.595-.754.974zM141.514 11.581l.42-.612-1.114.027-.045 1.662.596-.869zM129.003 60.653l-.04-.079.009.154zM145.537 87.132l3.177.679-.153-1.016-3.215.03zM121.723 27.038h2.132l-.234-.444-1.335.188-.65.092zM132.237 286.573l-.01.018h.021zM139.227 295.041l1.122-.995v-2.26l-1.558 1.38zM131.921 286.034l-.417-.71-1.47 1.267h1.789l.277-.252zM115.588 256.191l-1.02.174.319.551.89.012zM133.118 285.002l.749 1.274 1.242-2.033-.184-.798-.134-.576-.072-.314-.494.424-1.524 1.313zM119.198 286.591l.595-.778.629-.822-.618.121-.226.045-.224.742-.208.692zM136.186 281.896l-.008.002.099.434.316-.515.001-.001zM140.349 323.378v-.852l-1.333.03-.799.017v.726zM147.889 238.181l.176.471.212-.049zM123.643 280.782l-2.868.404-.012.043h2.539zM136.954 281.229l.353-.577-.281-.086-.768.663h.695zM125.445 315.558l.722-2.359-2.106.208-.204.664-.449 1.468.523.005.213.002zM127.463 251.279l-.061-.261-.561-.582-.532.732zM129.599 249.726l-.299-.477-.676.089.223.958.192.199.441-.607.001-.001zM117.077 311.944h3.074l.628-.557zM130.352 250.925l-.312-.496-.023.078-.156.514zM119.172 88.676l.248-1.02.144-.596-.699.007-1.332.013-.144.595-.196.806zM117.727 116.196l-.188-.222h-3.959l.1.276 5.433 1.066 1.098-1.342h-2.303zM106.366 315.15l-1.282.127.034.095 4.788.043-.09-.604zM113.33 145.667l.082.057.02-.057zM112.525 116.022l.012-.048h-.26zM121.497 250.704l-.16-.405-1.097.145v.139zM128.428 310.234l.015.67.026 1.04h2.527l-.201-2.066zM117.805 314.023l-.719.071-4.861.479.9.872 3.043.029zM140.349 315.626l-.73.062.73.006zM124.867 310.771l-.216.705-.143.468h2.045l.455-1.496zM148.104 315.765l-.294-.763-5.888.493v.213zM135.902 116.828l-.236-.451-.037.186-.149.745zM126.184 148.188l-.124-2.677-1.872.023.212.593.67 1.871zM136.887 201.106l-2.276.25h2.377zM118.032 206.288l.224.432h2.124l-.747-1.445-1.93.379zM121.046 121.417l.038-.081h-.611zM139.243 212.021l.001.001.266-.055 1.615-.343-.414-1.03-.363.15-1.416.587zM128.976 153.077l-.015.02-.008-.02h-1.469l3.399.448.301-.448zM113.309 61.256l1.194.011.874.008-.424-1.161-1.99.196.227.622.119.324zM130.367 151.005l-.38.567h2.208l.073-.107v-.001l.461-.687zM148.213 145.883l-.014-.049-.168-.593-1.185.013-.844.011.169.594.432 1.523zM126.345 56.358l.272.437.209-.392-.316-.07-.057.009-.108.016zM126.389 152.627l-.766-.523-.824-.563-2.513.242 1.1.752 3.016.398zM126.338 151.529l-.006-.136-.041.005zM127.9 151.243l.016.329h.497l-.131-.366zM140.949 257.237l.065-.77-.657.763zM114.885 146.253l2.894.497-.777-.532-.856-.586-1.052.014zM114.93 206.198l-.778.153.039.369h.811zM131.707 232.072h.504l-1.269-1.415v-.001l-.52-.58 2.808 1.996h2.196l-2.519-1.711-.811-.551-1.482.223-.618.093zM139.311 240.729l.543-.129-1.637-1.827v.709zM125.168 235.684l-1.124-2.147-2.417.237 3.303 1.907zM126.629 235.112l.308.587 1.192.011-1.701-.981zM134.957 235.772l.575.006-2.778-3.099-.475.046zM118.345 231.882l.33.19h3.148l-.058-.034-.923-.533-1.051.158zM113.738 234.648l.219.227.096-.354-.251.025zM129.546 200.079l-1.969.277.036.256 1.977-.217zM135.563 249.901l-.744-.719-.6-.582-.001-.001-.491.065.757 1.449zM136.54 199.095l.294.502 2.029-.223-.646-1.105v.589zM130.994 249.024l.99 1.58.047-.009.346-1.147-.297-.566zM118.698 90.621h-1.622l1.566.235zM136.785 248.261l.145.642.158.7 1.935-.38-.806-3.584v2.432zM136.102 199.156l-2.536.358.192.422 2.545-.281zM115.437 235.413l-.05.181.122.001zM120.475 201.356h.115l-.007-.014zM116.961 32.179l-.016.222h1.582l.1-.861-.01-.385-1.605.315zM115.889 32.401l-.003-.011-.183-.662v-.001l-.465.092-.81.159.127.423zM137.225 86.899l-1.229.012 1.447.32.034-.277zM137.66 91.833l-1.374 1.68 1.931.291v.167l.381-.467zM120.59 201.356h1.035l-.08-.15-.962.136zM137.088 249.603l.33 1.472.407-.08 1.53-.301-.332-1.471z"/><path fill="#070708" d="M112.977 206.582l.018.138h1.196l-.039-.369zM138.217 295.936l1.01-.895-.436-1.875-.018.016-.556.494zM129.006 61.4l.217.002.158.002-.378-.751-.031.075zM128.193 201.356h1.534l-.137-.961-1.977.217.057.399.049.345zM135.215 251.508l1.625-.32.043-.008-1.32-1.279-1.079.212-.757-1.449-1.647.218.297.566.057-.188 2.863 2.774.204.021zM130.833 254.571l.098-.323.217-.722-1.136.195zM141.922 315.708v-.213l-1.573.131v.068zM134.611 201.356l2.276-.25-.531-1.318-.001-.001-.052-.132-2.545.281.093.205.551 1.215zM135.621 60.635l-.523.821.441.003zM139.809 105.757l.357-1.79-1.124-1.082-.269-.259-.296-.286-.26 1.298v.587zM122.247 257.007l1.415.017.633.008.657-.906-3.698-.806.217.547.45 1.136zM148.065 238.652l.535 1.423.308-.073.542-.129-.995-1.078-.178-.192zM122.945 201.356l-.185-.161.035.161zM138.217 239.482v2.34l.519.593 2.263-.537-1.145-1.278-.543.129zM115.29 235.043l-.245-.619-.992.097-.096.354-.219-.227.064-.102-.239.023-.514.051.246.619.134.337.324.003 1.634.015.05-.181zM131.707 232.072l-1.711-1.946-1.07.162.487.599.966 1.185zM146.603 147.382l.471 1.66.309-.287 1.303-1.212-.473-1.66zM147.81 315.002l.294.763 1.668.015h.015l-.115-.299-.238-.615zM130.994 249.024l-.553.074-.208.689v.001l-.193.641.312.496-.491.096-.142.476 1.982.191.33-1.093-.047.009zM121.827 121.527l.466.066-.218-.257h-.991l-.038.081zM130.014 249.155l-.714.094.299.477zM126.184 148.188l.636.108.447.077-1.029-2.865-.178.003zM141.918 87.901l1.403.301.273-1.361-1.864.017-.488.6-.027.033-.036-.033-.652-.589-3.302.03.252.055-.034.277 1.266.28.383.347.373-.482 2.002.429zM126.05 30.701h9.029l-8.444-.421-1.081-.054-.21-.392-1.93.38.26.487zM115.094 145.646l-.463.006-1.199.015-.02.057.541.37.932.159zM114.228 256.423l-.469.081.36.402.571.008.197.002-.319-.551zM115.805 256.154l-.217.037.189.737.725.009-.168-.189-.001-.001zM150.46 115.585l-.556-.109.626.603.273.262v-1.323zM126.514 152.019l.33.92-.455-.312.013.306 1.082.144h1.469l-.448-1.249v-.001l-.092-.255h-.497l-.016-.329-1.568.15.006.136zM128.781 256.962l-.666-.146-.079.262 1.834.023.2.003.201-.666-.616-2.656-.659.113-.218.721-.305 1.015zM118.674 31.144l-.057.011.01.385zM150.803 322.297l-.169.004.169.439zM142.314 81.966l1.051.372.754-.974-.873-1.401-1.102 1.426-.105.135zM137.729 279.96l-.703.606.281.086zM147.49 287.718l.121-.109-.112.047zM129.987 151.572l-.08.119-.72 1.072-.211.314h2.208l1.011-1.505zM120.24 250.444l-.608.08.608.059zM144.671 61.152l-.11.39.169.001zM104.721 315.368l.009-.056-.525.051zM135.666 116.377l.236.451.233-.265.517-.589h-.905zM128.624 249.338l-1.091.144-.531.731-.161.223.561.582.061.261.941.091.635-.875-.192-.199zM137.66 91.833l.938 1.671.847-1.035-.742-.639-.61-.526zM140.357 257.23l.657-.763.018-.219.107-1.291-.308.401-.328.428-.195-.867-.923 1.074.552.534-.022.029-.508.663zM109.906 315.415l.53.005-.059-.665-.561.056z"/></svg>