<svg xmlns="http://www.w3.org/2000/svg" width="79.999" height="79.347"><g fill-rule="evenodd" clip-rule="evenodd"><path opacity=".5" fill="#070708" d="M71.275.768l-.994 3.472L72.903.944 71.275.768zm5.522 2.372l.164-.104-.084-.171-.08.275zm.359.29l-.419-.082-1.172 4.058 3.267-.585-1.676-3.391zM55.651 4.907l.146 1.94.429-.858-.575-1.082zm-11.749 8.289l2.178 2.543.122-2.857-2.3.314zm-.19 1.966l-.667-1.85-.524.071 1.191 1.779zm2.336 1.329l-.086 2.027-.914-1.364-1.144-3.167 2.144 2.504zm18.609-4.36l.034-.008-.6-.789.302.787.264.01zm-6.576.099l3.581 4.135.082-.013-2.163-4.063-1.5-.059zm9.443-.836l1.746-.45.247-1.655-1.993 2.105zm-.913.235l-.902.232-.713-1.607 3.743-.873-2.128 2.248zm-2.845.468l-.191-.008-6.53-6.478 1.025-2.054 6.369.372-1.651 2.232 4.983-3.643L70.637.862l-1.685 5.884 4.564-5.737 1.516.164-.178 5.311-.142 1.371-2.01.219-2.485.58.148-.99-1.162 1.227-4.926 1.148.715 1.612-1.942-2.185.716 2.631zm-.922-.036l-5.832-5.786 3.02 5.675 2.812.111zm.375.371l.056.056-.019.005c.26.352.684.654 1.054 1.021l.887 2.314-2.867.436-2.103-3.95 2.992.118zm2.906-.29l-.159.041.116.005.043-.046zm3.396 5.465l1.827 2.404-.969-3.653-.858 1.249zm-.537-.705l.555-3.71.659 2.483-1.02 1.482-.194-.255zm-2.973-4.36l.411.016.616-.651 2.021-.521.093.347-.674 4.503-1.991-2.62-.476-1.074zm-1.032-.041l-.215-.008-.207.053.319.834 1.577 1.564-.536-1.208-.938-1.235zm6.008 2.024l-.726-.909.376 1.418.35-.509zm-1.777-3.177l-.015.1-.064-.08.079-.02zm-13.411.792l1.582.063 3.183 3.676-4.765-3.739zm-.225-2.805l.248-.985-.361.431 1.09-2.183 2.836 5.327-1.625-.064-2.188-2.526zm-1.273 1.63l.214.168.15-.602-.364.434zm.579 1.139l.126.005 5.624 4.413-7.041 1.07.508 2.116-4.929-5.108 3.3 8.6-5.813-6.79.153-3.61 3.366-.458 1.327 1.16-.872 1.415 1.26-1.076 3.367 2.647-.984-2.038.02.001.588-2.347zm-.603-.023l-.883-.035-.343.41.803 1.312.423-1.687zm-2.468 1.054l.589-.702-.223-.364-1.371.187 1.005.879zm.387.34l1.801 1.574-1.316-2.152-.485.578zm3.227-3.534l-.149.596-.087 1.122.135.105 1.739.069-1.638-1.892zm-3.489-5.934l-.88 1.859-.49-2.285-2.194 3.534h-1.319l-.228 5.317 5.146-.7-3.057-4.997 4.199 3.295-1.177-6.023zm-1.536-1.194L47.949 6.76h-.884l.073-1.736-1.341 1.736h-9.679l-.554.786 1.61-5.112 2.851.041-.617 1.906 1.809-1.889 7.408.105L49.941.688l.457 2.125zM34.836 8.581l-.106-.005.064.063.042-.058zm.347.434l2.168 2.099 4.956.158 3.215-4.157h-9.001l-1.338 1.9zm18.813 2.442l.151-.021-.146-.114-.025.03.02.105zm-.639-.168l-.241.288-.557.076-1.72-2.811 2.408 1.89.11.557zM34.896 9.421l1.724 1.67-1.048-.033-.721-1.572.045-.065zM46.462 6.76l.001-.005-.004.005h.003zm4.552-3.906l.528-.85.209 1.067-.475 1.002-.262-1.219zM40.62 76.667l-1.897.043v2.252l1.897-2.295zm12.106-1.172l-1.56-4.303-1.032 4.317 2.592-.014zm12.921-.141l-2.43.176.023 3.156 2.407-3.332zm10.95-.388l-1.698-5.275-.606 5.039-5.978.432 8.282-.196zm.709.34l.618 2.148.972-2.186-1.59.038zm-19.424-1.627l1.22 3.81 1.156-2.103 2.354-.17-.035-4.5-3.543 6.332-.734-3.853-.418.484zm-4.413 2.168l.771 2.13 1.176-2.14-1.947.01zm-11.865.44l7.777-.178.057-.24-7.521.041-.313.377zm-6.512-9.124l.2.232-.097-.252-.103.02zm6.198-1.559l.355-.068-.23-.265-.125.333zm17.603-1.255l.892 1.981 1.447-3.847-2.339 1.866zm-11.148-5.173l-.719-.752v1.101l.719-.349zm20.761-4.382l-1.225-1.67.383 2.279.842-.609zM43.51 59.693l-.356.948 3.271-.44v-.155l-2.915-.353zm-6.502 1.776l.987-.133-.434-.499-.47.348-.083.284zm-1.011 3.416l2.51-2.959-.228-.262-1.384.186-.898 3.035zm-.457 1.546c.351-1.186 2.389-2.661 3.563-3.819l1.88 2.162-.358.957-4.987.953-.098-.253zm4.522-4.763l-.593.584 1.72 1.979.518-1.38-1.645-1.183zm.369-.294l1.929-.26-.487 1.295-1.442-1.035zm1.761 1.826l1.886 1.354-3.958 4.164 1.018-2.71 1.367-.261-.886-1.02.573-1.527zm-4.883-2.745l.187-.629 1.735 1.247-.094.11-.535.072-.93-1.069-.363.269zm22.351-1.979l-3.187.498.034.077 4.037.507-.884-1.082zm2.12-.331l1.097.722-1.159.838-.427-.054-1.038-1.268 1.527-.238zm.655-.103l.827.546 1.19-.861-2.017.315zm2.899-.39l.604.638-.952 1.434-1.316-.868 1.664-1.204zm.729-.176l-.179.028.337.357.121-.182-.279-.203zm1.465 1.067l-.111.583.921.976.634-.508-1.444-1.051zm-1.211.149l-.883 1.328.157.103.978-1.165-.252-.266zm.461-.695l-.177.267.292.309.256-.305-.371-.271zm.254-.381l.216-.326.714-.111-.129-.769.883-1.329 2.178 2.971-1.553 1.246-1.717-1.25.086-.447-.266.316-.412-.301zm-.747-.544l.514-.08.42-.632-.011-.064-.998.722.075.054zm-9.888 5.159l1.687 1.708-.858-1.908-.829.2zm-16.453-1.207l.039.028 1.614-1.591-.297-.036-1.356 1.599zm29.81-1.426l.03-.055-.051.04.021.015zm-.592 3.413L72.3 65.08l-3.81-.175-3.907 5.037 1.889-7.743.658-.528 1.143.753-1.181 2.251 2.07-1.664zm-.421-.278l-.015.027.024-.02-.009-.007zm.497-.947l-.29.551.168.11.425-.341-.303-.32zm1.722-3.284l-.749 1.428.773.563-.024-1.991zm-5.531-1.481l.004-.003-.024-.018.02.021zm-5.443 1.036l1.343-.21-3.29-2.169 1.947 2.379zM44.489 64.85l6.473 4.65-1.438 6.013-7.985.043-.618.748-2.198.05v-5.439l5.766-6.065zm4.425-9.487l-.193-.196.11.249.083-.053zm2.304 2.332l-1.683-1.703-.309.322.229.523.328-.153-.192.46.484 1.099.563.071.58-.619zm.354.359l-.316.338.742.093-.426-.431zm-8.444 1.011l.25-.666-.826.814.289.035.287-.183zm-2.09 1.862l1.831-1.171-.366.974-1.465.197zm1.325-1.373l-.14-.017-.307.303.447-.286zm7.129.724l1.589 1.661-1.006-2.284-.583.623zm-.843-.88l.105-.25.903-.438.196.446-.71.76-.494-.518zM47.07 62.87l-.041.044.738.91.725.035-1.422-.989zm-.822.879l.424-.452.399.493-.823-.041zm1.728-4.224l-1.109 2.652-1.416-.747 1.041 1.644-.281.673-1.305-.063-.511.538-2.036-1.463.65-1.732 4.018-.542v-.5l.949-.46zm.826.756l-.362-.379-.581 1.389.943-1.01zm.347.364l2.296 2.399-.984.238.42.694-1.539-.076-1.96-1.364 1.767-1.891zm4.325 3.458l1.178-1.449 1.184-.286 1.92 1.944-4.282-.209zm-1.833-.722l-.418.101.26.43.158-.531zm.646-.116l.024.055-.044.011-.21.703.772.038.989-1.217-1.52.367-.011.043zm-1.951-4.625l-.091-.011.032.073.059-.062zm2.507.7l-.921 3.095-1.424-3.233.453-.485 1.458.183.434.44zm2.198 2.835l.486-.117-.214-.218-.272.335zm-2.618.633l1.786-.432.737-.907-1.633-1.652-.89 2.991zm14.159-2.491l-.456-.028.598-.713-.142.741zm-.068.354l-.103-.006.093.061.01-.055zm-9.539-.585l.657 1.463 3.793-.916-.235-.289-4.215-.258zm-.166-.368l-.127-.282 4.195.526.004.004-4.072-.248zm5.085.67l2.546.156-3.144 4.734.527.138 3.913-4.663.677.446-.134.698-6.065 4.931 2.222-5.905-3.741 2.985-.906-2.013 4.458-1.077-.353-.43zm.141-.35l2.633.161.07-.105-1.455-.959-1.248.903zm5.078.669l-.071.373.042.028.466-.374-.437-.027zm.069-.353l.119-.62.628.666-.747-.046zm-2.12.228l-.552.832.69-.823-.138-.009zm-8.811-.718l-.989 1.217-1.787-1.808.069-.231 2.477.311.23.511zm.238.53l.581 1.291-.979.237-.463-.469.861-1.059zm12.801.089l-.629-.039-.001-.001.704-.564.176.128-.25.476zm-.182.347l-.089-.005.06.062.029-.057zm-.82-.051l-.043-.002-.75.602.984.649.353-.671-.544-.578zm2.713 2.911l.093.062-.077-.083-.016.021zm-.15-.099l-.141-.247-.847-.896-.336.27 1.324.873zm1.29-2.29l-.545-.075.003.281-.295-.215-.774.622.495.869 1.116-1.482zm3.174.439l-2.578-.356-1.415 1.879 1.748 1.851-.004.001 1.628.075.621-3.45zm1.945.27l-1.773 3.217-.19-.009.61-3.396 1.353.188zm-7.743-.757l-.032.063.173.184-.141-.247zm.305-.581l.174-.333.915.667-.617.495-.472-.829zm5.229-3.237l-3.062.689.459 1.24-.521.099-.359-.491.022 1.888.799.11 2.662-3.535zm.901.758l-.573 3.19-2.392-.332 2.496-3.316.469.458zm3.003 2.934l-2.487-2.431-.497 2.769 1.476.205.319-.579 1.189.036zm-2.382-3.015l.191-1.062.293-.066 1.605 3.17-2.089-2.042zm-.791-.772l.275.268.074-.416-.287.064-.062.084zM50.396 67.887l-.152.187.082-.274-2.952-3.639-2.131-.104-.437.459 6.843 4.916-1.253-1.545zm1.229-2.398l.057-.191.064.106-.088.108-.033-.023zm-.507-.352l.153-.516-.168-.277-1.21-.059 1.225.852zm24.176.438l-.062-.002-.031.171.093-.169zm1.541-8.923l.05-.011-.035-.07-.015.081zm-.645.146l.014-.003.003-.02-.017.023zm-24.279.892l2.088-2.233-.94 3.161-.264-.033-.884-.895zm-2.972-.612l-.14-.319-.666.695.806-.376zm.057 1.492l.293-.699.201.459-.494.24zm-1.492-.369l1.274-.593-.561 1.339-.713-.746zm-.837-.875l1.858-1.189.056.128-1.466 1.529-.448-.468zm-2.985 1.909l-.042.11 2.784.337v-.979l-.327.152.327-.342v-1.034l-2.742 1.756zm8.211 5.354l.22.364.438-.539-.598-.029-.06.204zm.505.836l.796-.979 4.932.241 1.647 1.669-.778 2.069L65.667 63l-2.276 9.333 5.472-7.054 5.769.265-.081 2.044-.812 6.823-10.524.76-.051-6.637-3.838 6.858-.65-3.414-.976 1.128-.29-.902-1.798 3.274-2.271.012-2.098-5.791 1.929 1.124-2.44-3.348L51.8 66.16l1.805 1.256-1.207-1.991zm-1.416.168l-1.938-1.35-.975-.048 2.435 3.002.478-1.604zm19.075-13.159l-.276-.27.207.558.069-.288zm.176.172l-.209.216 1.835 4.95 2.977-.67-4.603-4.496zm8.734-16.092l.101.067.742-.682-.361-.386-.482 1.001zm-5.832-6.919l1.189-.223.5-1.307-1.689 1.53zm6.658-.872l-1.192 2.275.359-1.916-3.024 1.856-1.494-.259.394-1.029 4.957-.927zm-5.931 1.856l.308-.805-1.555.291-.104.094.026.19 1.325.23zm-.133.348l-1.14-.198.234 1.707.261.173.645-1.682zm-4.302-.746l2.732 1.813-.188-1.373-2.544-.44zm6.839 16.296l.049-.181-.166.172.117.009zm-4.179.014l-1.105 4.619 4.205-4.362-3.1-.257zm-5.183 1.344l1.729.026 1.014-1.506h-.014l-2.729 1.48zm-3.263 1.287l1.758-.953-1.192-.018-.566.971zm-.412.706l3.037-1.646 2.773.042 1.265-1.88 1.187.098-1.301 5.434-1.775-1.734 2.723 7.346-2.108-2.876.248-.374-.342.247-2.633-3.593.822 4.903-1.302.941-2.534-1.595 1.692 2.136-2.997.468-6.346-4.185 3.755 4.589-3.657.571.111.248-2.198-.276 1.57-5.277-3.661 3.917-1.679-1.699.824-1.193-1.361.649-2.306-2.333 1.309 2.971-4.404 2.818.83-2.21-2.844 2.803-.347-.042 6.896-8.135 5.569-5.183-1.109 5.303 3.283-3.053 7.354.113-.689 1.184-.474.138.231.276-.057.098.168.034.123.147.163-.089.115.023.076-.124zm-8.292-5.407l5.5 3.287 3.952-.964-.608 1.043-7.886-.12-2.031 1.889 1.073-5.135zm-4.614-1.391l-1.125 6.595 5.649-5.257-2.23-1.333-2.294-.005zm21.79.81l-.131.011-1.449 2.152 1.042.086.538-2.249zm5.215.961l-.465 1.726 2.066.171-1.601-1.897zm-4.595-1.009l1.77-.138-.121-2.343 2.822 3.343-1.697 1.761-3.335-.276.561-2.347zM57.848 28.306l1.761-1.967-3.58 1.73-2.223-.375-3.006 5.782 7.048-5.17zm-10.92 2.22l.681.903 4.775-3.975.842.142-3.831 7.369-2.467-4.439zm-1.845-3.318l-.604-1.088 7.291 1.23-4.041 3.363-2.646-3.505zm-.467 1.457l-.31 4.137.703.594-.393-4.731zm22.458.737l1.225.212-1.462-3.117.237 2.905zm-3.372.518l.464-.312-.419-.646-.045.958zm2.455-4.368l.305 3.744-1.452-.252-.394.264-.797-1.229 2.338-2.527zm-13.403 1.594l1.245-1.037-.596 1.146-.649-.109zm-9.015 5.177l.469-6.25-.439-.073-4.021 2.957 3.991 3.366zm17.361-.658l-1.58 1.059 1.025-1.107.008-.002.547.05zm14.54 3.175l-.678.735-4.211-3.979 4.889 3.244zm-9.428-3.07l.455.042-.174-2.139-1.285-.223-.349.233 1.353 2.087zm.249.382l.267.413-.031-.391-.236-.022zm-7.95-.556l.431-.126.2.018-.631.108zm17.433 2.912l1.271-1.379.515-.714.437-2.332-2.05 1.257-1.808-.313-.731 1.909 2.366 1.572zm.427.282l1.189-1.292 1.474 1.573-.542 1.127-2.121-1.408zm1.531-1.663l.032-.035 1.549 1.045-.215.447-1.366-1.457zm-16.621-3.048l-1.062 1.147-1.374-.126-2.902.853 1.418-2.026 9.204-5.557-.352.381-.12.011.009.109-2.565 2.772-.307-.474-.041.849-1.563 1.689-.501-.709.156 1.081zm1.431 1.166l.936-.161.028-.608.733-.492 1.117 1.724-2.657-.242-.157-.221zm4.816.644l-.254-.023-.17-2.088 1.241.215.234.222.021.043.021-.003 2.03 1.918-3.1-.281-.031-.047.008.044zm.064.366l.832 4.868-1.31.351-3.974-5.624 2.635.239 1.735 2.678-.206-2.539.288.027zm-5.15-.468l4.122 5.834-5.105 1.368-11.674-3.321-.348-.625 6.928-5.083-1.106 1.235.973-.587-1.393 1.989c1.437-.247 3.098-.441 4.605-.645l-1.679 2.225 3.621-2.028 1.061 3.955-.318-4.345.313.028zm6.561 5.181l1.079-.289-1.52-2.29.441 2.579zm4.666-.649l.173.068-.079.071.164.242.806-.875-1.185.317.121.177zm-5.181 1.178l-1.142.306 1.575 2.23-.433-2.536zm-6.565-7.37l.474.669.684-.458.071-1.539-1.229 1.328zm-.549.594l-.422.456.477-.082-.055-.374zm10.855 5.774l-.267.921 1.123-1-.086-.127-.77.206zm-.664.178l-.715.191.46.692.255-.883zm.123-.424l.384-1.327-1.632-2.409-2.634-.239 2.824 4.257 1.058-.282zm.663-.178l.424-.113-.273-.404-.151.517zm.973-.26l.917-.246-3.016-2.851 2.099 3.097zM44.828 18.355l-7.097-6.873 4.952.158 3.5-4.525h.264l-.23 5.4-2.595.354-.59-.355-.113.45-1.217.166 2.767 4.127.404 1.121-.045-.023zm1.109 1.261l.173.481.188-.112-.257-.383-.104.014zm-.784-.261l-.79-.765-5.419-2.717.811 4.194 5.398-.712zm-9.062 6.255l.087.38-.231-.222-.732.807 10.778-6.409-.507-.492-5.662.747.158.82.146-.078-4.037 4.447zm-.468-2.05l-.573-2.507 4.012-.529.909.725-4.348 2.311zm-.445.715l-.051.027.073.07-.022-.097zm.776.733l-.234-1.021 2.244-1.193-2.01 2.214zM64.558 0l-1.653 1.12L66.022 0h-1.464zm-5.655 0l-1.814 2.715L62.913 0h-.865L58.47 1.618 59.551 0h-.648zM46.527 19.378l.059.152-.065.009-.014.322.837-.498-7.826 9.194 4.032-2.964.686.116.002-.023.014.025 7.889 1.332 3.534-2.942-1.69 3.253 1.908.322 5.645-2.728-3.16 3.529-.397.568 11.21-6.769-2.459 2.657 2.25 4.798 2.935.509.093-.123c.846-.944 3.453-3.279 4.145-3.905l-1.162 3.034 5.01-.937v1.221l-.697 1.331.697-.757v.745l-1.602 1.739-.106.204 1.389.936.319-.665v1.421l-.043-.029-.274.571.317.339v1.016l-.516.474.516.343v.536l-.854-.567-1.82 1.671 2.675 3.539v.873l-3.457-4.573 2.442 8.025 1.015.084v.359l-3.231-.267-.722 2.677 1.735-1.776 2.218.012v.355l-1.872-.01-3.189 3.265 1.233-4.573-.343-.028-5.253 5.451 4.827 4.716.986-1.309-.055-.107.155-.027.721-.957-.153.856 2.588-.457-3.436-4.421.472-.163 3.318 2.699v.605l-1.863-1.515 1.863 2.399v.853l-.102-.131-2.814.497.367.723 2.549-.574v.381l-2.376.535 2.175 4.297.201.006v.356h-.018l.014.026-.485.127-.178-.173-1.136-.035-.161.291 1.964.272v.366l-2.151-.298-1.743 3.165 3.895.179v.357l-4.087-.188-1.359 1.915 2.651 7.433 1.467-.034.805-.952.523-1.178v1.4l-2.203 4.951-1.098-3.818-10.551.249-2.728 3.778h-.775l-.029-3.774-1.903.138-1.765 3.21-1.714-4.866-1.123 1.671-1.989 3.622h-.006l-1.267-3.497-2.805.015-.141.587-8.604.197-2.229 2.697h-.954v-2.624l-1.579.036-1.822 2.403v-1.005l.032.09 1.394-1.835 1.976-.046V70.77l-3.401 5.431v-1.135l.016.084 3.987-6.368v2.01l1.751-4.66-4.703.899.46 1.871-1.511-1.433v-.739l.094.11.248-.048-.342-.895v-1.613l.476 1.244 1.063-3.594-.221.03-1.318.977v-.57l.377-.279-.377.051v-.365l.979-.132.826-.611.601-2.035 2.399 1.724 1.164-1.372-5.97-.724v-.363l6.249.757 6.227-7.344-7.854 5.522-4.621-.677v-.367l4.401.645 9.372-6.59 1.224-7.183h-.08l-3.607 4.806-11.31-.769v-.358l10.938.744 3.32-4.424-11.911-.023-2.348-.676v-.396l2.487.717 12.039.023 1.472-1.961-.335 1.963 2.487.005 7.71 4.608 4.813-1.174-.981 1.683 1.625.025 3.336-1.808.525-.032 1.398-2.078-1.267.099-3.639 2.199L51.958 40.5l-16.68-.092-.559-.21v-.422l.737.278 16.687.092 14.167 5.596 3.435-2.075 1.808-.141 1.35-1.595-.081 1.497 1.063-.083-.188-3.642 3.979 4.713-1.98-7.311 1.565 1.652 1.036-2.151-2.232-1.482-2.222 2.412-.485-.717-2.002 1.782-1.054-1.589-1.234.331.862 5.042-3.133-4.434-5.345 1.432-12.159-3.458-4.08-7.34.501 6.027-1.451-1.225-.201 2.68h-6.254l-3.088-1.775v-.497l3.333 1.916h5.432l.21-2.803-4.34-3.661-1.32.97-.455-.173 1.137-1.335-.855-.721-3.141 1.802v-.496l3.229-1.853 1.075.906 6.084-7.147-10.389 6.175v-1.007l.861-.949-.861-.828v-.679l.086.083.275-.146-.361-1.581v-1.536l3.95-.521-3.95-3.151v-.6l4.411 3.52-.958-4.96 5.191 2.603-6.363-6.163-1.263-.04 2.625 5.724-.492.12-3.151-3.301v-.725l2.362 2.475-1.978-4.313-.385-.012v-.358l.219.007-.219-.478V1.214l.447 5.651 1.51-4.794 3.464.05L40.905 0h.614l-.769 2.129.119.002L42.91 0h.692l-2.05 2.141 6.671.095L49.766 0h.636l.448 2.087 1-1.612.33 1.689L53.205 0h.625l-1.467 3.101 1.465 7.493.067.053.676-.805-.277-1.986.986 1.14.071-.085L54.676 0h.604l.361 4.761.902.577 1.089-2.164 7.062.413L67.349 0h.657l-2.438 3.294 1.757-1.015L70.066.275l.612.066.591-.341h.227l-.12.417 1.793.194.485-.611h.665l-.537.677 1.654.179.066-.645-.95-.211h1.718l2.101.465L79.421 0h.578v.188l-1.531.678-2.374-.525-.502 4.859 1.13-3.917.717 1.451L80 1.109v.71l-2.353 1.334 1.763 3.565.59-.106v.609l-.965.01-.033-.068-3.207.575L80 7.278v.362l-7.13.779-2.712.632-.259 1.73 10.1-2.601v.388l-10.16 2.617-.135.9 1.592 1.991 2.429-3.534 4.914-.461 1.36 1.475v.744l-1.687-1.827-4.157.39-2.51 3.651 1.84 2.301-.291-1.972 6.805-1.114v.37l-6.161 1.008.54 3.66-3.041-3.804-.518.755 1.819 6.861-3.432-4.515-1.279 1.861.442-2.962-.958-1.261.703 1.586-2.81-2.786.607 1.584-3.403.518.789 2.171-1.137-1.05-1.14-.895-6.762 1.028.877 3.647-4.486-4.649 2.779 7.874-6.809-7.569-.092 2.217z"/><path fill="#070708" d="M39.54 79.033V76.04l-6.712-1.471 19.74-.111-13.292-.809h8.362l-8.098-.753v-4.084L35 67.651h14.476l-10.462-1.269h7.323l-6.797-.59v-4.167l-4.475-.892 14.674-.112-10.199-1.079 7.118-.423-7.118-.58V55.636l13.028-.073-13.292-.81h8.362L39.54 54v-4.083L35 48.756h14.476l-10.462-1.269h7.323l-6.797-.591V42.73l-4.475-.893 14.674-.111-10.199-1.079 7.118-.423-7.118-.581v-3.242l7.118-.581-7.118-.424 10.199-1.078-14.674-.111 4.475-.893v-4.166l6.797-.591h-7.323l10.462-1.268H35l4.54-1.162v-4.083l8.098-.754h-8.362l13.292-.809-19.74-.111 6.712-1.471v-2.993l-6.712-1.47 19.74-.112-13.292-.808h8.362l-8.098-.754V8.678L35 7.518h14.476L39.014 6.249h7.323l-6.797-.591V1.492L35.065.6 49.739.488 45.126 0H0v79.033z"/><path fill="#5C5F61" d="M24.797 2.29l.257 1.105.888.526-1.145-1.631zM8.02 1.331l-2.105.186 3.342 2.679L8.02 1.331zM3.711.447L2.388 1.489l2.363-.208-1.04-.834zm14.72.501l3.568 4.689-1.256-.648.807 4.2 2.43-5.869L20.065 1 18.431.948zM9.928.347l1.948.062-.759-.392L9.74.084l.188.263zM9.109.321l-.143-.2-.676.034.062.142.757.024zm.244.341L8.497.635l.131.303.866-.077-.141-.199zm7.77 1.941L16.264.88l1.342.042 2.419 3.179-2.902-1.498zm-1.054-.545L15.467.854 13.626.796l2.443 1.262zM9.312 8.371h.472l-.243-.689-.229.689zm-6.191 4.295L.71 5.688l.541-3.305.651-.513 3.229-.285 5.776 4.63L8.77 1.264l1.706-.15-.305-.426 2.392.075 3.854 1.991.061.122.148-.014 4.108 2.123-3.722 3.387h-6.454l-1.04-2.948-.979 2.947H4.7l-1.36 4.29-.219.005zm2.442-.06l1.293-.032-.031-1.333-1.262 1.365zm-.843.021l2.83-3.062.039 1.668.84-2.531H5.367l-1.249 3.939.602-.014zm7.978 1.814l.858 2.435 2.883-1.992.799-.004-.215-3.897-2.8 4.382-.226-2.06-1.299 1.136zm13.563-2.555l-6.061.193-2.229 2.212-.261-4.741-.668-.03-2.293 4.169.068-1.847-2.32 2.029-1.823-5.168h6.82l2.72-2.475.844 4.393.67.014 2.717-6.558 1.816 7.809zm1.528.283l-1.005 1.963-.446-1.917-5.622.18-2.497 2.478 13.976-.081 2.441-2.841-6.847.218zm-23.385.798l-.392.01-.2.631.592-.641zm7.502 1.421L9.9 8.703h-.699l-1.574 4.186.121 5.134 4.158-3.635zm18.622 50.541l-.018.031.56.559.222-.172-.764-.418zM15.122 52.486l-.787.665.4.338 1.323-.52 3.861.979-4.797-1.462zm-2.095-.44l.283-.132-.702-.222.419.354zm.878.742l-.506-.427.533-.25.563.178-.59.499zm.551-.923l.394.125.823-.696-1.217.571zm-.309 1.855l-.243-.205-.664.561.907-.356zm-3.822.082l1.527.72 1.622-1.37-.628-.532-2.521 1.182zm20.276 12.082l-1.238.962.832-1.368.406.406zm-4.647 3.727l.126.287-.044-.406-.082.119zM13.421 72.45l-.552-1.123-.432.586.984.537zm7.627 3.077l-.902-1.573-.41 1.944.765.418.547-.789zm7.633.822l-1.145-.015.14 1.302 1.005-1.287zm-10.075-.533l.223.74.117-.555-.34-.185zm-3.758-2.053l1.533 3.123.972-1.754-2.505-1.369zm10.825-3.041l-.29-.288-.243.351.533-.063zm.526.283l-1.319.153-3.039 4.377 1.118 1.948 1.23-1.528 2.545.034-.535-4.984zm-6.285 1.174l.834-.539 3.263-.379-2.531 3.646-1.566-2.728zm-4.24 1.502l1.808.07 2.243-1.449-.678 3.221-.632-.345-.383-1.275-.453.818-1.905-1.04zm-4.958-.525l.867-1.176-6.832-3.732 4.507 4.787-.351.052 1.809.069zm3.111.12l-2.33-.09.659-.893 1.622.886.049.097zm15.533-8.631l.342.342-1.611 3.245 2.894-1.965 3.44 3.437-7.506.874-.326-3.037-.948 1.365-1.709-3.899 5.424-.362zm3.1-.207l-.765.595-.886-.485 1.651-.11zm1.432-.432l5-.333-.106-.79-3.143-.238-1.751 1.361zm-17.125-2.947l8.245 8.179-1.977-4.507.698-.046 3.113-4.879-3.351 1.871-6.728-.618zM.698 73.94l.571-.813 3.941.151-4.512.662zm2.867-22.833l-.23-.108.154.099.076.009zm4.4 2.073l-.526.441.943.603.902-.423-1.319-.621zM5.43 55.313l-.004-.002 1.612-1.354.811.518-1.247.584-.011-.003-.166.084-.995.173zm9.923.857l1.075.506-.764-.699-.311.193zm-1.575-.741l.993-1.182 4.406 3.725-1.007-.474-2.377-2.177-.972.599-1.043-.491zm-.763-.36l.181.085.169-.2-.35.115zm-.521-.245l-.009-.004 2.023-.793.115.097-2.129.7zm2.963 5.764l-.009.01.022.002-.013-.012zm.504.499l8.949 8.877-.64.921-3.996.465-3.174 2.052-2.082-.08-.528-.289-1.471-2.996-1.155 1.563-8.982-4.906 8.954-.774.559-2.473 5.151 5.115-1.894-7.282.309-.193zm17.815-2.803l-.125-.012-9.54 6.387 4.934-.329-.626-.626.575-.15 1.185.648 3.597-5.918zM4.553 56.043l-.139.117.217-.11-.078-.007zm.454-.298l.193.016.151-.077-.344.061zm5.849-.382l-2.149.708-1.05-.093 1.178-1.464-.012-.007.98-.46 1.676.79-.623.526zm2.045.143l-.498-.235-3.509 1.155-1.491-.131-6.393 7.951 6.939-4.335 1.165.107 3.787-4.512zm1.47.692l-.887-.418-1.679 2 2.566-1.582zm3.034 1.429l-1.974 2.106-1.462-1.45.682 2.241-5.537-.508 5.787-3.569 2.504 1.18zm1.809.853l-3.1 1.931-.255-.252 2.118-2.261 1.237.582zM6.319 55.86l.582.051.65-.809-.588.276-.644.482zm-.931-3.895l-.165.014-.054-.117-.602-.284-.403-.051 2.785 1.781.464-.389-2.025-.954zm5.7-.832l-.343-.289-.423.355.766-.066zm.363.307l1.022.865-2.668 1.251-1.468-.691 1.534-1.289 1.58-.136zm-5.184.449l2.646-.229-1.127.946-1.519-.717zm26.324 6.281l-2.836 1.245 1.646-1.359 1.19.114zm-5.846 3.038l4.672-2.05-5.872 3.931 1.2-1.881zm.03-.047l1.841-2.885-5.43 3.031-6.606-.606 3.164-1.972 2.686 1.265-2.001-1.691 1.811-1.128 8.387.806-3.852 3.18zm-9.854-10.195l5.698-.493 10.8 5.202-2.424 2.001-9.09-.873-1.871 1.166-4.938-4.174 1.084-.425 6.283 1.249-6.988-2.431 1.446-1.222zm-4.165.361l2.213-.191-1.136.532-1.077-.341zm4.276-8.833l.705.051-.555-.699-.15.648zm-6.316-2.573l.352.511-.063-.887-.289.376zm-9.597.66l.777.138 1.066-.896-1.399.095-.444.663zm15.157 1.858l.313-1.341-.018-.022-1.818 1.252 1.523.111zm-2.888 5.463l.144-.121-.181.081.037.04zm-.466.392l-3.56 2.988-3.703.321-.356-.167 7.463-3.314.156.172zm.374.409l1.894 2.075-3.275.284-1.036-.328 2.417-2.031zm.642-.54l-.177.149.265.29-.088-.439zm2.858-4.657l-.611 2.623.376-.167-.42.352-.061.263 2.978-2.37-.604-.76-1.658.059zm.078-.336l1.322-.047-.175-.22-1.066-.077-.081.344zM5.698 39.298l1.064-.072.33-1.715-1.394 1.787zm-.81-.371l-.553.464.51-.034.063-.079-.02-.351zm.851-.716l-.552.708-.126-.138.678-.57zm2.496 4.948l-.359.468.523-.288-.164-.18zm5.909-1.034l-1.439-1.893.066 1.749-2.006.059-1.817.998-.337-.37 1.686-2.198 1.452 1.287-.333-7.176 4.837 6.093-2.109 1.451zM5.13 43.351l-1.092.663 1.127-.016-.035-.647zm3.043-1.163l.979-1.279-1.382.838.403.441zm2.268 2.487l2.466-1.697-.09-.452-1.732-.126-1.812.995 1.168 1.28zm-.504.348l-1.365.939-6.494-.76 1.399-.849 2.472-.035-.079-1.417 1.371-.832.556.609-2.022 2.638 2.951-1.621 1.211 1.328zm-2.502-3.642l-1.602-1.755 1.642-.111.473-2.455 1.947 2.83-2.46 1.491zm-1.595.968l1.065-.646-1.171-1.283.106 1.929zm-2.765 1.677l-1.078.015 2.963-3.796.14 2.553-2.025 1.228zm16.352-.614l1.855-.066-2.71 2.993.742-1.809.161.203-.021-.546.182-.441-.192.152-.017-.486zm-.012-.332l.704-.025-.707-.051.003.076zm-4.98-.437l1.764.127-.123.528-.903.655-.738-1.31zm-.606.322l-.138.095.763 3.836.872-.387.567-2.433-1.021.742-1.043-1.853zm-.812.559l.732 3.686-.707.314-2.251-2.467 2.226-1.533zm10.555-14.756l.441.277.188-.778-.629.501zM20.75 31.02l4.306 2.72-1.471-1.697-.323.125.095-.39-1.455-1.678-1.152.92zm-2.661-1.681l1.03-2.447 2.426 2.798-1.281 1.022-2.175-1.373zm1.765 1.702l-1.959-1.238-1.774 4.217 3.733-2.979zm2.822-2.252l-2.408-1.514 1.761 2.031.647-.517zm1.216.764l-.357 1.488-1.149-1.325.777-.621.729.458zm1.887 1.187l-1.55.605.33-1.372 1.22.767zm4.571-5.772l-.188.187.256-.143-.068-.044zm-.73-2.135l2.481-1.2-6.699-4.715 4.218 5.915zM10.6 24.608l.014.009.01-.013-.024.004zm-.618.834l.13-.17-.44-.514-.409.066.719.618zm-.338.444l-.388.506-3.708-2.366 10.736-6.822-5.351 6.995-.782.127-.746.121-1.213.196 1.452 1.243zm.99.114l.381.326-.325-.38-.056.054zm8.639-3.15l-4.887-.56-1.634 1.615 6.521-1.055zm10.015.641l-.148.072.379.25-.231-.322zm1.18.531l-.584-.819 2.637-1.276.034.024-2.087 2.071zM6.497 28.66L1.61 25.315l.642 1.812-1.914.443 3.277 3.79-1.625-3.148 4.507.448zm-2.308 2.593L2.974 28.65l4.105.408 6.429.638.08.051-9.399 1.506zm-1.941 2.098l-1.894-2.43-.063-2.499 2.75 3.015-.381.061-.412 1.853zm16.097-6.467l-.596.104-1.346 1.287 1.071.677.871-2.068zM31.9 24.181l.053-.03-.071.011.018.019zm-.795.037l-.292.289.145.202.405-.227-.258-.264zm.347-.344l1.592-1.579.986.695-1.234.691-1.344.193zm-6.675-.738l-1.177-.632.071-.011-.396-2.201 4.89 3.233-3.388-.389zm-1.25-.143l-.683-.367-1.044.169 1.727.198zm-2.196-.477l1.007-.163-2.892-1.555 1.885 1.718zm-9.524 5.505l1.282.818-1.01-.866-.272.048zm-.441-.282l.365-.063-1.496-1.283-.384.38 1.515.966zm24.43-4.139l3.525 2.481-.924-2.855-2.601.374zm-.413-.291l-.423-.298 2.851-1.594.478 1.475-2.906.417zm-10.188 4.018l1.684.846-1.381.169.896 2.158-.041.016-1.671-1.051.513-2.138zm-5.167-2.597l4.745 2.385-1.688 1.347-3.659-2.301.602-1.431zm-1.204.424l1.094-.48-1.198-.603.104 1.083zm-3.728 2.295l1.627-.283-.825.79-.802-.507zm2.796-4.021l-5.567.901-.845.835 3.172 2.004 2.527-.439.945-.904-.232-2.397zm3.183-.372l4.101 3.737-.013.01-6.851-3.444 2.243-.363.52.06zm7.972 2.376l-3.458-1.859 3.022.246 1.237.818-.801.795zm.327.704l2.623 1.41-4.538.556-5.415-4.935 2.295.263 4.362 2.345-.32.679.993-.318zm2.332-1.304l2.403 2.456-1.312.161-2.941-1.582 1.004-.562.989.654-.615-.863.472-.264zm2.931-1.416l-.177-.125-.361.202.538-.077zm-20.713 3.878l-2.752-1.738 1.651 1.93 1.101-.192zm.444.281l-1.277.223 1.475 1.901.963-1.39-1.161-.734zm18.153.253l-4.728.579.554.505-.916-.46-1.057.129.688 1.66.131-.051 10.155.612.002-.002.001.001.79.048-5.62-3.021zm1.89-.232l1.485 1.518-2.575-1.385 1.09-.133zm-23.771.27l-3.301.574-6.634-6.913 9.935 6.339zm.439.281l-3.445.6.027.029 5.215.518-1.797-1.147zM0 57.908l1.587-1.137L0 59.367v-1.459zm38.618-56.6L36.744.934l.348.456-5.303 4.101L32.768 0h-.767L30.76 6.965l6.657-5.148 1.143 1.03-.065-1.532.123-.007zm6.421 4.941h.817l.034-.039-.76-.066-.091.105zm-5.505 0h.482l-.076-.473-.406.473zm8.557 1.269h.511l.049-.1-.489-.059-.071.159zm-1.011 0h.606l-.026-.22-.636-.078.056.298zm-4.163 5.997h.836l.333-.33-.763-.071-.406.401zm-2.494 0h.768l-.099-.609-.778-.072.109.681zm2.501.863h.144l.016-.195-.16.195zm-.883.006l.666-.66.787.047-.613.607-.84.006zm-1.476.008l.766-.004-.122-.755-.774-.047.13.806zm-3.668 5.086l1.072-.235 1.57-1.555v-.827l-2.642 2.617zm-1.158.254l1.085-4.42.73.16-1.003 4.082-.812.178zm1.071.661l-1.23-.007-.398 1.621 1.628-1.614zm10.226.954l.602-.056h-.623l.021.056zm-6.551 5.941h-.347l.449.316-.102-.316zm8.894.012l.097-.012h-.102l.005.012zm-2.524.306l2.081-.252.038-.065h-1.516l-.072.053-.069-.053h-.883l.421.317zm-1.217 1.012l.699-.061h-.615l-.084.061zm.304 30.544l.716-.042-.654-.054-.062.096zm-2.644.157l.803-.048-.47-.398-.949-.078.616.524zm-.639 1.356l.779-.006-.367-.753-.824-.087.412.846zm-4.166.032l-.072-.54.243.197.876-2.401v.576l.548.044-.312.855 1.295-.774 1.446.118.277.568-.76.045-.28-.575-1.098.657-1.117.067.854.09-1.514.906.203.163-.589.004zm6.759 5.675h.972l-.004-.01-1.099-.095.131.105zm-5.229 0h.267l-.563-.3.296.3zm6.8 1.269h.02l-.165-.34-.323-.039.468.379zm-7.283 2.211v-.535l-1.767-.967-1.832-.468 3.599 1.97zm6.918 3.787h1.18l-1.42-.132.24.132zm-2.451 0h.782l-.137-.278-.82-.076.175.354zm-1.702 0h.969l.015-.405-.906-.084-.078.489zm5.678.835l1.166-.007.345-.207-2.138-.13.627.344zm-3.552.019l.78-.004-.25-.505-.807-.049.277.558zm-2.263.014l1.072-.006.023-.619-.988-.06-.107.685zm10.061-.08l-.013.023-2.036.011.021-.158 2.028.124zm.139.022l-.004-.014.204.012-.2.002zm-10.38-6.808l-.371-.209.217.209h-.555l-1.118-1.13.506.062 2.007 1.068h-.686zm5.867-7.015l.268-.185.783.083-.138.096-.913.006zm-1.805-.405l-.27.42-.909.007-.74-.63.98.104.135.115.061-.094.743.078zm3.128-4.875l-.145.226-.797.004.178-.277.764.047zm-3.361-.602l.377-.135.956.089-.127.045h-1.206v.001zm-2.414.86l1.461-.521 1.029.063-1.266.451-1.224.007zm-1.103-.676l-.906.688-.826.005 1.064-.733.668.04zm-1.692-.184l1.275-.536 1.214.113-.557.422h-.7l.685-.473-1.075.473h-.842v.001zm-1.341-4.907l-.121.164-.72-.094.159-.244.682.174zm1.571-2.139l-.771 1.047h-.885l.754-1.157.902.11zm.482-.657l-.319.437h-.99l.339-.521.97.084zm7.886 1.672l-.007.033h-.769l.027-.124.749.091zm-2.835.033l.285-.342.739.09-.211.252h-.813zm-.477-1.269l.031-.036.412.036h-.443zm-.506 0l.071-.038-.013.038h-.058zm-1.95.536l-.749-.091-.189.824h1.505l.28-.15-.052.15h2.082l.071-.375-1.146-.139-.093.107.039-.114-.975-.118-.908.486.135-.58zm.176-.773l-.055.237h-.769l.069-.303.755.066zm.531-5.481l2.9-.327 1.57.166-1.211.136-3.259.025zm-2.843-6.559l-1.049-.964.854.006.954.878-.759.08zm6.064-.641l.626-.264 1.078.008-.239.101-1.465.155zm-3.26 1.099l-.212.365.784-.331.962.057-.421.178-2.871.234-.707-.65.904.054.538.495.261-.448.762.046zm.807-1.387l-.339.583-.841.089.394-.678.786.006zm2.548-13.828l.13.332-.757.047-.151-.383.778.004zm1.751-6.333l-.133.224-.793.004.163-.275.763.047zM46.452.513L48.718.38l1.021.107-3.287.026zm-8.88.068L37.477 0h.766l.095.574-.766.007zM36.839 0l.443.583-.802.005L36.033 0h.806zM0 38.106l.304-.185L0 37.495V27.201l.055.059 1.358-.315-1.114-3.147 5.12 3.505L0 21.301v-.625l5.438 3.281 3.113-4.474-2.613 1.735L0 19.657v-.388l5.703 1.499 5.119-3.399-3.391 4.873 11.075-7.037-.625.003-.593.588-.032-.584-.392.002-3.754 2.593-1.004-2.848-5.09 4.451-.152-6.502-1.616.04-1.865 2.019-.114.361-.06-.172-.056.06L0 15.221v-.332l2.634-.005.35-.378-.516-1.49L0 13.075v-.333l2.354-.058L.461 7.207 0 10.017v-6.38l.189.548.296-1.803L0 2.075v-.586l.572.361.033-.204.798-.07L3.278.1 3.186 0h1.041l-.078.101 1.385 1.11 2.345-.207L7.708.61 7.621.607l.023-.144-.2-.463h4.641l.854.441 2.36.075L15.042 0h.782l.271.541 1.251.04L16.904 0h.805l.462.606 1.301.042L18.38 0h.948l1.146.679.726.022L21.136 0h.766l.095 1.06-.929-.029 3.101 1.838.384-.928L23.474.404l.636-.117 2.757 2.173L28.238.539 27.523 0h1.898l-.41.574.044.585-.3-.226-1.692 2.372-1.688-1.33 2.612 3.721-2.782-1.649 1.819 7.814.142-.004 2.249-4.394 9.322-.286.748-.871.552.067.122.76 4.23-.13.08-.092.739.089-.274.319-4.721.145.009.053h-.767l-.006-.03-.167.005-.021.024H35l.373.096-5.335.164-2.075 4.054 6.967-.222 2.895-3.37.669.171-2.725 3.171.729-.023 2.65-2.582-1.333 5.43-.771.005.829-3.377-.863.841-1.536.049-2.155 2.508-.491.002.411.09-.512.596-14.105.082-6.512 8.511 1.839-1.818 6.567.752.095-.015-3.094-3.18 5.314 2.637-.549-3.062 6.422 4.247.319-.154-5.04-7.554 8.65 5.808 2.056-.995.281.002-1.556 1.542 1.115.785 3.131-1.751-.182-.562.714.004.197.15.264-.147 1.736.01-1.04.143-.548.306.562.424-.089.005h.097l.906.685-.739.069v.039l-.98-.74.467 1.442.514-.074v.35l-.405.058.405 1.25v1.757l-.771.197-3.719-2.617-1.794.257-1.013.567 2.607 2.665.975-.119-.824.213h1.922l-1.769.217 3.291 3.362 1.096.066v.335l-1.799-.108 1.799 1.653v.5l-.248.05-1.646-1.513-.932 2.027-.859.171 1.344-2.921-9.759-.588-.219.085.575 1.385-1.579-.993-2.021.79 2.522 3.297-6.38-3.755L14.509 36l2.771-6.585-1.245-.787-1.118 1.684-.884-.281-9.689 1.551.084.984-1.064-.776-.746 3.339-2.414-3.68.779 6.433-.609.049L0 38.48v-.374zm39.54 38.39l-10.06-.136-1.92 2.458h-.523l-.268-2.494-2.043-.028-1.892 2.348-1.426-2.485-.599.862-1.176-.642-.389 1.85-.685.005-.753-2.505-1.472 2.66-2.344-4.771-2.736-.105-2.63 3.563L0 76.716v-.334l8.087.335 2.389-3.236-3.37-.129-6.682.98-.424.604v-1.14l.719-1.024 6.294.242 1.229-.181-5.749-6.105L0 66.943v-.339l2.197-.19-.182-.194.331.181 8.784-.76.807-3.569 4.727 5.062-1.658-5.451-2.36 1.147 2.015-2-6.372-.55L0 65.459v-.965l6.646-8.266-.912.062L0 60.368v-.441l4.217-3.155-2.454.84 1.715-1.44.236-.203L0 56.616v-.358l2.349-.409L0 55.642v-.339l3.643.321.692-.121.217-.182L0 51.979v-.652l4.967 3.647 1.583-1.329-3.537-2.261L0 51.005v-.346l2.339.294L0 49.188v-.037l4.784 2.04 7.673-3.407-2.172-2.378-1.367.941-7.316-.856L0 46.463v-.571l.813-.493L0 45.304v-.344l1.289.151 1.225-.744-1.595.022 3.649-4.677-.668.045-1.646 1.384-1.35-.24L0 42.255v-1.192l.192-.289-.136-.024-.056.069v-.438l.407.073.557-.833 2.435-.166 3.963-3.332.024-.133.083.003.027-.034.05.007.284-.238.197.286.121.004-.008.036.08.012-.085.107 2.322 3.373.524-.318-.487-6.827 6.28 7.912.911-.628-.32 1.373 1.229 1.548.036.003-.16-4.391 15.875-.887 1.435-3.12.777.006-1.569 3.413-15.742.88.152 4.154 2.345.17.778-.86-.143.906.858.062 14.74-.524 1.246.249-.523.059-12.376.44 13.215.957v.336l-16.333-1.183-.895.032-.677 4.279 2.08-1.364 15.122 1.273.702-.741v.14l.642.056-.507.535h-.661l.593.072-.3.316-15.234-1.282-3.397 2.228.746-4.72-4.026 4.01.666-2.417-3.124 2.486.248-1.064-.588.494.63 3.164.628-.055 3.054-1.431-1.54 1.301 5.527-.479 11.449 5.514-2.573 2.127 1.457.14.238-.104 2.371-1.587-.454.746 5.058-2.12.745.045-6.194 2.719-.271.445 1.761.169 1.084-.502 1.976-1.361v1.082l-1.411.503-1.387.644-.331-.032-.125.045.072-.05-1.834-.176-3.554 5.846 1.962-.131 2.307-1.793 3.501.266-.149-1.106.949.189v.146l-.154-.125.128.954.026.002v1.363l-6.121.408-1.21.94 4.27 2.337h-.978l-3.695-2.023-.353.274 4.028 4.022-8.526.993.545 5.082 1.437.02 1.507-1.928 8.561.442-5.964.033-2.072-.112-1.231 1.575 9.803.133v.333z"/></g></svg>