<svg xmlns="http://www.w3.org/2000/svg" width="265.948" height="336.412"><path fill="none" d="M48.744 110.555c.05.725.067 1.834.064 3.238.004-1.406-.014-2.515-.064-3.238zM138.67 251.169l.246-.024-.291-.041zM127.333 291.499l-.164-.071-4.228-1.838 1.908 1.776 2.484 1.079zM129.394 56.329l-.138-1.454-.17-.026v1.431zM126.371 295.041l-1.069-.994-.731-.682-4.277-3.979-.046-.021-.106-.047.114.109 6.069 5.647.731.682.277.257v-.076zM135.149 49.828l7.431-16.335c-.585.069-1.16.129-1.731.188l-6.637 14.591-5.125-.277V49.5l6.062.328zM127.333 37.309l-2.603-1.131-.392.776 2.995 1.301zM142.848 257.004l-1.672.021h-.021l.222.322 1.499-.343.395-.005-.272-.395zM141.67 254.895l-.484-.087.334.485zM124.821 37.164l-3.886 7.69-.798 1.578-1.061 2.101-.515 1.019 1.21-.067.285-.473 1.34-2.22 3.607-5.975 1.481-2.93zM144.533 311.945l-.598-.558-3.892-.616.341 1.174z"/><path fill="none" d="M48.683 112.1c.191 2.77-.094 11.178-.148 20.125l.055-.273c.03-9.873.447-18.666.154-21.396.05.723.067 1.832.064 3.238.003-1.404-.015-2.514-.064-3.238a8.064 8.064 0 00-.038-.379l-.317 1.044c.139-.032.232.293.294.879zM132.497 285.711l.528.863.011.018h.383l-.263-.252zM151.27 62.34l.144.639.217-.001zM139.962 310.759l-1.959-.312 1.846.294zM146.841 116.197l.179-.221h-.351zM0 137.735l.057.029a548.49 548.49 0 001.547-19.578C.917 129.01 0 137.735 0 137.735zM145.258 256.973l.014-.036-1.848-.333-.15.395zM47.433 144.538c0-.694.013-1.364.033-2.021a70.653 70.653 0 00-.09 3.154c.083-.614.057-1.133.057-1.133zM217.852 132.492s.155-7.867-.167-15.026c.238 6.693.105 13.466.105 13.466-.053.719-.022 1.564.035 2.334.001-.267.009-.528.027-.774zM218.687 142.925c.063 2.264-.018 3.634-.018 3.634.032.015.071.025.104.041a63.13 63.13 0 00-.086-3.675zM265.947 138.013c-.766-12.316-2.454-38.039-2.825-43.693.005.134.016.264.021.397 0 0 1.893 28.779 2.804 43.296zM123.441 72.639l.709-4.906-1.609-.6-.207-.076-.063.437-.352 2.436-1.028 7.124-.306 2.114-.588 4.079.767-.286.948-1.596.62-1.044.158-1.098zM144.247 123.303l.254-.037-.079-.179zM128.317 201.357h.185l.096-.25.312-.811-.44.787zM131.518 230.982l1.643-1.171-4.075-.645v1.432zM128.927 235.788l.961-.009h-.001.001l1.704-1.997h-1.803l-.165.123 1.698.176zM134.287 234.389l-1.16 1.358 1.915-.018.905-1.169.593.061 1.876.194.14-.085 1.563-.948h-3.571l.494-.636-1.558-.162-.68.798h-.971l1.14-.85-.187-.02-.593-.061-1.214 1.569.195-.147zM129.155 199.656l.191-.499-.26-.038v.716zM126.031 111.633l-.377.163h.001zM129.086 100.318v2.134l8.136-8.224-2.503.395zM127.333 102.091v-3.984l-1.007.247.759 3.987.248 1.299v.586l1.291-1.306-.341-1.79z"/><path fill="none" d="M210.37 196.677c1.743-10.799 3.085-50.133 3.085-50.133.386-4.828.201-10.227.201-10.227-1.126-19.146 2.321-30.613 2.505-31.209.063.123.123.264.182.418.451-3.811 2.178-17.318 6.233-37.93 0 0 3.937-23.248 7.857-36.847 0 0 10.929 7.255 19.975 21.426 6.238 9.781 11.338 22.937 12.527 38.851-.966-16.59-6.181-30.268-12.612-40.351-9.039-14.16-19.961-21.41-19.961-21.41-11.137-6.51-17.061-7.08-28.352-9.98-8.791-2.258-20.019-8.272-24.562-10.827-.454-1.063-2.373-1.865-3.297-2.735-1.557-1.467-1.426-2.082-3.867-2.718-4.528-1.18-12.605-2.255-17.936-2.22-2.642.017-3.538-.417-6.185-.405-2.203.009-4.411.025-6.611.023-2.364-.002-3.588-.359-6.063-.401H132.33c-4.062.042-7.631.409-12.149.385-6.569-.035-18.069 1.026-24.201 2.544-2.664.66-2.349.991-3.987 2.603-1.003.986-3.233 1.959-3.553 3.109-12.867 7.9-39.001 15.271-39.001 15.271-11.568 3.332-13.883 5.646-13.883 5.646l.006.022c-6.675 4.612-12.716 11.563-12.716 11.563C5.523 57.546 2.75 93.532 2.369 100.533c.665-9.66 4.087-42.452 20.396-57.897 0 0 6.045-6.956 12.726-11.571l-.006-.022s2.315-2.315 13.893-5.65c0 0 1.959-.553 5.055-1.513l3.471 4.73-1.369-5.389c4.904-1.559 11.675-3.849 18.195-6.497l7.602 6.677-9.253 14.316H57.03l-2.586-12.46-2.432 12.46h-9.543l-1.8 9.655.142.419a78.598 78.598 0 011.017 3.661l2.299-12.331h7.611L49.65 49.817l-.096-7.053-6.834 12.568c.195.934.374 1.86.54 2.776l.569-1.046 4.017-.168.379 27.486 12.658-18.817 2.498 12.041 9.331-10.961.974-.009.08 2.469 1.473-2.485 1.554-.014-27.535 29.745 8.431-20.599-10.961 12.375c.11.729.222 1.458.336 2.186l4.979-5.622-4.22 10.312c.27 1.618.533 3.155.775 4.548l22.67-24.492-13.305 29.568-1.942.535-1.855.511-3.015.829 3.607 5.254-.965 2.141-2.451-2.659c.143.947.269 1.921.38 2.908l5.512 5.981-4.929 1.457c.025.505.048 1.004.068 1.494l5.956-1.762 4.466 4.847-10.373-1.752c.016.497.029.979.041 1.449l11.904 2.01.2.217-12.051 3.28c-.004.675-.011 1.187-.016 1.501l13.171-3.585 2.2 1.186 2.777-7.118 3.095 3.324-6.888 27.835 14.495-19.665 15.861 15.87-6.274-13.935 5.028-3.337 3.925 4.197-1.429-5.853.544-.36 24.261 2.488-2.653 9.812 2.136-.724 1.629-6.032 2.881 4.502.073-.025V138.299l-2.719-4.248 2.719.278v-1.418l-.972-.1-1.921-3.338-.163-.282-2.927-5.084-.773-1.343-2.396-4.164 4.393-.915h8.003l.713.854.402.481-.177-.932-.077-.403h12.309l8.289-1.708h-.005l-.236.048-.012-.048h-.993l-.095.275-5.174 1.066-1.045-1.342h-3.21l-.15-.34-1.504-4.602 18.127 5.203-10.047 14.217-3.19-7.188-1.215.18-.08.012-1.06.157 7.203 22.033.44.006 1.143.016-5.232-16.007 1.694 3.816 11.871-16.803 2.094.602-8.688 28.413-1.643-.021-.078.056-.516.371-.002.001-.885.159.354 1.084.198.002-.16.115 1.64 5.017 30.229 14.619 13.289-6.053 7.788 18.741-2.145-21.31 3.069-1.398 2.619 6.713 4.947-7.483c-.265 6.317-.654 14.735-1.128 22.45l.029-.889-3.356 6.743-4.495.597-8.539 8.772-35.221-23.655-17.185-.16-12.396-1.718v1.465l12.703 1.762 16.417.153 35.884 24.1 9.045-9.295 3.15-.418-3.477 8.784-1.307.138-8.293 7.641-4.041-.105 2.439-7.113-11.965 4.961-19.17-19.48-6.181-.021.832-8.297-2.503 5.669 1.824.328-1.98.025-1 2.265-25.098-.083-5.238-1.776-3.165.041 2.7.916 2.788-.169 2.911.988.187.063-1.299.249-1.059.064 1.014.344.046.016 2.278.772 23.272.076-8.215 18.609-5.123-.758-.034.256-.101.744h4.545l.177-.161-.033.161h1.113l.077-.15.001-.002.915.137 8.314-18.83h.198l-2.39 23.84 1.12.23-.019.139h-1.138l-.095.951 1.146.236-.069.521h.353l.171-1.708h.322l-.315-.064 2.421-24.139 5.705.02 5.545 5.635-12.804 20.257h.513l.019-.138.355.073.314.065h-1.202l-1.241 1.964.197-1.964h-1.505l-.445 4.443-14.432 17.254-.596-.094.595.094 1.02.162-1.383 1.784h1.326l.386-.288-.246.288h1.612l.058-.075-1.021-.162-.595-.094.596.094 1.5.237H142.938l.936-.567-1.888-.299 7.562-15.166 13.848-21.908-2.758 22.416 8.163-12.904 18.285.477-1.716 5.005-1.177.585.576 1.168-.142.414.417.143.307.623.406-.376.286.101.182-.531 7.551-6.959 6.895.18 3.146-7.949 2.949.416-3.234 22.969-4.414-7.332 6.768 31.052-5.242-12.157.617-1.58-.849 1.043-6.548-15.188 2.045 20.726-3.235 3.979-6.301-6.743 4.207 9.03-7.45 1.979-15.777-17.688 9.336 19.398-9.091 2.414.276 1.047-5.466-1.166 3.905-22.305-5.87 10.676 1.033.107-1.098.011-3.168 5.763-3.313-5.701-1.211.012.361-.956.32.033-.331-.569.096-.237 6.589-.063-6.299-.651-2.13-.22-.361.955-1.865.018-.116.002.068-.182.374-.989.944.097-1.591-.164-5.554-.575h-.077l-2.141 1.298.011.001 1.334.138-.737.447 3.046-.028.252-.153 1.332.138 2.856-.027.086.331 1.347.14 1.591.165-.944-.097-.373.988-.068.182.115-.001-.115.002v-.001l-2.532.024-9.9 10.771 2.063-9.344-6.128 10.27-1.033-.145-1.568-.217 1.568.219 1.033.143.527.073.382 1.331.17.593.136.476v.001l-.661.066.212.739.313 1.093-1.653.167-.201.021-1.57.159 2.059-2.094-.388.039-.313-1.094-.072-.252-.257-.035-1.28 1.303-.297.303.367-.037.2-.021.567.118-.681 1.141-.646-.116-.742-.134-.024.025-.682.694.171-.8.003-.016-.263-.047-1.591-.286 1.464.264-1.945 1.979-.418 1.951-.187.867-.605-.83.12 1.511.038.479.103.125-.08.161v.005h-.003l-.151.303-1.331.305-.299-.584-1.672.021.415.811-2.069-.703.069-.087-3.48.044 3.636 1.234 1.529.518 1.937.657-.091-1.145 2.359.8v.619l-.383-.528.073.918.926.314.68-1.141 4.09 4.996-1.288 5.835-4.098-8.018v-.642l.615-1.031-.926-.314.246 3.115.064.008v2.159l3.589 7.021-.892 4.043-.943.307v1.656l1.316.195 3.346.494.674.1h7.11l-.325-.445 2.731.403.012.042h.28l-7.59-1.121 2.996-5.357 9.146 11.172-3.705-.764.41 1.431.013.003h3.83l.779.951.426.088 1.907.393-1.172-1.432h.763l-.918-.189-10.692-13.061 1.085-1.94 5.299.44 7.338 15.381-.204 1.158.379-.789 3.115 6.531-4.767-5.822h-1.939l4.999 6.105-2.849 20.25-.801-.082-.857.872 1.549-.015-.618 4.391-19.853.18-1.537 3.164-2.971.115 1.292.48v.521l-2.03-.047-1.498-.035-8.295-.19-.161-.004-12.387-.285 3.061-6.657 5.147.475-.523.005 4.967 1.851 1.404.523 6.787 2.529.246.092 1.529.035v-.521l-2.03-.756-1.498-.559-6.787-2.529-1.404-.523-4.762-1.773-4.379-.385-3.744 8.15-3.573-.082-1.356-21.488 21.196-4.197-10.013-17.002.876-1.158 7.244 6.742.107.1h.083l-1.944-1.809v-2.074l.234.463.283-.092-5.004-4.657 3.007-3.975 3.234-.367h.001l2.138-.243 1.552-.176 1.015-.115 2.097-.237 3.429-.389v-1.42l-2.418.274-2.357.267-1.513.171-1.552.177-4.45.505 4.354-5.756.988.128 1.487.191 2.792.359.912.117-.109-1.38-.005-.06-.129-.017-3.218-.416-1.488-.191-1.379-.178-.853-.109-1.293 1.709-4.442 5.871-4.878.554 8.834-24.711.486.079 4.074.666-.18.211.312-.189.822.135.251-.199 3.197-2.523 1.635-.991.119-.555V242.544l-.896 1.051-2.261 2.649-2.694 2.125-1.087-.177-.018.014-.822-.135-.312.189.18-.211-4.075-.666v-.464l1.879.387.548-1.534 4.354-3.251 1.557-1.161 3.646-2.721v-1.709l-5.549 3.955-1.611 1.148-1.423 1.014.45-1.256.417-1.168-.311-.077-.917 1.043-4.408 5.017-.592.442-3.622-.591 6.401-8.989-28.464-23.309-13.741 2.024 3.826-5.496-7.59 6.05-1.563.23-1.563-13.374 1.461-2.088-.616 4.496 7.767-10.511-1.658 10.22 10.011-16.951-1.853 19.949 8.444-9.415 36.654 5.245 1.036-2.702-.239-.049-.404.724-.336.604-37.595-5.379-5.172 5.765 1.681-18.088 2.225-.135 38.854 4.784v-1.423l-31.1-3.829 25.018-1.515 5.752-.349.33-.063v-.449l.191.001-2.274-.772-.046-.016-3.474.21-3.041.184-30.131 1.823-2.136-.263.354-3.829-1.935 3.635-5.829-.718-.379-17.562 39.139-3.718 2.879-10.651.449-1.66.572-2.117 8.52.11-1.088-1.7.17.002-6.522-.084-.935.317.246-.083.065-.241-1.934-.025-.268.992-.304.103-.157.583 1.403.018-1.128-.014-.173.642-.449 1.661-2.943 10.884-39.469 3.75.399 18.56-.091-.011-3.057-6.545.796-5.804-2.265 2.654-15.613-33.444 1.21 28.857-1.304 1.344-3.585-8.854c.07 1.977.14 3.775.207 5.412l1.979 4.888-1.678 1.73c.16 3.157.283 5.076.341 5.906l2.333-5.177 3.61 5.44-.826-30.336 12.024 25.756-5.241 6.137-3.579-8 .164 7.39-4.986.249-3.322 3.101c.04.732.086 1.444.137 2.138l3.981-3.717 4.307.529.224 1.911-6.129 7.175-2.242-4.176c.162 1.803.349 3.425.533 4.804l.453.843-.288.337c.128.886.249 1.635.349 2.224l.806-.943 5.397 10.054-5.289 3.994c.028.653.055 1.302.08 1.947l5.977-4.513.391.727-6.194 8.843c.029.993.054 1.975.077 2.945l.705-1.007.851 1.221-1.546.229.03 1.428 2.419-.357 2.544 3.657-4.872 3.885.009 2.06 5.789-4.615 1.563 2.246-4.033 5.793-3.318-2.658c0 .699 0 1.39-.002 2.069l2.393 1.919-1.55 2.227-.879.493c-.007.601-.015 1.195-.024 1.776l4.748-2.658 1.239.992-6.278 12.715.042-1.269a419.678 419.678 0 01-.184 4.482l.018-.019 11.375-11.926 6.224 4.984-4.906 8.906-3.635-6.133 1.696 9.475-10.923-1.703-.034-.005c-.081 1.396-.135 2.154-.135 2.154-3.332 35.139-9.456 64.154-9.842 65.219l-.386 1.064c.126.105.266.209.411.313.312-1.248 1.285-5.832 2.55-12.801l7.977.523-5.94 13.68-2.349-.165c1.083.486 2.362.952 3.812 1.397l6.418-14.785 6.804.443 5.22 18.071c.409.06.818.118 1.23.176l3.035-9.321 1.759 9.958 1.861.229.92-7.438 2.923 2.715 1.487-3.645 3.141 9.303.932.094 4.177-8.813 5.078.118.605 9.59c.589.049 1.165.096 1.734.141l4.402-9.577 16.5.38 6.755.155v-.843l2.687-.104-.933 1.919v3.429l2.632-5.416 21.391-.834.349-2.482 6.975-.064 2.923 13.715c-10.596.875-21.891 1.465-32.803 1.434 15.111.138 31.084-.979 44.981-2.4l-.037-.177c-3.71.391-7.58.761-11.552 1.095l4.583-14.194 2.794-7.063 4.175 20.163.224-.023 4.249-13.138 4.731-.58.058 12.693a584.31 584.31 0 01-9.038 1.024l-.061.188a592.62 592.62 0 0010.596-1.183l-.001-.211-.057-12.696 6.042-.742-5.693 13.401-.095.225c16.338-1.975 27.773-4.019 27.773-4.019 4.442-1.357 5.6-3.855 5.6-3.855-15.807-86.778-9.453-128.241-9.453-128.241zM44.613 55.622l3.136-5.77.077 5.637-3.213.133zm167.225 89.66l-6.909-11.101 7.042 7.947a83.34 83.34 0 01-.133 3.154zm-14.921-9.858l-.632-.098-.423-8.828 3.087.911.582.937.051.182.053-.014 5.047 8.109-7.706-1.19-.078-.198.019.189zm-1.131-10.515l-.587-12.279 3.632 13.176-3.045-.897zm5.851 3.293l6.323 1.864.469 5.801-6.792-7.665zm10.111-1.182c-.011.843-.013 1.707-.006 2.594l-2.372-.699-.064-.805.258-.396 2.184-.694zm-.894-1.295l.959-1.477c-.014.388-.025.783-.035 1.183l-.924.294zm1.149 14.177l-.048-.055.049-.219-.001.274zm-.167-6.344l-1.105 4.908-.648-.731-.583-7.215 2.264.668.568.167-.496 2.203zm9.975-73.198l-10.808 3.008.724 8.338-4.574-9.728 6.239-15.435 10.337-1.648.81 1.492a567.786 567.786 0 00-2.728 13.973zm3.206-16.236l-.479-.882-12.216 1.949-6.037 14.938-3.958-8.417.334-3.804 23.849-10.444a340.325 340.325 0 00-1.493 6.66zm-61.493 39.81l-11.893-20.956-.218.002 5.46 24.195-3.216-.031-8.637-17.152.174-6.952-1.499.014-.103 4.103-2.055-4.082-.783.008-.472.005-.417.004 3.647 7.242-.213 8.569-2.273-5.766-2.131-10.037-.14.001-.603.005-.297.003.033-.671.008-.155-.037.079-.359.751-.106.001.458-.771.546-.92.519-.874 2.366.245 4.256.44.675.07 9.583-.092.811-.007 2.955-.028 1.224 1.636.516.053.176.018-.161.001-.472.004 5.562 7.435-2.448-8.615.049.006 1.465-9.925.312.021 13.982 18.654-17.505 4.525 1.261 8.944zm-38.392 2.936l3.148.03 13.832-3.104 1.261 2.077-1.148 1.161-12.779-.123-1.377.32-.031-.277.24-.054-3.146-.03zm18.103-3.327l.258-.058.639 1.62-.467.473-.43-2.035zm-5.529-18.827l-1.308-3.318.602-.005.706 3.323zm26.265-13.026l-1.051 7.13-1.995-5.546.853-1.73 2.193.146zm-.746-3.078l.063-.128.363.483-.376.086-.05-.441zm.05 15.625l-4.476-6.654 1.204-2.439 3.272 9.093zm-2.19-14.678l-1.383.32-4.276-11.882 5.987 7.986.271 2.359-.599 1.217zm-1.787 3.624l-1.463 2.966-2.499-3.714 3.408-.79.554 1.538zm-1.265 5.95l1.514 2.023-2.714-.281 1.2-1.742zm5.999-12.159l.905-1.835-.375 2.545-.53-.71zm3.724 4.969l3.932.263 7.914 15.541-11.846-15.804zm5.673.379l3.729.249 5.378 17.178-.206.053-8.901-17.48zm-2.659-25.173l14.5 24.457-6.992-.468-7.508-23.989zm7.992 25.529l7.441.497.139.236-.047.021c.646 1.487 1.698 2.763 2.618 4.315l2.206 9.784-7.13 1.843-5.227-16.696zm9.611-4.141l1.491 3.333-.084.037-.658-.043-.749-3.327zm1.949 8.646l-.794-3.525.516-.226.533.034 2.334 5.222 1.331 5.106-3.92-6.611zm6.585-8.397l4.956-8.898-.615 6.996-4.341 1.902zm4.19-.195l-.037.425-.158-.339.195-.086zm-6.461 1.189l-2.244.982-1.771-6.793 9.306-3.687-5.291 9.498zm-1.209 2.171l-.107.192-.289-.019.396-.173zm-.283 1.689l1.021.067 1.533-2.75 5.028-2.201.229 1.469-1.675 19.036-4.95-11.073-1.186-4.548zm8.772 2.749l1.638 10.496-2.534 6.268-.484-1.081 1.38-15.683zm2.088 13.382l2.408 15.442-4.543-10.162 2.135-5.28zm-.292-11.59l1.805 3.842-.87 2.154-.935-5.996zm24.21-25.261l-.31.058c-.222.864-.443 1.75-.663 2.652l-24.138 10.569.644-7.316 6.741-2.67 17.416-3.234c.103-.401.207-.797.31-1.188v1.129zm-2.399-1.728l2.399-.042v-2.54l-.042-.024-1.427.435-.426-1.466c.601.325 1.22.669 1.853 1.031l.042-.013v.037c.254.145.497.278.756.43-.252.878-.505 1.799-.756 2.75v-.4l-10.457 1.942 7.973-2.43.085.29zm-7.271-7.228a61.27 61.27 0 015.935 2.629l.833 2.867-8.121 2.473 1.353-7.969zm-17.946-4.911a403.357 403.357 0 004.368 1.082c3.902.941 7.219 1.709 10.558 2.776l-.101 5.125-.352 5.794-4.998.928-6.179 2.448.369-4.185-2.888 5.184-12.247 4.853 1.777 6.816-4.83-9.235 1.779 11.118-.476-.032-16.236-27.38 2.549-8.682 15.837 1.572-4.107 9.435 8.042-9.994c2.436.959 4.867 1.795 7.135 2.377zm-30.077 2.03l2.084-7.041 1.353.135c.306-1.392.417-2.887.327-4.477a19.43 19.43 0 00-.315-2.657s.255.151.719.418l.001.001c.352.203.829.475 1.408.8 2.893 1.624 8.382 4.586 14.238 7.121l-.175.401-16.203-1.608c-.578 2.635-1.805 4.92-3.437 6.907l-.623 2.105-.641-.696c.445-.45.864-.923 1.264-1.409zm-2.208 2.305l.798 2.551-1.066 3.628-.254-5.709-.111-2.491.633 2.021zm1.604 5.125l7.051 22.519-4.04-.271-5.438-10.676.615-4.164-.897 1.82 2.709-9.228zm1.268 22.132l-4.327-.289-.333-.444.215-4.745.371-2.52 4.074 7.998zm-4.843-25.643l.593 13.289-.176.358-2.454-4.819.69 8.394-1.68 3.404-.168-.225-1.985-17.259c1.796-.895 3.555-1.938 5.18-3.142zm-6.609 3.825l1.633 14.201-8.683-11.584c2.178-.65 4.614-1.507 7.05-2.617zm-7.878 2.857l.242.671-1.537-.317c.417-.109.849-.227 1.295-.354zm-46.047-1.74l.06.028-.073.096.013-.124zm1.754 1.709l-.013.124.072-.096a58.04 58.04 0 002.266.952s.847.349 2.486.82l-8.167.426-5.592 18.572-.352.019-4.229-30.896c2.479 3.415 6.633 7.004 13.529 10.079zM90.485 8.752s-.583 2.14-.032 5.29l-3.213-3.237a43.152 43.152 0 003.245-2.053zm-14.066 7.274c.71-.298 1.415-.6 2.112-.905l2.035 4.548-4.147-3.643zm3.782-1.65a90.351 90.351 0 005.522-2.725l4.679 4.716-6.043 24.806-2.005-17.752 3.122 2.743-5.275-11.788zM54.502 34.805l.603 2.912h-1.172l.569-2.912zm-4.457 43.713l-.3-21.703 3.913-17.694h1.739l4.985 24.03-10.337 15.367zm21.609-13.269l-7.166 8.417-2.135-10.289 3.231-4.805.561 8.707 6.961-18.521.534 16.471-1.986.02zm3.158-22.545l-1.66-.129-5.7 17.623.17-7.809-5.769 8.576-4.532-21.844h16.955l6.762-10.462 2.098 18.571 1.667.059 6.752-27.721 4.519 33.007-15.068.816-5.543 9.351-.651-20.038zm1.265 22.502l6.21-10.476 13.978-.758 1.109 8.102 2.499-8.298 17.02-.922-4.434 8.774 2.04-.02 4.272-8.454.209-.414 1.214-.066 2.235-.121.137-.947.337-2.335.015-.105.053-.367-1.16 1.921-.286.473-1.705.093-.108.006.071-.142.134-.266-1.477.08-.609.033-.205.407-.605.033-.003.007-.002-.007-16.712.906 5.16-17.138 11.529-.602.11-.006 1.625-.084-.928-.404 2.326 1.011.28.122 2.27.986.392-.776-4.415-1.919-.28-.122-2.326-1.011h32.545l.177-.673.453.093.762.157-.041.145-.08.278h1.96l6.41 17.817c-4.261.987-8.523 1.974-12.791 2.96l.506-20.168c-.854.159-1.351.228-1.351.228l-.155.02-.508 20.27-6.452 1.493-1.467-1.5-.281 1.904-1.216.281-3.326-.526.245 2.574h-.315 1.906l-.083-.866 3.017.478.136-.229.641-1.079 1.309.208.433.069.032.005-.032-.005 5.416-1.254-.053 2.102-5.207-.823-.26.437-.517.871.556.088h9.051l-2.129-.337.067-2.687 8.369-1.936 3.299 4.903-1.118 3.085-4.574-.473-.33.946-1.97.019.403-1.162-4.203-.435-1.495-.155-.59-.061H136.794l-.148.249-.336.566.654.067h-.002l-.906 1.527-.649 1.094 4.182 10.606 1.005 4.739-.113-.097-9.135-15.042-1.034.01-.711.007 7.242 11.925-12.907-11.001.295 2.593-1.716-.64-1.726-.643-.596-.222-2.174-.81-2.855-1.064-1.54.015.25-.495-1.708-.636-1.34 2.652-34.749.344zm39.508 52.474l-3.261.679-7.313-6.685 2.494-2.374 2.461 2.767-1.53-3.65 1.173-1.116 5.976 10.379zm-.237-1.337v-1.324l.327.568.529-.109-.856.865zm-11.535-3.53l6.521 5.96-11.282 2.348-13.464-20.861 5.707 1.111 10.846 9.912-.797 2.869 2.469-1.339zm1.957-4.15l.468-.788.166.187-.634.601zm1.622-2.736l.725-1.221.642 1.115-1.008.959-.359-.853zm2.702-1.377l-.047-.081.178-.044-.131.125zm-1.115-1.3l3.956-6.673 2.454 2.937-3.071 2.92-3.339.816zm-2.446.627l-1.453-3.464 6.556-5.392.084.103-5.187 8.753zm-2.108-5.027L93.938 73.847l16.656 19.93-6.169 5.073zm-.826 2.78l.571 1.363-.94-1.058.369-.305zm1.393 4.844L103 109.836l-8.598-7.86 7.514 1.039 3.076 3.459zm-12.609-6.344l-2.926-2.672.178-.05-.982-9.303 12.156 13.667-8.426-1.642zm-3.107-.604l-4.295-.836 2.599-.715 1.696 1.551zm-5.461-2.014l-4.687-7.261 7.189 6.572-2.502.689zm9.56 18.079l-.031.042-17.032-14.557 5.578-1.534 1.29.25 10.195 15.799zm-5.006 9.728l1.813 1.937-.89 6.29-2.856-5.602 1.933-2.625zm-2.821.889l-4.377-8.584 5.987 6.4-1.61 2.184zm2.629-3.566l-9.097-9.724 1.497-6.048 11.795 10.08-4.195 5.692zm-10.594-13.978l-.261-4.576 2.98 2.546-2.719 2.03zm-15.094-5.283l4.062-6.826 12.148 2.365-16.21 4.461zm12.775-2.016l.577 10.133-2.348 3.82-6.284 1.857-7.888-8.471 2.101-3.531 13.842-3.808zM65.4 117.71l-2.736.808-4.106-8.156 6.842 7.348zm-8.042-5.702l.81 1.609-.946-1.379.136-.23zm-.164-5.671l-.024.056-.036-.038.06-.018zm-3.383.931l1.019-.28 1.094 2.173-.322.717-1.791-2.61zm5.23 12.323l-3.765-4.086.954-1.604 3.72 5.421-.909.269zm1.095 1.189l.678-.201 2.511 3.659-3.189-3.458zm6.859 7.094l-3.667-8.037 3.177-.94 2.885 3.1-2.395 5.877zm3.312-7.371l-1.993-2.142 4.044-1.195-2.051 3.337zm1.258 1.351l3.345-5.441 1.481-.438-2.163 8.739-2.663-2.86zm-.705 24.282l4.41-17.824 4.871 5.232-9.281 12.592zm10.302-13.976l-5.406-5.805 2.561-10.346 6.031 11.829-3.186 4.322zm11.915 12.796L82.37 133.458l2.864-3.884 3.616 7.093-.234 1.648.803-.532 3.658 7.173zm-2.593-19.847l-1.097-1.172 1.563-2.118-.466 3.29zm.537 9.724l.82-5.801 3.034 3.243-3.854 2.558zm5.28-3.504l-4.155-4.444 1.277-9.038 4.185 3.577-3.433.714 2.228 9.125-.102.066zm26.223-3.847l.162.281-.229-.148.067-.133zm3.083 5.252l-1.964-.203-.003-.004-.001.004-25.247-2.588-.326.216-1.712-7.015 2.627-.548 2.278 1.948-1.378-2.135 11.752-2.446 6.1 5.574 1.11 1.015 6.764 6.182zm-6.784-11.68l.773 1.344-.831.81.487.846.773 1.343.002.003-.003-.002-1.11-1.015-.7-.64-1.126 1.099-1.11-1.015 1.127-1.099-3.481-3.182 2.711-.564 1.658 2.88.83-.808zm-1.022-3.371h-.002l1.921-.834-1.919.834zm20.91-1.707h-5.222l4.357-5.447 1.091.313-.226 5.134zm19.947-1.04l-19.612-5.628-.035-.107-.004.096-1.706-.488-5.734 7.168h-1.884l.077.402.177.932-.402-.48-.713-.854H121.727l-1.878.816-1.892.394-.528.11-.327-.568-.433-.752h-.624l.002-.002.497-.216-5.599-9.727 2.52-2.398 4.188-1.022-1.026-1.228-1.068.26.716-.681-.105-.125-.003.001-.492-3.657-1.812-2.168 3.219-5.431.025-.175.23-1.595.146-1.015-.657-.006-4.426 1.648 4.629.044-5.109 4.203-21.508-24.551 12.532 31.932-.794.652-15.968-17.95 1.365 12.942-13.212-11.146 7.689 13.439-.235.063-16.326-3.178-4.572 7.686L77.08 66.6l35.069-.345 1.273-2.52-1.022-.381h.001l7.368 2.746.667.249.082-.564.063-.437.206.077 1.609.6-.145 1.001.289.107 1.726.643 1.717.639 3.104 1.157v.907l10.238 8.727 1.963 3.233-13.422 3.011-.302-2.661-1.447.54.199 1.754-1.057-1.435-.075.028.042-.071-1.15-1.561-.611 1.03-.22.371 1.924 2.609-3.487.782-1.137-.011-.182.307-1.057 1.779-.167.282-.047.327-.23 1.594-.288 1.993 2.321-2.208.166-.279 1.058-1.78.182-.307.237.002-.064-.335 3.672-.825.355.481-.745.709 1.132.011-.654.622-.486-.625-.243.231 1.396 1.791.39-.041-.032-.041.996-.948.365-.347 1.204-.28 1.378-.32 12.779.123.779.007.708-.073-.374-1.616-.651-.006 2.293-4.581-2.08 2.103.034-1.36.162-.037-.144-.644.234-9.369 7.388 13.962-6.571-.063 1.269.013.324 1.402 5.397-.559 1.239-.128 2.959-.306 1.227-.127 1.551-.161-1.587-.015-3.178-15.309 11.153 19.652-2.179-15.417 16.81-4.345 2.833 3.782 2.826 4.439-1.961-9.178 8.462-2.187-1.51-6.696 6.984 11.777-1.749-6.706 2.382 5.33-1.1 12.521 3.18-7.869 8.532 19.084-4.524-29.001 1.289-3.191 7.56 16.08-1.343-15.468 8.909-2.48a253.23 253.23 0 00-.675 3.868c-4.816 24.56-6.36 39.039-6.36 39.039s-1.875 5.916-2.524 16.476c-1.604 2.56-3.085 5-3.903 6.552l-.231.518-7.295-2.151-5.594-20.283 6.113-11.231-27.87 28.609.988-2.4 7.858-14.918-14.036 11.531-4.744-1.361 4.205-13.752-8.788 12.438zm-34.672-28.077l-1.774-.017v-.001l1.774.018zm56.581 45.55l1.049-1.926.135 1.581-1.184.345zm.366 2.068l-3.928 4.477 2.549-4.68.02-.007 1.359.21zm.064-11.277l.389 4.569-2.638 4.848-3.419-.529-7.217 3.604 3.526-8.565 22.882-23.49-.874 1.607-.299.049.021.461-6.377 11.717-.764-2.004-.1 3.59-3.887 7.142-1.243-2.999zm-4.933 10.525l-1.566.458 1.07-.534.496.076zm11.631-14.412l5.812-10.678.758 15.824-3.61-1.064-.978 1.115-1.982-5.197zm.863 6.47l-1.154 1.317.113-4.049 1.041 2.732zm-2.522-3.422l-.179 6.503-1.701 1.938-1.176-2.828 3.056-5.613zm1.232 9.658l.071-2.568 1.823-2.08 2.778 7.284-6.608-1.021-.389-.934 2.325-.681zm3.014-5.923l.866-.986 3.193.941.433 9.041-1.129-.174-3.363-8.822zm4.566 10.531l.079 1.654-.664-1.745.585.091zm-34.664-21.253l3.096-4.381-1.481 4.844-1.615-.463zm2.616 2.315l5.526 1.586 8.9-7.313-4.377 8.312-17.521 21.853 7.472-24.438zm-11.764 28.298l1.634-.294-.836 2.734-.798-2.44zm30.792 19.447l-29.024-14.035-.864-2.646.846-1.055-.598.107.516-.371.077-.056-.096-.001.354.004 16.125-20.113-2.75 5.223 2.416-2.481-3.462 8.407c3.574-1.043 7.703-1.864 11.452-2.725l-4.174 9.404 9.003-8.574 2.637 16.716-.792-18.366.78.121 10.247 24.661-12.693 5.78zm4.18-30.172l6.549 1.01 4.315 11.32-.513-10.732.715.111 2.07 20.578-3.258 1.482-9.878-23.769zm10.455 25.159l2.839-1.293 1.078 10.72-3.917-9.427zm4.12-3.53l-1.097-10.9 3.777 9.682-2.68 1.218zm5.736 2.484l-1.142-2.923 1.777-.808-.635 3.731zm-1.689-4.326l-7.021-17.996 6.547 1.011 4.059 10.181-.955 5.607-2.63 1.197zm3.309 3.736l.662-3.893 1.917-.873.215.539-2.794 4.227zm.968-5.683l.372-2.188.681 1.708-1.053.48zm2.418-1.103l-5.218-13.088 5.6 8.997c-.035.949-.085 2.311-.151 3.986l-.231.105zm-70.89 78.962l-3.548-.561 9.478-11.332-5.93 11.893zm27.557-28.842l-5.05 7.984 2.67-21.705 13.672 13.895 9.825-4.075-1.511 4.41-19.606-.509zm19.258 6.149l1.407-4.107 2.964.078-4.371 4.029zm12.416-5.327l-4.3-.112 6.784-6.253.036-.002-2.52 6.367zm-84.318 69.427l.001.004-.001.001v-.005zM57.425 171.084l.716-1.589.158 3.749-.874-2.16zm54.059 103.636l-1.901 2.515-2.202-2.051 4.103-.464zm-4.848 2.205l.046-.132 1.896 1.768-.551.728-1.391-2.364zm.225 3.905l-3.076 4.068 2.067-5.783 1.009 1.715zm7.585-32.177l.313.05-8.946 25.021-2.945-2.741-1.431.634 1.557 2.645-12.265 1.391 23.717-27zm-21.48 46.355l-20.499-34.575 16.73 2.611 8.331-7.909-7.741 20.624-1.734.196 4.913 19.053zm-11.393-46.221l4.501-4.768 20.852 3.404-9.574 13.443 4.578-12.193-13.502 12.813-16.425-2.562 7.868-8.336 6.676 5.348-4.974-7.149zm27.317 3.609l-14.597 16.617 2.983-7.95 11.614-8.667zm2.919-4.174l-7.051 5.263 4.093-5.746 2.958.483zm-38.957-30.449l14.165-2.086 26.853 21.988-6.026 8.46-22.602-3.69-4.652 4.929-12.275-17.644 2.695-1.798 15.623 5.278-17.375-10.277 3.594-5.16zm-5.436 10.665l-.994-1.428 1.957-2.813 11.928 6.186-9.6-4.141-3.291 2.196zm2.333-9.28l-2.046 2.939-.979-.526 3.025-2.413zm-4.575 1.581l-2.68-1.44 5.504-.811-2.824 2.251zm15.629-36.411l-1.752.105-.008-.322 1.76.217zm-2.002 6.242l.399.856-.05-2.309.451-1.866-.477.645-.044-2.056 4.611-.278-6.735 12.652 1.845-7.644zm-5.299-11.347l1.379 2.951-1.754-.215.375-2.736zm-.567 4.136l2.651.326.435.932-3.286.199.2-1.457zm-.395 2.877l4.122-.25 1.5 3.214-7.402 10.018.152-1.112 1.043-1.488-.936.707 1.521-11.089zm-.557-10.269l.043.092-.778 5.67-3.785-.467 4.52-5.295zm-.928 7.16l-.306 2.232-2.246 2.771-1.833-5.542 4.385.539zm-5.892.824l2.594 7.835 2.542-3.136-1.411 10.282-2.168 1.637-1.898-16.218.341-.4zm.491 23.826l-.657-1.227.44-.629.217 1.856zm-8.043-14.984l5.532-6.477 1.822 15.578-1.757 1.326-5.597-10.427zm6.813 11.518l-.357.51-.092-.171.449-.339zm-4.02 13.863l-2.577-1.386 6.012-8.583 4.708 8.77-8.143 1.199zm2.767 4.162l-1.042-1.498 1.745.939-.703.559zm.925 1.33l1.325-1.057 1.401.752-1.471 2.111-1.255-1.806zm1.255 4.878l.604.868-2.255 1.504 1.651-2.372zm-3.506 5.534l-.021-.018 5.031-3.355.285.41-5.295 2.963zm2.162.553l-.418.846-.449-.361.867-.485zm-3.875 11.946l4.176-8.456 2.204 1.768-6.38 6.688zm8.82-6.806l.774-.813 1.898 2.954-2.672-2.141zm1.096-3.589l-2.415 2.532-2.594-2.077 2.468-4.994 10.954 15.747-2.502-2.005-5.911-9.203zm5.431 10.889l3.071 2.462-7.706 8.163-.632-1.067 5.267-9.558zm-6.267 11.374l.029.051-.053-.01.024-.041zm-13.151 1.828s.062-.855.15-2.42l11.017 1.617-5.009 8.452 5.868-4.849 4.124 23.042-9.992-18.193-1.759-3.203-2.007 15.087-4.665.687a600.65 600.65 0 002.273-20.22zm-6.907 50.462c.188-1.058.381-2.157.58-3.307l1.539 2.778-2.119.529zm8.269.837l-4.496-.295.872-.219-3.583-6.471c.309-1.844.625-3.775.946-5.806l8.419 7.819-2.158 4.972zm1.942.126l1.641-3.775 4.034 3.745.118.408-5.793-.378zm2.339-5.384l1.073-2.476 1.371 4.746-2.444-2.27zm1.445-7.927l-2.869 6.605-8.81-8.181a655.751 655.751 0 002.128-14.858l6.61-.973 1.389-10.453 12.808 21.623-4.707-30.783.767-.811 22.248 37.525-1.589 3.892-9.937 1.967-7.893 8.669-5.177-.339-1.312-1.218-3.656-12.665zm8.36 28.948l-3.813-13.199 6.227 5.782-2.414 7.417zm6.087-1.391l-.554-3.13.843.783-.289 2.347zm.54-4.37l-1.57-1.459-.952-5.391-1.126 3.461-4.736-4.397 4.494.294 5.576-6.125-1.686 13.617zm3.613 3.355l-1.899-1.765 1.018-8.219 2.244 6.65-1.363 3.334zm-1.457-17.49l2.074-2.278 8.111-1.605-6.294 15.413-3.891-11.53zm10.631 15.967l-3.062 6.46-2.779-8.235 7.557-18.502 3.278-.65 1.331 21.072-6.325-.145zm2.362-21.859l.604-1.482.722 1.219-1.326.263zm2.024-4.959l.206-.504.107 1.717-.313-1.213zm1.588-8.752l-2.356 5.77-4.251-16.482 13.487-1.531.852 1.445-4.007 13.719 7.194-8.307 8.554 14.527-18.663 3.694-.81-12.835zm2.693 42.668l-.348-5.502 2.846.064-2.498 5.438zm52.211-8.16l-19.336.754.777-1.598 18.701-.17-.142 1.014zm57.879-135.346c-.275 3.502-.569 6.531-.877 8.707l-.343-.047 1.22-8.66zm-5.292 8.086l3.601-9.1.327-.044-1.338 9.509-2.59-.365zm3.863 2.062l.337.048c-.22 1.706-.811 6.974-1.062 15.907l-2.023 3.569 2.748-19.524zm-.795 19.122c-.052 3.025-.063 6.4-.013 10.135l-2.952-4.904 2.965-5.231zm-4.94 4.859l.686 1.139-.172 1.219-.514-2.358zm.607 2.783l.518-.914 3.856 6.404c.099 4.599.29 9.688.608 15.273l-.42.161-4.562-20.924zm3.179 35.799l.735.911-.008-1.19 1.354.318-2.773 6.263-1.232-3.675 1.924-2.627zm-22.046-1.556l-9.302 12.618-2.252-8.509 11.083-4.552-.877-1.823 6.33.659-7.816 20.01 1.313.584 9.729-19.709 1.681 1.885-.333 2.951-15.08 20.846 5.524-24.96zm-6.593 22.853l-2.216-8.373 5.815-7.889-3.599 16.262zm-21.286-12.037l1.04-.426-.393 2.243-.647-1.817zm.122 4.814l-.381 2.18-3.042-3.602 3.008.25.415 1.172zm1.02 2.864l.16.449-.219.456-.083-.099.142-.806zm-2.943-25.768l1.128-2.049 3.624.772 1.08 1.858-2.291 13.084-3.541-13.665zm6.999 2.595l4.061 6.985-1.834 3.835-4.439 1.823 2.212-12.643zm-3.38 19.314l1.486.123-1.09 2.276-.547-1.537.151-.862zm.26-1.488l.521-2.973.109-.044-.061-.234.031-.18 3.779-1.553-2.459 5.143-1.92-.159zm6.448-5.832l2.941-1.209 4.773 8.216-10.645-.883 2.931-6.124zm.968-2.025l.677-1.415.533.919-1.21.496zm4.394-10.384l-.314-1.189 10.429 2.225.01.02-10.125-1.056zm10.891 2.647l.586 1.218-9.429 3.873-1.636-6.184 10.479 1.093zm-10.24 5.665l-2.434 1.001-1.151-1.981 2.14-4.477 1.445 5.457zm-1.672 2.313l2.06-.846 2.134 8.064-4.194-7.218zm20.562-8.59l-6.547-.682 3.104-3.817 3.617 4.055-.174.444zm.978 1.615l.345.035-1.718 3.479 1.373-3.514zm11.938 7.89l2.104 3.79.349 1.041-3.29-3.689.837-1.142zm-.324-12.111l.125-.171-.074.235-.051-.064zm.221 4.604l.434-1.406 2.274 2.816-1.534 2.093-1.174-3.503zm-1.452 4.707l.752 1.355-1.056 1.441-.417-.467.721-2.329zm-.542-4.066l.221.022-.075.24-.146-.262zm1.155 2.079l.081-.264.35 1.04-.431-.776zm-.484-3.521l-1.563-.164-.002-.002 1.748-2.385.438.541-.621 2.01zm-2.014 6.531l-2.449-2.745 1.865-2.544.106.01 1.354 2.439-.876 2.84zm.676 3.014l-.063.084.037-.115.026.031zm-1.029-11.154l-2.29-4.125.278-2.465 3.587 4.441-1.575 2.149zm-1.017 1.256l-1.859-.194.297-2.619 1.562 2.813zm-.942 1.416l-1.158 1.579-.104-.116.177-1.576 1.085.113zm-1.631-9.139l-.726-1.306.44-1.127.923 1.144-.637 1.289zm-.422 4.242l-.353 3.133-1.134-.118 1.487-3.015zm-.522 4.629l-.026.229-.229-.256.255.027zm-2.293-2.314l-.391-.437 2.193-5.613.627 1.127-2.429 4.923zm2.188 8.773l1.636-2.23 2.84 3.184-2.935 9.514 5.148-7.033 7.801 8.746-9.472-.74-9.714 21.293 4.696-32.734zm11.26 6.303l.039-.088.193.35-.232-.262zm-.041-13.51l-1.923-2.38 1.862-6.038.061 8.418zm-6.162-24.092l-2.093 2.574-.951-9.635 3.044 7.061zm-1.353 10.079l-.321-3.251 2.196-5.617 5.415 12.559-3.86 5.264-4.27-5.283.213-1.889-.66 1.335-1.025-1.271.539-1.376 1.773-.471zm-1.873-3.732l.026.271-1.044 2.673-1.277.339-.186-.23 2.481-3.053zm-2.848 4.985l.695.862-.3.768-.839-1.511.444-.119zm-1.566-1.936l-.01.015-.051-.092.061.077zm-.246 2.681l1.499 2.698-2.367 6.061-3.271-3.668 4.139-5.091zm-2.193.32l-2.958 3.639-2.057-2.307 5.015-1.332zm-3.916 4.816l-2.88 3.543-1.063-.229-2.58-5.358 3.798-1.009 2.725 3.053zm-12.027-13.48l8.18 9.17-3.339.887-4.841-10.057zm4.029 11.829l2.201 4.572-10.037-2.142-.086-.328 7.922-2.102zm-9.047 3.71l.572 2.16-2.459 5.143-4.441-7.641.171-.976 6.157 1.314zm-5.026-16.473l-2.338 13.363-.656-.139-2.196-3.781 5.19-9.443zm-6.033 10.976l1.059 1.825-1.847-.395.788-1.43zm-5.065-8.713l4.184 7.201-1.438 2.617-1.401-.3-1.204-4.645.478-1.945-.814.646-.572-2.211.767-1.363zm1.989 11.194l-.144.262-.08-.309.224.047zm-2.602-3.254l.502 1.941-1.23 1.015.728-2.956zm.918 3.545l.488 1.885-1.766 3.213-1.229-2.186.261-1.059 2.246-1.853zm-3.582 1.004l-1.773-3.152 3.167-2.509-1.394 5.661zm1.796-7.897l-2.004 1.587 1.656-2.936.348 1.349zm-1.031-3.981l.139.542-3.644 6.464-1.114-1.98 4.619-5.026zm-12.796 9.566l-.41 1.853-.643-.09 1.053-1.763zm-1.266 5.731l-.125.566-.34-.062.465-.504zm-8.312 4.093l-.084-.103.136-.002-.052.105zm2.25 2.748l4.794-1.099-1.21 5.478-3.584-4.379zm2.447 16.474l.574 1.121-.886.288.312-1.409zm3.06 3.342l-3.06-.453 2.711-.881-2.204-4.309 1.426-6.453 4.688 5.725-3.561 6.371zm5.619-10.051l-1.271 2.273-5.063-6.186 1.565-7.085-2.154.028-2.653.033-.308.004-1.687.022-.137.002-1.014.013-.505-.691.526-.534 3.238-3.294-2.126-.383h.002l2.25.404 1.538.277.646.116.961.173-.122-.424-.3-1.045 1.082.194.34.062.628.112.421 1.469.365.065-.365-.065.077.268.34 1.185.075.263v.001l-.678.009.303 1.058.077.266 1.824-.418-.188-.654-.499-1.735-.627-.113.627.112v.001l.849.152 1.133.203-1.099-1.591 2.057.369-3.844-.69.199-.903-.118-.414-.17-.592-.237-.825-.371-.537-.301-.042.301.041-.193-.279-.532-.77-.395-.57.679.094.644.089 1.039.144.659.954.461.667.293.04 4.333-.438.152-.404-4.536-.63 5.58-6.069v4.371l-.814 1.443.814-.645v1.674l.58.08h.002l-.582.059v1.326l1.498.208v-4.528l1.788 3.179-1.66 1.367.127.018.582.081h-.002l-.58-.08-.128-.018-.127.104v-.122l-.789-.11-.152.405-.557.057v.439l-1.432-.295-2.591.262-.507-.732-.135-.195-2.256-.465.044-.203-.361.037.081.117.533.77.604.875-.409.042 6.429 1.324v.653l-.721.165-1.372-.247 1.163.21-.035.093-.457 1.212.398.071 1.848.332v.001l.19.033 1.686-.021-.077.312.627.113.851.153.147-.598-.681.009.681-.01-.689.01.664-.783.207.037.971.174-.97-.174.581-2.357.9 1.604-.51.928.324.059.447.08-.343.403-.542.007-.189.003-.395.717.003.001 1.479.266.076.014.516-.939.876 1.559.271-.32 1.413.254-1.709-3.039 1.449-2.635 2.5 9.655-2.169-3.855-1.708.021 4.783 8.503-2.446 1.004 1.044 2.936-3.826-.318-4.873-5.767 3.878-7.058-.077-.014-.206-.037-.664.783-.859.01-.315.004-.574 1.045.256-1.041-1.548.021-1.173 4.77-3.521-3.155 2.589 6.946-.7 2.847-3.24-.277zm7.633-17.58l-.906 3.684-1.455-.262v-1.477l2.361-1.945zm-4.295 17.856l1.053-1.912.995 2.084-2.048-.172zm1.942-3.532l.102-.187 3.534 4.183-1.801-.149-1.835-3.847zm2.585 5.418l2.423.202 4.819 5.704-1.188 6.785-6.054-12.691zm12.395 45.094l-.333.003v.001l-1.053.01.567 2.658-6.444.061.375-2.665-1.067.01.856-.872.328.033.126-.9-.503.005.055-.665v-.001l.534.056 1.864-13.25 2.93 13.746-1.519-.156 1.231.127-.033.096-4.456.042 4.789-.045.319 1.498 1.42.147.05.006.009.057h-.045zm-1.717-1.765l.507.051h-.007l-.492.006-.008-.057zm4.664 14.928l-1.918-9.003 4.84-.045-2.922 9.048zm14.96-10.956l-2.875 8.889-3.032-16.104 1.041-2.045 1.825 16.287 8.808-26.766.086 19.02-5.853.719zm39.296 5.613s-1.158 2.5-5.604 3.858c0 0-9.82 1.755-24.263 3.585l5.214-12.278 23.621-.949c.335 1.907.675 3.83 1.032 5.784zm-3.521-20.85a793.46 793.46 0 002.229 13.571l-17.971.723 14.861-1.826.881-12.468zm-1.011-6.704l-1.247 17.826-26.166 3.213-.128-28.055-9.539 28.99-1.617-14.432-2.428 4.771-.719-3.815-4.47 13.841-5.647.053-.567-2.659-4.65-21.821 4.797 4.748-6.069-14.152 2.658-5.557 4.486 5.31-2.998-8.425 1.979-4.137 12.261 1.018 4.097 7.055-1.935 8.746 16.587-22.931-5.66 39.454 13.604-29.818 10.749.84a687.806 687.806 0 002.622 19.937zm-2.795-21.461l-.125-.01.011-.008-4.345-7.823 2.977-6.724c.41 4.604.901 9.459 1.482 14.565zm-1.66-24.322l-.592.191c.149 2.094.317 4.252.502 6.469l-.057.129-1.986-.467-.056-7.979.894 2.074.703-.227a526.586 526.586 0 01-.28-4.191l-.27-1.238.188-.072c.026.432.054.873.082 1.311l.872 4z"/><path fill="none" d="M126.317 213.334l1.016.226v-.986l-.291-.127.291.126v-.946l-2.045-.889 1.364.594-.298.691-.588-.13.945.411zM130.371 92.129l-.214.022-1.505.156-1.314-1.686h-.654l-.006.001h.239l.533.684.412.528 1.308 1.681.376-.06-.342-.44-.534-.685h-.239 8.234l.383-.061-.06.061h2.111l.452-.457.871-.138 1.82-.288 3.728-.59-.054-.235h1.544l.004-.001h-2.517l-3.149.326zM124.647 211.406l.311-.811-4.981-2.165h-2.178zM131.786 61.442l1.59-.015-.139-1.466 1.115.116.364-.613h-3.117zM134.268 311.29l.13-1.411-5.312-.841v1.432zM137.982 59.463h1.578l.21-.353-.242-.025-1.715-.177-.329.555zM131.175 282.938h-.089l.976.882.433.09 2.7.557 1.54.318 8.695 1.792-1.155-1.585.582.119-9.876-2.035-.67-.138h-1.602zM133.994 314.229l.053-.575h-5.616zM126.201 53.525l.367-2.547.216-1.495.549-3.802v-4.108l-1.85 3.063-.452 3.138-.201 1.393.115-.189-.059.402-.216 1.495-.014.105-.337 2.335-1.185 8.21 1.915-.018.815-5.647zM128.431 59.464l1.274.132-.013-.132zM120.248 289.365l.046.021-1.791-1.667-.116-.11h-.001.001l-.158-.068.816.76h-1.246l2.342 1.017zM125.783 109.275l-.968-1.157-1.819-2.178-1.038-1.241-1.481-1.772-.699-.837 2.226-.544 1.882-.459.994-.243-.269-1.413-.364.089-3.068.75-1.989.485-.439.107-.456-.546-.271.066.7.836 1.48 1.771 1.038 1.242 1.82 2.178.967 1.156 2.761 3.305-.096-.505zM118.884 98.479l4.694-4.465-.369-1.939-4.598 4.374-1.339 1.274-.637.606-.506-.606-.182.173 1.051 1.257.439-.107 1.146-.28zM128.181 282.938h-.402l.246.05 1.743.36-.239-.41zM159.499 316.868l.048.223 1.054-.01.031-.095zM125.814 95.668l.243 1.272 1.276-.313v-.485l-.234-1.225-.314-1.648-.622-.799-1.268-1.628.45 2.366zM133.09 58.419l-1.607-.167.115 1.211h1.592zM124.319 81.636l1.54-.573.141 1.239 1.309-2.205.024-.04v-3.496l-.357.601zM138.937 313.654h-2.362l-.019.84 2.708.28zM132.839 249.261l-.9.915 1.211.168-.257-.895zM138.432 206.721h.155l.022-.162zM129.487 252.099l-1.451.146.189-.018zM133.513 201.223l-2.342-.346-.208.48h2.492zM138.399 123.046h1.5l.047-1.075.016-.003.053 1.078H141.516l-.064-1.298.08-.012.428 1.31h2.443l-.722-1.627-.745.109-.443.067.208-.257H144.227l.004-.001h-8.162l-4.489.926-2.301.474-.104.021-1.396.288h4.891l5.767-.852zM138.379 313.156l-1.789-.185-.015.682h1.793zM128.318 250.933l-.148.688.433-.44 1.256-1.279.012-.011-.785-.11v-.001l.786.11 1.267-1.29.469.064-2.723-.377zM133.604 152.415l-.539-.843-.19-.296-3.789.682zM134.805 151.007l.362.565.685 1.071.434.043.38-1.114.125-.365.363.037 1.494.151-1.494-.153-3.893-.394.002.002zM130.255 203.066h-.031l-.201.464.05.01-1.22 3.181h2.284l1.175-2.719 2.673.551.176-1.311-.852-.176h-1.592l.13-.301-2.289-.472-.056.129-.151.394zM135.416 201.357l.129-.962.043-.315-3.829-.566-.182.423-.406.939 3.254.481zM143.19 313.654h-2.308l.55 1.886 1.252-.012-.12-.412 3.652.379 2.109-.02-1.557-1.451zM145.938 232.073h1.526l-2.584-.409 1.373.219zM136.556 314.495l-.025 1.092 1.793-.018.02-.889zM138.163 147.188l.574-1.678.17.002.166-3.766 2.651 3.803-1.034-.014-.573 1.678.374.005-.242.708 2.09-.376.105-.306 1.034.013.46.006 2.853-.513 1.555-1.116-5.73-.073-1.068-21.859-1.357.201-.133.019.874 17.868-1.749-2.51.676-15.328-1.509.223-.577 13.082-8.218-11.782-.469.069V127.426l8.576 12.299-.254 5.767-6.181-.08 2.373 3.71.592-.106-1.212-1.895zM136.131 153.078l.014.021.007-.021.133-.39-.432-.044zM142.106 313.542l-1.295-.134.071.245h1.256zM138.406 311.943l.012.002h.02l-.434-1.496-1.352-.214-.038 1.71h1.792zM134.045 173.652l-4.959.502 13.157 2.367 3.747-.72zM138.642 151.529l-.461 1.349.057.006.356-.255 1.513-1.087-1.42-.144zM141.453 152.536l3.576-.496-2.529-.256zM141.372 204.522l-.098.478.23-.45zM149.504 206.199l-2.64-.545-.526 1.067h3.098zM133.688 231.326l1.066-1.25-1.566 1.17zM145.026 205.275l-.67-.137-.179 1.583h.138zM145.46 177.099l7.229-.093-2.796-.504-3.008.578-1.427.019zM136.773 206.002l2.173-1.98-1.925-.397-.177 1.312.071.014z"/><path fill="#000202" d="M48.599 99.549a590.572 590.572 0 01-.775-4.548l-.01.025c-.252-1.514-.51-3.099-.762-4.701l.013-.014a310.82 310.82 0 01-.336-2.186l-.013.014c-.655-4.332-1.225-8.615-1.475-11.806 0 0-.214-8.416-1.99-18.205l.011-.02a110.86 110.86 0 00-.54-2.776l-.01.019a94.728 94.728 0 00-.889-3.87l.005-.03a78.943 78.943 0 00-1.017-3.661l-.142-.419-.004.021c-.604-1.786-3.22-9.586-5.174-16.329-6.68 4.616-12.726 11.571-12.726 11.571C6.456 58.081 3.034 90.873 2.369 100.533c-.042.774-.056 1.2-.056 1.2-.096 5.477-.375 11.21-.709 16.453a548.49 548.49 0 01-1.547 19.578c18.51 9.95 46.218 9.813 46.218 9.813.718-.239.995-1.145 1.1-1.906.007-1.102.039-2.158.09-3.154.155-5.287.865-9.252 1.069-10.292.054-8.947.339-17.355.148-20.125-.062-.586-.155-.911-.293-.88l.317-1.044c-.06-.51-.142-.714-.255-.5l1.226-4.032a638.57 638.57 0 01-1.09-6.082l.012-.013zM230.433 30.749c-3.921 13.6-7.857 36.847-7.857 36.847-4.055 20.612-5.782 34.119-6.233 37.93.787 2.091 1.166 6.993 1.342 11.939.322 7.159.167 15.026.167 15.026a11.28 11.28 0 00-.027.774c.093 1.246.258 2.295.258 2.295.396 2.914.55 5.456.604 7.364.079 1.527.093 2.78.086 3.674 10.389 4.774 47.159-8.581 47.175-8.587-.911-14.517-2.804-43.296-2.804-43.296-.005-.134-.016-.264-.021-.397l-.074-1.131c-.025-.729-.072-1.444-.113-2.162-1.188-15.914-6.289-29.07-12.527-38.851-9.047-14.17-19.976-21.425-19.976-21.425z"/><path fill="#070708" d="M64.284 227.008l-1.563-2.246-5.789 4.615v.766l3.318 2.658 4.034-5.793zM117.801 117.683l1.919-.835-1.921.835zM133.376 61.427l.175-.001.749-1.261.052-.088-1.115-.116zM57.498 217.256l-.705 1.007.009.442 1.546-.229-.85-1.22zM53.404 166.058c.108 2.625.21 4.822.301 6.618l1.678-1.73-1.979-4.888zM122.15 271.601l-2.097.237-1.014.115-1.552.176.252-1.448 1.552-.176 1.513-.171 2.357-.268 2.56-.291-.145-1.84-.912-.118-2.792-.359-1.488-.191-.988-.128-4.354 5.756 4.451-.505 1.551-.177 1.513-.171 2.358-.267 2.418-.274v-.488zM59.251 219.775l-2.419.357c.049 2.48.078 4.877.091 7.185l4.872-3.885-2.544-3.657zM62.872 184.003l-.224-1.911-4.307-.529-3.981 3.717c.044.59.09 1.165.141 1.723l2.242 4.176 6.129-7.176zM62.519 205.748l-5.977 4.513c.067 1.712.125 3.401.173 5.057l6.194-8.843-.39-.727zM140.015 123.046l.043.876.133-.019 1.357-.201-.032-.656h-1.288zM138.399 123.046l-.049 1.129 1.509-.223.04-.906zM132.533 232.68l-1.112-.116-1.632 1.218h1.803zM132.08 232.073h.971l.637-.747-.5-.08zM136.915 204.951l-.071-.014-.154 1.14.083-.075zM151.542 208.43v-.001h-.353l.069-.521-1.146-.236-.076.758zM127.333 212.574v-.001l-.291-.126zM131.137 206.721h3.556l.292-2.168-2.673-.551zM130.023 203.53l-1.378 3.191h.208l1.22-3.181zM128.927 235.788l2.395-1.707-1.698-.176-7.69 5.74-1.557 1.162-.76-.19-.417 1.168-.45 1.256 1.422-1.014 1.612-1.148 5.549-3.955v-1.121zM55.034 191.806c.056.417.111.809.165 1.18l.288-.337-.453-.843zM138.587 206.721h.414l.13-.638-.522.476zM146.213 61.304l-.675-.07-4.256-.44-2.366-.245-.519.873-.546.921-.458.771.107-.001.359-.751.037-.078-.008.154-.033.672.297-.003.602-.005.141-.002-.366-1.722.471-.004.865 1.717.418-.004.471-.005.783-.008-.865-1.717 3.066-.029-.043 1.726 1.499-.014.043-1.727z"/><path fill="#070708" d="M124.73 257.238l-.061-.771-.12-1.511.606.83.186-.867.906-4.225.316-1.472.65-3.029-1.635.991-3.197 2.523-.251.199-.822-.135-.312.189.18-.211-4.074-.666-.486-.079-8.834 24.711 4.878-.554 4.442-5.871 1.293-1.709.853.109 1.379.178 1.488.191 3.218.416.129.017-.004-.059-2.546-.328-2.792-.359-1.487-.191.243-1.396 1.487.192 3.218.415 1.765.227-.279-3.53-1.937-.657-1.529-.518-3.636-1.234 3.48-.044.971-1.222.614 1.201 1.672-.021-.879-1.721.907-.009zm-9.382 9.448v-1.102l1.293-1.709.853.109-2.146 2.702zm4.497-8.104l-3.636-1.234 3.859-.049-.223 1.283zM126.484 258.947l-.001-.005-.002.005zM111.17 315.83l5.145-.049.337-.914 1.546.136 5.606.493 1.498.131.694.061 7.87-.076.128-1.383-5.563-.575h5.616l.087-.937-7.456-.772h7.529l.061-.655-5.182-.82v-1.432l-1.753-.277V296.013l-.277-.257-.731-.682-6.069-5.647-.114-.109h-.001l-2.342-1.017h1.246l-.816-.76-2.184-.949h1.164l-.107-.1-7.244-6.742-.876 1.158 10.013 17.002-21.197 4.197 1.357 21.489 3.573.082 3.744-8.151 4.38.385-.206-.076zM128.885 248.287l-1.552-.215 1.362.19-.288 1.342-.315 1.472-.171.799.249-.254.148-.688zM133.127 235.747l1.16-1.358-1.113-.116-.195.147-1.037 1.339.466-.005z"/><path fill="#070708" d="M127.333 242.182v-.36l-.496.594-2.154-.537 1.09-1.278 1.56-1.828v-.14l-3.646 2.721-1.557 1.161-4.354 3.251-.548 1.534 3.399.7-.233.186 1.087.176 2.694-2.125 2.261-2.649.897-1.051v-.354zM127.333 252.316l.662.12-.66-.12zM161.477 237.201l-1.033-.107-.065.118zM144.881 235.484l-.252.154 1.584-.016zM150.822 237.303l-.115.001v.001zM145.004 252.414l.153-.405.788.11v-.001l-1.497-.208v.561zM146.201 252.154l.58.08h.002l-.582-.081-.128-.017-.001.001zM56.354 194.266l-.806.943c.165.967.276 1.513.276 1.513.269 3.963.477 7.834.638 11.592l5.289-3.994-5.397-10.054zM124.849 291.366l.341.318.112.103 1.483 1.38.548.51v-1.232z"/><path fill="none" d="M120.294 289.386l-.046-.021"/><path fill="#070708" d="M62.532 179.792l-.164-7.39 3.579 8 5.241-6.137-12.024-25.755.826 30.336-3.61-5.44-2.333 5.177c.022.325.035.493.035.493.02 1.405.072 2.762.143 4.066l3.322-3.101 4.985-.249zM153.833 316.283l-.856.872 1.067-.009.117-.83zM151.085 288.301h1.585l-.226-.278-1.907-.392-.426-.088.62.758zM137.758 148.374l.405-1.186-5.183-.067 1.212 1.895 3.085-.555.91-.164zM130.112 252.035l1.203-.121.298-.303 1.28-1.302.257.035-1.211-.168zM129.863 249.899l-.784-.11v-.001l.785.109zM90.485 8.752a42.328 42.328 0 01-3.245 2.052l3.213 3.237c-.551-3.149.032-5.289.032-5.289zM127.333 323.979l-8.508-.195.069-.154 4.911-.193v-.943l1.498.035.501.012-.246-.092-6.787-2.529-1.404-.523-4.967-1.851.523-.005-5.147-.475-3.061 6.657 12.387.285.161.004 8.295.19 1.498.035 2.03.047v-.521l-1.292-.48-.462.018v.678zm-11.985-1.239v-.442l.162.004-.162.438zM127.333 131.383v-6.473l1.753 2.516V125.544l.469-.069-1.244-1.785 4.359-.644h-4.891l1.396-.288.104-.021 2.301-.474 4.489-.926h-10.044l1.397-.287.103-.022 2.301-.474 8.763-1.807 3.578-.738 1.579-.325H131.437l.077.403.177.932-.402-.482-.713-.853h-8.003l-4.393.915 2.397 4.164.773 1.343 2.927 5.084.163.283 1.921 3.338.972.1v-.112zM124.614 134.05l2.719 4.248v-3.969zM142.684 315.528l3.532-.033-3.652-.379zM59.323 234.131l-2.393-1.919a515.936 515.936 0 01-.036 4.639l.879-.493 1.55-2.227zM139.264 314.774l-2.708-.28v.001l1.788.185-.02.889 1.168-.01zM138.406 311.945h.012l-.012-.002zM138.805 313.2l-.426-.044-.011.497h-1.793v.001h2.362zM142.106 313.542l.032.111h-1.256v.001h2.308zM117.5 122.345l.493-.481-1.658-2.881-2.71.565 3.481 3.181.056-.054 1.11 1.013-.057.056.701.639 1.11 1.015.003.002-.002-.003-.774-1.343-.487-.846-.493.48zM134.804 233.782l.68-.798-.511-.052-1.14.85zM136.507 231.785l-.385.288h.14zM73.294 312.609l7.893-8.669 9.937-1.967 1.589-3.892-22.248-37.525-.767.811 4.707 30.783-12.808-21.623-1.389 10.453-6.61.973a655.751 655.751 0 01-2.128 14.858l8.81 8.181 2.869-6.605 3.657 12.666 1.312 1.218 5.176.338zM51.162 298.782c-.321 2.03-.637 3.962-.946 5.806l3.583 6.471-.872.219 4.496.295 2.158-4.971-8.419-7.82zM145.502 286.592l-.013-.003.001.003zM62.857 236.961l-1.239-.992-4.748 2.658a485.592 485.592 0 01-.249 9.78l-.042 1.269 6.278-12.715zM142.444 147.244l-.105.306 1.599-.287-.46-.006zM150.1 147.343l-.198-.003.038.118zM67.209 258.178l-1.696-9.475 3.635 6.133 4.906-8.906-6.224-4.984-11.375 11.926-.018.019a330.81 330.81 0 01-.185 3.58l.034.005 10.923 1.702zM49.154 310.735l2.118-.528-1.539-2.778c-.197 1.149-.39 2.249-.579 3.306zM127.333 278.73v-5.809l-3.429.389-2.097.237-1.015.115-1.551.176-2.138.243h-.001l-3.234.367-3.007 3.975 5.004 4.657.061-.019 2.199 2.046 1.595 1.485h11.937l-.183-.315-1.184-2.033-.522-.896-1.743-.36-.246-.05h1.75l-.351-.605-.301-.516-2.606-.538-.246-.05H128.535l-.336-.576-.403-.692.669.605.732.663H134.422l-.673-.1-3.346-.494-1.317-.196v-1.656l-.437.143zM56.828 312.943l-7.977-.523c-1.265 6.969-2.238 11.553-2.55 12.801.597.427 1.352.839 2.238 1.237l2.349.165 5.94-13.68zM136.285 152.68l-.431-.045v-.002l.432.044zM138.16 152.939l.078-.055-.057-.006zM124.378 136.968L122.749 143l4.51-1.53zM122.064 145.536l-.246.083.934-.317-.623-.008z"/><path fill="#070708" d="M68.086 263.074l-5.867 4.849 9.991 18.193z"/><path fill="#070708" d="M60.459 264.72l1.759 3.203 5.009-8.452-11.017-1.617c-.089 1.564-.15 2.42-.15 2.42a600.65 600.65 0 01-2.273 20.22l4.665-.687 2.007-15.087zM103.599 101.63l-.369.305.94 1.058zM94.402 101.976l8.598 7.86 1.992-3.362-3.076-3.459zM104.425 98.85l6.169-5.074-16.656-19.929zM84.981 98.69l4.295.836-1.696-1.551zM83.815 97.512l2.503-.689-7.19-6.572zM76.311 101.076l17.032 14.556.032-.041-10.196-15.799-1.29-.25zM89.635 97.409l-.177.049 2.925 2.672 8.426 1.642-12.156-13.667zM105.08 100.413l1.453 3.464 5.186-8.753-.084-.103zM108.437 108.417l1.53 3.65-2.461-2.767-2.494 2.374 7.313 6.685 3.26-.679-5.975-10.379zM105.77 108.663l.634-.602-.166-.186zM91.294 101.373l-5.707-1.112 13.464 20.861 11.282-2.348-6.52-5.961-2.47 1.34.797-2.868zM108.758 105.822l-.641-1.115-.725 1.22.358.854zM115.558 101.643l1.068-.26-.352-.422zM110.094 104.55l.131-.125-.178.044zM115.389 99.514l-2.454-2.937-3.956 6.673 3.339-.816zM97.608 121.424l-4.185-3.577-1.277 9.038 4.155 4.444.102-.066-2.228-9.125zM119.623 146.364l.304-.103.268-.992-.275-.003zM127.333 187.141v-4.263l-.331.063-5.752.349-25.017 1.515 31.1 3.829v-.07zM63.328 119.837l3.667 8.037 2.394-5.877-2.885-3.1zM143.271 256.999h.003l.15-.395-.398-.072-.027.072zM145.272 256.936l-1.848-.332 1.848.333zM145.462 256.97l-.19-.033-.014.036zM136.728 258.412l-.077-.266-.303-1.058-1.07.013-.188.002-.191-.665-.414-1.442-.961-.173-.646-.116-1.538-.277-2.25-.404h-.002l2.126.383-3.238 3.294-.526.534.505.691 1.014-.013.137-.002 1.687-.022.308-.004 2.653-.033 2.154-.028.052-.236.768-.178zm-8.292.287l-.097-.118.698-1.398.307-.005-.908 1.521zm6.264-1.367l-3.644.836.941-1.023 2.753-.036-.05.223zM148.902 258.656l.859-.01.664-.783.206.037.077.014-.076-.014-1.478-.265-.003-.001-.564 1.026zM148.269 258.664l.281-1.138-.851-.153-.628-.113-.35 1.425zM62.489 103.381l16.21-4.461-12.149-2.365zM154.443 178.714l-1.824-.328-.156.353zM127.527 182.43l-2.277-.773 2.274.773zM125.204 181.642l.046.015zM127.333 154.495l7.003-.972-.021.003-.287-.448-.424-.663-4.518-.457 3.789-.682-.318-.498.706.072-.002-.002-5.928-.6 4.38-.787-1.52-2.376-8.52-.11-.572 2.117-.449 1.66-2.879 10.651-39.139 3.719.379 17.562 5.829.717 1.935-3.634-.355 3.829 2.136.262 30.131-1.823 3.041-.183 3.474-.21-1.014-.344-4.693.284-2.561-1.256 3.041-.183.685-.041-2.7-.916 3.165-.041-4.918-1.668 22.571-.291 3.463-.665-13.157-2.367 4.959-.502-6.712-1.207 8.231-.833 6.226.059-12.704-1.762v-1.465l-1.753-.243zM140.684 177.161l4.776-.062h-.002zM65.4 117.71l-6.843-7.348 4.107 8.157zM57.358 112.008l-.137.229.946 1.38zM59.322 108.704l7.887 8.471 6.285-1.857 2.347-3.82-.577-10.133-13.842 3.808zM55.923 109.161l-1.093-2.173-1.019.28 1.79 2.61zM57.194 106.337l-.061.017.036.039zM55.276 115.505l3.765 4.086.909-.269-3.72-5.421zM60.136 120.78l3.189 3.458-2.511-3.659zM90.484 125.109l.467-3.29-1.564 2.118z"/><path fill="#070708" d="M54.758 111.754l-3.607-5.254 3.015-.829 1.855-.511 1.942-.535 13.305-29.568-22.67 24.492-.012.013a638.57 638.57 0 001.09 6.082l.218-.718.422 1.264c.414 1.516.75 3.232 1.025 5.046l2.451 2.659.966-2.141zM47.813 95.026l.01-.025 4.22-10.312-4.979 5.622-.013.014c.252 1.602.51 3.187.762 4.701zM51.722 114.144c.279 2.479.463 5.032.583 7.438l4.929-1.457-5.512-5.981zM64.367 127.867l-11.904-2.01c.055 2.265.061 4.191.053 5.507l12.051-3.28-.2-.217zM58.329 121.313l-5.956 1.762c.019.452.035.897.049 1.333l10.373 1.752-4.466-4.847zM54.502 34.805l-.569 2.912h1.172zM91.021 134.833l3.854-2.558-3.034-3.243zM44.613 55.622l3.213-.133-.077-5.637zM98.323 52.451l5.592-18.572 8.167-.426c-1.64-.471-2.486-.82-2.486-.82a56.538 56.538 0 01-2.266-.952l-.072.096.013-.124c-6.896-3.075-11.05-6.664-13.529-10.078L97.97 52.47l.353-.019zM141.155 257.025l-.567.008-.626-.906-.115-.167-1.134-.203-.848-.153.499 1.736.187.654 2.826-.647z"/><path fill="#070708" d="M40.668 47.372l1.8-9.655h9.543l2.432-12.46 2.586 12.46h16.047l9.253-14.316-7.602-6.677c-6.521 2.648-13.291 4.938-18.195 6.497l1.369 5.389-3.471-4.73c-3.096.96-5.055 1.513-5.055 1.513-11.577 3.334-13.893 5.65-13.893 5.65l.006.022c1.955 6.743 4.571 14.543 5.174 16.329l.006-.022z"/><path fill="#070708" d="M42.71 55.351l.01-.019 6.832-12.567.096 7.053 2.088-10.696h-7.611l-2.299 12.331-.005.03c.326 1.29.622 2.585.889 3.868zM76.419 16.026l4.147 3.643-2.035-4.548c-.697.306-1.402.608-2.112.905zM82.354 23.421l2.005 17.752 6.043-24.806-4.679-4.716a91.225 91.225 0 01-5.522 2.725l5.275 11.788-3.122-2.743zM45.24 76.333c.25 3.191.82 7.474 1.475 11.806l.013-.014L57.689 75.75l-8.431 20.599 27.535-29.745-1.554.014-1.473 2.485-.08-2.469-.974.009-9.331 10.961-2.498-12.041L48.226 84.38l-.379-27.486-4.017.168-.569 1.046-.011.02c1.775 9.79 1.99 18.205 1.99 18.205zM85.548 126.208l1.611-2.183-5.988-6.4zM90.181 127.256l-1.812-1.937-1.934 2.625 2.857 5.602z"/><path fill="#070708" d="M53.659 39.121l-3.913 17.694.299 21.703 10.338-15.367-4.985-24.03zM152.685 147.376l.096.002-.077.056-.516.37.598-.107.253-.316zM78.316 116.008l-2.561 10.346 5.407 5.806 3.185-4.323zM88.616 138.315l.234-1.648-3.616-7.093-2.864 3.884 10.707 11.498-3.659-7.172zM77.583 108.664l2.719-2.03-2.98-2.547zM80.578 106.87l-1.497 6.048 9.096 9.724 4.196-5.692zM112.164 62.211l-1.517-.565h-.001l1.223-.012.589-.006 4.434-8.774-17.019.922-2.499 8.298-1.11-8.102-13.977.758-6.21 10.476 34.747-.343z"/><path fill="#070708" d="M96.073 52.575l-4.519-33.007-6.752 27.721-1.667-.059-2.097-18.571-6.762 10.462H57.321l4.532 21.844 5.769-8.576-.17 7.809 5.7-17.623 1.66.129.649 20.038 5.543-9.351zM70.86 146.136l9.281-12.592-4.871-5.232z"/><path fill="#070708" d="M66.145 67.28l-.561-8.707-3.231 4.804 2.135 10.29 7.166-8.418 1.986-.02-.534-16.471zM68.314 118.362l1.993 2.141 2.051-3.336zM76.391 115.975l-1.481.438-3.345 5.441 2.663 2.86zM93.285 301.547l1.326-.264-.722-1.219zM65.654 207.777l-.217-1.855-.44.629zM68.887 198.933l1.411-10.283-2.542 3.136-2.593-7.835-.342.401 1.898 16.217zM64.965 201.895l-1.822-15.579-5.532 6.477 5.597 10.428zM63.171 222.336l.704-.559-1.746-.939z"/><path fill="#070708" d="M70.75 185.359l.305-2.232-4.385-.539 1.833 5.542zM63.838 208.205l-6.011 8.583 2.577 1.386 8.142-1.199zM64.424 204.311l-.449.338.092.171zM80.803 184.328l-1.76-.217.008.323zM66.823 223.361l-1.402-.752-1.325 1.057 1.256 1.807zM83.693 185.563l-4.611.278.043 2.055.477-.644-.451 1.866.05 2.309-.4-.857-1.843 7.645zM72.026 176.059l-.043-.092-4.521 5.295 3.786.467zM65.174 220.739l2.825-2.251-5.504.811zM71.955 196.617l-1.043 1.488-.153 1.113 7.403-10.018-1.5-3.214-4.122.25-1.521 11.088zM67.703 222.098l2.046-2.94-3.026 2.413zM75.586 183.686l-2.651-.327-.2 1.457 3.286-.199zM73.502 179.223l-.375 2.736 1.754.215zM82.367 305.161l-2.075 2.278 3.892 11.53 6.294-15.413zM92.639 303.129l-7.556 18.502 2.779 8.235 3.061-6.46 6.326.145-1.332-21.072zM79.849 323.164l1.9 1.765 1.362-3.333-2.244-6.651zM69.751 313.788l4.737 4.398 1.126-3.461.952 5.39 1.57 1.459 1.686-13.617-5.576 6.125zM115.594 334.703h11.738v-1.046l1.754-3.608v-3.429l-1.754 3.606v-4.579l-6.755-.155-16.5-.38-4.402 9.577.17.014h15.749zM97.529 255.135l-8.331 7.909-16.731-2.611 20.499 34.575-4.913-19.053 1.735-.196zM71.509 327.335l2.414-7.417-6.226-5.782zM64.007 234.631l-.867.484.449.362zM65.351 228.544l-1.651 2.372 2.255-1.504zM66.855 230.705l-5.031 3.356.021.017 5.295-2.963zM60.132 246.577l6.38-6.688-2.204-1.768z"/><path fill="#070708" d="M72.002 258.926l16.425 2.561 13.502-12.813-4.578 12.193 9.574-13.443-20.851-3.404-4.501 4.767 4.973 7.151-6.675-5.348zM78.55 249.533l-3.071-2.462-5.267 9.558.632 1.067zM78.461 247.39l-10.954-15.747-2.467 4.994 2.593 2.077 2.415-2.532 5.911 9.203z"/><path fill="#070708" d="M68.952 239.771l2.673 2.14-1.899-2.954zM99.59 330.504l2.498-5.438-2.845-.064zM161.316 62.885l.161-.002-.176-.018-.515-.053.058.077zM58.769 313.07l-6.418 14.785c4.777 1.464 11.349 2.701 18.442 3.729l-5.22-18.071-6.804-.443zM133.09 58.419l.1 1.044h-1.592l.001.001h3.117l.491-.826-1.574-.163zM129.394 56.329l-.308-.049v-1.431l-1.753-.278v-5.165l1.753.094v-1.506l-1.753-.095v-2.218l-.549 3.802-.216 1.495-.367 2.547-.337 2.335-.815 5.647 3.508-.033 1.042 1.715.711-.006 1.034-.01-1.042-1.715-.42.003-.078-.824-.099-1.041-1.274-.132h1.261l-.134-1.411-1.412-.146-1.468-.152h4.443-1.592zM134.962 57.755h3.453l-.557-.088-.052.088h-2.076l.23-.388-3.016-.477.082.865h.324zM68.378 224.197l-1.957 2.813.995 1.428 3.291-2.196 9.599 4.141zM102.993 274.262l-1.557-2.645 1.431-.634 2.945 2.742 8.946-25.022-.312-.05-23.718 26.999zM108.579 278.561l-1.897-1.768-.046.132 1.392 2.363zM109.583 277.234l1.901-2.514-4.104.464zM57.425 171.084l.874 2.16-.158-3.749zM104.758 253.484l7.051-5.262-2.958-.484zM108.89 252.396l-11.613 8.667-2.984 7.951z"/><path fill="#070708" d="M86.633 233.211l-15.623-5.278-2.695 1.797 12.274 17.644 4.653-4.929 22.601 3.691 6.027-8.46-26.853-21.988-14.165 2.085-3.594 5.161zM61.704 306.314l2.444 2.271-1.371-4.746zM95.309 296.588l.314 1.213-.108-1.717zM69.212 258.445l-.023.041.053.01zM61.005 307.923l-1.64 3.775 5.793.378-.118-.408zM77.596 325.944l.289-2.346-.843-.784zM107.816 282.449l-7.194 8.307 4.006-13.719-.851-1.445-13.487 1.531 4.251 16.482 2.356-5.769.81 12.835 18.663-3.694z"/><path fill="#070708" d="M103.785 284.898l3.076-4.068-1.009-1.715zM128.283 101.13l.341 1.79.462-.468v-2.134zM128.617 90.42l11.428-1.182 3.483-.36 1.23-.128-.779-.007-12.779-.122-1.378.32-1.204.28-.366.347-.996.949.033.041 1.114-.116zM122.004 101.546l-2.226.544.699.837 1.481 1.772 1.038 1.241 1.819 2.178.968 1.157.911 1.09-.878-4.606-.34-1.791-.596-3.124-.994.243zM133.455 201.357h.97l-3.254-.481v.001l2.342.346zM160.585 317.073l-1.053.01v-.001l1.053-.01zM127.333 80.513v-.456l-.024.04L126 82.302l.117 1.027 1.447-.54-.258-2.266zM130.255 203.066l.096-.25.151-.394-.278.644zM116.857 94.74l1.716-1.632.288-1.993.23-1.594.048-.327-2.469 4.156-.175.296.111-.773.476-3.291-3.219 5.43 1.812 2.168-.157-1.166zM117.272 97.723l1.339-1.274 4.598-4.374-.175-.919-5.904 5.615-1.001.952.506.606zM134.719 94.623l2.503-.395 1.877-1.898h-2.111zM115.275 86.775l-4.629-.044 9.35-3.484.589-4.079.306-2.114 1.028-7.124.352-2.436.063-.437.206.077 1.609.6-.709 4.906-.951 6.583-.158 1.099.211-.356 2.679-4.512 1.266-2.132.845-1.422v-2.914l1.754 1.495v-.907l-3.104-1.157-1.717-.639-1.726-.643-.289-.107-.564 3.905-.951 6.583-1.599-2.169 1.028-7.124.27-1.873-.667-.249-7.368-2.746h.001l1.022.381-1.273 2.52-35.069.344-16.188 35.976 4.572-7.686 16.326 3.178.235-.063-7.689-13.439 13.212 11.147-1.365-12.942 15.968 17.95.794-.652-12.533-31.933 21.508 24.551 5.109-4.203-4.629-.044 4.427-1.649-.852-.008-.7-.008zm3.557-9.316l1.599 2.169-.527 3.652-2.021.754.949-6.575zM140.789 90.621H127.338l1.314 1.686 1.505-.156.214-.022 11.427-1.182 3.149-.326h-3.968zM116.669 115.976l.433.752.327.568.529-.11 1.891-.394 1.878-.816h-.908zM127.333 38.255l-2.995-1.301-4.049 8.015-.797 1.577-.457.905-.741 1.466-.266.526-.071.141.108-.005.496-.027.515-1.019 1.061-2.101.798-1.578 3.886-7.69 1.663.723-1.481 2.93 1.355-2.244-.875 6.063 1.85-3.063zM123.191 47.269l-.237.393-1.388 2.299-.522.864-1.128.061-.134.265-.072.142.109-.006 1.705-.093.286-.473 1.16-1.921.163-1.129zM117.02 51.438l.605-.032.205-.407-.605.033zM117.322 46.825l1.062-2.102.797-1.578 3.494-6.915-2.269-.986-.281-.122-2.326-1.011.928.404-1.625.084-.11.006-11.53.602-5.16 17.138 16.712-.906-.704-2.611zM118.153 61.573l1.591-.015 1.386-.014.057-.391 1.241-8.599-2.235.121-1.214.066-.209.413-4.272 8.454 1.944-.018zM113.622 63.342l1.539-.014-1.289-.481zM125.694 256.527l.505.692-.905.011 1.167 1.426-.038-.479-.12-1.511.606.83.186-.867.419-1.951-1.294 1.316zM122.536 88.538l-.238-.003-.181.307-1.058 1.78-.165.279 1.771-1.685zM129.961 92.33h-1.53.239l.534.685.342.44 7.119-1.125h-6.402zM130.135 282.076l.528.479.423.383h3.225l-.87-.18-2.7-.557zM127.948 262.444l-.926-.314.926.314zM92.258 324.841l-4.177 8.813c3.453.344 6.789.642 9.86.895l-.605-9.59-5.078-.118zM82.521 327.902l-2.923-2.715-.92 7.438c2.841.342 5.688.653 8.471.935l-3.141-9.303-1.487 3.645zM72.023 331.761c1.581.223 3.184.435 4.794.637l-1.759-9.958-3.035 9.321zM126.232 89.201l.654-.622-1.132-.011-.008.008zM153.856 258.593l-.071-.126-1.412-.254-.272.32.046.081zM118.583 98.766l.842-.205 3.068-.75.549-.134 1.179-.288-.514-2.7-.129-.675-4.694 4.465zM119.19 100.755l1.989-.485 3.068-.75.364-.089-.12-.629-.403.099-1.955.477-1.883.46-1.955.478.456.546zM120.03 239.17l9.538-6.797-2.891-.3h3.312l1.529-1.091-2.432-.385v-1.432l-1.754-.277V213.56l-1.016-.226.395-1.03-.946-.411-1.203-.268.084-.219-6.848-2.977h2.178l-3.932-1.709h10.399l.839-2.188-36.654-5.245-8.444 9.415 1.853-19.949-10.011 16.951 1.658-10.22-7.767 10.511.616-4.496-1.461 2.088 1.563 13.374 1.563-.23 7.59-6.05-3.826 5.496 13.741-2.024 28.464 23.309-6.401 8.989 3.622.591.592-.442 4.408-5.017.917-1.043-.887-.222 1.612-1.148zm-2.075-.517l-.509 1.423-.81-.202 1.117-1.271.371-.422-.169.472zM120.141 289.318h.001l.106.047zM127.333 96.142v-2.17l-.364-.466-.184-.237.314 1.648zM135.639 61.406l-.847.008.612 1.553.649-1.094.906-1.527h.002l-.654-.067-.21.355-.458.772zm.504-.831l-.008.155-.033.671-.206.002-.15.001.359-.751.038-.078zM135.195 284.467l-2.7-.557-.433-.09.521.473 1.141 1.032 1.399 1.267h10.317l-.01-.015-8.695-1.792z"/><path fill="#070708" d="M126.025 201.357h2.292l.153-.274.44-.787.176-.461v-.716l-.158-.023-.28.502-.794 1.423-1.931-.223.793-1.423.617-1.105v-8.213l-38.854-4.785-2.225.135-1.68 18.088 5.172-5.765 37.594 5.379.336-.603.404-.724-.582-.12zM131.865 253.744l1.57-.159.201-.021 1.653-.167-.313-1.093-.212-.739-.84.085-2.059 2.094zm2.487-1.379l-.957 1.041-.048-.008.659-1.105.346.072zM125.184 83.676l.075-.028-.032-.043zM134.309 203.066l-1.462-.301-.13.301zM129.845 252.784l-.171.8.682-.694.024-.026-.531-.095z"/><path fill="none" d="M136.898 255.43l-.365-.066"/><path fill="#070708" d="M141.583 235.666l.738-.447-1.334-.138-.011-.001-.994.602zM153.466 208.43h.322l-.315-.066-.355-.073-.019.138h-.513l-.001.001zM58.086 168.156l-1.21-28.857 15.613 33.444 2.265-2.654-.796 5.804 3.057 6.545.091.011-.399-18.56 39.469-3.75 2.943-10.884.449-1.661.173-.642 1.128.014-1.403-.018-.118.437-.449 1.66-1.534-1.498.449-1.66.173-.643 1.128.014-1.971-.025-.936-.012.686-.233 1.279-.434 1.891-.642.549-.186 2.653-9.812-24.261-2.488-.544.36 1.429 5.853-3.925-4.197-5.028 3.337 6.274 13.935-15.861-15.87-14.495 19.665 6.888-27.835-3.095-3.324-2.777 7.118-2.2-1.186-13.171 3.583-.007.366c.205 11.458.46 20.495.706 27.415l3.585 8.854 1.302-1.344zM160.919 317.016l-1.42-.148 1.133.118-.031.095.332-.003h.045l-.009-.057zM124.656 50.98l.014-.105.216-1.495.059-.402-.115.189-.015.102-.368 2.547-.337 2.335-1.064 7.375.088-.001 1.185-8.21zM135.947 234.56l-.905 1.169 1.896-.018 1.478-.896-1.876-.194z"/><path fill="#070708" d="M117.733 125.537l-6.1-5.574-11.752 2.446 1.378 2.135-2.278-1.948-2.627.549 1.712 7.014.326-.216 25.247 2.589.001-.005.003.005 1.964.202-6.764-6.182zM118.096 115.083l7.559-3.287h-.001l-.237.103-2.6-3.108-.967-1.157-1.479-1.772-1.038-1.241-1.368-1.636-.313-.374-4.188 1.022-2.519 2.398 5.599 9.727 1.423-.618zM140.117 147.213l-.268.785.4-.072.242-.708zM124.319 81.636l2.657-4.474.357-.601v-1.166l-.512.861-1.265 2.132-1.863 3.137-.262.442-.001.001-.999.372.814 1.105.22-.371.612-1.03-.184-.249zM138.019 253.122l.409-.042-.604-.875-.533-.769-.082-.118-.534.054v-.001l-.04-.058.237.826.17.591.117.415.043-.192zM144.422 123.087l-.019-.041h-2.443l.186.568 1.06-.157.08-.012 1.215-.179-.254.037zM148.175 237.328l2.532-.024.068-.182.373-.988.944.096-1.591-.165-1.346-.139.068.262zM139.56 59.463h-2.076l.329-.555-.651-.068-.37.624H143.194l-3.424-.354zM153.048 236.329l-.361.956 1.211-.012-.53-.911zM143.117 233.782h.077l-.066-.007zM137.241 233.782h2.878l.448-.272-1.334-.137-2.191-.227-.494.636zM136.913 231.836l-.596-.094.595.094 1.02.162-.058.075h.538zM137.238 255.491l.627.113zM139.917 252.145l.507.732 2.592-.262-3.234-.666zM138.769 250.976h.003v.296h-.003zM135.962 250.734l.302.042-.001-.001z"/><path fill="#FFF" d="M209.5 130.52l.583 7.214.648.732 1.105-4.908.496-2.204-.568-.166z"/><path opacity=".5" fill="#FFF" d="M142.58 33.493l.497-1.091h-1.646l-.582 1.279a107.23 107.23 0 001.731-.188zM144.596 33.239s.498-.069 1.351-.228l.015-.609h-1.5l-.021.856.155-.019zM227.922 32.92v-1.13c-.104.391-.207.787-.31 1.188l.31-.058zM172.313 14.042l-2.084 7.041c1.632-1.986 2.859-4.271 3.437-6.906l-1.353-.135zM119.122 32.402h-1.623l-.049.119.022-.119h-1.426l2.326 1.011.28.122.032-.077zM175.498 333.823l.037.177.126-.013.061-.188-.224.024zM208.558 251.752l.592-.191-.872-4c.085 1.37.179 2.764.28 4.191zM227.88 28.586l.042.024v-.037l-.042.013z"/><path fill="#FFF" d="M121.13 61.544v.001l.162-.001.465 1.721.756 2.802 1.716.64-.295-2.593 12.907 11.001-7.242-11.926-1.042-1.715-3.508.033-1.915.018-.088.001 1.064-7.375.337-2.335.368-2.547.015-.102.201-1.393.452-3.138.875-6.063-1.355 2.244-3.607 5.975-1.34 2.22-.285.473-1.21.067-.496.027-.108.005.071-.141.266-.526.741-1.466.457-.905.797-1.577 4.049-8.015.392-.776 2.603 1.131v10.59l1.753.095 5.125.277 6.638-14.59.581-1.279h-25.385H117.472l-.022.119.049-.119h1.623l-.438 1.056-.032.077 4.415 1.92-.392.775-3.494 6.915-.797 1.578-1.062 2.102-1.012 2.003.704 2.611.002.007.004-.008.205-.406.605-.033.609-.033 1.477-.08 1.128-.061.522-.864 1.388-2.299.237-.393-.058.402-.163 1.129-.053.367-.015.104-.337 2.335-.137.948-1.241 8.599zM181.409 252.773l1.063.229 2.88-3.543-2.725-3.053-3.798 1.009zM145.945 255.664l1.455.262.906-3.684-2.361 1.946zM135.609 253.216l-.465.505.34.061zM127.422 121.05l-.144.287.247-.309zM136.875 247.485l-1.052 1.763.642.09zM159.547 61.156l-1.514-2.023-1.2 1.742zM189.236 17.235l-15.837-1.572-2.549 8.682 16.237 27.381.476.032-1.779-11.118 4.83 9.235-1.777-6.816 12.247-4.853 2.888-5.184-.369 4.185 6.179-2.448 4.998-.928.352-5.794.101-5.125c-3.339-1.067-6.655-1.835-10.558-2.776l-4.217 9.013 1.624-9.648c-.58-.145-1.166-.292-1.775-.447-2.268-.583-4.699-1.418-7.135-2.376l-8.042 9.994 4.106-9.437zM138.35 124.175l.049-1.129.038-.852-5.767.852-4.359.644 1.244 1.785 8.218 11.782zM149.459 253.834l-.581 2.357.971.174.51-.927zM138.497 120.836l.092-2.089-8.763 1.807-.627.783h9.276zM190.043 15.384c-5.856-2.535-11.345-5.497-14.238-7.121L173.993 9.7c.089 1.59-.021 3.084-.327 4.477l16.203 1.608.174-.401zM129.086 326.62l.934-1.919-2.687.104v5.422z"/><path fill="#FFF" d="M141.532 121.736l-.08.012.063 1.298.032.656 1.068 21.858 5.73.073-1.555 1.116-2.853.513-1.599.288-2.09.376-.4.072.268-.785.574-1.678 1.034.014-2.651-3.803-.166 3.766-.17-.002-.574 1.679-.405 1.186.429-.077.603-.107-.09 2.04-.051 1.166-1.494-.15-.363-.037-.125.365-.38 1.114v.001l-.133.391-.007.021-.014-.021-.278-.435-.001-.001-.685-1.07-.362-.565-1.542-.157-.706-.072.319.498.189.296.539.843.424.663.287.448.021-.003-7.004.972v13.706l1.754.243 12.396 1.718 17.185.16 35.221 23.655 8.539-8.772 4.495-.597 3.356-6.743-.029.889c.475-7.715.864-16.133 1.128-22.45l-4.947 7.483-2.619-6.713-3.069 1.398 2.145 21.31-7.788-18.741-13.289 6.053-30.229-14.619-1.64-5.017-.039-.117-.354-1.084.885-.159.002-.001.516-.371.078-.056 1.643.021 8.688-28.413-2.094-.602-11.871 16.803-1.694-3.816 5.232 16.007-1.143-.016-.44-.006-7.203-22.033-.186-.567-.431-1.315zm-2.958 31.342h-1.022l.983-.136.044-.006-.005.142zm.02-.449l-.356.255-.078.056.021-.062.461-1.349.045-.131 1.42.144-1.513 1.087zm2.859-.093l1.047-.752 2.529.256-3.576.496z"/><path fill="#FFF" d="M127.333 172.445l6.712 1.207 11.945 2.148-3.748.72-3.462.665-22.571.291 4.918 1.668 5.238 1.776 25.098.083 1-2.265.156-.354 2.503-5.669-.832 8.297 6.181.021 19.17 19.48 11.965-4.961-2.439 7.113 4.041.105 8.293-7.641 1.307-.138 3.477-8.784-3.15.418-9.045 9.295-35.884-24.1-16.417-.153-6.225-.059-8.231.837zm22.56 4.057l2.796.504-7.229.093-4.777.063 4.774-.063 1.427-.019 3.009-.578z"/><path fill="#FFF" d="M140.827 233.537l-.258-.027h-.001l-.449.272-1.563.948-.14.085-1.479.896-1.896.018-1.915.019-.719.007-1.455 1.74-1.867 2.231-1.754 2.097v3.817l-.119.555-.65 3.029-.316 1.472-.906 4.225-.186.867-.606-.83.12 1.511.061.771-.91.012.879 1.721.299.584 1.331-.305.151-.303.002-.005.08-.161-.103-.125-1.167-1.426.905-.012-.504-.691.526-.533 1.293-1.316 1.945-1.979-1.464-.264-.662-.119h.002l.66.119 1.591.286.332-.667.085-.009.108-.011 1.828-1.859.899-.915.054.188.257.895.072.252.313 1.094.388-.039.84-.085.661-.066v-.001l-.136-.476-.17-.593-.382-1.331-.527-.073-1.033-.143-1.568-.219-.469-.064-1.267 1.29-.001.001-.012.012-1.256 1.278-.433.44-.249.254.171-.799.315-1.473.288-1.342-1.363-.189 1.553.215 2.723.377 5.6-11.23.865-1.733 1.684-.017-.779 1.563-5.801 11.634 1.033.145 6.128-10.27-2.063 9.344 9.9-10.771 1.048-1.14-.068-.263-.086-.331-2.856.027-1.583.016-3.046.028-1.601.016.993-.602 2.141-1.298.011-.007.066.007 5.554.575-.149-.575-.026-.103-2.604-10.051 5.733 9.863 3.384-2.741-1.662 4.09 6.299.651-6.589.063-.096.237.331.569.53.911 3.313 5.701 3.168-5.763.064-.118 5.87-10.676-3.905 22.305 5.466 1.166-.276-1.047 9.091-2.414-9.336-19.398 15.777 17.688 7.45-1.979-4.207-9.03 6.301 6.743 3.235-3.979-2.045-20.726 6.548 15.188.849-1.043-.617 1.58 5.242 12.157-6.768-31.052 4.414 7.332 3.234-22.969-2.949-.416-3.146 7.949-6.895-.18-7.551 6.959-.182.531-.286-.101-.406.376-.307-.623-.417-.143.142-.414-.576-1.168 1.177-.585 1.716-5.005-18.285-.477-8.163 12.904 2.758-22.416-13.848 21.908-7.562 15.166 1.888.299-.936.567h-1.384l-.229.461-.495 1.007zm-11.34 18.562l-1.263.128-.189.019 1.452-.147zm17.977-20.026h-1.526l.314-.19-1.373-.219 2.585.409zM167.753 29.567l1.066-3.629-.798-2.55-.633-2.022.111 2.491zM142.026 260.299l3.521 3.155 1.174-4.769.35-1.425.077-.312-1.686.022-.204.003-1.984.026h-.003l-.395.005-1.499.343-2.826.647-1.823.418-.771.177-.052.236-1.566 7.085 5.063 6.186 1.271-2.274 3.243.27.699-2.847zM170.229 21.083c-.4.486-.819.959-1.264 1.41l.641.696.623-2.106z"/><path fill="#FFF" d="M131.056 258.168l3.644-.836.05-.224-2.753.037zM136.398 61.398l1.308 3.318-.706-3.323zM138.529 61.378l.366 1.722 2.13 10.036 2.274 5.766.213-8.569-3.647-7.242-.865-1.717zM143.01 119.906l.635 1.431h.586l-.004.001H142.701l-.208.257.443-.066.745-.109.722 1.627.019.041.079.178 3.19 7.188 10.047-14.217-18.127-5.203 1.504 4.602.15.34h3.21l1.045 1.342 5.174-1.066.095-.275h.993l.012.048.236-.048h.005l-8.289 1.708-1.578.325.842 1.896zm3.831-3.709l-.172-.222h.351l-.179.222zM133.395 253.406l.957-1.041-.347-.072-.659 1.105zM140.672 61.357l.865 1.717 2.055 4.082.103-4.102.043-1.726z"/><path fill="none" d="M129.888 235.779h-.001"/><path fill="#FFF" d="M127.333 182.429V198.27l-.616 1.105-.793 1.423 1.931.224.793-1.424.28-.502.158.023.259.038-.191.499-.068.179-.177.461-.312.812-.096.25h-2.477l1.473.305.583.12.239.049-1.036 2.702-.839 2.188h-10.399l3.932 1.709 4.98 2.165-.311.812-.084.219 1.203.268.588.131.299-.691-1.365-.594 2.045.889v17.261l1.754.277 4.074.645-1.643 1.172-1.529 1.091h-3.312l2.891.3-9.538 6.797-1.611 1.148.887.222.311.077.76.189 1.557-1.162 7.69-5.739.165-.123 1.632-1.218 1.112.115-.941 1.103-1.704 1.997-.961.009-1.594.015v2.971l-1.559 1.827-1.091 1.278 2.154.537.496-.594v-2.339l1.892-2.262 1.21-1.448h.007l.096-.001.602-.006H131.176l.765-.008 1.037-1.339 1.214-1.569v-.001l-1-.103-.208-.021.545-.651H134.794v-.001l1.383-1.784-1.02-.162-.595-.094.596.094 14.432-17.254.445-4.443.076-.758.095-.951h1.138l.019-.139-1.12-.23 2.39-23.84h-.198l-8.314 18.83-.915-.137-.001.002-.077.15h.985l-.593 1.345-.055.124-4.286-.496-1.882-.218-3.971-.459-2.422-.28-.132-.016h.191l.208-.48v-.001l.406-.939.182-.423 3.829.566-.042.314-.129.963h1.911l.101-.744.034-.256 5.123.758 8.215-18.609-23.272-.076h-.003l-.193-.004zm19.531 23.225l2.641.545-.069.521h-3.098l.526-1.066zm-2.508-.516l.67.138-.711 1.445h-.138l.179-1.583zm-2.984-.616l.133.027-.23.45.097-.477zm-6.618 25.554l-1.066 1.25-.637.747h-.971l1.107-.827 1.567-1.17zm4.247-23.355h-.569l.177-.162.522-.476-.13.638zm-2.157-1.784l.177-1.312 1.924.397-2.173 1.979-.083.075.155-1.139zm-6.286-2.644l2.289.472 1.461.302.853.176-.176 1.311-.292 2.168h-6.048l1.378-3.19.201-.464.278-.645.056-.13zM208.588 197.194l-.337-.048-2.748 19.524 2.023-3.569c.252-8.933.843-14.201 1.062-15.907zM125.859 81.063l-1.54.573-.426.159.184.249 1.15 1.561.032.043 1.057 1.435-.199-1.754-.117-1.027zM134.973 232.932l.511.052 1.558.162 2.191.227.54-1.085.107-.215H135.487l-.701.839zM139.962 121.968l-.016.003-.047 1.075-.04.906-.676 15.328 1.749 2.51-.874-17.868-.043-.876zM203.712 58.181l.935 5.996.87-2.154zM203.554 66.884l-1.638-10.495-1.38 15.682.484 1.081zM204.004 69.771l-2.135 5.28 4.543 10.162zM199.279 69.26l1.675-19.036-.229-1.469-5.028 2.201-1.532 2.751-1.021-.067 1.185 4.547zM191.119 67.532l-2.206-9.784c-.92-1.552-1.973-2.828-2.618-4.315l.047-.021-.139-.236-7.441-.497 5.227 16.697 7.13-1.844zM121.443 259.013l-.069.087 2.068.703-.414-.811-.614-1.201zM192.911 58.689l-2.334-5.222-.534-.034-.515.225.794 3.525 3.92 6.612zM132.502 274.23l2.204 4.309-2.711.881 3.059.453 3.562-6.371-4.688-5.725zM127.333 263.476v.641l4.098 8.018 1.288-5.835-4.091-4.996-.68 1.14zM128.146 57.907l1.412.146.134 1.411.013.132.099 1.041.078.824.42-.003 1.042 1.715 9.135 15.042.112.097-1.005-4.739-4.182-10.606-.612-1.553.847-.008.458-.772.211-.355.336-.566.148-.249.37-.624.001-.001-.721-.074-.214-1.01h-1.266l.352.894-.106-.011h-.001l-.491.826-.364.613-.052.088-.749 1.261-.175.001-1.59.015-.187-1.978-.001-.001-.115-1.211 1.607.167.543.056-.283-.72h-5.296zM139.77 59.11l3.424.354.59.061.001-.061.022-.856.021-.853h-4.97l.67 1.33zM128.338 258.581l.098.118.907-1.521-.307.005zM209.68 186.998l-1.22 8.66.343.047c.308-2.176.602-5.205.877-8.707zM140.124 92.33l.298-.595-.871.138-.452.457-1.877 1.898-8.136 8.225-.463.468-1.291 1.305v-.586l-.248-1.299-.759-3.987 1.007-.247v3.984l.95-.96.804-.813 5.633-5.695 2.269-2.293.06-.061-.383.061-7.119 1.125-.376.06-1.309-1.68-.412-.528-.533-.685h-.239 1.53l.196-.178v-.001l-1.115.115-.39.041-1.396-1.791.243-.231.008-.008.745-.709-.355-.481-3.672.825.064.335.129.678-1.771 1.685-2.321 2.208-1.715 1.632-1.339 1.274.157 1.166.492 3.657.003-.001.105.125.352.421 1.026 1.228.313.375 1.368 1.636 1.038 1.241 1.479 1.771.967 1.157 2.599 3.108.238-.103.377-.164-.376.164-7.559 3.287-.129.057-1.423.618-.497.216-.002.002h12.241l11.056-22.083.781-1.564zm-13.961.14l.622.799.185.237.363.466V96.627l-1.276.313-.242-1.271-.469-2.46-.451-2.366 1.268 1.627zm-8.726 6.576l-.438.107-1.051-1.257.182-.173 1.001-.953 5.903-5.615.175.919.369 1.938.129.676.514 2.699-1.18.289-.549.134-3.067.75-.843.206-1.145.28zm6.592 8.519l-.967-1.156-1.82-2.178-1.038-1.242-1.48-1.771-.699-.836.271-.066 1.956-.478 1.882-.46 1.956-.477.403-.1.12.629.269 1.414.595 3.124.341 1.791.877 4.606.096.505-2.762-3.305zM151.344 210.394l1.241-1.964.001-.001 12.805-20.257-5.546-5.635-5.705-.019-2.421 24.138.316.065h-.322l-.171 1.708v.001zM141.175 90.231l-.386.39h.19zM127.297 257.309l.052-.105-.136.002z"/><path fill="#FFF" d="M138.677 90.621l1.368-1.383-11.428 1.182-.107.201zM110.646 61.646h.001l1.517.565 1.708.636 1.289.481 2.855 1.064-.61-1.086-.964-1.716-1.944.018-2.04.02-.589.006zM144.132 85.105l-.639-1.62-.258.058.431 2.035zM118.174 144.552l-1.279.433.25.245 1.97.026-1.128-.014-.173.643-.449 1.66 1.533 1.498.45-1.66.118-.437.157-.582.297-1.098.275.003 1.934.025.623.008 6.522.085-.17-.002 1.089 1.7 1.52 2.376-4.38.787 5.928.6 3.893.394.033-.741.09-2.04-3.085.555-.592.106-2.373-3.71 6.181.08.254-5.767-8.576-12.299-1.753-2.516v16.535l-.074.025-4.51 1.53-2.136.724-.549.186zM119.744 61.558l-1.591.015.964 1.717 1.073 1.912.597.222-.579-2.145zM201.097 48.591l-.195.086.158.339zM140.435 230.961l5.93-11.893-9.478 11.332zM182.537 69.75l-5.378-17.179-3.73-.249 8.903 17.481zM227.922 31.39v.4c.251-.951.504-1.871.756-2.75-.259-.152-.502-.285-.756-.43v2.54l-2.399.042-.084-.289-7.973 2.43 10.456-1.943zM226.453 29.021l1.427-.435a84.913 84.913 0 00-1.853-1.031l.426 1.466zM159.499 316.868l-.319-1.498-4.789.045 4.455-.042.033-.096-1.232-.127 1.52.157-2.93-13.746-1.864 13.25-.534-.056v.001l-.055.665.504-.005-.127.9-.117.83-.374 2.665 6.444-.061-.567-2.658v-.001zM224.187 26.593a61.408 61.408 0 00-5.935-2.629l-1.353 7.968 8.121-2.473-.833-2.866zM148.013 259.705l.574-1.045.564-1.026.394-.717.19-.003.542-.007.343-.403-.447-.08-.324-.059-.971-.174-.207-.037-.664.784.69-.01-.681.01.681-.009-.147.597-.281 1.138zM163.023 45.629l1.68-3.404-.69-8.394 2.454 4.819.176-.358-.593-13.289c-1.625 1.203-3.384 2.247-5.18 3.143l1.985 17.259.168.224zM167.197 40.086l5.438 10.676 4.04.27-7.05-22.519-2.71 9.229.898-1.82zM170.77 27.149l7.509 23.989 6.992.468zM166.234 49.912l.332.444 4.327.289-4.073-7.998-.371 2.52zM174.398 7.463l-.001-.001-.001.002zM167.756 51.943l11.846 15.803-7.914-15.54zM157.437 294.123l-3.115-6.531-.379.789.203-1.158-7.338-15.381-5.299-.441-1.085 1.941 10.692 13.06.919.19h-.764l1.173 1.431.226.278zM193.427 51.951l-.395.173.288.019zM189.779 51.907l.084-.037-1.49-3.333.749 3.326zM159.441 28.827c-2.436 1.11-4.872 1.967-7.05 2.617l8.683 11.584-1.633-14.201zM192.393 50.762l2.243-.982 5.292-9.499-9.306 3.687zM209.306 128.109l.064.805 2.372.699c-.007-.887-.005-1.751.006-2.594l-2.184.694-.258.396zM128.776 291.102l1.566-2.801.956-1.709h-1.526l-.377 1.709zM211.814 124.248l-.959 1.477.924-.294c.01-.4.021-.795.035-1.183zM184.701 320.082l-4.731.58-4.249 13.138c3.141-.331 6.165-.677 9.038-1.024l-.058-12.694zM163.355 334.967l-2.923-13.715-6.975.064-.349 2.482-21.391.834-2.632 5.416-1.754 3.608v1.046h-.508l-.646 1.329h-2.374v-1.329h-8.21l-.246.551v-.551H99.845a592.653 592.653 0 0014.688 1.001c5.13.43 10.518.646 16.02.696 10.912.033 22.206-.557 32.802-1.432zM168.528 320.724l-4.583 14.194a550.14 550.14 0 0011.552-1.095l-4.175-20.163-2.794 7.064zM211.838 145.282c.066-1.067.108-2.138.133-3.153l-7.042-7.947 6.909 11.1zM133.441 282.758l.855-1.529h-3.34l-.215.972zM212.003 139.902l.001-.273-.049.219.048.054zM208.007 246.322l.27 1.238c-.028-.438-.056-.879-.082-1.311l-.188.073zM206.961 249.904l.056 7.979 1.986.467.057-.129a531.946 531.946 0 01-.502-6.469l-.703.227-.894-2.075zM210.695 275.865l-.011.008.125.01a603.415 603.415 0 01-1.482-14.564l-2.977 6.724 4.345 7.822zM211.707 147.908l-5.6-8.997c1.742 4.37 3.479 8.729 5.218 13.088l.23-.104c.067-1.676.117-3.038.152-3.987zM150.702 241.9l-.348-1.348-1.656 2.935zM208.104 244.674a432.7 432.7 0 01-.608-15.273l-3.856-6.404-.518.914 4.561 20.925.421-.162zM145.945 252.241l.127-.104.001-.001 1.66-1.367-1.788-3.179v4.529zM192.241 319.155l-6.042.742.057 12.696.001.211.197-.023.095-.225 5.692-13.401z"/><path fill="#FFF" d="M186.629 306.385l5.66-39.454-16.587 22.931 1.935-8.746-4.097-7.055-12.261-1.018-1.979 4.137 2.998 8.425-4.486-5.31-2.658 5.557 6.069 14.152-4.797-4.748 4.65 21.821.567 2.659 5.647-.053 4.47-13.841.719 3.815 2.428-4.771 1.617 14.432 9.539-28.99.128 28.055 26.166-3.213 1.247-17.826a683.797 683.797 0 01-2.621-19.938l-10.749-.84-13.605 29.819zM149.811 238.461l-.14-.542-4.619 5.025 1.115 1.981zM188.27 332.342c14.443-1.83 24.263-3.585 24.263-3.585 4.446-1.358 5.604-3.858 5.604-3.858a857.92 857.92 0 01-1.031-5.784l-23.621.949-5.215 12.278zM204.683 136.623l-5.047-8.109-.053.013-.051-.181-.582-.937-3.087-.911.423 8.828.631.098-.018-.19.078.199zM144.011 270.098l2.047.172-.995-2.084z"/><path fill="#FFF" d="M171.303 262.838l-2.059.846 4.194 7.218zM162.834 266.316l-3.779 1.553-.031.18.061.234-.109.044-.521 2.973 1.92.159zM167.844 264.259l-2.941 1.209-2.93 6.124 10.645.883zM159.681 272.911l-1.486-.123-.152.862.548 1.538zM157.679 277.097l-.16-.45-.141.807.082.099zM160.407 251.461l-1.079-1.858-3.624-.773-1.128 2.049 3.54 13.666zM151.036 145.987l.797 2.441.836-2.735zM205.609 266.011l2.774-6.263-1.355-.318.009 1.19-.735-.911-1.925 2.627zM202.516 221.127l.514 2.357.172-1.218zM199.308 274.984l9.472.741-7.801-8.746-5.148 7.033 2.935-9.514-2.841-3.184-1.635 2.231-4.697 32.732zM205.55 269.848l.232.261-.194-.349zM194.143 259.316l-1.681-1.884-9.729 19.709-1.312-.584 7.816-20.01-6.33-.659.877 1.823-11.082 4.552 2.252 8.508 9.302-12.618-5.525 24.96 15.08-20.845zM147.133 246.645l1.773 3.152 1.394-5.661zM149.98 251.705l1.23 2.186 1.766-3.213-.488-1.885-2.247 1.853zM116.315 315.781l-5.145.049-.524.006.206.076 4.761 1.774.484-1.313zM156.025 262.448l-2.501-9.655-1.448 2.635 1.709 3.039.071.126zM157.417 268.543l-1.04.426.647 1.817zM146.83 264.972l4.873 5.766 3.826.319-1.045-2.936 2.446-1.004-4.783-8.503-.046-.081-.876-1.558-.517.939zM153.075 272.361l3.042 3.602.382-2.18-.416-1.172zM150.961 272.187l-2.423-.203 6.054 12.692 1.188-6.785zM146.055 266.38l-.102.186 1.835 3.847 1.801.15zM151.57 245.248l-.728 2.956 1.23-1.015zM216.843 317.619a795.082 795.082 0 01-2.229-13.571l-.881 12.468-14.861 1.826 17.971-.723zM199.731 256.125l.002.002 1.563.164.621-2.01-.438-.541zM201.78 259.812l.43.776-.35-1.04zM196.64 250.557l2.289 4.125 1.576-2.149-3.588-4.441zM200.864 264.596l1.056-1.442-.753-1.355-.72 2.33zM200.625 257.733l.146.263.075-.24zM196.053 255.744l1.859.194-1.562-2.813zM195.708 258.816l.104.117 1.158-1.579-1.084-.114zM194.395 257.086l-.255-.027.229.255zM194.563 255.59l.354-3.133-1.487 3.015zM191.711 254.336l.391.436 2.43-4.922-.627-1.127zM205.175 269.43l-.349-1.041-2.104-3.79-.836 1.141zM194.613 246.909l.726 1.306.637-1.289-.923-1.144zM199.347 232.246l-3.044-7.06.95 9.634zM191.707 241.642l-.061-.078.051.092z"/><path fill="#FFF" d="M191.129 256.744l-.345-.035-1.373 3.514zM190.593 253.082l2.367-6.061-1.499-2.698-4.139 5.091zM183.259 254.412l6.547.682.174-.445-3.617-4.054zM189.268 244.643l-5.015 1.332 2.057 2.306zM196.707 245.442l.66-1.335-.213 1.889 4.27 5.283 3.86-5.263-5.415-12.559-2.196 5.617.321 3.251-1.774.471-.538 1.376zM199.958 265.836l-.026-.031-.037.115zM205.327 258.502l-2.275-2.816-.433 1.406 1.174 3.503zM154.172 248.502l-.224-.047.08.309zM193.968 244.44l-.695-.862-.443.119.838 1.511zM195.103 241.536l1.043-2.673-.025-.27-2.481 3.052.186.23zM202.398 252.488l.052.065.073-.236zM179.555 252.38l-2.201-4.572-7.922 2.102.086.328zM198.804 257.543l-.106-.01-1.865 2.544 2.449 2.745.876-2.84zM161.978 251.18l4.441 7.64 2.459-5.142-.571-2.16-6.159-1.314zM181.742 256.924l-.586-1.218-10.479-1.093 1.636 6.184zM169.951 251.869l.314 1.19 10.124 1.054-.01-.019zM157.248 246.021l-.788 1.431 1.847.395zM152.801 240.236l-.478 1.946 1.204 4.644 1.401.3 1.439-2.617-4.184-7.201-.768 1.364.572 2.211zM167.331 260.391l1.15 1.981 2.435-1.001-1.445-5.457zM165.636 260.459l-4.061-6.985-2.213 12.643 4.44-1.823zM160.942 248.408l2.339-13.363-5.19 9.443 2.196 3.782zM165.871 263.443l1.21-.496-.533-.919zM181.504 245.148l-8.179-9.169 4.841 10.056zM134.341 258.958l-4.794 1.099 3.584 4.379zM175.799 326.313l-1.825-16.288-1.041 2.045 3.032 16.104 2.875-8.889 5.853-.719-.086-19.019zM132.465 323.098l19.336-.754.142-1.014-18.701.17zM207.456 216.268l-2.964 5.23 2.952 4.904c-.051-3.734-.04-7.109.012-10.134zM205.509 256.338l-.062-8.418-1.862 6.038zM163.88 330.241l2.922-9.048-4.84.045zM187.25 208.268l4.371-4.03-2.964-.078zM189.109 198.218l-9.824 4.075-13.672-13.895-2.671 21.706 5.05-7.985 19.606.509zM131.994 276.531l-.312 1.409.886-.288zM195.366 202.829l4.3.112 2.52-6.367-.036.002zM208.315 185.94l-.326.044-3.601 9.1 2.589.365zM177.663 281.006l3.599-16.262-5.815 7.889zM158.799 57.583l4.476 6.654-3.272-9.094zM204.155 138.063l-6.547-1.01 7.022 17.996 2.629-1.197.955-5.608zM157.835 56.149l1.463-2.966-.554-1.538-3.408.79zM164.032 46.974l.53.709.375-2.545zM145.441 53.179c4.268-.986 8.53-1.973 12.791-2.96l-6.41-17.817h-1.96l.08-.278.041-.145-.762-.157-.453-.093-.177.673H145.962l-.015.609-.506 20.168zM151.563 31.684c-.446.127-.878.245-1.295.354l1.537.317-.242-.671zM155.426 37.997l4.276 11.882 1.383-.32.6-1.217-.271-2.359zM163.287 48.483l-.062.129.049.441.376-.086zM163.24 116.251l4.744 1.361 14.036-11.531-7.858 14.918-.988 2.4 27.87-28.609-6.113 11.231 5.594 20.283 7.295 2.151.231-.518c.817-1.552 2.298-3.992 3.903-6.552.648-10.56 2.524-16.476 2.524-16.476s1.543-14.479 6.36-39.039c-.004.004.243-1.46.675-3.868l-8.909 2.48 1.343 15.468-7.56-16.08-1.289 3.191 4.524 29.001-8.532-19.084-3.18 7.869 1.1-12.521-2.382-5.33 1.749 6.706-6.984-11.777 1.51 6.696-8.462 2.187 1.961 9.178-2.826-4.439-2.833-3.782-16.81 4.345 2.179 15.417-11.153-19.652 3.178 15.309 1.587.015-1.551.161.315 1.52.069.331 3.312 15.95-8.173-15.447-.468-.885-.48-.908-5.397.559-.324-1.402-1.269-.013 6.571.063-7.388-13.962-.234 9.369.144.644-.162.037-.034 1.36 2.08-2.103-2.293 4.581.651.006.374 1.616-.708.073-1.23.127-.873 1.743H147.465h-1.548l.054.235-3.728.59-.443.886-.638 1.274-11.2 22.372h1.605l5.734-7.168 1.706.488.004-.096.035.107 19.612 5.628 8.787-12.437-4.205 13.753z"/><path fill="#FFF" d="M213.392 46.542l-6.239 15.435 4.574 9.728-.724-8.338 10.808-3.008a574.383 574.383 0 012.728-13.974l-.81-1.492-10.337 1.649zM201.862 39.888l-4.955 8.898 4.341-1.902zM207.96 130.066l-6.323-1.864 6.793 7.665z"/><path fill="#FFF" d="M202.327 51.711l3.958 8.417 6.037-14.938 12.216-1.949.479.882c.478-2.23.979-4.477 1.493-6.661l-23.849 10.444-.334 3.805zM203.456 38.883l-.644 7.316L226.95 35.63c.22-.901.44-1.788.663-2.652l-17.416 3.234-6.741 2.671zM160.925 53.275l1.995 5.546 1.051-7.131-2.193-.146zM119.845 258.582l.223-1.283-3.859.049zM133.489 115.976h5.222l.227-5.135-1.091-.313zM154.891 89.592l4.583 9.102-2.112-9.358-.105-.465-.312-1.381-2.959.306.528 1.048zM131.769 253.114l.681-1.14-.568-.119-.2.022-.559 1.121zM135.149 49.828l-6.063-.328-1.753-.094v5.165l1.753.278.17.026.138 1.454.135 1.426h1.907l-.245-2.574 3.326.526 1.216-.281.281-1.905 1.467 1.5 6.452-1.493.508-20.27.021-.856h-1.385l-.497 1.091z"/><path fill="none" d="M143.935 311.387"/><path fill="#FFF" d="M135.059 282.938l-.078.139 9.876 2.035-.582-.119 1.154 1.585.011.015h-10.318l-1.399-1.267-1.141-1.032-.521-.473-.976-.883-.423-.383-.528-.479-.176-.036-.22-.046-.464-.096.148-.67h-.225l-.732-.662-.669-.605.403.692.335.575h-2.106l-.157.051 2.606.538.3.516.352.604.239.41.522.896 1.184 2.033.183.314h1.358l-.293.525-.662 1.184-2.973 5.317-.65 1.162-.831 1.486-.273.488v12.006l1.754.277 5.312.841-.13 1.411-.061.655h-7.529l7.457.771-.087.938-.053.575-.128 1.383-7.87.075-.694-.061-1.498-.131-5.606-.493-1.546-.136-.337.914 1.602-.016-.274.743-.626 1.7 6.787 2.529v-5.03l1.498-.014v5.601l2.03.756v.521l-1.529-.035-.501-.012-1.498-.035v.943l-4.911.193-.069.154 8.508.195v-.68l.462-.018 2.971-.115 1.537-3.164 19.853-.18.618-4.391-1.549.015.857-.872.801.082 2.849-20.25-4.999-6.105-.621-.758-.779-.951h-3.842l-.001-.003-.41-1.431 3.705.764-9.146-11.172-2.996 5.357 7.59 1.121h-.28l-.012-.042-2.731-.403.325.445h-5.519l-.122.217-.836 1.502zm-2.022 3.654l-.012-.018-.528-.863.659.629.264.252h-.383zm10.898 24.795l.598.559h-4.148l-.341-1.174 3.891.615zm-3.973-.628l-.113-.018-1.845-.294 1.958.312zm-3.31-.524l1.352.214.435 1.496h-1.825l.038-1.71zm-.121 5.352l.024-1.092v-.001l.019-.84v-.001l.016-.683 1.789.186.426.044.132.454.327 1.12.229.784-1.168.011-1.794.018zm9.685-.092l-3.532.033-1.252.012-.549-1.886v-.001l-.071-.245 1.295.134 1.084.112 3.578.37 1.558 1.45-2.111.021zM145.284 59.464l-.006.216 4.203.435-.402 1.161 1.969-.019.33-.946 4.574.473 1.118-3.085-3.299-4.903-8.369 1.935-.067 2.687 2.129.337h-2.137l-.028 1.089z"/><path fill="#FFF" d="M165.783 51.813l-.311-.022-1.466 9.925-.048-.007 2.448 8.615-5.562-7.435-.058-.077-1.224-1.636-2.955.029-.755 1.096-.441.64-.509.739.267-.736.249-.688.378-1.044-9.583.092-.976.009-.043 1.727-.173 6.952 8.637 17.152 3.216.031-5.46-24.195v-.001l-.144-.639.361.638h.001l11.892 20.956-1.264-8.943 17.505-4.525zM194.848 136.627l-.585-.091.664 1.745zM208.601 154.893l-.662 3.892 2.793-4.226-.215-.539zM163.28 110.993l-3.096 4.381 1.614.463zM176.064 133.725l-.496-.077-1.069.535zM196.463 160.421l3.918 9.427-1.078-10.72zM177.226 111.963l-8.9 7.312-5.526-1.586-7.472 24.438 17.521-21.853zM187.404 127.101l1.154-1.318-1.041-2.731zM200.583 156.891l2.681-1.219-3.777-9.682zM186.128 119.056l.1-3.59.764 2.004 6.377-11.717-.022-.461.299-.049.874-1.607-22.882 23.49-3.527 8.565 7.217-3.603 3.42.529 2.638-4.847-.389-4.57 1.244 2.997zM190.654 123.396l3.611 1.064-.758-15.824-5.812 10.677 1.981 5.198zM179.554 134.273l-2.549 4.68 3.928-4.476-1.359-.21zM181.616 130.483l-1.049 1.926 1.184-.345zM206.319 159.375l.636-3.73-1.778.807zM194.774 135.092l-.433-9.041-3.193-.942-.866.987 3.363 8.822zM208.907 153.102l1.052-.48-.68-1.708zM195.786 124.909l3.045.897-3.632-13.176z"/><path fill="#FFF" d="M197.074 136.971l-.715-.112.514 10.733-4.315-11.321-6.55-1.009 9.878 23.769 3.258-1.482zM191.94 134.654l-2.777-7.284-1.824 2.08-.071 2.569-2.325.68.389.934zM183.494 134.871l.792 18.366-2.637-16.716-9.003 8.574 4.174-9.404c-3.749.86-7.878 1.682-11.452 2.725l3.462-8.407-2.416 2.481 2.75-5.223-16.125 20.113-.253.316-.846 1.055.864 2.646 29.024 14.035 12.692-5.78-10.247-24.661-.779-.12zM185.857 128.864l.179-6.503-3.056 5.614 1.176 2.828z"/><path opacity=".5" fill="#FFF" d="M118.196 63.299l-.79.007.61 1.086 2.174.81-1.073-1.912z"/><path fill="#070708" d="M119.117 63.29l-.964-1.717-1.711.017.964 1.716.79-.007z"/><path opacity=".5" fill="#FFF" d="M119.117 63.29l-.964-1.717-1.711.017.964 1.716.79-.007zM174.398 7.463l-.002.001.002-.001c-.464-.268-.72-.419-.72-.419.179.919.267 1.797.315 2.657l1.813-1.438c-.579-.325-1.056-.597-1.408-.8zM131.123 252.998l.559-1.121-.367.037-.935.95zM129.918 252.055h-.001l-.332.667.264.047.154-.723z"/><path fill="#070708" d="M130.003 252.046l-.154.723.531.095.935-.95-1.203.121z"/><path opacity=".5" fill="#FFF" d="M130.003 252.046l-.154.723.531.095.935-.95-1.203.121zM116.097 316.373l-.484 1.313 1.404.523.626-1.7z"/><path fill="#070708" d="M117.643 316.509l.274-.743-1.602.015-.218.592z"/><path opacity=".5" fill="#FFF" d="M117.643 316.509l.274-.743-1.602.015-.218.592zM123.804 317.051v3.687l1.498.559v-4.114z"/><path fill="#070708" d="M125.302 315.695l-1.498.014v1.342l1.498.132z"/><path opacity=".5" fill="#FFF" d="M125.302 315.695l-1.498.014v1.342l1.498.132z"/><path fill="#070708" d="M126.678 57.755l1.468.152-.092-.152z"/><path opacity=".5" fill="#FFF" d="M126.678 57.755l1.468.152-.092-.152z"/><path fill="#070708" d="M133.633 58.475l1.574.163h.001l.106.011-.352-.894h-1.612z"/><path opacity=".5" fill="#FFF" d="M133.633 58.475l1.574.163h.001l.106.011-.352-.894h-1.612zM134.136 232.074l-.943.673 1 .103v.001l.593.061.701-.839h-.692v.001z"/><path fill="#070708" d="M133.53 232.074l-.545.652.208.021.943-.673z"/><path opacity=".5" fill="#FFF" d="M133.53 232.074l-.545.652.208.021.943-.673zM130.442 235.773h-.007l-1.21 1.449 1.948-1.455z"/><path fill="#FFF" d="M131.173 235.767h-.033l-.698.006.731-.006z"/><path opacity=".5" fill="#FFF" d="M131.173 235.767h-.033l-.698.006.731-.006zM129.086 239.726l1.867-2.232-1.867.018z"/><path fill="#070708" d="M129.086 237.512l1.867-.018 1.455-1.74-.466.005-.001.001-.764.007h-.004l-1.948 1.455-1.892 2.261v2.339l1.753-2.096z"/><path opacity=".5" fill="#FFF" d="M129.086 237.512l1.867-.018 1.455-1.74-.466.005-.001.001-.764.007h-.004l-1.948 1.455-1.892 2.261v2.339l1.753-2.096zM158.488 88.882l-.316-1.519-1.227.127.312 1.381zM154.081 88.84l.433.004-.528-1.048-1.239.128.48.908zM159.474 98.694l-4.583-9.102-.391.041-.805.083 8.173 15.447-3.311-15.95-1.195.123z"/><path fill="#070708" d="M157.362 89.336l1.195-.123-.069-.331-1.231-.011z"/><path opacity=".5" fill="#FFF" d="M157.362 89.336l1.195-.123-.069-.331-1.231-.011z"/><path fill="#070708" d="M154.891 89.592l-.377-.748-.433-.004-.854-.008.468.884.805-.083z"/><path opacity=".5" fill="#FFF" d="M154.891 89.592l-.377-.748-.433-.004-.854-.008.468.884.805-.083zM139.342 93.892l-11.056 22.084h.536l-.001-.002h.863v.002h.278l11.2-22.372zM140.124 92.33h1.676l.442-.883-1.82.288z"/><path fill="#070708" d="M140.124 92.33l-.782 1.562 1.82-.288.638-1.274h-1.369z"/><path opacity=".5" fill="#FFF" d="M140.124 92.33l-.782 1.562 1.82-.288.638-1.274h-1.369z"/><path fill="#070708" d="M138.677 90.621h2.112l.386-.39-.196.39h1.677l.872-1.743-3.483.36z"/><path opacity=".5" fill="#FFF" d="M138.677 90.621h2.112l.386-.39-.196.39h1.677l.872-1.743-3.483.36zM137.85 58.846l-.037.062 1.715.177-.67-1.33h-.443l.077.013z"/><path fill="#070708" d="M136.442 58.765l.721.074-.001.001.651.068.037-.062.642-1.078-.077-.013h-2.187z"/><path opacity=".5" fill="#FFF" d="M136.442 58.765l.721.074-.001.001.651.068.037-.062.642-1.078-.077-.013h-2.187zM133.455 201.357h-2.544l-.003.008-.003.008 2.422.28.004-.007zM134.425 201.357l2.916.432-.042.315-.001.008 1.882.218.001-.008.034-.256 4.306.636.593-1.345h-8.698z"/><path fill="#070708" d="M139.181 202.322l-.001.008 4.286.496.055-.124-4.306-.636z"/><path opacity=".5" fill="#FFF" d="M139.181 202.322l-.001.008 4.286.496.055-.124-4.306-.636z"/><path fill="#070708" d="M137.341 201.789l-2.916-.432h-.97l-.124.289-.004.007 3.971.459.001-.008z"/><path opacity=".5" fill="#FFF" d="M137.341 201.789l-2.916-.432h-.97l-.124.289-.004.007 3.971.459.001-.008z"/><path fill="#070708" d="M130.911 201.357h-.139l.133.016.003-.008z"/><path opacity=".5" fill="#FFF" d="M130.911 201.357h-.139l.133.016.003-.008z"/><path fill="#070708" d="M126.025 121.337h1.253l.144-.287z"/><path opacity=".5" fill="#FFF" d="M126.025 121.337h1.253l.144-.287z"/><path fill="#070708" d="M127.525 121.028l-.247.309h1.921l.627-.783z"/><path opacity=".5" fill="#FFF" d="M127.525 121.028l-.247.309h1.921l.627-.783zM204.674 20.135c-.835-.202-1.697-.412-2.593-.635l-1.624 9.648 4.217-9.013zM151.702 233.492l-5.733-9.863 2.604 10.051.645.102h-.619l.149.575 1.591.164-.181-.699.42.725.235.023.481.05v.001l2.13.22 1.662-4.09z"/><path fill="#070708" d="M148.573 233.68l.026.102h.619z"/><path opacity=".5" fill="#FFF" d="M148.573 233.68l.026.102h.619zM141.327 232.534l.229-.461h-1.676l-.107.215z"/><path fill="#070708" d="M140.568 233.51l.259.027.5-1.003-1.554-.246-.54 1.085 1.334.137z"/><path opacity=".5" fill="#FFF" d="M140.568 233.51l.259.027.5-1.003-1.554-.246-.54 1.085 1.334.137zM121.498 63.267l-1.29.012.579 2.145 1.726.643-.756-2.802z"/><path fill="#070708" d="M121.498 63.267l.259-.002-.465-1.721-.162.001v-.001l-1.386.014.464 1.721z"/><path opacity=".5" fill="#FFF" d="M121.498 63.267l.259-.002-.465-1.721-.162.001v-.001l-1.386.014.464 1.721z"/><path fill="#070708" d="M123.804 336.032h2.374l.646-1.329h-3.02z"/><path opacity=".5" fill="#FFF" d="M123.804 336.032h2.374l.646-1.329h-3.02z"/><path fill="#070708" d="M128.617 90.42l-.214.022.001.001-.196.178h.302z"/><path opacity=".5" fill="#FFF" d="M128.617 90.42l-.214.022.001.001-.196.178h.302z"/><path fill="#070708" d="M115.348 335.254l.246-.551h-.246z"/><path opacity=".5" fill="#FFF" d="M115.348 335.254l.246-.551h-.246zM138.699 150.229l-1.512.272-.033.741 1.494.153z"/><path fill="#070708" d="M138.79 148.189l-.603.108-.91.164-.09 2.04 1.512-.272z"/><path opacity=".5" fill="#FFF" d="M138.79 148.189l-.603.108-.91.164-.09 2.04 1.512-.272zM145.299 58.844l.028-1.089h-1.499l-.021.853zM143.785 59.464l-.001.061 1.494.155.006-.216z"/><path fill="#070708" d="M145.299 58.844l-1.492-.236-.022.856h1.499z"/><path opacity=".5" fill="#FFF" d="M145.299 58.844l-1.492-.236-.022.856h1.499z"/><path fill="#070708" d="M126.025 281.229l.246.05.157-.05z"/><path opacity=".5" fill="#FFF" d="M126.025 281.229l.246.05.157-.05zM118.387 287.609l.107.047-.154-1.064h-1.131l1.02.949z"/><path fill="#070708" d="M118.229 287.541l-1.02-.949h-1.164z"/><path opacity=".5" fill="#FFF" d="M118.229 287.541l-1.02-.949h-1.164zM138.489 153.078h.085l.006-.142-.044.006z"/><path fill="#070708" d="M137.552 153.078h.937l.047-.136z"/><path opacity=".5" fill="#FFF" d="M137.552 153.078h.937l.047-.136z"/><path fill="#070708" d="M116.209 145.219l.936.011-.25-.245z"/><path opacity=".5" fill="#FFF" d="M116.209 145.219l.936.011-.25-.245zM154.902 63.68l.509-.739-.242.003zM155.852 62.301l.755-1.096-.811.007-.378 1.044z"/><path fill="#070708" d="M155.169 62.944l.242-.003.441-.64-.434-.045z"/><path opacity=".5" fill="#FFF" d="M155.169 62.944l.242-.003.441-.64-.434-.045zM127.333 295.937v.076l.272.254.832-1.487-1.104-1.027zM130.342 288.301l-1.566 2.801.619-2.801h-1.535l-.691 3.127.164.071v.946l1.589.692.164.071v.41l2.973-5.317h-.533zM133.015 286.592h-.6l.306.525z"/><path fill="#070708" d="M129.395 288.301l.377-1.709h-1.535l-.377 1.709z"/><path opacity=".5" fill="#FFF" d="M129.395 288.301l.377-1.709h-1.535l-.377 1.709z"/><path fill="#070708" d="M127.333 296.755l.272-.488-.272-.254z"/><path opacity=".5" fill="#FFF" d="M127.333 296.755l.272-.488-.272-.254z"/><path fill="#070708" d="M131.526 288.301h.533l.662-1.184-.306-.525h-1.117l-.956 1.709z"/><path opacity=".5" fill="#FFF" d="M131.526 288.301h.533l.662-1.184-.306-.525h-1.117l-.956 1.709z"/><path fill="#070708" d="M128.922 293.137l-1.589-.692v1.308l1.104 1.027.649-1.162v-.41z"/><path opacity=".5" fill="#FFF" d="M128.922 293.137l-1.589-.692v1.308l1.104 1.027.649-1.162v-.41zM138.691 237.42l-1.483.014-5.6 11.23 1.568.217 5.801-11.634z"/><path fill="#070708" d="M138.977 237.247l.779-1.563-1.684.016-.864 1.734 1.483-.014z"/><path opacity=".5" fill="#FFF" d="M138.977 237.247l.779-1.563-1.684.016-.864 1.734 1.483-.014zM138.497 120.836l-.022.501h5.17l-.635-1.431-2.667.55z"/><path fill="#070708" d="M140.343 120.456l2.667-.55-.843-1.897-3.578.738-.092 2.089z"/><path opacity=".5" fill="#FFF" d="M140.343 120.456l2.667-.55-.843-1.897-3.578.738-.092 2.089zM135.059 282.938h-.748l.67.138zM136.014 281.229h-1.592l1.47.216z"/><path fill="#070708" d="M133.441 282.758l.87.18h.748l.833-1.493-1.47-.216h-.126z"/><path opacity=".5" fill="#FFF" d="M133.441 282.758l.87.18h.748l.833-1.493-1.47-.216h-.126zM129.738 281.994l.22.046-.409-.37z"/><path fill="#070708" d="M129.738 281.994l-.189-.324.409.37.177.036.606.125.215-.972h-1.534l-.148.669z"/><path opacity=".5" fill="#FFF" d="M129.738 281.994l-.189-.324.409.37.177.036.606.125.215-.972h-1.534l-.148.669z"/><path fill="#FFF" d="M123.984 86.85l-1.774-.017v-.001l1.774.017zM150.813 234.57l-.235-.023-.42-.725.181.699-.944-.096-.374.989-.068.182.116-.002 1.865-.018.36-.955v-.001zM159.723 315.363l-.507-.051v.001l.009.056.491-.006zM136.675 251.372l.534-.054.362-.037-.045.203 2.256.465 3.234.666 1.432.295v-2.326l.581-.059h-.002l-.579-.08v-1.674l-.815.645.815-1.443v-4.371l-5.58 6.069 4.535.63-.152.404-4.333.439-.002.001-.246.024-.045-.065-.461-.667-.66-.955-1.039-.143-.643-.089-.679-.094.395.571.532.769.193.279.001.001.371.537.04.058zM131.942 235.759l-.765.008.764-.007zM130.538 235.772l-.096.001.698-.006zM131.174 235.767h.003H131.14h.033zM128.821 115.974l.001.002.713.853.403.481-.178-.932-.076-.402v-.002zM128.068 87.232l1.378-.32 12.779.122 1.149-1.16-1.261-2.078-13.832 3.104-3.148-.03h-.001l3.145.03-.24.055zM120.431 79.628l-1.599-2.169-.949 6.576 2.021-.754zM105.516 29.944l-.013.124.073-.096-.06-.028zM136.228 57.755h1.578l.052-.088.517-.871.261-.437 5.206.824.053-2.102-5.416 1.253.032.005-.032-.005-.433-.068-1.308-.208v.001l-.641 1.079-.137.229-.23.388zM135.896 61.403l.206-.002.033-.672.008-.154-.038.079-.359.751z"/><path fill="#FFF" d="M116.495 93.646l.175-.296 2.469-4.156.167-.281 1.057-1.78.182-.307 1.137.011 3.487-.782-1.924-2.61-.814-1.105.999-.372.001-.001.262-.442 1.863-3.137 1.265-2.132.512-.861v5.118l-.027.01.258 2.266.302 2.661 13.422-3.011-1.963-3.233-10.239-8.727-1.753-1.495v2.914l-.845 1.423-1.266 2.132-2.679 4.512-.211.356-.62 1.044-.948 1.596-.767.286-9.351 3.484 4.629.044.7.007.852.009.657.006-.147 1.015-.23 1.595-.025.175-.476 3.291zM142.049 201.196l-.177.161h.144zM117.5 122.345l.773 1.343.493-.48.831-.811-.774-1.343-.83.81zM122.524 127.482l-.067.133.229.149zM117.162 122.675l-.056.054-1.127 1.099 1.11 1.015 1.126-1.099.057-.056zM115.675 115.587l-.327-.568v1.324l.856-.865zM116.936 180.326l2.561 1.256 4.693-.284 1.059-.065 1.299-.249-.187-.063-2.911-.988-2.788.169-.685.041z"/><path fill="#FFF" d="M119.138 75.345l1.599 2.169.951-6.583.563-3.906.145-1.001-1.609-.6-.206-.076-.063.437-.082.564-.27 1.872zM116.636 239.874l.81.202.509-1.423.169-.471-.371.422zM115.348 322.74l.162-.438-.162-.004zM140.588 257.033l.567-.008h.021l1.672-.021.151-.4.027-.071.457-1.212.035-.093-1.163-.21 1.372.247.721-.165v-.653l-6.429-1.324-.817-.169-.042.191-.199.903 3.844.69-2.057-.369 1.099 1.591.115.167.626.906zm1.082-2.138l-.15.398-.334-.485.484.087zM135.089 257.104l.188-.002 1.071-.013.677-.009v-.001l-.075-.263-.34-1.184-.077-.268-.421-1.468-.628-.113-.34-.061-1.081-.195.299 1.045.122.424.413 1.442zM115.348 272.368v.005l.001-.001zM118.34 286.592l.154 1.064-.107-.047.116.11 1.791 1.667 4.277 3.979.731.682 1.069.994.962.896V293.677l-.548-.51-1.483-1.38-.112-.103-.341-.318-1.908-1.776 4.228 1.838.691-3.127.377-1.709h-8.517l-1.595-1.485-2.199-2.046-.061.019-.282.092-.235-.463v2.074l1.944 1.809zM118.387 287.609h-.001zM123.579 264.77l-3.218-.416-1.487-.192-.243 1.396 1.487.191 2.793.359 2.546.329.004.058.005.06.11 1.38.145 1.84-2.56.291-2.357.268-1.513.171-1.552.176-.252 1.448 1.552-.176 1.014-.115 2.097-.237 5.183-.588V278.73l1.316.196.437-.143.944-.306.892-4.043-3.589-7.022v-2.159l-.065-.008-.246-3.115-.073-.918.384.528v-.619l-2.36-.8.091 1.145.279 3.53zM115.348 265.584v1.102l2.146-2.702-.853-.109zM117.228 247.3l-1.88-.387v.464l4.075.666-.18.211.312-.19.821.135.018-.013.233-.186z"/></svg>