<svg xmlns="http://www.w3.org/2000/svg" width="80" height="80" viewBox="439.64 51.2 80 80"><path fill="none" d="M458.695 130.649c.227-.155.407-.402.407-.711.023-.464-.045-.68.228-.959.612-.65 1.066-.124 1.746-.093.408 0 .704-.03 1.089.031.341.032.75.032.999-.093.431-.248.702-.155.906-.248.114-.061.159-.185.318-.248.113-.062.272-.093.386-.154.294-.155.362-.31.566-.588.658-.897.794-.216 1.633-.248.432 0 .568-.124 1.021-.062.771.124.885.372 1.224.557.023 0 .023.031.046.031l.59.279c.18.061.431 0 .634.031.296.031.863.063 1.136-.062.453-.248.521-.34.93-.62.272-.185.771-.03 1.065-.03.34 0 1.156-.093 1.474-.186.182-.062.5-.371.567-.526.091-.216-.09-.711-.204-.866a3.453 3.453 0 00-.294-.278c-.317-.31-.341-.279-.84-.31-.34 0-.226 0-.453.093-.159.063-.317.031-.477.124-.293.125-.316.217-.589 0-.228-.186-.204-.371-.249-.65-.092-.649-.523-.68-.5-1.948.023-.618.567-1.33 0-1.886-.204-.217-.453-.372-.681-.557-.341-.248-.794-.434-1.18-.588-.091-.062-.136-.062-.204-.124l-.431-.186c-.091-.03-.091-.062-.204-.092-.453-.063-.975.587-1.36.309-.681-.463.205-1.206.022-1.824-.091-.31-.612-.835-1.202-.649-.454.155-.272.959-.478 1.33-.158.248-.316.494-.726.494l-.204-.216c-.498-.464.499-1.608.658-2.166.068-.247-.022-1.546-.091-1.732-.045-.124-.385-.401-.657-.309-.136.062-.453.371-.521.495-.182.371-.046.587-.591.463-.112-.278-.249-.525-.226-.835.021-.186.203-.557.293-.711.318-.587-.021-1.299.409-1.64.228-.186.385-.402.657-.494.318-.125.567-.588.635-.928.182-.649.408-.99.318-1.702-.069-.557-.613-1.423.09-1.702.114-.031.158-.031.295-.031.204 0 .454 0 .635-.062.25-.093.681-.278.885-.433.248-.215.476-.463.589-.772.341-.867.159-.434.068-1.052-.067-.557-.067-.897-.408-1.299l-.159-.186c-.225-.186-.361-.186-.521-.464-.09-.154-.113-.123-.204-.247l-.068-.124c-.022-.093 0-.062-.045-.155-.022-.063-.022-.093-.045-.125-.251-.402-.659-.185-.795.155-.045.094-.068.217-.113.279-.204.495-.113.278-.34.649-.295.495-.386.433-.295 1.021.091.463-.408.927-.794.68-.272-.186-.454-.496-.612-.804-.183-.372-.636 0-.84-.279h-.021l-.023-.03-.022-.032c-.272-.37-.159-.278-.227-.772-.023-.372-.204-.649-.228-1.114-.022-.278-.067-.247-.181-.463-.703-1.299.158-2.35-.183-2.876-.248-.402-.656-.742-1.064-.99-.159-.124-.228-.216-.386-.278a.884.884 0 00-.635-.062c-.159.062-.295.186-.544.093-.455-.217-.251-.557-.295-.989-.092-.62-.16-.526-.499-.897-.545-.557-.341-.341-.522-.804-.227-.063-.294-.063-.545.031-.021.062-.021.124-.045.216s-.045.092-.068.186c-.067.123-.136.278-.182.371-.091.186-.385.433-.544.526-.228.154-.453.278-.658.433-.113.093-.431.433-.477.587-.068.155-.091.247-.182.372l-.091.154c-.204.217-.499.434-.749.619-.204.124-.431.371-.794.278-.137-.062-.272-.154-.272-.309-.023-.217.113-.155.159-.341.182-.463-.386-.865-.793-.494-.204.155-.228.494-.408.68-.068.062-.091.093-.159.155-.045.062-.068.062-.113.124-.091.062-.228.123-.363.185-.113.062-.16.124-.296.186-.158.124-.227.093-.453.093-.272 0-.182.062-.386.155-.182.062-.228.062-.386.154-.136.093-.204.155-.363.031-.431-.279-.771-.402-.976.247-.159.464-.521.31-.635.155-.294-.372-.068-1.051 0-1.392.046-.155 0-.866-.045-1.021-.091-.248-.34-.464-.635-.464-.317 0-.793.093-1.065.031-.295-.062-.477-.31-.477-.649 0-.401.022-.649-.34-.804-.341-.155-.5.186-.681.34a.93.93 0 01-.296-.123c-.159-.156-.204-.804-.136-1.052.113-.557.953-1.083 1.52-.99.159 0 .114.062.34.062.341-.031.522-.34.703-.587.113-.186.227-.31.386-.433.181-.124.295-.309.567-.309.522-.062.635.495.839.835.113.155.272.34.386.433.499.433.703.371 1.202.062.454-.31.431-.402.931-.742.022-.742-.023-1.082.271-1.608.137-.216.228-.309.387-.587.272-.526.021-.742 0-1.175-.023-.155 0-.309 0-.463-.091-.557-.567-.866-.976-.34-.158.217-.272.34-.408.525h-.341c-.181-.587-.204-.587 0-1.175.091-.186.159-.248.204-.495.046-.186.023-.434.046-.65.021-.433.226-.742.204-1.175-.047-.526-.114-.681.09-1.207.114-.247.477-.556.885-.34.227.124.271.155.612.124.521-.031 1.43-.217 1.883-.093.204.031.362.124.545.155.226.031.385-.062.521-.155.249-.248.317-.619.432-.99.113-.34.294-.711.317-1.082 0-.278 0-.371-.136-.587-.432-.711-.182-1.577-.023-2.351.092-.587-.521-.928-.816-1.175-.408-.339-.93-.649-1.52-.618-.25.031-.205.093-.568.093-.226-.278-.249-.247-.249-.742 0-.309-.136-.587-.294-.742-.477-.434-.432-.309-.952-.526-.681-.279-.726.557-1.43.896-.317.155-.385.186-.59.402-.34.34-.316.619-.521.959-.228.34-1.066 1.113-1.475 1.02-.454-.123-.204-.525-.183-.649.068-.31-.181-.464-.294-.681-.249-.464-.067-.433-.091-.804-.067-.557-1.179-.341-1.247.031-.022.185.363.587.431.742.068.155.068.062.092.216v.31c-.022.186-.137.31-.25.464-.022.031-.022.062-.045.093-.068.093-.046.063-.159.155-1.134.835-.976.681-1.882.309-1.089-.464-.704-.866-1.134-1.113-.363-.217-.521.154-.862-.186-.341-.341-.432-1.207-.613-1.702-.204-.587-.612-.804-.521-1.701.113-1.082.386-1.36-1.134-2.071-.183-.093-.228-.125-.387-.217l-.385-.155V92.05l.051-.012h.003l.067-.016c.049-.035.034.075.015-.003l-.015.003c-.009.006-.017.008-.03.027-.008.01-.011.008-.017.012.006.007.009.006.017.02.341-.062.681-.34.93-.495.453-.31.657.062 1.043.124.613.125.772-.278 1.181 0 .203.125.271.155.316.402.136 1.021-.771 1.948-1.564 1.948-.591 0-.636.063-1.021.34-.228.125-.681.464-.976.31v17.319c0-.031.022-.062.024-.028 0 0 .227-.155.272-.34.09-.279-.228-.588.045-1.64.137-.526.137-.526 0-1.052-.113-.495-.068-.525.023-1.082.045-.341.068-.186.158-.403.091-.186 0-.372.091-.557.046-.092.046-.03.092-.185.045-.093.045-.155.09-.248.228-.495.84-.928.477-1.485-.272-.433-.272-.31-.499-.464-.067-.557.158-.711.227-.897.182-.402-.272-.248.589-1.423.091-.125.227-.31.295-.464.113-.248.136-.34.249-.558.499-.896.182-1.144.408-1.979.159-.649.817-.711.953.619.067.711-.113.711.453 1.515.091.124.453.496.204.928-.113.186-.612.495-.521 1.021.023.278.136.34.272.495.136.184.159.309.34.463l.749.835c.136.216.226.278.226.587s-.045.495-.113.742a3.445 3.445 0 01-.929 1.454c-.204.155-.59.371-.84.711-.091.154-.113.495-.068.68.046.186.228.278.363.402.612.464 1.089-.278 1.837.526.203.216.227.247.182.649a4.345 4.345 0 01-.295.866c-.068.155-.317.464-.408.804-.137.34-.453.649-.794.804-.635.279-2.313 2.722-2.428 3.155-.067.216-.045.464-.021.743.045.525.181.989.045 1.454-.317 1.175.363 1.02.317 1.855-.045.587-.294-.124-.272 2.134.023.588.137.897-.021 1.485-.114.434-.204.867-.363 1.238-.068.186-.16.341-.227.558a.772.772 0 01-.159.309l-.023.03-.158.093c-.114.031-.204 0-.272-.093-.114-.123-.046-.154-.341-.433-.046-.031-.046-.031-.091-.093l-.136-.093v5.531h4.161c.049-.039.093-.067.148-.119.136-.123.181-.092.294-.247.228-.31.251-.464.068-.835-.634-1.423.295-1.175.59-2.165.318-1.02.454-.742.862-1.268.294-.372.362-.712.521-1.145a2.7 2.7 0 01.182-.371c.204-.463.136-.835-.023-1.299a3.033 3.033 0 00-.181-.402c-.25-.525.045-.804.136-1.021.182-.401.249-.989.84-.989l.248.649c.249.866 1.292.031 1.883 0 .612-.063.681.433 1.111.649.793.433 1.61-.185 2.019.681.521 1.114 1.587.526 2.223.216l.114-.03c.453-.309.363-.866.499-1.33.137-.463.545-.649.952-.834l.523-.341c.248-.154.34-.092.544-.34.09-.123.112-.154.226-.216.113-.092.137-.062.228-.186.566-.68.477-.278 1.338-.433.362-.062.317-.062.566.155.272.248.159.278.183.681.045.557.386.989.272 1.515-.114.434-.408.743-.544 1.207-.318 1.021.317.742-.794 1.856l-.362.494c-.407.496-.703-.062-.975-.092-.387-.031-.681.371-1.045.185-.226-.123-.361-.31-.634-.185-.34.123-.476.68-.907.834-.295.093-.363.155-.613.278-.204.124-.316.248-.544.341-.635.278-.952-.032-1.384-.186-.159-.032-.204-.062-.34-.125-.363-.216-.613-.309-1.021-.092-.34.155-.839.496-.93.835-.158.65.636 1.021.228 3.125a3.85 3.85 0 00-.045.549h2.682l.085-.085c.159-.154.296-.217.454-.402.203-.217.363-.742.658-1.114.068-.093.158-.155.204-.248.068-.186 0-.216.045-.371.023-.063.137-.218.182-.279.248-.218.703.123.521.495-.113.216-.386.279-.431.464-.022.092-.068.092 0 .216.045.185.045.062.113.185.278.431.231.834.313 1.139h2.511c.242-.107.464-.204.76-.365.091-.06.25-.122.342-.183zm4.216-13.546c.136-.31-.023-.217.272-.403.045-.03-.068-.03.135-.03l.228.093c.159.123.432.897.386 1.082-.159.711-.999.124-1.112-.216-.092-.217.022-.372.091-.526zm-1.565 1.484c.34-.155.611.062.771.247.204.216.204.433.272.742.091.464.068.526-.159.804-.204.248-.294.372-.703.279-.294-.063-1.065-.681-1.134-.958-.112-.465.659-.959.953-1.114zm-18.554-30.342c-.09.154-.226.217-.362.372-.158.155-.271.155-.453 0-.408-.31-.158-.433-.34-.866-.046-.155-.114-.278-.182-.433-.091-.248-.114-.773-.046-1.114.113-.433.363-.525.567-.619.228-.124.567.093.793.341.386.433.432 1.732.023 2.319zm6.214 19.888c0-.464.068-.526.296-.619 0 0 .068-.123.316.093l.613.742c.227.433.159 1.021-.296 1.268-.226.124-.611.094-.794-.031-.52-.37-.135-.896-.135-1.453zm6.419 9.926c-.204.433-.794.681-.907.742-.091.062-.181.186-.272.278-.271.217-.248.341-.407.712-.362.773-.793.619-1.293.217-.181-.155-.43-.309-.611-.463-.567-.496-.295-.217-.727-.403-.658-.278-.477-.587-.34-.959l.067-.37v-.031s.023 0 .023-.03l.022-.31-.567-.804c-.317-.371.158-.804.113-1.33-.046-.557-.295-.742-.727-.928-.136-.03-.204-.123-.294-.216-.295-.34-.182-.433-.091-.866.067-.372.362-1.516 0-1.825-.453-.402-.272-.248-.657-.433h-.001v-.466c1.86-.154 1.338.526 2.495.774.431.123.362.215.635.433.84.741.84.432 1.293.896l.476.618c.658.773-.228 1.021-.249 1.578 0 .341.362.743.612.99.113.093.136.186.249.278.59.648.704.588.886.772.341.311.522.713.272 1.146z"/><path fill="none" d="M516.838 51.2c.041.038.081.071.122.118.137.216.612.587.839.68.249.124.317.124.477.31.136.185.228.34.204.618-.045.465-.408.65-.749.835-.272.124-.613.495-.793.742-.137.217-.273.649-.567.99a5.095 5.095 0 01-.341.402c-.316.31-.543.464-.974.557-.25.062-.432.093-.658.124-.227.063-.5.063-.727.093-.271.062-.271.124-.657.124-.296.03-.431.03-.612-.124-.251-.155-.612-.372-.771-.588 0-.031-.022-.031-.022-.031v-.03l-.047-.062c-.135-.248-.045-.34.069-.525.249-.403.204-.711.635-1.3.431-.587.294-.773.476-1.423.114-.433.341-.804.069-1.175-.145-.183-.361-.278-.608-.334h-1.343c-.572.071-1.109.167-1.384.087l-.146-.087h-9.03c.011.009.023.015.033.024.408.341.408.465.408 1.145 0 .495-.045.989-.271 1.33-.159.248-.612.587-.862.68-.477.186-.703.032-.931-.216-.363-.403-.182.062-.567-.588-.135-.248-.181-.217-.021-.495.635-1.021.136-1.423.432-1.793.032-.041.049-.058.073-.087h-7.385c.02.008.034.02.057.026h.272c.271.093.431.495.339.743-.112.37-.316.711.455.928.316.093.748.433.702.804-.068.619-.93.959-1.451.805-.567-.217-.681.216-1.18.247-.182 0-.386-.154-.521-.217a.582.582 0 00-.749.371c0 .032 0 .063-.022.093l-.022.062-.023.031s-.022 0-.022.031a1.641 1.641 0 01-.386.463c-.159.124-.34.154-.477.278-1.043.835-.681.712-.884 1.516-.069.248-.319.866-.5 1.052-.453.464-.294.278-.771.371-.34.093-.793.433-.725.835.021.124.089.185.157.247.113.155.227.279.363.403.317.31.385.618.181 1.145-.227.586-.636.154-1.11.339-.749.31-.521.433-1.021.062-.386-.279-.726-.186-.908.309-.136.31-.249.495-.521.649-.136.092-.09.124-.181.185l-1.021.463h-.023c-.385.155-.702.155-.884.341-.25.247-.362.464-.091.773.363.402.704.433 1.293.68.204.061.249.247.477.34l.181.062.023.031c.021 0 .021.032.021.032.159.216-.204 1.67.953 1.268.25-.062.386-.185.567.062.227.278.046.371.182.619.204.34.794.277 1.157.092.702-.371.839-.278 1.314.185.181.186.34.403.657.464.931.124.908.371 1.361.989.09.124.227.248.476.248.657-.031.839-.402.998-.526.091-.062.204-.093.272-.154.227-.217.453-.341.839-.341.091.185.25.248.295.402.113.216 0 .248.182.464.317.34.521.278.93.124.726-.279 1.065.061 1.52-.155l.521-.31c.136-.093.204-.217.362-.31.363-.278.545-.278 1.021-.278.386 0 .249 0 .499.185l.158.125c.069.061.114.123.159.185.294.402.408.278.748.557.091.062.25.217.295.31.135.434.09.525.431.928.204.248.431.402.567.711.137.309.341 1.669 1.202.896.408-.34.952-.959 1.43-1.145.43-.155 1.927 0 2.517-.093.5-.062.612-.155.93-.402.159-.155.567-.495.727-.557.318-.124.727.031 1.18-.124.271-.123.657-.248.906-.402.294-.217.386-.495.318-.866-.229-1.052.43-.928 1.11-1.392l.159-.093c.25-.186.499-.124.681-.31l.612-.68c.294-.341.498-.217 1.043-.248.498 0 .682-.093.886.309.09.155.021.649.18 1.114.341 1.113 0 .989-.386 1.948-.159.402-.067.742-.182 1.114-.137.402-.635.711-.884 1.052-.727.989-.747-.279-1.541.185l-.092.062a.825.825 0 01-.09.093c-.455.34-.817-.68-1.293-.186-.114.093-.182.248-.273.372-.271.309-.655.434-.996.65-.318.186-.659.464-1.09.495-1.112.063-1.838-1.236-2.632.496-.453 1.021-.067 1.268-.157 2.319-.047.401-.204.649-.204 1.144.021.681.182 1.608 1.065 1.546.34-.031.612-.31.794-.495.43-.433.885-.804 1.36-1.269.386-.37.341-.526.545-.741.316-.34.61-.217.839.123.386.681.112.618.271 1.021.114.248.431.557.635.65.433.216.704.031.977-.186a4.876 4.876 0 011.202-.743c.18-.093.249-.154.408-.247 1.429-.68.521-1.021.929-1.639.521-.774 1.271-.124 2.042-.217.727-.092.612 0 1.155.062.408.062.953-.062 1.247-.031.863.124.729.959 1.362-.278.886-1.639 1.202-.773 2.043-.742h-.002v33.926c-.794-.186-.682.185-1.112.618-.341.372-.816.402-.929.99-.045.372 0 .217-.182.464-.114.125-.341.31-.522.186-.59-.371-.295-.805-.59-1.207-.068-.125-.317-.34-.544-.31-.227.061-.294.372-.476.433-.137.062-.431-.062-.476-.248l-.003-.019c-.006.019-.012-.081 0 0a.39.39 0 00.003-.074v-.093c.135-.557.408-.742.565-1.361.227-.803-.09-.309.522-.896l.045-.032c.453-.463.635.063 1.021-1.299.205-.742.862-1.02.522-2.01-.113-.371-.045-.433-.295-.773l-.43-.649c-.296-.433.067-1.329-.592-1.608-.292-.124-.588.155-.678.372l-.229.866c-.227.866-.159.588-.747 1.175-.114.092-.022.062-.159.092l-.114-.092c-.182-.186-.341-.526-.386-.804-.045-.433-.022-.773-.294-1.021-.977-.897-.817-.866-1.748-.929-.406-.031-.498-.401-.861-.495-.565-.185-.498.649-1.043.928-.203.093-.271.124-.431.248-.113.062-.249.217-.408.248-.181.031-.43-.124-1.02.248-.159.062-.271.155-.455.032-.271-.155-.476-.526-.839-.218-.227.186-.294.496-.588.712-.273.216-.567.278-.704.619-.113.247 0 .464-.091.619 0 0-.316.31-.339.31-.318.216-.727-.248-.749-.495-.09-.526-.022-.65-.408-.929-.386-.278-.59.093-.794.31-.135 0-.182 0-.271-.031-.682-.217.271-1.114.476-1.917.092-.34.271-.433.498-.649.227-.248.545-.372.749-.68.159-.248.431-1.331.453-1.67.047-.372.069-.587.432-.835.205-.093.409-.124.613-.185.271-.093.385-.125.726-.155.612 0 .749-.248 1.043-.619a1.75 1.75 0 01.453-.371c.478-.309.386.032 1.406-.309.182-.062.682-.371.84-.526l.023-.03.09-.155c.25-.401.068-.834-.046-1.329-.045-.217-.181-.372-.227-.619-.068-.496-.272-.712-.567-1.114-.362-.496-.068-.959-.295-1.392-.045-.124-.271-.371-.408-.433-.271-.093-.453.093-.567.216-.137.155-.294.649-.341.897-.043.248-.067.464-.18.681-.047.124-.567.587-.68.587-.137 0-.433-.371-.5-.495-.137-.248-.022-.587-.092-.866-.022 0-.022 0-.022-.031l-.159-.309c-.045-.062-.135-.155-.203-.247-.16-.155-.34-.278-.499-.402-.59-.433-.727-.372-1.452-.186-.137.031-.612.155-.727.248-.406.216-.77.525-.974.928-.182.34-.271.031-.204.649.045.556-.476.71-.681 1.175-.091.185-.249.897-.931.927-.386.032-.521-.123-.884-.093-.136 0-.227.093-.363 0l-.271-.155c-.024-.433.316-.371.158-.865-.091-.218-.113-.249-.34-.279-.658-.124-.886.123-1.316-.34-.815-.927-.861-.309-1.383-.865-.204-.217-.296-.464-.476-.649a.972.972 0 00-.886-.278c-.679.124-.906.958-.702 1.515.249.712.906.217 1.247.217.703.031.953 1.052 1.701 1.083.386 0 .682-.062.931.154.249.248.611.866.227 1.175-.09.093-.227.186-.318.248 0 .309-.021.681-.021.99.021.525.34 1.33-.183 1.639-.294.154-.566-.031-.771-.155-.591-.341-.682-.371-1.045-.99-.271-.434-.59-.588-.839-1.114-.228-.557-.544-.712-.861-1.145-.249-.371-.953-1.237-1.497-.897-.431.278-.091.804.022 1.083.136.278.249.402.386.619.159.278-.068.433-.228.618-.453.031-.362-.093-.611-.278-.159-.124-.228-.34-.408-.495-.318-.249-1.021-.154-1.406-.279-.432-.154-.658-.433-.862-.866-.204-.432-.454-.618-.748-.959-.251-.309-.341-.834-.567-1.175-.998-1.578-1.884-.835-1.679-.248.204.526.499.835.612 1.114.182.402-.34.99-.793.433-.521-.618-.204-.587-.952-.742-.227-.062-.546-.03-.794-.092-.635-.186-1.043-.372-.816-1.145.159-.618-.068-.896.726-1.422.183-.123.387-.278.522-.371.227-.094.362-.248.544-.279.727-.186 1.52.093 2.154.433.091.031.136.093.25.155.567.341 1.18.186 1.701-.062.295-.124.703-.557.929-.804.567-.587 1.339-.186 1.453.587.068.34.045.372.181.649.341.711 1.452.958 1.611.309.091-.34-.067-.402-.204-.587-.25-.371-.022-.927-.295-1.454l-.341-.619c-.068-.185-.045-.433-.022-.618.068-.588.886-1.671 1.226-2.258.25-.401.431-.618.611-1.082.204-.588-.112-1.021-.248-1.362-.113-.309-.092-.463-.092-.834 0-.835.612-1.207-.182-1.949-.067-.093-.159-.155-.249-.216l-.227-.186c-.159-.092-.341-.278-.522-.34-1.271-.464-1.474.093-1.746-.496-.068-.124-.045-.247-.068-.433-.022-.155-.068-.186-.113-.371a.737.737 0 00-.181-.34c-.069-.093-.409-.495-.5-.557-.181-.093-.612-.217-.794-.124-.203.124-.362.433-.521.525-.182.155-.341.34-.567.434-.454.248-.522.372-.839.711-.068.093-.432.587-.681.866-.227.248-1.065.836-1.405.557-.317-.248.046-.464.068-.712 0-.216-.272-.494-.363-.68-.25-.432.249-.773-.228-1.113-.182-.155-.636-.155-.816-.031-.657.402-.067.774.137 1.237.157.34 0 .403-.092.619-.068.092-.022.092-.091.185-.112.217-.407.278-.611.403-.318.185-.34.278-.748.247-.295 0-.227.031-.408.125-.136.062-.227.093-.34.154-.092.063-.25.155-.341.125-.227 0-.385-.34-.726-.31-.5 0-.521.681-.862.927-.114.093-.25.063-.387 0h-.045l-.137-.061c-.362-.062-.566.03-.702.34-.204.433.407.619-.068 1.113-.228.216-.499.124-.657-.093-.092-.124.045-.248.158-.711.181-.834-.25-.773-.59-1.33-.227-.031-.93.123-1.065.062l-.431-.463c-.09-.497.363-.835.386-2.228 0-.557 0-.587-.295-.896-.113-.155-.182-.186-.295-.31-.046-.061-.205-.216-.272-.309-.205-.372.136-.618-.25-.897-.113-.093-.271-.155-.34-.248-.137-.155-.272-.217-.272-.402-.022-.094.046-.186.091-.279.092-.124.137-.186.182-.309.363-.742.953-.959 1.111-1.856.091-.526.228-1.237-.045-1.701-.159-.216-.25-.526-.386-.774l-.341-.433c-.385-.031-.362-.031-.657-.155a3.085 3.085 0 01-.521-.278c-.613-.433-.861.371-.93.464-.476.587-.363.372-.839.742-.727.495-.228-.093-1.476.525-.408.186-.386-.092-.749-.247-.634-.278-.521.495-1.359.958-.658.34-.386.557-.612.959-.159.309-.409.618-.681.278-.34-.402-.045-.65.023-1.083.09-.773-.341-.711-.636-1.206-.341 0-.159.063-.522-.031-.226-.031-.339.062-.521.093-.567.093-.499.247-.885-.186-.09-.248.25-.99.386-1.237.296-.526.386-.619.272-1.237-.045-.279-.045-.743-.113-.959-.046-.125-.114-.186-.182-.341-.25-.681-.158-.649.022-1.299.092-.34.385-1.392.408-1.731.045-.31.159-.588.317-.774.249-.34.704-1.175 1.134-1.578l.862-.743c.476-.494.476-.989.387-1.669-.023-.186-.091-.248-.114-.402-.158-.587.183-.402-.748-1.392-.114-.124-.159-.124-.272-.279-.183-.309-.727-.711-1.089-.433l-.476.587-.228.31c-.112.092-.203.123-.316.216-.137.093-.182.155-.272.278-.748.743-1.111-.031-1.52.619-.158.248-.158.403-.408.681-.137.186-.363.464-.567.587 0 0 0 .031-.022.031-.657.341-.817-.711-1.384-.124-.341.371-.158.433-.794.835-.272.154-.386.247-.477.556-.067.186-.067.896-.68.866-.114-.094-.364-.34-.341-.557.045-.34.544-.772-.091-1.33-.228-.186-.5-.124-.816-.124-.272.372-.295.464-.386.959-.112.681-1.201 1.299-1.225.371 0-.248.181-.526.295-.712.113-.216.272-.371.408-.557.158-.278.409-.649.113-.959-.521-.526-1.134.03-1.678-.185-.341-.124-.386-.619-.113-.866l.748-.557c.339-.217.635.093.771.31.567 1.051 1.314.619 1.405-.031.023-.216 0-.464-.113-.587l-.295-.31c-.657-.804.317-1.578.613-.804.091.217 0 .433.067.587.068.155.205.248.272.372.771.03.771-.031 1.315-.279.296-.155.454-.309.681-.525.159-.155.317-.496.363-.557h.021c.137-.247.272-.463.159-.804-.112-.278-.112-.278.023-.557.187-.358.373-.374.298-.641h-12.018c-.164.296-.121.22.194.674.544.835.702.649.998.804.249.155.454.402.499.712.045.309.204.588.316.897.228.587-.181.556.84 1.577.228.216.477.341.885.341.272 0 1.134-.279 1.134.618.022.681.408.99.022 1.453-.182.218-.091.186-.363.279a2.495 2.495 0 00-.386.216c-.907.588-.204 1.175-.635 1.702-.249.309-.544.092-.839-.093-.454-.31-.363-.186-.726-.464-.795-.619-.658-.464-1.384.217-.137.124-.228.155-.387.248-.612.402-.635.402-1.405.248-.997-.186-.861.216-1.974-.465-.566-.339-.612.558-1.066.588-.204 0-.272-.155-.386-.216-.272-.248-.68.062-.906.155-.477.154-.5-.155-.931.278-.182.185-.386.525-.407.804 0 .185.045.433.067.588.068.215.113.215.022.463 0 0-.022 0-.022.03l-.228.341c-.091.093-.181.186-.295.278-.204.154-.408.434-.794.371-1.27-.309-1.021-.804-1.769-.556-.295.093-.544.341-.839.062v5.568l.098-.119c.454 0 .771.217 1.09.217.226-.031.271-.125.43-.279.316-.371.385-.959.544-1.453.181-.464 0-.743.045-1.238.022-.277.317-.648.544-.772.477-.216 1.157-.216 1.702 0 .136.062.271.186.43.248.363.125.567.216.885.464.271.185.363.433.771.525.227.031.227.093.386.279.159.215.182.154.204.463.046 1.082.432.711.59 2.103.045.34.045.835.113 1.206.046.186.091.31.204.464.522.835.885.649 1.565.062l.861-.433c.385-.248.953-.525.953-1.052 0-.619-.091-.649.34-.99.316-.278.703-.124 1.157-.124.476.03.885 0 1.338 0 .59.03.703 0 1.179-.124.204-.062.295-.124.545-.124.362 0 .316.153.635-.031.045-.031.022 0 .091-.093l.499-.495c.25-.217.317-.496.59-.712.408-.341.59-.124 1.021-.063.431.092.771-.093 1.247-.093.612.03.953.278 1.429.587.907.557.749.278 1.497.495.34.124.726.216 1.021.34a.924.924 0 01.521.464l.068.123c.068.187.113.372-.022.526-.204.278-.499.186-.884.216l-.296.278c-.182.217-.159.619-.068.866.227.463.544.402.159 1.083-.34.587-.408.341-.363 1.207.045.618.295.68.703.928v.371c-.023.31-.023 0-.114.279-.137.402.227.619.432.866a.493.493 0 01.09.463c-.022.093-.046.093-.09.155-.069.093 0 0-.069.124-.091.186-.158.372-.067.588.067.155.204.341.272.526.136.402-.068.62.477 1.083.363.341.749.341 1.066.062.885-.834.726-.742 1.542-.525.793.216.703-.31 1.928.371.182.093 1.066 1.082 1.157 1.144.249.155.227.155.453.341.296.278.702.248.975.557.477.525.522.123.499 1.082 0 .557.499.649.907.495.431-.154.681-.371 1.316-.216.477.094.362.094.952-.463.203-.186.386-.125.59-.032.339.186.294.124.634.093.046.124.068.124.137.217.521.68-.498.587.046 2.257.203.649.453 1.113.726 1.701.113.248.227.341.317.526.272.495.726.866.998 1.454l.408.772c.136.278.363.463.521.742.249.371.363.68.589 1.083.183.339.455.649.568 1.051.136.463.159.958.295 1.36.158.464.386.681.203 1.33-.113.463-.339.743-.407 1.237-.136.803-.067.618-.476 1.175-.251.372-.183.557-.251.959-.021.124-.045.216-.045.34-.091 1.082 1.883 1.731.84 2.474-.159.093-.295.093-.454.155-.702.31-.771 1.021-.975 1.516-.203.494-.227.926-.703 1.206-.294.186-.975.309-.317 1.021l.567.711c.113.124.227.186.317.31a.76.76 0 01.182.433c-.068.185-.295.185-.068.495.137.216.16.401.068.649-.453.123-.453-.155-.816.278-.386.402.681 1.299 1.293.278.068-.093.045-.217.068-.34l.045-.092c.023-.124.591-.278.771-.031l.409.587c.316.433.589.742.838 1.237.612 1.175 1.066 1.485 1.089 2.938.022.619.317 1.021.477 1.516.158.495-.046 1.33-.296 1.67-.386.526-.658.402-1.429.557-.272.062-.544.155-.84.155-.612.031-1.089.155-1.338.712-.181.309-.204.247-.295.68-.091.402-.204.928-.748.804-.136-.062-.204-.154-.295-.278-.182-.309-.84-.835-.886-1.145-.021-.248.658-1.052-.272-1.33-.339-.125-.339-.216-.565-.433-.137-.155-.137-.155-.137-.402 0-.958.363-1.113-.657-1.701-.432-.248-.93-.835-1.18-.773-.227.062-.521.31-.703.31-.228.03-.59-.402-.886-.217-.067.032-.067.032-.113.063-.432.215-.34.618-1.226 1.051-.703.371-1.655.99-.816 1.856.113.123.272.185.408.278.159.094 0 .062.386.279.703.402.067 1.052.363 1.423.34.464 1.021-.062 1.089.125 0 .061.112.092.204.185.022.031.045.031.068.093.112.217-.023.217.158.402.204.248.408.434.839.248.181-.092.612-.432.815-.309.341.247.047.618.228.928.228.401.408.247.862.216.499-.031.657.155 1.044.186.227 0 .294.03.431.185.703.712.93 1.578 1.202 1.794.136.093.204.186.386.186 1.134.092.476.711 1.451 1.607.431.403.771.712 1.066 1.361.386.804.566.773.432 1.887-.159 1.082.454 1.855-.159 2.474-.477.433.159.866.136 1.392-.022.928-1.701.587-.953 1.608.034.07.146.21.219.301h.734a.595.595 0 01.023-.301c.046-.093.091-.124.159-.186.34-.309.431-.309.408-.928-.024-1.052-.159-.433.476-1.268.137-.186.137-.217.182-.464.045-.216.656-.865.997-.711.091.031.067.063.204.093.114.062.204.062.204.186 0 .031.022.031.022.031l.023.092v.124c.045.31-.023.742.227.928l.136.124a.895.895 0 00.317.062c.182-.03.386-.093.544-.154.5-.187 1.021-.65 1.521.03.09.124.226.248.386.34.225.155.293.124.521.216.159.063.272.186.453.248l.432.248c.113.093.113.093.204.155.347.289.06.755.285 1.137h1.279c.916-.436 1.5.554 1.86-.704.091-.339.362-.68.794-.649.363.031.658.371 1.021.464.453.123.771-.155 1.179-.186.431 0 1.021-.03 1.429 0 .227 0 .431.092.59.124.566.031.816-.742 1.406-.742.499-.031.612-.247.885-.557.112-.155.181-.249.431-.279.612-.062.884-.464 1.339-.804.157-.093.316-.124.452-.248.522-.464.749-.928 1.361-.804.863.185 1.088 1.021 1.927.155.227-.186.567-.463.817-.649.59-.433 1.747-.061 2.494-.34.566-.216.635-.742 1.293-.742.453.03.771-.093 1.18-.278.159-.093.273-.247.363-.371.182-.403-.137-.866.204-1.269.318-.402.543-.248.884-.526.092-.063.092-.063.204-.124.09-.063.159-.063.249-.125.522-.34.59-1.021 1.18-1.021.521-.03.771-.154 1.089.248.159.185.067.371.114.649.021.185.09.309.18.494.431 1.083-.271 1.268-.316 2.258-.047.65.09.712-.249 1.145a5.6 5.6 0 01-.341.402c-.114.125-.159.31-.273.433-.09.093-.271.248-.476.155-.204-.092-.092-.248-.521-.216-.522.061-.455.463-.931.03-.455-.464-.886.401-1.202.649-.114.063-.318.186-.455.248-.386.217-.545.403-1.088.403-.861 0-1.225-.99-2.042-.124-.159.154-.363.742-.408.989-.09.433-.022.99 0 1.454 0 .155-.013.307-.027.457h3.615c.021-.001.041-.004.063 0h4.233c.004-.229-.026-.476.077-.705.182-.401.612-.494 1.021-.433.59.124.771.031 1.316.031.249-.031.476 0 .703 0l.612-.124v1.23h.003V116.05c-.227-.093-.182-.216-.522-.186-.271 0-.408.124-.59.155-.406.092-.657-.68-1.202.185-.158.248-.34.372-.611.495-.183.093-.273.218-.363.372-.068.093-.068.093-.182.185-.137.092-.068.031-.182.185-.408 0-.249-.186-.545-.216-.294-.062-.453.03-.635.123-.386.155-.476-.185-1.314-.03-.431.092-.704.309-.953.618-.408.526-.227.526-.296 1.268-.021.495-.249.648-.453 1.021-.567 1.114-.591 2.227-2.132 2.505-.433.062-.908.124-1.361.155-.614 0-.771-.155-1.09-.464-.249-.309-.476-.649-.907-.649-.976 0-1.633.186-2.063 1.052-.159.372-.135.835-.408 1.145-.316.34-.521.278-.952.587-.317.217-.657.464-.794.743-.454.866-.816 1.083-1.745 1.33-.703.186-1.157.464-1.86.093-.364-.155-.749-.185-.999-.557-.18-.278.158-1.237.068-2.041-.068-.588-.635-.866-1.021-1.237-.137-.155-.227-.31-.386-.402-.295-.247-.953-.525-1.429-.216-.34.184-.068.247-.816.309-.681.093-.613.093-1.225.341-.272.123-.727.463-.681.896.045.371.43 1.175-.408 1.608-.181.093-.385.155-.567.248-.431.248-.567.433-1.156.402-.386 0-.84-.278-1.181-.371v-.526c.341-.154.477-.247.749-.494.227-.186.408-.341.657-.557.249-.248.362-.31.612-.619.068-.093.159-.277.228-.401.068-.124.158-.216.249-.371.657-1.021.271-.372.589-1.237.045-.154.159-.309.204-.433l.681-1.145c.182-.309.59-.309.839-.402.091-.032.25-.217.318-.279.543-.557-.136-1.021.93-1.546.272-.155.453-.403.748-.526.227-.063.249 0 .431-.124.522-.433.249-.804-.045-1.237-.227-.341-.271-1.021-.748-1.145-.271-.092-.34.031-.521.093.022.526.386.34 0 .897-.068.124 0 .062-.114.155-.045.031-.067.062-.158.093-.228.124-.453.216-.657.34l-.612.34c-1.044.464-1.044.773-2.042-.031-.158-.092-.385-.309-.589-.371a4.582 4.582 0 00-1.837 0c-.931.186-.681 1.175-1.588 1.361-.658.155-.386-.34-1.543.278-.702.34-1.27.123-1.633.371-.204.124-.386.247-.591.372-.272.185-.386.216-.815.216-.34-.031-1.725-.248-1.95-.495-.363-.371-.228-.587.021-.958.363-.464.704-.557 1.452-.464.953.124 1.633-.124 2.041-.866.114-.154.318-.401.477-.525.159-.093 1.18-.587 1.361-.619.634-.124 1.542.959 1.859.032.091-.247-.046-.34-.092-.495-.136-.496.613-.99 1.543-.464.271.155 1.089.464 1.405.494.204.031.408 0 .636 0 .341.031.432.247 1.044.217.816-.031.681.092 1.157.092s.839 0 .861-.433c-.045-.185-.43-.401-.589-.463-.341-.155-1.362.124-1.248-.927.021-.187.067-.279.09-.464 0-.31-.068-.619.318-.681.181-.03.226 0 .339.062.183.123.296.309.522.371 1.087.217 1.134.805 1.542 1.021.271.123.521-.093.566-.248.068-.186.113-.495.159-.681.363-1.175-.567-1.206-.589-1.855-.023-.463.407-.835.68-1.021.499-.371.476-.402.816-.897.183-.248.635-.742.703-.99.272-.865.023-.897.861-1.701.703-.681.545-.711.749-.958.499-.587.84-.401 1.475-.031.295.186.545.247.794.495.113.093.317.31.34.526.068.433-.022 1.237-.136 1.546-.091.217-.113.372-.272.557-.249.371-.59.557-.953.773-.091.062-.159.092-.272.155-.431.155-.431.247-.771.526-.25.216-.885.525-.771.927.18.558 1.791.31 2.245.372.136.031.477.155.611.248.137.093.229.278.433.433.112.093.316.341.407.433.181.186.317.186.544.309.543.31 1.27.835 1.883.464.227-.124.386-.093.612-.279.182-.124.363-.186.521-.309.41-.31.092-.372 1.316-.217.431.061.725.618.59 1.051 0 .063-.273.433-.318.526-.114.217-.227.372-.182.649.047.278.092.464.047.804-.069.526-.024.928.588 1.083.454.093 1.021.062 1.316-.278l.091-.125c.249-.309.159-.804.453-1.051.59-.525.908.217.816.835-.022.186.024.247.024.371.045.433-.047.371.137.742h.294c.271-.526-.249-.217.294-1.021.498 0 .953 0 1.384.093.544.092.544.31 1.18.155.499-.124.521-.186.815-.619.251-.372 0-.31.659-.835.998-.773 1.021-.556 2.313-.588 1.158 0 1.089-.834 1.975-.866h.003V51.2h-2.791zm-26.62 13.231c-.204.248-.635.433-.952.557-.477.216-.771-.31-.794-.496-.09-.587.249-1.021.612-1.36.159-.155.113-.093.317-.186.59-.155.885.526.885 1.052.001.185.001.31-.068.433zm15.629-9.898c.316-.061.408.094.565.279.273.31.659.526.659 1.083 0 .216-.182.433-.365.556-.112.092-.159.092-.386.092-1.019 0-.702-1.082-.702-1.36.001-.402-.089-.588.229-.65zm1.676 10.022c-.227.31-.202.248-.565.433-.341.155-.249.186-.522.433-.339.31-.567 1.423-1.7 2.072-.385.216-1.905.402-2.403.463-.184 0-.386 0-.5-.03-.09-.031-.748-.495-.816-.619-.182-.371-.227-.433-.113-.71.113-.218.158-.496.272-.681.248-.495.476-.742.657-1.268.068-.248.09-.495.159-.773.067-.217.204-.464.182-.804-.045-.526-.727-.711-1.225-.711-.59 0-.727.494-1.43-.125-.341-.278-.386-.866-.453-1.021-.092-.216-.862-1.052-1.451-.495l-.386.495c-.159.216-.317.34-.59.372-.385.031-.453-.093-.658-.279-.431-.341-.794-.464-.477-1.206.409-.896.863-1.175 1.021-1.793.181-.65.159-.371.295-.681.317-.681 0-1.052.386-1.485.249-.279.112-.341.498-.587l.228-.155c.544-.371 1.473.156 1.973.125.386 0 .521-.032.749.185.295.31.295.68.136 1.113-.272.773.091.743.25 1.021.432 0 1.609-.062 1.926 0 .158.031.407.155.748.217.159.03.727.03.908.03.498-.061.612-.618 1.337-.618.159 0 .749.031.907.062.159.032.295.217.387.341.022.062.022 0 .045.155 0 .186-.068.618-.045.928 0 .402-.022.495-.251.712-.657.618-1.27.495-1.723 1.113-.453.619.545 1.423 1.135 1.979.386.371.363.309.839.557.384.153.702.678.27 1.235zm-57.268.835c-.203.525-.476.556-.816.216-.432-.372-.748.186-1.134.154-.317-.03-1.181-.834-.5-2.072.114-.248.453-.711.681-.835.499-.217.726.216.84.619.272 1.021 1.27 1.021.929 1.918zm6.622-1.763c-.023.588.067 1.763-.272 2.351-.204.34-1.135.896-1.543 1.051-.567.217-1.543 0-2.042-.433-.227-.217-.498-.341-.589-.649-.158-.464.181-.712.295-.99.341-.866-.611-1.238-.182-2.134.387-.711.681-.866 1.475-1.114.408-.123 1.702.248 2.154.372.454.124.636.092.84.463.158.279-.113.681-.136 1.083zm8.575 2.784l-.544.742-.272.124c-.137-.125-.228-.341-.318-.524-.204-.496.409-.928.478-1.145.09-.278.204-.309.34-.557h.362c.069.123.137.154.159.34.09.618.045.618-.205 1.02zm9.117 7.268s0 .031-.022.031c0 0 0 .03-.023.03-.045.062-.181.155-.272.216-.09.092-.113.155-.158.31-.159.401-.046.34.022.68.114.587-.068 1.083-.635 1.268-.295.093-.386.093-.635.31-.567.464-1.725-.031-2.041-.248-.045-.712.181-.31.861-.896.249-.216.748-.649 1.065-.835.613-.34 1.271-1.423 1.724-1.33.159.032.046-.061.114.125a.574.574 0 010 .339zm42.618 46.732c.521-.371.885-.155 1.043.433.046.156.137.619.091.774-.067.247-.249.34-.362.526-.408.031-.522.031-.771-.186-.09-.093-.363-.34-.431-.433-.364-.496.134-.898.43-1.114zm-24.904-13.824c-.045.123-.09.185-.158.309-.544.989 0 .495-.636 1.082-.067.062-.113.124-.204.186-.363.247-1.588 1.144-1.566.093.386-.279.318-.525-.045-.773-.59-.371-.612-.31-.975-.062-.022.371.091.371-.113.68-.204.279-.294.093-.566.31l-1.066.649c-.271.125-.476.063-.521-.185-.046-.218.137-.373.227-.558.658-1.454-.884-1.083-1.179-1.949-.068-.247.09-.463.09-.773.022-.928-.476-1.578.204-2.104.477-.371.862.154 1.089.433.227.247.408.124.567.34.454.62.771.155 1.225.124.295-.03.408.155.612.248.113.031.227.031.34.125.363.248.249.185.816.433.567.247.976.309 1.271.433.204.062.385.185.521.34.158.155.181.402.067.619zm2.562-7.085c-.136.495-.408 1.175-.997 1.175 0-.03 0-.03-.023-.03v-.031l-.045-.03c-.272-.279-.272-.372-.681-.186 0 .402-.045.649-.046 1.051-.022.804.408.897.068 1.237-.114.093-.25.093-.408.093-.681 0-1.338.773-1.746.928-.727.247-.272.155-.658.402-.114.062-.228.093-.341.155-.363.186-.454 0-.703-.217-.952-.865-1.021-.185-1.496-.464-.295-.154-.272-.309-.476-.556a3.293 3.293 0 00-.5-.558c-.158-.155-.408-.371-.726-.371-.341 0-.522.155-.771.279-.795.341-.795-.186-1.565.526-.363.34-.748.711-1.474.649-.249-.03-1.384-.339-1.634-.433-.158-.062-.454-.401-.362-.619.045-.123.34-.587.408-.649.09-.123.204-.123.34-.186a.905.905 0 01.408-.092c1.067 0 .567.341 1.77-.217.295-.123.499-.093.703-.339.317-.31.158-.341.158-.774.023-.649.16-.587.182-.897.022-.711-.544-.928-.271-1.67.068-.155.158-.186.227-.341.159-.278.136-.185.204-.278.067-.155.181-.711.136-.928-.045-.186-.136-.186-.295-.248-.203-.124-.158-.124-.453-.062-.34.031-.613-.062-.906-.093-.771-.154-.636-.835.181-.866.5 0 .522.155.84.279 1.021.34 1.383-1.299 2.086-2.072.251-.248.817-.959 1.362-.433.816.773.091 1.237 1.18 1.979.634.433.951.186 1.405-.216.839-.774.998.216 1.156.433.567.773 1.044.433 1.452.278.431-.155.476-.031.884.062.319.062.636.03.886.155.703.401.34.958-.182 1.174-.227.124-.499.218-.681.403-.249.248-.204.401-.295.742-.068.278-.249.649.159.711.407.062.566-.155.907-.155.25-.031.294 0 .453.124.384.341.317.619.18 1.176zm3.108-.957c-.59.804-1.519-.125-1.11-.557.112-.124.226-.247.362-.278.362-.155.794.03.884.372.068.185-.023.34-.136.463zm9.345 12.279c-.478.279-1.022-.124-1.045-.557-.045-.31.092-.495.092-.804 0-.155-.022-.278.022-.433.069-.125.092-.125.227-.186.022-.031 0-.031.092-.03.271-.062.498.31.657.526.317.464.588 1.114-.045 1.484zm5.239 3.526c-.363.217-.861-.155-.953-.402-.112-.248.069-.711.092-1.331.204-.124.204-.186.565-.154.228.371 1.317 1.175.296 1.887zm1.633-47.259c-.272-.093-1.044-.743-1.111-.99-.137-.433.703-.866 1.066-.959.521-.186.974.372 1.021.99.022.433.09.464-.227.742-.249.217-.294.341-.749.217zm3.425 3.309c-.022.124-.159.216-.249.31-.137.124-.137.124-.363.155-1.135.216-1.361.99-1.837.525-.386-.371-.229-.742.112-.99.478-.403 1.09-.217 1.725-.403.135-.03.271-.123.431.062.024 0 .113.124.113.124.091.155.091-.061.068.217zm2.042-5.073l-.908.062c-.294.032-.545.125-.862.125-.657.03-1.61-.897-1.723-1.331-.271-1.082.725-1.267.271-2.474l-.227-.495c-.069-.124-.045-.031-.069-.217 0-.495.386-1.02.637-1.392.498-.681.408-.897 1.36-1.701.249-.185.341-.216.476-.526.5-1.113.521-.464 1.045-.248v8.197z"/><path fill="#020101" d="M511.611 131.2h.063c-.022-.004-.043-.001-.063 0zM489.836 130.063c-.091-.062-.091-.062-.204-.155l-.432-.248c-.181-.062-.294-.186-.453-.248-.228-.093-.296-.062-.521-.216a1.266 1.266 0 01-.386-.34c-.5-.681-1.021-.217-1.521-.03a2.86 2.86 0 01-.544.154.865.865 0 01-.317-.062l-.136-.124c-.25-.186-.182-.619-.227-.928v-.124l-.023-.092s-.022 0-.022-.031c0-.124-.09-.124-.204-.186-.137-.03-.113-.062-.204-.093-.341-.154-.952.495-.997.711-.045.248-.045.278-.182.464-.635.835-.5.216-.476 1.268.022.619-.068.619-.408.928-.068.062-.113.093-.159.186a.595.595 0 00-.023.301h7.724c-.225-.38.062-.846-.285-1.135zM454.657 129.876c-.068-.124-.022-.124 0-.216.045-.185.317-.248.431-.464.183-.372-.272-.712-.521-.495a1.983 1.983 0 00-.182.279c-.045.155.023.185-.045.371-.046.093-.136.155-.204.248-.295.372-.455.897-.658 1.114-.158.185-.295.248-.454.402l-.085.085h2.145c-.082-.304-.035-.708-.313-1.139-.069-.123-.069 0-.114-.185zM482.398 129.29c.023-.525-.612-.959-.136-1.392.613-.618 0-1.392.159-2.474.135-1.114-.046-1.083-.432-1.887-.295-.649-.636-.958-1.066-1.361-.976-.896-.317-1.515-1.451-1.607-.182 0-.25-.093-.386-.186-.272-.217-.499-1.082-1.202-1.794-.137-.155-.204-.185-.431-.185-.387-.03-.545-.216-1.044-.186-.454.031-.635.186-.862-.216-.181-.31.113-.681-.228-.928-.203-.124-.635.216-.815.309-.431.186-.635 0-.839-.248-.182-.185-.046-.185-.158-.402-.023-.062-.046-.062-.068-.093-.092-.093-.204-.124-.204-.185-.067-.186-.749.34-1.089-.125-.296-.371.34-1.021-.363-1.423-.386-.217-.227-.185-.386-.279-.136-.093-.295-.155-.408-.278-.839-.866.113-1.485.816-1.856.886-.433.794-.835 1.226-1.051.046-.031.046-.031.113-.063.296-.185.658.248.886.217.182 0 .477-.248.703-.31.25-.062.748.526 1.18.773 1.021.587.657.742.657 1.701 0 .248 0 .248.137.402.227.217.227.309.565.433.931.278.251 1.082.272 1.33.046.309.704.835.886 1.145.091.125.159.216.295.278.544.124.657-.402.748-.804.091-.433.114-.371.295-.68.249-.557.726-.681 1.338-.712.296 0 .567-.093.84-.155.771-.155 1.043-.03 1.429-.557.25-.341.454-1.176.296-1.67-.159-.496-.454-.897-.477-1.516-.022-1.453-.477-1.763-1.089-2.938-.249-.495-.521-.804-.838-1.237l-.409-.587c-.181-.248-.748-.093-.771.031l-.045.092c-.023.124 0 .248-.068.34-.612 1.021-1.679.124-1.293-.278.363-.433.363-.155.816-.278a.66.66 0 00-.068-.649c-.227-.31 0-.31.068-.495a.753.753 0 00-.182-.433c-.091-.124-.204-.186-.317-.31l-.567-.711c-.657-.711.023-.834.317-1.021.477-.279.5-.712.703-1.206.204-.495.272-1.207.975-1.516.159-.062.295-.062.454-.155 1.043-.742-.931-1.392-.84-2.474 0-.124.023-.216.045-.34.068-.402 0-.587.251-.959.408-.557.34-.372.476-1.175.068-.495.294-.774.407-1.237.183-.649-.045-.866-.203-1.33-.136-.402-.159-.897-.295-1.36-.113-.402-.386-.712-.568-1.051-.226-.403-.34-.712-.589-1.083-.158-.279-.386-.464-.521-.742l-.408-.772c-.272-.587-.726-.959-.998-1.454-.091-.185-.204-.278-.317-.526-.272-.588-.522-1.052-.726-1.701-.544-1.67.476-1.577-.046-2.257-.068-.093-.091-.093-.137-.217-.34.031-.295.093-.634-.093-.204-.093-.387-.154-.59.032-.59.557-.476.557-.952.463-.636-.154-.886.063-1.316.216-.408.155-.907.062-.907-.495.023-.959-.022-.557-.499-1.082-.272-.31-.679-.279-.975-.557-.227-.186-.204-.186-.453-.341-.091-.062-.976-1.051-1.157-1.144-1.225-.681-1.135-.155-1.928-.371-.816-.217-.657-.31-1.542.525-.317.279-.703.279-1.066-.062-.545-.463-.341-.681-.477-1.083-.068-.185-.205-.371-.272-.526-.091-.216-.023-.402.067-.588.069-.124 0-.031.069-.124.044-.062.067-.062.09-.155a.492.492 0 00-.09-.463c-.205-.248-.568-.464-.432-.866.091-.279.091.031.114-.279v-.371c-.408-.248-.658-.31-.703-.928-.045-.866.023-.619.363-1.207.385-.681.067-.619-.159-1.083-.091-.248-.113-.649.068-.866l.296-.278c.385-.03.68.062.884-.216.136-.155.091-.34.022-.526l-.068-.123a.917.917 0 00-.521-.464c-.295-.124-.681-.216-1.021-.34-.748-.217-.59.062-1.497-.495-.476-.31-.816-.558-1.429-.587-.477 0-.816.185-1.247.093-.431-.062-.612-.278-1.021.063-.272.216-.34.495-.59.712l-.499.495c-.068.093-.046.062-.091.093-.318.185-.272.031-.635.031-.25 0-.341.062-.545.124-.476.124-.589.154-1.179.124-.453 0-.862.03-1.338 0-.454 0-.841-.155-1.157.124-.431.34-.34.371-.34.99 0 .527-.568.804-.953 1.052l-.861.433c-.681.588-1.043.773-1.565-.062a1.174 1.174 0 01-.204-.464c-.068-.371-.068-.866-.113-1.206-.158-1.392-.544-1.021-.59-2.103-.022-.31-.045-.248-.204-.463-.159-.186-.159-.248-.386-.279-.408-.093-.5-.34-.771-.525-.317-.248-.521-.34-.885-.464-.158-.062-.294-.186-.43-.248-.545-.216-1.226-.216-1.702 0-.227.125-.521.495-.544.772-.045.496.136.774-.045 1.238-.159.494-.228 1.082-.544 1.453-.158.155-.204.248-.43.279-.318 0-.636-.217-1.09-.217l-.098.119v3.216l.385.155c.159.093.204.125.387.217 1.52.711 1.247.989 1.134 2.071-.091.897.317 1.114.521 1.701.182.495.272 1.361.613 1.702.341.34.499-.032.862.186.43.247.045.649 1.134 1.113.906.372.748.526 1.882-.309.113-.092.091-.062.159-.155.022-.031.022-.062.045-.093.113-.155.228-.279.25-.464v-.31c-.023-.154-.023-.062-.092-.216-.067-.155-.453-.557-.431-.742.068-.372 1.18-.588 1.247-.031.023.372-.158.34.091.804.113.217.362.371.294.681-.021.124-.271.526.183.649.408.093 1.247-.68 1.475-1.02.204-.34.181-.619.521-.959.205-.217.272-.248.59-.402.704-.34.749-1.175 1.43-.896.521.217.476.092.952.526.158.155.294.433.294.742 0 .496.023.464.249.742.363 0 .318-.062.568-.093.59-.031 1.111.279 1.52.618.295.248.908.588.816 1.175-.158.773-.408 1.639.023 2.351.136.216.136.309.136.587-.023.371-.204.742-.317 1.082-.114.372-.183.743-.432.99-.136.093-.295.186-.521.155-.183-.031-.341-.124-.545-.155-.453-.124-1.361.062-1.883.093-.341.031-.386 0-.612-.124-.408-.216-.771.093-.885.34-.204.526-.137.681-.09 1.207.021.433-.183.743-.204 1.175-.022.217 0 .464-.046.65-.045.247-.113.309-.204.495-.204.587-.181.587 0 1.175h.341c.136-.185.25-.309.408-.525.408-.525.885-.217.976.34 0 .155-.023.309 0 .463.021.433.272.649 0 1.175-.159.278-.25.371-.387.587-.295.526-.249.866-.271 1.608-.5.34-.477.433-.931.742-.499.31-.703.371-1.202-.062a2.766 2.766 0 01-.386-.433c-.204-.34-.316-.897-.839-.835-.272 0-.387.185-.567.309a1.512 1.512 0 00-.386.433c-.181.248-.362.557-.703.587-.226 0-.181-.062-.34-.062-.566-.093-1.406.433-1.52.99-.068.248-.023.896.136 1.052a.908.908 0 00.296.123c.181-.154.34-.495.681-.34.362.155.34.403.34.804 0 .34.182.587.477.649.272.062.748-.031 1.065-.031.295 0 .544.216.635.464.045.155.091.866.045 1.021-.068.341-.294 1.02 0 1.392.114.155.476.31.635-.155.204-.649.545-.526.976-.247.159.124.228.062.363-.031.158-.093.204-.093.386-.154.204-.093.113-.155.386-.155.227 0 .295.031.453-.093.136-.062.183-.124.296-.186.136-.062.272-.123.363-.185.045-.062.068-.062.113-.124.068-.062.091-.093.159-.155.181-.186.204-.525.408-.68.407-.371.975.031.793.494-.046.186-.183.124-.159.341 0 .155.136.247.272.309.363.093.59-.154.794-.278.25-.186.545-.402.749-.619l.091-.154c.091-.125.113-.217.182-.372.046-.155.363-.495.477-.587.205-.155.431-.279.658-.433.159-.093.453-.34.544-.526.046-.093.114-.248.182-.371.023-.093.045-.093.068-.186s.023-.155.045-.216c.251-.093.318-.093.545-.031.182.463-.022.247.522.804.339.371.407.278.499.897.044.432-.16.772.295.989.249.093.385-.031.544-.093a.884.884 0 01.635.062c.158.062.227.155.386.278.408.248.816.587 1.064.99.341.526-.521 1.578.183 2.876.113.217.158.186.181.463.023.464.204.742.228 1.114.067.495-.046.402.227.772l.022.032.023.03h.021c.204.279.657-.093.84.279.158.309.34.618.612.804.386.248.885-.216.794-.68-.091-.588 0-.526.295-1.021.227-.371.136-.155.34-.649.045-.062.068-.185.113-.279.136-.34.544-.557.795-.155.022.031.022.062.045.125.045.093.022.062.045.155l.068.124c.091.124.114.093.204.247.159.278.296.278.521.464l.159.186c.341.402.341.742.408 1.299.091.618.272.185-.068 1.052-.113.309-.341.557-.589.772-.204.155-.635.34-.885.433-.181.062-.431.062-.635.062-.137 0-.181 0-.295.031-.703.279-.159 1.145-.09 1.702.09.711-.137 1.052-.318 1.702-.067.34-.316.804-.635.928-.272.092-.43.309-.657.494-.43.34-.091 1.052-.409 1.64-.09.155-.272.526-.293.711-.023.31.113.557.226.835.545.124.409-.093.591-.463.068-.124.386-.433.521-.495.272-.093.612.185.657.309.068.186.159 1.485.091 1.732-.159.557-1.156 1.701-.658 2.166l.204.216c.409 0 .567-.247.726-.494.205-.371.023-1.175.478-1.33.59-.186 1.111.34 1.202.649.183.618-.703 1.361-.022 1.824.386.278.907-.371 1.36-.309.113.031.113.062.204.092l.431.186c.068.062.113.062.204.124.386.155.839.341 1.18.588.228.185.477.34.681.557.567.557.023 1.268 0 1.886-.023 1.268.408 1.299.5 1.948.045.279.021.464.249.65.272.217.296.125.589 0 .159-.093.317-.062.477-.124.228-.093.113-.093.453-.093.499.031.522 0 .84.31.113.093.204.185.294.278.114.155.295.649.204.866-.067.155-.386.464-.567.526-.317.093-1.134.186-1.474.186-.295 0-.793-.155-1.065.03-.409.279-.477.372-.93.62-.272.124-.84.093-1.136.062-.203-.031-.454.03-.634-.031l-.59-.279c-.022 0-.022-.031-.046-.031-.339-.185-.453-.433-1.224-.557-.453-.062-.59.062-1.021.062-.839.031-.975-.649-1.633.248-.204.278-.272.433-.566.588-.113.062-.272.093-.386.154-.159.063-.204.187-.318.248-.204.093-.476 0-.906.248-.249.125-.658.125-.999.093-.385-.062-.681-.031-1.089-.031-.68-.03-1.134-.557-1.746.093-.272.279-.204.495-.228.959 0 .309-.181.556-.407.711-.092.062-.251.123-.341.186-.296.161-.518.258-.76.365h24.069c-.072-.091-.185-.231-.219-.301-.749-1.019.929-.678.952-1.606zM508.023 129.289c.045-.248.249-.835.408-.989.817-.866 1.181.124 2.042.124.543 0 .702-.186 1.088-.403.137-.062.341-.185.455-.248.316-.248.747-1.113 1.202-.649.476.433.408.031.931-.03.43-.032.317.124.521.216.204.093.386-.062.476-.155.114-.124.159-.309.273-.433.112-.124.249-.278.341-.402.339-.433.202-.495.249-1.145.045-.99.747-1.175.316-2.258-.09-.186-.159-.31-.18-.494-.047-.278.045-.464-.114-.649-.318-.402-.567-.278-1.089-.248-.59 0-.657.681-1.18 1.021-.09.062-.159.062-.249.125-.112.062-.112.062-.204.124-.341.278-.565.124-.884.526-.341.403-.022.866-.204 1.269-.09.124-.204.278-.363.371-.408.185-.727.309-1.18.278-.658 0-.727.526-1.293.742-.747.279-1.904-.093-2.494.34-.25.186-.591.463-.817.649-.839.866-1.063.03-1.927-.155-.612-.124-.839.34-1.361.804-.136.124-.295.155-.452.248-.455.34-.727.742-1.339.804-.25.03-.318.124-.431.279-.272.31-.386.526-.885.557-.59 0-.84.773-1.406.742-.159-.031-.363-.124-.59-.124-.408-.03-.998 0-1.429 0-.408.031-.726.309-1.179.186-.363-.093-.658-.434-1.021-.464-.432-.031-.703.31-.794.649-.36 1.258-.944.269-1.86.704h16.595c.015-.15.027-.302.027-.457-.022-.465-.089-1.022.001-1.455z"/><path fill="#020101" d="M450.075 127.526c.091-.34.59-.68.93-.835.408-.216.658-.124 1.021.092.136.063.181.093.34.125.432.154.749.464 1.384.186.228-.093.34-.217.544-.341.25-.124.318-.186.613-.278.432-.155.567-.711.907-.834.272-.125.408.062.634.185.364.186.658-.216 1.045-.185.271.03.567.588.975.092l.362-.494c1.111-1.114.476-.835.794-1.856.136-.463.43-.773.544-1.207.113-.526-.228-.958-.272-1.515-.023-.403.09-.433-.183-.681-.249-.217-.204-.217-.566-.155-.861.155-.771-.248-1.338.433-.091.124-.114.093-.228.186-.113.062-.136.093-.226.216-.204.248-.296.186-.544.34l-.523.341c-.407.185-.815.371-.952.834-.136.464-.046 1.021-.499 1.33l-.114.03c-.636.31-1.701.897-2.223-.216-.408-.866-1.226-.248-2.019-.681-.431-.216-.499-.712-1.111-.649-.591.031-1.634.866-1.883 0l-.248-.649c-.591 0-.658.588-.84.989-.091.217-.386.496-.136 1.021.067.123.136.279.181.402.159.464.228.835.023 1.299-.068.124-.137.248-.182.371-.159.433-.228.773-.521 1.145-.408.526-.544.248-.862 1.268-.295.99-1.224.742-.59 2.165.183.371.159.525-.068.835-.113.155-.158.124-.294.247-.056.052-.1.081-.148.119h6.456c.004-.217.021-.418.045-.549.407-2.105-.386-2.475-.228-3.126zM519.025 130.093c-.228 0-.454-.031-.703 0-.545 0-.727.092-1.316-.031-.408-.062-.839.031-1.021.433-.104.229-.073.476-.077.705h3.729v-1.23l-.612.123zM514.802 108.945c-.011-.08-.006.019 0 0z"/><path fill="#020101" d="M462.122 51.841c-.136.278-.136.278-.023.557.113.34-.022.557-.159.804h-.021c-.046.062-.204.402-.363.557-.227.217-.385.371-.681.525-.544.248-.544.309-1.315.279-.067-.124-.204-.217-.272-.372-.067-.154.023-.371-.067-.587-.296-.773-1.271 0-.613.804l.295.31c.113.123.137.371.113.587-.091.649-.838 1.082-1.405.031-.136-.217-.432-.526-.771-.31l-.748.557c-.272.248-.228.742.113.866.544.215 1.156-.341 1.678.185.296.31.045.681-.113.959-.136.186-.295.341-.408.557-.114.186-.295.464-.295.712.023.928 1.112.31 1.225-.371.091-.495.113-.587.386-.959.316 0 .589-.062.816.124.635.558.136.99.091 1.33-.023.217.227.463.341.557.612.031.612-.68.68-.866.091-.309.204-.402.477-.556.636-.402.453-.464.794-.835.566-.588.727.464 1.384.124.022 0 .022-.031.022-.031.204-.123.431-.402.567-.587.25-.278.25-.433.408-.681.408-.649.771.125 1.52-.619.091-.124.136-.186.272-.278.113-.093.204-.124.316-.216l.228-.31.476-.587c.362-.278.906.124 1.089.433.113.155.158.155.272.279.931.99.59.805.748 1.392.023.155.091.216.114.402.089.681.089 1.175-.387 1.669l-.862.743c-.43.402-.885 1.237-1.134 1.578-.158.186-.272.464-.317.774-.023.34-.316 1.392-.408 1.731-.181.649-.272.618-.022 1.299.067.155.136.216.182.341.068.216.068.68.113.959.113.618.023.71-.272 1.237-.136.247-.476.989-.386 1.237.386.433.317.279.885.186.182-.031.295-.124.521-.093.363.093.182.031.522.031.295.495.726.433.636 1.206-.068.433-.363.681-.023 1.083.271.34.521.03.681-.278.227-.402-.046-.619.612-.959.838-.464.726-1.237 1.359-.958.363.155.341.433.749.247 1.248-.618.749-.031 1.476-.525.476-.371.363-.155.839-.742.068-.093.316-.897.93-.464.182.123.316.185.521.278.295.124.272.124.657.155l.341.433c.136.248.227.558.386.774.272.464.136 1.175.045 1.701-.158.897-.748 1.114-1.111 1.856-.045.123-.09.185-.182.309-.045.093-.113.185-.091.279 0 .185.136.247.272.402.068.093.227.155.34.248.386.279.045.526.25.897.067.093.227.248.272.309.113.124.182.154.295.31.295.309.295.339.295.896-.022 1.393-.476 1.731-.386 2.228l.431.463c.136.061.839-.093 1.065-.062.34.557.771.496.59 1.33-.113.464-.25.587-.158.711.158.217.43.31.657.093.476-.495-.136-.681.068-1.113.136-.31.34-.402.702-.34l.137.061h.045c.137.063.272.093.387 0 .341-.247.362-.927.862-.927.341-.03.499.31.726.31.091.03.249-.062.341-.125.113-.062.204-.093.34-.154.182-.093.113-.125.408-.125.408.031.43-.062.748-.247.204-.125.499-.186.611-.403.068-.093.022-.093.091-.185.092-.216.249-.279.092-.619-.204-.463-.794-.835-.137-1.237.181-.124.635-.124.816.031.477.34-.022.681.228 1.113.091.186.363.464.363.68-.022.248-.386.464-.068.712.34.279 1.179-.309 1.405-.557.249-.279.612-.773.681-.866.316-.34.385-.464.839-.711.227-.093.386-.279.567-.434.158-.093.317-.402.521-.525.182-.093.613.03.794.124.091.062.431.464.5.557.09.093.135.186.181.34.045.185.091.216.113.371.023.186 0 .309.068.433.272.588.476.032 1.746.496.182.062.363.248.522.34l.227.186c.09.062.182.124.249.216.794.742.182 1.114.182 1.949 0 .371-.021.525.092.834.136.341.452.774.248 1.362-.181.464-.361.681-.611 1.082-.34.587-1.157 1.67-1.226 2.258-.022.186-.046.433.022.618l.341.619c.272.526.045 1.083.295 1.454.137.185.295.248.204.587-.159.649-1.271.402-1.611-.309-.136-.278-.112-.309-.181-.649-.114-.773-.886-1.175-1.453-.587-.226.248-.634.681-.929.804-.521.248-1.134.402-1.701.062-.114-.062-.159-.124-.25-.155-.635-.34-1.428-.618-2.154-.433-.182.031-.317.185-.544.279-.136.093-.34.248-.522.371-.794.526-.566.804-.726 1.422-.227.773.182.959.816 1.145.248.062.567.03.794.092.748.155.431.124.952.742.453.558.975-.03.793-.433-.113-.278-.408-.587-.612-1.114-.205-.587.681-1.33 1.679.248.227.34.316.866.567 1.175.294.341.544.527.748.959.204.433.431.711.862.866.385.125 1.088.03 1.406.279.181.155.249.371.408.495.249.185.158.31.611.278.159-.185.387-.34.228-.618-.137-.216-.25-.341-.386-.619-.113-.279-.453-.804-.022-1.083.544-.34 1.248.526 1.497.897.317.433.634.588.861 1.145.249.526.567.68.839 1.114.363.619.454.649 1.045.99.204.124.477.309.771.155.522-.31.204-1.114.183-1.639 0-.309.021-.681.021-.99.092-.062.229-.155.318-.248.385-.31.022-.928-.227-1.175-.249-.216-.545-.154-.931-.154-.748-.031-.998-1.052-1.701-1.083-.341 0-.998.495-1.247-.217-.204-.557.023-1.392.702-1.515a.976.976 0 01.886.278c.18.185.271.433.476.649.521.557.567-.062 1.383.865.431.463.658.217 1.316.34.227.03.249.062.34.279.158.494-.183.433-.158.865l.271.155c.137.093.228 0 .363 0 .363-.03.498.125.884.093.682-.03.84-.742.931-.927.205-.464.726-.619.681-1.175-.067-.618.022-.31.204-.649.204-.403.567-.711.974-.928.114-.093.59-.217.727-.248.726-.186.862-.248 1.452.186.159.125.339.248.499.402.068.092.158.185.203.247l.159.309c0 .031 0 .031.022.031.069.279-.045.618.092.866.067.124.363.495.5.495.112 0 .633-.463.68-.587.112-.217.137-.433.18-.681.047-.248.204-.742.341-.897.114-.123.296-.309.567-.216.137.062.363.31.408.433.227.433-.067.896.295 1.392.295.401.499.618.567 1.114.046.247.182.401.227.619.114.495.296.928.046 1.329l-.09.155-.023.03c-.158.155-.658.464-.84.526-1.021.34-.929 0-1.406.309a1.77 1.77 0 00-.453.371c-.294.372-.431.619-1.043.619-.341.03-.454.062-.726.155-.204.062-.408.092-.613.185-.362.248-.385.464-.432.835-.022.34-.294 1.423-.453 1.67-.204.309-.522.433-.749.68-.227.216-.406.309-.498.649-.204.804-1.157 1.701-.476 1.917.09.031.137.031.271.031.204-.217.408-.587.794-.31.386.278.318.402.408.929.022.247.431.71.749.495.022 0 .339-.31.339-.31.091-.155-.022-.372.091-.619.137-.34.431-.402.704-.619.294-.216.361-.526.588-.712.363-.309.567.063.839.218.184.123.296.03.455-.032.59-.371.839-.216 1.02-.248.159-.03.295-.186.408-.248.159-.124.228-.155.431-.248.545-.279.478-1.113 1.043-.928.363.093.455.463.861.495.931.063.771.032 1.748.929.271.248.249.588.294 1.021.045.278.204.618.386.804l.114.092c.137-.03.045 0 .159-.092.588-.587.521-.31.747-1.175l.229-.866c.09-.217.386-.496.678-.372.659.279.296 1.175.592 1.608l.43.649c.25.34.182.402.295.773.34.99-.317 1.268-.522 2.01-.386 1.361-.567.835-1.021 1.299l-.045.032c-.612.587-.296.093-.522.896-.157.619-.431.804-.565 1.361v.093c0 .05-.001.067-.003.074l.003.019c.045.187.339.31.476.248.182-.062.249-.372.476-.433.227-.03.476.185.544.31.295.402 0 .835.59 1.207.182.124.408-.062.522-.186.182-.247.137-.092.182-.464.112-.588.588-.618.929-.99.431-.433.318-.804 1.112-.618V74.111h.002c-.841-.031-1.157-.897-2.043.742-.634 1.237-.499.402-1.362.278-.294-.031-.839.093-1.247.031-.543-.062-.429-.154-1.155-.062-.771.093-1.521-.558-2.042.217-.408.618.5.959-.929 1.639-.159.093-.229.154-.408.247a4.876 4.876 0 00-1.202.743c-.272.217-.544.402-.977.186-.204-.093-.521-.402-.635-.65-.159-.403.114-.34-.271-1.021-.229-.34-.522-.463-.839-.123-.204.215-.159.371-.545.741-.476.464-.931.835-1.36 1.269-.182.185-.454.464-.794.495-.884.062-1.045-.866-1.065-1.546 0-.495.157-.743.204-1.144.09-1.052-.296-1.299.157-2.319.794-1.731 1.52-.433 2.632-.496.431-.03.771-.309 1.09-.495.341-.216.725-.341.996-.65.092-.124.159-.278.273-.372.476-.494.838.526 1.293.186 0 0 .067-.062.09-.093l.092-.062c.794-.464.814.804 1.541-.185.249-.341.747-.65.884-1.052.114-.372.022-.712.182-1.114.386-.959.727-.834.386-1.948-.159-.464-.09-.959-.18-1.114-.204-.402-.388-.309-.886-.309-.545.031-.749-.093-1.043.248l-.612.68c-.182.186-.431.124-.681.31l-.159.093c-.681.463-1.339.34-1.11 1.392.067.371-.024.649-.318.866-.249.154-.635.279-.906.402-.453.155-.861 0-1.18.124-.159.062-.567.402-.727.557-.317.248-.43.341-.93.402-.59.093-2.087-.062-2.517.093-.478.185-1.021.805-1.43 1.145-.861.773-1.065-.588-1.202-.896-.137-.309-.363-.464-.567-.711-.341-.403-.296-.495-.431-.928-.045-.093-.204-.248-.295-.31-.34-.278-.454-.155-.748-.557a1.053 1.053 0 00-.159-.185l-.158-.125c-.25-.185-.113-.185-.499-.185-.477 0-.658 0-1.021.278-.158.093-.227.216-.362.31l-.521.31c-.454.216-.794-.124-1.52.155-.408.154-.612.217-.93-.124-.182-.217-.068-.248-.182-.464-.045-.155-.204-.217-.295-.402-.386 0-.612.124-.839.341-.068.062-.182.093-.272.154-.159.124-.341.495-.998.526a.552.552 0 01-.476-.248c-.453-.618-.431-.866-1.361-.989-.317-.062-.477-.278-.657-.464-.476-.463-.612-.556-1.314-.185-.363.185-.953.248-1.157-.092-.136-.248.045-.341-.182-.619-.182-.247-.317-.124-.567-.062-1.157.402-.794-1.052-.953-1.268 0 0 0-.032-.021-.032l-.023-.031-.181-.062c-.228-.093-.272-.279-.477-.34-.589-.248-.93-.278-1.293-.68-.271-.309-.159-.526.091-.773.182-.186.499-.186.884-.341h.023l1.021-.463c.091-.062.045-.093.181-.185.272-.155.386-.34.521-.649.183-.495.522-.587.908-.309.5.371.272.248 1.021-.062.475-.186.884.247 1.11-.339.204-.527.137-.835-.181-1.145a2.549 2.549 0 01-.363-.403c-.068-.062-.136-.123-.157-.247-.068-.402.385-.742.725-.835.477-.093.317.093.771-.371.181-.186.431-.804.5-1.052.203-.804-.159-.681.884-1.516.137-.124.317-.154.477-.278.159-.124.272-.278.386-.463 0-.031.022-.031.022-.031l.023-.031.012-.064c.022-.03.022-.062.022-.093a.582.582 0 01.749-.371c.136.063.34.217.521.217.499-.031.612-.464 1.18-.247.521.155 1.383-.186 1.451-.805.046-.372-.386-.711-.702-.804-.771-.217-.567-.558-.455-.928.092-.248-.067-.649-.339-.743h-.272c-.022-.006-.037-.018-.057-.026h-28.789c.076.267-.111.283-.297.641zM517.663 113.576c-1.292.032-1.314-.185-2.313.588-.659.526-.408.464-.659.835-.294.433-.316.495-.815.619-.636.155-.636-.063-1.18-.155-.431-.093-.886-.093-1.384-.093-.543.804-.022.495-.294 1.021h-.294c-.184-.371-.092-.309-.137-.742 0-.124-.047-.185-.024-.371.092-.618-.227-1.36-.816-.835-.294.248-.204.743-.453 1.051l-.091.125c-.295.34-.862.371-1.316.278-.612-.155-.657-.557-.588-1.083.045-.34 0-.526-.047-.804-.045-.278.067-.433.182-.649.045-.093.318-.463.318-.526.135-.433-.159-.99-.59-1.051-1.225-.155-.906-.093-1.316.217-.157.123-.339.185-.521.309-.227.186-.386.155-.612.279-.613.371-1.34-.155-1.883-.464-.227-.123-.363-.123-.544-.309-.091-.092-.295-.34-.407-.433-.204-.155-.296-.34-.433-.433-.135-.092-.476-.216-.611-.248-.454-.062-2.065.186-2.245-.372-.114-.402.521-.711.771-.927.34-.279.34-.371.771-.526.113-.063.182-.093.272-.155.363-.216.704-.402.953-.773.159-.185.182-.34.272-.557.113-.31.204-1.114.136-1.546-.022-.217-.227-.433-.34-.526-.249-.248-.499-.309-.794-.495-.635-.371-.976-.557-1.475.031-.204.247-.046.278-.749.958-.838.804-.589.836-.861 1.701-.068.248-.521.743-.703.99-.341.495-.317.526-.816.897-.272.185-.703.558-.68 1.021.021.649.952.68.589 1.855-.046.187-.091.496-.159.681-.045.154-.295.371-.566.248-.408-.216-.455-.804-1.542-1.021-.227-.062-.34-.248-.522-.371-.113-.062-.158-.092-.339-.062-.387.062-.318.371-.318.681-.022.185-.068.278-.09.464-.114 1.051.907.772 1.248.927.159.062.544.278.589.463-.022.433-.386.433-.861.433-.477 0-.341-.123-1.157-.092-.612.03-.703-.186-1.044-.217-.228 0-.432.031-.636 0-.316-.03-1.134-.339-1.405-.494-.93-.526-1.679-.031-1.543.464.046.154.183.248.092.495-.317.927-1.226-.155-1.859-.032-.182.032-1.202.526-1.361.619-.158.124-.362.371-.477.525-.408.743-1.088.99-2.041.866-.748-.092-1.089 0-1.452.464-.249.371-.385.587-.021.958.226.248 1.61.464 1.95.495.43 0 .543-.031.815-.216.205-.125.387-.248.591-.372.363-.248.931-.031 1.633-.371 1.157-.618.885-.124 1.543-.278.907-.186.657-1.175 1.588-1.361a4.582 4.582 0 011.837 0c.204.062.431.279.589.371.998.804.998.496 2.042.031l.612-.34c.204-.124.43-.216.657-.34.091-.031.113-.062.158-.093.114-.093.046-.031.114-.155.386-.558.022-.372 0-.897.182-.062.25-.185.521-.093.477.124.521.804.748 1.145.294.433.567.804.045 1.237-.182.124-.204.062-.431.124-.295.124-.476.372-.748.526-1.065.525-.387.99-.93 1.546-.068.062-.228.247-.318.279-.249.093-.657.093-.839.402l-.681 1.145c-.045.125-.159.279-.204.433-.317.866.068.216-.589 1.237-.091.155-.181.248-.249.371-.068.124-.159.309-.228.401-.25.31-.363.372-.612.619-.249.216-.431.371-.657.557-.272.248-.408.34-.749.494v.526c.341.093.795.371 1.181.371.589.03.726-.155 1.156-.402.183-.093.387-.155.567-.248.838-.433.453-1.238.408-1.608-.046-.433.408-.773.681-.896.611-.248.544-.248 1.225-.341.748-.062.477-.125.816-.309.476-.31 1.134-.031 1.429.216.159.093.249.248.386.402.386.371.952.649 1.021 1.237.09.804-.248 1.763-.068 2.041.25.372.635.402.999.557.703.371 1.157.093 1.86-.093.929-.247 1.291-.464 1.745-1.33.137-.278.477-.526.794-.743.432-.31.636-.248.952-.587.273-.31.249-.773.408-1.145.431-.866 1.088-1.052 2.063-1.052.432 0 .658.341.907.649.318.31.476.464 1.09.464.453-.031.929-.093 1.361-.155 1.541-.279 1.564-1.392 2.132-2.505.204-.372.432-.526.453-1.021.069-.742-.112-.742.296-1.268.249-.31.522-.526.953-.618.839-.155.929.185 1.314.03.182-.093.341-.185.635-.123.296.03.137.216.545.216.113-.154.045-.093.182-.185.113-.092.113-.092.182-.185.09-.154.181-.279.363-.372.271-.123.453-.247.611-.495.545-.865.796-.093 1.202-.185.182-.031.318-.155.59-.155.341-.03.296.093.522.186v-3.344h-.003c-.887.037-.817.872-1.975.872zM440.479 63.286c.748-.248.499.248 1.769.556.386.063.59-.216.794-.371.114-.092.204-.186.295-.278l.228-.341c0-.03.022-.03.022-.03.091-.248.046-.248-.022-.463-.022-.155-.067-.403-.067-.588.021-.278.226-.619.407-.804.431-.433.454-.124.931-.278.227-.093.634-.402.906-.155.113.062.182.216.386.216.454-.03.5-.927 1.066-.588 1.112.681.977.279 1.974.465.771.154.793.154 1.405-.248.159-.093.25-.124.387-.248.726-.681.589-.835 1.384-.217.362.279.271.155.726.464.295.185.59.402.839.093.431-.527-.272-1.114.635-1.702.137-.093.249-.155.386-.216.272-.093.182-.062.363-.279.386-.463 0-.772-.022-1.453 0-.897-.861-.618-1.134-.618-.408 0-.657-.125-.885-.341-1.021-1.021-.612-.99-.84-1.577-.112-.309-.271-.588-.316-.897-.045-.31-.25-.557-.499-.712-.296-.155-.454.031-.998-.804-.315-.454-.358-.377-.194-.674H439.64v12.148c.295.281.544.033.839-.06z"/><path fill="#020101" d="M494.211 98.204c-.341 0-.5.217-.907.155-.408-.062-.228-.433-.159-.711.091-.341.046-.495.295-.742.182-.185.454-.279.681-.403.521-.216.885-.772.182-1.174-.25-.125-.566-.093-.886-.155-.408-.093-.453-.216-.884-.062-.408.155-.885.495-1.452-.278-.158-.216-.317-1.207-1.156-.433-.454.402-.771.649-1.405.216-1.089-.742-.363-1.206-1.18-1.979-.545-.526-1.111.185-1.362.433-.703.773-1.065 2.412-2.086 2.072-.317-.124-.34-.279-.84-.279-.816.031-.952.712-.181.866.293.031.566.124.906.093.295-.062.25-.062.453.062.159.062.25.062.295.248.045.216-.068.773-.136.928-.068.093-.045 0-.204.278-.068.155-.158.186-.227.341-.272.742.294.959.271 1.67-.021.31-.158.248-.182.897 0 .433.159.464-.158.774-.204.247-.408.216-.703.339-1.202.558-.702.217-1.77.217a.905.905 0 00-.408.092c-.136.063-.25.063-.34.186-.068.062-.363.526-.408.649-.092.218.204.557.362.619.25.093 1.385.402 1.634.433.726.062 1.11-.309 1.474-.649.771-.712.771-.185 1.565-.526.249-.125.431-.279.771-.279.317 0 .567.216.726.371.204.186.316.309.5.558.203.248.181.402.476.556.476.279.544-.401 1.496.464.249.217.34.403.703.217.113-.062.227-.093.341-.155.386-.247-.068-.155.658-.402.408-.155 1.065-.928 1.746-.928.158 0 .294 0 .408-.093.34-.34-.091-.433-.068-1.237.001-.402.046-.649.046-1.051.408-.186.408-.093.681.186l.045.03v.031c.023 0 .023 0 .023.03.589 0 .861-.681.997-1.175.137-.557.204-.835-.181-1.175-.158-.125-.202-.156-.452-.125zM507.251 63.318c-.476-.248-.453-.186-.839-.557-.59-.556-1.588-1.36-1.135-1.979.453-.618 1.065-.495 1.723-1.113.229-.217.251-.31.251-.712-.023-.31.045-.742.045-.928-.022-.155-.022-.093-.045-.155-.092-.124-.228-.309-.387-.341a9.19 9.19 0 00-.907-.062c-.725 0-.839.557-1.337.618-.182 0-.749 0-.908-.03-.341-.062-.59-.186-.748-.217-.316-.062-1.494 0-1.926 0-.159-.278-.522-.248-.25-1.021.159-.433.159-.804-.136-1.113-.228-.217-.363-.185-.749-.185-.5.031-1.429-.495-1.973-.125l-.228.155c-.386.247-.249.309-.498.587-.386.433-.068.804-.386 1.485-.136.31-.114.03-.295.681-.158.619-.612.897-1.021 1.793-.317.742.046.865.477 1.206.205.186.273.31.658.279.272-.032.431-.155.59-.372l.386-.495c.589-.557 1.359.279 1.451.495.067.155.112.742.453 1.021.703.618.84.125 1.43.125.498 0 1.18.185 1.225.711.022.34-.114.587-.182.804-.069.279-.091.526-.159.773-.182.526-.409.773-.657 1.268-.114.186-.159.463-.272.681-.113.278-.068.34.113.71.068.125.727.588.816.619.114.03.316.03.5.03.498-.062 2.019-.248 2.403-.463 1.133-.649 1.361-1.763 1.7-2.072.273-.247.182-.278.522-.433.363-.186.339-.124.565-.433.434-.555.116-1.08-.27-1.235zM439.867 125.855c.295.278.227.31.341.433.068.093.158.125.272.093l.158-.093.023-.03c.091-.125.113-.155.159-.309.066-.217.158-.372.227-.558.159-.371.249-.804.363-1.238.158-.588.045-.896.021-1.485-.021-2.257.228-1.546.272-2.134.046-.835-.635-.681-.317-1.855.136-.465 0-.929-.045-1.454-.023-.279-.046-.526.021-.743.114-.433 1.793-2.876 2.428-3.155.341-.155.657-.464.794-.804.091-.339.34-.649.408-.804.114-.248.249-.618.295-.866.045-.402.021-.433-.182-.649-.748-.804-1.225-.062-1.837-.526-.136-.125-.317-.216-.363-.402-.045-.186-.022-.526.068-.68.25-.34.636-.557.84-.711.43-.403.748-.897.929-1.454.068-.248.113-.433.113-.742s-.09-.372-.226-.587l-.749-.835c-.181-.155-.204-.279-.34-.463-.137-.155-.249-.217-.272-.495-.091-.526.408-.835.521-1.021.249-.433-.113-.804-.204-.928-.566-.804-.386-.804-.453-1.515-.136-1.33-.794-1.268-.953-.619-.227.835.091 1.083-.408 1.979-.113.217-.136.31-.249.558-.068.154-.204.339-.295.464-.861 1.175-.407 1.021-.589 1.423-.068.186-.294.34-.227.897.227.155.227.032.499.464.363.557-.249.99-.477 1.485-.045.093-.045.155-.09.248-.046.155-.046.093-.092.185-.091.186 0 .372-.091.557-.09.217-.113.062-.158.403-.092.557-.137.587-.023 1.082.137.526.137.526 0 1.052-.272 1.052.045 1.36-.045 1.64-.046.185-.272.34-.272.34-.002-.034-.024-.002-.024.028v13.639l.136.093a.276.276 0 00.093.092zM510.859 51.2h-1.53l.146.087c.275.08.812-.016 1.384-.087zM512.741 52.709c-.182.649-.045.835-.476 1.423-.431.588-.386.897-.635 1.3-.114.185-.204.277-.069.525l.047.062v.03s.022 0 .022.031c.159.216.521.433.771.588.182.154.316.154.612.124.386 0 .386-.062.657-.124.227-.031.5-.031.727-.093.227-.03.408-.062.658-.124.431-.093.657-.248.974-.557.09-.093.273-.309.341-.402.294-.34.431-.773.567-.99.18-.248.521-.619.793-.742.341-.185.704-.371.749-.835.023-.278-.068-.433-.204-.618-.159-.186-.228-.186-.477-.31-.227-.092-.702-.463-.839-.68-.041-.046-.081-.08-.122-.118H512.2c.247.056.464.151.608.334.274.372.047.743-.067 1.176zM454.268 116.141c-.113-.093-.136-.186-.249-.278-.25-.248-.612-.649-.612-.99.021-.556.907-.804.249-1.578l-.476-.618c-.453-.464-.453-.155-1.293-.896-.272-.217-.204-.31-.635-.433-1.157-.248-.635-.928-2.495-.774v.466h.001c.385.186.204.031.657.433.362.309.067 1.453 0 1.825-.091.433-.204.525.091.866.09.093.158.186.294.216.432.186.681.371.727.928.045.526-.431.958-.113 1.33l.567.804-.022.31c0 .03-.023.03-.023.03v.031l-.067.37c-.137.372-.318.681.34.959.432.186.159-.093.727.403.182.154.431.309.611.463.5.402.931.557 1.293-.217.159-.371.136-.495.407-.712.092-.092.182-.216.272-.278.113-.062.703-.31.907-.742.25-.433.068-.834-.271-1.145-.183-.185-.297-.124-.887-.773zM518.592 57.379c-.135.31-.227.341-.476.526-.952.804-.862 1.021-1.36 1.701-.251.372-.637.896-.637 1.392.024.186 0 .093.069.217l.227.495c.453 1.207-.543 1.392-.271 2.474.112.433 1.065 1.36 1.723 1.331.317 0 .568-.093.862-.125l.908-.062v-8.195c-.524-.217-.545-.867-1.045.246z"/><path fill="#020101" d="M491.693 105.628c-.295-.124-.703-.186-1.271-.433-.567-.248-.453-.186-.816-.433-.113-.093-.227-.093-.34-.125-.204-.093-.317-.278-.612-.248-.454.031-.771.496-1.225-.124-.159-.216-.341-.093-.567-.34-.227-.279-.612-.804-1.089-.433-.68.526-.182 1.175-.204 2.104 0 .31-.158.526-.09.773.295.866 1.837.495 1.179 1.949-.09.185-.272.34-.227.558.046.248.25.309.521.185l1.066-.649c.272-.217.362-.031.566-.31.204-.309.091-.309.113-.68.362-.248.385-.31.975.062.363.248.431.495.045.773-.021 1.051 1.203.154 1.566-.093.091-.063.137-.124.204-.186.636-.587.092-.093.636-1.082.068-.124.113-.186.158-.309.114-.217.091-.464-.068-.619a1.135 1.135 0 00-.52-.34zM456.173 62.081c-.452-.125-1.746-.495-2.154-.372-.794.248-1.088.402-1.475 1.114-.43.896.522 1.268.182 2.134-.114.278-.453.526-.295.99.091.309.362.433.589.649.499.433 1.475.65 2.042.433.408-.155 1.339-.711 1.543-1.051.34-.587.249-1.763.272-2.351.022-.402.294-.804.136-1.083-.204-.371-.386-.34-.84-.463zM440.616 94.4c.385-.278.43-.34 1.021-.34.793 0 1.7-.927 1.564-1.948-.045-.248-.113-.278-.316-.402-.408-.278-.567.125-1.181 0-.386-.062-.59-.433-1.043-.124-.249.155-.589.433-.93.495-.008-.014-.011-.013-.017-.02.006-.004.009-.001.017-.012.014-.019.021-.021.03-.027l-.067.016h-.003l-.051.012v2.661c.295.154.748-.186.976-.311z"/><path fill="#020101" d="M439.761 92.022l.015-.003c.019.078.034-.032-.015.003zM498.088 53.081c-.159.278-.113.248.021.495.386.649.204.185.567.588.228.248.454.402.931.216.25-.093.703-.433.862-.68.227-.341.271-.835.271-1.33 0-.68 0-.804-.408-1.145-.01-.009-.022-.016-.033-.024h-1.707c-.024.029-.041.047-.073.087-.295.37.204.772-.431 1.793zM474.455 73.215c-.453-.093-1.11.99-1.724 1.33-.317.186-.816.619-1.065.835-.681.586-.906.184-.861.896.316.217 1.474.712 2.041.248.249-.217.34-.217.635-.31.566-.185.749-.681.635-1.268-.068-.34-.182-.279-.022-.68.045-.155.068-.217.158-.31.092-.061.228-.154.272-.216.023 0 .023-.03.023-.03.022 0 .022-.031.022-.031a.577.577 0 000-.34c-.069-.185.045-.092-.114-.124zM449.326 63.472c-.114-.402-.341-.835-.84-.619-.228.124-.566.587-.681.835-.681 1.238.183 2.042.5 2.072.386.032.702-.526 1.134-.154.341.34.613.309.816-.216.341-.897-.657-.897-.929-1.918zM441.976 85.585c-.204.093-.454.186-.567.619-.068.34-.045.866.046 1.114.067.155.136.278.182.433.182.433-.068.556.34.866.182.155.295.155.453 0 .137-.155.272-.218.362-.372.409-.587.363-1.886-.022-2.319-.227-.247-.566-.464-.794-.341zM461.528 120.659c.409.093.499-.031.703-.279.228-.278.25-.34.159-.804-.068-.309-.068-.526-.272-.742-.16-.185-.432-.402-.771-.247-.294.155-1.065.649-.952 1.114.067.278.839.896 1.133.958zM515.146 66.132c-.047-.619-.5-1.176-1.021-.99-.363.093-1.203.526-1.066.959.067.248.839.897 1.111.99.454.124.5 0 .749-.217.317-.277.249-.309.227-.742zM489.402 62.946c-.204.093-.158.031-.317.186-.363.34-.702.773-.612 1.36.023.186.317.712.794.496.317-.124.748-.31.952-.557.068-.124.068-.248.068-.433 0-.526-.295-1.206-.885-1.052zM517.527 70.184s-.089-.124-.113-.124c-.159-.185-.296-.092-.431-.062-.635.186-1.247 0-1.725.403-.341.248-.498.619-.112.99.476.464.702-.31 1.837-.525.227-.031.227-.031.363-.155.09-.093.227-.186.249-.31.023-.279.023-.063-.068-.217zM449.142 109.586c.183.125.568.155.794.031.455-.247.522-.835.296-1.268l-.613-.742c-.248-.216-.316-.093-.316-.093-.228.093-.296.155-.296.619-.001.557-.386 1.083.135 1.453zM517.187 121.958c.249.217.363.217.771.186.113-.186.295-.279.362-.526.046-.155-.045-.618-.091-.774-.158-.588-.521-.804-1.043-.433-.296.217-.794.619-.431 1.114.069.093.342.339.432.433z"/><path fill="#1F0F13" d="M506.321 56.542c.227 0 .273 0 .386-.092.184-.123.365-.34.365-.556 0-.557-.386-.773-.659-1.083-.157-.185-.249-.339-.565-.279-.318.063-.229.248-.229.649 0 .28-.317 1.361.702 1.361z"/><path fill="#020101" d="M506.686 108.814c-.092-.001-.069-.001-.092.03-.135.062-.157.062-.227.186-.045.155-.022.278-.022.433 0 .31-.137.495-.092.804.022.433.567.835 1.045.557.633-.371.361-1.02.045-1.484-.159-.216-.385-.588-.657-.526zM511.675 112.618c-.022.619-.204 1.083-.092 1.331.092.247.59.619.953.402 1.021-.712-.067-1.516-.296-1.887-.361-.032-.361.03-.565.154z"/><path fill="#1F0F13" d="M465.497 65.05h-.362c-.136.248-.25.279-.34.557-.068.217-.682.649-.478 1.145.091.184.182.4.318.524l.272-.124.544-.742c.25-.402.295-.402.204-1.021-.022-.184-.089-.216-.158-.339z"/><path fill="#020101" d="M497.205 97.71c-.137.031-.25.155-.362.278-.408.433.521 1.361 1.11.557.113-.124.204-.278.136-.463-.09-.342-.522-.527-.884-.372z"/><path fill="#1F0F13" d="M463.931 117.845c.046-.185-.227-.959-.386-1.082l-.228-.093c-.203 0-.09 0-.135.03-.296.186-.137.093-.272.403-.068.154-.183.31-.092.526.114.339.954.927 1.113.216z"/></svg>