<svg xmlns="http://www.w3.org/2000/svg" width="272.687" height="337.292"><path fill="none" d="M127.876 0h19.761-20.34v5.855h.672c.057-1.419-.384-5.855-.093-5.855zM50.854 109.995c-1.31-.088-1.063 1.211-1.063 1.211-1.544 10.234-.679 23.927-.679 23.927a703.061 703.061 0 00-.787 8.783 99.329 99.329 0 00-.131 3.046l-.914 4.638c-3.406 1.922-8.973 1.766-8.973 1.766a100.327 100.327 0 01-10.202-.911l12.707-64.368c-.234-.674-.465-1.353-.688-2.039 0 0-.733-2.895-1.712-7.395l-14.487 73.389c-8.072-1.548-13.927-3.897-17.835-5.931L27.315 38.596c-.229.183-.46.365-.69.541 0 0-1.91 1.436-4.646 4.548L2.261 143.569a23.906 23.906 0 01-2.14-1.589 1.078 1.078 0 01-.121.322s11.184 10.504 38.379 11.568c0 0 6.756.201 9.934-2.406 0 0-.215-1.928.078-7.035 0 0 .4-4.828.787-8.775 0 0-.865-13.684.678-23.91 0 0-.293-1.449 1.25-1.203.031.084.062.178.092.266-.059-.173-.113-.361-.174-.524a33.904 33.904 0 01-.17-.288zM172.061 335.984V6.188h-4.216v329.986c1.519-.064 2.924-.127 4.216-.19z"/><path fill="none" d="M217.764 327.701c-1.094.911-2.459 1.794-4.178 2.536l-.038.024v-.269c-.513.322-5.371 3.171-18.626 4.637V15.551a155.24 155.24 0 01-4.216-1.917v321.387c1.483-.113 2.883-.244 4.196-.39v.278a127.87 127.87 0 01-4.216.392c-2.769.213-5.828.367-9.225.433 0 0-3.448.242-9.421.529-1.292.063-2.696.127-4.216.191v-.279c-5.097.216-11.42.433-18.626.576V6.188h-1.03c.012.064.027.108.048.108h-3.253v330.809c-5.786.087-12.054.121-18.646.069v.093c31.197.243 55.131-1.439 55.131-1.439 24.68-.479 32.1-5.492 32.1-5.492 5.432-2.345 7.397-6.077 8.029-7.733-.457 1.154-1.521 3.188-3.813 5.098zM53.538 23.953v99.208c.824 7.442 1.038 14.714 1.038 14.714.984 11.824 2.154 25.641 3.173 37.612V22.663c-1.586.501-3.004.932-4.211 1.29zM78.828 334.868c.596.05 1.191.098 1.787.146V14.117a164.493 164.493 0 01-4.221 1.816v318.716a48.69 48.69 0 002.434.219z"/><path fill="none" d="M126.338 336.896V6.188h-4.216v330.663c1.419.019 2.824.034 4.216.045zM213.605 329.958c1.719-.743 3.084-1.626 4.178-2.537v-30.813c-2.175-14.539-3.544-25.988-4.216-32.003v65.376l.038-.023zM122.103 336.852a706.82 706.82 0 01-18.626-.488V6.188h-2.717a31.51 31.51 0 00-1.519.127v330.146a560.176 560.176 0 01-20.433-1.314s-.924-.052-2.434-.22v-.281c-4.129-.461-12.603-1.802-18.626-5.364v-51.185c-1.518 13.441-3.22 24.086-4.211 29.819v17.955c1.13 1.312 2.569 2.436 4.191 3.397v.292c-1.63-.964-3.076-2.092-4.211-3.409-.129-.149-.25-.305-.371-.459 6.464 8.482 25.724 9.548 25.724 9.548 14.734 1.235 29.582 1.8 43.231 1.981v-.369zM222.477 110.299s-1.647 3.168-2.633 9.319c.988-5.981 2.59-9.062 2.59-9.062.117-.179.234-.377.351-.568.042-.124.082-.251.123-.375a25.06 25.06 0 01-.431.686zM213.567 21.776v173.683c1.925-18.261 3.56-43.301 3.56-43.301.234-2.182.453-4.432.656-6.67V23.101a138.36 138.36 0 00-4.216-1.325z"/><path fill="none" d="M270.133 144.38a95.38 95.38 0 01-6.606 2.911L241.322 34.809a248.304 248.304 0 00-3.299-3.014c.05 1.123.191 4.696.216 9.542l21.265 107.719c-7.163 2.472-13.417 3.648-18.181 4.183l-11.687-59.202a158.864 158.864 0 01-2.771 7.349l10.249 51.921c-3.527.177-5.54-.021-5.54-.021-6.083.079-7.023-2.746-7.023-2.746-.218-7.888-.805-15.127-.805-15.127-.139-13.601-.509-21.272-.509-21.272-.273-2.058-.487-3.03-.581-3.402-.037.116-.077.224-.113.342 0 0 .262.803.631 3.596 0 0 .371 7.666.51 21.256 0 0 .586 7.234.803 15.117 0 0 .939 2.822 7.018 2.744 0 0 16.846 1.65 38.533-8.9 0 0 2.29-1.525 2.61-3.968-.542 2.139-2.515 3.454-2.515 3.454zM52.791 325.209c-.041-.058-.084-.115-.123-.174.039.06.083.115.123.174zM212.642 203.46c.213-1.648.425-3.429.635-5.311a291.536 291.536 0 01-.629 5.213l-.006.098z"/><path fill="#FFF" d="M144.964 337.105V6.297h3.253c-.021 0-.036-.044-.048-.108h-.532V0h-19.761c-.291 0 .15 4.436.093 5.854h-.672v.333h-.959V337.01h-4.216v-.16h-.02v.372c1.419.019 2.824.033 4.216.044v-.093c6.592.054 12.86.019 18.646-.068z"/><path fill="#E6E6E6" d="M57.729 329.563v-.292c-1.622-.962-3.062-2.086-4.191-3.397v-17.955c-.521 3.008-.845 4.664-.845 4.664a114.528 114.528 0 01-1.588 8.098 9.691 9.691 0 001.563 4.355c.039.059.082.116.123.174.112.166.234.325.356.485.121.154.242.31.371.459 1.135 1.317 2.582 2.445 4.211 3.409z"/><path fill="#FFF" d="M49.178 25.192c-6.371 2.128-13.498 5.599-13.498 5.599v-.031s-4.085 4.43-8.364 7.835L6.091 146.111c3.908 2.033 9.763 4.383 17.835 5.931l14.487-73.389c.979 4.5 1.712 7.395 1.712 7.395.223.686.453 1.365.688 2.039l.045-.23c4.237 12.179 10.185 22.146 10.185 22.146-.072-.012-.122-.003-.188-.007l.169.287c.061.163.115.351.174.524 1.08 3.052 1.829 7.732 2.341 12.354V23.953a168.027 168.027 0 01-4.361 1.239zM78.828 334.868s-.924-.051-2.434-.219a.136.136 0 00-.02-.002v.281c1.51.168 2.434.22 2.434.22a537.566 537.566 0 0020.433 1.314V6.315a48 48 0 00-5.517.937c-3.933 2.487-8.47 4.791-13.109 6.864v320.897a368.29 368.29 0 01-1.787-.145zM167.845 336.175l-.02.001v.279a712.36 712.36 0 004.216-.191c5.973-.287 9.421-.529 9.421-.529 3.396-.065 6.456-.22 9.225-.433 1.49-.114 2.896-.246 4.216-.392v-.278a124.27 124.27 0 01-4.196.39V13.634c-5.962-2.817-10.12-5.225-10.12-5.225-1.451-1.157-7.42-2.221-7.42-2.221h-1.105v329.796c-1.293.063-2.698.126-4.217.191z"/><path fill="#E6E6E6" d="M213.605 329.958l-.038.023-.02.012v.269l.038-.024c1.719-.742 3.084-1.625 4.178-2.536 2.292-1.91 3.356-3.944 3.814-5.099.199-.521.27-.843.27-.843.586-1.543-.863-5.213-.863-5.213a932.198 932.198 0 01-3.201-19.938v30.813c-1.094.91-2.459 1.793-4.178 2.536z"/><path fill="#FFF" d="M222.907 109.612c1.07-3.182 2.436-5.737 3.853-8.764l.105.536a157.724 157.724 0 002.771-7.349l11.687 59.202c4.764-.534 11.018-1.711 18.181-4.183L238.239 41.337a251.899 251.899 0 00-.216-9.542l-.086-.078v.007c-6.683-3.863-14.99-6.913-20.154-8.623v122.386c1.051-11.612 1.658-22.931 1.658-22.931.114-1.048.252-2.025.402-2.938.985-6.151 2.633-9.319 2.633-9.319.144-.219.288-.449.431-.687zM122.122 337.012h4.216v-.116a767.759 767.759 0 01-4.216-.044v.16z"/><path fill="#070708" d="M76.375 334.647l.02.002V15.933c-6.845 2.834-13.583 5.132-18.646 6.73v152.823c1.373 16.138 2.472 28.918 2.472 28.918 1.737 26.065-.151 53.147-2.472 73.694v51.185c6.023 3.563 14.497 4.904 18.626 5.364zM122.103 336.852h.02V6.188h-18.645v330.175c6.366.254 12.611.408 18.625.489zM167.825 336.176l.02-.001V6.188h-18.646v330.563c7.206-.143 13.53-.359 18.626-.575zM212.9 21.583c-5.982-1.214-12.429-3.611-17.979-6.031V334.63c13.255-1.466 18.113-4.314 18.626-4.637l.02-.012v-65.376c-.335-2.997-.497-4.654-.497-4.654-2.406-26.223-.477-56.117-.477-56.117.016-.121.031-.251.048-.374l.006-.098c.211-1.609.421-3.366.629-5.213.098-.876.194-1.776.291-2.69V21.776c-.43-.127-.667-.193-.667-.193zM21.979 43.685c-6.501 7.396-17.7 24.328-19.264 54.453l-.293 7.805-.586 6.371s-.184 7.914-.863 14.947c0 0-.258 12.393-.852 14.719.326.278 1.025.844 2.14 1.589l19.718-99.884zM38.308 153.365s5.566.156 8.973-1.766l.915-4.638c.022-.857.063-1.863.131-3.046 0 0 .4-4.83.787-8.783 0 0-.865-13.692.679-23.927 0 0-.247-1.299 1.063-1.211.065.004.115-.005.188.007 0 0-5.947-9.967-10.185-22.146l-.045.23-12.707 64.368a99.67 99.67 0 0010.201.912zM270.133 144.38s1.974-1.315 2.515-3.456c.048-.37.054-.759-.003-1.168 0 0-1.436-19.096-2.453-35.293 0 0 1.727-29.647-15.627-56.117 0 0-4.386-5.304-13.242-13.537l22.204 112.482a96.347 96.347 0 006.606-2.911zM223.746 135.412s.587 7.239.805 15.127c0 0 .94 2.825 7.023 2.746 0 0 2.013.197 5.54.021l-10.249-51.921-.105-.536c-1.417 3.026-2.782 5.582-3.853 8.764-.041.124-.081.251-.123.375.087-.141.173-.271.259-.418-.135.379-.261.771-.387 1.167.094.372.308 1.345.581 3.402 0 .001.37 7.673.509 21.273z"/></svg>