<svg xmlns="http://www.w3.org/2000/svg" width="265.948" height="336.412"><path fill="none" d="M48.744 110.555c.05.725.067 1.834.064 3.238.004-1.406-.014-2.515-.064-3.238zM142.212 336.276zM55.155 22.192c-1.773.554-3.217.988-4.211 1.282v85.192c.338 1.802.602 3.752.808 5.736.983 8.959.74 18.829.74 18.829.586 32.826 1.589 45.844 1.589 45.844.078 5.516.616 10.389 1.074 13.61V22.192zM137.539 336.378zM55.155 328.247v-60.299a645.739 645.739 0 01-4.211 30.896v28.168c1.258.429 2.67.842 4.211 1.235zM168.761 334.651zM146.277 336.138zM132.95 336.412zM192.327 331.647V15.86a125.703 125.703 0 01-4.216-1.89v318.213c1.448-.179 2.856-.359 4.216-.536zM77.602 332.495zM78.02 332.149V13.885a157.19 157.19 0 01-4.22 1.754v315.969c1.398.189 2.806.369 4.22.541z"/><path fill="none" d="M48.528 131.403s-1.157 5.356-1.157 12.595c0 0 .14 2.61-1.157 3.043 0 0-6.223.029-14.738-.996l13.868-70.25a69.227 69.227 0 01-.102-1.168s-.15-5.848-1.228-13.463l-16.722 84.712c-5.719-.865-12.087-2.208-18.158-4.3l21.315-107.97a88.625 88.625 0 00-5.392 5.149L5.136 139.661a56.852 56.852 0 01-5.088-2.396l-.048.47c18.51 9.98 46.275 9.842 46.275 9.842 1.296-.432 1.157-3.039 1.157-3.039 0-7.234 1.157-12.586 1.157-12.586.03-9.873.447-18.666.154-21.396.05.723.067 1.832.064 3.238.003-1.404-.015-2.514-.064-3.238a7.933 7.933 0 00-.062-.562c.202 2.901-.122 11.993-.153 21.409zM128.214 336.368zM96.667 23.174v310.87c1.464.124 2.872.238 4.215.343V26.085c2.361 1.561 5.224 3.065 8.714 4.44 0 0 3.454 1.422 9.933 2.401V335.65c1.391.079 2.797.144 4.215.195V33.841c5.001.476 11.252.603 18.646-.136v302.168c1.404-.041 2.811-.09 4.215-.147V32.802c1.588-.249 10.938-1.863 18.646-6.492v308.246c1.418-.118 2.824-.24 4.215-.367V23.674c4.473-3.903 7.397-9.281 5.967-16.629 0 0 .657.389 1.78 1.023-.685-.876-2.253-1.585-3.062-2.346-1.557-1.467-1.426-2.082-3.867-2.718-4.528-1.18-12.605-2.255-17.936-2.22-2.642.017-3.538-.417-6.185-.405-2.203.009-4.411.025-6.611.023-2.364-.002-3.588-.359-6.063-.401H132.33c-4.062.042-7.631.409-12.149.385-6.569-.035-18.069 1.026-24.201 2.544-2.664.66-2.349.991-3.987 2.603-.894.878-2.752 1.748-3.375 2.74.657-.408 1.29-.816 1.869-1.226-.002-.002-2.237 8.182 6.18 16.127z"/><path fill="none" d="M49.786 104.521l-1.397 4.592c.068-.015.125.057.172.201l1.332-4.38-.069-.206a5.95 5.95 0 00-.038-.207zM123.562 336.238zM230.369 29.27l-.069.246.069-.246zM146.604 335.726v.398a446.013 446.013 0 0018.646-1.17v-.397c-6.052.501-12.333.913-18.646 1.169zM215.188 22.609a108.171 108.171 0 00-4.215-1.128v170.244c1.44-14.647 2.482-45.182 2.482-45.182.386-4.828.201-10.227.201-10.227-.477-8.108-.133-14.832.435-19.943a87.274 87.274 0 011.097-7.461V22.609zM214.286 328.358c.319-.098.617-.202.902-.31v-31.435c-1.926-13.292-3.282-25.225-4.215-35.816v68.122c2.135-.35 3.313-.561 3.313-.561zM257.876 140.208L237.061 34.762a68.775 68.775 0 00-5.254-4.451l22.02 111.546c-5.452 1.63-12.009 3.386-18.118 4.499L221.23 73.009a651.274 651.274 0 00-1.992 11.272l12.305 62.334c-5.372.711-10.057.723-12.809-.594 0 0 .277-4.631-.587-11.006 0 0-.433-2.748-.294-4.631 0 0 .425-21.516-1.59-25.752l-.031.28-.063.211c2.051 4.064 1.622 25.808 1.622 25.808-.139 1.883.293 4.629.293 4.629.864 6.369.586 10.998.586 10.998 10.258 4.904 47.279-8.547 47.279-8.547l-.031-.497c-.638.231-3.712 1.323-8.042 2.694zM55.155 328.247v.391c5.16 1.322 11.745 2.439 18.646 3.367v-.396c-6.897-.927-13.481-2.043-18.646-3.362zM114.52 335.305s-5.606-.291-13.639-.918v.398c8.039.627 13.652.919 13.652.919 1.639.137 3.308.25 4.995.346v-.398c-1.692-.096-3.365-.21-5.008-.347zM192.327 331.647v.396a579.728 579.728 0 0018.646-2.729v-.395a578.208 578.208 0 01-18.646 2.728z"/><path fill="#070708" d="M73.8 331.608V15.64c-6.879 2.748-13.913 5.073-18.646 6.553v170.493c.359 2.526.669 4.036.669 4.036 2.313 34.137.293 61.902.293 61.902-.3 3.164-.624 6.275-.962 9.324v60.299c5.166 1.319 11.75 2.435 18.646 3.361zM119.528 32.927c-6.479-.979-9.933-2.401-9.933-2.401-3.49-1.375-6.353-2.879-8.714-4.44V334.388c8.032.627 13.639.918 13.639.918 1.643.138 3.316.251 5.008.347V32.927zM165.25 26.311c-7.709 4.628-17.059 6.243-18.646 6.492v302.923a446.033 446.033 0 0018.646-1.169V26.311zM202.01 19.284c-3.061-.786-6.416-2.032-9.683-3.424v315.788a581.115 581.115 0 0018.646-2.728v-68.122c-3.806-43.201-.603-64.121-.603-64.121.207-1.284.409-2.975.603-4.951V21.481c-2.698-.671-5.589-1.33-8.963-2.197zM25.057 38.754c-1.381 1.433-2.212 2.388-2.212 2.388C3.609 59.359 2.313 101.733 2.313 101.733 2.047 116.981.355 134.236.048 137.266a57.41 57.41 0 005.088 2.396L25.057 38.754zM48.389 109.113l1.397-4.592c-.38-2.038-3.547-19.152-4.443-28.727l-13.868 70.25c8.516 1.025 14.738.996 14.738.996 1.297-.433 1.157-3.043 1.157-3.043 0-7.238 1.157-12.595 1.157-12.595.031-9.416.355-18.509.154-21.41-.058-.372-.132-.503-.231-.317l.11-.362c-.046-.143-.103-.215-.171-.2zM265.917 137.516c-.88-14.104-2.869-44.328-2.869-44.328-.617-17.57-6.016-31.993-12.726-42.513a82.851 82.851 0 00-13.262-15.913l20.816 105.446a236.596 236.596 0 008.041-2.692zM217.852 130.385c-.139 1.883.294 4.631.294 4.631.864 6.375.587 11.006.587 11.006 2.752 1.316 7.437 1.305 12.809.594l-12.305-62.334c-1.966 11.733-2.811 18.896-2.975 20.352 2.015 4.235 1.59 25.751 1.59 25.751z"/><path fill="#FFF" d="M214.286 328.358s-1.178.211-3.313.562v.395c2.099-.346 3.253-.552 3.253-.552 4.442-1.357 5.6-3.855 5.6-3.855a789.915 789.915 0 01-4.638-28.293v31.435c-.285.106-.583.211-.902.308zM50.944 327.012v-28.168c-2.367 14.71-4.449 24.393-4.668 24.999l-.386 1.064c1.669 1.392 4.976 2.631 9.265 3.73v-.391a55.679 55.679 0 01-4.211-1.234zM216.262 104.633c.164-1.456 1.009-8.619 2.975-20.352.567-3.388 1.227-7.15 1.992-11.272l14.479 73.347c6.109-1.113 12.666-2.869 18.118-4.499l-22.02-111.546c-.887-.672-1.404-1.018-1.438-1.041l-.069.246.069-.246a.105.105 0 00-.007-.005c-6.024-3.521-10.525-5.301-15.173-6.655v86.304a87.274 87.274 0 00-1.097 7.461c.774-6.959 1.964-10.923 2.07-11.266l.007.016.063-.211.031-.281zM142.389 335.873V33.705c-7.395.739-13.646.612-18.646.136v302.005a210.312 210.312 0 01-4.215-.195v.398l.186.011a214.802 214.802 0 004.175.191 235.057 235.057 0 004.504.12c1.51.026 3.03.04 4.558.041h.087a308.042 308.042 0 004.829-.039c1.446-.022 2.895-.055 4.346-.097l.378-.011a378.5 378.5 0 003.688-.128l.327-.014v-.398c-1.406.058-2.813.107-4.217.148zM50.944 23.474c-.956.282-1.506.438-1.506.438-11.568 3.332-13.883 5.646-13.883 5.646l.006.022c-1.786 1.234-3.521 2.635-5.113 4.025L9.133 141.575c6.071 2.092 12.439 3.435 18.158 4.3l16.722-84.712c1.077 7.616 1.228 13.463 1.228 13.463.029.374.064.767.102 1.168.896 9.575 4.063 26.689 4.443 28.727l.039.207.069.206.002-.007.422 1.264c.648 2.376 1.109 5.244 1.435 8.212-.206-1.984-.47-3.935-.808-5.736V23.474zM96.667 334.044V23.174c-8.416-7.946-6.182-16.129-6.182-16.129-.579.41-1.212.818-1.869 1.226a1.422 1.422 0 00-.177.37c-2.937 1.803-6.568 3.578-10.419 5.245V332.15a356.755 356.755 0 01-4.22-.541v.396l.576.078c1.07.142 2.146.279 3.225.412 8.223 1.014 16.591 1.768 23.28 2.29v-.398a652.966 652.966 0 01-4.214-.343zM188.111 332.183V13.97a171.215 171.215 0 01-10.663-5.512 1.767 1.767 0 00-.236-.389c-1.123-.634-1.78-1.023-1.78-1.023 1.431 7.348-1.494 12.727-5.967 16.629V334.19c-1.391.127-2.797.249-4.215.367v.397l.57-.048a558.8 558.8 0 002.94-.255 592.923 592.923 0 0023.565-2.608v-.396c-1.358.177-2.766.357-4.214.536z"/></svg>