<svg xmlns="http://www.w3.org/2000/svg" width="265.948" height="335.955" viewBox="24.295 312.958 265.948 335.955"><path fill="#F6F6F6" d="M290.243 450.512c-.863-13.883-2.9-44.825-2.9-44.825-.617-17.569-6.016-31.992-12.725-42.512-9.039-14.16-19.961-21.41-19.961-21.41-11.137-6.51-17.061-7.08-28.352-9.98-11.291-2.9-26.609-12.001-26.609-12.001.021.109.027.21.046.318-.731-.702-2.032-1.295-2.739-1.926-1.502-1.337-1.377-1.898-3.732-2.479-4.367-1.076-12.16-2.056-17.305-2.024-2.549.016-3.412-.381-5.967-.37-2.125.009-4.256.023-6.379.021-2.281-.002-3.461-.327-5.85-.366h-1.117c-4.604.044-6.717.375-11.723.351-6.338-.031-17.434.936-23.35 2.321-2.57.602-2.266.904-3.848 2.373-.762.708-2.256 1.409-3.008 2.188.047-.262.086-.406.086-.406-11.863 8.392-41.078 16.629-41.078 16.629-11.568 3.332-13.883 5.646-13.883 5.646l.006.022c-6.676 4.612-12.717 11.563-12.717 11.563-19.234 18.217-20.531 60.59-20.531 60.59-.293 16.783-2.313 36.003-2.313 36.003 18.51 9.98 46.275 9.842 46.275 9.842 1.295-.433 1.156-3.039 1.156-3.039 0-7.234 1.158-12.587 1.158-12.587.029-9.409.354-18.495.154-21.396-.063-.586-.154-.91-.293-.879l1.444-4.75.421 1.264c2.607 9.549 2.176 27.041 2.176 27.041.586 32.825 1.588 45.844 1.588 45.844.139 9.842 1.744 17.646 1.744 17.646 2.313 34.138.293 61.903.293 61.903-3.332 35.139-9.457 64.152-9.842 65.217l-.387 1.064c9.256 7.713 68.645 10.799 68.645 10.799 41.463 3.471 99.693-6.941 99.693-6.941 4.441-1.357 5.6-3.857 5.6-3.857-15.811-86.768-9.457-128.23-9.457-128.23 1.744-10.798 3.086-50.133 3.086-50.133.385-4.828.201-10.227.201-10.227-1.126-19.121 2.313-30.585 2.504-31.206 2.06 4.028 1.629 25.822 1.629 25.822-.139 1.882.293 4.628.293 4.628.865 6.37.586 10.998.586 10.998 10.26 4.902 47.282-8.549 47.282-8.549z"/><path d="M197.002 318.176c-1.502-1.337-1.375-1.898-3.731-2.479-4.369-1.076-12.162-2.056-17.305-2.024-2.549.016-3.413-.381-5.966-.37-2.126.009-4.257.023-6.379.021-2.281-.002-3.461-.327-5.85-.366H156.653c-4.602.044-6.717.375-11.722.351-6.338-.031-17.433.936-23.35 2.321-2.57.602-2.265.904-3.847 2.373-1.044.97-3.468 1.926-3.468 3.085 0 3.752-.219 6.446 1.876 9.894 11.602 19.069 61.252 20.657 78.811 4.159 5.302-4.979 5.327-8.048 5.327-14.053 0-1.186-2.263-2.008-3.278-2.912zm-10.993 15.227c-6.428 3.951-20.671 7.481-29.109 7.481-8.733 0-21.317-3.602-28.076-7.398-3.914-2.197-8.201-7.502-8.201-12.754l.003.001h30.665c.887 0 1.357-.352 2.243-.352l7.381.177c10.365.494 22.272.175 33.006.175.001 5.165-4.185 10.379-7.912 12.67z"/><path opacity=".7" fill="#353535" d="M160.915 320.558l-7.381-.177c-.886 0-1.356.352-2.243.352h-30.665l-.003-.001c0 5.252 4.287 10.557 8.201 12.754 6.758 3.796 19.343 7.398 28.076 7.398 8.438 0 22.682-3.53 29.109-7.481 3.727-2.291 7.913-7.505 7.913-12.67-10.734 0-22.641.319-33.007-.175z"/></svg>