<svg xmlns="http://www.w3.org/2000/svg" width="265.948" height="336.412" viewBox="18.814 252.423 265.948 336.412"><path fill="none" d="M67.623 366.216c.003-1.406-.015-2.516-.064-3.238.049.725.067 1.834.064 3.238zM227.924 473.971v-.607l-1.865 2.072 1.865-1.465zM244.299 279.049l-.127-.063-1.274 1.117 1.401-1.054zM227.976 480.156l-.012-.764-3.195 3.129 3.207-2.365zM230.959 427.919l.02-.343-1.472 1.463 1.452-1.12zM232.187 552.719l-4.484 4.816 6.289-4.782-5.929 6.167 5.568-2.979-8.869 8.681 7.425-5.476-2.682 3.192 5.765-4.889c-.464-2.964-.898-5.86-1.309-8.699l-7.909 8.788 6.135-4.819zM226.527 521.586l-6.546 6.293 9.847-6.827-13.458 11.73 3.455-2.089-6.549 7.151 7.632-6.112-8.842 9.887 3.892-3.057-7.27 8.625 7.065-5.602-8.249 8.625 6.135-4.42-11.06 12.005 14.41-12.088-15.909 13.949 31.186-23.419a624.474 624.474 0 01-2.164-19.586l-8.937 8.403 5.362-3.468zM202.709 264.325l-.378-.191-2.714 3.026 3.092-2.835zM208.091 266.932l-.34-.157-1.767 1.667 2.107-1.51zM230.787 430.856l.099-1.651-4.833 5.368 4.734-3.717zM200.72 263.3l-.449-.238-2.254 2.434 2.703-2.196zM230.252 438.74l.021-.281-.769.914.748-.633zM198.816 262.286l-.378-.204-1.298 1.604 1.676-1.4zM230.697 432.293l.063-1.005-3.057 3.282 2.994-2.277zM226.641 273.138c-.601-.145-1.216-.292-1.846-.445l-4.354 4.792 6.2-4.347zM227.925 475.269v-.067l-.216.232.216-.165zM230.342 437.542l.104-1.448-5.684 5.563 5.58-4.115zM230.546 434.626l.088-1.347-2.572 2.675 2.484-1.328zM233.937 548.584l-.124-.861-4.306 4.28 4.43-3.419zM238.636 577.306l-.009-.048-.2.222.209-.174z"/><path fill="none" d="M156.178 588.803l5.284-5.367-4.384 2.394 6.197-6.294-1.753 1.019 7.53-7.486-5.003 3.86 8.456-9.394-6.134 4.817 4.486-4.814-6.292 4.782 5.93-6.166-5.567 2.979 8.866-8.682-7.424 5.477 2.681-3.191-9.642 8.175 4.796-5.806-10.931 9.697 6.342-7.841-11.292 9.437 10.416-11.248-11.395 9.26 9.797-10.924-16.5 15.127 8.611-10.419-5.724 5.066 5.362-6.782-6.134 5.348 2.577-4.032-8.558 7.628 18.305-17.282-4.384 5.324 9.694-8.12-7.272 8.293 5.981-4.652-7.682 8.176 15.829-13.532-8.971 10.291 14.59-12.357-10.259 10.819 8.456-6.281-7.994 8.507 12.016-9.717-6.239 6.494 11.395-8.929-4.021 4.788 7.734-6.068-5.311 5.845 9.694-6.797-8.973 8.438 5.363-3.469-6.549 6.292 9.849-6.825-13.457 11.729 3.455-2.089-6.549 7.151 7.631-6.111-8.84 9.887 3.891-3.058-7.272 8.625 7.065-5.602-8.249 8.625 6.135-4.42-8.502 9.229.784-.027 11.068-9.283-10.567 9.264.948-.038 38.586-28.975-8.456 9.657 7.786-6.608-6.857 7.613 5.57-4.635-5.467 5.873 7.17-4.959-8.603 8.737 4.384-2.396-6.197 6.296 1.75-1.018-7.527 7.485 5.003-3.861-4.76 5.288c.582-.053 1.161-.105 1.737-.16l.702-.551-.495.531c.631-.06 1.258-.119 1.881-.18l.42-.319-.295.307a574.58 574.58 0 009.592-1.02l1.994-1.769-1.373 1.698c.939-.109 1.862-.218 2.772-.328l3.55-2.966-2.646 2.857c1.027-.125 2.031-.25 3.017-.375l.611-.496-.424.473c.802-.102 1.587-.203 2.359-.305l4.768-4.371-3.472 4.201c4.731-.63 8.836-1.23 12.102-1.731l13.088-9.701a864.48 864.48 0 01-1.048-6.071l-5.477 4.682 5.25-6.021-.161-.981-10.708 9.066 10.261-10.817-8.456 6.281 7.991-8.507-12.013 9.716 6.239-6.496-11.397 8.93 4.022-4.788-7.735 6.067 5.311-5.843-9.692 6.796 8.971-8.438-5.362 3.47 6.548-6.294-9.849 6.827 13.459-11.729-3.456 2.088 6.549-7.152-7.632 6.111 8.842-9.886-3.892 3.056 7.271-8.622-7.065 5.599 8.25-8.623-6.137 4.421 5.932-6.438-.147-1.142-9.134 7.662 9.094-7.976-.096-.741-37.968 28.467 8.457-9.66-7.785 6.608 6.855-7.614-5.567 4.638 5.465-5.876-7.167 4.961 8.603-8.739-4.386 2.396 6.199-6.296-1.752 1.017 7.527-7.482-5.001 3.858 8.456-9.395-6.137 4.82 4.486-4.816-6.291 4.782 5.929-6.167-5.568 2.979 8.868-8.681-7.425 5.475 2.682-3.191-9.642 8.176 4.796-5.805-10.931 9.696 6.341-7.841-11.292 9.438 10.416-11.247-11.396 9.259 9.799-10.922-16.5 15.127 8.61-10.421-5.725 5.065 5.363-6.779-6.136 5.347 2.579-4.032-8.559 7.626 13.208-12.469-31.896 22.701 4.384-5.324-9.694 8.12 7.27-8.295-5.982 4.655 7.683-8.179-15.829 13.536 8.973-10.294-14.593 12.355 10.262-10.818-8.456 6.279 7.991-8.504-12.014 9.715 6.239-6.495-11.397 8.929 4.022-4.787-7.734 6.067 5.31-5.843-9.694 6.795 8.973-8.437-5.363 3.466 6.548-6.29-9.849 6.825 13.457-11.729-3.453 2.089 6.548-7.153-7.632 6.113 8.842-9.886-3.894 3.057 7.272-8.625-7.065 5.603 8.249-8.625-6.134 4.42 11.059-12.006-14.41 12.088 15.625-13.704-37.188 27.503-.129.12 4.382-5.324-9.692 8.122 7.27-8.293-5.982 4.653 7.685-8.177-15.831 13.533 8.972-10.292-14.592 12.355 10.261-10.817-8.456 6.279 7.994-8.504-12.014 9.715 6.237-6.495-11.395 8.929 4.022-4.789-7.734 6.067 5.31-5.841-9.691 6.793 8.97-8.438-5.362 3.469 6.549-6.29-9.849 6.827 13.459-11.729-3.456 2.089 6.549-7.153-7.632 6.113 8.842-9.886-3.891 3.057 7.27-8.625-7.063 5.603 8.249-8.623-6.136 4.42 11.061-12.008-14.412 12.088 15.489-13.582-41.763 31.312.181-1.265 5.58-6.375-5.315 4.512.106-.763 4.281-4.752-4.095 3.409c.019-.141.039-.279.057-.42l3.933-4.228-3.71 2.568.173-1.294 4.972-5.053-4.384 2.396 6.199-6.296-1.753 1.016 7.527-7.482-5.001 3.859 8.456-9.394-6.137 4.816 4.486-4.813-6.289 4.781 5.93-6.167-5.57 2.979 8.868-8.681-7.425 5.476 2.682-3.192-9.642 8.177 4.793-5.807-5.564 4.937c.071-.707.14-1.421.209-2.133l.767-.948-.734.613.083-.854s.092-1.264.213-3.563l13.688-11.593-10.264 10.82 8.456-6.279-7.992 8.505 12.014-9.714-6.239 6.493 11.396-8.929-4.021 4.789 7.734-6.069-5.31 5.843 9.692-6.799-8.973 8.438 5.363-3.467-6.548 6.291 9.849-6.826-13.457 11.729 3.453-2.089-6.546 7.153 7.63-6.113-8.842 9.887 3.892-3.056-7.269 8.623 7.063-5.603-8.249 8.623 6.135-4.42-11.059 12.009 14.411-12.089-15.91 13.949 44.878-33.699-8.456 9.66 7.785-6.608-6.857 7.612 5.569-4.636-5.465 5.873 7.166-4.958-8.601 8.736 4.384-2.394-6.199 6.294 1.752-1.016-7.527 7.483 5.001-3.858-8.454 9.392 6.134-4.815-4.486 4.813 6.291-4.781-5.929 6.166 5.567-2.98-8.868 8.683 7.424-5.475-2.681 3.191 9.642-8.174-4.796 5.805 10.933-9.697-6.341 7.842 11.292-9.438-10.416 11.248 11.395-9.26-9.797 10.924 16.5-15.127-8.61 10.418 5.724-5.064-5.363 6.781 6.134-5.35-2.577 4.033 8.559-7.624-13.841 13.065 39.812-29.511-8.456 9.657 7.787-6.606-6.858 7.614 5.57-4.638-5.465 5.875 7.167-4.96-8.603 8.738 4.384-2.396-6.197 6.296 1.753-1.018-7.527 7.483 5.001-3.858-8.456 9.394 6.137-4.817-4.487 4.815 6.292-4.781-5.932 6.166 5.569-2.98-8.868 8.683 7.425-5.477-2.682 3.191 9.642-8.174-4.796 5.805 10.931-9.697-6.342 7.842 11.292-9.438-10.416 11.247 11.395-9.259-9.797 10.922 16.502-15.123-8.611 10.418 5.725-5.064-5.362 6.781 6.135-5.346-2.578 4.031 8.559-7.626-14 13.216 32.661-23.424.027-.025-.013.015.019-.013-.034.031-4.356 5.292 9.694-8.12-7.27 8.293 5.982-4.653-7.685 8.177 15.831-13.533-8.973 10.293 14.593-12.357-10.262 10.817 8.456-6.278-7.99 8.506 12.014-9.717-6.239 6.495 11.396-8.927-4.022 4.785 7.735-6.065-5.311 5.843 9.659-6.769a558.602 558.602 0 01-.841-9.845l-5.017 4.6 4.917-5.95a605.91 605.91 0 01-.083-1.128l-1.948 1.724 1.899-2.401-.087-1.285-2.586 2.254 2.479-3.881-.004-.063-8.457 7.538 8.43-7.959-.067-1.07-27.051 19.256 4.382-5.324-9.692 8.12 7.268-8.294-5.979 4.654 7.682-8.177-15.829 13.532 8.971-10.291-14.59 12.355 10.259-10.817-8.457 6.281 7.992-8.507-12.014 9.717 6.239-6.494-11.395 8.929 4.022-4.79-7.736 6.068 5.313-5.843-9.694 6.795 8.973-8.44-5.363 3.47 6.548-6.292-9.849 6.827 13.457-11.73-3.453 2.091 6.548-7.153-7.632 6.113 8.842-9.887-3.892 3.058 7.271-8.625-7.063 5.602 8.249-8.623-6.135 4.42 11.059-12.008-14.412 12.089 15.625-13.698-37.188 27.5-.128.123 4.384-5.324-9.694 8.12 7.27-8.294-5.982 4.654 7.683-8.177-15.829 13.532 8.973-10.291-14.593 12.355 10.262-10.817-8.456 6.279 7.991-8.505-12.014 9.717 6.239-6.496-11.397 8.929 4.022-4.786-7.734 6.066 5.31-5.843-9.694 6.795 8.973-8.438-5.363 3.47 6.548-6.292-9.849 6.827 13.457-11.73-3.453 2.089 6.548-7.153-7.632 6.113 8.842-9.885-3.894 3.056 7.272-8.623-7.065 5.6 8.249-8.623-6.134 4.42 11.059-12.008-14.41 12.089 15.487-13.582-44.459 33.328 8.456-9.658-7.787 6.606 6.858-7.612-5.567 4.638 5.465-5.875-7.167 4.961 8.603-8.739-4.384 2.396 6.197-6.296-1.753 1.018 7.529-7.483-5.003 3.859 8.458-9.393-6.137 4.815 4.487-4.813-6.292 4.781 5.929-6.166-5.567 2.979 8.868-8.681-7.425 5.477 2.682-3.193-9.642 8.176 4.796-5.805-10.932 9.697 6.344-7.842-11.292 9.438 10.416-11.249-11.394 9.259 9.792-10.922-16.5 15.127 8.611-10.42-5.723 5.065 5.363-6.78-6.135 5.348 2.577-4.033-8.559 7.626 13.225-12.484-31.916 22.718 4.384-5.325-4.621 3.87c.012-.512.022-1.042.033-1.573l2.166-2.47-2.15 1.673.02-1.119 3.831-4.079-3.818 3.265c.007-.442.012-.898.018-1.353l14.576-13.363-8.61 10.419 5.724-5.065-5.362 6.781 6.134-5.347-2.577 4.032 8.559-7.628-14 13.216 32.674-23.431.016-.016-.007.009.01-.007-.018.018-4.368 5.305 9.694-8.12-7.27 8.293 5.981-4.653-7.682 8.177 15.829-13.532-8.971 10.29 14.59-12.354-10.259 10.817 8.456-6.281-7.994 8.506 12.016-9.717-6.239 6.497 11.395-8.929-4.022 4.788 7.736-6.068-5.312 5.843 9.69-6.799-8.973 8.437 5.363-3.468-6.548 6.292 9.847-6.827-13.455 11.729 3.453-2.09-6.548 7.153 7.632-6.111-8.842 9.886 3.892-3.057-7.271 8.625 7.063-5.603-8.249 8.623 6.137-4.42-11.061 12.007 14.411-12.089-15.909 13.951 44.876-33.699-8.456 9.658 7.787-6.607-6.858 7.611 5.57-4.637-5.467 5.876 7.17-4.959-8.603 8.737 4.384-2.394-6.197 6.293 1.753-1.018-7.527 7.484 5.001-3.86-8.456 9.396 6.137-4.818-4.487 4.815 6.292-4.78-5.932 6.166 5.569-2.981-8.868 8.684 7.425-5.478-2.682 3.192 9.642-8.175-4.796 5.805 10.931-9.696-6.342 7.841 11.292-9.437-10.416 11.247 11.395-9.259-9.796 10.924 16.5-15.127-8.611 10.419 5.723-5.064-5.362 6.78 6.136-5.348-2.579 4.032 8.561-7.626-13.84 13.064 39.812-29.508-8.456 9.658 7.786-6.606-6.857 7.613 5.569-4.637-5.467 5.873 7.167-4.959-8.601 8.737 4.383-2.394-6.197 6.296 1.751-1.019-7.527 7.484 5.001-3.86-8.457 9.396 6.137-4.818-4.486 4.816 6.292-4.783-5.93 6.168 5.568-2.98-8.868 8.681 7.425-5.476-2.681 3.192 9.642-8.175-4.794 5.803 10.93-9.694-6.341 7.84 11.292-9.438-10.416 11.247 11.395-9.259-9.795 10.924 16.498-15.127-8.609 10.417 5.723-5.064-5.363 6.782 6.136-5.348-2.578 4.032 8.56-7.626-14 13.216 22.686-16.27a464.247 464.247 0 01-.437-8.839l-2.537 2.148 2.518-2.655c-.03-.797-.058-1.58-.083-2.352l-.631.469.625-.665c-.02-.62-.039-1.234-.055-1.839l-4.592 3.714 4.564-4.752-.011-.423-9.71 7.609 4.022-4.788-7.737 6.067 5.313-5.843-9.695 6.794 8.973-8.438-5.363 3.47 6.548-6.291-9.849 6.826 13.457-11.731-3.453 2.089 6.546-7.154-7.63 6.115 8.524-9.532.002-.107-3.576 2.808 3.609-4.281c.013-.501.026-.992.041-1.472l-3.444 2.731 3.473-3.63c.018-.546.038-1.078.058-1.595l-1.417 1.021 1.439-1.563c.037-.868.077-1.692.118-2.473l-4.911 4.119 4.921-4.315c.028-.532.058-1.046.089-1.536L201.81 477.46l-.129.121 4.384-5.325-9.694 8.121 7.27-8.294-5.981 4.653 7.682-8.177-15.829 13.533 8.973-10.293-14.592 12.357 10.261-10.819-8.457 6.281 7.992-8.507-12.014 9.716 6.239-6.494-11.397 8.927 4.022-4.788-7.734 6.07 5.311-5.845-9.692 6.796 8.971-8.438-5.363 3.47 6.548-6.292-9.847 6.827 13.457-11.731-3.453 2.091 6.546-7.154-7.63 6.113 8.842-9.888-3.894 3.058 7.271-8.624-7.063 5.601 8.251-8.625-6.137 4.423 11.061-12.008-14.412 12.089 15.489-13.582-44.458 33.331 8.458-9.659-7.787 6.608 6.858-7.614-5.57 4.638 5.465-5.876-7.167 4.961 8.603-8.739-4.384 2.396 6.197-6.296-1.753 1.017 7.53-7.482-5.003 3.858 8.456-9.395-6.134 4.82 4.486-4.816-6.292 4.782 5.93-6.167-5.567 2.981 8.868-8.683-7.426 5.475 2.681-3.189-9.642 8.174 4.796-5.805-10.931 9.696 6.342-7.841-11.292 9.438 10.416-11.247-11.395 9.259 9.797-10.923-16.5 15.128 8.611-10.421-5.724 5.065 5.362-6.781-6.134 5.347 2.577-4.032-8.558 7.626 18.305-17.28-4.384 5.325 9.694-8.12-7.272 8.293 5.981-4.653-7.682 8.177 15.829-13.534-8.971 10.291 14.588-12.355-10.259 10.818 8.456-6.278-7.994 8.503 12.016-9.716-6.239 6.494 11.395-8.926-4.021 4.785 7.734-6.065-5.311 5.843 9.696-6.789-8.973 8.437 5.363-3.469-6.549 6.291 9.849-6.825-13.457 11.73 3.455-2.091-6.549 7.153 7.631-6.112-8.84 9.885 3.891-3.055-7.272 8.623 7.065-5.601-8.249 8.623 6.135-4.42-11.059 12.006 14.412-12.088-15.911 13.951 44.878-33.702-8.456 9.659 7.787-6.606-6.858 7.611 5.57-4.635-5.467 5.873 7.17-4.959-8.603 8.739 4.384-2.396-6.197 6.295 1.753-1.017-7.53 7.482 5.003-3.859-8.458 9.394 6.136-4.818-4.486 4.815 6.292-4.781-5.93 6.167 5.568-2.981-8.868 8.682 7.425-5.476-2.681 3.192 9.642-8.178-4.794 5.806 10.931-9.694-6.342 7.839 11.292-9.437-10.416 11.247 11.395-9.26-9.794 10.922 16.5-15.124-8.611 10.419 5.722-5.064-5.362 6.779 6.136-5.347-2.578 4.031 8.56-7.625-13.84 13.065 22.295-16.526c.347-5.178.739-7.74.739-7.74.083-.512.164-1.088.245-1.72l-3.738 3.165 3.847-4.056c.079-.674.157-1.399.233-2.171l-2.275 1.689 2.354-2.506c.047-.502.095-1.021.141-1.555l-6.517 5.271 6.239-6.494-11.397 8.928 4.022-4.787-7.735 6.065 5.311-5.841-9.692 6.794 8.971-8.438-5.362 3.47 6.548-6.292-9.849 6.825 13.459-11.728-3.456 2.089 6.549-7.154-7.632 6.113 8.842-9.886-3.892 3.055 6.892-8.172.008-.155-6.694 5.305 6.783-7.089.024-.494-4.693 3.38 4.781-5.189.076-1.613-8.207 6.883 8.222-7.209.043-.957-37.236 27.917 8.457-9.658-7.785 6.608 6.855-7.613-5.567 4.637 5.465-5.875-7.167 4.961 8.603-8.739-4.386 2.396 6.199-6.295-1.752 1.017 7.527-7.483-5.001 3.859 8.456-9.393-6.137 4.818 4.486-4.816-6.291 4.782 5.929-6.167-5.568 2.981 8.868-8.683-7.425 5.477 2.682-3.192-9.642 8.177 4.796-5.805-10.931 9.694 6.341-7.841-11.292 9.437 10.416-11.246-11.396 9.258 9.799-10.922-16.5 15.125 8.61-10.418-5.725 5.065 5.363-6.782-6.136 5.349 2.579-4.034-8.559 7.626 13.217-12.477-31.906 22.709 4.384-5.324-9.694 8.118 7.27-8.292-5.982 4.653 7.683-8.176-15.829 13.533 8.973-10.291-14.593 12.355 10.262-10.817-8.456 6.279 7.991-8.505-12.014 9.715 6.239-6.494-11.397 8.926 4.022-4.786-7.734 6.067 5.31-5.843-9.694 6.795 8.973-8.438-5.363 3.47 6.548-6.292-9.849 6.827 13.457-11.729-3.453 2.089 6.548-7.154-7.632 6.112 8.842-9.887-3.894 3.057 7.272-8.622-7.065 5.599 8.249-8.623-6.134 4.42 11.059-12.008-14.41 12.088 15.625-13.702-37.188 27.502-.129.121 4.382-5.325-9.692 8.121 7.27-8.293-5.982 4.655 7.683-8.179-15.829 13.535 8.972-10.293-14.594 12.356 10.261-10.818-8.456 6.282 7.994-8.505-12.014 9.715 6.237-6.495-11.395 8.928 4.022-4.788-7.734 6.069 5.31-5.844-9.691 6.794 8.97-8.438-5.362 3.469 6.549-6.292-9.849 6.829 13.459-11.731-3.456 2.088 6.549-7.153-7.632 6.114 8.842-9.887-3.891 3.055 7.27-8.623-7.063 5.602 8.249-8.623-6.136 4.42 11.061-12.008-14.413 12.09 15.489-13.582-40.838 30.617-.054-1.359 4.89-5.586-4.943 4.195-.026-.713 4.042-4.486-4.081 3.397a43.718 43.718 0 00-.013-.348l3.989-4.288-4.041 2.797-.033-.979 5.508-5.598-4.384 2.396 6.199-6.296-1.753 1.017 7.527-7.483-5.001 3.859 8.456-9.395-6.137 4.818 4.486-4.816-6.289 4.784 5.93-6.167-5.57 2.979 8.868-8.681-7.425 5.475 2.682-3.192-9.642 8.176 4.793-5.807-8.694 7.713a207.06 207.06 0 00-.017-.761l4.122-5.097-4.157 3.474-.035-1.705 3.315-3.581-3.333 2.708-.046-2.387 1.779-1.984-1.785 1.637-.018-.958.007-.364 11.901-10.176-8.97 10.292 14.59-12.355L79 383.658l8.456-6.281-7.992 8.506 12.014-9.716-6.239 6.497 11.396-8.928-4.021 4.788 7.734-6.068-5.31 5.843 9.694-6.8-8.971 8.44 5.363-3.469-6.548 6.291 9.849-6.825-13.459 11.73 3.455-2.088-6.548 7.153 7.632-6.114-8.844 9.885 3.894-3.055-7.271 8.625 7.063-5.603-8.249 8.623 6.137-4.42-11.061 12.008 14.412-12.088-15.906 13.955 44.876-33.7-8.456 9.66 7.785-6.608-6.855 7.614 5.567-4.637-5.465 5.875 7.167-4.961-8.603 8.74 4.384-2.396-6.197 6.295 1.753-1.018-7.53 7.483 5.003-3.859-8.456 9.395 6.137-4.818-4.486 4.816 6.289-4.784-5.929 6.167 5.567-2.979-8.866 8.681 7.425-5.477-2.681 3.194 9.642-8.177-4.796 5.805 10.93-9.696-6.341 7.841 11.292-9.437-10.416 11.248 11.395-9.26-9.794 10.924 16.5-15.126-8.61 10.419 5.724-5.064-5.365 6.779 6.136-5.347-2.579 4.032 8.561-7.626-13.84 13.065 39.812-29.511-8.458 9.66 7.787-6.608-6.856 7.614 5.568-4.637-5.465 5.875 7.167-4.961-8.601 8.74 4.383-2.396-6.197 6.295 1.753-1.017-7.529 7.483 5.003-3.859-8.456 9.395 6.135-4.818-4.487 4.816 6.292-4.784-5.93 6.168 5.568-2.982-8.867 8.683 7.423-5.475-2.682 3.192 9.642-8.175-4.796 5.805 10.933-9.696-6.344 7.841 11.294-9.437-10.416 11.247 11.393-9.259-9.797 10.924 16.5-15.127-8.611 10.417 5.725-5.065-5.362 6.782 6.135-5.347-2.578 4.032 8.559-7.626-14 13.216 32.659-23.421.029-.028-.014.016.02-.014-.035.033-4.354 5.291 9.694-8.12-7.27 8.293 5.982-4.655-7.685 8.178 15.831-13.535-8.973 10.293 14.593-12.355-10.262 10.818 8.456-6.279-7.991 8.504 12.014-9.714-6.239 6.495 11.396-8.928-4.022 4.788 7.735-6.068-5.311 5.843 9.696-6.795-8.973 8.438 5.363-3.469-6.546 6.292 9.847-6.826-13.458 11.73 3.455-2.089-6.549 7.154 7.632-6.114-8.842 9.887 3.892-3.057-7.27 8.625 7.065-5.602-8.249 8.623 6.135-4.42-11.06 12.008 14.41-12.088-15.909 13.949 30.598-22.977c.375-8.347.593-14.75.593-14.75.386-4.828.201-10.227.201-10.227-.057-.977-.1-1.928-.135-2.864l-.41.343.406-.438c-.032-.892-.056-1.766-.069-2.62l-1.318 1.071 1.313-1.464c-.008-.565-.011-1.123-.011-1.671l-8.006 7.34 8.028-9.715.005-.194-5.147 4.554 5.209-6.585.002-.063-5.985 5.215 2.579-4.032-8.559 7.626 12.099-11.422.017-.274-30.806 21.927 4.382-5.324-9.692 8.12 7.268-8.293-5.979 4.655 7.682-8.179-15.829 13.535 8.971-10.293-14.59 12.355 10.259-10.82-8.457 6.281 7.992-8.504-12.014 9.714 6.239-6.494-11.395 8.928 4.022-4.788-7.736 6.068 5.313-5.843-9.694 6.795 8.973-8.44-5.363 3.47 6.548-6.292-9.849 6.826 13.457-11.728-3.453 2.088 6.548-7.154-7.632 6.115 8.842-9.888-3.892 3.056 7.271-8.623-7.063 5.602 8.249-8.625-6.135 4.422 11.059-12.007-14.412 12.086 15.625-13.7-37.188 27.502-.128.123 4.384-5.324-9.694 8.12 7.27-8.293-5.982 4.655 7.683-8.178-15.829 13.533 8.973-10.293-14.593 12.357 10.262-10.818-8.456 6.279 7.991-8.504-12.014 9.716 6.239-6.496-11.397 8.928 4.022-4.788-7.734 6.068 5.31-5.843-9.694 6.795 8.973-8.438-5.363 3.47 6.548-6.294-9.849 6.826 13.457-11.728-3.453 2.088 6.548-7.152-7.632 6.113 8.842-9.888-3.894 3.056 7.272-8.623-7.065 5.6 8.249-8.623-6.134 4.42 11.059-12.007-14.41 12.087 15.485-13.577-44.459 33.332 8.457-9.658-7.787 6.606 6.858-7.614-5.567 4.637 5.465-5.875-7.167 4.96 8.603-8.739-4.384 2.396 6.197-6.295-1.753 1.017 7.529-7.483-5.003 3.859 8.456-9.394-6.135 4.818 4.487-4.816-6.293 4.783 5.93-6.167-5.568 2.98 8.869-8.683-7.425 5.475 2.682-3.192-9.642 8.177 4.796-5.805-10.932 9.696 6.344-7.841-11.292 9.437 10.416-11.248-11.395 9.26 9.795-10.924-16.5 15.127 8.611-10.418-5.723 5.065 5.363-6.781-6.135 5.347 2.577-4.033-8.559 7.628 18.305-17.281-4.383 5.324 9.694-8.118-7.27 8.293 5.981-4.655-7.682 8.177 15.829-13.534-8.971 10.292 14.59-12.355-10.259 10.817 8.456-6.281-7.994 8.504 12.016-9.716-6.239 6.496 11.395-8.928-4.022 4.788 7.736-6.068-5.312 5.843 9.694-6.798-8.973 8.438 5.363-3.469-6.548 6.293 9.847-6.828-13.457 11.73 3.455-2.09-6.548 7.153 7.63-6.112-8.84 9.885 3.892-3.056-7.272 8.625 7.064-5.602-8.248 8.623 6.134-4.42-11.059 12.005 14.411-12.087-15.911 13.951 44.878-33.699-8.458 9.658 7.787-6.609-6.856 7.614 5.568-4.637-5.465 5.875 7.167-4.96-8.601 8.739 4.384-2.396-6.197 6.295 1.753-1.017-7.529 7.483 5.003-3.859-8.458 9.395 6.137-4.818-4.487 4.816 6.292-4.782-5.93 6.167 5.567-2.981-8.868 8.683 7.425-5.475-2.682 3.192 9.642-8.177-4.796 5.805 10.933-9.693-6.344 7.84 11.292-9.437-10.413 11.246 11.392-9.258-9.796 10.922 16.5-15.125-8.611 10.418 5.725-5.065-5.362 6.782 6.134-5.349-2.577 4.032 8.559-7.625-13.838 13.066 39.81-29.51-8.456 9.66 7.786-6.609-6.855 7.614 5.568-4.637-5.465 5.875 7.168-4.958-8.601 8.738 4.384-2.395-6.199 6.294 1.753-1.018-7.528 7.483 5.001-3.859-8.456 9.395 6.134-4.818-4.484 4.816 6.29-4.782-5.93 6.166 5.57-2.98-8.87 8.683 7.425-5.475-2.679 3.192 9.642-8.177-4.796 5.805 10.933-9.694-6.344 7.841 11.292-9.437-10.416 11.246 11.397-9.257-9.797 10.922 16.5-15.127-8.611 10.419 5.723-5.065-5.361 6.78 6.134-5.347-2.576 4.032 8.558-7.626-14 13.215 26.588-19.067a96.74 96.74 0 01.905-7.818l-2.165 1.851 2.293-2.631c.149-.883.298-1.678.441-2.38l-8.354 7.075 8.859-9.344c.048-.196.094-.376.135-.537l-7.191 5.342 7.991-8.504-12.013 9.714 6.239-6.494-11.395 8.926 4.022-4.788-7.737 6.068 5.313-5.843-9.694 6.796 8.973-8.438-5.363 3.469 6.548-6.291-9.849 6.828 13.457-11.73-3.453 2.09 6.546-7.154-7.63 6.113 8.842-9.887-3.892 3.057 7.268-8.625-7.063 5.602 8.249-8.623-6.134 4.42 11.059-12.007-14.412 12.088 15.625-13.7-37.188 27.501-.129.123 4.384-5.325-9.694 8.121 7.27-8.293-5.981 4.655 7.682-8.179-15.829 13.533 8.973-10.291-14.592 12.355 10.261-10.818-8.457 6.281 7.992-8.506-12.014 9.716 6.239-6.494-11.397 8.926 4.022-4.788-7.734 6.07 5.311-5.845-9.692 6.796 8.971-8.438-5.363 3.469 6.548-6.291-9.847 6.826 13.457-11.73-3.453 2.09 6.546-7.154-7.63 6.112 8.842-9.885-3.894 3.055 7.271-8.624-7.063 5.601 8.25-8.624-6.136 4.419 11.061-12.006-14.412 12.087 15.489-13.582-44.458 33.332 8.456-9.658-7.785 6.609 6.858-7.614-5.569 4.635 5.465-5.874-7.168 4.959 8.603-8.739-4.384 2.396 6.197-6.295-1.753 1.017 7.53-7.483-5.003 3.859 8.456-9.395-6.134 4.818 4.486-4.816-6.292 4.784 5.93-6.167-5.567 2.981 8.866-8.682-7.424 5.476 2.681-3.192-9.642 8.175 4.796-5.805-10.931 9.695 6.342-7.839-11.292 9.437 10.416-11.247-11.395 9.259 9.797-10.923-16.5 15.126 8.611-10.419-5.724 5.065 5.362-6.781-6.134 5.348 2.577-4.032-8.558 7.625 13.223-12.483-31.916 22.717 4.384-5.325-9.694 8.119 7.272-8.292-5.982 4.654 7.683-8.178-15.829 13.534 8.972-10.293-14.598 12.361 10.261-10.819-8.456 6.281 7.992-8.506-12.014 9.716 6.239-6.496-11.395 8.929 4.022-4.789-7.734 6.068 5.31-5.843-9.693 6.796 8.972-8.438-5.362 3.47 6.546-6.292-9.847 6.826 13.457-11.73-3.456 2.088 6.549-7.152-7.63 6.112 8.84-9.885-3.891 3.055 7.272-8.624-7.065 5.601 8.249-8.624-6.134 4.42 11.059-12.006-14.412 12.088 15.434-13.533-37.126 27.457 4.384-5.325-9.694 8.121 7.272-8.292-5.982 4.653 7.682-8.177-14.372 12.289-.051-.366 7.568-8.681-7.846 6.642c-.055-.417-.107-.828-.158-1.234l3.672-3.871-3.8 2.822c-.054-.457-.104-.9-.151-1.335l3.487-3.711-3.574 2.89a84.9 84.9 0 01-.175-1.918s-.009-.345-.037-.963l7.446-6.314-4.796 5.806 10.931-9.694-6.341 7.839 11.292-9.437-10.416 11.248 11.395-9.259-9.797 10.923 16.5-15.127-8.61 10.418 5.722-5.065-5.363 6.781 6.137-5.348-2.579 4.032 8.559-7.627-13.97 13.189 39.748-29.463.193-.169-8.456 9.659 7.785-6.608-6.855 7.612 5.567-4.636-5.465 5.874 7.167-4.961-8.603 8.739 4.384-2.396-6.197 6.295 1.753-1.018-7.53 7.484 5.003-3.859-8.456 9.393 6.136-4.817-4.486 4.815 6.289-4.783-5.929 6.167 5.567-2.979-8.866 8.681 7.424-5.475-2.681 3.191 9.642-8.175-4.795 5.806 10.93-9.695-6.341 7.84 11.292-9.437-10.416 11.247 11.395-9.259-9.795 10.923 16.5-15.127-8.61 10.418 5.722-5.065-5.363 6.782 6.136-5.349-2.579 4.032 8.561-7.625-14 13.216 32.675-23.433.017-.016-.008.01.008-.006-.014.014-4.37 5.308 9.694-8.122-7.272 8.293 5.981-4.653-7.682 8.178 15.829-13.534-8.971 10.293 14.59-12.356-10.259 10.818 8.456-6.28-7.994 8.505 12.016-9.715-6.239 6.494 11.395-8.927-4.021 4.788 7.734-6.068-5.311 5.843 9.694-6.796-8.973 8.438 5.363-3.468-6.549 6.291 9.849-6.826-13.457 11.729 3.455-2.089-6.549 7.154 7.631-6.113-8.84 9.886 3.891-3.055-7.272 8.624 7.065-5.602-8.249 8.623 6.135-4.419-11.059 12.007 14.412-12.088-15.911 13.949 44.878-33.7-8.456 9.659 7.787-6.609-6.858 7.613 5.57-4.637-5.467 5.874 7.17-4.958-8.603 8.738 4.384-2.395-6.197 6.294 1.751-1.017-7.528 7.483 5.003-3.859-8.458 9.394 6.136-4.818-4.486 4.816 6.292-4.782-5.93 6.167 5.568-2.98-8.868 8.683 7.425-5.476-2.681 3.19 9.642-8.174-4.794 5.805 10.931-9.694-6.342 7.839 11.292-9.437-10.416 11.248 11.395-9.26-9.794 10.924 16.5-15.127-8.611 10.418 5.722-5.065-5.363 6.782 6.136-5.349-2.578 4.032 8.56-7.626-13.84 13.067 34.532-25.597c-.17.913-.334 1.803-.494 2.681l-2.683 3.064 2.514-2.133-.309 1.722-1.276 1.417 1.201-1-.23 1.305-.869.934.803-.556a712.36 712.36 0 00-.434 2.503l-1.802 1.831 1.645-.899-.26 1.548-3.2 3.25 1.753-1.017-7.527 7.483 5-3.859-8.456 9.393 6.134-4.817-4.484 4.815 6.289-4.782-5.929 6.167 5.568-2.981-8.868 8.683 7.425-5.478-2.682 3.192 6.795-5.761c-.06.438-.114.846-.166 1.235l-1.78 2.156 1.694-1.503c-.332 2.537-.475 3.875-.475 3.875s-.086.272-.227.798l-.124.092.055.168v.001c1.706 5.499 1.322 25.025 1.322 25.025-.139 1.883.293 4.629.293 4.629.864 6.369.586 10.998.586 10.998 10.258 4.904 47.279-8.547 47.279-8.547-.864-13.883-2.9-44.824-2.9-44.824-.617-17.57-6.016-31.993-12.726-42.513-9.039-14.16-19.961-21.41-19.961-21.41a83.142 83.142 0 00-4.191-2.297l-8.784 6.585 6.668-7.618-.401-.185-5.598 4.751 4.663-5.178c-.164-.072-.322-.136-.485-.205l-2.888 2.405 2.421-2.602a59.178 59.178 0 00-1.058-.433l-3.063 2.121 2.356-2.394c-3.805-1.447-7.348-2.338-11.468-3.33l-6.186 5.819 5.365-3.47-6.546 6.292 9.847-6.826-13.458 11.729 3.455-2.089-6.549 7.153 7.632-6.112-8.842 9.887 3.892-3.057-7.27 8.624 7.065-5.601-8.249 8.622 6.135-4.419-11.06 12.005 14.41-12.087-15.909 13.949 44.877-33.699-8.457 9.659 7.787-6.608-6.858 7.614 5.57-4.637-5.467 5.875 7.168-4.959-8.601 8.738 4.382-2.395-6.197 6.294 1.753-1.017-7.528 7.483 5.001-3.86-8.456 9.394 6.134-4.817-4.484 4.815 6.289-4.782-5.929 6.167 5.568-2.98-8.869 8.683 7.425-5.476-2.682 3.191 9.642-8.175-4.793 5.805 9.983-8.855-.085.436-5.31 6.565 4.821-4.03-.375 1.983-3.571 3.856 3.362-2.731c-.21 1.13-.396 2.157-.558 3.054l-1.205 1.343 1.153-1.057c-.102.566-.192 1.077-.271 1.522l-10.989 9.395 8.973-10.293-14.592 12.357 10.261-10.818-8.456 6.28 7.991-8.505-12.013 9.714 6.239-6.493-11.397 8.927 4.022-4.789-7.735 6.068 5.311-5.844-9.692 6.795 8.971-8.439-5.362 3.469 6.548-6.292-9.849 6.827 13.459-11.73-3.456 2.089 6.549-7.153-7.632 6.113 8.842-9.887-3.892 3.057 7.271-8.624-7.065 5.602 8.25-8.623-6.137 4.419 11.062-12.006-14.412 12.088 15.489-13.581-44.459 33.332 8.457-9.658-7.785 6.607 6.855-7.613-5.567 4.637 5.465-5.874-7.167 4.958 8.603-8.737-4.386 2.395 6.199-6.294-1.752 1.016 7.527-7.482-5.001 3.86 8.456-9.394-6.137 4.817 4.486-4.815-6.291 4.782 5.929-6.167-5.568 2.979 8.868-8.682-7.425 5.476 2.682-3.192-9.642 8.175L206 285.57l-10.931 9.695 6.341-7.841-11.292 9.437 10.416-11.247-11.396 9.259 9.799-10.924-16.5 15.127 8.61-10.419-5.725 5.065 5.363-6.78-6.136 5.347 2.579-4.032-8.559 7.626 13.208-12.469-31.897 22.704 4.384-5.326-9.694 8.12 7.27-8.293-5.982 4.654 7.683-8.177-15.829 13.534 8.973-10.293-14.593 12.356 10.262-10.818-8.456 6.281 7.991-8.504-12.014 9.714 6.239-6.493-11.397 8.927 4.022-4.788-7.734 6.068 5.31-5.843-9.694 6.795 8.973-8.439-5.363 3.469 6.548-6.293-9.849 6.828 13.457-11.73-3.453 2.09 6.548-7.153-7.632 6.112 8.842-9.886-3.894 3.056 4.806-5.7c1.55.1 3.202.163 4.952.18l-4.648 4.621 5.001-3.859-8.456 9.394 6.137-4.817-4.487 4.815 6.292-4.782-5.932 6.167 5.57-2.981-8.869 8.682 7.425-5.476-2.682 3.192 9.642-8.176-4.796 5.805 10.931-9.695-6.342 7.839 11.292-9.437-10.416 11.247 11.395-9.259-9.797 10.924 16.5-15.127-8.611 10.419 5.723-5.065-5.362 6.78 6.137-5.347-2.58 4.032 8.561-7.627-14 13.217 32.663-23.424.025-.024-.012.014.016-.011-.028.027-4.359 5.293 9.694-8.12-7.27 8.293 5.982-4.654-7.685 8.178 15.831-13.534-8.973 10.294 14.593-12.357-10.262 10.818 8.456-6.28-7.991 8.504 12.014-9.714-6.239 6.495 11.396-8.928-4.022 4.788 6.485-5.087a275.417 275.417 0 01-3.677-.915c-3.749-.963-7.938-2.61-11.866-4.379l-7.279 5.181 4.384-5.325-9.694 8.121 7.27-8.293-5.981 4.654 6.303-6.71-.214-.106-14.235 12.171 8.973-10.293-5.96 5.047c1.577-2.424 2.568-5.239 2.609-8.522l2.078-1.843c-.306-.169-.587-.327-.852-.475l-1.257 1.521c-.008-.261-.013-.52-.033-.786l1.104-.937c-.56-.989-2.328-1.759-3.208-2.588-1.557-1.467-1.426-2.082-3.867-2.718-4.528-1.18-12.605-2.255-17.936-2.22-2.642.017-3.538-.417-6.185-.405-2.203.009-4.411.025-6.611.023-2.364-.002-3.588-.359-6.063-.401H151.142c-4.062.042-7.631.409-12.149.385-6.569-.035-18.069 1.026-24.201 2.544-2.664.66-2.349.991-3.987 2.603-1.003.986-3.233 1.959-3.553 3.109-4.392 2.697-10.33 5.332-16.247 7.633l-4.342 4.854 3.892-3.057-7.269 8.624 7.063-5.601-8.249 8.623 6.135-4.42-11.059 12.006 14.412-12.087-15.911 13.949 34.332-25.78c.06.24.127.484.201.732l-41.207 30.895 8.456-9.659-7.786 6.609 6.858-7.614-5.57 4.636 5.465-5.874-7.166 4.959 8.601-8.738-4.384 2.395 6.199-6.294-1.753 1.017 7.527-7.484-5.001 3.86 3.576-3.973c-8.644 3.046-15.776 5.059-15.776 5.059-11.568 3.332-13.883 5.646-13.883 5.646l.006.022c-6.675 4.612-12.716 11.563-12.716 11.563-19.235 18.217-20.531 60.591-20.531 60.591-.293 16.783-2.313 36.002-2.313 36.002C37.324 400.138 65.09 400 65.09 400c1.296-.432 1.157-3.039 1.157-3.039 0-7.234 1.157-12.586 1.157-12.586.03-9.873.447-18.666.154-21.396.05.723.067 1.832.064 3.238.003-1.404-.015-2.514-.064-3.238-.063-.785-.154-1.141-.293-.879l1.444-4.75.422 1.264c2.606 9.549 2.175 27.041 2.175 27.041.586 32.826 1.589 45.844 1.589 45.844.139 9.842 1.743 17.646 1.743 17.646 2.313 34.137.293 61.902.293 61.902-3.332 35.139-9.456 64.154-9.842 65.219l-.386 1.064c9.256 7.713 68.644 10.797 68.644 10.797 7.233.605 14.976.787 22.831.676zm85.905-271.432c-.094.545-.146.854-.144.852l-.002.012-2.477 1.928 2.623-2.792zm-.463 2.495c-.082.419-.162.835-.241 1.248l-3.21 2.689 3.451-3.937zm-100.612-30.803l2.696-2.819c.255.022.521.041.782.062l-3.478 2.757zm-30.699-22.195c.039.122.081.244.124.367l-12.46 10.451 12.336-10.818zm-21.876 34.937l6.549-6.292-9.849 6.826 13.459-11.729-3.456 2.089 6.549-7.153-7.632 6.112 8.842-9.885-3.891 3.056 7.27-8.624-7.063 5.602 8.249-8.624-6.136 4.421 9.234-10.024c.534 1.452 1.331 3.013 2.492 4.614l-1.353 1.374 1.682-.919c.177.231.371.463.564.695l-4.061 4.124 1.753-1.017-7.528 7.483 5.001-3.86-8.454 9.394 6.134-4.817-4.486 4.815 6.291-4.782-5.929 6.168 5.567-2.981-8.868 8.682 7.424-5.476-2.681 3.192 9.642-8.176-4.795 5.805 10.932-9.695-6.341 7.841 10.655-8.904.097.05-9.876 10.664 11.395-9.259-9.797 10.924 11.719-10.744c.286.12.567.241.862.359l-4.691 5.677 5.724-5.065-5.363 6.78 6.134-5.347-2.577 4.032 5.25-4.678.147.037-10.679 10.082 12.923-9.579c.312.063.633.126.966.189l-18.224 13.478-.129.122 4.382-5.324-9.692 8.12 7.27-8.293-5.982 4.654 7.683-8.177-15.829 13.533 8.972-10.293-14.592 12.357 10.261-10.818-8.456 6.28 7.994-8.506-12.014 9.716 6.237-6.495-11.395 8.928 4.022-4.788-7.734 6.068 5.31-5.844-9.691 6.795 8.97-8.438-5.363 3.468zm-9.672 30.546l-8.456 9.66 7.785-6.61-6.856 7.613 5.568-4.635-5.465 5.874 7.165-4.959-8.6 8.738 4.384-2.394-6.109 6.203a583.9 583.9 0 01-1.318-7.731l3.725-4.043-3.856 3.235c-.02-.116-.038-.234-.057-.352l6.646-5.828-6.777 5.014-.111-.7 12.332-9.085zm-10.579 19.524l1.659-.962-1.556 1.546-.103-.584zm-4.198-32.824l1.008-.792-.982 1.054a28.969 28.969 0 00-.026-.262zm.487 6.254l-.012-.227.532-.393-.52.62zm-.109-1.796l-.063-.887 2.138-1.144-2.075 2.031zm-.193-2.485l-.062-.688 2.688-2.044-2.626 2.732zm-.343-3.469a266.4 266.4 0 00-.125-1.085l3.611-2.787-3.486 3.872zm14.933-26.059l-8.456 9.659 7.785-6.607-6.856 7.612 5.567-4.637-5.465 5.874 7.167-4.96-8.6 8.738 4.384-2.395-6.199 6.294 1.752-1.017-6.171 6.135c-.178-1.468-.392-3.03-.647-4.654l1.454-1.724-1.534 1.216c-.063-.394-.13-.79-.198-1.189l2.918-3.05L62.593 309c-.056-.311-.113-.622-.172-.935l8.161-8.86-8.5 7.13c-.013-.063-.025-.127-.039-.19l9.086-7.966-9.371 6.631c-.063-.29-.131-.58-.197-.87l17.198-12.444zm-8.423 70.428l1.615-1.37-1.53 1.853c-.027-.162-.056-.322-.085-.483zm1.285 13.457l6.622-7.55-5.982 4.653 7.682-8.178-8.52 7.285c-.042-.653-.09-1.31-.144-1.97l1.808-2.073-1.849 1.565a88.441 88.441 0 00-.668-5.782l7.516-6.667-6.339 7.84 11.29-9.437-10.416 11.248 11.396-9.259-9.799 10.924 16.5-15.125-8.61 10.417 5.724-5.065-5.362 6.78 6.134-5.347-2.577 4.032 8.559-7.626-14 13.215 32.692-23.446-5.065 4.784-31.933 22.727 4.384-5.322-9.036 7.567-.007-.19zm.133 5.463l5.033-4.217-5.025 5.734c0-.465-.003-.972-.008-1.517zm.008 2.331l3.737-2.908-3.744 3.985c.003-.307.006-.669.007-1.077zm.948 36.582l.605-.531-.609.451-.031-.739 6.084-4.481-5.982 6.832-.067-1.532zm.099 2.231l5.279-4.482-5.218 5.793-.061-1.311zm.082 1.748l3.908-3.253-3.864 4.153-.044-.9zm.074 1.492l5.534-3.831-5.445 5.532-.089-1.701zm.171 3.14l1.147-.627-1.118 1.135-.029-.508zm.927 13.969l4.021-3.566-3.872 4.787c-.049-.391-.1-.796-.149-1.221zm.268 2.111l8.704-7.274-8.436 9.11a97.56 97.56 0 01-.268-1.836zm.74 4.555s-.167-.82-.398-2.251l9.343-7.591-8.937 9.963-.008-.121zm.265 4.249l2.906-3.313-2.964 2.306-.052-.811 4.716-5.021-4.776 4.084-.078-1.212 15.627-14.327-8.61 10.42 5.724-5.066-5.363 6.781 6.135-5.35-2.577 4.032 8.559-7.624-13.97 13.187 39.748-29.463.193-.169-8.456 9.66 7.785-6.609-6.857 7.615 5.569-4.638-5.465 5.875 7.166-4.961-8.601 8.739 4.384-2.396-6.199 6.295 1.752-1.018-7.527 7.484 5.001-3.862-8.454 9.396 6.134-4.817-4.486 4.815 6.291-4.781-5.929 6.166 5.567-2.98-8.868 8.681 7.424-5.475-2.681 3.191 9.642-8.175-4.796 5.806 10.933-9.697-6.341 7.841 11.292-9.437-10.416 11.248 11.395-9.26-9.797 10.924 16.5-15.127-8.61 10.417 5.724-5.063-5.363 6.781 6.136-5.348-2.579 4.032 8.559-7.626-13.998 13.219 32.692-23.447-5.067 4.782-31.93 22.727 4.382-5.324-9.692 8.12 7.27-8.291-5.982 4.653 7.685-8.179-15.829 13.537 8.972-10.294-14.592 12.357 10.261-10.817-8.456 6.279 7.992-8.505-12.014 9.715 6.239-6.494-11.395 8.927 4.022-4.785-7.734 6.065 5.31-5.841-9.693 6.795 8.972-8.439-5.362 3.469 6.546-6.292-9.847 6.825 13.457-11.729-3.456 2.089 6.549-7.151-7.63 6.111 8.84-9.884-3.891 3.055 7.272-8.623-7.065 5.6 8.249-8.623-6.134 4.42 11.059-12.005-14.412 12.088 15.434-13.533-37.126 27.456 4.384-5.324-5.255 4.401-.074-1.26zm.239 4.416l3.187-2.347-3.127 3.571-.06-1.224zm.126 2.731l2.389-2.028-2.363 2.624-.026-.596zm.075 1.802l1.025-.854-1.016 1.093a9.54 9.54 0 00-.009-.239zm.073 1.898l2.652-1.837-2.623 2.666-.029-.829zm.331 17.226l1.906-1.69-1.905 2.355-.001-.665zm.002 2.441l6.855-5.73-6.861 7.41c.002-.555.005-1.112.006-1.68zm-.013 2.635l7.848-6.377-7.87 8.773c.01-.783.017-1.581.022-2.396zm-.286 13.948l.904-.758-.915 1.044.011-.286zm-.172 4.31l7.934-6.783-8.052 9.241c.037-.725.077-1.547.118-2.458zm-4.395 39.285l2.167-1.899-2.118 1.569.124-.837 7.271-5.355-7.805 8.914c.12-.788.241-1.583.361-2.392zm-.395 2.611l7.167-6.083-6.856 7.612 5.567-4.638-5.465 5.876 7.167-4.961-8.6 8.739 4.384-2.396-4.817 4.893c.47-2.799.958-5.819 1.453-9.042zm-1.565 9.709l.482-.28-.523.52.041-.24zm5.975 25.02l3.424-3.003-2.768 3.161c-.222-.052-.439-.106-.656-.158zm2.208.51l.545-.463-.438.485a2.263 2.263 0 01-.107-.022zm36.745 4.924l5.758-6.566-5.982 4.652 7.683-8.177-11.386 9.735c-.346-.032-.695-.066-1.045-.1l5.574-6.395-7.347 6.222c-.432-.042-.866-.086-1.301-.13l4.317-4.553-5.91 4.388-.7-.074 6.146-6.54-7.858 6.355-.838-.093 2.921-3.041-3.76 2.945a372.288 372.288 0 01-7.746-.96l2.172-2.088-2.874 1.992-1.232-.172 7.715-6.726-3.456 2.091 6.549-7.153-7.63 6.114 8.84-9.887-3.891 3.055 7.272-8.623-7.065 5.603 8.249-8.623-6.134 4.42 11.059-12.008-14.412 12.088 15.434-13.53-37.126 27.454 4.384-5.325-8.717 7.304c-.067-.02-.139-.04-.206-.061l6.501-7.414-5.982 4.653 7.682-8.177-11.457 9.797a21.804 21.804 0 01-.809-.349l5.41-6.207-6.613 5.6a10.326 10.326 0 01-.982-.621l3.263-3.441-3.395 2.521.153-.423c.05-.14.202-.772.431-1.824l2.347-2.497-2.191 1.771c.21-.989.47-2.26.767-3.766l5.084-4.312-4.796 5.807 10.931-9.696-6.341 7.842 11.292-9.438-10.416 11.248 11.395-9.261-9.797 10.925 16.5-15.132-8.61 10.419 5.722-5.065-5.363 6.781 6.137-5.349-2.579 4.032 8.559-7.624-13.97 13.188 39.748-29.463.193-.168-8.456 9.658 7.785-6.607-6.855 7.612 5.567-4.636-5.465 5.874 7.167-4.959-8.603 8.739 4.384-2.396-6.197 6.294 1.753-1.017-7.53 7.482 5.003-3.858-8.456 9.395 6.136-4.818-4.486 4.814 6.289-4.782-5.929 6.169 5.567-2.981-8.866 8.683 7.424-5.477-2.681 3.191 9.642-8.174-4.795 5.805 10.93-9.696-6.341 7.842 11.292-9.438-10.416 11.248 11.395-9.261-9.795 10.925 16.5-15.128-8.61 10.421 5.722-5.065-5.363 6.779 6.136-5.346-2.579 4.031 8.561-7.626-14 13.216 32.692-23.446-5.065 4.783-31.932 22.728 4.384-5.325-7.685 6.438a29.113 29.113 0 01-.495-.041z"/><path fill="none" d="M182.601 586.511l7.271-8.625-7.063 5.603 8.25-8.623-6.136 4.42 11.061-12.009-14.412 12.089 15.491-13.582-30.286 22.706a446.28 446.28 0 0016.125-1.018l3.593-4.018-3.894 3.057zM228.744 581.907l9.26-8.121-.022-.12-11.663 8.627c.89-.14 1.698-.269 2.425-.386zM238.356 575.747l-.038-.21-.821.938.859-.728zM235.506 558.945a33.914 33.914 0 00-.05-.313l-1.103 1.336 1.153-1.023zM159.792 588.733l.086-.002.252-.28-.338.282zM185.215 587.281a.123.123 0 01.019-.002l.047-.052-.066.054zM157.768 588.778l.822-.018 1.437-1.546-2.259 1.564zM229.045 581.858c.942-.153 1.723-.283 2.344-.389l6.394-6.94-8.738 7.329z"/><path d="M72.891 423.736l.044.899 3.864-4.153-3.908 3.254zM191.773 586.68l.125-.013.295-.307-.42.32zM201.49 585.648l.621-.07 1.373-1.698-1.994 1.768zM211.35 584.438c.436-.057.87-.113 1.296-.17l3.472-4.201-4.768 4.371zM204.883 585.25l.903-.108 2.646-2.857-3.549 2.965zM226.319 582.292l11.663-8.627-.146-.83-13.088 9.701a258.26 258.26 0 001.571-.244zM189.686 586.879l.207-.02.495-.531-.702.551zM208.803 584.766l.187-.023.424-.473-.611.496zM231.576 415.909l.016-.326-8.222 7.209 8.206-6.883zM73.136 428.368l.03.508 1.118-1.135-1.148.627zM75.883 500.349l-.01.286.915-1.044-.905.758zM75.711 504.659c-.041.911-.081 1.733-.118 2.458l8.052-9.241-7.934 6.783zM71.489 542.777l-.124.837 2.118-1.569-2.167 1.899c-.121.81-.242 1.604-.362 2.392l7.805-8.914-7.27 5.355zM69.901 553.101l8.6-8.739-7.167 4.961 5.465-5.876-5.567 4.638 6.856-7.612-7.167 6.083a640.155 640.155 0 01-1.454 9.042l4.817-4.893-4.383 2.396zM75.575 457.668l.06 1.225 3.127-3.571-3.187 2.346zM75.701 460.399c.009.198.019.398.026.596l2.363-2.624-2.389 2.028zM69.356 556.264l-.041.239.523-.52-.482.281zM76.182 483.766c-.001.568-.004 1.125-.006 1.68l6.861-7.41-6.855 5.73zM75.849 464.099l.029.829 2.623-2.666-2.652 1.837zM76.169 486.401c-.005.815-.013 1.613-.022 2.396l7.87-8.773-7.848 6.377zM75.776 462.201l.009.239 1.016-1.093-1.025.854zM76.18 481.325l.001.665 1.905-2.355-1.906 1.69zM164.118 588.598l.501-.02 10.567-9.264-11.068 9.284zM74.063 442.337c.049.425.1.83.149 1.221l3.872-4.787-4.021 3.566zM187.706 585.613l7.527-7.485-1.75 1.018 6.197-6.296-4.384 2.396 8.603-8.737-7.17 4.959 5.467-5.873-5.57 4.635 6.857-7.613-7.786 6.608 8.456-9.657-38.586 28.975 1.209-.051 30.286-22.706-15.491 13.582 14.412-12.089-11.061 12.009 6.136-4.42-8.25 8.623 7.063-5.603-7.271 8.625 3.894-3.057-3.593 4.018c.775-.063 1.546-.126 2.314-.191l.066-.054-.047.052a599.27 599.27 0 002.714-.239l4.76-5.288-5.002 3.859zM72.965 425.228c.031.616.061 1.182.089 1.701l5.445-5.532-5.534 3.831zM165.701 583.816l8.249-8.625-7.065 5.602 7.272-8.625-3.891 3.058 8.84-9.887-7.631 6.111 6.549-7.151-3.455 2.089 13.457-11.729-9.849 6.825 6.549-6.292-5.363 3.469 8.973-8.438-9.694 6.797 5.311-5.845-7.734 6.068 4.021-4.788-11.395 8.929 6.239-6.494-12.016 9.717 7.994-8.507-8.456 6.281 10.259-10.819-14.59 12.357 8.971-10.291-15.829 13.532 7.682-8.176-5.981 4.652 7.272-8.293-9.694 8.12 4.384-5.324-18.305 17.282 8.558-7.628-2.577 4.032 6.134-5.348-5.362 6.782 5.724-5.066-8.611 10.419 16.5-15.127-9.797 10.924 11.395-9.26-10.416 11.248 11.292-9.437-6.342 7.841 10.931-9.697-4.796 5.806 9.642-8.175-2.681 3.191 7.424-5.477-8.866 8.682 5.567-2.979-5.93 6.166 6.292-4.782-4.486 4.814 6.134-4.817-8.456 9.394 5.003-3.86-7.53 7.486 1.753-1.019-6.197 6.294 4.384-2.394-5.284 5.367c.53-.007 1.06-.016 1.59-.025l2.259-1.563-1.437 1.546 1.203-.027.338-.282-.252.28c1.151-.029 2.303-.065 3.455-.105l8.502-9.229-6.134 4.42zM74.331 444.448c.093.679.183 1.294.268 1.836l8.436-9.11-8.704 7.274zM77.539 581.794c.036.008.072.016.107.022l.438-.485-.545.463zM75.331 581.284c.218.053.434.106.656.158l2.768-3.161-3.424 3.003z"/><path d="M76.281 455.436l37.126-27.456-15.434 13.533 14.412-12.088-11.059 12.005 6.134-4.42-8.249 8.623 7.065-5.6-7.272 8.623 3.891-3.055-8.84 9.884 7.63-6.111-6.549 7.151 3.456-2.089-13.457 11.729 9.847-6.825-6.546 6.292 5.362-3.469-8.972 8.439 9.693-6.795-5.31 5.841 7.734-6.065-4.022 4.785 11.395-8.927-6.239 6.494 12.014-9.715-7.992 8.505 8.456-6.279-10.261 10.817 14.592-12.357-8.972 10.294 15.829-13.537-7.685 8.179 5.982-4.653-7.27 8.291 9.692-8.12-4.382 5.324 31.93-22.727 5.067-4.782-32.692 23.447 13.998-13.219-8.559 7.626 2.579-4.032-6.136 5.348 5.363-6.781-5.724 5.063 8.61-10.417-16.5 15.127 9.797-10.924-11.395 9.26 10.416-11.248-11.292 9.437 6.341-7.841-10.933 9.697 4.796-5.806-9.642 8.175 2.681-3.191-7.424 5.475 8.868-8.681-5.567 2.98 5.929-6.166-6.291 4.781 4.486-4.815-6.134 4.817 8.454-9.396-5.001 3.862 7.527-7.484-1.752 1.018 6.199-6.295-4.384 2.396 8.601-8.739-7.166 4.961 5.465-5.875-5.569 4.638 6.857-7.615-7.785 6.609 8.456-9.66-.193.169-39.748 29.463 13.97-13.187-8.559 7.624 2.577-4.032-6.135 5.35 5.363-6.781-5.724 5.066 8.61-10.42-15.627 14.327.078 1.212 4.776-4.084-4.716 5.021.052.811 2.964-2.306-2.906 3.313.073 1.261 5.255-4.401-4.383 5.323zM118.081 585.649l31.932-22.728 5.065-4.783-32.692 23.446 14-13.216-8.561 7.626 2.579-4.031-6.136 5.346 5.363-6.779-5.722 5.065 8.61-10.421-16.5 15.128 9.795-10.925-11.395 9.261 10.416-11.248-11.292 9.438 6.341-7.842-10.93 9.696 4.795-5.805-9.642 8.174 2.681-3.191-7.424 5.477 8.866-8.683-5.567 2.981 5.929-6.169-6.289 4.782 4.486-4.814-6.136 4.818 8.456-9.395-5.003 3.858 7.53-7.482-1.753 1.017 6.197-6.294-4.384 2.396 8.603-8.739-7.167 4.959 5.465-5.874-5.567 4.636 6.855-7.612-7.785 6.607 8.456-9.658-.193.168-39.748 29.463 13.97-13.188-8.559 7.624 2.579-4.032-6.137 5.349 5.363-6.781-5.722 5.065 8.61-10.419-16.5 15.132 9.797-10.925-11.395 9.261 10.416-11.248-11.292 9.438 6.341-7.842-10.931 9.696 4.796-5.807-5.084 4.312a274.862 274.862 0 01-.767 3.766l2.191-1.771-2.347 2.497c-.229 1.052-.38 1.685-.431 1.824l-.153.423 3.395-2.521-3.263 3.441c.29.21.62.417.982.621l6.613-5.6-5.41 6.207c.258.117.527.233.809.349l11.457-9.797-7.682 8.177 5.982-4.653-6.501 7.414c.067.021.139.041.206.061l8.717-7.304-4.384 5.325 37.126-27.454-15.434 13.53 14.412-12.088-11.059 12.008 6.134-4.42-8.249 8.623 7.065-5.603-7.272 8.623 3.891-3.055-8.84 9.887 7.63-6.114-6.549 7.153 3.456-2.091-7.715 6.726 1.232.172 2.874-1.992-2.172 2.088c2.557.346 5.156.665 7.746.96l3.76-2.945-2.921 3.041.838.093 7.858-6.355-6.146 6.54.7.074 5.91-4.388-4.317 4.553c.435.044.869.088 1.301.13l7.347-6.222-5.574 6.395 1.045.1 11.386-9.735-7.683 8.177 5.982-4.652-5.758 6.566.496.043 7.685-6.438-4.385 5.323zM74.672 446.752c.231 1.431.398 2.251.398 2.251l.008.121 8.937-9.963-9.343 7.591zM72.809 421.988l.061 1.312 5.218-5.793-5.279 4.481zM244.985 279.39c-.232-.119-.457-.228-.686-.341l-1.401 1.054 1.274-1.117c-.44-.218-.876-.429-1.303-.628l-6.668 7.618 8.784-6.586zM242.468 278.173c-.312-.143-.628-.292-.935-.426l-4.663 5.178 5.598-4.752zM228.056 465.047l.029-.898-3.473 3.63 3.444-2.732zM235.578 357.271s.143-1.338.475-3.875l-1.694 1.503 1.78-2.156c.052-.39.106-.798.166-1.235l-6.795 5.761 2.682-3.192-7.425 5.478 8.868-8.683-5.568 2.981 5.929-6.167-6.289 4.782 4.484-4.815-6.134 4.817 8.456-9.393-5 3.859 7.527-7.483-1.753 1.017 3.2-3.25.26-1.548-1.645.899 1.802-1.831c.139-.813.284-1.651.434-2.503l-.803.556.869-.934.23-1.305-1.201 1 1.276-1.417.309-1.722-2.514 2.133 2.683-3.064c.16-.878.324-1.768.494-2.681L206.149 350.4l13.84-13.067-8.56 7.626 2.578-4.032-6.136 5.349 5.363-6.782-5.722 5.065 8.611-10.418-16.5 15.127 9.794-10.924-11.395 9.26 10.416-11.248-11.292 9.437 6.342-7.839-10.931 9.694 4.794-5.805-9.642 8.174 2.681-3.19-7.425 5.476 8.868-8.683-5.568 2.98 5.93-6.167-6.292 4.782 4.486-4.816-6.136 4.818 8.458-9.394-5.003 3.859 7.528-7.483-1.751 1.017 6.197-6.294-4.384 2.395 8.603-8.738-7.17 4.958 5.467-5.874-5.57 4.637 6.858-7.613-7.787 6.609 8.456-9.659-44.878 33.7 15.911-13.949-14.412 12.088 11.059-12.007-6.135 4.419 8.249-8.623-7.065 5.602 7.272-8.624-3.891 3.055 8.84-9.886-7.631 6.113 6.549-7.154-3.455 2.089 13.457-11.729-9.849 6.826 6.549-6.291-5.363 3.468 8.973-8.438-9.694 6.796 5.311-5.843-7.734 6.068 4.021-4.788-11.395 8.927 6.239-6.494-12.016 9.715 7.994-8.505-8.456 6.28 10.259-10.818-14.59 12.356 8.971-10.293-15.829 13.534 7.682-8.178-5.981 4.653 7.272-8.293-9.694 8.122 4.37-5.308.014-.014-.008.006.008-.01-.017.016-32.675 23.433 14-13.216-8.561 7.625 2.579-4.032-6.136 5.349 5.363-6.782-5.722 5.065 8.61-10.418-16.5 15.127 9.795-10.923-11.395 9.259 10.416-11.247-11.292 9.437 6.341-7.84-10.93 9.695 4.795-5.806-9.642 8.175 2.681-3.191-7.424 5.475 8.866-8.681-5.567 2.979 5.929-6.167-6.289 4.783 4.486-4.815-6.136 4.817 8.456-9.393-5.003 3.859 7.53-7.484-1.753 1.018 6.197-6.295-4.384 2.396 8.603-8.739-7.167 4.961 5.465-5.874-5.567 4.636 6.855-7.612-7.785 6.608 8.456-9.659-.193.169-39.748 29.463 13.97-13.189-8.559 7.627 2.579-4.032-6.137 5.348 5.363-6.781-5.722 5.065L90.72 312l-16.5 15.127 9.797-10.923-11.395 9.259 10.416-11.248-11.292 9.437 6.341-7.839-10.931 9.694 4.796-5.806-7.446 6.314c.028.619.037.963.037.963.047.603.106 1.245.175 1.918l3.574-2.89-3.487 3.711c.047.436.097.879.151 1.335l3.8-2.822-3.672 3.871.158 1.234 7.846-6.642-7.568 8.681.051.366 14.372-12.289-7.682 8.177 5.982-4.653-7.272 8.292 9.694-8.121-4.384 5.325 37.126-27.457-15.434 13.533 14.412-12.088-11.059 12.006 6.134-4.42-8.249 8.624 7.065-5.601-7.272 8.624 3.891-3.055-8.84 9.885 7.63-6.112-6.549 7.152 3.456-2.088-13.457 11.73 9.847-6.826-6.546 6.292 5.362-3.47-8.972 8.438 9.693-6.796-5.31 5.843 7.734-6.068-4.022 4.789 11.395-8.929-6.239 6.496 12.014-9.716-7.992 8.506 8.456-6.281-10.261 10.818 14.592-12.358-8.972 10.293 15.829-13.534-7.683 8.178 5.982-4.654-7.272 8.292 9.694-8.119-4.384 5.325 31.916-22.717-13.223 12.483 8.558-7.625-2.577 4.032 6.134-5.348-5.362 6.781 5.724-5.065-8.611 10.419 16.5-15.126-9.797 10.923 11.395-9.259-10.416 11.247 11.292-9.437-6.342 7.839 10.931-9.695-4.796 5.805 9.642-8.175-2.681 3.192 7.424-5.476-8.866 8.682 5.567-2.981-5.93 6.167 6.292-4.784-4.486 4.816 6.134-4.818-8.456 9.395 5.003-3.859-7.53 7.483 1.753-1.017-6.197 6.295 4.384-2.396-8.603 8.739 7.168-4.959-5.465 5.874 5.569-4.635-6.858 7.614 7.785-6.609-8.456 9.658 44.458-33.332-15.489 13.582 14.412-12.087-11.061 12.006 6.136-4.419-8.25 8.624 7.063-5.601-7.271 8.624 3.894-3.055-8.842 9.885 7.63-6.112-6.546 7.154 3.453-2.09-13.457 11.73 9.847-6.826-6.548 6.291 5.363-3.469-8.971 8.438 9.692-6.796-5.311 5.845 7.734-6.07-4.022 4.788 11.397-8.926-6.239 6.494 12.014-9.716-7.992 8.506 8.457-6.281-10.261 10.818 14.592-12.355-8.973 10.291 15.829-13.533-7.682 8.179 5.981-4.655-7.27 8.293 9.694-8.121-4.384 5.325.129-.123 37.188-27.501-15.625 13.7 14.412-12.088-11.059 12.007 6.134-4.42-8.249 8.623 7.063-5.602-7.268 8.625 3.892-3.057-8.842 9.887 7.63-6.113-6.546 7.154 3.453-2.09-13.457 11.73 9.849-6.828-6.548 6.291 5.363-3.469-8.973 8.438 9.694-6.796-5.313 5.843 7.737-6.068-4.022 4.788 11.395-8.926-6.239 6.494 12.013-9.714-7.991 8.504 7.191-5.342c.153-.589.258-.938.287-1.029.089.174.171.392.251.629l.124-.092c.143-.527.229-.799.229-.799zM235.282 358.329l.001.001v-.002zM234.048 361.365c.186-.915.359-1.674.506-2.269l-8.859 9.344 8.353-7.075zM227.982 467.993c.01-.501.021-.992.033-1.474l-3.609 4.281 3.576-2.807zM228.829 500.668l-.026-.421-8.43 7.959 8.456-7.538zM219.984 501.155l-8.56 7.626 2.578-4.032-6.136 5.348 5.363-6.782-5.723 5.064 8.609-10.417-16.498 15.127 9.795-10.924-11.395 9.259 10.416-11.247-11.292 9.438 6.341-7.84-10.93 9.694 4.794-5.803-9.642 8.175 2.681-3.192-7.425 5.476 8.868-8.681-5.568 2.98 5.93-6.168-6.292 4.783 4.486-4.816-6.137 4.818 8.457-9.396-5.001 3.86 7.527-7.484-1.751 1.019 6.197-6.296-4.383 2.394 8.601-8.737-7.167 4.959 5.467-5.873-5.569 4.637 6.857-7.613-7.786 6.606 8.456-9.658-39.812 29.508 13.84-13.064-8.561 7.626 2.579-4.032-6.136 5.348 5.362-6.78-5.723 5.064 8.611-10.419-16.5 15.127 9.796-10.924-11.395 9.259 10.416-11.247-11.292 9.437 6.342-7.841-10.931 9.696 4.796-5.805-9.642 8.175 2.682-3.192-7.425 5.478 8.868-8.684-5.569 2.981 5.932-6.166-6.292 4.78 4.487-4.815-6.137 4.818 8.456-9.396-5.001 3.86 7.527-7.484-1.753 1.018 6.197-6.293-4.384 2.394 8.603-8.737-7.17 4.959 5.467-5.876-5.57 4.637 6.858-7.611-7.787 6.607 8.456-9.658-44.876 33.699 15.909-13.951-14.411 12.089 11.061-12.007-6.137 4.42 8.249-8.623-7.063 5.603 7.271-8.625-3.892 3.057 8.842-9.886-7.632 6.111 6.548-7.153-3.453 2.09 13.455-11.729-9.847 6.827 6.548-6.292-5.363 3.468 8.973-8.437-9.69 6.799 5.312-5.843-7.736 6.068 4.022-4.788-11.395 8.929 6.239-6.497-12.016 9.717 7.994-8.506-8.456 6.281 10.259-10.817-14.59 12.354 8.971-10.29-15.829 13.532 7.682-8.177-5.981 4.653 7.27-8.293-9.694 8.12 4.368-5.305.018-.018-.01.007.007-.009-.016.016-32.674 23.431 14-13.216-8.559 7.628 2.577-4.032-6.134 5.347 5.362-6.781-5.724 5.065 8.61-10.419-14.576 13.363c-.005.454-.011.91-.018 1.353l3.818-3.265-3.831 4.079-.02 1.119 2.15-1.673-2.166 2.47c-.011.531-.021 1.062-.033 1.573l4.621-3.87-4.384 5.325 31.916-22.718-13.225 12.484 8.559-7.626-2.577 4.033 6.135-5.348-5.363 6.78 5.723-5.065-8.611 10.42 16.5-15.127-9.792 10.922 11.394-9.259-10.416 11.249 11.292-9.438-6.344 7.842 10.932-9.697-4.796 5.805 9.642-8.176-2.682 3.193 7.425-5.477-8.868 8.681 5.567-2.979-5.929 6.166 6.292-4.781-4.487 4.813 6.137-4.815-8.458 9.393 5.003-3.859-7.529 7.483 1.753-1.018-6.197 6.296 4.384-2.396-8.603 8.739 7.167-4.961-5.465 5.875 5.567-4.638-6.858 7.612 7.787-6.606-8.456 9.658 44.459-33.332-15.487 13.582 14.41-12.089-11.059 12.008 6.134-4.42-8.249 8.623 7.065-5.6-7.272 8.623 3.894-3.056-8.842 9.885 7.632-6.113-6.548 7.153 3.453-2.089-13.457 11.73 9.849-6.827-6.548 6.292 5.363-3.47-8.973 8.438 9.694-6.795-5.31 5.843 7.734-6.066-4.022 4.786 11.397-8.929-6.239 6.496 12.014-9.717-7.991 8.505 8.456-6.279-10.262 10.817 14.593-12.355-8.973 10.291 15.829-13.532-7.683 8.177 5.982-4.654-7.27 8.294 9.694-8.12-4.384 5.324.128-.123 37.188-27.5-15.625 13.698 14.412-12.089-11.059 12.008 6.135-4.42-8.249 8.623 7.063-5.602-7.271 8.625 3.892-3.058-8.842 9.887 7.632-6.113-6.548 7.153 3.453-2.091-13.457 11.73 9.849-6.827-6.548 6.292 5.363-3.47-8.973 8.44 9.694-6.795-5.313 5.843 7.736-6.068-4.022 4.79 11.395-8.929-6.239 6.494 12.014-9.717-7.992 8.507 8.457-6.281-10.259 10.817 14.59-12.355-8.971 10.291 15.829-13.532-7.682 8.177 5.979-4.654-7.268 8.294 9.692-8.12-4.382 5.324 27.051-19.256-.064-1.076-22.686 16.27 14.003-13.214zM241.049 277.542a43.1 43.1 0 00-.467-.197l-2.421 2.602 2.888-2.405zM233.479 364.525c.042-.268.085-.527.128-.78l-2.293 2.631 2.165-1.851zM228.234 489.262l-.02-.507-2.518 2.655 2.538-2.148z"/><path d="M227.085 471.517l-6.546 7.154 3.453-2.089-13.457 11.731 9.849-6.826-6.548 6.291 5.363-3.47-8.973 8.438 9.695-6.794-5.313 5.843 7.737-6.067-4.022 4.788 9.71-7.609c-.023-.938-.041-1.854-.056-2.752l-3.208 2.365 3.195-3.129a352.754 352.754 0 01-.038-4.123l-.217.165.216-.232-.001-1.23-1.865 1.465 1.865-2.072c.004-1.863.024-3.617.056-5.264l-8.524 9.532 7.629-6.115zM228.07 484.369l-.027-1.038-4.564 4.752 4.591-3.714zM228.131 486.404l-.006-.196-.625.665.631-.469zM232.336 385.875l-.004-.096-.406.438.41-.342zM216.988 422.744l-14.41 12.088 11.06-12.008-6.135 4.42 8.249-8.623-7.065 5.602 7.27-8.625-3.892 3.057 8.842-9.887-7.632 6.114 6.549-7.154-3.455 2.089 13.458-11.73-9.847 6.826 6.546-6.292-5.363 3.469 8.973-8.438-9.696 6.795 5.311-5.843-7.735 6.068 4.022-4.788-11.396 8.928 6.239-6.495-12.014 9.714 7.991-8.504-8.456 6.279 10.262-10.818-14.593 12.355 8.973-10.293-15.831 13.535 7.685-8.178-5.982 4.655 7.27-8.293-9.694 8.12 4.354-5.291.035-.033-.02.014.014-.016-.029.028-32.659 23.421 14-13.216-8.559 7.626 2.578-4.032-6.135 5.347 5.362-6.782-5.725 5.065 8.611-10.417-16.5 15.127 9.797-10.924-11.393 9.259 10.416-11.247-11.294 9.437 6.344-7.841-10.933 9.696 4.796-5.805-9.642 8.175 2.682-3.192-7.423 5.475 8.867-8.683-5.568 2.982 5.93-6.168-6.292 4.784 4.487-4.816-6.135 4.818 8.456-9.395-5.003 3.859 7.529-7.483-1.753 1.017 6.197-6.295-4.383 2.396 8.601-8.74-7.167 4.961 5.465-5.875-5.568 4.637 6.856-7.614-7.787 6.608 8.458-9.66-39.812 29.511 13.84-13.065-8.561 7.626 2.579-4.032-6.136 5.347 5.365-6.779-5.724 5.064 8.61-10.419-16.5 15.126 9.794-10.924-11.395 9.26 10.416-11.248L113.543 413l6.341-7.841-10.93 9.696 4.796-5.805-9.642 8.177 2.681-3.194-7.425 5.477 8.866-8.681-5.567 2.979 5.929-6.167-6.289 4.784 4.486-4.816-6.137 4.818 8.456-9.395-5.003 3.859 7.53-7.483-1.753 1.018 6.197-6.295-4.384 2.396 8.603-8.74-7.167 4.961 5.465-5.875-5.567 4.637 6.855-7.614-7.785 6.608 8.456-9.66-44.876 33.7 15.909-13.949-14.412 12.088 11.061-12.008-6.137 4.42 8.249-8.623-7.063 5.603 7.271-8.625-3.894 3.055 8.844-9.885-7.632 6.114 6.548-7.153-3.455 2.088 13.459-11.73-9.849 6.825 6.548-6.291-5.363 3.469 8.971-8.44-9.694 6.8 5.31-5.843-7.734 6.068 4.021-4.788-11.396 8.928 6.239-6.497-12.014 9.716 7.992-8.506-8.456 6.281 10.261-10.818-14.59 12.355 8.97-10.292-11.901 10.176-.007.364.018.958 1.785-1.637-1.779 1.984.046 2.387 3.333-2.708-3.315 3.581c.011.572.022 1.146.035 1.705l4.157-3.474-4.122 5.097.017.761 8.694-7.713-4.793 5.807 9.642-8.176-2.682 3.192 7.425-5.475-8.868 8.681 5.57-2.979-5.93 6.167 6.289-4.784-4.486 4.816 6.137-4.818-8.456 9.395 5.001-3.859-7.527 7.483 1.753-1.017-6.199 6.296 4.384-2.396-5.508 5.598.033.979 4.041-2.797-3.989 4.288.013.348 4.081-3.397-4.042 4.486.026.713 4.943-4.195-4.89 5.586.054 1.359 40.838-30.617-15.491 13.579 14.412-12.088-11.061 12.008 6.136-4.42-8.249 8.623 7.063-5.602-7.27 8.623 3.891-3.055-8.842 9.887 7.632-6.114-6.549 7.153 3.456-2.088-13.459 11.731 9.849-6.829-6.549 6.292 5.362-3.469-8.97 8.438 9.691-6.794-5.31 5.844 7.734-6.069-4.022 4.788 11.395-8.928-6.237 6.495 12.014-9.715-7.994 8.505 8.456-6.282-10.26 10.816 14.592-12.355-8.972 10.293 15.829-13.535-7.683 8.179 5.982-4.655-7.27 8.293 9.692-8.121-4.382 5.325.129-.121 37.188-27.502-15.625 13.702 14.41-12.088-11.059 12.008 6.134-4.42-8.249 8.623 7.065-5.599-7.272 8.622 3.894-3.057-8.842 9.887 7.632-6.112-6.548 7.154 3.453-2.089-13.457 11.729 9.849-6.827-6.548 6.292 5.363-3.47-8.973 8.438 9.694-6.795-5.31 5.843 7.734-6.067-4.022 4.786 11.397-8.926-6.239 6.494 12.014-9.715-7.991 8.505 8.456-6.279-10.262 10.817 14.593-12.355-8.973 10.291 15.829-13.533-7.683 8.176 5.982-4.653-7.27 8.292 9.694-8.118-4.384 5.324 31.906-22.709-13.217 12.477 8.559-7.626-2.579 4.034 6.136-5.349-5.363 6.782 5.725-5.065-8.61 10.418 16.5-15.125-9.799 10.922 11.396-9.258-10.416 11.246 11.292-9.437-6.341 7.841 10.931-9.694-4.796 5.805 9.642-8.177-2.682 3.192 7.425-5.477-8.868 8.683 5.568-2.981-5.929 6.167 6.291-4.782-4.486 4.816 6.137-4.818-8.456 9.393 5.001-3.859-7.527 7.483 1.752-1.017-6.199 6.295 4.386-2.396-8.603 8.739 7.167-4.961-5.465 5.875 5.567-4.637-6.855 7.613 7.785-6.608-8.457 9.658 37.236-27.917.042-.909-30.598 22.977 15.907-13.951zM229.429 447.379c.037-.284.072-.584.108-.891l-3.847 4.056 3.739-3.165zM229.771 444.318l.079-.816-2.354 2.506 2.275-1.69zM228.292 426.882l-8.842 9.886 7.632-6.113-6.549 7.154 3.456-2.089-13.459 11.728 9.849-6.825-6.548 6.292 5.362-3.47-8.971 8.438 9.692-6.794-5.311 5.841 7.735-6.065-4.022 4.787 11.397-8.928-6.239 6.494 6.517-5.271c.089-1.019.176-2.091.261-3.207l-.747.633.769-.914.068-.916-5.58 4.115 5.684-5.563.101-1.468-2.483 1.328 2.572-2.675.063-.986-2.995 2.277 3.057-3.282.027-.433-4.734 3.717 4.833-5.368.074-1.285-1.452 1.12 1.472-1.463c.11-1.936.214-3.887.313-5.812l-6.892 8.172 3.89-3.055zM231.413 419.331l.087-1.809-4.781 5.189 4.694-3.38zM239.524 276.912a39.341 39.341 0 00-.708-.273l-2.356 2.394 3.064-2.121z"/><path d="M219.986 378.195l-8.558 7.626 2.576-4.032-6.134 5.347 5.361-6.78-5.723 5.065 8.611-10.419-16.5 15.127 9.797-10.922-11.397 9.257 10.416-11.246-11.292 9.437 6.344-7.841-10.933 9.694 4.796-5.805-9.642 8.177 2.679-3.192-7.425 5.475 8.87-8.683-5.57 2.98 5.93-6.166-6.29 4.782 4.484-4.816-6.134 4.818 8.456-9.395-5.001 3.859 7.528-7.483-1.753 1.018 6.199-6.294-4.384 2.395 8.601-8.738-7.168 4.958 5.465-5.875-5.568 4.637 6.855-7.614-7.786 6.609 8.456-9.66-39.81 29.51 13.838-13.066-8.559 7.625 2.577-4.032-6.134 5.349 5.362-6.782-5.725 5.065 8.611-10.418-16.5 15.125 9.796-10.922-11.392 9.258 10.413-11.246-11.292 9.437 6.344-7.84-10.933 9.693 4.796-5.805-9.642 8.177 2.682-3.192-7.425 5.475 8.868-8.683-5.567 2.981 5.93-6.167-6.292 4.782 4.487-4.816-6.137 4.818 8.458-9.395-5.003 3.859 7.529-7.483-1.753 1.017 6.197-6.295-4.384 2.396 8.601-8.739-7.167 4.96 5.465-5.875-5.568 4.637 6.856-7.614-7.787 6.609 8.458-9.658-44.878 33.699 15.911-13.951-14.411 12.087 11.059-12.005-6.134 4.42 8.248-8.623-7.064 5.602 7.272-8.625-3.892 3.056 8.84-9.885-7.63 6.112 6.548-7.153-3.455 2.09 13.457-11.73-9.847 6.828 6.548-6.293-5.363 3.469 8.973-8.438-9.694 6.798 5.312-5.843-7.736 6.068 4.022-4.788-11.395 8.928 6.239-6.496-12.016 9.716 7.994-8.504-8.456 6.281 10.259-10.817-14.59 12.355 8.971-10.292-15.829 13.534 7.682-8.177-5.981 4.655 7.27-8.293-9.694 8.118 4.383-5.324L94.968 363.1l8.559-7.628-2.577 4.033 6.135-5.347-5.363 6.781 5.723-5.065-8.611 10.418 16.5-15.127-9.795 10.924 11.395-9.26-10.416 11.248 11.292-9.437-6.344 7.841 10.932-9.696-4.796 5.805 9.642-8.177-2.682 3.192 7.425-5.475-8.869 8.683 5.568-2.98-5.93 6.167 6.292-4.784-4.487 4.816 6.135-4.818-8.456 9.394 5.003-3.859-7.529 7.483 1.753-1.017-6.197 6.295 4.384-2.396-8.603 8.739 7.167-4.96-5.465 5.875 5.567-4.637-6.858 7.614 7.787-6.606-8.457 9.658 44.459-33.332-15.485 13.577 14.41-12.087-11.059 12.007 6.134-4.42-8.249 8.623 7.065-5.6-7.272 8.623 3.894-3.056-8.842 9.888 7.632-6.113-6.548 7.152 3.453-2.088-13.451 11.729 9.849-6.826-6.548 6.294 5.363-3.47-8.973 8.438 9.694-6.795-5.31 5.843 7.734-6.068-4.022 4.788 11.397-8.928-6.239 6.496 12.014-9.716-7.991 8.504 8.456-6.279-10.262 10.818 14.593-12.357-8.973 10.293 15.829-13.533-7.683 8.178 5.982-4.655-7.27 8.293 9.694-8.12-4.384 5.324.128-.123 37.188-27.502-15.625 13.7 14.412-12.086-11.059 12.007 6.135-4.422-8.249 8.625 7.063-5.602-7.271 8.623 3.892-3.056-8.842 9.888 7.632-6.115-6.548 7.154 3.453-2.088-13.457 11.728 9.849-6.826-6.548 6.292 5.363-3.47-8.973 8.44 9.694-6.795-5.313 5.843 7.736-6.068-4.022 4.788 11.395-8.928-6.239 6.494 12.014-9.714-7.992 8.504 8.457-6.281-10.259 10.82 14.59-12.355-8.971 10.293 15.829-13.535-7.682 8.179 5.979-4.655-7.268 8.293 9.692-8.12-4.382 5.324 30.806-21.927c.026-.408.055-.809.085-1.203l-26.588 19.067 13.999-13.218zM231.299 421.61l.089-1.785-6.783 7.089 6.694-5.304zM219.99 460.3l-8.56 7.625 2.578-4.031-6.136 5.347 5.362-6.779-5.722 5.064 8.611-10.419-16.5 15.124 9.794-10.922-11.395 9.26 10.416-11.247-11.292 9.437 6.342-7.839-10.931 9.694 4.794-5.806-9.642 8.178 2.681-3.192-7.425 5.476 8.868-8.682-5.568 2.981 5.93-6.167-6.292 4.781 4.486-4.815-6.136 4.818 8.458-9.394-5.003 3.859 7.53-7.482-1.753 1.017 6.197-6.295-4.384 2.396 8.603-8.739-7.17 4.959 5.467-5.873-5.57 4.635 6.858-7.611-7.787 6.606 8.456-9.659-44.878 33.702 15.911-13.951-14.412 12.088 11.059-12.006-6.135 4.42 8.249-8.623-7.065 5.601 7.272-8.623-3.891 3.055 8.84-9.885-7.631 6.112 6.549-7.153-3.455 2.091 13.457-11.73-9.849 6.825 6.549-6.291-5.363 3.469 8.973-8.437-9.696 6.789 5.311-5.843-7.734 6.065 4.021-4.785-11.395 8.926 6.239-6.494-12.016 9.716 7.994-8.503-8.456 6.278 10.259-10.818-14.588 12.355 8.971-10.291-15.829 13.534 7.682-8.177-5.981 4.653 7.272-8.293-9.694 8.12 4.384-5.325-18.305 17.28 8.558-7.626-2.577 4.032 6.134-5.347-5.362 6.781 5.724-5.065-8.611 10.421 16.5-15.128-9.797 10.923 11.395-9.259-10.416 11.247 11.292-9.438-6.342 7.841 10.931-9.696-4.796 5.805 9.642-8.174-2.681 3.189 7.426-5.475-8.868 8.683 5.567-2.981-5.93 6.167 6.292-4.782-4.486 4.816 6.134-4.82-8.456 9.395 5.003-3.858-7.53 7.482 1.753-1.017-6.197 6.296 4.384-2.396-8.603 8.739 7.167-4.961-5.465 5.876 5.57-4.638-6.858 7.614 7.787-6.608-8.458 9.659 44.458-33.331-15.489 13.582 14.412-12.089-11.061 12.008 6.137-4.423-8.251 8.625 7.063-5.601-7.271 8.624 3.894-3.058-8.842 9.888 7.63-6.113-6.546 7.154 3.453-2.091-13.457 11.731 9.847-6.827-6.548 6.292 5.363-3.47-8.971 8.438 9.692-6.796-5.311 5.845 7.734-6.07-4.022 4.788 11.397-8.927-6.239 6.494 12.014-9.716-7.992 8.507 8.457-6.281-10.261 10.819 14.592-12.357-8.973 10.293 15.829-13.533-7.682 8.177 5.981-4.653-7.27 8.294 9.694-8.121-4.384 5.325.129-.121 26.573-19.653.062-.967-22.295 16.526L219.99 460.3zM228.933 377.616l-2.579 4.032 5.985-5.215c.036-.901.081-1.772.133-2.613l-12.099 11.422 8.56-7.626zM228.284 459.539l.011-.196-4.921 4.315 4.91-4.119zM228.143 462.554l.023-.543-1.439 1.563 1.416-1.02zM232.275 378.527c.015-.693.036-1.369.063-2.031l-5.209 6.585 5.146-4.554zM232.263 383.16l-.005-.394-1.313 1.464 1.318-1.07zM232.248 381.095c0-.809.007-1.604.022-2.375l-8.028 9.715 8.006-7.34zM68.182 351.875l.104.584 1.556-1.546-1.66.962zM63.826 317.555l3.486-3.873-3.611 2.787c.044.369.086.731.125 1.086zM64.169 321.024l2.626-2.732-2.688 2.044c.022.235.043.463.062.688zM64.471 325.305l.52-.619-.532.393.012.226zM94.517 299.979l-5.31 5.844 7.734-6.068-4.022 4.788 11.395-8.928-6.237 6.495 12.014-9.716-7.994 8.506 8.456-6.28-10.261 10.818 14.592-12.357-8.972 10.293 15.829-13.533-7.683 8.177 5.982-4.654-7.27 8.293 9.692-8.12-4.382 5.324.129-.122 18.224-13.478a64.401 64.401 0 01-.966-.189l-12.923 9.579 10.679-10.082a6.31 6.31 0 01-.147-.037l-5.25 4.678 2.577-4.032-6.134 5.347 5.363-6.78-5.724 5.065 4.691-5.677c-.295-.118-.576-.239-.862-.359l-11.719 10.744 9.797-10.924-11.395 9.259 9.876-10.664-.097-.05-10.655 8.904 6.341-7.841-10.932 9.695 4.795-5.805-9.642 8.176 2.681-3.192-7.424 5.476 8.868-8.682-5.567 2.981 5.929-6.168-6.291 4.782 4.486-4.815-6.134 4.817 8.454-9.394-5.001 3.86 7.528-7.483-1.753 1.017 4.061-4.124c-.193-.232-.387-.464-.564-.695l-1.682.919 1.353-1.374c-1.162-1.602-1.958-3.162-2.492-4.614l-9.234 10.024 6.136-4.421-8.249 8.624 7.063-5.602-7.27 8.624 3.891-3.056-8.842 9.885 7.632-6.112-6.549 7.153 3.456-2.089-13.459 11.731 9.849-6.826-6.549 6.292 5.362-3.468-8.97 8.438 9.692-6.797zM73.316 337.121l-6.646 5.828c.019.117.037.235.057.352l3.856-3.235-3.725 4.043c.469 2.867.933 5.553 1.318 7.731l6.109-6.203-4.384 2.394 8.6-8.738-7.165 4.959 5.465-5.874-5.568 4.635 6.856-7.613-7.785 6.61 8.456-9.66-12.333 9.084.111.7 6.778-5.013zM72.675 418.938l.031.739.609-.451-.605.531c.022.531.045 1.041.067 1.532l5.982-6.832-6.084 4.481zM63.984 319.051l.026.263.982-1.054-1.008.791zM64.362 323.509l2.074-2.03-2.138 1.144.064.886zM71.754 380.844c.005.545.008 1.052.008 1.517l5.025-5.734-5.033 4.217zM71.762 383.175c-.001.408-.004.77-.007 1.077l3.744-3.985-3.737 2.908z"/><path d="M76.281 373.327l31.933-22.727 5.065-4.784-32.692 23.446 14-13.215-8.559 7.626 2.577-4.032-6.134 5.347 5.362-6.78-5.724 5.065 8.61-10.417-16.5 15.125 9.799-10.924-11.396 9.259 10.416-11.248-11.29 9.437 6.339-7.84-7.516 6.667c.284 1.858.501 3.822.668 5.782l1.849-1.565-1.808 2.073c.054.66.101 1.317.144 1.97l8.52-7.285-7.682 8.178 5.982-4.653-6.622 7.55.008.19 9.036-7.567-4.385 5.322zM228.94 502.359c-.037-.546-.074-1.091-.108-1.627l-2.479 3.881 2.587-2.254zM70.336 361.924c.028.161.058.32.085.483l1.53-1.853-1.615 1.37zM229.045 581.858l8.737-7.329-6.394 6.94c1.071-.181 1.652-.284 1.652-.284 4.442-1.357 5.6-3.855 5.6-3.855l-.004-.023-.208.174.2-.222-.271-1.512-.859.729.821-.938-.314-1.751-9.26 8.121c.098-.018.204-.034.3-.05zM236.788 566.764l-.228-1.339-5.25 6.021 5.478-4.682zM61.758 304.81l9.371-6.631-9.086 7.966c.014.063.025.127.039.19l8.5-7.13-8.161 8.86c.059.313.116.625.172.935l3.067-2.209-2.918 3.05c.068.399.135.796.198 1.189l1.534-1.216-1.454 1.724c.255 1.624.469 3.186.647 4.654l6.171-6.135-1.752 1.017 6.199-6.294-4.384 2.395 8.6-8.738-7.167 4.96 5.465-5.874-5.567 4.637 6.856-7.612-7.785 6.607 8.456-9.659-17.198 12.444c.066.29.134.581.197.87zM192.524 271.774l5.96-5.047-8.973 10.293 14.235-12.171c-.355-.177-.695-.351-1.037-.524l-3.092 2.834 2.714-3.026c-.557-.285-1.095-.563-1.611-.833l-2.703 2.196 2.254-2.434c-.511-.27-.995-.529-1.455-.777l-1.676 1.4 1.298-1.604c-.435-.237-.85-.463-1.228-.673l-2.078 1.843c-.04 3.285-1.031 6.099-2.608 8.523zM229.259 506.8c-.035-.454-.067-.902-.1-1.351l-4.917 5.95 5.017-4.599zM232.503 538.097l-.041-.313-9.094 7.976 9.135-7.663zM225.751 517.571l-7.735 6.065 4.022-4.785-11.396 8.927 6.239-6.495L204.868 531l7.991-8.504-8.456 6.278 10.262-10.817-14.593 12.357 8.973-10.293-15.831 13.533 7.685-8.177-5.982 4.653 7.27-8.293-9.694 8.12 4.356-5.292.034-.031-.019.013.013-.015-.027.025-32.661 23.424 14-13.216-8.559 7.626 2.578-4.031-6.135 5.346 5.362-6.781-5.725 5.064 8.611-10.418-16.502 15.123 9.797-10.922-11.395 9.259 10.416-11.247-11.292 9.438 6.342-7.842-10.931 9.697 4.796-5.805-9.642 8.174 2.682-3.191-7.425 5.477 8.868-8.683-5.569 2.98 5.932-6.166-6.292 4.781 4.487-4.815-6.137 4.817 8.456-9.394-5.001 3.858 7.527-7.483-1.753 1.018 6.197-6.296-4.384 2.396 8.603-8.738-7.167 4.96 5.465-5.875-5.57 4.638 6.858-7.614-7.787 6.606 8.456-9.657-39.812 29.511 13.841-13.065-8.559 7.624 2.577-4.033-6.134 5.35 5.363-6.781-5.724 5.064 8.61-10.418-16.5 15.127 9.797-10.924-11.395 9.26 10.416-11.248-11.292 9.438 6.341-7.842-10.933 9.697 4.796-5.805-9.642 8.174 2.681-3.191-7.424 5.475 8.868-8.683-5.567 2.98 5.929-6.166-6.291 4.781 4.486-4.813-6.134 4.815 8.454-9.392-5.001 3.858 7.527-7.483-1.752 1.016 6.199-6.294-4.384 2.394 8.601-8.736-7.166 4.958 5.465-5.873-5.569 4.636 6.857-7.612-7.785 6.608 8.456-9.66-44.878 33.699 15.91-13.949-14.411 12.089 11.059-12.009-6.135 4.42 8.249-8.623-7.063 5.603 7.269-8.623-3.892 3.056 8.842-9.887-7.63 6.113 6.546-7.153-3.453 2.089 13.457-11.729-9.849 6.826 6.548-6.291-5.363 3.467 8.973-8.438-9.692 6.799 5.31-5.843-7.734 6.069 4.021-4.789-11.396 8.929 6.239-6.493-12.014 9.714 7.992-8.505-8.456 6.279 10.261-10.817-13.688 11.593a198.273 198.273 0 01-.213 3.563l-.083.854.734-.613-.767.948c-.069.712-.138 1.426-.209 2.133l5.564-4.937-4.793 5.807 9.642-8.177-2.682 3.192 7.425-5.476-8.868 8.681 5.57-2.979-5.93 6.167 6.289-4.781-4.486 4.813 6.137-4.816-8.456 9.394 5.001-3.859-7.527 7.482 1.753-1.016-6.199 6.296 4.384-2.396-4.972 5.053-.173 1.294 3.71-2.568-3.933 4.228-.057.42 4.095-3.409-4.281 4.752-.106.763 5.315-4.512-5.58 6.375-.181 1.265 41.763-31.312-15.489 13.582 14.412-12.088-11.061 12.008 6.136-4.42-8.249 8.623 7.063-5.603-7.27 8.625 3.891-3.057-8.842 9.886 7.632-6.113-6.549 7.153 3.456-2.089-13.459 11.729 9.849-6.827-6.549 6.29 5.362-3.469-8.97 8.438 9.691-6.793-5.31 5.841 7.734-6.067-4.022 4.789 11.395-8.929-6.237 6.495 12.014-9.715-7.994 8.504 8.456-6.279-10.261 10.817 14.592-12.355-8.972 10.292 15.831-13.533-7.685 8.177 5.982-4.653-7.27 8.293 9.692-8.122-4.382 5.324.129-.12 37.188-27.503-15.625 13.704 14.41-12.088-11.059 12.006 6.134-4.42-8.249 8.625 7.065-5.603-7.272 8.625 3.894-3.057-8.842 9.886 7.632-6.113-6.548 7.153 3.453-2.089-13.457 11.729 9.849-6.825-6.548 6.29 5.363-3.466-8.973 8.437 9.694-6.795-5.31 5.843 7.734-6.067-4.022 4.787 11.397-8.929-6.239 6.495 12.014-9.715-7.991 8.504 8.456-6.279-10.262 10.818 14.593-12.355-8.973 10.294 15.829-13.536-7.683 8.179 5.982-4.655-7.27 8.295 9.694-8.12-4.384 5.324 31.896-22.701-13.208 12.469 8.559-7.626-2.579 4.032 6.136-5.347-5.363 6.779 5.725-5.065-8.61 10.421 16.5-15.127-9.799 10.922 11.396-9.259-10.416 11.247 11.292-9.438-6.341 7.841 10.931-9.696-4.796 5.805 9.642-8.176-2.682 3.191 7.425-5.475-8.868 8.681 5.568-2.979-5.929 6.167 6.291-4.782-4.486 4.816 6.137-4.82-8.456 9.395 5.001-3.858-7.527 7.482 1.752-1.017-6.199 6.296 4.386-2.396-8.603 8.739 7.167-4.961-5.465 5.876 5.567-4.638-6.855 7.614 7.785-6.608-8.457 9.66 37.968-28.467-.102-.804-31.186 23.419 15.909-13.949-14.41 12.088 11.06-12.005-6.135 4.42 8.249-8.625-7.065 5.602 7.27-8.625-3.892 3.057 8.842-9.887-7.632 6.112 6.549-7.151-3.455 2.089 13.458-11.73-9.847 6.827 6.546-6.293-5.363 3.47 8.937-8.403-.001-.008-9.659 6.769 5.309-5.849zM229.076 504.322l-.049-.678-1.899 2.401 1.948-1.723zM222.039 272.921l-11.396 8.928 6.239-6.495-12.014 9.714 7.991-8.504-8.456 6.28 10.262-10.818-14.593 12.357 8.973-10.294-15.831 13.534 7.685-8.178-5.982 4.654 7.27-8.293-9.694 8.12 4.359-5.293.028-.027-.016.011.012-.014-.025.024-32.663 23.424 14-13.217-8.561 7.627 2.58-4.032-6.137 5.347 5.362-6.78-5.723 5.065 8.611-10.419-16.5 15.127 9.797-10.924-11.395 9.259 10.416-11.247-11.292 9.437 6.342-7.839-10.931 9.695 4.796-5.805-9.642 8.176 2.682-3.192-7.425 5.476 8.869-8.682-5.57 2.981 5.932-6.167-6.292 4.782 4.487-4.815-6.137 4.817 8.456-9.394-5.001 3.859 4.648-4.621a90.668 90.668 0 01-4.952-.18l-4.806 5.7 3.894-3.056-8.842 9.886 7.632-6.112-6.548 7.153 3.453-2.09-13.457 11.73 9.849-6.828-6.548 6.293 5.363-3.469-8.973 8.439 9.694-6.795-5.31 5.843 7.734-6.068-4.022 4.788 11.397-8.927-6.239 6.493 12.014-9.714-7.991 8.504 8.456-6.281-10.262 10.818 14.593-12.356-8.973 10.293 15.829-13.534-7.683 8.177 5.982-4.654-7.27 8.293 9.694-8.12-4.384 5.326 31.897-22.704-13.208 12.469 8.559-7.626-2.579 4.032 6.136-5.347-5.363 6.78 5.725-5.065-8.61 10.419 16.5-15.127-9.799 10.924 11.396-9.259-10.416 11.247 11.292-9.437-6.341 7.841 10.931-9.695-4.796 5.804 9.642-8.175-2.682 3.192 7.425-5.476-8.868 8.682 5.568-2.979-5.929 6.167 6.291-4.782-4.486 4.815 6.137-4.817-8.456 9.394 5.001-3.86-7.527 7.482 1.752-1.016-6.199 6.294 4.386-2.395-8.603 8.737 7.167-4.958-5.465 5.874 5.567-4.637-6.855 7.613 7.785-6.607-8.457 9.658 44.459-33.332-15.489 13.581 14.412-12.088-11.062 12.006 6.137-4.419-8.25 8.623 7.065-5.602-7.271 8.624 3.892-3.057-8.842 9.887 7.632-6.113-6.549 7.153 3.456-2.089-13.459 11.73 9.849-6.827-6.548 6.292 5.362-3.469-8.971 8.439 9.692-6.795-5.311 5.844 7.735-6.068-4.022 4.789 11.397-8.927-6.239 6.493 12.013-9.714-7.991 8.505 8.456-6.28-10.261 10.818 14.592-12.357-8.973 10.293 10.989-9.395c.079-.446.169-.956.271-1.522l-1.153 1.057 1.205-1.343c.161-.897.348-1.924.558-3.054l-3.362 2.731 3.571-3.856.375-1.983-4.821 4.03 5.31-6.565.085-.436-9.983 8.855 4.793-5.805-9.642 8.175 2.682-3.191-7.425 5.476 8.869-8.683-5.568 2.98 5.929-6.167-6.289 4.782 4.484-4.815-6.134 4.817 8.456-9.394-5.001 3.86 7.528-7.483-1.753 1.017 6.197-6.294-4.382 2.395 8.601-8.738-7.168 4.959 5.467-5.875-5.57 4.637 6.858-7.614-7.787 6.608 8.457-9.659-44.877 33.699 15.909-13.949-14.41 12.087 11.06-12.005-6.135 4.419 8.249-8.622-7.065 5.601 7.27-8.624-3.892 3.057 8.842-9.887-7.632 6.112 6.549-7.153-3.455 2.089 13.458-11.729-9.847 6.826 6.546-6.292-5.365 3.47 6.186-5.819-.708-.17-6.2 4.347 4.354-4.792a41.427 41.427 0 01-.293-.072l-6.485 5.087 4.02-4.785zM203.639 267.011l-7.27 8.293 9.694-8.121-4.384 5.325 7.279-5.181a86.995 86.995 0 01-.867-.396l-2.106 1.51 1.767-1.667a148.996 148.996 0 01-3.791-1.819l-6.303 6.71 5.981-4.654zM232.856 541.255l-8.25 8.623 7.065-5.599-7.271 8.622 3.892-3.056-8.842 9.886 7.632-6.111-6.549 7.152 3.456-2.088-13.459 11.729 9.849-6.827-6.548 6.294 5.362-3.47-8.971 8.438 9.692-6.796-5.311 5.843 7.735-6.067-4.022 4.788 11.397-8.93-6.239 6.496 12.013-9.716-7.991 8.507 8.456-6.281-10.261 10.817 10.708-9.066a825.745 825.745 0 01-.893-5.499l-1.152 1.022 1.103-1.336-.187-1.181-5.765 4.889 2.682-3.192-7.425 5.476 8.869-8.681-5.568 2.979 5.929-6.167-6.289 4.782 4.484-4.816-6.134 4.82 7.909-8.788-.024-.167-4.43 3.419 4.306-4.28a706.389 706.389 0 01-1.162-8.484l-5.932 6.438 6.136-4.422zM241.939 318.223c-.002.002.05-.307.144-.852l-2.623 2.792 2.477-1.928.002-.012zM241.62 319.866l-3.451 3.937 3.21-2.689c.079-.413.159-.829.241-1.248zM141.008 289.063l3.478-2.758c-.261-.021-.527-.039-.782-.062l-2.696 2.82zM110.309 266.868l-12.336 10.818 12.46-10.451a15.883 15.883 0 01-.124-.367zM195.102 262.456l1.257-1.521-.096-.054c-.021-.051-.062-.098-.089-.147l-1.104.937c.019.265.023.524.032.785zM85.453 271.388l-7.527 7.484 1.753-1.017-6.199 6.294 4.384-2.395-8.601 8.738 7.166-4.959-5.465 5.874 5.57-4.636-6.858 7.614 7.786-6.609-8.456 9.659 41.207-30.895a17.698 17.698 0 01-.201-.732l-34.332 25.78 15.911-13.949-14.412 12.087 11.059-12.006-6.135 4.42 8.249-8.623-7.063 5.601 7.269-8.624-3.892 3.057 4.342-4.854a234.712 234.712 0 01-6.979 2.58l-3.576 3.973 5-3.862z"/></svg>