<svg xmlns="http://www.w3.org/2000/svg" width="272.688" height="337.292" viewBox="305 252 272.688 337.292"><path fill="none" d="M577.644 391.755s-1.436-19.096-2.453-35.293c0 0 1.727-29.647-15.627-56.117 0 0-5.49-6.648-16.627-16.628v.007c-10.504-6.073-25.037-10.142-25.037-10.142-14.746-2.992-32.314-13.173-32.314-13.173-1.451-1.157-7.42-2.221-7.42-2.221h-25.529V252h-20.34v6.188H405.76c-3.471.2-7.035 1.064-7.035 1.064-16.781 10.613-44.547 17.94-44.547 17.94-6.371 2.128-13.498 5.599-13.498 5.599v-.031s-4.535 4.921-9.055 8.376c0 0-21.688 16.197-23.91 59.001l-.293 7.805-.586 6.371s-.184 7.914-.863 14.947c0 0-.293 14.068-.973 15.041 0 0 11.184 10.504 38.379 11.568 0 0 6.756.201 9.934-2.406 0 0-.215-1.928.078-7.035 0 0 .4-4.828.787-8.775 0 0-.865-13.684.678-23.91 0 0-.293-1.449 1.25-1.203 2.9 7.805 3.471 27.334 3.471 27.334 2.313 27.766 5.645 66.529 5.645 66.529 3.471 52.061-7.527 108.178-7.527 108.178a114.528 114.528 0 01-1.588 8.098c1.357 13.111 27.766 14.563 27.766 14.563 50.609 4.242 102.578.586 102.578.586 24.68-.479 32.1-5.492 32.1-5.492 7.143-3.084 8.299-8.576 8.299-8.576.586-1.543-.863-5.213-.863-5.213-5.521-32.131-7.914-56.596-7.914-56.596-2.406-26.223-.477-56.117-.477-56.117 2.313-17.646 4.533-51.676 4.533-51.676 1.451-13.496 2.314-29.602 2.314-29.602.863-7.912 2.992-12 2.992-12 .203-.311.406-.641.609-.986-.174.49-.342.988-.5 1.51 0 0 .262.803.631 3.596 0 0 .371 7.666.51 21.256 0 0 .586 7.234.803 15.117 0 0 .939 2.822 7.018 2.744 0 0 16.846 1.65 38.533-8.9-.002-.001 3.037-2.02 2.605-5.138zm-52.653-28.536l4.628-4.927a49.6 49.6 0 01-1.12 2.198l-3.508 2.729zm5.127-5.99l-13.253 11.331 8.948-10.264-14.552 12.321 10.231-10.788-8.433 6.261 7.97-8.48-11.979 9.688 6.221-6.477-11.364 8.904 4.011-4.774-7.713 6.051 5.296-5.827-9.665 6.775 8.947-8.414-5.348 3.459 6.528-6.274-9.819 6.809 13.419-11.698-3.446 2.085 6.531-7.134-7.608 6.095 8.814-9.859-3.88 3.049 7.25-8.601-7.044 5.586 8.227-8.599-6.12 4.408 11.03-11.974-14.371 12.054 15.582-13.662-37.085 27.424-.129.122 4.37-5.31-9.665 8.098 7.25-8.271-5.965 4.643 7.66-8.156-15.785 13.498 8.946-10.264-14.55 12.321 10.23-10.788-8.433 6.262 7.972-8.48-11.982 9.687 6.221-6.476-11.362 8.903 4.011-4.774-7.713 6.051 5.296-5.827-9.667 6.777 8.947-8.415-5.348 3.459 6.53-6.275-9.819 6.807 13.418-11.695-3.444 2.083 6.53-7.134-7.608 6.095 8.814-9.857-3.88 3.046 7.25-8.599-7.044 5.586 8.227-8.6-6.118 4.407 11.029-11.974-14.372 12.055 15.448-13.544-44.335 33.238 8.433-9.631-7.766 6.591 6.84-7.593-5.553 4.624 5.45-5.859-7.148 4.947 8.577-8.715-4.371 2.389 6.181-6.278-1.747 1.015 7.506-7.463-4.986 3.848 8.432-9.368-6.116 4.804 4.471-4.801-6.271 4.769 5.914-6.15-5.554 2.973 8.844-8.658-7.403 5.461 2.671-3.183-9.614 8.152 4.781-5.788-10.899 9.668 6.324-7.818-11.261 9.41 10.387-11.215-11.363 9.233 9.771-10.894-16.455 15.084 8.588-10.39-5.709 5.051 5.348-6.762-6.117 5.332 2.569-4.021-8.534 7.604 13.192-12.453-31.833 22.659 4.371-5.31-9.667 8.096 7.25-8.269-5.964 4.641 7.661-8.155-15.784 13.497 8.945-10.265-14.551 12.321 10.231-10.788-8.431 6.264 7.97-8.482-11.983 9.69 6.221-6.479-11.362 8.903 4.01-4.774-7.713 6.051 5.295-5.827-9.666 6.777 8.946-8.414-5.348 3.459 6.53-6.274-9.821 6.807 13.421-11.697-3.445 2.083 6.531-7.133-7.611 6.096 8.817-9.858-3.881 3.047 7.25-8.6-7.043 5.585 8.227-8.6-6.118 4.408 11.028-11.973-14.372 12.055 15.392-13.495-37.022 27.38 4.371-5.31-9.667 8.098 7.251-8.269-5.964 4.64 7.661-8.154-15.785 13.496 8.945-10.263-13.113 11.104-.076-.219 8.87-9.353-8.432 6.263 7.97-8.481-9.49 7.673-.109-.465 3.84-3.997-4.034 3.16c-.17-.736-.357-1.564-.56-2.479l7.063-5.209-2.674 3.182 9.615-8.154-4.783 5.79 10.9-9.667-6.324 7.818 11.261-9.411-10.387 11.216 11.362-9.233-9.769 10.892 16.453-15.084-8.586 10.39 5.706-5.051-5.347 6.762 6.118-5.332-2.571 4.021 8.537-7.606-13.93 13.152 39.636-29.382.19-.167-8.433 9.632 7.765-6.59-6.838 7.592 5.552-4.624-5.45 5.858 7.146-4.946-8.576 8.714 4.372-2.39-6.182 6.278 1.747-1.013-7.507 7.462 4.99-3.848-8.432 9.367 6.118-4.804-4.474 4.802 6.273-4.77-5.913 6.15 5.552-2.972-8.843 8.657 7.404-5.458-2.673 3.181 9.614-8.152-4.781 5.79 10.899-9.668-6.323 7.818 11.261-9.412-10.387 11.217 11.362-9.233-9.768 10.891 16.452-15.083-8.586 10.39 5.708-5.052-5.347 6.763 6.118-5.333-2.571 4.021 8.534-7.604-13.958 13.179 32.584-23.367.018-.016-.008.01.008-.006-.015.014-4.357 5.292 9.667-8.098-7.25 8.271 5.963-4.641-7.66 8.156 15.785-13.497-8.946 10.264 14.55-12.322-10.23 10.788 8.433-6.262-7.97 8.482 11.98-9.688-6.221 6.476 11.362-8.902-4.011 4.774 7.715-6.051-5.298 5.827 9.667-6.779-8.945 8.415 5.346-3.458-6.53 6.274 9.821-6.808-13.42 11.697 3.446-2.083-6.53 7.134 7.61-6.097-8.817 9.86 3.881-3.046-7.25 8.599 7.043-5.586-8.226 8.599 6.117-4.407-11.028 11.974 14.372-12.051-15.867 13.911 44.754-33.607-8.433 9.632 7.766-6.59-6.84 7.592 5.553-4.623-5.449 5.857 7.147-4.945-8.577 8.714 4.371-2.389-6.182 6.277 1.748-1.014-7.506 7.463 4.986-3.849-8.432 9.367 6.118-4.802-4.473 4.8 6.273-4.769-5.913 6.152 5.552-2.972-8.843 8.659 7.403-5.462-2.673 3.183 9.614-8.152-4.782 5.789 10.902-9.669-6.326 7.819 11.263-9.411-10.387 11.214 11.362-9.232-9.769 10.893 16.454-15.085-8.587 10.391 5.708-5.051-5.348 6.761 6.119-5.332-2.571 4.021 8.534-7.605-13.8 13.029 39.7-29.427-8.432 9.631 7.764-6.59-6.838 7.593 5.553-4.623-5.45 5.858 7.147-4.946-8.578 8.716 4.371-2.39-6.18 6.278 1.748-1.016-7.509 7.464 4.989-3.848-8.433 9.367 6.117-4.805-4.474 4.8 6.274-4.768-5.916 6.151 5.555-2.973-8.843 8.657 7.403-5.46-2.674 3.183 9.615-8.153-4.78 5.789 10.9-9.667-6.324 7.817 9.633-8.052c-.077.217-.156.434-.234.65l-8.524 9.207 7.309-5.939c-.285.74-.572 1.472-.862 2.188l-4.853 5.412 4.209-3.859a73.005 73.005 0 01-1.029 2.353zm-166.049-19.561l-6.839 7.593 5.552-4.623-5.45 5.857 7.146-4.945-8.577 8.713 4.372-2.387-6.18 6.275 1.748-1.014-3.031 3.014a147.76 147.76 0 01-2.382-4.964l1.246-1.302-1.386.998c-.173-.381-.347-.769-.521-1.163l6.817-7.401-7.354 6.169-.084-.194 10.162-8.911-10.611 7.852-.253-.605 16.294-12.001-8.433 9.633 7.764-6.594zm-10.896 19.199l.148-.115-.132.147-.016-.032zm10.896-59.941l-6.839 7.592 5.552-4.624-5.45 5.857 7.146-4.944-8.577 8.713 4.372-2.388-6.18 6.277 1.748-1.015-7.507 7.463 4.987-3.848-8.433 9.367 6.118-4.803-4.473 4.801 6.271-4.768-5.913 6.148 5.552-2.972-8.518 8.34c-.357-1.617-.758-3.49-1.174-5.542l.074-.064-.077.047-.27-1.345 3.434-3.75-3.603 2.886c-.067-.345-.135-.694-.201-1.046l5.01-5.603-3.879 3.048 7.25-8.6-7.045 5.586 8.228-8.6-6.12 4.407 11.03-11.973-14.371 12.054 14.914-13.079-16.85 11.923-.115-.807 24.575-17.783-8.433 9.632 7.767-6.587zm167.726-18.307l-1.906 2.069 2.284-1.916.355.147-4.11 3.604 4.55-3.421c.243.102.487.205.732.31l-11.961 8.967 8.433-9.633-7.763 6.59 6.838-7.592-5.554 4.624 4.72-5.072c1.091.411 2.226.853 3.382 1.323zm-3.643-1.422l-6.153 4.259 4.712-4.789c.47.171.95.347 1.441.53zm-53.074-18.823l-1.697 1.688 2.188-1.688h.854l-6.486 7.206 6.118-4.803-4.473 4.801 6.273-4.768-5.913 6.149 5.553-2.973-8.844 8.659 7.403-5.461-2.673 3.183 9.614-8.153-4.781 5.789 7.941-7.043.576.321-3.942 4.873 5.085-4.25c.287.154.603.323.935.499l-5.144 5.555 6.172-5.015.962.497-5.54 6.177 6.311-5.786c.551.279 1.133.569 1.74.867l-.185.224.229-.202c.386.189.781.382 1.187.577l-1.056 1.335 1.362-1.188c.547.262 1.112.528 1.691.797l-4.93 4.654 5.88-4.216c.292.133.587.267.886.401l-11.06 7.872 4.372-5.311-9.667 8.099 7.25-8.27-5.965 4.64 7.662-8.156-15.787 13.497 8.948-10.264-14.552 12.32 10.232-10.787-8.433 6.263 7.97-8.482-11.98 9.688 6.221-6.476-11.364 8.902 4.011-4.773-7.713 6.05 5.298-5.827-9.667 6.776 8.948-8.414-5.348 3.458 6.527-6.275-9.819 6.808 13.42-11.697-3.443 2.084 6.529-7.134-7.61 6.097 8.403-9.397h3.321zm-3.496 0l-3.293 2.585 2.179-2.585h1.114zm-40.024 0l-1.301 1.353 2.528-1.353h1.372l-7.189 7.04 7.404-5.461-2.674 3.182 5.616-4.76h1.198l-1.979 2.397 2.701-2.397h2.317l-.442.547.654-.547h2.397l-2.179 2.354 2.895-2.354h2.298l-3.599 4.012 4.376-4.012h4.662l-.813 1.028 1.18-1.028h2.55l-9.9 9.346 4.371-5.311-9.665 8.099 7.248-8.27-5.963 4.641 7.66-8.154-15.781 13.495 8.945-10.264-14.551 12.321 10.231-10.788-8.434 6.262 7.97-8.48-11.979 9.687 6.222-6.476-11.363 8.903 4.009-4.775-7.713 6.052 5.295-5.827-9.665 6.776 8.946-8.415-5.348 3.458 6.529-6.274-9.82 6.808 13.421-11.698-3.445 2.083 2.93-3.201h5.878zm-7.186 0l-2.701 2.163 1.936-2.163h.765zm-48.969 12.132l-1.576 1.722 2.668-2.137c.711-.272 1.427-.55 2.147-.834l-6.022 6.734 3.881-3.048-7.249 8.6 7.044-5.586-8.226 8.599 6.117-4.408-11.028 11.974 14.372-12.054-15.867 13.911 44.752-33.605-8.433 9.631 7.765-6.589-6.838 7.593 5.552-4.623-5.45 5.856 7.146-4.944-8.576 8.713 4.372-2.389-6.182 6.278 1.748-1.014-7.508 7.462 4.988-3.85-8.432 9.368 6.119-4.803-4.474 4.801 6.272-4.769-5.913 6.15 5.552-2.972-8.843 8.658 7.405-5.461-2.674 3.183 9.615-8.153-4.782 5.789 10.899-9.668-6.323 7.819 11.261-9.411-10.387 11.215 11.362-9.233-9.768 10.894 16.452-15.085-8.584 10.39 5.706-5.051-5.347 6.762 6.118-5.333-2.571 4.021 8.537-7.603-13.8 13.026 39.698-29.428-8.433 9.632 7.766-6.589-6.84 7.592 5.554-4.624-5.45 5.856 7.147-4.945-8.577 8.714 4.372-2.389-6.18 6.276 1.747-1.014-7.506 7.462 4.986-3.848-8.432 9.368 6.117-4.804-4.474 4.802 6.273-4.769-5.913 6.15 5.555-2.973-8.844 8.658 7.404-5.461-2.674 3.183 9.615-8.153-4.782 5.789 10.901-9.667-6.325 7.818 11.261-9.411-10.387 11.216 11.362-9.233-9.77 10.894 16.454-15.085-8.586 10.39 5.707-5.051-5.348 6.762 6.118-5.333-2.569 4.021 8.534-7.606-13.961 13.18 32.571-23.358.028-.027-.013.016.016-.011-.029.028-4.345 5.277 9.667-8.098-7.25 8.271 5.965-4.642-7.66 8.155 15.783-13.497-8.947 10.265 14.553-12.322-10.233 10.789 8.434-6.263-7.97 8.482 11.979-9.688-6.222 6.476 11.366-8.902-4.012 4.774 7.713-6.051-5.295 5.828 9.521-6.675.029.007-8.832 8.306 5.348-3.46-6.527 6.275 9.818-6.807-13.419 11.697 3.443-2.085-6.529 7.134 7.61-6.096-8.818 9.859 3.881-3.047-7.249 8.6 7.045-5.586-8.227 8.599 6.117-4.407-11.027 11.973 14.37-12.054-15.865 13.911 44.752-33.605-8.433 9.632 7.766-6.591-6.84 7.593 5.555-4.623-5.453 5.856 7.148-4.944-8.576 8.714 4.369-2.388-6.18 6.276 1.748-1.013-7.507 7.462 4.987-3.85-8.433 9.368 6.117-4.803-4.472 4.801 6.272-4.768-5.914 6.149 5.553-2.973-8.844 8.659 7.404-5.461-2.672 3.182 9.615-8.152-4.783 5.789 10.903-9.668-6.327 7.819 11.261-9.41-10.387 11.216 11.363-9.233-9.768 10.894 15.937-14.609-.005.158-8.064 9.756 5.707-5.051-5.348 6.763 6.116-5.334-2.569 4.021 3.834-3.416-.011.156-9.215 8.802 9.067-6.741c-.025.327-.05.654-.077.981l-13.315 9.846 4.37-5.31-9.665 8.098 7.247-8.271-5.963 4.642 7.661-8.155-15.787 13.497 8.947-10.264-14.551 12.322 10.231-10.788-8.432 6.263 7.969-8.481-11.98 9.687 6.222-6.475-11.364 8.902 4.011-4.775-7.713 6.051 5.296-5.828-9.665 6.777 8.945-8.416-5.348 3.46 6.53-6.275-9.822 6.807 13.423-11.697-3.447 2.083 6.531-7.133-7.61 6.096 8.816-9.858-3.881 3.047 7.251-8.6-7.044 5.586 8.227-8.599-6.12 4.408 11.03-11.973-14.371 12.055 15.445-13.544-44.335 33.239 8.434-9.631-7.764 6.59 6.839-7.593-5.554 4.625 5.449-5.858-7.146 4.945 8.577-8.713-4.372 2.388 6.18-6.277-1.747 1.014 7.508-7.463-4.988 3.85 8.432-9.367-6.117 4.803 4.474-4.801-6.273 4.768 5.913-6.15-5.553 2.973 8.844-8.659-7.404 5.461 2.674-3.183-9.615 8.151 4.782-5.788-10.899 9.668 6.323-7.819-11.261 9.41 10.387-11.215-11.362 9.233 9.77-10.894-16.454 15.085 8.586-10.39-5.707 5.051 5.348-6.762-6.118 5.333 2.569-4.021-8.534 7.605 13.175-12.438-31.813 22.643 4.371-5.31-9.665 8.098 7.248-8.271-5.963 4.642 7.66-8.155-15.777 13.493 8.945-10.264-14.551 12.322 10.231-10.789-8.434 6.264 7.97-8.48-11.979 9.688 6.222-6.476-11.363 8.903 4.009-4.774-7.713 6.051 5.295-5.827-9.665 6.775 8.946-8.416-5.348 3.46 6.529-6.276-9.82 6.808 13.421-11.697-3.445 2.083 6.529-7.134-7.61 6.096 8.818-9.859-3.881 3.046 7.249-8.6-7.042 5.586 8.225-8.601-6.118 4.408 11.029-11.975-14.372 12.054 15.585-13.661-37.088 27.425-.127.121 4.371-5.309-9.665 8.097 7.25-8.27-5.966 4.64 7.66-8.153-15.783 13.495 8.947-10.264-14.552 12.323 10.232-10.789-8.433 6.263 7.97-8.482-11.98 9.689 6.222-6.477-11.362 8.903 4.01-4.774-7.712 6.051 5.295-5.826-9.667 6.776 8.947-8.414-5.348 3.458 6.53-6.274-9.821 6.807 13.419-11.696-3.444 2.083 6.53-7.134-7.609 6.097 8.816-9.859-3.881 3.047 7.251-8.599-7.044 5.585 8.228-8.599-6.12 4.407 11.029-11.973-14.371 12.055 15.446-13.544-44.335 33.24 8.432-9.634-7.762 6.592 6.838-7.592-5.552 4.623 5.448-5.857-7.146 4.945 8.576-8.714-4.371 2.388 6.182-6.276-1.749 1.014 7.507-7.463-4.986 3.85 5.225-5.804c1.223-.436 2.476-.893 3.754-1.374zm-6.158 2.215l-.508.398.307-.329.201-.069zm-12.565 91.108l1.268-1.075-1.167 1.412c-.033-.116-.068-.225-.101-.337zm2.116 12.364l5.424-6.185-5.622 4.375a2.584 2.584 0 00-.011-.087l7.33-7.803-7.5 6.414c-.091-.704-.188-1.402-.29-2.09l.95-1.09-.988.837c-.298-1.962-.646-3.828-1.057-5.453l7.032-6.237-6.324 7.819 11.261-9.411-10.387 11.217 11.362-9.234-9.769 10.894 16.453-15.083-8.586 10.389 5.706-5.051-5.347 6.76 6.118-5.332-2.571 4.021 8.536-7.605-13.96 13.179 32.598-23.378.003-.003-.001.002.002-.002-.004.004-4.368 5.306 9.665-8.096-7.247 8.268 5.963-4.64-7.661 8.154 15.785-13.496-8.945 10.265 14.549-12.321-10.229 10.788 8.432-6.262-7.969 8.48 11.98-9.689-6.222 6.477 11.362-8.902-4.009 4.772 7.713-6.051-5.298 5.827 9.663-6.777-8.947 8.415 5.348-3.46-6.53 6.274 9.819-6.807-13.419 11.698 3.445-2.084-6.53 7.133 7.61-6.097-8.816 9.859 3.88-3.046-7.25 8.599 7.044-5.587-8.227 8.599 6.117-4.408-11.027 11.974 14.371-12.054-15.866 13.91 44.753-33.605-8.432 9.631 7.763-6.588-6.839 7.591 5.555-4.623-5.451 5.857 7.148-4.947-8.579 8.715 4.373-2.389-6.181 6.278 1.748-1.015-7.507 7.464 4.987-3.848-8.433 9.367 6.119-4.803-4.474 4.8 6.273-4.768-5.913 6.149 5.553-2.971-8.844 8.657 7.404-5.46-2.674 3.183 9.615-8.153-4.782 5.791 10.901-9.669-6.326 7.819 11.264-9.411-10.387 11.217 11.362-9.234-9.771 10.892 16.454-15.083-8.587 10.391 5.708-5.051-5.348 6.761 6.12-5.332-2.572 4.021 8.535-7.605-13.8 13.031 39.7-29.428-8.433 9.631 7.764-6.589-6.84 7.591 5.555-4.623-5.45 5.857 7.147-4.945-8.578 8.713 4.371-2.387-6.179 6.276 1.747-1.012-7.508 7.462 4.988-3.849-8.432 9.367 6.116-4.803-4.474 4.8 6.274-4.768-5.913 6.149 5.553-2.973-8.845 8.659 7.404-5.46-2.673 3.183 9.615-8.153-4.781 5.789 10.9-9.667-6.324 7.818 11.26-9.412-10.387 11.217 11.364-9.232-9.769 10.892 16.455-15.085-8.588 10.391 5.707-5.051-5.348 6.761 6.119-5.332-2.572 4.021 8.537-7.604-13.96 13.179 32.601-23.38-5.051 4.769-31.844 22.664 4.372-5.31-9.667 8.095 7.25-8.268-5.965 4.641 7.66-8.154-15.785 13.496 8.948-10.265-14.552 12.323 10.232-10.79-8.433 6.264 7.97-8.483-11.98 9.689 6.221-6.479-11.364 8.906 4.012-4.774-7.714 6.049 5.296-5.827-9.665 6.777 8.947-8.415-5.348 3.46 6.528-6.276-9.819 6.809 13.42-11.698-3.444 2.083 6.53-7.131-7.61 6.095 8.816-9.857-3.882 3.046 7.252-8.601-7.046 5.586 8.229-8.599-6.119 4.408 11.03-11.975-14.372 12.055 15.583-13.662-37.086 27.426-.129.12 4.371-5.308-9.666 8.096 7.25-8.271-5.965 4.642 7.66-8.153-15.784 13.495 8.948-10.264-14.553 12.321 10.232-10.788-8.435 6.264 7.972-8.482-11.979 9.689 6.219-6.476-11.362 8.901 4.011-4.772-7.713 6.049 5.295-5.827-9.667 6.777 8.947-8.414-5.347 3.459 6.528-6.273-9.819 6.807 13.419-11.695-3.446 2.083 6.53-7.133-7.608 6.095 8.815-9.86-3.88 3.049 7.251-8.601-7.045 5.586 8.227-8.599-6.118 4.407 11.028-11.974-14.37 12.054 15.446-13.543-44.334 33.239 8.434-9.634-7.766 6.591 6.84-7.592-5.555 4.624 5.453-5.858-7.148 4.946 8.576-8.715-4.371 2.389 6.182-6.278-1.748 1.015 7.507-7.462-4.987 3.849 8.433-9.369-6.117 4.804 4.472-4.802-6.272 4.77 5.914-6.149-5.555 2.971 8.846-8.657-7.404 5.46 2.672-3.183-9.615 8.154 4.782-5.789-10.9 9.669 6.325-7.819-11.259 9.41 10.387-11.216-11.365 9.234 9.77-10.894-16.454 15.085 8.587-10.389-5.707 5.051 5.348-6.763-6.119 5.331 2.572-4.021-8.536 7.607 13.194-12.458-31.834 22.658 4.371-5.308-7.787 6.522c-.011-.171-.029-.341-.047-.512zm.483 5.512l3.492-2.924-3.423 3.904c-.021-.321-.045-.647-.069-.98zm.156 2.299l2.051-1.596-2.018 2.147-.033-.551zm2.375 30.656l1.629-1.861-1.667 1.416-.123-1.455.866-.962-.886.737-.088-1.037.87-.935-.896.621-.157-1.864 2.484-2.525-2.579 1.41a185.68 185.68 0 00-.065-.773l4.455-4.522-1.749 1.014 7.507-7.464-4.986 3.849 8.433-9.367-6.12 4.802 4.475-4.8-6.272 4.768 5.913-6.149-5.553 2.973 8.842-8.659-7.404 5.46 2.674-3.183-9.615 8.154 4.782-5.788-6.486 5.753-.117-1.398 2.026-2.505-2.09 1.747-.172-2.054 1.388-1.498-1.411 1.146c-.013-.396-.064-1.888-.182-4.023l10.076-8.614-8.946 10.264 14.551-12.323-10.233 10.79 8.434-6.264-7.971 8.482 11.98-9.689-6.22 6.476 11.362-8.904-4.011 4.774 7.713-6.049-5.295 5.827 9.666-6.783-8.946 8.417 5.348-3.46-6.53 6.274 9.821-6.807-13.419 11.697 3.445-2.085-6.531 7.134 7.609-6.095-8.817 9.857 3.883-3.046-7.251 8.601 7.044-5.586-8.226 8.599 6.119-4.408-11.03 11.974 14.372-12.054-15.578 13.659a328.78 328.78 0 01-.145-1.686zm.318 3.766l2.609-1.921-2.527 2.886-.082-.965zm.22 2.58l1.721-1.461-1.687 1.872c-.01-.137-.022-.273-.034-.411zm.149 1.746l.285-.238-.28.301a1.336 1.336 0 01-.005-.063zm.164 1.934l1.817-1.258-1.771 1.8-.046-.542zm1.372 16.094l.032-.028-.031.039-.001-.011zm.201 2.362l4.768-3.984-4.676 5.05-.092-1.066zm.214 2.493l5.529-4.494-5.398 6.021-.131-1.527zm1.551 36.782l3.003-2.51-3.012 3.253.009-.743zm-.044 2.742l4.022-3.269-4.05 4.516.028-1.247zm-.756 18.303l4.411-3.771-4.498 5.161.087-1.39zm-3.12 33.116c.08-.638.16-1.284.239-1.938l.197-.219-.189.157c.163-1.338.325-2.709.485-4.112l1.031-1.048-.973.531c.067-.594.134-1.193.2-1.798l2.583-2.623-1.749 1.015 7.507-7.462-4.986 3.849 8.433-9.369-6.12 4.805 4.475-4.802-6.272 4.768 5.913-6.149-5.553 2.973 8.842-8.659-7.404 5.46 2.674-3.181-7.036 5.965c.029-.346.059-.692.087-1.041l2.116-2.562-2.056 1.823c.178-2.192.344-4.426.497-6.693l10.195-8.635-10.233 10.789 8.434-6.263-7.971 8.48 11.98-9.688-6.22 6.476 11.362-8.901-4.011 4.774 7.713-6.053-5.295 5.829 9.666-6.781-8.946 8.414 5.348-3.457-6.53 6.273 9.821-6.808-13.419 11.696 3.445-2.083-6.531 7.135 7.609-6.099-8.817 9.86 3.883-3.047-7.251 8.599 7.044-5.586-8.226 8.599 6.119-4.407-11.03 11.974 14.372-12.054-15.779 13.835c.09-.689.18-1.387.27-2.098l1.418-1.62-1.361 1.157zm-.648 4.98l3.307-2.436-3.522 4.023.215-1.587zm-.443 3.223l3.081-2.615-3.216 3.57.135-.955zm-.299 2.094l2.093-1.743-2.181 2.344.088-.601zm-.293 1.995l4.082-2.825-4.316 4.386.234-1.561zm-.571 3.746l.448-.245-.487.495.039-.25zm-2.63 15.271l.753-.639-.822.996.069-.357zm5.867 13.448l1.672-1.466-1.417 1.618c-.087-.048-.169-.101-.255-.152zm82.659 7.506l.057-.062-.089.062c-.75.008-1.507.014-2.271.02l3.788-3.85-4.371 2.387 6.181-6.275-1.747 1.015 7.506-7.465-4.986 3.849 8.432-9.366-6.116 4.805 4.471-4.803-6.271 4.771 5.914-6.149-5.554 2.971 8.844-8.657-7.403 5.46 2.671-3.181-9.614 8.151 4.781-5.789-10.899 9.667 6.324-7.816-11.261 9.41 10.387-11.216-11.363 9.234 9.771-10.895-16.455 15.085 8.588-10.391-5.709 5.051 5.348-6.761-6.117 5.332 2.569-4.021-8.534 7.606 13.2-12.463-31.841 22.663 4.371-5.31-7.251 6.074-.614-.032 5.448-6.214-5.964 4.64 7.661-8.154-11.116 9.505-1.13-.068 5.407-6.205-7.193 6.092c-.453-.029-.907-.061-1.36-.091l4.234-4.465-5.861 4.353-.728-.053 6.128-6.521-7.902 6.392-.848-.065 2.99-3.113-3.886 3.045c-.789-.063-1.576-.126-2.364-.192 0 0-2.259-.127-5.479-.628l2.421-2.326-3.181 2.204a66.923 66.923 0 01-1.132-.198l7.912-6.896-3.445 2.084 6.531-7.134-7.611 6.098 8.817-9.86-3.881 3.047 7.25-8.599-7.043 5.587 8.227-8.6-6.118 4.408 11.028-11.974-14.372 12.054 15.392-13.496-37.022 27.38 4.371-5.309-5.983 5.012c-.192-.154-.385-.308-.567-.469l4.135-4.716-4.999 3.891c-.044-.046-.083-.095-.127-.142l6.823-7.263-7.531 6.44a11.076 11.076 0 01-.912-1.369l1.604-1.84-1.791 1.517a9.588 9.588 0 01-1.031-3.439s.233-.966.553-2.493l7.257-6.436-6.324 7.818 11.261-9.41-10.387 11.216 11.362-9.233-9.769 10.894 16.453-15.085-8.586 10.391 5.706-5.052-5.347 6.762 6.118-5.332-2.571 4.021 8.537-7.604-13.93 13.15 39.636-29.379.19-.17-8.433 9.635 7.765-6.592-6.838 7.593 5.552-4.623-5.45 5.858 7.146-4.945-8.576 8.713 4.372-2.389-6.182 6.278 1.747-1.015-7.507 7.462 4.988-3.849-8.432 9.366 6.118-4.804-4.474 4.802 6.273-4.768-5.913 6.149 5.552-2.973-8.843 8.658 7.404-5.459-2.673 3.183 9.614-8.154-4.781 5.789 10.899-9.667-6.323 7.818 11.261-9.409-10.387 11.214 11.362-9.232-9.768 10.895 16.452-15.085-8.586 10.389 5.708-5.052-5.347 6.764 6.118-5.334-2.571 4.022 8.534-7.606-13.958 13.18 32.593-23.375.009-.008-.004.005.004-.003-.007.007-4.365 5.302 9.667-8.098-7.25 8.27 5.963-4.643-7.66 8.157 15.785-13.496-8.946 10.262 14.55-12.32-10.23 10.787 8.433-6.261-7.97 8.48 11.98-9.69-6.221 6.478 11.362-8.902-4.011 4.774 7.715-6.052-5.298 5.827 9.665-6.778-8.945 8.414 5.345-3.459-6.529 6.273 9.821-6.808-13.42 11.698 3.446-2.085-6.53 7.134 7.61-6.096-8.816 9.86 3.88-3.049-7.25 8.601 7.044-5.586-8.227 8.601 6.118-4.407-7.186 7.8c-1.515.02-3.067.039-4.646.055zm5.804-.078l9.37-7.86-8.956 7.854-.414.006zm17.742-.483l2.904-3.248-3.881 3.047 7.25-8.602-7.043 5.587 8.226-8.6-6.117 4.408 11.027-11.973-14.371 12.055 15.448-13.546-28.414 21.304c-.387.008-.779.016-1.171.022l36.658-27.525-8.433 9.631 7.766-6.591-6.84 7.593 5.553-4.623-5.449 5.858 7.147-4.947-8.577 8.715 4.371-2.389-6.182 6.278 1.748-1.015-7.506 7.462 4.986-3.851-4.274 4.751a747.34 747.34 0 01-4.826.199zm6.657-.281l.131-.103-.095.102-.036.001zm10.99-.591l2.201-1.953-1.566 1.937-.635.016zm3.007-.094l4.13-3.451-3.161 3.413c-.316.015-.645.025-.969.038zm3.516-.176l1.591-1.293-1.133 1.263-.458.03zm2.484-.176l5.791-5.309-4.282 5.181c-.492.045-.995.087-1.509.128zm8.334-.954l1.313-1.169-1.225 1.156a2.323 2.323 0 01-.088.013zm22.438-12.628s-.068.307-.255.802l-3.405 3.891 2.587-2.195c-1.089 1.848-3.208 4.333-7.211 6.063 0 0-.277.186-.894.488l5.802-6.299-9.042 7.584-.369.121 10.622-9.313-13.807 10.212c-.561.139-1.163.277-1.795.414l17.876-13.252c.056.568.039 1.095-.109 1.484zm-.487-4.129l-2.499 2.094 2.316-2.643c.055.157.117.342.183.549zm-.542-2.059l-.673.523.645-.687.028.164zm-.247-1.445l-8.553 7.311 8.201-9.406.352 2.095zm-3.154-19.986l-1.436 1.458 1.521-.883.012.082-7.293 7.248 4.989-3.848-8.433 9.368 6.117-4.805-4.474 4.801 6.274-4.769-5.913 6.151 5.552-2.973-8.843 8.657 7.403-5.46-2.674 3.184 8.833-7.491.038.237-4.036 4.888 4.219-3.742c.293 1.83.598 3.693.913 5.589l-13.772 11.661 10.231-10.788-8.433 6.262 7.97-8.48-11.979 9.689 6.221-6.479-11.364 8.904 4.011-4.775-7.713 6.052 5.296-5.826-9.665 6.774 8.947-8.413-5.348 3.46 6.528-6.275-9.819 6.807 13.419-11.697-3.446 2.085 6.531-7.135-7.608 6.096 8.811-9.859-3.881 3.047 7.251-8.599-7.044 5.584 8.227-8.599-6.12 4.407 8.841-9.596a894.67 894.67 0 001.139 8.001zm-1.207-8.484l-12.114 10.162L521 536.865l.056.412zm-.11-.803l-40.894 30.66 8.434-9.634-7.764 6.592 6.839-7.593-5.554 4.623 5.449-5.857-7.146 4.946 8.577-8.715-4.372 2.389 6.18-6.278-1.747 1.015 7.508-7.462-4.988 3.849 8.432-9.368-6.117 4.804 4.474-4.8-6.273 4.768 5.913-6.149-5.553 2.971 8.844-8.657-7.404 5.46 2.674-3.183-9.615 8.153 4.782-5.789-10.899 9.67 6.323-7.819-11.261 9.41 10.387-11.214-11.362 9.232 9.77-10.893-16.454 15.084 8.586-10.389-5.707 5.05 5.348-6.762-6.118 5.334 2.569-4.021-8.534 7.604 13.177-12.44-31.815 22.643 4.371-5.31-9.665 8.098 7.248-8.27-5.963 4.64 7.66-8.153-15.786 13.494 8.945-10.264-14.553 12.322 10.233-10.787-8.434 6.261 7.97-8.48-11.979 9.688 6.222-6.478-11.366 8.902 4.012-4.772-7.713 6.051 5.295-5.826-9.665 6.774 8.946-8.413-5.348 3.458 6.529-6.273-9.82 6.808 13.421-11.698-3.445 2.085 6.529-7.135-7.61 6.097 8.818-9.86-3.881 3.049 7.249-8.601-7.042 5.586 8.225-8.599-6.118 4.407 11.029-11.974-14.372 12.054 15.585-13.662-37.088 27.427-.127.12 4.371-5.31-9.666 8.1 7.251-8.27-5.966 4.64 7.66-8.154-15.783 13.496 8.947-10.263-14.552 12.321 10.232-10.788-8.433 6.262 7.97-8.48-11.98 9.687 6.222-6.476-11.362 8.904 4.01-4.775-7.712 6.051 5.295-5.825-9.667 6.776 8.947-8.415-5.348 3.46 6.53-6.273-9.821 6.807 13.419-11.697-3.444 2.084 6.53-7.134-7.609 6.098 8.815-9.859-3.88 3.047 7.251-8.599-7.044 5.586 8.228-8.602-6.12 4.408 11.029-11.973-14.371 12.055 15.446-13.546-37.715 28.275.123-.938 44.667-33.542-8.433 9.634 7.763-6.592-6.838 7.591 5.554-4.621-5.452 5.855 7.147-4.944-8.576 8.713 4.372-2.387-6.183 6.275 1.748-1.012-7.507 7.462 4.987-3.848-8.433 9.365 6.12-4.802-4.475 4.8 6.272-4.768-5.913 6.149 5.554-2.973-8.844 8.659 7.405-5.46-2.675 3.181 9.615-8.152-4.782 5.789 10.901-9.667-6.323 7.816 11.259-9.408-10.387 11.215 11.364-9.232-9.769 10.893 16.453-15.085-8.586 10.391 5.708-5.052-5.348 6.761 6.117-5.331-2.569 4.021 8.535-7.604L408.4 542.27l39.701-29.427-8.434 9.632 7.766-6.591-6.839 7.593 5.552-4.622-5.449 5.858 7.147-4.947-8.577 8.716 4.372-2.389-6.182 6.277 1.747-1.015-7.506 7.463 4.986-3.849-8.432 9.368 6.119-4.805-4.474 4.801 6.273-4.769-5.913 6.152 5.553-2.974-8.844 8.657 7.404-5.46-2.672 3.184 9.613-8.152-4.78 5.788 10.899-9.668-6.323 7.818 11.261-9.41-10.388 11.214 11.363-9.231-9.771 10.892 16.454-15.085-8.586 10.391 5.707-5.052-5.348 6.762 6.12-5.332-2.571 4.021 8.534-7.604-13.958 13.179 32.581-23.366.016-.015-.007.009.012-.009-.021.021-4.354 5.289 9.667-8.098-7.25 8.271 5.965-4.641-7.66 8.154 15.783-13.496-8.947 10.265 14.553-12.323-10.233 10.788 8.434-6.262-7.97 8.48 11.979-9.689-6.222 6.478 11.366-8.903-4.012 4.774 7.713-6.051-5.295 5.827 9.672-6.775-8.946 8.414 5.348-3.459-6.531 6.273 9.822-6.809-13.422 11.697 3.446-2.084-6.531 7.134 7.61-6.096-8.816 9.86 3.88-3.05-7.249 8.602 7.043-5.586-8.227 8.599 6.12-4.408-11.03 11.974 14.371-12.054-15.866 13.91 34.12-25.621c.038.265.074.528.11.796zm-3.103-25.813l-.367.307.359-.389.008.082zm-.213-2.593l-1.13.918 1.106-1.234c.009.105.017.21.024.316zm-.14-1.93l-7.676 7.038 7.539-9.122c.043.696.089 1.391.137 2.084zm-.156-2.407l-4.641 4.107 4.546-5.749c.03.547.062 1.095.095 1.642zm-.112-1.941l-5.302 4.618 2.571-4.021-8.534 7.604 11.149-10.527c.037.775.075 1.549.116 2.326zm-.136-2.79l-29.774 21.19 4.37-5.309-9.665 8.1 7.25-8.271-5.965 4.64 7.66-8.153-15.785 13.496 8.946-10.263-14.55 12.321 10.23-10.788-8.433 6.264 7.972-8.482-11.982 9.688 6.222-6.476-11.363 8.902 4.012-4.774-7.714 6.05 5.296-5.826-9.667 6.777 8.947-8.416-5.348 3.459 6.53-6.273-9.819 6.807 13.418-11.697-3.444 2.084 6.53-7.134-7.608 6.096 8.815-9.858-3.881 3.047 7.25-8.599-7.044 5.586 8.227-8.599-6.117 4.408 11.028-11.974-14.372 12.054 15.583-13.662-37.086 27.426-.129.12 4.373-5.309-9.668 8.097 7.25-8.27-5.965 4.64 7.662-8.153-15.786 13.495 8.948-10.263-14.553 12.321 10.232-10.788-8.433 6.263 7.97-8.483-11.979 9.689 6.221-6.476-11.364 8.903 4.011-4.775-7.714 6.052 5.297-5.826-9.668 6.777 8.947-8.416-5.348 3.461 6.531-6.276-9.822 6.807 13.422-11.695-3.446 2.083 6.53-7.134-7.609 6.097 8.816-9.859-3.88 3.047 7.249-8.599-7.043 5.584 8.227-8.599-6.12 4.407 11.03-11.975-14.372 12.055L441.02 478.3l-44.334 33.24 8.432-9.631-7.766 6.589 6.84-7.593-5.553 4.624 5.45-5.856-7.146 4.944 8.577-8.713-4.371 2.389 6.18-6.277-1.746 1.014 7.507-7.464-4.987 3.851 8.433-9.368-6.119 4.805 4.474-4.803-6.274 4.771 5.914-6.152-5.553 2.974 8.843-8.657-7.403 5.46 2.674-3.184-9.615 8.153 4.782-5.788-10.901 9.667 6.326-7.819-11.261 9.411 10.387-11.214-11.363 9.231 9.769-10.894-16.453 15.085 8.586-10.389-5.708 5.051 5.348-6.763-6.117 5.332 2.57-4.021-8.535 7.606 13.188-12.45-28.481 20.271c.026-.59.051-1.181.075-1.773l.95-1.154-.936.783c.059-1.459.109-2.927.153-4.402l.063-.067-.063.054c.017-.535.032-1.07.046-1.607l10.762-9.867-8.586 10.391 5.706-5.052-5.347 6.762 6.118-5.332-2.571 4.021 8.536-7.604-13.96 13.178 32.594-23.375.006-.006-.003.004.005-.004-.009.008-4.365 5.3 9.667-8.095-7.249 8.268 5.965-4.641-7.661 8.154 15.785-13.496-8.945 10.265 14.549-12.32-10.229 10.787 8.432-6.264-7.969 8.48 11.98-9.688-6.222 6.476 11.362-8.902-4.009 4.774 7.713-6.05-5.298 5.825 9.661-6.781-8.945 8.415 5.346-3.46-6.53 6.273 9.821-6.807-13.419 11.695 3.445-2.082-6.53 7.134 7.608-6.096-8.814 9.857 3.878-3.047-7.25 8.6 7.046-5.585-8.229 8.6 6.119-4.408-11.029 11.972 14.371-12.054-15.864 13.91 44.751-33.605-8.432 9.634 7.765-6.592-6.839 7.594 5.552-4.624-5.45 5.858 7.147-4.947-8.576 8.716 4.371-2.39-6.179 6.278 1.748-1.015-7.509 7.462 4.989-3.848-8.433 9.368 6.117-4.805-4.475 4.803 6.275-4.771-5.914 6.151 5.555-2.973-8.844 8.657 7.404-5.46-2.674 3.186 9.615-8.154-4.782 5.789 10.899-9.669-6.324 7.818 11.261-9.41-10.387 11.216 11.363-9.232-9.77 10.893 16.454-15.083-8.587 10.389 5.708-5.052-5.348 6.764 6.118-5.334-2.57 4.021 8.535-7.604-13.802 13.031 39.7-29.43-8.433 9.634 7.766-6.591-6.84 7.593 5.553-4.624-5.45 5.856 7.147-4.944-8.576 8.713 4.371-2.387-6.181 6.277 1.747-1.014-7.506 7.462 4.986-3.849-8.433 9.368 6.119-4.805-4.474 4.803 6.274-4.769-5.913 6.15 5.553-2.974-8.845 8.657 7.404-5.457-2.673 3.181 9.615-8.151-4.783 5.787 10.902-9.666-6.326 7.816 11.262-9.41-10.387 11.217 11.364-9.234-9.771 10.895 16.455-15.086-8.588 10.389 5.707-5.051-5.346 6.763 6.118-5.332-2.571 4.021 8.535-7.606-13.96 13.18 25.437-18.242c.021.366.035.733.051 1.101zm-.308-10.431l-5.517 4.672 5.5-5.8.017 1.128zm-.032-2.592l-3.686 2.737 3.674-3.91.012 1.173zm.127-15.979l-1.806 1.794 1.796-1.385c-.009.366-.018.736-.025 1.112l-5.214 5.791 5.18-4.066-.005.275-3.531 3.788 3.513-2.669-.011.784-3.144 3.267 3.124-1.672-.011 1.09-6.401 6.269 6.393-4.714-.003.461-1.66 1.976 1.659-1.407c-.002.99-.001 1.998.003 3.02l-7.679 6.211 6.221-6.477-11.364 8.904 4.011-4.775-7.713 6.052 5.296-5.828-9.665 6.776 8.947-8.415-5.348 3.46 6.528-6.275-9.819 6.807 13.419-11.695-3.446 2.083 6.531-7.135-7.608 6.098 8.814-9.859-3.88 3.047 7.073-8.389a435.086 435.086 0 00-.175 5.696zm.177-5.77l-6.87 5.447 6.939-7.256a477.39 477.39 0 00-.069 1.809zm.087-2.24l-4.851 3.494 4.933-5.354-.082 1.86zm.157-3.428l-8.349 7.002 8.365-7.335c-.004.112-.01.214-.016.333zm.072-1.363l-29.923 22.129-.129.122 4.37-5.309-9.665 8.098 7.25-8.27-5.965 4.639 7.66-8.153-15.785 13.496 8.946-10.266-14.55 12.322 10.23-10.788-8.433 6.262 7.972-8.48-11.982 9.688 6.221-6.478-11.362 8.904 4.011-4.774-7.713 6.05 5.296-5.826-9.667 6.777 8.947-8.415-5.348 3.46 6.53-6.273-9.819 6.806 13.418-11.696-3.444 2.082 6.53-7.132-7.608 6.095 8.814-9.859-3.88 3.05 7.25-8.602-7.044 5.587 8.227-8.602-6.118 4.408 11.029-11.973-14.372 12.055 15.448-13.546-44.335 33.24 8.433-9.633-7.766 6.591 6.84-7.591-5.553 4.622 5.45-5.856-7.148 4.945 8.577-8.714-4.371 2.387 6.181-6.275-1.747 1.015 7.506-7.465-4.986 3.849 8.432-9.366-6.116 4.805 4.471-4.803-6.271 4.771 5.914-6.152-5.554 2.974 8.844-8.657-7.403 5.46 2.671-3.184-9.614 8.154 4.781-5.789-10.899 9.667 6.324-7.817-11.261 9.411 10.387-11.216-11.363 9.234 9.771-10.893-16.455 15.085 8.588-10.391-5.709 5.051 5.348-6.763-6.117 5.332 2.569-4.021-8.534 7.604 13.197-12.459-31.838 22.66 4.371-5.309-9.667 8.098 7.25-8.268-5.964 4.64 7.661-8.156-15.787 13.498 8.945-10.265-14.551 12.323 10.231-10.788-8.431 6.262 7.97-8.48-11.98 9.686 6.221-6.476-11.362 8.902 4.01-4.773-7.713 6.049 5.295-5.824-9.666 6.775 8.946-8.415-5.348 3.46 6.53-6.275-9.821 6.807 13.421-11.695-3.445 2.082 6.531-7.134-7.611 6.097 8.817-9.858-3.881 3.049 7.25-8.6-7.043 5.585 8.227-8.6-6.118 4.408 11.028-11.973-14.372 12.055 15.392-13.496-34.024 25.163-.111-1.291 1.484-1.803-1.529 1.28-.322-3.762 1.133-1.205-1.151.984-.119-1.39 12.015-11.016-8.586 10.391 5.706-5.054-5.347 6.764 6.118-5.334-2.571 4.021 8.537-7.602-13.93 13.147 39.636-29.379.19-.17-8.433 9.635 7.765-6.592-6.838 7.593 5.552-4.623-5.45 5.857 7.146-4.946-8.576 8.715 4.372-2.389-6.182 6.277 1.747-1.014-7.507 7.462 4.988-3.849-8.432 9.366 6.118-4.804-4.474 4.802 6.273-4.768-5.913 6.149 5.552-2.973-8.843 8.656 7.404-5.459-2.673 3.185 9.614-8.154-4.781 5.789 10.899-9.669-6.323 7.818 11.261-9.41-10.387 11.217 11.362-9.234-9.768 10.895 16.452-15.086-8.586 10.389 5.708-5.051-5.347 6.763 6.118-5.331-2.571 4.021 8.534-7.604-13.958 13.18 32.593-23.375.009-.008-.004.005.004-.003-.007.007-4.365 5.302 9.667-8.098-7.25 8.27 5.963-4.641-7.66 8.154 15.785-13.495-8.946 10.262 14.55-12.32-10.23 10.787 8.433-6.261-7.97 8.48 11.98-9.69-6.221 6.479 11.362-8.903-4.011 4.774 7.715-6.052-5.298 5.827 9.667-6.774-8.945 8.414 5.346-3.459-6.53 6.275 9.821-6.807-13.42 11.695 3.446-2.083-6.53 7.134 7.61-6.096-8.817 9.857 3.881-3.046-7.25 8.599 7.043-5.584-8.226 8.6 6.117-4.408-11.028 11.972 14.372-12.054-15.867 13.91 44.754-33.605-8.433 9.631 7.766-6.591-6.84 7.593 5.553-4.622-5.449 5.857 7.147-4.945-8.577 8.715 4.371-2.39-6.182 6.278 1.748-1.016-7.506 7.464 4.986-3.848-8.432 9.366 6.118-4.805-4.473 4.802 6.273-4.77-5.913 6.15 5.552-2.972-8.843 8.656 7.403-5.459-2.673 3.183 9.614-8.154-4.782 5.789 10.902-9.67-6.326 7.819 11.263-9.41-10.387 11.215 11.362-9.232-9.769 10.893 16.454-15.086-8.587 10.391 5.708-5.051-5.348 6.763 6.119-5.331-2.571 4.021 8.534-7.604-13.8 13.028 25.65-19.014c-.009.247-.028.567-.049.967zm.848-7.923l-1.354 1.157 1.404-1.61c-.016.152-.032.302-.05.453zm.315-2.941l-7.271 6.157 7.443-7.848-.172 1.691zm.265-2.629l-5.737 4.262 5.938-6.321c-.066.691-.133 1.378-.201 2.059zm1.59-17.95l-5.321 5.29 4.987-3.848-8.433 9.366 6.117-4.805-4.472 4.803 6.272-4.769-5.914 6.148 5.553-2.97-8.844 8.657 7.404-5.462-2.672 3.183 4.301-3.646a859.235 859.235 0 01-.314 3.379l-10.004 8.091 6.222-6.477-11.364 8.904 4.011-4.774-7.713 6.049 5.296-5.824-9.665 6.774 8.945-8.415-5.348 3.46 6.53-6.273-9.822 6.807 13.423-11.695-3.447 2.083 6.531-7.135-7.61 6.096 8.816-9.859-3.881 3.049 7.251-8.599-7.044 5.584 8.227-8.599-6.12 4.407 8.927-9.69a1497.71 1497.71 0 01-.825 10.71zm.866-11.263l-12.309 10.324 12.345-10.825-.036.501zm.068-.918l-41.266 30.937 8.434-9.631-7.764 6.592 6.839-7.594-5.554 4.624 5.449-5.857-7.146 4.946 8.577-8.715-4.372 2.389 6.18-6.278-1.746 1.014 7.508-7.462-4.988 3.849 8.432-9.367-6.117 4.804 4.474-4.802-6.273 4.768 5.913-6.149-5.553 2.973 8.844-8.659-7.404 5.462 2.674-3.183-9.615 8.153 4.782-5.788-10.899 9.667 6.323-7.819-11.261 9.412 10.387-11.216-11.362 9.234 9.77-10.894-16.454 15.085 8.586-10.391-5.707 5.051 5.348-6.761-6.118 5.332 2.569-4.021-8.534 7.604 13.184-12.447-31.822 22.649 4.371-5.312-9.665 8.098 7.248-8.27-5.963 4.642 7.66-8.156-15.787 13.498 8.945-10.264-14.553 12.322 10.233-10.788-8.434 6.262 7.97-8.48-11.979 9.688 6.222-6.477-11.366 8.902 4.012-4.774-7.713 6.051 5.295-5.826-9.665 6.774 8.946-8.414-5.348 3.459 6.529-6.273-9.82 6.809 13.421-11.697-3.445 2.083 6.529-7.135-7.61 6.099 8.818-9.86-3.881 3.047 7.249-8.599-7.042 5.586 8.225-8.601-6.118 4.408 11.029-11.972-14.372 12.054 15.585-13.664-37.088 27.427-.127.122 4.371-5.31-9.666 8.098 7.251-8.27-5.966 4.639 7.66-8.153-15.783 13.496 8.947-10.262-14.552 12.321 10.232-10.788-8.433 6.261 7.97-8.48-11.98 9.687 6.222-6.476-11.362 8.903 4.01-4.773-7.712 6.05 5.295-5.826-9.667 6.775 8.947-8.415-5.348 3.46 6.53-6.274-9.821 6.808 13.419-11.697-3.444 2.084 6.53-7.133-7.609 6.098 8.815-9.86-3.88 3.047 7.251-8.601-7.044 5.586 8.228-8.599-6.12 4.408 11.029-11.974-14.371 12.054 15.446-13.543-37.32 27.979-.067-.794 44.463-33.388-8.433 9.631 7.763-6.588-6.838 7.593 5.554-4.625-5.452 5.859 7.147-4.947-8.576 8.715 4.372-2.39-6.183 6.278 1.748-1.014-7.507 7.462 4.987-3.849-8.433 9.369 6.12-4.805-4.475 4.8 6.272-4.768-5.913 6.149 5.554-2.973-8.844 8.66 7.405-5.462-2.675 3.183 9.615-8.152-4.782 5.789 10.901-9.67-6.323 7.819 11.259-9.411-10.387 11.217 11.364-9.234-9.769 10.894 16.453-15.085-8.586 10.391 5.708-5.051-5.348 6.761 6.117-5.332-2.569 4.021 8.535-7.604-13.799 13.025 39.701-29.428-8.434 9.633 7.764-6.59-6.837 7.593 5.552-4.625-5.449 5.859 7.147-4.947-8.577 8.715 4.372-2.389-6.182 6.278 1.747-1.014-7.506 7.462 4.986-3.848-8.432 9.368 6.119-4.805-4.474 4.801 6.273-4.769-5.913 6.151 5.553-2.975-8.844 8.659 7.404-5.46-2.672 3.183 9.613-8.152-4.78 5.789 10.899-9.669-6.323 7.819 11.261-9.411-10.388 11.216 11.363-9.234-9.771 10.894 16.454-15.085-8.586 10.389 5.707-5.051-5.348 6.763 6.12-5.334-2.571 4.021 8.534-7.603-13.958 13.179 32.581-23.366.016-.015-.007.009.012-.009-.021.021-4.354 5.289 9.667-8.098-7.25 8.271 5.965-4.64-7.66 8.154 15.783-13.496-8.947 10.265 14.553-12.323-10.233 10.79 8.434-6.264-7.97 8.483 11.979-9.689-6.222 6.476 11.366-8.903-4.012 4.774 7.713-6.051-5.295 5.827 9.667-6.779-8.948 8.417 5.348-3.459-6.527 6.273 9.818-6.807-13.421 11.697 3.445-2.082-6.529 7.133 7.61-6.097-8.818 9.86 3.881-3.049-7.249 8.602 7.045-5.586-8.227 8.599 6.117-4.408-11.027 11.974 14.37-12.054-15.865 13.91 34.672-26.036-.066.93zm2.257-27.852l-1.162 1.03 1.193-1.476-.031.446zm.182-2.625l-6.281 5.25 6.393-6.903-.112 1.653zm.185-2.781l-7.441 6.048 7.594-8.468c-.045.714-.095 1.525-.153 2.42zm.524-7.217l-2.211 2.522 2.103-1.636c-.022.185-.047.36-.067.549l-.037.668-3.694 3.932 3.647-3.118-.084 1.423-14.307 13.116 8.587-10.389-5.709 5.051 5.348-6.763-6.119 5.333 2.571-4.021-8.536 7.605 18.254-17.232-4.372 5.31 4.898-4.104c-.096.562-.188 1.14-.272 1.754zm1.995-8.559l-2.755 2.309 3.354-3.826c-.146.33-.355.84-.599 1.517z"/><path d="M505.564 502.96l-8.535 7.606 2.571-4.021-6.118 5.332 5.346-6.763-5.707 5.051 8.588-10.389-16.455 15.086 9.771-10.895-11.364 9.234 10.387-11.217-11.262 9.41 6.326-7.816-10.902 9.666 4.783-5.787-9.615 8.151 2.673-3.181-7.404 5.457 8.845-8.657-5.553 2.974 5.913-6.15-6.274 4.769 4.474-4.803-6.119 4.805 8.433-9.368-4.986 3.849 7.506-7.462-1.747 1.014 6.181-6.277-4.371 2.387 8.576-8.713-7.147 4.944 5.45-5.856-5.553 4.624 6.84-7.593-7.766 6.591 8.433-9.634-39.7 29.43 13.802-13.031-8.535 7.604 2.57-4.021-6.118 5.334 5.348-6.764-5.708 5.052 8.587-10.389-16.454 15.083 9.77-10.893-11.363 9.232 10.387-11.216-11.261 9.41 6.324-7.818-10.899 9.669 4.782-5.789-9.615 8.154 2.674-3.186-7.404 5.46 8.844-8.657-5.555 2.973 5.914-6.151-6.275 4.771 4.475-4.803-6.117 4.805 8.433-9.368-4.989 3.848 7.509-7.462-1.748 1.015 6.179-6.278-4.371 2.39 8.576-8.716-7.147 4.947 5.45-5.858-5.552 4.624 6.839-7.594-7.765 6.592 8.432-9.634-44.751 33.605 15.864-13.91-14.371 12.054 11.029-11.972-6.119 4.408 8.229-8.6-7.046 5.585 7.25-8.6-3.878 3.047 8.814-9.857-7.608 6.096 6.53-7.134-3.445 2.082 13.419-11.695-9.821 6.807 6.53-6.273-5.346 3.46 8.945-8.415-9.661 6.781 5.298-5.825-7.713 6.05 4.009-4.774-11.362 8.902 6.222-6.476-11.98 9.688 7.969-8.48-8.432 6.264 10.229-10.787-14.549 12.32 8.945-10.265-15.785 13.496 7.661-8.154-5.965 4.641 7.249-8.268-9.667 8.095 4.365-5.3.009-.008-.005.004.003-.004-.006.006-32.594 23.375 13.96-13.178-8.536 7.604 2.571-4.021-6.118 5.332 5.347-6.762-5.706 5.052 8.586-10.391-10.762 9.867c-.014.537-.029 1.072-.046 1.607l.063-.054-.063.067a443.49 443.49 0 01-.153 4.402l.936-.783-.95 1.154a484.35 484.35 0 01-.075 1.773l28.481-20.271-13.188 12.45 8.535-7.606-2.57 4.021 6.117-5.332-5.348 6.763 5.708-5.051-8.586 10.389 16.453-15.085-9.769 10.894 11.363-9.231-10.387 11.214 11.261-9.411-6.326 7.819 10.901-9.667-4.782 5.788 9.615-8.153-2.674 3.184 7.403-5.46-8.843 8.657 5.553-2.974-5.914 6.152 6.274-4.771-4.474 4.803 6.119-4.805-8.433 9.368 4.987-3.851-7.507 7.464 1.746-1.014-6.18 6.277 4.371-2.389-8.577 8.713 7.146-4.944-5.45 5.856 5.553-4.624-6.84 7.593 7.766-6.589-8.432 9.631 44.334-33.24-15.448 13.543 14.372-12.055-11.03 11.975 6.12-4.407-8.227 8.599 7.043-5.584-7.249 8.599 3.88-3.047-8.816 9.859 7.609-6.097-6.53 7.134 3.446-2.083-13.422 11.695 9.822-6.807-6.531 6.276 5.348-3.461-8.947 8.416 9.668-6.777-5.297 5.826 7.714-6.052-4.011 4.775 11.364-8.903-6.221 6.476 11.979-9.689-7.97 8.483 8.433-6.263-10.232 10.788 14.553-12.321-8.948 10.263 15.786-13.495-7.662 8.153 5.965-4.64-7.25 8.27 9.668-8.097-4.373 5.309.129-.12 37.086-27.426-15.583 13.662 14.372-12.054-11.028 11.974 6.117-4.408-8.227 8.599 7.044-5.586-7.25 8.599 3.881-3.047-8.815 9.858 7.608-6.096-6.53 7.134 3.444-2.084-13.418 11.697 9.819-6.807-6.53 6.273 5.348-3.459-8.947 8.416 9.667-6.777-5.296 5.826 7.714-6.05-4.012 4.774 11.363-8.902-6.222 6.476 11.982-9.688-7.972 8.482 8.433-6.264-10.23 10.788 14.55-12.321-8.946 10.263 15.785-13.496-7.66 8.153 5.965-4.64-7.25 8.271 9.665-8.1-4.37 5.309L517.086 499c-.017-.368-.03-.735-.046-1.103l-25.437 18.242 13.961-13.179z"/><path d="M502.583 547.389l-14.371 12.054 11.03-11.974-6.12 4.408 8.227-8.599-7.043 5.586 7.249-8.602-3.88 3.05 8.816-9.86-7.61 6.096 6.531-7.134-3.446 2.084 13.422-11.697-9.822 6.809 6.531-6.273-5.348 3.459 8.946-8.414-9.672 6.775 5.295-5.827-7.713 6.051 4.012-4.774-11.366 8.903 6.222-6.478-11.979 9.689 7.97-8.48-8.434 6.262 10.233-10.788-14.553 12.323 8.947-10.265-15.783 13.496 7.66-8.154-5.965 4.641 7.25-8.271-9.667 8.098 4.354-5.289.021-.021-.012.009.007-.009-.016.015-32.581 23.366 13.958-13.179-8.534 7.604 2.571-4.021-6.12 5.332 5.348-6.762-5.707 5.052 8.586-10.391-16.454 15.085 9.771-10.892-11.363 9.231 10.388-11.214-11.261 9.41 6.323-7.818-10.899 9.668 4.78-5.788-9.613 8.152 2.672-3.184-7.404 5.46 8.844-8.657-5.553 2.974 5.913-6.152-6.273 4.769 4.474-4.801-6.119 4.805 8.432-9.368-4.986 3.849 7.506-7.463-1.747 1.015 6.182-6.277-4.372 2.389 8.577-8.716-7.147 4.947 5.449-5.858-5.552 4.622 6.839-7.593-7.766 6.591 8.434-9.632L408.4 542.27l13.803-13.028-8.535 7.604 2.569-4.021-6.117 5.331 5.348-6.761-5.708 5.052 8.586-10.391-16.453 15.085 9.769-10.893-11.364 9.232 10.387-11.215-11.259 9.408 6.323-7.816-10.901 9.667 4.782-5.789-9.615 8.152 2.675-3.181-7.405 5.46 8.844-8.659-5.554 2.973 5.913-6.149-6.272 4.768 4.475-4.8-6.12 4.802 8.433-9.365-4.987 3.848 7.507-7.462-1.748 1.012 6.183-6.275-4.372 2.387 8.576-8.713-7.147 4.944 5.452-5.855-5.554 4.621 6.838-7.591-7.763 6.592 8.433-9.634-44.667 33.542-.123.938 37.715-28.275-15.446 13.546 14.371-12.055-11.029 11.973 6.12-4.408-8.228 8.602 7.044-5.586-7.251 8.599 3.88-3.047-8.815 9.859 7.609-6.098-6.53 7.134 3.444-2.084-13.419 11.697 9.821-6.807-6.53 6.273 5.348-3.46-8.947 8.415 9.667-6.776-5.295 5.825 7.712-6.051-4.01 4.775 11.362-8.904-6.222 6.476 11.98-9.687-7.97 8.48 8.433-6.262-10.232 10.788 14.552-12.321-8.947 10.263 15.783-13.496-7.66 8.154 5.966-4.64-7.251 8.27 9.666-8.1-4.371 5.31.127-.12 37.088-27.427-15.585 13.662 14.372-12.054-11.029 11.974 6.118-4.407-8.225 8.599 7.042-5.586-7.249 8.601 3.881-3.049-8.818 9.86 7.61-6.097-6.529 7.135 3.445-2.085-13.421 11.698 9.82-6.808-6.529 6.273 5.348-3.458-8.946 8.413 9.665-6.774-5.295 5.826 7.713-6.051-4.012 4.772 11.366-8.902-6.222 6.478 11.979-9.688-7.97 8.48 8.434-6.261-10.233 10.787 14.553-12.322-8.945 10.264 15.783-13.495-7.66 8.153 5.963-4.64-7.248 8.27 9.665-8.098-4.371 5.31 31.815-22.643-13.177 12.44 8.534-7.604-2.569 4.021 6.118-5.334-5.348 6.762 5.707-5.05-8.586 10.389 16.454-15.084-9.77 10.893 11.362-9.232-10.387 11.214 11.261-9.41-6.323 7.819 10.899-9.67-4.782 5.789 9.615-8.153-2.674 3.183 7.404-5.46-8.844 8.657 5.553-2.971-5.913 6.149 6.273-4.768-4.474 4.8 6.117-4.804-8.432 9.368 4.988-3.849-7.508 7.462 1.747-1.015-6.18 6.278 4.372-2.389-8.577 8.715 7.146-4.946-5.449 5.857 5.554-4.623-6.839 7.593 7.764-6.592-8.434 9.634 40.894-30.66-.108-.796-34.12 25.621 15.863-13.907zM514.492 502.387l-2.571 4.021 5.302-4.618a369 369 0 01-.115-2.325l-11.149 10.527 8.533-7.605zM517.843 510.661l-.008-.082-.359.389.367-.307zM517.63 508.068a33.55 33.55 0 01-.023-.316l-1.106 1.234 1.129-.918zM517.334 503.731a301.08 301.08 0 01-.095-1.642l-4.546 5.749 4.641-4.107zM518.403 542.95l-8.227 8.599 7.044-5.584-7.251 8.599 3.881-3.047-8.811 9.859 7.608-6.096-6.531 7.135 3.446-2.085-13.419 11.697 9.819-6.807-6.528 6.275 5.348-3.46-8.947 8.413 9.665-6.774-5.296 5.826 7.713-6.052-4.011 4.775 11.364-8.904-6.221 6.479 11.979-9.689-7.97 8.48 8.433-6.262-10.231 10.788 13.772-11.661a965.46 965.46 0 01-.913-5.589l-4.219 3.742 4.036-4.888-.038-.237-8.833 7.491 2.674-3.184-7.403 5.46 8.843-8.657-5.552 2.973 5.913-6.151-6.274 4.769 4.474-4.801-6.117 4.805 8.433-9.368-4.989 3.848 7.293-7.248-.012-.082-1.521.883 1.436-1.458c-.412-2.802-.79-5.469-1.14-8l-8.841 9.596 6.121-4.408zM517.49 506.138a283.95 283.95 0 01-.137-2.084l-7.539 9.122 7.676-7.038zM521.056 537.277l-.057-.412-12.058 10.574 12.115-10.162zM495.921 586.962c.514-.041 1.017-.083 1.509-.128l4.282-5.181-5.791 5.309zM489.921 587.314c.323-.013.652-.023.969-.038l3.161-3.413-4.13 3.451zM493.437 587.138l.458-.03 1.133-1.263-1.591 1.293zM475.924 587.999l.036-.001.095-.102-.131.103zM486.914 587.408l.635-.017 1.566-1.937-2.201 1.954zM510.721 584.734l13.807-10.212-10.622 9.313.369-.121 9.042-7.584-5.802 6.299c.616-.303.894-.488.894-.488 4.003-1.73 6.122-4.216 7.211-6.063l-2.587 2.195 3.405-3.891c.187-.495.255-.802.255-.802.148-.39.165-.916.109-1.484l-17.876 13.252a62.343 62.343 0 001.795-.414zM504.255 586.008l.088-.013 1.225-1.156-1.313 1.169zM526.206 569.251a16.736 16.736 0 00-.183-.549l-2.316 2.643 2.499-2.094zM525.664 567.192a9.251 9.251 0 01-.028-.163l-.645.687.673-.524zM525.417 565.747l-.352-2.096-8.201 9.406 8.553-7.31zM518.214 449.274l.051-.453-1.404 1.61 1.353-1.157zM502.579 424.767l-14.37 12.054 11.027-11.974-6.117 4.408 8.227-8.599-7.045 5.586 7.249-8.602-3.881 3.049 8.818-9.86-7.61 6.097 6.529-7.133-3.445 2.082 13.421-11.697-9.818 6.807 6.527-6.273-5.348 3.459 8.948-8.417-9.667 6.779 5.295-5.827-7.713 6.051 4.012-4.774-11.366 8.903 6.222-6.476-11.979 9.689 7.97-8.483-8.434 6.264 10.233-10.79-14.553 12.323 8.947-10.265-15.783 13.496 7.66-8.154-5.965 4.64 7.25-8.271-9.667 8.098 4.354-5.289.021-.021-.012.009.007-.009-.016.015-32.581 23.366 13.958-13.179-8.534 7.603 2.571-4.021-6.12 5.334 5.348-6.763-5.707 5.051 8.586-10.389-16.454 15.085 9.771-10.894-11.363 9.234 10.388-11.216-11.261 9.411 6.323-7.819-10.899 9.669 4.78-5.789-9.613 8.152 2.672-3.183-7.404 5.46 8.844-8.659-5.553 2.975 5.913-6.151-6.273 4.769 4.474-4.801-6.119 4.805 8.432-9.368-4.986 3.848 7.506-7.462-1.747 1.014 6.182-6.278-4.372 2.389 8.577-8.715-7.147 4.947 5.449-5.859-5.552 4.625 6.837-7.593-7.764 6.59 8.434-9.633-39.703 29.43 13.803-13.028-8.535 7.604 2.569-4.021-6.117 5.332 5.348-6.761-5.708 5.051 8.586-10.391-16.453 15.085 9.769-10.894-11.364 9.234 10.387-11.217-11.259 9.411 6.323-7.819-10.901 9.67 4.782-5.789-9.615 8.152 2.675-3.183-7.405 5.462 8.844-8.66-5.554 2.973 5.913-6.149-6.272 4.768 4.475-4.8-6.12 4.805 8.433-9.369-4.987 3.849 7.507-7.462-1.748 1.014 6.183-6.278-4.372 2.39 8.576-8.715-7.147 4.947 5.452-5.859-5.554 4.625 6.838-7.593-7.763 6.588 8.433-9.631-44.463 33.388.067.794 37.32-27.979-15.446 13.543 14.371-12.054-11.029 11.974 6.12-4.408-8.228 8.599 7.044-5.586-7.251 8.601 3.88-3.047-8.815 9.86 7.609-6.098-6.53 7.133 3.444-2.084-13.419 11.697 9.821-6.808-6.53 6.274 5.348-3.46-8.947 8.415 9.667-6.775-5.295 5.826 7.712-6.05-4.01 4.773 11.362-8.903-6.222 6.476 11.98-9.687-7.97 8.48 8.433-6.261-10.232 10.788 14.552-12.321-8.947 10.262 15.783-13.496-7.66 8.153 5.966-4.639-7.251 8.27 9.666-8.098-4.371 5.31.127-.122 37.088-27.427-15.585 13.664 14.372-12.054-11.029 11.972 6.118-4.408-8.225 8.601 7.042-5.586-7.249 8.599 3.881-3.047-8.818 9.86 7.61-6.099-6.529 7.135 3.445-2.083-13.421 11.697 9.82-6.809-6.529 6.273 5.348-3.459-8.946 8.414 9.665-6.774-5.295 5.826 7.713-6.051-4.012 4.774 11.366-8.902-6.222 6.477 11.979-9.688-7.97 8.48 8.434-6.262-10.233 10.788 14.553-12.322-8.945 10.264 15.783-13.498-7.66 8.156 5.963-4.642-7.248 8.27 9.665-8.098-4.371 5.312 31.822-22.649-13.184 12.447 8.534-7.604-2.569 4.021 6.118-5.332-5.348 6.761 5.707-5.051-8.586 10.391 16.454-15.085-9.77 10.894 11.362-9.234-10.387 11.216 11.261-9.412-6.323 7.819 10.899-9.667-4.782 5.788 9.615-8.153-2.674 3.183 7.404-5.462-8.844 8.659 5.553-2.973-5.913 6.149 6.273-4.768-4.474 4.802 6.117-4.804-8.432 9.367 4.988-3.849-7.508 7.465 1.747-1.015-6.18 6.278 4.372-2.389-8.577 8.715 7.146-4.946-5.449 5.857 5.554-4.624-6.839 7.594 7.764-6.592-8.434 9.631 41.266-30.937.067-.932-34.672 26.036 15.865-13.909zM523.757 383.096l.111-1.654-6.393 6.903 6.282-5.249zM516.778 488.569l-.017-1.128-5.5 5.8 5.517-4.672zM521.25 414.491l.036-.501-12.345 10.825 12.309-10.324zM523.942 380.315c.058-.895.108-1.706.152-2.42l-7.594 8.468 7.442-6.048zM473.382 587.182l7.506-7.462-1.748 1.015 6.182-6.278-4.371 2.389 8.577-8.715-7.147 4.947 5.449-5.858-5.553 4.623 6.84-7.593-7.766 6.591 8.433-9.631-36.658 27.525 1.171-.022 28.414-21.304-15.448 13.546 14.371-12.055-11.027 11.973 6.117-4.408-8.226 8.6 7.043-5.587-7.25 8.602 3.881-3.047-2.904 3.248c1.719-.065 3.335-.132 4.827-.197l4.274-4.751-4.987 3.849zM518.403 420.328l-8.227 8.599 7.044-5.584-7.251 8.599 3.881-3.049-8.816 9.859 7.61-6.096-6.531 7.135 3.447-2.083-13.423 11.695 9.822-6.807-6.53 6.273 5.348-3.46-8.945 8.415 9.665-6.774-5.296 5.824 7.713-6.049-4.011 4.774 11.364-8.904-6.222 6.477 10.004-8.091c.106-1.118.212-2.245.314-3.379l-4.301 3.646 2.672-3.183-7.404 5.462 8.844-8.657-5.553 2.97 5.914-6.148-6.272 4.769 4.472-4.803-6.117 4.805 8.433-9.366-4.987 3.848 5.321-5.29c.313-3.879.592-7.536.825-10.71l-8.927 9.69 6.12-4.407zM526.461 364.539c.243-.677.452-1.188.599-1.517l-3.354 3.826 2.755-2.309zM524.211 370.139l-18.254 17.232 8.536-7.605-2.571 4.021 6.119-5.333-5.348 6.763 5.709-5.051-8.587 10.389 14.307-13.116.084-1.423-3.647 3.118 3.694-3.932.037-.668c.021-.189.045-.365.067-.549l-2.103 1.636 2.211-2.522c.084-.614.176-1.192.271-1.753l-4.898 4.104 4.373-5.311zM523.575 385.721l.031-.445-1.193 1.476 1.162-1.031zM518.794 443.704c.067-.681.135-1.367.201-2.06l-5.938 6.321 5.737-4.261zM517.05 464.228c.022-.633.046-1.236.069-1.809l-6.939 7.256 6.87-5.447zM516.746 485.977l-.012-1.173-3.674 3.91 3.686-2.737zM517.137 461.988c.028-.673.056-1.283.082-1.86l-4.933 5.354 4.851-3.494zM513.854 469.641l-8.814 9.859 7.608-6.098-6.531 7.135 3.446-2.083-13.419 11.695 9.819-6.807-6.528 6.275 5.348-3.46-8.947 8.415 9.665-6.776-5.296 5.828 7.713-6.052-4.011 4.775 11.364-8.904-6.221 6.477 7.679-6.211a509.192 509.192 0 01-.003-3.02l-1.659 1.407 1.66-1.976.003-.461-6.393 4.714 6.401-6.269.011-1.09-3.124 1.672 3.144-3.267.011-.784-3.513 2.669 3.531-3.788.005-.275-5.18 4.066 5.214-5.791.025-1.112-1.796 1.385 1.806-1.794c.051-2.088.112-3.992.175-5.698l-7.073 8.389 3.88-3.045zM518.529 446.333c.058-.558.115-1.123.172-1.69l-7.443 7.848 7.271-6.158z"/><path d="M505.57 462.217l-8.534 7.604 2.571-4.021-6.119 5.331 5.348-6.763-5.708 5.051 8.587-10.391-16.454 15.086 9.769-10.893-11.362 9.232 10.387-11.215-11.263 9.41 6.326-7.819-10.902 9.67 4.782-5.789-9.614 8.154 2.673-3.183-7.403 5.459 8.843-8.656-5.552 2.972 5.913-6.15-6.273 4.77 4.473-4.802-6.118 4.805 8.432-9.366-4.986 3.848 7.506-7.464-1.748 1.016 6.182-6.278-4.371 2.39 8.577-8.715-7.147 4.945 5.449-5.857-5.553 4.622 6.84-7.593-7.766 6.591 8.433-9.631-44.754 33.605 15.867-13.91-14.372 12.054 11.028-11.972-6.117 4.408 8.226-8.6-7.043 5.584 7.25-8.599-3.881 3.046 8.817-9.857-7.61 6.096 6.53-7.134-3.446 2.083 13.42-11.695-9.821 6.807 6.53-6.275-5.346 3.459 8.945-8.414-9.667 6.774 5.298-5.827-7.715 6.052 4.011-4.774-11.362 8.903 6.221-6.479-11.98 9.69 7.97-8.48-8.433 6.261 10.23-10.787-14.55 12.32 8.946-10.262-15.785 13.495 7.66-8.154-5.963 4.641 7.25-8.27-9.667 8.098 4.365-5.302.007-.007-.004.003.004-.005-.009.008-32.593 23.375 13.958-13.18-8.534 7.604 2.571-4.021-6.118 5.331 5.347-6.763-5.708 5.051 8.586-10.389-16.452 15.086 9.768-10.895-11.362 9.234 10.387-11.217-11.261 9.41 6.323-7.818-10.899 9.669 4.781-5.789-9.614 8.154 2.673-3.185-7.404 5.459 8.843-8.656-5.552 2.973 5.913-6.149-6.273 4.768 4.474-4.802-6.118 4.804 8.432-9.366-4.988 3.849 7.507-7.462-1.747 1.014 6.182-6.277-4.372 2.389 8.576-8.715-7.146 4.946 5.45-5.857-5.552 4.623 6.838-7.593-7.765 6.592 8.433-9.635-.19.17-39.636 29.379 13.93-13.147-8.537 7.602 2.571-4.021-6.118 5.334 5.347-6.764-5.706 5.054 8.586-10.391-12.015 11.016.119 1.39 1.151-.984-1.133 1.205.322 3.762 1.529-1.28-1.484 1.803.111 1.291 34.024-25.163-15.392 13.496 14.372-12.055-11.028 11.973 6.118-4.408-8.227 8.6 7.043-5.585-7.25 8.6 3.881-3.049-8.817 9.858 7.611-6.097-6.531 7.134 3.445-2.082-13.421 11.695 9.821-6.807-6.53 6.275 5.348-3.46-8.946 8.415 9.666-6.775-5.295 5.824 7.713-6.049-4.01 4.773 11.362-8.902-6.226 6.475 11.98-9.687-7.97 8.48 8.431-6.262-10.231 10.788 14.551-12.323-8.945 10.265 15.784-13.498-7.661 8.156 5.964-4.64-7.25 8.268 9.667-8.098-4.371 5.309 31.838-22.66-13.197 12.459 8.534-7.604-2.569 4.021 6.117-5.332-5.348 6.763 5.709-5.051-8.588 10.391 16.455-15.085-9.771 10.893 11.363-9.234-10.387 11.216 11.261-9.411-6.324 7.817 10.899-9.667-4.781 5.789 9.614-8.154-2.671 3.184 7.403-5.46-8.844 8.657 5.554-2.974-5.914 6.152 6.271-4.771-4.471 4.803 6.116-4.805-8.432 9.366 4.986-3.849-7.506 7.465 1.747-1.015-6.181 6.275 4.371-2.387-8.577 8.714 7.148-4.945-5.45 5.856 5.553-4.622-6.84 7.591 7.766-6.591-8.433 9.633 44.335-33.24-15.448 13.546 14.372-12.055-11.029 11.973 6.118-4.408-8.227 8.602 7.044-5.587-7.25 8.602 3.88-3.05-8.814 9.859 7.608-6.095-6.53 7.132 3.444-2.082-13.418 11.696 9.819-6.806-6.53 6.273 5.348-3.46-8.947 8.415 9.667-6.777-5.296 5.826 7.713-6.05-4.011 4.774 11.362-8.904-6.221 6.478 11.982-9.688-7.972 8.48 8.433-6.262-10.23 10.788 14.55-12.322-8.946 10.266 15.785-13.496-7.66 8.153 5.965-4.639-7.25 8.27 9.665-8.098-4.37 5.309.129-.122 29.923-22.129c.021-.399.04-.72.055-.965l-25.65 19.014 13.802-13.028zM517.294 458.56l.017-.333-8.365 7.335 8.348-7.002zM424.372 258.374h-.766l-1.936 2.163zM369.245 272.721l-.201.069-.307.329.508-.398zM371.411 273.833l-7.507 7.463 1.749-1.014-6.182 6.276 4.371-2.388-8.576 8.714 7.146-4.945-5.448 5.857 5.552-4.623-6.838 7.592 7.762-6.592-8.432 9.634 44.335-33.24-15.446 13.544 14.371-12.055-11.029 11.973 6.12-4.407-8.228 8.599 7.044-5.585-7.251 8.599 3.881-3.047-8.816 9.859 7.609-6.097-6.53 7.134 3.444-2.083-13.419 11.696 9.821-6.807-6.53 6.274 5.348-3.458-8.947 8.414 9.667-6.776-5.295 5.826 7.712-6.051-4.01 4.774 11.362-8.903-6.222 6.477 11.98-9.689-7.97 8.482 8.433-6.263-10.232 10.789 14.552-12.323-8.947 10.264 15.783-13.495-7.66 8.153 5.966-4.64-7.25 8.27 9.665-8.097-4.371 5.309.127-.121 37.088-27.425-15.585 13.661 14.372-12.054-11.029 11.975 6.118-4.408-8.225 8.601 7.042-5.586-7.249 8.6 3.881-3.046-8.818 9.859 7.61-6.096-6.529 7.134 3.445-2.083-13.421 11.697 9.82-6.808-6.529 6.276 5.348-3.46-8.946 8.416 9.665-6.775-5.295 5.827 7.713-6.051-4.009 4.774 11.363-8.903-6.222 6.476 11.979-9.688-7.97 8.48 8.434-6.264-10.231 10.789 14.551-12.322-8.945 10.264 15.783-13.497-7.66 8.155 5.963-4.642-7.248 8.271 9.665-8.098-4.371 5.31 31.813-22.643-13.175 12.438 8.534-7.605-2.569 4.021 6.118-5.333-5.348 6.762 5.707-5.051-8.586 10.39 16.454-15.085-9.77 10.894 11.362-9.233-10.387 11.215 11.261-9.41-6.323 7.819 10.899-9.668-4.782 5.788 9.615-8.151-2.674 3.183 7.404-5.461-8.844 8.659 5.553-2.973-5.913 6.15 6.273-4.768-4.474 4.801 6.117-4.803-8.432 9.367 4.988-3.85-7.508 7.463 1.747-1.014-6.18 6.277 4.372-2.388-8.577 8.713 7.146-4.945-5.449 5.858 5.554-4.625-6.839 7.593 7.764-6.59-8.434 9.631 44.335-33.239-15.445 13.544 14.371-12.055-11.03 11.973 6.12-4.408-8.227 8.599 7.044-5.586-7.251 8.6 3.881-3.047-8.816 9.858 7.61-6.096-6.531 7.133 3.447-2.083-13.423 11.697 9.822-6.807-6.53 6.275 5.348-3.46-8.945 8.416 9.665-6.777-5.296 5.828 7.713-6.051-4.011 4.775 11.364-8.902-6.222 6.475 11.98-9.687-7.969 8.481 8.432-6.263-10.231 10.788 14.551-12.322-8.947 10.264 15.787-13.497-7.661 8.155 5.963-4.642-7.247 8.271 9.665-8.098-4.37 5.31 13.315-9.846c.027-.327.052-.654.077-.981l-9.067 6.741 9.215-8.802.011-.156-3.834 3.416 2.569-4.021-6.116 5.334 5.348-6.763-5.707 5.051 8.064-9.756.005-.158-15.937 14.609 9.768-10.894-11.363 9.233 10.387-11.216-11.261 9.41 6.327-7.819-10.903 9.668 4.783-5.789-9.615 8.152 2.672-3.182-7.404 5.461 8.844-8.659-5.553 2.973 5.914-6.149-6.272 4.768 4.472-4.801-6.117 4.803 8.433-9.368-4.987 3.85 7.507-7.462-1.748 1.013 6.18-6.276-4.369 2.388 8.576-8.714-7.148 4.944 5.453-5.856-5.555 4.623 6.84-7.593-7.766 6.591 8.433-9.632-44.752 33.605 15.865-13.911-14.37 12.054 11.027-11.973-6.117 4.407 8.227-8.599-7.045 5.586 7.249-8.6-3.881 3.047 8.818-9.859-7.61 6.096 6.529-7.134-3.443 2.085 13.419-11.697-9.818 6.807 6.527-6.275-5.348 3.46 8.832-8.306-.029-.007-9.521 6.675 5.295-5.828-7.713 6.051 4.012-4.774-11.366 8.902 6.222-6.476-11.979 9.688 7.97-8.482-8.434 6.263 10.233-10.789-14.553 12.322 8.947-10.265-15.783 13.497 7.66-8.155-5.965 4.642 7.25-8.271-9.667 8.098 4.345-5.277.029-.028-.016.011.013-.016-.028.027-32.571 23.358 13.961-13.18-8.534 7.606 2.569-4.021-6.118 5.333 5.348-6.762-5.707 5.051 8.586-10.39-16.454 15.085 9.77-10.894-11.362 9.233 10.387-11.216-11.261 9.411 6.325-7.818-10.901 9.667 4.782-5.789-9.615 8.153 2.674-3.183-7.404 5.461 8.844-8.658-5.555 2.973 5.913-6.15-6.273 4.769 4.474-4.802-6.117 4.804 8.432-9.368-4.986 3.848 7.506-7.462-1.747 1.014 6.18-6.276-4.372 2.389 8.577-8.714-7.147 4.945 5.45-5.856-5.554 4.624 6.84-7.592-7.766 6.589 8.433-9.632-39.705 29.433 13.803-13.028-8.537 7.603 2.571-4.021-6.118 5.333 5.347-6.762-5.706 5.051 8.584-10.39-16.452 15.085 9.768-10.894-11.362 9.233 10.387-11.215-11.261 9.411 6.323-7.819-10.899 9.668 4.782-5.789-9.615 8.153 2.674-3.183-7.405 5.461 8.843-8.658-5.552 2.972 5.913-6.15-6.272 4.769 4.474-4.801-6.119 4.803 8.432-9.368-4.988 3.85 7.508-7.462-1.748 1.014 6.182-6.278-4.372 2.389 8.576-8.713-7.146 4.944 5.45-5.856-5.552 4.623 6.838-7.593-7.765 6.589 8.433-9.631-44.752 33.605 15.867-13.911-14.372 12.054 11.028-11.974-6.117 4.408 8.226-8.599-7.044 5.586 7.249-8.6-3.881 3.048 6.022-6.734c-.721.285-1.437.563-2.147.834l-2.668 2.137 1.576-1.722c-1.277.48-2.531.938-3.754 1.373l-5.225 5.804 4.984-3.848zM356.68 363.829l.101.337 1.167-1.412-1.268 1.075z"/><path d="M426.195 259.491l-13.421 11.698 9.82-6.808-6.529 6.274 5.348-3.458-8.947 8.414 9.665-6.776-5.295 5.827 7.713-6.052-4.008 4.776 11.363-8.903-6.222 6.476 11.98-9.687-7.97 8.48 8.433-6.261-10.231 10.787 14.551-12.321-8.945 10.264 15.783-13.496-7.66 8.154 5.962-4.641-7.248 8.27 9.665-8.099-4.371 5.311 9.901-9.346h-2.55l-1.18 1.028.813-1.028h-4.662l-4.376 4.011 3.598-4.011h-2.298l-2.894 2.353 2.179-2.353h-2.398l-.654.546.442-.546h-2.317l-2.701 2.397 1.979-2.397h-1.198l-5.616 4.76 2.674-3.182-7.405 5.461 7.19-7.039h-1.372l-2.529 1.353 1.301-1.353h-5.879l-2.929 3.201zM362.128 418.426l.082.965 2.527-2.886-2.609 1.921zM471.582 258.374h-1.115l-2.178 2.584zM362.265 375.489l31.834-22.658-13.194 12.458 8.536-7.607-2.572 4.021 6.119-5.331-5.348 6.763 5.707-5.051-8.587 10.389 16.454-15.085-9.77 10.894 11.365-9.234-10.387 11.216 11.259-9.41-6.325 7.819 10.9-9.669-4.782 5.789 9.615-8.154-2.672 3.183 7.404-5.46-8.846 8.657 5.555-2.971-5.914 6.149 6.272-4.77-4.472 4.802 6.117-4.804-8.433 9.369 4.987-3.849-7.507 7.462 1.748-1.015-6.182 6.278 4.371-2.389-8.576 8.715 7.148-4.946-5.453 5.858 5.555-4.624-6.84 7.592 7.766-6.591-8.434 9.634 44.334-33.239-15.446 13.543 14.37-12.054-11.028 11.974 6.118-4.407-8.227 8.599 7.045-5.586-7.251 8.601 3.88-3.049-8.815 9.86 7.608-6.095-6.53 7.133 3.446-2.083-13.419 11.695 9.819-6.807-6.528 6.273 5.347-3.459-8.947 8.414 9.667-6.777-5.295 5.827 7.713-6.049-4.011 4.772 11.362-8.901-6.219 6.476 11.979-9.689-7.972 8.482 8.435-6.264-10.232 10.788 14.553-12.321-8.948 10.264 15.784-13.495-7.66 8.153 5.965-4.642-7.25 8.271 9.666-8.096-4.371 5.308.129-.12 37.086-27.426-15.583 13.662 14.372-12.055-11.03 11.975 6.119-4.408-8.229 8.599 7.046-5.586-7.252 8.601 3.882-3.046-8.816 9.857 7.61-6.095-6.53 7.131 3.444-2.083-13.42 11.698 9.819-6.809-6.528 6.276 5.348-3.46-8.947 8.415 9.665-6.777-5.296 5.827 7.714-6.049-4.012 4.774 11.364-8.906-6.221 6.479 11.98-9.689-7.97 8.483 8.433-6.264-10.232 10.79 14.552-12.323-8.948 10.265 15.785-13.496-7.66 8.154 5.965-4.641-7.25 8.268 9.667-8.095-4.372 5.31 31.844-22.664 5.051-4.769-32.601 23.38 13.96-13.179-8.537 7.604 2.572-4.021-6.119 5.332 5.348-6.761-5.707 5.051 8.588-10.391-16.455 15.085 9.769-10.892-11.364 9.232 10.387-11.217-11.26 9.412 6.324-7.818-10.9 9.667 4.781-5.789-9.615 8.153 2.673-3.183-7.404 5.46 8.845-8.659-5.553 2.973 5.913-6.149-6.274 4.768 4.474-4.8-6.116 4.803 8.432-9.367-4.988 3.849 7.508-7.462-1.747 1.012 6.179-6.276-4.371 2.387 8.578-8.713-7.147 4.945 5.45-5.857-5.555 4.623 6.84-7.591-7.764 6.589 8.433-9.631-39.7 29.428 13.8-13.031-8.535 7.605 2.572-4.021-6.12 5.332 5.348-6.761-5.708 5.051 8.587-10.391-16.454 15.083 9.771-10.892-11.362 9.234 10.387-11.217-11.264 9.411 6.326-7.819-10.901 9.669 4.782-5.791-9.615 8.153 2.674-3.183-7.404 5.46 8.844-8.657-5.553 2.971 5.913-6.149-6.273 4.768 4.474-4.8-6.119 4.803 8.433-9.367-4.987 3.848 7.507-7.464-1.748 1.015 6.181-6.278-4.373 2.389 8.579-8.715-7.148 4.947 5.451-5.857-5.555 4.623 6.839-7.591-7.763 6.588 8.432-9.631-44.753 33.605 15.866-13.91-14.371 12.054 11.027-11.974-6.117 4.408 8.227-8.599-7.044 5.587 7.25-8.599-3.88 3.046 8.816-9.859-7.61 6.097 6.53-7.133-3.445 2.084 13.419-11.698-9.819 6.807 6.53-6.274-5.348 3.46 8.947-8.415-9.663 6.777 5.298-5.827-7.713 6.051 4.009-4.772-11.362 8.902 6.222-6.477-11.98 9.689 7.969-8.48-8.432 6.262 10.229-10.788-14.549 12.321 8.945-10.265-15.785 13.496 7.661-8.154-5.963 4.64 7.247-8.268-9.665 8.096 4.368-5.306.004-.004-.002.002.001-.002-.003.003-32.598 23.378 13.96-13.179-8.536 7.605 2.571-4.021-6.118 5.332 5.347-6.76-5.706 5.051 8.586-10.389-16.453 15.083 9.769-10.894-11.362 9.234 10.387-11.217-11.261 9.411 6.324-7.819-7.032 6.237c.41 1.625.759 3.491 1.057 5.453l.988-.837-.95 1.09c.103.688.199 1.386.29 2.09l7.5-6.414-7.33 7.803.011.087 5.622-4.375-5.424 6.185.053.51 7.787-6.522-4.377 5.31zM451.525 588.763l.414-.007 8.956-7.854-9.37 7.861zM359.279 381.705c.024.333.048.659.069.979l3.423-3.904-3.492 2.925zM359.435 384.004l.033.551 2.018-2.147-2.051 1.596z"/><path d="M531.798 353.317c.29-.716.577-1.447.862-2.188l-7.309 5.939 8.524-9.207c.078-.217.157-.433.234-.65l-9.633 8.052 6.324-7.817-10.9 9.667 4.78-5.789-9.615 8.153 2.674-3.183-7.403 5.46 8.843-8.657-5.555 2.973 5.916-6.151-6.274 4.768 4.474-4.8-6.117 4.805 8.433-9.367-4.989 3.848 7.509-7.464-1.748 1.016 6.18-6.278-4.371 2.39 8.578-8.716-7.147 4.946 5.45-5.858-5.553 4.623 6.838-7.593-7.764 6.59 8.432-9.631-39.7 29.427 13.8-13.029-8.534 7.605 2.571-4.021-6.119 5.332 5.348-6.761-5.708 5.051 8.587-10.391-16.454 15.085 9.769-10.893-11.362 9.232 10.387-11.214-11.263 9.411 6.326-7.819-10.902 9.669 4.782-5.789-9.614 8.152 2.673-3.183-7.403 5.462 8.843-8.659-5.552 2.972 5.913-6.152-6.273 4.769 4.473-4.8-6.118 4.802 8.432-9.367-4.986 3.849 7.506-7.463-1.748 1.014 6.182-6.277-4.371 2.389 8.577-8.714-7.147 4.945 5.449-5.857-5.553 4.623 6.84-7.592-7.766 6.59 8.433-9.632-44.754 33.607 15.867-13.911-14.372 12.051 11.028-11.974-6.117 4.407 8.226-8.599-7.043 5.586 7.25-8.599-3.881 3.046 8.817-9.86-7.61 6.097 6.53-7.134-3.446 2.083 13.42-11.697-9.821 6.808 6.53-6.274-5.346 3.458 8.945-8.415-9.667 6.779 5.298-5.827-7.715 6.051 4.011-4.774-11.362 8.902 6.221-6.476-11.98 9.688 7.97-8.482-8.433 6.262 10.23-10.788-14.55 12.322 8.946-10.264-15.785 13.497 7.66-8.156-5.963 4.641 7.25-8.271-9.667 8.098 4.357-5.292.015-.014-.008.006.008-.01-.018.016-32.584 23.367 13.958-13.179-8.534 7.604 2.571-4.021-6.118 5.333 5.347-6.763-5.708 5.052 8.586-10.39-16.452 15.083 9.768-10.891-11.362 9.233 10.387-11.217-11.261 9.412 6.323-7.818-10.899 9.668 4.781-5.79-9.614 8.152 2.673-3.181-7.404 5.458 8.843-8.657-5.552 2.972 5.913-6.15-6.273 4.77 4.474-4.802-6.118 4.804L395 323.24l-4.988 3.848 7.507-7.462-1.747 1.013 6.182-6.278-4.372 2.39 8.576-8.714-7.146 4.946 5.45-5.858-5.552 4.624 6.838-7.592-7.765 6.59 8.433-9.632-.19.167-39.636 29.382 13.93-13.152-8.537 7.606 2.571-4.021-6.118 5.332 5.347-6.762-5.706 5.051 8.586-10.39-16.453 15.084 9.769-10.892-11.362 9.233 10.387-11.216-11.261 9.411 6.324-7.818-10.9 9.667 4.783-5.79-9.615 8.154 2.674-3.182-7.063 5.209c.202.914.39 1.742.56 2.479l4.034-3.16-3.84 3.997.109.465 9.49-7.673-7.97 8.481 8.432-6.263-8.87 9.353.076.219 13.113-11.104-8.945 10.263 15.785-13.496-7.661 8.154 5.964-4.64-7.251 8.269 9.667-8.098-4.371 5.31 37.022-27.38-15.392 13.495 14.372-12.055-11.028 11.973 6.118-4.408-8.227 8.6 7.043-5.585-7.25 8.6 3.881-3.047-8.817 9.858 7.611-6.096-6.531 7.133 3.445-2.083-13.421 11.697 9.821-6.807-6.53 6.274 5.348-3.459-8.946 8.414 9.666-6.777-5.295 5.827 7.713-6.051-4.01 4.774 11.362-8.903-6.223 6.479 11.98-9.689-7.97 8.482 8.431-6.264-10.231 10.788 14.551-12.321-8.945 10.265 15.784-13.497-7.661 8.155 5.964-4.641-7.25 8.269 9.667-8.096-4.371 5.31 31.833-22.659-13.192 12.453 8.534-7.604-2.569 4.021 6.117-5.332-5.348 6.762 5.709-5.051-8.588 10.39 16.455-15.084-9.771 10.894 11.363-9.233-10.387 11.215 11.261-9.41-6.324 7.818 10.899-9.668-4.781 5.788 9.614-8.152-2.671 3.183 7.403-5.461-8.844 8.658 5.554-2.973-5.914 6.15 6.271-4.769-4.471 4.801 6.116-4.804-8.432 9.368 4.986-3.848-7.506 7.463 1.747-1.015-6.181 6.278 4.371-2.389-8.577 8.715 7.148-4.947-5.45 5.859 5.553-4.624-6.84 7.593 7.766-6.591-8.433 9.631 44.335-33.238-15.448 13.544 14.372-12.055-11.029 11.974 6.118-4.407-8.227 8.6 7.044-5.586-7.25 8.599 3.88-3.046-8.814 9.857 7.608-6.095-6.53 7.134 3.444-2.083-13.418 11.695 9.819-6.807-6.53 6.275 5.348-3.459-8.947 8.415 9.667-6.777-5.296 5.827 7.713-6.051-4.011 4.774 11.362-8.903-6.221 6.476 11.982-9.687-7.972 8.48 8.433-6.262-10.23 10.788 14.55-12.321-8.946 10.264 15.785-13.498-7.66 8.156 5.965-4.643-7.25 8.271 9.665-8.098-4.37 5.31.129-.122 37.085-27.424-15.582 13.662 14.371-12.054-11.03 11.974 6.12-4.408-8.227 8.599 7.044-5.586-7.25 8.601 3.88-3.049-8.814 9.859 7.608-6.095-6.531 7.134 3.446-2.085-13.419 11.698 9.819-6.809-6.528 6.274 5.348-3.459-8.947 8.414 9.665-6.775-5.296 5.827 7.713-6.051-4.011 4.774 11.364-8.904-6.221 6.477 11.979-9.688-7.97 8.48 8.433-6.261-10.231 10.788 14.552-12.321-8.948 10.264 13.253-11.331c.348-.756.693-1.547 1.037-2.359l-4.209 3.859 4.855-5.413z"/><path d="M348.444 346.628l.253.605 10.611-7.852-10.162 8.911.084.194 7.354-6.169-6.817 7.401c.175.395.349.782.521 1.163l1.386-.998-1.246 1.302a146.827 146.827 0 002.382 4.964l3.031-3.014-1.748 1.014 6.18-6.275-4.372 2.387 8.577-8.713-7.146 4.945 5.45-5.857-5.552 4.623 6.839-7.593-7.764 6.592 8.433-9.633-16.294 12.003zM470.964 261.674l-6.529 7.134 3.443-2.084-13.42 11.697 9.819-6.808-6.527 6.275 5.348-3.458-8.948 8.414 9.667-6.776-5.298 5.827 7.713-6.05-4.011 4.773 11.364-8.902-6.221 6.476 11.98-9.688-7.97 8.482 8.433-6.263-10.232 10.787 14.552-12.32-8.948 10.264 15.787-13.497-7.662 8.156 5.965-4.64-7.25 8.27 9.667-8.099-4.372 5.311 11.06-7.872c-.299-.134-.594-.268-.886-.401l-5.88 4.216 4.93-4.654c-.579-.269-1.145-.535-1.691-.797l-1.362 1.188 1.056-1.335c-.405-.195-.801-.388-1.187-.577l-.229.202.185-.224c-.607-.298-1.189-.588-1.74-.867l-6.311 5.786 5.54-6.177a480.16 480.16 0 01-.962-.497l-6.172 5.015 5.144-5.555c-.332-.176-.647-.345-.935-.499l-5.085 4.25 3.942-4.873a67.672 67.672 0 01-.576-.321l-7.941 7.043 4.781-5.789-9.614 8.153 2.673-3.183-7.403 5.461 8.844-8.659-5.553 2.973 5.913-6.149-6.273 4.768 4.473-4.801-6.118 4.803 6.486-7.206h-.854l-2.188 1.688 1.697-1.688h-3.32l-8.403 9.397 7.609-6.1zM353.173 356.867l.017.032.132-.147-.149.115zM524.991 363.219l3.508-2.729a49.6 49.6 0 001.12-2.198l-4.628 4.927zM340.163 311.666l.115.807 16.85-11.923-14.914 13.079 14.371-12.054-11.03 11.973 6.12-4.407-8.228 8.6 7.045-5.586-7.25 8.6 3.879-3.048-5.01 5.603c.066.352.134.701.201 1.046l3.603-2.886-3.434 3.75.27 1.345.077-.047-.074.064c.416 2.051.816 3.925 1.174 5.542l8.518-8.34-5.552 2.972 5.913-6.148-6.271 4.768 4.473-4.801-6.118 4.803 8.433-9.367-4.987 3.848 7.507-7.463-1.748 1.015 6.18-6.277-4.372 2.388 8.577-8.713-7.146 4.944 5.45-5.857-5.552 4.624 6.839-7.592-7.764 6.589 8.433-9.632-24.578 17.781zM528.152 277.197c-.491-.184-.971-.359-1.441-.53l-4.712 4.789 6.153-4.259zM529.248 277.745l-6.838 7.592 7.763-6.59-8.433 9.633 11.961-8.967-.732-.31-4.55 3.421 4.11-3.604-.355-.147-2.284 1.916 1.906-2.069c-1.156-.47-2.291-.913-3.382-1.323l-4.72 5.072 5.554-4.624zM363.159 414.737l11.03-11.974-6.119 4.408 8.226-8.599-7.044 5.586 7.251-8.601-3.883 3.046 8.817-9.857-7.609 6.095 6.531-7.134-3.445 2.085 13.419-11.697-9.821 6.807 6.53-6.274-5.348 3.46 8.946-8.417-9.666 6.783 5.295-5.827-7.713 6.049 4.011-4.774-11.362 8.904 6.22-6.476-11.98 9.689 7.971-8.482-8.434 6.264 10.233-10.79-14.551 12.323 8.946-10.264-10.076 8.614c.117 2.136.169 3.628.182 4.023l1.411-1.146-1.388 1.498.172 2.054 2.09-1.747-2.026 2.505.117 1.398 6.486-5.753-4.782 5.788 9.615-8.154-2.674 3.183 7.404-5.46-8.842 8.659 5.553-2.973-5.913 6.149 6.272-4.768-4.475 4.8 6.12-4.802-8.433 9.367 4.986-3.849-7.507 7.464 1.749-1.014-4.455 4.522.065.773 2.579-1.41-2.484 2.525.157 1.864.896-.621-.87.935.088 1.037.886-.737-.866.962.123 1.455 1.667-1.416-1.629 1.861.143 1.682 15.578-13.659-14.37 12.058zM360.988 544.781l-.135.955 3.216-3.57-3.081 2.615zM360.689 546.875l-.088.601 2.181-2.344-2.093 1.743zM361.431 541.558c-.072.537-.145 1.066-.216 1.588l3.522-4.023-3.306 2.435zM360.396 548.87l-.234 1.561 4.316-4.386-4.082 2.825zM359.825 552.616l-.039.25.487-.495-.448.245zM451.434 585.39l8.227-8.601-7.044 5.586 7.25-8.601-3.88 3.049 8.816-9.86-7.61 6.096 6.53-7.134-3.446 2.085 13.42-11.698-9.821 6.808 6.529-6.273-5.345 3.459 8.945-8.414-9.665 6.778 5.298-5.827-7.715 6.052 4.011-4.774-11.362 8.902 6.221-6.478-11.98 9.69 7.97-8.48-8.433 6.261 10.23-10.787-14.55 12.32 8.946-10.262-15.785 13.496 7.66-8.157-5.963 4.643 7.25-8.27-9.667 8.098 4.365-5.302.007-.007-.004.003.004-.005-.009.008-32.593 23.375 13.958-13.18-8.534 7.606 2.571-4.022-6.118 5.334 5.347-6.764-5.708 5.052 8.586-10.389-16.452 15.085 9.768-10.895-11.362 9.232 10.387-11.214-11.261 9.409 6.323-7.818-10.899 9.667 4.781-5.789-9.614 8.154 2.673-3.183-7.404 5.459 8.843-8.658-5.552 2.973 5.913-6.149-6.273 4.768 4.474-4.802-6.118 4.804 8.432-9.366-4.988 3.849 7.507-7.462-1.747 1.015 6.182-6.278-4.372 2.389 8.576-8.713-7.146 4.945 5.45-5.858-5.552 4.623 6.838-7.593-7.765 6.592 8.433-9.635-.19.17-39.636 29.379 13.93-13.15-8.537 7.604 2.571-4.021-6.118 5.332 5.347-6.762-5.706 5.052 8.586-10.391-16.453 15.085 9.769-10.894-11.362 9.233 10.387-11.216-11.261 9.41 6.324-7.818-7.257 6.436c-.319 1.527-.553 2.493-.553 2.493.13 1.25.49 2.393 1.031 3.439l1.791-1.517-1.604 1.84c.27.476.571.934.912 1.369l7.531-6.44-6.823 7.263c.044.047.083.096.127.142l4.999-3.891-4.135 4.716c.183.161.375.314.567.469l5.983-5.012-4.371 5.309 37.022-27.38-15.392 13.496 14.372-12.054-11.028 11.974 6.118-4.408-8.227 8.6 7.043-5.587-7.25 8.599 3.881-3.047-8.817 9.86 7.611-6.098-6.531 7.134 3.445-2.084-7.912 6.896c.387.071.764.138 1.132.198l3.181-2.204-2.421 2.326c3.22.501 5.479.628 5.479.628.788.066 1.575.13 2.364.192l3.886-3.045-2.99 3.113.848.065 7.902-6.392-6.128 6.521.728.053 5.861-4.353-4.234 4.465c.453.03.907.062 1.36.091l7.193-6.092-5.407 6.205 1.13.068 11.116-9.505-7.661 8.154 5.964-4.64-5.448 6.214c.205.012.409.021.614.032l7.251-6.074-4.371 5.31 31.841-22.663-13.2 12.463 8.534-7.606-2.569 4.021 6.117-5.332-5.348 6.761 5.709-5.051-8.588 10.391 16.455-15.085-9.771 10.895 11.363-9.234-10.387 11.216 11.261-9.41-6.324 7.816 10.899-9.667-4.781 5.789 9.614-8.151-2.671 3.181 7.403-5.46-8.844 8.657 5.554-2.971-5.914 6.149 6.271-4.771-4.471 4.803 6.116-4.805-8.432 9.366 4.986-3.849-7.506 7.465 1.747-1.015-6.181 6.275 4.371-2.387-3.788 3.85c.764-.006 1.521-.012 2.271-.02l.089-.062-.057.062c1.579-.017 3.131-.035 4.646-.059l7.186-7.8-6.118 4.411zM361.751 539.14l15.779-13.835-14.372 12.054 11.03-11.974-6.119 4.407 8.226-8.599-7.044 5.586 7.251-8.599-3.883 3.047 8.817-9.86-7.609 6.099 6.531-7.135-3.445 2.083 13.419-11.696-9.821 6.808 6.53-6.273-5.348 3.457 8.946-8.414-9.666 6.781 5.295-5.829-7.713 6.053 4.011-4.774-11.362 8.901 6.22-6.476-11.98 9.688 7.971-8.48-8.434 6.263 10.233-10.789-10.195 8.635a491.292 491.292 0 01-.497 6.693l2.056-1.823-2.116 2.562c-.028.349-.058.695-.087 1.041l7.036-5.965-2.674 3.181 7.404-5.46-8.842 8.659 5.553-2.973-5.913 6.149 6.272-4.768-4.475 4.802 6.12-4.805-8.433 9.369 4.986-3.849-7.507 7.462 1.749-1.015-2.583 2.623c-.066.604-.133 1.204-.2 1.798l.973-.531-1.031 1.048a539.39 539.39 0 01-.485 4.112l.189-.157-.197.219c-.079.653-.159 1.3-.239 1.938l1.36-1.155-1.418 1.62c-.089.709-.179 1.407-.269 2.096z"/><path d="M363.062 581.335c.086.051.168.104.255.152l1.417-1.618-1.672 1.466zM357.195 567.887l-.069.357.822-.996-.753.639zM364.234 443.142l.092 1.065 4.676-5.05-4.768 3.985zM364.033 440.78l.001.011.031-.04zM362.661 424.686l.046.542 1.771-1.8-1.817 1.258zM362.348 421.006l.034.411 1.687-1.872-1.721 1.461zM362.497 422.752l.005.063.28-.301-.285.238zM364.448 445.635l.131 1.526 5.398-6.021-5.529 4.495zM365.955 485.159l-.027 1.247 4.05-4.516-4.023 3.269zM365.199 503.462c-.028.464-.058.928-.087 1.39l4.498-5.161-4.411 3.771zM365.999 482.417l-.009.743 3.012-3.253-3.003 2.51z"/></svg>