<svg xmlns="http://www.w3.org/2000/svg" width="80" height="80" viewBox="562.14 92.445 80 80"><path fill="none" d="M585.711 92.445h-1.461l-3.053 3.046zM568.449 92.445h-.736l-2.684 2.047z"/><path fill="none" d="M565.763 108.328l2.811-2.008-2.633 2.688 3.012-2.12-1.266 1.599 4.203-3.023-6.873 5.24 16.037-9.288.012-.009-.005.005.007-.004-.014.009-2.14 2.101 4.759-3.219-3.568 3.288 2.936-1.845-3.772 3.242 7.772-5.366-4.407 4.081 7.164-4.899-5.037 4.289 4.153-2.49-3.924 3.372 5.898-3.852-3.062 2.575 5.593-3.54-1.972 1.898 3.797-2.406-2.608 2.317 4.76-2.692-4.404 3.345 2.633-1.375-3.215 2.495 4.834-2.706-6.608 4.65 1.697-.829-3.214 2.836 3.746-2.424-4.34 3.919 1.91-1.212-3.57 3.419 3.468-2.221-4.05 3.419 3.011-1.752-5.429 4.76 7.076-4.792-7.813 5.531 22.036-13.361-4.153 3.829 3.822-2.62-3.367 3.018 2.735-1.838-2.684 2.329 3.52-1.967-4.223 3.465 2.15-.95-3.043 2.496.858-.399-3.697 2.967 2.457-1.53-4.153 3.724 3.012-1.91-2.201 1.909 3.088-1.896-2.91 2.445 2.734-1.182-4.356 3.442 3.647-2.171-1.317 1.266 4.735-3.242-2.356 2.301 5.368-3.844-3.114 3.108 5.545-3.742-5.115 4.459 5.596-3.671-4.811 4.331 8.102-5.997-4.229 4.131 2.811-2.008-2.633 2.688 3.012-2.12-1.266 1.598 4.203-3.023-6.795 5.18 19.547-11.7-4.152 3.829 3.822-2.62-3.367 3.018 2.734-1.838-2.683 2.329 3.519-1.966-4.224 3.464 2.152-.95-3.043 2.496.861-.403-3.695 2.967 2.455-1.53-4.152 3.724 3.013-1.91-2.201 1.909 3.088-1.896-2.91 2.445 2.732-1.182-4.353 3.442 3.644-2.171-1.314 1.266 4.732-3.242-2.353 2.301 5.367-3.844-3.113 3.108 5.543-3.742-5.114 4.459 5.596-3.671-4.81 4.331 8.101-5.997-4.228 4.131 2.81-2.008-2.635 2.688 3.014-2.12-1.268 1.598 4.204-3.023-6.875 5.24 15.56-9.011v-3.068l-3.121 2.155 3.121-2.892v-.311l-5.881 4.021 5.037-4.289-4.15 2.49 3.924-3.372-5.901 3.852 3.065-2.575-5.596 3.539 1.975-1.898-3.797 2.406 2.607-2.316-4.759 2.694 4.406-3.345-2.633 1.375 3.215-2.495-4.836 2.707 6.607-4.65-1.695.828 3.215-2.836-3.748 2.424 4.342-3.92-1.912 1.212 3.57-3.419-3.469 2.221 4.051-3.419-3.012 1.752 5.375-4.713v-.01l-7.021 4.755 7.021-4.972v-.071l-17.609 10.515-.063.048 2.153-2.111-4.76 3.22 3.57-3.288-2.937 1.845 3.771-3.242-7.771 5.365 4.404-4.08-7.164 4.899 5.039-4.289-4.152 2.49 3.923-3.372-5.898 3.852 3.062-2.575-5.593 3.539 1.974-1.898-3.797 2.406 2.608-2.317-4.76 2.694 4.404-3.345-2.632 1.375 3.214-2.495-4.834 2.706 6.608-4.65-1.697.828 3.214-2.836-3.746 2.424 4.342-3.919-1.91 1.212 3.568-3.419-3.466 2.221 4.05-3.419-3.011 1.752 4.587-4.021h-.248l-5.986 4.053 5.725-4.053h-.32l-19.627 11.883 4.152-3.829-3.822 2.62 3.367-3.018-2.735 1.838 2.684-2.329-3.52 1.966 4.225-3.465-2.152.95 3.043-2.496-.862.403 3.696-2.967-2.455 1.53 3.441-3.086h-.295l-2.008 1.272 1.469-1.272h-.304l-2.051 1.259 1.499-1.259h-3.009l-1.024.701.718-.701h-.597l-3.132 2.244 2.248-2.244h-.415l-4.263 2.877 3.299-2.877h-.598l-3.183 2.089 2.32-2.089h-.539L594.5 96.2l3.843-3.755h-.141l-2.285 1.632 1.599-1.632h-.466l-1.511 1.064.844-1.064h-.319l-3.457 2.488 3.264-2.488h-1.055l-11.391 6.546 2.153-2.111-4.76 3.219 3.57-3.288-2.937 1.845 3.771-3.242-7.771 5.366 4.404-4.081-7.164 4.899 5.039-4.289-4.152 2.49 3.923-3.372-5.898 3.852 3.063-2.575-5.596 3.54 1.974-1.898-3.796 2.406 2.607-2.317-4.758 2.694 4.404-3.345-2.632 1.375 3.214-2.495-4.835 2.706 6.607-4.65-1.695.828 3.215-2.836-3.749 2.424 4.089-3.691h-.106l-1.551.984 1.027-.984h-6.037l-6.146 3.671 2.152-2.111-2.914 1.971v1.269l1.977-1.176-1.977 1.823v.515l1.647-1.129-1.647 1.476v.386l1.014-.681-1.014.88v.516l1.85-1.033-1.85 1.517v6.551l1.649-1.181-1.649 1.645v.475l4.08-2.753-4.08 3.556v.223l4.561-2.991-4.561 4.106v.04l7.852-5.812z"/><path fill="none" d="M562.14 110.505v.433l2.561-2.201zM562.14 95.019v.505l1.725-1.588zM577.567 92.445h-.225l-.778.625zM562.14 94.305v.433l2.559-2.199zM587.222 92.538l-4.81 4.331 5.976-4.424h-2.443l-4.319 3.764zM566.454 92.445h-.162l-.355.363zM642.14 97.614v-.107l-.281.231zM562.14 111.218v.504l1.725-1.588zM641.828 98.881l-3.696 2.967 2.455-1.53-4.15 3.724 3.012-1.91-2.201 1.909 3.087-1.896-2.912 2.445 2.735-1.182-4.354 3.442 3.645-2.171-1.317 1.266 4.008-2.745v-4.877l-1.172.961zM642.14 95.292v-.02l-.084.078zM562.14 92.445v.208l.318-.208zM623.486 93.913l-3.043 2.496.861-.403-3.695 2.967 2.455-1.53-4.152 3.724 3.013-1.91-2.201 1.909 3.088-1.896-2.91 2.445 2.734-1.182-4.355 3.442 3.646-2.171-1.316 1.265 4.734-3.241-2.355 2.301 5.367-3.844-3.113 3.108 5.543-3.741-5.114 4.459 5.596-3.671-4.811 4.331 8.102-5.997-4.228 4.131 2.81-2.008-2.633 2.688 3.012-2.12-1.268 1.599 4.204-3.023-6.795 5.18 15.478-9.266v-1.51h-1.795l-1.324.914.986-.914h-1.212l-2.532 1.732 2.034-1.732h-2.491l-.633.413.492-.413h-.845l-2.178 1.378 1.434-1.378h-.28l-2.976 1.886 2.121-1.886h-.277l-3.997 2.263 2.98-2.263H631l-.561.293.377-.293h-1.096l-.9.504.716-.504h-5.254l-2.949 2.418zM563.608 92.445l-1.468 1.322v.04l1.84-1.362zM642.14 103.839v-.425l-1.627 1.591zM594.06 92.445h-2.049l-6.472 4.935zM611.052 92.445h-.377l-1.037.915zM610.955 93.643l-3.569 3.419 3.467-2.221-4.049 3.419 3.012-1.752-5.43 4.76 7.074-4.792-7.81 5.531 15.769-9.562h-7.707l-2.67 2.41zM623.684 92.445h-.587l-1.058.919zM589.095 92.995l-2.633 2.689 3.014-2.12-1.268 1.599 3.78-2.718h-3.085l-2.618 2.558zM621.576 92.445h-.011l-.032.03zM622.625 92.445h-.16l-.477.428zM577.88 93.354l-2.201 1.909 3.088-1.896-2.912 2.445 2.734-1.182-4.353 3.442 3.644-2.171-1.316 1.265 4.734-3.241-2.353 2.302 5.28-3.782h-6.215l-3.143 2.819zM642.14 152.594v-.426l-1.627 1.592zM641.828 147.636l-3.698 2.967 2.457-1.53-4.152 3.724 3.014-1.91-2.203 1.909 3.087-1.896-2.91 2.445 2.735-1.182-4.354 3.442 3.645-2.171-1.317 1.266 4.008-2.745v-4.879l-1.174.963zM616.619 170.65l3.923-3.372-5.896 3.852 3.062-2.575-5.595 3.54 1.974-1.898-3.546 2.248h5.198l5.032-4.285zM642.14 144.046v-.02l-.086.079zM624.466 169.843l2.153-2.111-4.758 3.219 3.568-3.288-2.937 1.845 3.773-3.242-7.773 5.365 4.406-4.081-7.158 4.895h6.056l.313-.181.006-.004-.002.002.002-.001-.004.003-.185.181h.884l1.912-1.293-1.404 1.293h1.91l2.859-1.974-2.13 1.974h.807l4.083-2.792-3.279 2.792h.737l1.655-.993-1.156.993h.875l2.256-1.473-1.752 1.473h.432l3.851-2.437-1.974 1.898 3.797-2.406-2.606 2.317 4.758-2.695-4.375 3.323h.013l2.59-1.353-1.743 1.353h.568l2.795-1.565-2.223 1.565h6.074v-.349l-.594.332.594-.487v-6.68l-.392.281.392-.392v-.879l-2.822 1.904 2.822-2.461v-.494l-3.303 2.167 3.303-2.974v-.241l-6.594 4.881 4.229-4.131-2.811 2.008 2.633-2.689-3.014 2.12 1.268-1.599-4.203 3.024 6.5-4.954 1.992-1.519v-.002l-1.996 1.522z"/><path fill="none" d="M642.14 160.823v-.137l-.467.43zM642.14 136.395v-.424l-1.623 1.587zM642.14 161.613v-.219l-1.303 1.119zM642.14 159.926v-.505l-1.656 1.626zM642.14 146.368v-.108l-.283.233zM642.14 112.072v-.137l-.467.43z"/><path fill="none" d="M639.775 114.172l-2.811 2.008 2.633-2.688-3.014 2.12 1.268-1.599-4.203 3.023 8.492-6.474v-.002l-1.994 1.521-15.68 9.01 2.153-2.111-4.758 3.219 3.568-3.288-2.937 1.845 3.773-3.242-7.773 5.366 4.406-4.081-7.164 4.899 5.037-4.289-4.152 2.49 3.923-3.372-5.896 3.852 3.062-2.575-5.595 3.54 1.974-1.898-3.796 2.406 2.607-2.317-4.758 2.694 4.404-3.345-2.632 1.375 3.214-2.494-4.835 2.707 6.607-4.65-1.695.828 3.214-2.836-3.746 2.424 4.342-3.919-1.912 1.212 3.57-3.419-3.468 2.221 4.05-3.419-3.011 1.752 5.429-4.76-7.074 4.792 7.672-5.432-18.26 10.904-.062.048 2.152-2.111-4.76 3.219 3.569-3.288-2.936 1.845 3.772-3.242-7.772 5.366 4.404-4.081-7.164 4.899 5.038-4.289-4.151 2.49 3.924-3.372-5.9 3.852 3.064-2.575-5.596 3.539 1.975-1.898-3.797 2.406 2.607-2.317-4.757 2.694 4.404-3.345-2.633 1.375 3.215-2.495-4.834 2.706 6.605-4.65-1.695.828 3.215-2.836-3.746 2.424 4.34-3.919-1.91 1.212 3.57-3.419-3.469 2.221 4.051-3.419-3.014 1.752 5.432-4.76-7.076 4.792 7.605-5.385-21.828 13.215 4.152-3.829-3.822 2.62 3.365-3.018-2.732 1.838 2.684-2.329-3.52 1.966 4.223-3.464-2.153.949 3.043-2.495-.859.403 3.695-2.967-2.455 1.53 4.151-3.724-3.012 1.91 2.201-1.909-3.088 1.896 2.91-2.445-2.732 1.182 4.353-3.442-3.646 2.171 1.316-1.265-4.734 3.241 2.353-2.302-5.367 3.844 3.115-3.108-5.544 3.741 5.115-4.459-5.596 3.671 4.811-4.331-8.102 5.997 4.229-4.131-2.811 2.008 2.633-2.688-3.012 2.12 1.266-1.599-4.201 3.024 6.495-4.951-15.673 9.007 2.152-2.111-2.914 1.97v2.135l1.012-.685-1.012.932v.749l.379-.238-.379.326v.573l4.379-3.023L562.14 117v.005l7.139-4.881-5.039 4.289 4.152-2.49-3.924 3.372 5.899-3.852-3.063 2.575 5.594-3.54-1.975 1.898 3.799-2.406-2.609 2.317 4.758-2.694-4.407 3.345 2.635-1.375-3.217 2.495 4.836-2.706-6.607 4.65 1.697-.828-3.217 2.836 3.748-2.424-4.341 3.919 1.912-1.212-3.571 3.419 3.469-2.221-4.051 3.419 3.014-1.752-5.43 4.76 7.076-4.792-7.81 5.53 22.033-13.36-4.152 3.829 3.824-2.62-3.367 3.018 2.734-1.838-2.683 2.329 3.519-1.966-4.224 3.464 2.152-.949-3.043 2.495.861-.403-3.695 2.967 2.455-1.53-4.152 3.724 3.013-1.91-2.201 1.909 3.088-1.896-2.912 2.445 2.734-1.182-4.353 3.442 3.644-2.171-1.316 1.266 4.734-3.242-2.353 2.302 5.367-3.844-3.115 3.108 5.545-3.741-5.116 4.459 5.596-3.671-4.81 4.331 8.101-5.997-4.228 4.131 2.81-2.008-2.633 2.688 3.014-2.12-1.268 1.599 4.204-3.024-6.795 5.18 19.545-11.7-4.151 3.829 3.822-2.62-3.367 3.018 2.735-1.838-2.684 2.329 3.518-1.966-4.223 3.465 2.152-.95-3.043 2.496.862-.403-3.698 2.967 2.457-1.53-4.152 3.724 3.012-1.91-2.201 1.909 3.088-1.896-2.911 2.445 2.735-1.182-4.356 3.442 3.647-2.171-1.317 1.265 4.735-3.241-2.356 2.302 5.367-3.844-3.113 3.108 5.545-3.741-5.115 4.459 5.596-3.671-4.811 4.331 8.102-5.997-4.229 4.131 2.811-2.008-2.633 2.688 3.012-2.12-1.266 1.599 4.203-3.023-6.873 5.24 16.051-9.296-2.153 2.111 4.76-3.219-3.57 3.288 2.935-1.845-3.771 3.242 7.771-5.366-4.404 4.081 7.164-4.899-5.037 4.289 4.15-2.49-3.923 3.372 5.898-3.852-3.062 2.575 5.593-3.54-1.974 1.898 3.797-2.406-2.606 2.317 4.758-2.695-4.406 3.345 2.632-1.375-3.214 2.495 4.836-2.706-6.608 4.65 1.695-.828-3.214 2.836 3.748-2.424-4.342 3.919 1.912-1.212-3.57 3.419 3.468-2.221-4.05 3.419 3.011-1.752-5.429 4.76 7.076-4.792-7.813 5.531 17.967-10.893v-.546l-.721.436.721-.665v-.813l-.39.268.39-.35v-1.525l-.594.332.594-.487v-6.681l-.392.281.392-.392v-.879l-2.822 1.904 2.822-2.461v-.494l-3.303 2.167 3.303-2.973v-.242l-6.594 4.881z"/><path fill="none" d="M642.14 112.863v-.22l-1.303 1.119zM562.14 117.644v.043l.201-.175zM642.14 127.848v-.02l-.082.076z"/><path fill="none" d="M625.05 135.926l-3.822 2.62 3.367-3.018-2.734 1.838 2.683-2.329-3.517 1.966 4.223-3.465-2.153.95 3.043-2.496-.861.403 3.697-2.967-2.457 1.53 4.152-3.724-3.011 1.91 2.201-1.909-3.088 1.896 2.91-2.445-2.734 1.182 4.353-3.442-3.644 2.171 1.316-1.265-4.734 3.242 2.353-2.302-5.365 3.844 3.113-3.109-5.545 3.742 5.116-4.459-5.596 3.671 4.81-4.331-8.101 5.997 4.228-4.131-2.81 2.008 2.633-2.688-3.012 2.12 1.266-1.599-4.204 3.023 6.496-4.95-15.673 9.007 2.152-2.111-4.76 3.219 3.571-3.288-2.938 1.845 3.772-3.242-7.772 5.365 4.404-4.081-7.164 4.899 5.039-4.289-4.152 2.49 3.924-3.372-5.899 3.852 3.063-2.575-5.596 3.54 1.977-1.898-3.797 2.406 2.607-2.316-4.759 2.694 4.406-3.345-2.633 1.375 3.215-2.495-4.836 2.707 6.607-4.65-1.695.828 3.215-2.836-3.748 2.424 4.342-3.92-1.912 1.212 3.57-3.419-3.467 2.221 4.049-3.419-3.012 1.752 5.43-4.76-7.074 4.792 7.672-5.432-18.26 10.904-.063.048 2.153-2.111-4.76 3.219 3.57-3.288-2.937 1.845 3.771-3.242-7.771 5.366 4.404-4.081-7.164 4.899 5.039-4.289-4.152 2.49 3.923-3.372-5.898 3.852 3.062-2.575-5.595 3.539 1.974-1.898-3.796 2.406 2.607-2.316-4.758 2.694 4.404-3.345-2.632 1.375 3.214-2.495-4.835 2.707 6.607-4.65-1.695.828 3.214-2.836-3.748 2.424 4.342-3.92-1.91 1.212 3.568-3.419-3.466 2.221 4.048-3.419-3.011 1.752 5.429-4.76-7.076 4.792 7.606-5.385-19.018 11.513v.518l1.973-1.173-1.973 1.819v.517l1.645-1.127-1.645 1.474v.386l1.012-.68-1.012.878v.517l1.848-1.032-1.848 1.516v6.551l1.647-1.179-1.647 1.642v.475l4.076-2.75-4.076 3.555v.223l4.557-2.99-4.557 4.104v.04l7.848-5.81-4.227 4.131 2.809-2.008-2.633 2.689 3.014-2.12-1.266 1.599 4.201-3.023-6.857 5.228 19.513-11.681.096-.067-4.152 3.829 3.824-2.62-3.367 3.018 2.734-1.838-2.683 2.329 3.519-1.967-4.224 3.465 2.152-.95-3.043 2.496.861-.403-3.695 2.967 2.455-1.53-4.152 3.724 3.013-1.91-2.201 1.909 3.088-1.896-2.912 2.445 2.734-1.182-4.353 3.442 3.644-2.171-1.316 1.266 4.734-3.242-2.353 2.301 5.367-3.844-3.115 3.108 5.545-3.742-5.116 4.459 5.596-3.671-4.81 4.331 8.101-5.997-4.228 4.131 2.81-2.008-2.633 2.688 3.014-2.12-1.268 1.598 4.204-3.023-6.873 5.24 16.05-9.296-2.486 1.896-15.678 9.011 2.153-2.111-4.76 3.219 3.57-3.288-2.937 1.845 3.771-3.242-7.771 5.366 4.404-4.081-7.164 4.899 5.039-4.289-4.152 2.49 3.923-3.372-5.898 3.852 3.063-2.575-5.596 3.54 1.974-1.898-3.796 2.406 2.607-2.316-4.758 2.694 4.404-3.345-2.632 1.375 3.214-2.494-4.835 2.706 6.607-4.65-1.695.828 3.215-2.836-3.749 2.424 4.342-3.92-1.91 1.212 3.568-3.419-3.466 2.221 4.048-3.419-3.011 1.752 5.429-4.76-7.074 4.792 7.576-5.365-18.226 10.885 2.152-2.111-2.914 1.971v1.27l1.977-1.175-1.977 1.823v.515l1.647-1.129-1.647 1.475v.386l1.014-.681-1.014.88v.516l1.85-1.033-1.85 1.517v6.55l1.649-1.181-1.649 1.645v.475l4.08-2.753-4.08 3.556v.223l4.561-2.991-4.561 4.106v.04l7.852-5.812-4.229 4.131 2.811-2.008-2.633 2.688 3.012-2.12-1.266 1.599 4.203-3.024-6.873 5.24 16.037-9.287.012-.009-.005.005.007-.004-.014.01-2.14 2.1 4.759-3.219-3.568 3.288 2.936-1.845-3.772 3.242 7.772-5.365-4.407 4.081 7.164-4.899-5.037 4.289 4.153-2.49-3.924 3.372 5.898-3.852-3.062 2.575 5.593-3.54-1.972 1.898 3.797-2.406-2.608 2.316 4.756-2.692-4.406 3.345 2.633-1.375-3.215 2.495 4.836-2.707-6.608 4.65 1.696-.828-3.215 2.836 3.748-2.424-4.342 3.919 1.912-1.212-3.57 3.419 3.467-2.221-4.049 3.419 3.012-1.752-5.43 4.76 7.076-4.792-7.812 5.531 22.033-13.361-4.153 3.829 3.825-2.62-3.368 3.018 2.735-1.838-2.684 2.329 3.518-1.966-4.223 3.464 2.152-.949-3.043 2.496.862-.403-3.697 2.967 2.457-1.53-4.153 3.724 3.012-1.91-2.201 1.909 3.088-1.896-2.91 2.445 2.734-1.182-4.356 3.442 3.647-2.171-1.317 1.266 4.735-3.241-2.356 2.301 5.368-3.844-3.114 3.108 5.545-3.742-5.115 4.459 5.596-3.671-4.811 4.331 8.102-5.997-4.229 4.131 2.811-2.008-2.633 2.688 3.012-2.12-1.266 1.599 4.203-3.023-6.795 5.18 19.547-11.7-4.152 3.829 3.822-2.62-3.367 3.018 2.734-1.838-2.683 2.329 3.519-1.966-4.224 3.464 2.152-.95-3.043 2.496.861-.403-3.695 2.967 2.455-1.53-4.152 3.724 3.013-1.91-2.201 1.909 3.088-1.896-2.91 2.445 2.732-1.182-4.353 3.442 3.644-2.171-1.314 1.265 4.732-3.241-2.353 2.301 5.367-3.844-3.113 3.108 5.543-3.741-5.114 4.459 5.596-3.671-4.81 4.331 8.101-5.997-4.228 4.13 2.81-2.008-2.635 2.689 3.014-2.12-1.268 1.599 4.204-3.024-6.875 5.24 15.56-9.011v-3.065l-3.121 2.155 3.121-2.892v-.312l-5.881 4.022 5.037-4.289-4.15 2.49 3.924-3.372-5.901 3.852 3.065-2.575-5.596 3.54 1.975-1.898-3.797 2.406 2.607-2.317-4.759 2.694 4.406-3.345-2.633 1.375 3.215-2.495-4.836 2.706 6.607-4.65-1.695.828 3.215-2.836-3.748 2.424 4.342-3.919-1.912 1.212 3.57-3.419-3.469 2.221 4.051-3.419-3.012 1.752 5.375-4.712v-.011l-7.021 4.755 7.021-4.972v-.072l-17.609 10.516-.063.048 2.153-2.111-4.76 3.219 3.57-3.288-2.937 1.845 3.771-3.242-7.771 5.366 4.404-4.081-7.164 4.899 5.039-4.289-4.152 2.49 3.923-3.372-5.898 3.852 3.062-2.575-5.593 3.539 1.974-1.898-3.797 2.406 2.608-2.317-4.76 2.694 4.404-3.345-2.632 1.375 3.214-2.495-4.834 2.706 6.608-4.65-1.697.828 3.214-2.836-3.746 2.424 4.342-3.92-1.91 1.212 3.568-3.419-3.466 2.221 4.05-3.419-3.011 1.752 5.429-4.76-7.076 4.792 7.606-5.385-21.828 13.215 4.152-3.829-3.822 2.62 3.367-3.018-2.735 1.838 2.684-2.329-3.52 1.966 4.225-3.464-2.152.949 3.043-2.496-.862.403 3.696-2.967-2.455 1.53 4.152-3.724-3.014 1.91 2.203-1.909-3.089 1.896 2.912-2.445-2.735 1.182 4.354-3.442-3.647 2.171 1.317-1.265-4.735 3.242 2.356-2.302-5.367 3.844 3.113-3.108-5.543 3.741 5.113-4.459-5.595 3.671 4.81-4.331-8.101 5.997 4.228-4.131-2.811 2.008 2.633-2.689-3.011 2.12 1.269-1.598-4.203 3.023 8.986-6.851-2.15 2.111 4.758-3.219-3.571 3.288 2.938-1.845-3.772 3.242 7.772-5.366-4.404 4.081 7.164-4.899-5.039 4.289 4.152-2.49-3.924 3.372 5.899-3.852-3.063 2.575 5.594-3.54-1.975 1.898 3.797-2.406-2.607 2.317 4.754-2.694-4.405 3.345 2.633-1.375-3.215 2.495 4.836-2.706-6.607 4.65 1.695-.828-3.215 2.836 3.748-2.424-4.342 3.919 1.911-1.211-3.569 3.419 3.469-2.22-4.051 3.419 3.012-1.752-5.43 4.76 7.076-4.792-7.81 5.531 22.033-13.361-4.152 3.829 3.824-2.62-3.367 3.018 2.734-1.838-2.685 2.329 3.519-1.966-4.223 3.465 2.153-.95-3.043 2.496.861-.403-3.697 2.967 2.457-1.53-4.152 3.724 3.013-1.91-2.203 1.909 3.09-1.896-2.912 2.445 2.734-1.182-4.353 3.442 3.644-2.171-1.316 1.265 4.734-3.242-2.353 2.302 5.367-3.844-3.115 3.108 5.545-3.741-5.116 4.459 5.596-3.671-4.81 4.331 8.101-5.997-4.228 4.131 2.81-2.008-2.633 2.688 3.012-2.12-1.266 1.599 4.202-3.023-6.795 5.18 15.48-9.266v-2.755l-3.119 2.154 3.119-2.89v-.312l-5.877 4.02 5.037-4.289-4.152 2.49 3.924-3.372-5.899 3.852 3.063-2.575-5.594 3.539 1.975-1.898-3.797 2.406 2.605-2.316-4.758 2.694 4.405-3.345-2.633 1.375 3.215-2.495-4.834 2.707 6.605-4.65-1.695.828 3.215-2.836-3.746 2.424 4.34-3.92-1.911 1.212 3.569-3.419-3.467 2.221 4.051-3.419-3.014 1.752 5.373-4.71v-.012l-7.019 4.754 7.019-4.969v-.06l-21.24 12.859z"/><path fill="none" d="M642.14 130.168v-.106l-.279.229zM641.832 131.435l-3.698 2.967 2.457-1.53-4.152 3.724 3.014-1.91-2.203 1.909 3.087-1.896-2.91 2.445 2.735-1.182-4.354 3.442 3.645-2.171-1.317 1.265 4.004-2.741v-4.879l-1.17.96zM640.484 112.296l1.656-1.121v-.505zM562.14 128.068v.317l1.342-1.237zM609.085 172.445h1.383l2.43-2.159zM562.14 143.769v.505l1.725-1.588zM562.14 159.256v.434l2.561-2.201zM562.14 118.655v.204l.631-.63zM563.708 123.617l3.698-2.967-2.457 1.53 4.152-3.724-3.014 1.91 2.204-1.909-3.088 1.896 2.91-2.445-2.735 1.182 4.356-3.442-3.647 2.171 1.317-1.266-4.735 3.242 2.356-2.302-2.885 2.066v5.648l2.43-1.993zM562.14 127.346v.199l.887-.795zM562.14 159.97v.504l1.725-1.588zM562.14 126.726v.258l.836-.725zM562.14 143.056v.432l2.559-2.199zM596.55 172.445h.815l4.385-3.105zM562.14 166.395v.043l.201-.175zM597.513 172.445h.827l2.812-2.465z"/><path fill="none" d="M609.912 171.01l3.214-2.495-4.835 2.706 6.607-4.65-1.695.828 3.214-2.836-3.746 2.424 4.342-3.92-1.912 1.212 3.57-3.419-3.468 2.221 4.05-3.419-3.011 1.752 5.429-4.76-7.074 4.792 7.672-5.431-18.26 10.904-.062.048 2.152-2.111-4.76 3.219 3.569-3.288-2.936 1.845 3.772-3.242-7.772 5.366 4.404-4.081-7.164 4.899 5.038-4.289-4.151 2.49 3.924-3.372-5.9 3.852 3.064-2.575-5.596 3.54 1.975-1.898-3.797 2.406 2.607-2.317-4.757 2.694 4.404-3.345-2.633 1.375 3.215-2.495-4.834 2.706 6.605-4.65-1.695.828 3.215-2.836-3.746 2.424 4.34-3.919-1.91 1.212 3.57-3.419-3.469 2.221 4.051-3.419-3.014 1.752 5.432-4.76-7.076 4.792 7.605-5.385-21.828 13.215 4.152-3.829-3.822 2.62 3.365-3.018-2.732 1.838 2.684-2.329-3.52 1.966 4.223-3.464-2.153.95 3.043-2.496-.859.403 3.695-2.967-2.455 1.53 4.151-3.724-3.012 1.91 2.201-1.909-3.088 1.896 2.91-2.445-2.732 1.182 4.353-3.442-3.646 2.171 1.316-1.266-4.734 3.242 2.353-2.302-5.367 3.844 3.115-3.108-5.544 3.742 5.115-4.459-5.596 3.671 4.811-4.331-8.102 5.997 4.229-4.131-2.811 2.008 2.633-2.688-3.012 2.12 1.266-1.599-4.201 3.024 6.492-4.95-15.67 9.007 2.152-2.111-2.914 1.97v2.133l1.012-.685-1.012.932v.749l.379-.238-.379.326v.573l4.379-3.023-4.379 4.058v.005l7.139-4.881-5.039 4.289 4.152-2.49-3.924 3.372 5.899-3.852-3.063 2.575 5.594-3.539-1.975 1.898 3.799-2.406-2.609 2.317 4.758-2.694-4.405 3.345 2.633-1.375-3.215 2.494 4.836-2.706-6.607 4.65 1.695-.828-3.215 2.836 3.746-2.424-4.339 3.919 1.91-1.212-3.551 3.402h.009l3.442-2.204-2.611 2.204h.65l.924-.537-.612.537h1.417l.839-.569-.803.569h1.177l13.851-8.399-4.152 3.829 3.822-2.62-3.367 3.018 2.734-1.838-2.683 2.329 3.519-1.966-4.223 3.465 2.153-.949-3.043 2.496.861-.403-1.293 1.038h11.182l.365-.27-.276.27h5.697l9.228-5.523-4.153 3.829 3.822-2.62-3.367 3.018 2.735-1.838-2.684 2.329 3.52-1.966-3.377 2.771h.725l.579-.256-.311.256h6.19l3.699-2.81z"/><path fill="none" d="M575.86 172.445h.586l1.182-1.133zM562.14 167.407v.204l.631-.63zM575.199 171.866l5.429-4.76-7.076 4.792 7.606-5.385-9.799 5.932h4.091l2.76-2.331zM563.708 172.368l3.698-2.967-2.457 1.53 4.152-3.724-3.014 1.91 2.204-1.909-3.088 1.896 2.91-2.445-2.735 1.182 4.356-3.442-3.647 2.171 1.317-1.265-4.735 3.241 2.356-2.301-2.885 2.066v4.134h1.845l.585-.48zM562.14 125.439v.584l1.539-1.263z"/><path d="M628.305 172.445h.499l1.156-.993zM633.683 171.817l2.606-2.317-3.797 2.406 1.974-1.898-3.851 2.437h3.451l4.375-3.323zM626.764 172.445h.804l3.279-2.792zM629.679 172.445h.504l1.752-1.473zM642.14 163.22v-.807l-3.303 2.974zM642.14 110.67v-.108l-8.492 6.474 4.203-3.023-1.268 1.599 3.014-2.12-2.633 2.688 2.811-2.008-4.229 4.131 6.594-4.881v-.559l-1.303.899 1.303-1.119v-.571l-.467.293.467-.43v-.76l-1.656 1.121zM642.14 172.096v-.155l-.594.487zM635.494 172.445h.572l2.223-1.565zM642.14 165.261v-.111l-.392.392zM642.14 164.271v-.557l-2.822 2.461zM639.777 97.589l-4.051 3.419 3.469-2.221-3.57 3.419 1.912-1.212-4.342 3.92 3.748-2.424-3.215 2.836 1.695-.828-6.607 4.65 4.836-2.707-3.215 2.495 2.633-1.375-4.406 3.345 4.759-2.694-2.607 2.316 3.797-2.406-1.975 1.898 5.596-3.539-3.065 2.575 5.901-3.852-3.924 3.372 4.15-2.49-5.037 4.289 5.881-4.021v-2.515l-1.627 1.166 1.627-1.591v-.214l-4.008 2.745 1.317-1.266-3.645 2.171 4.354-3.442-2.735 1.182 2.912-2.445-3.087 1.896 2.201-1.909-3.012 1.91 4.15-3.724-2.455 1.53 3.696-2.967-.86.403 1.172-.961v-.709l-.281.124.281-.231v-2.215l-.084.058.084-.078v-.644l-5.375 4.713zM634.079 172.445h.847l1.743-1.353zM642.14 94.618v-.217l-7.021 4.972zM642.14 156.156v-.737l-3.121 2.892z"/><path d="M633.455 162.992l-4.204 3.024 1.268-1.599-3.014 2.12 2.635-2.689-2.81 2.008 4.228-4.13-8.101 5.997 4.81-4.331-5.596 3.671 5.114-4.459-5.543 3.741 3.113-3.108-5.367 3.844 2.353-2.301-4.732 3.241 1.314-1.265-3.644 2.171 4.353-3.442-2.732 1.182 2.91-2.445-3.088 1.896 2.201-1.909-3.013 1.91 4.152-3.724-2.455 1.53 3.695-2.967-.861.403 3.043-2.496-2.152.95 4.224-3.464-3.519 1.966 2.683-2.329-2.734 1.838 3.367-3.018-3.822 2.62 4.152-3.829-19.547 11.7 6.795-5.18-4.203 3.023 1.266-1.599-3.012 2.12 2.633-2.688-2.811 2.008 4.229-4.131-8.102 5.997 4.811-4.331-5.596 3.671 5.115-4.459-5.545 3.742 3.114-3.108-5.368 3.844 2.356-2.301-4.735 3.241 1.317-1.266-3.647 2.171 4.356-3.442-2.734 1.182 2.91-2.445-3.088 1.896 2.201-1.909-3.012 1.91 4.153-3.724-2.457 1.53 3.697-2.967-.862.403 3.043-2.496-2.152.949 4.223-3.464-3.518 1.966 2.684-2.329-2.735 1.838 3.368-3.018-3.825 2.62 4.153-3.829-22.033 13.361 7.812-5.531-7.076 4.792 5.43-4.76-3.012 1.752 4.049-3.419-3.467 2.221 3.57-3.419-1.912 1.212 4.342-3.919-3.748 2.424 3.215-2.836-1.696.828 6.608-4.65-4.836 2.707 3.215-2.495-2.633 1.375 4.406-3.345-4.756 2.692 2.608-2.316-3.797 2.406 1.972-1.898-5.593 3.54 3.062-2.575-5.898 3.852 3.924-3.372-4.153 2.49 5.037-4.289-7.164 4.899 4.407-4.081-7.772 5.365 3.772-3.242-2.936 1.845 3.568-3.288-4.759 3.219 2.14-2.1.014-.01-.007.004.005-.005-.012.009-16.037 9.287 6.873-5.24-4.203 3.024 1.266-1.599-3.012 2.12 2.633-2.688-2.811 2.008 4.229-4.131-7.852 5.812v.496l2.561-1.767-2.561 2.201v.28l1.725-1.084-1.725 1.588v.451l2.914-1.97-2.152 2.111 15.67-9.007-6.492 4.95 4.201-3.024-1.266 1.599 3.012-2.12-2.633 2.688 2.811-2.008-4.229 4.131 8.102-5.997-4.811 4.331 5.596-3.671-5.115 4.459 5.544-3.742-3.115 3.108 5.367-3.844-2.353 2.302 4.734-3.242-1.316 1.266 3.646-2.171-4.353 3.442 2.732-1.182-2.91 2.445 3.088-1.896-2.201 1.909 3.012-1.91-4.151 3.724 2.455-1.53-3.695 2.967.859-.403-3.043 2.496 2.153-.95-4.223 3.464 3.52-1.966-2.684 2.329 2.732-1.838-3.365 3.018 3.822-2.62-4.152 3.829 21.828-13.215-7.605 5.385 7.076-4.792-5.432 4.76 3.014-1.752-4.051 3.419 3.469-2.221-3.57 3.419 1.91-1.212-4.34 3.919 3.746-2.424-3.215 2.836 1.695-.828-6.605 4.65 4.834-2.706-3.215 2.495 2.633-1.375-4.404 3.345 4.757-2.694-2.607 2.317 3.797-2.406-1.975 1.898 5.596-3.54-3.064 2.575 5.9-3.852-3.924 3.372 4.151-2.49-5.038 4.289 7.164-4.899-4.404 4.081 7.772-5.366-3.772 3.242 2.936-1.845-3.569 3.288 4.76-3.219-2.152 2.111.062-.048 18.26-10.904-7.672 5.431 7.074-4.792-5.429 4.76 3.011-1.752-4.05 3.419 3.468-2.221-3.57 3.419 1.912-1.212-4.342 3.92 3.746-2.424-3.214 2.836 1.695-.828-6.607 4.65 4.835-2.706-3.214 2.495 2.632-1.375-3.699 2.81h.24l3.813-2.159-2.43 2.159h.073l3.546-2.248-1.974 1.898 5.595-3.54-3.062 2.575 5.896-3.852-3.923 3.372 4.152-2.49-5.032 4.285h.001l7.158-4.895-4.406 4.081 7.773-5.365-3.773 3.242 2.937-1.845-3.568 3.288 4.758-3.219-2.153 2.111 15.678-9.01 1.996-1.522v-.09l-15.56 9.011zM642.14 123.347v-.155l-.594.487zM562.458 92.445l-.318.208v1.114l1.468-1.322zM642.14 124.954v-.082l-.39.35zM642.14 139.955v-.736l-3.119 2.89zM642.14 125.996v-.229l-.721.665zM639.781 130.141l-4.051 3.419 3.467-2.221-3.569 3.419 1.911-1.212-4.34 3.92 3.746-2.424-3.215 2.836 1.695-.828-6.605 4.65 4.834-2.707-3.215 2.495 2.633-1.375-4.405 3.345 4.758-2.694-2.605 2.316 3.797-2.406-1.975 1.898 5.594-3.539-3.063 2.575 5.899-3.852-3.924 3.372 4.152-2.49-5.037 4.289 5.877-4.02v-2.512l-1.623 1.163 1.623-1.587v-.214l-4.004 2.741 1.317-1.265-3.645 2.171 4.354-3.442-2.735 1.182 2.91-2.445-3.087 1.896 2.203-1.909-3.014 1.91 4.152-3.724-2.457 1.53 3.698-2.967-.862.403 1.17-.96v-.71l-.279.123.279-.229v-2.214l-.082.056.082-.076v-.645l-5.373 4.71zM642.14 127.171v-.215l-7.019 4.969z"/><path d="M631.986 131.904l-7.076 4.792 5.429-4.76-3.011 1.752 4.05-3.419-3.468 2.221 3.57-3.419-1.912 1.212 4.342-3.919-3.748 2.424 3.214-2.836-1.695.828 6.608-4.65-4.836 2.706 3.214-2.495-2.632 1.375 4.406-3.345-4.758 2.695 2.606-2.317-3.797 2.406 1.974-1.898-5.593 3.54 3.062-2.575-5.898 3.852 3.923-3.372-4.15 2.49 5.037-4.289-7.164 4.899 4.404-4.081-7.771 5.366 3.771-3.242-2.935 1.845 3.57-3.288-4.76 3.219 2.153-2.111-16.051 9.296 6.873-5.24-4.203 3.023L610 128.99l-3.012 2.12 2.633-2.688-2.811 2.008 4.229-4.131-8.102 5.997 4.811-4.331-5.596 3.671 5.115-4.459-5.545 3.741 3.113-3.108-5.367 3.844 2.356-2.302-4.735 3.241 1.317-1.265-3.647 2.171 4.356-3.442-2.735 1.182 2.911-2.445-3.088 1.896 2.201-1.909-3.012 1.91 4.152-3.724-2.457 1.53 3.698-2.967-.862.403 3.043-2.496-2.152.95 4.223-3.465-3.518 1.966 2.684-2.329-2.735 1.838 3.367-3.018-3.822 2.62 4.151-3.829-19.545 11.7 6.795-5.18-4.204 3.024 1.268-1.599-3.014 2.12 2.633-2.688-2.81 2.008 4.228-4.131-8.101 5.997 4.81-4.331-5.596 3.671 5.116-4.459-5.545 3.741 3.115-3.108-5.367 3.844 2.353-2.302-4.734 3.242 1.316-1.266-3.644 2.171 4.353-3.442-2.734 1.182 2.912-2.445-3.088 1.896 2.201-1.909-3.013 1.91 4.152-3.724-2.455 1.53 3.695-2.967-.861.403 3.043-2.495-2.152.949 4.224-3.464-3.519 1.966 2.683-2.329-2.734 1.838 3.367-3.018-3.824 2.62 4.152-3.829-22.033 13.36 7.81-5.53-7.076 4.792 5.43-4.76-3.014 1.752 4.051-3.419-3.469 2.221 3.571-3.419-1.912 1.212 4.341-3.919-3.748 2.424 3.217-2.836-1.697.828 6.607-4.65-4.836 2.706 3.217-2.495-2.635 1.375 4.407-3.345-4.758 2.694 2.609-2.317-3.799 2.406 1.975-1.898-5.594 3.54 3.063-2.575-5.899 3.852 3.924-3.372-4.152 2.49 5.039-4.289-7.139 4.881v.639l.201-.132-.201.175v.968l.631-.426-.631.63v.7l2.885-2.066-2.356 2.302 4.735-3.242-1.317 1.266 3.647-2.171-4.356 3.442 2.735-1.182-2.91 2.445 3.088-1.896-2.204 1.909 3.014-1.91-4.152 3.724 2.457-1.53-3.698 2.967.862-.403-2.43 1.993v.232l1.539-.679-1.539 1.263v.703l.836-.467-.836.725v.362l.887-.596-.887.795v.523l1.342-.92-1.342 1.237v.89l19.018-11.513-7.606 5.385 7.076-4.792-5.429 4.76 3.011-1.752-4.048 3.419 3.466-2.221-3.568 3.419 1.91-1.212-4.342 3.92 3.748-2.424-3.214 2.836 1.695-.828-6.607 4.65 4.835-2.707-3.214 2.495 2.632-1.375-4.404 3.345 4.758-2.694-2.607 2.316 3.796-2.406-1.974 1.898 5.595-3.539-3.062 2.575 5.898-3.852-3.923 3.372 4.152-2.49-5.039 4.289 7.164-4.899-4.404 4.081 7.771-5.366-3.771 3.242 2.937-1.845-3.57 3.288 4.76-3.219-2.153 2.111.063-.048 18.26-10.904-7.672 5.432 7.074-4.792-5.43 4.76 3.012-1.752-4.049 3.419 3.467-2.221-3.57 3.419 1.912-1.212-4.342 3.92 3.748-2.424-3.215 2.836 1.695-.828-6.607 4.65 4.836-2.707-3.215 2.495 2.633-1.375-4.406 3.345 4.759-2.694-2.607 2.316 3.797-2.406-1.977 1.898 5.596-3.54-3.063 2.575 5.899-3.852-3.924 3.372 4.152-2.49-5.039 4.289 7.164-4.899-4.404 4.081 7.772-5.365-3.772 3.242 2.938-1.845-3.571 3.288 4.76-3.219-2.152 2.111 15.673-9.007-6.496 4.95 4.204-3.023-1.266 1.599 3.012-2.12-2.633 2.688 2.81-2.008-4.228 4.131 8.101-5.997-4.81 4.331 5.596-3.671-5.116 4.459 5.545-3.742-3.113 3.109 5.365-3.844-2.353 2.302 4.734-3.242-1.316 1.265 3.644-2.171-4.353 3.442 2.734-1.182-2.91 2.445 3.088-1.896-2.201 1.909 3.011-1.91-4.152 3.724 2.457-1.53-3.697 2.967.861-.403-3.043 2.496 2.153-.95-4.223 3.465 3.517-1.966-2.683 2.329 2.734-1.838-3.367 3.018 3.822-2.62-4.15 3.829 21.24-12.859v-.354l-17.967 10.893zM642.14 114.47v-.806l-3.303 2.973zM625.228 172.445h.729l2.13-1.974zM642.14 143.372v-.217l-7.021 4.972z"/><path d="M633.455 146.796l-4.202 3.023 1.266-1.599-3.012 2.12 2.633-2.688-2.81 2.008 4.228-4.131-8.101 5.997 4.81-4.331-5.596 3.671 5.116-4.459-5.545 3.741 3.115-3.108-5.367 3.844 2.353-2.302-4.734 3.242 1.316-1.265-3.644 2.171 4.353-3.442-2.734 1.182 2.912-2.445-3.09 1.896 2.203-1.909-3.013 1.91 4.152-3.724-2.457 1.53 3.697-2.967-.861.403 3.043-2.496-2.153.95 4.223-3.465-3.519 1.966 2.685-2.329-2.734 1.838 3.367-3.018-3.824 2.62 4.152-3.829-22.033 13.361 7.81-5.531-7.076 4.792 5.43-4.76-3.012 1.752 4.051-3.419-3.469 2.22 3.569-3.419-1.911 1.211 4.342-3.919-3.748 2.424 3.215-2.836-1.695.828 6.607-4.65-4.836 2.706 3.215-2.495-2.633 1.375 4.405-3.345-4.754 2.694 2.607-2.317-3.797 2.406 1.975-1.898-5.594 3.54 3.063-2.575-5.899 3.852 3.924-3.372-4.152 2.49 5.039-4.289-7.164 4.899 4.404-4.081-7.772 5.366 3.772-3.242-2.938 1.845 3.571-3.288-4.758 3.219 2.15-2.111-8.986 6.851 4.203-3.023-1.269 1.598 3.011-2.12-2.633 2.689 2.811-2.008-4.228 4.131 8.101-5.997-4.81 4.331 5.595-3.671-5.113 4.459 5.543-3.741-3.113 3.108 5.367-3.844-2.356 2.302 4.735-3.242-1.317 1.265 3.647-2.171-4.354 3.442 2.735-1.182-2.912 2.445 3.089-1.896-2.203 1.909 3.014-1.91-4.152 3.724 2.455-1.53-3.696 2.967.862-.403-3.043 2.496 2.152-.949-4.225 3.464 3.52-1.966-2.684 2.329 2.735-1.838-3.367 3.018 3.822-2.62-4.152 3.829 21.828-13.215-7.606 5.385 7.076-4.792-5.429 4.76 3.011-1.752-4.05 3.419 3.466-2.221-3.568 3.419 1.91-1.212-4.342 3.92 3.746-2.424-3.214 2.836 1.697-.828-6.608 4.65 4.834-2.706-3.214 2.495 2.632-1.375-4.404 3.345 4.76-2.694-2.608 2.317 3.797-2.406-1.974 1.898 5.593-3.539-3.062 2.575 5.898-3.852-3.923 3.372 4.152-2.49-5.039 4.289 7.164-4.899-4.404 4.081 7.771-5.366-3.771 3.242 2.937-1.845-3.57 3.288 4.76-3.219-2.153 2.111.063-.048 17.609-10.516v-.373l-15.48 9.266zM642.14 107.402v-.737l-3.121 2.892zM642.14 115.521v-.557l-2.822 2.461zM633.648 165.786l4.203-3.024-1.268 1.599 3.014-2.12-2.633 2.689 2.811-2.008-4.229 4.131 6.594-4.881v-.559l-1.303.9 1.303-1.119v-.571l-.467.293.467-.43v-.76l-1.656 1.121 1.656-1.626v-.108l-1.992 1.519zM642.14 116.511v-.111l-.392.392zM639.777 146.343l-4.051 3.419 3.469-2.221-3.57 3.419 1.912-1.212-4.342 3.919 3.748-2.424-3.215 2.836 1.695-.828-6.607 4.65 4.836-2.706-3.215 2.495 2.633-1.375-4.406 3.345 4.759-2.694-2.607 2.317 3.797-2.406-1.975 1.898 5.596-3.54-3.065 2.575 5.901-3.852-3.924 3.372 4.15-2.49-5.037 4.289 5.881-4.022v-2.513l-1.627 1.166 1.627-1.592v-.213l-4.008 2.745 1.317-1.266-3.645 2.171 4.354-3.442-2.735 1.182 2.91-2.445-3.087 1.896 2.203-1.909-3.014 1.91 4.152-3.724-2.457 1.53 3.698-2.967-.862.403 1.174-.963v-.708l-.283.125.283-.233v-2.214l-.086.059.086-.079v-.643l-5.375 4.712zM602.387 172.445h.268l.311-.256zM602.536 92.445h-.964l-3.299 2.877zM622.81 172.445h.508l1.404-1.293zM562.14 115.965V117l4.379-4.058z"/><path d="M562.902 112.314l15.673-9.007-6.495 4.951 4.201-3.024-1.266 1.599 3.012-2.12-2.633 2.688 2.811-2.008-4.229 4.131 8.102-5.997-4.811 4.331 5.596-3.671-5.115 4.459 5.544-3.741-3.115 3.108 5.367-3.844-2.353 2.302 4.734-3.241-1.316 1.265 3.646-2.171-4.353 3.442 2.732-1.182-2.91 2.445 3.088-1.896-2.201 1.909 3.012-1.91-4.151 3.724 2.455-1.53-3.695 2.967.859-.403-3.043 2.495 2.153-.949-4.223 3.464 3.52-1.966-2.684 2.329 2.732-1.838-3.365 3.018 3.822-2.62-4.152 3.829 21.828-13.215-7.605 5.385 7.076-4.792-5.432 4.76 3.014-1.752-4.051 3.419 3.469-2.221-3.57 3.419 1.91-1.212-4.34 3.919 3.746-2.424-3.215 2.836 1.695-.828-6.605 4.65 4.834-2.706-3.215 2.495 2.633-1.375-4.404 3.345 4.757-2.694-2.607 2.317 3.797-2.406-1.975 1.898 5.596-3.539-3.064 2.575 5.9-3.852-3.924 3.372 4.151-2.49-5.038 4.289 7.164-4.899-4.404 4.081 7.772-5.366-3.772 3.242 2.936-1.845-3.569 3.288 4.76-3.219-2.152 2.111.062-.048 18.26-10.904-7.672 5.432 7.074-4.792-5.429 4.76 3.011-1.752-4.05 3.419 3.468-2.221-3.57 3.419 1.912-1.212-4.342 3.919 3.746-2.424-3.214 2.836 1.695-.828-6.607 4.65 4.835-2.707-3.214 2.494 2.632-1.375-4.404 3.345 4.758-2.694-2.607 2.317 3.796-2.406-1.974 1.898 5.595-3.54-3.062 2.575 5.896-3.852-3.923 3.372 4.152-2.49-5.037 4.289 7.164-4.899-4.406 4.081 7.773-5.366-3.773 3.242 2.937-1.845-3.568 3.288 4.758-3.219-2.153 2.111 15.68-9.01 1.994-1.521v-.09l-15.56 9.011 6.875-5.24-4.204 3.023 1.268-1.598-3.014 2.12 2.635-2.688-2.81 2.008 4.228-4.131-8.101 5.997 4.81-4.331-5.596 3.671 5.114-4.459-5.543 3.742 3.113-3.108-5.367 3.844 2.353-2.301-4.732 3.242 1.314-1.266-3.644 2.171 4.353-3.442-2.732 1.182 2.91-2.445-3.088 1.896 2.201-1.909-3.013 1.91 4.152-3.724-2.455 1.53 3.695-2.967-.861.403 3.043-2.496-2.152.95 4.224-3.464-3.519 1.966 2.683-2.329-2.734 1.838 3.367-3.018-3.822 2.62 4.152-3.829-19.547 11.7 6.795-5.18-4.203 3.023 1.266-1.598-3.012 2.12 2.633-2.688-2.811 2.008 4.229-4.131-8.102 5.997 4.811-4.331-5.596 3.671 5.115-4.459-5.545 3.742 3.114-3.108-5.368 3.844 2.356-2.301-4.735 3.242 1.317-1.266-3.647 2.171 4.356-3.442-2.734 1.182 2.91-2.445-3.088 1.896 2.201-1.909-3.012 1.91 4.153-3.724-2.457 1.53 3.697-2.967-.858.399 3.043-2.496-2.15.95 4.223-3.465-3.52 1.967 2.684-2.329-2.735 1.838 3.367-3.018-3.822 2.62 4.153-3.829-22.036 13.361 7.813-5.531-7.076 4.792 5.429-4.76-3.011 1.752 4.05-3.419-3.468 2.221 3.57-3.419-1.91 1.212 4.34-3.919-3.746 2.424 3.214-2.836-1.697.829 6.608-4.65-4.834 2.706 3.215-2.495-2.633 1.375 4.404-3.345-4.76 2.692 2.608-2.317-3.797 2.406 1.972-1.898-5.593 3.54 3.062-2.575-5.898 3.852 3.924-3.372-4.153 2.49 5.037-4.289-7.164 4.899 4.407-4.081-7.772 5.366 3.772-3.242-2.936 1.845 3.568-3.288-4.759 3.219 2.14-2.101.014-.009-.007.004.005-.005-.012.009-16.037 9.288 6.873-5.24-4.203 3.023 1.266-1.599-3.012 2.12 2.633-2.688-2.811 2.008 4.229-4.13-7.852 5.812v.495l2.561-1.768-2.561 2.201v.28l1.725-1.084-1.725 1.588v.451l2.914-1.97zM603.835 92.445h-.884l-2.248 2.244zM608.299 92.445h-.552l-1.499 1.259zM562.14 114.308v.247l1.012-.932zM604.738 92.445h-.306l-.718.701zM609.142 92.445h-.539l-1.469 1.272zM562.14 132.404v.484l1.848-1.516zM562.14 139.439v.463l1.647-1.642zM562.14 131.689v.198l1.012-.878z"/><path d="M608.451 94.001l-3.696 2.967.862-.403-3.043 2.496 2.152-.95-4.225 3.465 3.52-1.966-2.684 2.329 2.735-1.838-3.367 3.018 3.822-2.62-4.152 3.829 19.627-11.883h-.583l-15.769 9.562 7.81-5.531-7.074 4.792 5.43-4.76-3.012 1.752 4.049-3.419-3.467 2.221 3.569-3.419-1.913 1.212 2.67-2.41h-.66l-1.414.915 1.037-.915h-1.238l-3.441 3.086zM562.14 129.793v.646l1.973-1.819zM562.14 130.956v.347l1.645-1.474zM562.14 140.377v.805l4.076-3.555zM562.902 96.116l6.146-3.671h-.599l-3.42 2.047 2.684-2.047h-1.259l-.517.363.355-.363h-2.312l-1.84 1.362v.498l2.559-1.766-2.559 2.199v.281l1.725-1.083-1.725 1.588v.452l2.914-1.971zM598.202 92.445h-.686l-1.599 1.632zM599.572 92.445h-1.229L594.5 96.2zM597.05 92.445h-.667l-.844 1.064zM575.609 92.445h-.524l-1.027.984zM596.064 92.445h-.193l-3.264 2.488zM600.974 92.445h-.863l-2.32 2.089zM575.375 93.712l-3.215 2.836 1.695-.828-6.607 4.65 4.835-2.706-3.214 2.495 2.632-1.375-4.404 3.345 4.758-2.694-2.607 2.317 3.796-2.406-1.974 1.898 5.596-3.54-3.063 2.575 5.898-3.852-3.923 3.372 4.152-2.49-5.039 4.289 7.164-4.899-4.404 4.081 7.771-5.366-3.771 3.242 2.937-1.845-3.57 3.288 4.76-3.219-2.153 2.111 11.391-6.546h-.756l-8.521 4.935 6.472-4.935h-.023l-3.78 2.718 1.268-1.599-3.014 2.12 2.633-2.689-2.81 2.008 2.618-2.558h-.515l-5.976 4.424 4.81-4.331-5.596 3.671 4.319-3.764h-.234l-4.514 3.046 3.053-3.046h-.025l-5.28 3.782 2.353-2.302-4.734 3.241 1.316-1.265-3.644 2.171 4.353-3.442-2.734 1.182 2.912-2.445-3.088 1.896 2.201-1.909-3.013 1.91 3.143-2.819h-.443l-1.003.625.778-.625h-1.627l-4.089 3.691zM562.14 97.245v.647l1.977-1.823zM562.14 106.89v.464l1.649-1.645zM562.14 108.855v1.115l4.561-4.106zM562.14 107.829v.803l4.08-3.556zM562.14 99.855v.484l1.85-1.517zM562.14 98.407v.347l1.647-1.476zM562.14 99.14v.199l1.014-.88zM562.14 115.304v.088l.379-.326zM566.368 172.445h.831l2.611-2.204zM590.152 172.445h.089l.276-.27zM631 92.445h-.184l-.377.293zM629.72 92.445h-.184l-.716.504zM567.849 172.445h.312l.612-.537zM632.664 92.445h-1.017l-2.98 2.263zM569.578 172.445h.036l.803-.569zM579.402 171.81l3.043-2.496-2.153.949 4.223-3.465-3.519 1.966 2.683-2.329-2.734 1.838 3.367-3.018-3.822 2.62 4.152-3.829-13.851 8.399h.568l9.799-5.932-7.606 5.385 7.076-4.792-5.429 4.76 3.011-1.752-2.76 2.331h.41l1.768-1.133-1.182 1.133h2.524l1.293-1.038zM562.14 141.405v1.114l4.557-4.104zM640.345 92.445h-.338l-.986.914zM622.115 172.261l-.002.001.002-.002-.006.004-.313.181h.13l.185-.181zM635.806 92.445h-.141l-.492.413zM601.519 171.64l2.684-2.329-2.735 1.838 3.367-3.018-3.822 2.62 4.153-3.829-9.228 5.523h.612l5.2-3.105-4.385 3.105h.148l3.639-2.465-2.812 2.465h3.322l3.377-2.771zM633.796 92.445h-.855l-2.121 1.886zM634.82 92.445h-.744l-1.434 1.378zM638.795 92.445h-.498l-2.034 1.732zM562.14 147.159v.346l1.647-1.475zM562.14 147.891v.199l1.014-.88zM562.14 148.606v.484l1.85-1.517zM568 170.255l4.339-3.919-3.746 2.424 3.215-2.836-1.695.828 6.607-4.65-4.836 2.706 3.215-2.494-2.633 1.375 4.405-3.345-4.758 2.694 2.609-2.317-3.799 2.406 1.975-1.898-5.594 3.539 3.063-2.575-5.899 3.852 3.924-3.372-4.152 2.49 5.039-4.289-7.139 4.881v.64l.201-.132-.201.175v.969l.631-.426-.631.63v.7l2.885-2.066-2.356 2.301 4.735-3.241-1.317 1.265 3.647-2.171-4.356 3.442 2.735-1.182-2.91 2.445 3.088-1.896-2.204 1.909 3.014-1.91-4.152 3.724 2.457-1.53-3.698 2.967.862-.403-.585.48h2.374l3.551-3.402zM620.583 92.445h-.261l-5.725 4.053z"/><path d="M619.255 94.714l-4.05 3.419 3.466-2.221-3.568 3.419 1.91-1.212-4.342 3.919 3.746-2.424-3.214 2.836 1.697-.828-6.608 4.65 4.834-2.706-3.214 2.495 2.632-1.375-4.404 3.345 4.76-2.694-2.608 2.317 3.797-2.406-1.974 1.898 5.593-3.539-3.062 2.575 5.898-3.852-3.923 3.372 4.152-2.49-5.039 4.289 7.164-4.899-4.404 4.08 7.771-5.365-3.771 3.242 2.937-1.845-3.57 3.288 4.76-3.22-2.153 2.111.063-.048L642.14 94.33v-.375l-15.478 9.266 6.795-5.18-4.204 3.023 1.268-1.599-3.012 2.12 2.633-2.688-2.81 2.008 4.228-4.131-8.102 5.997 4.811-4.331-5.596 3.671 5.114-4.459-5.543 3.741 3.113-3.108-5.367 3.844 2.355-2.301-4.734 3.241 1.316-1.265-3.646 2.171 4.355-3.442-2.734 1.182 2.91-2.445-3.088 1.896 2.201-1.909-3.013 1.91 4.152-3.724-2.455 1.53 3.695-2.967-.861.403 3.043-2.496-2.153.95 2.949-2.418h-.598l-1.645.919 1.058-.919h-.472l-.637.428.477-.428h-.889l-.043.03.032-.03h-.734l-4.587 4.021zM562.902 144.866l18.226-10.885-7.576 5.365 7.074-4.792-5.429 4.76 3.011-1.752-4.048 3.419 3.466-2.221-3.568 3.419 1.91-1.212-4.342 3.92 3.749-2.424-3.215 2.836 1.695-.828-6.607 4.65 4.835-2.706-3.214 2.494 2.632-1.375-4.404 3.345 4.758-2.694-2.607 2.316 3.796-2.406-1.974 1.898 5.596-3.54-3.063 2.575 5.898-3.852-3.923 3.372 4.152-2.49-5.039 4.289 7.164-4.899-4.404 4.081 7.771-5.366-3.771 3.242 2.937-1.845-3.57 3.288 4.76-3.219-2.153 2.111 15.678-9.011 2.486-1.896-16.05 9.296 6.873-5.24-4.204 3.023 1.268-1.598-3.014 2.12 2.633-2.688-2.81 2.008 4.228-4.131-8.101 5.997 4.81-4.331-5.596 3.671 5.116-4.459-5.545 3.742 3.115-3.108-5.367 3.844 2.353-2.301-4.734 3.242 1.316-1.266-3.644 2.171 4.353-3.442-2.734 1.182 2.912-2.445-3.088 1.896 2.201-1.909-3.013 1.91 4.152-3.724-2.455 1.53 3.695-2.967-.861.403 3.043-2.496-2.152.95 4.224-3.465-3.519 1.967 2.683-2.329-2.734 1.838 3.367-3.018-3.824 2.62 4.152-3.829-.096.067-19.513 11.681 6.857-5.228-4.201 3.023 1.266-1.599-3.014 2.12 2.633-2.689-2.809 2.008 4.227-4.131-7.848 5.81v.497l2.559-1.767-2.559 2.199v.281l1.725-1.083-1.725 1.588v.452l2.914-1.971z"/><path d="M562.14 145.996v.648l1.977-1.823zM562.14 164.054v.088l.379-.326zM562.14 164.715v1.035l4.379-4.058zM562.14 163.058v.247l1.012-.932zM562.14 155.64v.464l1.649-1.645zM562.14 157.605v1.115l4.561-4.106zM562.14 156.579v.803l4.08-3.556z"/></svg>