<svg xmlns="http://www.w3.org/2000/svg" width="272.687" height="337.292"><path fill="none" d="M272.645 139.755s-1.436-19.096-2.453-35.293c0 0 1.727-29.647-15.627-56.117 0 0-5.49-6.648-16.627-16.628v.007C227.434 25.651 212.9 21.583 212.9 21.583 198.154 18.59 180.586 8.41 180.586 8.41c-1.451-1.157-7.42-2.221-7.42-2.221h-25.529V0h-20.34v6.188H100.76c-3.471.2-7.035 1.064-7.035 1.064-16.781 10.613-44.547 17.94-44.547 17.94-6.371 2.128-13.498 5.599-13.498 5.599v-.031s-4.535 4.921-9.055 8.376c0 0-21.688 16.197-23.91 59.001l-.293 7.805-.586 6.371s-.184 7.914-.863 14.947c0 0-.293 14.068-.973 15.041 0 0 11.184 10.504 38.379 11.568 0 0 6.756.201 9.934-2.406 0 0-.215-1.928.078-7.035 0 0 .4-4.828.787-8.775 0 0-.865-13.684.678-23.91 0 0-.293-1.449 1.25-1.203.604 1.624 1.104 3.758 1.522 6.115l17.578 17.01 71.01.186 31.987 34.639 47.544-53.129c.842-3.179 1.687-4.805 1.687-4.805.203-.311.406-.641.609-.986-.174.49-.342.988-.5 1.51 0 0 .262.803.631 3.596 0 0 .371 7.666.51 21.256 0 0 .586 7.234.803 15.117 0 0 .939 2.822 7.018 2.744 0 0 16.846 1.65 38.533-8.9-.001-.001 3.038-2.02 2.607-5.138zm-37.027-64.821s-1.015 3.766-2.604 8.944l-51.507 57.94-8.334-8.818-8.185 8.98-17.708-19.147-56.29-.109-8.202-11.124-17.926.088-23.928-23.214c-.271-.77-.534-1.548-.789-2.333 0 0-2.272-8.967-4.152-19.877L82.788 111.6l70.585.185 19.8 21.216 64.443-72.407c-.4 5.008-1.028 9.993-1.998 14.34z"/><path fill="none" d="M173.203 168.49l-8.185 8.98-29.896-32.57-57.744-.11-7.173-11.124-15.819.003c.141 2.542.189 4.206.189 4.206 2.313 27.766 5.645 66.529 5.645 66.529 3.471 52.061-7.527 108.178-7.527 108.178a114.528 114.528 0 01-1.588 8.098c1.357 13.111 27.766 14.563 27.766 14.563 50.609 4.242 102.578.586 102.578.586 24.68-.479 32.1-5.492 32.1-5.492 7.143-3.084 8.299-8.576 8.299-8.576.586-1.543-.863-5.213-.863-5.213-5.521-32.131-7.914-56.596-7.914-56.596-2.406-26.223-.477-56.118-.477-56.118 2.313-17.646 4.533-51.676 4.533-51.676.579-5.384 1.063-11.18 1.438-16.207l-37.058 41.521-8.304-8.982z"/><path fill="#070708" d="M181.508 141.818l51.507-57.94c1.589-5.179 2.604-8.944 2.604-8.944.97-4.346 1.598-9.332 1.998-14.34L173.173 133l8.335 8.818zM40.145 86.141c.255.786.519 1.564.789 2.333l23.929 23.214 17.926-.088-46.797-45.336c1.88 10.91 4.153 19.877 4.153 19.877z"/><path fill="#070708" d="M82.788 111.6l8.202 11.125 56.29.108 17.708 19.147 8.185-8.98-19.8-21.215z"/><path fill="#FFF" d="M181.508 177.473l37.058-41.521c.563-7.574.876-13.395.876-13.395.319-2.927.813-5.328 1.306-7.195l-47.544 53.129 8.304 8.982zM52.628 116.656c1.005 5.672 1.518 12.645 1.759 17.013l15.819-.003-17.578-17.01zM135.123 144.9l29.896 32.571 8.184-8.981-31.987-34.638-71.01-.186 7.173 11.124z"/></svg>