<svg xmlns="http://www.w3.org/2000/svg" width="80" height="80"><g fill-rule="evenodd" clip-rule="evenodd"><path fill="#070708" d="M79.881 17.343L54.588 45.761l3.166 3.35 22.258-25.038zM.113 18.123l20.136 19.508-6.811.033L.006 24.633z"/><path fill="#FFF" d="M80.012 24.073L54.6 52.49l3.154 3.412 22.112-24.893zM.006 24.633L17.19 41.224l-6.648.02L.048 31.092z"/><path fill="#8D8F92" d="M79.866 31.009L54.6 59.245l3.154 3.412 22.132-24.798zM15.469 46.015l-7.108.001-8.373-8.086.06-6.838z"/><path fill="#070708" d="M54.588 45.761l-7.523-8.06-26.816-.07 3.116 4.226 21.386.041 6.728 7.275z"/><path fill="#8D8F92" d="M54.6 59.245l-12.154-13.16-26.977-.07 2.724 4.225 21.939.042 11.357 12.374z"/><path fill="#FFF" d="M54.6 52.49l-9.851-10.594-26.978-.071 3.311 4.227 21.353.041 9.054 9.808z"/></g></svg>