<svg xmlns="http://www.w3.org/2000/svg" viewBox="280.996 153.383 80 80"><path fill="#FFF" d="M353.457 170.412v-17.029h-72.188v80h3.188v-13.749l1.922-1.372v-64.873h4.336v79.994h4.938v-21.727l1.922-1.372v-56.893l4.307-.001v79.993h4.938v-29.706l1.923-1.372.01-48.916h4.311v79.994h4.938v-37.674l1.923-1.372V153.39l4.312-.001-.001 79.994h4.949V187.73l1.923-1.372v-32.969h4.301v79.994h4.948v-53.624l1.923-1.372.001-25 4.305.001v79.995h4.949v-61.599zM353.457 153.383l4.306.001-.001 79.999h3.234v-80z"/><path d="M286.379 153.389v64.873l-1.922 1.372v13.749h6.258v-79.994zM297.575 153.391v56.893l-1.922 1.372v21.727h6.229V153.39zM308.753 153.389l-.01 48.916-1.923 1.372v29.706h6.244v-79.994zM319.925 153.39v40.947l-1.923 1.372v37.674h6.234l.001-79.994zM331.108 153.389v32.969l-1.923 1.372v45.653h6.224v-79.994zM342.281 153.387l-.001 25-1.923 1.372v53.624h6.229v-79.995zM353.457 153.383v17.029l-1.922 1.372v61.599h6.227l.001-79.999z"/></svg>