<svg xmlns="http://www.w3.org/2000/svg" viewBox="1234.231 288.451 273.844 338.292"><path fill="none" d="M1456.759 608.601v2.031c.171-.528.131-1.27 0-2.031zM1507.534 428.707s-1.436-19.096-2.453-35.293c0 0 1.726-29.647-15.627-56.117 0 0-5.49-6.648-16.627-16.628v.007c-10.504-6.073-25.037-10.142-25.037-10.142-14.746-2.992-32.315-13.173-32.315-13.173-1.451-1.157-7.42-2.221-7.42-2.221h-25.529v-6.189h-20.34v6.189h-26.537c-3.471.2-7.035 1.064-7.035 1.064-16.781 10.613-44.547 17.94-44.547 17.94-6.371 2.128-13.498 5.599-13.498 5.599v-.031s-4.535 4.921-9.054 8.376c0 0-21.688 16.197-23.91 59.001l-.293 7.805-.586 6.371s-.184 7.914-.863 14.947c0 0-.293 14.068-.973 15.041 0 0 11.184 10.504 38.379 11.568 0 0 6.756.201 9.934-2.406 0 0-.215-1.928.078-7.035 0 0 .4-4.828.787-8.775 0 0-.865-13.684.678-23.91 0 0-.293-1.449 1.25-1.203 2.901 7.805 3.471 27.334 3.471 27.334 2.313 27.766 5.645 66.529 5.645 66.529 3.471 52.061-7.527 108.178-7.527 108.178a114.528 114.528 0 01-1.588 8.098c.296 2.86 1.785 5.165 3.932 7.022v-26.581c3-19.264 7.993-58.837 5.495-96.312 0 0-3.189-37.098-5.495-64.722v-116.22c4.591-1.386 11.516-3.625 18.818-6.51l.001 228.613-5.274 6.01v81.706c5.558 1.293 10.289 1.557 10.289 1.557 2.265.19 4.533.363 6.798.523v-323.6c2.963-1.463 5.807-3.018 8.391-4.652 0 0 3.566-.866 7.039-1.065h3.417l-.026 204.563-5.274 6.01v119.53c5.815.271 11.552.457 17.127.574V295.4h18.819v169.651l-5.274 6.01V626.24c6.052.02 11.795-.03 17.1-.122V295.4h18.848v134.691l-5.274 6.012v189.672a727.136 727.136 0 0017.071-.758V296.311c1.394.377 2.753.835 3.349 1.31 0 0 6.806 3.943 15.503 7.644l-.004 89.898-5.274 6.01v223.13c8.122-.656 13.595-1.836 17.087-2.889l.001-311.865c1.692.49 3.377.919 5.027 1.254 0 0 6.425 1.8 13.82 4.791v44.625l-5.273 6.01v34.581c.335-.86.563-1.303.563-1.303.203-.311.406-.641.609-.986-.174.49-.342.988-.5 1.51 0 0 .262.803.631 3.596 0 0 .371 7.666.51 21.256 0 0 .586 7.234.803 15.117 0 0 .939 2.822 7.018 2.744 0 0 16.846 1.65 38.533-8.9-.002-.001 3.037-2.02 2.606-5.137zm-229.5-45.891a111.523 111.523 0 01-2.634-7.224s-11.099-43.794-4.538-55.573c0 0 3.172-1.543 7.172-3.203v66z"/><path d="M1462.032 360.22v-44.625c-7.395-2.991-13.82-4.791-13.82-4.791a63.39 63.39 0 01-5.027-1.254l-.001 311.865c3.785-1.141 5.253-2.129 5.253-2.129 7.143-3.084 8.299-8.576 8.299-8.576.009-.024.014-.054.022-.079V608.6c-.264-1.523-.885-3.103-.885-3.103-5.521-32.131-7.914-56.596-7.914-56.596-2.406-26.223-.477-56.117-.477-56.117 2.313-17.646 4.533-51.676 4.533-51.676 1.451-13.496 2.314-29.602 2.314-29.602.582-5.332 1.736-8.919 2.429-10.697v-34.581l5.274-6.008zM1308.745 534.919l-.001-228.613c-7.302 2.885-14.227 5.124-18.818 6.51v116.22c2.306 27.624 5.495 64.722 5.495 64.722 2.498 37.475-2.495 77.048-5.495 96.312v26.581c3.529 3.053 8.833 4.888 13.545 5.984v-81.706l5.274-6.01zM1339.379 499.962l.026-204.563h-3.417c-3.473.199-7.039 1.065-7.039 1.065-2.583 1.633-5.428 3.188-8.391 4.652v323.6c4.537.319 9.064.578 13.546.787v-119.53l5.275-6.011zM1370.051 465.049V295.398h-18.819v330.677c4.645.098 9.175.148 13.546.162V471.06l5.273-6.011zM1275.4 375.592c.811 2.501 1.71 4.929 2.634 7.224v-66c-4 1.66-7.172 3.203-7.172 3.203-6.561 11.779 4.538 55.573 4.538 55.573zM1400.726 430.089V295.398h-18.848v330.718c4.939-.086 9.499-.208 13.575-.344V436.1l5.273-6.011zM1431.372 395.164l.004-89.898c-8.696-3.701-15.503-7.644-15.503-7.644-.596-.475-1.954-.934-3.349-1.31v328.703c2.465-.141 3.814-.236 3.814-.236 3.617-.07 6.853-.24 9.759-.474v-223.13l5.275-6.011z"/></svg>