<svg xmlns="http://www.w3.org/2000/svg" width="80.272" height="79.474"><g fill-rule="evenodd" clip-rule="evenodd"><path fill="#070708" d="M0 79.474h4.934l5.1-4.415H5.102zM0 75.059h4.934l5.1-4.415H5.102zM0 70.644h4.934l5.1-4.415H5.102zM0 66.229h4.934l5.1-4.416H5.102zM0 61.813h4.934l5.1-4.415H5.102zM0 57.398h4.934l5.1-4.416H5.102zM0 52.982h4.934l5.1-4.415H5.102zM0 48.567h4.934l5.1-4.415H5.102zM0 44.152h4.934l5.1-4.415H5.102zM0 39.737h4.934l5.1-4.415H5.102zM0 35.322h4.934l5.1-4.415H5.102zM0 30.907h4.934l5.1-4.416H5.102zM0 26.491h4.934l5.1-4.415H5.102zM0 22.076h4.934l5.1-4.415H5.102zM0 17.661h4.934l5.1-4.415H5.102zM0 13.246h4.934l5.1-4.415H5.102zM0 8.831h4.934l5.1-4.415H5.102zM0 4.416h4.934L10.034 0H5.102z"/><path fill="#8D8F92" d="M10.034 79.474h4.934l5.1-4.415h-4.932zM10.034 75.059h4.934l5.1-4.415h-4.932zM10.034 70.644h4.934l5.1-4.415h-4.932zM10.034 66.229h4.934l5.1-4.416h-4.932zM10.034 61.813h4.934l5.1-4.415h-4.932zM10.034 57.398h4.934l5.1-4.416h-4.932zM10.034 52.982h4.934l5.1-4.415h-4.932zM10.034 48.567h4.934l5.1-4.415h-4.932zM10.034 44.152h4.934l5.1-4.415h-4.932zM10.034 39.737h4.934l5.1-4.415h-4.932zM10.034 35.322h4.934l5.1-4.415h-4.932zM10.034 30.907h4.934l5.1-4.416h-4.932zM10.034 26.491h4.934l5.1-4.415h-4.932zM10.034 22.076h4.934l5.1-4.415h-4.932zM10.034 17.661h4.934l5.1-4.415h-4.932zM10.034 13.246h4.934l5.1-4.415h-4.932zM10.034 8.831h4.934l5.1-4.415h-4.932zM10.034 4.416h4.934L20.068 0h-4.932z"/><path fill="#070708" d="M20.068 79.474h4.933l5.102-4.415H25.17zM20.068 75.059h4.933l5.102-4.415H25.17zM20.068 70.644h4.933l5.102-4.415H25.17zM20.068 66.229h4.933l5.102-4.416H25.17zM20.068 61.813h4.933l5.102-4.415H25.17zM20.068 57.398h4.933l5.102-4.416H25.17zM20.068 52.982h4.933l5.102-4.415H25.17zM20.068 48.567h4.933l5.102-4.415H25.17zM20.068 44.152h4.933l5.102-4.415H25.17zM20.068 39.737h4.933l5.102-4.415H25.17zM20.068 35.322h4.933l5.102-4.415H25.17zM20.068 30.907h4.933l5.102-4.416H25.17zM20.068 26.491h4.933l5.102-4.415H25.17zM20.068 22.076h4.933l5.102-4.415H25.17zM20.068 17.661h4.933l5.102-4.415H25.17zM20.068 13.246h4.933l5.102-4.415H25.17zM20.068 8.831h4.933l5.102-4.415H25.17zM20.068 4.416h4.933L30.103 0H25.17zM40.137 79.474h4.932l5.102-4.415h-4.933zM40.137 75.059h4.932l5.102-4.415h-4.933zM40.137 70.644h4.932l5.102-4.415h-4.933zM40.137 66.229h4.932l5.102-4.416h-4.933zM40.137 61.813h4.932l5.102-4.415h-4.933zM40.137 57.398h4.932l5.102-4.416h-4.933zM40.137 52.982h4.932l5.102-4.415h-4.933zM40.137 48.567h4.932l5.102-4.415h-4.933zM40.137 44.152h4.932l5.102-4.415h-4.933zM40.137 39.737h4.932l5.102-4.415h-4.933zM40.137 35.322h4.932l5.102-4.415h-4.933zM40.137 30.907h4.932l5.102-4.416h-4.933zM40.137 26.491h4.932l5.102-4.415h-4.933zM40.137 22.076h4.932l5.102-4.415h-4.933zM40.137 17.661h4.932l5.102-4.415h-4.933zM40.137 13.246h4.932l5.102-4.415h-4.933zM40.137 8.831h4.932l5.102-4.415h-4.933zM40.137 4.416h4.932L50.171 0h-4.933zM60.205 79.474h4.932l5.101-4.415h-4.932zM60.205 75.059h4.932l5.101-4.415h-4.932zM60.205 70.644h4.932l5.101-4.415h-4.932zM60.205 66.229h4.932l5.101-4.416h-4.932zM60.205 61.813h4.932l5.101-4.415h-4.932zM60.205 57.398h4.932l5.101-4.416h-4.932zM60.205 52.982h4.932l5.101-4.415h-4.932zM60.205 48.567h4.932l5.101-4.415h-4.932zM60.205 44.152h4.932l5.101-4.415h-4.932zM60.205 39.737h4.932l5.101-4.415h-4.932zM60.205 35.322h4.932l5.101-4.415h-4.932zM60.205 30.907h4.932l5.101-4.416h-4.932zM60.205 26.491h4.932l5.101-4.415h-4.932zM60.205 22.076h4.932l5.101-4.415h-4.932zM60.205 17.661h4.932l5.101-4.415h-4.932zM60.205 13.246h4.932l5.101-4.415h-4.932zM60.205 8.831h4.932l5.101-4.415h-4.932zM60.205 4.416h4.932L70.238 0h-4.932z"/><path fill="#8D8F92" d="M30.103 79.474h4.932l5.102-4.415h-4.933zM30.103 75.059h4.932l5.102-4.415h-4.933zM30.103 70.644h4.932l5.102-4.415h-4.933zM30.103 66.229h4.932l5.102-4.416h-4.933zM30.103 61.813h4.932l5.102-4.415h-4.933zM30.103 57.398h4.932l5.102-4.416h-4.933zM30.103 52.982h4.932l5.102-4.415h-4.933zM30.103 48.567h4.932l5.102-4.415h-4.933zM30.103 44.152h4.932l5.102-4.415h-4.933zM30.103 39.737h4.932l5.102-4.415h-4.933zM30.103 35.322h4.932l5.102-4.415h-4.933zM30.103 30.907h4.932l5.102-4.416h-4.933zM30.103 26.491h4.932l5.102-4.415h-4.933zM30.103 22.076h4.932l5.102-4.415h-4.933zM30.103 17.661h4.932l5.102-4.415h-4.933zM30.103 13.246h4.932l5.102-4.415h-4.933zM30.103 8.831h4.932l5.102-4.415h-4.933zM30.103 4.416h4.932L40.137 0h-4.933zM50.171 79.474h4.933l5.101-4.415h-4.933zM50.171 75.059h4.933l5.101-4.415h-4.933zM50.171 70.644h4.933l5.101-4.415h-4.933zM50.171 66.229h4.933l5.101-4.416h-4.933zM50.171 61.813h4.933l5.101-4.415h-4.933zM50.171 57.398h4.933l5.101-4.416h-4.933zM50.171 52.982h4.933l5.101-4.415h-4.933zM50.171 48.567h4.933l5.101-4.415h-4.933zM50.171 44.152h4.933l5.101-4.415h-4.933zM50.171 39.737h4.933l5.101-4.415h-4.933zM50.171 35.322h4.933l5.101-4.415h-4.933zM50.171 30.907h4.933l5.101-4.416h-4.933zM50.171 26.491h4.933l5.101-4.415h-4.933zM50.171 22.076h4.933l5.101-4.415h-4.933zM50.171 17.661h4.933l5.101-4.415h-4.933zM50.171 13.246h4.933l5.101-4.415h-4.933zM50.171 8.831h4.933l5.101-4.415h-4.933zM50.171 4.416h4.933L60.205 0h-4.933zM70.238 79.474h4.933l5.101-4.415H75.34zM70.238 75.059h4.933l5.101-4.415H75.34zM70.238 70.644h4.933l5.101-4.415H75.34zM70.238 66.229h4.933l5.101-4.416H75.34zM70.238 61.813h4.933l5.101-4.415H75.34zM70.238 57.398h4.933l5.101-4.416H75.34zM70.238 52.982h4.933l5.101-4.415H75.34zM70.238 48.567h4.933l5.101-4.415H75.34zM70.238 44.152h4.933l5.101-4.415H75.34zM70.238 39.737h4.933l5.101-4.415H75.34zM70.238 35.322h4.933l5.101-4.415H75.34zM70.238 30.907h4.933l5.101-4.416H75.34zM70.238 26.491h4.933l5.101-4.415H75.34zM70.238 22.076h4.933l5.101-4.415H75.34zM70.238 17.661h4.933l5.101-4.415H75.34zM70.238 13.246h4.933l5.101-4.415H75.34zM70.238 8.831h4.933l5.101-4.415H75.34zM70.238 4.416h4.933L80.272 0H75.34z"/></g></svg>