<svg xmlns="http://www.w3.org/2000/svg" width="265.948" height="336.412"><path fill="none" d="M48.744 110.555c.05.725.067 1.834.064 3.238.004-1.406-.014-2.515-.064-3.238zM68.85 331.297l-.186-.028.186.028zM65.935 330.833l-.046-.008.046.008zM71.896 331.743l-.448-.063.448.063zM146.486 336.129zM168.735 334.653l-.574.052.574-.052zM86.877 333.533l-.51-.052.51.052zM172.319 334.32l-.057.006.057-.006zM162.649 335.163zM89.628 333.807l-.05-.005.05.005zM140.17 336.329zM120.99 336.128zM117.377 335.916z"/><path fill="none" d="M263.048 93.188c-.617-17.57-6.016-31.993-12.726-42.513-8.973-14.056-19.795-21.299-19.954-21.405a168.787 168.787 0 00-1.603 6.109l-5.973 8.424h-12.561l12.953-18.269c-.107-.048-.218-.102-.324-.149l-.068.096h-12.561l2.516-3.548c-3.208-.84-6.614-1.59-10.738-2.649-.103-.026-.209-.06-.312-.087l-4.455 6.283h-12.56l7.011-9.889c-3.527-1.529-6.918-3.211-9.686-4.66l-10.315 14.55h-4.556c5.691-3.976 9.916-9.826 8.311-18.322-.007-.039-.009-.075-.017-.114l.194.114c.269.157.821.478 1.586.91-.685-.876-2.254-1.586-3.062-2.347-1.557-1.467-1.426-2.082-3.867-2.718-4.528-1.18-12.605-2.255-17.936-2.22-2.642.017-3.538-.417-6.185-.405-2.203.009-4.411.025-6.611.023-2.364-.002-3.588-.359-6.063-.401H132.327c-4.062.042-7.631.409-12.149.385-6.569-.035-18.069 1.026-24.201 2.544-2.664.66-2.349.991-3.987 2.603-1.003.986-3.233 1.959-3.553 3.109-3.048 1.872-6.844 3.712-10.858 5.434l-8.088 11.407h-12.56l3.551-5.009c-6.367 2.119-11.047 3.44-11.047 3.44-1.924.554-3.57 1.077-5.014 1.568H56.93L43.94 43.803h-3.91a506.34 506.34 0 01-2.708-8.381l7.032-9.918c-7.184 2.453-8.803 4.055-8.803 4.055l.006.022c-6.675 4.612-12.716 11.563-12.716 11.563C3.609 59.359 2.313 101.733 2.313 101.733 2.021 118.516 0 137.735 0 137.735c18.51 9.98 46.275 9.842 46.275 9.842 1.296-.432 1.157-3.039 1.157-3.039 0-7.234 1.157-12.586 1.157-12.586.03-9.873.447-18.666.154-21.396.05.723.067 1.832.064 3.238.003-1.404-.015-2.514-.064-3.238-.063-.785-.154-1.141-.293-.879l1.442-4.742-.069-.207s-.453-2.406-1.078-5.961h8.187l-6.267 8.839c.642 2.828 1.066 6.164 1.343 9.483h4.924l-4.543 6.409c.207 5.467.103 9.733.103 9.733l.041 2.178h4.4l-4.277 6.033c.101 4.549.208 8.636.317 12.29h3.96l-3.79 5.345c.188 5.537.375 9.824.53 12.976h3.259l-3.03 4.274c.11 1.865.178 2.748.178 2.748.061 4.323.405 8.251.771 11.299h2.081l-1.754 2.475c.349 2.425.646 3.873.646 3.873.278 4.097.491 8.098.655 11.974h.454l-.428.604c.259 6.312.381 12.267.417 17.719h.011l-.011.016a516.156 516.156 0 01-.202 18.306h.213l-.222.313c-.242 8.12-.594 12.972-.594 12.972-.161 1.695-.33 3.371-.502 5.036h1.318l-1.549 2.185a617.364 617.364 0 01-1.954 16.137h3.503l-4.357 6.146a662.898 662.898 0 01-1.869 12.176h6.226l-8.238 11.619a412.18 412.18 0 01-1.285 6.702h9.522l-6.174 8.709c2.925 1.022 6.73 1.941 11.031 2.762l8.133-11.471h12.561l12.99-18.321h12.56l12.989-18.322h12.561l12.99-18.321h12.56l12.99-18.321h12.56l-12.989 18.321h-12.561l-12.99 18.321h-12.56l-12.99 18.322h-12.56l-12.99 18.321h-12.56l-9.417 13.281c3.946.54 8.006 1.019 11.972 1.437l10.435-14.718h12.56l12.989-18.321h12.561l12.99-18.322h12.56l12.99-18.321h12.56l-12.989 18.321h-12.561l-12.99 18.322h-12.56l-12.99 18.321h-12.56L96.81 334.454c4.902.414 9.199.719 12.335.925l11.878-16.754h12.561l12.99-18.321h12.56l12.99-18.322h12.56l-12.989 18.322h-12.561l-12.99 18.321h-12.56l-12.416 17.511c4.168.202 8.456.286 12.797.273l12.608-17.784h12.56l12.99-18.321h12.56l-12.989 18.321h-12.561l-12.403 17.494c4.554-.187 9.093-.453 13.54-.776l11.853-16.718h12.56l-11.035 15.564a592.452 592.452 0 0014.1-1.565l9.925-13.999h12.56l6.85-9.661a752.195 752.195 0 01-1.35-8.66h-5.5l-12.99 18.321h-12.56l12.989-18.321h12.56l4.562-6.435c-.578-4.096-1.1-8.057-1.572-11.888h-2.99l-12.99 18.322h-12.56l12.989-18.322h12.56l2.555-3.604a609.478 609.478 0 01-1.555-14.718h-1l-12.99 18.321h-12.56l12.989-18.321h12.56l.884-1.245c-.54-5.93-.947-11.446-1.25-16.56l-12.623 17.805h-12.56l12.989-18.321h12.164a431.642 431.642 0 01-.662-16.829l-11.932 16.829h-12.56l12.989-18.321h11.478c-.103-6.859.001-12.541.186-17.057l-12.092 17.057h-12.56l12.989-18.322h11.718c.372-8.047.979-12.019.979-12.019.253-1.567.498-3.74.731-6.303h-.868l-12.99 18.321h-12.56l12.989-18.321h12.56l.992-1.398c.415-4.882.791-10.934 1.111-16.923h-2.103l-12.99 18.321h-12.56l12.989-18.321h12.56l2.269-3.199c.286-5.656.518-11.053.682-15.122h-2.95l-12.99 18.321h-12.56l12.989-18.321h12.56l3.122-4.402c.065-1.759.101-2.786.101-2.786.386-4.828.201-10.227.201-10.227-.018-.306-.032-.604-.047-.907h-3.376l3.218-4.538c-.091-5.368.17-9.994.563-13.784h-3.781l-12.99 18.32h-12.56l12.989-18.32h12.56l4.715-6.651c.59-3.26 1.143-5.101 1.214-5.33 2.06 4.027 1.629 25.824 1.629 25.824-.139 1.883.293 4.629.293 4.629.864 6.369.586 10.998.586 10.998 10.258 4.904 47.279-8.547 47.279-8.547-.86-13.881-2.896-44.822-2.896-44.822zm-215.236.124c-.688-4.127-1.414-8.771-1.941-12.866h11.063l-9.122 12.866zm-2.225-15.184a98.622 98.622 0 01-.347-3.502s-.134-5.227-1.059-12.231l.192-.271h12.56L45.587 78.128zm-1.474-16.243c-.578-4.251-1.447-9.109-2.749-13.839l3.009-4.244h12.56l-12.82 18.083zm96.515-28.02a111.06 111.06 0 005.721-.624s3.852-.539 8.766-2.094l-8.972 12.654h-12.56l7.045-9.936zm-13.166.249l-6.869 9.688h-12.56l7.883-11.118c2.905.604 6.777 1.188 11.546 1.43zm-21.997-5.011L95.043 43.802h-12.56l12.99-18.321h3.967c1.69 1.245 3.679 2.463 6.025 3.622zM90.773 13.788c.748 2.775 2.414 6.104 5.9 9.394l-1.63 2.299h-12.56l8.29-11.693zm-20.85 11.693h12.561l-12.99 18.321h-12.56l12.989-18.321zm0 18.322h12.561l-12.99 18.321h-12.56l12.989-18.321zm0 18.321h12.561l12.99-18.322h12.56l-12.99 18.322h-12.56l-12.99 18.321h-12.56l12.989-18.321zm0 18.321h12.561l12.99-18.321h12.56l12.989-18.321h12.561l-12.99 18.321h-12.56l-12.99 18.321h-12.56l-12.99 18.321h-12.56l12.989-18.321zm0 18.322h12.561l12.99-18.321h12.56l12.989-18.321h12.561l12.99-18.322h12.56l-12.99 18.322h-12.56l-12.99 18.321h-12.56l-12.99 18.321h-12.56l-12.99 18.322h-12.56l12.989-18.322zm0 54.964h12.561l12.99-18.322h12.56l-12.99 18.322h-12.56l-12.99 18.321h-12.56l12.989-18.321zm-12.989 0l12.989-18.321h12.561l-12.99 18.321h-12.56zm12.989 18.322h12.561l12.99-18.321h12.56l12.989-18.321h12.561l-12.99 18.321h-12.56l-12.99 18.321h-12.56l-12.99 18.321h-12.56l12.989-18.321zm0 18.321h12.561l12.99-18.321h12.56l12.989-18.321h12.561l12.99-18.322h12.56l-12.99 18.322h-12.56l-12.99 18.321h-12.56l-12.99 18.321h-12.56l-12.99 18.322h-12.56l12.989-18.322zm0 18.322h12.561l-12.99 18.321h-12.56l12.989-18.321zm0 18.322h12.561l12.99-18.322h12.56l-12.99 18.322h-12.56l-12.99 18.321h-12.56l12.989-18.321zm0 18.321h12.561l12.99-18.321h12.56l12.989-18.321h12.561l-12.99 18.321h-12.56l-12.99 18.321h-12.56l-12.99 18.321h-12.56l12.989-18.321zm0 18.321h12.561l12.99-18.321h12.56l12.989-18.321h12.561l12.99-18.322h12.56l-12.99 18.322h-12.56l-12.99 18.321h-12.56l-12.99 18.321h-12.56l-12.99 18.321h-12.56l12.989-18.321zm101.77-18.321h-12.561l-12.99 18.321h-12.56l-12.99 18.321h-12.56l-12.99 18.322h-12.56l-12.99 18.321h-12.56l12.989-18.321h12.561l12.99-18.322h12.56l12.989-18.321h12.561l12.99-18.321h12.56l12.99-18.321h12.56l-12.989 18.321zm0-18.321h-12.561l-12.99 18.321h-12.56l-12.99 18.321h-12.56l-12.99 18.321h-12.56l-12.99 18.322h-12.56l12.989-18.322h12.561l12.99-18.321h12.56l12.989-18.321h12.561l12.99-18.321h12.56l12.99-18.321h12.56l-12.989 18.321zm0-18.322h-12.561l12.99-18.322h12.56l-12.989 18.322zm0-18.322h-12.561l-12.99 18.321h-12.56l12.99-18.321h12.56l12.99-18.321h12.56l-12.989 18.321zm0-18.321h-12.561l-12.99 18.321h-12.56l-12.99 18.322h-12.56l12.989-18.322h12.561l12.99-18.321h12.56l12.99-18.321h12.56l-12.989 18.321zm0-18.322h-12.561l-12.99 18.321h-12.56l-12.99 18.321h-12.56l-12.99 18.321h-12.56l12.99-18.321h12.56l12.989-18.321h12.561l12.99-18.321h12.56l12.99-18.321h12.56l-12.989 18.321zm0-18.321h-12.561l12.99-18.321h12.56l-12.989 18.321zm0-18.321h-12.561l-12.99 18.32h-12.56l12.99-18.32h12.56l12.99-18.322h12.56l-12.989 18.322zm0-18.322h-12.561l-12.99 18.322h-12.56l-12.99 18.321h-12.56l12.989-18.321h12.561l12.99-18.322h12.56l12.99-18.321h12.56l-12.989 18.321zm0-18.322h-12.561l-12.99 18.321h-12.56l-12.99 18.322h-12.56l-12.99 18.32h-12.56l12.99-18.32h12.56l12.989-18.322h12.561l12.99-18.321h12.56l12.99-18.321h12.56l-12.989 18.321zm0-18.321h-12.561l-12.99 18.321h-12.56l-12.99 18.321h-12.56l-12.99 18.322h-12.56l-12.99 18.321h-12.56l12.989-18.321h12.561l12.99-18.322h12.56l12.989-18.321h12.561l12.99-18.321h12.56l12.99-18.321h12.56l-12.989 18.321zm0-18.321h-12.561l12.99-18.321h12.56l-12.989 18.321zm25.979 91.606h12.561l-12.99 18.322h-12.56l12.989-18.322zm0-109.929h12.561l-12.99 18.321h-12.56l12.989-18.321zm0 18.322h12.561l-12.99 18.322h-12.56l12.989-18.322zm19.338 54.965h-6.777l-12.99 18.322h-12.56l12.989-18.322h12.56l8.618-12.154a490.172 490.172 0 00-1.84 12.154zm5.581-32.893a692.928 692.928 0 00-2.7 14.571h-9.658l-12.99 18.321h-12.56l12.989-18.321h12.56l12.99-18.321h.022a246.41 246.41 0 00-.653 3.75zm.807-4.604l-.605.854h-12.56l-12.99 18.321h-12.56l12.989-18.321h12.56l12.99-18.321h3.617c-1.442 6.696-2.679 13.26-3.441 17.467z"/><path fill="none" d="M201.63 330.758c7.804-1.139 12.596-1.995 12.596-1.995a13.108 13.108 0 002.574-1.08l2.812-3.966c-.31-1.716-.611-3.412-.904-5.092h-8.476l-8.602 12.133z"/><path fill="#000202" d="M47.411 318.625c-.625 3.117-1.043 4.965-1.135 5.218l-.386 1.064c1.04.867 2.718 1.675 4.869 2.427l6.174-8.709h-9.522zM50.707 300.304a589.9 589.9 0 01-2.012 11.619l8.238-11.619h-6.226zM53.43 281.981a638.676 638.676 0 01-.854 6.146l4.357-6.146H53.43zM55.615 263.66c-.076.731-.152 1.46-.23 2.185l1.549-2.185h-1.319zM56.72 245.339l-.009.313.222-.313h-.213zM56.922 227.018v.015l.011-.015zM56.479 208.695l.026.604.428-.604h-.454zM54.852 190.374c.109.91.22 1.735.327 2.475l1.754-2.475h-2.081zM53.674 172.053c.088 1.776.166 3.19.229 4.274l3.03-4.274h-3.259zM52.973 153.731c.057 1.899.114 3.678.171 5.345l3.79-5.345h-3.961zM52.533 135.409c.04 2.094.081 4.106.123 6.033l4.277-6.033h-4.4zM52.009 117.089c.184 2.198.304 4.385.38 6.409l4.543-6.409h-4.923zM48.747 98.767c.625 3.555 1.078 5.961 1.078 5.961l.069.207.002-.008.422 1.264c.124.453.238.929.349 1.416l6.267-8.839h-8.187zM47.812 93.312l9.122-12.866H45.87c.528 4.095 1.254 8.739 1.942 12.866zM44.181 62.395c.925 7.005 1.059 12.231 1.059 12.231.083 1.059.202 2.241.347 3.502l11.346-16.004h-12.56l-.192.271zM41.364 48.046c1.302 4.729 2.171 9.588 2.749 13.839l12.82-18.083h-12.56l-3.009 4.244zM40.033 43.802h3.91l12.99-18.321H44.424l-.066.022-7.032 9.918c1.04 3.326 2.048 6.4 2.707 8.381zM95.473 318.625l-10.435 14.718 1.329.139.51.052a573.035 573.035 0 002.751.274c2.488.239 4.899.455 7.182.647l11.224-15.829H95.473zM108.033 300.304h-12.56l-12.99 18.321h12.56zM82.483 300.304h12.56l12.99-18.323h-12.56zM82.483 281.981h12.56l12.99-18.321h-12.56zM108.033 245.339h-12.56l-12.99 18.321h12.56zM108.033 227.018h-12.56l-12.99 18.321h12.56zM108.033 208.695h-12.56l-12.99 18.323h12.56zM82.483 208.695h12.56l12.99-18.321h-12.56zM108.033 172.053h-12.56l-12.99 18.321h12.56zM108.033 153.731h-12.56l-12.99 18.322h12.56zM108.033 135.409h-12.56l-12.99 18.322h12.56zM82.483 135.409h12.56l12.99-18.32h-12.56zM82.483 117.089h12.56l12.99-18.322h-12.56zM108.033 80.445h-12.56l-12.99 18.322h12.56zM108.033 62.124h-12.56l-12.99 18.321h12.56zM108.033 43.802h-12.56l-12.99 18.322h12.56zM82.483 43.802h12.56l10.422-14.699c-2.347-1.158-4.335-2.377-6.025-3.622h-3.967l-12.99 18.321zM96.673 23.182c-3.487-3.289-5.153-6.618-5.9-9.394l-8.29 11.692h12.56l1.63-2.298zM146.573 318.625l-12.608 17.784h.171c2.003-.008 4.017-.035 6.035-.08l.323-.008c1.996-.047 3.995-.112 5.992-.192l.244-.01 12.403-17.494h-12.56zM159.133 300.304h-12.56l-12.99 18.321h12.56zM159.133 281.981h-12.56l-12.99 18.323h12.56zM159.133 263.66h-12.56l-12.99 18.321h12.56zM133.583 263.66h12.56l12.99-18.321h-12.56zM133.583 245.339h12.56l12.99-18.321h-12.56zM159.133 208.695h-12.56l-12.99 18.323h12.56zM133.583 208.695h12.56l12.99-18.321h-12.56zM133.583 190.374h12.56l12.99-18.321h-12.56zM133.583 172.053h12.56l12.99-18.322h-12.56zM159.133 135.409h-12.56l-12.99 18.322h12.56zM133.583 135.409h12.56l12.99-18.32h-12.56zM133.583 117.089h12.56l12.99-18.322h-12.56zM133.583 98.767h12.56l12.99-18.322h-12.56zM133.583 80.445h12.56l12.99-18.321h-12.56zM159.133 43.802h-12.56l-12.99 18.322h12.56zM155.115 31.147c-4.915 1.555-8.766 2.094-8.766 2.094a110.94 110.94 0 01-5.721.624l-7.045 9.937h12.56l8.972-12.655zM210.232 318.625h-12.56l-9.925 13.999a625.813 625.813 0 0013.883-1.866l8.602-12.133zM197.672 300.304l-12.989 18.321h12.56l12.99-18.321h-.001zM197.672 281.981l-12.989 18.323h12.56l12.99-18.323h-.001zM197.672 263.66l-12.989 18.321h12.56l12.99-18.321h-.001zM184.683 263.66h12.56l12.623-17.805-.03-.517h-12.164l-12.989 18.322zM184.683 245.339h12.56l11.932-16.829c-.01-.505-.018-.999-.025-1.492h-11.478l-12.989 18.321zM184.683 227.018h12.56l12.092-17.057c.018-.433.036-.854.055-1.266h-11.718l-12.989 18.323zM197.672 190.374l-12.989 18.321h12.56l12.99-18.321h-.001zM197.672 172.053l-12.989 18.321h12.56l12.99-18.321h-.001zM197.672 153.731l-12.989 18.322h12.56l12.99-18.322h-.001zM197.243 153.731l12.99-18.322h-12.561l-12.989 18.322zM197.672 117.089l-12.989 18.32h12.56l12.99-18.32h-.001zM197.672 98.767l-12.989 18.322h12.56l12.99-18.322h-.001zM197.672 80.445l-12.989 18.322h12.56l12.99-18.322h-.001zM197.672 62.124l-12.989 18.321h12.56l12.99-18.321h-.001zM210.233 43.802h-12.561l-12.989 18.322h12.56zM210.233 25.48h-12.561l-12.989 18.322h12.56zM197.243 25.48l4.455-6.283c-3.176-.842-6.648-2.151-10.003-3.606l-7.011 9.889h12.559z"/><path fill="#FFF" d="M69.923 318.625l-8.133 11.471c1.324.253 2.694.496 4.099.729l.046.008a253.896 253.896 0 005.513.847c.149.021.298.043.448.063.389.056.779.109 1.17.163l9.417-13.281h-12.56zM56.934 318.625h12.559l12.99-18.321h-12.56zM56.934 300.304h12.559l12.99-18.323h-12.56zM82.483 263.66h-12.56l-12.989 18.321h12.559zM82.483 245.339h-12.56L56.934 263.66h12.559zM82.483 227.018h-12.56l-12.989 18.321h12.559zM82.483 208.696h-12.56l-12.989 18.322h12.559zM82.483 190.374h-12.56l-12.989 18.322h12.559zM82.483 172.053h-12.56l-12.989 18.321h12.559zM82.483 153.731h-12.56l-12.989 18.322h12.559zM69.923 135.41l-12.989 18.321h12.559l12.99-18.321zM56.934 135.41h12.559l12.99-18.321h-12.56zM82.483 98.767h-12.56l-12.989 18.322h12.559zM82.483 80.445h-12.56L56.934 98.767h12.559zM82.483 62.124h-12.56L56.934 80.445h12.559zM82.483 43.803h-12.56L56.934 62.124h12.559zM82.483 25.481h-12.56L56.934 43.803h12.559zM69.493 25.481l8.088-11.407c-5.764 2.472-11.974 4.693-17.097 6.398l-3.551 5.009h12.56zM121.022 318.625l-11.878 16.754c3.36.22 5.389.325 5.389.325.166.014.334.025.5.039.776.063 1.557.12 2.344.173l.708.048c.961.061 1.93.116 2.905.164l.177.008 12.416-17.511h-12.561zM133.583 300.304h-12.561l-12.989 18.321h12.56zM133.583 281.981h-12.561l-12.989 18.323h12.56zM108.033 281.981h12.56l12.99-18.321h-12.561zM108.033 263.66h12.56l12.99-18.321h-12.561zM133.583 227.018h-12.561l-12.989 18.321h12.56zM133.583 208.696h-12.561l-12.989 18.322h12.56zM108.033 208.696h12.56l12.99-18.322h-12.561zM108.033 190.374h12.56l12.99-18.321h-12.561zM133.583 153.731h-12.561l-12.989 18.322h12.56zM133.583 135.41h-12.561l-12.989 18.321h12.56zM108.033 135.41h12.56l12.99-18.321h-12.561zM108.033 117.089h12.56l12.99-18.322h-12.561zM108.033 98.767h12.56l12.99-18.322h-12.561zM133.583 62.124h-12.561l-12.989 18.321h12.56zM133.583 43.803h-12.561l-12.989 18.321h12.56zM120.593 43.803l6.869-9.688c-4.769-.242-8.641-.826-11.546-1.43l-7.883 11.118h12.56zM172.123 318.625l-11.853 16.718c.421-.03.839-.063 1.258-.094l1.121-.086c1.858-.145 3.697-.297 5.512-.458l.574-.052c1.187-.106 2.364-.216 3.527-.327l.057-.006 1.329-.131 11.035-15.564h-12.56zM184.683 300.304h-12.56l-12.99 18.321h12.56zM184.683 281.981h-12.56l-12.99 18.323h12.56zM184.683 263.66h-12.56l-12.99 18.321h12.56zM184.683 245.339h-12.56l-12.99 18.321h12.56zM159.133 245.339h12.56l12.99-18.321h-12.56zM159.133 227.018h12.56l12.99-18.322h-12.56zM159.133 208.696h12.56l12.99-18.322h-12.56zM159.133 190.374h12.56l12.99-18.321h-12.56zM159.133 172.053h12.56l12.99-18.322h-12.56zM159.133 153.731h12.56l12.99-18.321h-12.56zM159.133 135.41h12.56l12.99-18.321h-12.56zM159.133 117.089h12.56l12.99-18.322h-12.56zM159.133 98.767h12.56l12.99-18.322h-12.56zM159.133 80.445h12.56l12.99-18.321h-12.56zM159.133 62.124h12.56l12.99-18.321h-12.56zM159.133 43.803h12.56l12.99-18.322h-12.56zM175.432 7.045c.008.039.01.075.017.114 1.605 8.496-2.619 14.347-8.311 18.322h4.556l10.315-14.55a175.893 175.893 0 01-4.561-2.474 1.785 1.785 0 00-.235-.389c-.766-.432-1.318-.752-1.586-.91l-.195-.113zM219.826 324.907c-.073-.4-.142-.793-.214-1.19l-2.812 3.966c2.335-1.3 3.026-2.776 3.026-2.776zM210.233 318.625h8.476a789.075 789.075 0 01-1.626-9.661l-6.85 9.661zM210.233 300.304h5.5a719.543 719.543 0 01-.938-6.435l-4.562 6.435zM210.233 281.981h2.99a644.79 644.79 0 01-.435-3.604l-2.555 3.604zM210.233 263.66h1l-.117-1.245-.883 1.245zM210.233 190.374h.868c.042-.455.083-.92.123-1.398l-.991 1.398zM210.233 172.053h2.103c.057-1.071.112-2.14.166-3.199l-2.269 3.199zM210.233 153.731h2.95c.07-1.739.127-3.232.171-4.402l-3.121 4.402zM213.609 135.41c-.082-1.565-.134-3.08-.159-4.538l-3.218 4.538h3.377zM210.233 117.089h3.781c.273-2.63.609-4.855.934-6.651l-4.715 6.651zM210.233 98.767h6.777c.416-3.02 1.016-7.107 1.841-12.154l-8.618 12.154zM210.232 80.445h9.658c.757-4.349 1.65-9.221 2.7-14.571-.004.004.234-1.414.654-3.75h-.022l-12.99 18.321zM210.232 62.124h12.561l.605-.854c.762-4.206 1.999-10.771 3.441-17.467h-3.617l-12.99 18.321zM222.793 43.803l5.973-8.424a168.244 168.244 0 011.603-6.109.042.042 0 01-.007-.005c-2.64-1.543-4.981-2.745-7.176-3.73l-12.953 18.269h12.56zM222.793 25.481l.068-.096c-3.552-1.571-6.722-2.563-10.113-3.452l-2.516 3.548h12.561z"/></svg>