<svg xmlns="http://www.w3.org/2000/svg" width="265.948" height="336.412"><path fill="none" d="M48.744 110.555c.05.725.067 1.834.064 3.238.004-1.406-.014-2.515-.064-3.238zM212.389 274.908l.056.493-.056-.493zM210.874 259.674l.112 1.269-.112-1.269zM213.333 282.874l.056.448-.056-.448zM90.495 7.1c-.881.604-1.853 1.226-2.233 1.905a41.405 41.405 0 002.127-1.376c-.299 1.799-.754 7.788 4.746 13.984 2.843 3.316 7.367 6.705 14.517 9.545 0 0 13.146 5.474 36.312 2.306 0 0 5.542-.78 11.787-3.183 9.001-3.324 19.732-9.959 17.815-22.402.312.181.699.403 1.158.663-.316-.336-.749-.648-1.2-.95-.029-.174-.041-.339-.075-.515 0 0 .657.39 1.787 1.028-.669-.893-2.265-1.612-3.084-2.383-1.557-1.467-1.426-2.082-3.867-2.718-4.528-1.18-12.605-2.255-17.936-2.22-2.642.017-3.538-.417-6.185-.405-2.203.009-4.411.025-6.611.023-2.364-.002-3.588-.359-6.063-.401H132.331c-4.062.042-7.631.409-12.149.385-6.569-.035-18.069 1.026-24.201 2.544-2.664.66-2.349.991-3.987 2.603-.912.896-2.823 1.784-3.405 2.802a37.202 37.202 0 001.914-1.256c-.003-.002-.006.013-.008.021zM211.173 263.026l.119 1.271-.119-1.271zM212.828 278.712l.087.732-.087-.732zM211.971 271.085l.005.047-.005-.047zM211.514 266.596l.107 1.087c-.037-.365-.072-.725-.107-1.087z"/><path fill="none" d="M48.918 100.086a617.081 617.081 0 01-1.345-7.843l.077.024c-.996-6.045-2.031-12.977-2.394-17.609 0 0-.386-15.236-4.446-28.558 0 0-3.036-8.913-5.254-16.544l-.001.001.006.022c-6.675 4.612-12.716 11.563-12.716 11.563C3.609 59.359 2.313 101.733 2.313 101.733 2.021 118.516 0 137.735 0 137.735c18.51 9.98 46.275 9.842 46.275 9.842 1.296-.432 1.157-3.039 1.157-3.039 0-7.234 1.157-12.586 1.157-12.586.03-9.873.447-18.666.154-21.396.05.723.067 1.832.064 3.238.003-1.404-.015-2.514-.064-3.238-.063-.785-.154-1.141-.293-.879l1.444-4.75.095.284 7.729 3.702-8.8-8.827zM215.097 295.982l.05.349a36.612 36.612 0 01-.05-.349zM214.223 328.757s-44.338 7.928-83.204 7.646c38.852.289 83.207-7.641 83.207-7.641 4.442-1.357 5.6-3.855 5.6-3.855l-.001-.007c-.017.037-1.188 2.508-5.602 3.857z"/><path fill="none" d="M263.048 93.188c-.617-17.57-6.016-31.993-12.726-42.513-8.786-13.764-19.348-20.997-19.933-21.391-2.389 8.377-4.787 20.292-6.277 28.234l-43.944-23.464.011.014 43.855 23.416c-.934 4.977-1.513 8.395-1.506 8.389a663.553 663.553 0 00-3.923 21.859l-23.188-12.899-.021-.021-6.786-3.775 4.271 5.516-71.316-37.063.01.012 71.228 37.016 12.086 15.607-22.656-5.807 24.292 25.932-67.371-36.476 25.815 31.993-36.473-12.252 40.093 35.142L90.43 95.571l26.526 22.178-26.619-5.903 29.236 24.072-50.599-16.359 16.451 17.188-32.293-16.115 23.495 21.75-24.109-12.479c.005 2.048-.026 3.329-.026 3.329.586 32.826 1.589 45.844 1.589 45.844.139 9.842 1.743 17.646 1.743 17.646 2.313 34.137.293 61.902.293 61.902-3.332 35.139-9.456 64.154-9.842 65.219l-.386 1.064c6.405 5.338 36.813 8.458 54.939 9.874l26.031-3.853-12.163-9.934 29.796 2.504-19.173-9.122 40.368.277-12.47-11.76 27.005.975-16.438-11.214 33.854 1.219-17.974-18.459 25.272 3.428-15.959-20.278 17.654 8.101-7.232-12.521 11.208 2.346.049.587c-3.307-40.685-.287-60.4-.287-60.4 1.743-10.799 3.085-50.133 3.085-50.133.386-4.828.201-10.227.201-10.227-1.126-19.146 2.321-30.613 2.505-31.209 2.06 4.027 1.629 25.824 1.629 25.824-.139 1.883.293 4.629.293 4.629.864 6.369.586 10.998.586 10.998 10.258 4.904 47.279-8.547 47.279-8.547-.863-13.883-2.899-44.824-2.899-44.824zM218.054 314.818l.028.165a9.47 9.47 0 01-.028-.165z"/><path fill="#000202" d="M172.692 51.501l22.804 23.365-.099-.055.021.021 23.188 12.899a663.08 663.08 0 013.923-21.859c-.006.006.572-3.412 1.506-8.389L180.18 34.067l19.402 24.048-26.89-6.614zM53.132 120.631l32.293 16.115-16.451-17.188 50.599 16.359-29.236-24.072 26.619 5.903L90.43 95.571l78.16 35.086-40.093-35.142 36.473 12.252-25.815-31.993 67.371 36.476-24.292-25.932 22.656 5.807-12.086-15.607-71.228-37.016 30.629 36.434-43.287-13.958 47.583 40.033-92.764-39.969 31.482 25.264-31.592-6.726 34.698 27.423-50.674-15.726-.001-.01-.077-.024c.486 2.952.961 5.687 1.345 7.843l8.802 8.826-7.729-3.702.327.98c1.903 6.972 2.186 18.171 2.201 23.712l24.109 12.479-23.496-21.75zM199.4 254.145l7.232 12.521-17.654-8.101 15.959 20.278-25.272-3.428 17.974 18.459-33.854-1.219 16.438 11.214-27.005-.975 12.47 11.76-40.368-.277 19.173 9.122-29.796-2.504 12.163 9.934-26.031 3.853c8.067.63 13.704.923 13.704.923 5.275.441 10.823.657 16.486.699 38.865.281 83.204-7.646 83.204-7.646 4.414-1.349 5.585-3.82 5.602-3.856a818.425 818.425 0 01-1.771-10.082 770.776 770.776 0 01-2.907-18.487l-.05-.349a700.496 700.496 0 01-1.708-12.66l-.056-.448a660.759 660.759 0 01-.419-3.43l-.087-.732c-.132-1.115-.26-2.219-.383-3.311l-.056-.493a645.076 645.076 0 01-.413-3.776l-.005-.047a750.474 750.474 0 01-.457-4.489c-.076-.772-.15-1.539-.221-2.298-.041-.426-.08-.85-.119-1.271l-.188-2.084-.112-1.269c-.076-.876-.147-1.74-.217-2.597l-.049-.587-11.207-2.347z"/><path fill="#FFF" d="M45.256 74.658c.363 4.632 1.398 11.563 2.394 17.609l.001.01 50.674 15.726L63.627 80.58l31.592 6.726-31.482-25.264 92.763 39.969-47.583-40.033 43.287 13.958-30.629-36.434-.01-.012 71.316 37.062-4.271-5.516 6.786 3.775.099.055-22.804-23.365 26.89 6.614-19.401-24.048-.011-.014 43.944 23.464c1.49-7.942 3.888-19.857 6.277-28.234a.688.688 0 01-.028-.019c-11.137-6.51-17.061-7.08-28.352-9.98-8.791-2.258-20.019-8.272-24.562-10.827a1.764 1.764 0 00-.213-.353 110.735 110.735 0 01-1.787-1.028c.034.176.045.341.075.515.451.302.884.614 1.2.95-.459-.26-.846-.482-1.158-.663 1.917 12.443-8.814 19.078-17.815 22.402-6.245 2.403-11.787 3.183-11.787 3.183-23.166 3.168-36.312-2.306-36.312-2.306-7.149-2.84-11.674-6.229-14.517-9.545-5.5-6.196-5.045-12.185-4.746-13.984-.665.459-1.37.919-2.127 1.376.38-.68 1.352-1.301 2.233-1.905.003-.007.006-.022.006-.022-.593.419-1.24.838-1.914 1.256-.058.102-.119.203-.147.308-12.867 7.9-39.001 15.271-39.001 15.271-11.548 3.326-13.874 5.637-13.882 5.645 2.218 7.631 5.254 16.544 5.254 16.544 4.06 13.321 4.446 28.557 4.446 28.557z"/></svg>