<svg xmlns="http://www.w3.org/2000/svg" width="80" height="80"><g fill-rule="evenodd" clip-rule="evenodd"><path fill="#D0D1D3" d="M0 23.958v1.51l6.404 1.915z"/><path fill="#D0D1D3" d="M0 0v22.823l10.526 3.034-7.707-4.652 23.704 4.428-13.696-6.516 12.47 1.598-12.427-6.003 36.617 9.497-18.783-9.512 17.087 3.317-12.094-8.66 28.151 8.806-1.686-1.311 2.718.91-9.002-5.551 10.615 1.571-7.663-5.717L80 14.866V80H0h80V0z"/><path d="M80 14.866L58.83 8.062l7.663 5.717-10.615-1.571 9.002 5.551L80 22.823zM17.989 33.811l-9.274-5.169 12.747 3.83-6.494-4.085 19.973 3.887-11.54-5.719 10.507 1.402-10.47-5.269 30.852 8.337-15.826-8.351 14.397 2.911-10.19-7.602 26.594 8.668-9.589-6.162 8.943 1.38-4.771-3.709-28.151-8.806 12.094 8.66-17.087-3.317 18.783 9.512-36.617-9.497 12.427 6.003-12.47-1.598 13.696 6.516-23.704-4.428 7.707 4.652L0 22.823v1.135l6.404 3.425L0 25.468v2.737z"/><path fill="#D0D1D3" d="M64.88 17.759l-2.718-.91 1.686 1.311 3.411 1.067z"/><path fill="#FFF" d="M37.818 78.613l-4.801-2.36 11.761.595-7.568-2.168 15.935.066-4.922-2.794 10.659.231-6.488-2.664 13.363.289-7.095-4.386 9.976.814-6.3-4.818 6.969 1.925-2.855-2.975L80 62.074V22.823l-15.12-5.064 2.379 1.468-3.411-1.067 4.771 3.709-8.943-1.38 9.589 6.162-26.594-8.668 10.19 7.602-14.397-2.911 15.826 8.351-30.852-8.337 10.47 5.269-10.507-1.402 11.54 5.719-19.973-3.887 6.494 4.085-12.747-3.83 9.274 5.169L0 28.205V80h22.251z"/><path d="M69.307 63.343l-6.969-1.925 6.3 4.818-9.976-.814 7.095 4.386-13.363-.289 6.488 2.664-10.659-.231 4.922 2.794-15.935-.066 7.568 2.168-11.761-.595 4.801 2.36L22.251 80H80V62.074l-13.548-1.706z"/></g></svg>