<svg xmlns="http://www.w3.org/2000/svg" width="265.948" height="336.412" viewBox="18.814 252.423 265.948 336.412"><path fill="none" d="M67.623 366.216c.003-1.406-.015-2.516-.064-3.238.049.725.067 1.834.064 3.238zM160.164 394.683l-.783-25.119a436.682 436.682 0 00-17.367 6.958l1.347 25.165 16.803-7.004zM143.361 401.687l-17.821 7.548c.291 7.897.59 15.748.996 23.495l.062 1.188 17.75-8.536-.987-23.695z"/><path fill="none" d="M269.137 303.098c-9.039-14.16-19.961-21.41-19.961-21.41-11.137-6.51-17.061-7.08-28.352-9.98-8.791-2.258-20.019-8.272-24.562-10.827-.454-1.063-2.373-1.865-3.297-2.735-1.557-1.467-1.426-2.082-3.867-2.718-4.528-1.18-12.605-2.255-17.936-2.22-2.642.017-3.538-.417-6.185-.405-2.203.009-4.411.025-6.611.023-2.364-.002-3.588-.359-6.063-.401H151.144c-4.062.042-7.631.409-12.149.385-6.569-.035-18.069 1.026-24.201 2.544-2.664.66-2.349.991-3.987 2.603-1.003.986-3.233 1.959-3.553 3.109-12.867 7.9-39.001 15.271-39.001 15.271-11.568 3.332-13.883 5.646-13.883 5.646l.006.022c-6.675 4.612-12.716 11.563-12.716 11.563-19.235 18.217-20.531 60.591-20.531 60.591-.293 16.783-2.313 36.002-2.313 36.002C37.324 400.138 65.09 400 65.09 400c1.296-.432 1.157-3.039 1.157-3.039 0-7.234 1.157-12.586 1.157-12.586.03-9.873.447-18.666.154-21.396.05.723.067 1.832.064 3.238.003-1.404-.015-2.514-.064-3.238-.063-.785-.154-1.141-.293-.879l1.299-4.272-.02-.058s-1.692-8.991-3.049-17.902a556.459 556.459 0 0115.013-8.762c1.958 7.435 3.504 15.08 4.743 22.865a570.235 570.235 0 00-15.223 8.892c1.599 9.713 1.277 22.792 1.277 22.792l.043 2.325a573.05 573.05 0 0116.833-9.943c.733 8.145 1.256 16.374 1.676 24.623a581.858 581.858 0 00-17.225 10.326 718.982 718.982 0 00-1.141-18.106c.168 7.41.354 13.563.533 18.579.184-.115.368-.236.552-.35.387 7.548.691 15.108.993 22.636l.101 2.528c-.145.091-.289.188-.434.279a109.8 109.8 0 00.803 7.053c-.103-2.426-.208-4.847-.306-7.283a603.994 603.994 0 0117.197-10.486c.317 8.19.644 16.335 1.083 24.363.011.217.024.434.036.65a625.058 625.058 0 00-16.676 10.322c.173 4.539.278 8.893.33 12.99.317 4.017.68 8.051 1.104 12.1-.365.237-.732.486-1.097.724-.157 13.48-.781 22.064-.781 22.064a560.593 560.593 0 01-.496 4.968c1.89-1.261 3.781-2.528 5.666-3.76 1.308 7.563 2.905 15.16 4.872 22.787a732.117 732.117 0 00-14.172 9.517c-.373 2.48-.744 4.857-1.108 7.111a246.38 246.38 0 005.292 16.222 784.005 784.005 0 00-9.485 6.642c-.218 1-.362 1.597-.411 1.732l-.386 1.064c2.499 2.082 8.653 3.826 16.304 5.264a234.256 234.256 0 01-5.343-13.054c-.203-.538-.4-1.078-.597-1.616a724.15 724.15 0 0116.579-11.085 233.294 233.294 0 008.43 20.5 664.947 664.947 0 00-10.255 6.7c4.747.685 9.716 1.276 14.534 1.779a232.164 232.164 0 01-4.192-8.445 605.728 605.728 0 0116.751-10.335 233.16 233.16 0 0010.248 19.637c-.547.317-1.096.643-1.644.962.854.06 1.654.113 2.389.161-.216-.364-.435-.728-.648-1.093a524.97 524.97 0 0117.122-9.5 239.36 239.36 0 007.246 11.63c7.188.008 14.536-.257 21.734-.689.391-.18.781-.362 1.171-.541l.328.449a522.79 522.79 0 0022.939-1.994 257.439 257.439 0 01-4.853-6.379 431.381 431.381 0 0118.859-7.112 263.137 263.137 0 008.436 10.642c7.922-1.153 12.797-2.024 12.797-2.024 4.442-1.357 5.6-3.855 5.6-3.855-15.811-86.768-9.456-128.23-9.456-128.23 1.743-10.799 3.085-50.133 3.085-50.133.386-4.828.201-10.227.201-10.227-1.126-19.146 2.321-30.613 2.505-31.209 2.06 4.027 1.629 25.824 1.629 25.824-.139 1.883.293 4.629.293 4.629.864 6.369.586 10.998.586 10.998 10.258 4.904 47.279-8.547 47.279-8.547-.864-13.883-2.9-44.824-2.9-44.824-.613-17.574-6.011-31.997-12.721-42.517zM125.601 536.264a253.125 253.125 0 01-6.521-21.873 503.132 503.132 0 0117.228-9.251 252.243 252.243 0 006.556 21.939 503.984 503.984 0 00-17.263 9.185zm16.517 9.677v.002h-.001.001v-.002zm-27.84-54.472c1.262 7.588 2.811 15.217 4.727 22.877a565.54 565.54 0 00-17.045 9.977c-1.931-7.648-3.496-15.27-4.774-22.852a564.675 564.675 0 0117.092-10.002zm-20.283-13.982c-.838-8.269-1.427-16.472-1.877-24.59a546.982 546.982 0 0117.19-9.844c.438 8.08 1.013 16.243 1.833 24.474a550.225 550.225 0 00-17.146 9.96zm20.328 13.868c-1.324-7.977-2.333-15.908-3.116-23.779a504.048 504.048 0 0117.225-9.159l.009.087-1.843-24.585a494.543 494.543 0 00-17.235 9.017l-.025-.479c-.428-8.035-.746-16.183-1.055-24.373a491.83 491.83 0 0117.259-8.849l-.99-24.84a481.696 481.696 0 00-17.304 8.675c-.407-8.203-.914-16.387-1.629-24.49a480.01 480.01 0 0115.652-7.743c.578-.273 1.156-.54 1.733-.811.682 8.066 1.163 16.209 1.548 24.369l17.464-7.873c-.362-8.115-.809-16.217-1.444-24.247a431.712 431.712 0 0117.497-6.839c.58 7.998.985 16.062 1.314 24.128l17.51-6.156c-.3-8.018-.658-16.039-1.172-24.008a442.253 442.253 0 0117.544-5.178c.447 7.939.759 15.919 1.028 23.885a433.152 433.152 0 00-17.399 5.303l.663 24.517-17.392 6.757 1.158 23.308 17.509-6.156 2.04 23.975a435.372 435.372 0 0117.609-5.857c.935 7.686 2.121 15.422 3.64 23.199a435.16 435.16 0 00-17.834 5.988c-1.436-7.821-2.547-15.603-3.415-23.33l-17.617 6.713-1.933-24.531-16.974 7.391 1.51 24.637a449.97 449.97 0 0117.396-7.498c.825 7.77 1.881 15.597 3.256 23.466a449.19 449.19 0 00-17.496 7.627c-1.339-7.915-2.361-15.783-3.156-23.593l-17.412 8.514c.781 7.808 1.783 15.669 3.098 23.579a504.072 504.072 0 00-17.221 9.239zM90.875 299.904c-2.854-6.951-6.22-13.639-10.194-20a488.656 488.656 0 0117.829-9.051c3.963 6.459 7.304 13.252 10.131 20.306-.614.287-1.232.574-1.849.866a475.44 475.44 0 00-15.917 7.879zm4.89 9.039zm15.867 6.069a438.198 438.198 0 014.064-1.892c1.887 7.47 3.369 15.141 4.55 22.951a397.626 397.626 0 00-3.817 1.778 479.354 479.354 0 00-13.684 6.731c-1.222-7.796-2.748-15.447-4.686-22.895a479.47 479.47 0 0113.573-6.673zm14.986-31.682c.08.035.165.068.246.103 2.697 7.047 4.896 14.349 6.702 21.846a449.238 449.238 0 00-17.83 7.739c-1.894-7.495-4.196-14.787-7.006-21.815a450.457 450.457 0 0117.888-7.873zm38.385 3.003s1.307-.185 3.353-.639c.528 2.209 1.033 4.43 1.495 6.67a431.63 431.63 0 00-18.184 6.045 201.875 201.875 0 00-2.829-11.109c4.668.097 10.07-.14 16.165-.967zm8.583 29.228c-.939-7.861-2.138-15.606-3.697-23.179a441.223 441.223 0 0118.213-5.18c1.402 7.603 2.469 15.366 3.296 23.23a439.477 439.477 0 00-17.812 5.129zm2.068 23.778a426.63 426.63 0 00-17.531 5.994c-.582-7.992-1.335-15.917-2.365-23.72a435.329 435.329 0 0117.778-5.955c.929 7.801 1.603 15.715 2.118 23.681zm-37.676-10.984c-1.118-7.826-2.528-15.523-4.333-23.025a437.096 437.096 0 0117.996-6.882c1.694 7.536 3.008 15.258 4.046 23.106a439.28 439.28 0 00-17.709 6.801zm4.14 7.652zm-1.615 16.209a450.677 450.677 0 00-17.448 7.699c-.681-8.028-1.556-15.98-2.737-23.793a450.9 450.9 0 0117.611-7.663c1.113 7.809 1.938 15.746 2.574 23.757zm68.781-46.064c.704 7.79 1.198 15.665 1.577 23.565a457.185 457.185 0 00-17.542 4.405c-.447-7.937-1.034-15.831-1.852-23.628a460.318 460.318 0 0117.817-4.342zm-2.813-23.353a492.192 492.192 0 0118.229-3.612c1.059 7.647 1.838 15.421 2.432 23.264a489.288 489.288 0 00-17.792 3.607c-.712-7.857-1.635-15.629-2.869-23.259zm-11.319 99.355c-.178-4.832-.333-9.691-.488-14.562-.101-3.137-.203-6.279-.309-9.424a449.11 449.11 0 0117.406-4.534c.044 1.408.086 2.817.129 4.225.202 6.566.404 13.108.661 19.591a442.625 442.625 0 00-17.399 4.704zm1.124 24.011a436.034 436.034 0 00-17.446 5.67c-.17-2.779-.321-5.548-.456-8.309-.254-5.225-.46-10.498-.649-15.797a433.885 433.885 0 0117.367-5.476c.143 3.87.299 7.719.482 11.544.195 4.1.424 8.223.702 12.368zm-59.93 98.869c-1.918-7.657-3.47-15.285-4.733-22.87a473.483 473.483 0 0113.749-6.765 449.52 449.52 0 013.604-1.679c1.284 7.574 2.857 15.188 4.8 22.833a511.174 511.174 0 00-3.608 1.681 478.012 478.012 0 00-13.812 6.8zm18.652 16.19a483.328 483.328 0 015.476-2.542 233.983 233.983 0 008.655 21.103 456.642 456.642 0 00-17.688 8.319 234.317 234.317 0 01-8.494-20.982 474.745 474.745 0 0112.051-5.898zm5.51-2.641a251.773 251.773 0 01-6.663-21.979 444.089 444.089 0 0117.633-7.681 249.038 249.038 0 006.842 22.004 452.962 452.962 0 00-17.812 7.656zm11.009-29.76c-1.994-7.627-3.613-15.224-4.936-22.779a434.327 434.327 0 0117.658-6.802 278.053 278.053 0 005.141 22.713 434.287 434.287 0 00-17.863 6.868zm25.017 15.293a234.98 234.98 0 009.24 21.299 431.02 431.02 0 00-18.467 6.766 234.956 234.956 0 01-8.77-20.836c-.044-.124-.087-.247-.131-.367a432.634 432.634 0 0118.128-6.862zm.033-.095c-.298-.791-.593-1.584-.882-2.377a247.198 247.198 0 01-6.224-19.637 429.054 429.054 0 0118.122-6.061 244.22 244.22 0 005.193 16.032 228.204 228.204 0 002.264 5.988 434.948 434.948 0 00-18.473 6.055zm11.054-28.168a271.178 271.178 0 01-5.425-22.641 437.135 437.135 0 0118.042-5.205 264.074 264.074 0 005.792 22.574 438.943 438.943 0 00-18.409 5.272zm-9.089-45.996c-.966-7.938-1.664-15.821-2.19-23.632a439.055 439.055 0 0117.525-4.897c.586 7.759 1.357 15.583 2.408 23.459a439.113 439.113 0 00-17.743 5.07zm15.391-28.625a598.392 598.392 0 01-1.028-17.172 913.175 913.175 0 01-.28-6.546 464.965 464.965 0 0117.441-3.986l.036.803c.339 7.508.796 15.092 1.453 22.735a463.759 463.759 0 00-17.622 4.166zm-2.105-47.696c-.247-7.907-.514-15.843-.892-23.751a477.371 477.371 0 0117.523-3.684c.295 7.344.515 14.7.732 22.023l.047 1.597a468.338 468.338 0 00-17.41 3.815zm16.691-27.525c-.318-7.864-.722-15.711-1.311-23.491a525.918 525.918 0 0117.664-2.923c-2.126 10.188-3.682 19.357-3.672 19.346a745.02 745.02 0 00-.96 4.989c-3.942.657-7.859 1.34-11.721 2.079zm20.518-43.872c-1.41 4.908-2.824 11.072-4.057 16.946a448.776 448.776 0 00-1.672-20.009 79.043 79.043 0 015.729 3.063zm-10.841-5.237a528.255 528.255 0 00-13.435 2.197 290.248 290.248 0 00-.927-6.156c5.474 1.336 9.747 2.25 14.362 3.959zm-35.365-11.993a234.637 234.637 0 013.578 17.826 460.193 460.193 0 00-18.251 4.374 230.965 230.965 0 00-1.843-8.908c5.123-3.748 8.887-9.095 7.967-16.622.538-.126 1.082-.247 1.622-.372 1.56.881 4.01 2.227 6.927 3.702zm-93.643-4.753s-.621 2.292.032 5.622c-2.418 1.089-4.83 2.2-7.236 3.335-1.15.541-2.297 1.09-3.443 1.645a120.546 120.546 0 00-2.409-3.752c5.032-2.153 9.727-4.496 13.056-6.85zm-41.079 16.629s3.538-.998 8.647-2.651a120.01 120.01 0 013.833 5.738 531.719 531.719 0 00-17.405 9.726 118.478 118.478 0 00-6.147-8.84c2.051-.988 5.47-2.36 11.072-3.973zm-5.184 38.738c-.653-4.967-1.704-10.833-3.393-16.372 0 0-.873-2.565-2.021-6.109a597.22 597.22 0 015.655-3.346c3.942 6.288 7.288 12.895 10.135 19.764a562.25 562.25 0 00-10.376 6.063zm17.633 15.473c-1.95-7.391-4.308-14.577-7.171-21.498a517.099 517.099 0 0117.469-9.494c2.855 6.966 5.199 14.198 7.137 21.633a507.06 507.06 0 00-17.435 9.359zm15.217 5.011zm-7.531 41.912c-.728-8.072-1.664-16.059-2.911-23.902a513.508 513.508 0 0117.375-9.329c1.225 7.825 2.14 15.791 2.851 23.841a517.206 517.206 0 00-17.315 9.39zm2.755 49.791l-.066-1.709c-.302-7.745-.605-15.528-1-23.293a518.49 518.49 0 0117.267-9.522c.38 7.695.672 15.408.962 23.084l.067 1.76a537.457 537.457 0 00-17.23 9.68zm-10.844 84.428c-1.381-7.992-2.438-15.944-3.268-23.834a628.642 628.642 0 0117.067-10.7c.798 7.888 1.826 15.831 3.169 23.823a639.837 639.837 0 00-16.968 10.711zm11.53 44.594a250.59 250.59 0 01-6.625-21.648 630.84 630.84 0 0116.871-10.648 252.003 252.003 0 006.548 21.777 619.46 619.46 0 00-16.794 10.519zm25.265 10.201a234.577 234.577 0 01-8.39-20.683 553.591 553.591 0 0117.02-9.884 233.516 233.516 0 008.409 20.845 548.217 548.217 0 00-17.039 9.722zm27.462 10.173a232.534 232.534 0 01-10.335-19.855 496.573 496.573 0 0117.348-9.044 233.726 233.726 0 0010.492 20.056 481.652 481.652 0 00-17.505 8.843zm30.148 10.403a242.882 242.882 0 01-12.546-19.209 451.417 451.417 0 0117.933-8.128 244.21 244.21 0 0012.897 19.47 448.91 448.91 0 00-18.284 7.867zm5.408-27.431a233.792 233.792 0 01-10.736-20.247 440.19 440.19 0 0118.06-7.559 234.176 234.176 0 0011.076 20.433 435.166 435.166 0 00-18.4 7.373zm31.868 12.401a246.472 246.472 0 01-13.363-19.73 430.988 430.988 0 0118.913-6.589 249.834 249.834 0 0013.953 19.994 430.619 430.619 0 00-19.503 6.325zm26.001 1.622a270.192 270.192 0 01-6.375-7.903c1.583-.472 3.188-.913 4.783-1.368.503 3.03 1.032 6.118 1.592 9.271zm-5.094-32.639c-5.163 1.459-10.283 2.978-15.334 4.607a236.061 236.061 0 01-11.526-20.606 437.524 437.524 0 0118.919-5.966 235.093 235.093 0 006.696 12.071c.379 3.203.793 6.5 1.245 9.894zm-2.704-23.504c-1.737.481-3.484.949-5.208 1.449a233.157 233.157 0 01-9.69-21.386c4.338-1.314 8.733-2.545 13.156-3.738.35 7.042.905 14.93 1.742 23.675zm-2.254-42.111a248.554 248.554 0 01-1.66-5.207c.558-.146 1.127-.279 1.687-.425a329.167 329.167 0 00-.027 5.632zm1.765-30.283a458.463 458.463 0 00-9.257 2.349c-1.628-7.729-2.912-15.422-3.934-23.062a460.235 460.235 0 0114.843-3.623c-.44 8.75-1.008 18.191-1.652 24.336zm2.58-46.145s-.028.836-.083 2.292a428.082 428.082 0 01-.424-4.579c.216-.047.438-.088.654-.135a69.324 69.324 0 01-.147 2.422zm2.715-41.465s-1.704 5.377-2.424 15.023c-.762.155-1.536.298-2.296.457-.345-7.801-.586-15.703-.822-23.645 2.247-.449 4.519-.873 6.792-1.293-.896 6.139-1.25 9.458-1.25 9.458zM95.765 308.943v.001M95.765 336.008v-.001M142.118 336.008v-.001M142.117 545.943h.001M142.118 545.943v-.002"/><path d="M228.449 326.101a473.235 473.235 0 00-17.523 3.684c.378 7.908.646 15.844.892 23.751a470.37 470.37 0 0117.41-3.815l-.047-1.597c-.217-7.323-.436-14.679-.732-22.023zM230.092 374.331l-.036-.803a464.965 464.965 0 00-17.441 3.986c.086 2.189.18 4.374.28 6.546.264 5.683.595 11.41 1.028 17.172a463.758 463.758 0 0117.622-4.167c-.657-7.642-1.113-15.226-1.453-22.734zM196.342 406.225c.526 7.811 1.224 15.694 2.19 23.632a438.695 438.695 0 0117.744-5.07c-1.051-7.876-1.822-15.701-2.408-23.459a439.103 439.103 0 00-17.526 4.897zM220.237 448.007a439.157 439.157 0 00-18.042 5.205 271.272 271.272 0 005.425 22.641 437.86 437.86 0 0118.409-5.271 264.095 264.095 0 01-5.792-22.575zM212.776 491.979a244.82 244.82 0 01-5.193-16.032 429.054 429.054 0 00-18.122 6.061 247.329 247.329 0 006.224 19.637c.29.793.584 1.586.882 2.377a433.473 433.473 0 0118.472-6.054 233.249 233.249 0 01-2.263-5.989zM241.191 318.943c-.01.011 1.546-9.158 3.672-19.346a528.484 528.484 0 00-17.664 2.923c.588 7.78.993 15.627 1.311 23.491a497.9 497.9 0 0111.722-2.079c.304-1.615.622-3.275.959-4.989zM238.186 276.902c-4.614-1.708-8.887-2.623-14.362-3.959.329 2.043.641 4.093.927 6.156a523.12 523.12 0 0113.435-2.197zM249.027 282.139a80.05 80.05 0 00-5.729-3.063 448.776 448.776 0 011.672 20.009c1.233-5.874 2.648-12.038 4.057-16.946zM187.307 532.18a431.02 431.02 0 0118.467-6.766 234.578 234.578 0 01-9.24-21.299 434.022 434.022 0 00-18.128 6.861c.044.12.087.243.131.367a234.848 234.848 0 008.77 20.837zM151.442 548.104a481.522 481.522 0 018.354-4.045 446.098 446.098 0 019.334-4.274 234.136 234.136 0 01-8.655-21.103 476.375 476.375 0 00-17.526 8.439 233.717 233.717 0 008.493 20.983zM177.725 387.729c.189 5.299.396 10.572.649 15.797.134 2.761.286 5.53.456 8.309a432.835 432.835 0 0117.446-5.67 644.5 644.5 0 01-.703-12.368c-.183-3.825-.339-7.675-.482-11.544a432.729 432.729 0 00-17.366 5.476zM227.131 302.451c-.593-7.842-1.373-15.616-2.432-23.264a492.602 492.602 0 00-18.229 3.612c1.233 7.629 2.157 15.401 2.868 23.259a487.648 487.648 0 0117.793-3.607zM211.891 357.859c-.043-1.407-.085-2.817-.129-4.225a448.64 448.64 0 00-17.406 4.534c.106 3.145.208 6.287.309 9.424.155 4.871.311 9.73.488 14.562a443.101 443.101 0 0117.399-4.705c-.258-6.482-.459-13.024-.661-19.59zM193.319 334.123a457.652 457.652 0 0117.542-4.405c-.379-7.901-.874-15.775-1.577-23.565a460.318 460.318 0 00-17.817 4.342c.818 7.797 1.405 15.691 1.852 23.628zM153.767 496.553c-1.943-7.645-3.516-15.259-4.8-22.833a391.098 391.098 0 00-3.604 1.679 473.483 473.483 0 00-13.749 6.765c1.263 7.585 2.815 15.213 4.733 22.87a476.79 476.79 0 0113.813-6.8 490.88 490.88 0 013.607-1.681zM120.318 336.123c1.181 7.813 2.056 15.765 2.737 23.793a450.677 450.677 0 0117.448-7.699c-.637-8.012-1.461-15.948-2.574-23.756a449.369 449.369 0 00-17.611 7.662zM186.305 278.201c.665 2.945 1.289 5.91 1.843 8.908a460.193 460.193 0 0118.251-4.374 234.834 234.834 0 00-3.578-17.826 175.5 175.5 0 01-6.927-3.702c-.54.125-1.084.246-1.622.372.92 7.526-2.844 12.874-7.967 16.622zM184.239 459.242a433.76 433.76 0 00-17.658 6.802c1.323 7.556 2.942 15.152 4.936 22.779a434.287 434.287 0 0117.863-6.868 278.053 278.053 0 01-5.141-22.713zM171.479 488.923a442.628 442.628 0 00-17.633 7.681 251.565 251.565 0 006.663 21.979 451.463 451.463 0 0117.812-7.656 248.934 248.934 0 01-6.842-22.004zM102.699 344.688a513.508 513.508 0 00-17.375 9.329c1.247 7.843 2.183 15.83 2.911 23.902a516.222 516.222 0 0117.315-9.39c-.712-8.05-1.627-16.015-2.851-23.841zM101.974 269.113a452.166 452.166 0 017.236-3.335c-.653-3.33-.032-5.622-.032-5.622-3.329 2.354-8.024 4.697-13.056 6.849a121.742 121.742 0 012.409 3.752 360.641 360.641 0 013.443-1.644zM85.05 535.083a250.59 250.59 0 006.625 21.648 620.443 620.443 0 0116.794-10.52 252.003 252.003 0 01-6.548-21.777 636.01 636.01 0 00-16.871 10.649zM125.57 536.367a555.984 555.984 0 00-17.02 9.884 234.577 234.577 0 008.39 20.683 545 545 0 0117.039-9.721 233.977 233.977 0 01-8.409-20.846zM57.5 293.042a482.713 482.713 0 002.021 6.109c1.688 5.539 2.739 11.405 3.393 16.372a556.638 556.638 0 0110.376-6.063c-2.847-6.87-6.192-13.476-10.135-19.764a633.216 633.216 0 00-5.655 3.346zM108.151 416.271c-.29-7.677-.582-15.39-.962-23.084a518.49 518.49 0 00-17.267 9.522c.395 7.765.698 15.548 1 23.293l.066 1.709a533.538 533.538 0 0117.229-9.679l-.066-1.761zM93.944 477.604a631.127 631.127 0 00-17.067 10.7c.829 7.89 1.887 15.842 3.268 23.834a638.254 638.254 0 0116.969-10.711c-1.344-7.992-2.371-15.935-3.17-23.823zM80.509 331.104a556.459 556.459 0 00-15.013 8.762c1.357 8.911 3.049 17.902 3.049 17.902l.02.058.145-.478.422 1.264c.353 1.291.648 2.73.897 4.249a572.958 572.958 0 0115.223-8.892c-1.239-7.784-2.785-15.429-4.743-22.865zM90.846 300.004a515.322 515.322 0 00-17.469 9.494c2.864 6.921 5.221 14.107 7.171 21.498a504.375 504.375 0 0117.435-9.358c-1.938-7.436-4.281-14.668-7.137-21.634zM198.462 552.749a246.472 246.472 0 0013.363 19.73 430.619 430.619 0 0119.503-6.325 249.834 249.834 0 01-13.953-19.994 430.135 430.135 0 00-18.913 6.589zM237.827 574.101a811.082 811.082 0 01-1.591-9.271c-1.595.455-3.2.896-4.783 1.368a268.5 268.5 0 006.374 7.903zM134.066 557.25a232.534 232.534 0 0010.335 19.855 484.124 484.124 0 0117.505-8.844 233.726 233.726 0 01-10.492-20.056 498.325 498.325 0 00-17.348 9.045zM224.82 519.407c1.724-.5 3.471-.968 5.208-1.449a520.597 520.597 0 01-1.742-23.675c-4.423 1.193-8.818 2.424-13.156 3.738a233.427 233.427 0 009.69 21.386zM164.634 567.047c-.878.416-1.753.833-2.63 1.253a242.882 242.882 0 0012.546 19.209 447.512 447.512 0 0118.284-7.867 244.03 244.03 0 01-12.897-19.47 456.322 456.322 0 00-15.303 6.875zM169.222 539.831a234.345 234.345 0 0010.736 20.247 435.126 435.126 0 0118.399-7.373 234.176 234.176 0 01-11.076-20.433 439.338 439.338 0 00-18.059 7.559zM80.58 279.873a120.01 120.01 0 00-3.833-5.738c-5.109 1.653-8.647 2.651-8.647 2.651-5.603 1.613-9.021 2.984-11.072 3.973a118.478 118.478 0 016.147 8.84 526.996 526.996 0 0117.405-9.726zM205.873 525.463a236.061 236.061 0 0011.526 20.606c5.051-1.63 10.171-3.148 15.334-4.607a656.992 656.992 0 01-1.245-9.894 235.856 235.856 0 01-6.696-12.071 437.524 437.524 0 00-18.919 5.966zM173.363 588.145l1.499-.092-.328-.449c-.39.179-.781.361-1.171.541zM136.309 505.14a503.132 503.132 0 00-17.228 9.251 252.668 252.668 0 006.521 21.873 503.09 503.09 0 0117.264-9.185 251.455 251.455 0 01-6.557-21.939zM192.949 579.68a255 255 0 004.853 6.379 619.23 619.23 0 0022.443-2.85 263.137 263.137 0 01-8.436-10.642 432.237 432.237 0 00-18.86 7.113zM127.26 586.705c.213.365.433.729.648 1.093 3.391.223 5.439.329 5.439.329 5.832.488 11.995.701 18.281.708a239.36 239.36 0 01-7.246-11.63 524.97 524.97 0 00-17.122 9.5zM92.118 452.897c.45 8.118 1.039 16.321 1.877 24.59a552.23 552.23 0 0117.146-9.96c-.819-8.23-1.395-16.394-1.833-24.474a546.982 546.982 0 00-17.19 9.844zM121.269 360.837a480.01 480.01 0 00-15.652 7.743c.716 8.103 1.222 16.287 1.629 24.49a482.53 482.53 0 0117.304-8.675c-.386-8.16-.867-16.303-1.548-24.369-.578.271-1.156.538-1.733.811zM158.067 345.436a434.356 434.356 0 00-17.497 6.839c.635 8.03 1.082 16.132 1.444 24.247a436.682 436.682 0 0117.367-6.958c-.329-8.066-.735-16.13-1.314-24.128zM116.916 567.038a605.728 605.728 0 00-16.751 10.335 230.547 230.547 0 004.192 8.445 622.996 622.996 0 0021.164 1.818c.548-.319 1.096-.645 1.644-.962a232.432 232.432 0 01-10.249-19.636zM119.004 514.346c-1.916-7.66-3.465-15.289-4.727-22.877a564.675 564.675 0 00-17.092 10.002c1.278 7.582 2.843 15.203 4.774 22.852a567.67 567.67 0 0117.045-9.977zM151.641 298.449a436.545 436.545 0 00-17.996 6.882c1.804 7.502 3.215 15.199 4.333 23.025a435.94 435.94 0 0117.709-6.8c-1.038-7.849-2.352-15.571-4.046-23.107zM73.571 435.742c-.302-7.527-.606-15.088-.993-22.636-.184.114-.368.235-.552.35.453 12.625.87 18.042.87 18.042.036 2.518.167 4.897.343 7.052.145-.092.289-.188.434-.279l-.102-2.529zM89.858 402.658c-.419-8.249-.943-16.478-1.676-24.623a573.05 573.05 0 00-16.833 9.943c.045 2.411.093 4.71.143 6.899.462 6.009.829 12.052 1.141 18.106 5.75-3.58 11.487-7.02 17.225-10.325zM69.694 551.669c-1.812 11.212-3.445 19.438-4.193 22.863a784.005 784.005 0 019.485-6.642 245.967 245.967 0 01-5.292-16.221zM92.754 559.875a222.726 222.726 0 01-1.107-3.036 724.15 724.15 0 00-16.579 11.085 234.256 234.256 0 005.94 14.67c2.775.521 5.747 1.003 8.814 1.445a664.947 664.947 0 0110.255-6.7 233.47 233.47 0 01-7.323-17.464zM75.706 476.159a528.1 528.1 0 01.007 12.823c.365-.237.732-.486 1.097-.724a466.16 466.16 0 01-1.104-12.099zM80.102 512.254c-1.885 1.231-3.776 2.499-5.666 3.76a633.688 633.688 0 01-3.634 28.544 743.008 743.008 0 0114.172-9.517c-1.967-7.626-3.564-15.224-4.872-22.787zM92.016 452.196c-.439-8.028-.765-16.173-1.083-24.363a602.593 602.593 0 00-17.197 10.486c.099 2.437.204 4.857.306 7.283a72.45 72.45 0 00.597 3.542c.327 4.824.565 9.515.737 14.024a622.478 622.478 0 0116.676-10.322c-.012-.217-.025-.433-.036-.65zM116.429 337.849a436.66 436.66 0 013.817-1.778c-1.181-7.81-2.664-15.481-4.55-22.951a438.198 438.198 0 00-4.064 1.892 479.47 479.47 0 00-13.573 6.673c1.938 7.448 3.464 15.099 4.686 22.895a479.354 479.354 0 0113.684-6.731zM108.64 291.159c-2.827-7.054-6.168-13.847-10.131-20.306a491.076 491.076 0 00-17.829 9.051c3.974 6.361 7.34 13.049 10.194 20a476.395 476.395 0 0115.917-7.879c.617-.292 1.235-.579 1.849-.866zM115.736 313.017a447.966 447.966 0 0117.83-7.739c-1.806-7.497-4.005-14.798-6.702-21.846-.081-.035-.166-.068-.246-.103a451.899 451.899 0 00-17.888 7.872c2.811 7.029 5.112 14.321 7.006 21.816zM226.115 470.64c.529 1.734 1.088 3.47 1.66 5.207-.007-1.99.003-3.87.027-5.632-.56.146-1.129.279-1.687.425zM176.893 363.409a433.152 433.152 0 0117.399-5.303c-.27-7.966-.581-15.946-1.028-23.885a442.253 442.253 0 00-17.544 5.178c.513 7.97.871 15.991 1.173 24.01v-.001.001zM155.757 321.613c1.03 7.803 1.784 15.728 2.365 23.72a426.63 426.63 0 0117.531-5.994c-.515-7.966-1.189-15.88-2.118-23.681a432.791 432.791 0 00-17.778 5.955zM151.667 298.41a430.672 430.672 0 0118.184-6.045 218.142 218.142 0 00-1.495-6.67c-2.046.455-3.353.639-3.353.639-6.095.827-11.497 1.064-16.165.967a200.75 200.75 0 012.829 11.109zM188.102 287.202a439.663 439.663 0 00-18.213 5.18c1.56 7.572 2.758 15.318 3.697 23.179a441.098 441.098 0 0117.812-5.128c-.827-7.865-1.894-15.628-3.296-23.231zM128.444 458.535l-.003-.031-.009-.087a505.822 505.822 0 00-17.225 9.159c.783 7.871 1.792 15.803 3.116 23.779a510.486 510.486 0 0117.219-9.241c-1.315-7.91-2.317-15.772-3.098-23.579zM145.856 450.021c.795 7.81 1.817 15.678 3.156 23.593a449.19 449.19 0 0117.496-7.627c-1.375-7.869-2.431-15.696-3.256-23.466a450.64 450.64 0 00-17.396 7.498v.002zM202.12 453.152c-1.519-7.777-2.705-15.514-3.64-23.199a435.372 435.372 0 00-17.609 5.857c.868 7.728 1.979 15.509 3.415 23.33a435.16 435.16 0 0117.834-5.988zM232.037 401.711c.054-1.455.083-2.292.083-2.292.064-.801.111-1.617.147-2.422-.216.046-.438.088-.654.135.131 1.523.276 3.051.424 4.579zM220.282 447.913a458.463 458.463 0 019.257-2.349c.644-6.145 1.213-15.586 1.651-24.335a455.008 455.008 0 00-14.843 3.623c1.024 7.639 2.307 15.332 3.935 23.061zM229.292 349.789c.236 7.942.478 15.844.822 23.645.76-.158 1.534-.301 2.296-.457.721-9.646 2.424-15.023 2.424-15.023s.354-3.318 1.25-9.458c-2.273.42-4.544.843-6.792 1.293zM125.54 409.235a492.71 492.71 0 00-17.259 8.849c.31 8.19.627 16.338 1.055 24.373.009.161.018.317.025.479a495.444 495.444 0 0117.235-9.017l-.062-1.188c-.404-7.748-.703-15.599-.994-23.496zM142.014 376.522l-17.464 7.873.99 24.84 17.821-7.548z"/><path d="M177.556 387.925l-.663-24.516v-.002l-.001.001-17.511 6.156.783 25.119zM128.444 458.535l17.412-8.514h.001v-.002l-1.51-24.637-17.75 8.536 1.843 24.585.003.033zM161.321 417.992l1.932 24.531 17.618-6.713-2.04-23.975-17.509 6.156z"/><path d="M144.347 425.382l16.974-7.39.001-.001-1.158-23.308-16.803 7.004z"/></svg>