<svg xmlns="http://www.w3.org/2000/svg" width="272.688" height="337.292" viewBox="305 252 272.688 337.292"><path fill="none" d="M577.644 391.755s-1.436-19.096-2.453-35.293c0 0 1.727-29.647-15.627-56.117 0 0-5.49-6.648-16.627-16.628v.007c-10.504-6.073-25.037-10.142-25.037-10.142-14.746-2.992-32.314-13.173-32.314-13.173-1.451-1.157-7.42-2.221-7.42-2.221h-25.529V252h-20.34v6.188H405.76c-3.471.2-7.035 1.064-7.035 1.064-16.781 10.613-44.547 17.94-44.547 17.94-6.371 2.128-13.498 5.599-13.498 5.599v-.031s-4.535 4.921-9.055 8.376c0 0-21.688 16.197-23.91 59.001l-.293 7.805-.586 6.371s-.184 7.914-.863 14.947c0 0-.293 14.068-.973 15.041 0 0 11.184 10.504 38.379 11.568 0 0 6.756.201 9.934-2.406 0 0-.215-1.928.078-7.035 0 0 .4-4.828.787-8.775 0 0-.865-13.684.678-23.91 0 0-.293-1.449 1.25-1.203 2.9 7.805 3.471 27.334 3.471 27.334 2.313 27.766 5.645 66.529 5.645 66.529 3.471 52.061-7.527 108.178-7.527 108.178a114.528 114.528 0 01-1.588 8.098c.088.849.285 1.646.568 2.4a9.514 9.514 0 01-.316-1.591s.894-3.704 1.589-8.104c0 0 .554-2.826 1.372-7.787 3.793-.311 7.56-.574 11.298-.779a291.485 291.485 0 01-8.491 24.43c.144.092.293.177.439.266 6.531-.472 12.979-.79 19.36-.949a298.845 298.845 0 01-2.434 6.213c2.623.366 4.38.465 4.38.465 4.895.41 9.802.746 14.674 1.019a296.986 296.986 0 002.893-7.683c6.374.167 12.693.494 18.975.98a290.665 290.665 0 01-2.711 7.48c6.729.176 13.252.25 19.428.253a284.026 284.026 0 002.032-5.81 375.605 375.605 0 0115.611 2.333c.898.152 1.796.307 2.694.468-.307.927-.638 1.861-.956 2.792 5.003-.113 9.538-.26 13.478-.412a394.287 394.287 0 00-12.435-2.446 280.544 280.544 0 006.551-23.059 414.687 414.687 0 0117.908 3.889 277.2 277.2 0 01-5.978 21.357c6.584-.307 10.414-.576 10.414-.576 3.378-.065 6.422-.218 9.178-.429a278.993 278.993 0 004.233-15.675 500.002 500.002 0 0117.559 5.348 282.348 282.348 0 01-1.688 6.572c1.994-.755 2.818-1.309 2.818-1.309 2.194-.947 3.819-2.122 5.023-3.295-2.027-.685-4.057-1.373-6.074-2.027a278.148 278.148 0 004.527-22.89c.562.187 1.128.389 1.689.577-.33-2.116-.646-4.182-.945-6.187-.245 1.83-.505 3.665-.789 5.509a518.92 518.92 0 00-17.633-5.514 290.078 290.078 0 002.536-23.607c4.373 1.3 8.77 2.695 13.181 4.136-1.361-10.626-1.994-17.087-1.994-17.087a254.461 254.461 0 01-.617-8.309 494.723 494.723 0 00-9.885-3.057c-.067-8.35-.432-16.563-.996-24.646a503.892 503.892 0 0110.3 3.152c.085-13.377.722-23.258.722-23.258 2.313-17.646 4.533-51.676 4.533-51.676 1.451-13.496 2.314-29.602 2.314-29.602.863-7.912 2.992-12 2.992-12 .203-.311.406-.641.609-.986-.174.49-.342.988-.5 1.51 0 0 .262.803.631 3.596 0 0 .371 7.666.51 21.256 0 0 .586 7.234.803 15.117 0 0 .939 2.822 7.018 2.744 0 0 16.846 1.65 38.533-8.9-.001.001 3.038-2.018 2.606-5.136zm-49.485-114.312c-.746.651-1.504 1.301-2.246 1.952-.819-1.201-1.655-2.409-2.478-3.611a155.85 155.85 0 014.724 1.659zm-20.219-6.251a1322.808 1322.808 0 00-5.216 4.709c-2.234-3.24-4.496-6.482-6.751-9.724 3.516 1.663 7.663 3.47 11.967 5.015zm-22.007-10.201s1.499.867 3.978 2.166c-3.47 3.19-6.901 6.373-10.286 9.53a2787.9 2787.9 0 00-9.695-13.817h9.121c1.502.293 5.698 1.176 6.882 2.121zm-85.736 222.598a306.159 306.159 0 01-1.33 24.134 385.711 385.711 0 00-18.278.185 299.27 299.27 0 001.69-24.176c6.03-.187 12-.233 17.918-.143zm-17.308-185.632c-2.582-2.331-5.176-4.675-7.788-7.028 3.388-4.96 6.8-9.936 10.234-14.917 4.184 3.801 8.305 7.585 12.386 11.336l.332.306a4568.323 4568.323 0 00-10.172 14.812c-1.66-1.497-3.324-3-4.992-4.509zm77.644-31.989a9245.622 9245.622 0 01-3.935 3.733 2305.888 2305.888 0 00-7.672-10.831h19.096a3833.456 3833.456 0 00-7.489 7.098zm6.368 18.585a1110.842 1110.842 0 01-12.708 11.64c-3.371-4.859-6.76-9.719-10.166-14.573 4.168-3.862 8.346-7.806 12.562-11.804 3.455 4.907 6.892 9.821 10.312 14.737zm-27.776-25.683a2234.296 2234.296 0 00-7.672 10.831c-1.307-1.239-2.617-2.484-3.936-3.733-2.475-2.352-4.971-4.72-7.488-7.098h19.096zm4.896 22.75a4208.766 4208.766 0 00-10.166 14.573 1084.548 1084.548 0 01-12.705-11.64c3.418-4.917 6.854-9.831 10.311-14.737 4.215 3.998 8.395 7.942 12.56 11.804zm-22.97 2.947c-3.41 4.905-6.804 9.811-10.18 14.707a2462.1 2462.1 0 01-12.723-11.635c3.408-4.942 6.837-9.892 10.285-14.839l4.161 3.885c2.837 2.648 5.654 5.279 8.457 7.882zm-24.35 240.728a282.838 282.838 0 002.219-17.488c6.096.085 12.137.315 18.139.689a284.83 284.83 0 01-3.024 24.007 373.235 373.235 0 00-18.47-.578c.408-2.22.786-4.431 1.136-6.63zm3.558-41.786c.132-8.188-.046-16.238-.45-24.162 5.92.072 11.79.285 17.621.633.474 7.947.729 16.02.686 24.23a378.57 378.57 0 00-17.857-.701zm17.914.785c5.977.38 11.912.9 17.824 1.562a316.875 316.875 0 01-.844 24.128 370.144 370.144 0 00-18.029-1.563 311.821 311.821 0 001.049-24.127zm17.036 25.78c6.005.67 11.982 1.487 17.949 2.443a289.148 289.148 0 01-2.612 23.843 373.847 373.847 0 00-18.113-2.367 287.442 287.442 0 002.776-23.919zm.849-24.294c-.019-8.239-.334-16.339-.858-24.314a376.468 376.468 0 0117.695 2.333c.559 8.006.91 16.14.975 24.413a377.33 377.33 0 00-17.812-2.432zm17.872 2.521c1.229.197 2.459.398 3.688.607 4.712.804 9.418 1.697 14.124 2.677a324.673 324.673 0 01-.637 24.159 398.63 398.63 0 00-14.191-2.69 388.647 388.647 0 00-3.691-.609c.554-8.182.765-16.226.707-24.144zm16.839-21.286a425.979 425.979 0 0117.813 4.037c.576 8.064.954 16.255 1.04 24.586a417.501 417.501 0 00-17.819-4.121c-.086-8.302-.459-16.464-1.034-24.502zm6.412-167.742a4461.39 4461.39 0 00-10.182-14.707c2.805-2.603 5.618-5.233 8.456-7.882l4.161-3.885c3.45 4.947 6.877 9.896 10.284 14.839a2307.43 2307.43 0 01-12.719 11.635zm-78.174-39.44s2.737-.663 5.75-.962h13.364a2856.796 2856.796 0 00-9.696 13.817 1750.765 1750.765 0 00-12.128-11.227 77.667 77.667 0 002.71-1.628zm-4.26 2.499a3057.304 3057.304 0 00-9.422 13.569c-2.24-2.037-4.503-4.079-6.785-6.121 5.459-2.148 11.13-4.658 16.207-7.448zm-29.211 12.11c-1.129 1.65-2.274 3.306-3.397 4.953-1.088-.956-2.197-1.91-3.297-2.865a253.385 253.385 0 006.694-2.088zm-13.646 20.064c-.816 1.207-1.628 2.415-2.442 3.618-.35.512-.699 1.026-1.05 1.538l.016-8.18a746.13 746.13 0 013.476 3.024zm.098-.019a4090.12 4090.12 0 0110.16-14.979c4.354 3.821 8.632 7.64 12.854 11.438a5910.73 5910.73 0 00-10.136 14.9 2004.616 2004.616 0 00-12.878-11.359zm13.69 165.939a412.54 412.54 0 0116.394-.89c.314 7.909.392 15.942.147 24.117-5.314.165-10.688.455-16.11.838.124-7.942.011-16.036-.431-24.065zm-2.928 72.671a532.634 532.634 0 002.285-24.264 408.218 408.218 0 0115.485-.841 278.967 278.967 0 01-3.782 24.259c-4.617.191-9.289.492-13.988.846zm7.957 23.635a278.399 278.399 0 006.078-24.401 390.547 390.547 0 0118.704-.325 277.938 277.938 0 01-5.57 24.142c-6.338.039-12.736.23-19.212.584zm30.692 23.764a381.572 381.572 0 00-19.378-.012 287.618 287.618 0 007.939-24.253 377.12 377.12 0 0118.875.356 284.056 284.056 0 01-7.436 23.909zm7.521-23.988a276.598 276.598 0 005.162-23.922c6.131.343 12.218.84 18.278 1.48l-.064.404a276.96 276.96 0 01-4.793 23.323 375.906 375.906 0 00-18.583-1.285zm30.203 26.887a371.031 371.031 0 00-18.62-1.913 281.245 281.245 0 007.041-23.601c6.137.58 12.242 1.315 18.328 2.194a279.115 279.115 0 01-6.749 23.32zm28.825-39.73a276.61 276.61 0 01-3.886 19.403 383.675 383.675 0 00-18.107-3.063 278.174 278.174 0 004.228-20.919c.141-.882.277-1.76.412-2.639a391.964 391.964 0 0117.975 3.231 273.794 273.794 0 01-.622 3.987zm.691-4.054a290.455 290.455 0 002.52-23.771 418.104 418.104 0 0117.828 4.127 290.01 290.01 0 01-2.493 23.693 418.794 418.794 0 00-17.855-4.049zm34.963 13.246a274.824 274.824 0 01-3.784 18.775 448.237 448.237 0 00-17.729-4.65 276.198 276.198 0 004.451-23.229 461.445 461.445 0 0117.737 4.816 275.781 275.781 0 01-.675 4.288zm3.906-52.207a323.646 323.646 0 01-.68 24.153 466.628 466.628 0 00-17.777-4.905c.526-8.187.709-16.236.631-24.161a462.051 462.051 0 0117.826 4.913zm-2.344-202.693c-1.67 1.509-3.332 3.012-4.992 4.509A5179.754 5179.754 0 00490 287.654l.332-.306c4.081-3.751 8.202-7.536 12.384-11.336 3.437 4.98 6.849 9.956 10.236 14.917-2.615 2.353-5.208 4.697-7.788 7.028zm18.022 7.888a6605.063 6605.063 0 00-10.138-14.9c4.224-3.798 8.5-7.617 12.853-11.438a3892.5 3892.5 0 0110.161 14.979c-4.35 3.799-8.632 7.591-12.876 11.359z"/><path d="M507.568 500.585c3.284.975 6.58 2 9.885 3.057-.503-8.539-.629-17.087-.581-24.551a495.825 495.825 0 00-10.3-3.152c.564 8.084.928 16.297.996 24.646zM471.105 515.745c.528-8.188.715-16.236.637-24.159a398.079 398.079 0 00-14.124-2.677c-1.229-.209-2.458-.41-3.688-.607a321.54 321.54 0 01-.708 24.144c1.23.197 2.462.4 3.691.609a396.03 396.03 0 0114.192 2.69zM489.622 495.638c-.086-8.331-.464-16.521-1.04-24.586a425.619 425.619 0 00-17.813-4.037c.575 8.038.948 16.2 1.033 24.502a417.544 417.544 0 0117.82 4.121zM382.219 483.654c.244-8.175.167-16.208-.147-24.117a410.76 410.76 0 00-16.394.89c.441 8.028.555 16.123.431 24.065a409.017 409.017 0 0116.11-.838zM452.895 463.798a376.468 376.468 0 00-17.695-2.333c.524 7.976.84 16.075.858 24.314a377.33 377.33 0 0117.812 2.432c-.065-8.273-.416-16.407-.975-24.413zM417.43 459.98a371.471 371.471 0 00-17.621-.633c.404 7.924.582 15.974.45 24.162 5.998.094 11.946.329 17.856.701.045-8.21-.211-16.283-.685-24.23zM378.814 520.682a279.157 279.157 0 001.706-12.689c-5.11.172-10.277.467-15.485.841a532.634 532.634 0 01-2.285 24.264c4.699-.354 9.371-.655 13.988-.845a279.105 279.105 0 002.076-11.571zM435.998 485.856a373.805 373.805 0 00-17.824-1.562 311.817 311.817 0 01-1.049 24.126 371.29 371.29 0 0118.029 1.563c.604-8.176.861-16.216.844-24.127zM414.468 529.877a284.767 284.767 0 002.59-21.381 375.727 375.727 0 00-18.139-.689 281.978 281.978 0 01-3.355 24.118c6.21.042 12.36.234 18.47.578.149-.878.294-1.753.434-2.626zM453.159 512.517a379.166 379.166 0 00-17.949-2.443 287.393 287.393 0 01-2.776 23.919 376.025 376.025 0 0118.113 2.367 289.582 289.582 0 002.612-23.843zM488.987 519.966a418.457 418.457 0 00-17.828-4.127 289.923 289.923 0 01-2.52 23.771 419.937 419.937 0 0117.854 4.049 289.532 289.532 0 002.494-23.693zM450.594 536.448c-.135.879-.271 1.757-.412 2.639a277.675 277.675 0 01-4.228 20.919 382.94 382.94 0 0118.107 3.063 276.724 276.724 0 004.507-23.388 389.127 389.127 0 00-12.374-2.316 341.835 341.835 0 00-5.6-.917zM485.834 548.278a276.198 276.198 0 01-3.746 18.704 449.064 449.064 0 0117.729 4.65 275.068 275.068 0 004.459-23.063 460.612 460.612 0 00-17.737-4.816 287.64 287.64 0 01-.705 4.525zM489.051 519.898a468.486 468.486 0 0117.777 4.905c.545-8.183.744-16.23.68-24.153a462.051 462.051 0 00-17.826-4.913c.078 7.925-.104 15.974-.631 24.161zM420.502 581.482a371.031 371.031 0 0118.62 1.913 278.825 278.825 0 006.749-23.319 374.968 374.968 0 00-18.328-2.194 281.337 281.337 0 01-7.041 23.6zM382.021 580.484a381.573 381.573 0 0119.378.012 284.305 284.305 0 007.437-23.908 375.927 375.927 0 00-18.875-.356 288.094 288.094 0 01-7.94 24.252zM395.489 532.005a390.547 390.547 0 00-18.704.325 278.399 278.399 0 01-6.078 24.401 397.778 397.778 0 0119.212-.585 277.749 277.749 0 005.57-24.141zM432.296 534.471c.021-.135.044-.27.064-.404a369.175 369.175 0 00-18.278-1.48 276.679 276.679 0 01-5.162 23.922c6.237.275 12.424.706 18.583 1.286a276.585 276.585 0 004.793-23.324zM359.318 557.597c-.818 4.961-1.372 7.787-1.372 7.787-.695 4.4-1.589 8.104-1.589 8.104a9.72 9.72 0 00.316 1.591c.959 2.546 2.954 4.566 5.451 6.168a291.36 291.36 0 008.491-24.43c-3.738.206-7.504.47-11.297.78zM499.86 571.724a279.85 279.85 0 01-4.233 15.675c10.699-.819 16.911-2.545 20.104-3.755.59-2.199 1.16-4.393 1.688-6.572a502.14 502.14 0 00-17.559-5.348zM521.488 557.471a278.72 278.72 0 01-3.99 19.542c2.018.654 4.047 1.343 6.074 2.027 2.717-2.646 3.275-5.281 3.275-5.281.586-1.543-.863-5.213-.863-5.213a930.61 930.61 0 01-2.27-13.846c-.562-.188-1.128-.391-1.689-.577-.171 1.114-.35 2.229-.537 3.348zM464.104 563.158a280.656 280.656 0 01-6.551 23.059c4.146.738 8.29 1.57 12.435 2.446 2.211-.086 4.232-.174 6.047-.259a278.358 278.358 0 005.978-21.357 415.056 415.056 0 00-17.909-3.889zM380.588 507.908a385.711 385.711 0 0118.278-.185 306.159 306.159 0 001.33-24.134 386.28 386.28 0 00-17.918.143 298.847 298.847 0 01-1.69 24.176zM362.564 581.513c5.216 3.174 12.377 4.628 16.927 5.264a304.554 304.554 0 002.434-6.213c-6.382.159-12.83.478-19.361.949zM401.437 580.578a298.376 298.376 0 01-2.893 7.683c6.487.364 12.91.614 19.156.778a292.035 292.035 0 002.711-7.48c-6.281-.487-12.6-.814-18.974-.981zM454.772 585.815a375.856 375.856 0 00-15.611-2.333 286.15 286.15 0 01-2.032 5.81c6.972.003 13.5-.084 19.382-.217.318-.931.649-1.865.956-2.792-.899-.161-1.797-.316-2.695-.468zM504.347 548.509a518.92 518.92 0 0117.633 5.514c.284-1.844.544-3.679.789-5.509a941.462 941.462 0 01-2.705-19.477 520.59 520.59 0 00-13.181-4.136 290.054 290.054 0 01-2.536 23.608zM528.159 277.443a155.85 155.85 0 00-4.724-1.659c.822 1.203 1.658 2.41 2.478 3.611.742-.65 1.5-1.301 2.246-1.952zM525.901 279.507c-4.353 3.821-8.629 7.64-12.853 11.438 3.402 4.984 6.779 9.954 10.138 14.9a2000.37 2000.37 0 0112.876-11.358 3816.23 3816.23 0 00-10.161-14.98zM507.94 271.192c-4.304-1.545-8.451-3.352-11.967-5.015 2.255 3.242 4.517 6.484 6.751 9.724 1.725-1.567 3.468-3.138 5.216-4.709zM490.332 287.349l-.332.306c3.41 4.947 6.803 9.886 10.172 14.812 1.66-1.497 3.322-3 4.992-4.509 2.58-2.331 5.174-4.675 7.788-7.028-3.388-4.96-6.8-9.936-10.236-14.917-4.182 3.8-8.303 7.585-12.384 11.336zM479.625 272.687c3.385-3.157 6.816-6.339 10.286-9.53a120.379 120.379 0 01-3.978-2.166c-1.185-.945-5.38-1.828-6.883-2.121h-9.121c3.249 4.601 6.483 9.208 9.696 13.817zM479.617 272.8l-4.161 3.885c-2.838 2.648-5.651 5.279-8.456 7.882 3.412 4.905 6.806 9.811 10.182 14.707 4.22-3.823 8.45-7.709 12.72-11.635a3370.261 3370.261 0 00-10.285-14.839zM448.926 258.87c2.568 3.603 5.126 7.215 7.672 10.831l3.935-3.733c2.476-2.352 4.972-4.72 7.489-7.098h-19.096zM444.027 281.62c3.406 4.854 6.795 9.714 10.166 14.573 4.23-3.804 8.456-7.693 12.708-11.64-3.42-4.917-6.856-9.831-10.313-14.737a1479.896 1479.896 0 01-12.561 11.804zM349.448 298.124c.814-1.204 1.626-2.412 2.442-3.618a691.293 691.293 0 00-3.477-3.023l-.016 8.18c.352-.513.701-1.027 1.051-1.539zM365.536 274.442c-2.601.85-4.881 1.55-6.694 2.088 1.1.955 2.209 1.91 3.297 2.865 1.122-1.647 2.268-3.302 3.397-4.953zM375.002 290.945c-4.223-3.798-8.5-7.617-12.854-11.438a4269.661 4269.661 0 00-10.16 14.979 2036.12 2036.12 0 0112.879 11.358c3.353-4.945 6.733-9.915 10.135-14.899zM394.747 262.332c-5.076 2.79-10.748 5.3-16.207 7.448 2.282 2.042 4.545 4.084 6.785 6.121 3.119-4.52 6.263-9.045 9.422-13.569zM397.721 287.349a2814.022 2814.022 0 00-12.386-11.336c-3.435 4.98-6.847 9.956-10.234 14.917 2.612 2.353 5.206 4.697 7.788 7.028 1.668 1.509 3.332 3.012 4.992 4.509a4798.96 4798.96 0 0110.172-14.812l-.332-.306zM418.122 258.87h-13.364a47.6 47.6 0 00-5.75.962 74.676 74.676 0 01-2.71 1.627c4.107 3.761 8.144 7.509 12.128 11.227 3.213-4.608 6.447-9.215 9.696-13.816zM408.434 272.8a3551.324 3551.324 0 00-10.285 14.839c4.272 3.925 8.503 7.812 12.723 11.635a4789.77 4789.77 0 0110.18-14.707c-2.804-2.603-5.62-5.233-8.456-7.882l-4.162-3.885zM431.453 269.701c2.545-3.616 5.104-7.228 7.672-10.831h-19.096c2.518 2.378 5.014 4.747 7.488 7.098l3.936 3.733zM421.15 284.553c4.25 3.946 8.476 7.835 12.705 11.64 3.374-4.859 6.765-9.719 10.166-14.573a1543.054 1543.054 0 01-12.561-11.804 2905.15 2905.15 0 00-10.31 14.737z"/></svg>