<svg xmlns="http://www.w3.org/2000/svg" viewBox="1105.982 506.29 273.844 338.292"><path fill="none" d="M1265.468 843.667h-51.498c19.704.669 38.008.422 51.498 0zM1284.767 838.691h-82.833v-.009c-14.098-.021-26.628-.82-37.694-2.357.415.251.84.493 1.278.723 10.71 1.445 22.818 2.195 36.417 2.215v-.009h82.833v.009c13.14-.02 24.88-.725 35.321-2.075.066-.04.1-.063.1-.063.505-.218.972-.45 1.419-.689-10.858 1.462-23.099 2.227-36.839 2.247v.008z"/><path d="M1284.767 647.783h-82.833v.004c-15.299-.023-28.736-.961-40.414-2.779v.011l.155 1.852c11.665 1.79 25.048 2.716 40.259 2.739v.004h82.833v-.004c15.15-.023 28.483-.944 40.115-2.72.051-.627.1-1.248.148-1.861-11.643 1.803-25.028 2.735-40.263 2.758v-.004zM1284.767 637.964h-82.833v.003c-15.548-.023-29.182-.987-40.993-2.864.048.59.093 1.165.134 1.726 11.802 1.851 25.389 2.805 40.859 2.828v.004h82.833v-.004c15.469-.023 29.052-.978 40.854-2.829l.113-1.731c-11.808 1.875-25.424 2.846-40.967 2.869v-.002zM1284.767 642.874h-82.833v.004c-15.399-.023-28.914-.972-40.646-2.813.038.644.07 1.246.098 1.788 11.731 1.82 25.212 2.759 40.548 2.782v.004h82.833v-.004c15.317-.023 28.781-.962 40.502-2.777.045-.611.088-1.211.129-1.794-11.729 1.84-25.238 2.79-40.632 2.813v-.003zM1284.767 652.693h-82.833v.004c-15.12-.023-28.418-.941-39.999-2.718l.162 1.93c11.567 1.748 24.809 2.654 39.838 2.676v.004h82.833v-.004c14.966-.022 28.154-.923 39.686-2.657.058-.645.115-1.29.17-1.931-11.549 1.763-24.796 2.676-39.856 2.699v-.003zM1284.767 628.145h-82.833v.003c-16.061-.024-30.066-1.059-42.144-3.059.085.533.165 1.074.242 1.62 12.042 1.962 25.971 2.974 41.901 2.998v.003h82.833v-.003c15.83-.024 29.673-1.029 41.663-2.967.09-.568.185-1.109.285-1.626-12.035 1.98-25.969 3.01-41.947 3.034v-.003zM1284.767 623.236h-82.833v.003c-16.518-.025-30.86-1.119-43.168-3.233.13.502.254 1.03.372 1.576 12.246 2.06 26.467 3.127 42.796 3.151v.003h82.833v-.003c16.326-.025 30.534-1.096 42.778-3.155.167-.593.33-1.124.486-1.593-12.331 2.126-26.7 3.23-43.264 3.255v-.004zM1284.767 633.055h-82.833v.003c-15.762-.024-29.55-1.017-41.473-2.945.063.561.122 1.12.178 1.676 11.901 1.896 25.636 2.87 41.294 2.894v.003h82.833v-.003c15.611-.023 29.296-.998 41.172-2.883l.097-1.661c-11.878 1.907-25.592 2.896-41.269 2.919v-.003zM1284.767 618.326h-82.833v.003c-17.598-.026-32.735-1.262-45.564-3.657.341.632.638 1.169.886 1.612 12.66 2.274 27.509 3.447 44.678 3.473v.003h82.833v-.003c17.627-.027 32.806-1.262 45.684-3.658.288-.511.576-1.049.866-1.619-13.038 2.519-28.496 3.822-46.55 3.849v-.003zM1284.767 682.15h-82.833v.004c-14.036-.021-26.502-.813-37.48-2.347l.199 2.336c10.951 1.503 23.357 2.275 37.281 2.296v.005h82.833v-.005c13.93-.021 26.327-.8 37.281-2.305.064-.786.127-1.563.188-2.333-10.978 1.535-23.433 2.332-37.469 2.353v-.004zM1284.767 677.24h-82.833v.005c-14.218-.021-26.821-.836-37.902-2.41l.193 2.268c11.057 1.543 23.6 2.339 37.71 2.36v.005h82.833v-.005c14.103-.021 26.63-.822 37.683-2.364l.175-2.265c-11.073 1.571-23.655 2.388-37.858 2.41v-.004z"/><path d="M1284.767 613.416h-82.833v.003c-18.885-.029-34.944-1.446-48.349-4.199.257.53.508 1.04.752 1.53 13.28 2.638 29.085 4.003 47.597 4.03v.003h82.833v-.003c18.861-.028 34.92-1.44 48.353-4.178a97.97 97.97 0 00.639-1.517c-13.533 2.84-29.803 4.304-48.992 4.333v-.002zM1284.767 672.331h-82.833v.005c-14.399-.022-27.14-.858-38.324-2.472l.187 2.201c11.161 1.583 23.843 2.402 38.137 2.424v.004h82.833v-.004c14.269-.021 26.922-.842 38.068-2.42l.163-2.196c-11.164 1.606-23.868 2.442-38.231 2.464v-.006zM1284.767 687.059h-82.833v.005c-13.854-.021-26.183-.79-37.057-2.285l.204 2.394c10.848 1.465 23.107 2.221 36.853 2.242v.005h82.833v-.005c13.749-.021 26.01-.777 36.86-2.243l.204-2.402c-10.878 1.497-23.201 2.274-37.063 2.295v-.006zM1284.767 662.512h-82.833v.004c-14.761-.022-27.779-.901-39.164-2.595l.174 2.066c11.366 1.665 24.327 2.528 38.99 2.55v.004h82.833v-.004c14.581-.022 27.471-.88 38.792-2.526l.14-2.06c-11.331 1.672-24.268 2.543-38.932 2.565v-.004zM1284.767 691.969h-82.833v.005c-13.676-.021-25.863-.772-36.634-2.23l.21 2.459c10.743 1.428 22.857 2.167 36.424 2.187v.005h82.833v-.005c13.564-.02 25.675-.76 36.417-2.187.074-.82.148-1.641.22-2.463-10.772 1.459-22.958 2.212-36.637 2.233v-.004zM1284.767 657.602h-82.833v.004c-14.941-.022-28.098-.921-39.582-2.657l.168 1.998c11.467 1.706 24.568 2.591 39.414 2.613v.004h82.833v-.004c14.758-.022 27.786-.9 39.204-2.587.068-.664.134-1.331.199-2.002-11.443 1.718-24.537 2.611-39.403 2.633v-.002zM1284.767 667.421h-82.833v.004c-14.58-.022-27.459-.88-38.745-2.533l.18 2.133c11.264 1.624 24.085 2.465 38.564 2.487v.004h82.833v-.004c14.428-.022 27.202-.861 38.438-2.474l.152-2.128c-11.25 1.64-24.073 2.494-38.589 2.515v-.004zM1201.935 545.123h82.833v-.001c24.294-.037 43.942-2.364 59.285-6.876-.182-.101-.366-.199-.55-.299-15.247 4.418-34.711 6.701-58.736 6.737v-.001h-82.833v.001c-24.28-.037-43.907-2.364-59.225-6.875l-.098.047c-.058.104-.111.216-.167.326 15.374 4.553 35.086 6.904 59.491 6.941zM1284.767 559.412h-82.833v.001c-25.44-.038-45.758-2.599-61.372-7.545l.018.667c15.638 4.926 35.95 7.476 61.354 7.515v.001h82.833v-.001c24.938-.038 44.968-2.496 60.489-7.246l.005-.663c-15.496 4.767-35.527 7.235-60.494 7.273v-.002z"/><path d="M1201.935 555.075h82.833v-.001c24.941-.037 44.973-2.497 60.492-7.248l-.006-.591c-15.497 4.764-35.525 7.231-60.487 7.269v-.001h-82.833v.001c-25.411-.038-45.711-2.593-61.32-7.527-.01.193-.02.387-.028.584 15.637 4.924 35.947 7.475 61.349 7.514zM1284.767 564.321h-82.833v.001c-25.302-.038-45.534-2.572-61.112-7.466l.06.748c15.599 4.863 35.812 7.382 61.053 7.42v.001h82.833v-.001c24.884-.037 44.883-2.485 60.391-7.214l.02-.736c-15.484 4.751-35.487 7.211-60.411 7.248v-.001z"/><path d="M1284.767 569.231h-82.833v.002c-25.042-.038-45.116-2.521-60.628-7.317.031.276.064.552.097.828 15.529 4.757 35.573 7.219 60.532 7.257v.001h82.833V570c24.773-.037 44.706-2.462 60.187-7.15l.039-.81c-15.457 4.714-35.4 7.155-60.226 7.192v-.001zM1284.767 608.507h-82.833v.003c-20.079-.03-36.955-1.637-50.851-4.742.216.498.431.985.645 1.465 13.801 2.995 30.466 4.544 50.206 4.573v.003h82.833v-.003c19.899-.03 36.671-1.604 50.537-4.646.18-.478.358-.958.534-1.44-13.938 3.138-30.886 4.76-51.071 4.791v-.004zM1201.935 530.196h82.833c12.474-.019 23.712-.647 33.781-1.86-.218-.05-.437-.106-.656-.159-9.897 1.162-20.923 1.76-33.125 1.778v-.001h-82.833v.001c-12.012-.018-22.882-.599-32.66-1.725l-.535.18c9.917 1.166 20.965 1.767 33.195 1.786zM1201.935 535.172h82.833v-.001c17.117-.026 31.92-1.193 44.542-3.456l-.581-.211c-12.492 2.199-27.099 3.336-43.961 3.361v-.001h-82.833v.001c-16.631-.025-31.064-1.133-43.442-3.273l-.681.194c12.531 2.215 27.192 3.36 44.123 3.386z"/><path d="M1201.935 540.147h82.833v-.001c20.959-.031 38.455-1.771 52.716-5.145l-.561-.248c-14.149 3.293-31.461 4.989-52.155 5.02v-.001h-82.833v.001c-20.768-.031-38.134-1.738-52.31-5.055l-.576.24c14.292 3.403 31.842 5.157 52.886 5.189zM1201.935 550.099h82.833v-.001c24.897-.037 44.902-2.488 60.408-7.224l-.014-.519c-15.485 4.745-35.483 7.201-60.394 7.239v-.001h-82.833v.001c-25.118-.038-45.242-2.535-60.78-7.359-.031.164-.064.327-.093.495 15.571 4.829 35.725 7.33 60.873 7.369zM1284.767 593.779h-82.833v.002c-22.681-.034-41.289-2.072-56.117-6.019.094.422.185.823.272 1.204 14.816 3.879 33.339 5.878 55.845 5.912v.002h82.833v-.002c22.546-.034 41.096-2.04 55.925-5.932l.367-1.233c-14.857 3.979-33.521 6.034-56.292 6.068v-.002z"/><path d="M1284.767 598.688h-82.833v.002c-22.066-.033-40.272-1.966-54.896-5.706l.111.446c.092.283.186.564.28.845 14.591 3.655 32.667 5.546 54.505 5.579v.002h82.833v-.002c21.717-.033 39.712-1.903 54.261-5.518.14-.438.276-.87.41-1.295-14.587 3.703-32.716 5.617-54.67 5.65v-.003z"/><path d="M1284.767 603.598h-82.833v.003c-21.149-.032-38.749-1.809-53.051-5.249.178.47.358.935.54 1.395 14.233 3.335 31.666 5.051 52.512 5.083v.002h82.833v-.002c20.827-.031 38.246-1.745 52.472-5.074.158-.461.313-.919.467-1.376-14.281 3.422-31.846 5.189-52.939 5.221v-.003zM1284.767 583.959h-82.833v.002c-23.785-.036-43.088-2.277-58.255-6.612l.199 1.052c15.17 4.277 34.407 6.49 58.056 6.526v.002h82.833v-.002c23.941-.036 43.365-2.301 58.62-6.683.058-.347.117-.692.172-1.044-15.246 4.435-34.729 6.725-58.792 6.761v-.002z"/><path d="M1284.767 588.869h-82.833v.002c-23.259-.035-42.226-2.181-57.235-6.329l.234 1.13c15.005 4.084 33.899 6.196 57.001 6.231v.002h82.833v-.002c23.357-.035 42.41-2.194 57.494-6.368.158-.564.265-.956.319-1.153-15.099 4.253-34.255 6.454-57.813 6.489v-.002zM1284.767 579.05h-82.833v.002c-24.259-.036-43.868-2.361-59.17-6.867.054.327.109.652.165.976 15.311 4.454 34.864 6.754 59.005 6.791v.002h82.833v-.002c24.319-.037 43.987-2.368 59.348-6.887.038-.323.076-.645.111-.97-15.344 4.563-35.044 6.92-59.459 6.956v-.001z"/><path d="M1284.767 574.14h-82.833v.002c-24.688-.037-44.55-2.45-59.969-7.114l.131.908c15.431 4.617 35.254 7.003 59.838 7.04v.002h82.833v-.002c24.591-.037 44.417-2.425 59.85-7.044.024-.296.046-.592.068-.888-15.412 4.654-35.258 7.061-59.919 7.098v-.002zM1201.935 525.22h82.833c7.717-.012 14.948-.263 21.737-.734l-.378-.148c-6.68.454-13.785.696-21.359.708h-82.833c-7.759-.012-15.025-.266-21.846-.742l-.377.148c6.929.493 14.322.756 22.223.768zM1284.767 809.797h-82.833v.008c-15.188-.023-28.53-.95-40.128-2.747-.219 1.42-.428 2.737-.624 3.944 11.792 1.833 25.341 2.779 40.751 2.802v.008h82.833v-.008c15.442-.023 29.014-.974 40.823-2.814a957.161 957.161 0 01-.614-3.946c-11.617 1.805-24.985 2.737-40.209 2.76v-.007z"/><path d="M1284.767 804.888h-82.833v.008c-14.879-.022-27.979-.916-39.411-2.641a503.719 503.719 0 01-.576 3.885c11.614 1.756 24.906 2.666 39.987 2.689v.008h82.833v-.008c15.117-.023 28.434-.938 40.067-2.703a897.131 897.131 0 01-.583-3.884c-11.45 1.732-24.572 2.631-39.484 2.654v-.008z"/><path d="M1284.767 799.978h-82.833v.008c-14.588-.022-27.465-.882-38.739-2.541a529.986 529.986 0 01-.531 3.825c11.444 1.686 24.497 2.561 39.27 2.583v.008h82.833v-.008c14.804-.022 27.877-.903 39.338-2.597-.192-1.303-.376-2.574-.555-3.822-11.286 1.664-24.174 2.529-38.783 2.551v-.007zM1284.767 780.34h-82.833v.007c-13.614-.021-25.747-.767-36.472-2.213a499.13 499.13 0 01-.368 3.581c10.851 1.461 23.105 2.215 36.84 2.236v.007h82.833v-.007c13.665-.021 25.861-.768 36.671-2.215-.158-1.26-.306-2.453-.441-3.572-10.667 1.426-22.717 2.163-36.229 2.183v-.007z"/><path d="M1284.767 795.069h-82.833v.008c-14.316-.022-26.985-.85-38.109-2.448a571.16 571.16 0 01-.489 3.765c11.281 1.622 24.114 2.462 38.598 2.484v.008h82.833v-.008c14.502-.022 27.341-.868 38.633-2.494a821.193 821.193 0 01-.526-3.76c-11.125 1.599-23.789 2.431-38.107 2.452v-.007zM1284.767 785.25h-82.833v.007c-13.826-.021-26.129-.788-36.976-2.279a561.377 561.377 0 01-.408 3.645c10.983 1.509 23.423 2.284 37.384 2.305v.007h82.833v-.007c13.929-.021 26.335-.797 37.299-2.299a913.3 913.3 0 01-.47-3.636c-10.813 1.479-23.062 2.244-36.829 2.265v-.008zM1284.767 819.616h-82.833v.008c-15.883-.024-29.744-1.038-41.704-3-.371 2.092-.593 3.228-.593 3.228-.044.28-.089.558-.135.832 12.181 2.009 26.284 3.048 42.432 3.072v.008h82.833v-.008c16.14-.024 30.228-1.066 42.405-3.073a860.996 860.996 0 01-.677-4.068c-11.967 1.966-25.83 2.986-41.728 3.01v-.009z"/><path d="M1284.767 790.159h-82.833v.007c-14.062-.021-26.541-.818-37.522-2.36a525.826 525.826 0 01-.448 3.705c11.128 1.563 23.756 2.37 37.969 2.391v.007h82.833v-.007c14.21-.021 26.827-.832 37.953-2.395-.174-1.275-.339-2.504-.498-3.698-10.967 1.537-23.418 2.336-37.456 2.357v-.007zM1284.767 814.707h-82.833v.008c-15.519-.023-29.118-.987-40.891-2.861-.253 1.54-.482 2.882-.678 4.001 11.98 1.916 25.805 2.902 41.568 2.926v.008h82.833v-.008c15.783-.024 29.611-1.018 41.602-2.939a897.615 897.615 0 01-.646-4.007c-11.79 1.883-25.403 2.856-40.956 2.88v-.008zM1284.767 520.244a349.71 349.71 0 0011.612-.212l-.209-.101c-3.685.125-7.477.198-11.403.204h-82.833a350.898 350.898 0 01-11.633-.212l-.216.1c3.825.135 7.763.214 11.85.22h82.832zM1284.767 515.269c.857-.001 1.7-.009 2.545-.016l-.078-.042c-.82.007-1.636.015-2.467.016h-82.833c-.913-.001-1.812-.01-2.712-.017l-.069.042c.922.008 1.845.017 2.781.018h82.833zM1284.767 834.345h-82.833v.008c-16.454-.025-30.734-1.114-42.979-3.218.138.288.293.567.458.841 1.17 1.727 2.861 3.158 4.827 4.349 11.066 1.537 23.596 2.336 37.694 2.357v.009h82.833v-.009c13.74-.021 25.981-.785 36.839-2.247 3.011-1.612 4.741-3.638 5.712-5.236-12.152 2.058-26.283 3.129-42.551 3.153v-.007z"/><path d="M1284.767 829.435h-82.833v.008c-16.677-.025-31.122-1.142-43.478-3.303-.244 1.129-.409 1.815-.409 1.815a9.53 9.53 0 00.629 2.538c12.37 2.1 26.743 3.188 43.258 3.213v.008h82.833v-.008c16.373-.025 30.628-1.1 42.926-3.165.618-1.177.794-1.994.794-1.994.23-.605.145-1.535-.041-2.444-12.4 2.184-26.911 3.314-43.679 3.339v-.007z"/><path d="M1284.767 824.526h-82.833v.008c-16.263-.024-30.401-1.089-42.552-3.145a119.032 119.032 0 01-.79 4.115c12.388 2.11 26.789 3.203 43.342 3.227v.008h82.833v-.008c16.64-.025 31.102-1.131 43.533-3.263-.293-1.156-.677-2.133-.677-2.133l-.331-1.946c-12.146 2.054-26.272 3.12-42.525 3.145v-.008zM1284.767 839.254h-82.833v.009c-13.598-.02-25.707-.77-36.417-2.215 8.229 4.331 19.992 4.983 19.992 4.983 9.558.801 19.164 1.32 28.46 1.636h51.498c13.844-.433 22.62-1.05 22.62-1.05 23.066-.447 31.053-4.855 32-5.429-10.441 1.351-22.181 2.056-35.321 2.075v-.009zM1284.767 721.426h-82.833v.006c-12.724-.019-24.146-.677-34.348-1.942.038.948.07 1.896.1 2.845 10.199 1.245 21.59 1.891 34.248 1.91v.006h82.833v-.006c12.539-.019 23.829-.656 33.955-1.878.03-.999.062-1.95.094-2.843-10.128 1.241-21.447 1.89-34.048 1.909v-.007zM1284.767 716.517h-82.833v.005c-12.822-.019-24.322-.687-34.584-1.971.052.927.099 1.855.143 2.783 10.248 1.26 21.703 1.915 34.442 1.934v.006h82.833v-.006c12.613-.019 23.96-.664 34.131-1.901.042-1.028.083-1.966.122-2.78-10.18 1.258-21.566 1.915-34.253 1.934v-.004zM1284.767 696.878h-82.833v.005c-13.499-.02-25.543-.755-36.21-2.176l.216 2.527c10.638 1.391 22.607 2.112 35.994 2.132v.005h82.833v-.005c13.368-.02 25.32-.741 35.946-2.128.081-.836.161-1.68.24-2.529-10.661 1.419-22.696 2.154-36.186 2.174v-.005zM1284.767 726.336h-82.833v.006c-12.658-.019-24.028-.67-34.19-1.922.024.969.043 1.938.058 2.906 10.17 1.235 21.523 1.876 34.132 1.895v.006h82.833v-.006c12.487-.019 23.736-.651 33.83-1.862.02-1.003.042-1.971.067-2.906-10.089 1.229-21.358 1.871-33.896 1.89v-.007zM1284.767 731.245h-82.833v.006c-12.623-.019-23.966-.666-34.106-1.912.01.99.015 1.979.017 2.967 10.159 1.232 21.498 1.87 34.089 1.889v.006h82.833v-.006c12.456-.019 23.681-.647 33.756-1.853.01-1.013.022-2.004.038-2.969-10.062 1.221-21.297 1.859-33.794 1.878v-.006zM1284.767 706.697h-82.833v.005c-13.146-.02-24.904-.721-35.361-2.069l.228 2.661c10.423 1.318 22.105 2.003 35.133 2.023v.005h82.833v-.005c12.923-.019 24.516-.697 34.875-1.994.102-.864.203-1.757.305-2.67-10.413 1.334-22.108 2.029-35.179 2.049v-.005zM1284.767 711.607h-82.833v.005c-12.968-.02-24.585-.703-34.936-2.016l.172 2 .045.726c10.319 1.283 21.864 1.951 34.719 1.97v.005h82.833v-.005c12.711-.019 24.135-.675 34.365-1.93.06-1.115.1-1.74.1-1.74.042-.32.084-.656.126-.987-10.266 1.285-21.764 1.957-34.591 1.976v-.004zM1284.767 701.788h-82.833v.005c-13.323-.02-25.223-.738-35.786-2.123l.222 2.594c10.531 1.354 22.356 2.058 35.564 2.078v.005h82.833v-.005c13.156-.02 24.936-.721 35.436-2.064.09-.854.18-1.719.268-2.599-10.543 1.378-22.415 2.094-35.704 2.114v-.005zM1284.767 736.155h-82.833v.006c-12.617-.019-23.954-.665-34.09-1.91a338.473 338.473 0 01-.023 3.028c10.165 1.233 21.512 1.873 34.113 1.892v.006h82.833v-.006c12.447-.019 23.665-.646 33.734-1.85-.001-1.03.002-2.037.008-3.032-10.049 1.217-21.267 1.852-33.742 1.871v-.005z"/><path d="M1284.767 741.064h-82.833v.006c-12.637-.019-23.99-.668-34.138-1.916a447.254 447.254 0 01-.062 3.09c10.188 1.24 21.563 1.884 34.2 1.903v.006h82.833v-.006c12.461-.019 23.69-.648 33.768-1.854a410.543 410.543 0 01-.027-3.094c-10.048 1.217-21.266 1.852-33.741 1.871v-.006zM1284.767 765.612h-82.833v.007c-13.093-.02-24.806-.716-35.227-2.055a456.86 456.86 0 01-.253 3.397c10.513 1.345 22.311 2.044 35.48 2.064v.007h82.833v-.007c12.958-.019 24.584-.7 34.97-2.003a236.991 236.991 0 01-.29-3.393c-10.285 1.294-21.813 1.97-34.68 1.989v-.006zM1284.767 775.431h-82.833v.007c-13.421-.02-25.398-.748-36.011-2.155a542.13 542.13 0 01-.33 3.52c10.728 1.418 22.814 2.152 36.341 2.173v.007h82.833v-.007c13.415-.02 25.408-.745 36.07-2.14a718.052 718.052 0 01-.412-3.51c-10.527 1.377-22.383 2.091-35.658 2.112v-.007z"/><path d="M1284.767 760.702h-82.833v.007c-12.958-.019-24.565-.702-34.905-2.014a465.032 465.032 0 01-.214 3.336c10.423 1.315 22.101 1.999 35.119 2.018v.007h82.833v-.007c12.79-.019 24.281-.682 34.564-1.952-.08-1.11-.153-2.222-.22-3.335-10.2 1.267-21.617 1.928-34.344 1.947v-.007zM1284.767 770.521h-82.833v.007c-13.247-.02-25.084-.731-35.596-2.102a507.562 507.562 0 01-.292 3.459c10.616 1.379 22.549 2.095 35.888 2.115v.007h82.833V774c13.178-.02 24.98-.722 35.499-2.069-.161-1.43-.287-2.594-.378-3.448-10.395 1.331-22.071 2.025-35.122 2.044v-.006zM1284.767 745.973h-82.833v.006c-12.683-.019-24.072-.673-34.247-1.93a401.47 401.47 0 01-.101 3.151c10.226 1.252 21.65 1.902 34.348 1.921v.006h82.833v-.006c12.499-.019 23.759-.651 33.862-1.865-.027-1.06-.049-2.112-.066-3.155-10.062 1.222-21.298 1.859-33.796 1.878v-.006z"/><path d="M1284.767 750.883h-82.833v.006c-12.752-.019-24.196-.68-34.413-1.951a409.219 409.219 0 01-.139 3.213c10.278 1.268 21.769 1.928 34.552 1.947v.006h82.833v-.006c12.565-.019 23.877-.659 34.021-1.885a357.718 357.718 0 01-.111-3.216c-10.091 1.231-21.365 1.874-33.91 1.893v-.007z"/><path d="M1284.767 755.793h-82.833v.007c-12.845-.019-24.361-.69-34.633-1.98a412.36 412.36 0 01-.177 3.274c10.344 1.289 21.92 1.96 34.81 1.979v.007h82.833v-.007c12.66-.019 24.048-.669 34.251-1.913-.06-1.094-.113-2.186-.161-3.276-10.136 1.246-21.469 1.896-34.09 1.915v-.006z"/></svg>