<svg xmlns="http://www.w3.org/2000/svg" viewBox="280.996 153.383 80 80"><g fill-rule="evenodd" clip-rule="evenodd"><path d="M280.996 153.383h80v80h-80z"/><path fill="#FFF" d="M360.996 229.385v1.122a44.14 44.14 0 01-1.291.326c-5.865 1.393-13.737 2.114-23.799 2.124v.002h-29.82v-.002c-10.062-.01-17.934-.73-23.799-2.124a48.544 48.544 0 01-1.291-.326v-1.122c.55.155 1.121.303 1.714.443 5.74 1.364 13.471 2.069 23.377 2.078v-.002h29.82v.002c9.905-.01 17.637-.715 23.377-2.078.592-.14 1.163-.288 1.712-.443m0-1.155v1.105c-.42.113-.851.222-1.294.327-5.864 1.393-13.735 2.114-23.796 2.123v.002h-29.82v-.002c-10.061-.01-17.932-.73-23.796-2.123a44.338 44.338 0 01-1.294-.327v-1.105c.549.154 1.119.302 1.71.442 5.741 1.364 13.473 2.069 23.38 2.079v-.002h29.82v.002c9.906-.01 17.639-.715 23.38-2.079.592-.14 1.162-.288 1.71-.442zm0-1.155v1.089a48.01 48.01 0 01-1.297.328c-5.863 1.393-13.733 2.113-23.793 2.123v.002h-29.82v-.002c-10.06-.01-17.93-.73-23.793-2.123a44.536 44.536 0 01-1.297-.328v-1.089c.548.154 1.117.301 1.707.442 5.742 1.364 13.475 2.069 23.383 2.079v-.002h29.82v.002c9.908-.01 17.641-.715 23.383-2.079.591-.141 1.16-.288 1.707-.442zm0-1.155v1.072c-.422.113-.855.223-1.3.329-5.862 1.393-13.731 2.113-23.79 2.123v.002h-29.82v-.002c-10.059-.01-17.928-.73-23.79-2.123a44.735 44.735 0 01-1.3-.329v-1.072c.547.154 1.115.301 1.704.441 5.742 1.364 13.477 2.07 23.386 2.079v-.002h29.82v.002c9.909-.01 17.644-.715 23.386-2.079a42.01 42.01 0 001.704-.441zm0-1.155v1.056c-.423.114-.858.224-1.303.33-5.861 1.392-13.729 2.112-23.787 2.122v.002h-29.82v-.002c-10.058-.01-17.926-.73-23.787-2.122-.446-.106-.88-.216-1.303-.33v-1.056c.546.153 1.113.3 1.701.44 5.743 1.364 13.479 2.07 23.389 2.08v-.002h29.82v.002c9.91-.01 17.646-.715 23.389-2.08a42.3 42.3 0 001.701-.44zm0-1.155v1.039c-.424.114-.86.224-1.307.33-5.86 1.392-13.727 2.112-23.784 2.122v.002h-29.82v-.002c-10.057-.01-17.923-.73-23.784-2.122a45.166 45.166 0 01-1.306-.33v-1.039a44.38 44.38 0 001.698.439c5.744 1.365 13.481 2.07 23.392 2.08v-.002h29.82v.002c9.911-.01 17.648-.715 23.392-2.08a41.782 41.782 0 001.699-.439zm0-1.155v1.022c-.425.114-.862.225-1.31.331-5.859 1.392-13.725 2.112-23.781 2.122v.002h-29.82v-.002c-10.055-.01-17.921-.73-23.781-2.122a45.443 45.443 0 01-1.31-.331v-1.022a42.45 42.45 0 001.695.438c5.745 1.365 13.483 2.071 23.395 2.08v-.002h29.82v.002c9.912-.01 17.65-.716 23.395-2.08a41.275 41.275 0 001.697-.438zm0-1.155v1.006c-.426.115-.864.225-1.313.332-5.858 1.392-13.723 2.111-23.777 2.121v.002h-29.82v-.002c-10.054-.01-17.919-.73-23.777-2.121a45.643 45.643 0 01-1.313-.332V221.3a44.08 44.08 0 001.692.437c5.746 1.365 13.485 2.071 23.398 2.081v-.002h29.82v.002c9.913-.01 17.652-.716 23.398-2.081a40.267 40.267 0 001.692-.437zm0-1.155v.989c-.427.115-.866.226-1.316.333-5.858 1.392-13.721 2.111-23.774 2.121v.002h-29.82v-.002c-10.053-.01-17.917-.729-23.774-2.121-.45-.107-.889-.218-1.316-.333v-.989a43.93 43.93 0 001.689.436c5.747 1.365 13.487 2.071 23.402 2.081v-.002h29.82v.002c9.914-.01 17.654-.716 23.402-2.081a41.249 41.249 0 001.687-.436zm0-1.154v.973c-.428.115-.868.227-1.319.334-5.857 1.391-13.719 2.111-23.771 2.121v.002h-29.82v-.002c-10.052-.01-17.915-.729-23.771-2.121a42.94 42.94 0 01-1.319-.334v-.973c.541.152 1.103.297 1.685.435 5.748 1.366 13.489 2.072 23.405 2.081v-.002h29.82v.002c9.916-.01 17.657-.716 23.405-2.081a45.634 45.634 0 001.685-.435zm0-1.155v.956c-.429.116-.87.227-1.322.335-5.856 1.391-13.717 2.11-23.768 2.12v.002h-29.82v-.002c-10.051-.01-17.912-.729-23.768-2.12a46.247 46.247 0 01-1.322-.335v-.956c.54.151 1.101.296 1.682.434 5.749 1.366 13.491 2.072 23.408 2.082v-.002h29.82v.002c9.917-.01 17.659-.716 23.408-2.082a44.048 44.048 0 001.682-.434zm0-1.155v.939c-.43.116-.872.228-1.325.336-5.855 1.391-13.715 2.11-23.765 2.12v.002h-29.82v-.002c-10.05-.01-17.91-.729-23.765-2.12-.454-.108-.895-.22-1.325-.336v-.939a43.87 43.87 0 001.679.434c5.75 1.366 13.493 2.072 23.411 2.082v-.002h29.82v.002c9.918-.01 17.661-.716 23.411-2.082.58-.139 1.14-.283 1.679-.434zm0-1.155v.923c-.431.116-.874.228-1.328.336-5.854 1.391-13.713 2.11-23.762 2.12v.002h-29.82v-.002c-10.048-.01-17.908-.729-23.762-2.12-.455-.108-.897-.22-1.328-.336v-.923a43.72 43.72 0 001.676.433c5.751 1.366 13.495 2.073 23.414 2.082v-.002h29.82v.002c9.919-.01 17.663-.716 23.414-2.082.58-.138 1.138-.282 1.676-.433zm0-1.155v.906c-.432.117-.876.229-1.332.337-5.853 1.391-13.711 2.109-23.759 2.119v.002h-29.82v-.002c-10.047-.01-17.906-.729-23.759-2.119-.456-.108-.9-.221-1.332-.337v-.906a43.57 43.57 0 001.673.432c5.752 1.366 13.497 2.073 23.417 2.083v-.002h29.82v.002c9.92-.01 17.665-.716 23.417-2.083.58-.138 1.138-.282 1.675-.432zm0-1.155v.89c-.433.117-.878.229-1.335.338-5.852 1.39-13.709 2.109-23.756 2.119v.002h-29.82v-.002c-10.046-.01-17.904-.729-23.756-2.119a46.322 46.322 0 01-1.335-.338v-.89c.536.15 1.093.294 1.67.431 5.753 1.367 13.499 2.073 23.42 2.083v-.002h29.82v.002c9.921-.01 17.668-.716 23.42-2.083a42.604 42.604 0 001.672-.431zm0-1.155v.873c-.434.117-.88.23-1.338.339-5.851 1.39-13.708 2.109-23.752 2.119v.002h-29.82v-.002c-10.045-.01-17.901-.729-23.752-2.119a46.522 46.522 0 01-1.338-.339v-.873c.535.15 1.091.293 1.667.43 5.754 1.367 13.501 2.074 23.423 2.083v-.002h29.82v.002c9.923-.01 17.67-.717 23.423-2.083a43.27 43.27 0 001.667-.43zm0-1.155v.857c-.435.117-.882.231-1.341.34-5.85 1.39-13.706 2.109-23.749 2.118v.002h-29.82v-.002c-10.044-.01-17.899-.729-23.749-2.118a43.626 43.626 0 01-1.341-.34v-.857c.534.15 1.089.293 1.664.429 5.754 1.367 13.503 2.074 23.427 2.084v-.002h29.82v.002c9.924-.01 17.672-.717 23.427-2.084.573-.136 1.128-.28 1.662-.429zm0-1.155v.84c-.436.118-.884.231-1.344.341-5.849 1.39-13.704 2.108-23.746 2.118v.002h-29.82v-.002c-10.043-.01-17.897-.728-23.746-2.118-.46-.109-.908-.223-1.344-.341v-.84c.534.149 1.087.292 1.66.428 5.755 1.367 13.505 2.074 23.43 2.084v-.002h29.82v.002c9.925-.01 17.674-.717 23.43-2.084a43.387 43.387 0 001.66-.428zm0-1.155v.823c-.437.118-.886.232-1.347.341-5.848 1.389-13.702 2.108-23.743 2.118v.002h-29.82v-.002c-10.041-.01-17.895-.728-23.743-2.118a47.16 47.16 0 01-1.347-.341v-.823a43.72 43.72 0 001.657.427c5.756 1.368 13.507 2.075 23.433 2.084v-.002h29.82v.002c9.926-.01 17.676-.717 23.433-2.084a43.236 43.236 0 001.657-.427zm0-1.155v.807c-.438.118-.888.232-1.35.342-5.847 1.389-13.7 2.107-23.74 2.117v.001h-29.82v-.001c-10.04-.01-17.893-.728-23.74-2.117-.462-.11-.912-.224-1.35-.342v-.807c.532.149 1.083.291 1.654.427 5.757 1.368 13.509 2.075 23.436 2.085v-.001h29.82v.001c9.927-.01 17.679-.717 23.436-2.085a43.06 43.06 0 001.654-.427zm0-1.155v.79c-.439.119-.89.233-1.353.343-5.846 1.389-13.698 2.107-23.737 2.117v.001h-29.82v-.001c-10.039-.01-17.89-.728-23.737-2.117a45.91 45.91 0 01-1.353-.343v-.79c.531.148 1.081.29 1.651.426 5.758 1.368 13.511 2.075 23.439 2.085v-.001h29.82v.001c9.928-.01 17.681-.717 23.439-2.085.57-.136 1.121-.278 1.651-.426zm0-1.155v.774c-.44.119-.892.234-1.357.344-5.846 1.389-13.696 2.107-23.734 2.117v.001h-29.82v-.001c-10.038-.01-17.888-.728-23.734-2.117-.465-.11-.917-.225-1.357-.344v-.774c.53.148 1.079.29 1.648.425 5.759 1.368 13.513 2.076 23.442 2.085v-.001h29.82v.001c9.93-.01 17.683-.717 23.442-2.085a41.948 41.948 0 001.65-.425zm0-1.155v.757a47.2 47.2 0 01-1.36.345c-5.845 1.389-13.694 2.106-23.731 2.116v.001h-29.82v-.001c-10.037-.01-17.886-.728-23.731-2.116a47.2 47.2 0 01-1.36-.345v-.757c.529.148 1.077.289 1.645.424 5.76 1.368 13.515 2.076 23.445 2.086v-.001h29.82v.001c9.931-.01 17.685-.717 23.445-2.086.57-.135 1.119-.276 1.647-.424zm0-1.155v.74c-.442.12-.896.235-1.363.346-5.844 1.388-13.692 2.106-23.727 2.116v.001h-29.82v-.001c-10.036-.01-17.884-.728-23.727-2.116a44.312 44.312 0 01-1.363-.346v-.74c.528.147 1.075.288 1.642.423 5.761 1.369 13.517 2.076 23.448 2.086v-.001h29.82v.001c9.932-.01 17.687-.717 23.448-2.086a40.713 40.713 0 001.642-.423zm0-1.155v.724a47.6 47.6 0 01-1.366.347c-5.843 1.388-13.69 2.106-23.724 2.116v.001h-29.82v-.001c-10.034-.01-17.882-.728-23.724-2.116a44.5 44.5 0 01-1.366-.347v-.724c.527.147 1.073.288 1.639.422 5.762 1.369 13.518 2.077 23.452 2.086v-.001h29.82v.001c9.933-.01 17.69-.718 23.452-2.086.564-.134 1.11-.275 1.637-.422zm0-1.155v.707c-.444.12-.9.236-1.369.347-5.842 1.388-13.688 2.105-23.721 2.115v.001h-29.82v-.001c-10.033-.01-17.879-.727-23.721-2.115a44.718 44.718 0 01-1.369-.347v-.707c.526.147 1.071.287 1.635.421 5.763 1.369 13.52 2.077 23.455 2.087v-.001h29.82v.001c9.934-.01 17.692-.718 23.455-2.087a41.247 41.247 0 001.635-.421zm0-1.155v.691c-.445.12-.902.237-1.372.348-5.841 1.388-13.686 2.105-23.718 2.115v.001h-29.82v-.001c-10.032-.01-17.877-.727-23.718-2.115-.47-.112-.927-.228-1.372-.348v-.691c.525.146 1.069.287 1.632.42 5.764 1.369 13.522 2.077 23.458 2.087v-.001h29.82v.001c9.935-.01 17.694-.718 23.458-2.087a41.1 41.1 0 001.632-.42zm0-1.155v.674c-.446.121-.904.237-1.375.349-5.84 1.387-13.684 2.105-23.715 2.115v.001h-29.82v-.001c-10.031-.01-17.875-.727-23.715-2.115-.471-.112-.93-.228-1.375-.349v-.674c.524.146 1.067.286 1.629.42 5.765 1.37 13.524 2.078 23.461 2.087v-.001h29.82v.001c9.937-.01 17.696-.718 23.461-2.087a44.687 44.687 0 001.629-.42zm0-1.155v.658c-.447.121-.906.238-1.378.35-5.839 1.387-13.682 2.104-23.712 2.114v.001h-29.82v-.001c-10.03-.01-17.873-.727-23.712-2.114a44.549 44.549 0 01-1.378-.35v-.658c.523.146 1.065.285 1.626.419 5.766 1.37 13.526 2.078 23.464 2.088v-.001h29.82v.001c9.938-.01 17.698-.718 23.464-2.088a42.576 42.576 0 001.626-.419zm0-1.155v.641c-.448.121-.908.238-1.382.351-5.838 1.387-13.68 2.104-23.709 2.114v.001h-29.82v-.001c-10.029-.01-17.871-.727-23.709-2.114a44.808 44.808 0 01-1.382-.351v-.641c.522.145 1.063.285 1.623.418 5.766 1.37 13.528 2.078 23.467 2.088v-.001h29.82v.001c9.939-.01 17.701-.718 23.467-2.088a41.601 41.601 0 001.625-.418zm0-1.155v.624c-.449.122-.91.239-1.385.352-5.837 1.387-13.678 2.104-23.706 2.114v.001h-29.82v-.001c-10.027-.01-17.868-.727-23.706-2.114-.475-.113-.936-.23-1.385-.352v-.624c.521.145 1.061.284 1.62.417 5.767 1.37 13.53 2.079 23.47 2.088v-.001h29.82v.001c9.94-.01 17.703-.718 23.47-2.088a39.747 39.747 0 001.622-.417zm0-1.154v.608c-.45.122-.912.24-1.388.353-5.836 1.387-13.676 2.103-23.702 2.113v.001h-29.82v-.001c-10.026-.01-17.866-.727-23.702-2.113a45.184 45.184 0 01-1.388-.353v-.608c.52.145 1.059.284 1.617.416 5.768 1.37 13.532 2.079 23.473 2.089v-.001h29.82v.001c9.941-.01 17.705-.718 23.473-2.089a46.176 46.176 0 001.617-.416zm0-1.155v.591c-.451.122-.914.24-1.391.353-5.835 1.386-13.674 2.103-23.699 2.113v.001h-29.82v-.001c-10.025-.01-17.864-.727-23.699-2.113-.477-.113-.94-.231-1.391-.353v-.591c.519.145 1.057.283 1.614.415 5.769 1.371 13.534 2.079 23.477 2.089v-.001h29.82v.001c9.942-.01 17.707-.718 23.477-2.089a44.837 44.837 0 001.612-.415zm0-1.155v.575c-.452.123-.916.241-1.394.354-5.834 1.386-13.672 2.103-23.696 2.113v.001h-29.82v-.001c-10.024-.01-17.862-.727-23.696-2.113a47.88 47.88 0 01-1.394-.354v-.575c.518.144 1.055.282 1.611.414 5.77 1.371 13.536 2.08 23.48 2.089v-.001h29.82v.001c9.944-.01 17.709-.719 23.48-2.089.554-.132 1.091-.27 1.609-.414zm0-1.155v.558a45.78 45.78 0 01-1.397.355c-5.833 1.386-13.67 2.103-23.693 2.112v.001h-29.82v-.001c-10.023-.01-17.86-.726-23.693-2.112a45.047 45.047 0 01-1.397-.355v-.558c.517.144 1.053.282 1.607.413 5.771 1.371 13.538 2.08 23.483 2.09v-.001h29.82v.001c9.945-.01 17.712-.719 23.483-2.09.554-.132 1.09-.269 1.607-.413zm0-1.155v.541c-.453.123-.92.242-1.4.356-5.833 1.386-13.668 2.102-23.69 2.112v.001h-29.82v-.001c-10.022-.01-17.857-.726-23.69-2.112-.48-.114-.947-.233-1.4-.356v-.541c.516.143 1.051.281 1.604.412 5.772 1.371 13.54 2.08 23.486 2.09v-.001h29.82v.001c9.946-.01 17.714-.719 23.486-2.09a43.887 43.887 0 001.604-.412zm0-1.155v.525a45.42 45.42 0 01-1.403.357c-5.832 1.385-13.666 2.102-23.687 2.112v.001h-29.82v-.002c-10.021-.01-17.855-.726-23.687-2.112a42.727 42.727 0 01-1.403-.357v-.525c.515.143 1.049.28 1.601.412 5.773 1.372 13.542 2.081 23.489 2.09v-.001h29.82v.001c9.947-.01 17.716-.719 23.489-2.09a43.73 43.73 0 001.601-.411zm0-1.155v.508c-.455.124-.924.243-1.406.358-5.831 1.385-13.664 2.101-23.684 2.111v.001h-29.82v-.001c-10.019-.01-17.853-.726-23.684-2.111a45.606 45.606 0 01-1.406-.358v-.508c.514.143 1.047.28 1.598.411 5.774 1.372 13.544 2.081 23.492 2.091v-.001h29.82v.001c9.948-.01 17.718-.719 23.492-2.091a43.545 43.545 0 001.598-.411zm0-1.155v.492c-.456.124-.926.244-1.41.359-5.83 1.385-13.662 2.101-23.681 2.111v.001h-29.82v-.001c-10.018-.01-17.851-.726-23.681-2.111a43.149 43.149 0 01-1.41-.359v-.492c.514.143 1.045.279 1.595.41 5.775 1.372 13.546 2.081 23.495 2.091v-.001h29.82v.001c9.949-.01 17.72-.719 23.495-2.091a42.494 42.494 0 001.597-.41zm0-1.155v.475a45.36 45.36 0 01-1.413.359c-5.829 1.385-13.66 2.101-23.677 2.111v.001h-29.82v-.001c-10.017-.01-17.849-.726-23.677-2.111a46.087 46.087 0 01-1.413-.359v-.475c.513.142 1.043.279 1.592.409 5.776 1.372 13.548 2.082 23.498 2.091v-.001h29.82v.001c9.95-.01 17.723-.719 23.498-2.091a43.23 43.23 0 001.592-.409zm0-1.155v.458c-.458.125-.93.245-1.416.36-5.828 1.385-13.658 2.1-23.674 2.11v.001h-29.82v-.001c-10.016-.01-17.846-.726-23.674-2.11a45.544 45.544 0 01-1.416-.36v-.458c.512.142 1.041.278 1.589.408 5.777 1.372 13.55 2.082 23.502 2.092v-.001h29.82v.001c9.952-.01 17.725-.719 23.502-2.092.546-.13 1.076-.266 1.587-.408zm0-1.155v.442a43.06 43.06 0 01-1.419.361c-5.827 1.384-13.656 2.1-23.671 2.11v.001h-29.82v-.001c-10.015-.01-17.844-.726-23.671-2.11a45.73 45.73 0 01-1.419-.361v-.442c.511.142 1.039.277 1.586.407 5.778 1.373 13.552 2.082 23.505 2.092v-.001h29.82v.001c9.953-.01 17.727-.72 23.505-2.092.545-.13 1.074-.265 1.584-.407zm0-1.155v.425c-.46.125-.934.246-1.422.362-5.826 1.384-13.655 2.1-23.668 2.11v.001h-29.82v-.001c-10.014-.01-17.842-.725-23.668-2.11a45.916 45.916 0 01-1.422-.362v-.425c.51.141 1.037.277 1.582.406 5.779 1.373 13.554 2.083 23.508 2.092v-.001h29.82v.001c9.954-.01 17.729-.72 23.508-2.092a43.217 43.217 0 001.582-.406zm0-1.155v.409c-.461.126-.936.247-1.425.363-5.825 1.384-13.653 2.099-23.665 2.109v.001h-29.82v-.001c-10.012-.01-17.84-.725-23.665-2.109a43.411 43.411 0 01-1.425-.363v-.409c.509.141 1.035.276 1.579.405 5.779 1.373 13.556 2.083 23.511 2.093v-.001h29.82v.001c9.955-.01 17.731-.72 23.511-2.093a43.06 43.06 0 001.579-.405zm0-1.155v.392c-.462.126-.938.247-1.428.364-5.824 1.384-13.651 2.099-23.662 2.109v.001h-29.82v-.001c-10.011-.01-17.838-.725-23.662-2.109-.49-.117-.966-.238-1.428-.364v-.392c.508.141 1.033.276 1.576.405 5.78 1.373 13.558 2.083 23.514 2.093v-.001h29.82v.001c9.956-.01 17.734-.72 23.514-2.093a42.876 42.876 0 001.576-.405zm0-1.155v.375c-.463.126-.94.248-1.431.365-5.823 1.383-13.649 2.099-23.659 2.109v.001h-29.82v-.001c-10.01-.01-17.835-.725-23.659-2.109a43.765 43.765 0 01-1.431-.365v-.375c.507.14 1.031.275 1.573.404 5.781 1.374 13.56 2.084 23.517 2.093v-.001h29.82v.001c9.957-.01 17.736-.72 23.517-2.093a42.719 42.719 0 001.573-.404zm0-1.155v.359c-.464.127-.942.249-1.435.366-5.822 1.383-13.647 2.098-23.656 2.108v.001h-29.82v-.001c-10.009-.01-17.833-.725-23.656-2.108a44.01 44.01 0 01-1.435-.366v-.359c.506.14 1.029.274 1.57.403 5.782 1.374 13.562 2.084 23.52 2.094v-.001h29.82v.001c9.959-.01 17.738-.72 23.52-2.094a41.676 41.676 0 001.572-.403zm0-1.155v.342c-.465.127-.944.249-1.438.366-5.821 1.383-13.645 2.098-23.652 2.108v.001h-29.82v-.001c-10.008-.01-17.831-.725-23.652-2.108-.494-.117-.973-.24-1.438-.366v-.342c.505.14 1.027.274 1.567.402 5.783 1.374 13.564 2.084 23.523 2.094v-.001h29.82v.001c9.96-.01 17.74-.72 23.523-2.094.54-.128 1.063-.262 1.567-.402zm0-1.154v.326c-.466.127-.946.25-1.441.367-5.82 1.383-13.643 2.098-23.649 2.108v.001h-29.82v-.001c-10.007-.01-17.829-.725-23.649-2.108-.495-.118-.975-.24-1.441-.367v-.326c.504.139 1.025.273 1.564.401 5.784 1.374 13.566 2.085 23.527 2.094v-.001h29.82v.001c9.961-.01 17.742-.72 23.527-2.094a45.958 45.958 0 001.562-.401zm0-1.155v.309c-.467.127-.948.25-1.444.368-5.82 1.383-13.641 2.097-23.646 2.107v.001h-29.82v-.001c-10.005-.01-17.827-.725-23.646-2.107a46.598 46.598 0 01-1.444-.368v-.309c.503.139 1.023.272 1.56.4 5.785 1.374 13.568 2.085 23.53 2.095v-.001h29.82v.001c9.962-.01 17.745-.72 23.53-2.095a45.258 45.258 0 001.56-.4zm0-1.155v.292c-.468.128-.95.251-1.447.369-5.819 1.382-13.639 2.097-23.643 2.107h-29.82c-10.004-.01-17.824-.725-23.643-2.107a44.095 44.095 0 01-1.447-.369v-.292c.502.139 1.021.272 1.557.399 5.786 1.375 13.57 2.085 23.533 2.095v-.001h29.82v.001c9.963-.01 17.747-.721 23.533-2.095a47.5 47.5 0 001.557-.399zm0-1.155v.276a46.97 46.97 0 01-1.45.37c-5.818 1.382-13.637 2.097-23.64 2.107h-29.82c-10.003-.01-17.822-.724-23.64-2.107a44.27 44.27 0 01-1.45-.37v-.276c.501.138 1.019.271 1.554.398 5.787 1.375 13.572 2.086 23.536 2.095v-.001h29.82v.001c9.964-.01 17.749-.721 23.536-2.095.535-.127 1.053-.26 1.554-.398zm0-1.155v.259c-.47.128-.954.252-1.453.371-5.817 1.382-13.635 2.096-23.637 2.106v.001h-29.82v-.001c-10.002-.01-17.82-.724-23.637-2.106a44.448 44.448 0 01-1.453-.371v-.259c.5.138 1.017.271 1.551.398 5.788 1.375 13.573 2.086 23.539 2.096h29.82c9.966-.01 17.751-.721 23.539-2.096.534-.128 1.051-.26 1.551-.398zm0-1.155v.243c-.471.129-.956.253-1.456.372-5.816 1.382-13.633 2.096-23.634 2.106h-29.82c-10.001-.01-17.818-.724-23.634-2.106-.5-.119-.986-.243-1.456-.372v-.243c.499.138 1.015.27 1.548.397 5.789 1.375 13.575 2.086 23.542 2.096h29.82c9.967-.01 17.753-.721 23.542-2.096a44.562 44.562 0 001.548-.397zm0-1.155v.226a44.25 44.25 0 01-1.46.372c-5.815 1.381-13.631 2.096-23.631 2.106h-29.82c-10-.01-17.816-.724-23.631-2.106a44.9 44.9 0 01-1.46-.372v-.226c.498.138 1.013.27 1.545.396 5.79 1.375 13.577 2.087 23.545 2.096h29.82c9.968-.01 17.756-.721 23.545-2.096a45.655 45.655 0 001.547-.396zm0-1.155v.21c-.473.129-.96.254-1.463.373-5.814 1.381-13.629 2.095-23.627 2.105h-29.82c-9.998-.01-17.813-.724-23.627-2.105-.503-.119-.99-.244-1.463-.373v-.21a44.23 44.23 0 001.542.395c5.791 1.376 13.579 2.087 23.548 2.097h29.82c9.969-.01 17.758-.721 23.548-2.097a44.23 44.23 0 001.542-.395zm0-1.155v.193c-.474.13-.962.254-1.466.374-5.813 1.381-13.627 2.095-23.624 2.105h-29.82c-9.997-.01-17.811-.724-23.624-2.105-.504-.12-.992-.244-1.466-.374v-.193c.496.137 1.009.268 1.539.394 5.792 1.376 13.581 2.087 23.552 2.097h29.82c9.97-.01 17.76-.721 23.552-2.097a45.11 45.11 0 001.537-.394zm0-1.155v.176c-.475.13-.964.255-1.469.375-5.812 1.381-13.625 2.095-23.621 2.105h-29.82c-9.996-.01-17.809-.724-23.621-2.105-.505-.12-.994-.245-1.469-.375v-.176c.495.137 1.007.268 1.535.393 5.792 1.376 13.583 2.088 23.555 2.098h29.82c9.971-.01 17.762-.721 23.555-2.098a46.82 46.82 0 001.535-.393zm0-1.155v.16c-.476.13-.966.256-1.472.376-5.811 1.381-13.623 2.094-23.618 2.104h-29.82c-9.995-.01-17.807-.724-23.618-2.104-.506-.12-.996-.246-1.472-.376v-.16c.494.136 1.005.267 1.532.392 5.793 1.376 13.585 2.088 23.558 2.098h29.82c9.973-.01 17.764-.721 23.558-2.098a44.246 44.246 0 001.532-.392zm0-1.155v.143a45.13 45.13 0 01-1.475.377c-5.81 1.38-13.621 2.094-23.615 2.104h-29.82c-9.994-.01-17.805-.724-23.615-2.104-.507-.12-.998-.246-1.475-.377v-.143c.493.136 1.003.267 1.529.392 5.794 1.377 13.587 2.088 23.561 2.098h29.82c9.974-.01 17.767-.722 23.561-2.098a46.437 46.437 0 001.529-.392zm0-1.155v.127c-.478.131-.97.257-1.478.378-5.809 1.38-13.619 2.094-23.612 2.104h-29.82c-9.993-.01-17.802-.723-23.612-2.104a44.66 44.66 0 01-1.478-.378v-.127c.492.136 1.001.266 1.526.391 5.795 1.377 13.589 2.089 23.564 2.099h29.82c9.975-.01 17.769-.722 23.564-2.099a46.263 46.263 0 001.526-.391zm0-1.155v.11c-.479.131-.972.257-1.481.378-5.808 1.38-13.617 2.093-23.609 2.103h-29.82c-9.991-.01-17.8-.723-23.609-2.103a44.865 44.865 0 01-1.481-.378v-.11c.491.135.999.265 1.523.39 5.796 1.377 13.591 2.089 23.567 2.099h29.82c9.976-.01 17.771-.722 23.567-2.099a46.089 46.089 0 001.523-.39zm0-1.155v.094c-.48.132-.974.258-1.485.379-5.808 1.38-13.615 2.093-23.606 2.103h-29.82c-9.99-.01-17.798-.723-23.606-2.103a45.76 45.76 0 01-1.485-.379v-.094c.491.135.997.265 1.52.389 5.797 1.377 13.593 2.089 23.57 2.099h29.82c9.977-.01 17.773-.722 23.57-2.099a42.562 42.562 0 001.522-.389zm0-1.155v.077a42.89 42.89 0 01-1.488.38c-5.807 1.38-13.613 2.093-23.602 2.103h-29.82c-9.989-.01-17.796-.723-23.602-2.103a43.477 43.477 0 01-1.488-.38v-.077c.49.135.995.264 1.517.388 5.798 1.377 13.595 2.09 23.573 2.1h29.82c9.978-.01 17.775-.722 23.573-2.1a43.389 43.389 0 001.517-.388zm0-1.155v.06c-.482.132-.978.259-1.491.381-5.806 1.379-13.611 2.092-23.599 2.102h-29.82c-9.988-.01-17.794-.723-23.599-2.102a45.459 45.459 0 01-1.491-.381v-.06a43.8 43.8 0 001.514.387c5.799 1.378 13.597 2.09 23.577 2.1h29.82c9.98-.01 17.778-.722 23.577-2.1a46.729 46.729 0 001.512-.387zm0-1.155v.044c-.483.132-.98.26-1.494.382-5.805 1.379-13.609 2.092-23.596 2.102h-29.82c-9.987-.01-17.791-.723-23.596-2.102a43.224 43.224 0 01-1.494-.382v-.044c.488.134.991.263 1.51.386 5.8 1.378 13.599 2.09 23.58 2.1h29.82c9.981-.01 17.78-.722 23.58-2.1a43.568 43.568 0 001.51-.386zm-73.25-.93h.07c5 .725 11.067 1.098 18.271 1.105h29.82c7.203-.007 13.271-.38 18.271-1.105h.07c-5.014.732-11.104 1.108-18.34 1.115h-29.82c-7.238-.007-13.328-.383-18.342-1.115zm-6.002 0h.107c.215.054.432.108.653.16 5.801 1.378 13.601 2.091 23.583 2.101h29.82c9.982-.01 17.782-.722 23.583-2.101.221-.052.438-.106.653-.16h.107c-.246.063-.496.124-.749.185-5.804 1.379-13.607 2.092-23.593 2.102h-29.82c-9.986-.01-17.789-.723-23.593-2.102-.255-.06-.505-.122-.751-.185zm79.252 78.295c-.418.112-.847.221-1.288.325-2.423.576-5.188 1.036-8.309 1.38h-60.807c-3.12-.343-5.886-.804-8.309-1.38-.44-.105-.87-.213-1.288-.325v-1.138c.551.155 1.123.303 1.717.444 5.739 1.363 13.469 2.068 23.373 2.078v-.002h29.82v.002c9.904-.01 17.635-.715 23.373-2.078a43.103 43.103 0 001.717-.444v1.138zm-8.937 1.705c2.686-.323 5.089-.738 7.217-1.243.595-.141 1.168-.29 1.72-.445v1.688h-2.098l.375-.087a43.103 43.103 0 001.717-.444 46.705 46.705 0 01-2.197.532h-6.734zm-71.063-1.688c.552.155 1.125.304 1.72.445 2.128.506 4.531.921 7.217 1.243h-6.735a48.277 48.277 0 01-2.197-.532c.551.155 1.123.303 1.717.444.124.029.249.059.375.087h-2.098v-1.687z"/></g></svg>