<svg xmlns="http://www.w3.org/2000/svg" viewBox="819.921 506.712 267.003 337.412"><path fill="none" d="M869.198 617.768c.05.725.067 1.834.064 3.238.003-1.406-.014-2.516-.064-3.238zM993.248 744.577h-77.985v-.006c-14.31-.023-26.906-.947-37.893-2.732-.005.608-.01 1.212-.017 1.802 10.954 1.807 23.559 2.74 37.91 2.763v-.006h77.985v.006c13.793-.022 25.964-.889 36.617-2.561-.024-.606-.045-1.202-.066-1.794-10.669 1.646-22.82 2.5-36.551 2.522v.006zM993.248 734.625h-77.985v-.006c-14.317-.023-26.919-.948-37.908-2.735.007.652.014 1.302.018 1.941 10.951 1.805 23.548 2.737 37.89 2.759v-.006h77.985v.006c13.679-.022 25.762-.875 36.353-2.519-.01-.655-.017-1.3-.023-1.934-10.615 1.624-22.693 2.466-36.33 2.488v.006zM993.248 749.552h-77.985v-.006c-14.336-.023-26.954-.95-37.956-2.742-.01.589-.021 1.167-.033 1.733 10.972 1.816 23.603 2.753 37.989 2.776v-.006h77.985v.006c13.887-.022 26.13-.901 36.834-2.595-.029-.582-.056-1.154-.082-1.725-10.718 1.666-22.934 2.531-36.752 2.553v.006zM993.248 739.601h-77.985v-.006c-14.303-.023-26.894-.946-37.877-2.73.001.63.002 1.257 0 1.871 10.947 1.804 23.54 2.735 37.877 2.758v-.006h77.985v.006c13.724-.022 25.841-.881 36.456-2.535-.017-.629-.033-1.251-.047-1.863-10.635 1.632-22.738 2.478-36.409 2.5v.005zM993.248 774.431h-77.985v-.007c-14.899-.024-27.952-1.019-39.257-2.951l.021-.21c-3.412 32.65-8.933 58.782-9.299 59.792l-.386 1.064c.03.025.067.05.099.075l.235-.649c.047-.131.182-.687.386-1.617 13.11 3.178 29.106 4.819 48.2 4.849v-.008h77.985v.008c18.368-.029 33.864-1.551 46.688-4.495l.334 1.858.01-.021a808.434 808.434 0 01-3.22-18.922c.112.711.221 1.417.336 2.135-12.388 2.534-27.05 3.844-44.148 3.872v.008h-77.985v-.008c-17.654-.028-32.714-1.422-45.352-4.121.223-1.271.451-2.6.685-3.989 12.424 2.648 27.257 4.016 44.666 4.044v-.008h77.985v.008c16.878-.027 31.331-1.316 43.519-3.807l.129.818a689.24 689.24 0 01-.353-2.281l.097.645c-12.226 2.433-26.643 3.689-43.392 3.715v.008h-77.985v-.008c-17.274-.028-32.062-1.365-44.529-3.951.212-1.267.426-2.577.644-3.931 12.265 2.54 26.838 3.855 43.885 3.882v-.008h77.985v.008c16.544-.027 30.761-1.263 42.797-3.657l-.132-.885c-12.068 2.338-26.25 3.54-42.665 3.566v.008h-77.985v-.008c-16.913-.027-31.443-1.309-43.744-3.789.2-1.258.402-2.547.605-3.872 12.109 2.44 26.438 3.701 43.14 3.728v-.008h77.985v.008c16.221-.026 30.216-1.21 42.102-3.513l-.135-.969c-11.917 2.252-25.862 3.415-41.967 3.44v.008h-77.985v-.008c-16.568-.026-30.856-1.253-42.996-3.635.189-1.247.378-2.513.568-3.813 11.958 2.345 26.057 3.554 42.428 3.58v-.008h77.985v.008c15.924-.026 29.695-1.171 41.44-3.392l-.139-1.036c-11.771 2.171-25.493 3.295-41.301 3.32v.008h-77.985v-.008c-16.245-.026-30.297-1.207-42.281-3.498.177-1.23.353-2.48.529-3.753 11.813 2.259 25.689 3.423 41.752 3.448v-.008h77.985v.008c15.642-.025 29.201-1.134 40.809-3.278l-.141-1.101c-11.629 2.096-25.142 3.181-40.668 3.206v.007h-77.985v-.007c-15.942-.025-29.764-1.167-41.601-3.375.165-1.212.329-2.447.491-3.693 11.674 2.18 25.334 3.306 41.109 3.331v-.007h77.985v.007c15.375-.024 28.735-1.097 40.212-3.169l-.139-1.168c-11.494 2.026-24.811 3.074-40.073 3.098v.007h-77.985v-.007c-15.656-.025-29.265-1.128-40.958-3.258.154-1.198.307-2.406.457-3.633 11.542 2.106 24.998 3.196 40.501 3.221v-.007h77.985v.007c15.124-.024 28.3-1.062 39.651-3.067-.047-.412-.094-.826-.139-1.235-11.364 1.961-24.499 2.973-39.511 2.997v.007h-77.985v-.007c-15.386-.025-28.795-1.09-40.353-3.149.142-1.179.282-2.371.42-3.573 11.415 2.038 24.684 3.093 39.933 3.118v-.007h77.985v.007c14.889-.024 27.894-1.028 39.125-2.972l-.135-1.302c-11.242 1.902-24.21 2.879-38.99 2.903v.007h-77.985v-.006c-15.133-.024-28.357-1.054-39.784-3.046.131-1.162.26-2.332.385-3.513 11.294 1.976 24.389 2.997 39.398 3.021v-.007h77.985v.007c14.67-.023 27.519-.996 38.638-2.884l-.132-1.38c-11.131 1.849-23.935 2.803-38.506 2.827v.006zm46.591 55.316c-12.888 2.874-28.362 4.355-46.591 4.384v.008h-77.985v-.008c-18.944-.03-34.902-1.634-48.085-4.735.223-1.039.511-2.435.85-4.152 12.929 3.027 28.605 4.593 47.235 4.623v-.008h77.985v.008c17.967-.029 33.196-1.481 45.855-4.3.24 1.382.485 2.775.736 4.18zm-.843-4.793c-12.719 2.753-27.913 4.173-45.748 4.202v.008h-77.985v-.008c-18.482-.029-34.125-1.555-47.118-4.508.239-1.221.501-2.598.781-4.101 12.756 2.89 28.139 4.383 46.337 4.412v-.008h77.985v.008c17.587-.028 32.548-1.422 45.047-4.124.228 1.36.462 2.734.701 4.119zm-123.733-4.905v-.008h77.985v.008c17.226-.027 31.926-1.369 44.269-3.962.216 1.342.437 2.694.665 4.06-12.552 2.64-27.473 4.006-44.933 4.033v.008h-77.985v-.008c-18.051-.029-33.403-1.479-46.214-4.299.233-1.263.477-2.612.73-4.046 12.586 2.764 27.695 4.185 45.483 4.214zM993.248 724.674h-77.985v-.006c-14.406-.023-27.076-.958-38.113-2.768.021.7.04 1.391.058 2.08 10.99 1.822 23.643 2.762 38.055 2.785v-.006h77.985v.006c13.677-.022 25.758-.875 36.349-2.518.01-.711.023-1.403.038-2.076-10.628 1.63-22.724 2.476-36.387 2.497v.006zM993.248 769.455h-77.985v-.007c-14.683-.023-27.575-.99-38.765-2.868-.046.481-.094.961-.141 1.44 11.182 1.919 24.116 2.908 38.906 2.931v-.007h77.985v.007c14.474-.023 27.174-.97 38.191-2.809-.043-.484-.087-.973-.128-1.452-11.029 1.802-23.682 2.734-38.063 2.757v.008zM993.248 839.115h-77.985v-.009c-13.725-.022-25.868-.877-36.542-2.52 3.002.659 6.344 1.261 9.862 1.81 8.119.836 16.993 1.275 26.681 1.291v-.009h77.985v.009c8.63-.014 16.611-.365 23.994-1.03 10.624-1.464 17.438-2.682 17.438-2.682.454-.139.865-.291 1.252-.45-12.078 2.342-26.255 3.556-42.685 3.582v.008zM993.248 754.528h-77.985v-.006c-14.384-.023-27.038-.955-38.067-2.759-.016.57-.032 1.124-.049 1.664 11.001 1.83 23.675 2.773 38.115 2.796v-.007h77.985v.007c14.004-.022 26.336-.915 37.103-2.638-.034-.559-.065-1.107-.096-1.656-10.779 1.692-23.08 2.57-37.007 2.592v.007zM993.248 764.48h-77.985v-.007c-14.547-.023-27.331-.974-38.448-2.818-.028.559-.056 1.072-.081 1.524 11.094 1.875 23.908 2.84 38.529 2.863v-.007h77.985v.007c14.298-.023 26.86-.95 37.784-2.745-.041-.51-.08-1.017-.119-1.52-10.935 1.76-23.455 2.672-37.665 2.695v.008zM993.248 759.504h-77.985v-.007c-14.453-.023-27.163-.963-38.229-2.784-.021.553-.042 1.087-.064 1.595 11.041 1.849 23.775 2.801 38.292 2.824v-.007h77.985v.007c14.141-.022 26.58-.931 37.42-2.687-.038-.535-.072-1.061-.108-1.588-10.852 1.724-23.254 2.617-37.312 2.64v.007zM993.248 689.844h-77.985v-.005c-15.56-.025-29.089-1.117-40.721-3.225.015.867.042 1.714.078 2.544 11.582 2.118 25.085 3.215 40.643 3.24v-.005h77.985v.005c14.796-.024 27.739-1.014 38.934-2.932.056-.84.112-1.695.166-2.559-11.262 1.919-24.262 2.908-39.1 2.932v.005zM993.248 659.989h-77.985v-.004c-16.116-.026-30.06-1.192-41.962-3.451.027 1.01.054 1.992.082 2.945 11.854 2.267 25.772 3.435 41.88 3.461v-.004h77.985v.004c15.464-.025 28.898-1.109 40.437-3.2l.114-2.951c-11.591 2.089-25.064 3.172-40.551 3.196v.004zM993.248 640.086h-77.985v-.004c-16.266-.026-30.323-1.211-42.294-3.513.008 1.424-.002 2.534-.011 3.193 11.947 2.319 26.008 3.513 42.305 3.539v-.004h77.985v.004c15.581-.025 29.104-1.124 40.704-3.247a130.833 130.833 0 01-.063-3.186c-11.61 2.101-25.112 3.189-40.641 3.214v.004z"/><path fill="none" d="M993.248 645.062h-77.985v-.004c-16.267-.026-30.325-1.211-42.297-3.513l.06 3.14c11.932 2.311 25.97 3.5 42.237 3.525v-.004h77.985v.004c15.666-.025 29.252-1.136 40.893-3.281-.013-.873-.031-1.4-.031-1.4-.034-.577-.063-1.146-.089-1.708-11.639 2.116-25.186 3.213-40.773 3.237v.004z"/><path fill="none" d="M993.248 650.038h-77.985v-.004c-16.223-.026-30.247-1.206-42.199-3.495.022 1.05.044 2.072.067 3.076 11.908 2.298 25.913 3.48 42.132 3.505v-.004h77.985v.004c15.653-.025 29.229-1.134 40.862-3.276.031-1.107.043-2.157.044-3.072-11.67 2.132-25.26 3.236-40.906 3.261v.005z"/><path fill="none" d="M993.248 655.014h-77.985v-.004c-16.172-.026-30.159-1.199-42.088-3.474.024 1.028.049 2.033.074 3.01 11.883 2.283 25.847 3.459 42.014 3.485v-.004h77.985v.004c15.547-.025 29.043-1.12 40.624-3.234l.037-1.041c.052-.657.094-1.323.127-1.986-11.644 2.118-25.195 3.215-40.788 3.24v.004zM993.248 635.111h-77.985v-.003c-16.309-.026-30.398-1.217-42.389-3.531.038 1.17.062 2.269.077 3.275 11.949 2.32 26.012 3.514 42.312 3.54v-.003h77.985v.003c15.552-.025 29.053-1.12 40.639-3.235.007-1.131.031-2.221.067-3.276-11.624 2.109-25.147 3.202-40.706 3.227v.003zM993.248 620.183h-77.985v-.003c-16.971-.027-31.524-1.323-43.822-3.827.216 1.14.401 2.342.561 3.574 12.155 2.444 26.523 3.708 43.261 3.735v-.003h77.985v.003c16.037-.026 29.904-1.185 41.73-3.431.201-1.357.41-2.554.609-3.575-11.979 2.309-26.051 3.497-42.339 3.523v.004z"/><path fill="none" d="M1083.501 600.4c-.617-17.57-6.016-31.993-12.726-42.513-9.039-14.16-19.961-21.41-19.961-21.41-11.137-6.51-17.061-7.08-28.352-9.981-8.791-2.258-20.019-8.272-24.562-10.827-.454-1.063-2.373-1.865-3.297-2.735-1.557-1.467-1.426-2.082-3.867-2.718-4.528-1.18-12.605-2.255-17.936-2.22-2.642.017-3.538-.417-6.185-.405-2.203.009-4.411.025-6.611.023-2.364-.002-3.588-.359-6.063-.401H952.782c-4.062.042-7.631.409-12.149.385-6.569-.035-18.069 1.026-24.201 2.544-2.664.66-2.349.991-3.987 2.603-1.003.986-3.233 1.959-3.553 3.109-12.867 7.9-39.001 15.271-39.001 15.271-11.568 3.332-13.883 5.646-13.883 5.646l.006.022c-6.675 4.612-12.716 11.562-12.716 11.562-19.235 18.217-20.531 60.591-20.531 60.591-.293 16.783-2.313 36.002-2.313 36.002 18.51 9.981 46.275 9.842 46.275 9.842 1.296-.432 1.157-3.039 1.157-3.039 0-7.234 1.157-12.586 1.157-12.586.03-9.873.447-18.666.154-21.396.05.723.067 1.832.064 3.238.003-1.404-.015-2.514-.064-3.238-.063-.785-.154-1.141-.293-.879l1.444-4.75.422 1.264c.125.46.242.942.354 1.436 12.34 2.562 26.996 3.888 44.139 3.915v-.003h77.985v.003c16.457-.026 30.628-1.247 42.654-3.611.373-1.694.664-2.661.713-2.822 2.06 4.027 1.629 25.824 1.629 25.824-.139 1.883.293 4.629.293 4.629.864 6.369.586 10.998.586 10.998 10.258 4.904 47.279-8.547 47.279-8.547-.864-13.884-2.901-44.826-2.901-44.826zm-77.329-80.131l.204.1a299.19 299.19 0 01-10.985.28c.004-.035.003-.073.007-.108l.723-.006c3.452-.036 6.804-.123 10.051-.266zm-10.149-4.638l.114-.001.344-.002c.303-.003.602-.009.903-.013l.073.041-.92.014-.327.002-.181.001c-.264.003-.531.003-.796.005l-.006-.042c.266-.001.533-.002.796-.005zm-2.006 9.832l.608-.005c7.556-.043 14.638-.335 21.236-.882.126.049.252.095.378.143-6.734.569-13.972.871-21.708.913-.204.001-.403.005-.607.005.029-.059.065-.114.093-.174zm-3.475 4.916H993.248v.001c12.983-.021 24.552-.782 34.771-2.26l.618.149c-10.372 1.537-22.144 2.33-35.389 2.352h-2.93c.078-.079.147-.163.224-.242zm-6.58 4.91h9.286v.001c17.802-.029 32.944-1.449 45.587-4.205.182.063.364.128.546.193-12.759 2.831-28.082 4.289-46.134 4.318v.001h-9.852c.19-.103.379-.204.567-.308zm-13.285 4.909H993.248v.001c21.372-.034 38.911-2.073 52.891-6.025.162.081.321.157.484.241-14.07 4.036-31.765 6.122-53.376 6.156v.001H968.953a64.963 64.963 0 001.724-.374zm-60.966-24.608l.075.001.619.011.388.007.314.005-.007.042-.313-.005-.443-.008-.61-.011-.09-.002.067-.04zm-8.678 4.625c3.221.157 6.549.258 9.975.308l.219.002.021.108-.219-.002a293.045 293.045 0 01-10.209-.32l.213-.096zm-10.141 4.2c6.799.618 14.114.963 21.955 1.033l.108.001c.03.058.066.117.098.175l-.107-.001c-8.022-.069-15.494-.426-22.428-1.068.125-.047.249-.092.374-.14zm-10.463 3.696c10.234 1.485 21.824 2.248 34.834 2.269v-.001h1.349l.247.241h-1.596c-13.222-.021-24.976-.811-35.335-2.343l.501-.166zm-10.588 3.286l.563-.162c12.497 2.654 27.394 4.026 44.859 4.054v-.001H923.107c.175.103.354.205.534.307H915.262v-.001c-17.75-.028-32.857-1.44-45.487-4.179.024-.005.043-.011.066-.018zm-7.952 2.634c14.059 4.043 31.752 6.133 53.374 6.168v-.001h20.2c.557.125 1.16.25 1.8.374h-22v-.001c-21.899-.035-39.773-2.178-53.933-6.321.178-.071.37-.145.559-.219zm174.944 77.397c-12.247 2.472-26.724 3.75-43.586 3.777v.003h-77.985v-.003c-17.619-.028-32.637-1.42-45.224-4.116l-.262-1.437c12.613 2.748 27.721 4.163 45.486 4.192v-.003h77.985v.003c16.966-.027 31.499-1.326 43.76-3.835-.07.565-.128 1.034-.174 1.419zm.665-5.114c-12.386 2.562-27.081 3.888-44.25 3.915v.003h-77.985v-.003c-18.049-.029-33.379-1.484-46.15-4.311l-.24-1.379c12.795 2.879 28.198 4.365 46.39 4.395v-.003h77.985v.003c17.28-.028 32.036-1.374 44.439-3.975-.067.473-.13.924-.189 1.355zm.74-5.129c-12.538 2.664-27.478 4.041-44.99 4.069v.002h-77.985v-.002c-18.474-.03-34.087-1.559-47.034-4.519l-.215-1.305c12.964 3.009 28.646 4.565 47.25 4.595v-.003h77.985v.003c17.624-.028 32.631-1.424 45.185-4.129-.068.44-.134.87-.196 1.289zm.799-5.141c-12.698 2.776-27.907 4.206-45.789 4.234v.002h-77.985v-.002c-18.873-.03-34.758-1.627-47.866-4.715-.064-.411-.127-.821-.189-1.232 13.118 3.133 29.066 4.753 48.055 4.783v-.002h77.985v.002c17.997-.029 33.272-1.48 45.987-4.299-.068.418-.134.825-.198 1.229zm.852-5.17c-12.868 2.902-28.355 4.399-46.642 4.429v.002h-77.985v-.002c-19.238-.031-35.376-1.687-48.627-4.894-.054-.389-.107-.775-.158-1.157 13.254 3.247 29.446 4.922 48.784 4.954v-.002h77.985v.002c18.406-.03 33.955-1.552 46.84-4.498-.065.394-.131.78-.197 1.166zm.902-5.188c-13.044 3.039-28.823 4.611-47.543 4.64v.002h-77.985v-.002c-19.55-.031-35.907-1.736-49.275-5.046-.041-.37-.079-.731-.115-1.085 13.365 3.345 29.759 5.068 49.39 5.099v-.002h77.985v.002c18.836-.03 34.679-1.625 47.739-4.708l-.196 1.1zm.946-5.198c-13.223 3.186-29.315 4.832-48.489 4.863v.002h-77.985v-.002c-19.737-.032-36.218-1.77-49.656-5.144-.018-.307-.038-.642-.062-1.007 13.426 3.399 29.924 5.153 49.717 5.185v-.002h77.985v.002c19.288-.031 35.445-1.698 48.682-4.928l-.192 1.031zm.989-5.21c-13.404 3.344-29.828 5.066-49.478 5.098v.002h-77.985v-.002c-19.932-.032-36.537-1.808-50.046-5.247-.029-.309-.061-.625-.094-.948 13.504 3.47 30.137 5.263 50.14 5.295v-.002h77.985v.002c19.768-.031 36.249-1.781 49.668-5.171l-.19.973zm.945-5.226c-13.576 3.504-30.302 5.315-50.423 5.347v.002h-77.985v-.001c-20.224-.032-37.018-1.863-50.631-5.402l-.121-.888c13.613 3.575 30.446 5.424 50.753 5.456v-.002h77.985v.002c20.223-.032 37.001-1.866 50.584-5.412l-.162.898zm.961-5.23c-13.744 3.671-30.784 5.569-51.384 5.602v.001h-77.985v-.001c-20.622-.033-37.676-1.935-51.428-5.614l-.147-.826c13.756 3.718 30.859 5.639 51.575 5.672v-.002h77.985v.002c20.699-.033 37.791-1.952 51.541-5.663l-.157.829zm1.011-5.243c-13.913 3.85-31.291 5.836-52.396 5.87v.001h-77.985v-.001c-21.147-.034-38.555-2.027-52.482-5.893-.059-.257-.116-.514-.177-.771 13.937 3.911 31.402 5.928 52.659 5.962v-.001h77.985v.001c21.199-.034 38.628-2.038 52.546-5.928l-.15.76zm1.072-5.285c-14.089 4.05-31.813 6.144-53.467 6.179v.001h-77.985v-.001c-21.872-.035-39.733-2.172-53.889-6.304l-.115-.39-.113-.334c14.173 4.189 32.107 6.356 54.118 6.391v-.001h77.985v.001c21.751-.035 39.521-2.151 53.614-6.243l-.148.701zm1.144-5.314c-14.269 4.272-32.364 6.482-54.611 6.518v.001h-77.985v-.001c-22.813-.036-41.275-2.353-55.706-6.841l-.215-.66c14.443 4.546 32.973 6.894 55.921 6.931v-.001h77.985v.001c22.338-.036 40.48-2.266 54.752-6.578l-.141.63zm1.237-5.344c-14.451 4.518-32.96 6.85-55.848 6.886v.001h-77.985v-.001c-23.77-.038-42.802-2.558-57.485-7.425l-.182-.584c14.688 4.92 33.779 7.467 57.666 7.505v-.001h77.985v.001c22.983-.037 41.534-2.392 55.988-6.952l-.139.57zm1.396-5.437c-14.649 4.816-33.603 7.31-57.244 7.347v.001h-77.985v-.001c-24.684-.04-44.268-2.751-59.166-7.993l-.149-.507.005-.005c14.898 5.289 34.525 8.027 59.309 8.066v-.001h77.985v.001c23.734-.038 42.732-2.553 57.384-7.41l-.139.502z"/><path fill="none" d="M993.248 630.135h-77.985v-.003c-16.421-.026-30.59-1.234-42.633-3.58.075 1.146.134 2.273.181 3.362 11.98 2.338 26.088 3.543 42.452 3.569v-.003h77.985v.003c15.612-.025 29.158-1.128 40.774-3.259.057-1.176.128-2.301.213-3.369-11.686 2.143-25.303 3.253-40.987 3.278v.002zM993.248 719.698h-77.985v-.006c-14.482-.023-27.212-.967-38.289-2.796.029.721.057 1.439.082 2.151 11.024 1.838 23.729 2.785 38.207 2.808v-.006h77.985v.006c13.726-.022 25.845-.881 36.463-2.536.024-.743.05-1.461.078-2.15-10.665 1.646-22.812 2.5-36.542 2.522v.007z"/><path fill="none" d="M993.248 625.159h-77.985v-.003c-16.625-.027-30.934-1.268-43.073-3.672.127 1.145.235 2.305.325 3.459 12.045 2.376 26.247 3.603 42.748 3.629v-.003h77.985v.003c15.768-.025 29.432-1.149 41.126-3.322.117-1.24.249-2.396.389-3.468-11.801 2.207-25.594 3.348-41.514 3.374v.003zM993.248 704.771h-77.985v-.005c-14.956-.024-28.042-1.031-39.367-2.98a59.91 59.91 0 00.382 2.147l.016.254c11.202 1.923 24.156 2.916 38.969 2.939v-.005h77.985v.005c14.172-.023 26.638-.935 37.502-2.697.047-.358.074-.541.074-.541.088-.545.175-1.167.261-1.849-10.971 1.781-23.548 2.703-37.837 2.726v.006zM993.248 664.965h-77.985v-.004c-16.052-.026-29.948-1.183-41.819-3.425.03.996.06 1.949.091 2.88 11.821 2.248 25.688 3.408 41.729 3.434v-.004h77.985v.004c15.374-.025 28.741-1.096 40.234-3.164l.12-2.885c-11.548 2.065-24.955 3.136-40.354 3.161v.003z"/><path fill="none" d="M993.248 709.747h-77.985v-.005c-14.702-.023-27.604-.992-38.797-2.876.047.767.09 1.527.133 2.287 11.131 1.888 23.987 2.861 38.664 2.884v-.005h77.985v.005c13.956-.022 26.254-.909 36.999-2.619.07-.87.139-1.639.203-2.302-10.822 1.714-23.187 2.604-37.203 2.626v.005zM993.248 694.819h-77.985v-.005c-15.466-.025-28.926-1.104-40.512-3.186.057.867.124 1.696.195 2.498 11.509 2.079 24.903 3.157 40.316 3.182v-.005h77.985v.005c14.635-.023 27.462-.99 38.573-2.867.064-.808.126-1.643.188-2.497-11.183 1.881-24.074 2.848-38.761 2.872v.003z"/><path fill="none" d="M993.248 714.722h-77.985v-.005c-14.581-.023-27.389-.979-38.518-2.832.038.744.074 1.486.108 2.221 11.071 1.86 23.845 2.817 38.41 2.84v-.005h77.985v.005c13.815-.022 26.004-.892 36.673-2.568.042-.786.085-1.527.13-2.224-10.728 1.673-22.96 2.541-36.803 2.563v.005zM993.248 699.795h-77.985v-.005c-15.265-.024-28.576-1.075-40.06-3.105.099.883.201 1.703.301 2.45 11.383 2.014 24.594 3.057 39.759 3.082v-.005h77.985v.005c14.443-.023 27.122-.966 38.131-2.796.078-.768.155-1.584.23-2.44-11.092 1.837-23.847 2.785-38.361 2.809v.005zM993.248 669.941h-77.985v-.004c-15.979-.026-29.821-1.174-41.658-3.396.033.973.067 1.919.1 2.815 11.783 2.228 25.593 3.378 41.558 3.404v-.005h77.985v.005c15.277-.025 28.573-1.083 40.016-3.126l.126-2.819c-11.5 2.04-24.838 3.097-40.143 3.122v.004z"/><path fill="none" d="M993.248 674.917h-77.985v-.004c-15.897-.025-29.677-1.163-41.474-3.362.038.965.075 1.887.112 2.75 11.741 2.204 25.484 3.343 41.362 3.369v-.005h77.985v.005c15.173-.024 28.391-1.068 39.781-3.084.046-.929.09-1.849.133-2.754-11.448 2.014-24.712 3.056-39.914 3.08v.005zM993.248 684.868h-77.985v-.005c-15.692-.025-29.319-1.135-41.016-3.278.057 1.06.108 1.932.15 2.623 11.631 2.144 25.208 3.255 40.866 3.28v-.005h77.985v.005c14.935-.024 27.979-1.034 39.247-2.988.052-.869.102-1.745.151-2.623-11.331 1.953-24.427 2.962-39.398 2.986v.005z"/><path fill="none" d="M993.248 679.892h-77.985v-.005c-15.803-.025-29.512-1.15-41.263-3.323.044.971.086 1.869.127 2.686 11.691 2.177 25.359 3.303 41.136 3.328v-.004h77.985v.004c15.06-.024 28.194-1.052 39.526-3.038.048-.898.096-1.796.141-2.688-11.393 1.985-24.576 3.011-39.668 3.035v.005zM993.248 729.649h-77.985v-.006c-14.351-.023-26.979-.952-37.987-2.748.014.676.027 1.346.038 2.01 10.965 1.811 23.582 2.746 37.949 2.769v-.006h77.985v.006c13.662-.022 25.733-.873 36.315-2.513 0-.682.001-1.35.005-2.005-10.612 1.623-22.687 2.465-36.32 2.487v.006z"/><path d="M995.399 520.541c-.004.035-.003.073-.007.108l.711-.006c.005-.037.014-.071.019-.108l-.723.006zM996.03 515.674l-.006-.042c-.264.003-.531.003-.795.005l.006.042.795-.005zM991.02 530.379h-.478c-.077.079-.146.163-.224.241h.442c.085-.082.176-.158.26-.241zM994.625 525.458c-.204.001-.403.005-.608.005-.028.06-.064.115-.093.175l.607-.005c.03-.059.064-.116.094-.175zM984.187 535.289h-.225c-.188.105-.377.206-.566.307h.199c.197-.102.396-.202.592-.307zM913.053 525.624c-.031-.058-.067-.117-.098-.175l-.108-.001.099.175.107.001zM911.099 515.657a.918.918 0 00.007-.042l-.314-.005-.006.042.313.005zM911.248 520.633l-.021-.108-.219-.002.021.108.219.002z"/><path d="M910.787 515.652l.006-.042-.388-.007-.061.041.443.008zM993.248 736.579h-77.985v.006c-14.342-.023-26.939-.955-37.89-2.759.007 1.033.011 2.044.013 3.04 10.983 1.784 23.574 2.707 37.877 2.73v.006h77.985v-.006c13.671-.022 25.775-.868 36.409-2.5a378.216 378.216 0 01-.056-3.03c-10.591 1.644-22.674 2.497-36.353 2.519v-.006zM993.248 726.76h-77.985v.006c-14.412-.023-27.066-.963-38.055-2.785.026.983.048 1.955.068 2.916 11.008 1.796 23.636 2.725 37.987 2.748v.006h77.985v-.006c13.633-.022 25.707-.863 36.32-2.487.005-1.002.015-1.973.029-2.91-10.59 1.643-22.672 2.496-36.349 2.518v-.006z"/><path d="M993.248 741.488h-77.985v.006c-14.337-.023-26.93-.954-37.877-2.758-.002 1.06-.008 2.09-.016 3.102 10.987 1.785 23.583 2.709 37.893 2.732v.006h77.985v-.006c13.732-.022 25.882-.876 36.551-2.522a368.54 368.54 0 01-.095-3.09c-10.615 1.655-22.732 2.514-36.456 2.535v-.005zM996.21 515.673l-.073-.042-.114.001.006.042.181-.001zM993.248 731.669h-77.985v.006c-14.367-.023-26.984-.958-37.949-2.769.017 1.007.03 1.999.041 2.978 10.99 1.787 23.591 2.712 37.908 2.735v.006h77.985v-.006c13.637-.022 25.715-.864 36.33-2.488a380.7 380.7 0 01-.015-2.97c-10.582 1.64-22.653 2.491-36.315 2.513v-.005z"/><path d="M993.248 746.398h-77.985v.006c-14.351-.023-26.955-.956-37.91-2.763-.012 1.089-.028 2.14-.046 3.164 11.002 1.792 23.62 2.719 37.956 2.742v.006h77.985v-.006c13.818-.022 26.034-.886 36.752-2.553a455.181 455.181 0 01-.135-3.15c-10.653 1.671-22.823 2.539-36.617 2.561v-.007z"/><path d="M993.248 751.307h-77.985v.006c-14.386-.023-27.017-.96-37.989-2.776a480.677 480.677 0 01-.077 3.226c11.028 1.803 23.683 2.736 38.067 2.759v.006h77.985v-.006c13.927-.022 26.228-.9 37.007-2.592a492.62 492.62 0 01-.173-3.211c-10.704 1.694-22.947 2.573-36.834 2.595v-.007zM869.05 819.882c12.811 2.819 28.163 4.27 46.214 4.299v.008h77.985v-.008c17.46-.028 32.381-1.393 44.933-4.033a968.134 968.134 0 01-.665-4.06c-12.343 2.594-27.043 3.935-44.269 3.962v-.008h-77.985v.008c-17.788-.028-32.897-1.45-45.483-4.213a590.614 590.614 0 01-.73 4.045z"/><path d="M993.248 815.139v-.008h-77.985v.008c-17.409-.028-32.242-1.396-44.666-4.044a670.165 670.165 0 01-.685 3.989c12.637 2.698 27.698 4.093 45.352 4.121v.008h77.985v-.008c17.098-.027 31.76-1.338 44.148-3.872-.115-.719-.224-1.424-.336-2.135l-.165-1.047-.129-.818c-12.189 2.49-26.641 3.779-43.519 3.806zM911.008 520.523c-3.426-.05-6.753-.151-9.975-.308l-.213.096c3.295.163 6.7.269 10.209.32l-.021-.108zM915.263 530.62h1.56c-.08-.08-.167-.161-.244-.241h-1.316v.001c-13.01-.021-24.6-.784-34.834-2.269l-.501.166c10.359 1.532 22.113 2.322 35.335 2.343zM912.847 525.448c-7.841-.07-15.156-.415-21.955-1.033l-.374.14c6.934.642 14.405.999 22.428 1.068-.033-.058-.067-.116-.099-.175z"/><path d="M993.248 810.221h-77.985v.008c-17.047-.027-31.62-1.342-43.885-3.882a579.092 579.092 0 01-.644 3.931c12.468 2.586 27.255 3.923 44.529 3.951v.008h77.985v-.008c16.75-.027 31.166-1.283 43.392-3.715l-.097-.645c-.17-1.108-.336-2.206-.498-3.297-12.036 2.395-26.254 3.631-42.797 3.657v-.008zM915.263 535.596h8.13c-.175-.103-.359-.204-.53-.307h-7.6v.001c-17.465-.028-32.361-1.4-44.859-4.054l-.563.162a2.25 2.25 0 01-.065.019c12.63 2.738 27.737 4.15 45.487 4.179zM993.248 839.679h-77.985v.009c-9.688-.015-18.562-.455-26.681-1.291 20.294 3.163 46.405 4.519 46.405 4.519 27.281 2.284 61.819-1.443 82.255-4.259-7.383.665-15.364 1.016-23.994 1.03v-.008z"/><path d="M993.248 834.777v-.008h-77.985v.008c-19.094-.03-35.091-1.672-48.2-4.849-.204.931-.339 1.487-.386 1.617l-.235.649c2.096 1.68 6.568 3.139 12.279 4.393 10.674 1.643 22.818 2.498 36.542 2.52v.009h77.985v-.009c16.43-.026 30.607-1.24 42.685-3.582 3.228-1.321 4.241-3.192 4.337-3.384l-.334-1.858c-12.824 2.943-28.321 4.465-46.688 4.494zM993.248 824.95h-77.985v.008c-18.198-.029-33.581-1.522-46.337-4.412-.279 1.503-.542 2.88-.781 4.101 12.993 2.953 28.636 4.479 47.118 4.508v.008h77.985v-.008c17.835-.028 33.03-1.449 45.748-4.202a853.826 853.826 0 01-.701-4.12c-12.499 2.702-27.46 4.096-45.047 4.124v-.007zM915.263 540.572h20.999a55.339 55.339 0 01-1.655-.374h-19.343v.001c-21.622-.034-39.315-2.125-53.374-6.168-.189.074-.381.148-.559.219 14.159 4.143 32.033 6.286 53.932 6.322z"/><path d="M993.248 829.859h-77.985v.008c-18.63-.03-34.306-1.595-47.235-4.623a252.98 252.98 0 01-.85 4.152c13.183 3.101 29.141 4.704 48.085 4.735v.008h77.985v-.008c18.229-.029 33.703-1.51 46.591-4.384a802.176 802.176 0 01-.736-4.179c-12.659 2.819-27.888 4.271-45.855 4.3v-.009zM993.248 770.945h-77.985v.007c-14.789-.023-27.724-1.013-38.906-2.931a554.105 554.105 0 01-.329 3.242l-.021.21c11.304 1.932 24.358 2.927 39.257 2.951v.007h77.985v-.007c14.572-.023 27.375-.977 38.506-2.827-.11-1.167-.215-2.318-.316-3.454-11.017 1.839-23.717 2.786-38.191 2.809v-.007z"/><path d="M993.248 775.855h-77.985v.007c-15.01-.024-28.104-1.045-39.398-3.021a688.56 688.56 0 01-.385 3.513c11.427 1.993 24.65 3.022 39.784 3.046v.007h77.985v-.007c14.78-.024 27.748-1.001 38.99-2.903-.122-1.187-.24-2.362-.352-3.519-11.119 1.888-23.968 2.86-38.638 2.884v-.007zM993.248 756.217h-77.985v.007c-14.441-.023-27.114-.966-38.115-2.796a442.765 442.765 0 01-.114 3.286c11.066 1.82 23.776 2.761 38.229 2.784v.007h77.985v-.007c14.058-.022 26.46-.916 37.312-2.64a462.407 462.407 0 01-.209-3.272c-10.766 1.722-23.099 2.615-37.103 2.638v-.007z"/><path d="M993.248 780.764h-77.985v.007c-15.249-.024-28.518-1.08-39.933-3.118a659.555 659.555 0 01-.42 3.573c11.557 2.059 24.966 3.124 40.353 3.149v.007h77.985v-.007c15.012-.024 28.147-1.036 39.511-2.997a632.146 632.146 0 01-.386-3.579c-11.231 1.944-24.237 2.948-39.125 2.972v-.007z"/><path d="M993.248 785.674h-77.985v.007c-15.504-.025-28.96-1.115-40.501-3.221a598.8 598.8 0 01-.457 3.633c11.694 2.13 25.302 3.234 40.958 3.258v.007h77.985v-.007c15.261-.024 28.579-1.072 40.073-3.098a589.668 589.668 0 01-.422-3.639c-11.351 2.005-24.527 3.043-39.651 3.067v-.007zM993.248 761.126h-77.985v.007c-14.517-.023-27.252-.975-38.292-2.824a373.063 373.063 0 01-.155 3.346c11.117 1.844 23.901 2.795 38.448 2.818v.007h77.985v-.007c14.21-.023 26.73-.935 37.665-2.695-.086-1.126-.169-2.24-.245-3.333-10.84 1.756-23.279 2.665-37.42 2.687v-.006z"/><path d="M993.248 766.036h-77.985v.007c-14.621-.023-27.434-.987-38.529-2.863a175.991 175.991 0 01-.164 2.656l-.073.745c11.19 1.878 24.082 2.844 38.765 2.868v.007h77.985v-.007c14.381-.023 27.034-.955 38.063-2.757-.099-1.149-.19-2.277-.279-3.394-10.924 1.795-23.486 2.722-37.784 2.745v-.007zM993.248 805.312h-77.985v.008c-16.702-.027-31.03-1.288-43.14-3.728a600.665 600.665 0 01-.605 3.872c12.301 2.48 26.832 3.762 43.744 3.789v.008h77.985v-.008c16.415-.026 30.597-1.228 42.665-3.566a716.615 716.615 0 01-.563-3.881c-11.886 2.303-25.881 3.487-42.102 3.513v-.007zM909.786 515.592l-.075-.001-.066.041.09.002c.018-.014.033-.029.051-.042z"/><path d="M993.248 800.403h-77.985v.008c-16.372-.026-30.471-1.235-42.428-3.58a622.57 622.57 0 01-.568 3.813c12.139 2.382 26.428 3.608 42.996 3.635v.008h77.985v-.008c16.104-.026 30.05-1.188 41.967-3.44a780.205 780.205 0 01-.527-3.82c-11.745 2.221-25.516 3.367-41.44 3.392v-.008zM996.102 520.643c3.53-.036 6.957-.126 10.274-.274l-.204-.1c-3.247.143-6.599.23-10.05.266-.006.037-.015.071-.02.108zM993.248 790.583h-77.985v.007c-15.776-.025-29.435-1.152-41.109-3.331a620.57 620.57 0 01-.491 3.693c11.836 2.208 25.659 3.349 41.601 3.375v.007h77.985v-.007c15.526-.025 29.039-1.11 40.668-3.206a608.354 608.354 0 01-.456-3.7c-11.477 2.072-24.837 3.145-40.212 3.169v-.007zM997.457 515.657l-.073-.041c-.301.004-.6.01-.903.013l.056.042.92-.014z"/><path d="M993.248 795.493h-77.985v.008c-16.063-.026-29.94-1.189-41.752-3.448a698.736 698.736 0 01-.529 3.753c11.984 2.291 26.036 3.472 42.281 3.498v.008h77.985v-.008c15.808-.025 29.53-1.149 41.301-3.32-.169-1.266-.334-2.52-.492-3.76-11.608 2.144-25.167 3.253-40.809 3.278v-.009zM993.248 584.383h-77.985v.002c-19.793-.032-36.291-1.786-49.717-5.185.024.364.044.7.062 1.007 13.438 3.373 29.918 5.112 49.656 5.144v.002h77.985v-.002c19.174-.031 35.265-1.677 48.489-4.863l.193-1.031c-13.237 3.23-29.394 4.897-48.682 4.928v-.002zM993.248 594.203h-77.985v.002c-19.338-.031-35.53-1.706-48.784-4.954.051.382.104.768.158 1.157 13.25 3.207 29.388 4.863 48.627 4.894v.002h77.985v-.002c18.287-.029 33.773-1.527 46.642-4.429a366 366 0 01.199-1.167c-12.886 2.946-28.435 4.469-46.84 4.498v-.001z"/><path d="M993.248 589.293h-77.985v.002c-19.631-.031-36.024-1.755-49.39-5.099.036.353.074.715.115 1.085 13.368 3.31 29.725 5.015 49.275 5.046v.002h77.985v-.002c18.72-.03 34.499-1.602 47.543-4.64l.196-1.099c-13.06 3.083-28.903 4.678-47.739 4.708v-.003zM993.248 574.565h-77.985v.002c-20.307-.032-37.139-1.882-50.753-5.456.042.298.083.595.121.888 13.613 3.54 30.407 5.37 50.631 5.402v.002h77.985v-.003c20.121-.032 36.847-1.843 50.423-5.347l.162-.898c-13.584 3.546-30.361 5.38-50.584 5.412v-.002z"/><path d="M993.248 579.474h-77.985v.002c-20.003-.032-36.636-1.825-50.14-5.295l.094.948c13.509 3.439 30.114 5.216 50.046 5.247v.002h77.985v-.002c19.65-.031 36.074-1.754 49.478-5.098l.189-.973c-13.418 3.39-29.9 5.139-49.668 5.171v-.002zM993.248 613.841h-77.985v.003c-17.764-.029-32.873-1.444-45.486-4.192.099.55.188 1.037.262 1.437 12.587 2.696 27.605 4.088 45.224 4.116v.003h77.985v-.003c16.862-.027 31.339-1.305 43.586-3.777.046-.385.103-.854.175-1.42-12.261 2.51-26.794 3.808-43.76 3.835v-.002zM993.248 599.112h-77.985v.002c-18.989-.03-34.937-1.65-48.055-4.783.062.411.125.821.189 1.232 13.108 3.088 28.993 4.685 47.866 4.715v.002h77.985v-.002c17.881-.029 33.091-1.458 45.789-4.234l.198-1.228c-12.715 2.819-27.99 4.27-45.987 4.299v-.003zM993.248 569.655h-77.985v.002c-20.716-.033-37.819-1.955-51.575-5.672.051.277.099.552.147.826 13.751 3.678 30.806 5.581 51.428 5.614v.001h77.985v-.001c20.6-.033 37.64-1.932 51.384-5.602l.157-.829c-13.75 3.711-30.842 5.63-51.541 5.663v-.002z"/><path d="M993.248 608.931h-77.985v.003c-18.192-.029-33.595-1.515-46.39-4.395l.24 1.379c12.771 2.827 28.101 4.283 46.15 4.311v.003h77.985v-.003c17.169-.027 31.864-1.353 44.25-3.915l.189-1.356c-12.403 2.602-27.16 3.947-44.439 3.975v-.002z"/><path d="M993.248 604.022h-77.985v.003c-18.604-.03-34.285-1.586-47.25-4.595l.215 1.305c12.947 2.96 28.561 4.49 47.034 4.519v.002h77.985v-.002c17.512-.028 32.452-1.405 44.99-4.069l.195-1.289c-12.555 2.705-27.561 4.101-45.185 4.129v-.003zM1016.239 524.719c-.126-.048-.252-.094-.378-.143-6.598.547-13.68.839-21.236.882-.029.059-.063.116-.093.175 7.735-.042 14.973-.345 21.707-.914zM993.248 540.572c21.611-.035 39.305-2.121 53.376-6.157-.164-.083-.323-.16-.484-.241-13.98 3.951-31.519 5.991-52.891 6.025v-.001h-22.214c-.569.14-1.11.268-1.593.374h23.806zM993.248 530.62c13.245-.022 25.017-.815 35.389-2.352l-.618-.149c-10.218 1.479-21.787 2.24-34.771 2.26v-.001h-2.228c-.084.083-.175.159-.26.241h2.488zM993.248 535.596c18.052-.029 33.375-1.487 46.134-4.318a72.01 72.01 0 00-.546-.193c-12.644 2.756-27.786 4.176-45.587 4.205v-.001h-9.061c-.196.106-.394.205-.592.307h9.652zM993.248 721.85h-77.985v.006c-14.478-.023-27.183-.97-38.207-2.808.034.96.066 1.911.094 2.853 11.037 1.81 23.707 2.745 38.113 2.768v.006h77.985v-.006c13.662-.022 25.758-.867 36.387-2.497.021-.991.047-1.941.077-2.851-10.618 1.655-22.738 2.514-36.463 2.536v-.007zM993.248 618.75h-77.985v.003c-17.142-.027-31.799-1.353-44.139-3.915.111.492.218.995.316 1.515 12.298 2.504 26.851 3.8 43.822 3.827v.003h77.985v-.003c16.288-.026 30.36-1.214 42.339-3.523.109-.559.215-1.06.315-1.515-12.026 2.364-26.196 3.585-42.654 3.611v-.003z"/><path d="M993.248 545.107h-77.985v.001c-24.785-.04-44.411-2.777-59.309-8.066l-.005.005c.048.167.099.338.149.507 14.898 5.242 34.482 7.953 59.166 7.993v.001h77.985v-.001c23.642-.038 42.595-2.532 57.244-7.347l.139-.501c-14.652 4.857-33.65 7.372-57.384 7.41v-.002zM993.248 554.927h-77.985v.001c-22.948-.037-41.478-2.385-55.921-6.931l.215.66c14.431 4.489 32.893 6.805 55.706 6.841v.001h77.985v-.001c22.247-.035 40.343-2.246 54.611-6.518l.14-.63c-14.271 4.312-32.413 6.542-54.751 6.577z"/><path d="M993.248 559.836h-77.985v.001c-22.011-.035-39.945-2.203-54.118-6.391l.113.334.115.39c14.157 4.131 32.017 6.269 53.889 6.304v.001h77.985v-.001c21.654-.035 39.378-2.129 53.467-6.179l.147-.7c-14.094 4.092-31.864 6.208-53.614 6.243v-.002z"/><path d="M993.248 564.746h-77.985v.001c-21.257-.034-38.723-2.051-52.659-5.962.061.257.118.514.177.771 13.927 3.866 31.335 5.859 52.482 5.893v.001h77.985v-.001c21.104-.034 38.482-2.02 52.396-5.87l.15-.76c-13.918 3.89-31.347 5.894-52.546 5.928v-.001zM993.248 550.017h-77.985v.001c-23.887-.038-42.978-2.585-57.666-7.505l.182.584c14.683 4.867 33.715 7.387 57.485 7.425v.001h77.985v-.001c22.889-.036 41.398-2.368 55.848-6.886.046-.192.093-.38.14-.57-14.456 4.56-33.006 6.915-55.989 6.951zM993.248 648.207h-77.985v.004c-16.266-.026-30.305-1.215-42.237-3.525l.037 1.853c11.952 2.29 25.977 3.469 42.199 3.495v.004h77.985v-.004c15.646-.025 29.236-1.13 40.906-3.261 0-.707-.005-1.335-.013-1.843-11.641 2.146-25.227 3.256-40.893 3.281v-.004zM993.248 672.755h-77.985v.005c-15.965-.026-29.774-1.176-41.558-3.404.028.762.056 1.487.084 2.194 11.797 2.199 25.577 3.337 41.474 3.362v.004h77.985v-.004c15.202-.024 28.466-1.067 39.914-3.08l.102-2.198c-11.444 2.043-24.739 3.101-40.016 3.126v-.005zM993.248 697.303h-77.985v.005c-15.413-.025-28.808-1.102-40.316-3.182.08.901.166 1.756.256 2.56 11.484 2.029 24.795 3.08 40.06 3.105v.005h77.985v-.005c14.515-.023 27.269-.971 38.361-2.809.072-.813.142-1.662.212-2.541-11.111 1.877-23.938 2.844-38.573 2.867v-.005z"/><path d="M993.248 692.393h-77.985v.005c-15.558-.025-29.061-1.122-40.643-3.24.036.844.079 1.673.131 2.47 11.586 2.083 25.045 3.162 40.512 3.186v.005h77.985v-.005c14.687-.023 27.578-.991 38.761-2.872.058-.809.116-1.635.173-2.477-11.195 1.918-24.138 2.908-38.934 2.932v-.004zM993.248 682.574h-77.985v.004c-15.778-.025-29.445-1.151-41.136-3.328.043.862.083 1.638.12 2.335 11.697 2.143 25.324 3.253 41.016 3.278v.005h77.985v-.005c14.971-.024 28.067-1.033 39.398-2.986.044-.778.086-1.557.128-2.336-11.332 1.986-24.467 3.014-39.526 3.038v-.005z"/><path d="M993.248 677.664h-77.985v.005c-15.878-.025-29.622-1.165-41.362-3.369l.099 2.264c11.751 2.173 25.461 3.298 41.263 3.323v.005h77.985v-.005c15.092-.024 28.275-1.05 39.668-3.035l.114-2.267c-11.39 2.015-24.609 3.059-39.781 3.084v-.005zM993.248 702.212h-77.985v.005c-15.165-.024-28.376-1.068-39.759-3.082.139 1.029.274 1.927.392 2.651 11.325 1.949 24.411 2.956 39.367 2.98v.005h77.985v-.005c14.289-.023 26.866-.945 37.837-2.726.1-.792.198-1.667.294-2.618-11.009 1.829-23.688 2.772-38.131 2.796v-.006zM993.248 623.66h-77.985v.003c-16.738-.027-31.106-1.291-43.261-3.735.067.515.13 1.033.188 1.557 12.139 2.404 26.448 3.645 43.073 3.672v.003h77.985v-.003c15.92-.026 29.713-1.167 41.514-3.374.07-.539.142-1.055.216-1.551-11.826 2.246-25.693 3.405-41.73 3.431v-.003z"/><path d="M993.248 707.122h-77.985v.005c-14.813-.024-27.767-1.016-38.969-2.939.06.897.118 1.79.172 2.678 11.193 1.884 24.095 2.853 38.797 2.876v.005h77.985v-.005c14.015-.022 26.38-.912 37.203-2.626a86.06 86.06 0 01.299-2.685c-10.863 1.762-23.329 2.675-37.502 2.697v-.006zM993.248 716.941h-77.985v.005c-14.565-.023-27.339-.98-38.41-2.84.043.937.084 1.868.121 2.79 11.077 1.829 23.807 2.773 38.289 2.796v.006h77.985v-.006c13.73-.022 25.876-.876 36.542-2.522.04-.987.084-1.916.131-2.793-10.668 1.676-22.857 2.546-36.673 2.568v-.004z"/><path d="M993.248 712.031h-77.985v.005c-14.677-.023-27.533-.996-38.664-2.884.052.917.1 1.827.146 2.733 11.129 1.854 23.937 2.809 38.518 2.832v.005h77.985v-.005c13.842-.022 26.075-.891 36.803-2.563.065-1.004.131-1.916.197-2.736-10.746 1.71-23.043 2.597-36.999 2.619v-.006zM993.248 687.483h-77.985v.005c-15.658-.025-29.235-1.135-40.866-3.28.086 1.407.138 2.079.138 2.079l.008.327c11.632 2.108 25.161 3.2 40.721 3.225v.005h77.985v-.005c14.838-.024 27.838-1.013 39.1-2.932.05-.795.099-1.598.147-2.407-11.268 1.954-24.312 2.964-39.247 2.988v-.005zM993.248 638.388h-77.985v.003c-16.3-.026-30.363-1.22-42.312-3.54.009.612.015 1.186.018 1.718 11.971 2.302 26.028 3.487 42.294 3.513v.004h77.985v-.004c15.529-.025 29.031-1.113 40.641-3.214-.004-.579-.005-1.151-.002-1.712-11.586 2.115-25.087 3.21-40.639 3.235v-.003zM993.248 628.569h-77.985v.003c-16.501-.026-30.703-1.253-42.748-3.629.042.539.08 1.075.115 1.608 12.043 2.346 26.212 3.554 42.633 3.58v.003h77.985v-.003c15.684-.025 29.301-1.135 40.987-3.278.043-.549.089-1.084.138-1.603-11.694 2.173-25.358 3.297-41.126 3.322v-.003z"/><path d="M993.248 633.479h-77.985v.003c-16.365-.026-30.472-1.231-42.452-3.569.024.566.046 1.123.063 1.663 11.991 2.314 26.08 3.505 42.389 3.531v.003h77.985v-.003c15.558-.025 29.082-1.118 40.706-3.227.019-.564.042-1.116.069-1.658-11.616 2.131-25.163 3.234-40.774 3.259v-.002zM993.248 667.846h-77.985v.004c-16.041-.026-29.908-1.185-41.729-3.434.024.728.047 1.437.071 2.125 11.837 2.222 25.678 3.37 41.658 3.396v.004h77.985v-.004c15.304-.024 28.642-1.081 40.143-3.122l.092-2.13c-11.493 2.068-24.86 3.14-40.234 3.164v-.003zM993.248 643.298h-77.985v.004c-16.297-.026-30.358-1.219-42.305-3.539-.006.435-.012.681-.012.681l.02 1.102c11.972 2.302 26.03 3.487 42.297 3.513v.004h77.985v-.004c15.587-.025 29.134-1.121 40.773-3.237-.027-.597-.051-1.186-.069-1.766-11.6 2.122-25.123 3.222-40.704 3.247v-.005z"/><path d="M993.248 662.936h-77.985v.004c-16.108-.026-30.026-1.194-41.88-3.461.02.699.04 1.387.061 2.057 11.871 2.242 25.767 3.4 41.819 3.425v.004h77.985v-.004c15.399-.025 28.807-1.095 40.354-3.161l.083-2.061c-11.539 2.092-24.973 3.176-40.437 3.2v-.003zM993.248 653.117h-77.985v.004c-16.219-.026-30.224-1.208-42.132-3.505l.044 1.92c11.928 2.276 25.915 3.449 42.088 3.474v.004h77.985v-.004c15.593-.025 29.144-1.122 40.788-3.24.033-.652.057-1.297.075-1.926-11.634 2.142-25.21 3.251-40.862 3.276v-.003z"/><path d="M993.248 658.026h-77.985v.004c-16.167-.026-30.131-1.201-42.014-3.485l.052 1.988c11.902 2.26 25.846 3.426 41.962 3.451v.004h77.985v-.004c15.487-.025 28.96-1.107 40.551-3.196.031-.818.055-1.491.073-1.993-11.581 2.114-25.077 3.209-40.624 3.234v-.003zM910.344 515.644l.061-.041-.619-.011-.051.042.609.01zM971.034 540.198h-.357c-.639.148-1.222.273-1.724.374h.487a65.187 65.187 0 001.594-.374zM996.537 515.67l-.056-.042-.344.002.073.042c.108 0 .219 0 .327-.002zM916.859 530.62l-.247-.241h-.033c.078.08.164.161.244.241h.036zM923.641 535.596a37.65 37.65 0 01-.534-.307h-.244c.171.103.355.205.53.307h.248zM937.263 540.572a59.728 59.728 0 01-1.8-.374h-.857a58.64 58.64 0 001.655.374h1.002z"/></svg>