<svg xmlns="http://www.w3.org/2000/svg" viewBox="619.41 294.972 267.003 337.412"><path fill="none" d="M668.687 406.027c.05.725.067 1.834.064 3.238.003-1.406-.014-2.515-.064-3.238z"/><path fill="none" d="M668.62 406.363c.201 2.9-.123 11.983-.154 21.393.041-.21.067-.332.067-.332.03-9.873.447-18.666.154-21.396.05.723.067 1.832.064 3.238.003-1.404-.015-2.514-.064-3.238-.054-.672-.129-1.026-.236-.951l-.124.407c.139-.031.231.293.293.879zM847.355 337.109c.789-3.536 1.624-7.019 2.468-10.131l-66.55 59.76 50.33 45.195-.004-.145a128.352 128.352 0 01-.223-8.432l-40.962-36.594 54.941-49.653z"/><path fill="none" d="M842.895 359.668a612.444 612.444 0 011.846-9.948l-40.935 36.996 30.051 26.847c.262-2.789.599-5.163.932-7.088l-21.805-19.735 29.911-27.072zM833.104 576.961zM673.128 579.267c-3.135 22.873-6.622 39.253-6.91 40.047l-.386 1.065c.026.022.059.044.086.065l.232-.64c.29-.8 3.824-17.405 6.978-40.537zM662.53 349.001c.735 3.419 1.27 6.769 1.657 9.776l30.894 27.962L671.48 408.1c.313 2.385.529 4.886.677 7.296l32.103-28.68-41.73-37.715zM781.609 468.815l-2.461-2.2 2.048-2.107 2.759-2.837-29.362-26.438-29.362 26.438 2.759 2.837 2.048 2.107-2.461 2.2-38.646 34.54-11.168 9.982c.708 16.938 1.09 34.412 1.09 51.864 0 19.033 6.492 36.187 24.99 36.187h100.383c18.497 0 24.99-17.154 24.99-36.187 0-9.556.118-19.116.338-28.595-.503-10.234-.573-18.671-.447-25.341l-8.851-7.911-38.647-34.539z"/><path fill="none" d="M836.526 397.793c.558-4.379 1.798-13.265 4.07-25.793l-16.284 14.738 12.214 11.055zM838.083 431.386s-.432-2.748-.293-4.631c0 0 .315-16.001-.89-23.123 1.139 7.274.833 22.773.833 22.773-.139 1.883.293 4.629.293 4.629.864 6.369.586 10.998.586 10.998.023.011.05.018.073.029.044-1.151.129-5.283-.602-10.675zM839.769 620.379c-2.716-14.906-4.778-28.476-6.331-40.727 1.544 12.26 3.596 25.836 6.309 40.77l.022-.043zM669.568 399.578l14.186-12.839-18.585-16.821c.019.451.025.695.025.695.662 8.445 3.567 24.578 4.374 28.965z"/><path fill="none" d="M642.702 336.899s6.051-6.962 12.735-11.577a361.912 361.912 0 003.003 9.735l57.211 51.706-43.191 38.585c.006 2.063-.026 3.355-.026 3.355.031 1.713.063 3.36.095 4.966l52.263-46.931-68.854-61.829c.863-.589 2.992-1.805 7.592-3.422l72.664 65.251L672.76 443.7l.034 1.311c.216 1.988.43 3.991.636 6.03l71.89-64.309-75.039-67.357a289.048 289.048 0 008.476-2.63l75.274 67.567 75.212-67.512c3.087.747 5.868 1.456 8.712 2.419l-75.213 67.513 70.364 62.944c.187-4.62.291-7.661.291-7.661l.002-.025-61.529-55.251 72.362-64.979a77.61 77.61 0 016.138 3.253l-.032.114.032-.114s10.929 7.255 19.975 21.426c3.747 5.875 7.083 12.968 9.409 21.143-2.328-8.299-5.699-15.49-9.49-21.434-9.039-14.16-19.961-21.41-19.961-21.41-11.137-6.51-17.06-7.08-28.352-9.981-8.791-2.258-20.019-8.272-24.562-10.827-.454-1.063-2.373-1.865-3.297-2.735-1.557-1.467-1.426-2.082-3.867-2.718-4.528-1.18-12.605-2.255-17.936-2.22-2.642.017-3.538-.417-6.185-.405-2.203.009-4.411.025-6.611.023-2.364-.002-3.588-.359-6.063-.401H752.271c-4.062.042-7.631.409-12.149.385-6.569-.035-18.069 1.026-24.201 2.544-2.664.66-2.349.991-3.987 2.603-1.003.986-3.233 1.959-3.553 3.109-12.867 7.9-39.002 15.271-39.002 15.271-11.568 3.332-13.883 5.646-13.883 5.646l.006.022c-6.675 4.612-12.716 11.563-12.716 11.563-6.941 6.574-11.545 16.292-14.596 26.031 3.055-9.646 7.638-19.239 14.512-25.749zm104.585-6.821l.23.207 7.076 6.371 7.564-6.81.191-.172c1.281-.128 2.591-.279 3.94-.462 0 0 5.211-.731 11.246-2.941l.138-.05-.148.059-22.931 20.647-20.512-18.469-.305-.274c3.002.74 7.548 1.583 13.511 1.894zm-45.852-22.039l28.602 25.564-4.807 4.944 29.362 26.438 29.362-26.438-4.807-4.944 27.504-24.582a121.932 121.932 0 007.635 3.401l-24.237 21.662 4.793 4.93-40.25 36.24-40.25-36.24 4.793-4.93-25.414-22.715a141.158 141.158 0 007.714-3.33zM832.598 572.719z"/><path fill="none" d="M667.239 441.574c.176-.78.136-1.564.136-1.564 0-5.823.749-10.421 1.042-11.995-.22 1.116-1.109 6.012-1.109 12.354 0-.001.028.561-.069 1.205zM674.335 460.463c-.289-3.195-.59-6.335-.902-9.421l-.448.401c.513 16.259 1.04 23.104 1.04 23.104.139 9.842 1.743 17.647 1.743 17.647.278 4.105.492 8.115.656 11.999l.887-.697.18-.142 39.151-34.992 2.494-2.229-2.003-2.06-2.79-2.869 40.25-36.241h-8.857l8.82-9.964 8.942 9.964h-8.905l40.25 36.241-2.79 2.869-2.003 2.06 2.494 2.229 36.937 33.013c.366-6.172.833-9.226.833-9.226.288-1.786.565-4.354.827-7.393l-51.992-46.469 4.807-4.945-29.362-26.438-29.362 26.438 4.807 4.945-53.712 48.006c-.21-3.245-.431-6.458-.665-9.631l43.475-38.856-4.793-4.93 40.25-36.241 40.25 36.241-4.793 4.93 41.787 37.348c.322-5.132.606-10.623.841-15.632l-78.645-70.352-79.699 71.293z"/><path d="M849.823 326.979c.172-.633.344-1.254.515-1.852l.032-.114a78.278 78.278 0 00-6.138-3.253l-72.362 64.979 61.53 55.251c.348-4.381.229-9.208.204-10.057l-50.33-45.195 66.549-59.759z"/><path d="M844.741 349.719a471.642 471.642 0 012.614-12.61l-54.94 49.653 40.962 36.594c.026-3.675.214-6.95.481-9.794l-30.051-26.847 40.934-36.996z"/><path fill="#FFF" d="M777.672 326.22l-.138.05-.01.009.148-.059zM677.49 503.354l-.18.142.001.019.179-.161z"/><path d="M754.592 346.926l22.931-20.647c-6.185 2.358-11.639 3.124-11.639 3.124-1.275.174-2.514.318-3.728.443l-7.564 6.81-7.076-6.371c-5.875-.281-10.402-1.093-13.436-1.828l20.512 18.469z"/><path d="M747.517 330.285l-.23-.207c-5.963-.311-10.509-1.154-13.511-1.895l.305.274c3.034.735 7.561 1.547 13.436 1.828zM777.524 326.278l.01-.009c-6.035 2.211-11.246 2.941-11.246 2.941a112.02 112.02 0 01-3.94.462l-.191.172c1.214-.124 2.453-.268 3.728-.443-.001.002 5.454-.764 11.639-3.123z"/><path d="M714.342 339.014l40.25 36.24 40.25-36.24-4.793-4.93 24.237-21.662a122.255 122.255 0 01-7.635-3.401l-27.504 24.582 4.807 4.944-29.362 26.438-29.362-26.438 4.807-4.944-28.602-25.564a141.94 141.94 0 01-7.714 3.331l25.414 22.715-4.793 4.929zM837.957 319.219c-2.843-.963-5.624-1.672-8.712-2.419l-75.212 67.512 2.71 2.432-2.71 2.424 78.645 70.352c.171-3.648.315-7.037.429-9.844l-70.364-62.944 75.214-67.513z"/><path d="M824.312 386.739L840.596 372a689.947 689.947 0 011.917-10.141s.136-.803.382-2.192l-29.91 27.071 21.805 19.735c.626-3.616 1.24-5.652 1.314-5.894.023.046.045.106.068.156.04-.367.154-1.366.355-2.943l-12.215-11.053zM664.187 358.777c.684 5.308.914 9.539.981 11.14l18.585 16.821-14.186 12.839.197 1.063.074-.243.422 1.264c.518 1.898.915 4.112 1.22 6.438l23.601-21.361-30.894-27.961z"/><path d="M658.44 335.057c1.288 3.999 2.308 6.998 2.308 6.998a85.039 85.039 0 011.782 6.946l41.73 37.714-32.103 28.68c.236 3.859.297 7.467.304 9.952l43.191-38.585-57.212-51.705z"/><path d="M663.531 321.488c-4.601 1.616-6.729 2.833-7.592 3.422l68.854 61.829-52.263 46.931c.073 3.608.151 6.947.232 10.031l63.434-56.962-72.665-65.251z"/><path d="M754.033 389.169l-2.709-2.424 2.709-2.432-75.274-67.567a289.048 289.048 0 01-8.476 2.63l75.039 67.357-71.89 64.309a868.5 868.5 0 01.902 9.421l79.699-71.294z"/><path d="M754.033 389.169l2.709-2.424-2.709-2.432-2.71 2.432zM794.842 432.875l-40.25-36.241-40.25 36.241 4.793 4.93-43.475 38.856c.234 3.172.455 6.386.665 9.631l53.712-48.006-4.807-4.945 29.362-26.438 29.362 26.438-4.807 4.945 51.992 46.469c.247-2.866.481-6.151.697-9.602l-41.787-37.348 4.793-4.93z"/><path d="M716.641 468.362l-39.151 34.992 41.645-32.736zM792.053 464.073l2.789-2.869-40.25-36.241-40.25 36.241 2.79 2.869 37.46-29.665zM727.989 464.508l-2.759 2.185 2.346 2.122 2.461-2.2zM688.93 503.355l-11.217 8.818.049 1.164 11.168-9.982zM829.106 511.266l.02-.937-8.871-6.973 8.851 7.91zM790.05 470.618l39.417 30.985.013-.228-36.937-33.013-2.493 2.256zM781.609 468.815l2.346-2.122-2.759-2.185-2.048 2.107z"/><path d="M792.543 468.362l-2.494-2.229 2.003-2.06-37.46-29.666-37.46 29.666 2.003 2.06-2.494 2.229 2.494 2.256-41.645 32.736-.179.16c.143 2.868.277 5.755.401 8.659l11.217-8.818 38.646-34.54-2.346-2.122 2.759-2.185-2.759-2.837 29.362-26.438 29.362 26.438-2.759 2.837 2.759 2.185-2.346 2.122 38.646 34.54 8.871 6.973c.075-3.386.2-6.292.341-8.725l-39.417-30.985 2.495-2.256zM672.796 445.012c.062 2.292.125 4.43.188 6.431l.448-.401c-.206-2.039-.42-4.042-.636-6.03zM804.225 601.388H703.842c-18.497 0-24.99-17.154-24.99-36.187 0-17.452-.382-34.927-1.09-51.864l-1.015.907c.518 23.275-.686 39.851-.686 39.851a609.866 609.866 0 01-2.932 25.171c-3.154 23.131-6.688 39.737-6.978 40.537l-.232.64c9.514 7.664 68.558 10.731 68.558 10.731 41.463 3.471 99.693-6.941 99.693-6.941 4.117-1.258 5.41-3.492 5.578-3.813-2.713-14.934-4.764-28.509-6.309-40.77l-.003-.022a669.453 669.453 0 01-.825-6.804l-.012-.106c-1.606-13.855-2.542-25.882-3.045-36.112-.219 9.478-.338 19.039-.338 28.595-.001 19.033-6.494 36.187-24.991 36.187zM677.31 503.495l-.887.697.005.111.883-.789-.001-.019zM677.712 512.173l-.996.783.03 1.288 1.015-.907-.049-1.164z"/><path d="M677.311 503.514l-.883.789c.125 2.966.219 5.855.288 8.653l.996-.783c-.124-2.904-.258-5.791-.401-8.659zM754.555 414.999l-8.82 9.964h17.762zM665.193 370.612s-.006-.244-.025-.695a134.533 134.533 0 00-.981-11.14 120.19 120.19 0 00-1.657-9.776 85.449 85.449 0 00-1.782-6.946s-1.02-2.999-2.308-6.998a365.567 365.567 0 01-3.003-9.735c-6.684 4.616-12.735 11.577-12.735 11.577-6.874 6.51-11.458 16.103-14.511 25.746-5.405 17.249-5.935 34.56-5.935 34.56-.293 16.783-2.313 36.002-2.313 36.002 18.51 9.981 46.275 9.842 46.275 9.842.585-.195.876-.833 1.021-1.475.097-.644.069-1.206.069-1.206 0-6.342.889-11.238 1.109-12.354l.049-.259c.031-9.41.355-18.492.154-21.393-.062-.587-.154-.911-.293-.88l.124-.407a.198.198 0 00-.057.072l1.371-4.507-.197-1.063c-.807-4.386-3.712-20.519-4.375-28.965zM850.371 325.012l-.032.114c-.172.599-.344 1.22-.515 1.852-.844 3.111-1.68 6.594-2.468 10.131a472.46 472.46 0 00-2.614 12.61 614.492 614.492 0 00-1.846 9.948c-.246 1.389-.382 2.192-.382 2.192A689.947 689.947 0 00840.597 372c-2.272 12.527-3.512 21.414-4.07 25.793a190.057 190.057 0 00-.355 2.943c.291.643.532 1.642.728 2.895 1.205 7.123.89 23.123.89 23.123-.139 1.883.293 4.631.293 4.631.731 5.392.645 9.524.601 10.674 10.352 4.813 47.206-8.575 47.206-8.575-.864-13.883-2.9-44.824-2.9-44.824-.268-7.643-1.443-14.689-3.236-21.079-2.326-8.175-5.662-15.268-9.409-21.143-9.045-14.17-19.974-21.426-19.974-21.426z"/></svg>