<svg xmlns="http://www.w3.org/2000/svg" viewBox="905.471 294.549 273.844 338.292"><path fill="none" d="M956.175 404.318l.117.21-.117-.21zM941.032 355.412l.145.992-.145-.992zM956.382 404.688l.13.231-.13-.231zM956.549 404.983zM955.409 402.919l.04.075-.04-.075zM955.684 403.427l.09.165a14.752 14.752 0 00-.09-.165zM955.941 403.895l.11.198-.11-.198zM1005.981 465.711l-2.095-2.06-2.918-2.869 42.108-36.241h-9.266l9.227-9.964 9.355 9.964h-9.316l42.108 36.241-2.918 2.869-2.095 2.06 2.609 2.229 35.972 30.732c.612-4.707 1.217-10.546 1.776-16.586l-51.761-44.221 5.029-4.945-30.718-26.438-30.718 26.438 5.029 4.945-52.472 44.829a37122.105 37122.105 0 001.442 16.871l37.016-31.624 2.606-2.23z"/><path fill="none" d="M1000.967 432.452l42.108-36.241 42.108 36.241-5.014 4.93 41.19 35.19c.469-5.638.88-11.019 1.197-15.362l-80.066-68.464-79.765 68.206c.474 5.597.942 11.107 1.376 16.21l41.88-35.779-5.014-4.931zM939.699 342.476c.149 2.886.434 5.917.805 8.964l40.312 34.877-23.285 20.145c.586 1.839 1.069 4.16 1.464 6.666l31.424-26.835-50.72-43.817zM955.842 407.128c-1.544 10.234-.679 23.927-.679 23.927-.386 3.953-.787 8.783-.787 8.783-.235 4.085-.143 6.133-.098 6.792.053-.04.112-.075.163-.117 0 0-.215-1.928.078-7.035 0 0 .4-4.828.787-8.775 0 0-.865-13.684.678-23.91 0 0-.047-.272.015-.56-.259.365-.157.895-.157.895z"/><path fill="none" d="M953.659 399.559l15.307-13.243-26.668-23.072c1.824 10.237 3.896 18.414 3.896 18.414 2.262 6.99 5.206 13.419 7.465 17.901zM956.889 405.577a65.97 65.97 0 01-.194-.337l.194.337zM1143.937 351.905c.166-2.944.264-5.831.314-8.541l-49.692 42.928 31.655 27.032c.581-3.001 1.289-5.14 1.776-6.393l-23.828-20.615 39.775-34.411zM1128.955 405.273c-.095.283-.194.56-.283.856 0 0 .016.049.042.152.145-.465.296-.914.452-1.353-.071.12-.141.23-.211.345zM1178.792 435.162c.013.091.013.178.02.267a4.312 4.312 0 00-.039-.624s-1.417-18.846-2.433-34.975l-.001.013c1.019 16.208 2.453 35.319 2.453 35.319z"/><path fill="none" d="M956.323 320.196a238.638 238.638 0 008.828-2.663l77.338 66.357 77.676-66.647c1.616.485 4.785 1.478 8.581 2.876l-77.144 66.191 71.63 61.25.023-.353c.246-2.287.474-4.649.685-6.994l-62.791-53.897 74.106-63.61c2.573 1.106 5.189 2.342 7.634 3.687l-69.811 59.922 51.641 44.327c.223-3.017.405-5.738.543-7.906l-42.621-36.397 61.607-53.221c-.07-3.727-.189-6.074-.189-6.074 11.145 9.987 16.642 16.641 16.642 16.641 11.896 18.146 14.831 37.78 15.5 48.351-.629-10.48-3.497-30.318-15.509-48.641 0 0-5.49-6.648-16.627-16.628v.007c-10.504-6.073-25.037-10.142-25.037-10.142-14.746-2.992-32.314-13.173-32.314-13.173-1.451-1.157-7.42-2.221-7.42-2.221h-25.529v-6.188h-20.34v6.188h-26.537c-3.471.2-7.035 1.064-7.035 1.064-16.781 10.613-44.547 17.94-44.547 17.94-6.371 2.128-13.498 5.599-13.498 5.599v-.031s-4.535 4.921-9.055 8.376c0 0-6.165 4.608-12.258 15.394 6.042-10.583 12.099-15.112 12.099-15.112 4.523-3.458 9.061-8.382 9.061-8.382-1.885 3.384-2.31 9.412-1.962 16.284-.184-3.652-.149-7.064.209-9.966l62.434 53.936-42.259 36.088c.267 3.146.43 5.991.522 7.922l51.3-44.034-70.173-60.233c.491-.237 3.848-1.846 7.87-3.484l74.232 63.718-62.534 53.676.624 7.421 71.458-61.103-77.053-66.115zm77.716-18.699c-.011.269-.038.441-.093.441h2.197l6.932 5.966 6.931-5.966.513-.441h11.933l-19.377 16.677-19.377-16.677h10.341zm-31.878.572c1.3-.232 2.969-.477 4.622-.572h6.677l3.925 3.354-5.029 4.945 30.718 26.438 30.718-26.438-5.029-4.945 3.925-3.354h6.553s2.22.397 4.282.968l-3.356 2.867 5.014 4.93-42.108 36.241-42.108-36.241 5.014-4.93-3.818-3.263zm-13.604 6.481l28.829 24.63-5.029 4.944 30.718 26.438 30.718-26.438-5.029-4.944 28.245-24.131a143.982 143.982 0 007.924 3.455l-24.764 21.157 5.014 4.93-42.108 36.24-42.108-36.24 5.014-4.93-25.377-21.68a165.46 165.46 0 007.953-3.431zM940.581 352.063z"/><path fill="none" d="M1119.198 555c-2.219-24.187-.751-51.478-.51-55.572a358.7 358.7 0 00-.395 8.408l-.024.651-6.502-5.555-40.429-34.54-2.575-2.2 2.143-2.107 2.886-2.837-30.718-26.438-30.718 26.438 2.886 2.837 2.143 2.107-2.575 2.2-40.43 34.54-7.541 6.443c.732 22.013-.81 44.069-2.732 61.69 1.413 16.363 8.684 29.9 25.872 29.9H1094.994c17.371 0 24.618-13.826 25.919-30.423a943.014 943.014 0 006.178 41.538s.95 2.407 1.001 4.143c.159-1.728-.984-4.628-.984-4.628-5.517-32.13-7.91-56.595-7.91-56.595zM1131.43 399.654c1.141-2.381 2.375-4.84 3.555-8.039 3.055-8.274 4.616-15.699 6.667-21.148.519-2.327.938-4.841 1.279-7.44l-26.919 23.289 15.418 13.338z"/><path d="M1142.89 326.393c-2.445-1.344-5.061-2.581-7.634-3.687l-74.106 63.61 62.791 53.897c.297-3.307.559-6.582.78-9.57l-51.641-44.327 69.81-59.923zM1062.451 301.497h-8.241c.009.269.031.441.075.441h-4.28l-6.931 5.966-6.932-5.966h-2.197c.055 0 .082-.172.093-.441h-10.341l19.377 16.677 19.377-16.677z"/><path d="M1054.21 301.497h-3.692l-.513.441h4.28c-.044.001-.066-.172-.075-.441z"/><path d="M1043.075 346.503l42.108-36.241-5.014-4.93 3.356-2.867c-2.062-.571-4.282-.968-4.282-.968h-6.553l-3.925 3.354 5.029 4.945-30.718 26.438-30.718-26.438 5.029-4.945-3.925-3.354h-6.677c-1.653.095-3.321.34-4.622.572l3.82 3.263-5.014 4.93 42.106 36.241z"/><path d="M1000.967 338.591l42.108 36.24 42.108-36.24-5.014-4.93 24.764-21.157a144.749 144.749 0 01-7.924-3.455l-28.245 24.131 5.029 4.944-30.718 26.438-30.718-26.438 5.029-4.944-28.829-24.63a165.028 165.028 0 01-7.953 3.431l25.377 21.68-5.014 4.93zM1128.746 320.118a151.64 151.64 0 00-8.581-2.876l-77.676 66.647 2.834 2.432-2.834 2.424 80.066 68.464c.363-4.961.604-8.559.676-9.65l-71.63-61.25 77.145-66.191z"/><path d="M1144.251 343.364c.073-3.929.05-7.47-.002-10.246l-61.607 53.221 42.621 36.397c.2-3.149.306-5.131.306-5.131.173-1.583.397-3.007.644-4.282l-31.655-27.032 49.693-42.927z"/><path d="M1131.43 399.654l-15.418-13.339 26.919-23.289c.476-3.623.796-7.412 1.006-11.122l-39.775 34.411 23.828 20.615c.34-.874.572-1.325.572-1.325.203-.311.406-.641.609-.986-.075.212-.144.437-.217.654.07-.115.14-.226.211-.345.671-1.88 1.443-3.559 2.265-5.274zM940.504 351.439l.077.624a170.126 170.126 0 00.451 3.349 241.076 241.076 0 001.266 7.832l26.668 23.072-15.307 13.243a139.444 139.444 0 001.75 3.36l.04.075.235.433.09.165.166.303.11.198.125.224.117.21.09.16.13.231.036.064.146.256.194.337c.108-.002.211-.008.345.013.102.275.201.568.297.872l23.285-20.145-40.311-34.876z"/><path d="M939.902 332.403c-.358 2.903-.392 6.315-.209 9.966l.005.106 50.72 43.816-31.424 26.835c.476 3.018.827 6.295 1.082 9.3l42.259-36.088-62.433-53.935z"/><path d="M949.597 322.598a149.26 149.26 0 00-7.87 3.484l70.173 60.233-51.3 44.034c.076 1.597.105 2.574.105 2.574l.591 7.068 62.534-53.676-74.233-63.717z"/><path d="M1039.655 386.322l2.835-2.432-77.338-66.357a239.239 239.239 0 01-8.828 2.663l77.053 66.114-71.458 61.103.806 9.539 79.765-68.206-2.835-2.424z"/><path d="M1042.489 383.89l-2.834 2.432 2.834 2.424 2.835-2.424zM1012.357 432.919l30.718-26.438 30.718 26.438-5.029 4.945 51.761 44.221c.292-3.162.573-6.376.834-9.513l-41.19-35.19 5.014-4.93-42.108-36.241-42.108 36.241 5.014 4.93-41.88 35.779.813 9.531 52.472-44.829-5.029-4.944zM966.813 508.619l.027.756 7.541-6.443-7.568 5.687z"/><path d="M1043.075 424.54l-42.108 36.241 2.918 2.869 39.19-29.665 39.189 29.665 2.918-2.869zM1118.27 508.487l.024-.651-6.526-4.904 6.502 5.555zM1014.811 468.392l2.575-2.2-2.143-2.107-2.886 2.185zM1003.372 467.939l-37.016 31.624c.009.129.016.258.024.388l39.601-29.756-2.609-2.256zM1070.906 464.085l-2.143 2.107 2.575 2.2 2.454-2.122zM1080.168 470.195l38.537 28.957.017-.269.027-.212-35.972-30.732-2.609 2.256z"/><path d="M1014.811 468.392l-2.454-2.122 2.886-2.185-2.886-2.837 30.718-26.438 30.718 26.438-2.886 2.837 2.886 2.185-2.454 2.122 40.429 34.54 6.526 4.904c.171-4.651.353-7.731.395-8.408l.016-.276-38.537-28.957 2.609-2.256-2.609-2.229 2.095-2.06-39.189-29.666-39.189 29.666 2.095 2.06-2.609 2.229 2.609 2.256-39.601 29.756c.187 2.881.33 5.774.433 8.668l7.568-5.687 40.431-34.54zM1120.917 570.543c-1.302 16.597-8.548 30.423-25.919 30.423H989.983c-17.188 0-24.459-13.538-25.872-29.9-2.358 21.62-5.287 36.566-5.287 36.566a114.528 114.528 0 01-1.588 8.098c1.357 13.111 27.766 14.563 27.766 14.563 50.609 4.242 102.578.586 102.578.586 24.68-.479 32.1-5.492 32.1-5.492 7.143-3.084 8.299-8.576 8.299-8.576.065-.17.101-.37.121-.584-.051-1.736-1.001-4.143-1.001-4.143a940.373 940.373 0 01-6.182-41.541zM1043.035 414.576l-9.227 9.964h18.582zM956.695 405.239a213.032 213.032 0 00-.312-.551l-.09-.16-.117-.21-.125-.224-.11-.198-.166-.303-.09-.165a94.87 94.87 0 01-.275-.508 137.734 137.734 0 01-1.75-3.36c-2.258-4.482-5.203-10.911-7.465-17.901 0 0-2.072-8.178-3.896-18.414a241.076 241.076 0 01-1.121-6.84l-.145-.992a210.698 210.698 0 01-.451-3.349l-.077-.624c-.371-3.047-.655-6.078-.805-8.964a3.758 3.758 0 01-.005-.106c-.348-6.871.077-12.9 1.962-16.284 0 0-4.538 4.924-9.061 8.382 0 0-6.057 4.529-12.099 15.112-5.335 9.444-10.615 23.625-11.652 43.607l-.293 7.805-.586 6.371s-.184 7.914-.863 14.947c0 0-.293 14.068-.973 15.041 0 0 11.184 10.504 38.379 11.568 0 0 6.534.189 9.771-2.289-.046-.659-.137-2.707.098-6.792 0 0 .401-4.83.787-8.783 0 0-.865-13.692.679-23.927 0 0-.102-.531.157-.896.07-.32.294-.644.89-.656a14.2 14.2 0 01-.196-.337zM1144.06 327.044s.119 2.347.189 6.074c.052 2.776.075 6.317.002 10.246-.051 2.71-.148 5.597-.314 8.541-.209 3.71-.53 7.5-1.006 11.122-.341 2.599-.76 5.113-1.279 7.44-2.052 5.449-3.612 12.874-6.667 21.148-1.18 3.199-2.413 5.658-3.555 8.039-.822 1.714-1.594 3.393-2.264 5.274-.156.439-.308.888-.452 1.353.087.337.306 1.303.589 3.444 0 0 .371 7.666.51 21.256 0 0 .586 7.234.803 15.117 0 0 .939 2.822 7.018 2.744 0 0 16.846 1.65 38.533-8.9 0 0 2.634-1.753 2.646-4.513-.007-.089-.007-.176-.02-.267 0 0-1.434-19.11-2.453-35.319l.001-.013a36.184 36.184 0 01-.02-.318s.162-2.816-.118-7.476c-.669-10.571-3.604-30.205-15.5-48.351-.001 0-5.498-6.653-16.643-16.641z"/></svg>