<svg xmlns="http://www.w3.org/2000/svg" viewBox="280.996 153.383 80 80"><path fill="none" d="M324.42 174.58l28.255 15.364a105.12 105.12 0 011.114-5.741l-17.707-9.616 24.911-13.685.005.006v-6.286L324.42 174.58zm-12.854-12.693l-1.89 1.181 11.54 6.316 11.54-6.316-1.889-1.181 16.292-8.852h-7.96l-4.047 2.199 1.883 1.178-15.819 8.658-15.819-8.658 1.884-1.178-4.047-2.199h-7.961z"/><path fill="none" d="M320.996 174.002l38.426-20.967h-7.766l-16.504 8.967 1.883 1.178-15.819 8.658-15.819-8.658 1.884-1.178-16.504-8.967h-8.206zm19.562.574l13.745 7.464c.143-.562.288-1.111.437-1.641l-10.575-5.818 16.826-9.258.005.006v-1.983l-20.438 11.23zm-34.646.011l-17.707 9.616c.131.585.26 1.183.384 1.795l20.916-11.417-28.508-15.561v1.888l.005-.006 24.91 13.685z"/><path fill="none" d="M313.986 174.581l-24.969 13.63c.103.568.204 1.147.301 1.733l28.255-15.364-36.577-19.958v1.952l32.99 18.007zm41.395 3.721c1.623-4.959 3.55-7.997 5.616-7.997v-2.535l-12.379 6.811 6.763 3.721z"/><path fill="none" d="M297.827 174.581l-10.575 5.818c.149.529.294 1.079.437 1.641l13.745-7.464-20.438-11.228v1.983l.005-.006 16.826 9.256z"/><path fill="none" d="M286.612 178.302l6.763-3.721-12.379-6.811v2.535c2.066.001 3.993 3.038 5.616 7.997zm23.064-22.002l11.54 6.316 11.54-6.316-1.889-1.181 3.836-2.084h-3.864l-9.623 5.267-9.623-5.267h-3.863l3.836 2.084zm21.191 30.596l1.889-1.181-11.54-6.316-11.54 6.316 1.889 1.181-21.111 11.469c.144 1.348.273 2.719.387 4.11l.072-.034 15.387-8.36-.904-.497 1.096-.528-1.096-.686 15.819-8.658h-3.481l3.466-2.38 3.514 2.38h-3.5l15.819 8.658-1.096.686 1.096.528-.904.497 15.036 8.169c.116-1.392.247-2.764.393-4.112l-20.691-11.242z"/><path fill="none" d="M289.673 192.195c.187 1.258.361 2.55.521 3.87l17.087-9.283-1.884-1.178 15.819-8.658 15.819 8.658-1.884 1.178 16.674 9.059c.152-1.242.317-2.459.493-3.646l-31.323-17.033-31.322 17.033z"/><path fill="none" d="M347.023 202.442l-16.156-7.72.967-.532-.967-.526.805-.503-10.456-5.033-10.456 5.033.805.503-.967.526.967.532-16.156 7.72-4.391 2.386c.278 4.047.43 8.22.43 12.39 0 4.547 2.552 8.645 9.821 8.645h39.453c7.27 0 9.821-4.098 9.821-8.645 0-4.249.157-8.502.445-12.62l-3.965-2.156zm-25.807-46.594l5.14-2.813h-10.28z"/><path d="M311.566 194.722l-.968-.532-15.188 8.252zm9.65-6.594l10.456 5.033 1.084-.678-11.54-6.316-11.54 6.316 1.085.678zm25.807 14.314l-15.189-8.252-.967.532zm-56.181.034l.001.004.071-.039zm15.652-9.419l-1.097.528.904.496.98-.532zm29.638 1.024l.903-.496-1.096-.528-.787.492zm-14.916-35.779l9.623-5.267h-4.483l-5.14 2.813-5.14-2.813h-4.483z"/><path d="M305.397 156.412l15.819 8.658 15.819-8.658-1.883-1.178 4.047-2.199h-4.496l-3.836 2.084 1.889 1.181-11.54 6.316-11.54-6.316 1.89-1.181-3.836-2.084h-4.496l4.047 2.199z"/><path d="M307.281 162.002l-1.884 1.178 15.819 8.658 15.819-8.658-1.883-1.178 16.504-8.967h-4.497l-16.292 8.852 1.889 1.181-11.54 6.316-11.54-6.316 1.89-1.181-16.293-8.852h-4.496zm52.141-8.967l-38.425 20.967 1.065.581-1.065.579 31.323 17.033c.113-.764.233-1.513.355-2.25L324.42 174.58l36.577-19.958v-1.587h-1.575z"/><path d="M336.081 174.587l17.707 9.616c.167-.742.337-1.467.514-2.163l-13.745-7.464 20.438-11.228v-2.44l-.005-.006-24.909 13.685z"/><path d="M344.165 174.581l10.575 5.818c.207-.736.422-1.429.641-2.097l-6.763-3.721 12.379-6.811v-2.44l-.005-.006-16.827 9.257zm-57.553 3.721c.219.668.434 1.361.641 2.097l10.575-5.818-16.826-9.258-.005.006v2.44l12.379 6.811-6.764 3.722z"/><path d="M301.435 174.576l-13.745 7.464c.177.696.348 1.421.514 2.163l17.707-9.616L281 160.902l-.005.006v2.44l20.44 11.228z"/><path d="M309.504 174.581l-20.916 11.417c.147.722.291 1.457.428 2.213l24.969-13.63-32.99-18.008v2.446l28.509 15.562z"/><path d="M317.573 174.58l-28.255 15.364c.123.738.242 1.486.355 2.25l31.323-17.033 1.065-.579-1.065-.581-38.425-20.967h-1.575v1.587l36.577 19.959zm17.579 12.201l1.884-1.178-15.819-8.658-15.819 8.658 1.884 1.178-17.087 9.283c.092.758.178 1.526.261 2.301l21.111-11.469-1.889-1.181 11.54-6.316 11.54 6.316-1.889 1.181 20.694 11.243c.084-.775.172-1.541.265-2.299l-16.676-9.059z"/><path d="M336.132 194.081l-.98-.532.787-.492 1.096-.686-15.819-8.658-15.819 8.658 1.096.686.787.492-.98.532-15.387 8.36-.071.039c.064.777.122 1.56.176 2.347l4.391-2.386 15.189-8.252.967-.526-.805-.503-1.084-.678 11.54-6.316 11.54 6.316-1.084.678-.805.503.967.526 15.189 8.252 3.966 2.155c.055-.787.114-1.57.179-2.346l-15.036-8.169z"/><path d="M355.381 178.302a51.102 51.102 0 00-.641 2.097 67.26 67.26 0 00-.437 1.641 77.206 77.206 0 00-.514 2.163 105.12 105.12 0 00-1.114 5.741c-.123.738-.242 1.486-.355 2.25a144.826 144.826 0 00-.758 5.945 167.035 167.035 0 00-.572 6.458 181.83 181.83 0 00-.445 12.62c0 4.547-2.552 8.645-9.821 8.645H301.27c-7.27 0-9.821-4.098-9.821-8.645a181.656 181.656 0 00-.606-14.737v-.005a172.643 172.643 0 00-.648-6.411c-.16-1.32-.334-2.612-.521-3.87a132.037 132.037 0 00-.656-3.983 104.054 104.054 0 00-.812-4.008 80.894 80.894 0 00-.514-2.163 68.495 68.495 0 00-.437-1.641 51.102 51.102 0 00-.641-2.097c-1.623-4.959-3.55-7.997-5.616-7.997v63.077h80v-63.078c-2.068.002-3.994 3.039-5.617 7.998z"/><path d="M324.716 183.713l-3.514-2.38-3.467 2.38h3.481z"/></svg>