<svg xmlns="http://www.w3.org/2000/svg" width="265.948" height="336.412" viewBox="18.814 252.423 265.948 336.412"><path fill="none" d="M67.559 362.978c.05.725.067 1.834.064 3.238.003-1.406-.015-2.515-.064-3.238z"/><path fill="none" d="M68.252 276.335c-11.568 3.332-13.883 5.646-13.883 5.646l.006.022c-6.675 4.612-12.716 11.563-12.716 11.563-19.235 18.217-20.531 60.591-20.531 60.591-.293 16.783-2.313 36.002-2.313 36.002C37.324 400.138 65.09 400 65.09 400c1.296-.432 1.157-3.039 1.157-3.039 0-7.234 1.157-12.586 1.157-12.586.03-9.873.447-18.666.154-21.396.05.723.067 1.832.064 3.238.003-1.404-.015-2.514-.064-3.238-.063-.785-.154-1.141-.293-.879l1.444-4.75.422 1.264c2.606 9.549 2.175 27.041 2.175 27.041.586 32.826 1.589 45.844 1.589 45.844.139 9.842 1.743 17.646 1.743 17.646 2.313 34.137.293 61.902.293 61.902-3.332 35.139-9.456 64.154-9.842 65.219l-.386 1.064c4.057 3.381 17.747 5.872 31.845 7.604V266.431c-12.96 5.576-28.296 9.904-28.296 9.904zM194.321 259.155l.337.198c-.615-.41-1.262-.802-1.693-1.208-1.557-1.467-1.426-2.082-3.867-2.718-4.528-1.18-12.605-2.255-17.936-2.22-2.642.017-3.538-.417-6.185-.405-2.203.009-4.411.025-6.611.023-2.364-.002-3.588-.359-6.063-.401H151.144c-4.062.042-7.631.409-12.149.385-6.569-.035-18.069 1.026-24.201 2.544-2.664.66-2.349.991-3.987 2.603-.412.404-1.028.807-1.636 1.22-.105.404-3.725 14.902 19.16 23.918 0 0 1.377.566 4.012 1.23v303.749l1.005.056c10.984.92 23.145.864 35.088.287v-303.62c8.285-1.831 29.276-8.224 25.885-25.641zM269.137 303.098c-9.039-14.16-19.961-21.41-19.961-21.41-11.137-6.51-17.061-7.08-28.352-9.98-5.315-1.365-11.514-4.103-16.595-6.62v320.241c16.893-2.013 28.812-4.144 28.812-4.144 4.442-1.357 5.6-3.855 5.6-3.855-15.811-86.768-9.456-128.23-9.456-128.23 1.743-10.799 3.085-50.133 3.085-50.133.386-4.828.201-10.227.201-10.227-1.126-19.146 2.321-30.613 2.505-31.209 2.06 4.027 1.629 25.824 1.629 25.824-.139 1.883.293 4.629.293 4.629.864 6.369.586 10.998.586 10.998 10.258 4.904 47.279-8.547 47.279-8.547-.864-13.883-2.9-44.824-2.9-44.824-.618-17.57-6.016-31.993-12.726-42.513z"/><path d="M128.331 283.092c-22.885-9.016-19.266-23.514-19.16-23.918-.874.594-1.729 1.211-1.917 1.889-3.009 1.848-6.747 3.665-10.704 5.367v318.503c15.592 1.916 31.681 2.902 35.793 3.137V284.322c-2.635-.663-4.012-1.23-4.012-1.23zM196.262 260.88c-.242-.567-.901-1.059-1.604-1.527l-.337-.198c3.391 17.417-17.6 23.81-25.885 25.638v303.62c12.744-.616 25.239-1.827 35.793-3.085V265.087a175.802 175.802 0 01-7.967-4.207z"/></svg>