<svg xmlns="http://www.w3.org/2000/svg" width="272.688" height="337.292" viewBox="305 252 272.688 337.292"><path fill="none" d="M577.644 391.755s-1.436-19.096-2.453-35.293c0 0 1.727-29.647-15.627-56.117 0 0-5.373-6.501-16.252-16.289.158 3.572 1.046 27.356-2.428 42.94 0 0-5.08 18.865-10.337 30.249v-79.341c-6.888-2.709-12.647-4.323-12.647-4.323-7.883-1.6-16.57-5.253-22.951-8.308v34.102h-35.374v-41.188h-6.938V252h-20.34v6.188h-8.007v41.188h-35.374v-34.785c-15.424 7.379-33.399 12.243-34.663 12.581v80.319h-.605c-2.32-4.477-5.677-11.542-8.188-19.29 0 0-11.07-43.678-4.562-55.515l-.218.105v-.031s-4.535 4.921-9.055 8.376c0 0-21.688 16.197-23.91 59.001l-.293 7.805-.586 6.371s-.184 7.914-.863 14.947c0 0-.293 14.068-.973 15.041 0 0 11.184 10.504 38.379 11.568 0 0 6.756.201 9.934-2.406 0 0-.215-1.928.078-7.035 0 0 .4-4.828.787-8.775 0 0-.865-13.684.678-23.91 0 0-.293-1.449 1.25-1.203 2.9 7.805 3.471 27.334 3.471 27.334 2.313 27.766 5.645 66.529 5.645 66.529 3.471 52.061-7.527 108.178-7.527 108.178a114.528 114.528 0 01-1.588 8.098c1.357 13.111 27.766 14.563 27.766 14.563 27.76 2.327 55.927 2.277 75.704 1.758v-60.763h35.374v59.215c17.926-1.283 23.6-5.116 23.6-5.116 7.143-3.084 8.299-8.576 8.299-8.576.586-1.543-.863-5.213-.863-5.213-5.521-32.131-7.914-56.596-7.914-56.596-2.406-26.223-.477-56.117-.477-56.117 2.313-17.646 4.533-51.676 4.533-51.676 1.451-13.496 2.314-29.602 2.314-29.602.863-7.912 2.992-12 2.992-12 .203-.311.406-.641.609-.986-.174.49-.342.988-.5 1.51 0 0 .262.803.631 3.596 0 0 .371 7.666.51 21.256 0 0 .586 7.234.803 15.117 0 0 .939 2.822 7.018 2.744 0 0 16.846 1.65 38.533-8.9-.002-.001 3.037-2.02 2.605-5.138zM388.916 587.619v-59.382h35.374v60.939c-11.296-.197-23.326-.664-35.374-1.557zM398.724 259.252c-.492.312-.997.62-1.508.926a70.659 70.659 0 001.523-.93c-.003.002-.015.004-.015.004z"/><path d="M345.458 338.202c2.512 7.748 5.868 14.813 8.188 19.29h.605v-80.319l-.075.02c-5.744 1.919-12.084 4.92-13.28 5.494-6.508 11.836 4.562 55.515 4.562 55.515zM424.29 299.376v-41.188h-18.53c-3.39.195-6.859 1.021-7.02 1.06-.499.313-1.006.623-1.523.93-2.591 1.552-5.4 3.026-8.301 4.413v34.785h35.374zM494.949 299.376v-34.102c-5.556-2.659-9.363-4.865-9.363-4.865-1.451-1.157-7.42-2.221-7.42-2.221h-18.591v41.188h35.374zM388.916 528.237v59.382c12.049.894 24.078 1.36 35.374 1.558v-60.939h-35.374zM459.575 528.237V589c16.278-.427 26.874-1.172 26.874-1.172 3.1-.061 5.926-.191 8.5-.376v-59.215h-35.374zM540.884 326.998c3.474-15.584 2.586-39.369 2.428-42.94l-.375-.34v.007c-3.892-2.25-8.336-4.224-12.39-5.819v79.341c5.257-11.384 10.337-30.249 10.337-30.249z"/></svg>