<svg xmlns="http://www.w3.org/2000/svg" width="272.686" height="337.292"><switch><g><g fill-rule="evenodd" clip-rule="evenodd" fill="#060606"><path d="M98.797 81.732v-25.47h7.835c.543 0 1.005.192 1.387.578.382.381.572.844.572 1.387v21.546c0 .543-.19 1.006-.572 1.387a1.9 1.9 0 01-1.387.572h-1.959V60.186h-3.917c.539 0 .999.191 1.38.572.386.382.579.844.579 1.387v17.629c0 .543-.193 1.006-.579 1.387a1.877 1.877 0 01-1.38.572h-1.959zM112.117 81.732c-.543 0-1.006-.19-1.387-.572a1.886 1.886 0 01-.572-1.387V58.228c0-.543.19-1.006.572-1.387a1.876 1.876 0 011.387-.578h5.876c.543 0 1.005.192 1.387.578.382.381.572.844.572 1.387v21.546c0 .543-.19 1.006-.572 1.387a1.9 1.9 0 01-1.387.572h-5.876v-.001zm3.917-3.918V60.186h-3.917c.539 0 .999.191 1.38.572.386.382.579.844.579 1.387v15.67h1.958zM121.519 81.732v-25.47h13.711c.543 0 1.006.192 1.387.578.382.381.572.844.572 1.387v1.958h-1.959a1.89 1.89 0 011.387.572c.382.382.572.844.572 1.387v17.629c0 .543-.19 1.006-.572 1.387a1.899 1.899 0 01-1.387.572h-1.958V60.186h-3.918c.543 0 1.005.191 1.387.572.382.382.572.844.572 1.387v17.629c0 .543-.19 1.006-.572 1.387a1.9 1.9 0 01-1.387.572h-1.959V60.186h-3.917c.539 0 .999.191 1.38.572.386.382.579.844.579 1.387v17.629c0 .543-.193 1.006-.579 1.387a1.877 1.877 0 01-1.38.572h-1.959zM138.756 81.732v-25.47h7.835c.543 0 1.005.192 1.387.578.382.381.572.844.572 1.387v7.835c0 .543-.19 1.005-.572 1.387a1.905 1.905 0 01-1.387.572c.543 0 1.005.19 1.387.571.382.386.572.849.572 1.387v9.794c0 .543-.19 1.006-.572 1.387a1.9 1.9 0 01-1.387.572h-7.835zm5.876-15.669v-5.877h-3.917c.539 0 .999.191 1.38.572.386.382.579.844.579 1.387v3.918h1.958zm0 11.751v-7.835h-1.958v7.835h1.958zM150.116 81.732v-25.47h7.835c.543 0 1.005.192 1.387.578.382.381.572.844.572 1.387v7.835c0 .543-.19 1.005-.572 1.387a1.905 1.905 0 01-1.387.572c.543 0 1.005.19 1.387.571.382.386.572.849.572 1.387v9.794c0 .543-.19 1.006-.572 1.387a1.9 1.9 0 01-1.387.572h-1.959V69.979h-1.958v9.794c0 .543-.193 1.006-.579 1.387a1.877 1.877 0 01-1.38.572h-1.959zm5.876-15.669v-5.877h-3.917c.539 0 .999.191 1.38.572.386.382.579.844.579 1.387v3.918h1.958zM161.478 81.732V58.228c0-.543.19-1.006.572-1.387a1.876 1.876 0 011.387-.578h7.835v1.965c0 .539-.19.999-.572 1.38a1.89 1.89 0 01-1.387.578h-5.876c.539 0 .999.191 1.38.572.386.382.579.844.579 1.387v3.918h3.917v1.959c0 .543-.192 1.005-.578 1.387a1.884 1.884 0 01-1.381.571h-1.958v7.835h5.876v1.959c0 .543-.19 1.006-.572 1.387a1.9 1.9 0 01-1.387.572h-7.835z"/></g><g fill-rule="evenodd" clip-rule="evenodd" fill="#060606"><path d="M139.738 114.261c0 26.788-.164 53.589.088 80.39 8.557-.013 17.125-.051 25.681.037.188-26.801.038-53.614.076-80.415-8.606-.038-17.226-.012-25.845-.012zm-11.702-11.74c2.215-2.504 5.688-2.969 8.833-2.894 14.331.038 28.663.025 43.007.038.113 33.23.076 66.473.025 99.716.289 5.008-3.876 9.84-9.009 9.638-10.481.227-20.976-.063-31.469.114-3.75-.101-8.166.452-11.048-2.529-3.083-2.769-2.907-7.235-3.045-11.01.025-27.707.05-55.414-.013-83.133.089-3.422.078-7.36 2.719-9.94zM92.771 114.277c-.063-4.87-.038-9.726.037-14.596 9.273-.038 18.548.013 27.808-.038.239 36.477.038 72.953.089 109.417-4.693.063-9.399.063-14.093 0 .037-31.569.025-63.151 0-94.721-4.619-.062-9.237-.074-13.841-.062z"/></g></g></switch></svg>