<svg xmlns="http://www.w3.org/2000/svg" width="272.686" height="337.292"><switch><g><g fill-rule="evenodd" clip-rule="evenodd" fill="#060606"><path d="M78.237 81.732v-4.844h1.616V65.582h-1.616v-4.85h5.651l5.654 11.311v-6.461h-1.615v-4.85h8.075v4.85h-1.614v16.15h-4.846l-4.845-9.689v4.845h1.616v4.844zM100.848 81.732l-3.23-3.23V63.968l3.23-3.235h8.074l3.23 3.235v14.534l-3.23 3.23h-8.074zm6.459-4.844V65.582h-4.845v11.306h4.845zM113.768 81.732v-4.844h1.615V65.582h-1.615v-4.85h6.46l4.844 9.696 4.846-9.696h6.465v4.85h-1.615v11.306h1.615v4.844h-8.08v-4.844h1.615v-6.46l-4.846 9.689-4.844-9.689v6.46h1.615v4.844zM137.997 81.732v-4.845h1.615V65.582h-1.615v-4.85h12.92l3.23 3.235v6.46h-.006l-.8.805.806.811v6.459l-3.23 3.23h-12.92zm11.305-12.919v-3.23h-4.845v3.23h4.845zm0 8.075v-3.23h-4.845v3.23h4.845zM155.762 81.732v-4.845h1.615V65.582h-1.615v-4.85h12.92l3.23 3.235v8.075h-.006l-.8.81.806.805v3.23h1.615v4.845h-8.076v-4.845h1.615v-1.615h-4.845v1.615h1.615v4.845h-8.074zm11.304-11.304v-4.846h-4.845v4.846h4.845zM175.142 81.732v-4.844h1.615V65.582h-1.615v-4.85h16.15v6.465h-4.846v-1.615h-4.844v3.231h4.844v4.844h-4.844v3.231h4.844v-1.616h4.846v6.46z"/></g><g fill="#060606"><path d="M171.2 102.062h-34.419l-12.965 14.999v73.586l12.965 15.173H171.2l14.382-15.173V117.06L171.2 102.062zm11.821 87.753l-13.059 13.442h-31.943l-11.642-13.442V117.89l11.642-13.268h31.943s13.06 12.865 13.06 13.268l-.001 71.925z"/><path d="M138.699 106.088l-10.673 12.632v70.265l10.673 12.806h30.582l12.091-12.806V118.72c.33 0-12.091-12.632-12.091-12.632h-30.582zm28.224 79.223l-25.772.021-.077-53.792.078-8.735 25.771.044v62.462z"/><path d="M143.297 125.106v57.778h21.678v-57.778h-21.678zm18.797 54.792h-16.057v-51.954h16.057v51.954zM100.882 201.525h15.065v-95.66H91.608v16.351h9.274z"/><path d="M87.104 101.817v24.446h9.273v79.31h24.076V101.817H87.104zm30.579 101.293H99.146V123.8h-9.273v-19.52h27.82l-.01 98.83z"/></g></g></switch></svg>