<svg xmlns="http://www.w3.org/2000/svg" width="272.686" height="337.292"><switch><g><g fill-rule="evenodd" clip-rule="evenodd" fill="#060606"><path d="M90.186 56.596h3.357c.059 0 .234.452.527 1.354.234.574 1.887 5.174 4.957 13.799h.053v-15.1c.012-.035.029-.053.053-.053h3.516c.035.012.053.029.053.053V81.68c0 .035-.018.053-.053.053h-3.305c-.047 0-.744-1.893-2.092-5.678l-3.463-9.439h-.035c0 .023-.012.035-.035.035l.035.053c0 .023-.012.036-.035.036l.035.052V81.68c0 .035-.018.053-.053.053h-3.516c-.035 0-.053-.018-.053-.053V56.648c.013-.035.03-.052.054-.052zM111.684 56.596h.264c1.758 0 3.281.756 4.57 2.268a8.963 8.963 0 011.02 2.004c.293 1.09.439 2.051.439 2.883a64.48 64.48 0 01.229 5.643v.756c0 2.438-.117 4.729-.352 6.873-.223.914-.457 1.594-.703 2.039-.199.434-.633.996-1.301 1.688-1.207 1.008-2.537 1.512-3.99 1.512h-.141c-1.793 0-3.346-.814-4.658-2.443-.891-1.242-1.336-2.736-1.336-4.482a61.36 61.36 0 01-.211-5.273v-.668c0-3.059.152-5.648.457-7.77.434-1.688 1.184-2.953 2.25-3.797 1.125-.823 2.279-1.233 3.463-1.233zm-2.479 12.164v2.18c0 3.422.158 5.49.475 6.205.41.984 1.078 1.477 2.004 1.477h.404c1.09 0 1.781-.592 2.074-1.775.234-.938.352-2.918.352-5.941v-.932c0-.059.006-.105.018-.141l-.018-.176v-.897c0-4.078-.146-6.428-.439-7.049-.422-.984-1.061-1.477-1.916-1.477h-.475c-1.02 0-1.717.551-2.092 1.652-.258.692-.387 2.983-.387 6.874zM121.07 56.596h3.375c.117.164.434 1.055.949 2.672.117.292 1.354 3.837 3.709 10.634h.07l4.57-13.271.07-.035h3.393c.035.012.053.029.053.053V81.68c0 .035-.018.053-.053.053h-3.48c-.047 0-.07-.018-.07-.053V66.457h-.088c-.094.375-1.277 3.979-3.551 10.811h-1.74c-.059 0-.662-1.799-1.811-5.397-1.078-3.246-1.664-5.051-1.758-5.414h-.088V81.68c0 .035-.023.053-.07.053h-3.48c-.035 0-.053-.018-.053-.053V56.648c.012-.035.03-.052.053-.052zM140.125 56.596h5.309c3.141 0 5.15 1.4 6.029 4.201a8.31 8.31 0 01.264 2.057v1.107c0 2.063-.686 3.492-2.057 4.289a1.426 1.426 0 01-.404.264v.035c1.641.727 2.461 2.326 2.461 4.799v1.723c0 3.094-1.16 5.139-3.48 6.135a9.118 9.118 0 01-3.094.527h-5.027c-.035 0-.053-.018-.053-.053V56.648c.011-.035.029-.052.052-.052zm3.551 3.392v6.838c0 .047.018.07.053.07h1.758c1.535 0 2.443-.691 2.725-2.074.082-.551.123-1.043.123-1.477 0-1.734-.568-2.783-1.705-3.146-.41-.141-.973-.211-1.688-.211h-1.266zm0 10.143v7.945c0 .035.018.053.053.053h.721c1.523 0 2.461-.17 2.813-.51.715-.375 1.072-1.611 1.072-3.709 0-1.746-.311-2.83-.932-3.252-.363-.387-1.26-.58-2.689-.58h-.984c-.037 0-.054.018-.054.053zM154.592 56.596h5.871c2.777 0 4.641 1.143 5.59 3.428.422 1.102.633 2.297.633 3.586v.632c0 2.895-1.031 4.898-3.094 6.012l3.885 11.444-.053.035h-3.727c-.059 0-.193-.398-.404-1.195-.504-1.523-1.5-4.699-2.988-9.527h-2.145v10.67c0 .035-.018.053-.053.053h-3.516c-.035 0-.053-.018-.053-.053V56.648c.013-.035.03-.052.054-.052zm3.568 3.392v7.822h2.004c1.418 0 2.297-.48 2.637-1.441.199-.68.299-1.5.299-2.461 0-1.969-.387-3.129-1.16-3.48-.398-.293-1.084-.439-2.057-.439h-1.723zM170.342 56.596h10.617c.035.012.053.029.053.053v3.287c0 .035-.018.053-.053.053h-7.084v7.365h6.188c.035 0 .053.018.053.053v3.287c0 .023-.029.053-.088.088h-6.152v7.295c.012.035.035.053.07.053h7.014c.035.012.053.035.053.07v3.48c0 .035-.018.053-.053.053h-10.617c-.035 0-.053-.018-.053-.053V56.648c.011-.035.028-.052.052-.052z"/><g><path d="M109.792 100.564h-7.185c-.836 0-1.693.171-2.507.492L92.197 104l-.104.041c-2.957 1.252-4.585 3.728-4.585 6.971v11.307c0 3.973 1.993 6.567 5.421 7.212v73.944c0 4.656 2.715 7.436 7.261 7.436h9.602c4.506 0 7.195-2.779 7.195-7.436v-95.474c0-4.657-2.689-7.437-7.195-7.437zm5.917 102.911c0 3.95-2.102 6.126-5.917 6.126h-9.602c-3.857 0-5.981-2.176-5.981-6.126v-75.109c-3.502-.18-5.422-2.312-5.422-6.048v-11.307c0-2.717 1.313-4.71 3.796-5.76l7.954-2.965a5.68 5.68 0 012.07-.413h7.185c3.815 0 5.917 2.176 5.917 6.127v95.475zm-5.917-100.291c3.092 0 4.638 1.605 4.638 4.817v95.474c0 3.211-1.546 4.816-4.638 4.816h-9.602c-3.135 0-4.703-1.605-4.703-4.816v-76.406h-.783c-3.093 0-4.638-1.583-4.638-4.751v-11.307c0-2.186 1.001-3.702 3.005-4.55l7.903-2.944a4.442 4.442 0 011.633-.334h7.185v.001zM160.867 123.915h-17.68v63.646h17.68v-63.646zm-1.278 62.335h-15.123v-61.025h15.123v61.025zm2.427-83.037c4.961 0 9.379 1.951 13.252 5.852 3.873 3.901 5.811 8.415 5.811 13.541v66.266c0 5.215-1.926 9.752-5.777 13.607-3.852 3.856-8.281 5.784-13.285 5.784H141.91c-5.048 0-9.465-1.916-13.251-5.751-3.786-3.833-5.679-8.335-5.679-13.508v-66.398c0-5.125 1.914-9.639 5.744-13.541 3.83-3.901 8.268-5.852 13.316-5.852h19.976zm.13 85.658h-20.238v-66.266h20.238v66.266zm14.915-81.675c4.362 4.395 6.574 9.579 6.574 15.409v66.266c0 5.923-2.202 11.132-6.547 15.48-4.328 4.333-9.398 6.531-15.072 6.531h-20.107c-5.722 0-10.785-2.19-15.049-6.507-4.272-4.327-6.438-9.498-6.438-15.372v-66.398c0-5.825 2.187-11.006 6.498-15.397 4.309-4.389 9.396-6.614 15.12-6.614h19.977c5.63 0 10.692 2.221 15.044 6.602zm5.295 81.675c0 5.558-2.073 10.45-6.163 14.544-4.079 4.085-8.85 6.157-14.178 6.157h-20.107c-5.373 0-10.134-2.062-14.15-6.129-4.02-4.07-6.059-8.929-6.059-14.439v-66.398c0-5.464 2.06-10.332 6.121-14.469 4.061-4.135 8.845-6.232 14.219-6.232h19.977c5.285 0 10.045 2.095 14.148 6.227 4.109 4.139 6.192 9.01 6.192 14.475v66.264z"/></g></g></g></switch></svg>