<svg xmlns="http://www.w3.org/2000/svg" width="272.686" height="337.292"><switch><g><g fill-rule="evenodd" clip-rule="evenodd" fill="#060606"><path d="M98.797 81.732v-25.47h7.835c.543 0 1.005.192 1.387.578.382.381.572.844.572 1.387v21.546c0 .543-.19 1.006-.572 1.387a1.9 1.9 0 01-1.387.572h-1.959V60.186h-3.917c.539 0 .999.191 1.38.572.386.382.579.844.579 1.387v17.629c0 .543-.193 1.006-.579 1.387a1.877 1.877 0 01-1.38.572h-1.959zM112.117 81.732c-.543 0-1.006-.19-1.387-.572a1.886 1.886 0 01-.572-1.387V58.228c0-.543.19-1.006.572-1.387a1.876 1.876 0 011.387-.578h5.876c.543 0 1.005.192 1.387.578.382.381.572.844.572 1.387v21.546c0 .543-.19 1.006-.572 1.387a1.9 1.9 0 01-1.387.572h-5.876v-.001zm3.917-3.918V60.186h-3.917c.539 0 .999.191 1.38.572.386.382.579.844.579 1.387v15.67h1.958zM121.519 81.732v-25.47h13.711c.543 0 1.006.192 1.387.578.382.381.572.844.572 1.387v1.958h-1.959a1.89 1.89 0 011.387.572c.382.382.572.844.572 1.387v17.629c0 .543-.19 1.006-.572 1.387a1.899 1.899 0 01-1.387.572h-1.958V60.186h-3.918c.543 0 1.005.191 1.387.572.382.382.572.844.572 1.387v17.629c0 .543-.19 1.006-.572 1.387a1.9 1.9 0 01-1.387.572h-1.959V60.186h-3.917c.539 0 .999.191 1.38.572.386.382.579.844.579 1.387v17.629c0 .543-.193 1.006-.579 1.387a1.877 1.877 0 01-1.38.572h-1.959zM138.756 81.732v-25.47h7.835c.543 0 1.005.192 1.387.578.382.381.572.844.572 1.387v7.835c0 .543-.19 1.005-.572 1.387a1.905 1.905 0 01-1.387.572c.543 0 1.005.19 1.387.571.382.386.572.849.572 1.387v9.794c0 .543-.19 1.006-.572 1.387a1.9 1.9 0 01-1.387.572h-7.835zm5.876-15.669v-5.877h-3.917c.539 0 .999.191 1.38.572.386.382.579.844.579 1.387v3.918h1.958zm0 11.751v-7.835h-1.958v7.835h1.958zM150.116 81.732v-25.47h7.835c.543 0 1.005.192 1.387.578.382.381.572.844.572 1.387v7.835c0 .543-.19 1.005-.572 1.387a1.905 1.905 0 01-1.387.572c.543 0 1.005.19 1.387.571.382.386.572.849.572 1.387v9.794c0 .543-.19 1.006-.572 1.387a1.9 1.9 0 01-1.387.572h-1.959V69.979h-1.958v9.794c0 .543-.193 1.006-.579 1.387a1.877 1.877 0 01-1.38.572h-1.959zm5.876-15.669v-5.877h-3.917c.539 0 .999.191 1.38.572.386.382.579.844.579 1.387v3.918h1.958zM161.478 81.732V58.228c0-.543.19-1.006.572-1.387a1.876 1.876 0 011.387-.578h7.835v1.965c0 .539-.19.999-.572 1.38a1.89 1.89 0 01-1.387.578h-5.876c.539 0 .999.191 1.38.572.386.382.579.844.579 1.387v3.918h3.917v1.959c0 .543-.192 1.005-.578 1.387a1.884 1.884 0 01-1.381.571h-1.958v7.835h5.876v1.959c0 .543-.19 1.006-.572 1.387a1.9 1.9 0 01-1.387.572h-7.835z"/><g><path d="M110.786 99.599h-9.483l-6.441 5.631-6.303 5.631V122.944h12.675V208.892l4.743.057 4.741.011h9.553V99.599zM177.914 105.253l-.661-.661-.673-.615-.684-.571-.684-.535-.684-.491-.684-.444-.695-.411-.695-.364-.707-.331-.707-.285-.706-.239-.707-.205-.718-.171-.729-.114-.719-.08-.73-.046h-20.153V116.515h17.041v75.803h-17.041V209.063H167.244l.616-.034.616-.058 1.231-.239 1.242-.376 1.242-.524 1.254-.662 1.266-.809 1.266-.946 1.276-1.094.615-.593.581-.593.548-.593.501-.604.468-.604.432-.616.388-.615.354-.615.592-1.266.24-.638.194-.65.159-.638.125-.661.092-.662.046-.66v-79.28l-.024-.638-.056-.639-.092-.626-.125-.627-.365-1.243-.513-1.231-.649-1.22-.388-.592-.422-.605-.456-.592-.49-.593-.525-.593zM125.308 109.55l-.399.73-.331.752-.262.775-.216.798-.137.821-.08.832-.023.855.046.878v78.253l.057 1.106.193 1.106.32 1.093.444 1.095.57 1.095.707 1.082.821 1.084.957 1.082 1.004 1.026 1.014.935 1.015.832 1.025.74 1.026.65 1.048.548 1.039.455 1.059.366.786.261.799.171.832.08.843.012 1.699-.058 1.709-.022V99.69l-1.47.012-1.38.068-1.276.114-1.174.159-1.083.229-.98.273-.889.319-.787.388-1.334.821-1.265.888-1.173.947-1.107 1.014-1.025 1.06-.947 1.129-.878 1.185z"/></g></g></g></switch></svg>