<svg xmlns="http://www.w3.org/2000/svg" width="272.686" height="337.292"><switch><g><g fill-rule="evenodd" clip-rule="evenodd" fill="#060606"><path d="M70.23 66.99c-.533.532-.799 1.184-.799 1.953v12.789h-1.428v-12.81c0-1.148.408-2.128 1.223-2.94.814-.812 1.797-1.218 2.949-1.218a4.13 4.13 0 011.947.482 4.04 4.04 0 011.486 1.321l8.1 11.68c.154.195.338.292.547.292a.637.637 0 00.465-.188.632.632 0 00.189-.462V64.933h1.406V77.89c0 .574-.199 1.061-.598 1.459-.4.399-.887.599-1.461.599-.699 0-1.26-.287-1.68-.861l-8.127-11.718c-.252-.363-.58-.65-.986-.86s-.834-.315-1.281-.315a2.651 2.651 0 00-1.952.796zm16.696-2.163l-.021 12.895c0 .755-.266 1.399-.799 1.931-.531.532-1.184.798-1.953.798-.461 0-.893-.108-1.291-.325a2.882 2.882 0 01-.998-.892l-8-11.425c-.393-.574-.953-.861-1.68-.861a1.98 1.98 0 00-1.459.599c-.4.399-.6.886-.6 1.46v12.642h1.408V69.007c0-.183.057-.336.172-.463.113-.126.271-.188.473-.188.244 0 .422.09.537.269l8.018 11.448c.377.547.875.984 1.49 1.313s1.26.494 1.932.494c1.162 0 2.148-.406 2.961-1.219.811-.812 1.217-1.792 1.217-2.939V64.827h-1.407zM88.941 77.596V69.07c0-1.134.406-2.106 1.217-2.919.813-.812 1.793-1.218 2.941-1.218h11.969c1.135 0 2.111.402 2.93 1.207.82.806 1.229 1.782 1.229 2.93v8.526c0 1.134-.406 2.107-1.217 2.919-.813.812-1.793 1.218-2.941 1.218H93.1c-1.135 0-2.111-.402-2.93-1.207-.82-.806-1.229-1.783-1.229-2.93zm18.879 0V69.07c0-.755-.266-1.399-.799-1.932-.531-.532-1.184-.798-1.953-.798H93.1c-.756 0-1.404.27-1.943.808-.539.54-.809 1.18-.809 1.922v8.526c0 .756.266 1.399.799 1.932.531.532 1.182.798 1.953.798h11.969a2.65 2.65 0 001.943-.809c.539-.538.808-1.179.808-1.921zm-16.716-.084c0 .574.199 1.061.6 1.459.398.399.885.599 1.459.599h11.844a1.98 1.98 0 001.459-.599c.4-.398.6-.885.6-1.459v-8.358c0-.574-.199-1.061-.6-1.459a1.984 1.984 0 00-1.459-.599H93.162a1.98 1.98 0 00-1.459.599c-.4.398-.6.885-.6 1.459v8.358h.001zm14.552 0v-8.358a.668.668 0 00-.168-.462.586.586 0 00-.463-.189H93.162a.625.625 0 00-.461.189.626.626 0 00-.189.462v8.358c0 .182.063.336.189.462a.624.624 0 00.461.188h11.863a.606.606 0 00.441-.188.623.623 0 00.19-.462zM125.51 72.204l4.051-5.756a4.214 4.214 0 011.469-1.315 4.003 4.003 0 011.951-.494c1.148 0 2.127.405 2.938 1.217.813.811 1.219 1.789 1.219 2.936v12.941h-1.408v-12.94c0-.755-.27-1.402-.811-1.94s-1.189-.807-1.947-.807c-.479 0-.914.107-1.307.322a2.872 2.872 0 00-.99.906l-4.033 5.73a1.948 1.948 0 01-.711.64 1.949 1.949 0 01-.939.234h-2.064c-.709 0-1.26-.292-1.648-.874l-4.035-5.73a2.91 2.91 0 00-.979-.906 2.664 2.664 0 00-1.316-.322c-.76 0-1.408.269-1.949.807s-.811 1.186-.811 1.94v12.939h-1.406V68.791c0-1.146.404-2.125 1.217-2.936.811-.812 1.791-1.217 2.938-1.217.699 0 1.346.161 1.941.484a4.262 4.262 0 011.479 1.325l4.027 5.758a.652.652 0 00.529.266h2.09a.56.56 0 00.505-.267zm1.734 1.254c-.531.799-1.281 1.197-2.246 1.197h-2.08c-.965 0-1.715-.398-2.246-1.197l-4.158-5.942c-.377-.56-.932-.84-1.658-.84-.574 0-1.064.202-1.471.608a1.972 1.972 0 00-.609 1.446v13.002h1.408v-13a.656.656 0 01.668-.65c.203 0 .383.096.541.285l4.125 5.896c.418.579.916 1.023 1.494 1.334s1.215.466 1.912.466h2.068c.67 0 1.307-.159 1.912-.477a4.113 4.113 0 001.496-1.323l4.123-5.896a.607.607 0 01.531-.285c.184 0 .34.063.467.189s.191.279.191.461v13h1.406V68.73c0-.573-.199-1.059-.598-1.457s-.887-.598-1.459-.598c-.336 0-.656.077-.957.23a1.826 1.826 0 00-.703.609l-4.157 5.944zM139.863 66.15c.811-.812 1.789-1.218 2.934-1.218h10.918c1.426 0 2.641.504 3.646 1.512s1.51 2.227 1.51 3.654c0 .462-.066.924-.195 1.386a6.482 6.482 0 01-.525 1.302l-.35.609c.35.448.615.941.797 1.481a5.31 5.31 0 01.273 1.711c0 1.414-.502 2.625-1.508 3.633-1.004 1.008-2.219 1.512-3.643 1.512h-15.072V69.091c0-1.149.405-2.128 1.215-2.941zm16.512 1.275a3.669 3.669 0 00-2.66-1.085h-10.936c-.756 0-1.4.269-1.939.807a2.65 2.65 0 00-.807 1.939v11.219h13.713c1.037 0 1.918-.365 2.646-1.096s1.092-1.615 1.092-2.654c0-.674-.154-1.285-.461-1.833a4.04 4.04 0 00-.988-1.138l.705-1.211.186-.313c.373-.654.559-1.315.559-1.983-.001-1.044-.37-1.928-1.11-2.652zm-15.049.269c-.4.398-.6.885-.6 1.459v3.696H153.978c.168 0 .367.024.598.073s.5.15.809.305l.945-1.638a2.94 2.94 0 00.398-1.491 2.89 2.89 0 00-.881-2.121 2.896 2.896 0 00-2.121-.882h-10.941a1.99 1.99 0 00-1.459.599zm12.42 5.89h-13.02v5.985h13.02c.842 0 1.547-.287 2.121-.861.574-.573.861-1.28.861-2.12 0-.826-.287-1.533-.861-2.121s-1.279-.883-2.121-.883zm1.113-4.619a1.537 1.537 0 00-1.133-.463h-10.941a.632.632 0 00-.463.189.633.633 0 00-.188.462v2.269h11.611c.295 0 .631.034 1.01.104l.355-.63a1.61 1.61 0 00.211-.798 1.53 1.53 0 00-.462-1.133zm-1.113 9.197c.449 0 .822-.15 1.125-.451.301-.301.451-.676.451-1.123 0-.448-.15-.822-.451-1.124a1.53 1.53 0 00-1.125-.452h-11.611v3.149h11.611zM180.162 81.734l-1.719-.002-5.523-7.897 4.723-2.315c.463-.224.828-.552 1.094-.985s.4-.916.4-1.447c0-.755-.266-1.397-.799-1.93a2.633 2.633 0 00-1.932-.797h-11.971c-.756 0-1.398.266-1.932.797a2.63 2.63 0 00-.797 1.93l-.021 7.989 14.986-7.35a.64.64 0 00.365-.601.634.634 0 00-.18-.462.607.607 0 00-.453-.183H164.48a.645.645 0 00-.379.104.601.601 0 00-.273.525v6.279l-1.387.692v-6.972c0-.558.199-1.033.6-1.426.398-.394.885-.59 1.461-.59h11.896c.563 0 1.043.2 1.443.602.4.402.602.884.602 1.447 0 .859-.377 1.479-1.133 1.859l-16.004 7.955c-.068.058-.172.085-.309.085a.67.67 0 01-.494-.208.663.663 0 01-.205-.479v-9.285c0-1.148.402-2.126 1.207-2.931.805-.806 1.781-1.208 2.928-1.208h11.965c1.137 0 2.111.407 2.924 1.221.814.814 1.221 1.79 1.221 2.928 0 .813-.207 1.551-.621 2.21a3.949 3.949 0 01-1.672 1.495l-3.24 1.618 5.152 7.332zm-7.828-7.635l-12.031 5.924-.004 1.715 11.613-5.789 4.047 5.788 1.715-.004-5.34-7.634zM183.904 67.138a2.629 2.629 0 00-.799 1.932v8.505c0 .771.266 1.421.797 1.953a2.633 2.633 0 001.932.798h11.992c.672 0 1.252-.202 1.742-.608s.805-.925.945-1.555h1.428a4.125 4.125 0 01-1.396 2.541 3.977 3.977 0 01-2.719 1.029h-11.992c-1.146 0-2.123-.409-2.93-1.229-.805-.819-1.207-1.796-1.207-2.93v-8.483c0-1.148.406-2.128 1.219-2.94.811-.812 1.785-1.218 2.918-1.218h11.992c1.049 0 1.959.34 2.73 1.019a4.12 4.12 0 011.385 2.551h-1.406a2.673 2.673 0 00-.957-1.564 2.698 2.698 0 00-1.734-.598h-12.006a2.624 2.624 0 00-1.934.797zm1.301 4.284v-2.269a.63.63 0 01.189-.462.625.625 0 01.461-.189h13.924a2.098 2.098 0 00-.746-1.008 1.97 1.97 0 00-1.207-.398h-11.971a1.98 1.98 0 00-1.459.599c-.398.398-.6.885-.6 1.459v3.675h6.217v-1.406h-4.808v-.001zm-1.408 2.162v3.928c0 .574.201 1.061.6 1.459.398.399.885.599 1.459.599h11.971c.447 0 .85-.129 1.207-.388.357-.259.605-.599.746-1.019h-13.924a.628.628 0 01-.461-.188.625.625 0 01-.189-.462v-2.521h4.809v-1.407h-6.218v-.001z"/><g><path d="M178.61 104.094c-3.545-4.019-8.505-6.009-15.132-6.009H147.27c-6.181 0-10.926 1.918-14.367 5.608-3.263 3.5-4.888 8.238-5.03 14.116l-.031.184v68.191h.031c-.062 6.91 1.184 12.129 4.471 16.045 3.59 4.277 8.711 6.26 16.077 6.26h16.112c7.045 0 11.907-2.503 15.181-7.351 2.697-3.994 3.769-9.229 3.769-15.722v-66.023c-.001-6.441-1.535-11.516-4.873-15.299zm-2.559 81.323c0 5.046-.709 8.93-2.491 11.57-1.813 2.685-4.698 4.07-9.026 4.07h-16.112c-5.019 0-8.329-1.137-10.387-3.589-2.044-2.434-2.81-6.135-2.759-11.284h-.001v-68.191l.001-.009c.099-4.018 1.086-7.125 3.057-9.239 1.98-2.124 4.929-3.228 8.938-3.228h16.208c4.391 0 7.532 1.155 9.588 3.484 2.044 2.318 2.984 5.774 2.984 10.393v66.023z"/><path d="M163.479 106.299h-16.208c-3.781 0-6.54 1.018-8.366 2.977-1.834 1.967-2.755 4.899-2.85 8.717h.002v68.191l-.002.003c-.049 4.963.667 8.503 2.578 10.78 1.897 2.26 5.016 3.308 9.788 3.308h16.112c4.043 0 6.72-1.269 8.378-3.725 1.687-2.498 2.356-6.239 2.356-11.134v-66.023c0-4.427-.877-7.713-2.785-9.876-1.898-2.151-4.847-3.218-9.003-3.218zm4.357 79.118c0 3.447-.307 5.838-1.079 6.982-.198.293-.897.444-2.224.444h-16.112c-2.426 0-3.733-.202-4.098-.637-.658-.784-.896-2.787-.865-5.962l.03-.061v-68.191h-.025c.061-1.86.343-3.101.869-3.666.366-.392 1.327-.596 2.938-.596h16.208c1.92 0 3.051.229 3.459.692.615.698.898 2.367.898 4.97v66.025zM118.631 99.828c-2.813-2.204-5.298-2.285-9.795-2.285H96.809l-7.605 8.285 7.605 7.985h10.348v92.328l7.741 3.91 7.788-3.91v-95.433c0-5.228-.495-8.091-4.055-10.88zm-3.321 106.313h-.776v-95.433c0-2.331-.095-3.508-.775-4.041-.717-.562-2.19-.583-4.922-.583H96.809v-.814h12.027c2.899 0 4.469.026 5.387.745.954.748 1.087 2.085 1.087 4.692v95.434z"/></g></g></g></switch></svg>