<svg xmlns="http://www.w3.org/2000/svg" width="272.686" height="337.292"><switch><g><g fill-rule="evenodd" clip-rule="evenodd" fill="#060606"><path d="M102.248 81.689h-2.967V52.708l.988-.129h1.893l4.215 16.727V52.665h2.967v29.024h-2.967l-4.129-16.598v16.598zm-1.16-25.885l6.191 24.725h.902V53.783h-.688v24.251l-2.236-8.428-3.955-15.866h-.861v26.788h.646V55.804zM121.125 57.609v19.049c0 2.752-2.279 5.031-5.031 5.031-2.795 0-5.031-2.279-5.031-5.031V57.609c0-2.665 2.107-4.901 4.773-5.03h.516c2.666.129 4.773 2.365 4.773 5.03zm-1.162 0c0-2.063-1.59-3.783-3.654-3.869h-.43c-2.064.086-3.656 1.806-3.656 3.869v19.049c0 2.15 1.721 3.87 3.871 3.87s3.869-1.72 3.869-3.87V57.609zm-.688 0c0-1.763-1.418-3.225-3.182-3.225s-3.225 1.462-3.225 3.225v19.049c0 1.764 1.461 3.183 3.225 3.183s3.182-1.419 3.182-3.183V57.609zm-1.117 0c0-1.16-.947-2.063-2.064-2.063a2.037 2.037 0 00-2.064 2.063v19.049c0 1.119.902 2.064 2.064 2.064 1.117 0 2.064-.946 2.064-2.064V57.609zM125.811 81.689h-2.967v-29.11h2.924l3.914 15.651 3.912-15.651h2.924v29.11h-3.01V65.006l-2.451 9.976h-2.752l-2.494-9.976v16.683zm-1.161-25.67l2.279 8.73 2.277 9.072h.947l2.279-9.072 2.234-8.73v24.51h.689V53.74h-.904l-4.771 19.264-4.816-19.264h-.861v26.788h.646V56.019zM148.299 62.813a5.046 5.046 0 01-1.461 3.569 4.944 4.944 0 011.461 3.525v6.751c0 2.752-2.279 5.031-5.031 5.031h-5.029v-29.11h5.029c2.752 0 5.031 2.235 5.031 5.03v5.204zm-1.16-5.204c0-2.149-1.721-3.912-3.871-3.912h-3.525l-.344.043v26.788h3.869c2.15 0 3.871-1.72 3.871-3.87v-6.751a3.867 3.867 0 00-1.119-2.752l-.816-.773.816-.817a3.864 3.864 0 001.119-2.752v-5.204zm-.688 0c0-1.763-1.42-3.225-3.184-3.225h-3.225v11.653h3.225c1.764 0 3.184-1.462 3.184-3.226v-5.202zm-3.183 9.117h-3.225v13.115h3.225a3.176 3.176 0 003.184-3.183v-6.751a3.177 3.177 0 00-3.184-3.181zm2.064-9.117c0-1.16-.945-2.063-2.064-2.063h-2.063v9.331h2.063a2.064 2.064 0 002.064-2.064v-5.204zm-2.064 10.235h-2.063v10.879h2.063c1.119 0 2.064-.946 2.064-2.064v-6.751c0-1.118-.945-2.064-2.064-2.064zM160.08 62.813a5.046 5.046 0 01-1.461 3.569 4.944 4.944 0 011.461 3.525v11.782h-2.967V69.907c0-1.117-.945-2.063-2.064-2.063h-2.063V81.69h-2.967V52.58h5.029c2.752 0 5.031 2.235 5.031 5.03v5.203h.001zm-1.16-5.204c0-2.149-1.721-3.912-3.871-3.912h-3.525l-.344.043v26.788h.645V66.726h3.225a3.176 3.176 0 013.184 3.182v10.621h.688V69.907a3.867 3.867 0 00-1.119-2.752l-.816-.773.816-.817a3.864 3.864 0 001.119-2.752v-5.204h-.002zm-.688 0c0-1.763-1.42-3.225-3.184-3.225h-3.225v11.653h3.225c1.764 0 3.184-1.462 3.184-3.226v-5.202zm-1.119 0c0-1.16-.945-2.063-2.064-2.063h-2.063v9.331h2.063a2.064 2.064 0 002.064-2.064v-5.204zM164.424 81.689h-2.623v-2.967h.043V55.546h-.043v-2.967h10.063v2.967h-7.053v10.836h4.43v2.967h-4.43v9.374h7.053v2.967h-7.44v-.001zm-1.463-1.161h7.783v-.688h-7.094V68.188h4.428V67.5h-4.428V54.385h7.094v-.688h-7.783v26.831z"/><g><path d="M104.473 99.654l1.188.023 1.164.081 1.164.115 1.164.173 1.142.219 1.142.276 1.141.323 1.119.357.473 1.603.449 1.844.473 2.11.449 2.363.462 2.617.449 2.882.461 3.147.45 3.39.392 3.874.323 3.804.299 3.724.23 3.666.174 3.585.127 3.516.08 3.458.023 3.378v7.009l-.047 5.223-.149 5.199-.253 5.142-.369 5.106-.45 5.05-.564 5.015-.669 4.98-.761 4.923-.484 2.294-.495 2.109-.484 1.868-.508 1.66-7.078 2.26h-.069l-.715-2.768-.749-3.412-.75-4.059-.76-4.703-.635-4.784-.564-4.819-.473-4.865-.381-4.864-.288-4.911-.219-4.935-.127-4.969-.046-4.98.034-4.715.092-4.657.15-4.554.23-4.484.265-4.404.335-4.334.415-4.254.449-4.173-1.314-.265-1.337-.311-2.743-.75-2.825-.934-2.917-1.119 3.609-13.465 1.325-.438 1.28-.38 1.21-.323 1.164-.265 1.118-.196 1.061-.162.992-.081.956-.033zm2.294 14.422l-.23 3.839-.162 4.588-.104 5.315-.034 6.052v43.958l.034 5.948.104 5.257.162 4.554.23 3.874.034-.023.046-.069.069-.265.127-1.084.115-1.821.115-2.513.161-7.24.104-10.099v-37.076l-.047-7.366-.115-6.33-.195-5.268-.127-2.249-.15-1.983h-.137zM153.113 207.981h-2.259l-2.709-.022-2.56-.104-2.375-.15-2.225-.23-2.053-.277-1.879-.357-1.718-.415-1.556-.472-4.404-1.592-1.096-.449-.276-.15-.081-.068-.426-1.58-.404-1.683-.795-3.735-.738-4.22-.703-4.715-.461-4.081-.403-4.047-.335-3.977-.276-3.955-.23-3.885-.149-3.851-.092-3.781-.023-3.747v-4.888l.057-5.534.162-5.453.288-5.337.392-5.269.508-5.188.611-5.096.737-5.015.842-4.911.749-3.286.369-1.453.392-1.314 1.142-.496 1.188-.461 1.233-.438 1.269-.38 1.314-.369 1.348-.334 2.825-.577 2.985-.449 3.137-.312 3.309-.196 3.47-.069 3.413.069 3.262.196 3.102.312 2.963.449 2.801.577 1.338.334 1.303.369 1.268.38 1.233.438 1.176.461 1.153.496 1.211 6.836 1.049 6.687.888 6.514.715 6.352.311 3.113.266 3.078.219 3.032.185 2.986.15 2.962.092 2.906.058 2.871.022 2.847-.057 6.56-.196 6.375-.161 3.102-.185 3.055-.208 2.997-.242 2.939-.288 2.894-.311 2.849-.347 2.789-.38 2.721-.403 2.698-.45 2.629-.473 2.582-.519 2.536-.715 2.502-.23.646-.08.173-.059.069-3.47.934-3.205.818-2.997.68-2.744.565-2.501.438-2.26.311-2.018.185-1.78.056zm13.086-12.082l-.047-.046-.149-.069-.622-.115-1.015-.104-1.419-.104-4.069-.173-5.694-.127h-4.093l-5.718.127-4.104.173-1.418.104-1.026.104-.611.115-.149.069-.058.046 15.137.623 15.055-.623zm.703-1.337l.127-1.464.127-2.041.104-2.582.092-3.171.115-7.989.035-10.225v-25.063l-.047-10.168-.115-7.954-.115-3.159-.104-2.582-.139-2.052-.149-1.476-.276 3.424-.208 3.931-.115 4.438-.034 4.946v46.183l.034 5.096.115 4.531.208 3.966.276 3.412h.069v-.001zm-31.519-1.003l.266-3.366.207-3.92.115-4.484.035-5.05v-45.203l-.035-4.935-.115-4.415-.207-3.897-.266-3.343-.068.196-.069.611-.15 2.41-.149 4.035-.173 5.649-.069 14.18v24.613l.046 9.995.139 7.816.092 3.102.115 2.547.127 1.994.159 1.465zm28.395-4.358l-.52-4.081-.438-4.149-.381-4.186-.312-4.219-.242-4.277-.161-4.3-.104-4.37-.034-4.381v-3.009l.034-4.312.104-4.289.161-4.266.242-4.23.312-4.22.381-4.196.438-4.15.52-4.139-3.124.415-3.171.312-3.217.185-3.274.058-3.123-.058-3.137-.185-3.135-.312-3.159-.415.507 4.116.45 4.139.38 4.173.3 4.197.242 4.219.161 4.242.104 4.254.034 4.3v3.401l-.034 4.289-.104 4.265-.161 4.243-.242 4.231-.3 4.208-.38 4.196-.45 4.162-.507 4.138 3.159-.426 3.146-.323 3.171-.185 3.147-.069 3.228.069 3.182.185 3.159.323 3.148.427zm2.421-76.295l-13.581-.761h-2.917l-13.695.761 15.137.68 15.056-.68z"/></g></g></g></switch></svg>