<svg xmlns="http://www.w3.org/2000/svg" width="273" height="337"><switch><g><g fill-rule="evenodd" clip-rule="evenodd" fill="#060606"><path d="M86.098 81.441v-3.999h1.069v-9.806h-1.069v-4.024h5.781l4.916 8.176v-4.151h-1.07v-4.024h7.03v4.024h-1.07v9.806h1.07v3.999h-5.884l-4.813-7.972v3.973h1.069v3.999h-7.029v-.001zm6.596-.407V77.85h-1.07v-5.909l5.451 9.093h5.246V77.85h-1.069V67.203h1.069v-3.158h-6.163v3.158h1.069v6.088l-5.553-9.246H86.53v3.158h1.044V77.85H86.53v3.184h6.164zm-5.603-.586h5.068V78.41H91.09v-8.711l6.443 10.749h4.254V78.41h-1.096V66.643h1.096v-2.038h-5.095v2.038h1.096v8.914l-6.597-10.952H87.09v2.038h1.044V78.41H87.09v2.038h.001zM104.537 78.588V66.464l2.854-2.853h7.844l2.853 2.853v12.124l-2.853 2.853h-7.844l-2.854-2.853zm3.006 2.395h7.564l2.547-2.548V66.643l-2.598-2.599h-7.514l-2.547 2.548v11.843l2.548 2.548zm-2.012-2.879l2.343 2.344h6.902l2.344-2.344V66.949l-2.344-2.344h-6.902l-2.343 2.344v11.155zm4.024.306h3.516l1.095-1.095v-9.552l-1.12-1.12h-3.49l-1.095 1.095v9.577l1.094 1.095zm-.56-1.426l.892.892h2.853l.891-.892v-8.915l-.891-.892h-2.853l-.892.892v8.915zm1.018.458h2.598l.561-.561v-8.685l-.561-.561h-2.623l-.561.561v8.659l.586.587zM119.157 81.441v-3.999h1.069v-9.806h-1.069v-4.024h5.705l4.151 6.902 4.126-6.902h5.731v4.024h-1.07v9.806h1.07v3.999h-7.03v-3.999h1.044v-4.636l-3.871 6.444-3.896-6.444v4.636h1.069v3.999h-7.029zm6.597-.433V77.85h-1.07v-6.444l4.33 7.259 4.305-7.514v6.699h-1.07v3.158h6.189V77.85h-1.069V67.203h1.069v-3.158h-5.195l-4.229 7.081-4.254-7.081h-5.17v3.158h1.044V77.85h-1.044v3.158h6.164zm-5.604-.56h5.068V78.41h-1.069v-8.965l4.864 8.125 4.865-8.125v8.965h-1.07v2.038h5.095V78.41h-1.096V66.643h1.096v-2.038h-3.999l-4.891 8.15-4.916-8.15h-3.947v2.038h1.044V78.41h-1.044v2.038zM140.094 81.441v-3.999h1.069v-9.806h-1.069v-4.024h11.028l2.853 2.853v4.585l-1.172 1.172 1.172 1.171v5.196l-2.853 2.853h-11.028v-.001zm10.849-.433l2.599-2.599V73.57l-1.325-1.324 1.325-1.325v-4.278l-2.599-2.599h-10.417v3.158h1.044V77.85h-1.044v3.158h10.417zm-9.856-.56h9.551l2.344-2.344V73.8l-1.604-1.605 1.604-1.604v-3.642l-2.344-2.344h-9.551v2.038h1.044V78.41h-1.044v2.038zm7.87-9.246l1.095-1.095v-2.369l-1.095-1.095h-3.871v4.559h3.871zm0 7.208l1.095-1.095v-2.98l-1.095-1.095h-3.871v5.17h3.871zm-3.337-7.769h2.98l.917-.916V68.12l-.917-.917h-2.98v3.438zm0 7.209h2.98l.917-.917v-2.242l-.917-.917h-2.98v4.076zm2.878-7.642l.586-.586v-1.4l-.586-.586h-2.444v2.572h2.444zm0 7.234l.586-.586v-2.063l-.586-.586h-2.444v3.234h2.444zM155.223 81.441v-3.999h1.07v-9.806h-1.07v-4.024h11.028l2.854 2.853v4.585l-1.172 1.146 1.172 1.172v4.075h1.069v3.999h-5.96v-6.698l-.561-.535h-2.471v3.234h1.07v3.999h-7.029v-.001zm6.596-.433V77.85h-1.069v-4.076h3.107l.789.79v6.444h5.068V77.85h-1.044v-4.305l-1.35-1.376 1.35-1.375v-4.151l-2.598-2.599h-10.417v3.158h1.044V77.85h-1.044v3.158h6.164zm-5.603-.56h5.069V78.41h-1.07v-5.17h3.871l1.096 1.095v6.113h3.999V78.41h-1.07V73.8l-1.604-1.631 1.604-1.63v-3.591l-2.317-2.344h-9.577v2.038h1.045V78.41h-1.045v2.038h-.001zm7.845-9.246l1.121-1.12v-2.369l-1.096-1.069h-3.871v4.559h3.846v-.001zm-3.311-.561h2.979l.917-.891v-1.63l-.917-.917h-2.979v3.438zm2.878-.433l.586-.561v-1.426l-.586-.586h-2.445v2.572h2.445zM171.6 81.441v-3.999h1.069v-9.806H171.6v-4.024h13.092v4.737h-3.999v-.713h-3.133v2.878h.713v-.688h4.024v5.399h-4.024v-.688h-.713v2.903h3.133v-.738h3.999v4.737H171.6v.002zm12.658-.433v-3.872H181.1v.714h-3.974v-3.77h1.579v.714h3.159V70.26h-3.159v.714h-1.579v-3.771h3.974v.714h3.158v-3.872h-12.226v3.158h1.044V77.85h-1.044v3.158h12.226zm-11.665-.56h11.13v-2.751h-2.063v.713h-5.068v-4.864h2.674v.713h2.038v-3.464h-2.038v.713h-2.674v-4.864h5.068v.713h2.063v-2.751h-11.13v2.038h1.044V78.41h-1.044v2.038z"/><g><path d="M181.231 113.771l-.343 74.693 3.313 4.047.257-75.109-3.227-3.631zm.794-.99l3.57 4.132-.257 77.273v.208l-.135.146-13.227 16.943-.184.22h-29.45l-.159-.171-4.829-4.976-13.3-16.662-.11-.159V113.098l.11-.159 13.178-17.359.184-.232H168.039l.171.22 13.815 17.213zm-42.883 93.984l3.691 3.802h27.616l-2.641-3.802h-28.666zm32.408 3.411l-2.727-3.961 11.833-16.198 3.387 4.169-12.493 15.99zm-24.658-89.572l3.325 4.389 9.499-.073v-4.315h-12.824v-.001zm3.619 61.344h9.205v-55.892l-9.205.073v55.819zm-1.15 0v-56.197l-3.057-4.034-.158 60.231h3.215zM90.342 205.45V95.88h21.235l.232-.012 4.536 5.366.134.159v110.818H95.928l-.159-.208-5.427-6.553zm1.773.281l4.352 5.33 18.398.013-3.582-5.343H92.115zm20.036-.745l3.178 4.792V101.797l-3.178-3.802v106.991z"/></g></g></g></switch></svg>