<svg xmlns="http://www.w3.org/2000/svg" width="272.686" height="337.292"><switch><g><g fill-rule="evenodd" clip-rule="evenodd" fill="#060606"><path d="M90.082 61.56v20.173h-4.33V61.56h4.33zm5.604 18.823l-5.043-10.214V63.14l5.043 10.289v6.954zm4.941-18.823v20.173h-4.406V61.56h4.406zM103.021 66.756c0-3.616 2.232-5.493 6.699-5.629v3.286c-1.309.152-1.961.865-1.961 2.139v10.163c0 1.308.652 2.029 1.961 2.165v3.26c-4.467-.187-6.699-2.241-6.699-6.163v-9.221zm9.551-.204c0-1.307-.67-2.021-2.012-2.139v-3.311c4.568.034 6.852 1.953 6.852 5.755v9.221c0 3.939-2.283 5.96-6.852 6.062v-3.26c1.342-.119 2.012-.841 2.012-2.165V66.552zM124.137 61.56v20.173h-4.33V61.56h4.33zm4.099 20.172l-3.59-11.232v-8.94h1.324l3.463 13.856 3.389-13.856h1.35v9.094l-3.719 11.079h-2.217v-.001zm10.852-20.172v20.173h-4.381V61.56h4.381zM146.219 61.56v20.173h-4.611V61.56h4.611zm2.445 8.176c.729 0 1.273-.195 1.629-.586.357-.391.535-.951.535-1.682 0-.865-.17-1.502-.51-1.91-.34-.407-.891-.611-1.654-.611h-1.605V61.56h1.477c4.688 0 7.031 1.783 7.031 5.35 0 2.631-.91 4.125-2.727 4.482.969.238 1.719.756 2.254 1.554s.803 1.885.803 3.26c0 3.686-2.352 5.527-7.055 5.527h-1.783v-3.388h1.707c1.596 0 2.395-.841 2.395-2.521 0-1.816-.834-2.726-2.496-2.726h-1.605v-3.361h1.604zM162.773 61.56v20.173h-4.609V61.56h4.609zm2.446 8.176c.73 0 1.273-.195 1.631-.586.355-.391.535-.951.535-1.682 0-.865-.17-1.502-.51-1.91-.34-.407-.893-.611-1.656-.611h-1.604V61.56h1.477c4.686 0 7.029 1.783 7.029 5.35 0 1.324-.207 2.355-.623 3.093-.418.739-1.109 1.203-2.076 1.389 1.766.458 2.648 1.834 2.648 4.126v4.432c0 .391.021.739.064 1.045.041.306.123.552.242.738h-4.713c-.221-.322-.332-.815-.332-1.478v-4.559c0-1.732-.703-2.599-2.113-2.599h-1.604v-3.361h1.605zM179.15 61.56v20.173h-4.66V61.56h4.66zm.713 0h6.063v3.388h-6.063V61.56zm0 7.998h5.707v3.362h-5.707v-3.362zm6.063 12.174h-6.063v-3.489h6.063v3.489z"/><g><path d="M97.279 103.377l13.822.005h.885v93.808h-1.77v-92.04l-12.938-.005v-1.768h.001zm-6.864-7.217l-.022 16.1 12.652.055v91.821h15.688V96.165l-28.318-.005zM169.857 111.853v76.243h-30.469l.015-76.243h30.454zm7.036 83.248v-90.017h-44.987c-.003 30.006-.001 60.012-.003 90.017h44.99zm-45.87-91.786h-.881v.884c-.002 30.788 0 61.566-.002 92.352v.45h48.522v-.45-93.236H131.023zm-7.765-7.15l-.004 107.971h62.291V96.165h-62.287z"/></g></g></g></switch></svg>