<svg xmlns="http://www.w3.org/2000/svg" width="272.686" height="337.292"><switch><g><g fill-rule="evenodd" clip-rule="evenodd" fill="#060606"><path d="M91.333 57.827c.98 0 1.896.188 2.748.561.852.373 1.604.887 2.257 1.54s1.167 1.423 1.54 2.31.561 1.832.561 2.835v16.695h-1.47v-5.53l-.035-1.854.035-9.311a5.782 5.782 0 00-1.65-4.077 5.758 5.758 0 00-1.808-1.243 5.407 5.407 0 00-2.195-.454c-.795 0-1.538.151-2.229.454a5.762 5.762 0 00-1.809 1.243 6.004 6.004 0 00-1.229 1.837 5.546 5.546 0 00-.456 2.24v16.695l-1.471-.035-.035-5.495v-5.6l.035-5.53c0-1.003.192-1.948.578-2.835a7.58 7.58 0 011.558-2.327c.652-.665 1.417-1.185 2.292-1.558s1.804-.561 2.783-.561zm5.32 16.556v-9.275c0-.746-.14-1.452-.42-2.117s-.659-1.243-1.138-1.732c-.479-.49-1.044-.875-1.697-1.155s-1.342-.42-2.065-.42c-.747 0-1.446.14-2.1.42a5.411 5.411 0 00-2.87 2.87 5.275 5.275 0 00-.42 2.1v16.695l1.505-.035V65.11c0-.536.105-1.05.315-1.54s.489-.915.84-1.277c.35-.361.758-.647 1.225-.857s.968-.315 1.505-.315a3.55 3.55 0 011.471.315 3.952 3.952 0 012.047 2.117c.198.479.298.986.298 1.522V81.77l1.505-.035v-7.352h-.001zm-3.36 1.854l.035 5.495 1.471.035V65.072c0-.49-.094-.945-.28-1.365a3.666 3.666 0 00-.753-1.103c-.314-.314-.683-.565-1.103-.752s-.863-.28-1.33-.28c-.489 0-.95.088-1.382.263a3.19 3.19 0 00-1.12.753 3.782 3.782 0 00-.753 1.137 3.446 3.446 0 00-.279 1.383V81.732l1.435.035V65.072c0-1.376.7-2.064 2.1-2.064.677-.023 1.173.146 1.488.507.314.363.483.893.507 1.593l-.035 5.53v5.599h-.001zM114.363 70.638v3.779a7.34 7.34 0 01-2.082 5.181 7.278 7.278 0 01-2.275 1.558 6.85 6.85 0 01-2.782.577c-.98 0-1.908-.192-2.783-.577a7.25 7.25 0 01-2.274-1.558 7.514 7.514 0 01-1.54-2.311 7.124 7.124 0 01-.578-2.87v-9.345c0-1.003.193-1.948.578-2.835s.897-1.656 1.54-2.31c.642-.653 1.399-1.173 2.274-1.558s1.803-.578 2.783-.578c.979 0 1.907.193 2.782.578s1.633.904 2.275 1.558a7.318 7.318 0 011.522 2.31c.373.887.56 1.832.56 2.835v5.566zm-7.139-11.306c-.794 0-1.535.152-2.223.455a5.727 5.727 0 00-1.803 1.24 5.73 5.73 0 00-1.207 1.834 5.74 5.74 0 00-.438 2.236v9.33c0 .814.146 1.572.438 2.271a5.538 5.538 0 001.207 1.817c.513.513 1.114.92 1.803 1.223a5.453 5.453 0 002.223.454c.77 0 1.505-.151 2.205-.454.699-.303 1.306-.71 1.819-1.223s.922-1.118 1.226-1.817a5.645 5.645 0 00.455-2.271v-9.33a5.56 5.56 0 00-.455-2.236 6.006 6.006 0 00-1.226-1.834 5.67 5.67 0 00-1.819-1.24 5.497 5.497 0 00-2.205-.455zm5.285 11.289v-5.574c0-.748-.141-1.449-.419-2.104a5.43 5.43 0 00-1.151-1.718 5.693 5.693 0 00-1.692-1.174 4.855 4.855 0 00-2.04-.439c-.744 0-1.437.146-2.076.439a5.698 5.698 0 00-1.692 1.174 5.4 5.4 0 00-1.569 3.822v9.361c0 .748.14 1.456.419 2.121a5.355 5.355 0 001.15 1.735 5.468 5.468 0 001.692 1.158c.64.28 1.332.42 2.076.42.721 0 1.4-.141 2.04-.42a5.456 5.456 0 001.692-1.158 5.373 5.373 0 001.151-1.735 5.452 5.452 0 00.419-2.121v-3.787zm-5.303-9.469c-.539 0-1.038.105-1.495.315s-.861.489-1.213.84c-.352.35-.627.765-.826 1.242a3.927 3.927 0 00-.299 1.522v9.345a3.801 3.801 0 001.125 2.731c.352.35.756.63 1.213.84s.956.315 1.495.315 1.037-.105 1.494-.315a3.946 3.946 0 002.004-2.065c.199-.467.299-.969.299-1.506V65.072c0-.536-.1-1.044-.299-1.522a3.918 3.918 0 00-.809-1.242c-.34-.351-.738-.63-1.195-.84s-.955-.316-1.494-.316zm3.518 9.469v-5.576a3.622 3.622 0 00-1.003-2.526 3.5 3.5 0 00-1.108-.771 3.33 3.33 0 00-1.371-.28c-.493 0-.95.093-1.372.28a3.483 3.483 0 00-1.108.771 3.822 3.822 0 00-.756 1.141 3.437 3.437 0 00-.281 1.385v9.365c0 .49.093.953.281 1.386.188.433.439.813.756 1.14s.686.584 1.108.771c.422.187.879.28 1.372.28.492 0 .949-.094 1.371-.28a3.522 3.522 0 001.846-1.911 3.63 3.63 0 00.265-1.386v-3.789zm-3.483-7.613c-1.343 0-2.013.688-2.013 2.064V74.416c0 .724.162 1.243.485 1.558.324.315.832.473 1.527.473.67 0 1.168-.157 1.491-.473.324-.314.486-.834.486-1.558V65.072c.002-1.376-.658-2.064-1.976-2.064zM119.963 58.492c1.236-.606 2.508-.84 3.814-.7 1.307.141 2.508.619 3.605 1.436-.188.163-.374.339-.561.524-.187.188-.35.386-.49.596-1.003-.724-2.1-1.085-3.289-1.085-.421 0-.841.059-1.261.175-.42.117-.84.269-1.26.456-.979.513-1.744 1.224-2.292 2.135-.549.91-.823 1.924-.823 3.044v16.66h-1.505v-16.66c0-1.423.361-2.724 1.085-3.902a6.975 6.975 0 012.977-2.679zm5.46 3.465c.163-.466.407-.921.734-1.364a5.466 5.466 0 00-2.677-.963c-.969-.081-1.908.111-2.818.577-.934.468-1.65 1.126-2.152 1.978-.502.853-.752 1.814-.752 2.888v16.66h1.505v-16.66c0-.77.198-1.476.595-2.117s.933-1.114 1.61-1.418c.256-.116.524-.215.805-.297s.548-.123.805-.123c.396 0 .793.076 1.19.228.396.151.781.355 1.155.611zm-2.363 1.016c.854 0 1.444.292 1.768.875.047-.257.105-.514.176-.771a5 5 0 01.279-.77 3.563 3.563 0 00-1.785-.806 3.31 3.31 0 00-1.89.28c-.63.327-1.12.782-1.47 1.365a3.661 3.661 0 00-.525 1.925v16.66h1.505v-16.66c-.001-1.398.647-2.098 1.942-2.098zm16.328 2.099c0-1.003-.188-1.948-.561-2.835s-.881-1.662-1.522-2.327a7.025 7.025 0 00-5.057-2.119c-.979 0-1.907.188-2.782.561s-1.64.893-2.292 1.558a7.34 7.34 0 00-1.54 2.327 7.222 7.222 0 00-.561 2.835v16.66h1.505v-16.66a5.898 5.898 0 011.646-4.112 5.705 5.705 0 011.803-1.242 5.436 5.436 0 012.222-.455c.771 0 1.499.151 2.188.455a5.728 5.728 0 011.803 1.242 5.757 5.757 0 011.208 1.854c.291.713.438 1.465.438 2.258V81.731h1.505V65.072h-.003zm-1.856 9.276v-9.275c0-.746-.14-1.452-.419-2.117a5.352 5.352 0 00-1.15-1.732c-.489-.49-1.053-.875-1.692-1.155s-1.319-.42-2.04-.42c-.745 0-1.437.14-2.076.42s-1.204.665-1.692 1.155-.872 1.067-1.151 1.732a5.435 5.435 0 00-.418 2.117v16.66h1.505V65.074a4.003 4.003 0 011.12-2.782c.35-.361.758-.647 1.225-.857s.969-.315 1.505-.315c.537 0 1.033.105 1.488.315s.852.496 1.189.857c.338.362.606.782.806 1.26.197.479.297.986.297 1.522v16.66h1.505v-7.386h-.002zm-3.29 1.854V65.072c0-1.399-.659-2.1-1.978-2.1-1.342 0-2.012.7-2.012 2.1v16.66h-1.506V65.073c0-.49.088-.95.264-1.383.177-.431.423-.805.739-1.119a3.6 3.6 0 011.125-.753c.434-.187.897-.28 1.39-.28s.95.094 1.372.28a3.66 3.66 0 011.107.753c.317.314.563.688.739 1.119.176.433.264.893.264 1.383v16.66h-1.505v-5.531zM148.417 72.423h-1.715v-1.541h1.715c.771 0 1.499-.152 2.188-.455a5.747 5.747 0 001.803-1.243 5.777 5.777 0 001.207-1.837c.292-.7.438-1.458.438-2.275 0-.77-.14-1.493-.42-2.17a5.893 5.893 0 00-1.137-1.785 5.716 5.716 0 00-1.681-1.242 5.475 5.475 0 00-2.082-.543l-5.811-.034c-.093 0-.14.034-.14.104-.023 0-.035.035-.035.104v20.546c0 .093.058.14.175.14h5.495c.771 0 1.499-.151 2.188-.455a5.744 5.744 0 001.803-1.242c.513-.525.915-1.138 1.207-1.838s.438-1.458.438-2.274c0-1.261-.35-2.356-1.05-3.29.187-.163.379-.333.578-.508.197-.175.379-.355.542-.543.513.678.881 1.354 1.103 2.03s.333 1.447.333 2.311a7.326 7.326 0 01-.561 2.87 7.563 7.563 0 01-1.522 2.332 6.993 6.993 0 01-2.275 1.575 6.86 6.86 0 01-2.782.573H141.245v-23.94h7.175c.98 0 1.907.193 2.782.578s1.634.91 2.275 1.575 1.149 1.435 1.522 2.31.561 1.814.561 2.817c0 1.027-.188 1.983-.561 2.87s-.881 1.662-1.522 2.327-1.4 1.19-2.275 1.575-1.805.578-2.785.578zm0 7.454c.724 0 1.405-.14 2.048-.42a5.466 5.466 0 001.697-1.154c.49-.49.875-1.067 1.155-1.732s.42-1.383.42-2.153c0-.606-.076-1.154-.228-1.645-.152-.49-.415-.98-.787-1.47a4.214 4.214 0 01-1.296.805c.537.677.806 1.447.806 2.31 0 .561-.1 1.08-.298 1.558a3.792 3.792 0 01-.822 1.243 3.841 3.841 0 01-2.696 1.12h-3.71c-.094 0-.14-.035-.14-.105v-16.87c0-.116.046-.175.14-.175h3.71c.513 0 1.003.104 1.47.314.467.211.875.49 1.226.841a3.826 3.826 0 011.12 2.73 3.998 3.998 0 01-1.12 2.782 3.96 3.96 0 01-1.226.858c-.467.21-.957.314-1.47.314h-1.715v1.54h1.715c.724 0 1.405-.145 2.048-.438a5.73 5.73 0 001.697-1.177c.49-.491.875-1.071 1.155-1.738s.42-1.387.42-2.159a5.489 5.489 0 00-1.452-3.722 5.286 5.286 0 00-1.593-1.177 5.295 5.295 0 00-1.96-.509h-5.67v20.229h5.356zm2.73-7.664c-.49.187-1.004.338-1.54.454.256.164.455.38.595.647.14.269.21.637.21 1.103 0 1.378-.659 2.065-1.978 2.065h-1.839c-.116 0-.174-.035-.174-.105V63.218c0-.094.058-.141.174-.141h1.839c1.318 0 1.978.665 1.978 1.995 0 .747-.163 1.283-.49 1.61s-.828.49-1.505.49h-1.715v1.54h1.715c.49 0 .945-.1 1.365-.298s.787-.461 1.103-.788c.314-.326.565-.711.752-1.154.187-.444.28-.911.28-1.401s-.094-.945-.28-1.365-.438-.793-.752-1.119a3.5 3.5 0 00-1.103-.771 3.317 3.317 0 00-1.365-.28h-3.5v16.485h3.5c.49 0 .945-.093 1.365-.28.42-.187.787-.442 1.103-.77.314-.327.565-.706.752-1.138s.28-.904.28-1.418c0-.814-.257-1.549-.77-2.202zM171.657 68.817a7.236 7.236 0 01-.561 2.835c-.373.887-.881 1.662-1.522 2.327s-1.395 1.19-2.258 1.575-1.784.578-2.765.578h-1.715v-1.54h1.715c.771 0 1.499-.152 2.188-.456s1.289-.711 1.803-1.226a5.833 5.833 0 001.225-1.819c.303-.7.455-1.458.455-2.275v-3.745c0-.77-.14-1.493-.42-2.17s-.665-1.271-1.155-1.785a5.855 5.855 0 00-1.715-1.242 5.618 5.618 0 00-2.1-.543l-5.811-.034c-.023 0-.041.006-.052.017-.013.013-.041.018-.088.018a.322.322 0 00-.035.141V81.733h-1.505v-23.94h7.21c.98 0 1.901.193 2.765.578s1.616.91 2.258 1.575 1.149 1.435 1.522 2.31.561 1.814.561 2.817v3.744zm-6.806-9.205h-5.688v22.121h1.505V61.327c0-.116.059-.175.176-.175h3.691c.516 0 1.008.105 1.477.315s.879.489 1.23.84c.352.35.627.765.826 1.242.199.479.3.986.3 1.522v3.745c0 .537-.1 1.045-.298 1.522a3.777 3.777 0 01-.822 1.242 4.085 4.085 0 01-1.226.841 3.56 3.56 0 01-1.47.314h-1.715v1.54h1.724c.727 0 1.412-.146 2.058-.438a5.551 5.551 0 001.688-1.175 5.538 5.538 0 001.567-3.859V65.05c0-.726-.129-1.404-.387-2.036a5.539 5.539 0 00-2.669-2.877 5.147 5.147 0 00-1.967-.525zm-3.834 22.12h1.505V63.218c0-.117.059-.176.176-.176h1.854c1.283 0 1.925.678 1.925 2.03v3.745c0 1.377-.642 2.065-1.925 2.065h-1.715v1.541h1.715c.467 0 .91-.094 1.33-.282.42-.187.787-.45 1.103-.79.314-.339.56-.725.735-1.159.175-.433.262-.895.262-1.387v-3.757c0-.491-.087-.954-.262-1.387a3.372 3.372 0 00-.735-1.124 3.642 3.642 0 00-1.103-.755 3.233 3.233 0 00-1.33-.281h-3.535v20.231zm4.69-5.355c.303.141.507.351.612.631.104.279.157.653.157 1.119v3.605h1.505v-3.605c0-.816-.245-1.55-.734-2.204-.49.186-1.004.338-1.54.454zm3.197-1.364a8.456 8.456 0 01-1.343.805c.257.35.455.706.596 1.067.14.362.21.776.21 1.242v3.605h1.505v-3.605a5.355 5.355 0 00-.968-3.114zm2.753 3.114c0-.84-.111-1.604-.333-2.292s-.577-1.37-1.067-2.048c-.163.188-.339.362-.525.525l-.595.525c.396.513.677 1.038.84 1.574.163.537.245 1.108.245 1.715v3.605h1.436v-3.604h-.001zM173.616 57.792h13.055v1.54h-11.41c-.094 0-.141.059-.141.176V66.788h-1.505v-8.996h.001zm13.056 10.886h-11.41c-.094 0-.141.069-.141.21v11.165c0 .14.047.21.141.21h11.41v1.47h-13.055V67.138h13.055v1.54zm-7.665-7.455h7.699v-1.54h-11.234v7.105h1.505V61.398c0-.116.058-.175.175-.175h1.855zm0 18.654h7.699v-1.47h-9.554c-.117 0-.175-.069-.175-.21v-7.455c0-.14.058-.21.175-.21h9.554v-1.54h-11.234v10.885h3.535zm0-16.8h7.699v-1.54h-9.415v5.25h1.506v-3.536c0-.115.069-.174.21-.174zm0 9.311h7.699v-1.54h-9.415v7.14h9.415v-1.435h-7.699c-.048 0-.094-.023-.141-.07s-.069-.092-.069-.14v-3.745c0-.047.022-.093.069-.141.047-.046.093-.069.141-.069z"/><g><path d="M84.484 99.892l1.167 9.111h25v92.607h-.95v-91.668h-23.9l1.168 9.41h13.037v89.915h19.46V99.892zM187.103 123.902l-.653-1.958-.663-1.774-.653-1.614-.652-1.431-.572-1.099-.595-1.076-.63-1.03-.652-.996-.676-.961-.71-.927-.743-.893-.768-.847-.789-.824-.813-.79-.858-.744-.87-.71-.904-.687-.938-.641-.95-.607-.996-.572-1.979-.996-2.026-.859-2.061-.721-2.095-.595-2.129-.469-2.164-.32-2.209-.206-2.243-.069h-16.541v4.086l-.069.069-1.739 1.465-1.638 1.477-1.533 1.5-1.431 1.5-1.34 1.522-1.225 1.534-1.134 1.545-1.041 1.557-.492.813-.458.836-.836 1.728-.366.893-.332.916-.309.938-.264.961-.24.984-.206.996-.32 2.072-.194 2.152-.058 2.232v45.112l.034 1.546.114 1.534.195 1.522.274 1.511.344 1.511.423 1.5.504 1.488.584 1.477.63 1.477.697 1.419.756 1.362.813 1.316.882 1.271.938 1.225.996 1.168 1.064 1.11 1.053 1.11 1.111 1.042 1.179.996 1.235.938 1.294.881 1.362.824 1.42.778 1.477.722 1.419.652 1.466.561 1.487.47 1.534.389 1.568.31 1.603.218 1.637.125 1.672.046 1.705-.046 1.671-.114 1.638-.194 1.625-.286 1.58-.355 1.567-.435 1.534-.526 1.511-.596 1.512-.687 1.465-.732 1.408-.79 1.351-.847 1.294-.904 1.236-.962 1.179-1.007 1.122-1.064 1.076-1.1 1.029-1.156.984-1.202.916-1.259.87-1.316.802-1.362.755-1.407.71-1.477.595-1.488.516-1.512.435-1.545.366-1.568.275-1.603.206-1.625.114-1.66.046-1.672v-45.112l-.068-1.854-.207-1.843-.343-1.831-.483-1.834zm-27.405 65.145l-1.156.354-1.156.252-1.145.148-1.133.046-.894-.034-.962-.126-1.007-.206-1.064-.286-1.019-.378-.996-.48-.973-.572-.95-.688-.858-.698-.401-.389-.4-.424-.767-.904-.71-1.008-.412-.675-.354-.664-.298-.642-.252-.617-.184-.607-.137-.572-.08-.561-.034-.538v-47.516l.068-1.202.194-1.202.31-1.201.446-1.203.561-1.099.63-1.053.71-.996.801-.939.412-.4.436-.401.458-.366.48-.355 1.03-.664 1.121-.584.55-.252.584-.217.606-.195.63-.148.641-.126.676-.081.698-.057.71-.011 1.361.034 1.226.092 1.11.16.973.229 1.088.4 1.019.493.95.561.881.652.492.447.481.446.435.446.4.458.378.458.344.469.584.961.446.973.332.996.194 1.03.058 1.042v47.516l-.012.824-.057.803-.08.767-.114.756-.16.722-.184.709-.229.676-.252.641-.596 1.248-.332.584-.354.538-.366.515-.4.48-.424.446-.446.424-.996.813-1.019.698-1.054.572-1.087.458zm19.174-14.249v.013l-.019.629-.015.56-.08 1.168-.127 1.155-.183 1.122-.24 1.11-.298 1.076-.344 1.064-.389 1.03-.458 1.008-.504.983-.549.962-.606.938-.664.904-.722.894-.767.858-.813.847v.013l-.593.567-.187.188-.721.652-.744.618-.768.572-.789.55-.801.492c-1.002.57-1.809.971-2.874 1.442l-1.03.4-1.053.344-1.076.286-1.099.24-1.11.184-1.145.138-1.156.08-1.18.022-1.167-.022-1.145-.08-1.134-.138-1.099-.184-1.088-.24-1.064-.286-1.042-.344-1.029-.4-.984-.437v.035l-.894-.435-.87-.481-.847-.526-.824-.561-.813-.606-.802-.652a35.337 35.337 0 01-3.113-3.171l-.722-.904-.651-.916-.619-.95-.549-.962-.504-.984-.446-1.019-.4-1.03-.344-1.053-.298-1.076-.229-1.088-.195-1.121-.125-1.134-.078-1.128-.002-.039-.023-1.167v-45.342l.023-1.168.002-.039.078-1.127.125-1.133.195-1.122.229-1.087.298-1.076.344-1.053.4-1.03.446-1.019.504-.984.549-.962.619-.95.651-.916.722-.904c1.282-1.474 2.381-2.574 3.915-3.823l.813-.607.824-.561.847-.526c1.015-.56 1.741-.871 2.748-1.317l1.029-.401 1.042-.343 1.064-.287 1.088-.24 1.099-.183 1.134-.138 1.145-.08 1.167-.023 1.18.023 1.156.08 1.145.138 1.11.183 1.099.24 1.076.287 1.053.343 1.03.401c1.065.472 1.872.873 2.874 1.443l.801.492.789.549.768.573.744.618.721.653.187.187.593.568v.012l.813.847.767.859.722.893.664.904.606.938.549.961.504.985.458 1.007.389 1.03.344 1.064.298 1.076.24 1.11.183 1.122.127 1.156.08 1.167.016.56.019.63v45.332h-.001zm-11.679-64.317l.758.489.882.629.87.687.835.732.824.778.069.081.801.824.744.847.687.87.642.893.584.904.537.927.493.95.435.961.389.984.332 1.007.275 1.019.229 1.042.184 1.064.117 1.002.009.075.08 1.11.022 1.122v45.317l-.022 1.122-.08 1.11-.009.074-.117 1.002-.184 1.064-.229 1.042-.275 1.019-.332 1.008-.389.984-.435.962-.493.95-.537.927-.584.904-.642.893-.687.87-.744.848-.801.824-.069.08-.824.778-.835.732-.87.687-.882.63-.758.489c-1.103.628-1.811 1.024-2.974 1.537l-.984.389-1.007.32-1.02.287-1.053.229-1.064.172-1.088.126-1.11.08-1.122.022-1.145-.022-1.133-.08-1.1-.126-1.075-.184-1.054-.229-1.041-.275-1.008-.343-.996-.378-.961-.436-.24-.124v-.014l-.802-.412-.324-.184-.512-.296-.904-.584-.87-.642-.857-.698-.836-.732c-.919-.905-1.503-1.464-2.393-2.507l-.676-.882-.629-.904-.572-.915-.527-.928-.469-.949-.436-.962-.366-.984-.332-1.008-.274-1.007-.229-1.042-.172-1.054-.126-1.063-.069-1.088-.021-.708-.013-.403v-45.317l.013-.403.021-.708.069-1.087.126-1.065.172-1.053.229-1.042.274-1.007.332-1.007.366-.985.436-.961.469-.95.527-.927.572-.916.629-.904c1.362-1.778 2.266-2.685 3.904-4.121l.857-.698.87-.642.904-.583a29.984 29.984 0 012.839-1.465l.996-.378 1.008-.343 1.041-.274 1.054-.229 1.075-.183 1.1-.126 1.133-.08 1.145-.023 1.122.023 1.11.08 1.088.126 1.064.171 1.053.229 1.02.286 1.007.321.984.389c1.165.516 1.873.913 2.975 1.54z"/></g></g></g></switch></svg>