<svg xmlns="http://www.w3.org/2000/svg" width="272.686" height="337.292"><switch><g><g fill-rule="evenodd" clip-rule="evenodd" fill="#060606"><path d="M101.943 61.881h4.229l1.484 4.76 2.045-4.76h4.256l-8.541 19.851h-4.256l4.115-9.576-1.427-4.731-6.16 14.307h-4.284zM113.928 81.732c-.746 0-1.371-.131-1.875-.392-.504-.262-.902-.621-1.191-1.078s-.48-1.004-.574-1.639a8.301 8.301 0 01-.027-2.044c.037-.205.074-.42.111-.644.039-.224.076-.457.113-.7a15.45 15.45 0 01.447-1.666c.188-.569.41-1.152.672-1.75l.084-.168a28.032 28.032 0 011.75-3.36 18.064 18.064 0 012.422-3.163 12.554 12.554 0 013.039-2.339 7.386 7.386 0 013.598-.909h1.176c.766 0 1.4.126 1.904.378s.896.598 1.176 1.035c.279.439.457.957.531 1.555s.074 1.241 0 1.932c-.037.243-.068.481-.098.714-.027.234-.07.472-.125.714a20.28 20.28 0 01-.477 1.736 19.113 19.113 0 01-.645 1.708l-.084.168c-.521 1.251-1.162 2.469-1.918 3.654s-1.596 2.241-2.52 3.165c-.924.923-1.918 1.67-2.982 2.24s-2.166.854-3.303.854h-1.204v-.001zm5.656-14.91a9.637 9.637 0 00-1.455 1.386c-.449.523-.85 1.078-1.205 1.666a14.696 14.696 0 00-.867 1.639c-.131.279-.275.662-.436 1.147-.158.486-.293.999-.404 1.54l-.057.28c-.02.094-.037.187-.057.28l-.055.531c-.076.635-.039 1.177.111 1.624.148.448.484.673 1.008.673h.225c.521 0 1.063-.253 1.623-.757s1.088-1.092 1.582-1.764.93-1.344 1.303-2.016.635-1.186.783-1.54a9.25 9.25 0 00.701-2.101c.037-.148.064-.289.084-.42l.055-.392c.074-.616.033-1.162-.125-1.638a1.393 1.393 0 00-.967-.938h-.225c-.558.133-1.101.399-1.622.8zM132.072 61.881h4.061l1.176 4.676 5.207-4.676h4.06l-8.539 19.851h-4.258l5.938-13.776-4.705 4.173h-.252l-1.008-4.173-5.936 13.776h-4.283zM139.996 81.732l8.539-19.852h8.652c.15 0 .309.046.477.14s.326.238.477.434c.148.196.27.444.363.742.094.299.141.645.141 1.036l-.057.392c-.02.094-.027.168-.027.225 0 .056-.01.103-.029.14a8.731 8.731 0 01-.125.546c-.047.178-.117.36-.211.546-.615 1.4-1.377 2.576-2.281 3.528-.906.952-2.002 1.689-3.289 2.212 1.082.653 1.549 1.662 1.398 3.024-.018.111-.037.233-.055.363-.02.131-.047.262-.084.393a8.016 8.016 0 01-.238.924c-.104.317-.229.653-.379 1.008a8.611 8.611 0 01-1.119 1.876c-.709.84-1.391 1.438-2.045 1.792-.652.355-1.139.532-1.455.532h-8.653v-.001zm5.992-4.087h1.848c.168-.094.309-.21.42-.351.111-.14.195-.228.252-.266.15-.242.275-.457.379-.644.102-.187.199-.354.293-.504a.859.859 0 00.113-.295c.018-.102.045-.2.084-.294l.027-.279c.057-.485-.047-.863-.309-1.134s-.635-.49-1.119-.658l-.084.084-1.904 4.341zm5.291-8.176c.617-.411 1.084-.989 1.4-1.736.037-.112.074-.224.113-.336a8.7 8.7 0 00.111-.364l.084-.476c0-.037-.006-.121-.014-.252a.77.77 0 00-.098-.336h-1.85l-1.848 4.34.029.084a6.937 6.937 0 002.073-.924zM161.416 72.94l-.924 2.184c-.111.262-.248.579-.406.953s-.313.775-.463 1.204c-.148.43-.289.868-.42 1.316-.131.447-.232.868-.307 1.26a6.277 6.277 0 00-.127.63c-.027.196-.051.369-.07.519l-6.664 3.863 9.885-22.987h8.652c.148 0 .309.046.477.14s.326.238.475.434c.15.196.271.444.365.742.092.299.139.645.139 1.036l-.055.392a1.12 1.12 0 00-.029.225c0 .056-.01.103-.027.14-.037.187-.08.369-.127.546-.047.178-.115.36-.209.546-.578 1.344-1.32 2.463-2.227 3.36a10.821 10.821 0 01-3.121 2.156c.148.952.293 1.866.434 2.744.141.877.309 1.727.504 2.548s.434 1.634.715 2.436c.279.803.615 1.605 1.008 2.408h-4.48c-.766-1.4-1.363-2.818-1.793-4.256s-.803-2.949-1.119-4.536h-.086v-.003zm.98-2.183a5.624 5.624 0 002.211-1.106 4.938 4.938 0 001.457-1.918l.111-.336a8.7 8.7 0 00.111-.364l.084-.476c0-.037-.004-.121-.014-.252s-.041-.242-.098-.336h-1.848l-2.045 4.731.031.057z"/><path d="M175.332 61.881h10.947l-1.791 4.143h-6.664l-1.595 3.724h4.732l-1.793 4.145h-4.732l-1.569 3.696h6.664l-1.791 4.143h-10.947z"/><g><path d="M152.725 185.422c1.014-.781 1.811-2.006 2.389-3.675.58-1.668 1.303-4.42 2.172-8.254v-.106l9.663-50.593c.362-1.988.543-3.621.543-4.899 0-1.988-.362-3.408-1.086-4.26s-1.882-1.42-3.474-1.705c-.145-.071-.381-.124-.706-.16a62.527 62.527 0 00-2.117-.16c-1.086-.071-2.171 0-3.257.213-1.521.142-2.751.391-3.691.746 3.039-1.846 6.803-2.379 11.291-1.598 1.014.142 2.027.71 3.04 1.704s1.521 2.415 1.521 4.261c0 1.349-.182 3.018-.543 5.006l-9.663 50.592v.106c-1.014 4.545-1.882 7.651-2.606 9.32-.724 1.67-1.883 2.824-3.476 3.462zm-5.862 3.303c1.157 0 1.917-.036 2.279-.107 1.158-.07 2.189-.248 3.094-.532.905-.284 1.684-.586 2.335-.905s1.249-.87 1.792-1.651c.542-.78.959-1.438 1.248-1.97s.633-1.456 1.031-2.77.705-2.379.923-3.195.507-2.184.868-4.101l9.771-50.593c.725-4.118.688-7.189-.107-9.213-.797-2.024-2.606-3.284-5.43-3.781-.361-.142-1.465-.231-3.312-.267-1.846-.035-2.948-.018-3.312.053-1.158.143-2.189.355-3.094.639-.904.284-1.684.586-2.334.905-.652.32-1.249.87-1.792 1.651-.543.781-.978 1.42-1.303 1.917s-.669 1.42-1.032 2.77l-.868 3.249c-.217.816-.542 2.147-.977 3.994l-9.663 50.699c-.435 4.189-.308 7.278.38 9.267s2.407 3.23 5.157 3.728c.509.142 1.957.213 4.346.213zm-.217 12.567c2.026 0 3.293-.035 3.8-.106 2.75-.284 5.104-.745 7.057-1.384 5.212-1.563 9.048-4.864 11.51-9.906 1.592-3.337 3.654-10.58 6.188-21.728l7.925-42.604c1.593-8.875 1.539-15.515-.162-19.917-1.701-4.402-5.627-7.171-11.78-8.308-.796-.213-3.185-.355-7.166-.426-3.98-.071-6.405-.036-7.274.106-2.678.284-5.03.746-7.057 1.385-5.212 1.563-9.012 4.829-11.4 9.799-1.664 3.408-3.728 10.651-6.188 21.728l-8.034 42.604c-1.521 8.876-1.43 15.516.271 19.918 1.7 4.402 5.591 7.207 11.672 8.414 1.301.284 4.846.425 10.638.425zm-3.692 2.131c2.896 0 5.03-.071 6.405-.213 5.212-.497 9.482-1.812 12.812-3.941-2.896 1.563-6.659 2.557-11.292 2.982-.868.142-3.348.195-7.437.159-4.09-.035-6.641-.195-7.654-.479-5.284-.994-9.03-3.054-11.237-6.178s-3.312-7.278-3.312-12.462c0-3.195.397-7.101 1.194-11.716l7.926-42.604.108-.32c.724-3.337 1.285-5.805 1.683-7.402.398-1.598.924-3.639 1.574-6.125.652-2.485 1.268-4.367 1.846-5.645a89.954 89.954 0 012.117-4.314c.833-1.598 1.738-2.894 2.715-3.888s2.117-1.917 3.42-2.769a15.013 15.013 0 00-3.529 2.396 27.84 27.84 0 00-2.713 2.823c-.761.923-1.502 2.201-2.227 3.834a133.504 133.504 0 00-1.791 4.207c-.471 1.172-1.014 2.929-1.629 5.272s-1.104 4.243-1.466 5.698-.868 3.71-1.521 6.763l-.107.32-7.926 42.71c-.797 4.615-1.195 8.521-1.195 11.717 0 5.184 1.104 9.319 3.313 12.408 2.207 3.089 5.953 5.131 11.236 6.125 1.593.429 4.489.642 8.687.642zM111.53 96.895H88.404l.977.958h20.629c6.008.142 10.134 1.598 12.379 4.367 1.447 1.704 2.315 4.065 2.605 7.083.289 3.018.162 6.479-.381 10.385-.543 3.906-1.502 9.196-2.877 15.871l-12.703 67.847h1.303l13.029-68.806c1.375-6.604 2.316-11.875 2.822-15.816.507-3.941.615-7.42.326-10.438-.289-3.018-1.122-5.378-2.498-7.083-2.315-2.771-6.477-4.226-12.485-4.368zm-20.629 2.343l18.892-.106h2.28c2.896 0 5.267.621 7.111 1.864 1.847 1.243 3.04 2.77 3.583 4.58s.904 3.621 1.086 5.432c.181 1.811.127 3.355-.162 4.633l-.326 1.811-15.961 85.954H93.508c8.613-45.87 13.607-72.782 14.982-80.735.435-2.272.58-4.118.435-5.538-.146-1.42-.471-2.45-.978-3.089-.506-.639-1.049-1.065-1.629-1.278-.578-.213-1.085-.319-1.52-.319l-.651.106-13.246-13.315z"/></g></g></g></switch></svg>