<svg xmlns="http://www.w3.org/2000/svg" width="272.686" height="337.292"><switch><g><g fill="#060606"><g fill-rule="evenodd" clip-rule="evenodd"><path d="M91.995 60.727c.041.01.062.034.062.073v20.859c0 .049-.021.073-.062.073h-1.464c-.033 0-.05-.024-.05-.073V62.602h-15.06V81.66c0 .049-.017.073-.05.073h-1.464c-.041 0-.062-.024-.062-.073V60.8c.008-.049.028-.073.062-.073h18.088zm-2.301 2.739H76.208c-.032 0-.049.02-.049.059V81.66c0 .049.017.073.049.073h1.465c.041 0 .062-.024.062-.073V65.326h10.434v16.333c0 .049.021.073.062.073h1.465c.032 0 .049-.024.049-.073V63.524c-.002-.039-.018-.058-.051-.058zM112.797 60.727c.041.01.062.034.062.073v20.859c0 .049-.021.073-.062.073H94.709c-.041 0-.062-.024-.062-.073V60.8c.008-.049.028-.073.062-.073h18.088zm-16.574 19.13h15.061V62.602H96.223v17.255zm14.273-16.391H97.01c-.032 0-.049.02-.049.059v15.41c0 .039.017.059.049.059h13.486c.032 0 .049-.02.049-.059v-15.41c0-.04-.017-.059-.049-.059zm-11.96 13.667h10.434V65.326H98.536v11.807zM133.612 60.727c.032.01.049.034.049.073v20.859c0 .049-.017.073-.049.073h-1.465c-.041 0-.062-.024-.062-.073V62.602h-15.061V81.66c0 .049-.017.073-.05.073h-1.464c-.041 0-.062-.024-.062-.073V60.8c.008-.049.028-.073.062-.073h18.102zm-9.474 2.739h-6.325c-.032 0-.049.02-.049.059V81.66c0 .049.017.073.049.073h1.465c.041 0 .062-.024.062-.073V65.326h3.272v16.333c0 .049.021.073.062.073h1.465c.032 0 .049-.024.049-.073V63.524c-.001-.039-.018-.058-.05-.058zm7.161 0h-6.313c-.033 0-.054.02-.062.059V81.66c0 .049.021.073.062.073h1.452c.041 0 .062-.024.062-.073V65.326h3.272v16.333c0 .049.021.073.062.073h1.465c.041 0 .062-.024.062-.073V63.524c-.001-.039-.021-.058-.062-.058zM154.401 60.727c.041.01.062.034.062.073v20.859c0 .049-.021.073-.062.073h-18.088c-.041 0-.062-.024-.062-.073V60.8c.008-.049.028-.073.062-.073h18.088zm-16.574 19.13h15.049V62.602h-15.049v17.255zm14.261-16.391h-13.474c-.032 0-.049.02-.049.059v7.207c0 .039.017.059.049.059h13.474c.041 0 .062-.02.062-.059v-7.207c-.001-.04-.021-.059-.062-.059zm0 8.203h-13.474c-.032 0-.049.02-.049.059v7.207c0 .039.017.059.049.059h13.474c.041 0 .062-.02.062-.059v-7.207c-.001-.04-.021-.059-.062-.059zm-11.947-2.739h10.434v-3.604h-10.434v3.604zm0 8.203h10.434v-3.604h-10.434v3.604zM172.903 60.727c.041.01.062.034.062.073v8.159h2.252c.032.01.049.034.049.073v12.627c0 .049-.017.073-.049.073h-1.465c-.041 0-.062-.024-.062-.073V70.79h-2.252c-.041 0-.062-.02-.062-.059v-8.13H158.63v19.058c0 .049-.017.073-.05.073h-1.464c-.041 0-.062-.024-.062-.073V60.8c.008-.049.028-.073.062-.073h15.787zm-2.313 2.739h-11.173c-.032 0-.049.02-.049.059v7.207c0 .039.017.059.049.059h11.173c.041 0 .062-.02.062-.059v-7.207c-.001-.04-.021-.059-.062-.059zm2.313 8.203h-13.486c-.032 0-.049.02-.049.059v9.932c0 .049.017.073.049.073h1.465c.041 0 .062-.024.062-.073v-8.13h10.434v8.13c0 .049.021.073.062.073h1.465c.041 0 .062-.024.062-.073v-9.932c-.002-.04-.023-.059-.064-.059zm-11.96-2.739h8.133v-3.604h-8.133v3.604zM196.006 60.727c.041.01.062.034.062.073v1.729c0 .049-.021.073-.062.073h-16.574v17.256h16.574c.041.01.062.034.062.073v1.729c0 .049-.021.073-.062.073h-18.088c-.041 0-.062-.024-.062-.073V60.8c.008-.049.028-.073.062-.073h18.088zm0 2.739h-15.787c-.032 0-.049.02-.049.059v7.207c0 .039.017.059.049.059h15.787c.041 0 .062-.02.062-.059v-1.729c0-.039-.021-.063-.062-.073h-14.261v-3.604h14.261c.041 0 .062-.024.062-.073v-1.729c-.001-.039-.021-.058-.062-.058zm0 8.203h-15.787c-.032 0-.049.02-.049.059v7.207c0 .039.017.059.049.059h15.787c.041 0 .062-.02.062-.059v-1.729c0-.039-.021-.063-.062-.073h-14.261v-3.604h14.261c.041 0 .062-.024.062-.073v-1.729c-.001-.039-.021-.058-.062-.058z"/></g><path d="M101.104 126.68v59.516c0 9.147-1.336 15.123-3.984 17.929 0 .292.157.438.524.438h17.985c.288 0 .445-.146.445-.438V102.361c-.865.049-7.341 3.488-19.427 10.293 2.962 2.489 4.457 7.148 4.457 14.026z"/><path d="M115.281 99.055c-.974.059-3.195 1.08-6.67 3.06-3.15 1.795-7.444 4.34-12.887 7.634l-4.268 2.582 3.702 3.342c.849.766 1.516 1.962 1.999 3.594.578 1.95.868 4.454.868 7.515v58.819c0 4.307-.278 7.797-.832 10.471-.479 2.309-1.114 3.913-1.905 4.813l-.927 1.056v1.378c0 1.207.415 2.217 1.316 3.049.79.729 1.733 1.093 2.874 1.093h16.536c1.183 0 2.192-.428 3-1.283.734-.777 1.118-1.733 1.118-2.858V98.817l-3.924.238zm2.311 3.693v100.571c0 .688-.229 1.268-.667 1.732-.479.508-1.086.762-1.802.762H98.586c-.709 0-1.287-.219-1.76-.656-.535-.493-.782-1.103-.782-1.838v-.766l.515-.586c.98-1.116 1.741-2.973 2.278-5.567.579-2.798.871-6.397.871-10.799v-58.819c0-3.211-.314-5.869-.939-7.978-.573-1.933-1.398-3.382-2.476-4.354l-2.057-1.856 2.371-1.435c5.493-3.325 9.775-5.863 12.849-7.615 3.254-1.854 5.237-2.804 5.956-2.848l2.18-.132v2.184zM164.766 147.013l-.012-.099c-.896-9.031-2.326-15.776-4.297-20.234-1.77-4.003-3.909-6.005-6.422-6.005h-1.489c-.399 0-.851.097-1.354.294-.532.208-1.112.519-1.739.937-2.556 2.973-4.492 6.935-5.804 11.885-1.358 5.126-2.041 11.304-2.041 18.535v4.66c0 1.896.082 3.806.242 5.731.163 1.97.401 3.926.711 5.873 1.076 6.786 2.529 11.843 4.356 15.175 1.627 2.966 3.504 4.448 5.629 4.448h1.489c.48 0 1.006-.141 1.582-.425.642-.316 1.329-.794 2.067-1.436 2.391-3.173 4.196-7.204 5.413-12.085 1.25-5.011 1.876-10.917 1.876-17.705v-3.738c0-1.625-.018-2.891-.052-3.798-.035-.933-.087-1.604-.155-2.013zm-1.496 9.549c0 6.66-.609 12.43-1.823 17.299-1.143 4.584-2.816 8.363-5.019 11.331-.567.48-1.088.836-1.563 1.07-.332.164-.608.246-.83.246h-1.489c-1.454 0-2.835-1.188-4.138-3.563-1.734-3.163-3.125-8.036-4.17-14.622a77.2 77.2 0 01-.691-5.747 67.722 67.722 0 01-.234-5.591v-4.66c0-7.092.662-13.126 1.98-18.102 1.218-4.595 2.982-8.27 5.289-11.024a7.203 7.203 0 011.229-.646c.299-.117.544-.174.735-.174h1.489c1.773 0 3.395 1.662 4.863 4.986 1.9 4.3 3.287 10.872 4.164 19.715l.025.212c.059.349.104.947.136 1.793.03.792.046 2.037.046 3.738v3.739z"/><path d="M181.482 128.775c-2.016-7.539-5.057-14.221-9.121-20.036l-.137-.2c-2.545-3.11-5.354-5.462-8.427-7.057-3.137-1.627-6.493-2.439-10.07-2.439h-.899c-7.623 0-13.934 3.355-18.928 10.062-4.642 6.232-8.076 15.437-10.299 27.609l-.012.025a101.256 101.256 0 00-1.116 8.498 96.989 96.989 0 00-.372 8.461v1.47c0 9.092.994 17.393 2.985 24.901 2.012 7.585 5.038 14.337 9.082 20.255l.088.13.149.17c2.636 3.017 5.473 5.297 8.512 6.839 3.13 1.588 6.434 2.384 9.91 2.384h.899c14.917 0 24.668-12.565 29.251-37.695l.014-.025c.494-2.857.867-5.744 1.115-8.653.247-2.909.372-5.846.372-8.803v-.972c.001-9.142-.999-17.452-2.996-24.924zm1.293 25.893c0 2.916-.123 5.806-.366 8.664a98.7 98.7 0 01-1.096 8.507l-.006.012c-4.413 24.193-13.606 36.29-27.58 36.29h-.899c-3.211 0-6.26-.733-9.145-2.197-2.842-1.441-5.509-3.589-7.999-6.438l-.069-.08-.041-.06c-3.936-5.76-6.882-12.336-8.843-19.729-1.951-7.358-2.925-15.515-2.925-24.469v-1.47c0-2.771.123-5.543.365-8.315 1.012-11.552 4.442-26.335 11.093-35.265 4.651-6.245 10.507-9.369 17.563-9.369h.899c3.306 0 6.403.748 9.291 2.247 2.858 1.483 5.488 3.69 7.888 6.624l.064.093c3.943 5.645 6.9 12.149 8.866 19.503 1.958 7.322 2.938 15.486 2.938 24.482v.97z"/><path d="M153.728 102.239h-.899c-13.123 0-21.828 11.687-26.092 35.036a95.682 95.682 0 00-1.438 16.422v1.47c0 17.667 3.826 32.12 11.505 43.358 4.727 5.407 10.067 8.124 16.025 8.124h.899c13.148 0 21.854-11.687 26.118-35.061a99.07 99.07 0 001.438-16.92v-.972c0-17.742-3.852-32.146-11.53-43.134-4.547-5.557-9.889-8.323-16.026-8.323zm12.737 54.323c0 13.805-2.567 24.097-7.678 30.8-1.772 1.569-3.339 2.342-4.752 2.342h-1.489c-5.419 0-9.245-6.952-11.454-20.882-.643-4.037-.976-7.974-.976-11.836v-4.66c0-14.702 2.8-25.218 8.347-31.547 1.566-1.071 2.928-1.595 4.083-1.595h1.489c6.318 0 10.376 9.195 12.199 27.585.154.922.23 2.94.23 6.056v3.737z"/></g></g></switch></svg>