<svg xmlns="http://www.w3.org/2000/svg" width="272.686" height="337.292"><switch><g><g fill-rule="evenodd" clip-rule="evenodd" fill="#060606"><path d="M75.229 63.5h5.261l6.865 10.087V63.5h5.311v18.232h-5.311l-6.827-10.01v10.01h-5.299zM95.7 72.629c0-2.977.829-5.293 2.487-6.952 1.658-1.658 3.968-2.487 6.928-2.487 3.034 0 5.372.814 7.014 2.443 1.642 1.63 2.463 3.912 2.463 6.847 0 2.131-.358 3.878-1.076 5.243a7.677 7.677 0 01-3.108 3.184c-1.356.758-3.046 1.137-5.068 1.137-2.057 0-3.758-.327-5.105-.982-1.347-.654-2.439-1.691-3.276-3.108-.84-1.42-1.259-3.194-1.259-5.325zm5.634.024c0 1.841.343 3.163 1.026 3.968.684.804 1.614 1.206 2.792 1.206 1.211 0 2.147-.394 2.811-1.182.663-.787.995-2.201.995-4.24 0-1.717-.347-2.971-1.038-3.763-.692-.792-1.632-1.188-2.817-1.188-1.136 0-2.048.402-2.736 1.206-.688.806-1.033 2.137-1.033 3.993zM117.564 63.5h7.41l2.856 11.094 2.837-11.094h7.405v18.232h-4.614V67.828l-3.555 13.904h-4.176l-3.549-13.904v13.904h-4.614zM141.679 63.5h10.546c1.758 0 3.107.436 4.049 1.307.94.87 1.411 1.948 1.411 3.233 0 1.077-.336 2.002-1.007 2.773-.448.514-1.104.92-1.966 1.219 1.311.314 2.274.855 2.892 1.623.618.767.927 1.73.927 2.891 0 .945-.22 1.796-.659 2.55a4.838 4.838 0 01-1.804 1.791c-.472.273-1.186.473-2.139.597-1.269.166-2.11.249-2.524.249h-9.726V63.5zm5.683 7.151h2.45c.879 0 1.49-.151 1.834-.454s.517-.74.517-1.312c0-.531-.173-.945-.517-1.244-.344-.298-.943-.447-1.797-.447h-2.487v3.457zm0 7.163h2.873c.97 0 1.654-.171 2.052-.516.398-.344.597-.807.597-1.387 0-.539-.196-.972-.591-1.3-.394-.327-1.084-.491-2.07-.491h-2.86v3.694zM161.553 81.732V63.5h9.39c1.741 0 3.071.149 3.992.448.92.298 1.662.852 2.226 1.66s.846 1.793.846 2.954c0 1.011-.216 1.884-.646 2.617a5.063 5.063 0 01-1.78 1.785c-.48.29-1.141.53-1.979.721.671.225 1.16.448 1.467.673.207.149.508.469.901.958.394.49.656.867.789 1.133l2.729 5.283h-6.366l-3.012-5.571c-.381-.722-.721-1.19-1.02-1.405a2.361 2.361 0 00-1.38-.423h-.498v7.399h-5.659zm5.658-10.844h2.376c.257 0 .754-.083 1.492-.249.373-.074.678-.265.914-.572.236-.307.354-.658.354-1.057 0-.589-.187-1.04-.56-1.355s-1.074-.473-2.103-.473h-2.475v3.706zM181.277 63.5h15.098v3.893h-9.452v2.898h8.767v3.719h-8.767v3.594h9.725v4.128h-15.371z"/><g><path d="M120.626 208.001h-16.462v-77.967l-1.223 1.061-1.313 1.084-1.384 1.094-1.43 1.084-1.452 1.061-1.453 1.026-1.418.946-1.348.876-.081-20.095 1.21-.876 1.2-.911 1.164-.968 1.152-1.003 1.118-1.038 1.085-1.083 1.049-1.119 1.002-1.164.969-1.187.923-1.222.864-1.257.818-1.291.75-1.314.692-1.338.633-1.371.554-1.395h12.381zM154.319 116.39l-.75.035-.727.115-.702.185-.681.253-.657.334-.646.404-.611.484-.599.553-.577.646-.542.761-.507.876-.473 1.003-.438 1.118-.415 1.233-.368 1.349-.347 1.464-.392 2.144-.357 2.49-.288 2.824-.242 3.159-.196 3.493-.126 3.839-.081 4.173-.035 4.519.023 4.497.081 4.138.115 3.77.173 3.401.208 3.032.265 2.675.312 2.294.369 1.937.392 1.672.415 1.533.449 1.395.473 1.233.496 1.096.519.945.554.807.276.347.288.311.6.542.611.473.634.403.657.323.681.253.703.185.714.104.75.046.737-.046.727-.104.703-.185.681-.265.668-.335.634-.403.623-.483.611-.554.564-.646.53-.761.508-.877.473-1.002.438-1.107.415-1.233.369-1.36.346-1.464.403-2.133.347-2.468.299-2.813.242-3.147.185-3.493.139-3.839.08-4.173.023-4.52-.023-4.496-.068-4.127-.127-3.77-.161-3.401-.22-3.032-.265-2.664-.312-2.306-.357-1.925-.403-1.684-.415-1.533-.45-1.395-.472-1.246-.496-1.095-.52-.957-.541-.807-.288-.346-.288-.312-.589-.553-.622-.484-.634-.404-.657-.334-.681-.253-.703-.185-.715-.115-.739-.031zm0-16.9l1.567.034 1.533.138 1.487.208 1.441.312 1.406.38 1.36.473 1.303.565 1.279.646 1.223.737 1.188.819 1.141.911 1.096.992 1.049 1.072 1.015 1.165.969 1.257.922 1.337 1.037 1.695.969 1.833.899 1.971.842 2.098.772 2.237.703 2.375.634 2.502.565 2.64.507 2.778.438 2.905.369 3.043.3 3.182.242 3.309.161 3.447.104 3.585.034 3.712-.034 3.701-.104 3.585-.172 3.436-.231 3.32-.312 3.17-.368 3.056-.438 2.904-.507 2.779-.576 2.651-.635 2.513-.715 2.387-.772 2.248-.842 2.109-.91 1.983-.98 1.845-1.049 1.717-.91 1.326-.957 1.233-1.003 1.153-1.049 1.061-1.096.979-1.13.888-1.188.808-1.222.726-1.269.646-1.303.553-1.36.461-1.395.381-1.441.3-1.487.219-1.533.127-1.567.034-1.591-.046-1.545-.139-1.511-.23-1.464-.322-1.43-.427-1.395-.507-1.349-.611-1.314-.691-1.269-.796-1.245-.888-1.188-.979-1.164-1.072-1.118-1.164-1.072-1.257-1.049-1.35-1.003-1.452-.945-1.557-.888-1.718-.83-1.855-.772-2.006-.703-2.145-.646-2.306-.588-2.433-.52-2.594-.461-2.732-.403-2.882-.334-3.032-.277-3.17-.219-3.309-.15-3.47-.092-3.608-.034-3.747.034-3.701.104-3.551.173-3.436.23-3.297.312-3.159.369-3.032.438-2.905.507-2.767.576-2.641.635-2.513.715-2.375.771-2.237.842-2.11.911-1.982.979-1.845 1.05-1.718.91-1.326.969-1.233 1.003-1.142 1.037-1.072 1.096-.98 1.141-.888 1.177-.807 1.222-.727 1.269-.634 1.302-.554 1.361-.472 1.395-.38 1.44-.3 1.487-.208 1.534-.138 1.58-.032z"/></g></g></g></switch></svg>