<svg xmlns="http://www.w3.org/2000/svg" width="272.686" height="337.292"><switch><g><g fill-rule="evenodd" clip-rule="evenodd" fill="#060606"><path d="M91.023 65.64c-1.766.141-2.648 1.699-2.648 4.676v11.417h-4.018L74.47 68.102v7.947c0 3.383 1.035 5.083 3.109 5.099v.585h-6.443v-.585c.963-.049 1.645-.505 2.047-1.367s.604-1.808.604-2.836V67.17l-1.096-1.529h-1.555v-.585h9.652l6.926 9.552v-4.079c0-1.65-.232-2.877-.695-3.682-.465-.804-1.166-1.206-2.102-1.206h-.561v-.585h6.666v.584zM101.371 64.521c2.895 0 5.176.796 6.846 2.388 1.672 1.592 2.506 3.764 2.506 6.517 0 2.604-.82 4.724-2.461 6.361-1.643 1.638-3.889 2.456-6.74 2.456-2.854 0-5.141-.806-6.865-2.419-1.725-1.612-2.588-3.787-2.588-6.522 0-2.67.844-4.801 2.531-6.393s3.943-2.388 6.771-2.388zm1.406 15.296V66.933c0-1.086-.428-1.629-1.281-1.629-.93 0-1.393.568-1.393 1.704v12.896c0 .563.105.968.316 1.213.211.244.57.366 1.076.366.855 0 1.282-.554 1.282-1.666zM137.201 81.732h-11.256v-.585h2.09V67.418h-.051l-5.521 14.314h-1.629l-5.658-14.29v8.843c0 .821.092 1.623.273 2.406.182.784.465 1.389.846 1.816.381.427.957.64 1.729.64h.287v.585h-6.418v-.585c.861 0 1.506-.455 1.934-1.367s.641-1.953.641-3.122V66.635l-.584-.995h-1.58v-.585h9.414l3.396 8.296 3.207-8.296h8.881v.585h-2.027v15.508h2.027v.584zM154.762 73.076c1.145.274 2.02.789 2.623 1.543.605.754.908 1.683.908 2.785 0 1.36-.457 2.421-1.373 3.184-.916.764-2.365 1.145-4.348 1.145h-14.016v-.585h2.113V65.64h-2.113v-.585h14.166c1.268 0 2.232.14 2.891.417.66.277 1.182.767 1.566 1.468.387.7.578 1.461.578 2.283 0 2.113-.998 3.381-2.996 3.805v.048h.001zm-4.129-1.765v-3.457c0-.912-.105-1.509-.316-1.791-.213-.282-.65-.423-1.313-.423h-1.07v7.412h1.119c.623 0 1.041-.122 1.256-.367.216-.245.324-.703.324-1.374zm0 8.307V75.19c0-.68-.105-1.117-.316-1.312-.213-.195-.666-.292-1.363-.292h-1.02v7.561h1.119c.631 0 1.051-.095 1.264-.285.21-.191.316-.605.316-1.244zM180.506 78.935c-.373 2.072-1.605 3.108-3.695 3.108-.902 0-1.662-.102-2.275-.305s-1.113-.522-1.498-.957c-.387-.436-.66-.975-.82-1.617-.162-.643-.244-2.079-.244-4.31 0-.638-.119-1.069-.359-1.293s-.697-.336-1.369-.336c-.406 0-.713.009-.92.025v7.896h1.68v.585h-10.908v-.585h1.965V65.64h-1.965v-.585h13.842c2.189 0 3.605.392 4.248 1.176.643.783.963 1.706.963 2.767 0 .962-.248 1.789-.746 2.481-.496.692-1.205 1.188-2.125 1.486 1.152.414 1.895.879 2.225 1.393.332.515.498 1.224.498 2.127l-.074 2.549c0 .473.104.709.311.709.107 0 .23-.093.367-.279s.234-.417.293-.69l.606.161zm-8.508-8.047v-3.52c0-.705-.119-1.169-.361-1.393-.24-.224-.732-.336-1.479-.336h-.834v7.026h.436c.871 0 1.461-.133 1.771-.397.313-.265.467-.725.467-1.38zM198.787 81.732h-16.629v-.585h1.902V65.64h-1.902v-.585h16.094v5.236h-.561c-.057-1.178-.578-2.247-1.561-3.209s-2.484-1.442-4.508-1.442h-.299v7.226h.51c.754 0 1.43-.301 2.027-.901.598-.602.896-1.606.896-3.017h.533v8.308h-.533c0-1.202-.285-2.137-.854-2.804-.566-.668-1.258-1.002-2.07-1.002h-.51v7.698c1.773 0 3.297-.497 4.564-1.492s2.057-2.358 2.363-4.092h.535v6.168z"/><g><path d="M132.52 208.501H84.94v-5.374c8.022 0 12.033-3.614 12.033-10.869V126.37c0-3.764-.604-6.314-1.836-7.676-1.136-1.361-3.311-2.03-6.524-2.03H84.65v-5.225c6.524 0 11.043-.718 13.604-2.179 1.691-1.263 3.432-3.863 5.243-7.824h16.988v90.947c0 3.887.894 6.636 2.682 8.27 1.692 1.659 4.81 2.476 9.353 2.476v5.372z"/><path d="M127.872 155.645c0 17.307 2.44 30.902 7.37 40.756 5.172 10.152 12.493 15.228 21.941 15.228 9.424 0 16.746-5.126 21.941-15.376 4.905-9.855 7.37-23.399 7.37-40.608 0-17.234-2.465-30.753-7.37-40.633-5.195-10.152-12.518-15.228-21.941-15.228-9.448 0-16.77 5.076-21.941 15.228-4.929 9.88-7.37 23.399-7.37 40.633zm22.787 0c0-33.947 2.127-50.933 6.38-50.933 4.252 0 6.379 16.986 6.379 50.933 0 18.471-.773 32.213-2.271 41.202-1.136 6.661-2.513 10.004-4.107 10.004-1.523 0-2.876-3.343-4.108-10.004-1.524-9.186-2.273-22.93-2.273-41.202z"/></g></g></g></switch></svg>