<svg xmlns="http://www.w3.org/2000/svg" width="272.686" height="337.292"><switch><g><g fill-rule="evenodd" clip-rule="evenodd" fill="#060606"><path d="M95.3 64.731c.387.212.723.496 1.008.853.286.356.513.777.683 1.261.17.484.255 1.007.255 1.566V81.732c-.747 0-1.528-.225-2.343-.675-.815-.45-1.63-1.04-2.445-1.771a26.22 26.22 0 01-2.404-2.471 49.068 49.068 0 01-2.201-2.751 61.072 61.072 0 01-3.219-4.788c.461.968.94 1.915 1.437 2.84.495.926 1.021 1.83 1.579 2.713v6.902h-4.26a2.6 2.6 0 01-1.232-.306 3.234 3.234 0 01-1.009-.828 4.11 4.11 0 01-.683-1.235 4.842 4.842 0 01-.275-1.527V64.414h4.259c.625 0 1.141.14 1.549.42.407.28.787.743 1.141 1.388 2.214 4.263 4.517 7.472 6.907 9.628.896.816 1.773 1.469 2.629 1.961-.435-.39-.887-.802-1.355-1.234a35.262 35.262 0 01-1.273-1.235V64.415c.446-.002.864.104 1.252.316zM112.303 64.413c.435 0 .846.105 1.233.318.387.212.727.496 1.019.853s.522.777.692 1.261c.17.484.255 1.007.255 1.566v9.322c0 .561-.085 1.083-.255 1.566-.17.485-.4.904-.692 1.261a3.485 3.485 0 01-1.019.854 2.523 2.523 0 01-1.233.318H101.627c-.448 0-.866-.105-1.253-.318a3.334 3.334 0 01-1.009-.854 4.256 4.256 0 01-.683-1.261 4.689 4.689 0 01-.255-1.566v-9.322c0-.56.085-1.082.255-1.566.17-.483.397-.904.683-1.261s.621-.64 1.009-.853a2.557 2.557 0 011.253-.318H112.303zm2.833 11.945a2.067 2.067 0 01-.408.407 1.758 1.758 0 01-.499.28 3.26 3.26 0 01-.561.153c-.23.051-.458.085-.683.102a9.013 9.013 0 01-.683.025v-8.506l1.386-.408h-7.783c-3.464 0-5.706.739-6.725 2.216.068-.084.143-.161.225-.229l.295-.229a3.88 3.88 0 01.296-.204 7.5 7.5 0 012.108-.776c.374-.076.758-.141 1.151-.191.435-.051.873-.085 1.314-.102s.887-.025 1.335-.025v8.456l-1.406.407h7.803c1.726 0 2.724-.552 2.995-1.655a1.047 1.047 0 01-.16.279zM129.826 74.729c1.589-5.926 4.129-9.364 7.621-10.315v13.32c0 .561-.085 1.083-.255 1.566-.17.485-.397.904-.683 1.261a3.36 3.36 0 01-1.009.854 2.56 2.56 0 01-1.253.318V72.615c.339-.832 1.154-2.046 2.445-3.642-2.541 2.139-4.32 5.867-5.339 11.181-.055.255-.102.514-.143.776-.041.264-.082.531-.122.803h-.774c-.68 0-1.227-.174-1.641-.522s-.764-.815-1.049-1.401a13.508 13.508 0 01-.774-2.025 38.91 38.91 0 00-.815-2.394 28.888 28.888 0 00-.866-1.949 18.441 18.441 0 00-1.09-1.923 16.035 16.035 0 00-1.681-2.178 10.449 10.449 0 00-2.089-1.744c1.019 1.036 1.82 1.939 2.404 2.712a23.338 23.338 0 011.365 1.975v9.449h-4.259c-.448 0-.866-.105-1.253-.318a3.346 3.346 0 01-1.009-.854 4.256 4.256 0 01-.683-1.261 4.689 4.689 0 01-.255-1.566V64.413h4.258c.828 0 1.623.225 2.384.675s1.475 1.062 2.14 1.834a16.222 16.222 0 011.854 2.687 26.698 26.698 0 011.538 3.261 35.82 35.82 0 011.192 3.565c.339 1.223.618 2.411.835 3.565a19.69 19.69 0 00-.295-2.686 15.589 15.589 0 00-.699-2.585zM152.423 70.78a1 1 0 01-.203-.051c.176-.204.288-.438.336-.7a1.629 1.629 0 00-.041-.765 1.388 1.388 0 00-.366-.611.873.873 0 00-.622-.242h-5.339v2.19c-1.195-.033-2.152-.5-2.873-1.4.367.713.768 1.21 1.203 1.49.435.28.991.403 1.67.369h5.339c.258 0 .543.042.855.127.489.119.941.34 1.355.662.414.323.774.714 1.08 1.172.306.459.543.977.713 1.554s.255 1.188.255 1.834c0 .73-.112 1.418-.336 2.063a5.665 5.665 0 01-.917 1.693c-.388.484-.839.866-1.355 1.146s-1.066.42-1.65.42h-12.816V64.413h12.816c.584 0 1.134.14 1.65.42s.968.658 1.355 1.134c.387.476.692 1.04.917 1.693.224.654.336 1.346.336 2.076 0 .577-.058 1.104-.173 1.579a5.928 5.928 0 01-.561 1.426c-.367-.543-.758-.972-1.172-1.286a3.928 3.928 0 00-1.456-.675zm-6.235 4.28c-3.45 0-5.691.747-6.724 2.241a.985.985 0 01.244-.229 3.613 3.613 0 01.571-.432 7.366 7.366 0 012.119-.777c.38-.076.76-.14 1.141-.19a22.484 22.484 0 012.648-.153V77.329l-1.405.407H151.526c.367 0 .635-.102.805-.306.17-.203.255-.543.255-1.019 0-.899-.354-1.35-1.06-1.35h-5.338zM164.424 77.733a4.71 4.71 0 01-.254 1.566c-.17.485-.397.904-.683 1.261a3.36 3.36 0 01-1.009.854 2.56 2.56 0 01-1.253.318h-4.259V64.387H169.762c.584 0 1.138.14 1.661.42.522.28.975.662 1.354 1.146.38.483.683 1.053.907 1.706.224.654.336 1.346.336 2.076a6.25 6.25 0 01-.336 2.063 5.81 5.81 0 01-.907 1.694 4.31 4.31 0 01-1.354 1.146 3.47 3.47 0 01-1.661.421h-3.2a22.081 22.081 0 003.342.356 45.068 45.068 0 014.116 6.316h-5.176a40.218 40.218 0 00-2.078-3.477 46.16 46.16 0 00-2.344-3.196c-.435 0-.872-.009-1.313-.025-.442-.018-.88-.06-1.314-.128a9.872 9.872 0 01-1.151-.165 7.678 7.678 0 01-1.11-.318c-.177-.068-.35-.141-.52-.217s-.337-.166-.499-.268a2.965 2.965 0 01-.571-.407l-.244-.229c1.019 1.478 3.26 2.216 6.724 2.216v2.216zm0-7.131c-.625 0-1.147.141-1.568.421s-.809.76-1.161 1.438c.394-.492.805-.849 1.232-1.069s.927-.331 1.497-.331h5.339c.38 0 .652-.102.815-.306s.244-.543.244-1.019-.081-.819-.244-1.032c-.163-.212-.436-.318-.815-.318h-6.724l1.385.408V70.602zM177.108 81.415a3.36 3.36 0 01-1.02-.867 4.282 4.282 0 01-.692-1.273 4.61 4.61 0 01-.255-1.541V64.388h16.015c0 .56-.085 1.082-.255 1.566-.17.483-.4.903-.692 1.261a3.466 3.466 0 01-1.019.853 2.524 2.524 0 01-1.233.319h-5.338c-.57.017-1.07-.084-1.498-.306-.428-.22-.839-.586-1.232-1.095.353.679.74 1.163 1.161 1.451.421.289.944.425 1.569.408V70.654l-1.406.407h8.863c0 .561-.085 1.082-.254 1.567a4.263 4.263 0 01-.683 1.26 3.372 3.372 0 01-1.009.854 2.57 2.57 0 01-1.253.318h-4.259c-.896 0-1.78-.052-2.649-.153a18.09 18.09 0 01-1.141-.19 7.602 7.602 0 01-1.121-.318 4.137 4.137 0 01-.998-.459 1.603 1.603 0 01-.296-.178 5.04 5.04 0 01-.274-.229l-.245-.229c1.019 1.478 3.261 2.216 6.725 2.216v1.809l-1.406.407h6.622c.448 0 .866.106 1.253.318.388.213.724.497 1.009.854s.513.776.683 1.261.255 1.006.255 1.566H178.341a2.564 2.564 0 01-1.233-.32z"/><g><path d="M149.507 123.414v56.792l.364 1.838.574 1.568.755 1.326.443.594.495.515.547.433.6.405 1.329.622 1.538.352 1.693.136h1.017l1.146-.081 1.068-.162 1.043-.325.964-.405.912-.541.886-.677.808-.783.73-.893v-56.791l-.365-1.839-.573-1.568-.756-1.325-.443-.595-.495-.514-.547-.433-.6-.406-1.329-.622-1.511-.352-1.721-.135h-1.016l-1.146.081-1.069.163-1.016.324-.99.405-.912.542-.86.676-.808.784-.755.891zm10.085-23.717h1.173v.433l-1.407.784-1.303.974-1.251 1.136-1.146 1.298-1.095 1.514-1.017 1.65-.938 1.839-.834 2.028-.443 1.46-.391 1.73-.313 2.002-.26 2.271v.542h.234l.208-1.407.417-1.487.651-1.568.86-1.623 1.095-1.677 1.303-1.785 1.563-1.812 1.746-1.92 1.355-.919 1.354-.784 1.329-.677 1.329-.541 1.329-.433 1.303-.297 1.303-.19 1.277-.054 1.095.054 1.068.163 1.068.297 1.042.378 1.043.514 1.042.649 1.017.73 1.017.865 1.016.946.99 1.109.965 1.19.99 1.298 1.902 2.975 1.876 3.435.912 2.515.678 2.596.391 2.677.131 2.759v52.409l-.079 2.299-.208 2.191-.339 2.109-.469 2.001-.626 1.947-.756 1.839-.886 1.73-1.017 1.677-1.172 1.568-1.277 1.46-1.459 1.406-1.563 1.299-1.694 1.217-1.85 1.136-1.981 1.027-2.11.947-3.049 1-3.127.703-3.258.405-3.362.136h-1.172v-.46l1.407-.784 1.303-.946 1.251-1.136 1.173-1.299 1.068-1.514 1.017-1.649.938-1.84.86-2.027.442-1.461.365-1.73.313-2.001.261-2.272v-.541h-.234l-.209 1.407-.416 1.487-.652 1.568-.859 1.622-1.095 1.677-1.303 1.785-1.538 1.812-1.746 1.92-1.354.92-1.355.784-1.354.677-1.304.54-1.329.433-1.303.298-1.303.189-1.303.054-1.095-.054-1.068-.162-1.068-.298-1.043-.379-1.042-.514-1.042-.648-1.017-.73-1.017-.865-.99-.946-.99-1.109-.99-1.189-.964-1.299-1.902-2.975-1.877-3.435-.938-2.515-.652-2.596-.391-2.678-.13-2.758v-52.411l.078-2.299.208-2.19.339-2.109.47-2 .625-1.948.729-1.839.887-1.73 1.042-1.677 1.146-1.569 1.303-1.46 1.434-1.406 1.59-1.298 1.693-1.217 1.851-1.136 1.98-1.027 2.11-.947 3.049-1 3.128-.703 3.231-.405 3.362-.135zM87.291 99.765h22.281l.104.081.209.216.547.893 1.85 3.569 2.84 5.95 3.831 8.329v70.854h9.329l.339.162.105.298v17.361l-.105.352-.339.108H84.32l-.339-.108-.104-.352v-17.361l.156-.353.287-.107h14.828v-69.502l.208-.162.574-.189 2.293-.46 3.804-.595 5.369-.703v-.216H84.815v-.244l.782-7.789.677-5.57.574-3.353.234-.812.105-.216z"/></g></g></g></switch></svg>