<svg xmlns="http://www.w3.org/2000/svg" width="80" height="80" viewBox="232.049 161.486 80 80"><path fill="none" d="M312.049 221.698v-7.408l-6.381 4.797zM309.2 201.934l-2.514 10.134 2.521-10.128z"/><path fill="none" d="M305.668 219.087l-.013-.014-.018.014-.016-.016-2.638-2.715.015-.018-3.393-3.499-2.977-.093-6.294 8.808-2.005-2.668-5.316-4.545-.005.008 5.305 4.537 2.006 2.668-.91 4.982 11.677 3.579 4.858-2.993-.276-8.035z"/><path fill="none" d="M306.311 194.335a37.72 37.72 0 01-.15.642c-.062.293-8.299 5.183-8.299 5.183l-3.038 9.826-4.628 2.129-1.142 2.128-6.037.092 6.052-.093 1.142-2.128 4.643-2.129 3.023-9.811 3.548-.2 5.235 12.038 2.523-10.156 2.864 2.972v-13.791l-5.888 3.97.152-.672zM276.808 216.989l-.216 2.807.339 9.009 4.597-4.983 7.882 2.715-5.599-6.771zM269.372 233.633l2.175 3.625 7.451-2.406 4.242.586 2.623-4.165-8.932-2.468zM289.533 233.895l-.28 7.591h6.096l-2.159-5.755zM285.739 176.636l8.577-9.764 4.118-1.743 5.873-3.643h-20.775l-9.239 2.964zM248.46 161.486h-8.523l.945 3.057zM245.695 176.359l-2.747 1.542.803 3.486 10.058-.385-2.515 10.149 19.683 3.98 11.214-2.128-.108-5.137-10.536 1.157-16.011-15.086-1.472-12.451h-1.816l-6.553 9.057zM309.432 165.808l2.617-.982v-3.34h-4.38l.961.249zM301.658 176.517l9.486.644.905-.784v-5.583l-6.288-1.114zM235.051 239.047l.108-1.928 15.164-2.761 1.373 4.304 7.388-2.129 5.029-8.993-7.559.771-5.137-3.193-1.835 4.458-14.932-.972 16.767-3.486-4.242-3.285-12.355-1.265-.679-12.958 17.153-16.459h-9.61l-8.931 6.001-.704-17.566v61.9h14.566l1.084-3.009z"/><path fill="none" d="M253.793 199.157l-5.584 9.703v2.422l9.502 3.871 4.288-5.799 5.09 2.992-10.181-6zM288.376 206.053l-17.276-5.029-.925 8.715 12.833 4.613.002-.002-.017-.014.025-.001 5.358-8.267zM284.597 198.031l3.656-1.449.122 9.368-.106-9.368 9.162.539 7.435-9.579 3.066-.475.004-.019-6.301-10.496-8.924 9.663zM278.535 178.102l-4.119 2.021 7.667 7.743 3.656-11.23zM253.793 199.156v.001l17.307 1.867zM304.742 239.988l.43 1.498h6.877v-3.337z"/><path opacity=".5" fill="#1D1D1B" d="M292.711 186.215l8.924-9.663-.019-.031-4.092-3.648.91-7.744-4.118 1.743-8.577 9.764-3.656 11.23.108 5.137 2.406 5.028zM262.277 166.872l12.016-2.422 9.239-2.964h-29.468l1.472 12.451z"/><path opacity=".5" fill="#1D1D1B" d="M288.376 206.053l-.001-.103-.122-9.368-3.656 1.449-2.406-5.028-11.214 2.128.123 5.893zM276.592 219.796l-3.332.293-3.193-1.542-18.65 6.571 5.137 3.193 7.559-.771-5.029 8.993 7.435-4.35 2.853 1.45 7.559-4.828zM249.582 229.576l1.835-4.458-16.767 3.486zM312.049 238.149v-1.312l-10.962-6.721-7.897 5.615 2.159 5.755h9.823l-.43-1.498z"/><path opacity=".25" fill="#1D1D1B" d="M278.535 178.102l7.204-1.466-30.203-2.699 16.011 15.086 10.536-1.157-7.667-7.743zM233.284 161.486l-1.235 1.233v.014l1.25-1.247zM239.937 161.486h-6.622c-.421.422-.845.842-1.266 1.263v14.646l8.833-12.852-.945-3.057zM243.751 181.387l-10.998 15.765 8.931-6.001h9.61l2.515-10.149zM253.793 199.157l3.115 7.189 10.181 6 3.086-2.607.925-8.715zM248.209 208.86l5.584-9.703v-.001l-.555-.06-1.944-7.945-17.153 16.459.679 12.958 13.389-9.286zM259.084 236.533l-7.388 2.129-5.04 2.824h10.953l-.422-1.266zM271.547 237.258l-2.452 1.558-3.502.293-.539 2.377h9.686l2.129-2.146zM293.19 235.731l7.897-5.615-11.677-3.579-3.547 4.736-2.623 4.165-1.646 6.048h7.659l.28-7.591zM305.946 227.124l6.103 2.924v-8.35l-6.381-2.611z"/><path opacity=".2" fill="#1D1D1B" d="M257.711 215.153l-9.502-3.871-13.389 9.286 12.355 1.265 4.242-5.229zM278.998 234.852l-7.451 2.406 5.322 2.082-2.129 2.146h6.854l1.646-6.048zM276.931 228.805l8.932 2.468 3.547-4.736-7.882-2.715zM301.087 230.116l10.962 6.721v-6.789l-6.103-2.924zM302.998 216.339l3.658-4.301.005-.025-5.235-12.038-3.548.2 1.728 12.665zM283.01 214.35l.004-.009-.006-.005h.01v-.001l-.025.001z"/><path opacity=".2" fill="#1D1D1B" d="M297.431 197.121l-9.162-.54.106 9.369.001.103v.015l-5.358 8.268 6.037-.092 1.142-2.128 4.628-2.129 3.038-9.826s8.237-4.89 8.299-5.183c.012-.044.069-.288.15-.642l1.621-7.268-3.065.475-7.437 9.578zM288.315 218.886l-5.305-4.536-.002.002-12.833-4.613 6.633 7.25 7.003 2.777 5.599 6.771.911-4.982z"/><path opacity=".5" fill="#1D1D1B" d="M288.375 205.95l.001.103z"/><path opacity=".2" fill="#1D1D1B" d="M288.375 205.95l.001.103z"/><path fill="#1D1D1B" d="M274.293 164.45l-12.016 2.422-6.741 7.065 30.203 2.699zM297.524 172.873l4.092 3.648-.004-.008.046.004 4.103-6.837 6.288 1.114v-5.968l-2.617.982-.802-4.073-.961-.249h-3.362l-5.873 3.643zM232.049 161.486v1.233l1.235-1.233z"/><path d="M233.299 161.486l-1.25 1.247v.016c.421-.421.845-.841 1.266-1.263h-.016z"/><path fill="#1D1D1B" d="M243.751 181.387l-.803-3.486 2.747-1.542v-5.816l6.553-9.057h-3.788l-7.578 3.057-8.833 12.852v2.191l.704 17.566zM253.793 199.156l17.307 1.868-.123-5.893-19.683-3.98 1.944 7.945zM273.26 220.089l3.332-.293.216-2.807-6.633-7.25-3.086 2.607-5.09-2.992-4.288 5.799-6.294 1.451-4.242 5.229 4.242 3.285 18.65-6.571zM269.095 238.816l2.452-1.558-2.175-3.625-2.853-1.45-7.435 4.35-1.897 3.687.422 1.266h7.445l.539-2.377zM250.323 234.358l-15.164 2.761-.108 1.928 12.648-.57-1.084 3.009h.041l5.04-2.824zM306.686 212.068l-3.64 4.304 2.607 2.684 6.396-4.797v-9.378l-2.842-2.941zM305.668 219.087l6.381-4.797v-.003l-6.394 4.787.013.013z"/><path d="M306.661 212.013l-.006.025-3.657 4.301-.015.018 2.638 2.715.016.016a.22.22 0 00.018-.014l6.394-4.787v-.028l-6.396 4.797-2.606-2.684 3.64-4.304 2.515-10.134.007.006 2.842 2.94v-.052l-2.864-2.972-2.526 10.157z"/><path fill="#1D1D1B" d="M283.014 214.341l5.316 4.545 2.005 2.669 6.294-8.808 2.977.093-1.728-12.665-3.023 9.811-4.643 2.129-1.141 2.128-6.053.093h-.01zM301.673 176.575l6.293 10.489-1.773 7.898 5.856-3.954v-14.575l-.89.774z"/><path d="M301.658 176.517l-.047-.003.005.008.018.03 6.301 10.497-.004.019-1.621 7.268-.15.673 5.888-3.97v-.03l-5.856 3.954 1.773-7.898-6.293-10.489 9.486.632.89-.774v-.056l-.905.783-9.485-.644z"/></svg>