<svg xmlns="http://www.w3.org/2000/svg" width="273.844" height="338.293" viewBox="308.915 312.57 273.844 338.293"><path fill="none" d="M576.181 388.763l.158-.087c-1.917-7.664-4.454-13.989-7.099-19.113l-.197.374c3.258 6.447 5.545 12.874 7.138 18.826zM525.741 478.71l.193.513c.358-4.721.643-8.731.822-11.338l-.249.175a1519.27 1519.27 0 01-.766 10.65zM547.815 344.566l-.016-.333c-.223-.129-.449-.255-.676-.383.19.198.418.436.692.716zM403.297 320.323s3.564-.864 7.035-1.064h8.079l-.322-.57h-7.482c-3.471.2-7.034 1.064-7.034 1.064-12.212 7.723-30.229 13.702-39.143 16.388l-.311.581c8.9-2.681 26.95-8.666 39.178-16.399zM468.327 319.259l-.438-.571h-10.68v.571zM322.855 369.563a75.598 75.598 0 00-.903 1.802c.302-.612.605-1.208.911-1.787l-.008-.015zM522.473 334.653s14.24 3.989 24.717 9.96c-.131-.34-.272-.661-.423-.965-10.398-5.753-24.019-9.566-24.019-9.566-7.834-1.589-16.464-5.208-22.834-8.25l-.292.562c6.372 3.044 15.01 6.668 22.851 8.259zM522.068 565.441l.319.113c-1.382-21.62-.263-43.726.001-48.336l-.225-.267c-.057.91-1.547 24.874-.095 48.49zM533.208 445.14a116.034 116.034 0 01-.138 3.014c.183 1.874.369 3.94.515 5.6a285.397 285.397 0 00-.329-4.751c-.014-1.354-.03-2.63-.048-3.863zM528.469 614.605l-.354.051a921.851 921.851 0 002.442 14.961s1.449 3.67.863 5.213c0 0-.112.53-.479 1.352.589-1.14.755-1.922.755-1.922.586-1.543-.864-5.214-.864-5.214a914.985 914.985 0 01-2.363-14.441zM358.583 435.021a161.84 161.84 0 00.167 13.703 697.329 697.329 0 00-.787 8.775c-.17 2.956-.169 4.842-.139 5.91l.293-.093c-.043-.93-.078-2.927.12-6.388 0 0 .401-4.828.787-8.776 0 0-.379-6.013-.186-13.046l-.255-.085zM529.014 435.627s-.216 4.03-.613 9.748l.262-.391c.406-5.812.627-9.928.627-9.928.688-6.314 2.181-10.185 2.757-11.494-.014.021-.026.044-.04.064-.001.001-2.13 4.089-2.993 12.001zM534.005 462.404c-.006.377-.017.679-.027.913l.058.019-.031-.932zM532.416 422.963l-.005.009.062.098.004-.01z"/><path opacity=".5" fill="#1D1D1B" d="M522.643 573.021s1.582 16.18 5.143 39.503l.38.112c-3.633-23.688-5.247-40.187-5.247-40.187-.17-1.847-.315-3.712-.443-5.583l-.298.244c.133 1.982.285 3.957.465 5.911zM528.115 614.656l.354-.051-.259-1.68-.381-.119.286 1.85z"/><path opacity=".5" fill="#1D1D1B" d="M527.829 612.807l.381.119-.045-.289-.38-.112.044.282z"/><path opacity=".5" fill="#1D1D1B" d="M527.829 612.807l.381.119-.045-.289-.38-.112.044.282z"/><path opacity=".25" fill="#1D1D1B" d="M436.869 319.259v-.571h-18.78l.322.571zM522.177 567.111l.298-.244c-.03-.438-.06-.875-.088-1.313l-.319-.113c.034.557.072 1.114.109 1.67z"/><path opacity=".2" fill="#1D1D1B" d="M522.166 516.904l-.003.048.225.267c.032-.57.053-.886.053-.886 1.331-10.151 2.63-25.714 3.494-37.11l-.193-.513c-.863 11.476-2.203 27.721-3.576 38.194zM526.699 465.229s-.068 1.044-.191 2.831l.249-.175c.141-2.04.218-3.227.218-3.227.717-6.676 1.291-13.986 1.688-19.674l-.262.391c-.398 5.712-.976 13.108-1.702 19.854z"/><path fill="#1D1D1B" d="M482.739 319.259s5.969 1.064 7.42 2.221c0 0 3.819 2.213 9.39 4.878l.292-.562c-5.58-2.669-9.407-4.886-9.407-4.886-1.45-1.157-7.42-2.221-7.42-2.221h-15.03l.439.57h14.316z"/><path d="M468.388 319.259l-.439-.571h-.06l.438.571zM499.622 326.394l.292-.562-.027-.013-.292.562.027.013zM468.422 319.259l-.439-.571h-.034l.439.571zM499.595 326.381l.292-.562-.047-.023-.292.562.047.023z"/><path fill="#1D1D1B" d="M345.252 343.862s7.127-3.471 13.498-5.599c0 0 2.017-.533 5.272-1.513l.312-.581c-3.278.986-5.31 1.523-5.31 1.523-6.371 2.128-13.497 5.599-13.497 5.599a9.153 9.153 0 00-.277.542l.002-.002v.031z"/><path d="M364.119 336.721l.311-.581-.057.017-.311.581.057-.017z"/><path d="M364.063 336.738l.311-.581-.039.012-.312.581.04-.012z"/><path opacity=".5" fill="#1D1D1B" d="M345.22 343.866c.098-.209.2-.412.308-.605 0 0-1.659 1.798-3.966 3.981l.301.021a91.916 91.916 0 003.357-3.397z"/><path opacity=".25" fill="#1D1D1B" d="M328.741 360.227l-.116-.047c-1.844 2.513-3.833 5.629-5.771 9.384l.008.015c1.988-3.777 4.017-6.869 5.879-9.352z"/><path opacity=".2" fill="#1D1D1B" d="M357.858 464.182c.101-.073.208-.141.303-.218 0 0-.022-.204-.043-.646l-.293.093c.009.334.022.59.033.771z"/><path fill="#1D1D1B" d="M336.198 352.207c2.022-1.546 4.044-3.383 5.665-4.944l-.301-.021c-1.512 1.431-3.299 3.026-5.089 4.395 0 0-3.51 2.626-7.848 8.542l.116.047c4.156-5.542 7.457-8.019 7.457-8.019zM359.428 424.814c-.488 3.237-.735 6.82-.845 10.207l.256.086c.099-3.576.344-7.416.864-10.863 0 0-.038-.197-.012-.433-.383.355-.263 1.003-.263 1.003z"/><path opacity=".5" fill="#1D1D1B" d="M546.568 343.261c.069.124.134.257.199.388.12.066.237.135.356.201-.35-.368-.555-.589-.555-.589zM550.229 347.264l.305-.021a99.423 99.423 0 01-2.719-2.676l.022.518c.831.747 1.624 1.471 2.392 2.179z"/><path opacity=".5" fill="#1D1D1B" d="M547.51 344.794v-.007l.327.296-.022-.518a93.58 93.58 0 01-.691-.716c-.119-.066-.236-.135-.356-.201.15.304.292.625.423.965.105.061.214.12.319.181zM582.247 454.802a1.082 1.082 0 01-.119-.316c-.05.203-.115.396-.188.584.206-.173.307-.268.307-.268zM581.279 439.945a19.11 19.11 0 01-.004-.184l-.04-.436.044.62z"/><path opacity=".25" fill="#1D1D1B" d="M564.137 361.416a87.052 87.052 0 014.906 8.521l.197-.374c-1.938-3.755-3.927-6.871-5.77-9.384l-.298.12c.639.723.965 1.117.965 1.117zM579.867 419.164l.021-.025-.063-.695-.047-1.243c-.008.218-.015.333-.015.333l.104 1.63z"/><path opacity=".2" fill="#1D1D1B" d="M533.978 463.317c-.021.442-.043.646-.043.646.038.031.083.058.122.088l-.021-.716-.058-.018zM532.416 422.963l.061.097c.047-.138.091-.283.139-.419-.067.113-.133.213-.2.322z"/><path fill="#1D1D1B" d="M563.173 360.299l.298-.12c-4.339-5.917-7.849-8.542-7.849-8.542-1.79-1.368-3.577-2.963-5.089-4.395l-.305.021c6.855 6.326 11.159 11.01 12.945 13.036zM578.257 398.23a107 107 0 00-1.918-9.555l-.158.087a107.99 107.99 0 012.076 9.468zM580.201 424.296c.15 2.276.304 4.549.456 6.765-.184-3.594-.246-6.246-.246-6.246l-.21-.519z"/><path fill="#1D1D1B" d="M580.201 424.296l.21.519-.517-5.618-.023.027c.107 1.676.217 3.375.33 5.072z"/><path d="M579.87 419.207l.022-.027-.004-.041-.021.025.003.043zM579.871 419.224l.024-.028-.001-.011-.024.026z"/><path d="M579.87 419.211l.024-.026-.001-.005-.023.027z"/><path fill="#1D1D1B" d="M532.473 423.07l-.062-.099-.206.333a.764.764 0 01.121.21c.049-.148.097-.298.147-.444z"/><path fill="none" d="M346.268 405.764l6.023-.735a113.37 113.37 0 01-1.282-3.429l-4.741 4.164zM325.058 404.715l-11.458-4.903-.001.006zM578.496 399.818l-.001-.006-11.458 4.903zM355.693 429.288l-7.806 1.403-2.684 2.915-8.934-2.463-.007.005.005.009 8.936 2.465 2.684-2.899 7.79-1.405 4.649-7.364-.005-.01zM544.07 420.233l11.757 10.909.013-.004-.006.01.006.006 16.587-12.867.025-.059.03.015h.001l-5.445-13.528-22.968 15.518zM360.042 344.341l-.017.019 6.557 24.399 33.721-15.718 34.907-4.072-16.799-29.709h-8.079c-3.471.2-7.035 1.064-7.035 1.064-12.229 7.733-30.278 13.718-39.178 16.398l-4.077 7.619zM336.604 465.251l.036.006-.028-.028-.008.022zM324.302 437.14l-.041-.008-3.738 14.508 9.086-5.97 10.304 7.743-5.028-13.25-8.923-7.418c-.555 1.46-1.106 2.935-1.66 4.395zM547.983 347.422c-.023-.118-.049-.231-.074-.347.133 4.248.28 12.73-.219 21.758.099-.799.191-1.597.277-2.392.775-7.185 1.005-14.113.016-19.019zM332.478 459.46l-11.955-7.82-10.342 3.45c1.362 1.137 7.025 5.414 18.057 8.387l4.24-4.017z"/><path fill="none" d="M355.338 464.195l2.486-.785c-.03-1.068-.031-2.954.139-5.91 0 0 .4-4.828.787-8.775 0 0-.403-6.392-.167-13.703l-1.595-.535-13.39 11.368-.003-.01-3.684 7.568 15.427 10.782zM566.134 432.745l-8.923 7.418-5.028 13.25 10.304-7.743 9.086 5.97-3.738-14.508-.041.008c-.554-1.46-1.106-2.935-1.66-4.395zM344.776 371.692l-5.002 1.047 7.604 15.688.255-.391c-.967-4.696-2.04-10.462-2.857-16.344zM348.026 420.233l-22.968-15.519-5.445 13.528h.001l.03-.015.025.059 16.587 12.867.006-.006-.006-.01.013.004 11.757-10.908zM368.665 448.785l-4.109 3.186c.702 8.413 1.488 17.72 2.241 26.6l26.935-29.785h-25.067zM545.196 388.346l-.253.906 2.026 7.427 17.462-1.45 11.75-6.466c-1.593-5.952-3.88-12.378-7.138-18.826l-8.33 15.79-15.517 2.619zM451.145 616.829l-.679-11.569 1.342 23.138 32.825 2.33-19.251-20.223z"/><path fill="none" d="M559.617 459.46l4.24 4.017c11.031-2.973 16.694-7.25 18.057-8.387l-10.342-3.45-11.955 7.82zM408.355 494.491l-8.129-21.642-14.547 29.2v7.281l24.758 11.631 11.195-17.456zM446.548 587.475l19.436-7.25 11.045 1.758 6.864-12.525-23.323-7.45-19.683 14.546z"/><path fill="none" d="M511.936 513.727l-16.405 26.472.008.013-2.391 14.994-14.623-20.377-18.248-8.33-.602 8.438.895 27.072 11.985-14.947 20.577 8.145 28.936 10.236c-1.451-23.616.038-47.58.096-48.489l-2.469-2.933-7.759-.294zM524.461 475.317l1.28 3.393c.339-4.503.603-8.253.767-10.65-5.56 3.909-11.287 7.828-11.287 7.828l9.24-.571zM442.969 504.672l33.457 13.867.006-.01-.006-.006h.009l13.982-24.912-45.057-15.132zM400.224 472.841l.002.008 45.134 5.63zM474.298 454.323l-.293-15.426-27.457 3.487-41.772-45.397-4.473-43.946-21.195 33.766v17.461l-7.158 4.658 2.083 10.474 26.27-1.171-6.571 30.556 51.319 11.94zM431.029 593.003l9.102-.87-9.101.864zM507.308 505.428l-12.078 6.401-1.392 2.992 1.392-2.976zM492.244 518.23l-15.525.289 15.519-.273zM502.989 582.847l-9.548-5.522-.895 27.642 5.368 5.245-9.857 5.815-3.424 14.701 23.122-4.798 5.259-17.728-1.973-.613zM539.451 405.902c.11-.274.219-.553.328-.831l.018-.044c.438-1.118.867-2.265 1.283-3.434.327-.922.647-1.855.953-2.802 0 0 1.112-4.392 2.425-10.764.132-.641.266-1.302.4-1.981l-9.091-1.863-10.709 20.602 14.393 1.117zM532.377 422.901l-.005.009.039.062.005-.009zM531.885 422.12l-.11-.176-.006.01.136.215zM555.826 431.143l-8.934 2.463-2.684-2.915-7.805-1.403-3.926-6.228-.004.01 3.945 6.248 7.79 1.405 2.684 2.899 8.936-2.465.005-.009zM555.455 465.257l.036-.006-.008-.022-.028.028zM539.292 406.295l.119-.294-12.634-.984 12.515 1.278z"/><path fill="none" d="M541.08 401.594a120.509 120.509 0 01-1.283 3.434l.246.03c.391-1.142.769-2.273 1.13-3.382l-.093-.082z"/><path fill="none" d="M541.173 401.676c-.361 1.108-.739 2.24-1.13 3.382l5.784.706-4.654-4.088zM545.613 386.58l6.709-13.841-4.813-1.007c-.354 4.992-.925 10.022-1.82 14.485-.026.122-.052.241-.076.363z"/><path fill="none" d="M544.458 388.028l.259.398.896-1.847c.024-.122.051-.24.076-.363l-.83-.17a284.3 284.3 0 01-.401 1.982z"/><path fill="none" d="M544.717 388.426l.226.826.253-.906-.479.08zM454.014 415.621l19.991 23.276 9.548-33.765-18.804 4.365zM457.209 318.688v-5.618h-20.34v5.618h16.167zM344.112 347.422c-.481 2.392-.675 5.264-.656 8.414-.027-4.953.47-9.219 1.795-12.003l-.03.032c-.473 1.008-.837 2.206-1.109 3.557zM578.496 399.818c.479 3.403.838 7.001 1.036 10.82l.246 6.562c.062-1.612.208-8.979-1.521-18.97.081.524.163 1.047.238 1.581l.001.007zM381.499 600.277l2.838-9.162-16.901.894c-2.278 19.719-4.895 33.073-4.895 33.073a116.24 116.24 0 01-.949 5.191c4.944-2.008 9.889-4.02 14.838-6.021l5.069-23.975zM533.256 435.107c-.098-3.576-.344-7.416-.864-10.863 0 0 .073-.389-.065-.729-.07.212-.145.416-.211.636 0 0 .262.803.631 3.596 0 0 .301 6.233.462 17.394.083-2.423.156-6.064.047-10.034zM580.74 432.582l.003.044c.121 2.115.281 4.439.492 6.7-.183-2.57-.378-5.365-.577-8.266a228.005 228.005 0 00.082 1.522zM563.858 463.477a80.631 80.631 0 01-8.366 1.774l-.036.006c-3.484.551-7.34.947-11.587 1.113 0 0-.643.019-1.62-.031-1.619-.082-4.162-.354-6.271-1.209-.708-.288-1.362-.644-1.92-1.078l.002.067s.939 2.822 7.018 2.744c0 0 16.846 1.65 38.533-8.9 0 0 1.628-1.088 2.33-2.894l-.025.021c-1.364 1.137-7.027 5.414-18.058 8.387z"/><path fill="none" d="M534.035 463.336l2.722.859 15.426-10.782-3.684-7.568-.003.01-13.39-11.368-1.851.621a165.2 165.2 0 01-.048 10.032c.018 1.233.034 2.51.048 3.862 0 0 .151 1.876.329 4.751.161 1.839.272 3.177.272 3.177.148 2.588.166 4.356.147 5.475.013.308.023.618.032.931zM315.756 388.676l11.908 6.553 17.462 1.45 2.252-8.252-15.996-2.7-8.52-16.148a74.1 74.1 0 00-.911 1.787c-2.314 4.782-4.498 10.523-6.195 17.31zM582.128 454.485a4.367 4.367 0 00.089-1.659s-.405-5.395-.938-12.881c.035 1.531.297 12.396.849 14.54zM394.781 591.686l19.251-6.401 13.127-27.056-19.698 2.313-13.436-9.595-4.767 13.39-19.266-1.443a508.969 508.969 0 01-1.645 20.639l22.854-4.788 3.58 12.941z"/><path fill="none" d="M533.858 456.93s-.111-1.338-.272-3.177c.146 2.366.309 5.408.42 8.651.018-1.118 0-2.886-.148-5.474zM531.143 423.041s.229-.383.626-1.087l.006-.01.023-.043-6.575-16.579-.228-.438-23.24 29.063-21.194 35.509 9.548-4.365.309 28.521-.293-28.521 23.909 1.636 14.367-21.351c.397-5.718.613-9.748.613-9.748.863-7.912 2.992-12 2.992-12 .014-.021.026-.044.04-.064.049-.112.093-.209.128-.284-.181-.198-.488-.326-1.031-.239zM455.803 339.065l-8.36-3.779-12.232 13.682 56.996 5.229-38.501 14.269 29.848 36.666 22.382-29.385 10.736-5.245 17.909-12.803 8.653 2.623 2.082 12.217 2.002-.867c.132-.944.256-1.892.372-2.838.499-9.028.352-17.51.219-21.758a16.89 16.89 0 00-.719-2.462c-10.477-5.972-24.717-9.96-24.717-9.96-7.841-1.591-16.479-5.214-22.851-8.259-3.471 6.675-6.941 13.347-10.408 20.029l-.031-.046-20.855-27.118H457.21v-.57h-4.173l2.766 20.375zM530.557 629.617a921.851 921.851 0 01-2.442-14.961l-5.442.784-7.451 16.891-5.288 14.468c10.011-1.635 13.464-3.963 13.464-3.963 4.447-1.921 6.572-4.774 7.544-6.654.367-.821.479-1.352.479-1.352.585-1.543-.864-5.213-.864-5.213zM479.681 648.914h-52.416V614.87c2.112 2.358 4.208 4.717 6.336 7.06l4.478-5.902-5.368-5.091-3.455-8.962.098-.527-.113.573-6.263-.293-11.045 4.52-6.108.432-4.488 4.798-.139 14.269-24.728-1.463 19.633 24.022c48.155 3.331 95.193.022 95.193.022 3.88-.075 7.332-.263 10.397-.524l-17.061-17.075-4.951 18.185z"/><path fill="none" d="M523.397 642.836s-3.453 2.328-13.464 3.963a109 109 0 01-8.239 1.004c-3.065.262-6.518.449-10.397.524 0 0-47.038 3.309-95.193-.022l-.065-.004a507.929 507.929 0 01-7.32-.56s-26.408-1.45-27.766-14.562c0 0 .266-1.102.619-2.809l.013-.06.008-.038c.292-1.417.64-3.234.949-5.191 0 0 2.616-13.354 4.895-33.073.313-2.711.619-5.543.912-8.477a508.823 508.823 0 001.645-20.639c.122-2.064.229-4.155.325-6.265a411.59 411.59 0 00.424-17.021 335.534 335.534 0 00-.399-18.004 291.96 291.96 0 00-.273-4.7s-1.551-18.047-3.271-38.333c-.753-8.88-1.539-18.187-2.241-26.6l-.133-1.597s-.192-6.531-.913-13.548c-.526-5.117-1.334-10.493-2.558-13.785-.976-.156-1.216.365-1.261.771.187-.172.481-.28.986-.2 2.9 7.805 3.471 27.334 3.471 27.334 2.313 27.766 5.645 66.529 5.645 66.529 3.471 52.061-7.527 108.178-7.527 108.178a114.528 114.528 0 01-1.588 8.098c1.357 13.111 27.766 14.563 27.766 14.563 50.609 4.242 102.578.586 102.578.586 24.68-.479 32.1-5.492 32.1-5.492 4.927-2.127 7.004-5.398 7.819-7.225-.975 1.881-3.1 4.734-7.547 6.655zM356.118 465.13c-2.109.855-4.652 1.127-6.271 1.209-.978.05-1.62.031-1.62.031a99.093 99.093 0 01-11.587-1.113l-.036-.006a80.95 80.95 0 01-8.366-1.774c-11.031-2.973-16.694-7.25-18.057-8.387-.221-.184-.333-.288-.333-.288.679-.973.973-15.04.973-15.04.231-2.395.403-4.885.532-7.136l.003-.044.001-.015c.246-4.335.327-7.753.327-7.753l.517-5.618.001-.012.001-.005.003-.041.064-.695.293-7.805c.198-3.819.558-7.417 1.036-10.82l.001-.007a107.96 107.96 0 012.156-11.136c1.697-6.787 3.881-12.528 6.195-17.311-4.6 9.315-8.756 22.357-9.664 39.844l-.293 7.805-.586 6.371s-.184 7.914-.863 14.947c0 0-.293 14.068-.973 15.041 0 0 11.184 10.504 38.379 11.568 0 0 6.756.201 9.934-2.406 0 0-.013-.114-.027-.354a8.234 8.234 0 01-1.74.95zM532.046 423.563c.053-.082.106-.174.159-.258-.008-.01-.022-.017-.031-.026a11.24 11.24 0 00-.128.284z"/><path fill="none" d="M382.995 541.044l-12.254-1.437a411.502 411.502 0 01-.424 17.021l23.707-5.682-11.029-9.902z"/><path opacity=".5" fill="#1D1D1B" d="M474.298 454.323l6.263 15.132 21.194-35.509 23.24-29.062-.055-.107.034.003-10.693-11.001 2.39-23.277-10.736 5.245-22.382 29.385-9.548 33.765zM404.776 396.987l17.6-21.24 31.329-7.281 38.501-14.269-56.996-5.229-34.907 4.073z"/><path opacity=".5" fill="#1D1D1B" d="M445.051 460.725l.309 17.754 45.057 15.132-.308-28.521-9.548 4.365-6.263-15.132zM440.887 576.554l19.683-14.546-.895-27.072-8.654.879-8.345-4.658-48.651 19.79 13.435 9.595 19.698-2.313-13.127 27.055 19.39-13.096zM394.025 550.947l-23.707 5.682c-.096 2.109-.203 4.2-.325 6.265l19.266 1.443 4.766-13.39zM511.041 607.589l1.973.613.017-.058 14.755 4.38c-3.561-23.323-5.143-39.503-5.143-39.503-.18-1.954-.332-3.93-.466-5.91l-19.188 15.735 8.052 24.743z"/><path opacity=".5" fill="#1D1D1B" d="M513.014 608.202l-5.259 17.728-23.122 4.798 17.061 17.075c3.143-.27 5.871-.617 8.239-1.004l5.288-14.468 7.451-16.891 5.442-.784c-.097-.621-.191-1.238-.285-1.85l-14.815-4.604zM513.014 608.202l14.815 4.604-.044-.282-14.755-4.38-.016.058z"/><path opacity=".5" fill="#1D1D1B" d="M513.014 608.202l14.815 4.604-.044-.282-14.755-4.38-.016.058z"/><path opacity=".25" fill="#1D1D1B" d="M446.548 442.384l27.457-3.487-19.991-23.276 10.735-6.124 18.804-4.365-78.777-8.145zM418.411 319.259l16.799 29.709 12.233-13.682 8.36 3.779-2.767-20.377h-16.167v.571zM344.781 371.691h-.005c.817 5.882 1.891 11.648 2.857 16.344l.004-.007c-.966-4.691-2.039-10.455-2.856-16.337z"/><path opacity=".25" fill="#1D1D1B" d="M360.026 344.36c-5.43 6.184-10.823 12.438-16.224 18.671.094 1.125.203 2.265.327 3.411.188 1.743.408 3.501.651 5.25.817 5.881 1.891 11.646 2.856 16.337a297.415 297.415 0 002.017 9.092l16.929-28.361-6.556-24.4zM393.732 448.785l6.571-30.557-26.27 1.172-10.523 17.426c.721 7.017.913 13.548.913 13.548l.133 1.597 4.109-3.186h25.067zM421.632 503.505l.004-.006 13.281 9.023 8.052-7.85 2.391-26.193-45.134-5.63 8.129 21.642z"/><path opacity=".25" fill="#1D1D1B" d="M385.679 502.049l14.547-29.2-.002-.008-1.418-.177-5.074-23.879-26.935 29.785c1.721 20.286 3.271 38.333 3.271 38.333.104 1.563.194 3.131.273 4.7l15.337-12.273v-7.281zM414.031 585.284l-19.25 6.402-13.282 8.591-5.069 23.976.01-.004.015.015.015.018 24.728 1.463.138-14.268 4.488-4.798 6.109-.432-2.838-9.903zM450.466 605.26l9.964-11.538-13.882-6.247-6.417 4.658-9.102.87-1.675 8.444-.098.528 3.455 8.962 5.368 5.09-4.477 5.903.004.005 3.872 19.205 7.357 7.774h34.846l4.952-18.186-32.825-2.33zM483.893 569.458l-6.864 12.525-4.474 18.911 15.502 15.133 9.857-5.815-5.368-5.245.895-27.642 9.548 5.521 19.188-15.735c-.037-.557-.075-1.113-.109-1.67l-28.936-10.236-9.239 14.253z"/><path opacity=".2" fill="#1D1D1B" d="M394.025 525.342l16.412-4.381-24.758-11.631-15.337 12.273c.302 6.002.422 12.033.399 18.004l12.254 1.437 11.03-15.702zM472.555 600.895l4.474-18.912-11.045-1.758-19.436 7.25 13.882 6.247-9.964 11.538.679 11.569 14.237-6.324 19.251 20.223 3.424-14.701zM493.132 555.205l-20.577-8.144-11.985 14.947 23.323 7.45zM515.221 475.888l4.474 38.132 2.469 2.933.003-.048c1.373-10.474 2.713-26.719 3.575-38.194l-1.28-3.393-9.241.57z"/><path opacity=".2" fill="#1D1D1B" d="M476.719 518.519l15.525-.288 1.594-3.409 1.392-2.992 12.078-6.401 7.913-29.54s5.728-3.919 11.287-7.828c.123-1.787.191-2.831.191-2.831.726-6.745 1.304-14.142 1.701-19.854l-14.367 21.351-23.909-1.636.293 28.521-13.982 24.912.284-.005zM478.525 534.828l14.623 20.377 2.39-14.994-.007-.013-.008.013-5.214-8.005-13.877-13.677-.006.01-33.457-13.867 17.308 21.826z"/><path fill="#1D1D1B" d="M404.776 396.987l78.777 8.145-29.848-36.666-31.329 7.281zM545.689 386.217c.896-4.463 1.467-9.493 1.82-14.485l-.194-.04c-.706 5.077-1.603 10.067-2.456 14.355l.83.17z"/><path fill="#1D1D1B" d="M514.281 393.779l10.693 11.001.085.006 10.709-20.602 9.091 1.863c.854-4.289 1.75-9.278 2.456-14.355a.918.918 0 01.003-.02l-2.002.867-2.082-12.217-8.653-2.623-17.909 12.803-2.391 23.277zM499.548 326.358c-5.57-2.665-9.39-4.878-9.39-4.878-1.451-1.157-7.42-2.221-7.42-2.221h-14.316l20.776 27.01 10.35-19.911z"/><path d="M489.214 346.346l-20.826-27.087h-.061l20.855 27.118.031.046c3.467-6.682 6.938-13.354 10.408-20.029l-.027-.013-10.38 19.965z"/><path d="M499.595 326.381l-.047-.023-10.35 19.911-20.776-27.01h-.034l20.826 27.087 10.381-19.965z"/><path fill="#1D1D1B" d="M343.455 355.836c.014 2.249.137 4.639.339 7.095l16.202-18.652 4.026-7.529c-3.256.979-5.272 1.513-5.272 1.513-6.371 2.128-13.498 5.599-13.498 5.599v-.031l-.002.002c-1.325 2.784-1.822 7.05-1.795 12.003z"/><path d="M360.012 344.31l.014.05.017-.019 4.077-7.62-.057.017-4.051 7.572z"/><path d="M360.026 344.36l-.014-.05-16.215 18.661.005.061c5.4-6.234 10.794-12.488 16.224-18.672z"/><path d="M360.012 344.31l4.051-7.571-.04.012-4.026 7.529-16.202 18.652.003.039 16.214-18.661z"/><path fill="#1D1D1B" d="M352.291 405.028l.007-.001a116.477 116.477 0 01-1.283-3.434l-.006.006c.415 1.168.845 2.313 1.282 3.429z"/><path fill="#1D1D1B" d="M374.033 419.4l-2.083-10.475 7.157-4.658v-17.461l21.195-33.766-33.721 15.718-16.929 28.361c.256 1.07.408 1.672.408 1.672.306.946.626 1.88.953 2.802.416 1.169.846 2.315 1.283 3.434l.018.044c3.11 7.93 6.604 14.391 8.005 16.873l.006.01a60.396 60.396 0 00.626 1.087c1.224 3.292 2.031 8.668 2.558 13.785l10.524-17.426zM445.051 460.725l-51.319-11.94 6.492 24.056 45.136 5.638z"/><path fill="#1D1D1B" d="M398.806 472.664l1.418.177-6.492-24.056zM451.021 535.815l8.654-.879.602-8.438-17.308-21.826-8.052 7.85-13.285-9.017-11.195 17.456-16.412 4.381-11.03 15.702 11.03 9.903 48.651-19.79z"/><path fill="#1D1D1B" d="M421.632 503.505l13.285 9.017-13.281-9.023zM431.029 593.003l.001-.006 9.101-.864 6.417-4.658-5.661-10.921-7.466-4.366-19.39 13.096-4.936 11.06 2.838 9.903 11.045-4.519 6.262.293.114-.574 1.568-8.434z"/><path fill="#1D1D1B" d="M430.922 593.013l-1.568 8.434 1.675-8.444zM381.499 600.277l13.281-8.592-3.579-12.941-22.854 4.788c-.293 2.934-.6 5.766-.912 8.477l16.901-.894-2.837 9.162zM361.572 630.371a101.118 101.118 0 01-.619 2.809c1.357 13.111 27.766 14.562 27.766 14.562 2.423.203 4.848.388 7.271.556l-19.564-23.956-14.854 6.029z"/><path d="M376.424 624.279l19.613 24.021.065.004-19.633-24.022-.045-.003z"/><path d="M376.43 624.253c-4.949 2.001-9.894 4.013-14.838 6.021l-.008.038 14.84-6.032.006-.027z"/><path d="M376.44 624.249l-.01.004-.006.026.046.003-.015-.018zM361.584 630.312a1.286 1.286 0 00-.013.06l14.853-6.03 19.564 23.956a.809.809 0 01.049.004l-19.613-24.021-14.84 6.031z"/><path fill="#1D1D1B" d="M433.544 621.981l-6.201-6.911v33.844h17.385l-7.312-7.728z"/><path d="M433.574 621.966l.027-.036c-2.128-2.343-4.224-4.701-6.336-7.06v34.044h.031v-33.937l6.278 6.989z"/><path d="M433.606 621.935l-.004-.005-.028.036 3.873 19.204 7.327 7.744h.061l-7.357-7.774z"/><path d="M433.574 621.966l-6.277-6.988v33.936h.046V615.07l6.201 6.911 3.872 19.205 7.312 7.728h.046l-7.327-7.744z"/><path fill="#1D1D1B" d="M476.426 518.523l.006.006.003-.006zM490.309 532.206l5.222 7.992 16.405-26.471 7.759.293-4.474-38.132-7.913 29.54-12.078 6.417-1.392 2.976-1.585 3.409h-.009l-.006.016-15.519.273-.277.004z"/><path fill="#1D1D1B" d="M476.442 518.523l.277-.004-.284.004-.003.006 13.877 13.677zM495.523 540.211l.008-.013-5.222-7.992zM493.838 514.821l-1.594 3.409h.009zM539.292 406.295l-12.515-1.278-1.699-.132 7.818 15.02a141.314 141.314 0 006.396-13.61zM531.885 422.12l.02.049.467.741.005-.009zM525.223 405.322l6.575 16.579c.278-.493.636-1.138 1.054-1.914l-7.629-14.665z"/><path d="M524.995 404.884l.228.438-.192-.483zM526.778 405.017l12.634.984.04-.099-14.393-1.116-.027.053 1.746.178z"/><path d="M524.974 404.78l-.034-.003.055.107.036-.045z"/><path d="M525.059 404.786l-.085-.006.057.059zM532.852 419.987l.045-.083-7.818-15.02 1.699.132-1.746-.178.191.483 7.629 14.666z"/><path opacity=".5" fill="#1D1D1B" d="M346.268 405.764l4.741-4.164a98.3 98.3 0 01-.947-2.777s-.154-.609-.413-1.693a300.54 300.54 0 01-2.016-9.093l-.255.391-2.252 8.252 1.142 9.084z"/><path opacity=".25" fill="#1D1D1B" d="M347.637 388.028l-.004.007c.827 4.02 1.574 7.25 2.016 9.093l.005-.009a295.125 295.125 0 01-2.017-9.091z"/><path opacity=".5" fill="#1D1D1B" d="M347.637 388.028l-.004.007c.827 4.02 1.574 7.25 2.016 9.093l.005-.009a295.125 295.125 0 01-2.017-9.091z"/><path fill="#1D1D1B" d="M350.062 398.822c.304.938.621 1.863.947 2.777l.006-.006c-.327-.922-.647-1.855-.953-2.802 0 0-.152-.602-.408-1.672l-.005.009c.258 1.085.413 1.694.413 1.694z"/><path opacity=".5" fill="#1D1D1B" d="M350.062 398.822c.304.938.621 1.863.947 2.777l.006-.006c-.327-.922-.647-1.855-.953-2.802 0 0-.152-.602-.408-1.672l-.005.009c.258 1.085.413 1.694.413 1.694zM341.863 347.263l2.249.159c.272-1.351.637-2.549 1.108-3.557a90.638 90.638 0 01-3.357 3.398zM348.026 420.233l4.287-15.151-.021-.054-6.023.735-1.142-9.085-17.462-1.45-2.606 9.486 22.967 15.519z"/><path fill="#1D1D1B" d="M352.313 405.082l.003-.011-.018-.044-.007.001.022.054z"/><path opacity=".5" fill="#1D1D1B" d="M352.313 405.082l.003-.011-.018-.044-.007.001.022.054zM320.523 451.64l3.738-14.508c-1.668-.321-3.32-.644-4.987-.964l-3.965-3.856-3.956.314a187.511 187.511 0 01-.532 7.136s-.294 14.067-.973 15.04c0 0 .112.104.333.288l10.342-3.45zM356.118 465.13l-.78-.935-5.491 2.144c1.619-.082 4.162-.354 6.271-1.209z"/><path opacity=".25" fill="#1D1D1B" d="M339.774 372.739l5.002-1.047a172.92 172.92 0 01-.65-5.251l-15.384-6.214c-1.862 2.483-3.892 5.575-5.879 9.352l8.52 16.148 15.996 2.7-7.605-15.688z"/><path opacity=".25" fill="#1D1D1B" d="M344.129 366.442l-.004-.001c.188 1.744.408 3.502.65 5.251h.005a173.266 173.266 0 01-.651-5.25z"/><path opacity=".25" fill="#1D1D1B" d="M344.129 366.442l-.004-.001c.188 1.744.408 3.502.65 5.251h.005a173.266 173.266 0 01-.651-5.25zM316.751 419.651l2.861-1.408 5.445-13.528-11.459-4.896a123.283 123.283 0 00-1.036 10.82l-.293 7.805-.064.695 1.669 1.928 2.877-1.416zM339.912 453.413l-7.435 6.047-4.24 4.017a80.687 80.687 0 008.366 1.774l.008-.022.028.028c3.484.551 7.34.947 11.587 1.113 0 0 .643.019 1.62-.031l5.491-2.144-15.425-10.782z"/><path opacity=".2" fill="#1D1D1B" d="M320.523 451.64l11.955 7.82 7.434-6.047-10.303-7.743zM355.338 464.195l.78.935a8.286 8.286 0 001.739-.948 25.742 25.742 0 01-.033-.771l-2.486.784zM352.313 405.082l-4.287 15.151-11.757 10.909 8.935 2.464 2.684-2.915 7.806-1.403 4.628-7.344c-1.403-2.482-4.899-8.943-8.009-16.862z"/><path opacity=".2" fill="#1D1D1B" d="M336.256 431.154l-16.587-12.867a6017.27 6017.27 0 016.299 14.44l-.007.018 8.923 7.418 5.028 13.25 3.684-7.568-1.679-5.111-5.661-9.58zM319.613 418.243v.001l.001-.001z"/><path opacity=".2" fill="#1D1D1B" d="M336.256 431.154l.011.003-.005-.009z"/><path opacity=".2" fill="#1D1D1B" d="M336.262 431.148l.007-.005-.013-.004z"/><path fill="#1D1D1B" d="M360.321 421.944c-1.401-2.482-4.895-8.943-8.005-16.873l-.003.011c3.11 7.919 6.606 14.38 8.008 16.862z"/><path opacity=".2" fill="#1D1D1B" d="M360.321 421.944c-1.401-2.482-4.895-8.943-8.005-16.873l-.003.011c3.11 7.919 6.606 14.38 8.008 16.862z"/><path fill="#1D1D1B" d="M344.125 366.44a139.619 139.619 0 01-.334-3.508 95.614 95.614 0 01-.336-7.097c-.019-3.15.175-6.022.656-8.414l-2.249-.159c-1.621 1.561-3.643 3.398-5.665 4.944 0 0-3.301 2.477-7.456 8.02l15.384 6.214z"/><path fill="#1D1D1B" d="M343.802 363.031l-.002.002c.093 1.125.202 2.262.325 3.407l.004.001a139.46 139.46 0 01-.327-3.41zM343.791 362.934l.003-.002a94.517 94.517 0 01-.339-7.095 95.64 95.64 0 00.336 7.097z"/><path fill="#1D1D1B" d="M343.797 362.97l-.002.003.005.061.002-.002-.005-.062z"/><path fill="#1D1D1B" d="M343.795 362.973l.002-.003-.003-.039-.003.002a.492.492 0 00.004.04zM325.058 404.715l2.606-9.486-11.908-6.553a107.643 107.643 0 00-2.156 11.136l11.458 4.903zM316.751 419.651l2.862-1.407v-.001z"/><path fill="#1D1D1B" d="M315.293 432.25l3.98 3.855 4.982.973 1.65-4.366-6.294-14.438-5.754 2.838-1.658-1.916-.517 5.618s-.081 3.418-.327 7.753l3.938-.317z"/><path d="M319.614 418.243l.056.044a1.487 1.487 0 01-.025-.059l-.031.015zM324.271 437.093l-.01.039.041.008c.554-1.46 1.105-2.935 1.659-4.395l-.04-.033-1.65 4.381z"/><path d="M315.309 432.312l3.965 3.856c1.667.32 3.319.643 4.987.964l.01-.039-5.013-.972-3.965-3.856-3.938.317-.003.044 3.957-.314zM316.751 419.651l-2.877 1.415-1.669-1.927-.003.041 1.642 1.902zM319.614 418.243l6.308 14.469.04.033.007-.018a5349.497 5349.497 0 00-6.299-14.44l-.056-.044z"/><path d="M315.293 432.265l3.965 3.856 5.013.972 1.65-4.381-6.308-14.468-2.862 1.407-2.907 1.431-1.643-1.897-.001.011 1.659 1.916 5.754-2.838 6.293 14.438-1.65 4.366-4.982-.973-3.981-3.855-3.936.317-.001.015z"/><path d="M312.202 419.18l-.001.005 1.643 1.897z"/><path fill="#1D1D1B" d="M360.952 423.041l-.075-.128a60.396 60.396 0 01-.551-.959l-4.649 7.364-7.79 1.404-2.684 2.899-8.937-2.465 5.65 9.561 1.682 5.121-.003.006.003.01 13.39-11.368 1.595.535c.109-3.387.356-6.97.845-10.207 0 0-.12-.648.264-1.003.045-.405.285-.926 1.26-.77zM360.326 421.954z"/><path fill="#1D1D1B" d="M341.917 440.733l1.679 5.112.003-.006-1.682-5.121-5.65-9.561-.011-.003z"/><path opacity=".5" fill="#1D1D1B" d="M544.717 388.426l-.259-.398c-1.313 6.372-2.425 10.764-2.425 10.764-.306.946-.626 1.88-.953 2.802l.093.082a322.678 322.678 0 003.77-12.424l-.226-.826z"/><path opacity=".5" fill="#1D1D1B" d="M541.173 401.676l4.654 4.088 1.142-9.085-2.026-7.427a322.678 322.678 0 01-3.77 12.424zM547.837 345.084a96.631 96.631 0 00-.327-.296v.007c-.105-.061-.214-.121-.32-.181.285.741.523 1.566.719 2.462-.027-.841-.052-1.513-.072-1.992z"/><path opacity=".5" fill="#1D1D1B" d="M550.229 347.264a271.15 271.15 0 00-2.392-2.18c.02.479.045 1.151.071 1.992.025.115.051.229.074.347l2.247-.159zM546.969 396.679l-1.142 9.085-5.784-.706-.146.427 4.173 14.749 22.968-15.519-2.606-9.486-17.463 1.45zM539.797 405.027l-.018.044.117.413.146-.427-.245-.03zM576.786 432.312l-3.965 3.856c-1.667.32-3.319.643-4.987.964l3.738 14.508 10.342 3.45a.276.276 0 00.025-.021c.073-.188.139-.381.188-.584-.552-2.145-.814-13.01-.85-14.54l-.044-.619a190.232 190.232 0 01-.492-6.7l-3.955-.314zM535.977 465.13c2.109.855 4.652 1.127 6.271 1.209l-5.491-2.144-.78.935z"/><path opacity=".25" fill="#1D1D1B" d="M544.717 388.426l.479-.081.197-.722c.076-.342.147-.694.22-1.044l-.896 1.847zM547.519 371.584c.064-.92.12-1.838.171-2.751-.116.946-.24 1.894-.372 2.838l.201-.087z"/><path opacity=".25" fill="#1D1D1B" d="M547.509 371.731l4.813 1.007-6.709 13.841c-.072.35-.144.702-.22 1.044l-.197.722 15.518-2.619 8.33-15.79a87.256 87.256 0 00-4.906-8.521s-.326-.394-.964-1.117l-15.206 6.143c-.086.795-.179 1.593-.277 2.392a187.05 187.05 0 01-.171 2.751c-.005.05-.008.099-.011.147z"/><path fill="#1D1D1B" d="M547.509 371.731l.01-.147-.201.087-.003.02.194.04z"/><path opacity=".25" fill="#1D1D1B" d="M547.509 371.731l.01-.147-.201.087-.003.02.194.04zM577.825 418.443l.851 2.097 1.191-1.376-.104-1.631s.007-.115.015-.333l-.246-6.562-1.707 7.805z"/><path opacity=".25" fill="#1D1D1B" d="M572.483 418.243l2.861 1.408 2.877 1.415.455-.526-.851-2.097 1.707-7.805a123.668 123.668 0 00-1.036-10.82l-11.459 4.896 5.446 13.529zM559.617 459.46l-7.435-6.047-15.426 10.782 5.491 2.144c.978.05 1.62.031 1.62.031a99.093 99.093 0 0011.587-1.113l.028-.028.008.022a80.893 80.893 0 008.366-1.774l-4.239-4.017z"/><path opacity=".2" fill="#1D1D1B" d="M562.487 445.67l-10.304 7.743 7.434 6.047 11.956-7.82zM535.977 465.13l.78-.935-2.722-.859c.007.238.015.476.021.716.559.434 1.213.79 1.921 1.078zM557.211 440.163l8.923-7.418-.007-.018c2.089-4.809 4.193-9.633 6.299-14.44l-16.587 12.867-5.661 9.579-1.679 5.111 3.684 7.568 5.028-13.249zM531.798 421.901l-.023.043.11.176-.087-.219zM572.483 418.243h-.001l.001.001zM555.833 431.148l-.005.009.011-.003zM539.606 406.326l.104-.302-.299-.023-.119.294.314.031z"/><path opacity=".2" fill="#1D1D1B" d="M539.71 406.024l-.104.302c-1.883 5.397-4.028 10.858-6.124 14.702l-.045.084a29.149 29.149 0 01-1.06 1.789l.039.062c.066-.109.133-.209.199-.322-.048.136-.092.281-.139.419l3.926 6.229 7.806 1.403 2.684 2.915 8.935-2.464-11.757-10.909-4.173-14.749-.152.44-.035.099z"/><path opacity=".2" fill="#1D1D1B" d="M539.78 405.071c-.109.278-.218.557-.328.831l.293.022.152-.44-.117-.413zM555.839 431.139l-.013.004.007.005z"/><path fill="#1D1D1B" d="M532.377 422.901c.352-.546.704-1.141 1.06-1.789l-.585-1.125c-.418.776-.775 1.421-1.054 1.914l.087.219.492.781z"/><path opacity=".2" fill="#1D1D1B" d="M532.377 422.901c.352-.546.704-1.141 1.06-1.789l-.585-1.125c-.418.776-.775 1.421-1.054 1.914l.087.219.492.781z"/><path fill="#1D1D1B" d="M533.482 421.028c2.096-3.844 4.241-9.305 6.124-14.702l-.313-.031a141.159 141.159 0 01-6.396 13.609l.585 1.124z"/><path opacity=".2" fill="#1D1D1B" d="M533.482 421.028c2.096-3.844 4.241-9.305 6.124-14.702l-.313-.031a141.159 141.159 0 01-6.396 13.609l.585 1.124z"/><path d="M539.71 406.024l.034-.1-.293-.022-.04.099.299.023z"/><path opacity=".2" fill="#1D1D1B" d="M539.71 406.024l.034-.1-.293-.022-.04.099.299.023z"/><path d="M532.897 419.904l-.045.083.585 1.125.045-.084-.585-1.124z"/><path opacity=".2" fill="#1D1D1B" d="M532.897 419.904l-.045.083.585 1.125.045-.084-.585-1.124z"/><path fill="#1D1D1B" d="M547.967 366.442l15.206-6.143c-1.786-2.026-6.09-6.71-12.944-13.036l-2.246.159c.989 4.906.759 11.834-.016 19.02zM576.181 388.763l-11.75 6.466 2.606 9.486 11.458-4.903c-.075-.534-.157-1.057-.238-1.581a107.832 107.832 0 00-2.076-9.468zM580.201 424.296c-.113-1.697-.224-3.396-.33-5.072l-1.177 1.36 1.507 3.712z"/><path fill="#1D1D1B" d="M580.201 424.296l-1.507-3.712-.458.528-5.754-2.838-6.294 14.438 1.65 4.366 4.982-.973 3.98-3.855 3.937.317c-.029-.517-.057-1.021-.081-1.507-.151-2.215-.304-4.488-.455-6.764z"/><path fill="#1D1D1B" d="M575.344 419.651l-2.861-1.408v.001z"/><path d="M566.174 432.712l-.04.033c.554 1.46 1.105 2.935 1.659 4.395l.041-.008-.01-.039-1.65-4.381zM572.482 418.243l-.03-.015c-.009.02-.018.039-.025.059l.055-.044z"/><path d="M576.802 432.265l-3.965 3.856-5.013.972.01.039c1.668-.321 3.32-.644 4.987-.964l3.965-3.856 3.956.314-.003-.044-3.937-.317zM575.344 419.651l2.907 1.431.439-.509-.014-.033-.455.526z"/><path d="M579.87 419.207l-.003-.043-1.191 1.376.014.033 1.18-1.366zM566.127 432.728l.007.018.04-.033 6.309-14.468-.001-.001-.056.044c-2.105 4.807-4.21 9.631-6.299 14.44z"/><path d="M578.251 421.082l-2.907-1.431-2.861-1.407-6.309 14.468 1.65 4.381 5.013-.972 3.965-3.856 3.938.317-.001-.015-3.937-.317-3.98 3.855-4.983.973-1.65-4.366 6.294-14.438 5.754 2.838.458-.528-.004-.01zM578.695 420.584l1.176-1.36-.001-.013-1.179 1.363zM579.84 419.196l-1.18 1.364-.003-.003 1.18-1.363z"/><path d="M578.69 420.573l-.439.509.44-.508z"/><path fill="#1D1D1B" d="M532.411 422.972l-.039-.062c-.03.047-.061.1-.091.146l-.015.028-.093.194c.009.01.023.017.031.026.07-.109.138-.22.207-.332z"/><path fill="#1D1D1B" d="M531.769 421.954c-.397.704-.626 1.087-.626 1.087.543-.087.851.041 1.031.237l.093-.194-.362-.915-.136-.215zM532.392 424.244c.521 3.447.767 7.287.864 10.863l1.851-.621 13.39 11.368.003-.01-.003-.006 1.682-5.121 5.65-9.561-8.937 2.465-2.684-2.899-7.79-1.404-3.945-6.248c-.05.146-.098.296-.146.444.138.341.065.73.065.73zM532.267 423.084l.015-.028c.03-.046.061-.099.091-.146l-.468-.741.362.915z"/><path fill="#1D1D1B" d="M550.178 440.733l5.661-9.579-.011.003-5.65 9.561-1.682 5.121.003.006z"/></svg>