<svg xmlns="http://www.w3.org/2000/svg" width="80" height="80" viewBox="585.88 136.909 80 80"><path fill="none" d="M606.815 176.265c-1.282 1.783-2.557 3.566-3.839 5.351 1.282-1.784 2.556-3.566 3.839-5.349v-.002z"/><path d="M633.534 181.81l-.022 1.469-.007.189.007-.188zM637.33 180.883v.001-.011zM648.79 173.886l-.933-1.286.933 1.289zM645.078 168.774l-.084 5.664-.021 1.66.021-1.659zM614.431 180.883l-.029-1.86.029 1.861zM618.137 175.965l-.001.001.084 5.474zM585.88 151.072c.627-.878 1.255-1.749 1.888-2.627l-.014 7.733 3.831-5.336-.014 7.74c1.275-1.784 2.558-3.567 3.832-5.344 0 2.577-.007 5.155-.007 7.733a2298.41 2298.41 0 013.832-5.344c-.007 2.584-.007 5.162-.014 7.74 1.275-1.777 2.557-3.561 3.832-5.344 0 2.577-.007 5.162-.016 7.74 1.282-1.784 2.557-3.567 3.832-5.344 0 2.577-.007 5.162-.007 7.74 1.275-1.777 2.557-3.561 3.832-5.344-.007 2.577-.007 5.155-.014 7.733 1.281-1.777 2.557-3.561 3.832-5.337 0 2.577-.007 5.163-.014 7.74 1.281-1.783 2.557-3.567 3.838-5.344-.007 2.578-.007 5.155-.014 7.733 1.275-1.783 2.558-3.561 3.832-5.344-.007 2.585-.007 5.162-.015 7.747 1.283-1.783 2.48-3.566 3.762-5.351 1.275 1.784 2.445 3.567 3.721 5.351 0-2.585-.007-5.162-.007-7.747 1.274 1.783 2.55 3.561 3.825 5.344 0-2.578-.007-5.155-.007-7.733 1.274 1.776 2.557 3.561 3.831 5.344-.007-2.577-.007-5.163-.014-7.74 1.282 1.776 2.558 3.56 3.832 5.337 0-2.578-.007-5.156-.015-7.733 1.283 1.783 2.558 3.566 3.84 5.344-.008-2.578-.008-5.163-.015-7.74 1.274 1.776 2.557 3.56 3.831 5.344-.007-2.578-.007-5.163-.014-7.74 1.282 1.783 2.557 3.566 3.839 5.344-.007-2.578-.014-5.156-.014-7.74 1.275 1.783 2.55 3.56 3.832 5.344-.007-2.578-.007-5.156-.014-7.733 1.281 1.776 2.557 3.56 3.832 5.344l-.007-7.74c1.274 1.776 2.55 3.56 3.831 5.336l-.015-7.733c.627.878 1.255 1.749 1.889 2.627v-14.164h-80v14.164z"/><path fill="gray" d="M629.687 185.863l-.772-1.079.772 1.08z"/><path fill="#424142" d="M622.094 193.563l-.014-.014v.035zM618.269 191.181l-.007-.008v.021c0-.006.007-.006.007-.013z"/><path fill="#424142" d="M664.181 179.978l-.009.188-3.705-5.107-.111 7.315v.188l-3.714-5.114-.104 7.322-.007.188-3.706-5.113-.105 7.314-.007.188-3.706-5.106-.111 7.314v.188l-3.714-5.106-.104 7.314-.008.188-3.705-5.113-.111 7.321v.188l-3.707-5.106-.111 7.315v.188l-3.714-5.113-.111 7.322v.188l-3.707-5.113-.111 7.315v.188l-3.888-5.81-3.887 5.796-.007-.188-.105-7.314-3.713 5.113v-.188l-.11-7.321-3.707 5.106-.007-.181-.104-7.315-3.706 5.106-.007-.188-.105-7.322-3.713 5.114v-.188l-.111-7.315-3.707 5.107-.007-.188-.104-7.322-3.714 5.114v-.188l-.109-7.315-3.707 5.114v-.188l-.111-7.322-3.714 5.113v-.188l-.111-7.315-3.707 5.106v-.188l-.111-7.322c-.543.753-1.094 1.505-1.637 2.257v42.01h80v-42.058c-.536-.732-1.065-1.464-1.596-2.195l-.107 7.322zM587.706 164.288c-.007.007-.007.015-.021.021v.001c.014-.007.014-.015.021-.022z"/><path fill="#424142" d="M595.341 176.821c1.275-1.783 2.55-3.566 3.832-5.343v-.001c-1.282 1.778-2.556 3.561-3.832 5.344z"/><path fill="#727272" d="M587.685 164.309v-.188l-.027-1.999-.085-5.316c-.564.773-1.128 1.554-1.692 2.327v7.705c.598-.843 1.211-1.686 1.804-2.529zM591.509 166.706l-.007-.188-.028-1.985-.076-5.337c-.878 1.205-1.755 2.418-2.633 3.63-.356.488-.712.976-1.06 1.463l-.007 7.74c1.268-1.77 2.551-3.547 3.811-5.323zM664.103 162.143l-.027 1.979v.188c-.354-.488-.71-.976-1.066-1.463a755.856 755.856 0 00-2.646-3.651l-.084 5.406-.027 1.916v.188l-1.032-1.421-2.675-3.693-.083 5.47-.028 1.846v.188l-.996-1.373-2.718-3.741-.076 5.539-.028 1.783-.007.188-.968-1.331-2.738-3.776-.083 5.595-.027 1.721v.188l-.002-.003v.003l-.933-1.289-2.779-3.825-.084 5.665-.021 1.658-.007.188-.906-1.247-2.801-3.859-.084 5.713-.021 1.595-.007.188-.871-1.198-2.842-3.908-.083 5.789-.022 1.515v.199l-.842-1.156-2.871-3.95-.083 5.845-.021 1.471-.007.188-.809-1.114-2.898-3.999-.09 5.922-.021 1.4v.188l-.001-.001v.001l-.772-1.08-3.024-4.222-2.835 3.937-.982 1.365-.007-.188-.027-1.825-.078-5.497-2.709 3.734-1.004 1.379v-.189l-.027-1.839-.084-5.474-2.696 3.711-1.009 1.394v-.188l-.029-1.86-.083-5.455-2.689 3.699-1.023 1.407v-.188l-.028-1.881-.083-5.427-2.676 3.686-1.031 1.421v-.188l-.027-1.902-.084-5.421-2.669 3.679-1.016 1.415c-.007 2.584-.007 5.162-.016 7.747 1.282-1.784 2.557-3.567 3.839-5.351v.001l.001-.001c-.008 2.584-.008 5.162-.015 7.739 1.275-1.783 2.557-3.56 3.832-5.343-.007 2.584-.007 5.162-.014 7.74 1.281-1.777 2.557-3.561 3.831-5.344 0 2.577-.007 5.155-.007 7.74 1.275-1.784 2.551-3.567 3.832-5.344-.007 2.571-.007 5.148-.014 7.719l.007.008 3.825-5.33c0 2.563-.007 5.135-.015 7.698l.015.014 3.803-5.295 3.825 5.33c-.007-2.577-.007-5.155-.014-7.733 1.282 1.784 2.557 3.567 3.839 5.344-.007-2.578-.014-5.162-.014-7.74 1.275 1.783 2.55 3.561 3.832 5.344-.007-2.578-.007-5.162-.016-7.74 1.275 1.783 2.559 3.567 3.832 5.351 0-2.585-.007-5.162-.007-7.747 1.275 1.783 2.55 3.56 3.825 5.344 0-2.578-.007-5.155-.007-7.733 1.274 1.776 2.557 3.561 3.832 5.344-.007-2.585-.007-5.163-.014-7.74 1.281 1.776 2.557 3.56 3.831 5.337 0-2.578-.007-5.156-.007-7.733a2955.62 2955.62 0 003.832 5.343c-.007-2.577-.007-5.162-.014-7.739 1.273 1.776 2.557 3.56 3.832 5.343-.008-2.584-.008-5.162-.015-7.739 1.281 1.783 2.557 3.566 3.838 5.351l-.014-7.747c.592.828 1.186 1.657 1.784 2.479v-7.649c-.564-.773-1.129-1.554-1.699-2.327l-.078 5.331zM595.348 169.081c0 2.578-.007 5.163-.007 7.74 1.275-1.783 2.55-3.566 3.832-5.344v.001c-.007 2.577-.007 5.155-.014 7.732 1.267-1.77 2.55-3.546 3.81-5.322l-.007-.188-.027-1.923-.077-5.393-2.66 3.665-1.053 1.442v-.188l-.027-1.937-.085-5.386-2.646 3.658-1.059 1.456-.007-.188-.028-1.958-.076-5.357-2.642 3.644-1.045 1.449c-.007 2.578-.007 5.155-.014 7.733 1.282-1.775 2.557-3.559 3.832-5.336z"/><path fill="#FFF" d="M664.006 156.179c-1.281-1.776-2.557-3.56-3.831-5.336l.007 7.74a1609.606 1609.606 0 00-3.832-5.344c.007 2.577.007 5.155.014 7.733a2823.04 2823.04 0 01-3.832-5.344c0 2.584.007 5.162.014 7.74-1.282-1.777-2.557-3.561-3.839-5.344.007 2.577.007 5.162.014 7.74-1.274-1.784-2.557-3.567-3.831-5.344.007 2.577.007 5.162.015 7.74-1.282-1.777-2.557-3.561-3.84-5.344.008 2.577.015 5.155.015 7.733-1.274-1.777-2.55-3.561-3.832-5.337.007 2.577.007 5.163.014 7.74-1.274-1.783-2.557-3.567-3.831-5.344 0 2.578.007 5.155.007 7.733-1.275-1.783-2.551-3.561-3.825-5.344 0 2.585.007 5.162.007 7.747-1.275-1.783-2.445-3.566-3.721-5.351-1.281 1.784-2.479 3.567-3.762 5.351.008-2.585.008-5.162.015-7.747-1.274 1.783-2.557 3.561-3.832 5.344.007-2.578.007-5.155.014-7.733-1.281 1.776-2.557 3.561-3.838 5.344.007-2.577.014-5.163.014-7.74-1.275 1.776-2.551 3.56-3.832 5.337.007-2.578.007-5.156.014-7.733-1.275 1.783-2.557 3.566-3.832 5.344 0-2.578.007-5.163.007-7.74-1.275 1.776-2.55 3.56-3.832 5.344.009-2.578.016-5.163.016-7.74-1.275 1.783-2.557 3.566-3.832 5.344.007-2.578.007-5.156.014-7.74a2298.41 2298.41 0 00-3.832 5.344c0-2.578.007-5.156.007-7.733-1.274 1.776-2.557 3.56-3.832 5.344l.014-7.74-3.831 5.336.014-7.733c-.633.878-1.261 1.749-1.888 2.627v8.061c.564-.773 1.128-1.554 1.692-2.327l.085 5.316.027 1.999v.188c.014-.006.014-.014.021-.021.348-.487.703-.975 1.06-1.463.878-1.212 1.755-2.425 2.633-3.63l.076 5.337.028 1.985.007.188c.014-.007.014-.014.021-.021l1.045-1.449 2.642-3.644.076 5.357.028 1.958.007.188 1.059-1.456 2.646-3.658.085 5.386.027 1.937v.188l1.053-1.442 2.66-3.665.077 5.393.027 1.923.007.188c.016-.007.016-.015.022-.021l1.016-1.415 2.669-3.679.084 5.421.027 1.902v.188l1.031-1.421 2.676-3.686.083 5.427.028 1.881v.188l1.023-1.407 2.689-3.699.083 5.455.029 1.859v.189l1.009-1.394 2.696-3.711.001-.001.083 5.476.027 1.839v.189l1.004-1.379 2.709-3.734.078 5.497.027 1.825.007.188.982-1.365 2.835-3.937 3.024 4.222.772 1.079.001.001v-.188l.021-1.4.09-5.922 2.898 3.999.809 1.114.007-.188.021-1.47.083-5.845 2.871 3.95.842 1.156v-.199l.022-1.515.083-5.789 2.842 3.908.871 1.198.007-.188.021-1.595.084-5.713 2.801 3.859.906 1.247.007-.188.021-1.659.084-5.664 2.779 3.825.933 1.286.002.003v-.188l.027-1.721.083-5.595 2.738 3.776.968 1.331.007-.188.028-1.783.076-5.539 2.718 3.741.996 1.373v-.188l.028-1.846.083-5.47 2.675 3.693 1.032 1.421v-.188l.027-1.916.084-5.406a677.797 677.797 0 012.646 3.651c.356.487.712.975 1.066 1.463v-.188l.027-1.979.078-5.337c.57.773 1.135 1.554 1.699 2.327v-8.061a614.054 614.054 0 01-1.889-2.627l.015 7.735z"/><path d="M664.11 172.05c-1.281-1.784-2.557-3.567-3.838-5.351.007 2.577.007 5.155.015 7.739-1.275-1.783-2.559-3.566-3.832-5.343.007 2.577.007 5.162.014 7.739a2955.62 2955.62 0 01-3.832-5.343c0 2.577.007 5.155.007 7.733-1.274-1.777-2.55-3.561-3.831-5.337.007 2.577.007 5.155.014 7.74-1.275-1.783-2.558-3.567-3.832-5.344 0 2.578.007 5.155.007 7.733-1.275-1.784-2.55-3.561-3.825-5.344 0 2.585.007 5.162.007 7.747-1.273-1.783-2.557-3.567-3.832-5.351.009 2.578.009 5.162.016 7.74a2533.853 2533.853 0 01-3.832-5.344c0 2.578.007 5.162.014 7.74-1.282-1.776-2.557-3.56-3.839-5.344.007 2.578.007 5.156.014 7.733l-3.825-5.33-3.803 5.295-.015.021v-.035c.008-2.563.015-5.135.015-7.698l-3.825 5.33c0 .007-.007.007-.007.014v-.021c.007-2.57.007-5.147.014-7.719-1.281 1.776-2.557 3.56-3.832 5.344 0-2.585.007-5.163.007-7.74-1.274 1.783-2.55 3.566-3.831 5.344.007-2.578.007-5.156.014-7.74-1.275 1.783-2.557 3.56-3.832 5.343.007-2.577.007-5.155.015-7.739l-.001.001c-1.283 1.783-2.557 3.565-3.839 5.349.009-2.585.009-5.163.016-7.747-.007.006-.007.014-.022.021-1.26 1.776-2.543 3.553-3.81 5.322.007-2.577.007-5.155.014-7.732-1.282 1.776-2.557 3.56-3.832 5.343 0-2.577.007-5.162.007-7.74-1.275 1.777-2.55 3.561-3.832 5.337.007-2.578.007-5.155.014-7.733-.007.008-.007.015-.021.021-1.261 1.776-2.543 3.553-3.811 5.322l.007-7.74c-.007.007-.007.015-.021.021-.593.843-1.206 1.686-1.805 2.528v8.061c.543-.752 1.094-1.504 1.637-2.257l.111 7.322v.188l3.707-5.106.111 7.315v.188l3.714-5.113.111 7.322v.188l3.707-5.114.109 7.315v.188l3.714-5.114.104 7.322.007.188 3.707-5.107.111 7.315v.188l3.713-5.114.105 7.322.007.188 3.706-5.106.104 7.315.007.181 3.707-5.106.11 7.321v.188l3.713-5.113.105 7.314.007.188 3.887-5.796 3.888 5.81v-.188l.111-7.315 3.707 5.113v-.188l.111-7.322 3.714 5.113v-.188l.111-7.315 3.707 5.106v-.188l.111-7.321 3.705 5.113.008-.188.104-7.314 3.714 5.106v-.188l.111-7.314 3.706 5.106.007-.188.105-7.314 3.706 5.113.007-.188.104-7.322 3.714 5.114v-.188l.111-7.315 3.705 5.107.009-.188.104-7.322c.53.731 1.06 1.463 1.596 2.195v-8.068a338.477 338.477 0 01-1.784-2.479l.013 7.749z"/></svg>