<svg xmlns="http://www.w3.org/2000/svg" width="273.845" height="338.292" viewBox="303.684 729.147 273.845 338.292"><path fill="none" d="M576.987 869.402s-1.436-19.096-2.453-35.293c0 0 1.727-29.646-15.627-56.116 0 0-5.49-6.648-16.627-16.628v.006c-10.504-6.072-25.037-10.141-25.037-10.141-14.746-2.992-32.314-13.174-32.314-13.174-1.451-1.156-7.42-2.221-7.42-2.221H451.98v-6.188h-20.34v6.188h-26.537c-3.471.2-7.035 1.064-7.035 1.064-16.781 10.612-44.547 17.939-44.547 17.939-6.371 2.129-13.498 5.6-13.498 5.6v-.031s-4.535 4.921-9.055 8.376c0 0-21.688 16.196-23.91 59.001l-.293 7.805-.586 6.371s-.184 7.914-.863 14.947c0 0-.293 14.068-.973 15.041 0 0 11.184 10.504 38.379 11.568 0 0 6.756.201 9.934-2.406 0 0-.215-1.928.078-7.035 0 0 .4-4.828.787-8.775 0 0-.865-13.684.678-23.91 0 0-.293-1.449 1.25-1.203 2.9 7.805 3.471 27.334 3.471 27.334 2.313 27.766 5.645 66.529 5.645 66.529 3.471 52.061-7.527 108.18-7.527 108.18a114.528 114.528 0 01-1.588 8.098c1.357 13.111 27.766 14.563 27.766 14.563 50.609 4.242 102.578.586 102.578.586 24.68-.479 32.1-5.492 32.1-5.492 7.143-3.084 8.299-8.576 8.299-8.576.586-1.543-.863-5.213-.863-5.213-5.521-32.131-7.914-56.598-7.914-56.598-2.406-26.223-.477-56.117-.477-56.117 2.313-17.646 4.533-51.676 4.533-51.676 1.451-13.496 2.314-29.602 2.314-29.602.863-7.912 2.992-12 2.992-12 .203-.311.406-.641.609-.986-.174.49-.342.988-.5 1.51 0 0 .262.803.631 3.596 0 0 .371 7.666.51 21.256 0 0 .586 7.234.803 15.117 0 0 .939 2.822 7.018 2.744 0 0 16.846 1.65 38.533-8.9-.003-.001 3.036-2.02 2.605-5.138zm-208.82 42.105c.018-8.229.018-16.457.038-24.685-2.193 3.605-4.373 7.229-6.556 10.848-.604-7.125-1.234-14.573-1.829-21.654l.888-1.447 7.121-11.674.224 17.19.075 6.181v.602l2.829-4.604 7.16-11.697.205 17.214.075 6.137.02.6c-3.392 5.67-6.838 11.34-10.25 16.989zm153.235-29.177s-.512 7.838-1.299 17.929c-2.702-4.464-5.402-8.923-8.094-13.394 0 8.229.02 16.457.02 24.686-3.432-5.671-6.86-11.364-10.308-17.035.019 8.229.019 16.457.037 24.707-3.43-5.693-6.877-11.387-10.306-17.057 0 8.229.017 16.456.017 24.685-3.429-5.694-6.857-11.364-10.287-17.057 0 8.251.018 16.478.018 24.729-3.428-5.693-6.876-11.387-10.306-17.08.019 8.228.019 16.479.036 24.706a8987.581 8987.581 0 01-10.306-17.056c0 8.227.018 16.478.036 24.705-3.447-5.669-6.876-11.361-10.324-17.056.019 8.229.019 16.458.038 24.686l-10.288-17.014-10.231 16.901-.036-.045c.018-8.183.036-16.389.036-24.573a42716.21 42716.21 0 00-10.288 17.013l-.019-.022c.019-8.206.019-16.435.036-24.641-3.447 5.671-6.876 11.364-10.306 17.057 0-8.25.019-16.478.019-24.706-3.43 5.693-6.858 11.387-10.306 17.057.019-8.228.019-16.457.039-24.706-3.433 5.692-6.879 11.362-10.308 17.056.018-8.228.018-16.456.034-24.706-3.446 5.693-6.875 11.386-10.322 17.079.017-8.25.017-16.479.037-24.729l2.736-4.514 7.178-11.743.224 17.301.074 6.071v.601l2.773-4.537 7.197-11.764.225 17.324.074 6.004v.601l2.755-4.492 7.234-11.81.224 17.414.074 5.938v.6l2.718-4.447 7.254-11.854.225 17.479.073 5.871v.601l2.7-4.404 7.289-11.918.207 17.546.074 5.825.018.601 2.644-4.358 7.626-12.565 8.135 13.478 2.078 3.446v-.601l.058-4.469.244-18.902 7.796 12.764 2.173 3.558.018-.601.056-4.692.227-18.658 7.721 12.61 2.268 3.689v-.6l.055-4.87.227-18.48 7.645 12.477 2.343 3.825.02-.602.057-5.093.225-18.235 7.533 12.32 2.436 3.98.018-.601.058-5.293.224-18.08 7.478 12.21 2.512 4.113v-.6l.076-5.494.224-17.856 7.364 12.054 2.605 4.246.018-.6.074-5.693.206-17.68 7.311 11.942 2.248 3.676c-.131 1.286-.261 2.565-.396 3.822zm.89-9.343l.004-.271.225-17.456.955 1.563c-.235 3.785-.64 9.797-1.184 16.164z"/><path d="M512.233 862.889l-.206 17.68-.074 5.693-.018.6-2.605-4.246-7.364-12.054-.224 17.856-.076 5.494v.6l-2.512-4.113-7.478-12.21-.224 18.08-.058 5.293-.018.601-2.436-3.98-7.533-12.32-.225 18.235-.057 5.093-.02.602-2.343-3.825-7.645-12.477-.227 18.48-.055 4.87v.6l-2.268-3.689-7.721-12.61-.227 18.658-.056 4.692-.018.601-2.173-3.558-7.796-12.764-.244 18.902-.058 4.469v.601l-2.078-3.446-8.135-13.478-7.626 12.565-2.644 4.358-.018-.601-.074-5.825-.199-17.546-7.289 11.918-2.7 4.404v-.601l-.073-5.871-.225-17.479-7.254 11.854-2.718 4.447v-.6l-.074-5.938-.224-17.414-7.234 11.81-2.755 4.492v-.601l-.074-6.004-.225-17.324-7.197 11.764-2.773 4.537v-.601l-.074-6.071-.224-17.301-7.178 11.743-2.736 4.514c-.021 8.251-.021 16.479-.037 24.729 3.447-5.693 6.876-11.386 10.322-17.079-.017 8.25-.017 16.479-.034 24.706 3.429-5.693 6.875-11.363 10.308-17.056-.021 8.249-.021 16.479-.039 24.706 3.447-5.67 6.876-11.363 10.306-17.057 0 8.229-.019 16.456-.019 24.706 3.43-5.692 6.858-11.386 10.306-17.057-.018 8.206-.018 16.435-.036 24.641l.019.022a42716.21 42716.21 0 0110.288-17.013c0 8.185-.019 16.391-.036 24.573l.036.045 10.231-16.901 10.288 17.014c-.02-8.228-.02-16.457-.038-24.686 3.448 5.694 6.877 11.387 10.324 17.056-.019-8.228-.036-16.479-.036-24.705 3.43 5.693 6.859 11.363 10.306 17.056-.018-8.228-.018-16.479-.036-24.706 3.43 5.693 6.878 11.387 10.306 17.08 0-8.252-.018-16.479-.018-24.729 3.43 5.692 6.858 11.362 10.287 17.057 0-8.229-.017-16.456-.017-24.685 3.429 5.67 6.876 11.363 10.306 17.057-.019-8.25-.019-16.479-.037-24.707 3.447 5.671 6.876 11.364 10.308 17.035 0-8.229-.02-16.457-.02-24.686 2.691 4.471 5.392 8.93 8.094 13.394.787-10.091 1.299-17.929 1.299-17.929.135-1.257.265-2.536.39-3.823l-2.248-3.676-7.313-11.941zM522.296 872.717l-.004.271c.544-6.367.948-12.379 1.184-16.163l-.955-1.563-.225 17.455zM378.322 887.78l-.205-17.214-7.16 11.697-2.829 4.604v-.602l-.075-6.181-.224-17.19-7.121 11.674-.888 1.447c.595 7.081 1.225 14.529 1.829 21.654 2.183-3.619 4.362-7.242 6.556-10.848-.021 8.228-.021 16.456-.038 24.685 3.412-5.648 6.858-11.319 10.25-16.99l-.02-.6-.075-6.136z"/></svg>