<svg xmlns="http://www.w3.org/2000/svg" width="272.688" height="337.292" viewBox="304 302 272.688 337.292"><path fill="none" d="M576.644 441.755s-1.436-19.096-2.453-35.293c0 0 1.727-29.647-15.627-56.117 0 0-5.49-6.648-16.627-16.628v.007c-10.504-6.073-25.037-10.142-25.037-10.142-14.746-2.992-32.314-13.173-32.314-13.173-1.451-1.157-7.42-2.221-7.42-2.221h-25.529V302h-20.34v6.188H404.76c-3.471.2-7.035 1.064-7.035 1.064-16.781 10.613-44.547 17.94-44.547 17.94-6.371 2.128-13.498 5.599-13.498 5.599v-.031s-4.535 4.921-9.055 8.376c0 0-21.688 16.197-23.91 59.001l-.293 7.805-.586 6.371s-.184 7.914-.863 14.947c0 0-.293 14.068-.973 15.041 0 0 11.184 10.504 38.379 11.568 0 0 6.756.201 9.934-2.406 0 0-.215-1.928.078-7.035 0 0 .4-4.828.787-8.775 0 0-.865-13.684.678-23.91 0 0-.293-1.449 1.25-1.203 2.9 7.805 3.471 27.334 3.471 27.334 2.313 27.766 5.645 66.529 5.645 66.529 3.471 52.061-7.527 108.178-7.527 108.178a114.528 114.528 0 01-1.588 8.098c1.357 13.111 27.766 14.563 27.766 14.563 50.609 4.242 102.578.586 102.578.586 24.68-.479 32.1-5.492 32.1-5.492 7.143-3.084 8.299-8.576 8.299-8.576.423-1.113-.212-3.327-.6-4.478.379 1.206.848 3.079.47 4.071 0 0-1.152 5.474-8.272 8.549 0 0-7.396 4.997-31.998 5.474 0 0-51.805 3.644-102.256-.585 0 0-26.323-1.445-27.677-14.516 0 0 .891-3.69 1.583-8.072 0 0 10.963-55.94 7.504-107.836 0 0-.488-5.682-1.219-14.235l4.107-6.727.299 23.321v.6l9.974-16.302.282 23.342.019.599 9.956-16.279.298 23.32v.6l9.977-16.302.282 23.342.018.6 9.956-16.279.28 23.32.019.578 9.956-16.279.3 23.342v.599l9.977-16.302.28 23.321.018.6 10.445-18.479 10.442 18.523v-.6l.298-23.321 9.956 16.303v-.6l.301-23.342 9.976 16.301v-.599l.299-23.32 9.956 16.279v-.6l.3-23.342 9.956 16.301.019-.6.28-23.32 9.976 16.28v-.6l.301-23.32 9.956 16.279.018-.599.28-23.32 5.616 9.195c-.408 4.066-.833 7.893-1.261 11.155 0 0-1.923 29.799.477 55.94 0 0 2.384 24.387 7.889 56.417 0 0 .044.113.111.298-5.51-32.085-7.898-56.503-7.898-56.503-2.406-26.223-.477-56.117-.477-56.117 2.313-17.646 4.533-51.676 4.533-51.676 1.451-13.496 2.314-29.602 2.314-29.602.748-6.856 2.444-10.835 2.885-11.777a.745.745 0 00-.023.037s-2.122 4.076-2.982 11.964c0 0-.082 1.532-.238 4.041l-.953-1.56-.224 17.434v.001l.002-.001-.003.231-.002.026a471.975 471.975 0 01-.502 5.524l-2.246-3.672-7.3-11.926-.204 17.656v.037l-.074 5.648-.02.591v.01l-.942-1.537-1.66-2.707h.001l-7.354-12.036-.225 17.834-.076 5.486v.6l-2.506-4.109-7.468-12.193-.227 18.057-.056 5.286-.019.6-2.432-3.976-7.524-12.304-.224 18.213-.057 5.086-.018.6-.002-.003v.001l-.906-1.481-1.432-2.338-7.637-12.459-.224 18.456-.059 4.864v.6l-2.264-3.688-7.71-12.593-.225 18.634-.056 4.687-.021.6-2.17-3.554-7.786-12.748-.242 18.878-.056 4.465v.6l-.002-.003v.002l-1.338-2.219-.738-1.223-8.123-13.459-7.618 12.548-2.638 4.354-.021-.6-.073-5.82-.207-17.523-7.279 11.905-.826 1.347-1.868 3.049v-.002l-.004.002v-.6l-.074-5.864-.225-17.457-7.242 11.837h.001l-1.886 3.085-.829 1.357v-.6l-.076-5.93-.224-17.39-7.224 11.792-.844 1.375-1.907 3.11v-.002l-.002.003v-.6l-.074-5.997-.224-17.301-7.187 11.748h.001l-2.771 4.53v-.002l-.002.003v-.6l-.074-6.063-.225-17.278-7.168 11.727-2.731 4.509c-.019.022-.019.044-.057.066l-.02-.599-.074-6.129-.206-17.191-7.149 11.68h.001l-2.826 4.598v-.001l-.002.003v-.6l-.074-6.175-.224-17.168-7.112 11.659-.885 1.444c-.228-2.713-.45-5.372-.664-7.936 0 0-.216-7.37-1.055-14.853a7485.354 7485.354 0 0110.24-16.945c-.021 8.24-.021 16.458-.038 24.675 3.425-5.663 6.867-11.349 10.294-17.035 0 8.218-.02 16.458-.038 24.675 3.443-5.686 6.868-11.371 10.293-17.035 0 8.217-.019 16.457-.019 24.675 3.425-5.664 6.868-11.349 10.295-17.035-.021 8.217-.021 16.436-.038 24.652 3.442-5.663 6.867-11.349 10.294-17.012 0 8.217-.02 16.457-.037 24.675 3.442-5.686 6.867-11.373 10.31-17.035-.018 8.217-.018 16.436-.037 24.652 3.427-5.686 6.869-11.35 10.294-17.035-.018 8.24-.018 16.458-.038 24.697 3.443-5.686 6.663-11.371 10.106-17.057 3.425 5.686 6.569 11.372 9.994 17.057 0-8.239-.019-16.457-.019-24.697 3.426 5.686 6.85 11.35 10.275 17.035 0-8.217-.019-16.436-.019-24.652 3.425 5.663 6.868 11.349 10.293 17.035-.019-8.218-.019-16.458-.038-24.675 3.444 5.663 6.869 11.349 10.294 17.012 0-8.216-.018-16.435-.038-24.652 3.445 5.686 6.87 11.371 10.313 17.035-.018-8.218-.018-16.458-.036-24.675 3.425 5.664 6.868 11.35 10.293 17.035-.019-8.217-.019-16.457-.038-24.675 3.444 5.686 6.869 11.372 10.313 17.035-.019-8.216-.038-16.435-.038-24.675 3.425 5.686 6.85 11.349 10.294 17.035-.018-8.216-.018-16.435-.038-24.652 2.012 3.306 4.009 6.627 6.01 9.944-.199.372-.398.728-.597 1.069-.164.466-.324.938-.475 1.433 0 0 .262.803.631 3.596 0 0 .371 7.666.51 21.256 0 0 .586 7.234.803 15.117 0 0 .939 2.822 7.018 2.744 0 0 16.846 1.65 38.533-8.9.002.005 3.041-2.014 2.609-5.132zm-147.1 87.38l.038.045-.038.066v-.111zm-10.253-7.573l.018.022c0 .023-.018.023-.018.045v-.067zM347.622 396.69c-.298-.727-.595-1.468-.888-2.222l.894-1.477-.006 3.699zm7.892 16.111s-.959-1.607-2.379-4.313c1.584-2.619 3.168-5.244 4.747-7.855 0 8.028-.018 16.057-.019 24.085-.522-4.521-1.275-9.026-2.349-11.917zm176.366-19.809l1.789 2.957a184.048 184.048 0 01-1.783 4.912l-.006-7.869z"/><path fill="gray" d="M367.934 458.819v.001l2.826-4.597-.001-.001-.001.003zM388.465 474.098v.002l2.771-4.531h-.001l-.001.001zM398.721 481.718l1.907-3.11-1.907 3.108zM409.825 488.002l1.885-3.085h-.001l-.001.001zM419.252 496.999l1.869-3.05-1.869 3.047zM449.982 504.639v-.002l-1.338-2.217zM460.238 496.999l.02-.6.056-4.687-.058 4.686zM480.769 481.718v-.001l-.906-1.48zM511.556 458.812l.02-.591.074-5.649-.076 5.65zM508.955 454.577l-.001.001 1.66 2.707-1.658-2.706zM521.904 444.926l.003-.231-.002.001-.003.256.002-.026z"/><path fill="#231F20" d="M347.622 396.69l.006-3.698-.894 1.477c.293.754.59 1.495.888 2.221zM531.88 392.992l.006 7.869a184.048 184.048 0 001.783-4.912l-1.789-2.957zM353.135 408.488c1.42 2.705 2.379 4.313 2.379 4.313 1.074 2.891 1.827 7.396 2.35 11.917.001-8.028.019-16.057.019-24.085-1.58 2.611-3.164 5.236-4.748 7.855zM521.604 400.633c.021 8.217.021 16.436.038 24.652a8120.545 8120.545 0 01-10.294-17.035c0 8.24.02 16.458.038 24.675-3.443-5.663-6.868-11.349-10.313-17.035.02 8.219.02 16.458.038 24.675-3.425-5.686-6.868-11.371-10.293-17.035.019 8.218.019 16.458.036 24.675-3.442-5.664-6.867-11.349-10.313-17.035.021 8.217.038 16.436.038 24.652-3.425-5.663-6.85-11.349-10.294-17.012.02 8.218.02 16.458.038 24.675-3.425-5.686-6.868-11.373-10.293-17.035 0 8.217.019 16.436.019 24.652-3.426-5.686-6.85-11.35-10.275-17.035 0 8.241.019 16.458.019 24.697-3.425-5.686-6.569-11.371-9.994-17.057-3.443 5.686-6.663 11.372-10.106 17.057.021-8.24.021-16.458.038-24.697-3.425 5.686-6.867 11.35-10.294 17.035.02-8.217.02-16.436.037-24.652-3.442 5.663-6.867 11.349-10.31 17.035.018-8.219.037-16.458.037-24.675-3.427 5.663-6.852 11.349-10.294 17.012.018-8.216.018-16.435.038-24.652-3.427 5.686-6.87 11.371-10.295 17.035 0-8.219.019-16.458.019-24.675-3.425 5.664-6.85 11.35-10.293 17.035.019-8.218.038-16.458.038-24.675-3.427 5.686-6.869 11.372-10.294 17.035.018-8.217.018-16.435.038-24.675a7485.354 7485.354 0 00-10.24 16.945c.839 7.483 1.055 14.853 1.055 14.853l.664 7.936.885-1.444 7.112-11.659.224 17.168.074 6.175v.6l.002-.003 2.824-4.595.001-.002 7.149-11.68.206 17.191.074 6.129.02.599c.038-.022.038-.044.057-.066l2.731-4.509 7.168-11.727.225 17.278.074 6.063v.6l.002-.003 2.769-4.527.001-.001 7.187-11.748.224 17.301.074 5.997v.6l.002-.003 1.907-3.108.844-1.375 7.224-11.792.224 17.39.076 5.93v.6l.829-1.357 1.884-3.084.001-.001 7.242-11.837.225 17.457.074 5.864V497l.002-.003 1.868-3.047.826-1.347 7.279-11.905.207 17.523.073 5.82.021.6 2.638-4.354 7.618-12.548 8.123 13.459.738 1.223 1.338 2.217.002.003v-.6l.056-4.465.242-18.878 7.786 12.748 2.17 3.554.019-.601.058-4.686.225-18.634 7.71 12.593 2.264 3.688v-.6l.059-4.864.224-18.456 7.637 12.459 1.432 2.338.906 1.48.002.003.018-.6.057-5.086.224-18.213 7.524 12.304 2.432 3.976.019-.6.056-5.286.227-18.057 7.468 12.193 2.506 4.109v-.6l.076-5.486.225-17.834 7.354 12.036.001.002 1.658 2.706.942 1.537v-.01l.018-.59.076-5.649v-.037l.204-17.656 7.3 11.926 2.246 3.672c.179-1.841.346-3.697.502-5.524l.003-.256v-.001l.224-17.434.953 1.56c.156-2.509.238-4.041.238-4.041.86-7.888 2.982-11.964 2.982-11.964a.745.745 0 00.023-.037c.067-.145.107-.223.107-.223.203-.311.406-.641.609-.986l-.025.077c.198-.341.397-.698.597-1.069-2.006-3.319-4.003-6.641-6.015-9.946zm-143.339 65.76c-.019.022-.019.044-.057.067l-.018-.601-.076-6.129 2.882 2.154-2.731 4.509z"/><path fill="#231F20" d="M378.191 465.859l.018.601c.038-.023.038-.045.057-.067l2.731-4.509-2.882-2.154.076 6.129z"/><path fill="gray" d="M429.544 529.135v.111l.039-.066z"/><path opacity=".5" fill="#231F20" d="M516.968 561.74c-2.399-26.141-.477-55.94-.477-55.94.428-3.263.853-7.089 1.261-11.155l-5.616-9.195-.28 23.32-.018.599-9.956-16.279-.301 23.32v.6l-9.976-16.28-.28 23.32-.019.6-9.956-16.301-.3 23.342v.6l-9.956-16.279-.299 23.32v.599l-9.976-16.301-.301 23.342v.6l-9.956-16.303-.298 23.321v.6l-10.442-18.523-10.445 18.479-.018-.6-.28-23.321-9.977 16.302v-.599l-.3-23.342-9.956 16.279-.019-.578-.28-23.32-9.956 16.279-.018-.6-.282-23.342-9.977 16.302v-.6l-.298-23.32-9.956 16.279-.019-.599-.282-23.342-9.974 16.302v-.6l-.299-23.321-4.107 6.727c.73 8.553 1.219 14.235 1.219 14.235 3.459 51.896-7.504 107.836-7.504 107.836-.692 4.382-1.583 8.072-1.583 8.072 1.354 13.07 27.677 14.516 27.677 14.516 50.451 4.229 102.256.585 102.256.585 24.602-.477 31.998-5.474 31.998-5.474 7.12-3.075 8.272-8.549 8.272-8.549.378-.992-.091-2.865-.47-4.071-.149-.444-.264-.735-.264-.735l-.016-.093c-.067-.185-.111-.298-.111-.298-5.501-32.029-7.885-56.416-7.885-56.416z"/><path fill="gray" d="M419.291 521.562v.067c0-.022.018-.022.018-.045l-.018-.022z"/></svg>