<svg xmlns="http://www.w3.org/2000/svg" width="80" height="80"><g fill-rule="evenodd" clip-rule="evenodd"><path fill="#000202" d="M25.413 3.116c0-.442-.087-1.987.034-2.979h-1.974c-.022.199-.02.367.034.428-.218.994-.08 1.332-.621 2.337-.019.034-.009.075-.009.111 0 .625.211 2.854-.289 3.236-.888.679-.117 3.869-.621 4.337-.039.036-.017.151-.017.202-.374.918.211 3.955-.205 5.304-.1.326-.06 1.555-.06 1.995-.564 1.143.045 3.656-.423 5.123-.058.183-.086 1.743-.003 1.99.218.016.227.961.227 1.144v.312c.029 5.623.225 2.071.729 2.357 0 1.045-.53.745-.53 2.448 0 .417.597 2.115.597.635 0-.602-.271-1.73.645-.85.271.259-.313.714-.313 1.03-.042-.008-.034.637-.079.77-.038.116.052 2.152-.048 1.839-.154-.484-.122-.414-.122-.942 0-.103.062-.943-.199-.929-.058-.193-.34.718-.235 1.12.029.11.03.447.15.561.003.003.119.454.119.473.255.879.062 4.142-.354 4.911-.363.675.146 2.401-.464 2.996-.218.213.222 2.641-.144 2.792-.001 1.057-.442 2.365.182 3.4.198.328-.163 4.609.028 4.249.651-1.225.121 2.577.121 2.822 0 2.199.729 3.021.729 5.255v4.13c.354.063.173 1.27.136 1.586-.064.55-.156 1.396.112 1.898.35.653-.376 2.323.178 2.777.013.011.006.068.006.085-.224.337.463 3.169.463 3.87 0 .616.063 2.44.072 3.922h.411c.036-.098.086-.116.153 0h.469c.014-.234.089-.439.341-.885.331-.584.739-1.386.739-2.009 0-.539-.363-1.189-.363-2.001 0-.397-.119-1.745.189-2.042.827-.795-.021-2.238-.153-1.15-.033.271-.96.39-.308-.234.128-.122-.36-.093-.325-.423.065-.942-.149-.535.359-1.488.218-.41-.393-1.631-.393-2.312 0-.646.058-1.628-.227-2.215-.016-.034-.005-.571-.005-.649-.171-.801.567-1.566-.039-3.483-.355-1.123.668-2.108.668-3.498 0-1.859.173-.811-.717-2.086-.072-.104.055-3.403.055-3.808 0-.41-.132-.639-.132-.907.16-.153.231-4.456-.014-4.626-.568-.393-.284.591-.284.892 0 .349.145 1.213-.16 1.451-.012.009-.264.895-.472-.072-.233-1.072.563-1.599.465-2.584 0-.005.299-.877.299-1.322 0-.583.073-.793-.259-1.311-.002-.002-.043-.625 0-.557.204.328.287.011.259.666-.003.069.57-.252-.024-.705-.087-.065-.042-.393-.042-.514.255-.372.247-1.821.37-2.404.063-.301-.045-.971.353-1.273.09-.068.375-1.803.078-1.354-.242.365.112.804-.397 1.301-.2.195-.31 1.758-.439 1.844-.253.167-.229.553-.229-.334 0-.464.151-1.545.609-1.871.204-.145-.014-1.172-.014-1.507 0-.392-.013-2.037.26-2.25.015-.011.006-.167.006-.198-.242-.005-.085-.738-.292-1.033-.161-.229.166-5.631-.364-6.137-.134-.127-.108-1.861-.362-2.282-.096-.16.155-1.479-.135-1.24-.002.001-.241.282-.237.312.152-.179-.023-2.107.189-2.579.042-.092.232-1.269.356-1.405.211-.233-.101-2.386.265-2.713.178-.159.45-.849.258-1.157-.019-.029-.009-.068-.009-.103.622-2.248-.767-9.068.684-10.533.028-.028.012-.167.012-.211.197.067.116.319.116.462 0 .281-.121 1.906.09 2.007.01.005.438-.018.161-.36-.105-.131.088-1.736.175-1.899.219-.414.154-1.448.154-1.956zM54.136 3.116c0-.442-.087-1.987.034-2.979h-1.976c-.021.199-.019.367.035.428-.217.994-.08 1.332-.621 2.337-.018.035-.008.076-.008.112 0 .625.211 2.854-.289 3.236-.888.679-.117 3.869-.621 4.337-.039.036-.017.151-.017.202-.374.918.211 3.955-.205 5.304-.101.326-.061 1.555-.061 1.995-.563 1.143.046 3.656-.422 5.123-.058.183-.086 1.743-.002 1.99.217.016.226.961.226 1.144v.312c.029 5.623.225 2.071.729 2.357 0 1.045-.53.745-.53 2.448 0 .417.597 2.115.597.635 0-.602-.271-1.73.646-.85.27.259-.314.714-.314 1.03-.042-.008-.034.637-.079.77-.038.116.052 2.152-.048 1.839-.155-.484-.122-.414-.122-.942 0-.103.062-.943-.198-.929-.058-.193-.341.718-.236 1.12.028.11.03.447.15.561.003.003.119.454.119.473.255.879.062 4.142-.354 4.911-.363.675.146 2.401-.464 2.996-.218.213.223 2.641-.144 2.792-.001 1.057-.442 2.365.182 3.4.198.328-.163 4.609.028 4.249.652-1.225.121 2.577.121 2.822 0 2.199.729 3.021.729 5.255v4.13c.354.063.173 1.27.136 1.586-.064.55-.157 1.396.112 1.898.351.653-.375 2.323.177 2.777.014.011.007.068.007.085-.224.337.463 3.169.463 3.87 0 .616.064 2.44.072 3.922h.412c.035-.098.085-.116.152 0h.469c.015-.234.089-.439.341-.885.332-.584.74-1.386.74-2.009 0-.539-.364-1.189-.364-2.001 0-.397-.119-1.745.189-2.042.828-.795-.021-2.238-.153-1.15-.033.271-.96.39-.307-.234.127-.122-.361-.093-.326-.423.065-.942-.149-.535.359-1.488.219-.41-.393-1.631-.393-2.312 0-.646.058-1.628-.226-2.215-.018-.034-.006-.571-.006-.649-.171-.801.568-1.566-.039-3.483-.355-1.123.669-2.108.669-3.498 0-1.859.172-.811-.718-2.086-.071-.104.056-3.403.056-3.808 0-.41-.134-.639-.134-.907.161-.153.232-4.456-.013-4.626-.568-.393-.285.591-.285.892 0 .349.146 1.213-.159 1.451-.012.009-.263.895-.473-.072-.232-1.072.564-1.599.467-2.584-.001-.005.298-.877.298-1.322 0-.583.073-.793-.259-1.311-.002-.002-.043-.625 0-.557.204.328.288.011.259.666-.003.069.57-.252-.024-.705-.087-.065-.042-.393-.042-.514.255-.372.247-1.821.37-2.404.063-.301-.045-.971.354-1.273.09-.068.375-1.803.077-1.354-.242.365.112.804-.397 1.301-.2.195-.31 1.758-.439 1.844-.253.167-.229.553-.229-.334 0-.464.151-1.545.609-1.871.204-.145-.014-1.172-.014-1.507 0-.392-.013-2.037.26-2.25.014-.011.006-.167.006-.198-.241-.005-.085-.738-.293-1.033-.16-.229.167-5.631-.363-6.137-.134-.127-.108-1.861-.362-2.282-.096-.16.155-1.479-.135-1.24-.001.001-.241.282-.237.312.152-.179-.023-2.107.189-2.579.042-.092.232-1.269.355-1.405.212-.233-.099-2.386.266-2.713.178-.159.45-.849.258-1.157-.018-.029-.009-.068-.009-.103.622-2.248-.767-9.068.685-10.533.028-.028.011-.167.011-.211.198.067.116.319.116.462 0 .281-.12 1.906.09 2.007.01.005.438-.018.162-.36-.105-.131.088-1.736.174-1.899.218-.415.154-1.449.154-1.957zM28.974 2.085c-.018-.098-.001-.983.01-1.947h-1.12c-.207.516-.364 1.079-.364 1.668 0 .762-.273 5.335.138 5.527.842.393-.983 1.311.138 2.98 1.169 1.739-1.343 2.448-.541 3.434.133.163.066.414.066.601-.153.313-.513 2.804-.29 3.172.006.001.14-.834.301-1.041.113-.145.387-2.511.387-.678 0 .501-.301.98-.232 1.715.005.049-.749 2.001.055 1.148.13-.138-.021-.26-.021-.439 0 .576.266.623.266 1.382v.499c-.263.298-.125 5.686-.302 6.64-.111.602-.195 1.64-.195 2.269.012.003-.331 1.587-.331 1.806 0 .354-.021 1.434-.216 1.682-.036.046.05 2.172.05 1.887 0-.364.397-.271.397-1.11 0-.52.291-1.655.334-2.238.002-.027.123-.442.196-.438 0-.762.066.808.066.979 0 1.08-.066 2.218-.066 3.26-.079.006-.695.708-.695 1.128 0 .007-.023 2.089.099 1.483.67-3.311.489-.56.447-.525-.38.304.353 5.721-.251 6.213-.019.016-.581 1.792-.32 1.853.865.2.5-.075.66-.769.169-.73.341-1.543.422-2.279.066-.608.136-.893.136-1.548 0-.411-.207-3.266.154-3.449.43-.219.38.519.121.853-.241.312-.312 1.852.031 2.144.136.116.098.948-.12 1.175-.051.054-.055.146-.055.206-.209.25-.023.861-.229 1.284-.001.004-.019.618-.106.821-.034.077-.013.887-.013 1.045-.317.605.063 1.752-.289 2.313-.284.453-.329 4.621-.21 5.304.001.01.027.046.036.068-.405.021-.344 5.789.496 6.46.113.092.1.454.1.59-.205.574.397 1.217.397 2.147 0 .896-.005.999.168 1.856.148.73-.003 4.525-.003 5.584-.05.042-.014 3.592-.223 3.921-.004.007-.489 1.988.218 1.377.063-.054.011-1.274.13-1.552.1-.236.179-2.085.284-1.957.27.324.194 2.774-.071 2.977-.008.006-.019.69-.198.839-.005.004-.008 1.023-.122 1.129-.028.026-.116.623-.116.679.001.881-.153 1.015.293 1.819.017.031-.02.645.162.967.047.084.042.46.025.869h.44c.04-.118.072-.27.072-.59 0-.331.061-1.086-.226-1.304-.127-.097-.135-2.474.115-2.816.459-.628.317-1.398.054-2.022-.512-1.202.738-3.171.065-3.542-.103-.057.026-.1-.107-.136-.413-.668.322-8.118-.124-8.435-.373-.264-.127-1.597.091-1.585-.136-.323.21-2.196-.392-2.196-.1.198.188 1.304-.231 1.288-.098-.139.066-1.287-.229-1.836-.067-.125.389-1.621.389-2.147 0-.395-.037-2.145-.138-2.43a2.541 2.541 0 01-.027-.182c.317.007.103-3.719-.199-3.864-.462-.222.28-4.151.513-4.572.457-.825.387-7.723-.031-8.5-.043-.08-.018-.347-.018-.449.474-.714-.397-3.611-.397-4.669 0-1.751.464-2.79.464-4.621 0-1.14-.331-1.538-.331-2.451.354-.668-.612-1.358.121-1.961.076-.063-.144-1.721.242-2.028.685-.547-.665-2.022.442-3.128-.039-.096.188-4.355.188-4.896-.312-1.587-.331-2.212-.331-3.788 0-1.086.354-2.097.654-3.171.3-1.072-.521-3.136-.521-1.676 0 .412.157 1.727-.182 2.005-.109.09-.311 2.075-.571 2.493-.064.103.129.838-.202.608-.448-.312.325-2.326.325-2.786V2.085zM57.696 2.085c-.019-.098-.002-.983.01-1.947h-1.12c-.207.517-.364 1.079-.364 1.668 0 .762-.273 5.335.138 5.527.842.393-.982 1.311.139 2.98 1.169 1.739-1.343 2.448-.542 3.434.134.163.066.414.066.601-.152.313-.512 2.804-.289 3.172.006.001.14-.834.301-1.041.113-.145.387-2.511.387-.678 0 .501-.301.98-.233 1.715.005.049-.748 2.001.056 1.148.129-.138-.021-.26-.021-.439 0 .576.265.623.265 1.382v.499c-.263.298-.124 5.686-.301 6.64-.111.602-.196 1.64-.196 2.269.012.003-.331 1.587-.331 1.806 0 .354-.021 1.434-.215 1.682-.036.046.049 2.172.049 1.887 0-.364.398-.271.398-1.11 0-.52.29-1.655.333-2.238.003-.027.123-.442.197-.438 0-.762.065.808.065.979 0 1.08-.065 2.218-.065 3.26-.079.006-.696.708-.696 1.128 0 .007-.023 2.089.1 1.483.67-3.311.489-.56.447-.525-.38.304.353 5.721-.251 6.213-.019.016-.582 1.792-.32 1.853.865.2.499-.075.659-.769.17-.73.342-1.543.423-2.279.066-.608.136-.893.136-1.548 0-.411-.208-3.266.153-3.449.431-.219.381.519.122.853-.242.312-.312 1.852.03 2.144.137.116.098.948-.119 1.175-.051.054-.055.146-.055.206-.209.25-.024.861-.229 1.284-.002.004-.02.618-.106.821-.034.077-.013.887-.013 1.045-.318.605.063 1.752-.29 2.313-.284.453-.329 4.621-.21 5.304.002.01.028.046.036.068-.405.021-.344 5.789.496 6.46.113.092.101.454.101.59-.206.574.396 1.217.396 2.147 0 .896-.005.999.169 1.856.147.73-.003 4.525-.003 5.584-.051.042-.015 3.592-.224 3.921-.004.007-.488 1.988.219 1.377.062-.054.011-1.274.129-1.552.101-.236.18-2.085.285-1.957.269.324.194 2.774-.072 2.977-.007.006-.019.69-.198.839-.005.004-.008 1.023-.121 1.129-.028.026-.117.623-.117.679.002.881-.152 1.015.293 1.819.018.031-.02.645.163.967.047.084.042.46.025.869h.439c.04-.118.073-.27.073-.59 0-.331.06-1.086-.227-1.304-.127-.097-.135-2.474.116-2.816.458-.628.317-1.398.053-2.022-.511-1.202.738-3.171.066-3.542-.103-.057.025-.1-.108-.136-.412-.668.323-8.118-.123-8.435-.374-.264-.128-1.597.091-1.585-.137-.323.209-2.196-.392-2.196-.101.198.188 1.304-.232 1.288-.098-.139.066-1.287-.229-1.836-.067-.125.39-1.621.39-2.147 0-.395-.038-2.145-.138-2.43a2.063 2.063 0 01-.028-.182c.318.007.104-3.719-.199-3.864-.461-.222.28-4.151.514-4.572.457-.825.386-7.723-.032-8.5-.043-.08-.017-.347-.017-.449.473-.714-.398-3.611-.398-4.669 0-1.751.465-2.79.465-4.621 0-1.14-.332-1.538-.332-2.451.354-.668-.611-1.358.121-1.961.077-.063-.144-1.721.243-2.028.684-.547-.665-2.022.442-3.128-.039-.096.188-4.355.188-4.896-.313-1.587-.331-2.212-.331-3.788 0-1.086.354-2.097.653-3.171.301-1.072-.521-3.136-.521-1.676 0 .412.157 1.727-.181 2.005-.109.09-.311 2.075-.572 2.493-.064.103.13.838-.201.608-.449-.312.325-2.326.325-2.786V2.085z"/><path fill="#8D8F92" d="M34.67 68.093c.091-.127.067-1.137-.473-.846-.274.147.201 1.012.3.979.112-.037.162-.118.173-.133zm.166.453c.163.112-.696.771-.589.014.023-.171.564-.186.564-.094 0 .021-.01.085.004.098l.021-.018zm-.389.629c-.11.06-.016 1.779.018 1.782.089.008.551-.079.234-.331-.121-.097.033-1.105-.15-1.256-.029-.024.059-.049-.085-.173l-.017-.022zm-.513-10.434c0 .071-.196.492.101.361.18-.08-.101-.357-.101-.361zm.09.721c-.057.044-.137.454-.127.457.354.073.774-.261.383-.327-.065-.011-.186-.184-.256-.13zm-.107.726c-.207.103-.342 1.581.163.923.236-.309.458-.661.031-.904-.03-.019-.191-.021-.194-.019zm3.075-23.411c-.002-.014-.001-.042-.002-.083-.016-.572.019-3.638.074-3.641.329-.014-.027.717.153 1.021.176.297.385.393.362.806-.002.022.376-.07.23-.182-.046-.034.025-.474-.183-.58-.105-.054-.065-.872-.065-.995.071-.053.406-1.35.131-1.494-.276-.146.234-.565.234-.84 0-.381.241-.726-.178-1.015-.115-.08.009-.401-.154-.479-.028-.015-.017-.028-.017-.061-.113-.077-.183-1.099.083-1.099.425 0 .298-.398.298-.67 0-.545.004-.549-.472-.072-.054.053-.067.827-.17 1.021-.101.188-.099.267-.274.458-.132.143.104.684.104.957v.91c0-.307-.331.088-.264-.561.016-.152-.021-1.126-.129-1.208-.195-.149.271-1.36.089-1.693-.064-.119-.066-.659.121-.754.291-.147-.005.365.862.365.005 0 .176-.635-.127-.535-.109.037-.435.121-.519.065-.229-.152-.61-.663-.063-.695.222-.014.429-.396.052-.637-.01-.006-.057-.058-.105-.091-.002-.201-.031-.417.106-.594.007-.009.042-2.211.042-2.535-.001-.006.031-.98-.147-.789-.006.007.016 1.549-.223 1.87-.057.077.051 1.34-.177.83-.137-.308.173-.865-.227-1.418-.069-.095.074-1.523.112-1.734.064-.354.097-.435.097-.844v-.067c0-.556-.004-.911-.068-1.45-.008-.066-.046-.597.065-.541.66.33.59.765.455 1.246-.092.324.163 1.865-.035 2.028-.005.004.318.004.233-.28-.127-.424.091-.926.189-1.328.089-.36.1-1.01-.288-1.256-.025-.016-.186-.521-.204-.55-.15-.169-.174-2.459-.588-3.321-.249-.519.02-1.984.127-2.516.088-.438.27-.807.395-1.224.01-.033.006-.023.019-.016.567.74.226.548.297 1.246.004.038.254 1.171.267 1.196.059.115.119.482.228.724.014.029.071.099.104.102-.137.424-.084 3.253.182 3.694.104.171-.049 3.275-.049 3.831.26.307-.176 3.177.078 4.137.322 1.224.12 7.507.12 9.237 0 .077-1.008.475-.607 1.5.056.142 1.282-.317.492 1.08-.043.075-.017.855-.017 1.001-.075.055-.233.401-.525.419-.236.015-.201.059-.327-.143-.037-.058.034-.701-.059-.929-.044-.105-.026-.537-.114-.736-.01-.025.002-.072-.024-.088zm6.602-7.164c.012-.786.024-1.453.03-1.675.029-1.062.045-1.302.045-2.528v-.204c0-.866-.001-1.57-.005-2.273-.023 2.588-.063 5.531-.07 6.68zm.208 16.066a.513.513 0 01.013-.058c.135-.441-.002 1.097.398 1.097.003 0 .082-1.902-.058-1.604-.052.109-.201.362-.24.195a8.217 8.217 0 01-.151-1.217c.014.475.026 1.007.038 1.587zm.022 29.05c0-3.115.015-9.523.036-9.529.152-.043-.013 2.148.071 3.062.081.89.178 1.177.167 2.416 0 .068.174-.212.106-.544-.021-.104.012-1.421-.084-1.739-.049-.16-.03-2.616-.03-2.984.033-.161.188-4.047.061-4.48-.128-.436.108-1.696.108-2.518 0-1.144.111-2.175-.082-3.042-.054-.24.004-1.203-.071-1.438-.014-.041-.008-.082-.008-.179-.053-.233-.085-3.296.038-3.296.196 0 .138-1.194.138-2.008 0-1.634.002-1.646-.218-.218-.025.16-.031 2.482-.079 3.062-.045.555-.045.791-.123 1.346v1.393c.021.54.045 1.113.045 1.504v2.729c0-.368-.024-.399-.052-.43-.017 5.026-.056 9.835-.056 12.08 0 .232-1.012 1.421-.609 4.493.032.238.436-.094.642.32zm.497-53.704c.063-.253.148-.488.255-.692.195-.376-.863-.773.557-2.415.39-.45-.51-1.538-.907-1.869.02 1.152.046 2.063.08 2.428.014.159.017 1.174.015 2.548zm-.033 16.184c.148-.299.269-.611.269-.938 0-1.066-.111-2.035.246-3.049.04-.117-.033-4.918-.094-5.282-.463-.185.008-1.019.007-1.028-.02-.035.278-1.683-.188-2.695a3.423 3.423 0 01-.214-.637c-.013 2.659-.03 5.528-.03 6.384.072.562.026 4 .004 7.245zm-.376 1.81l-.002.245c-.063.529-.05 1.179-.049 1.778.022.101.044.258.049.274.175.721.079 1.867-.024 1.907-.101.039-.133.306-.13.641a32.034 32.034 0 00-.085-1.615c-.145-1.639-.065-5.132-.019-8.006.051 1.263-.025 2.432.024 3.15.104 1.525.056-2.26.082-2.49.109-.965.101-5.588.104-5.606.082-.574.067 2.346.067 2.366 0 .695-.009 4.282-.014 6.27-.176.381-.256.742-.003 1.086zm.294-24.449c.206-.875.522-2.04.036-2.402a.53.53 0 01-.052-.042c.002.814.008 1.652.016 2.444zm-1.882 37.357a.538.538 0 00-.13-.168c-.06-.05-.102-.404.165-.526-.015.248-.027.484-.035.694zM45.045.138h.422c-.014.804-.054 1.925.262 2.558.06.119.247 1.188-.006 1.421-.878.812-.868.329-.809 1.603.029.619-.397.62-.397-.442 0-1.442.176-.444.636-1.514.206-.478-.828-.831-.139-1.874.035-.055.036-.937.031-1.752zm-2.801 0h.617c-.012.271-.02.62-.002 1.126.005.114.255 3.509.268 3.583.06.346.12 1.446.229 2.168.014.087.071.296.104.303-.138 1.27-.085 9.744.183 11.066.018.083.026.398.032.876.297.987.265 2.28.203 3.712-.043.973.076 5.596-.016 6.084-.003.012.146.011.107-.842-.059-1.27.042-2.773.088-3.981.041-1.081.046-3.027-.134-3.765-.012-.049-.086-1.566-.095-1.65-.069-.507-.08-7.373-.271-9.957-.115-1.556.009-5.952.059-7.544.013-.41.029-.799.049-1.179h.282c-.007.28-.011.646-.002 1.199.002.114.117 3.513.123 3.588.017.22.034.745.058 1.285h.001v.001l.008.174c.11.58 1.099.29 1.099-.011 0 .64-.646 1.422-.172 1.723.146.093.007.85.32 1.378.213.359-.229 1.111-.229 1.741 0 1.229-.623.621-.474-.628.026-.224.105-2.707-.256-2.647-.012.002-.158 1.149-.235 2.136v1.371a.05.05 0 00.011.016c.089.087.524.564.589.574.012.034 1.609 3.295.332 2.194-.612-.527-.212-.784-.364.438-.027.216.764 1.302.443 2.34-.138.448-.153 2.037.188.542.15-.654.41-.438.239-1.386-.087-.479.4-.393.4.712 0 .102-.191 2.78-.686 1.899-.36-.643-.269.037-.269.3-.004-.003.597.637.597 1.822 0 .232.123 1.962-.271 2.018-.02.039-.007.192-.007.24.648 1.104-.115 2.234.245 3.291.003.008-.166 2.113-.166 1.75 0-.786.577-.646.438-1.587-.072-.493.056-1.002-.148-1.473-.062-.142-.169-2.521.317-2.673.898-.283.29.95-.212 1.16-.071.03-.17 2.252.341 2.659.121.097-.024 4.117-.337 4.271-.417.204-.614-1.716-.557-.494.01.207-.444.255.079.93-.123.246.417.443-.218.952-.503.402.975.782.387 1.634-.416.604.176 1.246-.169 1.779-.148.23-.074 1.639.036.612.056-.513.362 2.201.176 2.396-.705.734-.16-1.214-.537-.902.055.194-.116 1.319-.364 1.577-.016.016-.126.396-.422.289 0 1.232.009 2.316.038 3.039.149 3.666.057 22.509.057 27.695 0 .232-.467 1.423-.281 4.498.025.427.593-.951.228 3.239-.013.15-.013 1.225-.011 2.062h-.396a23.05 23.05 0 00-.022-1.016c-.021-.312-.013-1.577-.052-2.184-.04.287-.095.611-.164.979-.031.16-.027 1.368-.021 2.22h-.86c-.003-.463-.015-.912-.05-1.176-.044-.314-.026-1.609-.115-2.205-.014-.088-.002-.227-.027-.274-.002-.039 0-.125-.002-.248-.016-1.714.02-10.896.075-10.904.331-.042-.027 2.146.154 3.059.177.889.387 1.175.363 2.413-.002.069.377-.212.231-.544-.046-.103.025-1.419-.184-1.736-.105-.161-.064-2.613-.064-2.981.07-.16.408-4.042.131-4.476-.277-.435.235-1.694.235-2.515 0-1.143.242-2.172-.178-3.039-.116-.239.008-1.201-.155-1.437-.028-.04-.018-.082-.018-.178-.113-.233-.183-3.293.084-3.293.426 0 .299-1.192.299-2.006 0-1.632.004-1.644-.474-.218-.054.161-.067 2.479-.171 3.059-.101.563-.099.798-.276 1.371-.132.428.106 2.048.106 2.866v2.727c0-.49-.095-.383-.174-.471.074 1.148.574 3.876.527 3.963-.638 1.189-1.826 5.915-.813 7.058 1.061 1.197-1.331 2.881-.816 2.027.886-1.467-.671-4.59.271-6.904 1.135-2.787-1.259-4.871-.249-6.642 1.118-1.964-1.278-4.949.853-5.926.074-1.252.208-2.861.096-3.476-.064-.354-.066-1.973.122-2.258.292-.441-.006 1.095.865 1.095.005 0 .178-1.899-.127-1.602-.11.108-.437.361-.521.195-.231-.455-.614-1.986-.064-2.084.224-.04.432-1.186.053-1.904-.009-.017-.057-.174-.106-.274-.001-.6-.03-1.248.107-1.776.007-.027.042-6.623.042-7.593 0-.021.032-2.937-.148-2.364-.006.02.016 4.638-.223 5.602-.057.229.051 4.011-.177 2.486-.139-.923.173-2.594-.229-4.247-.069-.286.074-4.563.113-5.196.064-1.062.097-1.301.097-2.526v-.203c-.001-1.664-.004-2.729-.068-4.342-.008-.198-.047-1.789.065-1.622.664.989.593 2.291.456 3.732-.092.971.165 5.589-.035 6.076-.005.012.32.011.235-.841-.127-1.268.091-2.771.191-3.977.088-1.08.1-3.024-.29-3.761-.025-.049-.188-1.563-.205-1.648-.152-.506-.176-7.365-.591-9.946-.25-1.554.021-5.945.128-7.536.028-.381.062-.746.1-1.102zm-8.138 0h.838c.205 1.124.305 2.972.596 3.211.453.373.144 1.751.144 2.21.013.002.369.524.792.591.004.027.028.022.083.038 0 .29-.098 1.31.08 1.491.014.014-.03.359.072.43-.042.189.19.242-.065.511-.132.137-.007-.264-.145-.398-.063-.064.099-.35-.153-.512-.249-.16-.007-1.014-.302-.566-.256.387.397 1.773.397 2.38 0 .641.047.823-.186 1.449-.102.276.006.416.003.438-.095.17-.038 1.191-.145 1.546-.037.125-.021 3.133-.021 3.571 0 0 .263.915.033 1.132-.516.487-.539.647-.265 1.286.194.454.217 2.929.094 3.458-.191.82.504.441.334 1.483-.063.389-.031.962-.031 1.376.122.087-.052 2.262.129 2.562.27.444-.277.876-.277 1.326-.12.094-.017.637-.053.807.063.047.467-.622.467-.239 0 .202.042 1.008-.331 1.02-.24.007-.133.274-.133.501 0 .292-.048.199.133.439.261.364.693.792.193 1.12.124.361-.716 1.984-.435 2.625.179.404-.281 1.074.302 1.554.204.167-.474.824-.066.882.015.025.006.06.006.087.135.15-.265 6.147-.331 6.164-.059.014-.602.692-.304.937.144.118.363 1.299.18 1.624-.017.029-.015.314.024.343-.033.099.236 1.676.358 1.836.021.025-.072 1.089-.392 1.063-.646-.052.001.817-.273 1.447-.21.483.142.544.142 1.156 0 .824-.159 2.113.156 2.856.004.009.081.844.144 1.091.033.13.107.238.163.388-.279.972.099 2.454-.223 3.4-.146.424-.151 1.926.491 2.263.074.039.195.342.195.412-.359.351-.314 1.424-.314 1.893-.14.518-.093 3.221.124 3.723.137.319-.124 1.374-.124 1.852v1.634c.281.583.256 2.58.413 2.731.041.039.051 3.162-.008 5.105h-.82a3.57 3.57 0 00.018-.374c0-1.404-.1-2.878-.1-4.218 0-.301-.431-1.079-.431-1.925 0-.415.12-1.217-.091-1.591-.018-.03-.009-.061-.009-.093-.037-.019.132-1.813.132-2.045 0-.553.16-2.545-.396-2.847-.374-.203.411-1.003.138-1.585-.063-.135-.105-1.909-.105-2.182-.053-.197.03-.924-.063-1.025-.023-.026-.07-.38-.07-.448-.177-.101.034-1.736-.103-2.078-.015-.035-.005-1.043-.005-1.187a10.014 10.014 0 01-.018-.72c.212-.848-.006-1.942-.151-2.754-.139-.771.127-1.479-.234-2.194-.138-.02-.061-.716-.061-.843.083-.536-.104-3.938.159-4.154.511-.419.302-1.314.24-1.854-.008-.074-.212-.118-.201-.202-.152-.455-.111-4.343.144-4.67.288-.368.291-1.357.061-1.773l-.006-.063c-.073-.145-.099-2.665-.051-3.105.009-.09.375-.141.196.419-.051.154-.334 1.597.256 1.062.104-.095-.011-1.19-.083-1.323-.013-.024-.004-.368-.004-.43.27-.373-.249-2.297-.249-2.96 0-.771-.333-1.354.059-1.97.021-.035.009-.271.009-.317-.002-1.159-.07-1.831.189-2.968.055-.241-.353-1.497-.464-1.854-.002-.006-.116-1.337-.35-.861-.006.011.06 1.331.06 1.513 0 .586.157 1.971-.157 2.471-.268.428.29 1.966.29 2.537v1.067c.11.311-.045 1.114.192 1.347.008.008-.159 1.936-.159 2.191 0 .896-.332.447-.332 1.494v2.493c.277.084.605.629.08.912-.108.059-.461.404-.424.472.249.44-.134 1.491.266 1.663.028.012.199.256.194.296-.001.872.03 1.533-.103 2.39-.101.652.235 3.357-.107 3.712-.254.263.192 1.27-.066 1.64-.203.29.177 1.093.177 1.542-.431.206.366 4.035-.19 4.035-.76 0-.349-1.433-.483-2.006-.091-.384-.145-2.471.201-2.783.021-.02.042-.2.042-.244-.046-.041.146-.647.197-.737.045-.083.022-.702-.02-.8a3.148 3.148 0 01-.104-.333c-.305-.239.141-2.825-.257-3.254-.247-.268.016-1.667.383-1.72.135-.265-.013-1.218-.151-1.446a4.217 4.217 0 01-.141-.431c.202-.158.116-.62.116-.837v-.212c-.06-.191.046-.44-.139-.592-.146-.12.353-.432.15-.769-.146-.242-.12-.955-.12-1.246-.206-1.406-.238-4.635.141-5.941.02-.068.009-.153.009-.225-.056-.878.193-3.785-.158-4.361-.218-.359-.107-4.587-.107-5.431-.071-.214-.098-6.939.11-7.023.259-.104.076.898.38 1.136.369.288-.723 1.254-.165 1.677.062.048-.152.283.273.516.43.236-.765.633.058 1.275.19.149-.219 1.302-.364 1.397.117.508-.203-.06.172.318.197.198-.198 2.455.358 2.013.054-.043-.099-.754.133-.929.271-.206-.01-3.245.262-3.91.212-.52-.322-1.096-.322-1.78 0-.452-.124-1.087.159-1.467.064-.086-.079-.313.072-.408-.097-.301-.11-2.027.023-2.227.011-.016.155-.56-.291-.325-.516.271-.001.41-.166.897-.137.401.258.364-.243.854-.031.03-.002.316-.149.337-.002.004.055.507-.06.363-.133-.164.127-1.065-.35-1.677-.162-.209.622-.896.622-1.533 0-.09.051-.338.182-.374.175-.273.385-.115.431-.669.032-.392.101-.467.064-.909-.039-.487.168-.908.168-1.482 0-.577.247-1.032-.313-1.58-.006-.006-.003-.04-.003-.051-.572-1.94.726-2.739.342-4.553-.208-.993-.576-1.9-.708-2.888zm-.796 0c.212.592.188 1.277.188 1.839 0 1.028-.921 2.917-.645 3.404.685 1.212.316 3.636.529 3.929.313.433-.002 2.956.458 2.517.378-.362.677-3.952.436-4.455-1.058-2.202.083-4.993-.635-7.026-.025-.072-.049-.141-.07-.207h-.261V.138zm3.712 5.891c0 .096.106.503.118.602.032.305.329.298.182.375-.202.106-.146.74-.117.769v1.553c0 .146-.079.964-.017 1.009 0 .212-.082.358.198.457.955-.959.397-.457.397-1.965 0-.269-.477-2.551-.463-2.754.143-2.286.172-3.963-.262-5.937H35.94c-.035.264-.047.472-.012.554.646 1.467-.361 2.558 1.094 5.337z"/></g></svg>