<svg xmlns="http://www.w3.org/2000/svg" width="272.687" height="337.292"><path fill="none" d="M145.761 123.599c-.038-.138.551-6.709-.373-10.75a24.775 24.775 0 01-.423-2.54c-.023 10.608-.06 22.053-.06 25.463.145 2.248.052 15.96.011 28.901.293-1.192.531-2.438.531-3.744 0-4.251-.222-8.116.485-12.16.08-.464-.065-19.613-.186-21.066-.914-.739.018-4.064.015-4.104zM144.457 208.634c-.05.641-.062 9.9-.156 12.21-.089 2.212-.089 3.156-.244 5.368.001 1.834.002 3.688.001 5.557.039 2.15.088 4.438.088 5.997v10.887c0-1.469-.048-1.593-.103-1.714-.033 20.048-.108 39.228-.108 48.185 0 .923-2.004 5.668-1.207 17.919.063.958.863-.366 1.271 1.282 0-12.424.028-37.985.071-38.01.301-.17-.025 8.569.14 12.212.161 3.551.354 4.693.331 9.636-.001.274.345-.845.212-2.17-.042-.411.022-5.667-.168-6.936-.096-.641-.059-10.435-.059-11.904.064-.641.372-16.14.119-17.87-.253-1.735.214-6.767.214-10.041 0-4.563.222-8.674-.162-12.135-.105-.958.009-4.797-.142-5.735-.025-.163-.015-.33-.015-.712-.104-.933-.168-13.148.075-13.148.39 0 .273-4.763.273-8.01.001-6.516.004-6.565-.431-.868zM111.699 88.951c0 .637.041 1.109.099 1.527.102-.462-.099-.911-.099-1.527zM168.526 88.951c0 .638.041 1.11.1 1.529.103-.463-.1-.912-.1-1.529z"/><path fill="none" d="M272.645 139.755s-1.436-19.096-2.453-35.293c0 0 1.727-29.647-15.627-56.117 0 0-5.49-6.648-16.627-16.628v.007C227.434 25.651 212.9 21.583 212.9 21.583 198.154 18.59 180.586 8.41 180.586 8.41c-1.451-1.157-7.42-2.221-7.42-2.221h-1.649c-.024 4.33-.108 18.01-.072 18.388v9.532c0 1.835-1.531 9.872-.645 11.112.656.917.271-2.015.4-2.425.516-1.669.914-9.586 1.131-9.944.67-1.111.359-6.354.359-7.995 0-5.826 1.625 2.405 1.031 6.683-.594 4.283-1.293 8.316-1.293 12.649 0 6.285.037 8.775.654 15.105 0 2.16-.447 19.149-.37 19.529-2.192 4.411.478 10.297-.876 12.478-.764 1.229-.328 7.838-.48 8.09-1.449 2.403.461 5.156-.239 7.821 0 3.643.655 5.232.655 9.779 0 7.303-.918 11.445-.918 18.428 0 4.221 1.723 15.779.787 18.625 0 .408-.053 1.474.033 1.793.828 3.098.967 30.611.064 33.902-.463 1.678-1.93 17.351-1.016 18.237.598.579 1.022 15.438.394 15.413 0 .069.049.691.055.723.198 1.138.272 8.119.272 9.69 0 2.102-.902 8.068-.77 8.565.585 2.189.261 6.771.453 7.323.832.063.261-4.347.459-5.137 1.189 0 .506 7.471.775 8.761-.432-.047-.918 5.269-.18 6.322.883 1.261-.572 30.975.244 33.64.264.145.01.317.214.544 1.329 1.479-1.142 9.331-.13 14.127.523 2.486.801 5.563-.105 8.067-.496 1.366-.481 10.849-.229 11.233.565.867.446 3.877.446 5.2 0 1.276-.063 1.88-.144 2.351h-.871c.033-1.63.043-3.132-.051-3.466-.359-1.285-.287-3.731-.321-3.856-.881-3.208-.577-3.744-.579-7.257 0-.222.175-2.601.23-2.705.226-.423.231-4.491.24-4.504.355-.592.378-3.324.393-3.346.527-.808.675-10.579.142-11.875-.208-.507-.364 6.866-.563 7.806-.233 1.108-.134 5.977-.257 6.192-1.398 2.438-.439-5.466-.431-5.491.413-1.313.342-15.476.441-15.642 0-4.222.298-19.357.005-22.271-.342-3.42-.332-3.835-.332-7.406 0-3.711-1.193-6.273-.787-8.564 0-.541.027-1.988-.197-2.352-1.661-2.675-1.783-25.685-.981-25.767-.017-.087-.068-.232-.071-.271-.236-2.726-.146-19.35.415-21.157.696-2.235-.056-6.808.573-9.222 0-.632-.042-3.861.025-4.17.172-.811.206-3.26.21-3.273.404-1.688.039-4.128.453-5.123 0-.24.008-.609.107-.822.43-.905.507-4.222.237-4.686-.678-1.167-.539-7.306-.061-8.55.512-1.33.609-4.271-.242-3.399-.713.731-.305 12.115-.305 13.758 0 2.613-.136 3.747-.268 6.171-.16 2.939-.5 6.177-.835 9.093-.317 2.764.407 3.863-1.306 3.066-.518-.241.598-7.33.633-7.391 1.194-1.965-.254-23.567.497-24.78.084-.137.441-11.11-.884 2.095-.243 2.418-.197-5.888-.197-5.915 0-1.677 1.221-4.476 1.377-4.497 0-4.158.13-8.697.13-13.005 0-.684-.13-6.941-.13-3.903-.146-.016-.385 1.64-.389 1.749-.086 2.327-.66 6.856-.66 8.928 0 3.35-.787 2.977-.787 4.43 0 1.136-.17-7.342-.098-7.527.386-.986.426-5.294.426-6.706 0-.87.678-7.189.654-7.202 0-2.511.168-6.647.389-9.048.35-3.808.075-25.296.595-26.483v-1.989c0-2.189-.273-2.895-.425-3.985-.017.074-.021.148-.057.224-1.59 3.403-.1-4.384-.108-4.579-.135-2.93.46-4.842.46-6.842 0-7.311-.541 2.13-.765 2.705-.319.824-.583 4.154-.596 4.15-.44-1.467.271-11.401.573-12.649 0-.746.132-1.745-.131-2.397-1.586-3.928 3.384-6.756 1.07-13.695-2.217-6.657 1.393-10.318-.272-11.888-.815-.767-.273-19.007-.273-22.046 0-2.236.332-14.345.719-17.274h-5.063c-.197 4.554.217 20.788.217 22.502 0 2.026.129 6.15-.305 7.794-.17.651-.553 7.056-.345 7.576.548 1.369-.302 1.457-.319 1.439-.416-.4-.178-6.884-.178-8.006 0-.569.161-1.573-.23-1.841 0 .173.035.726-.021.842-2.871 5.839-.123 33.044-1.354 42.012 0 .137-.019.293.017.405.381 1.233-.156 3.984-.509 4.618-.722 1.304-.106 9.889-.525 10.821-.243.546-.622 5.24-.704 5.605-.408 1.823-.095 9.082-.351 10.179.094-.306.442-1.134.445-1.138.573-.951.077 4.312.269 4.95.501 1.678.451 8.594.715 9.101 1.049 2.019.401 23.566.721 24.478.41 1.175.1 4.103.578 4.122 0 .124.016.747-.012.792-.539.849-.514 7.411-.514 8.974 0 1.334.432 5.432.027 6.011-.906 1.298-1.206 5.611-1.206 7.46 0 3.54-.049 2.001.453 1.333.256-.341.472-6.572.868-7.353 1.01-1.983.307-3.731.787-5.191.588-1.788.023 5.13-.153 5.402-.788 1.206-.572 3.878-.698 5.078-.244 2.326-.229 8.105-.732 9.591 0 .48-.088 1.786.082 2.049 1.177 1.807.043 3.086.049 2.811.057-2.612-.108-1.349-.513-2.658-.085-.271-.003 2.213 0 2.222.657 2.065.513 2.904.513 5.229 0 1.776-.591 5.253-.59 5.274.193 3.928-1.383 6.027-.923 10.307.414 3.854.911.322.935.286.602-.948.316-4.398.316-5.786 0-1.199-.561-5.123.564-3.557.484.676.342 17.84.024 18.451 0 1.07.263 1.983.263 3.617 0 1.613-.251 14.776-.108 15.19 1.76 5.085 1.419.902 1.419 8.315 0 5.545-2.025 9.475-1.322 13.956 1.201 7.645-.262 10.696.077 13.892 0 .313-.022 2.452.011 2.592.562 2.341.447 6.254.447 8.832 0 2.716 1.209 7.586.775 9.221-1.006 3.8-.58 2.178-.71 5.937-.069 1.316.896 1.201.646 1.687-1.294 2.488.541 2.017.605.935.263-4.34 1.941 1.418.305 4.589-.611 1.184-.375 6.558-.375 8.145 0 3.235.721 5.83.721 7.979 0 2.485-.809 5.684-1.465 8.016-.499 1.774-.646 2.594-.675 3.527h-.927c-.135-.464-.231-.391-.303 0h-.814c-.016-5.907-.143-13.186-.143-15.643 0-2.796-1.358-14.093-.917-15.438 0-.067.015-.295-.012-.338-1.093-1.812.343-8.473-.351-11.077-.533-2.006-.351-5.379-.223-7.571.074-1.264.432-6.076-.268-6.328v-16.471c0-8.911-1.442-12.188-1.442-20.96 0-.978 1.051-16.144-.239-11.258-.379 1.438.336-15.639-.057-16.95-1.234-4.127-.361-9.346-.359-13.562.725-.604-.146-10.285.285-11.134 1.205-2.373.199-9.261.918-11.949.821-3.07 1.203-16.086.698-19.591 0-.075-.229-1.874-.235-1.884-.237-.453-.24-1.795-.297-2.238-.207-1.605.352-5.237.467-4.467.514-.057.393 3.296.393 3.706 0 2.105-.065 1.826.24 3.759.197 1.247.02-6.874.096-7.334.088-.533.074-3.103.156-3.07 0-1.264 1.156-3.078.621-4.111-1.811-3.51-1.277.99-1.277 3.389 0 5.905-1.18-.869-1.18-2.531 0-6.791 1.049-5.599 1.049-9.765-.997-1.14-1.385 13.027-1.442-9.403v-1.242c0-.728-.018-4.499-.446-4.56-.166-.987-.111-7.211.004-7.941.925-5.848-.28-15.872.836-20.434 0-1.756-.08-6.656.119-7.955.822-5.38-.334-17.494.404-21.156 0-.202-.044-.662.033-.807.996-1.863-.527-14.589 1.229-17.299.99-1.526.572-10.412.572-12.905 0-.146-.018-.31.018-.445 1.039-3.891.563-17.245.926-21.649h-12.688V0h-20.34v6.188h-12.608c-.024 4.33-.107 18.01-.072 18.388v9.532c0 1.835-1.531 9.872-.644 11.112.655.917.271-2.015.398-2.425.517-1.669.915-9.586 1.132-9.944.67-1.111.359-6.354.359-7.995 0-5.826 1.624 2.405 1.031 6.683-.595 4.283-1.294 8.316-1.294 12.649 0 6.285.038 8.775.655 15.105 0 2.16-.448 19.149-.371 19.529-2.191 4.411.478 10.297-.876 12.478-.764 1.229-.328 7.838-.479 8.09-1.45 2.403.462 5.156-.24 7.821 0 3.643.656 5.232.656 9.779 0 7.303-.918 11.445-.918 18.428 0 4.221 1.723 15.779.787 18.625 0 .408-.052 1.474.033 1.793.827 3.098.968 30.611.063 33.902-.46 1.678-1.929 17.351-1.015 18.237.598.579 1.022 15.438.393 15.413 0 .069.049.691.055.723.199 1.138.273 8.119.273 9.69 0 2.102-.902 8.068-.77 8.565.584 2.189.261 6.771.453 7.323.831.063.261-4.347.459-5.137 1.189 0 .506 7.471.775 8.761-.432-.047-.919 5.269-.181 6.322.884 1.261-.571 30.975.245 33.64.265.145.011.317.213.544 1.331 1.479-1.141 9.331-.13 14.127.523 2.486.802 5.563-.105 8.067-.495 1.366-.479 10.849-.229 11.233.565.867.448 3.877.448 5.2 0 1.276-.064 1.88-.145 2.351h-.871c.033-1.63.043-3.132-.05-3.466-.36-1.285-.288-3.731-.321-3.856-.883-3.208-.578-3.744-.58-7.257 0-.222.176-2.601.23-2.705.226-.423.23-4.491.24-4.504.355-.592.378-3.324.393-3.346.527-.808.674-10.579.143-11.875-.209-.507-.365 6.866-.564 7.806-.233 1.108-.133 5.977-.256 6.192-1.398 2.438-.438-5.466-.431-5.491.413-1.313.342-15.476.44-15.642 0-4.222.3-19.357.007-22.271-.344-3.42-.333-3.835-.333-7.406 0-3.711-1.193-6.273-.787-8.564 0-.541.027-1.988-.197-2.352-1.662-2.675-1.783-25.685-.981-25.767-.017-.087-.069-.232-.071-.271-.235-2.726-.147-19.35.415-21.157.696-2.235-.056-6.808.572-9.222 0-.632-.042-3.861.025-4.17.173-.811.208-3.26.21-3.273.406-1.688.039-4.128.453-5.123 0-.24.008-.609.109-.822.43-.905.505-4.222.236-4.686-.679-1.167-.54-7.306-.061-8.55.512-1.33.609-4.271-.241-3.399-.715.731-.306 12.115-.306 13.758 0 2.613-.137 3.747-.268 6.171-.16 2.939-.501 6.177-.835 9.093-.317 2.764.406 3.863-1.306 3.066-.517-.241.598-7.33.634-7.391 1.193-1.965-.256-23.567.495-24.78.085-.137.442-11.11-.884 2.095-.243 2.418-.196-5.888-.196-5.915 0-1.677 1.221-4.476 1.376-4.497 0-4.158.132-8.697.132-13.005 0-.684-.132-6.941-.132-3.903-.144-.016-.384 1.64-.388 1.749-.085 2.327-.66 6.856-.66 8.928 0 3.35-.787 2.977-.787 4.43 0 1.136-.17-7.342-.098-7.527.385-.986.425-5.294.425-6.706 0-.87.679-7.189.655-7.202 0-2.511.168-6.647.388-9.048.351-3.808.076-25.296.596-26.483v-1.989c0-2.19-.273-2.896-.425-3.987-.017.075-.021.149-.057.226-1.591 3.403-.1-4.384-.108-4.579-.135-2.93.459-4.842.459-6.842 0-7.311-.54 2.13-.765 2.705-.318.824-.583 4.154-.596 4.15-.44-1.467.271-11.401.574-12.649 0-.746.133-1.745-.131-2.397-1.586-3.928 3.383-6.756 1.07-13.695-2.217-6.657 1.393-10.318-.272-11.888-.814-.767-.272-19.007-.272-22.046 0-2.236.331-14.345.717-17.274h-4.797c-.211 4.554-.049 20.788-.049 22.502 0 2.026.129 6.15-.304 7.794-.171.651-.556 7.056-.347 7.576.549 1.369-.3 1.457-.318 1.439-.416-.4-.178-6.884-.178-8.006 0-.569.16-1.573-.229-1.841 0 .173.034.726-.022.842-2.871 5.839-.123 33.044-1.355 42.012 0 .137-.018.293.018.405.382 1.233-.157 3.984-.51 4.618-.721 1.304-.105 9.889-.523 10.821-.244.546-.622 5.24-.705 5.605-.408 1.821-.096 9.069-.35 10.176.095-.308.441-1.131.443-1.135.574-.951.078 4.312.268 4.95.502 1.678.453 8.594.717 9.101 1.049 2.019.402 23.566.721 24.478.41 1.175.1 4.103.578 4.122 0 .124.017.747-.012.792-.539.849-.514 7.411-.514 8.974 0 1.334.432 5.432.027 6.011-.907 1.298-1.207 5.611-1.207 7.46 0 3.54-.047 2.001.453 1.333.257-.341.474-6.572.869-7.353 1.01-1.983.307-3.731.787-5.191.588-1.788.023 5.13-.154 5.402-.787 1.206-.572 3.878-.697 5.078-.244 2.326-.229 8.105-.732 9.591 0 .48-.089 1.786.082 2.049 1.177 1.807.043 3.086.049 2.811.057-2.612-.108-1.349-.514-2.658-.084-.271-.002 2.213 0 2.222.658 2.065.514 2.904.514 5.229 0 1.776-.592 5.253-.59 5.274.193 3.928-1.383 6.027-.922 10.307.412 3.854.91.322.934.286.603-.948.316-4.398.316-5.786 0-1.199-.562-5.123.563-3.557.484.676.343 17.84.026 18.451 0 1.07.262 1.983.262 3.617 0 1.613-.252 14.776-.108 15.19 1.759 5.085 1.419.902 1.419 8.315 0 5.545-2.026 9.475-1.322 13.956 1.201 7.645-.262 10.696.076 13.892 0 .313-.021 2.452.011 2.592.562 2.341.449 6.254.449 8.832 0 2.716 1.207 7.586.775 9.221-1.007 3.8-.581 2.178-.71 5.937-.071 1.316.896 1.201.645 1.687-1.294 2.488.541 2.017.606.935.261-4.34 1.94 1.418.304 4.589-.611 1.184-.375 6.558-.375 8.145 0 3.235.72 5.83.72 7.979 0 2.485-.808 5.684-1.464 8.016-.498 1.774-.646 2.594-.676 3.527h-.926c-.134-.464-.232-.391-.303 0h-.814c-.017-5.907-.143-13.186-.143-15.643 0-2.796-1.357-14.093-.918-15.438 0-.067.016-.295-.011-.338-1.094-1.812.342-8.473-.351-11.077-.533-2.006-.352-5.379-.223-7.571.074-1.264.431-6.076-.268-6.328v-16.471c0-8.911-1.441-12.188-1.441-20.96 0-.978 1.049-16.144-.24-11.258-.379 1.438.336-15.639-.057-16.95-1.234-4.127-.361-9.346-.359-13.562.724-.604-.146-10.285.285-11.134 1.205-2.373.199-9.261.918-11.949.82-3.07 1.203-16.086.698-19.591 0-.075-.229-1.874-.235-1.884-.236-.453-.24-1.795-.298-2.238-.206-1.605.353-5.237.467-4.467.515-.057.394 3.296.394 3.706 0 2.105-.064 1.826.241 3.759.196 1.247.019-6.874.095-7.334.089-.533.073-3.103.156-3.07 0-1.264 1.155-3.078.621-4.111-1.811-3.51-1.277.99-1.277 3.389 0 5.905-1.179-.869-1.179-2.531 0-6.791 1.048-5.599 1.048-9.765-.998-1.14-1.386 13.027-1.443-9.403v-1.242c0-.728-.018-4.499-.446-4.56-.166-.987-.109-7.211.005-7.941.925-5.848-.279-15.872.836-20.434 0-1.756-.079-6.656.119-7.955.822-5.38-.335-17.494.404-21.156 0-.202-.043-.662.033-.807.997-1.863-.527-14.589 1.229-17.299.989-1.526.573-10.412.573-12.905 0-.146-.02-.31.017-.445 1.039-3.891.813-17.245 1.192-21.649h-3.004c-3.471.2-7.035 1.064-7.035 1.064-16.781 10.613-44.547 17.94-44.547 17.94-6.371 2.128-13.498 5.599-13.498 5.599v-.031s-4.535 4.921-9.055 8.376c0 0-21.688 16.197-23.91 59.001l-.293 7.805-.586 6.371s-.184 7.914-.863 14.947c0 0-.293 14.068-.973 15.041 0 0 11.184 10.504 38.379 11.568 0 0 6.756.201 9.934-2.406 0 0-.215-1.928.078-7.035 0 0 .4-4.828.787-8.775 0 0-.865-13.684.678-23.91 0 0-.293-1.449 1.25-1.203 2.9 7.805 3.471 27.334 3.471 27.334a31347.44 31347.44 0 005.645 66.53c3.471 52.061-7.527 108.178-7.527 108.178a114.528 114.528 0 01-1.588 8.098c1.357 13.111 27.766 14.563 27.766 14.563 50.609 4.242 102.578.586 102.578.586 24.68-.479 32.1-5.492 32.1-5.492 7.143-3.084 8.299-8.576 8.299-8.576.586-1.543-.863-5.213-.863-5.213-5.521-32.131-7.914-56.596-7.914-56.596-2.406-26.223-.477-56.117-.477-56.117 2.313-17.646 4.533-51.676 4.533-51.676 1.451-13.496 2.314-29.602 2.314-29.602.863-7.912 2.992-12 2.992-12 .203-.311.406-.641.609-.986-.174.49-.342.988-.5 1.51 0 0 .262.803.631 3.596 0 0 .371 7.666.51 21.256 0 0 .586 7.234.803 15.117 0 0 .939 2.822 7.018 2.744 0 0 16.846 1.65 38.533-8.9.007-.004 3.046-2.023 2.615-5.141zM128.4 6.389h2.212c.859 7.875.801 24.983.518 34.102-.025.81.918 9.913.918 10.984 0 6.015 1.102 4.011-.787 7.837-.554-.393-.393-.979-.393-1.824-.124-.181.032-3.441.032-4.022v-6.193c-.055-.114-.169-2.642.232-3.065.292-.31-.295-.279-.36-1.497-.021-.391-.232-2.018-.232-2.399-2.878-11.086-.887-25.855-2.162-31.711-.07-.328-.046-1.16.022-2.212zm-4.835 17.757c0-2.241.047-15.396-.372-17.758h.516c.044.268.09.541.141.828 1.419 8.108-.838 29.661 1.255 38.447.478 2.003-.113 16.323-.861 17.768-.91 1.754-.286-8.312-.906-10.038-.421-1.168.308-10.834-1.049-15.67-.546-1.941 1.276-9.475 1.276-13.577zm.831 232.178c.005-.006.323.005.385.076.845.968.405 2.377-.063 3.608-.998 2.625-.732-3.275-.322-3.684zm.232-4.325c-.588.522-.199-1.156-.199-1.439 0 .012.555 1.121.199 1.439zm.485 1.951c.776.267-.057 1.598-.756 1.303-.021-.008.139-1.646.251-1.822.136-.215.377.475.505.519zm-.164 30.533c1.068-1.158 1.115 2.865.937 3.371-.021.063-.12.388-.344.535-.193.129-1.135-3.316-.593-3.906zm.53 14.797c-.064-.012-.253-6.871-.035-7.108l.033.09c.285.495.11.594.168.689.364.603.058 4.623.299 5.011.624 1.003-.289 1.352-.465 1.318zm-.431-9.56c.048-.685 1.117-.742 1.117-.373 0 .079-.019.335.009.388l.04-.071c.321.449-1.379 3.075-1.166.056zm4.691 45.08h-1.625c.021-.416.035-.905.035-1.489 0-5.604-.197-11.481-.197-16.824 0-1.199-.852-4.304-.852-7.677 0-1.655.237-4.854-.18-6.346-.034-.121-.018-.242-.018-.368-.073-.077.262-7.235.262-8.16 0-2.202.315-10.15-.786-11.354-.739-.807.814-3.998.273-6.32-.126-.536-.208-7.614-.208-8.703-.105-.785.06-3.684-.124-4.09-.047-.104-.14-1.514-.14-1.787-.35-.401.068-6.923-.203-8.288-.028-.141-.009-4.161-.009-4.731-.033-.681-.034-2.149-.034-2.871.418-3.381-.013-7.747-.301-10.984-.273-3.073.252-5.899-.464-8.755-.271-.077-.119-2.854-.119-3.359.164-2.138-.205-15.709.315-16.569 1.01-1.671.597-5.241.476-7.398-.017-.296-.42-.47-.398-.806-.302-1.813-.222-17.321.283-18.625.57-1.471.576-5.416.12-7.075l-.011-.248c-.146-.576-.196-10.63-.103-12.387.02-.358.743-.563.389 1.671-.099.615-.66 6.371.507 4.233.208-.379-.022-4.747-.164-5.275-.025-.102-.008-1.47-.008-1.715.533-1.488-.492-9.162-.492-11.806 0-3.079-.659-5.399.115-7.858.043-.141.017-1.081.017-1.266-.004-4.623-.138-7.306.375-11.837.109-.964-.696-5.972-.916-7.397-.004-.024-.23-5.33-.693-3.436-.012.042.119 5.309.119 6.033 0 2.34.311 7.859-.312 9.855-.529 1.706.574 7.841.574 10.118v4.258c.218 1.241-.09 4.445.381 5.372.015.03-.316 7.72-.316 8.739 0 3.577-.655 1.786-.655 5.96v9.944c.549.336 1.197 2.508.158 3.64-.215.235-.912 1.613-.839 1.88.492 1.759-.265 5.951.525 6.634.056.049.394 1.021.385 1.183-.002 3.475.059 6.114-.203 9.531-.199 2.601.466 13.388-.213 14.804-.503 1.046.381 5.063-.132 6.541-.401 1.157.351 4.358.351 6.148-.853.824.725 16.093-.377 16.093-1.504 0-.69-5.712-.957-8-.179-1.528-.286-9.853.398-11.101.041-.075.083-.796.083-.972-.09-.163.29-2.582.39-2.943.091-.327.046-2.798-.038-3.188-.031-.147-.205-1.214-.205-1.327-.603-.955.278-11.271-.508-12.982-.488-1.064.032-6.648.759-6.856.266-1.058-.026-4.856-.3-5.77a29.846 29.846 0 01-.279-1.718c.4-.63.229-2.473.229-3.34v-.842c-.117-.766.092-1.759-.273-2.363-.289-.479.698-1.721.298-3.063-.29-.969-.237-3.813-.237-4.974-.409-5.607-.473-18.483.277-23.695.039-.272.018-.612.018-.896-.11-3.501.382-15.098-.313-17.397-.433-1.431-.213-18.294-.213-21.66-.142-.852-.194-27.676.218-28.011.513-.418.151 3.581.753 4.527.729 1.15-1.431 5.001-.328 6.691.122.187-.3 1.125.541 2.056.851.94-1.512 2.524.114 5.086.377.594-.433 5.193-.721 5.574.047.411.058.639.053.764.057.071.147.22.286.503.391.794-.391 9.795.71 8.029.107-.172-.194-3.007.263-3.707.535-.818-.02-12.939.519-15.594.42-2.072-.639-4.37-.639-7.099 0-1.806-.244-4.337.316-5.853.127-.344-.156-1.248.143-1.628-.192-1.201-.218-8.085.047-8.883.021-.06.307-2.229-.575-1.297-1.021 1.081-.003 1.637-.331 3.579-.271 1.605.512 1.454-.479 3.411-.063.122-.004 1.262-.295 1.345-.005.014.106 2.021-.12 1.45-.261-.656.252-4.253-.689-6.691-.321-.834 1.229-3.572 1.229-6.114 0-.358.101-1.35.36-1.491.345-1.093.761-.458.852-2.667.064-1.566.199-1.862.128-3.629-.078-1.941.331-3.623.331-5.91 0-2.304.489-4.119-.617-6.303-.013-.025-.006-.163-.006-.206-1.133-7.737 1.436-10.922.676-18.158-.414-3.948-1.145-17.988-1.405-21.932h1.658c.407 4.484.603 22.274 1.178 23.229.897 1.488.285 6.985.285 8.814.024.011.73 2.093 1.567 2.358.008.106.056.09.164.153 0 1.154-.192 5.223.158 5.945.027.054-.06 1.436.143 1.715-.083.757.377.966-.13 2.038-.259.546-.013-1.055-.285-1.592-.125-.247.196-1.391-.303-2.036-.492-.638-.014-4.044-.599-2.258-.505 1.544.787 7.073.787 9.49 0 2.558.093 3.287-.366 5.783-.202 1.099.011 1.657.007 1.745-.188.676-.076 4.751-.288 6.164-.073.497-.04 12.494-.04 14.243.001.001.519 3.65.066 4.516-1.021 1.944-1.067 2.583-.525 5.131.386 1.81.429 11.68.186 13.793-.377 3.271.998 1.761.661 5.916-.125 1.548-.06 3.837-.06 5.488.24.348-.104 9.022.254 10.215.531 1.775-.549 3.494-.549 5.289-.237.376-.032 2.542-.104 3.219.124.189.922-2.482.922-.953 0 .806.084 4.021-.655 4.064-.474.027-.262 1.095-.262 2.001 0 1.165-.095.793.262 1.751.517 1.452 1.372 3.16.383 4.469.247 1.44-1.415 7.914-.858 10.472.352 1.612-.557 4.284.596 6.195.404.668-.937 3.287-.132 3.518.03.101.012.236.012.347.267.601-.523 24.521-.655 24.584-.115.055-1.188 2.763-.601 3.737.285.472.72 5.18.355 6.479-.033.116-.029 1.253.049 1.363-.064.396.467 6.685.71 7.322.04.104-.145 4.346-.775 4.242-1.276-.209.001 3.256-.541 5.771-.416 1.928.279 2.17.279 4.611 0 3.286-.313 8.43.311 11.392.008.036.16 3.367.285 4.354.064.515.21.948.321 1.545-.552 3.874.194 9.786-.441 13.563-.286 1.691-.299 7.681.972 9.025.147.156.387 1.362.387 1.642-.711 1.401-.622 5.682-.622 7.551-.275 2.065-.184 12.847.246 14.849.271 1.271-.246 5.479-.246 7.383v6.518c.557 2.324.506 10.291.818 10.896.079.157.099 12.612-.016 20.363zm2.855-169.937c-.085.304-.034 3.413-.034 3.994-.146.22-.461 1.603-1.037 1.671-.469.057-.4.233-.648-.567-.072-.232.068-2.8-.116-3.706-.086-.419-.051-2.144-.225-2.937-.026-.118-.004-.302-.054-.366-.003-.053-.002-.165-.003-.329-.031-2.283.036-14.512.146-14.521.651-.058-.054 2.857.303 4.071.349 1.186.763 1.566.717 3.215-.003.092.744-.281.455-.723-.09-.138.051-1.891-.36-2.314-.207-.213-.129-3.479-.129-3.971.141-.212.805-5.382.259-5.958-.547-.579.463-2.257.463-3.349 0-1.522.479-2.895-.351-4.048-.228-.32.018-1.601-.305-1.912-.057-.055-.033-.11-.033-.237-.224-.313-.361-4.386.163-4.386.84 0 .59-1.588.59-2.671 0-2.173.008-2.189-.933-.289-.106.213-.134 3.301-.336 4.072-.199.75-.195 1.063-.544 1.826-.261.569.207 2.726.207 3.816v3.63c0-1.223-.654.351-.521-2.236.031-.604-.042-4.489-.256-4.818-.386-.593.536-5.426.177-6.753-.129-.475-.131-2.63.24-3.008.574-.588-.012 1.458 1.704 1.458.012 0 .35-2.53-.249-2.132-.218.144-.86.479-1.026.259-.454-.606-1.209-2.646-.126-2.775.439-.053.85-1.579.104-2.536-.019-.022-.112-.231-.209-.364-.003-.8-.062-1.662.211-2.367.014-.035.083-8.819.083-10.111-.001-.026.063-3.91-.292-3.147-.012.025.031 6.177-.439 7.46-.112.305.1 5.341-.35 3.311-.271-1.229.341-3.453-.448-5.655-.137-.381.146-6.076.222-6.921.128-1.413.191-1.731.191-3.363v-.271c-.001-2.216-.008-3.635-.135-5.782-.016-.264-.091-2.381.128-2.159 1.308 1.317 1.167 3.049.9 4.97-.181 1.293.323 7.442-.069 8.091-.009.016.63.016.462-1.119-.25-1.688.181-3.689.376-5.296.176-1.438.197-4.026-.57-5.007-.051-.066-.368-2.084-.404-2.196-.298-.673-.344-9.808-1.163-13.244-.493-2.069.039-7.917.252-10.036.174-1.747.533-3.219.78-4.882.02-.133.012-.093.037-.062 1.122 2.955.445 2.188.588 4.972.008.152.501 4.672.526 4.771.117.461.236 1.925.45 2.887.026.116.141.394.206.403-.272 1.69-.167 12.976.358 14.737.203.679-.097 13.063-.097 15.279.514 1.225-.349 12.67.153 16.501.639 4.878.239 29.942.239 36.841 0 .31-1.994 1.893-1.202 5.983.11.566 2.537-1.266.974 4.306zM146.35 23.794c.069-.213.073-14.149.063-17.405h.836c-.027 3.206-.107 18.099.518 20.623.116.477.488 4.737-.013 5.669-1.736 3.235-1.717 1.312-1.599 6.393.057 2.468-.786 2.474-.786-1.764 0-5.754.348-1.772 1.258-6.039.405-1.905-1.64-3.316-.277-7.477zm-8.155 199.581c-.077-.284-.161-.513-.257-.669-.118-.197-.201-1.612.326-2.1-.03.995-.054 1.932-.069 2.769zm10.515-102.271c.24.387-.048 16.422-.667 17.032-.824.813-1.215-6.843-1.102-1.971.02.828-.879 1.018.157 3.708-.244.981.824 1.769-.432 3.797-.994 1.605 1.93 3.121.767 6.52-.824 2.406.347 4.97-.335 7.098-.293.916-.147 6.532.072 2.439.108-2.043.717 8.782.348 9.558-1.396 2.929-.318-4.842-1.063-3.6.107.776-.231 5.263-.721 6.292-.031.063-.25 1.576-.835 1.155-.001 4.914.018 9.236.075 12.12.295 14.624.11 89.779.11 110.467 0 .925-.922 5.674-.556 17.939.05 1.701 1.173-3.793.45 12.919-.025.602-.024 4.887-.021 8.223h-.784a166.107 166.107 0 00-.044-4.052c-.039-1.241-.024-6.29-.102-8.706-.08 1.144-.188 2.438-.325 3.904-.061.64-.053 5.457-.042 8.854h-1.703c-.005-1.845-.027-3.638-.099-4.688-.087-1.257-.052-6.422-.228-8.795-.025-.353-.002-.904-.054-1.096-.003-.158-.001-.497-.003-.989-.031-6.837.037-43.463.147-43.492.655-.17-.053 8.559.306 12.197.35 3.547.766 4.688.719 9.625-.003.275.747-.844.457-2.168-.09-.41.051-5.659-.361-6.927-.209-.641-.129-10.423-.129-11.893.141-.64.808-16.121.26-17.849-.549-1.735.465-6.759.465-10.031 0-4.558.48-8.663-.352-12.12-.23-.958.017-4.791-.308-5.729-.056-.163-.033-.328-.033-.711-.226-.931-.362-13.134.164-13.134.844 0 .593-4.758.593-8.001 0-6.508.008-6.556-.938-.866-.106.639-.133 9.888-.338 12.197-.199 2.245-.195 3.184-.547 5.471-.261 1.702.21 8.165.21 11.432v10.874c0-1.957-.188-1.525-.343-1.877.146 4.58 1.136 15.461 1.043 15.805-1.262 4.743-3.612 23.593-1.608 28.152 2.099 4.774-2.633 11.489-1.613 8.084 1.751-5.852-1.328-18.307.534-27.538 2.244-11.117-2.49-19.43-.494-26.491 2.214-7.83-2.528-19.739 1.688-23.636.146-4.991.41-11.412.188-13.861-.128-1.416-.131-7.869.242-9.007.577-1.76-.012 4.369 1.711 4.369.012 0 .352-7.579-.25-6.388-.219.433-.864 1.439-1.03.777-.457-1.815-1.215-7.921-.127-8.313.442-.159.854-4.728.104-7.594-.018-.068-.112-.695-.21-1.095-.003-2.392-.061-4.978.213-7.087.014-.106.082-26.416.082-30.284 0-.08.063-11.713-.293-9.428-.012.075.031 18.497-.441 22.34-.112.916.101 15.999-.351 9.919-.272-3.684.343-10.345-.451-16.939-.138-1.142.146-18.201.224-20.729.129-4.23.192-5.187.192-10.073v-.813c-.002-6.639-.008-10.885-.135-17.319-.017-.788-.094-7.134.129-6.468 1.313 3.946 1.172 9.136.902 14.887-.182 3.873.326 22.291-.069 24.236-.009.046.634.044.465-3.354-.252-5.057.181-11.051.378-15.86.176-4.31.197-12.062-.572-15-.052-.194-.371-6.238-.406-6.575-.301-2.02-.348-29.376-1.169-39.67-.495-6.199.04-23.714.252-30.06.052-1.528.118-13.406.194-14.829h1.221c-.023 1.081-.037 12.896-.004 14.912.009.457.505 13.995.53 14.294.117 1.378.237 5.767.453 8.647.025.347.141 1.178.205 1.205-.272 5.065-.168 38.867.361 44.141.034.33.053 1.591.063 3.492.589 3.938.524 9.097.401 14.81-.083 3.878.15 22.314-.031 24.263-.004.046.291.045.214-3.357-.116-5.063.083-11.062.175-15.88.08-4.312.09-12.074-.265-15.015-.023-.195-.171-6.247-.188-6.583-.137-2.021-.158-29.409-.537-39.713-.229-6.206.019-23.741.116-30.093.024-1.634.058-13.607.096-15.123h.56c-.014 1.121-.022 13.003-.005 15.206.004.457.232 14.01.244 14.311.034.877.068 2.974.114 5.126h.001v.002l.016.693c.22 2.316 2.173 1.16 2.173-.04 0 2.551-1.277 5.67-.34 6.868.29.37.014 3.39.634 5.5.422 1.434-.452 4.43-.452 6.943 0 4.902-1.231 2.477-.937-2.505.053-.892.208-10.797-.505-10.559-.024.008-.313 4.582-.466 8.517-.002 1.724-.003 3.567-.001 5.472a.389.389 0 00.021.061c.176.346 1.037 2.251 1.166 2.288.022.137 3.184 13.144.656 8.753-1.211-2.103-.421-3.126-.722 1.751-.053.859 1.512 5.19.879 9.332-.042.272-.077.649-.106 1.072.198 1.001.24 1.93-.026 2.552-.017.039-.028.072-.044.11.027 1.282.187 1.628.55-1.574.296-2.609.81-1.744.472-5.524-.17-1.913.793-1.567.793 2.84 0 .401-.38 11.089-1.356 7.576-.714-2.563-.531.144-.531 1.192-.008-.01 1.18 2.539 1.18 7.27 0 .927.245 7.824-.536 8.046-.039.156-.014.769-.014.959 1.283 4.404-.228 8.911.485 13.128.003.018-.135 3.515-.232 5.61.268-1.7.995-1.876.77-4.959-.145-1.967.11-3.999-.294-5.877-.122-.562-.334-10.05.629-10.66 1.775-1.128.574 3.792-.42 4.63-.137.119-.334 8.981.677 10.606z"/><path fill="none" d="M124.067 105.232c-.185-.228-.016.376 0 0zM143.862 191.219c-.007-1.338.058-2.4.257-2.557.204-.159.394-4.732.048-7.604-.009-.068-.053-.696-.098-1.096 0-2.394-.028-4.981.099-7.094l.003-.978c-.5-1.372-.341-2.809.008-4.33.011-7.93.027-22.236.027-25.01-.001-.079.029-11.727-.135-9.438-.005.076.014 18.517-.204 22.364-.051.917.046 16.016-.161 9.931-.098-2.865.052-7.528-.049-12.564-.093 11.463-.25 25.397.037 31.934.067 1.527.123 3.722.168 6.442zM144.95 89.957c.028.635.035 4.688.031 10.166.126-1.01.294-1.946.503-2.761.384-1.488-1.68-3.07 1.058-9.521-.017-.743.012-1.798.07-2.663-.372-1.89-1.306-4.042-1.819-4.904.038 4.598.089 8.227.157 9.683zM147.352 127.364a8.63 8.63 0 00-.096 1.37c0 .515.042-.216.096-1.37zM144.824 64.795a2.444 2.444 0 01-.104-.169c.006 3.251.017 6.592.032 9.751.409-3.487 1.034-8.138.072-9.582zM143.689 117.613v-.813c0-3.456-.001-6.265-.01-9.068-.045 10.323-.126 22.062-.139 26.646.023-3.135.048-5.796.061-6.68.059-4.235.088-5.193.088-10.085zM144.178 196.983c-.108-.934-.253-3.006-.3-4.852.028 1.893.053 4.01.075 6.322a4.3 4.3 0 01.025-.228c.266-1.761-.005 4.374.789 4.374.005 0 .161-7.587-.116-6.395-.1.436-.398 1.444-.473.779z"/><path fill="#000202" d="M102.555 28.283c0 2.493.416 11.379-.573 12.905-1.756 2.71-.231 15.436-1.229 17.299-.076.145-.033.604-.033.807-.739 3.662.418 15.776-.404 21.156-.198 1.299-.119 6.199-.119 7.955-1.115 4.562.089 14.586-.836 20.434-.114.73-.171 6.954-.005 7.941.429.061.446 3.832.446 4.56v1.242c.058 22.431.445 8.264 1.443 9.403 0 4.166-1.048 2.974-1.048 9.765 0 1.662 1.179 8.437 1.179 2.531 0-2.398-.533-6.898 1.277-3.389.534 1.033-.621 2.848-.621 4.111-.083-.032-.067 2.537-.156 3.07-.076.46.102 8.581-.095 7.334-.306-1.933-.241-1.653-.241-3.759 0-.41.121-3.763-.394-3.706-.114-.771-.673 2.861-.467 4.467.058.443.062 1.785.298 2.238.006.01.235 1.809.235 1.884.505 3.505.122 16.521-.698 19.591-.719 2.688.287 9.576-.918 11.949-.431.849.438 10.53-.285 11.134-.002 4.216-.875 9.435.359 13.562.393 1.312-.322 18.388.057 16.95 1.289-4.886.24 10.28.24 11.258 0 8.771 1.441 12.049 1.441 20.96v16.471c.698.252.342 5.064.268 6.328-.129 2.192-.311 5.565.223 7.571.692 2.604-.743 9.266.351 11.077.026.043.011.271.011.338-.439 1.345.918 12.642.918 15.438 0 2.457.126 9.735.143 15.643h.814c.07-.391.169-.464.303 0h.926c.029-.934.178-1.753.676-3.527.656-2.332 1.464-5.53 1.464-8.016 0-2.149-.72-4.744-.72-7.979 0-1.587-.236-6.961.375-8.145 1.637-3.171-.043-8.929-.304-4.589-.065 1.082-1.9 1.554-.606-.935.252-.485-.716-.37-.645-1.687.129-3.759-.297-2.137.71-5.937.432-1.635-.775-6.505-.775-9.221 0-2.578.112-6.491-.449-8.832-.032-.14-.011-2.278-.011-2.592-.338-3.195 1.125-6.247-.076-13.892-.704-4.481 1.322-8.411 1.322-13.956 0-7.413.34-3.23-1.419-8.315-.144-.414.108-13.577.108-15.19 0-1.634-.262-2.547-.262-3.617.316-.611.458-17.775-.026-18.451-1.125-1.566-.563 2.357-.563 3.557 0 1.388.286 4.838-.316 5.786-.023.036-.521 3.568-.934-.286-.461-4.279 1.115-6.379.922-10.307-.002-.021.59-3.498.59-5.274 0-2.324.145-3.163-.514-5.229-.002-.009-.084-2.493 0-2.222.405 1.31.57.046.514 2.658-.006.275 1.128-1.004-.049-2.811-.171-.263-.082-1.568-.082-2.049.504-1.485.488-7.265.732-9.591.125-1.2-.09-3.872.697-5.078.178-.272.742-7.19.154-5.402-.48 1.46.223 3.208-.787 5.191-.396.78-.612 7.012-.869 7.353-.5.668-.453 2.207-.453-1.333 0-1.849.3-6.162 1.207-7.46.404-.579-.027-4.677-.027-6.011 0-1.563-.025-8.125.514-8.974.028-.045.012-.668.012-.792-.479-.02-.168-2.947-.578-4.122-.318-.911.328-22.459-.721-24.478-.264-.507-.215-7.423-.717-9.101-.189-.639.307-5.901-.268-4.95-.002.004-.349.828-.443 1.135.254-1.107-.059-8.355.35-10.176.083-.365.461-5.06.705-5.605.418-.933-.197-9.518.523-10.821.353-.634.892-3.385.51-4.618-.035-.112-.018-.269-.018-.405 1.232-8.968-1.516-36.173 1.355-42.012.057-.116.022-.669.022-.842.39.268.229 1.271.229 1.841 0 1.122-.238 7.605.178 8.006.019.018.867-.07.318-1.439-.209-.521.176-6.925.347-7.576.433-1.644.304-5.768.304-7.794 0-1.714-.162-17.948.049-22.502h-3.856c-.379 4.405-.153 17.759-1.192 21.649-.037.138-.017.302-.017.447zM159.382 28.283c0 2.493.418 11.379-.572 12.905-1.756 2.71-.232 15.436-1.229 17.299-.077.145-.033.604-.033.807-.738 3.662.418 15.776-.404 21.156-.199 1.299-.119 6.199-.119 7.955-1.116 4.562.089 14.586-.836 20.434-.115.73-.17 6.954-.004 7.941.429.061.446 3.832.446 4.56v1.242c.058 22.431.445 8.264 1.442 9.403 0 4.166-1.049 2.974-1.049 9.765 0 1.662 1.18 8.437 1.18 2.531 0-2.398-.533-6.898 1.277-3.389.535 1.033-.621 2.848-.621 4.111-.082-.032-.068 2.537-.156 3.07-.076.46.102 8.581-.096 7.334-.306-1.933-.24-1.653-.24-3.759 0-.41.121-3.763-.393-3.706-.115-.771-.674 2.861-.467 4.467.057.443.06 1.785.297 2.238.006.01.235 1.809.235 1.884.505 3.505.123 16.521-.698 19.591-.719 2.688.287 9.576-.918 11.949-.432.849.439 10.53-.285 11.134-.002 4.216-.875 9.435.359 13.562.393 1.312-.322 18.388.057 16.95 1.29-4.886.239 10.28.239 11.258 0 8.771 1.442 12.049 1.442 20.96v16.471c.699.252.342 5.064.268 6.328-.128 2.192-.311 5.565.223 7.571.693 2.604-.742 9.266.351 11.077.026.043.012.271.012.338-.441 1.345.917 12.642.917 15.438 0 2.457.127 9.735.143 15.643h.814c.071-.391.168-.464.303 0h.927c.028-.934.176-1.753.675-3.527.656-2.332 1.465-5.53 1.465-8.016 0-2.149-.721-4.744-.721-7.979 0-1.587-.236-6.961.375-8.145 1.637-3.171-.042-8.929-.305-4.589-.064 1.082-1.899 1.554-.605-.935.251-.485-.715-.37-.646-1.687.13-3.759-.296-2.137.71-5.937.434-1.635-.775-6.505-.775-9.221 0-2.578.114-6.491-.447-8.832-.033-.14-.011-2.278-.011-2.592-.339-3.195 1.124-6.247-.077-13.892-.703-4.481 1.322-8.411 1.322-13.956 0-7.413.341-3.23-1.419-8.315-.143-.414.108-13.577.108-15.19 0-1.634-.263-2.547-.263-3.617.317-.611.46-17.775-.024-18.451-1.125-1.566-.564 2.357-.564 3.557 0 1.388.285 4.838-.316 5.786-.023.036-.521 3.568-.935-.286-.46-4.279 1.116-6.379.923-10.307-.001-.021.59-3.498.59-5.274 0-2.324.145-3.163-.513-5.229-.003-.009-.085-2.493 0-2.222.404 1.31.569.046.513 2.658-.006.275 1.128-1.004-.049-2.811-.17-.263-.082-1.568-.082-2.049.504-1.485.488-7.265.732-9.591.126-1.2-.09-3.872.698-5.078.177-.272.741-7.19.153-5.402-.48 1.46.223 3.208-.787 5.191-.396.78-.612 7.012-.868 7.353-.502.668-.453 2.207-.453-1.333 0-1.849.3-6.162 1.206-7.46.404-.579-.027-4.677-.027-6.011 0-1.563-.025-8.125.514-8.974.027-.045.012-.668.012-.792-.479-.02-.168-2.947-.578-4.122-.319-.911.328-22.459-.721-24.478-.264-.507-.214-7.423-.715-9.101-.191-.639.305-5.901-.269-4.95-.003.004-.352.833-.445 1.138.256-1.097-.058-8.356.351-10.179.082-.365.461-5.06.704-5.605.419-.933-.196-9.518.525-10.821.353-.634.89-3.385.509-4.618-.035-.112-.017-.269-.017-.405 1.231-8.968-1.517-36.173 1.354-42.012.057-.116.021-.669.021-.842.392.268.23 1.271.23 1.841 0 1.122-.238 7.605.178 8.006.018.018.867-.07.319-1.439-.208-.521.175-6.925.345-7.576.434-1.644.305-5.768.305-7.794 0-1.714-.414-17.948-.217-22.502h-3.857c-.363 4.405.113 17.759-.926 21.649-.035.138-.017.302-.017.447zM111.973 45.509c1.665 1.569-1.944 5.23.272 11.888 2.313 6.939-2.656 9.768-1.07 13.695.264.652.131 1.651.131 2.397-.303 1.248-1.015 11.183-.574 12.649.013.004.277-3.326.596-4.15.225-.575.765-10.016.765-2.705 0 2-.594 3.912-.459 6.842.009.195-1.482 7.982.108 4.579.036-.077.04-.151.057-.226-.058-.417-.099-.89-.099-1.527 0 .616.201 1.064.099 1.527.151 1.091.425 1.797.425 3.987v1.989c-.52 1.188-.245 22.676-.596 26.483-.22 2.4-.388 6.537-.388 9.048.023.013-.655 6.332-.655 7.202 0 1.412-.04 5.72-.425 6.706-.072.186.098 8.663.098 7.527 0-1.453.787-1.08.787-4.43 0-2.071.575-6.601.66-8.928.004-.109.244-1.765.388-1.749 0-3.038.132 3.22.132 3.903 0 4.308-.132 8.847-.132 13.005-.155.021-1.376 2.82-1.376 4.497 0 .027-.047 8.333.196 5.915 1.326-13.205.969-2.231.884-2.095-.751 1.213.698 22.815-.495 24.78-.036.061-1.15 7.149-.634 7.391 1.712.797.988-.303 1.306-3.066.334-2.916.675-6.153.835-9.093.131-2.424.268-3.558.268-6.171 0-1.643-.409-13.026.306-13.758.851-.872.753 2.069.241 3.399-.479 1.244-.618 7.383.061 8.55.269.464.193 3.78-.236 4.686-.102.213-.109.582-.109.822-.414.995-.047 3.436-.453 5.123-.002.014-.037 2.463-.21 3.273-.067.309-.025 3.538-.025 4.17-.628 2.414.124 6.986-.572 9.222-.563 1.808-.65 18.432-.415 21.157.002.038.055.184.071.271-.802.082-.681 23.092.981 25.767.225.363.197 1.811.197 2.352-.406 2.291.787 4.854.787 8.564 0 3.571-.011 3.986.333 7.406.293 2.914-.007 18.05-.007 22.271-.099.166-.027 14.328-.44 15.642-.008.025-.968 7.93.431 5.491.123-.216.022-5.084.256-6.192.199-.939.355-8.313.564-7.806.531 1.296.385 11.067-.143 11.875-.015.021-.037 2.754-.393 3.346-.01.013-.015 4.081-.24 4.504-.055.104-.23 2.483-.23 2.705.002 3.513-.303 4.049.58 7.257.033.125-.039 2.571.321 3.856.093.334.083 1.836.05 3.466h.871c.08-.471.145-1.074.145-2.351 0-1.323.117-4.333-.448-5.2-.251-.385-.267-9.867.229-11.233.907-2.505.629-5.581.105-8.067-1.011-4.796 1.461-12.648.13-14.127-.202-.227.052-.399-.213-.544-.816-2.665.639-32.379-.245-33.64-.738-1.054-.251-6.369.181-6.322-.27-1.29.414-8.761-.775-8.761-.198.79.372 5.199-.459 5.137-.192-.553.131-5.134-.453-7.323-.133-.497.77-6.464.77-8.565 0-1.571-.074-8.553-.273-9.69a19.572 19.572 0 01-.055-.723c.63.024.205-14.834-.393-15.413-.914-.887.555-16.56 1.015-18.237.904-3.291.764-30.805-.063-33.902-.085-.319-.033-1.385-.033-1.793.936-2.846-.787-14.404-.787-18.625 0-6.982.918-11.125.918-18.428 0-4.547-.656-6.137-.656-9.779.702-2.665-1.21-5.418.24-7.821.151-.252-.284-6.861.479-8.09 1.354-2.181-1.315-8.066.876-12.478-.077-.38.371-17.369.371-19.529-.617-6.33-.655-8.82-.655-15.105 0-4.333.699-8.366 1.294-12.649.593-4.277-1.031-12.509-1.031-6.683 0 1.641.311 6.884-.359 7.995-.217.358-.615 8.275-1.132 9.944-.127.41.257 3.342-.398 2.425-.888-1.24.644-9.277.644-11.112v-9.532c-.035-.378.048-14.058.072-18.388h-2.271c-.386 2.93-.717 15.038-.717 17.274-.007 3.039-.549 21.279.266 22.046zM168.801 45.509c1.665 1.569-1.944 5.23.272 11.888 2.313 6.939-2.656 9.768-1.07 13.695.263.652.131 1.651.131 2.397-.303 1.248-1.014 11.183-.573 12.649.013.004.276-3.326.596-4.15.224-.575.765-10.016.765-2.705 0 2-.595 3.912-.46 6.842.009.195-1.481 7.982.108 4.579.035-.076.04-.15.057-.224-.059-.418-.1-.891-.1-1.529 0 .617.202 1.065.1 1.529.151 1.09.425 1.796.425 3.985v1.989c-.52 1.188-.245 22.676-.595 26.483-.221 2.4-.389 6.537-.389 9.048.023.013-.654 6.332-.654 7.202 0 1.412-.04 5.72-.426 6.706-.072.186.098 8.663.098 7.527 0-1.453.787-1.08.787-4.43 0-2.071.574-6.601.66-8.928.004-.109.243-1.765.389-1.749 0-3.038.13 3.22.13 3.903 0 4.308-.13 8.847-.13 13.005-.156.021-1.377 2.82-1.377 4.497 0 .027-.046 8.333.197 5.915 1.325-13.205.968-2.231.884-2.095-.751 1.213.697 22.815-.497 24.78-.035.061-1.15 7.149-.633 7.391 1.713.797.988-.303 1.306-3.066.335-2.916.675-6.153.835-9.093.132-2.424.268-3.558.268-6.171 0-1.643-.408-13.026.305-13.758.852-.872.754 2.069.242 3.399-.479 1.244-.617 7.383.061 8.55.27.464.192 3.78-.237 4.686-.1.213-.107.582-.107.822-.414.995-.049 3.436-.453 5.123-.004.014-.038 2.463-.21 3.273-.067.309-.025 3.538-.025 4.17-.629 2.414.123 6.986-.573 9.222-.562 1.808-.651 18.432-.415 21.157.003.038.055.184.071.271-.802.082-.68 23.092.981 25.767.225.363.197 1.811.197 2.352-.406 2.291.787 4.854.787 8.564 0 3.571-.01 3.986.332 7.406.293 2.914-.005 18.05-.005 22.271-.1.166-.028 14.328-.441 15.642-.009.025-.968 7.93.431 5.491.123-.216.023-5.084.257-6.192.198-.939.354-8.313.563-7.806.533 1.296.386 11.067-.142 11.875-.015.021-.037 2.754-.393 3.346-.009.013-.015 4.081-.24 4.504-.056.104-.23 2.483-.23 2.705.002 3.513-.302 4.049.579 7.257.034.125-.038 2.571.321 3.856.094.334.084 1.836.051 3.466h.871c.08-.471.144-1.074.144-2.351 0-1.323.119-4.333-.446-5.2-.253-.385-.268-9.867.229-11.233.906-2.505.629-5.581.105-8.067-1.012-4.796 1.459-12.648.13-14.127-.204-.227.05-.399-.214-.544-.816-2.665.639-32.379-.244-33.64-.738-1.054-.252-6.369.18-6.322-.27-1.29.414-8.761-.775-8.761-.198.79.373 5.199-.459 5.137-.192-.553.132-5.134-.453-7.323-.133-.497.77-6.464.77-8.565 0-1.571-.074-8.553-.272-9.69a19.572 19.572 0 01-.055-.723c.629.024.204-14.834-.394-15.413-.914-.887.553-16.56 1.016-18.237.902-3.291.764-30.805-.064-33.902-.086-.319-.033-1.385-.033-1.793.936-2.846-.787-14.404-.787-18.625 0-6.982.918-11.125.918-18.428 0-4.547-.655-6.137-.655-9.779.7-2.665-1.21-5.418.239-7.821.152-.252-.283-6.861.48-8.09 1.354-2.181-1.316-8.066.876-12.478-.077-.38.37-17.369.37-19.529-.617-6.33-.654-8.82-.654-15.105 0-4.333.699-8.366 1.293-12.649.594-4.277-1.031-12.509-1.031-6.683 0 1.641.311 6.884-.359 7.995-.217.358-.615 8.275-1.131 9.944-.129.41.256 3.342-.4 2.425-.887-1.24.645-9.277.645-11.112v-9.532c-.036-.378.048-14.058.072-18.388h-2.271c-.387 2.93-.719 15.038-.719 17.274-.007 3.039-.549 21.279.267 22.046z"/><path fill="#FFF" d="M131.62 160.556c-.792-4.091 1.202-5.674 1.202-5.983 0-6.898.399-31.963-.239-36.841-.502-3.831.36-15.276-.153-16.501 0-2.217.3-14.601.097-15.279-.525-1.762-.631-13.047-.358-14.737-.065-.01-.18-.287-.206-.403-.214-.962-.333-2.426-.45-2.887-.025-.1-.519-4.619-.526-4.771-.143-2.784.534-2.017-.588-4.972-.025-.031-.018-.071-.037.062-.247 1.663-.606 3.135-.78 4.882-.213 2.119-.745 7.967-.252 10.036.819 3.437.865 12.571 1.163 13.244.036.112.354 2.13.404 2.196.768.98.746 3.568.57 5.007-.195 1.606-.626 3.607-.376 5.296.168 1.135-.471 1.135-.462 1.119.393-.648-.111-6.798.069-8.091.267-1.921.407-3.652-.9-4.97-.219-.222-.144 1.896-.128 2.159.127 2.147.134 3.566.135 5.782v.271c0 1.632-.063 1.95-.191 3.363-.076.845-.358 6.54-.222 6.921.789 2.202.177 4.426.448 5.655.449 2.03.237-3.006.35-3.311.471-1.283.428-7.435.439-7.46.354-.763.291 3.121.292 3.147 0 1.292-.069 10.076-.083 10.111-.272.705-.214 1.567-.211 2.367.097.133.19.342.209.364.746.957.336 2.483-.104 2.536-1.083.13-.328 2.169.126 2.775.166.221.809-.115 1.026-.259.599-.398.261 2.132.249 2.132-1.716 0-1.13-2.046-1.704-1.458-.371.378-.369 2.533-.24 3.008.359 1.327-.563 6.16-.177 6.753.214.329.287 4.214.256 4.818-.133 2.587.521 1.014.521 2.236v-3.63c0-1.091-.468-3.247-.207-3.816.349-.764.345-1.076.544-1.826.202-.771.229-3.859.336-4.072.94-1.9.933-1.884.933.289 0 1.083.25 2.671-.59 2.671-.524 0-.387 4.073-.163 4.386 0 .127-.023.183.033.237.322.312.077 1.592.305 1.912.829 1.153.351 2.525.351 4.048 0 1.092-1.01 2.77-.463 3.349.546.576-.118 5.746-.259 5.958 0 .491-.078 3.758.129 3.971.411.424.271 2.177.36 2.314.289.441-.458.814-.455.723.046-1.648-.368-2.029-.717-3.215-.356-1.214.349-4.129-.303-4.071-.11.01-.178 12.238-.146 14.521.001.164 0 .276.003.329.05.064.027.248.054.366.174.793.139 2.518.225 2.937.185.906.044 3.474.116 3.706.248.801.18.624.648.567.576-.068.891-1.451 1.037-1.671 0-.581-.051-3.69.034-3.994 1.563-5.571-.864-3.739-.974-4.306z"/><path fill="#FFF" d="M128.936 303.542v-6.518c0-1.904.518-6.111.246-7.383-.43-2.002-.521-12.783-.246-14.849 0-1.869-.089-6.149.622-7.551 0-.279-.239-1.485-.387-1.642-1.271-1.345-1.258-7.334-.972-9.025.636-3.776-.11-9.688.441-13.563-.111-.597-.257-1.03-.321-1.545-.125-.987-.277-4.318-.285-4.354-.624-2.962-.311-8.105-.311-11.392 0-2.441-.695-2.684-.279-4.611.542-2.515-.735-5.979.541-5.771.631.104.815-4.138.775-4.242-.243-.638-.774-6.927-.71-7.322-.078-.11-.082-1.247-.049-1.363.364-1.3-.07-6.008-.355-6.479-.588-.975.485-3.683.601-3.737.132-.063.922-23.983.655-24.584 0-.11.019-.246-.012-.347-.805-.23.536-2.85.132-3.518-1.152-1.911-.244-4.583-.596-6.195-.557-2.558 1.105-9.031.858-10.472.989-1.309.134-3.017-.383-4.469-.356-.958-.262-.586-.262-1.751 0-.906-.212-1.974.262-2.001.739-.043.655-3.259.655-4.064 0-1.529-.798 1.143-.922.953.071-.677-.134-2.843.104-3.219 0-1.795 1.08-3.514.549-5.289-.358-1.192-.014-9.867-.254-10.215 0-1.651-.065-3.94.06-5.488.337-4.155-1.038-2.645-.661-5.916.243-2.113.2-11.983-.186-13.793-.542-2.548-.495-3.187.525-5.131.452-.865-.065-4.515-.066-4.516 0-1.749-.033-13.746.04-14.243.212-1.413.1-5.488.288-6.164.004-.088-.209-.646-.007-1.745.459-2.496.366-3.226.366-5.783 0-2.417-1.292-7.946-.787-9.49.585-1.786.106 1.62.599 2.258.499.646.178 1.789.303 2.036.272.537.026 2.138.285 1.592.507-1.072.047-1.281.13-2.038-.202-.279-.115-1.661-.143-1.715-.351-.723-.158-4.791-.158-5.945-.108-.063-.156-.047-.164-.153-.837-.266-1.543-2.348-1.567-2.358 0-1.829.612-7.326-.285-8.814-.575-.954-.771-18.744-1.178-23.229h-1.658c.261 3.943.991 17.983 1.405 21.932.76 7.236-1.809 10.421-.676 18.158 0 .043-.007.181.006.206 1.106 2.184.617 3.999.617 6.303 0 2.287-.409 3.969-.331 5.91.071 1.767-.063 2.063-.128 3.629-.091 2.209-.507 1.574-.852 2.667-.26.142-.36 1.133-.36 1.491 0 2.542-1.551 5.28-1.229 6.114.941 2.438.429 6.035.689 6.691.227.57.115-1.437.12-1.45.291-.083.232-1.223.295-1.345.991-1.957.209-1.806.479-3.411.328-1.942-.69-2.498.331-3.579.882-.932.597 1.237.575 1.297-.265.798-.239 7.682-.047 8.883-.299.38-.016 1.284-.143 1.628-.561 1.516-.316 4.047-.316 5.853 0 2.729 1.059 5.026.639 7.099-.538 2.654.017 14.775-.519 15.594-.457.7-.155 3.535-.263 3.707-1.101 1.766-.319-7.235-.71-8.029-.139-.283-.229-.433-.286-.503-.017.376-.186-.228 0 0a5.604 5.604 0 00-.053-.764c.288-.381 1.098-4.98.721-5.574-1.626-2.562.736-4.146-.114-5.086-.841-.931-.419-1.869-.541-2.056-1.103-1.69 1.058-5.541.328-6.691-.602-.946-.24-4.945-.753-4.527-.412.335-.359 27.159-.218 28.011 0 3.366-.22 20.229.213 21.66.694 2.3.202 13.896.313 17.397 0 .284.021.624-.018.896-.75 5.212-.687 18.088-.277 23.695 0 1.161-.053 4.005.237 4.974.4 1.342-.587 2.584-.298 3.063.365.604.156 1.598.273 2.363v.842c0 .867.171 2.71-.229 3.34-.004.072.239 1.586.279 1.718.273.913.565 4.712.3 5.77-.727.208-1.247 5.792-.759 6.856.786 1.712-.095 12.027.508 12.982 0 .113.174 1.18.205 1.327.084.39.129 2.86.038 3.188-.1.361-.479 2.78-.39 2.943 0 .176-.042.896-.083.972-.685 1.248-.577 9.572-.398 11.101.267 2.288-.547 8 .957 8 1.102 0-.476-15.269.377-16.093 0-1.79-.752-4.991-.351-6.148.513-1.478-.371-5.495.132-6.541.679-1.416.014-12.203.213-14.804.262-3.417.201-6.057.203-9.531.009-.162-.329-1.134-.385-1.183-.79-.683-.033-4.875-.525-6.634-.073-.267.624-1.645.839-1.88 1.039-1.132.391-3.304-.158-3.64v-9.944c0-4.174.655-2.383.655-5.96 0-1.02.331-8.709.316-8.739-.471-.927-.163-4.131-.381-5.372v-4.258c0-2.277-1.104-8.412-.574-10.118.622-1.996.312-7.516.312-9.855 0-.725-.131-5.991-.119-6.033.463-1.895.689 3.411.693 3.436.22 1.426 1.025 6.434.916 7.397-.513 4.531-.379 7.214-.375 11.837 0 .185.026 1.125-.017 1.266-.774 2.459-.115 4.779-.115 7.858 0 2.644 1.025 10.317.492 11.806 0 .245-.018 1.613.008 1.715.142.528.372 4.896.164 5.275-1.167 2.138-.605-3.618-.507-4.233.354-2.233-.369-2.029-.389-1.671-.094 1.757-.044 11.811.103 12.387l.011.248c.456 1.659.45 5.604-.12 7.075-.505 1.304-.585 16.812-.283 18.625-.021.336.382.51.398.806.121 2.157.534 5.728-.476 7.398-.521.86-.151 14.432-.315 16.569 0 .506-.152 3.282.119 3.359.716 2.855.19 5.682.464 8.755.288 3.237.719 7.604.301 10.984 0 .722.001 2.19.034 2.871 0 .57-.02 4.591.009 4.731.271 1.365-.146 7.887.203 8.288 0 .273.093 1.684.14 1.787.184.406.019 3.305.124 4.09 0 1.089.082 8.167.208 8.703.541 2.322-1.013 5.514-.273 6.32 1.102 1.204.786 9.152.786 11.354 0 .925-.335 8.083-.262 8.16 0 .126-.017.247.018.368.417 1.492.18 4.69.18 6.346 0 3.373.852 6.478.852 7.677 0 5.343.197 11.22.197 16.824 0 .584-.014 1.073-.035 1.489h1.625c.115-7.751.095-20.206.015-20.362-.312-.606-.261-8.573-.817-10.897z"/><path fill="#FFF" d="M126.174 289.734c-.027-.053-.009-.309-.009-.388 0-.369-1.069-.312-1.117.373-.213 3.02 1.487.394 1.166-.057l-.04.072zM137.938 222.706c.096.156.18.385.257.669.015-.837.039-1.774.069-2.769-.527.488-.444 1.903-.326 2.1zM125.646 292.951c-.058-.096.117-.194-.168-.689l-.033-.09c-.218.237-.029 7.097.035 7.108.176.034 1.089-.315.465-1.318-.242-.388.065-4.408-.299-5.011zM148.456 105.868c-.963.61-.751 10.099-.629 10.66.404 1.878.149 3.91.294 5.877.226 3.083-.502 3.259-.77 4.959-.054 1.154-.096 1.884-.096 1.37 0-.561.037-1 .096-1.37.098-2.095.235-5.592.232-5.61-.713-4.217.798-8.724-.485-13.128 0-.19-.025-.803.014-.959.781-.222.536-7.119.536-8.046 0-4.73-1.188-7.279-1.18-7.27 0-1.049-.183-3.756.531-1.192.977 3.513 1.356-7.175 1.356-7.576 0-4.407-.963-4.753-.793-2.84.338 3.78-.176 2.915-.472 5.524-.363 3.203-.522 2.856-.55 1.574-2.737 6.45-.674 8.032-1.058 9.521a22.452 22.452 0 00-.503 2.761c.004-5.478-.003-9.531-.031-10.166-.068-1.456-.119-5.085-.157-9.682.514.862 1.447 3.014 1.819 4.904.029-.423.064-.8.106-1.072.633-4.142-.932-8.473-.879-9.332.301-4.877-.489-3.854.722-1.751 2.527 4.391-.634-8.616-.656-8.753-.129-.037-.99-1.942-1.166-2.288a.24.24 0 01-.021-.061c-.002-1.904-.001-3.748.001-5.472.152-3.935.441-8.509.466-8.517.713-.238.558 9.667.505 10.559-.295 4.981.937 7.407.937 2.505 0-2.514.874-5.51.452-6.943-.62-2.11-.344-5.13-.634-5.5-.938-1.198.34-4.317.34-6.868 0 1.2-1.953 2.356-2.173.04l-.016-.693v-.002h-.001c-.046-2.152-.08-4.249-.114-5.126-.012-.301-.24-13.854-.244-14.311-.018-2.203-.009-14.085.005-15.206h-.56c-.038 1.516-.071 13.489-.096 15.123-.098 6.352-.345 23.887-.116 30.093.379 10.304.4 37.691.537 39.713.018.336.165 6.388.188 6.583.354 2.94.345 10.703.265 15.015-.092 4.818-.291 10.816-.175 15.88.077 3.402-.218 3.403-.214 3.357.182-1.948-.052-20.385.031-24.263.123-5.713.188-10.872-.401-14.81-.011-1.901-.029-3.162-.063-3.492-.529-5.273-.634-39.075-.361-44.141-.064-.027-.18-.858-.205-1.205-.216-2.881-.336-7.27-.453-8.647-.025-.299-.521-13.837-.53-14.294-.033-2.017-.02-13.831.004-14.912h-1.221c-.076 1.423-.143 13.301-.194 14.829-.212 6.346-.747 23.86-.252 30.06.821 10.294.868 37.65 1.169 39.67.035.337.354 6.381.406 6.575.77 2.938.748 10.69.572 15-.197 4.81-.63 10.804-.378 15.86.169 3.398-.474 3.4-.465 3.354.396-1.945-.112-20.363.069-24.236.27-5.751.41-10.94-.902-14.887-.223-.666-.146 5.68-.129 6.468.127 6.435.133 10.681.135 17.319v.813c0 4.887-.063 5.843-.192 10.073-.077 2.527-.361 19.587-.224 20.729.794 6.595.179 13.256.451 16.939.451 6.08.238-9.003.351-9.919.473-3.843.43-22.265.441-22.34.355-2.285.293 9.348.293 9.428 0 3.868-.068 30.178-.082 30.284-.273 2.109-.216 4.695-.213 7.087.098.399.192 1.026.21 1.095.751 2.866.339 7.435-.104 7.594-1.088.393-.33 6.498.127 8.313.166.662.812-.345 1.03-.777.602-1.191.262 6.388.25 6.388-1.723 0-1.134-6.129-1.711-4.369-.373 1.138-.37 7.591-.242 9.007.222 2.449-.043 8.87-.188 13.861-4.217 3.896.525 15.806-1.688 23.636-1.996 7.062 2.738 15.374.494 26.491-1.862 9.231 1.217 21.687-.534 27.538-1.02 3.405 3.712-3.31 1.613-8.084-2.004-4.56.347-23.409 1.608-28.152.093-.344-.897-11.225-1.043-15.805.155.352.343-.08.343 1.877v-10.874c0-3.267-.471-9.729-.21-11.432.352-2.287.348-3.226.547-5.471.205-2.31.231-11.559.338-12.197.945-5.689.938-5.642.938.866 0 3.243.251 8.001-.593 8.001-.526 0-.39 12.203-.164 13.134 0 .383-.022.548.033.711.324.938.077 4.771.308 5.729.832 3.457.352 7.563.352 12.12 0 3.272-1.014 8.296-.465 10.031.548 1.728-.119 17.209-.26 17.849 0 1.47-.08 11.252.129 11.893.412 1.268.271 6.517.361 6.927.29 1.324-.46 2.443-.457 2.168.047-4.937-.369-6.078-.719-9.625-.358-3.639.35-12.367-.306-12.197-.11.029-.179 36.655-.147 43.492.002.492 0 .831.003.989.052.191.028.743.054 1.096.176 2.373.141 7.538.228 8.795.071 1.05.094 2.843.099 4.688h1.703c-.011-3.396-.019-8.214.042-8.854.138-1.467.245-2.761.325-3.904.077 2.416.063 7.465.102 8.706.028.929.041 2.438.044 4.052h.784c-.004-3.336-.005-7.621.021-8.223.723-16.712-.4-11.218-.45-12.919-.366-12.266.556-17.015.556-17.939 0-20.688.185-95.843-.11-110.467-.058-2.884-.076-7.206-.075-12.12.585.421.804-1.092.835-1.155.489-1.029.828-5.516.721-6.292.744-1.242-.333 6.528 1.063 3.6.369-.775-.239-11.601-.348-9.558-.22 4.093-.365-1.523-.072-2.439.682-2.128-.489-4.691.335-7.098 1.163-3.398-1.761-4.914-.767-6.52 1.256-2.028.188-2.815.432-3.797-1.036-2.69-.138-2.88-.157-3.708-.113-4.872.277 2.784 1.102 1.971.619-.61.907-16.646.667-17.032-1.011-1.624-.814-10.486-.674-10.605.991-.839 2.192-5.759.417-4.631zm-3.632-41.073c.962 1.444.337 6.095-.071 9.582-.016-3.159-.026-6.5-.032-9.751.033.06.067.116.103.169zm-.173 131.411c.277-1.192.121 6.395.116 6.395-.794 0-.523-6.135-.789-4.374-.01.062-.018.138-.025.228-.022-2.313-.047-4.43-.075-6.322.047 1.846.191 3.918.3 4.852.075.663.373-.345.473-.779zm-.971-88.475c.009 2.804.01 5.612.01 9.068v.813c0 4.892-.029 5.85-.088 10.085-.013.884-.037 3.545-.061 6.68.013-4.584.094-16.322.139-26.646zm-.023 45.113c.101 5.036-.049 9.699.049 12.564.207 6.085.11-9.014.161-9.931.218-3.848.199-22.288.204-22.364.164-2.288.134 9.359.135 9.438 0 2.773-.017 17.08-.027 25.01-.349 1.521-.508 2.958-.008 4.33l-.003.978c-.127 2.112-.099 4.7-.099 7.094.045.399.089 1.027.098 1.096.346 2.871.156 7.444-.048 7.604-.199.156-.264 1.219-.257 2.557a260.37 260.37 0 00-.168-6.441c-.287-6.538-.13-20.472-.037-31.935zm.958 64.667c-.243 0-.18 12.216-.075 13.148 0 .382-.011.549.015.712.15.938.036 4.777.142 5.735.384 3.461.162 7.571.162 12.135 0 3.274-.467 8.306-.214 10.041.253 1.73-.055 17.229-.119 17.87 0 1.47-.037 11.264.059 11.904.19 1.269.126 6.524.168 6.936.133 1.325-.213 2.444-.212 2.17.022-4.942-.17-6.085-.331-9.636-.165-3.643.161-12.382-.14-12.212-.043.024-.071 25.586-.071 38.01-.407-1.648-1.208-.324-1.271-1.282-.797-12.251 1.207-16.996 1.207-17.919 0-8.957.075-28.137.108-48.185.055.121.103.245.103 1.714v-10.887c0-1.559-.049-3.847-.088-5.997.001-1.869 0-3.723-.001-5.557.155-2.212.155-3.156.244-5.368.095-2.31.106-11.569.156-12.21.435-5.697.432-5.647.432.867 0 3.248.116 8.011-.274 8.011zm1.318-68.742c-.707 4.044-.485 7.909-.485 12.16 0 1.307-.238 2.552-.531 3.744.041-12.941.134-26.653-.011-28.901 0-3.41.036-14.854.06-25.463.109.925.251 1.785.423 2.54.924 4.041.335 10.612.373 10.75.003.04-.929 3.365-.014 4.104.119 1.452.265 20.602.185 21.066z"/><path fill="#FFF" d="M146.542 87.842c.016-.038.027-.072.044-.11.267-.622.225-1.551.026-2.552a32.898 32.898 0 00-.07 2.662zM124.78 256.4c-.062-.071-.38-.082-.385-.076-.409.409-.676 6.309.322 3.685.469-1.232.908-2.641.063-3.609zM130.54 40.31c0 .382.211 2.009.232 2.399.065 1.218.652 1.188.36 1.497-.401.424-.287 2.951-.232 3.065v6.193c0 .581-.156 3.842-.032 4.022 0 .846-.161 1.432.393 1.824 1.889-3.826.787-1.822.787-7.837 0-1.071-.943-10.175-.918-10.984.283-9.118.342-26.227-.518-34.102H128.4c-.068 1.053-.093 1.885-.022 2.21 1.275 5.857-.716 20.627 2.162 31.713zM124.243 63.432c.748-1.444 1.339-15.765.861-17.768-2.093-8.786.164-30.339-1.255-38.447a66.346 66.346 0 01-.141-.828h-.516c.419 2.361.372 15.517.372 17.758 0 4.102-1.822 11.636-1.277 13.577 1.356 4.836.628 14.502 1.049 15.67.621 1.726-.003 11.792.907 10.038zM145.368 37.31c0 4.237.843 4.231.786 1.764-.118-5.081-.138-3.157 1.599-6.393.501-.932.129-5.192.013-5.669-.625-2.524-.545-17.417-.518-20.623h-.836c.011 3.256.007 17.192-.063 17.405-1.362 4.161.683 5.572.276 7.477-.909 4.266-1.257.285-1.257 6.039zM124.608 253.431c-.112.177-.272 1.814-.251 1.822.699.295 1.532-1.036.756-1.303-.128-.044-.369-.734-.505-.519zM125.542 288.39c.224-.147.322-.473.344-.535.179-.506.132-4.529-.937-3.371-.542.589.4 4.034.593 3.906zM124.628 251.999c.356-.318-.199-1.427-.199-1.439 0 .283-.389 1.961.199 1.439z"/></svg>