<svg xmlns="http://www.w3.org/2000/svg" width="265.948" height="336.412"><path fill="none" d="M48.744 110.555c.05.725.067 1.834.064 3.238.004-1.406-.014-2.515-.064-3.238zM109.712 102.564c0 .602.041 1.048.099 1.443.102-.437-.099-.861-.099-1.443zM122.08 117.943c-.184-.214-.016.358 0 0zM145.365 138.852c-.058.35-.096.764-.096 1.293 0 .484.042-.208.096-1.293zM166.539 102.564c0 .603.041 1.049.099 1.444.103-.437-.099-.861-.099-1.444zM142.191 204.616c-.108-.883-.253-2.84-.3-4.584.029 1.787.053 3.787.075 5.973.009-.086.017-.158.025-.215.267-1.664-.005 4.131.789 4.131.005 0 .162-7.166-.116-6.039-.1.408-.397 1.361-.473.734zM142.47 215.62c-.049.605-.061 9.352-.155 11.535-.09 2.088-.09 2.98-.245 5.07.001 1.732.002 3.482.001 5.248.039 2.031.088 4.193.088 5.666v10.283c0-1.387-.048-1.504-.103-1.619-.033 18.938-.108 37.055-.108 45.516 0 .873-2.004 5.355-1.207 16.928.063.904.863-.346 1.271 1.211 0-11.736.028-35.881.071-35.904.301-.16-.025 8.094.14 11.535.161 3.354.354 4.434.332 9.104-.001.258.344-.799.211-2.051-.042-.389.022-5.354-.168-6.553-.096-.604-.059-9.855-.059-11.244.064-.605.373-15.246.119-16.881-.253-1.639.215-6.391.215-9.484 0-4.311.221-8.193-.162-11.463-.106-.906.008-4.531-.142-5.418-.026-.154-.015-.311-.015-.672-.104-.881-.168-12.422.074-12.422.39 0 .274-4.498.274-7.564.001-6.155.003-6.202-.432-.821zM141.875 199.169c-.007-1.264.058-2.268.258-2.414.203-.15.393-4.471.048-7.184-.009-.064-.054-.656-.098-1.033-.001-2.262-.029-4.707.098-6.703l.003-.922c-.5-1.297-.341-2.654.008-4.092.011-7.49.028-21.004.028-23.625-.001-.075.028-11.077-.135-8.915-.006.071.014 17.491-.205 21.126-.051.865.047 15.128-.16 9.38-.099-2.707.051-7.112-.049-11.869-.094 10.828-.251 23.992.036 30.166.068 1.442.124 3.517.168 6.085zM143.775 135.293c-.038-.13.551-6.337-.373-10.155a21.896 21.896 0 01-.424-2.399c-.023 10.021-.06 20.832-.06 24.053.145 2.124.052 15.076.011 27.3.293-1.126.531-2.303.531-3.536 0-4.016-.222-7.667.485-11.487.081-.438-.065-18.528-.185-19.9-.914-.697.017-3.838.015-3.876z"/><path fill="none" d="M265.948 138.012c-.864-13.883-2.9-44.824-2.9-44.824-.617-17.57-6.016-31.993-12.726-42.513-9.039-14.16-19.961-21.41-19.961-21.41-11.137-6.51-17.061-7.08-28.352-9.98-8.791-2.258-20.019-8.272-24.562-10.827-.454-1.063-2.373-1.865-3.297-2.735-1.557-1.467-1.426-2.082-3.867-2.718-4.528-1.18-12.605-2.255-17.936-2.22-2.642.017-3.538-.417-6.185-.405-2.203.009-4.411.025-6.611.023-2.364-.002-3.588-.359-6.063-.401H132.329c-4.062.042-7.631.409-12.149.385-6.569-.035-18.069 1.026-24.201 2.544-2.664.66-2.349.991-3.987 2.603-1.003.986-3.233 1.959-3.553 3.109-12.867 7.9-39.001 15.271-39.001 15.271-11.568 3.332-13.883 5.646-13.883 5.646l.006.022c-6.675 4.612-12.716 11.563-12.716 11.563C3.609 59.359 2.313 101.733 2.313 101.733 2.021 118.516 0 137.735 0 137.735c18.51 9.98 46.275 9.842 46.275 9.842 1.296-.432 1.157-3.039 1.157-3.039 0-7.234 1.157-12.586 1.157-12.586.03-9.873.447-18.666.154-21.396.05.723.067 1.832.064 3.238.003-1.404-.015-2.514-.064-3.238-.063-.785-.154-1.141-.293-.879l1.444-4.75.422 1.264c2.606 9.549 2.175 27.041 2.175 27.041.586 32.826 1.589 45.844 1.589 45.844.139 9.842 1.743 17.646 1.743 17.646 2.313 34.137.293 61.902.293 61.902-3.332 35.139-9.456 64.154-9.842 65.219l-.386 1.064c9.256 7.713 68.644 10.797 68.644 10.797 17.263 1.445 37.429.483 55.092-1.132.029-1.449.034-2.745-.055-3.046-.359-1.214-.286-3.524-.321-3.643-.881-3.03-.577-3.537-.579-6.854 0-.21.175-2.457.23-2.556.226-.4.231-4.242.239-4.255.356-.559.379-3.14.394-3.16.527-.763.675-9.993.142-11.217-.208-.479-.364 6.484-.563 7.373-.234 1.047-.134 5.646-.257 5.85-1.398 2.304-.438-5.164-.431-5.188.413-1.241.342-14.619.441-14.775 0-3.988.299-18.286.005-21.039-.342-3.23-.333-3.622-.333-6.995 0-3.506-1.192-5.927-.786-8.091 0-.511.026-1.878-.198-2.222-1.66-2.526-1.782-24.262-.98-24.34-.017-.082-.068-.219-.071-.256-.235-2.574-.147-18.277.415-19.984.696-2.112-.056-6.432.572-8.711 0-.598-.041-3.648.025-3.939.174-.766.207-3.08.211-3.093.404-1.595.039-3.899.453-4.839 0-.227.008-.576.107-.777.43-.855.506-3.988.236-4.426-.677-1.102-.539-6.902-.06-8.076.512-1.257.609-4.035-.242-3.212-.714.691-.304 11.444-.304 12.996 0 2.47-.137 3.54-.269 5.83-.16 2.776-.5 5.835-.835 8.589-.317 2.611.406 3.648-1.306 2.896-.518-.228.598-6.924.633-6.98 1.194-1.857-.254-22.264.497-23.408.084-.13.441-10.496-.885 1.978-.242 2.284-.196-5.561-.196-5.587 0-1.584 1.221-4.228 1.377-4.248 0-3.927.13-8.215.13-12.284 0-.646-.13-6.558-.13-3.688-.146-.015-.385 1.549-.389 1.652-.086 2.198-.66 6.477-.66 8.433 0 3.165-.787 2.813-.787 4.185 0 1.073-.17-6.935-.098-7.11.386-.931.426-5 .426-6.334 0-.822.678-6.792.654-6.803 0-2.372.168-6.28.388-8.547.351-3.597.076-23.896.596-25.017v-1.879c0-2.068-.273-2.734-.425-3.765-.016.07-.021.14-.056.212-1.591 3.215-.1-4.142-.108-4.326-.135-2.767.46-4.573.46-6.462 0-6.906-.541 2.012-.765 2.556-.319.778-.583 3.924-.596 3.92-.441-1.386.271-10.771.573-11.949 0-.705.132-1.648-.132-2.265-1.585-3.71 3.385-6.382 1.071-12.937-2.217-6.289 1.393-9.748-.272-11.229-.814-.724-.273-17.955-.273-20.825 0-2.219.366-12.988.775-14.937h2.216c-.021 3.633-.111 15.621-.074 15.989v9.004c0 1.733-1.531 9.325-.644 10.497.655.866.271-1.904.398-2.291.517-1.576.915-9.055 1.132-9.394.669-1.049.359-6.002.359-7.552 0-5.503 1.625 2.272 1.031 6.313-.594 4.046-1.293 7.856-1.293 11.949 0 5.938.037 8.29.654 14.27 0 2.041-.447 18.089-.37 18.447-2.192 4.168.478 9.727-.877 11.787-.764 1.161-.328 7.404-.479 7.642-1.45 2.271.461 4.872-.239 7.388 0 3.441.655 4.942.655 9.238 0 6.898-.918 10.811-.918 17.407 0 3.987 1.723 14.905.787 17.594 0 .385-.053 1.392.033 1.693.827 2.927.968 28.917.063 32.026-.461 1.584-1.929 16.39-1.016 17.227.599.548 1.023 14.584.395 14.561 0 .065.049.653.055.683.198 1.074.272 7.669.272 9.153 0 1.985-.903 7.621-.77 8.092.585 2.068.261 6.396.454 6.918.831.059.26-4.106.457-4.854 1.19 0 .507 7.058.776 8.276-.433-.044-.918 4.978-.181 5.972.884 1.191-.571 29.26.245 31.778.264.136.01.299.214.513 1.329 1.397-1.142 8.814-.131 13.345.523 2.35.802 5.255-.104 7.621-.496 1.29-.481 10.247-.229 10.611.566.819.447 3.662.447 4.912 0 .946-.04 1.499-.096 1.908 24.334-2.266 43.687-5.726 43.687-5.726 4.442-1.357 5.6-3.855 5.6-3.855-15.811-86.768-9.456-128.23-9.456-128.23 1.743-10.799 3.085-50.133 3.085-50.133.386-4.828.201-10.227.201-10.227-1.126-19.146 2.321-30.613 2.505-31.209 2.06 4.027 1.629 25.824 1.629 25.824-.139 1.883.293 4.629.293 4.629.864 6.369.586 10.998.586 10.998 10.263 4.901 47.284-8.55 47.284-8.55zM104.796 316.36c0 3.056.721 5.507.721 7.537 0 2.349-.809 5.369-1.465 7.572-.498 1.676-.646 2.449-.675 3.332h-.926c-.134-.438-.232-.369-.304 0h-.813c-.017-5.58-.143-12.455-.143-14.777 0-2.641-1.358-13.312-.918-14.582 0-.063.016-.279-.011-.319-1.094-1.711.342-8.004-.351-10.464-.533-1.895-.352-5.081-.223-7.152.074-1.193.431-5.739-.268-5.977v-15.56c0-8.418-1.441-11.514-1.441-19.8 0-.923 1.049-15.249-.24-10.634-.379 1.357.336-14.772-.057-16.011-1.233-3.899-.36-8.83-.359-12.812.724-.57-.146-9.716.284-10.519 1.206-2.24.2-8.747.919-11.287.82-2.898 1.203-15.194.698-18.506 0-.07-.229-1.77-.235-1.779-.237-.428-.24-1.696-.298-2.115-.206-1.516.353-4.947.467-4.219.515-.053.393 3.114.393 3.501 0 1.989-.063 1.725.242 3.55.196 1.178.019-6.493.095-6.928.089-.503.073-2.93.155-2.899 0-1.194 1.156-2.908.622-3.885-1.812-3.315-1.277.937-1.277 3.202 0 5.578-1.179-.821-1.179-2.391 0-6.415 1.049-5.289 1.049-9.224-.999-1.077-1.387 12.306-1.444-8.883v-1.174c0-.687-.018-4.25-.446-4.307-.166-.933-.109-6.812.005-7.501.925-5.524-.28-14.993.836-19.302 0-1.659-.079-6.288.119-7.515.822-5.082-.335-16.525.404-19.984 0-.191-.044-.626.034-.762.996-1.761-.529-13.781 1.228-16.341.989-1.442.573-9.835.573-12.191 0-.137-.02-.292.017-.42 1.07-3.786.799-10.436 1.229-14.181-.106-.23-.111-.863-.068-1.615h3.908c-.24 3.735-.068 14.934-.068 16.601 0 1.914.128 5.81-.304 7.362-.172.615-.555 6.665-.347 7.157.548 1.293-.3 1.377-.319 1.36-.415-.378-.177-6.503-.177-7.563 0-.538.161-1.486-.229-1.739 0 .163.033.686-.022.795-2.871 5.516-.123 31.214-1.355 39.686 0 .129-.018.276.018.383.382 1.165-.157 3.763-.51 4.362-.722 1.232-.105 9.341-.523 10.222-.245.516-.622 4.95-.705 5.295-.409 1.721-.096 8.572-.35 9.613.094-.29.442-1.068.444-1.073.574-.898.078 4.073.269 4.675.501 1.585.452 8.119.716 8.597 1.048 1.907.402 22.261.721 23.123.41 1.109.1 3.875.578 3.894 0 .117.017.706-.012.748-.54.802-.514 7-.514 8.477 0 1.26.431 5.13.027 5.678-.907 1.226-1.207 5.301-1.207 7.047 0 3.345-.047 1.89.453 1.259.257-.321.474-6.208.869-6.945 1.01-1.873.307-3.524.787-4.903.587-1.689.023 4.845-.154 5.103-.787 1.14-.572 3.663-.698 4.797-.243 2.197-.228 7.657-.732 9.061 0 .453-.088 1.687.083 1.936 1.177 1.705.043 2.914.049 2.654.057-2.468-.108-1.273-.514-2.511-.084-.257-.002 2.091 0 2.099.658 1.951.514 2.743.514 4.939 0 1.678-.592 4.961-.591 4.981.194 3.71-1.382 5.694-.921 9.736.412 3.641.91.305.934.271.603-.896.316-4.155.316-5.466 0-1.134-.562-4.84.563-3.36.484.639.343 16.853.025 17.431 0 1.011.263 1.872.263 3.416 0 1.524-.252 13.958-.108 14.349 1.759 4.805 1.419.854 1.419 7.856 0 5.237-2.026 8.949-1.322 13.183 1.201 7.222-.262 10.104.076 13.123 0 .296-.021 2.316.011 2.447.562 2.212.449 5.908.449 8.344 0 2.565 1.207 7.166.775 8.71-1.007 3.59-.581 2.057-.711 5.608-.07 1.242.896 1.134.645 1.593-1.293 2.351.542 1.905.607.883.262-4.1 1.94 1.339.304 4.334-.614 1.118-.379 6.195-.379 7.694zm10.11-268.028c-.595 4.046-1.294 7.856-1.294 11.949 0 5.938.037 8.29.655 14.27 0 2.041-.448 18.089-.371 18.447-2.191 4.168.478 9.727-.876 11.787-.764 1.161-.328 7.404-.479 7.642-1.45 2.271.462 4.872-.24 7.388 0 3.441.656 4.942.656 9.238 0 6.898-.919 10.811-.919 17.407 0 3.987 1.724 14.905.787 17.594 0 .385-.051 1.392.034 1.693.827 2.927.968 28.917.063 32.026-.461 1.584-1.929 16.39-1.015 17.227.598.548 1.022 14.584.393 14.561 0 .065.049.653.055.683.199 1.074.273 7.669.273 9.153 0 1.985-.902 7.621-.771 8.092.585 2.068.262 6.396.454 6.918.831.059.261-4.106.459-4.854 1.189 0 .505 7.058.774 8.276-.431-.044-.918 4.978-.18 5.972.884 1.191-.571 29.26.245 31.778.265.136.011.299.214.513 1.33 1.397-1.143 8.814-.131 13.345.523 2.35.802 5.255-.105 7.621-.495 1.29-.479 10.247-.229 10.611.565.819.447 3.662.447 4.912 0 1.206-.064 1.775-.144 2.221h-.872c.033-1.54.044-2.958-.049-3.274-.36-1.214-.288-3.524-.322-3.643-.882-3.03-.577-3.537-.579-6.854 0-.21.175-2.457.229-2.556.227-.4.231-4.242.241-4.255.355-.559.378-3.14.392-3.16.527-.763.675-9.993.144-11.217-.209-.479-.366 6.484-.563 7.373-.234 1.047-.134 5.646-.257 5.85-1.398 2.304-.438-5.164-.431-5.188.412-1.241.342-14.619.441-14.775 0-3.988.299-18.286.006-21.039-.344-3.23-.333-3.622-.333-6.995 0-3.506-1.193-5.927-.787-8.091 0-.511.026-1.878-.197-2.222-1.662-2.526-1.784-24.262-.981-24.34-.018-.082-.069-.219-.072-.256-.234-2.574-.146-18.277.416-19.984.695-2.112-.056-6.432.572-8.711 0-.598-.042-3.648.025-3.939.173-.766.208-3.08.21-3.093.405-1.595.039-3.899.453-4.839 0-.227.008-.576.109-.777.429-.855.505-3.988.236-4.426-.679-1.102-.54-6.902-.062-8.076.513-1.257.609-4.035-.24-3.212-.715.691-.306 11.444-.306 12.996 0 2.47-.137 3.54-.268 5.83-.161 2.776-.501 5.835-.835 8.589-.317 2.611.406 3.648-1.306 2.896-.517-.228.597-6.924.634-6.98 1.193-1.857-.256-22.264.496-23.408.084-.13.441-10.496-.885 1.978-.243 2.284-.196-5.561-.196-5.587 0-1.584 1.221-4.228 1.376-4.248 0-3.927.132-8.215.132-12.284 0-.646-.132-6.558-.132-3.688-.145-.015-.385 1.549-.388 1.652-.085 2.198-.661 6.477-.661 8.433 0 3.165-.787 2.813-.787 4.185 0 1.073-.169-6.935-.097-7.11.385-.931.425-5 .425-6.334 0-.822.679-6.792.655-6.803 0-2.372.167-6.28.388-8.547.351-3.597.076-23.896.596-25.017v-1.879c0-2.069-.273-2.735-.425-3.766-.017.071-.021.141-.057.213-1.591 3.215-.1-4.142-.108-4.326-.135-2.767.459-4.573.459-6.462 0-6.906-.541 2.012-.765 2.556-.318.778-.583 3.924-.595 3.92-.441-1.386.271-10.771.572-11.949 0-.705.134-1.648-.13-2.265-1.586-3.71 3.383-6.382 1.07-12.937-2.218-6.289 1.393-9.748-.272-11.229-.814-.724-.272-17.955-.272-20.825 0-2.219.366-6.776.774-8.725h2.216c-.021 3.633-.11 9.408-.074 9.776v9.004c0 1.733-1.531 9.325-.644 10.497.654.866.271-1.904.398-2.291.517-1.576.916-9.055 1.131-9.394.671-1.049.36-6.002.36-7.552.006-5.507 1.63 2.269 1.037 6.31zm11.509-13.915h2.212c.858 7.439.8 13.756.518 22.369-.026.765.917 9.364.917 10.376 0 5.682 1.102 3.789-.787 7.403-.554-.371-.393-.924-.393-1.722-.124-.171.032-3.251.032-3.801v-5.85c-.055-.108-.168-2.495.232-2.896.293-.292-.295-.264-.359-1.414-.021-.37-.233-1.906-.233-2.267-2.878-10.472-.886-14.581-2.162-20.112-.071-.305-.047-1.092.023-2.086zm-4.836 6.931c0-2.117.047-4.7-.371-6.93h.516c.043.252.089.511.14.782 1.419 7.66-.837 18.175 1.255 26.475.478 1.892-.113 15.419-.86 16.784-.911 1.657-.286-7.852-.906-9.482-.422-1.104.307-10.234-1.049-14.802-.547-1.836 1.275-8.952 1.275-12.827zm.83 219.323c.006-.006.324.004.386.07.844.914.405 2.246-.063 3.408-.999 2.481-.732-3.093-.323-3.478zm.232-4.086c-.588.494-.199-1.094-.199-1.361 0 .013.556 1.06.199 1.361zm.486 1.842c.775.252-.058 1.51-.757 1.232-.021-.008.139-1.555.251-1.723.136-.201.378.45.506.491zm-.164 28.844c1.067-1.096 1.114 2.705.937 3.184-.022.059-.12.367-.344.506-.194.12-1.136-3.134-.593-3.69zm.531 13.976c-.065-.012-.254-6.49-.036-6.715l.033.086c.285.467.11.561.169.65.363.57.058 4.367.298 4.734.625.948-.289 1.278-.464 1.245zm-.433-9.031c.048-.646 1.117-.701 1.117-.352 0 .074-.018.316.009.365l.04-.066c.322.426-1.378 2.906-1.166.053zm4.691 42.584h-1.625c.021-.393.035-.855.035-1.406 0-5.295-.197-10.846-.197-15.893 0-1.133-.852-4.066-.852-7.252 0-1.564.238-4.584-.18-5.994-.034-.115-.018-.229-.018-.348-.073-.072.262-6.836.262-7.709 0-2.08.315-9.588-.786-10.725-.738-.764.815-3.777.273-5.971-.125-.506-.208-7.193-.208-8.221-.105-.742.06-3.48-.123-3.863-.047-.098-.14-1.432-.14-1.689-.351-.379.067-6.539-.204-7.828-.027-.133-.009-3.932-.009-4.469-.033-.645-.033-2.031-.033-2.713.418-3.193-.013-7.318-.302-10.377-.273-2.902.253-5.572-.464-8.27-.271-.074-.119-2.695-.119-3.174.164-2.02-.204-14.84.315-15.652 1.01-1.578.597-4.951.476-6.988-.017-.279-.42-.443-.398-.76-.302-1.715-.222-16.363.284-17.596.569-1.389.575-5.115.119-6.682l-.011-.236c-.146-.543-.195-10.04-.102-11.7.019-.339.742-.532.388 1.579-.099.58-.66 6.018.508 3.998.207-.357-.022-4.484-.164-4.983-.026-.095-.009-1.388-.009-1.62.533-1.406-.491-8.655-.491-11.152 0-2.909-.659-5.1.114-7.423.044-.132.018-1.021.018-1.195-.004-4.367-.139-6.901.375-11.182.108-.91-.697-5.641-.917-6.988-.004-.022-.23-5.034-.692-3.245-.012.04.118 5.016.118 5.7 0 2.209.312 7.424-.311 9.31-.53 1.611.573 7.406.573 9.558v4.021c.218 1.173-.089 4.2.381 5.075.016.028-.316 7.292-.316 8.255 0 3.379-.655 1.687-.655 5.631v9.393c.549.318 1.197 2.369.158 3.438-.214.223-.912 1.525-.838 1.777.492 1.66-.266 5.621.524 6.266.056.047.395.965.385 1.117-.002 3.283.059 5.775-.203 9.004-.198 2.457.467 12.646-.213 13.984-.502.988.381 4.783-.131 6.178-.402 1.094.351 4.117.351 5.809-.854.777.725 15.201-.378 15.201-1.503 0-.69-5.396-.957-7.557-.179-1.443-.286-9.307.399-10.486.041-.07.082-.752.082-.918-.089-.152.291-2.439.39-2.779.091-.311.046-2.643-.037-3.012-.031-.139-.205-1.146-.205-1.254-.604-.902.278-10.646-.508-12.264-.489-1.006.031-6.279.758-6.477.266-.998-.025-4.588-.3-5.449a27.61 27.61 0 01-.279-1.623c.401-.596.229-2.336.229-3.154v-.797c-.117-.723.093-1.66-.273-2.232-.289-.451.698-1.625.298-2.893-.289-.916-.237-3.602-.237-4.697-.408-5.297-.472-17.461.277-22.384.039-.257.018-.578.018-.847-.11-3.308.382-14.262-.313-16.434-.432-1.352-.213-17.282-.213-20.461-.141-.805-.194-26.144.219-26.46.512-.396.151 3.382.752 4.276.729 1.087-1.431 4.724-.328 6.321.123.177-.3 1.063.542 1.942.851.889-1.513 2.384.113 4.805.377.561-.432 4.905-.721 5.266.047.386.058.602.052.721.057.066.148.208.288.476.39.75-.391 9.253.709 7.585.108-.162-.194-2.841.263-3.501.536-.774-.019-12.223.52-14.73.419-1.958-.64-4.128-.64-6.706 0-1.706-.244-4.096.317-5.528.126-.324-.157-1.179.142-1.538-.191-1.134-.218-7.637.047-8.391.021-.057.308-2.105-.575-1.225-1.021 1.021-.003 1.545-.33 3.381-.271 1.516.511 1.374-.48 3.222-.063.116-.003 1.192-.295 1.27-.004.014.107 1.91-.12 1.37-.261-.62.253-4.017-.689-6.32-.321-.788 1.229-3.375 1.229-5.776 0-.339.102-1.275.36-1.409.345-1.032.761-.433.853-2.52.063-1.479.199-1.759.127-3.428-.078-1.833.332-3.422.332-5.583 0-2.176.488-3.892-.617-5.954-.014-.024-.007-.154-.007-.195-1.132-7.309 1.436-10.317.676-17.152-.414-3.73-1.145-7.149-1.405-10.874h1.658c.407 4.235.603 11.197 1.179 12.098.897 1.406.284 6.599.284 8.327.025.01.731 1.977 1.567 2.228.008.101.056.085.165.145 0 1.09-.193 4.934.158 5.616.026.051-.061 1.356.143 1.621-.084.715.376.912-.131 1.925-.259.516-.012-.996-.285-1.504-.124-.233.196-1.314-.303-1.924-.492-.601-.014-3.819-.598-2.132-.506 1.458.786 6.682.786 8.965 0 2.416.094 3.105-.365 5.463-.203 1.038.01 1.565.006 1.647-.188.639-.076 4.488-.288 5.823-.073.47-.04 11.803-.04 13.455.001.001.52 3.448.066 4.266-1.021 1.836-1.067 2.44-.524 4.847.385 1.709.429 11.032.185 13.029-.377 3.09.999 1.664.661 5.589-.125 1.462-.06 3.625-.06 5.184.241.328-.104 8.523.254 9.65.532 1.677-.549 3.3-.549 4.996-.237.354-.032 2.401-.104 3.04.124.179.923-2.344.923-.899 0 .76.083 3.798-.656 3.839-.474.026-.262 1.035-.262 1.89 0 1.101-.095.749.262 1.655.517 1.371 1.373 2.984.383 4.221.247 1.361-1.414 7.476-.858 9.892.353 1.523-.556 4.046.596 5.851.404.633-.937 3.107-.131 3.324.029.096.011.223.011.328.268.566-.523 23.162-.654 23.223-.116.051-1.189 2.609-.601 3.529.284.445.72 4.895.355 6.121-.033.109-.029 1.184.049 1.287-.065.375.467 6.314.709 6.918.04.098-.144 4.105-.775 4.006-1.276-.197.002 3.076-.541 5.451-.416 1.822.28 2.051.28 4.357 0 3.104-.314 7.963.311 10.76.008.035.16 3.182.284 4.113.065.486.21.896.321 1.461-.552 3.658.195 9.242-.441 12.811-.286 1.598-.298 7.256.973 8.525.147.148.387 1.287.387 1.551-.711 1.324-.623 5.367-.623 7.133-.275 1.951-.184 12.135.246 14.027.271 1.201-.246 5.174-.246 6.973v6.158c.557 2.193.506 9.721.818 10.291.08.147.1 11.911-.016 19.233zm2.855-160.528c-.084.287-.034 3.225-.034 3.773-.146.209-.46 1.514-1.037 1.58-.469.053-.4.219-.647-.537-.073-.219.067-2.645-.117-3.502-.086-.395-.051-2.023-.225-2.773-.026-.111-.004-.285-.054-.346-.003-.049-.001-.156-.003-.311-.031-2.157.036-13.708.147-13.717.65-.055-.055 2.699.302 3.846.349 1.12.763 1.48.717 3.037-.003.086.744-.267.456-.684-.091-.13.05-1.786-.361-2.186-.207-.202-.129-3.288-.129-3.751.142-.2.805-5.084.26-5.628-.547-.547.462-2.133.462-3.164 0-1.438.479-2.734-.35-3.823-.229-.303.017-1.512-.306-1.806-.057-.052-.033-.104-.033-.225-.224-.295-.36-4.143.164-4.143.84 0 .589-1.5.589-2.524 0-2.052.008-2.068-.933-.273-.106.202-.133 3.119-.336 3.847-.199.708-.195 1.004-.544 1.725-.261.538.208 2.575.208 3.605v3.429c0-1.155-.655.331-.522-2.112.031-.571-.041-4.241-.256-4.552-.386-.56.536-5.125.177-6.38-.128-.447-.131-2.483.24-2.841.575-.555-.012 1.377 1.704 1.377.012 0 .35-2.39-.249-2.014-.218.136-.86.454-1.026.245-.454-.573-1.209-2.498-.125-2.622.438-.05.85-1.491.104-2.395-.02-.021-.113-.219-.21-.345-.002-.755-.061-1.569.212-2.236.013-.033.082-8.331.082-9.551-.001-.025.063-3.694-.291-2.974-.013.024.03 5.835-.44 7.047-.112.288.101 5.044-.35 3.127-.271-1.162.341-3.263-.447-5.343-.138-.359.145-5.739.222-6.538.128-1.334.19-1.636.19-3.177v-.256c-.001-2.093-.007-3.433-.134-5.461-.016-.25-.092-2.25.128-2.04 1.307 1.244 1.167 2.881.899 4.695-.181 1.222.324 7.03-.068 7.643-.01.015.629.015.462-1.057-.251-1.596.18-3.486.375-5.003.176-1.359.198-3.804-.57-4.729-.05-.063-.368-1.969-.404-2.075-.297-.635-.343-9.265-1.162-12.511-.493-1.954.039-7.479.251-9.479.174-1.651.534-3.041.781-4.611.019-.126.011-.087.036-.058 1.122 2.791.446 2.066.588 4.696.008.144.502 4.414.527 4.507.116.436.236 1.819.45 2.728.025.109.14.372.205.381-.272 1.596-.167 12.257.358 13.92.204.642-.097 12.34-.097 14.434.514 1.157-.348 11.968.154 15.587.638 4.607.238 28.284.238 34.801 0 .292-1.994 1.788-1.202 5.652.111.539 2.537-1.191.974 4.071zm13.756-133.257c.07-.201.073-3.522.063-6.597h.836c-.026 3.028-.106 7.252.518 9.637.117.45.488 4.475-.012 5.355-1.736 3.056-1.718 1.239-1.6 6.039.057 2.331-.786 2.336-.786-1.666 0-5.436.348-1.675 1.258-5.706.405-1.798-1.64-3.132-.277-7.062zm2.36 91.922c.241.365-.048 15.513-.667 16.089-.824.769-1.215-6.464-1.102-1.862.02.782-.878.961.157 3.502-.244.927.824 1.67-.432 3.586-.994 1.518 1.93 2.949.767 6.159-.824 2.273.347 4.694-.335 6.705-.293.866-.146 6.172.072 2.305.108-1.93.718 8.297.348 9.027-1.396 2.768-.318-4.572-1.063-3.398.108.732-.231 4.971-.721 5.943-.03.061-.249 1.488-.835 1.092-.001 4.641.018 8.725.076 11.449.295 13.813.11 84.807.11 104.35 0 .873-.923 5.359-.556 16.945.049 1.607 1.173-3.582.449 12.203-.025.568-.024 4.617-.02 7.768h-.785a148.09 148.09 0 00-.044-3.826c-.039-1.174-.024-5.943-.102-8.225-.08 1.08-.187 2.303-.324 3.688-.062.605-.054 5.154-.043 8.363h-1.702c-.006-1.742-.028-3.436-.1-4.428-.087-1.188-.051-6.066-.227-8.309-.026-.332-.003-.854-.054-1.033-.004-.15-.001-.471-.004-.936-.03-6.459.037-41.057.147-41.084.655-.16-.053 8.084.306 11.521.35 3.352.767 4.43.719 9.092-.003.262.747-.795.458-2.047-.09-.387.05-5.346-.362-6.543-.208-.605-.129-9.846-.129-11.234.141-.604.809-15.229.261-16.859-.55-1.641.464-6.387.464-9.477 0-4.305.481-8.184-.352-11.449-.23-.904.017-4.525-.308-5.412-.056-.154-.033-.311-.033-.672-.225-.879-.362-12.406.165-12.406.843 0 .592-4.494.592-7.559 0-6.146.008-6.193-.938-.818-.106.604-.132 9.34-.338 11.521-.198 2.121-.195 3.008-.546 5.168-.261 1.609.209 7.715.209 10.799v10.271c0-1.848-.188-1.439-.342-1.771.145 4.326 1.135 14.604 1.042 14.93-1.262 4.48-3.612 22.285-1.607 26.594 2.098 4.51-2.634 10.852-1.614 7.635 1.751-5.527-1.328-17.293.535-26.012 2.244-10.502-2.491-18.354-.494-25.025 2.214-7.396-2.528-18.646 1.688-22.326.146-4.715.411-10.781.188-13.094-.128-1.338-.13-7.436.242-8.51.577-1.662-.012 4.127 1.711 4.127.012 0 .353-7.158-.249-6.033-.22.41-.864 1.359-1.031.734-.457-1.715-1.214-7.482-.126-7.854.441-.15.854-4.465.104-7.172-.018-.066-.112-.656-.211-1.035-.003-2.26-.06-4.701.213-6.693.015-.102.083-24.955.083-28.608-.001-.076.063-11.065-.293-8.906-.013.071.03 17.473-.442 21.104-.111.864.102 15.112-.35 9.37-.273-3.48.343-9.772-.452-16.002-.137-1.079.146-17.193.224-19.581.129-3.997.192-4.9.192-9.516v-.767c-.002-6.271-.008-10.282-.135-16.36-.016-.745-.093-6.739.129-6.11 1.313 3.728 1.172 8.63.902 14.062-.182 3.659.326 21.058-.068 22.896-.01.043.633.041.464-3.169-.251-4.776.181-10.438.379-14.982.175-4.07.197-11.394-.573-14.168-.052-.184-.371-5.894-.406-6.212-.301-1.907-.347-27.75-1.169-37.473-.494-5.855.04-22.401.253-28.395.051-1.444.118-2.821.193-4.165h1.221a102.973 102.973 0 00-.004 4.242c.009.432.505 13.22.531 13.502.116 1.302.236 5.447.452 8.169.026.327.141 1.113.206 1.139-.273 4.784-.169 36.715.36 41.696.034.311.054 1.502.063 3.298.589 3.72.524 8.594.402 13.99-.084 3.663.15 21.08-.031 22.92-.005.043.29.042.214-3.172-.117-4.783.082-10.45.174-15 .081-4.074.09-11.406-.265-14.184-.023-.185-.17-5.901-.188-6.218-.138-1.91-.158-27.781-.537-37.515-.229-5.862.018-22.426.115-28.426.025-1.543.058-3.011.097-4.442h.559a200.988 200.988 0 00-.004 4.52c.003.432.231 13.234.243 13.518.034.828.069 2.809.115 4.842v.002l.017.655c.219 2.188 2.173 1.095 2.173-.039 0 2.41-1.277 5.356-.34 6.488.289.35.014 3.203.634 5.196.421 1.354-.452 4.185-.452 6.559 0 4.631-1.232 2.34-.937-2.366.052-.842.208-10.199-.506-9.974-.024.008-.313 4.329-.466 8.045-.002 1.628-.002 3.37-.001 5.168a.314.314 0 00.021.058c.176.326 1.038 2.125 1.167 2.161.022.129 3.183 12.416.656 8.269-1.212-1.987-.421-2.953-.722 1.654-.054.812 1.511 4.903.878 8.814-.042.256-.077.612-.106 1.01.198.947.241 1.826-.026 2.414-.017.037-.029.069-.045.106.027 1.21.187 1.535.55-1.489.297-2.465.81-1.648.473-5.218-.171-1.807.793-1.481.793 2.683 0 .379-.381 10.474-1.357 7.156-.714-2.421-.53.136-.53 1.126-.009-.009 1.18 2.399 1.18 6.867 0 .876.244 7.392-.536 7.601-.04.147-.015.726-.015.905 1.283 4.161-.228 8.418.486 12.401.002.018-.136 3.323-.233 5.301.268-1.606.996-1.772.77-4.686-.145-1.858.11-3.778-.294-5.551-.121-.53-.334-9.494.629-10.07 1.775-1.065.574 3.582-.42 4.374-.135.113-.333 8.484.678 10.019zm14.901 183.423c0 3.056.721 5.507.721 7.537 0 2.349-.809 5.369-1.464 7.572-.499 1.676-.646 2.449-.675 3.332h-.926c-.136-.438-.232-.369-.304 0h-.815c-.015-5.58-.142-12.455-.142-14.777 0-2.641-1.358-13.312-.917-14.582 0-.063.014-.279-.012-.319-1.094-1.711.342-8.004-.351-10.464-.533-1.895-.351-5.081-.222-7.152.072-1.193.43-5.739-.27-5.977v-15.56c0-8.418-1.441-11.514-1.441-19.8 0-.923 1.051-15.249-.239-10.634-.379 1.357.336-14.772-.057-16.011-1.234-3.899-.361-8.83-.359-12.812.725-.57-.146-9.716.285-10.519 1.205-2.24.199-8.747.917-11.287.822-2.898 1.204-15.194.699-18.506 0-.07-.23-1.77-.235-1.779-.237-.428-.241-1.696-.298-2.115-.206-1.516.353-4.947.467-4.219.515-.053.394 3.114.394 3.501 0 1.989-.065 1.725.241 3.55.196 1.178.019-6.493.096-6.928.087-.503.072-2.93.155-2.899 0-1.194 1.155-2.908.621-3.885-1.812-3.315-1.276.937-1.276 3.202 0 5.578-1.181-.821-1.181-2.391 0-6.415 1.049-5.289 1.049-9.224-.997-1.077-1.385 12.306-1.442-8.883v-1.174c0-.687-.018-4.25-.447-4.307-.166-.933-.11-6.812.005-7.501.925-5.524-.28-14.993.835-19.302 0-1.659-.079-6.288.119-7.515.824-5.082-.333-16.525.405-19.984 0-.191-.044-.626.033-.762.997-1.761-.528-13.781 1.229-16.341.99-1.442.572-9.835.572-12.191 0-.137-.019-.292.018-.42 1.07-3.786.532-9.112.961-12.857-.105-.23-.111-.863-.068-1.615h3.909c-.241 3.735.198 13.61.198 15.277 0 1.914.129 5.81-.305 7.362-.17.615-.554 6.665-.345 7.157.548 1.293-.302 1.377-.319 1.36-.416-.378-.179-6.503-.179-7.563 0-.538.162-1.486-.229-1.739 0 .163.035.686-.021.795-2.871 5.516-.122 31.214-1.354 39.686 0 .129-.019.276.017.383.382 1.165-.156 3.763-.509 4.362-.722 1.232-.106 9.341-.525 10.222-.243.516-.622 4.95-.704 5.295-.408 1.722-.095 8.581-.351 9.616.094-.289.443-1.071.445-1.075.573-.898.077 4.073.268 4.675.502 1.585.452 8.119.716 8.597 1.049 1.907.401 22.261.72 23.123.411 1.109.101 3.875.579 3.894 0 .117.016.706-.012.748-.539.802-.514 7-.514 8.477 0 1.26.431 5.13.027 5.678-.907 1.226-1.206 5.301-1.206 7.047 0 3.345-.049 1.89.453 1.259.256-.321.472-6.208.869-6.945 1.008-1.873.306-3.524.786-4.903.588-1.689.023 4.845-.153 5.103-.788 1.14-.572 3.663-.698 4.797-.244 2.197-.229 7.657-.733 9.061 0 .453-.088 1.687.083 1.936 1.177 1.705.043 2.914.049 2.654.057-2.468-.108-1.273-.513-2.511-.084-.257-.003 2.091 0 2.099.656 1.951.513 2.743.513 4.939 0 1.678-.591 4.961-.59 4.981.193 3.71-1.383 5.694-.923 9.736.414 3.641.911.305.935.271.602-.896.315-4.155.315-5.466 0-1.134-.561-4.84.564-3.36.484.639.343 16.853.025 17.431 0 1.011.263 1.872.263 3.416 0 1.524-.251 13.958-.108 14.349 1.76 4.805 1.419.854 1.419 7.856 0 5.237-2.026 8.949-1.322 13.183 1.201 7.222-.262 10.104.077 13.123 0 .296-.022 2.316.011 2.447.562 2.212.447 5.908.447 8.344 0 2.565 1.209 7.166.775 8.71-1.006 3.59-.58 2.057-.71 5.608-.069 1.242.896 1.134.645 1.593-1.293 2.351.542 1.905.606.883.263-4.1 1.941 1.339.305 4.334-.612 1.117-.377 6.194-.377 7.693z"/><path fill="none" d="M142.963 103.515c.028.6.035 4.428.031 9.603a20.19 20.19 0 01.503-2.608c.384-1.406-1.678-2.9 1.057-8.991-.016-.703.013-1.702.071-2.52-.373-1.785-1.306-3.815-1.82-4.629.039 4.341.09 7.769.158 9.145zM138.787 228.913c.095.148.18.363.257.633.015-.791.039-1.676.069-2.615-.528.459-.445 1.797-.326 1.982zM141.704 129.639v-.769c-.001-3.265-.002-5.917-.011-8.566-.044 9.752-.125 20.841-.139 25.171.023-2.96.048-5.475.061-6.309.059-4.001.089-4.906.089-9.527zM142.837 79.746a2.449 2.449 0 01-.103-.16c.005 3.071.017 6.227.032 9.211.408-3.295 1.034-7.687.071-9.051z"/><path fill="#000202" d="M104.868 304.332c-.065 1.022-1.9 1.468-.607-.883.252-.459-.715-.351-.645-1.593.13-3.552-.296-2.019.711-5.608.432-1.544-.775-6.145-.775-8.71 0-2.436.112-6.132-.449-8.344-.032-.131-.011-2.151-.011-2.447-.338-3.019 1.125-5.901-.076-13.123-.704-4.233 1.322-7.945 1.322-13.183 0-7.003.34-3.052-1.419-7.856-.144-.391.108-12.824.108-14.349 0-1.544-.263-2.405-.263-3.416.317-.578.459-16.792-.025-17.431-1.125-1.479-.563 2.227-.563 3.36 0 1.311.286 4.569-.316 5.466-.023.034-.521 3.37-.934-.271-.461-4.042 1.115-6.026.921-9.736-.001-.021.591-3.304.591-4.981 0-2.196.145-2.988-.514-4.939-.002-.008-.084-2.355 0-2.099.405 1.237.57.043.514 2.511-.006.26 1.128-.949-.049-2.654-.171-.249-.083-1.482-.083-1.936.505-1.403.489-6.863.732-9.061.126-1.134-.089-3.657.698-4.797.178-.258.741-6.792.154-5.103-.48 1.379.223 3.03-.787 4.903-.396.737-.612 6.624-.869 6.945-.5.631-.453 2.086-.453-1.259 0-1.746.3-5.821 1.207-7.047.403-.548-.027-4.418-.027-5.678 0-1.477-.026-7.675.514-8.477.028-.042.012-.631.012-.748-.479-.018-.168-2.784-.578-3.894-.318-.861.327-21.215-.721-23.123-.264-.478-.215-7.012-.716-8.597-.19-.603.306-5.574-.269-4.675-.001.004-.35.783-.444 1.073.254-1.042-.059-7.892.35-9.613.083-.345.46-4.779.705-5.295.418-.881-.198-8.99.523-10.222.353-.599.892-3.198.51-4.362-.035-.107-.018-.254-.018-.383 1.232-8.471-1.516-34.169 1.355-39.686.056-.11.022-.632.022-.795.391.253.229 1.201.229 1.739 0 1.06-.238 7.184.177 7.563.02.017.867-.067.319-1.36-.208-.492.175-6.542.347-7.157.432-1.552.304-5.448.304-7.362 0-1.667-.172-12.866.068-16.601h-3.908c-.043.751-.038 1.385.068 1.615-.43 3.745-.158 10.395-1.229 14.181-.036.128-.017.283-.017.42 0 2.355.416 10.749-.573 12.191-1.757 2.56-.231 14.58-1.228 16.341-.078.136-.034.571-.034.762-.739 3.459.418 14.902-.404 19.984-.198 1.228-.119 5.856-.119 7.515-1.116 4.309.089 13.778-.836 19.302-.114.69-.171 6.569-.005 7.501.429.058.446 3.621.446 4.307v1.174c.058 21.188.445 7.806 1.444 8.883 0 3.935-1.049 2.809-1.049 9.224 0 1.57 1.179 7.969 1.179 2.391 0-2.265-.534-6.517 1.277-3.202.534.977-.622 2.69-.622 3.885-.082-.031-.066 2.396-.155 2.899-.076.436.102 8.106-.095 6.928-.306-1.826-.242-1.562-.242-3.55 0-.387.122-3.554-.393-3.501-.114-.728-.673 2.703-.467 4.219.058.418.061 1.687.298 2.115.006.009.235 1.709.235 1.779.505 3.312.122 15.607-.698 18.506-.719 2.54.287 9.047-.919 11.287-.43.803.439 9.948-.284 10.519-.001 3.981-.874 8.912.359 12.812.393 1.238-.322 17.368.057 16.011 1.289-4.615.24 9.711.24 10.634 0 8.286 1.441 11.382 1.441 19.8v15.56c.698.237.342 4.783.268 5.977-.129 2.071-.311 5.258.223 7.152.692 2.46-.743 8.753.351 10.464.026.04.011.256.011.319-.44 1.271.918 11.941.918 14.582 0 2.322.126 9.197.143 14.777h.813c.071-.369.17-.438.304 0h.926c.029-.883.177-1.656.675-3.332.656-2.203 1.465-5.224 1.465-7.572 0-2.03-.721-4.481-.721-7.537 0-1.499-.235-6.576.376-7.694 1.64-2.995-.039-8.434-.301-4.334zM161.695 304.332c-.064 1.022-1.899 1.468-.606-.883.252-.459-.714-.351-.645-1.593.13-3.552-.296-2.019.71-5.608.434-1.544-.775-6.145-.775-8.71 0-2.436.114-6.132-.447-8.344-.033-.131-.011-2.151-.011-2.447-.339-3.019 1.124-5.901-.077-13.123-.704-4.233 1.322-7.945 1.322-13.183 0-7.003.341-3.052-1.419-7.856-.143-.391.108-12.824.108-14.349 0-1.544-.263-2.405-.263-3.416.317-.578.459-16.792-.025-17.431-1.125-1.479-.564 2.227-.564 3.36 0 1.311.286 4.569-.315 5.466-.023.034-.521 3.37-.935-.271-.46-4.042 1.116-6.026.923-9.736-.001-.021.59-3.304.59-4.981 0-2.196.144-2.988-.513-4.939-.003-.008-.084-2.355 0-2.099.404 1.237.569.043.513 2.511-.006.26 1.128-.949-.049-2.654-.171-.249-.083-1.482-.083-1.936.505-1.403.489-6.863.733-9.061.126-1.134-.09-3.657.698-4.797.177-.258.741-6.792.153-5.103-.48 1.379.222 3.03-.786 4.903-.397.737-.613 6.624-.869 6.945-.502.631-.453 2.086-.453-1.259 0-1.746.299-5.821 1.206-7.047.403-.548-.027-4.418-.027-5.678 0-1.477-.025-7.675.514-8.477.027-.042.012-.631.012-.748-.479-.018-.168-2.784-.579-3.894-.318-.861.329-21.215-.72-23.123-.264-.478-.214-7.012-.716-8.597-.19-.603.306-5.574-.268-4.675-.002.004-.352.787-.445 1.075.256-1.035-.058-7.894.351-9.616.082-.345.461-4.779.704-5.295.419-.881-.196-8.99.525-10.222.353-.599.891-3.198.509-4.362-.035-.107-.017-.254-.017-.383 1.232-8.471-1.517-34.169 1.354-39.686.057-.11.021-.632.021-.795.392.253.229 1.201.229 1.739 0 1.06-.237 7.184.179 7.563.018.017.867-.067.319-1.36-.209-.492.175-6.542.345-7.157.434-1.552.305-5.448.305-7.362 0-1.667-.439-11.542-.198-15.277h-3.909c-.043.751-.037 1.385.068 1.615-.429 3.745.109 9.071-.961 12.857-.036.128-.018.283-.018.42 0 2.355.418 10.749-.572 12.191-1.757 2.56-.231 14.58-1.229 16.341-.077.136-.033.571-.033.762-.738 3.459.419 14.902-.405 19.984-.198 1.228-.119 5.856-.119 7.515-1.115 4.309.09 13.778-.835 19.302-.115.69-.171 6.569-.005 7.501.43.058.447 3.621.447 4.307v1.174c.058 21.188.445 7.806 1.442 8.883 0 3.935-1.049 2.809-1.049 9.224 0 1.57 1.181 7.969 1.181 2.391 0-2.265-.535-6.517 1.276-3.202.534.977-.621 2.69-.621 3.885-.083-.031-.068 2.396-.155 2.899-.077.436.101 8.106-.096 6.928-.307-1.826-.241-1.562-.241-3.55 0-.387.121-3.554-.394-3.501-.114-.728-.673 2.703-.467 4.219.057.418.061 1.687.298 2.115.005.009.235 1.709.235 1.779.505 3.312.123 15.607-.699 18.506-.718 2.54.288 9.047-.917 11.287-.432.803.439 9.948-.285 10.519-.002 3.981-.875 8.912.359 12.812.393 1.238-.322 17.368.057 16.011 1.29-4.615.239 9.711.239 10.634 0 8.286 1.441 11.382 1.441 19.8v15.56c.699.237.342 4.783.27 5.977-.129 2.071-.312 5.258.222 7.152.692 2.46-.743 8.753.351 10.464.025.04.012.256.012.319-.441 1.271.917 11.941.917 14.582 0 2.322.127 9.197.142 14.777h.815c.071-.369.168-.438.304 0h.926c.028-.883.176-1.656.675-3.332.655-2.203 1.464-5.224 1.464-7.572 0-2.03-.721-4.481-.721-7.537 0-1.499-.235-6.576.376-7.694 1.638-2.994-.041-8.433-.304-4.333zM113.875 42.019c0 1.55.311 6.503-.36 7.552-.215.339-.614 7.818-1.131 9.394-.127.387.256 3.157-.398 2.291-.888-1.172.644-8.764.644-10.497v-9.004c-.036-.368.053-6.144.074-9.776h-2.216c-.408 1.949-.774 6.506-.774 8.725 0 2.87-.542 20.101.272 20.825 1.665 1.482-1.945 4.94.272 11.229 2.313 6.555-2.656 9.227-1.07 12.937.264.616.13 1.56.13 2.265-.302 1.179-1.014 10.563-.572 11.949.012.003.276-3.142.595-3.92.224-.544.765-9.462.765-2.556 0 1.889-.594 3.695-.459 6.462.009.185-1.482 7.541.108 4.326.036-.072.04-.143.057-.213a9.588 9.588 0 01-.099-1.443c0 .582.201 1.006.099 1.443.152 1.031.425 1.697.425 3.766v1.879c-.52 1.122-.245 21.42-.596 25.017-.221 2.267-.388 6.175-.388 8.547.023.011-.655 5.98-.655 6.803 0 1.334-.04 5.403-.425 6.334-.072.176.097 8.184.097 7.11 0-1.372.787-1.02.787-4.185 0-1.956.576-6.234.661-8.433.003-.103.243-1.667.388-1.652 0-2.87.132 3.042.132 3.688 0 4.069-.132 8.357-.132 12.284-.155.021-1.376 2.664-1.376 4.248 0 .026-.047 7.872.196 5.587 1.326-12.473.969-2.107.885-1.978-.752 1.145.697 21.551-.496 23.408-.037.057-1.15 6.753-.634 6.98 1.712.752.988-.285 1.306-2.896.334-2.754.674-5.813.835-8.589.131-2.29.268-3.36.268-5.83 0-1.552-.409-12.305.306-12.996.85-.823.753 1.955.24 3.212-.479 1.174-.617 6.975.062 8.076.269.438.192 3.57-.236 4.426-.102.201-.109.551-.109.777-.414.939-.048 3.244-.453 4.839-.002.013-.037 2.327-.21 3.093-.067.291-.025 3.342-.025 3.939-.628 2.279.123 6.599-.572 8.711-.563 1.707-.65 17.41-.416 19.984.003.037.055.174.072.256-.803.078-.681 21.813.981 24.34.224.344.197 1.711.197 2.222-.406 2.164.787 4.585.787 8.091 0 3.373-.011 3.765.333 6.995.293 2.753-.006 17.051-.006 21.039-.1.156-.029 13.534-.441 14.775-.008.023-.968 7.491.431 5.188.123-.204.022-4.803.257-5.85.197-.889.354-7.853.563-7.373.531 1.224.384 10.454-.144 11.217-.014.021-.036 2.602-.392 3.16-.01.013-.015 3.854-.241 4.255-.055.099-.229 2.346-.229 2.556.002 3.317-.303 3.824.579 6.854.034.118-.038 2.429.322 3.643.093.316.082 1.734.049 3.274h.872c.079-.445.144-1.015.144-2.221 0-1.25.118-4.093-.447-4.912-.251-.364-.267-9.321.229-10.611.907-2.366.629-5.271.105-7.621-1.012-4.53 1.461-11.947.131-13.345-.203-.214.051-.377-.214-.513-.816-2.519.639-30.587-.245-31.778-.738-.994-.251-6.016.18-5.972-.27-1.219.415-8.276-.774-8.276-.198.747.372 4.912-.459 4.854-.192-.522.131-4.85-.454-6.918-.132-.471.771-6.106.771-8.092 0-1.484-.074-8.079-.273-9.153a17.46 17.46 0 01-.055-.683c.63.023.205-14.013-.393-14.561-.914-.837.554-15.643 1.015-17.227.904-3.109.764-29.099-.063-32.026-.085-.301-.034-1.308-.034-1.693.937-2.689-.787-13.607-.787-17.594 0-6.596.919-10.509.919-17.407 0-4.296-.656-5.797-.656-9.238.702-2.517-1.21-5.117.24-7.388.151-.238-.284-6.481.479-7.642 1.354-2.06-1.315-7.619.876-11.787-.077-.358.371-16.407.371-18.447-.618-5.979-.655-8.332-.655-14.27 0-4.093.699-7.902 1.294-11.949.587-4.038-1.037-11.814-1.037-6.31zM170.188 327.668c-.252-.364-.267-9.321.229-10.611.906-2.366.628-5.271.104-7.621-1.011-4.53 1.46-11.947.131-13.345-.204-.214.05-.377-.214-.513-.816-2.519.639-30.587-.245-31.778-.737-.994-.252-6.016.181-5.972-.27-1.219.414-8.276-.776-8.276-.197.747.374 4.912-.457 4.854-.193-.522.131-4.85-.454-6.918-.134-.471.77-6.106.77-8.092 0-1.484-.074-8.079-.272-9.153a17.46 17.46 0 01-.055-.683c.629.023.204-14.013-.395-14.561-.913-.837.555-15.643 1.016-17.227.904-3.109.764-29.099-.063-32.026-.086-.301-.033-1.308-.033-1.693.936-2.689-.787-13.607-.787-17.594 0-6.596.918-10.509.918-17.407 0-4.296-.655-5.797-.655-9.238.7-2.517-1.211-5.117.239-7.388.151-.238-.284-6.481.479-7.642 1.354-2.06-1.315-7.619.877-11.787-.077-.358.37-16.407.37-18.447-.617-5.979-.654-8.332-.654-14.27 0-4.093.699-7.902 1.293-11.949.594-4.041-1.031-11.816-1.031-6.313 0 1.55.31 6.503-.359 7.552-.217.339-.615 7.818-1.132 9.394-.128.387.257 3.157-.398 2.291-.888-1.172.644-8.764.644-10.497v-9.004c-.037-.368.053-12.356.074-15.989h-2.216c-.409 1.949-.775 12.718-.775 14.937 0 2.87-.541 20.101.273 20.825 1.665 1.482-1.944 4.94.272 11.229 2.313 6.555-2.656 9.227-1.071 12.937.264.616.132 1.56.132 2.265-.303 1.179-1.015 10.563-.573 11.949.013.003.276-3.142.596-3.92.224-.544.765-9.462.765-2.556 0 1.889-.595 3.695-.46 6.462.009.185-1.482 7.541.108 4.326.036-.072.04-.142.056-.212a9.603 9.603 0 01-.099-1.444c0 .583.202 1.007.099 1.444.152 1.03.425 1.696.425 3.765v1.879c-.52 1.122-.245 21.42-.596 25.017-.22 2.267-.388 6.175-.388 8.547.023.011-.654 5.98-.654 6.803 0 1.334-.04 5.403-.426 6.334-.072.176.098 8.184.098 7.11 0-1.372.787-1.02.787-4.185 0-1.956.574-6.234.66-8.433.004-.103.243-1.667.389-1.652 0-2.87.13 3.042.13 3.688 0 4.069-.13 8.357-.13 12.284-.156.021-1.377 2.664-1.377 4.248 0 .026-.046 7.872.196 5.587 1.326-12.473.969-2.107.885-1.978-.751 1.145.697 21.551-.497 23.408-.035.057-1.15 6.753-.633 6.98 1.712.752.988-.285 1.306-2.896.335-2.754.675-5.813.835-8.589.132-2.29.269-3.36.269-5.83 0-1.552-.41-12.305.304-12.996.852-.823.754 1.955.242 3.212-.479 1.174-.617 6.975.06 8.076.27.438.193 3.57-.236 4.426-.1.201-.107.551-.107.777-.414.939-.049 3.244-.453 4.839-.004.013-.037 2.327-.211 3.093-.066.291-.025 3.342-.025 3.939-.628 2.279.124 6.599-.572 8.711-.563 1.707-.65 17.41-.415 19.984.003.037.055.174.071.256-.802.078-.68 21.813.98 24.34.225.344.198 1.711.198 2.222-.406 2.164.786 4.585.786 8.091 0 3.373-.009 3.765.333 6.995.294 2.753-.005 17.051-.005 21.039-.1.156-.028 13.534-.441 14.775-.008.023-.968 7.491.431 5.188.123-.204.022-4.803.257-5.85.198-.889.354-7.853.563-7.373.533 1.224.386 10.454-.142 11.217-.015.021-.037 2.602-.394 3.16-.008.013-.014 3.854-.239 4.255-.056.099-.23 2.346-.23 2.556.002 3.317-.302 3.824.579 6.854.035.118-.038 2.429.321 3.643.089.301.084 1.597.055 3.046l.915-.084c.056-.409.096-.962.096-1.908-.004-1.247.115-4.09-.452-4.909z"/><path fill="#FFF" d="M122.641 256.585c.356-.301-.199-1.348-.199-1.361 0 .267-.389 1.855.199 1.361zM123.66 295.269c-.059-.09.116-.184-.169-.65l-.033-.086c-.218.225-.029 6.703.036 6.715.176.033 1.089-.297.464-1.244-.241-.368.065-4.165-.298-4.735zM143.381 53.783c0 4.002.843 3.997.786 1.666-.118-4.8-.137-2.983 1.6-6.039.5-.88.129-4.905.012-5.355-.624-2.385-.544-6.609-.518-9.637h-.836c.011 3.075.008 6.396-.063 6.597-1.362 3.931.683 5.264.276 7.063-.909 4.03-1.257.269-1.257 5.705zM124.187 292.229c-.026-.049-.009-.291-.009-.365 0-.35-1.069-.295-1.117.352-.212 2.854 1.488.373 1.166-.053l-.04.066z"/><path fill="#FFF" d="M126.949 305.274v-6.158c0-1.799.518-5.771.246-6.973-.43-1.893-.521-12.076-.246-14.027 0-1.766-.088-5.809.623-7.133 0-.264-.239-1.402-.387-1.551-1.271-1.27-1.259-6.928-.973-8.525.637-3.568-.11-9.152.441-12.811-.111-.564-.256-.975-.321-1.461-.124-.932-.276-4.078-.284-4.113-.625-2.797-.311-7.656-.311-10.76 0-2.307-.696-2.535-.28-4.357.543-2.375-.735-5.648.541-5.451.632.1.815-3.908.775-4.006-.242-.604-.774-6.543-.709-6.918-.078-.104-.082-1.178-.049-1.287.364-1.227-.071-5.676-.355-6.121-.589-.92.484-3.479.601-3.529.131-.061.922-22.656.654-23.223 0-.105.019-.232-.011-.328-.806-.217.535-2.691.131-3.324-1.151-1.805-.243-4.328-.596-5.851-.556-2.416 1.105-8.531.858-9.892.99-1.236.134-2.85-.383-4.221-.356-.906-.262-.554-.262-1.655 0-.855-.212-1.864.262-1.89.739-.041.656-3.079.656-3.839 0-1.445-.799 1.079-.923.899.071-.639-.134-2.686.104-3.04 0-1.695 1.081-3.319.549-4.996-.358-1.126-.013-9.322-.254-9.65 0-1.559-.065-3.722.06-5.184.338-3.925-1.038-2.499-.661-5.589.244-1.997.2-11.32-.185-13.029-.543-2.407-.496-3.011.524-4.847.453-.817-.065-4.264-.066-4.266 0-1.652-.033-12.984.04-13.455.212-1.335.1-5.184.288-5.823.004-.083-.209-.609-.006-1.647.459-2.358.365-3.047.365-5.463 0-2.283-1.292-7.507-.786-8.965.584-1.687.105 1.531.598 2.132.499.61.179 1.691.303 1.924.273.508.026 2.02.285 1.504.507-1.013.047-1.21.131-1.925-.203-.264-.116-1.569-.143-1.621-.352-.682-.158-4.525-.158-5.616-.109-.06-.157-.044-.165-.145-.836-.25-1.542-2.217-1.567-2.228 0-1.728.613-6.92-.284-8.327-.576-.901-.771-7.863-1.179-12.098h-1.658c.261 3.724.991 7.143 1.405 10.874.76 6.835-1.808 9.843-.676 17.152 0 .041-.007.171.007.195 1.105 2.062.617 3.778.617 5.954 0 2.161-.41 3.749-.332 5.583.072 1.669-.063 1.949-.127 3.428-.092 2.087-.508 1.488-.853 2.52-.259.134-.36 1.07-.36 1.409 0 2.401-1.551 4.988-1.229 5.776.942 2.303.429 5.701.689 6.32.228.54.116-1.356.12-1.37.292-.078.232-1.154.295-1.27.991-1.848.21-1.706.48-3.222.327-1.836-.69-2.36.33-3.381.883-.88.597 1.168.575 1.225-.265.754-.238 7.257-.047 8.391-.299.359-.016 1.214-.142 1.538-.562 1.432-.317 3.823-.317 5.528 0 2.578 1.059 4.748.64 6.706-.538 2.507.017 13.957-.52 14.73-.457.661-.154 3.339-.263 3.501-1.1 1.668-.319-6.835-.709-7.585-.14-.268-.23-.409-.288-.476-.016.358-.184-.213 0 0a4.93 4.93 0 00-.052-.721c.289-.36 1.098-4.705.721-5.266-1.626-2.42.737-3.916-.113-4.805-.842-.879-.419-1.765-.542-1.942-1.103-1.597 1.058-5.234.328-6.321-.601-.894-.24-4.672-.752-4.276-.413.316-.359 25.655-.219 26.46 0 3.179-.219 19.109.213 20.461.694 2.172.202 13.126.313 16.434 0 .269.021.589-.018.847-.749 4.923-.686 17.087-.277 22.384 0 1.096-.052 3.781.237 4.697.4 1.268-.587 2.441-.298 2.893.366.572.156 1.51.273 2.232v.797c0 .818.172 2.559-.229 3.154-.004.068.24 1.498.279 1.623.274.861.565 4.451.3 5.449-.727.197-1.247 5.471-.758 6.477.786 1.617-.096 11.361.508 12.264 0 .107.174 1.115.205 1.254.083.369.128 2.701.037 3.012-.099.34-.479 2.627-.39 2.779 0 .166-.041.848-.082.918-.686 1.18-.578 9.043-.399 10.486.267 2.16-.546 7.557.957 7.557 1.103 0-.476-14.424.378-15.201 0-1.691-.753-4.715-.351-5.809.512-1.395-.371-5.189.131-6.178.68-1.338.015-11.527.213-13.984.262-3.229.201-5.721.203-9.004.01-.152-.329-1.07-.385-1.117-.79-.645-.032-4.605-.524-6.266-.074-.252.624-1.555.838-1.777 1.039-1.068.391-3.119-.158-3.438v-9.393c0-3.944.655-2.252.655-5.631 0-.963.332-8.227.316-8.255-.47-.875-.163-3.902-.381-5.075v-4.021c0-2.152-1.104-7.947-.573-9.558.622-1.885.311-7.1.311-9.31 0-.684-.13-5.66-.118-5.7.462-1.789.688 3.223.692 3.245.22 1.347 1.025 6.078.917 6.988-.514 4.281-.379 6.814-.375 11.182 0 .174.026 1.063-.018 1.195-.773 2.323-.114 4.515-.114 7.423 0 2.497 1.024 9.746.491 11.152 0 .231-.018 1.525.009 1.62.142.499.371 4.626.164 4.983-1.168 2.02-.606-3.418-.508-3.998.354-2.111-.369-1.918-.388-1.579-.094 1.66-.045 11.157.102 11.7l.011.236c.456 1.566.45 5.293-.119 6.682-.506 1.232-.586 15.881-.284 17.596-.021.316.382.48.398.76.121 2.037.534 5.41-.476 6.988-.52.813-.151 13.633-.315 15.652 0 .479-.152 3.1.119 3.174.717 2.697.19 5.367.464 8.27.289 3.059.72 7.184.302 10.377 0 .682 0 2.068.033 2.713 0 .537-.019 4.336.009 4.469.271 1.289-.146 7.449.204 7.828 0 .258.093 1.592.14 1.689.183.383.018 3.121.123 3.863 0 1.027.083 7.715.208 8.221.542 2.193-1.012 5.207-.273 5.971 1.102 1.137.786 8.645.786 10.725 0 .873-.335 7.637-.262 7.709 0 .119-.017.232.018.348.418 1.41.18 4.43.18 5.994 0 3.186.852 6.119.852 7.252 0 5.047.197 10.598.197 15.893 0 .551-.014 1.014-.035 1.406h1.625c.115-7.322.096-19.086.015-19.234-.311-.569-.261-8.096-.817-10.29zM144.555 101.518c.017-.037.028-.069.045-.106.267-.588.224-1.467.026-2.414a29.511 29.511 0 00-.071 2.52z"/><path fill="#FFF" d="M146.469 118.544c-.963.577-.75 9.54-.629 10.07.404 1.773.149 3.693.294 5.551.226 2.913-.502 3.079-.77 4.686-.054 1.085-.096 1.777-.096 1.293 0-.529.038-.943.096-1.293.098-1.978.235-5.283.233-5.301-.714-3.983.797-8.24-.486-12.401 0-.18-.025-.758.015-.905.78-.209.536-6.725.536-7.601 0-4.468-1.188-6.875-1.18-6.867 0-.99-.184-3.548.53-1.126.977 3.318 1.357-6.777 1.357-7.156 0-4.164-.964-4.49-.793-2.683.337 3.57-.176 2.753-.473 5.218-.363 3.024-.523 2.699-.55 1.489-2.735 6.091-.673 7.585-1.057 8.991-.209.77-.377 1.655-.503 2.608.004-5.175-.003-9.003-.031-9.603-.068-1.375-.119-4.803-.157-9.146.514.813 1.447 2.844 1.82 4.629.029-.398.064-.753.106-1.01.633-3.912-.932-8.003-.878-8.814.301-4.607-.49-3.641.722-1.654 2.526 4.147-.634-8.139-.656-8.269-.129-.035-.991-1.834-1.167-2.161a.215.215 0 01-.021-.058c-.001-1.798-.001-3.54.001-5.168.152-3.716.441-8.037.466-8.045.714-.226.558 9.132.506 9.974-.296 4.706.937 6.997.937 2.366 0-2.374.873-5.205.452-6.559-.62-1.993-.345-4.846-.634-5.196-.938-1.131.34-4.078.34-6.488 0 1.134-1.954 2.227-2.173.039l-.017-.655v-.002c-.046-2.033-.081-4.014-.115-4.842-.012-.284-.24-13.086-.243-13.518a195.06 195.06 0 01.004-4.52h-.559a425.373 425.373 0 00-.097 4.442c-.098 6-.345 22.564-.115 28.426.379 9.733.399 35.605.537 37.515.018.317.164 6.034.188 6.218.354 2.778.346 10.11.265 14.184-.092 4.551-.291 10.218-.174 15 .076 3.214-.219 3.215-.214 3.172.182-1.84-.053-19.257.031-22.92.122-5.396.187-10.27-.402-13.99-.01-1.796-.029-2.987-.063-3.298-.529-4.981-.634-36.912-.36-41.696-.065-.026-.18-.812-.206-1.139-.216-2.722-.336-6.867-.452-8.169-.026-.282-.522-13.071-.531-13.502-.033-1.905-.02-3.222.004-4.242h-1.221a195.701 195.701 0 00-.193 4.165c-.213 5.994-.747 22.539-.253 28.395.822 9.724.868 35.566 1.169 37.473.035.318.354 6.028.406 6.212.771 2.775.748 10.098.573 14.168-.198 4.544-.63 10.206-.379 14.982.169 3.21-.474 3.212-.464 3.169.395-1.838-.113-19.236.068-22.896.27-5.432.41-10.334-.902-14.062-.222-.628-.145 5.366-.129 6.11.127 6.078.133 10.089.135 16.36v.767c0 4.616-.063 5.52-.192 9.516-.077 2.388-.36 18.501-.224 19.581.795 6.23.179 12.521.452 16.002.451 5.742.238-8.505.35-9.37.473-3.631.43-21.032.442-21.104.355-2.159.292 8.831.293 8.906 0 3.653-.068 28.506-.083 28.608-.272 1.992-.216 4.434-.213 6.693.099.379.193.969.211 1.035.75 2.707.338 7.021-.104 7.172-1.088.371-.331 6.139.126 7.854.167.625.812-.324 1.031-.734.602-1.125.261 6.033.249 6.033-1.723 0-1.134-5.789-1.711-4.127-.372 1.074-.37 7.172-.242 8.51.223 2.313-.042 8.379-.188 13.094-.03.939-.055 1.824-.069 2.615a2.48 2.48 0 00-.257-.633c-.118-.186-.201-1.523.326-1.982-4.216 3.68.526 14.93-1.688 22.326-1.997 6.672 2.738 14.523.494 25.025-1.863 8.719 1.216 20.484-.535 26.012-1.02 3.217 3.712-3.125 1.614-7.635-2.005-4.309.346-22.113 1.607-26.594.093-.326-.897-10.604-1.042-14.93.154.332.342-.076.342 1.771v-10.271c0-3.084-.47-9.189-.209-10.799.351-2.16.348-3.047.546-5.168.206-2.182.231-10.918.338-11.521.945-5.375.938-5.328.938.818 0 3.064.251 7.559-.592 7.559-.527 0-.39 11.527-.165 12.406 0 .361-.022.518.033.672.324.887.077 4.508.308 5.412.833 3.266.352 7.145.352 11.449 0 3.09-1.014 7.836-.464 9.477.548 1.631-.12 16.256-.261 16.859 0 1.389-.079 10.629.129 11.234.412 1.197.272 6.156.362 6.543.289 1.252-.461 2.309-.458 2.047.048-4.662-.369-5.74-.719-9.092-.358-3.438.35-11.682-.306-11.521-.11.027-.178 34.625-.147 41.084.003.465 0 .785.004.936.051.18.027.701.054 1.033.176 2.242.14 7.121.227 8.309.071.992.094 2.686.1 4.428h1.702c-.011-3.209-.019-7.758.043-8.363.138-1.385.244-2.607.324-3.688.077 2.281.063 7.051.102 8.225.028.877.041 2.303.044 3.826h.785c-.005-3.15-.006-7.199.02-7.768.724-15.785-.4-10.596-.449-12.203-.367-11.586.556-16.072.556-16.945 0-19.543.185-90.537-.11-104.35-.059-2.725-.077-6.809-.076-11.449.586.396.805-1.031.835-1.092.489-.973.829-5.211.721-5.943.744-1.174-.333 6.166 1.063 3.398.37-.73-.239-10.957-.348-9.027-.219 3.867-.365-1.439-.072-2.305.682-2.01-.489-4.432.335-6.705 1.163-3.21-1.761-4.641-.767-6.159 1.256-1.916.188-2.659.432-3.586-1.035-2.542-.138-2.721-.157-3.502-.113-4.603.277 2.63 1.102 1.862.619-.577.908-15.725.667-16.089-1.011-1.534-.813-9.906-.674-10.018.989-.792 2.191-5.439.415-4.374zm-3.632-38.798c.963 1.364.337 5.756-.07 9.051-.016-2.984-.027-6.14-.032-9.211.033.056.066.11.102.16zm-.172 124.136c.278-1.127.121 6.039.116 6.039-.794 0-.522-5.795-.789-4.131a3.561 3.561 0 00-.025.215 987.944 987.944 0 00-.075-5.973c.047 1.744.191 3.701.3 4.584.075.627.372-.326.473-.734zm-.972-83.578c.009 2.649.01 5.302.011 8.566v.769c0 4.621-.029 5.526-.089 9.527-.013.834-.037 3.349-.061 6.309.014-4.33.095-15.419.139-25.171zm-.022 42.615c.1 4.757-.05 9.162.049 11.869.207 5.748.109-8.515.16-9.38.219-3.635.199-21.055.205-21.126.163-2.162.134 8.84.135 8.915 0 2.62-.018 16.135-.028 23.625-.349 1.438-.508 2.795-.008 4.092l-.003.922c-.127 1.996-.099 4.441-.098 6.703.044.377.089.969.098 1.033.345 2.713.155 7.033-.048 7.184-.2.146-.265 1.15-.258 2.414a228.071 228.071 0 00-.168-6.084c-.287-6.175-.129-19.339-.036-30.167zm.957 61.086c-.242 0-.179 11.541-.074 12.422 0 .361-.012.518.015.672.149.887.035 4.512.142 5.418.383 3.27.162 7.152.162 11.463 0 3.094-.468 7.846-.215 9.484.254 1.635-.055 16.275-.119 16.881 0 1.389-.037 10.641.059 11.244.19 1.199.126 6.164.168 6.553.133 1.252-.212 2.309-.211 2.051.021-4.67-.171-5.75-.332-9.104-.165-3.441.161-11.695-.14-11.535-.043.023-.071 24.168-.071 35.904-.407-1.557-1.208-.307-1.271-1.211-.797-11.572 1.207-16.055 1.207-16.928 0-8.461.075-26.578.108-45.516.055.115.103.232.103 1.619V243.14c0-1.473-.049-3.635-.088-5.666.001-1.766 0-3.516-.001-5.248.155-2.09.155-2.982.245-5.07.095-2.184.106-10.93.155-11.535.435-5.381.433-5.334.433.82 0 3.066.115 7.564-.275 7.564zm1.318-64.935c-.707 3.82-.485 7.471-.485 11.487 0 1.233-.238 2.41-.531 3.536.041-12.224.134-25.177-.011-27.3 0-3.222.036-14.033.06-24.053.109.874.251 1.687.424 2.399.924 3.818.335 10.025.373 10.155.002.037-.929 3.178-.014 3.876.118 1.372.265 19.461.184 19.9zM129.633 170.204c-.792-3.864 1.202-5.359 1.202-5.652 0-6.517.399-30.194-.238-34.801-.502-3.619.359-14.431-.154-15.587 0-2.094.301-13.792.097-14.434-.525-1.664-.631-12.324-.358-13.92-.065-.009-.18-.272-.205-.381-.214-.909-.334-2.292-.45-2.728-.025-.094-.52-4.363-.527-4.507-.142-2.63.534-1.905-.588-4.696-.025-.029-.018-.068-.036.058-.247 1.57-.607 2.96-.781 4.611-.212 2.001-.744 7.525-.251 9.479.819 3.247.865 11.876 1.162 12.511.036.106.354 2.013.404 2.075.769.926.746 3.371.57 4.729-.195 1.517-.626 3.407-.375 5.003.167 1.072-.472 1.072-.462 1.057.393-.613-.112-6.421.068-7.643.268-1.814.407-3.451-.899-4.695-.22-.209-.144 1.791-.128 2.04.127 2.028.133 3.369.134 5.461v.256c0 1.541-.063 1.842-.19 3.177-.077.798-.359 6.178-.222 6.538.788 2.08.177 4.181.447 5.343.45 1.917.237-2.84.35-3.127.471-1.212.428-7.023.44-7.047.354-.721.29 2.949.291 2.974 0 1.22-.069 9.518-.082 9.551-.272.667-.214 1.481-.212 2.236.097.126.19.323.21.345.746.904.335 2.345-.104 2.395-1.084.124-.329 2.049.125 2.622.166.209.809-.109 1.026-.245.599-.376.261 2.014.249 2.014-1.716 0-1.129-1.932-1.704-1.377-.371.357-.368 2.394-.24 2.841.359 1.254-.563 5.82-.177 6.38.215.311.287 3.98.256 4.552-.133 2.443.522.958.522 2.112v-3.429c0-1.03-.469-3.067-.208-3.605.349-.721.345-1.017.544-1.725.203-.729.229-3.645.336-3.847.94-1.795.933-1.779.933.273 0 1.023.251 2.524-.589 2.524-.524 0-.388 3.848-.164 4.143 0 .12-.023.172.033.225.322.294.077 1.503.306 1.806.828 1.088.35 2.385.35 3.823 0 1.031-1.009 2.617-.462 3.164.545.544-.118 5.428-.26 5.628 0 .463-.078 3.549.129 3.751.411.4.271 2.055.361 2.186.288.417-.459.77-.456.684.046-1.557-.368-1.917-.717-3.037-.356-1.146.349-3.9-.302-3.846-.111.009-.179 11.56-.147 13.717.002.154 0 .262.003.311.05.061.027.234.054.346.174.75.139 2.379.225 2.773.185.857.044 3.283.117 3.502.247.756.179.59.647.537.577-.066.891-1.371 1.037-1.58 0-.549-.05-3.486.034-3.773 1.563-5.265-.863-3.535-.974-4.071zM128.553 56.616c0 .361.212 1.897.233 2.267.064 1.15.652 1.122.359 1.414-.4.4-.287 2.788-.232 2.896v5.85c0 .549-.156 3.629-.032 3.801 0 .798-.161 1.352.393 1.722 1.889-3.614.787-1.721.787-7.403 0-1.012-.943-9.611-.917-10.376.282-8.613.341-14.93-.518-22.369h-2.212c-.069.994-.094 1.78-.023 2.087 1.276 5.531-.716 9.639 2.162 20.111zM123.556 290.96c.224-.139.321-.447.344-.506.178-.479.131-4.279-.937-3.184-.543.557.399 3.811.593 3.69zM122.257 78.458c.747-1.364 1.338-14.892.86-16.784-2.092-8.299.164-18.814-1.255-26.475a44.72 44.72 0 01-.14-.782h-.516c.418 2.23.371 4.813.371 6.93 0 3.875-1.821 10.991-1.276 12.826 1.355 4.568.627 13.699 1.049 14.802.621 1.631-.004 11.139.907 9.483zM122.622 257.937c-.112.168-.271 1.715-.251 1.723.699.277 1.532-.98.757-1.232-.129-.042-.371-.693-.506-.491zM122.794 260.741c-.062-.066-.38-.076-.386-.07-.408.385-.676 5.959.323 3.479.469-1.163.907-2.495.063-3.409z"/></svg>